<?xml version="1.0"?>
<xmeml version="5">
	<project>
		<name>Untitled Project 1</name>
		<children>
			<bin>
				<updatebehavior>add</updatebehavior>
				<name>Custom Bins</name>
				<children>
					<bin>
						<updatebehavior>add</updatebehavior>
						<name>PR_SCENE14</name>
						<children>
							<clip id="ArmA 3 2020.11.28 - 23.52.07.02.mp4">
								<updatebehavior>add</updatebehavior>
								<name>ArmA 3 2020.11.28 - 23.52.07.02.mp4</name>
								<duration>444</duration>
								<rate>
									<ntsc>FALSE</ntsc>
									<timebase>60</timebase>
								</rate>
								<in>-1</in>
								<out>-1</out>
								<masterclipid>ArmA 3 2020.11.28 - 23.52.07.02.mp4</masterclipid>
								<ismasterclip>TRUE</ismasterclip>
								<logginginfo>
									<scene />
									<shottake />
									<lognote />
									<good>FALSE</good>
								</logginginfo>
								<labels>
									<label2 />
								</labels>
								<comments>
									<mastercomment1 />
									<mastercomment2 />
									<mastercomment3 />
									<mastercomment4 />
								</comments>
								<media>
									<video>
										<track>
											<clipitem id="ArmA 3 2020.11.28 - 23.52.07.02.mp41">
												<name>ArmA 3 2020.11.28 - 23.52.07.02.mp4</name>
												<duration>444</duration>
												<rate>
													<ntsc>FALSE</ntsc>
													<timebase>60</timebase>
												</rate>
												<in>0</in>
												<out>444</out>
												<start>0</start>
												<end>444</end>
												<pixelaspectratio>Square</pixelaspectratio>
												<anamorphic>FALSE</anamorphic>
												<alphatype>none</alphatype>
												<masterclipid>ArmA 3 2020.11.28 - 23.52.07.02.mp4</masterclipid>
												<logginginfo>
													<scene />
													<shottake />
													<lognote />
													<good>FALSE</good>
												</logginginfo>
												<labels>
													<label2 />
												</labels>
												<comments>
													<mastercomment1 />
													<mastercomment2 />
													<mastercomment3 />
													<mastercomment4 />
												</comments>
												<file id="ArmA 3 2020.11.28 - 23.52.07.02">
													<name>ArmA 3 2020.11.28 - 23.52.07.02.mp4</name>
													<pathurl>file://localhost/F:/AMVS Russia/NaturaDestruction/PRPACK6/ArmA 3 2020.11.28 - 23.52.07.02.mp4</pathurl>
													<rate>
														<timebase>60</timebase>
														<ntsc>FALSE</ntsc>
													</rate>
													<duration>444</duration>
													<timecode>
														<rate>
															<timebase>60</timebase>
															<ntsc>FALSE</ntsc>
														</rate>
														<frame>0</frame>
														<displayformat>NDF</displayformat>
														<source>source</source>
													</timecode>
													<media>
														<video>
															<duration>444</duration>
															<samplecharacteristics>
																<width>1920</width>
																<height>1080</height>
															</samplecharacteristics>
														</video>
														<audio>
															<samplecharacteristics>
																<samplerate>48000</samplerate>
																<depth>32</depth>
															</samplecharacteristics>
															<channelcount>1</channelcount>
														</audio>
														<audio>
															<samplecharacteristics>
																<samplerate>48000</samplerate>
																<depth>32</depth>
															</samplecharacteristics>
															<channelcount>1</channelcount>
														</audio>
													</media>
												</file>
												<sourcetrack>
													<mediatype>video</mediatype>
												</sourcetrack>
												<fielddominance>none</fielddominance>
											</clipitem>
											<enabled>TRUE</enabled>
											<locked>FALSE</locked>
										</track>
									</video>
									<audio>
										<track>
											<clipitem id="ArmA 3 2020.11.28 - 23.52.07.02.mp42">
												<name>ArmA 3 2020.11.28 - 23.52.07.02.mp4</name>
												<duration>444</duration>
												<rate>
													<ntsc>TRUE</ntsc>
													<timebase>24</timebase>
												</rate>
												<in>0</in>
												<out>444</out>
												<start>0</start>
												<end>444</end>
												<masterclipid>ArmA 3 2020.11.28 - 23.52.07.02.mp4</masterclipid>
												<logginginfo>
													<scene />
													<shottake />
													<lognote />
													<good>FALSE</good>
												</logginginfo>
												<labels>
													<label2 />
												</labels>
												<comments>
													<mastercomment1 />
													<mastercomment2 />
													<mastercomment3 />
													<mastercomment4 />
												</comments>
												<file id="ArmA 3 2020.11.28 - 23.52.07.02" />
												<sourcetrack>
													<mediatype>audio</mediatype>
												</sourcetrack>
											</clipitem>
											<enabled>TRUE</enabled>
											<locked>FALSE</locked>
										</track>
										<track>
											<clipitem id="ArmA 3 2020.11.28 - 23.52.07.02.mp43">
												<name>ArmA 3 2020.11.28 - 23.52.07.02.mp4</name>
												<duration>444</duration>
												<rate>
													<ntsc>TRUE</ntsc>
													<timebase>24</timebase>
												</rate>
												<in>0</in>
												<out>444</out>
												<start>0</start>
												<end>444</end>
												<masterclipid>ArmA 3 2020.11.28 - 23.52.07.02.mp4</masterclipid>
												<logginginfo>
													<scene />
													<shottake />
													<lognote />
													<good>FALSE</good>
												</logginginfo>
												<labels>
													<label2 />
												</labels>
												<comments>
													<mastercomment1 />
													<mastercomment2 />
													<mastercomment3 />
													<mastercomment4 />
												</comments>
												<file id="ArmA 3 2020.11.28 - 23.52.07.02" />
												<sourcetrack>
													<mediatype>audio</mediatype>
												</sourcetrack>
											</clipitem>
											<enabled>TRUE</enabled>
											<locked>FALSE</locked>
										</track>
									</audio>
								</media>
							</clip>
							<clip id="ArmA 3 2020.11.28 - 23.53.40.03.mp4">
								<updatebehavior>add</updatebehavior>
								<name>ArmA 3 2020.11.28 - 23.53.40.03.mp4</name>
								<duration>314</duration>
								<rate>
									<ntsc>FALSE</ntsc>
									<timebase>60</timebase>
								</rate>
								<in>-1</in>
								<out>-1</out>
								<masterclipid>ArmA 3 2020.11.28 - 23.53.40.03.mp4</masterclipid>
								<ismasterclip>TRUE</ismasterclip>
								<logginginfo>
									<scene />
									<shottake />
									<lognote />
									<good>FALSE</good>
								</logginginfo>
								<labels>
									<label2 />
								</labels>
								<comments>
									<mastercomment1 />
									<mastercomment2 />
									<mastercomment3 />
									<mastercomment4 />
								</comments>
								<media>
									<video>
										<track>
											<clipitem id="ArmA 3 2020.11.28 - 23.53.40.03.mp41">
												<name>ArmA 3 2020.11.28 - 23.53.40.03.mp4</name>
												<duration>314</duration>
												<rate>
													<ntsc>FALSE</ntsc>
													<timebase>60</timebase>
												</rate>
												<in>0</in>
												<out>314</out>
												<start>0</start>
												<end>314</end>
												<pixelaspectratio>Square</pixelaspectratio>
												<anamorphic>FALSE</anamorphic>
												<alphatype>none</alphatype>
												<masterclipid>ArmA 3 2020.11.28 - 23.53.40.03.mp4</masterclipid>
												<logginginfo>
													<scene />
													<shottake />
													<lognote />
													<good>FALSE</good>
												</logginginfo>
												<labels>
													<label2 />
												</labels>
												<comments>
													<mastercomment1 />
													<mastercomment2 />
													<mastercomment3 />
													<mastercomment4 />
												</comments>
												<file id="ArmA 3 2020.11.28 - 23.53.40.03">
													<name>ArmA 3 2020.11.28 - 23.53.40.03.mp4</name>
													<pathurl>file://localhost/F:/AMVS Russia/NaturaDestruction/PRPACK7/ArmA 3 2020.11.28 - 23.53.40.03.mp4</pathurl>
													<rate>
														<timebase>60</timebase>
														<ntsc>FALSE</ntsc>
													</rate>
													<duration>314</duration>
													<timecode>
														<rate>
															<timebase>60</timebase>
															<ntsc>FALSE</ntsc>
														</rate>
														<frame>0</frame>
														<displayformat>NDF</displayformat>
														<source>source</source>
													</timecode>
													<media>
														<video>
															<duration>314</duration>
															<samplecharacteristics>
																<width>1920</width>
																<height>1080</height>
															</samplecharacteristics>
														</video>
														<audio>
															<samplecharacteristics>
																<samplerate>48000</samplerate>
																<depth>32</depth>
															</samplecharacteristics>
															<channelcount>1</channelcount>
														</audio>
														<audio>
															<samplecharacteristics>
																<samplerate>48000</samplerate>
																<depth>32</depth>
															</samplecharacteristics>
															<channelcount>1</channelcount>
														</audio>
													</media>
												</file>
												<sourcetrack>
													<mediatype>video</mediatype>
												</sourcetrack>
												<fielddominance>none</fielddominance>
											</clipitem>
											<enabled>TRUE</enabled>
											<locked>FALSE</locked>
										</track>
									</video>
									<audio>
										<track>
											<clipitem id="ArmA 3 2020.11.28 - 23.53.40.03.mp42">
												<name>ArmA 3 2020.11.28 - 23.53.40.03.mp4</name>
												<duration>314</duration>
												<rate>
													<ntsc>TRUE</ntsc>
													<timebase>24</timebase>
												</rate>
												<in>0</in>
												<out>314</out>
												<start>0</start>
												<end>314</end>
												<masterclipid>ArmA 3 2020.11.28 - 23.53.40.03.mp4</masterclipid>
												<logginginfo>
													<scene />
													<shottake />
													<lognote />
													<good>FALSE</good>
												</logginginfo>
												<labels>
													<label2 />
												</labels>
												<comments>
													<mastercomment1 />
													<mastercomment2 />
													<mastercomment3 />
													<mastercomment4 />
												</comments>
												<file id="ArmA 3 2020.11.28 - 23.53.40.03" />
												<sourcetrack>
													<mediatype>audio</mediatype>
												</sourcetrack>
											</clipitem>
											<enabled>TRUE</enabled>
											<locked>FALSE</locked>
										</track>
										<track>
											<clipitem id="ArmA 3 2020.11.28 - 23.53.40.03.mp43">
												<name>ArmA 3 2020.11.28 - 23.53.40.03.mp4</name>
												<duration>314</duration>
												<rate>
													<ntsc>TRUE</ntsc>
													<timebase>24</timebase>
												</rate>
												<in>0</in>
												<out>314</out>
												<start>0</start>
												<end>314</end>
												<masterclipid>ArmA 3 2020.11.28 - 23.53.40.03.mp4</masterclipid>
												<logginginfo>
													<scene />
													<shottake />
													<lognote />
													<good>FALSE</good>
												</logginginfo>
												<labels>
													<label2 />
												</labels>
												<comments>
													<mastercomment1 />
													<mastercomment2 />
													<mastercomment3 />
													<mastercomment4 />
												</comments>
												<file id="ArmA 3 2020.11.28 - 23.53.40.03" />
												<sourcetrack>
													<mediatype>audio</mediatype>
												</sourcetrack>
											</clipitem>
											<enabled>TRUE</enabled>
											<locked>FALSE</locked>
										</track>
									</audio>
								</media>
							</clip>
							<clip id="ArmA 3 2020.11.28 - 23.54.55.04.mp4">
								<updatebehavior>add</updatebehavior>
								<name>ArmA 3 2020.11.28 - 23.54.55.04.mp4</name>
								<duration>644</duration>
								<rate>
									<ntsc>FALSE</ntsc>
									<timebase>60</timebase>
								</rate>
								<in>-1</in>
								<out>-1</out>
								<masterclipid>ArmA 3 2020.11.28 - 23.54.55.04.mp4</masterclipid>
								<ismasterclip>TRUE</ismasterclip>
								<logginginfo>
									<scene />
									<shottake />
									<lognote />
									<good>FALSE</good>
								</logginginfo>
								<labels>
									<label2 />
								</labels>
								<comments>
									<mastercomment1 />
									<mastercomment2 />
									<mastercomment3 />
									<mastercomment4 />
								</comments>
								<media>
									<video>
										<track>
											<clipitem id="ArmA 3 2020.11.28 - 23.54.55.04.mp41">
												<name>ArmA 3 2020.11.28 - 23.54.55.04.mp4</name>
												<duration>644</duration>
												<rate>
													<ntsc>FALSE</ntsc>
													<timebase>60</timebase>
												</rate>
												<in>0</in>
												<out>644</out>
												<start>0</start>
												<end>644</end>
												<pixelaspectratio>Square</pixelaspectratio>
												<anamorphic>FALSE</anamorphic>
												<alphatype>none</alphatype>
												<masterclipid>ArmA 3 2020.11.28 - 23.54.55.04.mp4</masterclipid>
												<logginginfo>
													<scene />
													<shottake />
													<lognote />
													<good>FALSE</good>
												</logginginfo>
												<labels>
													<label2 />
												</labels>
												<comments>
													<mastercomment1 />
													<mastercomment2 />
													<mastercomment3 />
													<mastercomment4 />
												</comments>
												<file id="ArmA 3 2020.11.28 - 23.54.55.04">
													<name>ArmA 3 2020.11.28 - 23.54.55.04.mp4</name>
													<pathurl>file://localhost/F:/AMVS Russia/NaturaDestruction/PRPACK5/ArmA 3 2020.11.28 - 23.54.55.04.mp4</pathurl>
													<rate>
														<timebase>60</timebase>
														<ntsc>FALSE</ntsc>
													</rate>
													<duration>644</duration>
													<timecode>
														<rate>
															<timebase>60</timebase>
															<ntsc>FALSE</ntsc>
														</rate>
														<frame>0</frame>
														<displayformat>NDF</displayformat>
														<source>source</source>
													</timecode>
													<media>
														<video>
															<duration>644</duration>
															<samplecharacteristics>
																<width>1920</width>
																<height>1080</height>
															</samplecharacteristics>
														</video>
														<audio>
															<samplecharacteristics>
																<samplerate>48000</samplerate>
																<depth>32</depth>
															</samplecharacteristics>
															<channelcount>1</channelcount>
														</audio>
														<audio>
															<samplecharacteristics>
																<samplerate>48000</samplerate>
																<depth>32</depth>
															</samplecharacteristics>
															<channelcount>1</channelcount>
														</audio>
													</media>
												</file>
												<sourcetrack>
													<mediatype>video</mediatype>
												</sourcetrack>
												<fielddominance>none</fielddominance>
											</clipitem>
											<enabled>TRUE</enabled>
											<locked>FALSE</locked>
										</track>
									</video>
									<audio>
										<track>
											<clipitem id="ArmA 3 2020.11.28 - 23.54.55.04.mp42">
												<name>ArmA 3 2020.11.28 - 23.54.55.04.mp4</name>
												<duration>644</duration>
												<rate>
													<ntsc>TRUE</ntsc>
													<timebase>24</timebase>
												</rate>
												<in>0</in>
												<out>644</out>
												<start>0</start>
												<end>644</end>
												<masterclipid>ArmA 3 2020.11.28 - 23.54.55.04.mp4</masterclipid>
												<logginginfo>
													<scene />
													<shottake />
													<lognote />
													<good>FALSE</good>
												</logginginfo>
												<labels>
													<label2 />
												</labels>
												<comments>
													<mastercomment1 />
													<mastercomment2 />
													<mastercomment3 />
													<mastercomment4 />
												</comments>
												<file id="ArmA 3 2020.11.28 - 23.54.55.04" />
												<sourcetrack>
													<mediatype>audio</mediatype>
												</sourcetrack>
											</clipitem>
											<enabled>TRUE</enabled>
											<locked>FALSE</locked>
										</track>
										<track>
											<clipitem id="ArmA 3 2020.11.28 - 23.54.55.04.mp43">
												<name>ArmA 3 2020.11.28 - 23.54.55.04.mp4</name>
												<duration>644</duration>
												<rate>
													<ntsc>TRUE</ntsc>
													<timebase>24</timebase>
												</rate>
												<in>0</in>
												<out>644</out>
												<start>0</start>
												<end>644</end>
												<masterclipid>ArmA 3 2020.11.28 - 23.54.55.04.mp4</masterclipid>
												<logginginfo>
													<scene />
													<shottake />
													<lognote />
													<good>FALSE</good>
												</logginginfo>
												<labels>
													<label2 />
												</labels>
												<comments>
													<mastercomment1 />
													<mastercomment2 />
													<mastercomment3 />
													<mastercomment4 />
												</comments>
												<file id="ArmA 3 2020.11.28 - 23.54.55.04" />
												<sourcetrack>
													<mediatype>audio</mediatype>
												</sourcetrack>
											</clipitem>
											<enabled>TRUE</enabled>
											<locked>FALSE</locked>
										</track>
									</audio>
								</media>
							</clip>
							<clip id="ArmA 3 2020.11.28 - 23.55.37.05.mp4">
								<updatebehavior>add</updatebehavior>
								<name>ArmA 3 2020.11.28 - 23.55.37.05.mp4</name>
								<duration>443</duration>
								<rate>
									<ntsc>FALSE</ntsc>
									<timebase>60</timebase>
								</rate>
								<in>-1</in>
								<out>-1</out>
								<masterclipid>ArmA 3 2020.11.28 - 23.55.37.05.mp4</masterclipid>
								<ismasterclip>TRUE</ismasterclip>
								<logginginfo>
									<scene />
									<shottake />
									<lognote />
									<good>FALSE</good>
								</logginginfo>
								<labels>
									<label2 />
								</labels>
								<comments>
									<mastercomment1 />
									<mastercomment2 />
									<mastercomment3 />
									<mastercomment4 />
								</comments>
								<media>
									<video>
										<track>
											<clipitem id="ArmA 3 2020.11.28 - 23.55.37.05.mp41">
												<name>ArmA 3 2020.11.28 - 23.55.37.05.mp4</name>
												<duration>443</duration>
												<rate>
													<ntsc>FALSE</ntsc>
													<timebase>60</timebase>
												</rate>
												<in>0</in>
												<out>443</out>
												<start>0</start>
												<end>443</end>
												<pixelaspectratio>Square</pixelaspectratio>
												<anamorphic>FALSE</anamorphic>
												<alphatype>none</alphatype>
												<masterclipid>ArmA 3 2020.11.28 - 23.55.37.05.mp4</masterclipid>
												<logginginfo>
													<scene />
													<shottake />
													<lognote />
													<good>FALSE</good>
												</logginginfo>
												<labels>
													<label2 />
												</labels>
												<comments>
													<mastercomment1 />
													<mastercomment2 />
													<mastercomment3 />
													<mastercomment4 />
												</comments>
												<file id="ArmA 3 2020.11.28 - 23.55.37.05">
													<name>ArmA 3 2020.11.28 - 23.55.37.05.mp4</name>
													<pathurl>file://localhost/F:/AMVS Russia/NaturaDestruction/PRPACK6/ArmA 3 2020.11.28 - 23.55.37.05.mp4</pathurl>
													<rate>
														<timebase>60</timebase>
														<ntsc>FALSE</ntsc>
													</rate>
													<duration>443</duration>
													<timecode>
														<rate>
															<timebase>60</timebase>
															<ntsc>FALSE</ntsc>
														</rate>
														<frame>0</frame>
														<displayformat>NDF</displayformat>
														<source>source</source>
													</timecode>
													<media>
														<video>
															<duration>443</duration>
															<samplecharacteristics>
																<width>1920</width>
																<height>1080</height>
															</samplecharacteristics>
														</video>
														<audio>
															<samplecharacteristics>
																<samplerate>48000</samplerate>
																<depth>32</depth>
															</samplecharacteristics>
															<channelcount>1</channelcount>
														</audio>
														<audio>
															<samplecharacteristics>
																<samplerate>48000</samplerate>
																<depth>32</depth>
															</samplecharacteristics>
															<channelcount>1</channelcount>
														</audio>
													</media>
												</file>
												<sourcetrack>
													<mediatype>video</mediatype>
												</sourcetrack>
												<fielddominance>none</fielddominance>
											</clipitem>
											<enabled>TRUE</enabled>
											<locked>FALSE</locked>
										</track>
									</video>
									<audio>
										<track>
											<clipitem id="ArmA 3 2020.11.28 - 23.55.37.05.mp42">
												<name>ArmA 3 2020.11.28 - 23.55.37.05.mp4</name>
												<duration>443</duration>
												<rate>
													<ntsc>TRUE</ntsc>
													<timebase>24</timebase>
												</rate>
												<in>0</in>
												<out>443</out>
												<start>0</start>
												<end>443</end>
												<masterclipid>ArmA 3 2020.11.28 - 23.55.37.05.mp4</masterclipid>
												<logginginfo>
													<scene />
													<shottake />
													<lognote />
													<good>FALSE</good>
												</logginginfo>
												<labels>
													<label2 />
												</labels>
												<comments>
													<mastercomment1 />
													<mastercomment2 />
													<mastercomment3 />
													<mastercomment4 />
												</comments>
												<file id="ArmA 3 2020.11.28 - 23.55.37.05" />
												<sourcetrack>
													<mediatype>audio</mediatype>
												</sourcetrack>
											</clipitem>
											<enabled>TRUE</enabled>
											<locked>FALSE</locked>
										</track>
										<track>
											<clipitem id="ArmA 3 2020.11.28 - 23.55.37.05.mp43">
												<name>ArmA 3 2020.11.28 - 23.55.37.05.mp4</name>
												<duration>443</duration>
												<rate>
													<ntsc>TRUE</ntsc>
													<timebase>24</timebase>
												</rate>
												<in>0</in>
												<out>443</out>
												<start>0</start>
												<end>443</end>
												<masterclipid>ArmA 3 2020.11.28 - 23.55.37.05.mp4</masterclipid>
												<logginginfo>
													<scene />
													<shottake />
													<lognote />
													<good>FALSE</good>
												</logginginfo>
												<labels>
													<label2 />
												</labels>
												<comments>
													<mastercomment1 />
													<mastercomment2 />
													<mastercomment3 />
													<mastercomment4 />
												</comments>
												<file id="ArmA 3 2020.11.28 - 23.55.37.05" />
												<sourcetrack>
													<mediatype>audio</mediatype>
												</sourcetrack>
											</clipitem>
											<enabled>TRUE</enabled>
											<locked>FALSE</locked>
										</track>
									</audio>
								</media>
							</clip>
							<clip id="ArmA 3 2020.11.28 - 23.56.19.06.mp4">
								<updatebehavior>add</updatebehavior>
								<name>ArmA 3 2020.11.28 - 23.56.19.06.mp4</name>
								<duration>353</duration>
								<rate>
									<ntsc>FALSE</ntsc>
									<timebase>60</timebase>
								</rate>
								<in>-1</in>
								<out>-1</out>
								<masterclipid>ArmA 3 2020.11.28 - 23.56.19.06.mp4</masterclipid>
								<ismasterclip>TRUE</ismasterclip>
								<logginginfo>
									<scene />
									<shottake />
									<lognote />
									<good>FALSE</good>
								</logginginfo>
								<labels>
									<label2 />
								</labels>
								<comments>
									<mastercomment1 />
									<mastercomment2 />
									<mastercomment3 />
									<mastercomment4 />
								</comments>
								<media>
									<video>
										<track>
											<clipitem id="ArmA 3 2020.11.28 - 23.56.19.06.mp41">
												<name>ArmA 3 2020.11.28 - 23.56.19.06.mp4</name>
												<duration>353</duration>
												<rate>
													<ntsc>FALSE</ntsc>
													<timebase>60</timebase>
												</rate>
												<in>0</in>
												<out>353</out>
												<start>0</start>
												<end>353</end>
												<pixelaspectratio>Square</pixelaspectratio>
												<anamorphic>FALSE</anamorphic>
												<alphatype>none</alphatype>
												<masterclipid>ArmA 3 2020.11.28 - 23.56.19.06.mp4</masterclipid>
												<logginginfo>
													<scene />
													<shottake />
													<lognote />
													<good>FALSE</good>
												</logginginfo>
												<labels>
													<label2 />
												</labels>
												<comments>
													<mastercomment1 />
													<mastercomment2 />
													<mastercomment3 />
													<mastercomment4 />
												</comments>
												<file id="ArmA 3 2020.11.28 - 23.56.19.06">
													<name>ArmA 3 2020.11.28 - 23.56.19.06.mp4</name>
													<pathurl>file://localhost/F:/AMVS Russia/NaturaDestruction/PRPACK7/ArmA 3 2020.11.28 - 23.56.19.06.mp4</pathurl>
													<rate>
														<timebase>60</timebase>
														<ntsc>FALSE</ntsc>
													</rate>
													<duration>353</duration>
													<timecode>
														<rate>
															<timebase>60</timebase>
															<ntsc>FALSE</ntsc>
														</rate>
														<frame>0</frame>
														<displayformat>NDF</displayformat>
														<source>source</source>
													</timecode>
													<media>
														<video>
															<duration>353</duration>
															<samplecharacteristics>
																<width>1920</width>
																<height>1080</height>
															</samplecharacteristics>
														</video>
														<audio>
															<samplecharacteristics>
																<samplerate>48000</samplerate>
																<depth>32</depth>
															</samplecharacteristics>
															<channelcount>1</channelcount>
														</audio>
														<audio>
															<samplecharacteristics>
																<samplerate>48000</samplerate>
																<depth>32</depth>
															</samplecharacteristics>
															<channelcount>1</channelcount>
														</audio>
													</media>
												</file>
												<sourcetrack>
													<mediatype>video</mediatype>
												</sourcetrack>
												<fielddominance>none</fielddominance>
											</clipitem>
											<enabled>TRUE</enabled>
											<locked>FALSE</locked>
										</track>
									</video>
									<audio>
										<track>
											<clipitem id="ArmA 3 2020.11.28 - 23.56.19.06.mp42">
												<name>ArmA 3 2020.11.28 - 23.56.19.06.mp4</name>
												<duration>353</duration>
												<rate>
													<ntsc>TRUE</ntsc>
													<timebase>24</timebase>
												</rate>
												<in>0</in>
												<out>353</out>
												<start>0</start>
												<end>353</end>
												<masterclipid>ArmA 3 2020.11.28 - 23.56.19.06.mp4</masterclipid>
												<logginginfo>
													<scene />
													<shottake />
													<lognote />
													<good>FALSE</good>
												</logginginfo>
												<labels>
													<label2 />
												</labels>
												<comments>
													<mastercomment1 />
													<mastercomment2 />
													<mastercomment3 />
													<mastercomment4 />
												</comments>
												<file id="ArmA 3 2020.11.28 - 23.56.19.06" />
												<sourcetrack>
													<mediatype>audio</mediatype>
												</sourcetrack>
											</clipitem>
											<enabled>TRUE</enabled>
											<locked>FALSE</locked>
										</track>
										<track>
											<clipitem id="ArmA 3 2020.11.28 - 23.56.19.06.mp43">
												<name>ArmA 3 2020.11.28 - 23.56.19.06.mp4</name>
												<duration>353</duration>
												<rate>
													<ntsc>TRUE</ntsc>
													<timebase>24</timebase>
												</rate>
												<in>0</in>
												<out>353</out>
												<start>0</start>
												<end>353</end>
												<masterclipid>ArmA 3 2020.11.28 - 23.56.19.06.mp4</masterclipid>
												<logginginfo>
													<scene />
													<shottake />
													<lognote />
													<good>FALSE</good>
												</logginginfo>
												<labels>
													<label2 />
												</labels>
												<comments>
													<mastercomment1 />
													<mastercomment2 />
													<mastercomment3 />
													<mastercomment4 />
												</comments>
												<file id="ArmA 3 2020.11.28 - 23.56.19.06" />
												<sourcetrack>
													<mediatype>audio</mediatype>
												</sourcetrack>
											</clipitem>
											<enabled>TRUE</enabled>
											<locked>FALSE</locked>
										</track>
									</audio>
								</media>
							</clip>
							<clip id="ArmA 3 2020.11.28 - 23.57.22.07.mp4">
								<updatebehavior>add</updatebehavior>
								<name>ArmA 3 2020.11.28 - 23.57.22.07.mp4</name>
								<duration>497</duration>
								<rate>
									<ntsc>FALSE</ntsc>
									<timebase>60</timebase>
								</rate>
								<in>-1</in>
								<out>-1</out>
								<masterclipid>ArmA 3 2020.11.28 - 23.57.22.07.mp4</masterclipid>
								<ismasterclip>TRUE</ismasterclip>
								<logginginfo>
									<scene />
									<shottake />
									<lognote />
									<good>FALSE</good>
								</logginginfo>
								<labels>
									<label2 />
								</labels>
								<comments>
									<mastercomment1 />
									<mastercomment2 />
									<mastercomment3 />
									<mastercomment4 />
								</comments>
								<media>
									<video>
										<track>
											<clipitem id="ArmA 3 2020.11.28 - 23.57.22.07.mp41">
												<name>ArmA 3 2020.11.28 - 23.57.22.07.mp4</name>
												<duration>497</duration>
												<rate>
													<ntsc>FALSE</ntsc>
													<timebase>60</timebase>
												</rate>
												<in>0</in>
												<out>497</out>
												<start>0</start>
												<end>497</end>
												<pixelaspectratio>Square</pixelaspectratio>
												<anamorphic>FALSE</anamorphic>
												<alphatype>none</alphatype>
												<masterclipid>ArmA 3 2020.11.28 - 23.57.22.07.mp4</masterclipid>
												<logginginfo>
													<scene />
													<shottake />
													<lognote />
													<good>FALSE</good>
												</logginginfo>
												<labels>
													<label2 />
												</labels>
												<comments>
													<mastercomment1 />
													<mastercomment2 />
													<mastercomment3 />
													<mastercomment4 />
												</comments>
												<file id="ArmA 3 2020.11.28 - 23.57.22.07">
													<name>ArmA 3 2020.11.28 - 23.57.22.07.mp4</name>
													<pathurl>file://localhost/F:/AMVS Russia/NaturaDestruction/PRPACK6/ArmA 3 2020.11.28 - 23.57.22.07.mp4</pathurl>
													<rate>
														<timebase>60</timebase>
														<ntsc>FALSE</ntsc>
													</rate>
													<duration>497</duration>
													<timecode>
														<rate>
															<timebase>60</timebase>
															<ntsc>FALSE</ntsc>
														</rate>
														<frame>0</frame>
														<displayformat>NDF</displayformat>
														<source>source</source>
													</timecode>
													<media>
														<video>
															<duration>497</duration>
															<samplecharacteristics>
																<width>1920</width>
																<height>1080</height>
															</samplecharacteristics>
														</video>
														<audio>
															<samplecharacteristics>
																<samplerate>48000</samplerate>
																<depth>32</depth>
															</samplecharacteristics>
															<channelcount>1</channelcount>
														</audio>
														<audio>
															<samplecharacteristics>
																<samplerate>48000</samplerate>
																<depth>32</depth>
															</samplecharacteristics>
															<channelcount>1</channelcount>
														</audio>
													</media>
												</file>
												<sourcetrack>
													<mediatype>video</mediatype>
												</sourcetrack>
												<fielddominance>none</fielddominance>
											</clipitem>
											<enabled>TRUE</enabled>
											<locked>FALSE</locked>
										</track>
									</video>
									<audio>
										<track>
											<clipitem id="ArmA 3 2020.11.28 - 23.57.22.07.mp42">
												<name>ArmA 3 2020.11.28 - 23.57.22.07.mp4</name>
												<duration>497</duration>
												<rate>
													<ntsc>TRUE</ntsc>
													<timebase>24</timebase>
												</rate>
												<in>0</in>
												<out>497</out>
												<start>0</start>
												<end>497</end>
												<masterclipid>ArmA 3 2020.11.28 - 23.57.22.07.mp4</masterclipid>
												<logginginfo>
													<scene />
													<shottake />
													<lognote />
													<good>FALSE</good>
												</logginginfo>
												<labels>
													<label2 />
												</labels>
												<comments>
													<mastercomment1 />
													<mastercomment2 />
													<mastercomment3 />
													<mastercomment4 />
												</comments>
												<file id="ArmA 3 2020.11.28 - 23.57.22.07" />
												<sourcetrack>
													<mediatype>audio</mediatype>
												</sourcetrack>
											</clipitem>
											<enabled>TRUE</enabled>
											<locked>FALSE</locked>
										</track>
										<track>
											<clipitem id="ArmA 3 2020.11.28 - 23.57.22.07.mp43">
												<name>ArmA 3 2020.11.28 - 23.57.22.07.mp4</name>
												<duration>497</duration>
												<rate>
													<ntsc>TRUE</ntsc>
													<timebase>24</timebase>
												</rate>
												<in>0</in>
												<out>497</out>
												<start>0</start>
												<end>497</end>
												<masterclipid>ArmA 3 2020.11.28 - 23.57.22.07.mp4</masterclipid>
												<logginginfo>
													<scene />
													<shottake />
													<lognote />
													<good>FALSE</good>
												</logginginfo>
												<labels>
													<label2 />
												</labels>
												<comments>
													<mastercomment1 />
													<mastercomment2 />
													<mastercomment3 />
													<mastercomment4 />
												</comments>
												<file id="ArmA 3 2020.11.28 - 23.57.22.07" />
												<sourcetrack>
													<mediatype>audio</mediatype>
												</sourcetrack>
											</clipitem>
											<enabled>TRUE</enabled>
											<locked>FALSE</locked>
										</track>
									</audio>
								</media>
							</clip>
							<clip id="ArmA 3 2020.11.28 - 23.57.55.08.mp4">
								<updatebehavior>add</updatebehavior>
								<name>ArmA 3 2020.11.28 - 23.57.55.08.mp4</name>
								<duration>541</duration>
								<rate>
									<ntsc>FALSE</ntsc>
									<timebase>60</timebase>
								</rate>
								<in>-1</in>
								<out>-1</out>
								<masterclipid>ArmA 3 2020.11.28 - 23.57.55.08.mp4</masterclipid>
								<ismasterclip>TRUE</ismasterclip>
								<logginginfo>
									<scene />
									<shottake />
									<lognote />
									<good>FALSE</good>
								</logginginfo>
								<labels>
									<label2 />
								</labels>
								<comments>
									<mastercomment1 />
									<mastercomment2 />
									<mastercomment3 />
									<mastercomment4 />
								</comments>
								<media>
									<video>
										<track>
											<clipitem id="ArmA 3 2020.11.28 - 23.57.55.08.mp41">
												<name>ArmA 3 2020.11.28 - 23.57.55.08.mp4</name>
												<duration>541</duration>
												<rate>
													<ntsc>FALSE</ntsc>
													<timebase>60</timebase>
												</rate>
												<in>0</in>
												<out>541</out>
												<start>0</start>
												<end>541</end>
												<pixelaspectratio>Square</pixelaspectratio>
												<anamorphic>FALSE</anamorphic>
												<alphatype>none</alphatype>
												<masterclipid>ArmA 3 2020.11.28 - 23.57.55.08.mp4</masterclipid>
												<logginginfo>
													<scene />
													<shottake />
													<lognote />
													<good>FALSE</good>
												</logginginfo>
												<labels>
													<label2 />
												</labels>
												<comments>
													<mastercomment1 />
													<mastercomment2 />
													<mastercomment3 />
													<mastercomment4 />
												</comments>
												<file id="ArmA 3 2020.11.28 - 23.57.55.08">
													<name>ArmA 3 2020.11.28 - 23.57.55.08.mp4</name>
													<pathurl>file://localhost/F:/AMVS Russia/NaturaDestruction/PRPACK7/ArmA 3 2020.11.28 - 23.57.55.08.mp4</pathurl>
													<rate>
														<timebase>60</timebase>
														<ntsc>FALSE</ntsc>
													</rate>
													<duration>541</duration>
													<timecode>
														<rate>
															<timebase>60</timebase>
															<ntsc>FALSE</ntsc>
														</rate>
														<frame>0</frame>
														<displayformat>NDF</displayformat>
														<source>source</source>
													</timecode>
													<media>
														<video>
															<duration>541</duration>
															<samplecharacteristics>
																<width>1920</width>
																<height>1080</height>
															</samplecharacteristics>
														</video>
														<audio>
															<samplecharacteristics>
																<samplerate>48000</samplerate>
																<depth>32</depth>
															</samplecharacteristics>
															<channelcount>1</channelcount>
														</audio>
														<audio>
															<samplecharacteristics>
																<samplerate>48000</samplerate>
																<depth>32</depth>
															</samplecharacteristics>
															<channelcount>1</channelcount>
														</audio>
													</media>
												</file>
												<sourcetrack>
													<mediatype>video</mediatype>
												</sourcetrack>
												<fielddominance>none</fielddominance>
											</clipitem>
											<enabled>TRUE</enabled>
											<locked>FALSE</locked>
										</track>
									</video>
									<audio>
										<track>
											<clipitem id="ArmA 3 2020.11.28 - 23.57.55.08.mp42">
												<name>ArmA 3 2020.11.28 - 23.57.55.08.mp4</name>
												<duration>541</duration>
												<rate>
													<ntsc>TRUE</ntsc>
													<timebase>24</timebase>
												</rate>
												<in>0</in>
												<out>541</out>
												<start>0</start>
												<end>541</end>
												<masterclipid>ArmA 3 2020.11.28 - 23.57.55.08.mp4</masterclipid>
												<logginginfo>
													<scene />
													<shottake />
													<lognote />
													<good>FALSE</good>
												</logginginfo>
												<labels>
													<label2 />
												</labels>
												<comments>
													<mastercomment1 />
													<mastercomment2 />
													<mastercomment3 />
													<mastercomment4 />
												</comments>
												<file id="ArmA 3 2020.11.28 - 23.57.55.08" />
												<sourcetrack>
													<mediatype>audio</mediatype>
												</sourcetrack>
											</clipitem>
											<enabled>TRUE</enabled>
											<locked>FALSE</locked>
										</track>
										<track>
											<clipitem id="ArmA 3 2020.11.28 - 23.57.55.08.mp43">
												<name>ArmA 3 2020.11.28 - 23.57.55.08.mp4</name>
												<duration>541</duration>
												<rate>
													<ntsc>TRUE</ntsc>
													<timebase>24</timebase>
												</rate>
												<in>0</in>
												<out>541</out>
												<start>0</start>
												<end>541</end>
												<masterclipid>ArmA 3 2020.11.28 - 23.57.55.08.mp4</masterclipid>
												<logginginfo>
													<scene />
													<shottake />
													<lognote />
													<good>FALSE</good>
												</logginginfo>
												<labels>
													<label2 />
												</labels>
												<comments>
													<mastercomment1 />
													<mastercomment2 />
													<mastercomment3 />
													<mastercomment4 />
												</comments>
												<file id="ArmA 3 2020.11.28 - 23.57.55.08" />
												<sourcetrack>
													<mediatype>audio</mediatype>
												</sourcetrack>
											</clipitem>
											<enabled>TRUE</enabled>
											<locked>FALSE</locked>
										</track>
									</audio>
								</media>
							</clip>
							<clip id="ArmA 3 2020.11.28 - 23.58.28.09.mp4">
								<updatebehavior>add</updatebehavior>
								<name>ArmA 3 2020.11.28 - 23.58.28.09.mp4</name>
								<duration>633</duration>
								<rate>
									<ntsc>FALSE</ntsc>
									<timebase>60</timebase>
								</rate>
								<in>-1</in>
								<out>-1</out>
								<masterclipid>ArmA 3 2020.11.28 - 23.58.28.09.mp4</masterclipid>
								<ismasterclip>TRUE</ismasterclip>
								<logginginfo>
									<scene />
									<shottake />
									<lognote />
									<good>FALSE</good>
								</logginginfo>
								<labels>
									<label2 />
								</labels>
								<comments>
									<mastercomment1 />
									<mastercomment2 />
									<mastercomment3 />
									<mastercomment4 />
								</comments>
								<media>
									<video>
										<track>
											<clipitem id="ArmA 3 2020.11.28 - 23.58.28.09.mp41">
												<name>ArmA 3 2020.11.28 - 23.58.28.09.mp4</name>
												<duration>633</duration>
												<rate>
													<ntsc>FALSE</ntsc>
													<timebase>60</timebase>
												</rate>
												<in>0</in>
												<out>633</out>
												<start>0</start>
												<end>633</end>
												<pixelaspectratio>Square</pixelaspectratio>
												<anamorphic>FALSE</anamorphic>
												<alphatype>none</alphatype>
												<masterclipid>ArmA 3 2020.11.28 - 23.58.28.09.mp4</masterclipid>
												<logginginfo>
													<scene />
													<shottake />
													<lognote />
													<good>FALSE</good>
												</logginginfo>
												<labels>
													<label2 />
												</labels>
												<comments>
													<mastercomment1 />
													<mastercomment2 />
													<mastercomment3 />
													<mastercomment4 />
												</comments>
												<file id="ArmA 3 2020.11.28 - 23.58.28.09">
													<name>ArmA 3 2020.11.28 - 23.58.28.09.mp4</name>
													<pathurl>file://localhost/F:/AMVS Russia/NaturaDestruction/PRPACK6/ArmA 3 2020.11.28 - 23.58.28.09.mp4</pathurl>
													<rate>
														<timebase>60</timebase>
														<ntsc>FALSE</ntsc>
													</rate>
													<duration>633</duration>
													<timecode>
														<rate>
															<timebase>60</timebase>
															<ntsc>FALSE</ntsc>
														</rate>
														<frame>0</frame>
														<displayformat>NDF</displayformat>
														<source>source</source>
													</timecode>
													<media>
														<video>
															<duration>633</duration>
															<samplecharacteristics>
																<width>1920</width>
																<height>1080</height>
															</samplecharacteristics>
														</video>
														<audio>
															<samplecharacteristics>
																<samplerate>48000</samplerate>
																<depth>32</depth>
															</samplecharacteristics>
															<channelcount>1</channelcount>
														</audio>
														<audio>
															<samplecharacteristics>
																<samplerate>48000</samplerate>
																<depth>32</depth>
															</samplecharacteristics>
															<channelcount>1</channelcount>
														</audio>
													</media>
												</file>
												<sourcetrack>
													<mediatype>video</mediatype>
												</sourcetrack>
												<fielddominance>none</fielddominance>
											</clipitem>
											<enabled>TRUE</enabled>
											<locked>FALSE</locked>
										</track>
									</video>
									<audio>
										<track>
											<clipitem id="ArmA 3 2020.11.28 - 23.58.28.09.mp42">
												<name>ArmA 3 2020.11.28 - 23.58.28.09.mp4</name>
												<duration>633</duration>
												<rate>
													<ntsc>TRUE</ntsc>
													<timebase>24</timebase>
												</rate>
												<in>0</in>
												<out>633</out>
												<start>0</start>
												<end>633</end>
												<masterclipid>ArmA 3 2020.11.28 - 23.58.28.09.mp4</masterclipid>
												<logginginfo>
													<scene />
													<shottake />
													<lognote />
													<good>FALSE</good>
												</logginginfo>
												<labels>
													<label2 />
												</labels>
												<comments>
													<mastercomment1 />
													<mastercomment2 />
													<mastercomment3 />
													<mastercomment4 />
												</comments>
												<file id="ArmA 3 2020.11.28 - 23.58.28.09" />
												<sourcetrack>
													<mediatype>audio</mediatype>
												</sourcetrack>
											</clipitem>
											<enabled>TRUE</enabled>
											<locked>FALSE</locked>
										</track>
										<track>
											<clipitem id="ArmA 3 2020.11.28 - 23.58.28.09.mp43">
												<name>ArmA 3 2020.11.28 - 23.58.28.09.mp4</name>
												<duration>633</duration>
												<rate>
													<ntsc>TRUE</ntsc>
													<timebase>24</timebase>
												</rate>
												<in>0</in>
												<out>633</out>
												<start>0</start>
												<end>633</end>
												<masterclipid>ArmA 3 2020.11.28 - 23.58.28.09.mp4</masterclipid>
												<logginginfo>
													<scene />
													<shottake />
													<lognote />
													<good>FALSE</good>
												</logginginfo>
												<labels>
													<label2 />
												</labels>
												<comments>
													<mastercomment1 />
													<mastercomment2 />
													<mastercomment3 />
													<mastercomment4 />
												</comments>
												<file id="ArmA 3 2020.11.28 - 23.58.28.09" />
												<sourcetrack>
													<mediatype>audio</mediatype>
												</sourcetrack>
											</clipitem>
											<enabled>TRUE</enabled>
											<locked>FALSE</locked>
										</track>
									</audio>
								</media>
							</clip>
							<clip id="ArmA 3 2020.11.28 - 23.59.09.10.mp4">
								<updatebehavior>add</updatebehavior>
								<name>ArmA 3 2020.11.28 - 23.59.09.10.mp4</name>
								<duration>635</duration>
								<rate>
									<ntsc>FALSE</ntsc>
									<timebase>60</timebase>
								</rate>
								<in>-1</in>
								<out>-1</out>
								<masterclipid>ArmA 3 2020.11.28 - 23.59.09.10.mp4</masterclipid>
								<ismasterclip>TRUE</ismasterclip>
								<logginginfo>
									<scene />
									<shottake />
									<lognote />
									<good>FALSE</good>
								</logginginfo>
								<labels>
									<label2 />
								</labels>
								<comments>
									<mastercomment1 />
									<mastercomment2 />
									<mastercomment3 />
									<mastercomment4 />
								</comments>
								<media>
									<video>
										<track>
											<clipitem id="ArmA 3 2020.11.28 - 23.59.09.10.mp41">
												<name>ArmA 3 2020.11.28 - 23.59.09.10.mp4</name>
												<duration>635</duration>
												<rate>
													<ntsc>FALSE</ntsc>
													<timebase>60</timebase>
												</rate>
												<in>0</in>
												<out>635</out>
												<start>0</start>
												<end>635</end>
												<pixelaspectratio>Square</pixelaspectratio>
												<anamorphic>FALSE</anamorphic>
												<alphatype>none</alphatype>
												<masterclipid>ArmA 3 2020.11.28 - 23.59.09.10.mp4</masterclipid>
												<logginginfo>
													<scene />
													<shottake />
													<lognote />
													<good>FALSE</good>
												</logginginfo>
												<labels>
													<label2 />
												</labels>
												<comments>
													<mastercomment1 />
													<mastercomment2 />
													<mastercomment3 />
													<mastercomment4 />
												</comments>
												<file id="ArmA 3 2020.11.28 - 23.59.09.10">
													<name>ArmA 3 2020.11.28 - 23.59.09.10.mp4</name>
													<pathurl>file://localhost/F:/AMVS Russia/NaturaDestruction/PRPACK7/ArmA 3 2020.11.28 - 23.59.09.10.mp4</pathurl>
													<rate>
														<timebase>60</timebase>
														<ntsc>FALSE</ntsc>
													</rate>
													<duration>635</duration>
													<timecode>
														<rate>
															<timebase>60</timebase>
															<ntsc>FALSE</ntsc>
														</rate>
														<frame>0</frame>
														<displayformat>NDF</displayformat>
														<source>source</source>
													</timecode>
													<media>
														<video>
															<duration>635</duration>
															<samplecharacteristics>
																<width>1920</width>
																<height>1080</height>
															</samplecharacteristics>
														</video>
														<audio>
															<samplecharacteristics>
																<samplerate>48000</samplerate>
																<depth>32</depth>
															</samplecharacteristics>
															<channelcount>1</channelcount>
														</audio>
														<audio>
															<samplecharacteristics>
																<samplerate>48000</samplerate>
																<depth>32</depth>
															</samplecharacteristics>
															<channelcount>1</channelcount>
														</audio>
													</media>
												</file>
												<sourcetrack>
													<mediatype>video</mediatype>
												</sourcetrack>
												<fielddominance>none</fielddominance>
											</clipitem>
											<enabled>TRUE</enabled>
											<locked>FALSE</locked>
										</track>
									</video>
									<audio>
										<track>
											<clipitem id="ArmA 3 2020.11.28 - 23.59.09.10.mp42">
												<name>ArmA 3 2020.11.28 - 23.59.09.10.mp4</name>
												<duration>635</duration>
												<rate>
													<ntsc>TRUE</ntsc>
													<timebase>24</timebase>
												</rate>
												<in>0</in>
												<out>635</out>
												<start>0</start>
												<end>635</end>
												<masterclipid>ArmA 3 2020.11.28 - 23.59.09.10.mp4</masterclipid>
												<logginginfo>
													<scene />
													<shottake />
													<lognote />
													<good>FALSE</good>
												</logginginfo>
												<labels>
													<label2 />
												</labels>
												<comments>
													<mastercomment1 />
													<mastercomment2 />
													<mastercomment3 />
													<mastercomment4 />
												</comments>
												<file id="ArmA 3 2020.11.28 - 23.59.09.10" />
												<sourcetrack>
													<mediatype>audio</mediatype>
												</sourcetrack>
											</clipitem>
											<enabled>TRUE</enabled>
											<locked>FALSE</locked>
										</track>
										<track>
											<clipitem id="ArmA 3 2020.11.28 - 23.59.09.10.mp43">
												<name>ArmA 3 2020.11.28 - 23.59.09.10.mp4</name>
												<duration>635</duration>
												<rate>
													<ntsc>TRUE</ntsc>
													<timebase>24</timebase>
												</rate>
												<in>0</in>
												<out>635</out>
												<start>0</start>
												<end>635</end>
												<masterclipid>ArmA 3 2020.11.28 - 23.59.09.10.mp4</masterclipid>
												<logginginfo>
													<scene />
													<shottake />
													<lognote />
													<good>FALSE</good>
												</logginginfo>
												<labels>
													<label2 />
												</labels>
												<comments>
													<mastercomment1 />
													<mastercomment2 />
													<mastercomment3 />
													<mastercomment4 />
												</comments>
												<file id="ArmA 3 2020.11.28 - 23.59.09.10" />
												<sourcetrack>
													<mediatype>audio</mediatype>
												</sourcetrack>
											</clipitem>
											<enabled>TRUE</enabled>
											<locked>FALSE</locked>
										</track>
									</audio>
								</media>
							</clip>
							<clip id="ArmA 3 2020.11.28 - 23.59.49.11.mp4">
								<updatebehavior>add</updatebehavior>
								<name>ArmA 3 2020.11.28 - 23.59.49.11.mp4</name>
								<duration>384</duration>
								<rate>
									<ntsc>FALSE</ntsc>
									<timebase>60</timebase>
								</rate>
								<in>-1</in>
								<out>-1</out>
								<masterclipid>ArmA 3 2020.11.28 - 23.59.49.11.mp4</masterclipid>
								<ismasterclip>TRUE</ismasterclip>
								<logginginfo>
									<scene />
									<shottake />
									<lognote />
									<good>FALSE</good>
								</logginginfo>
								<labels>
									<label2 />
								</labels>
								<comments>
									<mastercomment1 />
									<mastercomment2 />
									<mastercomment3 />
									<mastercomment4 />
								</comments>
								<media>
									<video>
										<track>
											<clipitem id="ArmA 3 2020.11.28 - 23.59.49.11.mp41">
												<name>ArmA 3 2020.11.28 - 23.59.49.11.mp4</name>
												<duration>384</duration>
												<rate>
													<ntsc>FALSE</ntsc>
													<timebase>60</timebase>
												</rate>
												<in>0</in>
												<out>384</out>
												<start>0</start>
												<end>384</end>
												<pixelaspectratio>Square</pixelaspectratio>
												<anamorphic>FALSE</anamorphic>
												<alphatype>none</alphatype>
												<masterclipid>ArmA 3 2020.11.28 - 23.59.49.11.mp4</masterclipid>
												<logginginfo>
													<scene />
													<shottake />
													<lognote />
													<good>FALSE</good>
												</logginginfo>
												<labels>
													<label2 />
												</labels>
												<comments>
													<mastercomment1 />
													<mastercomment2 />
													<mastercomment3 />
													<mastercomment4 />
												</comments>
												<file id="ArmA 3 2020.11.28 - 23.59.49.11">
													<name>ArmA 3 2020.11.28 - 23.59.49.11.mp4</name>
													<pathurl>file://localhost/F:/AMVS Russia/NaturaDestruction/PRPACK7/ArmA 3 2020.11.28 - 23.59.49.11.mp4</pathurl>
													<rate>
														<timebase>60</timebase>
														<ntsc>FALSE</ntsc>
													</rate>
													<duration>384</duration>
													<timecode>
														<rate>
															<timebase>60</timebase>
															<ntsc>FALSE</ntsc>
														</rate>
														<frame>0</frame>
														<displayformat>NDF</displayformat>
														<source>source</source>
													</timecode>
													<media>
														<video>
															<duration>384</duration>
															<samplecharacteristics>
																<width>1920</width>
																<height>1080</height>
															</samplecharacteristics>
														</video>
														<audio>
															<samplecharacteristics>
																<samplerate>48000</samplerate>
																<depth>32</depth>
															</samplecharacteristics>
															<channelcount>1</channelcount>
														</audio>
														<audio>
															<samplecharacteristics>
																<samplerate>48000</samplerate>
																<depth>32</depth>
															</samplecharacteristics>
															<channelcount>1</channelcount>
														</audio>
													</media>
												</file>
												<sourcetrack>
													<mediatype>video</mediatype>
												</sourcetrack>
												<fielddominance>none</fielddominance>
											</clipitem>
											<enabled>TRUE</enabled>
											<locked>FALSE</locked>
										</track>
									</video>
									<audio>
										<track>
											<clipitem id="ArmA 3 2020.11.28 - 23.59.49.11.mp42">
												<name>ArmA 3 2020.11.28 - 23.59.49.11.mp4</name>
												<duration>384</duration>
												<rate>
													<ntsc>TRUE</ntsc>
													<timebase>24</timebase>
												</rate>
												<in>0</in>
												<out>384</out>
												<start>0</start>
												<end>384</end>
												<masterclipid>ArmA 3 2020.11.28 - 23.59.49.11.mp4</masterclipid>
												<logginginfo>
													<scene />
													<shottake />
													<lognote />
													<good>FALSE</good>
												</logginginfo>
												<labels>
													<label2 />
												</labels>
												<comments>
													<mastercomment1 />
													<mastercomment2 />
													<mastercomment3 />
													<mastercomment4 />
												</comments>
												<file id="ArmA 3 2020.11.28 - 23.59.49.11" />
												<sourcetrack>
													<mediatype>audio</mediatype>
												</sourcetrack>
											</clipitem>
											<enabled>TRUE</enabled>
											<locked>FALSE</locked>
										</track>
										<track>
											<clipitem id="ArmA 3 2020.11.28 - 23.59.49.11.mp43">
												<name>ArmA 3 2020.11.28 - 23.59.49.11.mp4</name>
												<duration>384</duration>
												<rate>
													<ntsc>TRUE</ntsc>
													<timebase>24</timebase>
												</rate>
												<in>0</in>
												<out>384</out>
												<start>0</start>
												<end>384</end>
												<masterclipid>ArmA 3 2020.11.28 - 23.59.49.11.mp4</masterclipid>
												<logginginfo>
													<scene />
													<shottake />
													<lognote />
													<good>FALSE</good>
												</logginginfo>
												<labels>
													<label2 />
												</labels>
												<comments>
													<mastercomment1 />
													<mastercomment2 />
													<mastercomment3 />
													<mastercomment4 />
												</comments>
												<file id="ArmA 3 2020.11.28 - 23.59.49.11" />
												<sourcetrack>
													<mediatype>audio</mediatype>
												</sourcetrack>
											</clipitem>
											<enabled>TRUE</enabled>
											<locked>FALSE</locked>
										</track>
									</audio>
								</media>
							</clip>
							<clip id="ArmA 3 2020.11.29 - 00.00.59.12.DVR.mp4">
								<updatebehavior>add</updatebehavior>
								<name>ArmA 3 2020.11.29 - 00.00.59.12.DVR.mp4</name>
								<duration>7198</duration>
								<rate>
									<ntsc>FALSE</ntsc>
									<timebase>60</timebase>
								</rate>
								<in>-1</in>
								<out>-1</out>
								<masterclipid>ArmA 3 2020.11.29 - 00.00.59.12.DVR.mp4</masterclipid>
								<ismasterclip>TRUE</ismasterclip>
								<logginginfo>
									<scene />
									<shottake />
									<lognote />
									<good>FALSE</good>
								</logginginfo>
								<labels>
									<label2 />
								</labels>
								<comments>
									<mastercomment1 />
									<mastercomment2 />
									<mastercomment3 />
									<mastercomment4 />
								</comments>
								<media>
									<video>
										<track>
											<clipitem id="ArmA 3 2020.11.29 - 00.00.59.12.DVR.mp41">
												<name>ArmA 3 2020.11.29 - 00.00.59.12.DVR.mp4</name>
												<duration>7198</duration>
												<rate>
													<ntsc>FALSE</ntsc>
													<timebase>60</timebase>
												</rate>
												<in>0</in>
												<out>7198</out>
												<start>0</start>
												<end>7198</end>
												<pixelaspectratio>Square</pixelaspectratio>
												<anamorphic>FALSE</anamorphic>
												<alphatype>none</alphatype>
												<masterclipid>ArmA 3 2020.11.29 - 00.00.59.12.DVR.mp4</masterclipid>
												<logginginfo>
													<scene />
													<shottake />
													<lognote />
													<good>FALSE</good>
												</logginginfo>
												<labels>
													<label2 />
												</labels>
												<comments>
													<mastercomment1 />
													<mastercomment2 />
													<mastercomment3 />
													<mastercomment4 />
												</comments>
												<file id="ArmA 3 2020.11.29 - 00.00.59.12.DVR">
													<name>ArmA 3 2020.11.29 - 00.00.59.12.DVR.mp4</name>
													<pathurl>file://localhost/F:/AMVS Russia/NaturaDestruction/PRPACK1/ArmA 3 2020.11.29 - 00.00.59.12.DVR.mp4</pathurl>
													<rate>
														<timebase>60</timebase>
														<ntsc>FALSE</ntsc>
													</rate>
													<duration>7198</duration>
													<timecode>
														<rate>
															<timebase>60</timebase>
															<ntsc>FALSE</ntsc>
														</rate>
														<frame>0</frame>
														<displayformat>NDF</displayformat>
														<source>source</source>
													</timecode>
													<media>
														<video>
															<duration>7198</duration>
															<samplecharacteristics>
																<width>1920</width>
																<height>1080</height>
															</samplecharacteristics>
														</video>
														<audio>
															<samplecharacteristics>
																<samplerate>48000</samplerate>
																<depth>32</depth>
															</samplecharacteristics>
															<channelcount>1</channelcount>
														</audio>
														<audio>
															<samplecharacteristics>
																<samplerate>48000</samplerate>
																<depth>32</depth>
															</samplecharacteristics>
															<channelcount>1</channelcount>
														</audio>
													</media>
												</file>
												<sourcetrack>
													<mediatype>video</mediatype>
												</sourcetrack>
												<fielddominance>none</fielddominance>
											</clipitem>
											<enabled>TRUE</enabled>
											<locked>FALSE</locked>
										</track>
									</video>
									<audio>
										<track>
											<clipitem id="ArmA 3 2020.11.29 - 00.00.59.12.DVR.mp42">
												<name>ArmA 3 2020.11.29 - 00.00.59.12.DVR.mp4</name>
												<duration>7198</duration>
												<rate>
													<ntsc>TRUE</ntsc>
													<timebase>24</timebase>
												</rate>
												<in>0</in>
												<out>7198</out>
												<start>0</start>
												<end>7198</end>
												<masterclipid>ArmA 3 2020.11.29 - 00.00.59.12.DVR.mp4</masterclipid>
												<logginginfo>
													<scene />
													<shottake />
													<lognote />
													<good>FALSE</good>
												</logginginfo>
												<labels>
													<label2 />
												</labels>
												<comments>
													<mastercomment1 />
													<mastercomment2 />
													<mastercomment3 />
													<mastercomment4 />
												</comments>
												<file id="ArmA 3 2020.11.29 - 00.00.59.12.DVR" />
												<sourcetrack>
													<mediatype>audio</mediatype>
												</sourcetrack>
											</clipitem>
											<enabled>TRUE</enabled>
											<locked>FALSE</locked>
										</track>
										<track>
											<clipitem id="ArmA 3 2020.11.29 - 00.00.59.12.DVR.mp43">
												<name>ArmA 3 2020.11.29 - 00.00.59.12.DVR.mp4</name>
												<duration>7198</duration>
												<rate>
													<ntsc>TRUE</ntsc>
													<timebase>24</timebase>
												</rate>
												<in>0</in>
												<out>7198</out>
												<start>0</start>
												<end>7198</end>
												<masterclipid>ArmA 3 2020.11.29 - 00.00.59.12.DVR.mp4</masterclipid>
												<logginginfo>
													<scene />
													<shottake />
													<lognote />
													<good>FALSE</good>
												</logginginfo>
												<labels>
													<label2 />
												</labels>
												<comments>
													<mastercomment1 />
													<mastercomment2 />
													<mastercomment3 />
													<mastercomment4 />
												</comments>
												<file id="ArmA 3 2020.11.29 - 00.00.59.12.DVR" />
												<sourcetrack>
													<mediatype>audio</mediatype>
												</sourcetrack>
											</clipitem>
											<enabled>TRUE</enabled>
											<locked>FALSE</locked>
										</track>
									</audio>
								</media>
							</clip>
							<clip id="ArmA 3 2020.11.29 - 00.02.48.13.DVR.mp4">
								<updatebehavior>add</updatebehavior>
								<name>ArmA 3 2020.11.29 - 00.02.48.13.DVR.mp4</name>
								<duration>2603</duration>
								<rate>
									<ntsc>FALSE</ntsc>
									<timebase>60</timebase>
								</rate>
								<in>-1</in>
								<out>-1</out>
								<masterclipid>ArmA 3 2020.11.29 - 00.02.48.13.DVR.mp4</masterclipid>
								<ismasterclip>TRUE</ismasterclip>
								<logginginfo>
									<scene />
									<shottake />
									<lognote />
									<good>FALSE</good>
								</logginginfo>
								<labels>
									<label2 />
								</labels>
								<comments>
									<mastercomment1 />
									<mastercomment2 />
									<mastercomment3 />
									<mastercomment4 />
								</comments>
								<media>
									<video>
										<track>
											<clipitem id="ArmA 3 2020.11.29 - 00.02.48.13.DVR.mp41">
												<name>ArmA 3 2020.11.29 - 00.02.48.13.DVR.mp4</name>
												<duration>2603</duration>
												<rate>
													<ntsc>FALSE</ntsc>
													<timebase>60</timebase>
												</rate>
												<in>0</in>
												<out>2603</out>
												<start>0</start>
												<end>2603</end>
												<pixelaspectratio>Square</pixelaspectratio>
												<anamorphic>FALSE</anamorphic>
												<alphatype>none</alphatype>
												<masterclipid>ArmA 3 2020.11.29 - 00.02.48.13.DVR.mp4</masterclipid>
												<logginginfo>
													<scene />
													<shottake />
													<lognote />
													<good>FALSE</good>
												</logginginfo>
												<labels>
													<label2 />
												</labels>
												<comments>
													<mastercomment1 />
													<mastercomment2 />
													<mastercomment3 />
													<mastercomment4 />
												</comments>
												<file id="ArmA 3 2020.11.29 - 00.02.48.13.DVR">
													<name>ArmA 3 2020.11.29 - 00.02.48.13.DVR.mp4</name>
													<pathurl>file://localhost/F:/AMVS Russia/NaturaDestruction/PRPACK2/ArmA 3 2020.11.29 - 00.02.48.13.DVR.mp4</pathurl>
													<rate>
														<timebase>60</timebase>
														<ntsc>FALSE</ntsc>
													</rate>
													<duration>2603</duration>
													<timecode>
														<rate>
															<timebase>60</timebase>
															<ntsc>FALSE</ntsc>
														</rate>
														<frame>0</frame>
														<displayformat>NDF</displayformat>
														<source>source</source>
													</timecode>
													<media>
														<video>
															<duration>2603</duration>
															<samplecharacteristics>
																<width>1920</width>
																<height>1080</height>
															</samplecharacteristics>
														</video>
														<audio>
															<samplecharacteristics>
																<samplerate>48000</samplerate>
																<depth>32</depth>
															</samplecharacteristics>
															<channelcount>1</channelcount>
														</audio>
														<audio>
															<samplecharacteristics>
																<samplerate>48000</samplerate>
																<depth>32</depth>
															</samplecharacteristics>
															<channelcount>1</channelcount>
														</audio>
													</media>
												</file>
												<sourcetrack>
													<mediatype>video</mediatype>
												</sourcetrack>
												<fielddominance>none</fielddominance>
											</clipitem>
											<enabled>TRUE</enabled>
											<locked>FALSE</locked>
										</track>
									</video>
									<audio>
										<track>
											<clipitem id="ArmA 3 2020.11.29 - 00.02.48.13.DVR.mp42">
												<name>ArmA 3 2020.11.29 - 00.02.48.13.DVR.mp4</name>
												<duration>2603</duration>
												<rate>
													<ntsc>TRUE</ntsc>
													<timebase>24</timebase>
												</rate>
												<in>0</in>
												<out>2603</out>
												<start>0</start>
												<end>2603</end>
												<masterclipid>ArmA 3 2020.11.29 - 00.02.48.13.DVR.mp4</masterclipid>
												<logginginfo>
													<scene />
													<shottake />
													<lognote />
													<good>FALSE</good>
												</logginginfo>
												<labels>
													<label2 />
												</labels>
												<comments>
													<mastercomment1 />
													<mastercomment2 />
													<mastercomment3 />
													<mastercomment4 />
												</comments>
												<file id="ArmA 3 2020.11.29 - 00.02.48.13.DVR" />
												<sourcetrack>
													<mediatype>audio</mediatype>
												</sourcetrack>
											</clipitem>
											<enabled>TRUE</enabled>
											<locked>FALSE</locked>
										</track>
										<track>
											<clipitem id="ArmA 3 2020.11.29 - 00.02.48.13.DVR.mp43">
												<name>ArmA 3 2020.11.29 - 00.02.48.13.DVR.mp4</name>
												<duration>2603</duration>
												<rate>
													<ntsc>TRUE</ntsc>
													<timebase>24</timebase>
												</rate>
												<in>0</in>
												<out>2603</out>
												<start>0</start>
												<end>2603</end>
												<masterclipid>ArmA 3 2020.11.29 - 00.02.48.13.DVR.mp4</masterclipid>
												<logginginfo>
													<scene />
													<shottake />
													<lognote />
													<good>FALSE</good>
												</logginginfo>
												<labels>
													<label2 />
												</labels>
												<comments>
													<mastercomment1 />
													<mastercomment2 />
													<mastercomment3 />
													<mastercomment4 />
												</comments>
												<file id="ArmA 3 2020.11.29 - 00.02.48.13.DVR" />
												<sourcetrack>
													<mediatype>audio</mediatype>
												</sourcetrack>
											</clipitem>
											<enabled>TRUE</enabled>
											<locked>FALSE</locked>
										</track>
									</audio>
								</media>
							</clip>
						</children>
					</bin>
					<bin>
						<updatebehavior>add</updatebehavior>
						<name>Voiceover</name>
						<children>
							<clip id="PR_Sanya_Sc14.ogg">
								<updatebehavior>add</updatebehavior>
								<name>PR_Sanya_Sc14.ogg</name>
								<duration>0</duration>
								<rate>
									<ntsc>TRUE</ntsc>
									<timebase>24</timebase>
								</rate>
								<in>-1</in>
								<out>-1</out>
								<masterclipid>PR_Sanya_Sc14.ogg</masterclipid>
								<ismasterclip>TRUE</ismasterclip>
								<logginginfo>
									<scene />
									<shottake />
									<lognote />
									<good>FALSE</good>
								</logginginfo>
								<labels>
									<label2 />
								</labels>
								<comments>
									<mastercomment1 />
									<mastercomment2 />
									<mastercomment3 />
									<mastercomment4 />
								</comments>
								<media>
									<video />
									<audio />
								</media>
							</clip>
						</children>
					</bin>
					<bin>
						<updatebehavior>add</updatebehavior>
						<name>SFX</name>
						<children />
					</bin>
				</children>
			</bin>
			<sequence id="Sequence 1">
				<updatebehavior>add</updatebehavior>
				<name>Sequence 1</name>
				<duration>14699</duration>
				<rate>
					<ntsc>TRUE</ntsc>
					<timebase>24</timebase>
				</rate>
				<timecode>
					<rate>
						<ntsc>TRUE</ntsc>
						<timebase>24</timebase>
					</rate>
					<frame>86313</frame>
					<source>source</source>
					<displayformat>DF</displayformat>
				</timecode>
				<in>-1</in>
				<out>-1</out>
				<media>
					<video>
						<format>
							<samplecharacteristics>
								<width>1920</width>
								<height>1080</height>
								<pixelaspectratio>Square</pixelaspectratio>
								<anamorphic>FALSE</anamorphic>
								<fielddominance>none</fielddominance>
								<rate>
									<ntsc>TRUE</ntsc>
									<timebase>24</timebase>
								</rate>
								<colordepth>24</colordepth>
								<codec>
									<appspecificdata>
										<data>
											<qtcodec>
												<codectypecode>avc1</codectypecode>
											</qtcodec>
										</data>
										<appname>Final Cut Pro</appname>
										<appmanufacturer>Apple Inc.</appmanufacturer>
										<appversion>7.0</appversion>
									</appspecificdata>
								</codec>
							</samplecharacteristics>
						</format>
						<track>
							<clipitem id="ArmA 3 2020.11.28 - 23.52.07.02.mp4805307592">
								<name>ArmA 3 2020.11.28 - 23.52.07.02.mp4</name>
								<duration>444</duration>
								<rate>
									<ntsc>FALSE</ntsc>
									<timebase>60</timebase>
								</rate>
								<in>0</in>
								<out>444</out>
								<start>0</start>
								<end>444</end>
								<pixelaspectratio>Square</pixelaspectratio>
								<anamorphic>FALSE</anamorphic>
								<alphatype>none</alphatype>
								<masterclipid>ArmA 3 2020.11.28 - 23.52.07.02.mp4</masterclipid>
								<logginginfo>
									<scene />
									<shottake />
									<lognote />
									<good>FALSE</good>
								</logginginfo>
								<labels>
									<label2 />
								</labels>
								<comments>
									<mastercomment1 />
									<mastercomment2 />
									<mastercomment3 />
									<mastercomment4 />
								</comments>
								<file id="ArmA 3 2020.11.28 - 23.52.07.02" />
								<filter>
									<effect>
										<name>Opacity</name>
										<effectid>opacity</effectid>
										<effectcategory>motion</effectcategory>
										<effecttype>motion</effecttype>
										<mediatype>video</mediatype>
										<parameter>
											<name>opacity</name>
											<parameterid>opacity</parameterid>
											<valuemin>0</valuemin>
											<valuemax>100</valuemax>
											<value>100</value>
										</parameter>
									</effect>
								</filter>
								<sourcetrack>
									<mediatype>video</mediatype>
								</sourcetrack>
								<link>
									<linkclipref>ArmA 3 2020.11.28 - 23.52.07.02.mp4805307592</linkclipref>
								</link>
								<link>
									<linkclipref>ArmA 3 2020.11.28 - 23.52.07.02.mp4536872137</linkclipref>
								</link>
								<link>
									<linkclipref>ArmA 3 2020.11.28 - 23.52.07.02.mp45368721371</linkclipref>
								</link>
								<link>
									<linkclipref>ArmA 3 2020.11.28 - 23.52.07.02.mp4536872138</linkclipref>
								</link>
								<link>
									<linkclipref>ArmA 3 2020.11.28 - 23.52.07.02.mp45368721381</linkclipref>
								</link>
								<fielddominance>none</fielddominance>
							</clipitem>
							<clipitem id="ArmA 3 2020.11.28 - 23.53.40.03.mp4805307595">
								<name>ArmA 3 2020.11.28 - 23.53.40.03.mp4</name>
								<duration>314</duration>
								<rate>
									<ntsc>FALSE</ntsc>
									<timebase>60</timebase>
								</rate>
								<in>0</in>
								<out>314</out>
								<start>445</start>
								<end>759</end>
								<pixelaspectratio>Square</pixelaspectratio>
								<anamorphic>FALSE</anamorphic>
								<alphatype>none</alphatype>
								<masterclipid>ArmA 3 2020.11.28 - 23.53.40.03.mp4</masterclipid>
								<logginginfo>
									<scene />
									<shottake />
									<lognote />
									<good>FALSE</good>
								</logginginfo>
								<labels>
									<label2 />
								</labels>
								<comments>
									<mastercomment1 />
									<mastercomment2 />
									<mastercomment3 />
									<mastercomment4 />
								</comments>
								<file id="ArmA 3 2020.11.28 - 23.53.40.03" />
								<filter>
									<effect>
										<name>Opacity</name>
										<effectid>opacity</effectid>
										<effectcategory>motion</effectcategory>
										<effecttype>motion</effecttype>
										<mediatype>video</mediatype>
										<parameter>
											<name>opacity</name>
											<parameterid>opacity</parameterid>
											<valuemin>0</valuemin>
											<valuemax>100</valuemax>
											<value>100</value>
										</parameter>
									</effect>
								</filter>
								<sourcetrack>
									<mediatype>video</mediatype>
								</sourcetrack>
								<link>
									<linkclipref>ArmA 3 2020.11.28 - 23.53.40.03.mp4805307595</linkclipref>
								</link>
								<link>
									<linkclipref>ArmA 3 2020.11.28 - 23.53.40.03.mp4536872140</linkclipref>
								</link>
								<link>
									<linkclipref>ArmA 3 2020.11.28 - 23.53.40.03.mp45368721401</linkclipref>
								</link>
								<link>
									<linkclipref>ArmA 3 2020.11.28 - 23.53.40.03.mp4536872141</linkclipref>
								</link>
								<link>
									<linkclipref>ArmA 3 2020.11.28 - 23.53.40.03.mp45368721411</linkclipref>
								</link>
								<fielddominance>none</fielddominance>
							</clipitem>
							<clipitem id="ArmA 3 2020.11.28 - 23.54.55.04.mp4805307598">
								<name>ArmA 3 2020.11.28 - 23.54.55.04.mp4</name>
								<duration>644</duration>
								<rate>
									<ntsc>FALSE</ntsc>
									<timebase>60</timebase>
								</rate>
								<in>0</in>
								<out>644</out>
								<start>760</start>
								<end>1404</end>
								<pixelaspectratio>Square</pixelaspectratio>
								<anamorphic>FALSE</anamorphic>
								<alphatype>none</alphatype>
								<masterclipid>ArmA 3 2020.11.28 - 23.54.55.04.mp4</masterclipid>
								<logginginfo>
									<scene />
									<shottake />
									<lognote />
									<good>FALSE</good>
								</logginginfo>
								<labels>
									<label2 />
								</labels>
								<comments>
									<mastercomment1 />
									<mastercomment2 />
									<mastercomment3 />
									<mastercomment4 />
								</comments>
								<file id="ArmA 3 2020.11.28 - 23.54.55.04" />
								<filter>
									<effect>
										<name>Opacity</name>
										<effectid>opacity</effectid>
										<effectcategory>motion</effectcategory>
										<effecttype>motion</effecttype>
										<mediatype>video</mediatype>
										<parameter>
											<name>opacity</name>
											<parameterid>opacity</parameterid>
											<valuemin>0</valuemin>
											<valuemax>100</valuemax>
											<value>100</value>
										</parameter>
									</effect>
								</filter>
								<sourcetrack>
									<mediatype>video</mediatype>
								</sourcetrack>
								<link>
									<linkclipref>ArmA 3 2020.11.28 - 23.54.55.04.mp4805307598</linkclipref>
								</link>
								<link>
									<linkclipref>ArmA 3 2020.11.28 - 23.54.55.04.mp4536872143</linkclipref>
								</link>
								<link>
									<linkclipref>ArmA 3 2020.11.28 - 23.54.55.04.mp45368721431</linkclipref>
								</link>
								<link>
									<linkclipref>ArmA 3 2020.11.28 - 23.54.55.04.mp4536872144</linkclipref>
								</link>
								<link>
									<linkclipref>ArmA 3 2020.11.28 - 23.54.55.04.mp45368721441</linkclipref>
								</link>
								<fielddominance>none</fielddominance>
							</clipitem>
							<clipitem id="ArmA 3 2020.11.28 - 23.55.37.05.mp4805307601">
								<name>ArmA 3 2020.11.28 - 23.55.37.05.mp4</name>
								<duration>443</duration>
								<rate>
									<ntsc>FALSE</ntsc>
									<timebase>60</timebase>
								</rate>
								<in>0</in>
								<out>443</out>
								<start>1405</start>
								<end>1848</end>
								<pixelaspectratio>Square</pixelaspectratio>
								<anamorphic>FALSE</anamorphic>
								<alphatype>none</alphatype>
								<masterclipid>ArmA 3 2020.11.28 - 23.55.37.05.mp4</masterclipid>
								<logginginfo>
									<scene />
									<shottake />
									<lognote />
									<good>FALSE</good>
								</logginginfo>
								<labels>
									<label2 />
								</labels>
								<comments>
									<mastercomment1 />
									<mastercomment2 />
									<mastercomment3 />
									<mastercomment4 />
								</comments>
								<file id="ArmA 3 2020.11.28 - 23.55.37.05" />
								<filter>
									<effect>
										<name>Opacity</name>
										<effectid>opacity</effectid>
										<effectcategory>motion</effectcategory>
										<effecttype>motion</effecttype>
										<mediatype>video</mediatype>
										<parameter>
											<name>opacity</name>
											<parameterid>opacity</parameterid>
											<valuemin>0</valuemin>
											<valuemax>100</valuemax>
											<value>100</value>
										</parameter>
									</effect>
								</filter>
								<sourcetrack>
									<mediatype>video</mediatype>
								</sourcetrack>
								<link>
									<linkclipref>ArmA 3 2020.11.28 - 23.55.37.05.mp4805307601</linkclipref>
								</link>
								<link>
									<linkclipref>ArmA 3 2020.11.28 - 23.55.37.05.mp4536872146</linkclipref>
								</link>
								<link>
									<linkclipref>ArmA 3 2020.11.28 - 23.55.37.05.mp45368721461</linkclipref>
								</link>
								<link>
									<linkclipref>ArmA 3 2020.11.28 - 23.55.37.05.mp4536872147</linkclipref>
								</link>
								<link>
									<linkclipref>ArmA 3 2020.11.28 - 23.55.37.05.mp45368721471</linkclipref>
								</link>
								<fielddominance>none</fielddominance>
							</clipitem>
							<clipitem id="ArmA 3 2020.11.28 - 23.56.19.06.mp4805307604">
								<name>ArmA 3 2020.11.28 - 23.56.19.06.mp4</name>
								<duration>353</duration>
								<rate>
									<ntsc>FALSE</ntsc>
									<timebase>60</timebase>
								</rate>
								<in>0</in>
								<out>353</out>
								<start>1849</start>
								<end>2202</end>
								<pixelaspectratio>Square</pixelaspectratio>
								<anamorphic>FALSE</anamorphic>
								<alphatype>none</alphatype>
								<masterclipid>ArmA 3 2020.11.28 - 23.56.19.06.mp4</masterclipid>
								<logginginfo>
									<scene />
									<shottake />
									<lognote />
									<good>FALSE</good>
								</logginginfo>
								<labels>
									<label2 />
								</labels>
								<comments>
									<mastercomment1 />
									<mastercomment2 />
									<mastercomment3 />
									<mastercomment4 />
								</comments>
								<file id="ArmA 3 2020.11.28 - 23.56.19.06" />
								<filter>
									<effect>
										<name>Opacity</name>
										<effectid>opacity</effectid>
										<effectcategory>motion</effectcategory>
										<effecttype>motion</effecttype>
										<mediatype>video</mediatype>
										<parameter>
											<name>opacity</name>
											<parameterid>opacity</parameterid>
											<valuemin>0</valuemin>
											<valuemax>100</valuemax>
											<value>100</value>
										</parameter>
									</effect>
								</filter>
								<sourcetrack>
									<mediatype>video</mediatype>
								</sourcetrack>
								<link>
									<linkclipref>ArmA 3 2020.11.28 - 23.56.19.06.mp4805307604</linkclipref>
								</link>
								<link>
									<linkclipref>ArmA 3 2020.11.28 - 23.56.19.06.mp4536872149</linkclipref>
								</link>
								<link>
									<linkclipref>ArmA 3 2020.11.28 - 23.56.19.06.mp45368721491</linkclipref>
								</link>
								<link>
									<linkclipref>ArmA 3 2020.11.28 - 23.56.19.06.mp4536872150</linkclipref>
								</link>
								<link>
									<linkclipref>ArmA 3 2020.11.28 - 23.56.19.06.mp45368721501</linkclipref>
								</link>
								<fielddominance>none</fielddominance>
							</clipitem>
							<clipitem id="ArmA 3 2020.11.28 - 23.57.22.07.mp4805307607">
								<name>ArmA 3 2020.11.28 - 23.57.22.07.mp4</name>
								<duration>497</duration>
								<rate>
									<ntsc>FALSE</ntsc>
									<timebase>60</timebase>
								</rate>
								<in>0</in>
								<out>497</out>
								<start>2203</start>
								<end>2700</end>
								<pixelaspectratio>Square</pixelaspectratio>
								<anamorphic>FALSE</anamorphic>
								<alphatype>none</alphatype>
								<masterclipid>ArmA 3 2020.11.28 - 23.57.22.07.mp4</masterclipid>
								<logginginfo>
									<scene />
									<shottake />
									<lognote />
									<good>FALSE</good>
								</logginginfo>
								<labels>
									<label2 />
								</labels>
								<comments>
									<mastercomment1 />
									<mastercomment2 />
									<mastercomment3 />
									<mastercomment4 />
								</comments>
								<file id="ArmA 3 2020.11.28 - 23.57.22.07" />
								<filter>
									<effect>
										<name>Opacity</name>
										<effectid>opacity</effectid>
										<effectcategory>motion</effectcategory>
										<effecttype>motion</effecttype>
										<mediatype>video</mediatype>
										<parameter>
											<name>opacity</name>
											<parameterid>opacity</parameterid>
											<valuemin>0</valuemin>
											<valuemax>100</valuemax>
											<value>100</value>
										</parameter>
									</effect>
								</filter>
								<sourcetrack>
									<mediatype>video</mediatype>
								</sourcetrack>
								<link>
									<linkclipref>ArmA 3 2020.11.28 - 23.57.22.07.mp4805307607</linkclipref>
								</link>
								<link>
									<linkclipref>ArmA 3 2020.11.28 - 23.57.22.07.mp4536872152</linkclipref>
								</link>
								<link>
									<linkclipref>ArmA 3 2020.11.28 - 23.57.22.07.mp45368721521</linkclipref>
								</link>
								<link>
									<linkclipref>ArmA 3 2020.11.28 - 23.57.22.07.mp4536872153</linkclipref>
								</link>
								<link>
									<linkclipref>ArmA 3 2020.11.28 - 23.57.22.07.mp45368721531</linkclipref>
								</link>
								<fielddominance>none</fielddominance>
							</clipitem>
							<clipitem id="ArmA 3 2020.11.28 - 23.57.55.08.mp4805307610">
								<name>ArmA 3 2020.11.28 - 23.57.55.08.mp4</name>
								<duration>541</duration>
								<rate>
									<ntsc>FALSE</ntsc>
									<timebase>60</timebase>
								</rate>
								<in>0</in>
								<out>541</out>
								<start>2701</start>
								<end>3242</end>
								<pixelaspectratio>Square</pixelaspectratio>
								<anamorphic>FALSE</anamorphic>
								<alphatype>none</alphatype>
								<masterclipid>ArmA 3 2020.11.28 - 23.57.55.08.mp4</masterclipid>
								<logginginfo>
									<scene />
									<shottake />
									<lognote />
									<good>FALSE</good>
								</logginginfo>
								<labels>
									<label2 />
								</labels>
								<comments>
									<mastercomment1 />
									<mastercomment2 />
									<mastercomment3 />
									<mastercomment4 />
								</comments>
								<file id="ArmA 3 2020.11.28 - 23.57.55.08" />
								<filter>
									<effect>
										<name>Opacity</name>
										<effectid>opacity</effectid>
										<effectcategory>motion</effectcategory>
										<effecttype>motion</effecttype>
										<mediatype>video</mediatype>
										<parameter>
											<name>opacity</name>
											<parameterid>opacity</parameterid>
											<valuemin>0</valuemin>
											<valuemax>100</valuemax>
											<value>100</value>
										</parameter>
									</effect>
								</filter>
								<sourcetrack>
									<mediatype>video</mediatype>
								</sourcetrack>
								<link>
									<linkclipref>ArmA 3 2020.11.28 - 23.57.55.08.mp4805307610</linkclipref>
								</link>
								<link>
									<linkclipref>ArmA 3 2020.11.28 - 23.57.55.08.mp4536872155</linkclipref>
								</link>
								<link>
									<linkclipref>ArmA 3 2020.11.28 - 23.57.55.08.mp45368721551</linkclipref>
								</link>
								<link>
									<linkclipref>ArmA 3 2020.11.28 - 23.57.55.08.mp4536872156</linkclipref>
								</link>
								<link>
									<linkclipref>ArmA 3 2020.11.28 - 23.57.55.08.mp45368721561</linkclipref>
								</link>
								<fielddominance>none</fielddominance>
							</clipitem>
							<clipitem id="ArmA 3 2020.11.28 - 23.58.28.09.mp4805307613">
								<name>ArmA 3 2020.11.28 - 23.58.28.09.mp4</name>
								<duration>633</duration>
								<rate>
									<ntsc>FALSE</ntsc>
									<timebase>60</timebase>
								</rate>
								<in>0</in>
								<out>633</out>
								<start>3243</start>
								<end>3876</end>
								<pixelaspectratio>Square</pixelaspectratio>
								<anamorphic>FALSE</anamorphic>
								<alphatype>none</alphatype>
								<masterclipid>ArmA 3 2020.11.28 - 23.58.28.09.mp4</masterclipid>
								<logginginfo>
									<scene />
									<shottake />
									<lognote />
									<good>FALSE</good>
								</logginginfo>
								<labels>
									<label2 />
								</labels>
								<comments>
									<mastercomment1 />
									<mastercomment2 />
									<mastercomment3 />
									<mastercomment4 />
								</comments>
								<file id="ArmA 3 2020.11.28 - 23.58.28.09" />
								<filter>
									<effect>
										<name>Opacity</name>
										<effectid>opacity</effectid>
										<effectcategory>motion</effectcategory>
										<effecttype>motion</effecttype>
										<mediatype>video</mediatype>
										<parameter>
											<name>opacity</name>
											<parameterid>opacity</parameterid>
											<valuemin>0</valuemin>
											<valuemax>100</valuemax>
											<value>100</value>
										</parameter>
									</effect>
								</filter>
								<sourcetrack>
									<mediatype>video</mediatype>
								</sourcetrack>
								<link>
									<linkclipref>ArmA 3 2020.11.28 - 23.58.28.09.mp4805307613</linkclipref>
								</link>
								<link>
									<linkclipref>ArmA 3 2020.11.28 - 23.58.28.09.mp4536872158</linkclipref>
								</link>
								<link>
									<linkclipref>ArmA 3 2020.11.28 - 23.58.28.09.mp45368721581</linkclipref>
								</link>
								<link>
									<linkclipref>ArmA 3 2020.11.28 - 23.58.28.09.mp4536872159</linkclipref>
								</link>
								<link>
									<linkclipref>ArmA 3 2020.11.28 - 23.58.28.09.mp45368721591</linkclipref>
								</link>
								<fielddominance>none</fielddominance>
							</clipitem>
							<clipitem id="ArmA 3 2020.11.28 - 23.59.09.10.mp4805307616">
								<name>ArmA 3 2020.11.28 - 23.59.09.10.mp4</name>
								<duration>635</duration>
								<rate>
									<ntsc>FALSE</ntsc>
									<timebase>60</timebase>
								</rate>
								<in>0</in>
								<out>635</out>
								<start>3877</start>
								<end>4512</end>
								<pixelaspectratio>Square</pixelaspectratio>
								<anamorphic>FALSE</anamorphic>
								<alphatype>none</alphatype>
								<masterclipid>ArmA 3 2020.11.28 - 23.59.09.10.mp4</masterclipid>
								<logginginfo>
									<scene />
									<shottake />
									<lognote />
									<good>FALSE</good>
								</logginginfo>
								<labels>
									<label2 />
								</labels>
								<comments>
									<mastercomment1 />
									<mastercomment2 />
									<mastercomment3 />
									<mastercomment4 />
								</comments>
								<file id="ArmA 3 2020.11.28 - 23.59.09.10" />
								<filter>
									<effect>
										<name>Opacity</name>
										<effectid>opacity</effectid>
										<effectcategory>motion</effectcategory>
										<effecttype>motion</effecttype>
										<mediatype>video</mediatype>
										<parameter>
											<name>opacity</name>
											<parameterid>opacity</parameterid>
											<valuemin>0</valuemin>
											<valuemax>100</valuemax>
											<value>100</value>
										</parameter>
									</effect>
								</filter>
								<sourcetrack>
									<mediatype>video</mediatype>
								</sourcetrack>
								<link>
									<linkclipref>ArmA 3 2020.11.28 - 23.59.09.10.mp4805307616</linkclipref>
								</link>
								<link>
									<linkclipref>ArmA 3 2020.11.28 - 23.59.09.10.mp4536872161</linkclipref>
								</link>
								<link>
									<linkclipref>ArmA 3 2020.11.28 - 23.59.09.10.mp45368721611</linkclipref>
								</link>
								<link>
									<linkclipref>ArmA 3 2020.11.28 - 23.59.09.10.mp4536872162</linkclipref>
								</link>
								<link>
									<linkclipref>ArmA 3 2020.11.28 - 23.59.09.10.mp45368721621</linkclipref>
								</link>
								<fielddominance>none</fielddominance>
							</clipitem>
							<clipitem id="ArmA 3 2020.11.28 - 23.59.49.11.mp4805307619">
								<name>ArmA 3 2020.11.28 - 23.59.49.11.mp4</name>
								<duration>384</duration>
								<rate>
									<ntsc>FALSE</ntsc>
									<timebase>60</timebase>
								</rate>
								<in>0</in>
								<out>384</out>
								<start>4513</start>
								<end>4897</end>
								<pixelaspectratio>Square</pixelaspectratio>
								<anamorphic>FALSE</anamorphic>
								<alphatype>none</alphatype>
								<masterclipid>ArmA 3 2020.11.28 - 23.59.49.11.mp4</masterclipid>
								<logginginfo>
									<scene />
									<shottake />
									<lognote />
									<good>FALSE</good>
								</logginginfo>
								<labels>
									<label2 />
								</labels>
								<comments>
									<mastercomment1 />
									<mastercomment2 />
									<mastercomment3 />
									<mastercomment4 />
								</comments>
								<file id="ArmA 3 2020.11.28 - 23.59.49.11" />
								<filter>
									<effect>
										<name>Opacity</name>
										<effectid>opacity</effectid>
										<effectcategory>motion</effectcategory>
										<effecttype>motion</effecttype>
										<mediatype>video</mediatype>
										<parameter>
											<name>opacity</name>
											<parameterid>opacity</parameterid>
											<valuemin>0</valuemin>
											<valuemax>100</valuemax>
											<value>100</value>
										</parameter>
									</effect>
								</filter>
								<sourcetrack>
									<mediatype>video</mediatype>
								</sourcetrack>
								<link>
									<linkclipref>ArmA 3 2020.11.28 - 23.59.49.11.mp4805307619</linkclipref>
								</link>
								<link>
									<linkclipref>ArmA 3 2020.11.28 - 23.59.49.11.mp4536872164</linkclipref>
								</link>
								<link>
									<linkclipref>ArmA 3 2020.11.28 - 23.59.49.11.mp45368721641</linkclipref>
								</link>
								<link>
									<linkclipref>ArmA 3 2020.11.28 - 23.59.49.11.mp4536872165</linkclipref>
								</link>
								<link>
									<linkclipref>ArmA 3 2020.11.28 - 23.59.49.11.mp45368721651</linkclipref>
								</link>
								<fielddominance>none</fielddominance>
							</clipitem>
							<clipitem id="ArmA 3 2020.11.29 - 00.00.59.12.DVR.mp4805307622">
								<name>ArmA 3 2020.11.29 - 00.00.59.12.DVR.mp4</name>
								<duration>7198</duration>
								<rate>
									<ntsc>FALSE</ntsc>
									<timebase>60</timebase>
								</rate>
								<in>0</in>
								<out>7198</out>
								<start>4898</start>
								<end>12096</end>
								<pixelaspectratio>Square</pixelaspectratio>
								<anamorphic>FALSE</anamorphic>
								<alphatype>none</alphatype>
								<masterclipid>ArmA 3 2020.11.29 - 00.00.59.12.DVR.mp4</masterclipid>
								<logginginfo>
									<scene />
									<shottake />
									<lognote />
									<good>FALSE</good>
								</logginginfo>
								<labels>
									<label2 />
								</labels>
								<comments>
									<mastercomment1 />
									<mastercomment2 />
									<mastercomment3 />
									<mastercomment4 />
								</comments>
								<file id="ArmA 3 2020.11.29 - 00.00.59.12.DVR" />
								<filter>
									<effect>
										<name>Opacity</name>
										<effectid>opacity</effectid>
										<effectcategory>motion</effectcategory>
										<effecttype>motion</effecttype>
										<mediatype>video</mediatype>
										<parameter>
											<name>opacity</name>
											<parameterid>opacity</parameterid>
											<valuemin>0</valuemin>
											<valuemax>100</valuemax>
											<value>100</value>
										</parameter>
									</effect>
								</filter>
								<sourcetrack>
									<mediatype>video</mediatype>
								</sourcetrack>
								<link>
									<linkclipref>ArmA 3 2020.11.29 - 00.00.59.12.DVR.mp4805307622</linkclipref>
								</link>
								<link>
									<linkclipref>ArmA 3 2020.11.29 - 00.00.59.12.DVR.mp4536872167</linkclipref>
								</link>
								<link>
									<linkclipref>ArmA 3 2020.11.29 - 00.00.59.12.DVR.mp45368721671</linkclipref>
								</link>
								<link>
									<linkclipref>ArmA 3 2020.11.29 - 00.00.59.12.DVR.mp4536872168</linkclipref>
								</link>
								<link>
									<linkclipref>ArmA 3 2020.11.29 - 00.00.59.12.DVR.mp45368721681</linkclipref>
								</link>
								<fielddominance>none</fielddominance>
							</clipitem>
							<clipitem id="ArmA 3 2020.11.29 - 00.02.48.13.DVR.mp4805307625">
								<name>ArmA 3 2020.11.29 - 00.02.48.13.DVR.mp4</name>
								<duration>2602</duration>
								<rate>
									<ntsc>FALSE</ntsc>
									<timebase>60</timebase>
								</rate>
								<in>0</in>
								<out>2602</out>
								<start>12097</start>
								<end>14699</end>
								<pixelaspectratio>Square</pixelaspectratio>
								<anamorphic>FALSE</anamorphic>
								<alphatype>none</alphatype>
								<masterclipid>ArmA 3 2020.11.29 - 00.02.48.13.DVR.mp4</masterclipid>
								<logginginfo>
									<scene />
									<shottake />
									<lognote />
									<good>FALSE</good>
								</logginginfo>
								<labels>
									<label2 />
								</labels>
								<comments>
									<mastercomment1 />
									<mastercomment2 />
									<mastercomment3 />
									<mastercomment4 />
								</comments>
								<file id="ArmA 3 2020.11.29 - 00.02.48.13.DVR" />
								<filter>
									<effect>
										<name>Opacity</name>
										<effectid>opacity</effectid>
										<effectcategory>motion</effectcategory>
										<effecttype>motion</effecttype>
										<mediatype>video</mediatype>
										<parameter>
											<name>opacity</name>
											<parameterid>opacity</parameterid>
											<valuemin>0</valuemin>
											<valuemax>100</valuemax>
											<value>100</value>
										</parameter>
									</effect>
								</filter>
								<sourcetrack>
									<mediatype>video</mediatype>
								</sourcetrack>
								<link>
									<linkclipref>ArmA 3 2020.11.29 - 00.02.48.13.DVR.mp4805307625</linkclipref>
								</link>
								<link>
									<linkclipref>ArmA 3 2020.11.29 - 00.02.48.13.DVR.mp4536872170</linkclipref>
								</link>
								<link>
									<linkclipref>ArmA 3 2020.11.29 - 00.02.48.13.DVR.mp45368721701</linkclipref>
								</link>
								<link>
									<linkclipref>ArmA 3 2020.11.29 - 00.02.48.13.DVR.mp4536872171</linkclipref>
								</link>
								<link>
									<linkclipref>ArmA 3 2020.11.29 - 00.02.48.13.DVR.mp45368721711</linkclipref>
								</link>
								<fielddominance>none</fielddominance>
							</clipitem>
						</track>
					</video>
					<audio>
						<track>
							<clipitem id="ArmA 3 2020.11.28 - 23.52.07.02.mp4536872138">
								<name>ArmA 3 2020.11.28 - 23.52.07.02.mp4</name>
								<duration>444</duration>
								<rate>
									<ntsc>TRUE</ntsc>
									<timebase>24</timebase>
								</rate>
								<in>0</in>
								<out>444</out>
								<start>0</start>
								<end>444</end>
								<enabled>FALSE</enabled>
								<masterclipid>ArmA 3 2020.11.28 - 23.52.07.02.mp4</masterclipid>
								<logginginfo>
									<scene />
									<shottake />
									<lognote />
									<good>FALSE</good>
								</logginginfo>
								<labels>
									<label2 />
								</labels>
								<comments>
									<mastercomment1 />
									<mastercomment2 />
									<mastercomment3 />
									<mastercomment4 />
								</comments>
								<file id="ArmA 3 2020.11.28 - 23.52.07.02" />
								<filter>
									<effect>
										<name>Audio Levels</name>
										<effectid>audiolevels</effectid>
										<effectcategory>audiolevels</effectcategory>
										<effecttype>audiolevels</effecttype>
										<mediatype>audio</mediatype>
										<parameter>
											<name>Level</name>
											<parameterid>level</parameterid>
											<valuemin>0</valuemin>
											<valuemax>3,98109</valuemax>
											<value>1</value>
										</parameter>
									</effect>
								</filter>
								<filter>
									<effect>
										<name>Audio Pan</name>
										<effectid>audiopan</effectid>
										<effectcategory>audiopan</effectcategory>
										<effecttype>audiopan</effecttype>
										<mediatype>audio</mediatype>
										<parameter>
											<name>Pan</name>
											<parameterid>pan</parameterid>
											<valuemin>-1</valuemin>
											<valuemax>1</valuemax>
											<value>-1</value>
										</parameter>
									</effect>
								</filter>
								<sourcetrack>
									<mediatype>audio</mediatype>
									<trackindex>1</trackindex>
								</sourcetrack>
								<link>
									<linkclipref>ArmA 3 2020.11.28 - 23.52.07.02.mp4805307592</linkclipref>
								</link>
								<link>
									<linkclipref>ArmA 3 2020.11.28 - 23.52.07.02.mp4536872137</linkclipref>
								</link>
								<link>
									<linkclipref>ArmA 3 2020.11.28 - 23.52.07.02.mp45368721371</linkclipref>
								</link>
								<link>
									<linkclipref>ArmA 3 2020.11.28 - 23.52.07.02.mp4536872138</linkclipref>
								</link>
								<link>
									<linkclipref>ArmA 3 2020.11.28 - 23.52.07.02.mp45368721381</linkclipref>
								</link>
							</clipitem>
							<clipitem id="ArmA 3 2020.11.28 - 23.53.40.03.mp4536872141">
								<name>ArmA 3 2020.11.28 - 23.53.40.03.mp4</name>
								<duration>314</duration>
								<rate>
									<ntsc>TRUE</ntsc>
									<timebase>24</timebase>
								</rate>
								<in>0</in>
								<out>314</out>
								<start>445</start>
								<end>759</end>
								<enabled>FALSE</enabled>
								<masterclipid>ArmA 3 2020.11.28 - 23.53.40.03.mp4</masterclipid>
								<logginginfo>
									<scene />
									<shottake />
									<lognote />
									<good>FALSE</good>
								</logginginfo>
								<labels>
									<label2 />
								</labels>
								<comments>
									<mastercomment1 />
									<mastercomment2 />
									<mastercomment3 />
									<mastercomment4 />
								</comments>
								<file id="ArmA 3 2020.11.28 - 23.53.40.03" />
								<filter>
									<effect>
										<name>Audio Levels</name>
										<effectid>audiolevels</effectid>
										<effectcategory>audiolevels</effectcategory>
										<effecttype>audiolevels</effecttype>
										<mediatype>audio</mediatype>
										<parameter>
											<name>Level</name>
											<parameterid>level</parameterid>
											<valuemin>0</valuemin>
											<valuemax>3,98109</valuemax>
											<value>1</value>
										</parameter>
									</effect>
								</filter>
								<filter>
									<effect>
										<name>Audio Pan</name>
										<effectid>audiopan</effectid>
										<effectcategory>audiopan</effectcategory>
										<effecttype>audiopan</effecttype>
										<mediatype>audio</mediatype>
										<parameter>
											<name>Pan</name>
											<parameterid>pan</parameterid>
											<valuemin>-1</valuemin>
											<valuemax>1</valuemax>
											<value>-1</value>
										</parameter>
									</effect>
								</filter>
								<sourcetrack>
									<mediatype>audio</mediatype>
									<trackindex>1</trackindex>
								</sourcetrack>
								<link>
									<linkclipref>ArmA 3 2020.11.28 - 23.53.40.03.mp4805307595</linkclipref>
								</link>
								<link>
									<linkclipref>ArmA 3 2020.11.28 - 23.53.40.03.mp4536872140</linkclipref>
								</link>
								<link>
									<linkclipref>ArmA 3 2020.11.28 - 23.53.40.03.mp45368721401</linkclipref>
								</link>
								<link>
									<linkclipref>ArmA 3 2020.11.28 - 23.53.40.03.mp4536872141</linkclipref>
								</link>
								<link>
									<linkclipref>ArmA 3 2020.11.28 - 23.53.40.03.mp45368721411</linkclipref>
								</link>
							</clipitem>
							<clipitem id="ArmA 3 2020.11.28 - 23.54.55.04.mp4536872144">
								<name>ArmA 3 2020.11.28 - 23.54.55.04.mp4</name>
								<duration>644</duration>
								<rate>
									<ntsc>TRUE</ntsc>
									<timebase>24</timebase>
								</rate>
								<in>0</in>
								<out>644</out>
								<start>760</start>
								<end>1404</end>
								<enabled>FALSE</enabled>
								<masterclipid>ArmA 3 2020.11.28 - 23.54.55.04.mp4</masterclipid>
								<logginginfo>
									<scene />
									<shottake />
									<lognote />
									<good>FALSE</good>
								</logginginfo>
								<labels>
									<label2 />
								</labels>
								<comments>
									<mastercomment1 />
									<mastercomment2 />
									<mastercomment3 />
									<mastercomment4 />
								</comments>
								<file id="ArmA 3 2020.11.28 - 23.54.55.04" />
								<filter>
									<effect>
										<name>Audio Levels</name>
										<effectid>audiolevels</effectid>
										<effectcategory>audiolevels</effectcategory>
										<effecttype>audiolevels</effecttype>
										<mediatype>audio</mediatype>
										<parameter>
											<name>Level</name>
											<parameterid>level</parameterid>
											<valuemin>0</valuemin>
											<valuemax>3,98109</valuemax>
											<value>1</value>
										</parameter>
									</effect>
								</filter>
								<filter>
									<effect>
										<name>Audio Pan</name>
										<effectid>audiopan</effectid>
										<effectcategory>audiopan</effectcategory>
										<effecttype>audiopan</effecttype>
										<mediatype>audio</mediatype>
										<parameter>
											<name>Pan</name>
											<parameterid>pan</parameterid>
											<valuemin>-1</valuemin>
											<valuemax>1</valuemax>
											<value>-1</value>
										</parameter>
									</effect>
								</filter>
								<sourcetrack>
									<mediatype>audio</mediatype>
									<trackindex>1</trackindex>
								</sourcetrack>
								<link>
									<linkclipref>ArmA 3 2020.11.28 - 23.54.55.04.mp4805307598</linkclipref>
								</link>
								<link>
									<linkclipref>ArmA 3 2020.11.28 - 23.54.55.04.mp4536872143</linkclipref>
								</link>
								<link>
									<linkclipref>ArmA 3 2020.11.28 - 23.54.55.04.mp45368721431</linkclipref>
								</link>
								<link>
									<linkclipref>ArmA 3 2020.11.28 - 23.54.55.04.mp4536872144</linkclipref>
								</link>
								<link>
									<linkclipref>ArmA 3 2020.11.28 - 23.54.55.04.mp45368721441</linkclipref>
								</link>
							</clipitem>
							<clipitem id="ArmA 3 2020.11.28 - 23.55.37.05.mp4536872147">
								<name>ArmA 3 2020.11.28 - 23.55.37.05.mp4</name>
								<duration>443</duration>
								<rate>
									<ntsc>TRUE</ntsc>
									<timebase>24</timebase>
								</rate>
								<in>0</in>
								<out>443</out>
								<start>1405</start>
								<end>1848</end>
								<enabled>FALSE</enabled>
								<masterclipid>ArmA 3 2020.11.28 - 23.55.37.05.mp4</masterclipid>
								<logginginfo>
									<scene />
									<shottake />
									<lognote />
									<good>FALSE</good>
								</logginginfo>
								<labels>
									<label2 />
								</labels>
								<comments>
									<mastercomment1 />
									<mastercomment2 />
									<mastercomment3 />
									<mastercomment4 />
								</comments>
								<file id="ArmA 3 2020.11.28 - 23.55.37.05" />
								<filter>
									<effect>
										<name>Audio Levels</name>
										<effectid>audiolevels</effectid>
										<effectcategory>audiolevels</effectcategory>
										<effecttype>audiolevels</effecttype>
										<mediatype>audio</mediatype>
										<parameter>
											<name>Level</name>
											<parameterid>level</parameterid>
											<valuemin>0</valuemin>
											<valuemax>3,98109</valuemax>
											<value>1</value>
										</parameter>
									</effect>
								</filter>
								<filter>
									<effect>
										<name>Audio Pan</name>
										<effectid>audiopan</effectid>
										<effectcategory>audiopan</effectcategory>
										<effecttype>audiopan</effecttype>
										<mediatype>audio</mediatype>
										<parameter>
											<name>Pan</name>
											<parameterid>pan</parameterid>
											<valuemin>-1</valuemin>
											<valuemax>1</valuemax>
											<value>-1</value>
										</parameter>
									</effect>
								</filter>
								<sourcetrack>
									<mediatype>audio</mediatype>
									<trackindex>1</trackindex>
								</sourcetrack>
								<link>
									<linkclipref>ArmA 3 2020.11.28 - 23.55.37.05.mp4805307601</linkclipref>
								</link>
								<link>
									<linkclipref>ArmA 3 2020.11.28 - 23.55.37.05.mp4536872146</linkclipref>
								</link>
								<link>
									<linkclipref>ArmA 3 2020.11.28 - 23.55.37.05.mp45368721461</linkclipref>
								</link>
								<link>
									<linkclipref>ArmA 3 2020.11.28 - 23.55.37.05.mp4536872147</linkclipref>
								</link>
								<link>
									<linkclipref>ArmA 3 2020.11.28 - 23.55.37.05.mp45368721471</linkclipref>
								</link>
							</clipitem>
							<clipitem id="ArmA 3 2020.11.28 - 23.56.19.06.mp4536872150">
								<name>ArmA 3 2020.11.28 - 23.56.19.06.mp4</name>
								<duration>353</duration>
								<rate>
									<ntsc>TRUE</ntsc>
									<timebase>24</timebase>
								</rate>
								<in>0</in>
								<out>353</out>
								<start>1849</start>
								<end>2202</end>
								<enabled>FALSE</enabled>
								<masterclipid>ArmA 3 2020.11.28 - 23.56.19.06.mp4</masterclipid>
								<logginginfo>
									<scene />
									<shottake />
									<lognote />
									<good>FALSE</good>
								</logginginfo>
								<labels>
									<label2 />
								</labels>
								<comments>
									<mastercomment1 />
									<mastercomment2 />
									<mastercomment3 />
									<mastercomment4 />
								</comments>
								<file id="ArmA 3 2020.11.28 - 23.56.19.06" />
								<filter>
									<effect>
										<name>Audio Levels</name>
										<effectid>audiolevels</effectid>
										<effectcategory>audiolevels</effectcategory>
										<effecttype>audiolevels</effecttype>
										<mediatype>audio</mediatype>
										<parameter>
											<name>Level</name>
											<parameterid>level</parameterid>
											<valuemin>0</valuemin>
											<valuemax>3,98109</valuemax>
											<value>1</value>
										</parameter>
									</effect>
								</filter>
								<filter>
									<effect>
										<name>Audio Pan</name>
										<effectid>audiopan</effectid>
										<effectcategory>audiopan</effectcategory>
										<effecttype>audiopan</effecttype>
										<mediatype>audio</mediatype>
										<parameter>
											<name>Pan</name>
											<parameterid>pan</parameterid>
											<valuemin>-1</valuemin>
											<valuemax>1</valuemax>
											<value>-1</value>
										</parameter>
									</effect>
								</filter>
								<sourcetrack>
									<mediatype>audio</mediatype>
									<trackindex>1</trackindex>
								</sourcetrack>
								<link>
									<linkclipref>ArmA 3 2020.11.28 - 23.56.19.06.mp4805307604</linkclipref>
								</link>
								<link>
									<linkclipref>ArmA 3 2020.11.28 - 23.56.19.06.mp4536872149</linkclipref>
								</link>
								<link>
									<linkclipref>ArmA 3 2020.11.28 - 23.56.19.06.mp45368721491</linkclipref>
								</link>
								<link>
									<linkclipref>ArmA 3 2020.11.28 - 23.56.19.06.mp4536872150</linkclipref>
								</link>
								<link>
									<linkclipref>ArmA 3 2020.11.28 - 23.56.19.06.mp45368721501</linkclipref>
								</link>
							</clipitem>
							<clipitem id="ArmA 3 2020.11.28 - 23.57.22.07.mp4536872153">
								<name>ArmA 3 2020.11.28 - 23.57.22.07.mp4</name>
								<duration>497</duration>
								<rate>
									<ntsc>TRUE</ntsc>
									<timebase>24</timebase>
								</rate>
								<in>0</in>
								<out>497</out>
								<start>2203</start>
								<end>2700</end>
								<enabled>FALSE</enabled>
								<masterclipid>ArmA 3 2020.11.28 - 23.57.22.07.mp4</masterclipid>
								<logginginfo>
									<scene />
									<shottake />
									<lognote />
									<good>FALSE</good>
								</logginginfo>
								<labels>
									<label2 />
								</labels>
								<comments>
									<mastercomment1 />
									<mastercomment2 />
									<mastercomment3 />
									<mastercomment4 />
								</comments>
								<file id="ArmA 3 2020.11.28 - 23.57.22.07" />
								<filter>
									<effect>
										<name>Audio Levels</name>
										<effectid>audiolevels</effectid>
										<effectcategory>audiolevels</effectcategory>
										<effecttype>audiolevels</effecttype>
										<mediatype>audio</mediatype>
										<parameter>
											<name>Level</name>
											<parameterid>level</parameterid>
											<valuemin>0</valuemin>
											<valuemax>3,98109</valuemax>
											<value>1</value>
										</parameter>
									</effect>
								</filter>
								<filter>
									<effect>
										<name>Audio Pan</name>
										<effectid>audiopan</effectid>
										<effectcategory>audiopan</effectcategory>
										<effecttype>audiopan</effecttype>
										<mediatype>audio</mediatype>
										<parameter>
											<name>Pan</name>
											<parameterid>pan</parameterid>
											<valuemin>-1</valuemin>
											<valuemax>1</valuemax>
											<value>-1</value>
										</parameter>
									</effect>
								</filter>
								<sourcetrack>
									<mediatype>audio</mediatype>
									<trackindex>1</trackindex>
								</sourcetrack>
								<link>
									<linkclipref>ArmA 3 2020.11.28 - 23.57.22.07.mp4805307607</linkclipref>
								</link>
								<link>
									<linkclipref>ArmA 3 2020.11.28 - 23.57.22.07.mp4536872152</linkclipref>
								</link>
								<link>
									<linkclipref>ArmA 3 2020.11.28 - 23.57.22.07.mp45368721521</linkclipref>
								</link>
								<link>
									<linkclipref>ArmA 3 2020.11.28 - 23.57.22.07.mp4536872153</linkclipref>
								</link>
								<link>
									<linkclipref>ArmA 3 2020.11.28 - 23.57.22.07.mp45368721531</linkclipref>
								</link>
							</clipitem>
							<clipitem id="ArmA 3 2020.11.28 - 23.57.55.08.mp4536872156">
								<name>ArmA 3 2020.11.28 - 23.57.55.08.mp4</name>
								<duration>541</duration>
								<rate>
									<ntsc>TRUE</ntsc>
									<timebase>24</timebase>
								</rate>
								<in>0</in>
								<out>541</out>
								<start>2701</start>
								<end>3242</end>
								<enabled>FALSE</enabled>
								<masterclipid>ArmA 3 2020.11.28 - 23.57.55.08.mp4</masterclipid>
								<logginginfo>
									<scene />
									<shottake />
									<lognote />
									<good>FALSE</good>
								</logginginfo>
								<labels>
									<label2 />
								</labels>
								<comments>
									<mastercomment1 />
									<mastercomment2 />
									<mastercomment3 />
									<mastercomment4 />
								</comments>
								<file id="ArmA 3 2020.11.28 - 23.57.55.08" />
								<filter>
									<effect>
										<name>Audio Levels</name>
										<effectid>audiolevels</effectid>
										<effectcategory>audiolevels</effectcategory>
										<effecttype>audiolevels</effecttype>
										<mediatype>audio</mediatype>
										<parameter>
											<name>Level</name>
											<parameterid>level</parameterid>
											<valuemin>0</valuemin>
											<valuemax>3,98109</valuemax>
											<value>1</value>
										</parameter>
									</effect>
								</filter>
								<filter>
									<effect>
										<name>Audio Pan</name>
										<effectid>audiopan</effectid>
										<effectcategory>audiopan</effectcategory>
										<effecttype>audiopan</effecttype>
										<mediatype>audio</mediatype>
										<parameter>
											<name>Pan</name>
											<parameterid>pan</parameterid>
											<valuemin>-1</valuemin>
											<valuemax>1</valuemax>
											<value>-1</value>
										</parameter>
									</effect>
								</filter>
								<sourcetrack>
									<mediatype>audio</mediatype>
									<trackindex>1</trackindex>
								</sourcetrack>
								<link>
									<linkclipref>ArmA 3 2020.11.28 - 23.57.55.08.mp4805307610</linkclipref>
								</link>
								<link>
									<linkclipref>ArmA 3 2020.11.28 - 23.57.55.08.mp4536872155</linkclipref>
								</link>
								<link>
									<linkclipref>ArmA 3 2020.11.28 - 23.57.55.08.mp45368721551</linkclipref>
								</link>
								<link>
									<linkclipref>ArmA 3 2020.11.28 - 23.57.55.08.mp4536872156</linkclipref>
								</link>
								<link>
									<linkclipref>ArmA 3 2020.11.28 - 23.57.55.08.mp45368721561</linkclipref>
								</link>
							</clipitem>
							<clipitem id="ArmA 3 2020.11.28 - 23.58.28.09.mp4536872159">
								<name>ArmA 3 2020.11.28 - 23.58.28.09.mp4</name>
								<duration>633</duration>
								<rate>
									<ntsc>TRUE</ntsc>
									<timebase>24</timebase>
								</rate>
								<in>0</in>
								<out>633</out>
								<start>3243</start>
								<end>3876</end>
								<enabled>FALSE</enabled>
								<masterclipid>ArmA 3 2020.11.28 - 23.58.28.09.mp4</masterclipid>
								<logginginfo>
									<scene />
									<shottake />
									<lognote />
									<good>FALSE</good>
								</logginginfo>
								<labels>
									<label2 />
								</labels>
								<comments>
									<mastercomment1 />
									<mastercomment2 />
									<mastercomment3 />
									<mastercomment4 />
								</comments>
								<file id="ArmA 3 2020.11.28 - 23.58.28.09" />
								<filter>
									<effect>
										<name>Audio Levels</name>
										<effectid>audiolevels</effectid>
										<effectcategory>audiolevels</effectcategory>
										<effecttype>audiolevels</effecttype>
										<mediatype>audio</mediatype>
										<parameter>
											<name>Level</name>
											<parameterid>level</parameterid>
											<valuemin>0</valuemin>
											<valuemax>3,98109</valuemax>
											<value>1</value>
										</parameter>
									</effect>
								</filter>
								<filter>
									<effect>
										<name>Audio Pan</name>
										<effectid>audiopan</effectid>
										<effectcategory>audiopan</effectcategory>
										<effecttype>audiopan</effecttype>
										<mediatype>audio</mediatype>
										<parameter>
											<name>Pan</name>
											<parameterid>pan</parameterid>
											<valuemin>-1</valuemin>
											<valuemax>1</valuemax>
											<value>-1</value>
										</parameter>
									</effect>
								</filter>
								<sourcetrack>
									<mediatype>audio</mediatype>
									<trackindex>1</trackindex>
								</sourcetrack>
								<link>
									<linkclipref>ArmA 3 2020.11.28 - 23.58.28.09.mp4805307613</linkclipref>
								</link>
								<link>
									<linkclipref>ArmA 3 2020.11.28 - 23.58.28.09.mp4536872158</linkclipref>
								</link>
								<link>
									<linkclipref>ArmA 3 2020.11.28 - 23.58.28.09.mp45368721581</linkclipref>
								</link>
								<link>
									<linkclipref>ArmA 3 2020.11.28 - 23.58.28.09.mp4536872159</linkclipref>
								</link>
								<link>
									<linkclipref>ArmA 3 2020.11.28 - 23.58.28.09.mp45368721591</linkclipref>
								</link>
							</clipitem>
							<clipitem id="ArmA 3 2020.11.28 - 23.59.09.10.mp4536872162">
								<name>ArmA 3 2020.11.28 - 23.59.09.10.mp4</name>
								<duration>635</duration>
								<rate>
									<ntsc>TRUE</ntsc>
									<timebase>24</timebase>
								</rate>
								<in>0</in>
								<out>635</out>
								<start>3877</start>
								<end>4512</end>
								<enabled>FALSE</enabled>
								<masterclipid>ArmA 3 2020.11.28 - 23.59.09.10.mp4</masterclipid>
								<logginginfo>
									<scene />
									<shottake />
									<lognote />
									<good>FALSE</good>
								</logginginfo>
								<labels>
									<label2 />
								</labels>
								<comments>
									<mastercomment1 />
									<mastercomment2 />
									<mastercomment3 />
									<mastercomment4 />
								</comments>
								<file id="ArmA 3 2020.11.28 - 23.59.09.10" />
								<filter>
									<effect>
										<name>Audio Levels</name>
										<effectid>audiolevels</effectid>
										<effectcategory>audiolevels</effectcategory>
										<effecttype>audiolevels</effecttype>
										<mediatype>audio</mediatype>
										<parameter>
											<name>Level</name>
											<parameterid>level</parameterid>
											<valuemin>0</valuemin>
											<valuemax>3,98109</valuemax>
											<value>1</value>
										</parameter>
									</effect>
								</filter>
								<filter>
									<effect>
										<name>Audio Pan</name>
										<effectid>audiopan</effectid>
										<effectcategory>audiopan</effectcategory>
										<effecttype>audiopan</effecttype>
										<mediatype>audio</mediatype>
										<parameter>
											<name>Pan</name>
											<parameterid>pan</parameterid>
											<valuemin>-1</valuemin>
											<valuemax>1</valuemax>
											<value>-1</value>
										</parameter>
									</effect>
								</filter>
								<sourcetrack>
									<mediatype>audio</mediatype>
									<trackindex>1</trackindex>
								</sourcetrack>
								<link>
									<linkclipref>ArmA 3 2020.11.28 - 23.59.09.10.mp4805307616</linkclipref>
								</link>
								<link>
									<linkclipref>ArmA 3 2020.11.28 - 23.59.09.10.mp4536872161</linkclipref>
								</link>
								<link>
									<linkclipref>ArmA 3 2020.11.28 - 23.59.09.10.mp45368721611</linkclipref>
								</link>
								<link>
									<linkclipref>ArmA 3 2020.11.28 - 23.59.09.10.mp4536872162</linkclipref>
								</link>
								<link>
									<linkclipref>ArmA 3 2020.11.28 - 23.59.09.10.mp45368721621</linkclipref>
								</link>
							</clipitem>
							<clipitem id="ArmA 3 2020.11.28 - 23.59.49.11.mp4536872165">
								<name>ArmA 3 2020.11.28 - 23.59.49.11.mp4</name>
								<duration>384</duration>
								<rate>
									<ntsc>TRUE</ntsc>
									<timebase>24</timebase>
								</rate>
								<in>0</in>
								<out>384</out>
								<start>4513</start>
								<end>4897</end>
								<enabled>FALSE</enabled>
								<masterclipid>ArmA 3 2020.11.28 - 23.59.49.11.mp4</masterclipid>
								<logginginfo>
									<scene />
									<shottake />
									<lognote />
									<good>FALSE</good>
								</logginginfo>
								<labels>
									<label2 />
								</labels>
								<comments>
									<mastercomment1 />
									<mastercomment2 />
									<mastercomment3 />
									<mastercomment4 />
								</comments>
								<file id="ArmA 3 2020.11.28 - 23.59.49.11" />
								<filter>
									<effect>
										<name>Audio Levels</name>
										<effectid>audiolevels</effectid>
										<effectcategory>audiolevels</effectcategory>
										<effecttype>audiolevels</effecttype>
										<mediatype>audio</mediatype>
										<parameter>
											<name>Level</name>
											<parameterid>level</parameterid>
											<valuemin>0</valuemin>
											<valuemax>3,98109</valuemax>
											<value>1</value>
										</parameter>
									</effect>
								</filter>
								<filter>
									<effect>
										<name>Audio Pan</name>
										<effectid>audiopan</effectid>
										<effectcategory>audiopan</effectcategory>
										<effecttype>audiopan</effecttype>
										<mediatype>audio</mediatype>
										<parameter>
											<name>Pan</name>
											<parameterid>pan</parameterid>
											<valuemin>-1</valuemin>
											<valuemax>1</valuemax>
											<value>-1</value>
										</parameter>
									</effect>
								</filter>
								<sourcetrack>
									<mediatype>audio</mediatype>
									<trackindex>1</trackindex>
								</sourcetrack>
								<link>
									<linkclipref>ArmA 3 2020.11.28 - 23.59.49.11.mp4805307619</linkclipref>
								</link>
								<link>
									<linkclipref>ArmA 3 2020.11.28 - 23.59.49.11.mp4536872164</linkclipref>
								</link>
								<link>
									<linkclipref>ArmA 3 2020.11.28 - 23.59.49.11.mp45368721641</linkclipref>
								</link>
								<link>
									<linkclipref>ArmA 3 2020.11.28 - 23.59.49.11.mp4536872165</linkclipref>
								</link>
								<link>
									<linkclipref>ArmA 3 2020.11.28 - 23.59.49.11.mp45368721651</linkclipref>
								</link>
							</clipitem>
							<clipitem id="ArmA 3 2020.11.29 - 00.00.59.12.DVR.mp4536872168">
								<name>ArmA 3 2020.11.29 - 00.00.59.12.DVR.mp4</name>
								<duration>7198</duration>
								<rate>
									<ntsc>TRUE</ntsc>
									<timebase>24</timebase>
								</rate>
								<in>0</in>
								<out>7198</out>
								<start>4898</start>
								<end>12096</end>
								<enabled>FALSE</enabled>
								<masterclipid>ArmA 3 2020.11.29 - 00.00.59.12.DVR.mp4</masterclipid>
								<logginginfo>
									<scene />
									<shottake />
									<lognote />
									<good>FALSE</good>
								</logginginfo>
								<labels>
									<label2 />
								</labels>
								<comments>
									<mastercomment1 />
									<mastercomment2 />
									<mastercomment3 />
									<mastercomment4 />
								</comments>
								<file id="ArmA 3 2020.11.29 - 00.00.59.12.DVR" />
								<filter>
									<effect>
										<name>Audio Levels</name>
										<effectid>audiolevels</effectid>
										<effectcategory>audiolevels</effectcategory>
										<effecttype>audiolevels</effecttype>
										<mediatype>audio</mediatype>
										<parameter>
											<name>Level</name>
											<parameterid>level</parameterid>
											<valuemin>0</valuemin>
											<valuemax>3,98109</valuemax>
											<value>1</value>
										</parameter>
									</effect>
								</filter>
								<filter>
									<effect>
										<name>Audio Pan</name>
										<effectid>audiopan</effectid>
										<effectcategory>audiopan</effectcategory>
										<effecttype>audiopan</effecttype>
										<mediatype>audio</mediatype>
										<parameter>
											<name>Pan</name>
											<parameterid>pan</parameterid>
											<valuemin>-1</valuemin>
											<valuemax>1</valuemax>
											<value>-1</value>
										</parameter>
									</effect>
								</filter>
								<sourcetrack>
									<mediatype>audio</mediatype>
									<trackindex>1</trackindex>
								</sourcetrack>
								<link>
									<linkclipref>ArmA 3 2020.11.29 - 00.00.59.12.DVR.mp4805307622</linkclipref>
								</link>
								<link>
									<linkclipref>ArmA 3 2020.11.29 - 00.00.59.12.DVR.mp4536872167</linkclipref>
								</link>
								<link>
									<linkclipref>ArmA 3 2020.11.29 - 00.00.59.12.DVR.mp45368721671</linkclipref>
								</link>
								<link>
									<linkclipref>ArmA 3 2020.11.29 - 00.00.59.12.DVR.mp4536872168</linkclipref>
								</link>
								<link>
									<linkclipref>ArmA 3 2020.11.29 - 00.00.59.12.DVR.mp45368721681</linkclipref>
								</link>
							</clipitem>
							<clipitem id="ArmA 3 2020.11.29 - 00.02.48.13.DVR.mp4536872171">
								<name>ArmA 3 2020.11.29 - 00.02.48.13.DVR.mp4</name>
								<duration>2602</duration>
								<rate>
									<ntsc>TRUE</ntsc>
									<timebase>24</timebase>
								</rate>
								<in>0</in>
								<out>2602</out>
								<start>12097</start>
								<end>14699</end>
								<enabled>FALSE</enabled>
								<masterclipid>ArmA 3 2020.11.29 - 00.02.48.13.DVR.mp4</masterclipid>
								<logginginfo>
									<scene />
									<shottake />
									<lognote />
									<good>FALSE</good>
								</logginginfo>
								<labels>
									<label2 />
								</labels>
								<comments>
									<mastercomment1 />
									<mastercomment2 />
									<mastercomment3 />
									<mastercomment4 />
								</comments>
								<file id="ArmA 3 2020.11.29 - 00.02.48.13.DVR" />
								<filter>
									<effect>
										<name>Audio Levels</name>
										<effectid>audiolevels</effectid>
										<effectcategory>audiolevels</effectcategory>
										<effecttype>audiolevels</effecttype>
										<mediatype>audio</mediatype>
										<parameter>
											<name>Level</name>
											<parameterid>level</parameterid>
											<valuemin>0</valuemin>
											<valuemax>3,98109</valuemax>
											<value>1</value>
										</parameter>
									</effect>
								</filter>
								<filter>
									<effect>
										<name>Audio Pan</name>
										<effectid>audiopan</effectid>
										<effectcategory>audiopan</effectcategory>
										<effecttype>audiopan</effecttype>
										<mediatype>audio</mediatype>
										<parameter>
											<name>Pan</name>
											<parameterid>pan</parameterid>
											<valuemin>-1</valuemin>
											<valuemax>1</valuemax>
											<value>-1</value>
										</parameter>
									</effect>
								</filter>
								<sourcetrack>
									<mediatype>audio</mediatype>
									<trackindex>1</trackindex>
								</sourcetrack>
								<link>
									<linkclipref>ArmA 3 2020.11.29 - 00.02.48.13.DVR.mp4805307625</linkclipref>
								</link>
								<link>
									<linkclipref>ArmA 3 2020.11.29 - 00.02.48.13.DVR.mp4536872170</linkclipref>
								</link>
								<link>
									<linkclipref>ArmA 3 2020.11.29 - 00.02.48.13.DVR.mp45368721701</linkclipref>
								</link>
								<link>
									<linkclipref>ArmA 3 2020.11.29 - 00.02.48.13.DVR.mp4536872171</linkclipref>
								</link>
								<link>
									<linkclipref>ArmA 3 2020.11.29 - 00.02.48.13.DVR.mp45368721711</linkclipref>
								</link>
							</clipitem>
						</track>
						<track>
							<clipitem id="ArmA 3 2020.11.28 - 23.52.07.02.mp45368721381">
								<name>ArmA 3 2020.11.28 - 23.52.07.02.mp4</name>
								<duration>444</duration>
								<rate>
									<ntsc>TRUE</ntsc>
									<timebase>24</timebase>
								</rate>
								<in>0</in>
								<out>444</out>
								<start>0</start>
								<end>444</end>
								<enabled>FALSE</enabled>
								<masterclipid>ArmA 3 2020.11.28 - 23.52.07.02.mp4</masterclipid>
								<logginginfo>
									<scene />
									<shottake />
									<lognote />
									<good>FALSE</good>
								</logginginfo>
								<labels>
									<label2 />
								</labels>
								<comments>
									<mastercomment1 />
									<mastercomment2 />
									<mastercomment3 />
									<mastercomment4 />
								</comments>
								<file id="ArmA 3 2020.11.28 - 23.52.07.02" />
								<filter>
									<effect>
										<name>Audio Levels</name>
										<effectid>audiolevels</effectid>
										<effectcategory>audiolevels</effectcategory>
										<effecttype>audiolevels</effecttype>
										<mediatype>audio</mediatype>
										<parameter>
											<name>Level</name>
											<parameterid>level</parameterid>
											<valuemin>0</valuemin>
											<valuemax>3,98109</valuemax>
											<value>1</value>
										</parameter>
									</effect>
								</filter>
								<filter>
									<effect>
										<name>Audio Pan</name>
										<effectid>audiopan</effectid>
										<effectcategory>audiopan</effectcategory>
										<effecttype>audiopan</effecttype>
										<mediatype>audio</mediatype>
										<parameter>
											<name>Pan</name>
											<parameterid>pan</parameterid>
											<valuemin>-1</valuemin>
											<valuemax>1</valuemax>
											<value>1</value>
										</parameter>
									</effect>
								</filter>
								<sourcetrack>
									<mediatype>audio</mediatype>
									<trackindex>2</trackindex>
								</sourcetrack>
								<link>
									<linkclipref>ArmA 3 2020.11.28 - 23.52.07.02.mp4805307592</linkclipref>
								</link>
								<link>
									<linkclipref>ArmA 3 2020.11.28 - 23.52.07.02.mp4536872137</linkclipref>
								</link>
								<link>
									<linkclipref>ArmA 3 2020.11.28 - 23.52.07.02.mp45368721371</linkclipref>
								</link>
								<link>
									<linkclipref>ArmA 3 2020.11.28 - 23.52.07.02.mp4536872138</linkclipref>
								</link>
								<link>
									<linkclipref>ArmA 3 2020.11.28 - 23.52.07.02.mp45368721381</linkclipref>
								</link>
							</clipitem>
							<clipitem id="ArmA 3 2020.11.28 - 23.53.40.03.mp45368721411">
								<name>ArmA 3 2020.11.28 - 23.53.40.03.mp4</name>
								<duration>314</duration>
								<rate>
									<ntsc>TRUE</ntsc>
									<timebase>24</timebase>
								</rate>
								<in>0</in>
								<out>314</out>
								<start>445</start>
								<end>759</end>
								<enabled>FALSE</enabled>
								<masterclipid>ArmA 3 2020.11.28 - 23.53.40.03.mp4</masterclipid>
								<logginginfo>
									<scene />
									<shottake />
									<lognote />
									<good>FALSE</good>
								</logginginfo>
								<labels>
									<label2 />
								</labels>
								<comments>
									<mastercomment1 />
									<mastercomment2 />
									<mastercomment3 />
									<mastercomment4 />
								</comments>
								<file id="ArmA 3 2020.11.28 - 23.53.40.03" />
								<filter>
									<effect>
										<name>Audio Levels</name>
										<effectid>audiolevels</effectid>
										<effectcategory>audiolevels</effectcategory>
										<effecttype>audiolevels</effecttype>
										<mediatype>audio</mediatype>
										<parameter>
											<name>Level</name>
											<parameterid>level</parameterid>
											<valuemin>0</valuemin>
											<valuemax>3,98109</valuemax>
											<value>1</value>
										</parameter>
									</effect>
								</filter>
								<filter>
									<effect>
										<name>Audio Pan</name>
										<effectid>audiopan</effectid>
										<effectcategory>audiopan</effectcategory>
										<effecttype>audiopan</effecttype>
										<mediatype>audio</mediatype>
										<parameter>
											<name>Pan</name>
											<parameterid>pan</parameterid>
											<valuemin>-1</valuemin>
											<valuemax>1</valuemax>
											<value>1</value>
										</parameter>
									</effect>
								</filter>
								<sourcetrack>
									<mediatype>audio</mediatype>
									<trackindex>2</trackindex>
								</sourcetrack>
								<link>
									<linkclipref>ArmA 3 2020.11.28 - 23.53.40.03.mp4805307595</linkclipref>
								</link>
								<link>
									<linkclipref>ArmA 3 2020.11.28 - 23.53.40.03.mp4536872140</linkclipref>
								</link>
								<link>
									<linkclipref>ArmA 3 2020.11.28 - 23.53.40.03.mp45368721401</linkclipref>
								</link>
								<link>
									<linkclipref>ArmA 3 2020.11.28 - 23.53.40.03.mp4536872141</linkclipref>
								</link>
								<link>
									<linkclipref>ArmA 3 2020.11.28 - 23.53.40.03.mp45368721411</linkclipref>
								</link>
							</clipitem>
							<clipitem id="ArmA 3 2020.11.28 - 23.54.55.04.mp45368721441">
								<name>ArmA 3 2020.11.28 - 23.54.55.04.mp4</name>
								<duration>644</duration>
								<rate>
									<ntsc>TRUE</ntsc>
									<timebase>24</timebase>
								</rate>
								<in>0</in>
								<out>644</out>
								<start>760</start>
								<end>1404</end>
								<enabled>FALSE</enabled>
								<masterclipid>ArmA 3 2020.11.28 - 23.54.55.04.mp4</masterclipid>
								<logginginfo>
									<scene />
									<shottake />
									<lognote />
									<good>FALSE</good>
								</logginginfo>
								<labels>
									<label2 />
								</labels>
								<comments>
									<mastercomment1 />
									<mastercomment2 />
									<mastercomment3 />
									<mastercomment4 />
								</comments>
								<file id="ArmA 3 2020.11.28 - 23.54.55.04" />
								<filter>
									<effect>
										<name>Audio Levels</name>
										<effectid>audiolevels</effectid>
										<effectcategory>audiolevels</effectcategory>
										<effecttype>audiolevels</effecttype>
										<mediatype>audio</mediatype>
										<parameter>
											<name>Level</name>
											<parameterid>level</parameterid>
											<valuemin>0</valuemin>
											<valuemax>3,98109</valuemax>
											<value>1</value>
										</parameter>
									</effect>
								</filter>
								<filter>
									<effect>
										<name>Audio Pan</name>
										<effectid>audiopan</effectid>
										<effectcategory>audiopan</effectcategory>
										<effecttype>audiopan</effecttype>
										<mediatype>audio</mediatype>
										<parameter>
											<name>Pan</name>
											<parameterid>pan</parameterid>
											<valuemin>-1</valuemin>
											<valuemax>1</valuemax>
											<value>1</value>
										</parameter>
									</effect>
								</filter>
								<sourcetrack>
									<mediatype>audio</mediatype>
									<trackindex>2</trackindex>
								</sourcetrack>
								<link>
									<linkclipref>ArmA 3 2020.11.28 - 23.54.55.04.mp4805307598</linkclipref>
								</link>
								<link>
									<linkclipref>ArmA 3 2020.11.28 - 23.54.55.04.mp4536872143</linkclipref>
								</link>
								<link>
									<linkclipref>ArmA 3 2020.11.28 - 23.54.55.04.mp45368721431</linkclipref>
								</link>
								<link>
									<linkclipref>ArmA 3 2020.11.28 - 23.54.55.04.mp4536872144</linkclipref>
								</link>
								<link>
									<linkclipref>ArmA 3 2020.11.28 - 23.54.55.04.mp45368721441</linkclipref>
								</link>
							</clipitem>
							<clipitem id="ArmA 3 2020.11.28 - 23.55.37.05.mp45368721471">
								<name>ArmA 3 2020.11.28 - 23.55.37.05.mp4</name>
								<duration>443</duration>
								<rate>
									<ntsc>TRUE</ntsc>
									<timebase>24</timebase>
								</rate>
								<in>0</in>
								<out>443</out>
								<start>1405</start>
								<end>1848</end>
								<enabled>FALSE</enabled>
								<masterclipid>ArmA 3 2020.11.28 - 23.55.37.05.mp4</masterclipid>
								<logginginfo>
									<scene />
									<shottake />
									<lognote />
									<good>FALSE</good>
								</logginginfo>
								<labels>
									<label2 />
								</labels>
								<comments>
									<mastercomment1 />
									<mastercomment2 />
									<mastercomment3 />
									<mastercomment4 />
								</comments>
								<file id="ArmA 3 2020.11.28 - 23.55.37.05" />
								<filter>
									<effect>
										<name>Audio Levels</name>
										<effectid>audiolevels</effectid>
										<effectcategory>audiolevels</effectcategory>
										<effecttype>audiolevels</effecttype>
										<mediatype>audio</mediatype>
										<parameter>
											<name>Level</name>
											<parameterid>level</parameterid>
											<valuemin>0</valuemin>
											<valuemax>3,98109</valuemax>
											<value>1</value>
										</parameter>
									</effect>
								</filter>
								<filter>
									<effect>
										<name>Audio Pan</name>
										<effectid>audiopan</effectid>
										<effectcategory>audiopan</effectcategory>
										<effecttype>audiopan</effecttype>
										<mediatype>audio</mediatype>
										<parameter>
											<name>Pan</name>
											<parameterid>pan</parameterid>
											<valuemin>-1</valuemin>
											<valuemax>1</valuemax>
											<value>1</value>
										</parameter>
									</effect>
								</filter>
								<sourcetrack>
									<mediatype>audio</mediatype>
									<trackindex>2</trackindex>
								</sourcetrack>
								<link>
									<linkclipref>ArmA 3 2020.11.28 - 23.55.37.05.mp4805307601</linkclipref>
								</link>
								<link>
									<linkclipref>ArmA 3 2020.11.28 - 23.55.37.05.mp4536872146</linkclipref>
								</link>
								<link>
									<linkclipref>ArmA 3 2020.11.28 - 23.55.37.05.mp45368721461</linkclipref>
								</link>
								<link>
									<linkclipref>ArmA 3 2020.11.28 - 23.55.37.05.mp4536872147</linkclipref>
								</link>
								<link>
									<linkclipref>ArmA 3 2020.11.28 - 23.55.37.05.mp45368721471</linkclipref>
								</link>
							</clipitem>
							<clipitem id="ArmA 3 2020.11.28 - 23.56.19.06.mp45368721501">
								<name>ArmA 3 2020.11.28 - 23.56.19.06.mp4</name>
								<duration>353</duration>
								<rate>
									<ntsc>TRUE</ntsc>
									<timebase>24</timebase>
								</rate>
								<in>0</in>
								<out>353</out>
								<start>1849</start>
								<end>2202</end>
								<enabled>FALSE</enabled>
								<masterclipid>ArmA 3 2020.11.28 - 23.56.19.06.mp4</masterclipid>
								<logginginfo>
									<scene />
									<shottake />
									<lognote />
									<good>FALSE</good>
								</logginginfo>
								<labels>
									<label2 />
								</labels>
								<comments>
									<mastercomment1 />
									<mastercomment2 />
									<mastercomment3 />
									<mastercomment4 />
								</comments>
								<file id="ArmA 3 2020.11.28 - 23.56.19.06" />
								<filter>
									<effect>
										<name>Audio Levels</name>
										<effectid>audiolevels</effectid>
										<effectcategory>audiolevels</effectcategory>
										<effecttype>audiolevels</effecttype>
										<mediatype>audio</mediatype>
										<parameter>
											<name>Level</name>
											<parameterid>level</parameterid>
											<valuemin>0</valuemin>
											<valuemax>3,98109</valuemax>
											<value>1</value>
										</parameter>
									</effect>
								</filter>
								<filter>
									<effect>
										<name>Audio Pan</name>
										<effectid>audiopan</effectid>
										<effectcategory>audiopan</effectcategory>
										<effecttype>audiopan</effecttype>
										<mediatype>audio</mediatype>
										<parameter>
											<name>Pan</name>
											<parameterid>pan</parameterid>
											<valuemin>-1</valuemin>
											<valuemax>1</valuemax>
											<value>1</value>
										</parameter>
									</effect>
								</filter>
								<sourcetrack>
									<mediatype>audio</mediatype>
									<trackindex>2</trackindex>
								</sourcetrack>
								<link>
									<linkclipref>ArmA 3 2020.11.28 - 23.56.19.06.mp4805307604</linkclipref>
								</link>
								<link>
									<linkclipref>ArmA 3 2020.11.28 - 23.56.19.06.mp4536872149</linkclipref>
								</link>
								<link>
									<linkclipref>ArmA 3 2020.11.28 - 23.56.19.06.mp45368721491</linkclipref>
								</link>
								<link>
									<linkclipref>ArmA 3 2020.11.28 - 23.56.19.06.mp4536872150</linkclipref>
								</link>
								<link>
									<linkclipref>ArmA 3 2020.11.28 - 23.56.19.06.mp45368721501</linkclipref>
								</link>
							</clipitem>
							<clipitem id="ArmA 3 2020.11.28 - 23.57.22.07.mp45368721531">
								<name>ArmA 3 2020.11.28 - 23.57.22.07.mp4</name>
								<duration>497</duration>
								<rate>
									<ntsc>TRUE</ntsc>
									<timebase>24</timebase>
								</rate>
								<in>0</in>
								<out>497</out>
								<start>2203</start>
								<end>2700</end>
								<enabled>FALSE</enabled>
								<masterclipid>ArmA 3 2020.11.28 - 23.57.22.07.mp4</masterclipid>
								<logginginfo>
									<scene />
									<shottake />
									<lognote />
									<good>FALSE</good>
								</logginginfo>
								<labels>
									<label2 />
								</labels>
								<comments>
									<mastercomment1 />
									<mastercomment2 />
									<mastercomment3 />
									<mastercomment4 />
								</comments>
								<file id="ArmA 3 2020.11.28 - 23.57.22.07" />
								<filter>
									<effect>
										<name>Audio Levels</name>
										<effectid>audiolevels</effectid>
										<effectcategory>audiolevels</effectcategory>
										<effecttype>audiolevels</effecttype>
										<mediatype>audio</mediatype>
										<parameter>
											<name>Level</name>
											<parameterid>level</parameterid>
											<valuemin>0</valuemin>
											<valuemax>3,98109</valuemax>
											<value>1</value>
										</parameter>
									</effect>
								</filter>
								<filter>
									<effect>
										<name>Audio Pan</name>
										<effectid>audiopan</effectid>
										<effectcategory>audiopan</effectcategory>
										<effecttype>audiopan</effecttype>
										<mediatype>audio</mediatype>
										<parameter>
											<name>Pan</name>
											<parameterid>pan</parameterid>
											<valuemin>-1</valuemin>
											<valuemax>1</valuemax>
											<value>1</value>
										</parameter>
									</effect>
								</filter>
								<sourcetrack>
									<mediatype>audio</mediatype>
									<trackindex>2</trackindex>
								</sourcetrack>
								<link>
									<linkclipref>ArmA 3 2020.11.28 - 23.57.22.07.mp4805307607</linkclipref>
								</link>
								<link>
									<linkclipref>ArmA 3 2020.11.28 - 23.57.22.07.mp4536872152</linkclipref>
								</link>
								<link>
									<linkclipref>ArmA 3 2020.11.28 - 23.57.22.07.mp45368721521</linkclipref>
								</link>
								<link>
									<linkclipref>ArmA 3 2020.11.28 - 23.57.22.07.mp4536872153</linkclipref>
								</link>
								<link>
									<linkclipref>ArmA 3 2020.11.28 - 23.57.22.07.mp45368721531</linkclipref>
								</link>
							</clipitem>
							<clipitem id="ArmA 3 2020.11.28 - 23.57.55.08.mp45368721561">
								<name>ArmA 3 2020.11.28 - 23.57.55.08.mp4</name>
								<duration>541</duration>
								<rate>
									<ntsc>TRUE</ntsc>
									<timebase>24</timebase>
								</rate>
								<in>0</in>
								<out>541</out>
								<start>2701</start>
								<end>3242</end>
								<enabled>FALSE</enabled>
								<masterclipid>ArmA 3 2020.11.28 - 23.57.55.08.mp4</masterclipid>
								<logginginfo>
									<scene />
									<shottake />
									<lognote />
									<good>FALSE</good>
								</logginginfo>
								<labels>
									<label2 />
								</labels>
								<comments>
									<mastercomment1 />
									<mastercomment2 />
									<mastercomment3 />
									<mastercomment4 />
								</comments>
								<file id="ArmA 3 2020.11.28 - 23.57.55.08" />
								<filter>
									<effect>
										<name>Audio Levels</name>
										<effectid>audiolevels</effectid>
										<effectcategory>audiolevels</effectcategory>
										<effecttype>audiolevels</effecttype>
										<mediatype>audio</mediatype>
										<parameter>
											<name>Level</name>
											<parameterid>level</parameterid>
											<valuemin>0</valuemin>
											<valuemax>3,98109</valuemax>
											<value>1</value>
										</parameter>
									</effect>
								</filter>
								<filter>
									<effect>
										<name>Audio Pan</name>
										<effectid>audiopan</effectid>
										<effectcategory>audiopan</effectcategory>
										<effecttype>audiopan</effecttype>
										<mediatype>audio</mediatype>
										<parameter>
											<name>Pan</name>
											<parameterid>pan</parameterid>
											<valuemin>-1</valuemin>
											<valuemax>1</valuemax>
											<value>1</value>
										</parameter>
									</effect>
								</filter>
								<sourcetrack>
									<mediatype>audio</mediatype>
									<trackindex>2</trackindex>
								</sourcetrack>
								<link>
									<linkclipref>ArmA 3 2020.11.28 - 23.57.55.08.mp4805307610</linkclipref>
								</link>
								<link>
									<linkclipref>ArmA 3 2020.11.28 - 23.57.55.08.mp4536872155</linkclipref>
								</link>
								<link>
									<linkclipref>ArmA 3 2020.11.28 - 23.57.55.08.mp45368721551</linkclipref>
								</link>
								<link>
									<linkclipref>ArmA 3 2020.11.28 - 23.57.55.08.mp4536872156</linkclipref>
								</link>
								<link>
									<linkclipref>ArmA 3 2020.11.28 - 23.57.55.08.mp45368721561</linkclipref>
								</link>
							</clipitem>
							<clipitem id="ArmA 3 2020.11.28 - 23.58.28.09.mp45368721591">
								<name>ArmA 3 2020.11.28 - 23.58.28.09.mp4</name>
								<duration>633</duration>
								<rate>
									<ntsc>TRUE</ntsc>
									<timebase>24</timebase>
								</rate>
								<in>0</in>
								<out>633</out>
								<start>3243</start>
								<end>3876</end>
								<enabled>FALSE</enabled>
								<masterclipid>ArmA 3 2020.11.28 - 23.58.28.09.mp4</masterclipid>
								<logginginfo>
									<scene />
									<shottake />
									<lognote />
									<good>FALSE</good>
								</logginginfo>
								<labels>
									<label2 />
								</labels>
								<comments>
									<mastercomment1 />
									<mastercomment2 />
									<mastercomment3 />
									<mastercomment4 />
								</comments>
								<file id="ArmA 3 2020.11.28 - 23.58.28.09" />
								<filter>
									<effect>
										<name>Audio Levels</name>
										<effectid>audiolevels</effectid>
										<effectcategory>audiolevels</effectcategory>
										<effecttype>audiolevels</effecttype>
										<mediatype>audio</mediatype>
										<parameter>
											<name>Level</name>
											<parameterid>level</parameterid>
											<valuemin>0</valuemin>
											<valuemax>3,98109</valuemax>
											<value>1</value>
										</parameter>
									</effect>
								</filter>
								<filter>
									<effect>
										<name>Audio Pan</name>
										<effectid>audiopan</effectid>
										<effectcategory>audiopan</effectcategory>
										<effecttype>audiopan</effecttype>
										<mediatype>audio</mediatype>
										<parameter>
											<name>Pan</name>
											<parameterid>pan</parameterid>
											<valuemin>-1</valuemin>
											<valuemax>1</valuemax>
											<value>1</value>
										</parameter>
									</effect>
								</filter>
								<sourcetrack>
									<mediatype>audio</mediatype>
									<trackindex>2</trackindex>
								</sourcetrack>
								<link>
									<linkclipref>ArmA 3 2020.11.28 - 23.58.28.09.mp4805307613</linkclipref>
								</link>
								<link>
									<linkclipref>ArmA 3 2020.11.28 - 23.58.28.09.mp4536872158</linkclipref>
								</link>
								<link>
									<linkclipref>ArmA 3 2020.11.28 - 23.58.28.09.mp45368721581</linkclipref>
								</link>
								<link>
									<linkclipref>ArmA 3 2020.11.28 - 23.58.28.09.mp4536872159</linkclipref>
								</link>
								<link>
									<linkclipref>ArmA 3 2020.11.28 - 23.58.28.09.mp45368721591</linkclipref>
								</link>
							</clipitem>
							<clipitem id="ArmA 3 2020.11.28 - 23.59.09.10.mp45368721621">
								<name>ArmA 3 2020.11.28 - 23.59.09.10.mp4</name>
								<duration>635</duration>
								<rate>
									<ntsc>TRUE</ntsc>
									<timebase>24</timebase>
								</rate>
								<in>0</in>
								<out>635</out>
								<start>3877</start>
								<end>4512</end>
								<enabled>FALSE</enabled>
								<masterclipid>ArmA 3 2020.11.28 - 23.59.09.10.mp4</masterclipid>
								<logginginfo>
									<scene />
									<shottake />
									<lognote />
									<good>FALSE</good>
								</logginginfo>
								<labels>
									<label2 />
								</labels>
								<comments>
									<mastercomment1 />
									<mastercomment2 />
									<mastercomment3 />
									<mastercomment4 />
								</comments>
								<file id="ArmA 3 2020.11.28 - 23.59.09.10" />
								<filter>
									<effect>
										<name>Audio Levels</name>
										<effectid>audiolevels</effectid>
										<effectcategory>audiolevels</effectcategory>
										<effecttype>audiolevels</effecttype>
										<mediatype>audio</mediatype>
										<parameter>
											<name>Level</name>
											<parameterid>level</parameterid>
											<valuemin>0</valuemin>
											<valuemax>3,98109</valuemax>
											<value>1</value>
										</parameter>
									</effect>
								</filter>
								<filter>
									<effect>
										<name>Audio Pan</name>
										<effectid>audiopan</effectid>
										<effectcategory>audiopan</effectcategory>
										<effecttype>audiopan</effecttype>
										<mediatype>audio</mediatype>
										<parameter>
											<name>Pan</name>
											<parameterid>pan</parameterid>
											<valuemin>-1</valuemin>
											<valuemax>1</valuemax>
											<value>1</value>
										</parameter>
									</effect>
								</filter>
								<sourcetrack>
									<mediatype>audio</mediatype>
									<trackindex>2</trackindex>
								</sourcetrack>
								<link>
									<linkclipref>ArmA 3 2020.11.28 - 23.59.09.10.mp4805307616</linkclipref>
								</link>
								<link>
									<linkclipref>ArmA 3 2020.11.28 - 23.59.09.10.mp4536872161</linkclipref>
								</link>
								<link>
									<linkclipref>ArmA 3 2020.11.28 - 23.59.09.10.mp45368721611</linkclipref>
								</link>
								<link>
									<linkclipref>ArmA 3 2020.11.28 - 23.59.09.10.mp4536872162</linkclipref>
								</link>
								<link>
									<linkclipref>ArmA 3 2020.11.28 - 23.59.09.10.mp45368721621</linkclipref>
								</link>
							</clipitem>
							<clipitem id="ArmA 3 2020.11.28 - 23.59.49.11.mp45368721651">
								<name>ArmA 3 2020.11.28 - 23.59.49.11.mp4</name>
								<duration>384</duration>
								<rate>
									<ntsc>TRUE</ntsc>
									<timebase>24</timebase>
								</rate>
								<in>0</in>
								<out>384</out>
								<start>4513</start>
								<end>4897</end>
								<enabled>FALSE</enabled>
								<masterclipid>ArmA 3 2020.11.28 - 23.59.49.11.mp4</masterclipid>
								<logginginfo>
									<scene />
									<shottake />
									<lognote />
									<good>FALSE</good>
								</logginginfo>
								<labels>
									<label2 />
								</labels>
								<comments>
									<mastercomment1 />
									<mastercomment2 />
									<mastercomment3 />
									<mastercomment4 />
								</comments>
								<file id="ArmA 3 2020.11.28 - 23.59.49.11" />
								<filter>
									<effect>
										<name>Audio Levels</name>
										<effectid>audiolevels</effectid>
										<effectcategory>audiolevels</effectcategory>
										<effecttype>audiolevels</effecttype>
										<mediatype>audio</mediatype>
										<parameter>
											<name>Level</name>
											<parameterid>level</parameterid>
											<valuemin>0</valuemin>
											<valuemax>3,98109</valuemax>
											<value>1</value>
										</parameter>
									</effect>
								</filter>
								<filter>
									<effect>
										<name>Audio Pan</name>
										<effectid>audiopan</effectid>
										<effectcategory>audiopan</effectcategory>
										<effecttype>audiopan</effecttype>
										<mediatype>audio</mediatype>
										<parameter>
											<name>Pan</name>
											<parameterid>pan</parameterid>
											<valuemin>-1</valuemin>
											<valuemax>1</valuemax>
											<value>1</value>
										</parameter>
									</effect>
								</filter>
								<sourcetrack>
									<mediatype>audio</mediatype>
									<trackindex>2</trackindex>
								</sourcetrack>
								<link>
									<linkclipref>ArmA 3 2020.11.28 - 23.59.49.11.mp4805307619</linkclipref>
								</link>
								<link>
									<linkclipref>ArmA 3 2020.11.28 - 23.59.49.11.mp4536872164</linkclipref>
								</link>
								<link>
									<linkclipref>ArmA 3 2020.11.28 - 23.59.49.11.mp45368721641</linkclipref>
								</link>
								<link>
									<linkclipref>ArmA 3 2020.11.28 - 23.59.49.11.mp4536872165</linkclipref>
								</link>
								<link>
									<linkclipref>ArmA 3 2020.11.28 - 23.59.49.11.mp45368721651</linkclipref>
								</link>
							</clipitem>
							<clipitem id="ArmA 3 2020.11.29 - 00.00.59.12.DVR.mp45368721681">
								<name>ArmA 3 2020.11.29 - 00.00.59.12.DVR.mp4</name>
								<duration>7198</duration>
								<rate>
									<ntsc>TRUE</ntsc>
									<timebase>24</timebase>
								</rate>
								<in>0</in>
								<out>7198</out>
								<start>4898</start>
								<end>12096</end>
								<enabled>FALSE</enabled>
								<masterclipid>ArmA 3 2020.11.29 - 00.00.59.12.DVR.mp4</masterclipid>
								<logginginfo>
									<scene />
									<shottake />
									<lognote />
									<good>FALSE</good>
								</logginginfo>
								<labels>
									<label2 />
								</labels>
								<comments>
									<mastercomment1 />
									<mastercomment2 />
									<mastercomment3 />
									<mastercomment4 />
								</comments>
								<file id="ArmA 3 2020.11.29 - 00.00.59.12.DVR" />
								<filter>
									<effect>
										<name>Audio Levels</name>
										<effectid>audiolevels</effectid>
										<effectcategory>audiolevels</effectcategory>
										<effecttype>audiolevels</effecttype>
										<mediatype>audio</mediatype>
										<parameter>
											<name>Level</name>
											<parameterid>level</parameterid>
											<valuemin>0</valuemin>
											<valuemax>3,98109</valuemax>
											<value>1</value>
										</parameter>
									</effect>
								</filter>
								<filter>
									<effect>
										<name>Audio Pan</name>
										<effectid>audiopan</effectid>
										<effectcategory>audiopan</effectcategory>
										<effecttype>audiopan</effecttype>
										<mediatype>audio</mediatype>
										<parameter>
											<name>Pan</name>
											<parameterid>pan</parameterid>
											<valuemin>-1</valuemin>
											<valuemax>1</valuemax>
											<value>1</value>
										</parameter>
									</effect>
								</filter>
								<sourcetrack>
									<mediatype>audio</mediatype>
									<trackindex>2</trackindex>
								</sourcetrack>
								<link>
									<linkclipref>ArmA 3 2020.11.29 - 00.00.59.12.DVR.mp4805307622</linkclipref>
								</link>
								<link>
									<linkclipref>ArmA 3 2020.11.29 - 00.00.59.12.DVR.mp4536872167</linkclipref>
								</link>
								<link>
									<linkclipref>ArmA 3 2020.11.29 - 00.00.59.12.DVR.mp45368721671</linkclipref>
								</link>
								<link>
									<linkclipref>ArmA 3 2020.11.29 - 00.00.59.12.DVR.mp4536872168</linkclipref>
								</link>
								<link>
									<linkclipref>ArmA 3 2020.11.29 - 00.00.59.12.DVR.mp45368721681</linkclipref>
								</link>
							</clipitem>
							<clipitem id="ArmA 3 2020.11.29 - 00.02.48.13.DVR.mp45368721711">
								<name>ArmA 3 2020.11.29 - 00.02.48.13.DVR.mp4</name>
								<duration>2602</duration>
								<rate>
									<ntsc>TRUE</ntsc>
									<timebase>24</timebase>
								</rate>
								<in>0</in>
								<out>2602</out>
								<start>12097</start>
								<end>14699</end>
								<enabled>FALSE</enabled>
								<masterclipid>ArmA 3 2020.11.29 - 00.02.48.13.DVR.mp4</masterclipid>
								<logginginfo>
									<scene />
									<shottake />
									<lognote />
									<good>FALSE</good>
								</logginginfo>
								<labels>
									<label2 />
								</labels>
								<comments>
									<mastercomment1 />
									<mastercomment2 />
									<mastercomment3 />
									<mastercomment4 />
								</comments>
								<file id="ArmA 3 2020.11.29 - 00.02.48.13.DVR" />
								<filter>
									<effect>
										<name>Audio Levels</name>
										<effectid>audiolevels</effectid>
										<effectcategory>audiolevels</effectcategory>
										<effecttype>audiolevels</effecttype>
										<mediatype>audio</mediatype>
										<parameter>
											<name>Level</name>
											<parameterid>level</parameterid>
											<valuemin>0</valuemin>
											<valuemax>3,98109</valuemax>
											<value>1</value>
										</parameter>
									</effect>
								</filter>
								<filter>
									<effect>
										<name>Audio Pan</name>
										<effectid>audiopan</effectid>
										<effectcategory>audiopan</effectcategory>
										<effecttype>audiopan</effecttype>
										<mediatype>audio</mediatype>
										<parameter>
											<name>Pan</name>
											<parameterid>pan</parameterid>
											<valuemin>-1</valuemin>
											<valuemax>1</valuemax>
											<value>1</value>
										</parameter>
									</effect>
								</filter>
								<sourcetrack>
									<mediatype>audio</mediatype>
									<trackindex>2</trackindex>
								</sourcetrack>
								<link>
									<linkclipref>ArmA 3 2020.11.29 - 00.02.48.13.DVR.mp4805307625</linkclipref>
								</link>
								<link>
									<linkclipref>ArmA 3 2020.11.29 - 00.02.48.13.DVR.mp4536872170</linkclipref>
								</link>
								<link>
									<linkclipref>ArmA 3 2020.11.29 - 00.02.48.13.DVR.mp45368721701</linkclipref>
								</link>
								<link>
									<linkclipref>ArmA 3 2020.11.29 - 00.02.48.13.DVR.mp4536872171</linkclipref>
								</link>
								<link>
									<linkclipref>ArmA 3 2020.11.29 - 00.02.48.13.DVR.mp45368721711</linkclipref>
								</link>
							</clipitem>
						</track>
						<track>
							<clipitem id="ArmA 3 2020.11.28 - 23.52.07.02.mp4536872137">
								<name>ArmA 3 2020.11.28 - 23.52.07.02.mp4</name>
								<duration>444</duration>
								<rate>
									<ntsc>TRUE</ntsc>
									<timebase>24</timebase>
								</rate>
								<in>0</in>
								<out>444</out>
								<start>0</start>
								<end>444</end>
								<enabled>FALSE</enabled>
								<masterclipid>ArmA 3 2020.11.28 - 23.52.07.02.mp4</masterclipid>
								<logginginfo>
									<scene />
									<shottake />
									<lognote />
									<good>FALSE</good>
								</logginginfo>
								<labels>
									<label2 />
								</labels>
								<comments>
									<mastercomment1 />
									<mastercomment2 />
									<mastercomment3 />
									<mastercomment4 />
								</comments>
								<file id="ArmA 3 2020.11.28 - 23.52.07.02" />
								<filter>
									<effect>
										<name>Audio Levels</name>
										<effectid>audiolevels</effectid>
										<effectcategory>audiolevels</effectcategory>
										<effecttype>audiolevels</effecttype>
										<mediatype>audio</mediatype>
										<parameter>
											<name>Level</name>
											<parameterid>level</parameterid>
											<valuemin>0</valuemin>
											<valuemax>3,98109</valuemax>
											<value>1</value>
										</parameter>
									</effect>
								</filter>
								<filter>
									<effect>
										<name>Audio Pan</name>
										<effectid>audiopan</effectid>
										<effectcategory>audiopan</effectcategory>
										<effecttype>audiopan</effecttype>
										<mediatype>audio</mediatype>
										<parameter>
											<name>Pan</name>
											<parameterid>pan</parameterid>
											<valuemin>-1</valuemin>
											<valuemax>1</valuemax>
											<value>-1</value>
										</parameter>
									</effect>
								</filter>
								<sourcetrack>
									<mediatype>audio</mediatype>
									<trackindex>1</trackindex>
								</sourcetrack>
								<link>
									<linkclipref>ArmA 3 2020.11.28 - 23.52.07.02.mp4805307592</linkclipref>
								</link>
								<link>
									<linkclipref>ArmA 3 2020.11.28 - 23.52.07.02.mp4536872137</linkclipref>
								</link>
								<link>
									<linkclipref>ArmA 3 2020.11.28 - 23.52.07.02.mp45368721371</linkclipref>
								</link>
								<link>
									<linkclipref>ArmA 3 2020.11.28 - 23.52.07.02.mp4536872138</linkclipref>
								</link>
								<link>
									<linkclipref>ArmA 3 2020.11.28 - 23.52.07.02.mp45368721381</linkclipref>
								</link>
							</clipitem>
							<clipitem id="ArmA 3 2020.11.28 - 23.53.40.03.mp4536872140">
								<name>ArmA 3 2020.11.28 - 23.53.40.03.mp4</name>
								<duration>314</duration>
								<rate>
									<ntsc>TRUE</ntsc>
									<timebase>24</timebase>
								</rate>
								<in>0</in>
								<out>314</out>
								<start>445</start>
								<end>759</end>
								<enabled>FALSE</enabled>
								<masterclipid>ArmA 3 2020.11.28 - 23.53.40.03.mp4</masterclipid>
								<logginginfo>
									<scene />
									<shottake />
									<lognote />
									<good>FALSE</good>
								</logginginfo>
								<labels>
									<label2 />
								</labels>
								<comments>
									<mastercomment1 />
									<mastercomment2 />
									<mastercomment3 />
									<mastercomment4 />
								</comments>
								<file id="ArmA 3 2020.11.28 - 23.53.40.03" />
								<filter>
									<effect>
										<name>Audio Levels</name>
										<effectid>audiolevels</effectid>
										<effectcategory>audiolevels</effectcategory>
										<effecttype>audiolevels</effecttype>
										<mediatype>audio</mediatype>
										<parameter>
											<name>Level</name>
											<parameterid>level</parameterid>
											<valuemin>0</valuemin>
											<valuemax>3,98109</valuemax>
											<value>1</value>
										</parameter>
									</effect>
								</filter>
								<filter>
									<effect>
										<name>Audio Pan</name>
										<effectid>audiopan</effectid>
										<effectcategory>audiopan</effectcategory>
										<effecttype>audiopan</effecttype>
										<mediatype>audio</mediatype>
										<parameter>
											<name>Pan</name>
											<parameterid>pan</parameterid>
											<valuemin>-1</valuemin>
											<valuemax>1</valuemax>
											<value>-1</value>
										</parameter>
									</effect>
								</filter>
								<sourcetrack>
									<mediatype>audio</mediatype>
									<trackindex>1</trackindex>
								</sourcetrack>
								<link>
									<linkclipref>ArmA 3 2020.11.28 - 23.53.40.03.mp4805307595</linkclipref>
								</link>
								<link>
									<linkclipref>ArmA 3 2020.11.28 - 23.53.40.03.mp4536872140</linkclipref>
								</link>
								<link>
									<linkclipref>ArmA 3 2020.11.28 - 23.53.40.03.mp45368721401</linkclipref>
								</link>
								<link>
									<linkclipref>ArmA 3 2020.11.28 - 23.53.40.03.mp4536872141</linkclipref>
								</link>
								<link>
									<linkclipref>ArmA 3 2020.11.28 - 23.53.40.03.mp45368721411</linkclipref>
								</link>
							</clipitem>
							<clipitem id="ArmA 3 2020.11.28 - 23.54.55.04.mp4536872143">
								<name>ArmA 3 2020.11.28 - 23.54.55.04.mp4</name>
								<duration>644</duration>
								<rate>
									<ntsc>TRUE</ntsc>
									<timebase>24</timebase>
								</rate>
								<in>0</in>
								<out>644</out>
								<start>760</start>
								<end>1404</end>
								<enabled>FALSE</enabled>
								<masterclipid>ArmA 3 2020.11.28 - 23.54.55.04.mp4</masterclipid>
								<logginginfo>
									<scene />
									<shottake />
									<lognote />
									<good>FALSE</good>
								</logginginfo>
								<labels>
									<label2 />
								</labels>
								<comments>
									<mastercomment1 />
									<mastercomment2 />
									<mastercomment3 />
									<mastercomment4 />
								</comments>
								<file id="ArmA 3 2020.11.28 - 23.54.55.04" />
								<filter>
									<effect>
										<name>Audio Levels</name>
										<effectid>audiolevels</effectid>
										<effectcategory>audiolevels</effectcategory>
										<effecttype>audiolevels</effecttype>
										<mediatype>audio</mediatype>
										<parameter>
											<name>Level</name>
											<parameterid>level</parameterid>
											<valuemin>0</valuemin>
											<valuemax>3,98109</valuemax>
											<value>1</value>
										</parameter>
									</effect>
								</filter>
								<filter>
									<effect>
										<name>Audio Pan</name>
										<effectid>audiopan</effectid>
										<effectcategory>audiopan</effectcategory>
										<effecttype>audiopan</effecttype>
										<mediatype>audio</mediatype>
										<parameter>
											<name>Pan</name>
											<parameterid>pan</parameterid>
											<valuemin>-1</valuemin>
											<valuemax>1</valuemax>
											<value>-1</value>
										</parameter>
									</effect>
								</filter>
								<sourcetrack>
									<mediatype>audio</mediatype>
									<trackindex>1</trackindex>
								</sourcetrack>
								<link>
									<linkclipref>ArmA 3 2020.11.28 - 23.54.55.04.mp4805307598</linkclipref>
								</link>
								<link>
									<linkclipref>ArmA 3 2020.11.28 - 23.54.55.04.mp4536872143</linkclipref>
								</link>
								<link>
									<linkclipref>ArmA 3 2020.11.28 - 23.54.55.04.mp45368721431</linkclipref>
								</link>
								<link>
									<linkclipref>ArmA 3 2020.11.28 - 23.54.55.04.mp4536872144</linkclipref>
								</link>
								<link>
									<linkclipref>ArmA 3 2020.11.28 - 23.54.55.04.mp45368721441</linkclipref>
								</link>
							</clipitem>
							<clipitem id="ArmA 3 2020.11.28 - 23.55.37.05.mp4536872146">
								<name>ArmA 3 2020.11.28 - 23.55.37.05.mp4</name>
								<duration>443</duration>
								<rate>
									<ntsc>TRUE</ntsc>
									<timebase>24</timebase>
								</rate>
								<in>0</in>
								<out>443</out>
								<start>1405</start>
								<end>1848</end>
								<enabled>FALSE</enabled>
								<masterclipid>ArmA 3 2020.11.28 - 23.55.37.05.mp4</masterclipid>
								<logginginfo>
									<scene />
									<shottake />
									<lognote />
									<good>FALSE</good>
								</logginginfo>
								<labels>
									<label2 />
								</labels>
								<comments>
									<mastercomment1 />
									<mastercomment2 />
									<mastercomment3 />
									<mastercomment4 />
								</comments>
								<file id="ArmA 3 2020.11.28 - 23.55.37.05" />
								<filter>
									<effect>
										<name>Audio Levels</name>
										<effectid>audiolevels</effectid>
										<effectcategory>audiolevels</effectcategory>
										<effecttype>audiolevels</effecttype>
										<mediatype>audio</mediatype>
										<parameter>
											<name>Level</name>
											<parameterid>level</parameterid>
											<valuemin>0</valuemin>
											<valuemax>3,98109</valuemax>
											<value>1</value>
										</parameter>
									</effect>
								</filter>
								<filter>
									<effect>
										<name>Audio Pan</name>
										<effectid>audiopan</effectid>
										<effectcategory>audiopan</effectcategory>
										<effecttype>audiopan</effecttype>
										<mediatype>audio</mediatype>
										<parameter>
											<name>Pan</name>
											<parameterid>pan</parameterid>
											<valuemin>-1</valuemin>
											<valuemax>1</valuemax>
											<value>-1</value>
										</parameter>
									</effect>
								</filter>
								<sourcetrack>
									<mediatype>audio</mediatype>
									<trackindex>1</trackindex>
								</sourcetrack>
								<link>
									<linkclipref>ArmA 3 2020.11.28 - 23.55.37.05.mp4805307601</linkclipref>
								</link>
								<link>
									<linkclipref>ArmA 3 2020.11.28 - 23.55.37.05.mp4536872146</linkclipref>
								</link>
								<link>
									<linkclipref>ArmA 3 2020.11.28 - 23.55.37.05.mp45368721461</linkclipref>
								</link>
								<link>
									<linkclipref>ArmA 3 2020.11.28 - 23.55.37.05.mp4536872147</linkclipref>
								</link>
								<link>
									<linkclipref>ArmA 3 2020.11.28 - 23.55.37.05.mp45368721471</linkclipref>
								</link>
							</clipitem>
							<clipitem id="ArmA 3 2020.11.28 - 23.56.19.06.mp4536872149">
								<name>ArmA 3 2020.11.28 - 23.56.19.06.mp4</name>
								<duration>353</duration>
								<rate>
									<ntsc>TRUE</ntsc>
									<timebase>24</timebase>
								</rate>
								<in>0</in>
								<out>353</out>
								<start>1849</start>
								<end>2202</end>
								<enabled>FALSE</enabled>
								<masterclipid>ArmA 3 2020.11.28 - 23.56.19.06.mp4</masterclipid>
								<logginginfo>
									<scene />
									<shottake />
									<lognote />
									<good>FALSE</good>
								</logginginfo>
								<labels>
									<label2 />
								</labels>
								<comments>
									<mastercomment1 />
									<mastercomment2 />
									<mastercomment3 />
									<mastercomment4 />
								</comments>
								<file id="ArmA 3 2020.11.28 - 23.56.19.06" />
								<filter>
									<effect>
										<name>Audio Levels</name>
										<effectid>audiolevels</effectid>
										<effectcategory>audiolevels</effectcategory>
										<effecttype>audiolevels</effecttype>
										<mediatype>audio</mediatype>
										<parameter>
											<name>Level</name>
											<parameterid>level</parameterid>
											<valuemin>0</valuemin>
											<valuemax>3,98109</valuemax>
											<value>1</value>
										</parameter>
									</effect>
								</filter>
								<filter>
									<effect>
										<name>Audio Pan</name>
										<effectid>audiopan</effectid>
										<effectcategory>audiopan</effectcategory>
										<effecttype>audiopan</effecttype>
										<mediatype>audio</mediatype>
										<parameter>
											<name>Pan</name>
											<parameterid>pan</parameterid>
											<valuemin>-1</valuemin>
											<valuemax>1</valuemax>
											<value>-1</value>
										</parameter>
									</effect>
								</filter>
								<sourcetrack>
									<mediatype>audio</mediatype>
									<trackindex>1</trackindex>
								</sourcetrack>
								<link>
									<linkclipref>ArmA 3 2020.11.28 - 23.56.19.06.mp4805307604</linkclipref>
								</link>
								<link>
									<linkclipref>ArmA 3 2020.11.28 - 23.56.19.06.mp4536872149</linkclipref>
								</link>
								<link>
									<linkclipref>ArmA 3 2020.11.28 - 23.56.19.06.mp45368721491</linkclipref>
								</link>
								<link>
									<linkclipref>ArmA 3 2020.11.28 - 23.56.19.06.mp4536872150</linkclipref>
								</link>
								<link>
									<linkclipref>ArmA 3 2020.11.28 - 23.56.19.06.mp45368721501</linkclipref>
								</link>
							</clipitem>
							<clipitem id="ArmA 3 2020.11.28 - 23.57.22.07.mp4536872152">
								<name>ArmA 3 2020.11.28 - 23.57.22.07.mp4</name>
								<duration>497</duration>
								<rate>
									<ntsc>TRUE</ntsc>
									<timebase>24</timebase>
								</rate>
								<in>0</in>
								<out>497</out>
								<start>2203</start>
								<end>2700</end>
								<enabled>FALSE</enabled>
								<masterclipid>ArmA 3 2020.11.28 - 23.57.22.07.mp4</masterclipid>
								<logginginfo>
									<scene />
									<shottake />
									<lognote />
									<good>FALSE</good>
								</logginginfo>
								<labels>
									<label2 />
								</labels>
								<comments>
									<mastercomment1 />
									<mastercomment2 />
									<mastercomment3 />
									<mastercomment4 />
								</comments>
								<file id="ArmA 3 2020.11.28 - 23.57.22.07" />
								<filter>
									<effect>
										<name>Audio Levels</name>
										<effectid>audiolevels</effectid>
										<effectcategory>audiolevels</effectcategory>
										<effecttype>audiolevels</effecttype>
										<mediatype>audio</mediatype>
										<parameter>
											<name>Level</name>
											<parameterid>level</parameterid>
											<valuemin>0</valuemin>
											<valuemax>3,98109</valuemax>
											<value>1</value>
										</parameter>
									</effect>
								</filter>
								<filter>
									<effect>
										<name>Audio Pan</name>
										<effectid>audiopan</effectid>
										<effectcategory>audiopan</effectcategory>
										<effecttype>audiopan</effecttype>
										<mediatype>audio</mediatype>
										<parameter>
											<name>Pan</name>
											<parameterid>pan</parameterid>
											<valuemin>-1</valuemin>
											<valuemax>1</valuemax>
											<value>-1</value>
										</parameter>
									</effect>
								</filter>
								<sourcetrack>
									<mediatype>audio</mediatype>
									<trackindex>1</trackindex>
								</sourcetrack>
								<link>
									<linkclipref>ArmA 3 2020.11.28 - 23.57.22.07.mp4805307607</linkclipref>
								</link>
								<link>
									<linkclipref>ArmA 3 2020.11.28 - 23.57.22.07.mp4536872152</linkclipref>
								</link>
								<link>
									<linkclipref>ArmA 3 2020.11.28 - 23.57.22.07.mp45368721521</linkclipref>
								</link>
								<link>
									<linkclipref>ArmA 3 2020.11.28 - 23.57.22.07.mp4536872153</linkclipref>
								</link>
								<link>
									<linkclipref>ArmA 3 2020.11.28 - 23.57.22.07.mp45368721531</linkclipref>
								</link>
							</clipitem>
							<clipitem id="ArmA 3 2020.11.28 - 23.57.55.08.mp4536872155">
								<name>ArmA 3 2020.11.28 - 23.57.55.08.mp4</name>
								<duration>541</duration>
								<rate>
									<ntsc>TRUE</ntsc>
									<timebase>24</timebase>
								</rate>
								<in>0</in>
								<out>541</out>
								<start>2701</start>
								<end>3242</end>
								<enabled>FALSE</enabled>
								<masterclipid>ArmA 3 2020.11.28 - 23.57.55.08.mp4</masterclipid>
								<logginginfo>
									<scene />
									<shottake />
									<lognote />
									<good>FALSE</good>
								</logginginfo>
								<labels>
									<label2 />
								</labels>
								<comments>
									<mastercomment1 />
									<mastercomment2 />
									<mastercomment3 />
									<mastercomment4 />
								</comments>
								<file id="ArmA 3 2020.11.28 - 23.57.55.08" />
								<filter>
									<effect>
										<name>Audio Levels</name>
										<effectid>audiolevels</effectid>
										<effectcategory>audiolevels</effectcategory>
										<effecttype>audiolevels</effecttype>
										<mediatype>audio</mediatype>
										<parameter>
											<name>Level</name>
											<parameterid>level</parameterid>
											<valuemin>0</valuemin>
											<valuemax>3,98109</valuemax>
											<value>1</value>
										</parameter>
									</effect>
								</filter>
								<filter>
									<effect>
										<name>Audio Pan</name>
										<effectid>audiopan</effectid>
										<effectcategory>audiopan</effectcategory>
										<effecttype>audiopan</effecttype>
										<mediatype>audio</mediatype>
										<parameter>
											<name>Pan</name>
											<parameterid>pan</parameterid>
											<valuemin>-1</valuemin>
											<valuemax>1</valuemax>
											<value>-1</value>
										</parameter>
									</effect>
								</filter>
								<sourcetrack>
									<mediatype>audio</mediatype>
									<trackindex>1</trackindex>
								</sourcetrack>
								<link>
									<linkclipref>ArmA 3 2020.11.28 - 23.57.55.08.mp4805307610</linkclipref>
								</link>
								<link>
									<linkclipref>ArmA 3 2020.11.28 - 23.57.55.08.mp4536872155</linkclipref>
								</link>
								<link>
									<linkclipref>ArmA 3 2020.11.28 - 23.57.55.08.mp45368721551</linkclipref>
								</link>
								<link>
									<linkclipref>ArmA 3 2020.11.28 - 23.57.55.08.mp4536872156</linkclipref>
								</link>
								<link>
									<linkclipref>ArmA 3 2020.11.28 - 23.57.55.08.mp45368721561</linkclipref>
								</link>
							</clipitem>
							<clipitem id="ArmA 3 2020.11.28 - 23.58.28.09.mp4536872158">
								<name>ArmA 3 2020.11.28 - 23.58.28.09.mp4</name>
								<duration>633</duration>
								<rate>
									<ntsc>TRUE</ntsc>
									<timebase>24</timebase>
								</rate>
								<in>0</in>
								<out>633</out>
								<start>3243</start>
								<end>3876</end>
								<enabled>FALSE</enabled>
								<masterclipid>ArmA 3 2020.11.28 - 23.58.28.09.mp4</masterclipid>
								<logginginfo>
									<scene />
									<shottake />
									<lognote />
									<good>FALSE</good>
								</logginginfo>
								<labels>
									<label2 />
								</labels>
								<comments>
									<mastercomment1 />
									<mastercomment2 />
									<mastercomment3 />
									<mastercomment4 />
								</comments>
								<file id="ArmA 3 2020.11.28 - 23.58.28.09" />
								<filter>
									<effect>
										<name>Audio Levels</name>
										<effectid>audiolevels</effectid>
										<effectcategory>audiolevels</effectcategory>
										<effecttype>audiolevels</effecttype>
										<mediatype>audio</mediatype>
										<parameter>
											<name>Level</name>
											<parameterid>level</parameterid>
											<valuemin>0</valuemin>
											<valuemax>3,98109</valuemax>
											<value>1</value>
										</parameter>
									</effect>
								</filter>
								<filter>
									<effect>
										<name>Audio Pan</name>
										<effectid>audiopan</effectid>
										<effectcategory>audiopan</effectcategory>
										<effecttype>audiopan</effecttype>
										<mediatype>audio</mediatype>
										<parameter>
											<name>Pan</name>
											<parameterid>pan</parameterid>
											<valuemin>-1</valuemin>
											<valuemax>1</valuemax>
											<value>-1</value>
										</parameter>
									</effect>
								</filter>
								<sourcetrack>
									<mediatype>audio</mediatype>
									<trackindex>1</trackindex>
								</sourcetrack>
								<link>
									<linkclipref>ArmA 3 2020.11.28 - 23.58.28.09.mp4805307613</linkclipref>
								</link>
								<link>
									<linkclipref>ArmA 3 2020.11.28 - 23.58.28.09.mp4536872158</linkclipref>
								</link>
								<link>
									<linkclipref>ArmA 3 2020.11.28 - 23.58.28.09.mp45368721581</linkclipref>
								</link>
								<link>
									<linkclipref>ArmA 3 2020.11.28 - 23.58.28.09.mp4536872159</linkclipref>
								</link>
								<link>
									<linkclipref>ArmA 3 2020.11.28 - 23.58.28.09.mp45368721591</linkclipref>
								</link>
							</clipitem>
							<clipitem id="ArmA 3 2020.11.28 - 23.59.09.10.mp4536872161">
								<name>ArmA 3 2020.11.28 - 23.59.09.10.mp4</name>
								<duration>635</duration>
								<rate>
									<ntsc>TRUE</ntsc>
									<timebase>24</timebase>
								</rate>
								<in>0</in>
								<out>635</out>
								<start>3877</start>
								<end>4512</end>
								<enabled>FALSE</enabled>
								<masterclipid>ArmA 3 2020.11.28 - 23.59.09.10.mp4</masterclipid>
								<logginginfo>
									<scene />
									<shottake />
									<lognote />
									<good>FALSE</good>
								</logginginfo>
								<labels>
									<label2 />
								</labels>
								<comments>
									<mastercomment1 />
									<mastercomment2 />
									<mastercomment3 />
									<mastercomment4 />
								</comments>
								<file id="ArmA 3 2020.11.28 - 23.59.09.10" />
								<filter>
									<effect>
										<name>Audio Levels</name>
										<effectid>audiolevels</effectid>
										<effectcategory>audiolevels</effectcategory>
										<effecttype>audiolevels</effecttype>
										<mediatype>audio</mediatype>
										<parameter>
											<name>Level</name>
											<parameterid>level</parameterid>
											<valuemin>0</valuemin>
											<valuemax>3,98109</valuemax>
											<value>1</value>
										</parameter>
									</effect>
								</filter>
								<filter>
									<effect>
										<name>Audio Pan</name>
										<effectid>audiopan</effectid>
										<effectcategory>audiopan</effectcategory>
										<effecttype>audiopan</effecttype>
										<mediatype>audio</mediatype>
										<parameter>
											<name>Pan</name>
											<parameterid>pan</parameterid>
											<valuemin>-1</valuemin>
											<valuemax>1</valuemax>
											<value>-1</value>
										</parameter>
									</effect>
								</filter>
								<sourcetrack>
									<mediatype>audio</mediatype>
									<trackindex>1</trackindex>
								</sourcetrack>
								<link>
									<linkclipref>ArmA 3 2020.11.28 - 23.59.09.10.mp4805307616</linkclipref>
								</link>
								<link>
									<linkclipref>ArmA 3 2020.11.28 - 23.59.09.10.mp4536872161</linkclipref>
								</link>
								<link>
									<linkclipref>ArmA 3 2020.11.28 - 23.59.09.10.mp45368721611</linkclipref>
								</link>
								<link>
									<linkclipref>ArmA 3 2020.11.28 - 23.59.09.10.mp4536872162</linkclipref>
								</link>
								<link>
									<linkclipref>ArmA 3 2020.11.28 - 23.59.09.10.mp45368721621</linkclipref>
								</link>
							</clipitem>
							<clipitem id="ArmA 3 2020.11.28 - 23.59.49.11.mp4536872164">
								<name>ArmA 3 2020.11.28 - 23.59.49.11.mp4</name>
								<duration>384</duration>
								<rate>
									<ntsc>TRUE</ntsc>
									<timebase>24</timebase>
								</rate>
								<in>0</in>
								<out>384</out>
								<start>4513</start>
								<end>4897</end>
								<enabled>FALSE</enabled>
								<masterclipid>ArmA 3 2020.11.28 - 23.59.49.11.mp4</masterclipid>
								<logginginfo>
									<scene />
									<shottake />
									<lognote />
									<good>FALSE</good>
								</logginginfo>
								<labels>
									<label2 />
								</labels>
								<comments>
									<mastercomment1 />
									<mastercomment2 />
									<mastercomment3 />
									<mastercomment4 />
								</comments>
								<file id="ArmA 3 2020.11.28 - 23.59.49.11" />
								<filter>
									<effect>
										<name>Audio Levels</name>
										<effectid>audiolevels</effectid>
										<effectcategory>audiolevels</effectcategory>
										<effecttype>audiolevels</effecttype>
										<mediatype>audio</mediatype>
										<parameter>
											<name>Level</name>
											<parameterid>level</parameterid>
											<valuemin>0</valuemin>
											<valuemax>3,98109</valuemax>
											<value>1</value>
										</parameter>
									</effect>
								</filter>
								<filter>
									<effect>
										<name>Audio Pan</name>
										<effectid>audiopan</effectid>
										<effectcategory>audiopan</effectcategory>
										<effecttype>audiopan</effecttype>
										<mediatype>audio</mediatype>
										<parameter>
											<name>Pan</name>
											<parameterid>pan</parameterid>
											<valuemin>-1</valuemin>
											<valuemax>1</valuemax>
											<value>-1</value>
										</parameter>
									</effect>
								</filter>
								<sourcetrack>
									<mediatype>audio</mediatype>
									<trackindex>1</trackindex>
								</sourcetrack>
								<link>
									<linkclipref>ArmA 3 2020.11.28 - 23.59.49.11.mp4805307619</linkclipref>
								</link>
								<link>
									<linkclipref>ArmA 3 2020.11.28 - 23.59.49.11.mp4536872164</linkclipref>
								</link>
								<link>
									<linkclipref>ArmA 3 2020.11.28 - 23.59.49.11.mp45368721641</linkclipref>
								</link>
								<link>
									<linkclipref>ArmA 3 2020.11.28 - 23.59.49.11.mp4536872165</linkclipref>
								</link>
								<link>
									<linkclipref>ArmA 3 2020.11.28 - 23.59.49.11.mp45368721651</linkclipref>
								</link>
							</clipitem>
							<clipitem id="ArmA 3 2020.11.29 - 00.00.59.12.DVR.mp4536872167">
								<name>ArmA 3 2020.11.29 - 00.00.59.12.DVR.mp4</name>
								<duration>7198</duration>
								<rate>
									<ntsc>TRUE</ntsc>
									<timebase>24</timebase>
								</rate>
								<in>0</in>
								<out>7198</out>
								<start>4898</start>
								<end>12096</end>
								<enabled>FALSE</enabled>
								<masterclipid>ArmA 3 2020.11.29 - 00.00.59.12.DVR.mp4</masterclipid>
								<logginginfo>
									<scene />
									<shottake />
									<lognote />
									<good>FALSE</good>
								</logginginfo>
								<labels>
									<label2 />
								</labels>
								<comments>
									<mastercomment1 />
									<mastercomment2 />
									<mastercomment3 />
									<mastercomment4 />
								</comments>
								<file id="ArmA 3 2020.11.29 - 00.00.59.12.DVR" />
								<filter>
									<effect>
										<name>Audio Levels</name>
										<effectid>audiolevels</effectid>
										<effectcategory>audiolevels</effectcategory>
										<effecttype>audiolevels</effecttype>
										<mediatype>audio</mediatype>
										<parameter>
											<name>Level</name>
											<parameterid>level</parameterid>
											<valuemin>0</valuemin>
											<valuemax>3,98109</valuemax>
											<value>1</value>
										</parameter>
									</effect>
								</filter>
								<filter>
									<effect>
										<name>Audio Pan</name>
										<effectid>audiopan</effectid>
										<effectcategory>audiopan</effectcategory>
										<effecttype>audiopan</effecttype>
										<mediatype>audio</mediatype>
										<parameter>
											<name>Pan</name>
											<parameterid>pan</parameterid>
											<valuemin>-1</valuemin>
											<valuemax>1</valuemax>
											<value>-1</value>
										</parameter>
									</effect>
								</filter>
								<sourcetrack>
									<mediatype>audio</mediatype>
									<trackindex>1</trackindex>
								</sourcetrack>
								<link>
									<linkclipref>ArmA 3 2020.11.29 - 00.00.59.12.DVR.mp4805307622</linkclipref>
								</link>
								<link>
									<linkclipref>ArmA 3 2020.11.29 - 00.00.59.12.DVR.mp4536872167</linkclipref>
								</link>
								<link>
									<linkclipref>ArmA 3 2020.11.29 - 00.00.59.12.DVR.mp45368721671</linkclipref>
								</link>
								<link>
									<linkclipref>ArmA 3 2020.11.29 - 00.00.59.12.DVR.mp4536872168</linkclipref>
								</link>
								<link>
									<linkclipref>ArmA 3 2020.11.29 - 00.00.59.12.DVR.mp45368721681</linkclipref>
								</link>
							</clipitem>
							<clipitem id="ArmA 3 2020.11.29 - 00.02.48.13.DVR.mp4536872170">
								<name>ArmA 3 2020.11.29 - 00.02.48.13.DVR.mp4</name>
								<duration>2602</duration>
								<rate>
									<ntsc>TRUE</ntsc>
									<timebase>24</timebase>
								</rate>
								<in>0</in>
								<out>2602</out>
								<start>12097</start>
								<end>14699</end>
								<enabled>FALSE</enabled>
								<masterclipid>ArmA 3 2020.11.29 - 00.02.48.13.DVR.mp4</masterclipid>
								<logginginfo>
									<scene />
									<shottake />
									<lognote />
									<good>FALSE</good>
								</logginginfo>
								<labels>
									<label2 />
								</labels>
								<comments>
									<mastercomment1 />
									<mastercomment2 />
									<mastercomment3 />
									<mastercomment4 />
								</comments>
								<file id="ArmA 3 2020.11.29 - 00.02.48.13.DVR" />
								<filter>
									<effect>
										<name>Audio Levels</name>
										<effectid>audiolevels</effectid>
										<effectcategory>audiolevels</effectcategory>
										<effecttype>audiolevels</effecttype>
										<mediatype>audio</mediatype>
										<parameter>
											<name>Level</name>
											<parameterid>level</parameterid>
											<valuemin>0</valuemin>
											<valuemax>3,98109</valuemax>
											<value>1</value>
										</parameter>
									</effect>
								</filter>
								<filter>
									<effect>
										<name>Audio Pan</name>
										<effectid>audiopan</effectid>
										<effectcategory>audiopan</effectcategory>
										<effecttype>audiopan</effecttype>
										<mediatype>audio</mediatype>
										<parameter>
											<name>Pan</name>
											<parameterid>pan</parameterid>
											<valuemin>-1</valuemin>
											<valuemax>1</valuemax>
											<value>-1</value>
										</parameter>
									</effect>
								</filter>
								<sourcetrack>
									<mediatype>audio</mediatype>
									<trackindex>1</trackindex>
								</sourcetrack>
								<link>
									<linkclipref>ArmA 3 2020.11.29 - 00.02.48.13.DVR.mp4805307625</linkclipref>
								</link>
								<link>
									<linkclipref>ArmA 3 2020.11.29 - 00.02.48.13.DVR.mp4536872170</linkclipref>
								</link>
								<link>
									<linkclipref>ArmA 3 2020.11.29 - 00.02.48.13.DVR.mp45368721701</linkclipref>
								</link>
								<link>
									<linkclipref>ArmA 3 2020.11.29 - 00.02.48.13.DVR.mp4536872171</linkclipref>
								</link>
								<link>
									<linkclipref>ArmA 3 2020.11.29 - 00.02.48.13.DVR.mp45368721711</linkclipref>
								</link>
							</clipitem>
						</track>
						<track>
							<clipitem id="ArmA 3 2020.11.28 - 23.52.07.02.mp45368721371">
								<name>ArmA 3 2020.11.28 - 23.52.07.02.mp4</name>
								<duration>444</duration>
								<rate>
									<ntsc>TRUE</ntsc>
									<timebase>24</timebase>
								</rate>
								<in>0</in>
								<out>444</out>
								<start>0</start>
								<end>444</end>
								<enabled>FALSE</enabled>
								<masterclipid>ArmA 3 2020.11.28 - 23.52.07.02.mp4</masterclipid>
								<logginginfo>
									<scene />
									<shottake />
									<lognote />
									<good>FALSE</good>
								</logginginfo>
								<labels>
									<label2 />
								</labels>
								<comments>
									<mastercomment1 />
									<mastercomment2 />
									<mastercomment3 />
									<mastercomment4 />
								</comments>
								<file id="ArmA 3 2020.11.28 - 23.52.07.02" />
								<filter>
									<effect>
										<name>Audio Levels</name>
										<effectid>audiolevels</effectid>
										<effectcategory>audiolevels</effectcategory>
										<effecttype>audiolevels</effecttype>
										<mediatype>audio</mediatype>
										<parameter>
											<name>Level</name>
											<parameterid>level</parameterid>
											<valuemin>0</valuemin>
											<valuemax>3,98109</valuemax>
											<value>1</value>
										</parameter>
									</effect>
								</filter>
								<filter>
									<effect>
										<name>Audio Pan</name>
										<effectid>audiopan</effectid>
										<effectcategory>audiopan</effectcategory>
										<effecttype>audiopan</effecttype>
										<mediatype>audio</mediatype>
										<parameter>
											<name>Pan</name>
											<parameterid>pan</parameterid>
											<valuemin>-1</valuemin>
											<valuemax>1</valuemax>
											<value>1</value>
										</parameter>
									</effect>
								</filter>
								<sourcetrack>
									<mediatype>audio</mediatype>
									<trackindex>2</trackindex>
								</sourcetrack>
								<link>
									<linkclipref>ArmA 3 2020.11.28 - 23.52.07.02.mp4805307592</linkclipref>
								</link>
								<link>
									<linkclipref>ArmA 3 2020.11.28 - 23.52.07.02.mp4536872137</linkclipref>
								</link>
								<link>
									<linkclipref>ArmA 3 2020.11.28 - 23.52.07.02.mp45368721371</linkclipref>
								</link>
								<link>
									<linkclipref>ArmA 3 2020.11.28 - 23.52.07.02.mp4536872138</linkclipref>
								</link>
								<link>
									<linkclipref>ArmA 3 2020.11.28 - 23.52.07.02.mp45368721381</linkclipref>
								</link>
							</clipitem>
							<clipitem id="ArmA 3 2020.11.28 - 23.53.40.03.mp45368721401">
								<name>ArmA 3 2020.11.28 - 23.53.40.03.mp4</name>
								<duration>314</duration>
								<rate>
									<ntsc>TRUE</ntsc>
									<timebase>24</timebase>
								</rate>
								<in>0</in>
								<out>314</out>
								<start>445</start>
								<end>759</end>
								<enabled>FALSE</enabled>
								<masterclipid>ArmA 3 2020.11.28 - 23.53.40.03.mp4</masterclipid>
								<logginginfo>
									<scene />
									<shottake />
									<lognote />
									<good>FALSE</good>
								</logginginfo>
								<labels>
									<label2 />
								</labels>
								<comments>
									<mastercomment1 />
									<mastercomment2 />
									<mastercomment3 />
									<mastercomment4 />
								</comments>
								<file id="ArmA 3 2020.11.28 - 23.53.40.03" />
								<filter>
									<effect>
										<name>Audio Levels</name>
										<effectid>audiolevels</effectid>
										<effectcategory>audiolevels</effectcategory>
										<effecttype>audiolevels</effecttype>
										<mediatype>audio</mediatype>
										<parameter>
											<name>Level</name>
											<parameterid>level</parameterid>
											<valuemin>0</valuemin>
											<valuemax>3,98109</valuemax>
											<value>1</value>
										</parameter>
									</effect>
								</filter>
								<filter>
									<effect>
										<name>Audio Pan</name>
										<effectid>audiopan</effectid>
										<effectcategory>audiopan</effectcategory>
										<effecttype>audiopan</effecttype>
										<mediatype>audio</mediatype>
										<parameter>
											<name>Pan</name>
											<parameterid>pan</parameterid>
											<valuemin>-1</valuemin>
											<valuemax>1</valuemax>
											<value>1</value>
										</parameter>
									</effect>
								</filter>
								<sourcetrack>
									<mediatype>audio</mediatype>
									<trackindex>2</trackindex>
								</sourcetrack>
								<link>
									<linkclipref>ArmA 3 2020.11.28 - 23.53.40.03.mp4805307595</linkclipref>
								</link>
								<link>
									<linkclipref>ArmA 3 2020.11.28 - 23.53.40.03.mp4536872140</linkclipref>
								</link>
								<link>
									<linkclipref>ArmA 3 2020.11.28 - 23.53.40.03.mp45368721401</linkclipref>
								</link>
								<link>
									<linkclipref>ArmA 3 2020.11.28 - 23.53.40.03.mp4536872141</linkclipref>
								</link>
								<link>
									<linkclipref>ArmA 3 2020.11.28 - 23.53.40.03.mp45368721411</linkclipref>
								</link>
							</clipitem>
							<clipitem id="ArmA 3 2020.11.28 - 23.54.55.04.mp45368721431">
								<name>ArmA 3 2020.11.28 - 23.54.55.04.mp4</name>
								<duration>644</duration>
								<rate>
									<ntsc>TRUE</ntsc>
									<timebase>24</timebase>
								</rate>
								<in>0</in>
								<out>644</out>
								<start>760</start>
								<end>1404</end>
								<enabled>FALSE</enabled>
								<masterclipid>ArmA 3 2020.11.28 - 23.54.55.04.mp4</masterclipid>
								<logginginfo>
									<scene />
									<shottake />
									<lognote />
									<good>FALSE</good>
								</logginginfo>
								<labels>
									<label2 />
								</labels>
								<comments>
									<mastercomment1 />
									<mastercomment2 />
									<mastercomment3 />
									<mastercomment4 />
								</comments>
								<file id="ArmA 3 2020.11.28 - 23.54.55.04" />
								<filter>
									<effect>
										<name>Audio Levels</name>
										<effectid>audiolevels</effectid>
										<effectcategory>audiolevels</effectcategory>
										<effecttype>audiolevels</effecttype>
										<mediatype>audio</mediatype>
										<parameter>
											<name>Level</name>
											<parameterid>level</parameterid>
											<valuemin>0</valuemin>
											<valuemax>3,98109</valuemax>
											<value>1</value>
										</parameter>
									</effect>
								</filter>
								<filter>
									<effect>
										<name>Audio Pan</name>
										<effectid>audiopan</effectid>
										<effectcategory>audiopan</effectcategory>
										<effecttype>audiopan</effecttype>
										<mediatype>audio</mediatype>
										<parameter>
											<name>Pan</name>
											<parameterid>pan</parameterid>
											<valuemin>-1</valuemin>
											<valuemax>1</valuemax>
											<value>1</value>
										</parameter>
									</effect>
								</filter>
								<sourcetrack>
									<mediatype>audio</mediatype>
									<trackindex>2</trackindex>
								</sourcetrack>
								<link>
									<linkclipref>ArmA 3 2020.11.28 - 23.54.55.04.mp4805307598</linkclipref>
								</link>
								<link>
									<linkclipref>ArmA 3 2020.11.28 - 23.54.55.04.mp4536872143</linkclipref>
								</link>
								<link>
									<linkclipref>ArmA 3 2020.11.28 - 23.54.55.04.mp45368721431</linkclipref>
								</link>
								<link>
									<linkclipref>ArmA 3 2020.11.28 - 23.54.55.04.mp4536872144</linkclipref>
								</link>
								<link>
									<linkclipref>ArmA 3 2020.11.28 - 23.54.55.04.mp45368721441</linkclipref>
								</link>
							</clipitem>
							<clipitem id="ArmA 3 2020.11.28 - 23.55.37.05.mp45368721461">
								<name>ArmA 3 2020.11.28 - 23.55.37.05.mp4</name>
								<duration>443</duration>
								<rate>
									<ntsc>TRUE</ntsc>
									<timebase>24</timebase>
								</rate>
								<in>0</in>
								<out>443</out>
								<start>1405</start>
								<end>1848</end>
								<enabled>FALSE</enabled>
								<masterclipid>ArmA 3 2020.11.28 - 23.55.37.05.mp4</masterclipid>
								<logginginfo>
									<scene />
									<shottake />
									<lognote />
									<good>FALSE</good>
								</logginginfo>
								<labels>
									<label2 />
								</labels>
								<comments>
									<mastercomment1 />
									<mastercomment2 />
									<mastercomment3 />
									<mastercomment4 />
								</comments>
								<file id="ArmA 3 2020.11.28 - 23.55.37.05" />
								<filter>
									<effect>
										<name>Audio Levels</name>
										<effectid>audiolevels</effectid>
										<effectcategory>audiolevels</effectcategory>
										<effecttype>audiolevels</effecttype>
										<mediatype>audio</mediatype>
										<parameter>
											<name>Level</name>
											<parameterid>level</parameterid>
											<valuemin>0</valuemin>
											<valuemax>3,98109</valuemax>
											<value>1</value>
										</parameter>
									</effect>
								</filter>
								<filter>
									<effect>
										<name>Audio Pan</name>
										<effectid>audiopan</effectid>
										<effectcategory>audiopan</effectcategory>
										<effecttype>audiopan</effecttype>
										<mediatype>audio</mediatype>
										<parameter>
											<name>Pan</name>
											<parameterid>pan</parameterid>
											<valuemin>-1</valuemin>
											<valuemax>1</valuemax>
											<value>1</value>
										</parameter>
									</effect>
								</filter>
								<sourcetrack>
									<mediatype>audio</mediatype>
									<trackindex>2</trackindex>
								</sourcetrack>
								<link>
									<linkclipref>ArmA 3 2020.11.28 - 23.55.37.05.mp4805307601</linkclipref>
								</link>
								<link>
									<linkclipref>ArmA 3 2020.11.28 - 23.55.37.05.mp4536872146</linkclipref>
								</link>
								<link>
									<linkclipref>ArmA 3 2020.11.28 - 23.55.37.05.mp45368721461</linkclipref>
								</link>
								<link>
									<linkclipref>ArmA 3 2020.11.28 - 23.55.37.05.mp4536872147</linkclipref>
								</link>
								<link>
									<linkclipref>ArmA 3 2020.11.28 - 23.55.37.05.mp45368721471</linkclipref>
								</link>
							</clipitem>
							<clipitem id="ArmA 3 2020.11.28 - 23.56.19.06.mp45368721491">
								<name>ArmA 3 2020.11.28 - 23.56.19.06.mp4</name>
								<duration>353</duration>
								<rate>
									<ntsc>TRUE</ntsc>
									<timebase>24</timebase>
								</rate>
								<in>0</in>
								<out>353</out>
								<start>1849</start>
								<end>2202</end>
								<enabled>FALSE</enabled>
								<masterclipid>ArmA 3 2020.11.28 - 23.56.19.06.mp4</masterclipid>
								<logginginfo>
									<scene />
									<shottake />
									<lognote />
									<good>FALSE</good>
								</logginginfo>
								<labels>
									<label2 />
								</labels>
								<comments>
									<mastercomment1 />
									<mastercomment2 />
									<mastercomment3 />
									<mastercomment4 />
								</comments>
								<file id="ArmA 3 2020.11.28 - 23.56.19.06" />
								<filter>
									<effect>
										<name>Audio Levels</name>
										<effectid>audiolevels</effectid>
										<effectcategory>audiolevels</effectcategory>
										<effecttype>audiolevels</effecttype>
										<mediatype>audio</mediatype>
										<parameter>
											<name>Level</name>
											<parameterid>level</parameterid>
											<valuemin>0</valuemin>
											<valuemax>3,98109</valuemax>
											<value>1</value>
										</parameter>
									</effect>
								</filter>
								<filter>
									<effect>
										<name>Audio Pan</name>
										<effectid>audiopan</effectid>
										<effectcategory>audiopan</effectcategory>
										<effecttype>audiopan</effecttype>
										<mediatype>audio</mediatype>
										<parameter>
											<name>Pan</name>
											<parameterid>pan</parameterid>
											<valuemin>-1</valuemin>
											<valuemax>1</valuemax>
											<value>1</value>
										</parameter>
									</effect>
								</filter>
								<sourcetrack>
									<mediatype>audio</mediatype>
									<trackindex>2</trackindex>
								</sourcetrack>
								<link>
									<linkclipref>ArmA 3 2020.11.28 - 23.56.19.06.mp4805307604</linkclipref>
								</link>
								<link>
									<linkclipref>ArmA 3 2020.11.28 - 23.56.19.06.mp4536872149</linkclipref>
								</link>
								<link>
									<linkclipref>ArmA 3 2020.11.28 - 23.56.19.06.mp45368721491</linkclipref>
								</link>
								<link>
									<linkclipref>ArmA 3 2020.11.28 - 23.56.19.06.mp4536872150</linkclipref>
								</link>
								<link>
									<linkclipref>ArmA 3 2020.11.28 - 23.56.19.06.mp45368721501</linkclipref>
								</link>
							</clipitem>
							<clipitem id="ArmA 3 2020.11.28 - 23.57.22.07.mp45368721521">
								<name>ArmA 3 2020.11.28 - 23.57.22.07.mp4</name>
								<duration>497</duration>
								<rate>
									<ntsc>TRUE</ntsc>
									<timebase>24</timebase>
								</rate>
								<in>0</in>
								<out>497</out>
								<start>2203</start>
								<end>2700</end>
								<enabled>FALSE</enabled>
								<masterclipid>ArmA 3 2020.11.28 - 23.57.22.07.mp4</masterclipid>
								<logginginfo>
									<scene />
									<shottake />
									<lognote />
									<good>FALSE</good>
								</logginginfo>
								<labels>
									<label2 />
								</labels>
								<comments>
									<mastercomment1 />
									<mastercomment2 />
									<mastercomment3 />
									<mastercomment4 />
								</comments>
								<file id="ArmA 3 2020.11.28 - 23.57.22.07" />
								<filter>
									<effect>
										<name>Audio Levels</name>
										<effectid>audiolevels</effectid>
										<effectcategory>audiolevels</effectcategory>
										<effecttype>audiolevels</effecttype>
										<mediatype>audio</mediatype>
										<parameter>
											<name>Level</name>
											<parameterid>level</parameterid>
											<valuemin>0</valuemin>
											<valuemax>3,98109</valuemax>
											<value>1</value>
										</parameter>
									</effect>
								</filter>
								<filter>
									<effect>
										<name>Audio Pan</name>
										<effectid>audiopan</effectid>
										<effectcategory>audiopan</effectcategory>
										<effecttype>audiopan</effecttype>
										<mediatype>audio</mediatype>
										<parameter>
											<name>Pan</name>
											<parameterid>pan</parameterid>
											<valuemin>-1</valuemin>
											<valuemax>1</valuemax>
											<value>1</value>
										</parameter>
									</effect>
								</filter>
								<sourcetrack>
									<mediatype>audio</mediatype>
									<trackindex>2</trackindex>
								</sourcetrack>
								<link>
									<linkclipref>ArmA 3 2020.11.28 - 23.57.22.07.mp4805307607</linkclipref>
								</link>
								<link>
									<linkclipref>ArmA 3 2020.11.28 - 23.57.22.07.mp4536872152</linkclipref>
								</link>
								<link>
									<linkclipref>ArmA 3 2020.11.28 - 23.57.22.07.mp45368721521</linkclipref>
								</link>
								<link>
									<linkclipref>ArmA 3 2020.11.28 - 23.57.22.07.mp4536872153</linkclipref>
								</link>
								<link>
									<linkclipref>ArmA 3 2020.11.28 - 23.57.22.07.mp45368721531</linkclipref>
								</link>
							</clipitem>
							<clipitem id="ArmA 3 2020.11.28 - 23.57.55.08.mp45368721551">
								<name>ArmA 3 2020.11.28 - 23.57.55.08.mp4</name>
								<duration>541</duration>
								<rate>
									<ntsc>TRUE</ntsc>
									<timebase>24</timebase>
								</rate>
								<in>0</in>
								<out>541</out>
								<start>2701</start>
								<end>3242</end>
								<enabled>FALSE</enabled>
								<masterclipid>ArmA 3 2020.11.28 - 23.57.55.08.mp4</masterclipid>
								<logginginfo>
									<scene />
									<shottake />
									<lognote />
									<good>FALSE</good>
								</logginginfo>
								<labels>
									<label2 />
								</labels>
								<comments>
									<mastercomment1 />
									<mastercomment2 />
									<mastercomment3 />
									<mastercomment4 />
								</comments>
								<file id="ArmA 3 2020.11.28 - 23.57.55.08" />
								<filter>
									<effect>
										<name>Audio Levels</name>
										<effectid>audiolevels</effectid>
										<effectcategory>audiolevels</effectcategory>
										<effecttype>audiolevels</effecttype>
										<mediatype>audio</mediatype>
										<parameter>
											<name>Level</name>
											<parameterid>level</parameterid>
											<valuemin>0</valuemin>
											<valuemax>3,98109</valuemax>
											<value>1</value>
										</parameter>
									</effect>
								</filter>
								<filter>
									<effect>
										<name>Audio Pan</name>
										<effectid>audiopan</effectid>
										<effectcategory>audiopan</effectcategory>
										<effecttype>audiopan</effecttype>
										<mediatype>audio</mediatype>
										<parameter>
											<name>Pan</name>
											<parameterid>pan</parameterid>
											<valuemin>-1</valuemin>
											<valuemax>1</valuemax>
											<value>1</value>
										</parameter>
									</effect>
								</filter>
								<sourcetrack>
									<mediatype>audio</mediatype>
									<trackindex>2</trackindex>
								</sourcetrack>
								<link>
									<linkclipref>ArmA 3 2020.11.28 - 23.57.55.08.mp4805307610</linkclipref>
								</link>
								<link>
									<linkclipref>ArmA 3 2020.11.28 - 23.57.55.08.mp4536872155</linkclipref>
								</link>
								<link>
									<linkclipref>ArmA 3 2020.11.28 - 23.57.55.08.mp45368721551</linkclipref>
								</link>
								<link>
									<linkclipref>ArmA 3 2020.11.28 - 23.57.55.08.mp4536872156</linkclipref>
								</link>
								<link>
									<linkclipref>ArmA 3 2020.11.28 - 23.57.55.08.mp45368721561</linkclipref>
								</link>
							</clipitem>
							<clipitem id="ArmA 3 2020.11.28 - 23.58.28.09.mp45368721581">
								<name>ArmA 3 2020.11.28 - 23.58.28.09.mp4</name>
								<duration>633</duration>
								<rate>
									<ntsc>TRUE</ntsc>
									<timebase>24</timebase>
								</rate>
								<in>0</in>
								<out>633</out>
								<start>3243</start>
								<end>3876</end>
								<enabled>FALSE</enabled>
								<masterclipid>ArmA 3 2020.11.28 - 23.58.28.09.mp4</masterclipid>
								<logginginfo>
									<scene />
									<shottake />
									<lognote />
									<good>FALSE</good>
								</logginginfo>
								<labels>
									<label2 />
								</labels>
								<comments>
									<mastercomment1 />
									<mastercomment2 />
									<mastercomment3 />
									<mastercomment4 />
								</comments>
								<file id="ArmA 3 2020.11.28 - 23.58.28.09" />
								<filter>
									<effect>
										<name>Audio Levels</name>
										<effectid>audiolevels</effectid>
										<effectcategory>audiolevels</effectcategory>
										<effecttype>audiolevels</effecttype>
										<mediatype>audio</mediatype>
										<parameter>
											<name>Level</name>
											<parameterid>level</parameterid>
											<valuemin>0</valuemin>
											<valuemax>3,98109</valuemax>
											<value>1</value>
										</parameter>
									</effect>
								</filter>
								<filter>
									<effect>
										<name>Audio Pan</name>
										<effectid>audiopan</effectid>
										<effectcategory>audiopan</effectcategory>
										<effecttype>audiopan</effecttype>
										<mediatype>audio</mediatype>
										<parameter>
											<name>Pan</name>
											<parameterid>pan</parameterid>
											<valuemin>-1</valuemin>
											<valuemax>1</valuemax>
											<value>1</value>
										</parameter>
									</effect>
								</filter>
								<sourcetrack>
									<mediatype>audio</mediatype>
									<trackindex>2</trackindex>
								</sourcetrack>
								<link>
									<linkclipref>ArmA 3 2020.11.28 - 23.58.28.09.mp4805307613</linkclipref>
								</link>
								<link>
									<linkclipref>ArmA 3 2020.11.28 - 23.58.28.09.mp4536872158</linkclipref>
								</link>
								<link>
									<linkclipref>ArmA 3 2020.11.28 - 23.58.28.09.mp45368721581</linkclipref>
								</link>
								<link>
									<linkclipref>ArmA 3 2020.11.28 - 23.58.28.09.mp4536872159</linkclipref>
								</link>
								<link>
									<linkclipref>ArmA 3 2020.11.28 - 23.58.28.09.mp45368721591</linkclipref>
								</link>
							</clipitem>
							<clipitem id="ArmA 3 2020.11.28 - 23.59.09.10.mp45368721611">
								<name>ArmA 3 2020.11.28 - 23.59.09.10.mp4</name>
								<duration>635</duration>
								<rate>
									<ntsc>TRUE</ntsc>
									<timebase>24</timebase>
								</rate>
								<in>0</in>
								<out>635</out>
								<start>3877</start>
								<end>4512</end>
								<enabled>FALSE</enabled>
								<masterclipid>ArmA 3 2020.11.28 - 23.59.09.10.mp4</masterclipid>
								<logginginfo>
									<scene />
									<shottake />
									<lognote />
									<good>FALSE</good>
								</logginginfo>
								<labels>
									<label2 />
								</labels>
								<comments>
									<mastercomment1 />
									<mastercomment2 />
									<mastercomment3 />
									<mastercomment4 />
								</comments>
								<file id="ArmA 3 2020.11.28 - 23.59.09.10" />
								<filter>
									<effect>
										<name>Audio Levels</name>
										<effectid>audiolevels</effectid>
										<effectcategory>audiolevels</effectcategory>
										<effecttype>audiolevels</effecttype>
										<mediatype>audio</mediatype>
										<parameter>
											<name>Level</name>
											<parameterid>level</parameterid>
											<valuemin>0</valuemin>
											<valuemax>3,98109</valuemax>
											<value>1</value>
										</parameter>
									</effect>
								</filter>
								<filter>
									<effect>
										<name>Audio Pan</name>
										<effectid>audiopan</effectid>
										<effectcategory>audiopan</effectcategory>
										<effecttype>audiopan</effecttype>
										<mediatype>audio</mediatype>
										<parameter>
											<name>Pan</name>
											<parameterid>pan</parameterid>
											<valuemin>-1</valuemin>
											<valuemax>1</valuemax>
											<value>1</value>
										</parameter>
									</effect>
								</filter>
								<sourcetrack>
									<mediatype>audio</mediatype>
									<trackindex>2</trackindex>
								</sourcetrack>
								<link>
									<linkclipref>ArmA 3 2020.11.28 - 23.59.09.10.mp4805307616</linkclipref>
								</link>
								<link>
									<linkclipref>ArmA 3 2020.11.28 - 23.59.09.10.mp4536872161</linkclipref>
								</link>
								<link>
									<linkclipref>ArmA 3 2020.11.28 - 23.59.09.10.mp45368721611</linkclipref>
								</link>
								<link>
									<linkclipref>ArmA 3 2020.11.28 - 23.59.09.10.mp4536872162</linkclipref>
								</link>
								<link>
									<linkclipref>ArmA 3 2020.11.28 - 23.59.09.10.mp45368721621</linkclipref>
								</link>
							</clipitem>
							<clipitem id="ArmA 3 2020.11.28 - 23.59.49.11.mp45368721641">
								<name>ArmA 3 2020.11.28 - 23.59.49.11.mp4</name>
								<duration>384</duration>
								<rate>
									<ntsc>TRUE</ntsc>
									<timebase>24</timebase>
								</rate>
								<in>0</in>
								<out>384</out>
								<start>4513</start>
								<end>4897</end>
								<enabled>FALSE</enabled>
								<masterclipid>ArmA 3 2020.11.28 - 23.59.49.11.mp4</masterclipid>
								<logginginfo>
									<scene />
									<shottake />
									<lognote />
									<good>FALSE</good>
								</logginginfo>
								<labels>
									<label2 />
								</labels>
								<comments>
									<mastercomment1 />
									<mastercomment2 />
									<mastercomment3 />
									<mastercomment4 />
								</comments>
								<file id="ArmA 3 2020.11.28 - 23.59.49.11" />
								<filter>
									<effect>
										<name>Audio Levels</name>
										<effectid>audiolevels</effectid>
										<effectcategory>audiolevels</effectcategory>
										<effecttype>audiolevels</effecttype>
										<mediatype>audio</mediatype>
										<parameter>
											<name>Level</name>
											<parameterid>level</parameterid>
											<valuemin>0</valuemin>
											<valuemax>3,98109</valuemax>
											<value>1</value>
										</parameter>
									</effect>
								</filter>
								<filter>
									<effect>
										<name>Audio Pan</name>
										<effectid>audiopan</effectid>
										<effectcategory>audiopan</effectcategory>
										<effecttype>audiopan</effecttype>
										<mediatype>audio</mediatype>
										<parameter>
											<name>Pan</name>
											<parameterid>pan</parameterid>
											<valuemin>-1</valuemin>
											<valuemax>1</valuemax>
											<value>1</value>
										</parameter>
									</effect>
								</filter>
								<sourcetrack>
									<mediatype>audio</mediatype>
									<trackindex>2</trackindex>
								</sourcetrack>
								<link>
									<linkclipref>ArmA 3 2020.11.28 - 23.59.49.11.mp4805307619</linkclipref>
								</link>
								<link>
									<linkclipref>ArmA 3 2020.11.28 - 23.59.49.11.mp4536872164</linkclipref>
								</link>
								<link>
									<linkclipref>ArmA 3 2020.11.28 - 23.59.49.11.mp45368721641</linkclipref>
								</link>
								<link>
									<linkclipref>ArmA 3 2020.11.28 - 23.59.49.11.mp4536872165</linkclipref>
								</link>
								<link>
									<linkclipref>ArmA 3 2020.11.28 - 23.59.49.11.mp45368721651</linkclipref>
								</link>
							</clipitem>
							<clipitem id="ArmA 3 2020.11.29 - 00.00.59.12.DVR.mp45368721671">
								<name>ArmA 3 2020.11.29 - 00.00.59.12.DVR.mp4</name>
								<duration>7198</duration>
								<rate>
									<ntsc>TRUE</ntsc>
									<timebase>24</timebase>
								</rate>
								<in>0</in>
								<out>7198</out>
								<start>4898</start>
								<end>12096</end>
								<enabled>FALSE</enabled>
								<masterclipid>ArmA 3 2020.11.29 - 00.00.59.12.DVR.mp4</masterclipid>
								<logginginfo>
									<scene />
									<shottake />
									<lognote />
									<good>FALSE</good>
								</logginginfo>
								<labels>
									<label2 />
								</labels>
								<comments>
									<mastercomment1 />
									<mastercomment2 />
									<mastercomment3 />
									<mastercomment4 />
								</comments>
								<file id="ArmA 3 2020.11.29 - 00.00.59.12.DVR" />
								<filter>
									<effect>
										<name>Audio Levels</name>
										<effectid>audiolevels</effectid>
										<effectcategory>audiolevels</effectcategory>
										<effecttype>audiolevels</effecttype>
										<mediatype>audio</mediatype>
										<parameter>
											<name>Level</name>
											<parameterid>level</parameterid>
											<valuemin>0</valuemin>
											<valuemax>3,98109</valuemax>
											<value>1</value>
										</parameter>
									</effect>
								</filter>
								<filter>
									<effect>
										<name>Audio Pan</name>
										<effectid>audiopan</effectid>
										<effectcategory>audiopan</effectcategory>
										<effecttype>audiopan</effecttype>
										<mediatype>audio</mediatype>
										<parameter>
											<name>Pan</name>
											<parameterid>pan</parameterid>
											<valuemin>-1</valuemin>
											<valuemax>1</valuemax>
											<value>1</value>
										</parameter>
									</effect>
								</filter>
								<sourcetrack>
									<mediatype>audio</mediatype>
									<trackindex>2</trackindex>
								</sourcetrack>
								<link>
									<linkclipref>ArmA 3 2020.11.29 - 00.00.59.12.DVR.mp4805307622</linkclipref>
								</link>
								<link>
									<linkclipref>ArmA 3 2020.11.29 - 00.00.59.12.DVR.mp4536872167</linkclipref>
								</link>
								<link>
									<linkclipref>ArmA 3 2020.11.29 - 00.00.59.12.DVR.mp45368721671</linkclipref>
								</link>
								<link>
									<linkclipref>ArmA 3 2020.11.29 - 00.00.59.12.DVR.mp4536872168</linkclipref>
								</link>
								<link>
									<linkclipref>ArmA 3 2020.11.29 - 00.00.59.12.DVR.mp45368721681</linkclipref>
								</link>
							</clipitem>
							<clipitem id="ArmA 3 2020.11.29 - 00.02.48.13.DVR.mp45368721701">
								<name>ArmA 3 2020.11.29 - 00.02.48.13.DVR.mp4</name>
								<duration>2602</duration>
								<rate>
									<ntsc>TRUE</ntsc>
									<timebase>24</timebase>
								</rate>
								<in>0</in>
								<out>2602</out>
								<start>12097</start>
								<end>14699</end>
								<enabled>FALSE</enabled>
								<masterclipid>ArmA 3 2020.11.29 - 00.02.48.13.DVR.mp4</masterclipid>
								<logginginfo>
									<scene />
									<shottake />
									<lognote />
									<good>FALSE</good>
								</logginginfo>
								<labels>
									<label2 />
								</labels>
								<comments>
									<mastercomment1 />
									<mastercomment2 />
									<mastercomment3 />
									<mastercomment4 />
								</comments>
								<file id="ArmA 3 2020.11.29 - 00.02.48.13.DVR" />
								<filter>
									<effect>
										<name>Audio Levels</name>
										<effectid>audiolevels</effectid>
										<effectcategory>audiolevels</effectcategory>
										<effecttype>audiolevels</effecttype>
										<mediatype>audio</mediatype>
										<parameter>
											<name>Level</name>
											<parameterid>level</parameterid>
											<valuemin>0</valuemin>
											<valuemax>3,98109</valuemax>
											<value>1</value>
										</parameter>
									</effect>
								</filter>
								<filter>
									<effect>
										<name>Audio Pan</name>
										<effectid>audiopan</effectid>
										<effectcategory>audiopan</effectcategory>
										<effecttype>audiopan</effecttype>
										<mediatype>audio</mediatype>
										<parameter>
											<name>Pan</name>
											<parameterid>pan</parameterid>
											<valuemin>-1</valuemin>
											<valuemax>1</valuemax>
											<value>1</value>
										</parameter>
									</effect>
								</filter>
								<sourcetrack>
									<mediatype>audio</mediatype>
									<trackindex>2</trackindex>
								</sourcetrack>
								<link>
									<linkclipref>ArmA 3 2020.11.29 - 00.02.48.13.DVR.mp4805307625</linkclipref>
								</link>
								<link>
									<linkclipref>ArmA 3 2020.11.29 - 00.02.48.13.DVR.mp4536872170</linkclipref>
								</link>
								<link>
									<linkclipref>ArmA 3 2020.11.29 - 00.02.48.13.DVR.mp45368721701</linkclipref>
								</link>
								<link>
									<linkclipref>ArmA 3 2020.11.29 - 00.02.48.13.DVR.mp4536872171</linkclipref>
								</link>
								<link>
									<linkclipref>ArmA 3 2020.11.29 - 00.02.48.13.DVR.mp45368721711</linkclipref>
								</link>
							</clipitem>
						</track>
					</audio>
				</media>
			</sequence>
		</children>
	</project>
</xmeml>