<?xml version="1.0"?>
<xmeml version="5">
	<project>
		<name>Untitled Project 1</name>
		<children>
			<bin>
				<updatebehavior>add</updatebehavior>
				<name>Custom Bins</name>
				<children>
					<bin>
						<updatebehavior>add</updatebehavior>
						<name>PR_SCENE25</name>
						<children>
							<clip id="ArmA 3 2020.11.28 - 21.09.20.144.mp4">
								<updatebehavior>add</updatebehavior>
								<name>ArmA 3 2020.11.28 - 21.09.20.144.mp4</name>
								<duration>593</duration>
								<rate>
									<ntsc>FALSE</ntsc>
									<timebase>60</timebase>
								</rate>
								<in>-1</in>
								<out>-1</out>
								<masterclipid>ArmA 3 2020.11.28 - 21.09.20.144.mp4</masterclipid>
								<ismasterclip>TRUE</ismasterclip>
								<logginginfo>
									<scene />
									<shottake />
									<lognote />
									<good>FALSE</good>
								</logginginfo>
								<labels>
									<label2 />
								</labels>
								<comments>
									<mastercomment1 />
									<mastercomment2 />
									<mastercomment3 />
									<mastercomment4 />
								</comments>
								<media>
									<video>
										<track>
											<clipitem id="ArmA 3 2020.11.28 - 21.09.20.144.mp41">
												<name>ArmA 3 2020.11.28 - 21.09.20.144.mp4</name>
												<duration>593</duration>
												<rate>
													<ntsc>FALSE</ntsc>
													<timebase>60</timebase>
												</rate>
												<in>0</in>
												<out>593</out>
												<start>0</start>
												<end>593</end>
												<pixelaspectratio>Square</pixelaspectratio>
												<anamorphic>FALSE</anamorphic>
												<alphatype>none</alphatype>
												<masterclipid>ArmA 3 2020.11.28 - 21.09.20.144.mp4</masterclipid>
												<logginginfo>
													<scene />
													<shottake />
													<lognote />
													<good>FALSE</good>
												</logginginfo>
												<labels>
													<label2 />
												</labels>
												<comments>
													<mastercomment1 />
													<mastercomment2 />
													<mastercomment3 />
													<mastercomment4 />
												</comments>
												<file id="ArmA 3 2020.11.28 - 21.09.20.144">
													<name>ArmA 3 2020.11.28 - 21.09.20.144.mp4</name>
													<pathurl>file://localhost/F:/AMVS Russia/NaturaDestruction/PRPACK6/ArmA 3 2020.11.28 - 21.09.20.144.mp4</pathurl>
													<rate>
														<timebase>60</timebase>
														<ntsc>FALSE</ntsc>
													</rate>
													<duration>593</duration>
													<timecode>
														<rate>
															<timebase>60</timebase>
															<ntsc>FALSE</ntsc>
														</rate>
														<frame>0</frame>
														<displayformat>NDF</displayformat>
														<source>source</source>
													</timecode>
													<media>
														<video>
															<duration>593</duration>
															<samplecharacteristics>
																<width>1920</width>
																<height>1080</height>
															</samplecharacteristics>
														</video>
														<audio>
															<samplecharacteristics>
																<samplerate>48000</samplerate>
																<depth>32</depth>
															</samplecharacteristics>
															<channelcount>1</channelcount>
														</audio>
														<audio>
															<samplecharacteristics>
																<samplerate>48000</samplerate>
																<depth>32</depth>
															</samplecharacteristics>
															<channelcount>1</channelcount>
														</audio>
													</media>
												</file>
												<sourcetrack>
													<mediatype>video</mediatype>
												</sourcetrack>
												<fielddominance>none</fielddominance>
											</clipitem>
											<enabled>TRUE</enabled>
											<locked>FALSE</locked>
										</track>
									</video>
									<audio>
										<track>
											<clipitem id="ArmA 3 2020.11.28 - 21.09.20.144.mp42">
												<name>ArmA 3 2020.11.28 - 21.09.20.144.mp4</name>
												<duration>593</duration>
												<rate>
													<ntsc>TRUE</ntsc>
													<timebase>24</timebase>
												</rate>
												<in>0</in>
												<out>593</out>
												<start>0</start>
												<end>593</end>
												<masterclipid>ArmA 3 2020.11.28 - 21.09.20.144.mp4</masterclipid>
												<logginginfo>
													<scene />
													<shottake />
													<lognote />
													<good>FALSE</good>
												</logginginfo>
												<labels>
													<label2 />
												</labels>
												<comments>
													<mastercomment1 />
													<mastercomment2 />
													<mastercomment3 />
													<mastercomment4 />
												</comments>
												<file id="ArmA 3 2020.11.28 - 21.09.20.144" />
												<sourcetrack>
													<mediatype>audio</mediatype>
												</sourcetrack>
											</clipitem>
											<enabled>TRUE</enabled>
											<locked>FALSE</locked>
										</track>
										<track>
											<clipitem id="ArmA 3 2020.11.28 - 21.09.20.144.mp43">
												<name>ArmA 3 2020.11.28 - 21.09.20.144.mp4</name>
												<duration>593</duration>
												<rate>
													<ntsc>TRUE</ntsc>
													<timebase>24</timebase>
												</rate>
												<in>0</in>
												<out>593</out>
												<start>0</start>
												<end>593</end>
												<masterclipid>ArmA 3 2020.11.28 - 21.09.20.144.mp4</masterclipid>
												<logginginfo>
													<scene />
													<shottake />
													<lognote />
													<good>FALSE</good>
												</logginginfo>
												<labels>
													<label2 />
												</labels>
												<comments>
													<mastercomment1 />
													<mastercomment2 />
													<mastercomment3 />
													<mastercomment4 />
												</comments>
												<file id="ArmA 3 2020.11.28 - 21.09.20.144" />
												<sourcetrack>
													<mediatype>audio</mediatype>
												</sourcetrack>
											</clipitem>
											<enabled>TRUE</enabled>
											<locked>FALSE</locked>
										</track>
									</audio>
								</media>
							</clip>
							<clip id="ArmA 3 2020.11.28 - 21.10.25.145.DVR.mp4">
								<updatebehavior>add</updatebehavior>
								<name>ArmA 3 2020.11.28 - 21.10.25.145.DVR.mp4</name>
								<duration>7195</duration>
								<rate>
									<ntsc>FALSE</ntsc>
									<timebase>60</timebase>
								</rate>
								<in>-1</in>
								<out>-1</out>
								<masterclipid>ArmA 3 2020.11.28 - 21.10.25.145.DVR.mp4</masterclipid>
								<ismasterclip>TRUE</ismasterclip>
								<logginginfo>
									<scene />
									<shottake />
									<lognote />
									<good>FALSE</good>
								</logginginfo>
								<labels>
									<label2 />
								</labels>
								<comments>
									<mastercomment1 />
									<mastercomment2 />
									<mastercomment3 />
									<mastercomment4 />
								</comments>
								<media>
									<video>
										<track>
											<clipitem id="ArmA 3 2020.11.28 - 21.10.25.145.DVR.mp41">
												<name>ArmA 3 2020.11.28 - 21.10.25.145.DVR.mp4</name>
												<duration>7195</duration>
												<rate>
													<ntsc>FALSE</ntsc>
													<timebase>60</timebase>
												</rate>
												<in>0</in>
												<out>7195</out>
												<start>0</start>
												<end>7195</end>
												<pixelaspectratio>Square</pixelaspectratio>
												<anamorphic>FALSE</anamorphic>
												<alphatype>none</alphatype>
												<masterclipid>ArmA 3 2020.11.28 - 21.10.25.145.DVR.mp4</masterclipid>
												<logginginfo>
													<scene />
													<shottake />
													<lognote />
													<good>FALSE</good>
												</logginginfo>
												<labels>
													<label2 />
												</labels>
												<comments>
													<mastercomment1 />
													<mastercomment2 />
													<mastercomment3 />
													<mastercomment4 />
												</comments>
												<file id="ArmA 3 2020.11.28 - 21.10.25.145.DVR">
													<name>ArmA 3 2020.11.28 - 21.10.25.145.DVR.mp4</name>
													<pathurl>file://localhost/F:/AMVS Russia/NaturaDestruction/PRPACK1/ArmA 3 2020.11.28 - 21.10.25.145.DVR.mp4</pathurl>
													<rate>
														<timebase>60</timebase>
														<ntsc>FALSE</ntsc>
													</rate>
													<duration>7195</duration>
													<timecode>
														<rate>
															<timebase>60</timebase>
															<ntsc>FALSE</ntsc>
														</rate>
														<frame>0</frame>
														<displayformat>NDF</displayformat>
														<source>source</source>
													</timecode>
													<media>
														<video>
															<duration>7195</duration>
															<samplecharacteristics>
																<width>1920</width>
																<height>1080</height>
															</samplecharacteristics>
														</video>
														<audio>
															<samplecharacteristics>
																<samplerate>48000</samplerate>
																<depth>32</depth>
															</samplecharacteristics>
															<channelcount>1</channelcount>
														</audio>
														<audio>
															<samplecharacteristics>
																<samplerate>48000</samplerate>
																<depth>32</depth>
															</samplecharacteristics>
															<channelcount>1</channelcount>
														</audio>
													</media>
												</file>
												<sourcetrack>
													<mediatype>video</mediatype>
												</sourcetrack>
												<fielddominance>none</fielddominance>
											</clipitem>
											<enabled>TRUE</enabled>
											<locked>FALSE</locked>
										</track>
									</video>
									<audio>
										<track>
											<clipitem id="ArmA 3 2020.11.28 - 21.10.25.145.DVR.mp42">
												<name>ArmA 3 2020.11.28 - 21.10.25.145.DVR.mp4</name>
												<duration>7195</duration>
												<rate>
													<ntsc>TRUE</ntsc>
													<timebase>24</timebase>
												</rate>
												<in>0</in>
												<out>7195</out>
												<start>0</start>
												<end>7195</end>
												<masterclipid>ArmA 3 2020.11.28 - 21.10.25.145.DVR.mp4</masterclipid>
												<logginginfo>
													<scene />
													<shottake />
													<lognote />
													<good>FALSE</good>
												</logginginfo>
												<labels>
													<label2 />
												</labels>
												<comments>
													<mastercomment1 />
													<mastercomment2 />
													<mastercomment3 />
													<mastercomment4 />
												</comments>
												<file id="ArmA 3 2020.11.28 - 21.10.25.145.DVR" />
												<sourcetrack>
													<mediatype>audio</mediatype>
												</sourcetrack>
											</clipitem>
											<enabled>TRUE</enabled>
											<locked>FALSE</locked>
										</track>
										<track>
											<clipitem id="ArmA 3 2020.11.28 - 21.10.25.145.DVR.mp43">
												<name>ArmA 3 2020.11.28 - 21.10.25.145.DVR.mp4</name>
												<duration>7195</duration>
												<rate>
													<ntsc>TRUE</ntsc>
													<timebase>24</timebase>
												</rate>
												<in>0</in>
												<out>7195</out>
												<start>0</start>
												<end>7195</end>
												<masterclipid>ArmA 3 2020.11.28 - 21.10.25.145.DVR.mp4</masterclipid>
												<logginginfo>
													<scene />
													<shottake />
													<lognote />
													<good>FALSE</good>
												</logginginfo>
												<labels>
													<label2 />
												</labels>
												<comments>
													<mastercomment1 />
													<mastercomment2 />
													<mastercomment3 />
													<mastercomment4 />
												</comments>
												<file id="ArmA 3 2020.11.28 - 21.10.25.145.DVR" />
												<sourcetrack>
													<mediatype>audio</mediatype>
												</sourcetrack>
											</clipitem>
											<enabled>TRUE</enabled>
											<locked>FALSE</locked>
										</track>
									</audio>
								</media>
							</clip>
							<clip id="ArmA 3 2020.11.28 - 21.10.28.146.mp4">
								<updatebehavior>add</updatebehavior>
								<name>ArmA 3 2020.11.28 - 21.10.28.146.mp4</name>
								<duration>226</duration>
								<rate>
									<ntsc>FALSE</ntsc>
									<timebase>60</timebase>
								</rate>
								<in>-1</in>
								<out>-1</out>
								<masterclipid>ArmA 3 2020.11.28 - 21.10.28.146.mp4</masterclipid>
								<ismasterclip>TRUE</ismasterclip>
								<logginginfo>
									<scene />
									<shottake />
									<lognote />
									<good>FALSE</good>
								</logginginfo>
								<labels>
									<label2 />
								</labels>
								<comments>
									<mastercomment1 />
									<mastercomment2 />
									<mastercomment3 />
									<mastercomment4 />
								</comments>
								<media>
									<video>
										<track>
											<clipitem id="ArmA 3 2020.11.28 - 21.10.28.146.mp41">
												<name>ArmA 3 2020.11.28 - 21.10.28.146.mp4</name>
												<duration>226</duration>
												<rate>
													<ntsc>FALSE</ntsc>
													<timebase>60</timebase>
												</rate>
												<in>0</in>
												<out>226</out>
												<start>0</start>
												<end>226</end>
												<pixelaspectratio>Square</pixelaspectratio>
												<anamorphic>FALSE</anamorphic>
												<alphatype>none</alphatype>
												<masterclipid>ArmA 3 2020.11.28 - 21.10.28.146.mp4</masterclipid>
												<logginginfo>
													<scene />
													<shottake />
													<lognote />
													<good>FALSE</good>
												</logginginfo>
												<labels>
													<label2 />
												</labels>
												<comments>
													<mastercomment1 />
													<mastercomment2 />
													<mastercomment3 />
													<mastercomment4 />
												</comments>
												<file id="ArmA 3 2020.11.28 - 21.10.28.146">
													<name>ArmA 3 2020.11.28 - 21.10.28.146.mp4</name>
													<pathurl>file://localhost/F:/AMVS Russia/NaturaDestruction/PRPACK7/ArmA 3 2020.11.28 - 21.10.28.146.mp4</pathurl>
													<rate>
														<timebase>60</timebase>
														<ntsc>FALSE</ntsc>
													</rate>
													<duration>226</duration>
													<timecode>
														<rate>
															<timebase>60</timebase>
															<ntsc>FALSE</ntsc>
														</rate>
														<frame>0</frame>
														<displayformat>NDF</displayformat>
														<source>source</source>
													</timecode>
													<media>
														<video>
															<duration>226</duration>
															<samplecharacteristics>
																<width>1920</width>
																<height>1080</height>
															</samplecharacteristics>
														</video>
														<audio>
															<samplecharacteristics>
																<samplerate>48000</samplerate>
																<depth>32</depth>
															</samplecharacteristics>
															<channelcount>1</channelcount>
														</audio>
														<audio>
															<samplecharacteristics>
																<samplerate>48000</samplerate>
																<depth>32</depth>
															</samplecharacteristics>
															<channelcount>1</channelcount>
														</audio>
													</media>
												</file>
												<sourcetrack>
													<mediatype>video</mediatype>
												</sourcetrack>
												<fielddominance>none</fielddominance>
											</clipitem>
											<enabled>TRUE</enabled>
											<locked>FALSE</locked>
										</track>
									</video>
									<audio>
										<track>
											<clipitem id="ArmA 3 2020.11.28 - 21.10.28.146.mp42">
												<name>ArmA 3 2020.11.28 - 21.10.28.146.mp4</name>
												<duration>226</duration>
												<rate>
													<ntsc>TRUE</ntsc>
													<timebase>24</timebase>
												</rate>
												<in>0</in>
												<out>226</out>
												<start>0</start>
												<end>226</end>
												<masterclipid>ArmA 3 2020.11.28 - 21.10.28.146.mp4</masterclipid>
												<logginginfo>
													<scene />
													<shottake />
													<lognote />
													<good>FALSE</good>
												</logginginfo>
												<labels>
													<label2 />
												</labels>
												<comments>
													<mastercomment1 />
													<mastercomment2 />
													<mastercomment3 />
													<mastercomment4 />
												</comments>
												<file id="ArmA 3 2020.11.28 - 21.10.28.146" />
												<sourcetrack>
													<mediatype>audio</mediatype>
												</sourcetrack>
											</clipitem>
											<enabled>TRUE</enabled>
											<locked>FALSE</locked>
										</track>
										<track>
											<clipitem id="ArmA 3 2020.11.28 - 21.10.28.146.mp43">
												<name>ArmA 3 2020.11.28 - 21.10.28.146.mp4</name>
												<duration>226</duration>
												<rate>
													<ntsc>TRUE</ntsc>
													<timebase>24</timebase>
												</rate>
												<in>0</in>
												<out>226</out>
												<start>0</start>
												<end>226</end>
												<masterclipid>ArmA 3 2020.11.28 - 21.10.28.146.mp4</masterclipid>
												<logginginfo>
													<scene />
													<shottake />
													<lognote />
													<good>FALSE</good>
												</logginginfo>
												<labels>
													<label2 />
												</labels>
												<comments>
													<mastercomment1 />
													<mastercomment2 />
													<mastercomment3 />
													<mastercomment4 />
												</comments>
												<file id="ArmA 3 2020.11.28 - 21.10.28.146" />
												<sourcetrack>
													<mediatype>audio</mediatype>
												</sourcetrack>
											</clipitem>
											<enabled>TRUE</enabled>
											<locked>FALSE</locked>
										</track>
									</audio>
								</media>
							</clip>
							<clip id="ArmA 3 2020.11.28 - 21.10.39.147.mp4">
								<updatebehavior>add</updatebehavior>
								<name>ArmA 3 2020.11.28 - 21.10.39.147.mp4</name>
								<duration>1154</duration>
								<rate>
									<ntsc>FALSE</ntsc>
									<timebase>60</timebase>
								</rate>
								<in>-1</in>
								<out>-1</out>
								<masterclipid>ArmA 3 2020.11.28 - 21.10.39.147.mp4</masterclipid>
								<ismasterclip>TRUE</ismasterclip>
								<logginginfo>
									<scene />
									<shottake />
									<lognote />
									<good>FALSE</good>
								</logginginfo>
								<labels>
									<label2 />
								</labels>
								<comments>
									<mastercomment1 />
									<mastercomment2 />
									<mastercomment3 />
									<mastercomment4 />
								</comments>
								<media>
									<video>
										<track>
											<clipitem id="ArmA 3 2020.11.28 - 21.10.39.147.mp41">
												<name>ArmA 3 2020.11.28 - 21.10.39.147.mp4</name>
												<duration>1154</duration>
												<rate>
													<ntsc>FALSE</ntsc>
													<timebase>60</timebase>
												</rate>
												<in>0</in>
												<out>1154</out>
												<start>0</start>
												<end>1154</end>
												<pixelaspectratio>Square</pixelaspectratio>
												<anamorphic>FALSE</anamorphic>
												<alphatype>none</alphatype>
												<masterclipid>ArmA 3 2020.11.28 - 21.10.39.147.mp4</masterclipid>
												<logginginfo>
													<scene />
													<shottake />
													<lognote />
													<good>FALSE</good>
												</logginginfo>
												<labels>
													<label2 />
												</labels>
												<comments>
													<mastercomment1 />
													<mastercomment2 />
													<mastercomment3 />
													<mastercomment4 />
												</comments>
												<file id="ArmA 3 2020.11.28 - 21.10.39.147">
													<name>ArmA 3 2020.11.28 - 21.10.39.147.mp4</name>
													<pathurl>file://localhost/F:/AMVS Russia/NaturaDestruction/PRPACK4/ArmA 3 2020.11.28 - 21.10.39.147.mp4</pathurl>
													<rate>
														<timebase>60</timebase>
														<ntsc>FALSE</ntsc>
													</rate>
													<duration>1154</duration>
													<timecode>
														<rate>
															<timebase>60</timebase>
															<ntsc>FALSE</ntsc>
														</rate>
														<frame>0</frame>
														<displayformat>NDF</displayformat>
														<source>source</source>
													</timecode>
													<media>
														<video>
															<duration>1154</duration>
															<samplecharacteristics>
																<width>1920</width>
																<height>1080</height>
															</samplecharacteristics>
														</video>
														<audio>
															<samplecharacteristics>
																<samplerate>48000</samplerate>
																<depth>32</depth>
															</samplecharacteristics>
															<channelcount>1</channelcount>
														</audio>
														<audio>
															<samplecharacteristics>
																<samplerate>48000</samplerate>
																<depth>32</depth>
															</samplecharacteristics>
															<channelcount>1</channelcount>
														</audio>
													</media>
												</file>
												<sourcetrack>
													<mediatype>video</mediatype>
												</sourcetrack>
												<fielddominance>none</fielddominance>
											</clipitem>
											<enabled>TRUE</enabled>
											<locked>FALSE</locked>
										</track>
									</video>
									<audio>
										<track>
											<clipitem id="ArmA 3 2020.11.28 - 21.10.39.147.mp42">
												<name>ArmA 3 2020.11.28 - 21.10.39.147.mp4</name>
												<duration>1147</duration>
												<rate>
													<ntsc>TRUE</ntsc>
													<timebase>24</timebase>
												</rate>
												<in>0</in>
												<out>1147</out>
												<start>0</start>
												<end>1147</end>
												<masterclipid>ArmA 3 2020.11.28 - 21.10.39.147.mp4</masterclipid>
												<logginginfo>
													<scene />
													<shottake />
													<lognote />
													<good>FALSE</good>
												</logginginfo>
												<labels>
													<label2 />
												</labels>
												<comments>
													<mastercomment1 />
													<mastercomment2 />
													<mastercomment3 />
													<mastercomment4 />
												</comments>
												<file id="ArmA 3 2020.11.28 - 21.10.39.147" />
												<sourcetrack>
													<mediatype>audio</mediatype>
												</sourcetrack>
											</clipitem>
											<enabled>TRUE</enabled>
											<locked>FALSE</locked>
										</track>
										<track>
											<clipitem id="ArmA 3 2020.11.28 - 21.10.39.147.mp43">
												<name>ArmA 3 2020.11.28 - 21.10.39.147.mp4</name>
												<duration>1147</duration>
												<rate>
													<ntsc>TRUE</ntsc>
													<timebase>24</timebase>
												</rate>
												<in>0</in>
												<out>1147</out>
												<start>0</start>
												<end>1147</end>
												<masterclipid>ArmA 3 2020.11.28 - 21.10.39.147.mp4</masterclipid>
												<logginginfo>
													<scene />
													<shottake />
													<lognote />
													<good>FALSE</good>
												</logginginfo>
												<labels>
													<label2 />
												</labels>
												<comments>
													<mastercomment1 />
													<mastercomment2 />
													<mastercomment3 />
													<mastercomment4 />
												</comments>
												<file id="ArmA 3 2020.11.28 - 21.10.39.147" />
												<sourcetrack>
													<mediatype>audio</mediatype>
												</sourcetrack>
											</clipitem>
											<enabled>TRUE</enabled>
											<locked>FALSE</locked>
										</track>
									</audio>
								</media>
							</clip>
							<clip id="ArmA 3 2020.11.28 - 21.11.34.148.mp4">
								<updatebehavior>add</updatebehavior>
								<name>ArmA 3 2020.11.28 - 21.11.34.148.mp4</name>
								<duration>1118</duration>
								<rate>
									<ntsc>TRUE</ntsc>
									<timebase>60</timebase>
								</rate>
								<in>-1</in>
								<out>-1</out>
								<masterclipid>ArmA 3 2020.11.28 - 21.11.34.148.mp4</masterclipid>
								<ismasterclip>TRUE</ismasterclip>
								<logginginfo>
									<scene />
									<shottake />
									<lognote />
									<good>FALSE</good>
								</logginginfo>
								<labels>
									<label2 />
								</labels>
								<comments>
									<mastercomment1 />
									<mastercomment2 />
									<mastercomment3 />
									<mastercomment4 />
								</comments>
								<media>
									<video>
										<track>
											<clipitem id="ArmA 3 2020.11.28 - 21.11.34.148.mp41">
												<name>ArmA 3 2020.11.28 - 21.11.34.148.mp4</name>
												<duration>1118</duration>
												<rate>
													<ntsc>TRUE</ntsc>
													<timebase>60</timebase>
												</rate>
												<in>0</in>
												<out>1118</out>
												<start>0</start>
												<end>1118</end>
												<pixelaspectratio>Square</pixelaspectratio>
												<anamorphic>FALSE</anamorphic>
												<alphatype>none</alphatype>
												<masterclipid>ArmA 3 2020.11.28 - 21.11.34.148.mp4</masterclipid>
												<logginginfo>
													<scene />
													<shottake />
													<lognote />
													<good>FALSE</good>
												</logginginfo>
												<labels>
													<label2 />
												</labels>
												<comments>
													<mastercomment1 />
													<mastercomment2 />
													<mastercomment3 />
													<mastercomment4 />
												</comments>
												<file id="ArmA 3 2020.11.28 - 21.11.34.148">
													<name>ArmA 3 2020.11.28 - 21.11.34.148.mp4</name>
													<pathurl>file://localhost/F:/AMVS Russia/NaturaDestruction/PRPACK4/ArmA 3 2020.11.28 - 21.11.34.148.mp4</pathurl>
													<rate>
														<timebase>60</timebase>
														<ntsc>TRUE</ntsc>
													</rate>
													<duration>1118</duration>
													<timecode>
														<rate>
															<timebase>60</timebase>
															<ntsc>TRUE</ntsc>
														</rate>
														<frame>0</frame>
														<displayformat>DF</displayformat>
														<source>source</source>
													</timecode>
													<media>
														<video>
															<duration>1118</duration>
															<samplecharacteristics>
																<width>1920</width>
																<height>1080</height>
															</samplecharacteristics>
														</video>
														<audio>
															<samplecharacteristics>
																<samplerate>48000</samplerate>
																<depth>32</depth>
															</samplecharacteristics>
															<channelcount>1</channelcount>
														</audio>
														<audio>
															<samplecharacteristics>
																<samplerate>48000</samplerate>
																<depth>32</depth>
															</samplecharacteristics>
															<channelcount>1</channelcount>
														</audio>
													</media>
												</file>
												<sourcetrack>
													<mediatype>video</mediatype>
												</sourcetrack>
												<fielddominance>none</fielddominance>
											</clipitem>
											<enabled>TRUE</enabled>
											<locked>FALSE</locked>
										</track>
									</video>
									<audio>
										<track>
											<clipitem id="ArmA 3 2020.11.28 - 21.11.34.148.mp42">
												<name>ArmA 3 2020.11.28 - 21.11.34.148.mp4</name>
												<duration>1118</duration>
												<rate>
													<ntsc>TRUE</ntsc>
													<timebase>24</timebase>
												</rate>
												<in>0</in>
												<out>1118</out>
												<start>0</start>
												<end>1118</end>
												<masterclipid>ArmA 3 2020.11.28 - 21.11.34.148.mp4</masterclipid>
												<logginginfo>
													<scene />
													<shottake />
													<lognote />
													<good>FALSE</good>
												</logginginfo>
												<labels>
													<label2 />
												</labels>
												<comments>
													<mastercomment1 />
													<mastercomment2 />
													<mastercomment3 />
													<mastercomment4 />
												</comments>
												<file id="ArmA 3 2020.11.28 - 21.11.34.148" />
												<sourcetrack>
													<mediatype>audio</mediatype>
												</sourcetrack>
											</clipitem>
											<enabled>TRUE</enabled>
											<locked>FALSE</locked>
										</track>
										<track>
											<clipitem id="ArmA 3 2020.11.28 - 21.11.34.148.mp43">
												<name>ArmA 3 2020.11.28 - 21.11.34.148.mp4</name>
												<duration>1118</duration>
												<rate>
													<ntsc>TRUE</ntsc>
													<timebase>24</timebase>
												</rate>
												<in>0</in>
												<out>1118</out>
												<start>0</start>
												<end>1118</end>
												<masterclipid>ArmA 3 2020.11.28 - 21.11.34.148.mp4</masterclipid>
												<logginginfo>
													<scene />
													<shottake />
													<lognote />
													<good>FALSE</good>
												</logginginfo>
												<labels>
													<label2 />
												</labels>
												<comments>
													<mastercomment1 />
													<mastercomment2 />
													<mastercomment3 />
													<mastercomment4 />
												</comments>
												<file id="ArmA 3 2020.11.28 - 21.11.34.148" />
												<sourcetrack>
													<mediatype>audio</mediatype>
												</sourcetrack>
											</clipitem>
											<enabled>TRUE</enabled>
											<locked>FALSE</locked>
										</track>
									</audio>
								</media>
							</clip>
							<clip id="ArmA 3 2020.11.28 - 21.12.26.149.mp4">
								<updatebehavior>add</updatebehavior>
								<name>ArmA 3 2020.11.28 - 21.12.26.149.mp4</name>
								<duration>533</duration>
								<rate>
									<ntsc>FALSE</ntsc>
									<timebase>60</timebase>
								</rate>
								<in>-1</in>
								<out>-1</out>
								<masterclipid>ArmA 3 2020.11.28 - 21.12.26.149.mp4</masterclipid>
								<ismasterclip>TRUE</ismasterclip>
								<logginginfo>
									<scene />
									<shottake />
									<lognote />
									<good>FALSE</good>
								</logginginfo>
								<labels>
									<label2 />
								</labels>
								<comments>
									<mastercomment1 />
									<mastercomment2 />
									<mastercomment3 />
									<mastercomment4 />
								</comments>
								<media>
									<video>
										<track>
											<clipitem id="ArmA 3 2020.11.28 - 21.12.26.149.mp41">
												<name>ArmA 3 2020.11.28 - 21.12.26.149.mp4</name>
												<duration>533</duration>
												<rate>
													<ntsc>FALSE</ntsc>
													<timebase>60</timebase>
												</rate>
												<in>0</in>
												<out>533</out>
												<start>0</start>
												<end>533</end>
												<pixelaspectratio>Square</pixelaspectratio>
												<anamorphic>FALSE</anamorphic>
												<alphatype>none</alphatype>
												<masterclipid>ArmA 3 2020.11.28 - 21.12.26.149.mp4</masterclipid>
												<logginginfo>
													<scene />
													<shottake />
													<lognote />
													<good>FALSE</good>
												</logginginfo>
												<labels>
													<label2 />
												</labels>
												<comments>
													<mastercomment1 />
													<mastercomment2 />
													<mastercomment3 />
													<mastercomment4 />
												</comments>
												<file id="ArmA 3 2020.11.28 - 21.12.26.149">
													<name>ArmA 3 2020.11.28 - 21.12.26.149.mp4</name>
													<pathurl>file://localhost/F:/AMVS Russia/NaturaDestruction/PRPACK6/ArmA 3 2020.11.28 - 21.12.26.149.mp4</pathurl>
													<rate>
														<timebase>60</timebase>
														<ntsc>FALSE</ntsc>
													</rate>
													<duration>533</duration>
													<timecode>
														<rate>
															<timebase>60</timebase>
															<ntsc>FALSE</ntsc>
														</rate>
														<frame>0</frame>
														<displayformat>NDF</displayformat>
														<source>source</source>
													</timecode>
													<media>
														<video>
															<duration>533</duration>
															<samplecharacteristics>
																<width>1920</width>
																<height>1080</height>
															</samplecharacteristics>
														</video>
														<audio>
															<samplecharacteristics>
																<samplerate>48000</samplerate>
																<depth>32</depth>
															</samplecharacteristics>
															<channelcount>1</channelcount>
														</audio>
														<audio>
															<samplecharacteristics>
																<samplerate>48000</samplerate>
																<depth>32</depth>
															</samplecharacteristics>
															<channelcount>1</channelcount>
														</audio>
													</media>
												</file>
												<sourcetrack>
													<mediatype>video</mediatype>
												</sourcetrack>
												<fielddominance>none</fielddominance>
											</clipitem>
											<enabled>TRUE</enabled>
											<locked>FALSE</locked>
										</track>
									</video>
									<audio>
										<track>
											<clipitem id="ArmA 3 2020.11.28 - 21.12.26.149.mp42">
												<name>ArmA 3 2020.11.28 - 21.12.26.149.mp4</name>
												<duration>533</duration>
												<rate>
													<ntsc>TRUE</ntsc>
													<timebase>24</timebase>
												</rate>
												<in>0</in>
												<out>533</out>
												<start>0</start>
												<end>533</end>
												<masterclipid>ArmA 3 2020.11.28 - 21.12.26.149.mp4</masterclipid>
												<logginginfo>
													<scene />
													<shottake />
													<lognote />
													<good>FALSE</good>
												</logginginfo>
												<labels>
													<label2 />
												</labels>
												<comments>
													<mastercomment1 />
													<mastercomment2 />
													<mastercomment3 />
													<mastercomment4 />
												</comments>
												<file id="ArmA 3 2020.11.28 - 21.12.26.149" />
												<sourcetrack>
													<mediatype>audio</mediatype>
												</sourcetrack>
											</clipitem>
											<enabled>TRUE</enabled>
											<locked>FALSE</locked>
										</track>
										<track>
											<clipitem id="ArmA 3 2020.11.28 - 21.12.26.149.mp43">
												<name>ArmA 3 2020.11.28 - 21.12.26.149.mp4</name>
												<duration>533</duration>
												<rate>
													<ntsc>TRUE</ntsc>
													<timebase>24</timebase>
												</rate>
												<in>0</in>
												<out>533</out>
												<start>0</start>
												<end>533</end>
												<masterclipid>ArmA 3 2020.11.28 - 21.12.26.149.mp4</masterclipid>
												<logginginfo>
													<scene />
													<shottake />
													<lognote />
													<good>FALSE</good>
												</logginginfo>
												<labels>
													<label2 />
												</labels>
												<comments>
													<mastercomment1 />
													<mastercomment2 />
													<mastercomment3 />
													<mastercomment4 />
												</comments>
												<file id="ArmA 3 2020.11.28 - 21.12.26.149" />
												<sourcetrack>
													<mediatype>audio</mediatype>
												</sourcetrack>
											</clipitem>
											<enabled>TRUE</enabled>
											<locked>FALSE</locked>
										</track>
									</audio>
								</media>
							</clip>
							<clip id="ArmA 3 2020.11.28 - 21.13.10.150.mp4">
								<updatebehavior>add</updatebehavior>
								<name>ArmA 3 2020.11.28 - 21.13.10.150.mp4</name>
								<duration>803</duration>
								<rate>
									<ntsc>TRUE</ntsc>
									<timebase>60</timebase>
								</rate>
								<in>-1</in>
								<out>-1</out>
								<masterclipid>ArmA 3 2020.11.28 - 21.13.10.150.mp4</masterclipid>
								<ismasterclip>TRUE</ismasterclip>
								<logginginfo>
									<scene />
									<shottake />
									<lognote />
									<good>FALSE</good>
								</logginginfo>
								<labels>
									<label2 />
								</labels>
								<comments>
									<mastercomment1 />
									<mastercomment2 />
									<mastercomment3 />
									<mastercomment4 />
								</comments>
								<media>
									<video>
										<track>
											<clipitem id="ArmA 3 2020.11.28 - 21.13.10.150.mp41">
												<name>ArmA 3 2020.11.28 - 21.13.10.150.mp4</name>
												<duration>803</duration>
												<rate>
													<ntsc>TRUE</ntsc>
													<timebase>60</timebase>
												</rate>
												<in>0</in>
												<out>803</out>
												<start>0</start>
												<end>803</end>
												<pixelaspectratio>Square</pixelaspectratio>
												<anamorphic>FALSE</anamorphic>
												<alphatype>none</alphatype>
												<masterclipid>ArmA 3 2020.11.28 - 21.13.10.150.mp4</masterclipid>
												<logginginfo>
													<scene />
													<shottake />
													<lognote />
													<good>FALSE</good>
												</logginginfo>
												<labels>
													<label2 />
												</labels>
												<comments>
													<mastercomment1 />
													<mastercomment2 />
													<mastercomment3 />
													<mastercomment4 />
												</comments>
												<file id="ArmA 3 2020.11.28 - 21.13.10.150">
													<name>ArmA 3 2020.11.28 - 21.13.10.150.mp4</name>
													<pathurl>file://localhost/F:/AMVS Russia/NaturaDestruction/PRPACK5/ArmA 3 2020.11.28 - 21.13.10.150.mp4</pathurl>
													<rate>
														<timebase>60</timebase>
														<ntsc>TRUE</ntsc>
													</rate>
													<duration>803</duration>
													<timecode>
														<rate>
															<timebase>60</timebase>
															<ntsc>TRUE</ntsc>
														</rate>
														<frame>0</frame>
														<displayformat>DF</displayformat>
														<source>source</source>
													</timecode>
													<media>
														<video>
															<duration>803</duration>
															<samplecharacteristics>
																<width>1920</width>
																<height>1080</height>
															</samplecharacteristics>
														</video>
														<audio>
															<samplecharacteristics>
																<samplerate>48000</samplerate>
																<depth>32</depth>
															</samplecharacteristics>
															<channelcount>1</channelcount>
														</audio>
														<audio>
															<samplecharacteristics>
																<samplerate>48000</samplerate>
																<depth>32</depth>
															</samplecharacteristics>
															<channelcount>1</channelcount>
														</audio>
													</media>
												</file>
												<sourcetrack>
													<mediatype>video</mediatype>
												</sourcetrack>
												<fielddominance>none</fielddominance>
											</clipitem>
											<enabled>TRUE</enabled>
											<locked>FALSE</locked>
										</track>
									</video>
									<audio>
										<track>
											<clipitem id="ArmA 3 2020.11.28 - 21.13.10.150.mp42">
												<name>ArmA 3 2020.11.28 - 21.13.10.150.mp4</name>
												<duration>803</duration>
												<rate>
													<ntsc>TRUE</ntsc>
													<timebase>24</timebase>
												</rate>
												<in>0</in>
												<out>803</out>
												<start>0</start>
												<end>803</end>
												<masterclipid>ArmA 3 2020.11.28 - 21.13.10.150.mp4</masterclipid>
												<logginginfo>
													<scene />
													<shottake />
													<lognote />
													<good>FALSE</good>
												</logginginfo>
												<labels>
													<label2 />
												</labels>
												<comments>
													<mastercomment1 />
													<mastercomment2 />
													<mastercomment3 />
													<mastercomment4 />
												</comments>
												<file id="ArmA 3 2020.11.28 - 21.13.10.150" />
												<sourcetrack>
													<mediatype>audio</mediatype>
												</sourcetrack>
											</clipitem>
											<enabled>TRUE</enabled>
											<locked>FALSE</locked>
										</track>
										<track>
											<clipitem id="ArmA 3 2020.11.28 - 21.13.10.150.mp43">
												<name>ArmA 3 2020.11.28 - 21.13.10.150.mp4</name>
												<duration>803</duration>
												<rate>
													<ntsc>TRUE</ntsc>
													<timebase>24</timebase>
												</rate>
												<in>0</in>
												<out>803</out>
												<start>0</start>
												<end>803</end>
												<masterclipid>ArmA 3 2020.11.28 - 21.13.10.150.mp4</masterclipid>
												<logginginfo>
													<scene />
													<shottake />
													<lognote />
													<good>FALSE</good>
												</logginginfo>
												<labels>
													<label2 />
												</labels>
												<comments>
													<mastercomment1 />
													<mastercomment2 />
													<mastercomment3 />
													<mastercomment4 />
												</comments>
												<file id="ArmA 3 2020.11.28 - 21.13.10.150" />
												<sourcetrack>
													<mediatype>audio</mediatype>
												</sourcetrack>
											</clipitem>
											<enabled>TRUE</enabled>
											<locked>FALSE</locked>
										</track>
									</audio>
								</media>
							</clip>
							<clip id="ArmA 3 2020.11.28 - 21.15.17.151.mp4">
								<updatebehavior>add</updatebehavior>
								<name>ArmA 3 2020.11.28 - 21.15.17.151.mp4</name>
								<duration>1024</duration>
								<rate>
									<ntsc>FALSE</ntsc>
									<timebase>60</timebase>
								</rate>
								<in>-1</in>
								<out>-1</out>
								<masterclipid>ArmA 3 2020.11.28 - 21.15.17.151.mp4</masterclipid>
								<ismasterclip>TRUE</ismasterclip>
								<logginginfo>
									<scene />
									<shottake />
									<lognote />
									<good>FALSE</good>
								</logginginfo>
								<labels>
									<label2 />
								</labels>
								<comments>
									<mastercomment1 />
									<mastercomment2 />
									<mastercomment3 />
									<mastercomment4 />
								</comments>
								<media>
									<video>
										<track>
											<clipitem id="ArmA 3 2020.11.28 - 21.15.17.151.mp41">
												<name>ArmA 3 2020.11.28 - 21.15.17.151.mp4</name>
												<duration>1024</duration>
												<rate>
													<ntsc>FALSE</ntsc>
													<timebase>60</timebase>
												</rate>
												<in>0</in>
												<out>1024</out>
												<start>0</start>
												<end>1024</end>
												<pixelaspectratio>Square</pixelaspectratio>
												<anamorphic>FALSE</anamorphic>
												<alphatype>none</alphatype>
												<masterclipid>ArmA 3 2020.11.28 - 21.15.17.151.mp4</masterclipid>
												<logginginfo>
													<scene />
													<shottake />
													<lognote />
													<good>FALSE</good>
												</logginginfo>
												<labels>
													<label2 />
												</labels>
												<comments>
													<mastercomment1 />
													<mastercomment2 />
													<mastercomment3 />
													<mastercomment4 />
												</comments>
												<file id="ArmA 3 2020.11.28 - 21.15.17.151">
													<name>ArmA 3 2020.11.28 - 21.15.17.151.mp4</name>
													<pathurl>file://localhost/F:/AMVS Russia/NaturaDestruction/PRPACK4/ArmA 3 2020.11.28 - 21.15.17.151.mp4</pathurl>
													<rate>
														<timebase>60</timebase>
														<ntsc>FALSE</ntsc>
													</rate>
													<duration>1024</duration>
													<timecode>
														<rate>
															<timebase>60</timebase>
															<ntsc>FALSE</ntsc>
														</rate>
														<frame>0</frame>
														<displayformat>NDF</displayformat>
														<source>source</source>
													</timecode>
													<media>
														<video>
															<duration>1024</duration>
															<samplecharacteristics>
																<width>1920</width>
																<height>1080</height>
															</samplecharacteristics>
														</video>
														<audio>
															<samplecharacteristics>
																<samplerate>48000</samplerate>
																<depth>32</depth>
															</samplecharacteristics>
															<channelcount>1</channelcount>
														</audio>
														<audio>
															<samplecharacteristics>
																<samplerate>48000</samplerate>
																<depth>32</depth>
															</samplecharacteristics>
															<channelcount>1</channelcount>
														</audio>
													</media>
												</file>
												<sourcetrack>
													<mediatype>video</mediatype>
												</sourcetrack>
												<fielddominance>none</fielddominance>
											</clipitem>
											<enabled>TRUE</enabled>
											<locked>FALSE</locked>
										</track>
									</video>
									<audio>
										<track>
											<clipitem id="ArmA 3 2020.11.28 - 21.15.17.151.mp42">
												<name>ArmA 3 2020.11.28 - 21.15.17.151.mp4</name>
												<duration>1024</duration>
												<rate>
													<ntsc>TRUE</ntsc>
													<timebase>24</timebase>
												</rate>
												<in>0</in>
												<out>1024</out>
												<start>0</start>
												<end>1024</end>
												<masterclipid>ArmA 3 2020.11.28 - 21.15.17.151.mp4</masterclipid>
												<logginginfo>
													<scene />
													<shottake />
													<lognote />
													<good>FALSE</good>
												</logginginfo>
												<labels>
													<label2 />
												</labels>
												<comments>
													<mastercomment1 />
													<mastercomment2 />
													<mastercomment3 />
													<mastercomment4 />
												</comments>
												<file id="ArmA 3 2020.11.28 - 21.15.17.151" />
												<sourcetrack>
													<mediatype>audio</mediatype>
												</sourcetrack>
											</clipitem>
											<enabled>TRUE</enabled>
											<locked>FALSE</locked>
										</track>
										<track>
											<clipitem id="ArmA 3 2020.11.28 - 21.15.17.151.mp43">
												<name>ArmA 3 2020.11.28 - 21.15.17.151.mp4</name>
												<duration>1024</duration>
												<rate>
													<ntsc>TRUE</ntsc>
													<timebase>24</timebase>
												</rate>
												<in>0</in>
												<out>1024</out>
												<start>0</start>
												<end>1024</end>
												<masterclipid>ArmA 3 2020.11.28 - 21.15.17.151.mp4</masterclipid>
												<logginginfo>
													<scene />
													<shottake />
													<lognote />
													<good>FALSE</good>
												</logginginfo>
												<labels>
													<label2 />
												</labels>
												<comments>
													<mastercomment1 />
													<mastercomment2 />
													<mastercomment3 />
													<mastercomment4 />
												</comments>
												<file id="ArmA 3 2020.11.28 - 21.15.17.151" />
												<sourcetrack>
													<mediatype>audio</mediatype>
												</sourcetrack>
											</clipitem>
											<enabled>TRUE</enabled>
											<locked>FALSE</locked>
										</track>
									</audio>
								</media>
							</clip>
							<clip id="ArmA 3 2020.11.28 - 21.16.08.152.mp4">
								<updatebehavior>add</updatebehavior>
								<name>ArmA 3 2020.11.28 - 21.16.08.152.mp4</name>
								<duration>500</duration>
								<rate>
									<ntsc>TRUE</ntsc>
									<timebase>60</timebase>
								</rate>
								<in>-1</in>
								<out>-1</out>
								<masterclipid>ArmA 3 2020.11.28 - 21.16.08.152.mp4</masterclipid>
								<ismasterclip>TRUE</ismasterclip>
								<logginginfo>
									<scene />
									<shottake />
									<lognote />
									<good>FALSE</good>
								</logginginfo>
								<labels>
									<label2 />
								</labels>
								<comments>
									<mastercomment1 />
									<mastercomment2 />
									<mastercomment3 />
									<mastercomment4 />
								</comments>
								<media>
									<video>
										<track>
											<clipitem id="ArmA 3 2020.11.28 - 21.16.08.152.mp41">
												<name>ArmA 3 2020.11.28 - 21.16.08.152.mp4</name>
												<duration>500</duration>
												<rate>
													<ntsc>TRUE</ntsc>
													<timebase>60</timebase>
												</rate>
												<in>0</in>
												<out>500</out>
												<start>0</start>
												<end>500</end>
												<pixelaspectratio>Square</pixelaspectratio>
												<anamorphic>FALSE</anamorphic>
												<alphatype>none</alphatype>
												<masterclipid>ArmA 3 2020.11.28 - 21.16.08.152.mp4</masterclipid>
												<logginginfo>
													<scene />
													<shottake />
													<lognote />
													<good>FALSE</good>
												</logginginfo>
												<labels>
													<label2 />
												</labels>
												<comments>
													<mastercomment1 />
													<mastercomment2 />
													<mastercomment3 />
													<mastercomment4 />
												</comments>
												<file id="ArmA 3 2020.11.28 - 21.16.08.152">
													<name>ArmA 3 2020.11.28 - 21.16.08.152.mp4</name>
													<pathurl>file://localhost/F:/AMVS Russia/NaturaDestruction/PRPACK6/ArmA 3 2020.11.28 - 21.16.08.152.mp4</pathurl>
													<rate>
														<timebase>60</timebase>
														<ntsc>TRUE</ntsc>
													</rate>
													<duration>500</duration>
													<timecode>
														<rate>
															<timebase>60</timebase>
															<ntsc>TRUE</ntsc>
														</rate>
														<frame>0</frame>
														<displayformat>DF</displayformat>
														<source>source</source>
													</timecode>
													<media>
														<video>
															<duration>500</duration>
															<samplecharacteristics>
																<width>1920</width>
																<height>1080</height>
															</samplecharacteristics>
														</video>
														<audio>
															<samplecharacteristics>
																<samplerate>48000</samplerate>
																<depth>32</depth>
															</samplecharacteristics>
															<channelcount>1</channelcount>
														</audio>
														<audio>
															<samplecharacteristics>
																<samplerate>48000</samplerate>
																<depth>32</depth>
															</samplecharacteristics>
															<channelcount>1</channelcount>
														</audio>
													</media>
												</file>
												<sourcetrack>
													<mediatype>video</mediatype>
												</sourcetrack>
												<fielddominance>none</fielddominance>
											</clipitem>
											<enabled>TRUE</enabled>
											<locked>FALSE</locked>
										</track>
									</video>
									<audio>
										<track>
											<clipitem id="ArmA 3 2020.11.28 - 21.16.08.152.mp42">
												<name>ArmA 3 2020.11.28 - 21.16.08.152.mp4</name>
												<duration>500</duration>
												<rate>
													<ntsc>TRUE</ntsc>
													<timebase>24</timebase>
												</rate>
												<in>0</in>
												<out>500</out>
												<start>0</start>
												<end>500</end>
												<masterclipid>ArmA 3 2020.11.28 - 21.16.08.152.mp4</masterclipid>
												<logginginfo>
													<scene />
													<shottake />
													<lognote />
													<good>FALSE</good>
												</logginginfo>
												<labels>
													<label2 />
												</labels>
												<comments>
													<mastercomment1 />
													<mastercomment2 />
													<mastercomment3 />
													<mastercomment4 />
												</comments>
												<file id="ArmA 3 2020.11.28 - 21.16.08.152" />
												<sourcetrack>
													<mediatype>audio</mediatype>
												</sourcetrack>
											</clipitem>
											<enabled>TRUE</enabled>
											<locked>FALSE</locked>
										</track>
										<track>
											<clipitem id="ArmA 3 2020.11.28 - 21.16.08.152.mp43">
												<name>ArmA 3 2020.11.28 - 21.16.08.152.mp4</name>
												<duration>500</duration>
												<rate>
													<ntsc>TRUE</ntsc>
													<timebase>24</timebase>
												</rate>
												<in>0</in>
												<out>500</out>
												<start>0</start>
												<end>500</end>
												<masterclipid>ArmA 3 2020.11.28 - 21.16.08.152.mp4</masterclipid>
												<logginginfo>
													<scene />
													<shottake />
													<lognote />
													<good>FALSE</good>
												</logginginfo>
												<labels>
													<label2 />
												</labels>
												<comments>
													<mastercomment1 />
													<mastercomment2 />
													<mastercomment3 />
													<mastercomment4 />
												</comments>
												<file id="ArmA 3 2020.11.28 - 21.16.08.152" />
												<sourcetrack>
													<mediatype>audio</mediatype>
												</sourcetrack>
											</clipitem>
											<enabled>TRUE</enabled>
											<locked>FALSE</locked>
										</track>
									</audio>
								</media>
							</clip>
							<clip id="ArmA 3 2020.11.28 - 21.16.44.153.mp4">
								<updatebehavior>add</updatebehavior>
								<name>ArmA 3 2020.11.28 - 21.16.44.153.mp4</name>
								<duration>1280</duration>
								<rate>
									<ntsc>FALSE</ntsc>
									<timebase>60</timebase>
								</rate>
								<in>-1</in>
								<out>-1</out>
								<masterclipid>ArmA 3 2020.11.28 - 21.16.44.153.mp4</masterclipid>
								<ismasterclip>TRUE</ismasterclip>
								<logginginfo>
									<scene />
									<shottake />
									<lognote />
									<good>FALSE</good>
								</logginginfo>
								<labels>
									<label2 />
								</labels>
								<comments>
									<mastercomment1 />
									<mastercomment2 />
									<mastercomment3 />
									<mastercomment4 />
								</comments>
								<media>
									<video>
										<track>
											<clipitem id="ArmA 3 2020.11.28 - 21.16.44.153.mp41">
												<name>ArmA 3 2020.11.28 - 21.16.44.153.mp4</name>
												<duration>1280</duration>
												<rate>
													<ntsc>FALSE</ntsc>
													<timebase>60</timebase>
												</rate>
												<in>0</in>
												<out>1280</out>
												<start>0</start>
												<end>1280</end>
												<pixelaspectratio>Square</pixelaspectratio>
												<anamorphic>FALSE</anamorphic>
												<alphatype>none</alphatype>
												<masterclipid>ArmA 3 2020.11.28 - 21.16.44.153.mp4</masterclipid>
												<logginginfo>
													<scene />
													<shottake />
													<lognote />
													<good>FALSE</good>
												</logginginfo>
												<labels>
													<label2 />
												</labels>
												<comments>
													<mastercomment1 />
													<mastercomment2 />
													<mastercomment3 />
													<mastercomment4 />
												</comments>
												<file id="ArmA 3 2020.11.28 - 21.16.44.153">
													<name>ArmA 3 2020.11.28 - 21.16.44.153.mp4</name>
													<pathurl>file://localhost/F:/AMVS Russia/NaturaDestruction/PRPACK4/ArmA 3 2020.11.28 - 21.16.44.153.mp4</pathurl>
													<rate>
														<timebase>60</timebase>
														<ntsc>FALSE</ntsc>
													</rate>
													<duration>1280</duration>
													<timecode>
														<rate>
															<timebase>60</timebase>
															<ntsc>FALSE</ntsc>
														</rate>
														<frame>0</frame>
														<displayformat>NDF</displayformat>
														<source>source</source>
													</timecode>
													<media>
														<video>
															<duration>1280</duration>
															<samplecharacteristics>
																<width>1920</width>
																<height>1080</height>
															</samplecharacteristics>
														</video>
														<audio>
															<samplecharacteristics>
																<samplerate>48000</samplerate>
																<depth>32</depth>
															</samplecharacteristics>
															<channelcount>1</channelcount>
														</audio>
														<audio>
															<samplecharacteristics>
																<samplerate>48000</samplerate>
																<depth>32</depth>
															</samplecharacteristics>
															<channelcount>1</channelcount>
														</audio>
													</media>
												</file>
												<sourcetrack>
													<mediatype>video</mediatype>
												</sourcetrack>
												<fielddominance>none</fielddominance>
											</clipitem>
											<enabled>TRUE</enabled>
											<locked>FALSE</locked>
										</track>
									</video>
									<audio>
										<track>
											<clipitem id="ArmA 3 2020.11.28 - 21.16.44.153.mp42">
												<name>ArmA 3 2020.11.28 - 21.16.44.153.mp4</name>
												<duration>1280</duration>
												<rate>
													<ntsc>TRUE</ntsc>
													<timebase>24</timebase>
												</rate>
												<in>0</in>
												<out>1280</out>
												<start>0</start>
												<end>1280</end>
												<masterclipid>ArmA 3 2020.11.28 - 21.16.44.153.mp4</masterclipid>
												<logginginfo>
													<scene />
													<shottake />
													<lognote />
													<good>FALSE</good>
												</logginginfo>
												<labels>
													<label2 />
												</labels>
												<comments>
													<mastercomment1 />
													<mastercomment2 />
													<mastercomment3 />
													<mastercomment4 />
												</comments>
												<file id="ArmA 3 2020.11.28 - 21.16.44.153" />
												<sourcetrack>
													<mediatype>audio</mediatype>
												</sourcetrack>
											</clipitem>
											<enabled>TRUE</enabled>
											<locked>FALSE</locked>
										</track>
										<track>
											<clipitem id="ArmA 3 2020.11.28 - 21.16.44.153.mp43">
												<name>ArmA 3 2020.11.28 - 21.16.44.153.mp4</name>
												<duration>1280</duration>
												<rate>
													<ntsc>TRUE</ntsc>
													<timebase>24</timebase>
												</rate>
												<in>0</in>
												<out>1280</out>
												<start>0</start>
												<end>1280</end>
												<masterclipid>ArmA 3 2020.11.28 - 21.16.44.153.mp4</masterclipid>
												<logginginfo>
													<scene />
													<shottake />
													<lognote />
													<good>FALSE</good>
												</logginginfo>
												<labels>
													<label2 />
												</labels>
												<comments>
													<mastercomment1 />
													<mastercomment2 />
													<mastercomment3 />
													<mastercomment4 />
												</comments>
												<file id="ArmA 3 2020.11.28 - 21.16.44.153" />
												<sourcetrack>
													<mediatype>audio</mediatype>
												</sourcetrack>
											</clipitem>
											<enabled>TRUE</enabled>
											<locked>FALSE</locked>
										</track>
									</audio>
								</media>
							</clip>
							<clip id="ArmA 3 2020.11.28 - 21.18.36.154.mp4">
								<updatebehavior>add</updatebehavior>
								<name>ArmA 3 2020.11.28 - 21.18.36.154.mp4</name>
								<duration>1079</duration>
								<rate>
									<ntsc>FALSE</ntsc>
									<timebase>60</timebase>
								</rate>
								<in>-1</in>
								<out>-1</out>
								<masterclipid>ArmA 3 2020.11.28 - 21.18.36.154.mp4</masterclipid>
								<ismasterclip>TRUE</ismasterclip>
								<logginginfo>
									<scene />
									<shottake />
									<lognote />
									<good>FALSE</good>
								</logginginfo>
								<labels>
									<label2 />
								</labels>
								<comments>
									<mastercomment1 />
									<mastercomment2 />
									<mastercomment3 />
									<mastercomment4 />
								</comments>
								<media>
									<video>
										<track>
											<clipitem id="ArmA 3 2020.11.28 - 21.18.36.154.mp41">
												<name>ArmA 3 2020.11.28 - 21.18.36.154.mp4</name>
												<duration>1079</duration>
												<rate>
													<ntsc>FALSE</ntsc>
													<timebase>60</timebase>
												</rate>
												<in>0</in>
												<out>1079</out>
												<start>0</start>
												<end>1079</end>
												<pixelaspectratio>Square</pixelaspectratio>
												<anamorphic>FALSE</anamorphic>
												<alphatype>none</alphatype>
												<masterclipid>ArmA 3 2020.11.28 - 21.18.36.154.mp4</masterclipid>
												<logginginfo>
													<scene />
													<shottake />
													<lognote />
													<good>FALSE</good>
												</logginginfo>
												<labels>
													<label2 />
												</labels>
												<comments>
													<mastercomment1 />
													<mastercomment2 />
													<mastercomment3 />
													<mastercomment4 />
												</comments>
												<file id="ArmA 3 2020.11.28 - 21.18.36.154">
													<name>ArmA 3 2020.11.28 - 21.18.36.154.mp4</name>
													<pathurl>file://localhost/F:/AMVS Russia/NaturaDestruction/PRPACK4/ArmA 3 2020.11.28 - 21.18.36.154.mp4</pathurl>
													<rate>
														<timebase>60</timebase>
														<ntsc>FALSE</ntsc>
													</rate>
													<duration>1079</duration>
													<timecode>
														<rate>
															<timebase>60</timebase>
															<ntsc>FALSE</ntsc>
														</rate>
														<frame>0</frame>
														<displayformat>NDF</displayformat>
														<source>source</source>
													</timecode>
													<media>
														<video>
															<duration>1079</duration>
															<samplecharacteristics>
																<width>1920</width>
																<height>1080</height>
															</samplecharacteristics>
														</video>
														<audio>
															<samplecharacteristics>
																<samplerate>48000</samplerate>
																<depth>32</depth>
															</samplecharacteristics>
															<channelcount>1</channelcount>
														</audio>
														<audio>
															<samplecharacteristics>
																<samplerate>48000</samplerate>
																<depth>32</depth>
															</samplecharacteristics>
															<channelcount>1</channelcount>
														</audio>
													</media>
												</file>
												<sourcetrack>
													<mediatype>video</mediatype>
												</sourcetrack>
												<fielddominance>none</fielddominance>
											</clipitem>
											<enabled>TRUE</enabled>
											<locked>FALSE</locked>
										</track>
									</video>
									<audio>
										<track>
											<clipitem id="ArmA 3 2020.11.28 - 21.18.36.154.mp42">
												<name>ArmA 3 2020.11.28 - 21.18.36.154.mp4</name>
												<duration>1079</duration>
												<rate>
													<ntsc>TRUE</ntsc>
													<timebase>24</timebase>
												</rate>
												<in>0</in>
												<out>1079</out>
												<start>0</start>
												<end>1079</end>
												<masterclipid>ArmA 3 2020.11.28 - 21.18.36.154.mp4</masterclipid>
												<logginginfo>
													<scene />
													<shottake />
													<lognote />
													<good>FALSE</good>
												</logginginfo>
												<labels>
													<label2 />
												</labels>
												<comments>
													<mastercomment1 />
													<mastercomment2 />
													<mastercomment3 />
													<mastercomment4 />
												</comments>
												<file id="ArmA 3 2020.11.28 - 21.18.36.154" />
												<sourcetrack>
													<mediatype>audio</mediatype>
												</sourcetrack>
											</clipitem>
											<enabled>TRUE</enabled>
											<locked>FALSE</locked>
										</track>
										<track>
											<clipitem id="ArmA 3 2020.11.28 - 21.18.36.154.mp43">
												<name>ArmA 3 2020.11.28 - 21.18.36.154.mp4</name>
												<duration>1079</duration>
												<rate>
													<ntsc>TRUE</ntsc>
													<timebase>24</timebase>
												</rate>
												<in>0</in>
												<out>1079</out>
												<start>0</start>
												<end>1079</end>
												<masterclipid>ArmA 3 2020.11.28 - 21.18.36.154.mp4</masterclipid>
												<logginginfo>
													<scene />
													<shottake />
													<lognote />
													<good>FALSE</good>
												</logginginfo>
												<labels>
													<label2 />
												</labels>
												<comments>
													<mastercomment1 />
													<mastercomment2 />
													<mastercomment3 />
													<mastercomment4 />
												</comments>
												<file id="ArmA 3 2020.11.28 - 21.18.36.154" />
												<sourcetrack>
													<mediatype>audio</mediatype>
												</sourcetrack>
											</clipitem>
											<enabled>TRUE</enabled>
											<locked>FALSE</locked>
										</track>
									</audio>
								</media>
							</clip>
							<clip id="ArmA 3 2020.11.28 - 21.21.45.155.mp4">
								<updatebehavior>add</updatebehavior>
								<name>ArmA 3 2020.11.28 - 21.21.45.155.mp4</name>
								<duration>458</duration>
								<rate>
									<ntsc>FALSE</ntsc>
									<timebase>60</timebase>
								</rate>
								<in>-1</in>
								<out>-1</out>
								<masterclipid>ArmA 3 2020.11.28 - 21.21.45.155.mp4</masterclipid>
								<ismasterclip>TRUE</ismasterclip>
								<logginginfo>
									<scene />
									<shottake />
									<lognote />
									<good>FALSE</good>
								</logginginfo>
								<labels>
									<label2 />
								</labels>
								<comments>
									<mastercomment1 />
									<mastercomment2 />
									<mastercomment3 />
									<mastercomment4 />
								</comments>
								<media>
									<video>
										<track>
											<clipitem id="ArmA 3 2020.11.28 - 21.21.45.155.mp41">
												<name>ArmA 3 2020.11.28 - 21.21.45.155.mp4</name>
												<duration>458</duration>
												<rate>
													<ntsc>FALSE</ntsc>
													<timebase>60</timebase>
												</rate>
												<in>0</in>
												<out>458</out>
												<start>0</start>
												<end>458</end>
												<pixelaspectratio>Square</pixelaspectratio>
												<anamorphic>FALSE</anamorphic>
												<alphatype>none</alphatype>
												<masterclipid>ArmA 3 2020.11.28 - 21.21.45.155.mp4</masterclipid>
												<logginginfo>
													<scene />
													<shottake />
													<lognote />
													<good>FALSE</good>
												</logginginfo>
												<labels>
													<label2 />
												</labels>
												<comments>
													<mastercomment1 />
													<mastercomment2 />
													<mastercomment3 />
													<mastercomment4 />
												</comments>
												<file id="ArmA 3 2020.11.28 - 21.21.45.155">
													<name>ArmA 3 2020.11.28 - 21.21.45.155.mp4</name>
													<pathurl>file://localhost/F:/AMVS Russia/NaturaDestruction/PRPACK6/ArmA 3 2020.11.28 - 21.21.45.155.mp4</pathurl>
													<rate>
														<timebase>60</timebase>
														<ntsc>FALSE</ntsc>
													</rate>
													<duration>458</duration>
													<timecode>
														<rate>
															<timebase>60</timebase>
															<ntsc>FALSE</ntsc>
														</rate>
														<frame>0</frame>
														<displayformat>NDF</displayformat>
														<source>source</source>
													</timecode>
													<media>
														<video>
															<duration>458</duration>
															<samplecharacteristics>
																<width>1920</width>
																<height>1080</height>
															</samplecharacteristics>
														</video>
														<audio>
															<samplecharacteristics>
																<samplerate>48000</samplerate>
																<depth>32</depth>
															</samplecharacteristics>
															<channelcount>1</channelcount>
														</audio>
														<audio>
															<samplecharacteristics>
																<samplerate>48000</samplerate>
																<depth>32</depth>
															</samplecharacteristics>
															<channelcount>1</channelcount>
														</audio>
													</media>
												</file>
												<sourcetrack>
													<mediatype>video</mediatype>
												</sourcetrack>
												<fielddominance>none</fielddominance>
											</clipitem>
											<enabled>TRUE</enabled>
											<locked>FALSE</locked>
										</track>
									</video>
									<audio>
										<track>
											<clipitem id="ArmA 3 2020.11.28 - 21.21.45.155.mp42">
												<name>ArmA 3 2020.11.28 - 21.21.45.155.mp4</name>
												<duration>458</duration>
												<rate>
													<ntsc>TRUE</ntsc>
													<timebase>24</timebase>
												</rate>
												<in>0</in>
												<out>458</out>
												<start>0</start>
												<end>458</end>
												<masterclipid>ArmA 3 2020.11.28 - 21.21.45.155.mp4</masterclipid>
												<logginginfo>
													<scene />
													<shottake />
													<lognote />
													<good>FALSE</good>
												</logginginfo>
												<labels>
													<label2 />
												</labels>
												<comments>
													<mastercomment1 />
													<mastercomment2 />
													<mastercomment3 />
													<mastercomment4 />
												</comments>
												<file id="ArmA 3 2020.11.28 - 21.21.45.155" />
												<sourcetrack>
													<mediatype>audio</mediatype>
												</sourcetrack>
											</clipitem>
											<enabled>TRUE</enabled>
											<locked>FALSE</locked>
										</track>
										<track>
											<clipitem id="ArmA 3 2020.11.28 - 21.21.45.155.mp43">
												<name>ArmA 3 2020.11.28 - 21.21.45.155.mp4</name>
												<duration>458</duration>
												<rate>
													<ntsc>TRUE</ntsc>
													<timebase>24</timebase>
												</rate>
												<in>0</in>
												<out>458</out>
												<start>0</start>
												<end>458</end>
												<masterclipid>ArmA 3 2020.11.28 - 21.21.45.155.mp4</masterclipid>
												<logginginfo>
													<scene />
													<shottake />
													<lognote />
													<good>FALSE</good>
												</logginginfo>
												<labels>
													<label2 />
												</labels>
												<comments>
													<mastercomment1 />
													<mastercomment2 />
													<mastercomment3 />
													<mastercomment4 />
												</comments>
												<file id="ArmA 3 2020.11.28 - 21.21.45.155" />
												<sourcetrack>
													<mediatype>audio</mediatype>
												</sourcetrack>
											</clipitem>
											<enabled>TRUE</enabled>
											<locked>FALSE</locked>
										</track>
									</audio>
								</media>
							</clip>
							<clip id="ArmA 3 2020.11.28 - 21.23.14.156.mp4">
								<updatebehavior>add</updatebehavior>
								<name>ArmA 3 2020.11.28 - 21.23.14.156.mp4</name>
								<duration>289</duration>
								<rate>
									<ntsc>FALSE</ntsc>
									<timebase>60</timebase>
								</rate>
								<in>-1</in>
								<out>-1</out>
								<masterclipid>ArmA 3 2020.11.28 - 21.23.14.156.mp4</masterclipid>
								<ismasterclip>TRUE</ismasterclip>
								<logginginfo>
									<scene />
									<shottake />
									<lognote />
									<good>FALSE</good>
								</logginginfo>
								<labels>
									<label2 />
								</labels>
								<comments>
									<mastercomment1 />
									<mastercomment2 />
									<mastercomment3 />
									<mastercomment4 />
								</comments>
								<media>
									<video>
										<track>
											<clipitem id="ArmA 3 2020.11.28 - 21.23.14.156.mp41">
												<name>ArmA 3 2020.11.28 - 21.23.14.156.mp4</name>
												<duration>289</duration>
												<rate>
													<ntsc>FALSE</ntsc>
													<timebase>60</timebase>
												</rate>
												<in>0</in>
												<out>289</out>
												<start>0</start>
												<end>289</end>
												<pixelaspectratio>Square</pixelaspectratio>
												<anamorphic>FALSE</anamorphic>
												<alphatype>none</alphatype>
												<masterclipid>ArmA 3 2020.11.28 - 21.23.14.156.mp4</masterclipid>
												<logginginfo>
													<scene />
													<shottake />
													<lognote />
													<good>FALSE</good>
												</logginginfo>
												<labels>
													<label2 />
												</labels>
												<comments>
													<mastercomment1 />
													<mastercomment2 />
													<mastercomment3 />
													<mastercomment4 />
												</comments>
												<file id="ArmA 3 2020.11.28 - 21.23.14.156">
													<name>ArmA 3 2020.11.28 - 21.23.14.156.mp4</name>
													<pathurl>file://localhost/F:/AMVS Russia/NaturaDestruction/PRPACK7/ArmA 3 2020.11.28 - 21.23.14.156.mp4</pathurl>
													<rate>
														<timebase>60</timebase>
														<ntsc>FALSE</ntsc>
													</rate>
													<duration>289</duration>
													<timecode>
														<rate>
															<timebase>60</timebase>
															<ntsc>FALSE</ntsc>
														</rate>
														<frame>0</frame>
														<displayformat>NDF</displayformat>
														<source>source</source>
													</timecode>
													<media>
														<video>
															<duration>289</duration>
															<samplecharacteristics>
																<width>1920</width>
																<height>1080</height>
															</samplecharacteristics>
														</video>
														<audio>
															<samplecharacteristics>
																<samplerate>48000</samplerate>
																<depth>32</depth>
															</samplecharacteristics>
															<channelcount>1</channelcount>
														</audio>
														<audio>
															<samplecharacteristics>
																<samplerate>48000</samplerate>
																<depth>32</depth>
															</samplecharacteristics>
															<channelcount>1</channelcount>
														</audio>
													</media>
												</file>
												<sourcetrack>
													<mediatype>video</mediatype>
												</sourcetrack>
												<fielddominance>none</fielddominance>
											</clipitem>
											<enabled>TRUE</enabled>
											<locked>FALSE</locked>
										</track>
									</video>
									<audio>
										<track>
											<clipitem id="ArmA 3 2020.11.28 - 21.23.14.156.mp42">
												<name>ArmA 3 2020.11.28 - 21.23.14.156.mp4</name>
												<duration>289</duration>
												<rate>
													<ntsc>TRUE</ntsc>
													<timebase>24</timebase>
												</rate>
												<in>0</in>
												<out>289</out>
												<start>0</start>
												<end>289</end>
												<masterclipid>ArmA 3 2020.11.28 - 21.23.14.156.mp4</masterclipid>
												<logginginfo>
													<scene />
													<shottake />
													<lognote />
													<good>FALSE</good>
												</logginginfo>
												<labels>
													<label2 />
												</labels>
												<comments>
													<mastercomment1 />
													<mastercomment2 />
													<mastercomment3 />
													<mastercomment4 />
												</comments>
												<file id="ArmA 3 2020.11.28 - 21.23.14.156" />
												<sourcetrack>
													<mediatype>audio</mediatype>
												</sourcetrack>
											</clipitem>
											<enabled>TRUE</enabled>
											<locked>FALSE</locked>
										</track>
										<track>
											<clipitem id="ArmA 3 2020.11.28 - 21.23.14.156.mp43">
												<name>ArmA 3 2020.11.28 - 21.23.14.156.mp4</name>
												<duration>289</duration>
												<rate>
													<ntsc>TRUE</ntsc>
													<timebase>24</timebase>
												</rate>
												<in>0</in>
												<out>289</out>
												<start>0</start>
												<end>289</end>
												<masterclipid>ArmA 3 2020.11.28 - 21.23.14.156.mp4</masterclipid>
												<logginginfo>
													<scene />
													<shottake />
													<lognote />
													<good>FALSE</good>
												</logginginfo>
												<labels>
													<label2 />
												</labels>
												<comments>
													<mastercomment1 />
													<mastercomment2 />
													<mastercomment3 />
													<mastercomment4 />
												</comments>
												<file id="ArmA 3 2020.11.28 - 21.23.14.156" />
												<sourcetrack>
													<mediatype>audio</mediatype>
												</sourcetrack>
											</clipitem>
											<enabled>TRUE</enabled>
											<locked>FALSE</locked>
										</track>
									</audio>
								</media>
							</clip>
							<clip id="ArmA 3 2020.11.28 - 21.23.42.157.mp4">
								<updatebehavior>add</updatebehavior>
								<name>ArmA 3 2020.11.28 - 21.23.42.157.mp4</name>
								<duration>161</duration>
								<rate>
									<ntsc>FALSE</ntsc>
									<timebase>60</timebase>
								</rate>
								<in>-1</in>
								<out>-1</out>
								<masterclipid>ArmA 3 2020.11.28 - 21.23.42.157.mp4</masterclipid>
								<ismasterclip>TRUE</ismasterclip>
								<logginginfo>
									<scene />
									<shottake />
									<lognote />
									<good>FALSE</good>
								</logginginfo>
								<labels>
									<label2 />
								</labels>
								<comments>
									<mastercomment1 />
									<mastercomment2 />
									<mastercomment3 />
									<mastercomment4 />
								</comments>
								<media>
									<video>
										<track>
											<clipitem id="ArmA 3 2020.11.28 - 21.23.42.157.mp41">
												<name>ArmA 3 2020.11.28 - 21.23.42.157.mp4</name>
												<duration>161</duration>
												<rate>
													<ntsc>FALSE</ntsc>
													<timebase>60</timebase>
												</rate>
												<in>0</in>
												<out>161</out>
												<start>0</start>
												<end>161</end>
												<pixelaspectratio>Square</pixelaspectratio>
												<anamorphic>FALSE</anamorphic>
												<alphatype>none</alphatype>
												<masterclipid>ArmA 3 2020.11.28 - 21.23.42.157.mp4</masterclipid>
												<logginginfo>
													<scene />
													<shottake />
													<lognote />
													<good>FALSE</good>
												</logginginfo>
												<labels>
													<label2 />
												</labels>
												<comments>
													<mastercomment1 />
													<mastercomment2 />
													<mastercomment3 />
													<mastercomment4 />
												</comments>
												<file id="ArmA 3 2020.11.28 - 21.23.42.157">
													<name>ArmA 3 2020.11.28 - 21.23.42.157.mp4</name>
													<pathurl>file://localhost/F:/AMVS Russia/NaturaDestruction/PRPACK7/ArmA 3 2020.11.28 - 21.23.42.157.mp4</pathurl>
													<rate>
														<timebase>60</timebase>
														<ntsc>FALSE</ntsc>
													</rate>
													<duration>161</duration>
													<timecode>
														<rate>
															<timebase>60</timebase>
															<ntsc>FALSE</ntsc>
														</rate>
														<frame>0</frame>
														<displayformat>NDF</displayformat>
														<source>source</source>
													</timecode>
													<media>
														<video>
															<duration>161</duration>
															<samplecharacteristics>
																<width>1920</width>
																<height>1080</height>
															</samplecharacteristics>
														</video>
														<audio>
															<samplecharacteristics>
																<samplerate>48000</samplerate>
																<depth>32</depth>
															</samplecharacteristics>
															<channelcount>1</channelcount>
														</audio>
														<audio>
															<samplecharacteristics>
																<samplerate>48000</samplerate>
																<depth>32</depth>
															</samplecharacteristics>
															<channelcount>1</channelcount>
														</audio>
													</media>
												</file>
												<sourcetrack>
													<mediatype>video</mediatype>
												</sourcetrack>
												<fielddominance>none</fielddominance>
											</clipitem>
											<enabled>TRUE</enabled>
											<locked>FALSE</locked>
										</track>
									</video>
									<audio>
										<track>
											<clipitem id="ArmA 3 2020.11.28 - 21.23.42.157.mp42">
												<name>ArmA 3 2020.11.28 - 21.23.42.157.mp4</name>
												<duration>161</duration>
												<rate>
													<ntsc>TRUE</ntsc>
													<timebase>24</timebase>
												</rate>
												<in>0</in>
												<out>161</out>
												<start>0</start>
												<end>161</end>
												<masterclipid>ArmA 3 2020.11.28 - 21.23.42.157.mp4</masterclipid>
												<logginginfo>
													<scene />
													<shottake />
													<lognote />
													<good>FALSE</good>
												</logginginfo>
												<labels>
													<label2 />
												</labels>
												<comments>
													<mastercomment1 />
													<mastercomment2 />
													<mastercomment3 />
													<mastercomment4 />
												</comments>
												<file id="ArmA 3 2020.11.28 - 21.23.42.157" />
												<sourcetrack>
													<mediatype>audio</mediatype>
												</sourcetrack>
											</clipitem>
											<enabled>TRUE</enabled>
											<locked>FALSE</locked>
										</track>
										<track>
											<clipitem id="ArmA 3 2020.11.28 - 21.23.42.157.mp43">
												<name>ArmA 3 2020.11.28 - 21.23.42.157.mp4</name>
												<duration>161</duration>
												<rate>
													<ntsc>TRUE</ntsc>
													<timebase>24</timebase>
												</rate>
												<in>0</in>
												<out>161</out>
												<start>0</start>
												<end>161</end>
												<masterclipid>ArmA 3 2020.11.28 - 21.23.42.157.mp4</masterclipid>
												<logginginfo>
													<scene />
													<shottake />
													<lognote />
													<good>FALSE</good>
												</logginginfo>
												<labels>
													<label2 />
												</labels>
												<comments>
													<mastercomment1 />
													<mastercomment2 />
													<mastercomment3 />
													<mastercomment4 />
												</comments>
												<file id="ArmA 3 2020.11.28 - 21.23.42.157" />
												<sourcetrack>
													<mediatype>audio</mediatype>
												</sourcetrack>
											</clipitem>
											<enabled>TRUE</enabled>
											<locked>FALSE</locked>
										</track>
									</audio>
								</media>
							</clip>
							<clip id="ArmA 3 2020.11.28 - 21.24.02.158.mp4">
								<updatebehavior>add</updatebehavior>
								<name>ArmA 3 2020.11.28 - 21.24.02.158.mp4</name>
								<duration>425</duration>
								<rate>
									<ntsc>TRUE</ntsc>
									<timebase>60</timebase>
								</rate>
								<in>-1</in>
								<out>-1</out>
								<masterclipid>ArmA 3 2020.11.28 - 21.24.02.158.mp4</masterclipid>
								<ismasterclip>TRUE</ismasterclip>
								<logginginfo>
									<scene />
									<shottake />
									<lognote />
									<good>FALSE</good>
								</logginginfo>
								<labels>
									<label2 />
								</labels>
								<comments>
									<mastercomment1 />
									<mastercomment2 />
									<mastercomment3 />
									<mastercomment4 />
								</comments>
								<media>
									<video>
										<track>
											<clipitem id="ArmA 3 2020.11.28 - 21.24.02.158.mp41">
												<name>ArmA 3 2020.11.28 - 21.24.02.158.mp4</name>
												<duration>425</duration>
												<rate>
													<ntsc>TRUE</ntsc>
													<timebase>60</timebase>
												</rate>
												<in>0</in>
												<out>425</out>
												<start>0</start>
												<end>425</end>
												<pixelaspectratio>Square</pixelaspectratio>
												<anamorphic>FALSE</anamorphic>
												<alphatype>none</alphatype>
												<masterclipid>ArmA 3 2020.11.28 - 21.24.02.158.mp4</masterclipid>
												<logginginfo>
													<scene />
													<shottake />
													<lognote />
													<good>FALSE</good>
												</logginginfo>
												<labels>
													<label2 />
												</labels>
												<comments>
													<mastercomment1 />
													<mastercomment2 />
													<mastercomment3 />
													<mastercomment4 />
												</comments>
												<file id="ArmA 3 2020.11.28 - 21.24.02.158">
													<name>ArmA 3 2020.11.28 - 21.24.02.158.mp4</name>
													<pathurl>file://localhost/F:/AMVS Russia/NaturaDestruction/PRPACK6/ArmA 3 2020.11.28 - 21.24.02.158.mp4</pathurl>
													<rate>
														<timebase>60</timebase>
														<ntsc>TRUE</ntsc>
													</rate>
													<duration>425</duration>
													<timecode>
														<rate>
															<timebase>60</timebase>
															<ntsc>TRUE</ntsc>
														</rate>
														<frame>0</frame>
														<displayformat>DF</displayformat>
														<source>source</source>
													</timecode>
													<media>
														<video>
															<duration>425</duration>
															<samplecharacteristics>
																<width>1920</width>
																<height>1080</height>
															</samplecharacteristics>
														</video>
														<audio>
															<samplecharacteristics>
																<samplerate>48000</samplerate>
																<depth>32</depth>
															</samplecharacteristics>
															<channelcount>1</channelcount>
														</audio>
														<audio>
															<samplecharacteristics>
																<samplerate>48000</samplerate>
																<depth>32</depth>
															</samplecharacteristics>
															<channelcount>1</channelcount>
														</audio>
													</media>
												</file>
												<sourcetrack>
													<mediatype>video</mediatype>
												</sourcetrack>
												<fielddominance>none</fielddominance>
											</clipitem>
											<enabled>TRUE</enabled>
											<locked>FALSE</locked>
										</track>
									</video>
									<audio>
										<track>
											<clipitem id="ArmA 3 2020.11.28 - 21.24.02.158.mp42">
												<name>ArmA 3 2020.11.28 - 21.24.02.158.mp4</name>
												<duration>425</duration>
												<rate>
													<ntsc>TRUE</ntsc>
													<timebase>24</timebase>
												</rate>
												<in>0</in>
												<out>425</out>
												<start>0</start>
												<end>425</end>
												<masterclipid>ArmA 3 2020.11.28 - 21.24.02.158.mp4</masterclipid>
												<logginginfo>
													<scene />
													<shottake />
													<lognote />
													<good>FALSE</good>
												</logginginfo>
												<labels>
													<label2 />
												</labels>
												<comments>
													<mastercomment1 />
													<mastercomment2 />
													<mastercomment3 />
													<mastercomment4 />
												</comments>
												<file id="ArmA 3 2020.11.28 - 21.24.02.158" />
												<sourcetrack>
													<mediatype>audio</mediatype>
												</sourcetrack>
											</clipitem>
											<enabled>TRUE</enabled>
											<locked>FALSE</locked>
										</track>
										<track>
											<clipitem id="ArmA 3 2020.11.28 - 21.24.02.158.mp43">
												<name>ArmA 3 2020.11.28 - 21.24.02.158.mp4</name>
												<duration>425</duration>
												<rate>
													<ntsc>TRUE</ntsc>
													<timebase>24</timebase>
												</rate>
												<in>0</in>
												<out>425</out>
												<start>0</start>
												<end>425</end>
												<masterclipid>ArmA 3 2020.11.28 - 21.24.02.158.mp4</masterclipid>
												<logginginfo>
													<scene />
													<shottake />
													<lognote />
													<good>FALSE</good>
												</logginginfo>
												<labels>
													<label2 />
												</labels>
												<comments>
													<mastercomment1 />
													<mastercomment2 />
													<mastercomment3 />
													<mastercomment4 />
												</comments>
												<file id="ArmA 3 2020.11.28 - 21.24.02.158" />
												<sourcetrack>
													<mediatype>audio</mediatype>
												</sourcetrack>
											</clipitem>
											<enabled>TRUE</enabled>
											<locked>FALSE</locked>
										</track>
									</audio>
								</media>
							</clip>
							<clip id="ArmA 3 2020.11.28 - 21.24.28.159.mp4">
								<updatebehavior>add</updatebehavior>
								<name>ArmA 3 2020.11.28 - 21.24.28.159.mp4</name>
								<duration>114</duration>
								<rate>
									<ntsc>FALSE</ntsc>
									<timebase>60</timebase>
								</rate>
								<in>-1</in>
								<out>-1</out>
								<masterclipid>ArmA 3 2020.11.28 - 21.24.28.159.mp4</masterclipid>
								<ismasterclip>TRUE</ismasterclip>
								<logginginfo>
									<scene />
									<shottake />
									<lognote />
									<good>FALSE</good>
								</logginginfo>
								<labels>
									<label2 />
								</labels>
								<comments>
									<mastercomment1 />
									<mastercomment2 />
									<mastercomment3 />
									<mastercomment4 />
								</comments>
								<media>
									<video>
										<track>
											<clipitem id="ArmA 3 2020.11.28 - 21.24.28.159.mp41">
												<name>ArmA 3 2020.11.28 - 21.24.28.159.mp4</name>
												<duration>114</duration>
												<rate>
													<ntsc>FALSE</ntsc>
													<timebase>60</timebase>
												</rate>
												<in>0</in>
												<out>114</out>
												<start>0</start>
												<end>114</end>
												<pixelaspectratio>Square</pixelaspectratio>
												<anamorphic>FALSE</anamorphic>
												<alphatype>none</alphatype>
												<masterclipid>ArmA 3 2020.11.28 - 21.24.28.159.mp4</masterclipid>
												<logginginfo>
													<scene />
													<shottake />
													<lognote />
													<good>FALSE</good>
												</logginginfo>
												<labels>
													<label2 />
												</labels>
												<comments>
													<mastercomment1 />
													<mastercomment2 />
													<mastercomment3 />
													<mastercomment4 />
												</comments>
												<file id="ArmA 3 2020.11.28 - 21.24.28.159">
													<name>ArmA 3 2020.11.28 - 21.24.28.159.mp4</name>
													<pathurl>file://localhost/F:/AMVS Russia/NaturaDestruction/PRPACK7/ArmA 3 2020.11.28 - 21.24.28.159.mp4</pathurl>
													<rate>
														<timebase>60</timebase>
														<ntsc>FALSE</ntsc>
													</rate>
													<duration>114</duration>
													<timecode>
														<rate>
															<timebase>60</timebase>
															<ntsc>FALSE</ntsc>
														</rate>
														<frame>0</frame>
														<displayformat>NDF</displayformat>
														<source>source</source>
													</timecode>
													<media>
														<video>
															<duration>114</duration>
															<samplecharacteristics>
																<width>1920</width>
																<height>1080</height>
															</samplecharacteristics>
														</video>
														<audio>
															<samplecharacteristics>
																<samplerate>48000</samplerate>
																<depth>32</depth>
															</samplecharacteristics>
															<channelcount>1</channelcount>
														</audio>
														<audio>
															<samplecharacteristics>
																<samplerate>48000</samplerate>
																<depth>32</depth>
															</samplecharacteristics>
															<channelcount>1</channelcount>
														</audio>
													</media>
												</file>
												<sourcetrack>
													<mediatype>video</mediatype>
												</sourcetrack>
												<fielddominance>none</fielddominance>
											</clipitem>
											<enabled>TRUE</enabled>
											<locked>FALSE</locked>
										</track>
									</video>
									<audio>
										<track>
											<clipitem id="ArmA 3 2020.11.28 - 21.24.28.159.mp42">
												<name>ArmA 3 2020.11.28 - 21.24.28.159.mp4</name>
												<duration>114</duration>
												<rate>
													<ntsc>TRUE</ntsc>
													<timebase>24</timebase>
												</rate>
												<in>0</in>
												<out>114</out>
												<start>0</start>
												<end>114</end>
												<masterclipid>ArmA 3 2020.11.28 - 21.24.28.159.mp4</masterclipid>
												<logginginfo>
													<scene />
													<shottake />
													<lognote />
													<good>FALSE</good>
												</logginginfo>
												<labels>
													<label2 />
												</labels>
												<comments>
													<mastercomment1 />
													<mastercomment2 />
													<mastercomment3 />
													<mastercomment4 />
												</comments>
												<file id="ArmA 3 2020.11.28 - 21.24.28.159" />
												<sourcetrack>
													<mediatype>audio</mediatype>
												</sourcetrack>
											</clipitem>
											<enabled>TRUE</enabled>
											<locked>FALSE</locked>
										</track>
										<track>
											<clipitem id="ArmA 3 2020.11.28 - 21.24.28.159.mp43">
												<name>ArmA 3 2020.11.28 - 21.24.28.159.mp4</name>
												<duration>114</duration>
												<rate>
													<ntsc>TRUE</ntsc>
													<timebase>24</timebase>
												</rate>
												<in>0</in>
												<out>114</out>
												<start>0</start>
												<end>114</end>
												<masterclipid>ArmA 3 2020.11.28 - 21.24.28.159.mp4</masterclipid>
												<logginginfo>
													<scene />
													<shottake />
													<lognote />
													<good>FALSE</good>
												</logginginfo>
												<labels>
													<label2 />
												</labels>
												<comments>
													<mastercomment1 />
													<mastercomment2 />
													<mastercomment3 />
													<mastercomment4 />
												</comments>
												<file id="ArmA 3 2020.11.28 - 21.24.28.159" />
												<sourcetrack>
													<mediatype>audio</mediatype>
												</sourcetrack>
											</clipitem>
											<enabled>TRUE</enabled>
											<locked>FALSE</locked>
										</track>
									</audio>
								</media>
							</clip>
							<clip id="ArmA 3 2020.11.28 - 21.24.48.160.mp4">
								<updatebehavior>add</updatebehavior>
								<name>ArmA 3 2020.11.28 - 21.24.48.160.mp4</name>
								<duration>2003</duration>
								<rate>
									<ntsc>FALSE</ntsc>
									<timebase>60</timebase>
								</rate>
								<in>-1</in>
								<out>-1</out>
								<masterclipid>ArmA 3 2020.11.28 - 21.24.48.160.mp4</masterclipid>
								<ismasterclip>TRUE</ismasterclip>
								<logginginfo>
									<scene />
									<shottake />
									<lognote />
									<good>FALSE</good>
								</logginginfo>
								<labels>
									<label2 />
								</labels>
								<comments>
									<mastercomment1 />
									<mastercomment2 />
									<mastercomment3 />
									<mastercomment4 />
								</comments>
								<media>
									<video>
										<track>
											<clipitem id="ArmA 3 2020.11.28 - 21.24.48.160.mp41">
												<name>ArmA 3 2020.11.28 - 21.24.48.160.mp4</name>
												<duration>2003</duration>
												<rate>
													<ntsc>FALSE</ntsc>
													<timebase>60</timebase>
												</rate>
												<in>0</in>
												<out>2003</out>
												<start>0</start>
												<end>2003</end>
												<pixelaspectratio>Square</pixelaspectratio>
												<anamorphic>FALSE</anamorphic>
												<alphatype>none</alphatype>
												<masterclipid>ArmA 3 2020.11.28 - 21.24.48.160.mp4</masterclipid>
												<logginginfo>
													<scene />
													<shottake />
													<lognote />
													<good>FALSE</good>
												</logginginfo>
												<labels>
													<label2 />
												</labels>
												<comments>
													<mastercomment1 />
													<mastercomment2 />
													<mastercomment3 />
													<mastercomment4 />
												</comments>
												<file id="ArmA 3 2020.11.28 - 21.24.48.160">
													<name>ArmA 3 2020.11.28 - 21.24.48.160.mp4</name>
													<pathurl>file://localhost/F:/AMVS Russia/NaturaDestruction/PRPACK2/ArmA 3 2020.11.28 - 21.24.48.160.mp4</pathurl>
													<rate>
														<timebase>60</timebase>
														<ntsc>FALSE</ntsc>
													</rate>
													<duration>2003</duration>
													<timecode>
														<rate>
															<timebase>60</timebase>
															<ntsc>FALSE</ntsc>
														</rate>
														<frame>0</frame>
														<displayformat>NDF</displayformat>
														<source>source</source>
													</timecode>
													<media>
														<video>
															<duration>2003</duration>
															<samplecharacteristics>
																<width>1920</width>
																<height>1080</height>
															</samplecharacteristics>
														</video>
														<audio>
															<samplecharacteristics>
																<samplerate>48000</samplerate>
																<depth>32</depth>
															</samplecharacteristics>
															<channelcount>1</channelcount>
														</audio>
														<audio>
															<samplecharacteristics>
																<samplerate>48000</samplerate>
																<depth>32</depth>
															</samplecharacteristics>
															<channelcount>1</channelcount>
														</audio>
													</media>
												</file>
												<sourcetrack>
													<mediatype>video</mediatype>
												</sourcetrack>
												<fielddominance>none</fielddominance>
											</clipitem>
											<enabled>TRUE</enabled>
											<locked>FALSE</locked>
										</track>
									</video>
									<audio>
										<track>
											<clipitem id="ArmA 3 2020.11.28 - 21.24.48.160.mp42">
												<name>ArmA 3 2020.11.28 - 21.24.48.160.mp4</name>
												<duration>2003</duration>
												<rate>
													<ntsc>TRUE</ntsc>
													<timebase>24</timebase>
												</rate>
												<in>0</in>
												<out>2003</out>
												<start>0</start>
												<end>2003</end>
												<masterclipid>ArmA 3 2020.11.28 - 21.24.48.160.mp4</masterclipid>
												<logginginfo>
													<scene />
													<shottake />
													<lognote />
													<good>FALSE</good>
												</logginginfo>
												<labels>
													<label2 />
												</labels>
												<comments>
													<mastercomment1 />
													<mastercomment2 />
													<mastercomment3 />
													<mastercomment4 />
												</comments>
												<file id="ArmA 3 2020.11.28 - 21.24.48.160" />
												<sourcetrack>
													<mediatype>audio</mediatype>
												</sourcetrack>
											</clipitem>
											<enabled>TRUE</enabled>
											<locked>FALSE</locked>
										</track>
										<track>
											<clipitem id="ArmA 3 2020.11.28 - 21.24.48.160.mp43">
												<name>ArmA 3 2020.11.28 - 21.24.48.160.mp4</name>
												<duration>2003</duration>
												<rate>
													<ntsc>TRUE</ntsc>
													<timebase>24</timebase>
												</rate>
												<in>0</in>
												<out>2003</out>
												<start>0</start>
												<end>2003</end>
												<masterclipid>ArmA 3 2020.11.28 - 21.24.48.160.mp4</masterclipid>
												<logginginfo>
													<scene />
													<shottake />
													<lognote />
													<good>FALSE</good>
												</logginginfo>
												<labels>
													<label2 />
												</labels>
												<comments>
													<mastercomment1 />
													<mastercomment2 />
													<mastercomment3 />
													<mastercomment4 />
												</comments>
												<file id="ArmA 3 2020.11.28 - 21.24.48.160" />
												<sourcetrack>
													<mediatype>audio</mediatype>
												</sourcetrack>
											</clipitem>
											<enabled>TRUE</enabled>
											<locked>FALSE</locked>
										</track>
									</audio>
								</media>
							</clip>
							<clip id="ArmA 3 2020.11.28 - 21.26.19.161.mp4">
								<updatebehavior>add</updatebehavior>
								<name>ArmA 3 2020.11.28 - 21.26.19.161.mp4</name>
								<duration>2498</duration>
								<rate>
									<ntsc>FALSE</ntsc>
									<timebase>60</timebase>
								</rate>
								<in>-1</in>
								<out>-1</out>
								<masterclipid>ArmA 3 2020.11.28 - 21.26.19.161.mp4</masterclipid>
								<ismasterclip>TRUE</ismasterclip>
								<logginginfo>
									<scene />
									<shottake />
									<lognote />
									<good>FALSE</good>
								</logginginfo>
								<labels>
									<label2 />
								</labels>
								<comments>
									<mastercomment1 />
									<mastercomment2 />
									<mastercomment3 />
									<mastercomment4 />
								</comments>
								<media>
									<video>
										<track>
											<clipitem id="ArmA 3 2020.11.28 - 21.26.19.161.mp41">
												<name>ArmA 3 2020.11.28 - 21.26.19.161.mp4</name>
												<duration>2498</duration>
												<rate>
													<ntsc>FALSE</ntsc>
													<timebase>60</timebase>
												</rate>
												<in>0</in>
												<out>2498</out>
												<start>0</start>
												<end>2498</end>
												<pixelaspectratio>Square</pixelaspectratio>
												<anamorphic>FALSE</anamorphic>
												<alphatype>none</alphatype>
												<masterclipid>ArmA 3 2020.11.28 - 21.26.19.161.mp4</masterclipid>
												<logginginfo>
													<scene />
													<shottake />
													<lognote />
													<good>FALSE</good>
												</logginginfo>
												<labels>
													<label2 />
												</labels>
												<comments>
													<mastercomment1 />
													<mastercomment2 />
													<mastercomment3 />
													<mastercomment4 />
												</comments>
												<file id="ArmA 3 2020.11.28 - 21.26.19.161">
													<name>ArmA 3 2020.11.28 - 21.26.19.161.mp4</name>
													<pathurl>file://localhost/F:/AMVS Russia/NaturaDestruction/PRPACK2/ArmA 3 2020.11.28 - 21.26.19.161.mp4</pathurl>
													<rate>
														<timebase>60</timebase>
														<ntsc>FALSE</ntsc>
													</rate>
													<duration>2498</duration>
													<timecode>
														<rate>
															<timebase>60</timebase>
															<ntsc>FALSE</ntsc>
														</rate>
														<frame>0</frame>
														<displayformat>NDF</displayformat>
														<source>source</source>
													</timecode>
													<media>
														<video>
															<duration>2498</duration>
															<samplecharacteristics>
																<width>1920</width>
																<height>1080</height>
															</samplecharacteristics>
														</video>
														<audio>
															<samplecharacteristics>
																<samplerate>48000</samplerate>
																<depth>32</depth>
															</samplecharacteristics>
															<channelcount>1</channelcount>
														</audio>
														<audio>
															<samplecharacteristics>
																<samplerate>48000</samplerate>
																<depth>32</depth>
															</samplecharacteristics>
															<channelcount>1</channelcount>
														</audio>
													</media>
												</file>
												<sourcetrack>
													<mediatype>video</mediatype>
												</sourcetrack>
												<fielddominance>none</fielddominance>
											</clipitem>
											<enabled>TRUE</enabled>
											<locked>FALSE</locked>
										</track>
									</video>
									<audio>
										<track>
											<clipitem id="ArmA 3 2020.11.28 - 21.26.19.161.mp42">
												<name>ArmA 3 2020.11.28 - 21.26.19.161.mp4</name>
												<duration>2498</duration>
												<rate>
													<ntsc>TRUE</ntsc>
													<timebase>24</timebase>
												</rate>
												<in>0</in>
												<out>2498</out>
												<start>0</start>
												<end>2498</end>
												<masterclipid>ArmA 3 2020.11.28 - 21.26.19.161.mp4</masterclipid>
												<logginginfo>
													<scene />
													<shottake />
													<lognote />
													<good>FALSE</good>
												</logginginfo>
												<labels>
													<label2 />
												</labels>
												<comments>
													<mastercomment1 />
													<mastercomment2 />
													<mastercomment3 />
													<mastercomment4 />
												</comments>
												<file id="ArmA 3 2020.11.28 - 21.26.19.161" />
												<sourcetrack>
													<mediatype>audio</mediatype>
												</sourcetrack>
											</clipitem>
											<enabled>TRUE</enabled>
											<locked>FALSE</locked>
										</track>
										<track>
											<clipitem id="ArmA 3 2020.11.28 - 21.26.19.161.mp43">
												<name>ArmA 3 2020.11.28 - 21.26.19.161.mp4</name>
												<duration>2498</duration>
												<rate>
													<ntsc>TRUE</ntsc>
													<timebase>24</timebase>
												</rate>
												<in>0</in>
												<out>2498</out>
												<start>0</start>
												<end>2498</end>
												<masterclipid>ArmA 3 2020.11.28 - 21.26.19.161.mp4</masterclipid>
												<logginginfo>
													<scene />
													<shottake />
													<lognote />
													<good>FALSE</good>
												</logginginfo>
												<labels>
													<label2 />
												</labels>
												<comments>
													<mastercomment1 />
													<mastercomment2 />
													<mastercomment3 />
													<mastercomment4 />
												</comments>
												<file id="ArmA 3 2020.11.28 - 21.26.19.161" />
												<sourcetrack>
													<mediatype>audio</mediatype>
												</sourcetrack>
											</clipitem>
											<enabled>TRUE</enabled>
											<locked>FALSE</locked>
										</track>
									</audio>
								</media>
							</clip>
							<clip id="ArmA 3 2020.11.28 - 21.28.04.162.mp4">
								<updatebehavior>add</updatebehavior>
								<name>ArmA 3 2020.11.28 - 21.28.04.162.mp4</name>
								<duration>1150</duration>
								<rate>
									<ntsc>FALSE</ntsc>
									<timebase>60</timebase>
								</rate>
								<in>-1</in>
								<out>-1</out>
								<masterclipid>ArmA 3 2020.11.28 - 21.28.04.162.mp4</masterclipid>
								<ismasterclip>TRUE</ismasterclip>
								<logginginfo>
									<scene />
									<shottake />
									<lognote />
									<good>FALSE</good>
								</logginginfo>
								<labels>
									<label2 />
								</labels>
								<comments>
									<mastercomment1 />
									<mastercomment2 />
									<mastercomment3 />
									<mastercomment4 />
								</comments>
								<media>
									<video>
										<track>
											<clipitem id="ArmA 3 2020.11.28 - 21.28.04.162.mp41">
												<name>ArmA 3 2020.11.28 - 21.28.04.162.mp4</name>
												<duration>1150</duration>
												<rate>
													<ntsc>FALSE</ntsc>
													<timebase>60</timebase>
												</rate>
												<in>0</in>
												<out>1150</out>
												<start>0</start>
												<end>1150</end>
												<pixelaspectratio>Square</pixelaspectratio>
												<anamorphic>FALSE</anamorphic>
												<alphatype>none</alphatype>
												<masterclipid>ArmA 3 2020.11.28 - 21.28.04.162.mp4</masterclipid>
												<logginginfo>
													<scene />
													<shottake />
													<lognote />
													<good>FALSE</good>
												</logginginfo>
												<labels>
													<label2 />
												</labels>
												<comments>
													<mastercomment1 />
													<mastercomment2 />
													<mastercomment3 />
													<mastercomment4 />
												</comments>
												<file id="ArmA 3 2020.11.28 - 21.28.04.162">
													<name>ArmA 3 2020.11.28 - 21.28.04.162.mp4</name>
													<pathurl>file://localhost/F:/AMVS Russia/NaturaDestruction/PRPACK4/ArmA 3 2020.11.28 - 21.28.04.162.mp4</pathurl>
													<rate>
														<timebase>60</timebase>
														<ntsc>FALSE</ntsc>
													</rate>
													<duration>1150</duration>
													<timecode>
														<rate>
															<timebase>60</timebase>
															<ntsc>FALSE</ntsc>
														</rate>
														<frame>0</frame>
														<displayformat>NDF</displayformat>
														<source>source</source>
													</timecode>
													<media>
														<video>
															<duration>1150</duration>
															<samplecharacteristics>
																<width>1920</width>
																<height>1080</height>
															</samplecharacteristics>
														</video>
														<audio>
															<samplecharacteristics>
																<samplerate>48000</samplerate>
																<depth>32</depth>
															</samplecharacteristics>
															<channelcount>1</channelcount>
														</audio>
														<audio>
															<samplecharacteristics>
																<samplerate>48000</samplerate>
																<depth>32</depth>
															</samplecharacteristics>
															<channelcount>1</channelcount>
														</audio>
													</media>
												</file>
												<sourcetrack>
													<mediatype>video</mediatype>
												</sourcetrack>
												<fielddominance>none</fielddominance>
											</clipitem>
											<enabled>TRUE</enabled>
											<locked>FALSE</locked>
										</track>
									</video>
									<audio>
										<track>
											<clipitem id="ArmA 3 2020.11.28 - 21.28.04.162.mp42">
												<name>ArmA 3 2020.11.28 - 21.28.04.162.mp4</name>
												<duration>1150</duration>
												<rate>
													<ntsc>TRUE</ntsc>
													<timebase>24</timebase>
												</rate>
												<in>0</in>
												<out>1150</out>
												<start>0</start>
												<end>1150</end>
												<masterclipid>ArmA 3 2020.11.28 - 21.28.04.162.mp4</masterclipid>
												<logginginfo>
													<scene />
													<shottake />
													<lognote />
													<good>FALSE</good>
												</logginginfo>
												<labels>
													<label2 />
												</labels>
												<comments>
													<mastercomment1 />
													<mastercomment2 />
													<mastercomment3 />
													<mastercomment4 />
												</comments>
												<file id="ArmA 3 2020.11.28 - 21.28.04.162" />
												<sourcetrack>
													<mediatype>audio</mediatype>
												</sourcetrack>
											</clipitem>
											<enabled>TRUE</enabled>
											<locked>FALSE</locked>
										</track>
										<track>
											<clipitem id="ArmA 3 2020.11.28 - 21.28.04.162.mp43">
												<name>ArmA 3 2020.11.28 - 21.28.04.162.mp4</name>
												<duration>1150</duration>
												<rate>
													<ntsc>TRUE</ntsc>
													<timebase>24</timebase>
												</rate>
												<in>0</in>
												<out>1150</out>
												<start>0</start>
												<end>1150</end>
												<masterclipid>ArmA 3 2020.11.28 - 21.28.04.162.mp4</masterclipid>
												<logginginfo>
													<scene />
													<shottake />
													<lognote />
													<good>FALSE</good>
												</logginginfo>
												<labels>
													<label2 />
												</labels>
												<comments>
													<mastercomment1 />
													<mastercomment2 />
													<mastercomment3 />
													<mastercomment4 />
												</comments>
												<file id="ArmA 3 2020.11.28 - 21.28.04.162" />
												<sourcetrack>
													<mediatype>audio</mediatype>
												</sourcetrack>
											</clipitem>
											<enabled>TRUE</enabled>
											<locked>FALSE</locked>
										</track>
									</audio>
								</media>
							</clip>
							<clip id="ArmA 3 2020.11.28 - 21.29.07.163.mp4">
								<updatebehavior>add</updatebehavior>
								<name>ArmA 3 2020.11.28 - 21.29.07.163.mp4</name>
								<duration>407</duration>
								<rate>
									<ntsc>FALSE</ntsc>
									<timebase>60</timebase>
								</rate>
								<in>-1</in>
								<out>-1</out>
								<masterclipid>ArmA 3 2020.11.28 - 21.29.07.163.mp4</masterclipid>
								<ismasterclip>TRUE</ismasterclip>
								<logginginfo>
									<scene />
									<shottake />
									<lognote />
									<good>FALSE</good>
								</logginginfo>
								<labels>
									<label2 />
								</labels>
								<comments>
									<mastercomment1 />
									<mastercomment2 />
									<mastercomment3 />
									<mastercomment4 />
								</comments>
								<media>
									<video>
										<track>
											<clipitem id="ArmA 3 2020.11.28 - 21.29.07.163.mp41">
												<name>ArmA 3 2020.11.28 - 21.29.07.163.mp4</name>
												<duration>407</duration>
												<rate>
													<ntsc>FALSE</ntsc>
													<timebase>60</timebase>
												</rate>
												<in>0</in>
												<out>407</out>
												<start>0</start>
												<end>407</end>
												<pixelaspectratio>Square</pixelaspectratio>
												<anamorphic>FALSE</anamorphic>
												<alphatype>none</alphatype>
												<masterclipid>ArmA 3 2020.11.28 - 21.29.07.163.mp4</masterclipid>
												<logginginfo>
													<scene />
													<shottake />
													<lognote />
													<good>FALSE</good>
												</logginginfo>
												<labels>
													<label2 />
												</labels>
												<comments>
													<mastercomment1 />
													<mastercomment2 />
													<mastercomment3 />
													<mastercomment4 />
												</comments>
												<file id="ArmA 3 2020.11.28 - 21.29.07.163">
													<name>ArmA 3 2020.11.28 - 21.29.07.163.mp4</name>
													<pathurl>file://localhost/F:/AMVS Russia/NaturaDestruction/PRPACK7/ArmA 3 2020.11.28 - 21.29.07.163.mp4</pathurl>
													<rate>
														<timebase>60</timebase>
														<ntsc>FALSE</ntsc>
													</rate>
													<duration>407</duration>
													<timecode>
														<rate>
															<timebase>60</timebase>
															<ntsc>FALSE</ntsc>
														</rate>
														<frame>0</frame>
														<displayformat>NDF</displayformat>
														<source>source</source>
													</timecode>
													<media>
														<video>
															<duration>407</duration>
															<samplecharacteristics>
																<width>1920</width>
																<height>1080</height>
															</samplecharacteristics>
														</video>
														<audio>
															<samplecharacteristics>
																<samplerate>48000</samplerate>
																<depth>32</depth>
															</samplecharacteristics>
															<channelcount>1</channelcount>
														</audio>
														<audio>
															<samplecharacteristics>
																<samplerate>48000</samplerate>
																<depth>32</depth>
															</samplecharacteristics>
															<channelcount>1</channelcount>
														</audio>
													</media>
												</file>
												<sourcetrack>
													<mediatype>video</mediatype>
												</sourcetrack>
												<fielddominance>none</fielddominance>
											</clipitem>
											<enabled>TRUE</enabled>
											<locked>FALSE</locked>
										</track>
									</video>
									<audio>
										<track>
											<clipitem id="ArmA 3 2020.11.28 - 21.29.07.163.mp42">
												<name>ArmA 3 2020.11.28 - 21.29.07.163.mp4</name>
												<duration>407</duration>
												<rate>
													<ntsc>TRUE</ntsc>
													<timebase>24</timebase>
												</rate>
												<in>0</in>
												<out>407</out>
												<start>0</start>
												<end>407</end>
												<masterclipid>ArmA 3 2020.11.28 - 21.29.07.163.mp4</masterclipid>
												<logginginfo>
													<scene />
													<shottake />
													<lognote />
													<good>FALSE</good>
												</logginginfo>
												<labels>
													<label2 />
												</labels>
												<comments>
													<mastercomment1 />
													<mastercomment2 />
													<mastercomment3 />
													<mastercomment4 />
												</comments>
												<file id="ArmA 3 2020.11.28 - 21.29.07.163" />
												<sourcetrack>
													<mediatype>audio</mediatype>
												</sourcetrack>
											</clipitem>
											<enabled>TRUE</enabled>
											<locked>FALSE</locked>
										</track>
										<track>
											<clipitem id="ArmA 3 2020.11.28 - 21.29.07.163.mp43">
												<name>ArmA 3 2020.11.28 - 21.29.07.163.mp4</name>
												<duration>407</duration>
												<rate>
													<ntsc>TRUE</ntsc>
													<timebase>24</timebase>
												</rate>
												<in>0</in>
												<out>407</out>
												<start>0</start>
												<end>407</end>
												<masterclipid>ArmA 3 2020.11.28 - 21.29.07.163.mp4</masterclipid>
												<logginginfo>
													<scene />
													<shottake />
													<lognote />
													<good>FALSE</good>
												</logginginfo>
												<labels>
													<label2 />
												</labels>
												<comments>
													<mastercomment1 />
													<mastercomment2 />
													<mastercomment3 />
													<mastercomment4 />
												</comments>
												<file id="ArmA 3 2020.11.28 - 21.29.07.163" />
												<sourcetrack>
													<mediatype>audio</mediatype>
												</sourcetrack>
											</clipitem>
											<enabled>TRUE</enabled>
											<locked>FALSE</locked>
										</track>
									</audio>
								</media>
							</clip>
							<clip id="ArmA 3 2020.11.28 - 21.29.46.164.mp4">
								<updatebehavior>add</updatebehavior>
								<name>ArmA 3 2020.11.28 - 21.29.46.164.mp4</name>
								<duration>1238</duration>
								<rate>
									<ntsc>FALSE</ntsc>
									<timebase>60</timebase>
								</rate>
								<in>-1</in>
								<out>-1</out>
								<masterclipid>ArmA 3 2020.11.28 - 21.29.46.164.mp4</masterclipid>
								<ismasterclip>TRUE</ismasterclip>
								<logginginfo>
									<scene />
									<shottake />
									<lognote />
									<good>FALSE</good>
								</logginginfo>
								<labels>
									<label2 />
								</labels>
								<comments>
									<mastercomment1 />
									<mastercomment2 />
									<mastercomment3 />
									<mastercomment4 />
								</comments>
								<media>
									<video>
										<track>
											<clipitem id="ArmA 3 2020.11.28 - 21.29.46.164.mp41">
												<name>ArmA 3 2020.11.28 - 21.29.46.164.mp4</name>
												<duration>1238</duration>
												<rate>
													<ntsc>FALSE</ntsc>
													<timebase>60</timebase>
												</rate>
												<in>0</in>
												<out>1238</out>
												<start>0</start>
												<end>1238</end>
												<pixelaspectratio>Square</pixelaspectratio>
												<anamorphic>FALSE</anamorphic>
												<alphatype>none</alphatype>
												<masterclipid>ArmA 3 2020.11.28 - 21.29.46.164.mp4</masterclipid>
												<logginginfo>
													<scene />
													<shottake />
													<lognote />
													<good>FALSE</good>
												</logginginfo>
												<labels>
													<label2 />
												</labels>
												<comments>
													<mastercomment1 />
													<mastercomment2 />
													<mastercomment3 />
													<mastercomment4 />
												</comments>
												<file id="ArmA 3 2020.11.28 - 21.29.46.164">
													<name>ArmA 3 2020.11.28 - 21.29.46.164.mp4</name>
													<pathurl>file://localhost/F:/AMVS Russia/NaturaDestruction/PRPACK4/ArmA 3 2020.11.28 - 21.29.46.164.mp4</pathurl>
													<rate>
														<timebase>60</timebase>
														<ntsc>FALSE</ntsc>
													</rate>
													<duration>1238</duration>
													<timecode>
														<rate>
															<timebase>60</timebase>
															<ntsc>FALSE</ntsc>
														</rate>
														<frame>0</frame>
														<displayformat>NDF</displayformat>
														<source>source</source>
													</timecode>
													<media>
														<video>
															<duration>1238</duration>
															<samplecharacteristics>
																<width>1920</width>
																<height>1080</height>
															</samplecharacteristics>
														</video>
														<audio>
															<samplecharacteristics>
																<samplerate>48000</samplerate>
																<depth>32</depth>
															</samplecharacteristics>
															<channelcount>1</channelcount>
														</audio>
														<audio>
															<samplecharacteristics>
																<samplerate>48000</samplerate>
																<depth>32</depth>
															</samplecharacteristics>
															<channelcount>1</channelcount>
														</audio>
													</media>
												</file>
												<sourcetrack>
													<mediatype>video</mediatype>
												</sourcetrack>
												<fielddominance>none</fielddominance>
											</clipitem>
											<enabled>TRUE</enabled>
											<locked>FALSE</locked>
										</track>
									</video>
									<audio>
										<track>
											<clipitem id="ArmA 3 2020.11.28 - 21.29.46.164.mp42">
												<name>ArmA 3 2020.11.28 - 21.29.46.164.mp4</name>
												<duration>1238</duration>
												<rate>
													<ntsc>TRUE</ntsc>
													<timebase>24</timebase>
												</rate>
												<in>0</in>
												<out>1238</out>
												<start>0</start>
												<end>1238</end>
												<masterclipid>ArmA 3 2020.11.28 - 21.29.46.164.mp4</masterclipid>
												<logginginfo>
													<scene />
													<shottake />
													<lognote />
													<good>FALSE</good>
												</logginginfo>
												<labels>
													<label2 />
												</labels>
												<comments>
													<mastercomment1 />
													<mastercomment2 />
													<mastercomment3 />
													<mastercomment4 />
												</comments>
												<file id="ArmA 3 2020.11.28 - 21.29.46.164" />
												<sourcetrack>
													<mediatype>audio</mediatype>
												</sourcetrack>
											</clipitem>
											<enabled>TRUE</enabled>
											<locked>FALSE</locked>
										</track>
										<track>
											<clipitem id="ArmA 3 2020.11.28 - 21.29.46.164.mp43">
												<name>ArmA 3 2020.11.28 - 21.29.46.164.mp4</name>
												<duration>1238</duration>
												<rate>
													<ntsc>TRUE</ntsc>
													<timebase>24</timebase>
												</rate>
												<in>0</in>
												<out>1238</out>
												<start>0</start>
												<end>1238</end>
												<masterclipid>ArmA 3 2020.11.28 - 21.29.46.164.mp4</masterclipid>
												<logginginfo>
													<scene />
													<shottake />
													<lognote />
													<good>FALSE</good>
												</logginginfo>
												<labels>
													<label2 />
												</labels>
												<comments>
													<mastercomment1 />
													<mastercomment2 />
													<mastercomment3 />
													<mastercomment4 />
												</comments>
												<file id="ArmA 3 2020.11.28 - 21.29.46.164" />
												<sourcetrack>
													<mediatype>audio</mediatype>
												</sourcetrack>
											</clipitem>
											<enabled>TRUE</enabled>
											<locked>FALSE</locked>
										</track>
									</audio>
								</media>
							</clip>
							<clip id="ArmA 3 2020.11.28 - 21.31.14.165.mp4">
								<updatebehavior>add</updatebehavior>
								<name>ArmA 3 2020.11.28 - 21.31.14.165.mp4</name>
								<duration>759</duration>
								<rate>
									<ntsc>FALSE</ntsc>
									<timebase>60</timebase>
								</rate>
								<in>-1</in>
								<out>-1</out>
								<masterclipid>ArmA 3 2020.11.28 - 21.31.14.165.mp4</masterclipid>
								<ismasterclip>TRUE</ismasterclip>
								<logginginfo>
									<scene />
									<shottake />
									<lognote />
									<good>FALSE</good>
								</logginginfo>
								<labels>
									<label2 />
								</labels>
								<comments>
									<mastercomment1 />
									<mastercomment2 />
									<mastercomment3 />
									<mastercomment4 />
								</comments>
								<media>
									<video>
										<track>
											<clipitem id="ArmA 3 2020.11.28 - 21.31.14.165.mp41">
												<name>ArmA 3 2020.11.28 - 21.31.14.165.mp4</name>
												<duration>759</duration>
												<rate>
													<ntsc>FALSE</ntsc>
													<timebase>60</timebase>
												</rate>
												<in>0</in>
												<out>759</out>
												<start>0</start>
												<end>759</end>
												<pixelaspectratio>Square</pixelaspectratio>
												<anamorphic>FALSE</anamorphic>
												<alphatype>none</alphatype>
												<masterclipid>ArmA 3 2020.11.28 - 21.31.14.165.mp4</masterclipid>
												<logginginfo>
													<scene />
													<shottake />
													<lognote />
													<good>FALSE</good>
												</logginginfo>
												<labels>
													<label2 />
												</labels>
												<comments>
													<mastercomment1 />
													<mastercomment2 />
													<mastercomment3 />
													<mastercomment4 />
												</comments>
												<file id="ArmA 3 2020.11.28 - 21.31.14.165">
													<name>ArmA 3 2020.11.28 - 21.31.14.165.mp4</name>
													<pathurl>file://localhost/F:/AMVS Russia/NaturaDestruction/PRPACK5/ArmA 3 2020.11.28 - 21.31.14.165.mp4</pathurl>
													<rate>
														<timebase>60</timebase>
														<ntsc>FALSE</ntsc>
													</rate>
													<duration>759</duration>
													<timecode>
														<rate>
															<timebase>60</timebase>
															<ntsc>FALSE</ntsc>
														</rate>
														<frame>0</frame>
														<displayformat>NDF</displayformat>
														<source>source</source>
													</timecode>
													<media>
														<video>
															<duration>759</duration>
															<samplecharacteristics>
																<width>1920</width>
																<height>1080</height>
															</samplecharacteristics>
														</video>
														<audio>
															<samplecharacteristics>
																<samplerate>48000</samplerate>
																<depth>32</depth>
															</samplecharacteristics>
															<channelcount>1</channelcount>
														</audio>
														<audio>
															<samplecharacteristics>
																<samplerate>48000</samplerate>
																<depth>32</depth>
															</samplecharacteristics>
															<channelcount>1</channelcount>
														</audio>
													</media>
												</file>
												<sourcetrack>
													<mediatype>video</mediatype>
												</sourcetrack>
												<fielddominance>none</fielddominance>
											</clipitem>
											<enabled>TRUE</enabled>
											<locked>FALSE</locked>
										</track>
									</video>
									<audio>
										<track>
											<clipitem id="ArmA 3 2020.11.28 - 21.31.14.165.mp42">
												<name>ArmA 3 2020.11.28 - 21.31.14.165.mp4</name>
												<duration>759</duration>
												<rate>
													<ntsc>TRUE</ntsc>
													<timebase>24</timebase>
												</rate>
												<in>0</in>
												<out>759</out>
												<start>0</start>
												<end>759</end>
												<masterclipid>ArmA 3 2020.11.28 - 21.31.14.165.mp4</masterclipid>
												<logginginfo>
													<scene />
													<shottake />
													<lognote />
													<good>FALSE</good>
												</logginginfo>
												<labels>
													<label2 />
												</labels>
												<comments>
													<mastercomment1 />
													<mastercomment2 />
													<mastercomment3 />
													<mastercomment4 />
												</comments>
												<file id="ArmA 3 2020.11.28 - 21.31.14.165" />
												<sourcetrack>
													<mediatype>audio</mediatype>
												</sourcetrack>
											</clipitem>
											<enabled>TRUE</enabled>
											<locked>FALSE</locked>
										</track>
										<track>
											<clipitem id="ArmA 3 2020.11.28 - 21.31.14.165.mp43">
												<name>ArmA 3 2020.11.28 - 21.31.14.165.mp4</name>
												<duration>759</duration>
												<rate>
													<ntsc>TRUE</ntsc>
													<timebase>24</timebase>
												</rate>
												<in>0</in>
												<out>759</out>
												<start>0</start>
												<end>759</end>
												<masterclipid>ArmA 3 2020.11.28 - 21.31.14.165.mp4</masterclipid>
												<logginginfo>
													<scene />
													<shottake />
													<lognote />
													<good>FALSE</good>
												</logginginfo>
												<labels>
													<label2 />
												</labels>
												<comments>
													<mastercomment1 />
													<mastercomment2 />
													<mastercomment3 />
													<mastercomment4 />
												</comments>
												<file id="ArmA 3 2020.11.28 - 21.31.14.165" />
												<sourcetrack>
													<mediatype>audio</mediatype>
												</sourcetrack>
											</clipitem>
											<enabled>TRUE</enabled>
											<locked>FALSE</locked>
										</track>
									</audio>
								</media>
							</clip>
							<clip id="ArmA 3 2020.11.28 - 21.31.58.166.mp4">
								<updatebehavior>add</updatebehavior>
								<name>ArmA 3 2020.11.28 - 21.31.58.166.mp4</name>
								<duration>710</duration>
								<rate>
									<ntsc>FALSE</ntsc>
									<timebase>60</timebase>
								</rate>
								<in>-1</in>
								<out>-1</out>
								<masterclipid>ArmA 3 2020.11.28 - 21.31.58.166.mp4</masterclipid>
								<ismasterclip>TRUE</ismasterclip>
								<logginginfo>
									<scene />
									<shottake />
									<lognote />
									<good>FALSE</good>
								</logginginfo>
								<labels>
									<label2 />
								</labels>
								<comments>
									<mastercomment1 />
									<mastercomment2 />
									<mastercomment3 />
									<mastercomment4 />
								</comments>
								<media>
									<video>
										<track>
											<clipitem id="ArmA 3 2020.11.28 - 21.31.58.166.mp41">
												<name>ArmA 3 2020.11.28 - 21.31.58.166.mp4</name>
												<duration>710</duration>
												<rate>
													<ntsc>FALSE</ntsc>
													<timebase>60</timebase>
												</rate>
												<in>0</in>
												<out>710</out>
												<start>0</start>
												<end>710</end>
												<pixelaspectratio>Square</pixelaspectratio>
												<anamorphic>FALSE</anamorphic>
												<alphatype>none</alphatype>
												<masterclipid>ArmA 3 2020.11.28 - 21.31.58.166.mp4</masterclipid>
												<logginginfo>
													<scene />
													<shottake />
													<lognote />
													<good>FALSE</good>
												</logginginfo>
												<labels>
													<label2 />
												</labels>
												<comments>
													<mastercomment1 />
													<mastercomment2 />
													<mastercomment3 />
													<mastercomment4 />
												</comments>
												<file id="ArmA 3 2020.11.28 - 21.31.58.166">
													<name>ArmA 3 2020.11.28 - 21.31.58.166.mp4</name>
													<pathurl>file://localhost/F:/AMVS Russia/NaturaDestruction/PRPACK5/ArmA 3 2020.11.28 - 21.31.58.166.mp4</pathurl>
													<rate>
														<timebase>60</timebase>
														<ntsc>FALSE</ntsc>
													</rate>
													<duration>710</duration>
													<timecode>
														<rate>
															<timebase>60</timebase>
															<ntsc>FALSE</ntsc>
														</rate>
														<frame>0</frame>
														<displayformat>NDF</displayformat>
														<source>source</source>
													</timecode>
													<media>
														<video>
															<duration>710</duration>
															<samplecharacteristics>
																<width>1920</width>
																<height>1080</height>
															</samplecharacteristics>
														</video>
														<audio>
															<samplecharacteristics>
																<samplerate>48000</samplerate>
																<depth>32</depth>
															</samplecharacteristics>
															<channelcount>1</channelcount>
														</audio>
														<audio>
															<samplecharacteristics>
																<samplerate>48000</samplerate>
																<depth>32</depth>
															</samplecharacteristics>
															<channelcount>1</channelcount>
														</audio>
													</media>
												</file>
												<sourcetrack>
													<mediatype>video</mediatype>
												</sourcetrack>
												<fielddominance>none</fielddominance>
											</clipitem>
											<enabled>TRUE</enabled>
											<locked>FALSE</locked>
										</track>
									</video>
									<audio>
										<track>
											<clipitem id="ArmA 3 2020.11.28 - 21.31.58.166.mp42">
												<name>ArmA 3 2020.11.28 - 21.31.58.166.mp4</name>
												<duration>710</duration>
												<rate>
													<ntsc>TRUE</ntsc>
													<timebase>24</timebase>
												</rate>
												<in>0</in>
												<out>710</out>
												<start>0</start>
												<end>710</end>
												<masterclipid>ArmA 3 2020.11.28 - 21.31.58.166.mp4</masterclipid>
												<logginginfo>
													<scene />
													<shottake />
													<lognote />
													<good>FALSE</good>
												</logginginfo>
												<labels>
													<label2 />
												</labels>
												<comments>
													<mastercomment1 />
													<mastercomment2 />
													<mastercomment3 />
													<mastercomment4 />
												</comments>
												<file id="ArmA 3 2020.11.28 - 21.31.58.166" />
												<sourcetrack>
													<mediatype>audio</mediatype>
												</sourcetrack>
											</clipitem>
											<enabled>TRUE</enabled>
											<locked>FALSE</locked>
										</track>
										<track>
											<clipitem id="ArmA 3 2020.11.28 - 21.31.58.166.mp43">
												<name>ArmA 3 2020.11.28 - 21.31.58.166.mp4</name>
												<duration>710</duration>
												<rate>
													<ntsc>TRUE</ntsc>
													<timebase>24</timebase>
												</rate>
												<in>0</in>
												<out>710</out>
												<start>0</start>
												<end>710</end>
												<masterclipid>ArmA 3 2020.11.28 - 21.31.58.166.mp4</masterclipid>
												<logginginfo>
													<scene />
													<shottake />
													<lognote />
													<good>FALSE</good>
												</logginginfo>
												<labels>
													<label2 />
												</labels>
												<comments>
													<mastercomment1 />
													<mastercomment2 />
													<mastercomment3 />
													<mastercomment4 />
												</comments>
												<file id="ArmA 3 2020.11.28 - 21.31.58.166" />
												<sourcetrack>
													<mediatype>audio</mediatype>
												</sourcetrack>
											</clipitem>
											<enabled>TRUE</enabled>
											<locked>FALSE</locked>
										</track>
									</audio>
								</media>
							</clip>
							<clip id="ArmA 3 2020.11.28 - 21.32.33.167.mp4">
								<updatebehavior>add</updatebehavior>
								<name>ArmA 3 2020.11.28 - 21.32.33.167.mp4</name>
								<duration>1026</duration>
								<rate>
									<ntsc>FALSE</ntsc>
									<timebase>60</timebase>
								</rate>
								<in>-1</in>
								<out>-1</out>
								<masterclipid>ArmA 3 2020.11.28 - 21.32.33.167.mp4</masterclipid>
								<ismasterclip>TRUE</ismasterclip>
								<logginginfo>
									<scene />
									<shottake />
									<lognote />
									<good>FALSE</good>
								</logginginfo>
								<labels>
									<label2 />
								</labels>
								<comments>
									<mastercomment1 />
									<mastercomment2 />
									<mastercomment3 />
									<mastercomment4 />
								</comments>
								<media>
									<video>
										<track>
											<clipitem id="ArmA 3 2020.11.28 - 21.32.33.167.mp41">
												<name>ArmA 3 2020.11.28 - 21.32.33.167.mp4</name>
												<duration>1026</duration>
												<rate>
													<ntsc>FALSE</ntsc>
													<timebase>60</timebase>
												</rate>
												<in>0</in>
												<out>1026</out>
												<start>0</start>
												<end>1026</end>
												<pixelaspectratio>Square</pixelaspectratio>
												<anamorphic>FALSE</anamorphic>
												<alphatype>none</alphatype>
												<masterclipid>ArmA 3 2020.11.28 - 21.32.33.167.mp4</masterclipid>
												<logginginfo>
													<scene />
													<shottake />
													<lognote />
													<good>FALSE</good>
												</logginginfo>
												<labels>
													<label2 />
												</labels>
												<comments>
													<mastercomment1 />
													<mastercomment2 />
													<mastercomment3 />
													<mastercomment4 />
												</comments>
												<file id="ArmA 3 2020.11.28 - 21.32.33.167">
													<name>ArmA 3 2020.11.28 - 21.32.33.167.mp4</name>
													<pathurl>file://localhost/F:/AMVS Russia/NaturaDestruction/PRPACK4/ArmA 3 2020.11.28 - 21.32.33.167.mp4</pathurl>
													<rate>
														<timebase>60</timebase>
														<ntsc>FALSE</ntsc>
													</rate>
													<duration>1026</duration>
													<timecode>
														<rate>
															<timebase>60</timebase>
															<ntsc>FALSE</ntsc>
														</rate>
														<frame>0</frame>
														<displayformat>NDF</displayformat>
														<source>source</source>
													</timecode>
													<media>
														<video>
															<duration>1026</duration>
															<samplecharacteristics>
																<width>1920</width>
																<height>1080</height>
															</samplecharacteristics>
														</video>
														<audio>
															<samplecharacteristics>
																<samplerate>48000</samplerate>
																<depth>32</depth>
															</samplecharacteristics>
															<channelcount>1</channelcount>
														</audio>
														<audio>
															<samplecharacteristics>
																<samplerate>48000</samplerate>
																<depth>32</depth>
															</samplecharacteristics>
															<channelcount>1</channelcount>
														</audio>
													</media>
												</file>
												<sourcetrack>
													<mediatype>video</mediatype>
												</sourcetrack>
												<fielddominance>none</fielddominance>
											</clipitem>
											<enabled>TRUE</enabled>
											<locked>FALSE</locked>
										</track>
									</video>
									<audio>
										<track>
											<clipitem id="ArmA 3 2020.11.28 - 21.32.33.167.mp42">
												<name>ArmA 3 2020.11.28 - 21.32.33.167.mp4</name>
												<duration>1026</duration>
												<rate>
													<ntsc>TRUE</ntsc>
													<timebase>24</timebase>
												</rate>
												<in>0</in>
												<out>1026</out>
												<start>0</start>
												<end>1026</end>
												<masterclipid>ArmA 3 2020.11.28 - 21.32.33.167.mp4</masterclipid>
												<logginginfo>
													<scene />
													<shottake />
													<lognote />
													<good>FALSE</good>
												</logginginfo>
												<labels>
													<label2 />
												</labels>
												<comments>
													<mastercomment1 />
													<mastercomment2 />
													<mastercomment3 />
													<mastercomment4 />
												</comments>
												<file id="ArmA 3 2020.11.28 - 21.32.33.167" />
												<sourcetrack>
													<mediatype>audio</mediatype>
												</sourcetrack>
											</clipitem>
											<enabled>TRUE</enabled>
											<locked>FALSE</locked>
										</track>
										<track>
											<clipitem id="ArmA 3 2020.11.28 - 21.32.33.167.mp43">
												<name>ArmA 3 2020.11.28 - 21.32.33.167.mp4</name>
												<duration>1026</duration>
												<rate>
													<ntsc>TRUE</ntsc>
													<timebase>24</timebase>
												</rate>
												<in>0</in>
												<out>1026</out>
												<start>0</start>
												<end>1026</end>
												<masterclipid>ArmA 3 2020.11.28 - 21.32.33.167.mp4</masterclipid>
												<logginginfo>
													<scene />
													<shottake />
													<lognote />
													<good>FALSE</good>
												</logginginfo>
												<labels>
													<label2 />
												</labels>
												<comments>
													<mastercomment1 />
													<mastercomment2 />
													<mastercomment3 />
													<mastercomment4 />
												</comments>
												<file id="ArmA 3 2020.11.28 - 21.32.33.167" />
												<sourcetrack>
													<mediatype>audio</mediatype>
												</sourcetrack>
											</clipitem>
											<enabled>TRUE</enabled>
											<locked>FALSE</locked>
										</track>
									</audio>
								</media>
							</clip>
						</children>
					</bin>
					<bin>
						<updatebehavior>add</updatebehavior>
						<name>VOICEOVER</name>
						<children>
							<clip id="PR_Bashir_Sc25.ogg">
								<updatebehavior>add</updatebehavior>
								<name>PR_Bashir_Sc25.ogg</name>
								<duration>0</duration>
								<rate>
									<ntsc>TRUE</ntsc>
									<timebase>24</timebase>
								</rate>
								<in>-1</in>
								<out>-1</out>
								<masterclipid>PR_Bashir_Sc25.ogg</masterclipid>
								<ismasterclip>TRUE</ismasterclip>
								<logginginfo>
									<scene />
									<shottake />
									<lognote />
									<good>FALSE</good>
								</logginginfo>
								<labels>
									<label2 />
								</labels>
								<comments>
									<mastercomment1 />
									<mastercomment2 />
									<mastercomment3 />
									<mastercomment4 />
								</comments>
								<media>
									<video />
									<audio />
								</media>
							</clip>
							<clip id="PR_Jahid_Sc25.ogg">
								<updatebehavior>add</updatebehavior>
								<name>PR_Jahid_Sc25.ogg</name>
								<duration>0</duration>
								<rate>
									<ntsc>TRUE</ntsc>
									<timebase>24</timebase>
								</rate>
								<in>-1</in>
								<out>-1</out>
								<masterclipid>PR_Jahid_Sc25.ogg</masterclipid>
								<ismasterclip>TRUE</ismasterclip>
								<logginginfo>
									<scene />
									<shottake />
									<lognote />
									<good>FALSE</good>
								</logginginfo>
								<labels>
									<label2 />
								</labels>
								<comments>
									<mastercomment1 />
									<mastercomment2 />
									<mastercomment3 />
									<mastercomment4 />
								</comments>
								<media>
									<video />
									<audio />
								</media>
							</clip>
							<clip id="PR_Shingis_Sc25.ogg">
								<updatebehavior>add</updatebehavior>
								<name>PR_Shingis_Sc25.ogg</name>
								<duration>0</duration>
								<rate>
									<ntsc>TRUE</ntsc>
									<timebase>24</timebase>
								</rate>
								<in>-1</in>
								<out>-1</out>
								<masterclipid>PR_Shingis_Sc25.ogg</masterclipid>
								<ismasterclip>TRUE</ismasterclip>
								<logginginfo>
									<scene />
									<shottake />
									<lognote />
									<good>FALSE</good>
								</logginginfo>
								<labels>
									<label2 />
								</labels>
								<comments>
									<mastercomment1 />
									<mastercomment2 />
									<mastercomment3 />
									<mastercomment4 />
								</comments>
								<media>
									<video />
									<audio />
								</media>
							</clip>
						</children>
					</bin>
					<bin>
						<updatebehavior>add</updatebehavior>
						<name>SFXBG</name>
						<children />
					</bin>
					<bin>
						<updatebehavior>add</updatebehavior>
						<name>Music</name>
						<children />
					</bin>
				</children>
			</bin>
			<sequence id="Sequence 1">
				<updatebehavior>add</updatebehavior>
				<name>Sequence 1</name>
				<duration>26765</duration>
				<rate>
					<ntsc>TRUE</ntsc>
					<timebase>24</timebase>
				</rate>
				<timecode>
					<rate>
						<ntsc>TRUE</ntsc>
						<timebase>24</timebase>
					</rate>
					<frame>86313</frame>
					<source>source</source>
					<displayformat>DF</displayformat>
				</timecode>
				<in>-1</in>
				<out>-1</out>
				<media>
					<video>
						<format>
							<samplecharacteristics>
								<width>1920</width>
								<height>1080</height>
								<pixelaspectratio>Square</pixelaspectratio>
								<anamorphic>FALSE</anamorphic>
								<fielddominance>none</fielddominance>
								<rate>
									<ntsc>TRUE</ntsc>
									<timebase>24</timebase>
								</rate>
								<colordepth>24</colordepth>
								<codec>
									<appspecificdata>
										<data>
											<qtcodec>
												<codectypecode>avc1</codectypecode>
											</qtcodec>
										</data>
										<appname>Final Cut Pro</appname>
										<appmanufacturer>Apple Inc.</appmanufacturer>
										<appversion>7.0</appversion>
									</appspecificdata>
								</codec>
							</samplecharacteristics>
						</format>
						<track>
							<clipitem id="ArmA 3 2020.11.28 - 21.09.20.144.mp4805307592">
								<name>ArmA 3 2020.11.28 - 21.09.20.144.mp4</name>
								<duration>593</duration>
								<rate>
									<ntsc>FALSE</ntsc>
									<timebase>60</timebase>
								</rate>
								<in>0</in>
								<out>593</out>
								<start>0</start>
								<end>593</end>
								<pixelaspectratio>Square</pixelaspectratio>
								<anamorphic>FALSE</anamorphic>
								<alphatype>none</alphatype>
								<masterclipid>ArmA 3 2020.11.28 - 21.09.20.144.mp4</masterclipid>
								<logginginfo>
									<scene />
									<shottake />
									<lognote />
									<good>FALSE</good>
								</logginginfo>
								<labels>
									<label2 />
								</labels>
								<comments>
									<mastercomment1 />
									<mastercomment2 />
									<mastercomment3 />
									<mastercomment4 />
								</comments>
								<file id="ArmA 3 2020.11.28 - 21.09.20.144" />
								<filter>
									<effect>
										<name>Opacity</name>
										<effectid>opacity</effectid>
										<effectcategory>motion</effectcategory>
										<effecttype>motion</effecttype>
										<mediatype>video</mediatype>
										<parameter>
											<name>opacity</name>
											<parameterid>opacity</parameterid>
											<valuemin>0</valuemin>
											<valuemax>100</valuemax>
											<value>100</value>
										</parameter>
									</effect>
								</filter>
								<sourcetrack>
									<mediatype>video</mediatype>
								</sourcetrack>
								<link>
									<linkclipref>ArmA 3 2020.11.28 - 21.09.20.144.mp4805307592</linkclipref>
								</link>
								<link>
									<linkclipref>ArmA 3 2020.11.28 - 21.09.20.144.mp4536872137</linkclipref>
								</link>
								<link>
									<linkclipref>ArmA 3 2020.11.28 - 21.09.20.144.mp45368721371</linkclipref>
								</link>
								<link>
									<linkclipref>ArmA 3 2020.11.28 - 21.09.20.144.mp4536872138</linkclipref>
								</link>
								<link>
									<linkclipref>ArmA 3 2020.11.28 - 21.09.20.144.mp45368721381</linkclipref>
								</link>
								<fielddominance>none</fielddominance>
							</clipitem>
							<clipitem id="ArmA 3 2020.11.28 - 21.10.25.145.DVR.mp4805307595">
								<name>ArmA 3 2020.11.28 - 21.10.25.145.DVR.mp4</name>
								<duration>7195</duration>
								<rate>
									<ntsc>FALSE</ntsc>
									<timebase>60</timebase>
								</rate>
								<in>0</in>
								<out>7195</out>
								<start>594</start>
								<end>7789</end>
								<pixelaspectratio>Square</pixelaspectratio>
								<anamorphic>FALSE</anamorphic>
								<alphatype>none</alphatype>
								<masterclipid>ArmA 3 2020.11.28 - 21.10.25.145.DVR.mp4</masterclipid>
								<logginginfo>
									<scene />
									<shottake />
									<lognote />
									<good>FALSE</good>
								</logginginfo>
								<labels>
									<label2 />
								</labels>
								<comments>
									<mastercomment1 />
									<mastercomment2 />
									<mastercomment3 />
									<mastercomment4 />
								</comments>
								<file id="ArmA 3 2020.11.28 - 21.10.25.145.DVR" />
								<filter>
									<effect>
										<name>Opacity</name>
										<effectid>opacity</effectid>
										<effectcategory>motion</effectcategory>
										<effecttype>motion</effecttype>
										<mediatype>video</mediatype>
										<parameter>
											<name>opacity</name>
											<parameterid>opacity</parameterid>
											<valuemin>0</valuemin>
											<valuemax>100</valuemax>
											<value>100</value>
										</parameter>
									</effect>
								</filter>
								<sourcetrack>
									<mediatype>video</mediatype>
								</sourcetrack>
								<link>
									<linkclipref>ArmA 3 2020.11.28 - 21.10.25.145.DVR.mp4805307595</linkclipref>
								</link>
								<link>
									<linkclipref>ArmA 3 2020.11.28 - 21.10.25.145.DVR.mp4536872140</linkclipref>
								</link>
								<link>
									<linkclipref>ArmA 3 2020.11.28 - 21.10.25.145.DVR.mp45368721401</linkclipref>
								</link>
								<link>
									<linkclipref>ArmA 3 2020.11.28 - 21.10.25.145.DVR.mp4536872141</linkclipref>
								</link>
								<link>
									<linkclipref>ArmA 3 2020.11.28 - 21.10.25.145.DVR.mp45368721411</linkclipref>
								</link>
								<fielddominance>none</fielddominance>
							</clipitem>
							<clipitem id="ArmA 3 2020.11.28 - 21.10.28.146.mp4805307598">
								<name>ArmA 3 2020.11.28 - 21.10.28.146.mp4</name>
								<duration>226</duration>
								<rate>
									<ntsc>FALSE</ntsc>
									<timebase>60</timebase>
								</rate>
								<in>0</in>
								<out>226</out>
								<start>7790</start>
								<end>8016</end>
								<pixelaspectratio>Square</pixelaspectratio>
								<anamorphic>FALSE</anamorphic>
								<alphatype>none</alphatype>
								<masterclipid>ArmA 3 2020.11.28 - 21.10.28.146.mp4</masterclipid>
								<logginginfo>
									<scene />
									<shottake />
									<lognote />
									<good>FALSE</good>
								</logginginfo>
								<labels>
									<label2 />
								</labels>
								<comments>
									<mastercomment1 />
									<mastercomment2 />
									<mastercomment3 />
									<mastercomment4 />
								</comments>
								<file id="ArmA 3 2020.11.28 - 21.10.28.146" />
								<filter>
									<effect>
										<name>Opacity</name>
										<effectid>opacity</effectid>
										<effectcategory>motion</effectcategory>
										<effecttype>motion</effecttype>
										<mediatype>video</mediatype>
										<parameter>
											<name>opacity</name>
											<parameterid>opacity</parameterid>
											<valuemin>0</valuemin>
											<valuemax>100</valuemax>
											<value>100</value>
										</parameter>
									</effect>
								</filter>
								<sourcetrack>
									<mediatype>video</mediatype>
								</sourcetrack>
								<link>
									<linkclipref>ArmA 3 2020.11.28 - 21.10.28.146.mp4805307598</linkclipref>
								</link>
								<link>
									<linkclipref>ArmA 3 2020.11.28 - 21.10.28.146.mp4536872143</linkclipref>
								</link>
								<link>
									<linkclipref>ArmA 3 2020.11.28 - 21.10.28.146.mp45368721431</linkclipref>
								</link>
								<link>
									<linkclipref>ArmA 3 2020.11.28 - 21.10.28.146.mp4536872144</linkclipref>
								</link>
								<link>
									<linkclipref>ArmA 3 2020.11.28 - 21.10.28.146.mp45368721441</linkclipref>
								</link>
								<fielddominance>none</fielddominance>
							</clipitem>
							<clipitem id="ArmA 3 2020.11.28 - 21.10.39.147.mp4805307601">
								<name>ArmA 3 2020.11.28 - 21.10.39.147.mp4</name>
								<duration>1154</duration>
								<rate>
									<ntsc>FALSE</ntsc>
									<timebase>60</timebase>
								</rate>
								<in>0</in>
								<out>1154</out>
								<start>8017</start>
								<end>9171</end>
								<pixelaspectratio>Square</pixelaspectratio>
								<anamorphic>FALSE</anamorphic>
								<alphatype>none</alphatype>
								<masterclipid>ArmA 3 2020.11.28 - 21.10.39.147.mp4</masterclipid>
								<logginginfo>
									<scene />
									<shottake />
									<lognote />
									<good>FALSE</good>
								</logginginfo>
								<labels>
									<label2 />
								</labels>
								<comments>
									<mastercomment1 />
									<mastercomment2 />
									<mastercomment3 />
									<mastercomment4 />
								</comments>
								<file id="ArmA 3 2020.11.28 - 21.10.39.147" />
								<filter>
									<effect>
										<name>Opacity</name>
										<effectid>opacity</effectid>
										<effectcategory>motion</effectcategory>
										<effecttype>motion</effecttype>
										<mediatype>video</mediatype>
										<parameter>
											<name>opacity</name>
											<parameterid>opacity</parameterid>
											<valuemin>0</valuemin>
											<valuemax>100</valuemax>
											<value>100</value>
										</parameter>
									</effect>
								</filter>
								<sourcetrack>
									<mediatype>video</mediatype>
								</sourcetrack>
								<link>
									<linkclipref>ArmA 3 2020.11.28 - 21.10.39.147.mp4805307601</linkclipref>
								</link>
								<link>
									<linkclipref>ArmA 3 2020.11.28 - 21.10.39.147.mp4536872146</linkclipref>
								</link>
								<link>
									<linkclipref>ArmA 3 2020.11.28 - 21.10.39.147.mp45368721461</linkclipref>
								</link>
								<link>
									<linkclipref>ArmA 3 2020.11.28 - 21.10.39.147.mp4536872147</linkclipref>
								</link>
								<link>
									<linkclipref>ArmA 3 2020.11.28 - 21.10.39.147.mp45368721471</linkclipref>
								</link>
								<fielddominance>none</fielddominance>
							</clipitem>
							<clipitem id="ArmA 3 2020.11.28 - 21.11.34.148.mp4805307604">
								<name>ArmA 3 2020.11.28 - 21.11.34.148.mp4</name>
								<duration>1118</duration>
								<rate>
									<ntsc>TRUE</ntsc>
									<timebase>60</timebase>
								</rate>
								<in>0</in>
								<out>1118</out>
								<start>9172</start>
								<end>10290</end>
								<pixelaspectratio>Square</pixelaspectratio>
								<anamorphic>FALSE</anamorphic>
								<alphatype>none</alphatype>
								<masterclipid>ArmA 3 2020.11.28 - 21.11.34.148.mp4</masterclipid>
								<logginginfo>
									<scene />
									<shottake />
									<lognote />
									<good>FALSE</good>
								</logginginfo>
								<labels>
									<label2 />
								</labels>
								<comments>
									<mastercomment1 />
									<mastercomment2 />
									<mastercomment3 />
									<mastercomment4 />
								</comments>
								<file id="ArmA 3 2020.11.28 - 21.11.34.148" />
								<filter>
									<effect>
										<name>Opacity</name>
										<effectid>opacity</effectid>
										<effectcategory>motion</effectcategory>
										<effecttype>motion</effecttype>
										<mediatype>video</mediatype>
										<parameter>
											<name>opacity</name>
											<parameterid>opacity</parameterid>
											<valuemin>0</valuemin>
											<valuemax>100</valuemax>
											<value>100</value>
										</parameter>
									</effect>
								</filter>
								<sourcetrack>
									<mediatype>video</mediatype>
								</sourcetrack>
								<link>
									<linkclipref>ArmA 3 2020.11.28 - 21.11.34.148.mp4805307604</linkclipref>
								</link>
								<link>
									<linkclipref>ArmA 3 2020.11.28 - 21.11.34.148.mp4536872149</linkclipref>
								</link>
								<link>
									<linkclipref>ArmA 3 2020.11.28 - 21.11.34.148.mp45368721491</linkclipref>
								</link>
								<link>
									<linkclipref>ArmA 3 2020.11.28 - 21.11.34.148.mp4536872150</linkclipref>
								</link>
								<link>
									<linkclipref>ArmA 3 2020.11.28 - 21.11.34.148.mp45368721501</linkclipref>
								</link>
								<fielddominance>none</fielddominance>
							</clipitem>
							<clipitem id="ArmA 3 2020.11.28 - 21.12.26.149.mp4805307607">
								<name>ArmA 3 2020.11.28 - 21.12.26.149.mp4</name>
								<duration>533</duration>
								<rate>
									<ntsc>FALSE</ntsc>
									<timebase>60</timebase>
								</rate>
								<in>0</in>
								<out>533</out>
								<start>10290</start>
								<end>10823</end>
								<pixelaspectratio>Square</pixelaspectratio>
								<anamorphic>FALSE</anamorphic>
								<alphatype>none</alphatype>
								<masterclipid>ArmA 3 2020.11.28 - 21.12.26.149.mp4</masterclipid>
								<logginginfo>
									<scene />
									<shottake />
									<lognote />
									<good>FALSE</good>
								</logginginfo>
								<labels>
									<label2 />
								</labels>
								<comments>
									<mastercomment1 />
									<mastercomment2 />
									<mastercomment3 />
									<mastercomment4 />
								</comments>
								<file id="ArmA 3 2020.11.28 - 21.12.26.149" />
								<filter>
									<effect>
										<name>Opacity</name>
										<effectid>opacity</effectid>
										<effectcategory>motion</effectcategory>
										<effecttype>motion</effecttype>
										<mediatype>video</mediatype>
										<parameter>
											<name>opacity</name>
											<parameterid>opacity</parameterid>
											<valuemin>0</valuemin>
											<valuemax>100</valuemax>
											<value>100</value>
										</parameter>
									</effect>
								</filter>
								<sourcetrack>
									<mediatype>video</mediatype>
								</sourcetrack>
								<link>
									<linkclipref>ArmA 3 2020.11.28 - 21.12.26.149.mp4805307607</linkclipref>
								</link>
								<link>
									<linkclipref>ArmA 3 2020.11.28 - 21.12.26.149.mp4536872152</linkclipref>
								</link>
								<link>
									<linkclipref>ArmA 3 2020.11.28 - 21.12.26.149.mp45368721521</linkclipref>
								</link>
								<link>
									<linkclipref>ArmA 3 2020.11.28 - 21.12.26.149.mp4536872153</linkclipref>
								</link>
								<link>
									<linkclipref>ArmA 3 2020.11.28 - 21.12.26.149.mp45368721531</linkclipref>
								</link>
								<fielddominance>none</fielddominance>
							</clipitem>
							<clipitem id="ArmA 3 2020.11.28 - 21.13.10.150.mp4805307610">
								<name>ArmA 3 2020.11.28 - 21.13.10.150.mp4</name>
								<duration>803</duration>
								<rate>
									<ntsc>TRUE</ntsc>
									<timebase>60</timebase>
								</rate>
								<in>0</in>
								<out>803</out>
								<start>10824</start>
								<end>11627</end>
								<pixelaspectratio>Square</pixelaspectratio>
								<anamorphic>FALSE</anamorphic>
								<alphatype>none</alphatype>
								<masterclipid>ArmA 3 2020.11.28 - 21.13.10.150.mp4</masterclipid>
								<logginginfo>
									<scene />
									<shottake />
									<lognote />
									<good>FALSE</good>
								</logginginfo>
								<labels>
									<label2 />
								</labels>
								<comments>
									<mastercomment1 />
									<mastercomment2 />
									<mastercomment3 />
									<mastercomment4 />
								</comments>
								<file id="ArmA 3 2020.11.28 - 21.13.10.150" />
								<filter>
									<effect>
										<name>Opacity</name>
										<effectid>opacity</effectid>
										<effectcategory>motion</effectcategory>
										<effecttype>motion</effecttype>
										<mediatype>video</mediatype>
										<parameter>
											<name>opacity</name>
											<parameterid>opacity</parameterid>
											<valuemin>0</valuemin>
											<valuemax>100</valuemax>
											<value>100</value>
										</parameter>
									</effect>
								</filter>
								<sourcetrack>
									<mediatype>video</mediatype>
								</sourcetrack>
								<link>
									<linkclipref>ArmA 3 2020.11.28 - 21.13.10.150.mp4805307610</linkclipref>
								</link>
								<link>
									<linkclipref>ArmA 3 2020.11.28 - 21.13.10.150.mp4536872155</linkclipref>
								</link>
								<link>
									<linkclipref>ArmA 3 2020.11.28 - 21.13.10.150.mp45368721551</linkclipref>
								</link>
								<link>
									<linkclipref>ArmA 3 2020.11.28 - 21.13.10.150.mp4536872156</linkclipref>
								</link>
								<link>
									<linkclipref>ArmA 3 2020.11.28 - 21.13.10.150.mp45368721561</linkclipref>
								</link>
								<fielddominance>none</fielddominance>
							</clipitem>
							<clipitem id="ArmA 3 2020.11.28 - 21.15.17.151.mp4805307613">
								<name>ArmA 3 2020.11.28 - 21.15.17.151.mp4</name>
								<duration>1024</duration>
								<rate>
									<ntsc>FALSE</ntsc>
									<timebase>60</timebase>
								</rate>
								<in>0</in>
								<out>1024</out>
								<start>11628</start>
								<end>12652</end>
								<pixelaspectratio>Square</pixelaspectratio>
								<anamorphic>FALSE</anamorphic>
								<alphatype>none</alphatype>
								<masterclipid>ArmA 3 2020.11.28 - 21.15.17.151.mp4</masterclipid>
								<logginginfo>
									<scene />
									<shottake />
									<lognote />
									<good>FALSE</good>
								</logginginfo>
								<labels>
									<label2 />
								</labels>
								<comments>
									<mastercomment1 />
									<mastercomment2 />
									<mastercomment3 />
									<mastercomment4 />
								</comments>
								<file id="ArmA 3 2020.11.28 - 21.15.17.151" />
								<filter>
									<effect>
										<name>Opacity</name>
										<effectid>opacity</effectid>
										<effectcategory>motion</effectcategory>
										<effecttype>motion</effecttype>
										<mediatype>video</mediatype>
										<parameter>
											<name>opacity</name>
											<parameterid>opacity</parameterid>
											<valuemin>0</valuemin>
											<valuemax>100</valuemax>
											<value>100</value>
										</parameter>
									</effect>
								</filter>
								<sourcetrack>
									<mediatype>video</mediatype>
								</sourcetrack>
								<link>
									<linkclipref>ArmA 3 2020.11.28 - 21.15.17.151.mp4805307613</linkclipref>
								</link>
								<link>
									<linkclipref>ArmA 3 2020.11.28 - 21.15.17.151.mp4536872158</linkclipref>
								</link>
								<link>
									<linkclipref>ArmA 3 2020.11.28 - 21.15.17.151.mp45368721581</linkclipref>
								</link>
								<link>
									<linkclipref>ArmA 3 2020.11.28 - 21.15.17.151.mp4536872159</linkclipref>
								</link>
								<link>
									<linkclipref>ArmA 3 2020.11.28 - 21.15.17.151.mp45368721591</linkclipref>
								</link>
								<fielddominance>none</fielddominance>
							</clipitem>
							<clipitem id="ArmA 3 2020.11.28 - 21.16.08.152.mp4805307616">
								<name>ArmA 3 2020.11.28 - 21.16.08.152.mp4</name>
								<duration>500</duration>
								<rate>
									<ntsc>TRUE</ntsc>
									<timebase>60</timebase>
								</rate>
								<in>0</in>
								<out>500</out>
								<start>12653</start>
								<end>13153</end>
								<pixelaspectratio>Square</pixelaspectratio>
								<anamorphic>FALSE</anamorphic>
								<alphatype>none</alphatype>
								<masterclipid>ArmA 3 2020.11.28 - 21.16.08.152.mp4</masterclipid>
								<logginginfo>
									<scene />
									<shottake />
									<lognote />
									<good>FALSE</good>
								</logginginfo>
								<labels>
									<label2 />
								</labels>
								<comments>
									<mastercomment1 />
									<mastercomment2 />
									<mastercomment3 />
									<mastercomment4 />
								</comments>
								<file id="ArmA 3 2020.11.28 - 21.16.08.152" />
								<filter>
									<effect>
										<name>Opacity</name>
										<effectid>opacity</effectid>
										<effectcategory>motion</effectcategory>
										<effecttype>motion</effecttype>
										<mediatype>video</mediatype>
										<parameter>
											<name>opacity</name>
											<parameterid>opacity</parameterid>
											<valuemin>0</valuemin>
											<valuemax>100</valuemax>
											<value>100</value>
										</parameter>
									</effect>
								</filter>
								<sourcetrack>
									<mediatype>video</mediatype>
								</sourcetrack>
								<link>
									<linkclipref>ArmA 3 2020.11.28 - 21.16.08.152.mp4805307616</linkclipref>
								</link>
								<link>
									<linkclipref>ArmA 3 2020.11.28 - 21.16.08.152.mp4536872161</linkclipref>
								</link>
								<link>
									<linkclipref>ArmA 3 2020.11.28 - 21.16.08.152.mp45368721611</linkclipref>
								</link>
								<link>
									<linkclipref>ArmA 3 2020.11.28 - 21.16.08.152.mp4536872162</linkclipref>
								</link>
								<link>
									<linkclipref>ArmA 3 2020.11.28 - 21.16.08.152.mp45368721621</linkclipref>
								</link>
								<fielddominance>none</fielddominance>
							</clipitem>
							<clipitem id="ArmA 3 2020.11.28 - 21.16.44.153.mp4805307619">
								<name>ArmA 3 2020.11.28 - 21.16.44.153.mp4</name>
								<duration>1280</duration>
								<rate>
									<ntsc>FALSE</ntsc>
									<timebase>60</timebase>
								</rate>
								<in>0</in>
								<out>1280</out>
								<start>13154</start>
								<end>14434</end>
								<pixelaspectratio>Square</pixelaspectratio>
								<anamorphic>FALSE</anamorphic>
								<alphatype>none</alphatype>
								<masterclipid>ArmA 3 2020.11.28 - 21.16.44.153.mp4</masterclipid>
								<logginginfo>
									<scene />
									<shottake />
									<lognote />
									<good>FALSE</good>
								</logginginfo>
								<labels>
									<label2 />
								</labels>
								<comments>
									<mastercomment1 />
									<mastercomment2 />
									<mastercomment3 />
									<mastercomment4 />
								</comments>
								<file id="ArmA 3 2020.11.28 - 21.16.44.153" />
								<filter>
									<effect>
										<name>Opacity</name>
										<effectid>opacity</effectid>
										<effectcategory>motion</effectcategory>
										<effecttype>motion</effecttype>
										<mediatype>video</mediatype>
										<parameter>
											<name>opacity</name>
											<parameterid>opacity</parameterid>
											<valuemin>0</valuemin>
											<valuemax>100</valuemax>
											<value>100</value>
										</parameter>
									</effect>
								</filter>
								<sourcetrack>
									<mediatype>video</mediatype>
								</sourcetrack>
								<link>
									<linkclipref>ArmA 3 2020.11.28 - 21.16.44.153.mp4805307619</linkclipref>
								</link>
								<link>
									<linkclipref>ArmA 3 2020.11.28 - 21.16.44.153.mp4536872164</linkclipref>
								</link>
								<link>
									<linkclipref>ArmA 3 2020.11.28 - 21.16.44.153.mp45368721641</linkclipref>
								</link>
								<link>
									<linkclipref>ArmA 3 2020.11.28 - 21.16.44.153.mp4536872165</linkclipref>
								</link>
								<link>
									<linkclipref>ArmA 3 2020.11.28 - 21.16.44.153.mp45368721651</linkclipref>
								</link>
								<fielddominance>none</fielddominance>
							</clipitem>
							<clipitem id="ArmA 3 2020.11.28 - 21.18.36.154.mp4805307622">
								<name>ArmA 3 2020.11.28 - 21.18.36.154.mp4</name>
								<duration>1079</duration>
								<rate>
									<ntsc>FALSE</ntsc>
									<timebase>60</timebase>
								</rate>
								<in>0</in>
								<out>1079</out>
								<start>14435</start>
								<end>15514</end>
								<pixelaspectratio>Square</pixelaspectratio>
								<anamorphic>FALSE</anamorphic>
								<alphatype>none</alphatype>
								<masterclipid>ArmA 3 2020.11.28 - 21.18.36.154.mp4</masterclipid>
								<logginginfo>
									<scene />
									<shottake />
									<lognote />
									<good>FALSE</good>
								</logginginfo>
								<labels>
									<label2 />
								</labels>
								<comments>
									<mastercomment1 />
									<mastercomment2 />
									<mastercomment3 />
									<mastercomment4 />
								</comments>
								<file id="ArmA 3 2020.11.28 - 21.18.36.154" />
								<filter>
									<effect>
										<name>Opacity</name>
										<effectid>opacity</effectid>
										<effectcategory>motion</effectcategory>
										<effecttype>motion</effecttype>
										<mediatype>video</mediatype>
										<parameter>
											<name>opacity</name>
											<parameterid>opacity</parameterid>
											<valuemin>0</valuemin>
											<valuemax>100</valuemax>
											<value>100</value>
										</parameter>
									</effect>
								</filter>
								<sourcetrack>
									<mediatype>video</mediatype>
								</sourcetrack>
								<link>
									<linkclipref>ArmA 3 2020.11.28 - 21.18.36.154.mp4805307622</linkclipref>
								</link>
								<link>
									<linkclipref>ArmA 3 2020.11.28 - 21.18.36.154.mp4536872167</linkclipref>
								</link>
								<link>
									<linkclipref>ArmA 3 2020.11.28 - 21.18.36.154.mp45368721671</linkclipref>
								</link>
								<link>
									<linkclipref>ArmA 3 2020.11.28 - 21.18.36.154.mp4536872168</linkclipref>
								</link>
								<link>
									<linkclipref>ArmA 3 2020.11.28 - 21.18.36.154.mp45368721681</linkclipref>
								</link>
								<fielddominance>none</fielddominance>
							</clipitem>
							<clipitem id="ArmA 3 2020.11.28 - 21.21.45.155.mp4805307625">
								<name>ArmA 3 2020.11.28 - 21.21.45.155.mp4</name>
								<duration>458</duration>
								<rate>
									<ntsc>FALSE</ntsc>
									<timebase>60</timebase>
								</rate>
								<in>0</in>
								<out>458</out>
								<start>15515</start>
								<end>15973</end>
								<pixelaspectratio>Square</pixelaspectratio>
								<anamorphic>FALSE</anamorphic>
								<alphatype>none</alphatype>
								<masterclipid>ArmA 3 2020.11.28 - 21.21.45.155.mp4</masterclipid>
								<logginginfo>
									<scene />
									<shottake />
									<lognote />
									<good>FALSE</good>
								</logginginfo>
								<labels>
									<label2 />
								</labels>
								<comments>
									<mastercomment1 />
									<mastercomment2 />
									<mastercomment3 />
									<mastercomment4 />
								</comments>
								<file id="ArmA 3 2020.11.28 - 21.21.45.155" />
								<filter>
									<effect>
										<name>Opacity</name>
										<effectid>opacity</effectid>
										<effectcategory>motion</effectcategory>
										<effecttype>motion</effecttype>
										<mediatype>video</mediatype>
										<parameter>
											<name>opacity</name>
											<parameterid>opacity</parameterid>
											<valuemin>0</valuemin>
											<valuemax>100</valuemax>
											<value>100</value>
										</parameter>
									</effect>
								</filter>
								<sourcetrack>
									<mediatype>video</mediatype>
								</sourcetrack>
								<link>
									<linkclipref>ArmA 3 2020.11.28 - 21.21.45.155.mp4805307625</linkclipref>
								</link>
								<link>
									<linkclipref>ArmA 3 2020.11.28 - 21.21.45.155.mp4536872170</linkclipref>
								</link>
								<link>
									<linkclipref>ArmA 3 2020.11.28 - 21.21.45.155.mp45368721701</linkclipref>
								</link>
								<link>
									<linkclipref>ArmA 3 2020.11.28 - 21.21.45.155.mp4536872171</linkclipref>
								</link>
								<link>
									<linkclipref>ArmA 3 2020.11.28 - 21.21.45.155.mp45368721711</linkclipref>
								</link>
								<fielddominance>none</fielddominance>
							</clipitem>
							<clipitem id="ArmA 3 2020.11.28 - 21.23.14.156.mp4805307628">
								<name>ArmA 3 2020.11.28 - 21.23.14.156.mp4</name>
								<duration>289</duration>
								<rate>
									<ntsc>FALSE</ntsc>
									<timebase>60</timebase>
								</rate>
								<in>0</in>
								<out>289</out>
								<start>15974</start>
								<end>16263</end>
								<pixelaspectratio>Square</pixelaspectratio>
								<anamorphic>FALSE</anamorphic>
								<alphatype>none</alphatype>
								<masterclipid>ArmA 3 2020.11.28 - 21.23.14.156.mp4</masterclipid>
								<logginginfo>
									<scene />
									<shottake />
									<lognote />
									<good>FALSE</good>
								</logginginfo>
								<labels>
									<label2 />
								</labels>
								<comments>
									<mastercomment1 />
									<mastercomment2 />
									<mastercomment3 />
									<mastercomment4 />
								</comments>
								<file id="ArmA 3 2020.11.28 - 21.23.14.156" />
								<filter>
									<effect>
										<name>Opacity</name>
										<effectid>opacity</effectid>
										<effectcategory>motion</effectcategory>
										<effecttype>motion</effecttype>
										<mediatype>video</mediatype>
										<parameter>
											<name>opacity</name>
											<parameterid>opacity</parameterid>
											<valuemin>0</valuemin>
											<valuemax>100</valuemax>
											<value>100</value>
										</parameter>
									</effect>
								</filter>
								<sourcetrack>
									<mediatype>video</mediatype>
								</sourcetrack>
								<link>
									<linkclipref>ArmA 3 2020.11.28 - 21.23.14.156.mp4805307628</linkclipref>
								</link>
								<link>
									<linkclipref>ArmA 3 2020.11.28 - 21.23.14.156.mp4536872173</linkclipref>
								</link>
								<link>
									<linkclipref>ArmA 3 2020.11.28 - 21.23.14.156.mp45368721731</linkclipref>
								</link>
								<link>
									<linkclipref>ArmA 3 2020.11.28 - 21.23.14.156.mp4536872174</linkclipref>
								</link>
								<link>
									<linkclipref>ArmA 3 2020.11.28 - 21.23.14.156.mp45368721741</linkclipref>
								</link>
								<fielddominance>none</fielddominance>
							</clipitem>
							<clipitem id="ArmA 3 2020.11.28 - 21.23.42.157.mp4805307631">
								<name>ArmA 3 2020.11.28 - 21.23.42.157.mp4</name>
								<duration>161</duration>
								<rate>
									<ntsc>FALSE</ntsc>
									<timebase>60</timebase>
								</rate>
								<in>0</in>
								<out>161</out>
								<start>16264</start>
								<end>16425</end>
								<pixelaspectratio>Square</pixelaspectratio>
								<anamorphic>FALSE</anamorphic>
								<alphatype>none</alphatype>
								<masterclipid>ArmA 3 2020.11.28 - 21.23.42.157.mp4</masterclipid>
								<logginginfo>
									<scene />
									<shottake />
									<lognote />
									<good>FALSE</good>
								</logginginfo>
								<labels>
									<label2 />
								</labels>
								<comments>
									<mastercomment1 />
									<mastercomment2 />
									<mastercomment3 />
									<mastercomment4 />
								</comments>
								<file id="ArmA 3 2020.11.28 - 21.23.42.157" />
								<filter>
									<effect>
										<name>Opacity</name>
										<effectid>opacity</effectid>
										<effectcategory>motion</effectcategory>
										<effecttype>motion</effecttype>
										<mediatype>video</mediatype>
										<parameter>
											<name>opacity</name>
											<parameterid>opacity</parameterid>
											<valuemin>0</valuemin>
											<valuemax>100</valuemax>
											<value>100</value>
										</parameter>
									</effect>
								</filter>
								<sourcetrack>
									<mediatype>video</mediatype>
								</sourcetrack>
								<link>
									<linkclipref>ArmA 3 2020.11.28 - 21.23.42.157.mp4805307631</linkclipref>
								</link>
								<link>
									<linkclipref>ArmA 3 2020.11.28 - 21.23.42.157.mp4536872176</linkclipref>
								</link>
								<link>
									<linkclipref>ArmA 3 2020.11.28 - 21.23.42.157.mp45368721761</linkclipref>
								</link>
								<link>
									<linkclipref>ArmA 3 2020.11.28 - 21.23.42.157.mp4536872177</linkclipref>
								</link>
								<link>
									<linkclipref>ArmA 3 2020.11.28 - 21.23.42.157.mp45368721771</linkclipref>
								</link>
								<fielddominance>none</fielddominance>
							</clipitem>
							<clipitem id="ArmA 3 2020.11.28 - 21.24.02.158.mp4805307634">
								<name>ArmA 3 2020.11.28 - 21.24.02.158.mp4</name>
								<duration>425</duration>
								<rate>
									<ntsc>TRUE</ntsc>
									<timebase>60</timebase>
								</rate>
								<in>0</in>
								<out>425</out>
								<start>16426</start>
								<end>16851</end>
								<pixelaspectratio>Square</pixelaspectratio>
								<anamorphic>FALSE</anamorphic>
								<alphatype>none</alphatype>
								<masterclipid>ArmA 3 2020.11.28 - 21.24.02.158.mp4</masterclipid>
								<logginginfo>
									<scene />
									<shottake />
									<lognote />
									<good>FALSE</good>
								</logginginfo>
								<labels>
									<label2 />
								</labels>
								<comments>
									<mastercomment1 />
									<mastercomment2 />
									<mastercomment3 />
									<mastercomment4 />
								</comments>
								<file id="ArmA 3 2020.11.28 - 21.24.02.158" />
								<filter>
									<effect>
										<name>Opacity</name>
										<effectid>opacity</effectid>
										<effectcategory>motion</effectcategory>
										<effecttype>motion</effecttype>
										<mediatype>video</mediatype>
										<parameter>
											<name>opacity</name>
											<parameterid>opacity</parameterid>
											<valuemin>0</valuemin>
											<valuemax>100</valuemax>
											<value>100</value>
										</parameter>
									</effect>
								</filter>
								<sourcetrack>
									<mediatype>video</mediatype>
								</sourcetrack>
								<link>
									<linkclipref>ArmA 3 2020.11.28 - 21.24.02.158.mp4805307634</linkclipref>
								</link>
								<link>
									<linkclipref>ArmA 3 2020.11.28 - 21.24.02.158.mp4536872179</linkclipref>
								</link>
								<link>
									<linkclipref>ArmA 3 2020.11.28 - 21.24.02.158.mp45368721791</linkclipref>
								</link>
								<link>
									<linkclipref>ArmA 3 2020.11.28 - 21.24.02.158.mp4536872180</linkclipref>
								</link>
								<link>
									<linkclipref>ArmA 3 2020.11.28 - 21.24.02.158.mp45368721801</linkclipref>
								</link>
								<fielddominance>none</fielddominance>
							</clipitem>
							<clipitem id="ArmA 3 2020.11.28 - 21.24.28.159.mp4805307637">
								<name>ArmA 3 2020.11.28 - 21.24.28.159.mp4</name>
								<duration>114</duration>
								<rate>
									<ntsc>FALSE</ntsc>
									<timebase>60</timebase>
								</rate>
								<in>0</in>
								<out>114</out>
								<start>16852</start>
								<end>16966</end>
								<pixelaspectratio>Square</pixelaspectratio>
								<anamorphic>FALSE</anamorphic>
								<alphatype>none</alphatype>
								<masterclipid>ArmA 3 2020.11.28 - 21.24.28.159.mp4</masterclipid>
								<logginginfo>
									<scene />
									<shottake />
									<lognote />
									<good>FALSE</good>
								</logginginfo>
								<labels>
									<label2 />
								</labels>
								<comments>
									<mastercomment1 />
									<mastercomment2 />
									<mastercomment3 />
									<mastercomment4 />
								</comments>
								<file id="ArmA 3 2020.11.28 - 21.24.28.159" />
								<filter>
									<effect>
										<name>Opacity</name>
										<effectid>opacity</effectid>
										<effectcategory>motion</effectcategory>
										<effecttype>motion</effecttype>
										<mediatype>video</mediatype>
										<parameter>
											<name>opacity</name>
											<parameterid>opacity</parameterid>
											<valuemin>0</valuemin>
											<valuemax>100</valuemax>
											<value>100</value>
										</parameter>
									</effect>
								</filter>
								<sourcetrack>
									<mediatype>video</mediatype>
								</sourcetrack>
								<link>
									<linkclipref>ArmA 3 2020.11.28 - 21.24.28.159.mp4805307637</linkclipref>
								</link>
								<link>
									<linkclipref>ArmA 3 2020.11.28 - 21.24.28.159.mp4536872182</linkclipref>
								</link>
								<link>
									<linkclipref>ArmA 3 2020.11.28 - 21.24.28.159.mp45368721821</linkclipref>
								</link>
								<link>
									<linkclipref>ArmA 3 2020.11.28 - 21.24.28.159.mp4536872183</linkclipref>
								</link>
								<link>
									<linkclipref>ArmA 3 2020.11.28 - 21.24.28.159.mp45368721831</linkclipref>
								</link>
								<fielddominance>none</fielddominance>
							</clipitem>
							<clipitem id="ArmA 3 2020.11.28 - 21.24.48.160.mp4805307640">
								<name>ArmA 3 2020.11.28 - 21.24.48.160.mp4</name>
								<duration>2003</duration>
								<rate>
									<ntsc>FALSE</ntsc>
									<timebase>60</timebase>
								</rate>
								<in>0</in>
								<out>2003</out>
								<start>16967</start>
								<end>18970</end>
								<pixelaspectratio>Square</pixelaspectratio>
								<anamorphic>FALSE</anamorphic>
								<alphatype>none</alphatype>
								<masterclipid>ArmA 3 2020.11.28 - 21.24.48.160.mp4</masterclipid>
								<logginginfo>
									<scene />
									<shottake />
									<lognote />
									<good>FALSE</good>
								</logginginfo>
								<labels>
									<label2 />
								</labels>
								<comments>
									<mastercomment1 />
									<mastercomment2 />
									<mastercomment3 />
									<mastercomment4 />
								</comments>
								<file id="ArmA 3 2020.11.28 - 21.24.48.160" />
								<filter>
									<effect>
										<name>Opacity</name>
										<effectid>opacity</effectid>
										<effectcategory>motion</effectcategory>
										<effecttype>motion</effecttype>
										<mediatype>video</mediatype>
										<parameter>
											<name>opacity</name>
											<parameterid>opacity</parameterid>
											<valuemin>0</valuemin>
											<valuemax>100</valuemax>
											<value>100</value>
										</parameter>
									</effect>
								</filter>
								<sourcetrack>
									<mediatype>video</mediatype>
								</sourcetrack>
								<link>
									<linkclipref>ArmA 3 2020.11.28 - 21.24.48.160.mp4805307640</linkclipref>
								</link>
								<link>
									<linkclipref>ArmA 3 2020.11.28 - 21.24.48.160.mp4536872185</linkclipref>
								</link>
								<link>
									<linkclipref>ArmA 3 2020.11.28 - 21.24.48.160.mp45368721851</linkclipref>
								</link>
								<link>
									<linkclipref>ArmA 3 2020.11.28 - 21.24.48.160.mp4536872186</linkclipref>
								</link>
								<link>
									<linkclipref>ArmA 3 2020.11.28 - 21.24.48.160.mp45368721861</linkclipref>
								</link>
								<fielddominance>none</fielddominance>
							</clipitem>
							<clipitem id="ArmA 3 2020.11.28 - 21.26.19.161.mp4805307643">
								<name>ArmA 3 2020.11.28 - 21.26.19.161.mp4</name>
								<duration>2498</duration>
								<rate>
									<ntsc>FALSE</ntsc>
									<timebase>60</timebase>
								</rate>
								<in>0</in>
								<out>2498</out>
								<start>18971</start>
								<end>21469</end>
								<pixelaspectratio>Square</pixelaspectratio>
								<anamorphic>FALSE</anamorphic>
								<alphatype>none</alphatype>
								<masterclipid>ArmA 3 2020.11.28 - 21.26.19.161.mp4</masterclipid>
								<logginginfo>
									<scene />
									<shottake />
									<lognote />
									<good>FALSE</good>
								</logginginfo>
								<labels>
									<label2 />
								</labels>
								<comments>
									<mastercomment1 />
									<mastercomment2 />
									<mastercomment3 />
									<mastercomment4 />
								</comments>
								<file id="ArmA 3 2020.11.28 - 21.26.19.161" />
								<filter>
									<effect>
										<name>Opacity</name>
										<effectid>opacity</effectid>
										<effectcategory>motion</effectcategory>
										<effecttype>motion</effecttype>
										<mediatype>video</mediatype>
										<parameter>
											<name>opacity</name>
											<parameterid>opacity</parameterid>
											<valuemin>0</valuemin>
											<valuemax>100</valuemax>
											<value>100</value>
										</parameter>
									</effect>
								</filter>
								<sourcetrack>
									<mediatype>video</mediatype>
								</sourcetrack>
								<link>
									<linkclipref>ArmA 3 2020.11.28 - 21.26.19.161.mp4805307643</linkclipref>
								</link>
								<link>
									<linkclipref>ArmA 3 2020.11.28 - 21.26.19.161.mp4536872188</linkclipref>
								</link>
								<link>
									<linkclipref>ArmA 3 2020.11.28 - 21.26.19.161.mp45368721881</linkclipref>
								</link>
								<link>
									<linkclipref>ArmA 3 2020.11.28 - 21.26.19.161.mp4536872189</linkclipref>
								</link>
								<link>
									<linkclipref>ArmA 3 2020.11.28 - 21.26.19.161.mp45368721891</linkclipref>
								</link>
								<fielddominance>none</fielddominance>
							</clipitem>
							<clipitem id="ArmA 3 2020.11.28 - 21.28.04.162.mp4805307646">
								<name>ArmA 3 2020.11.28 - 21.28.04.162.mp4</name>
								<duration>1150</duration>
								<rate>
									<ntsc>FALSE</ntsc>
									<timebase>60</timebase>
								</rate>
								<in>0</in>
								<out>1150</out>
								<start>21470</start>
								<end>22620</end>
								<pixelaspectratio>Square</pixelaspectratio>
								<anamorphic>FALSE</anamorphic>
								<alphatype>none</alphatype>
								<masterclipid>ArmA 3 2020.11.28 - 21.28.04.162.mp4</masterclipid>
								<logginginfo>
									<scene />
									<shottake />
									<lognote />
									<good>FALSE</good>
								</logginginfo>
								<labels>
									<label2 />
								</labels>
								<comments>
									<mastercomment1 />
									<mastercomment2 />
									<mastercomment3 />
									<mastercomment4 />
								</comments>
								<file id="ArmA 3 2020.11.28 - 21.28.04.162" />
								<filter>
									<effect>
										<name>Opacity</name>
										<effectid>opacity</effectid>
										<effectcategory>motion</effectcategory>
										<effecttype>motion</effecttype>
										<mediatype>video</mediatype>
										<parameter>
											<name>opacity</name>
											<parameterid>opacity</parameterid>
											<valuemin>0</valuemin>
											<valuemax>100</valuemax>
											<value>100</value>
										</parameter>
									</effect>
								</filter>
								<sourcetrack>
									<mediatype>video</mediatype>
								</sourcetrack>
								<link>
									<linkclipref>ArmA 3 2020.11.28 - 21.28.04.162.mp4805307646</linkclipref>
								</link>
								<link>
									<linkclipref>ArmA 3 2020.11.28 - 21.28.04.162.mp4536872191</linkclipref>
								</link>
								<link>
									<linkclipref>ArmA 3 2020.11.28 - 21.28.04.162.mp45368721911</linkclipref>
								</link>
								<link>
									<linkclipref>ArmA 3 2020.11.28 - 21.28.04.162.mp4536872192</linkclipref>
								</link>
								<link>
									<linkclipref>ArmA 3 2020.11.28 - 21.28.04.162.mp45368721921</linkclipref>
								</link>
								<fielddominance>none</fielddominance>
							</clipitem>
							<clipitem id="ArmA 3 2020.11.28 - 21.29.07.163.mp4805307649">
								<name>ArmA 3 2020.11.28 - 21.29.07.163.mp4</name>
								<duration>407</duration>
								<rate>
									<ntsc>FALSE</ntsc>
									<timebase>60</timebase>
								</rate>
								<in>0</in>
								<out>407</out>
								<start>22621</start>
								<end>23028</end>
								<pixelaspectratio>Square</pixelaspectratio>
								<anamorphic>FALSE</anamorphic>
								<alphatype>none</alphatype>
								<masterclipid>ArmA 3 2020.11.28 - 21.29.07.163.mp4</masterclipid>
								<logginginfo>
									<scene />
									<shottake />
									<lognote />
									<good>FALSE</good>
								</logginginfo>
								<labels>
									<label2 />
								</labels>
								<comments>
									<mastercomment1 />
									<mastercomment2 />
									<mastercomment3 />
									<mastercomment4 />
								</comments>
								<file id="ArmA 3 2020.11.28 - 21.29.07.163" />
								<filter>
									<effect>
										<name>Opacity</name>
										<effectid>opacity</effectid>
										<effectcategory>motion</effectcategory>
										<effecttype>motion</effecttype>
										<mediatype>video</mediatype>
										<parameter>
											<name>opacity</name>
											<parameterid>opacity</parameterid>
											<valuemin>0</valuemin>
											<valuemax>100</valuemax>
											<value>100</value>
										</parameter>
									</effect>
								</filter>
								<sourcetrack>
									<mediatype>video</mediatype>
								</sourcetrack>
								<link>
									<linkclipref>ArmA 3 2020.11.28 - 21.29.07.163.mp4805307649</linkclipref>
								</link>
								<link>
									<linkclipref>ArmA 3 2020.11.28 - 21.29.07.163.mp4536872194</linkclipref>
								</link>
								<link>
									<linkclipref>ArmA 3 2020.11.28 - 21.29.07.163.mp45368721941</linkclipref>
								</link>
								<link>
									<linkclipref>ArmA 3 2020.11.28 - 21.29.07.163.mp4536872195</linkclipref>
								</link>
								<link>
									<linkclipref>ArmA 3 2020.11.28 - 21.29.07.163.mp45368721951</linkclipref>
								</link>
								<fielddominance>none</fielddominance>
							</clipitem>
							<clipitem id="ArmA 3 2020.11.28 - 21.29.46.164.mp4805307652">
								<name>ArmA 3 2020.11.28 - 21.29.46.164.mp4</name>
								<duration>1238</duration>
								<rate>
									<ntsc>FALSE</ntsc>
									<timebase>60</timebase>
								</rate>
								<in>0</in>
								<out>1238</out>
								<start>23029</start>
								<end>24267</end>
								<pixelaspectratio>Square</pixelaspectratio>
								<anamorphic>FALSE</anamorphic>
								<alphatype>none</alphatype>
								<masterclipid>ArmA 3 2020.11.28 - 21.29.46.164.mp4</masterclipid>
								<logginginfo>
									<scene />
									<shottake />
									<lognote />
									<good>FALSE</good>
								</logginginfo>
								<labels>
									<label2 />
								</labels>
								<comments>
									<mastercomment1 />
									<mastercomment2 />
									<mastercomment3 />
									<mastercomment4 />
								</comments>
								<file id="ArmA 3 2020.11.28 - 21.29.46.164" />
								<filter>
									<effect>
										<name>Opacity</name>
										<effectid>opacity</effectid>
										<effectcategory>motion</effectcategory>
										<effecttype>motion</effecttype>
										<mediatype>video</mediatype>
										<parameter>
											<name>opacity</name>
											<parameterid>opacity</parameterid>
											<valuemin>0</valuemin>
											<valuemax>100</valuemax>
											<value>100</value>
										</parameter>
									</effect>
								</filter>
								<sourcetrack>
									<mediatype>video</mediatype>
								</sourcetrack>
								<link>
									<linkclipref>ArmA 3 2020.11.28 - 21.29.46.164.mp4805307652</linkclipref>
								</link>
								<link>
									<linkclipref>ArmA 3 2020.11.28 - 21.29.46.164.mp4536872197</linkclipref>
								</link>
								<link>
									<linkclipref>ArmA 3 2020.11.28 - 21.29.46.164.mp45368721971</linkclipref>
								</link>
								<link>
									<linkclipref>ArmA 3 2020.11.28 - 21.29.46.164.mp4536872198</linkclipref>
								</link>
								<link>
									<linkclipref>ArmA 3 2020.11.28 - 21.29.46.164.mp45368721981</linkclipref>
								</link>
								<fielddominance>none</fielddominance>
							</clipitem>
							<clipitem id="ArmA 3 2020.11.28 - 21.31.14.165.mp4805307655">
								<name>ArmA 3 2020.11.28 - 21.31.14.165.mp4</name>
								<duration>759</duration>
								<rate>
									<ntsc>FALSE</ntsc>
									<timebase>60</timebase>
								</rate>
								<in>0</in>
								<out>759</out>
								<start>24268</start>
								<end>25027</end>
								<pixelaspectratio>Square</pixelaspectratio>
								<anamorphic>FALSE</anamorphic>
								<alphatype>none</alphatype>
								<masterclipid>ArmA 3 2020.11.28 - 21.31.14.165.mp4</masterclipid>
								<logginginfo>
									<scene />
									<shottake />
									<lognote />
									<good>FALSE</good>
								</logginginfo>
								<labels>
									<label2 />
								</labels>
								<comments>
									<mastercomment1 />
									<mastercomment2 />
									<mastercomment3 />
									<mastercomment4 />
								</comments>
								<file id="ArmA 3 2020.11.28 - 21.31.14.165" />
								<filter>
									<effect>
										<name>Opacity</name>
										<effectid>opacity</effectid>
										<effectcategory>motion</effectcategory>
										<effecttype>motion</effecttype>
										<mediatype>video</mediatype>
										<parameter>
											<name>opacity</name>
											<parameterid>opacity</parameterid>
											<valuemin>0</valuemin>
											<valuemax>100</valuemax>
											<value>100</value>
										</parameter>
									</effect>
								</filter>
								<sourcetrack>
									<mediatype>video</mediatype>
								</sourcetrack>
								<link>
									<linkclipref>ArmA 3 2020.11.28 - 21.31.14.165.mp4805307655</linkclipref>
								</link>
								<link>
									<linkclipref>ArmA 3 2020.11.28 - 21.31.14.165.mp4536872200</linkclipref>
								</link>
								<link>
									<linkclipref>ArmA 3 2020.11.28 - 21.31.14.165.mp45368722001</linkclipref>
								</link>
								<link>
									<linkclipref>ArmA 3 2020.11.28 - 21.31.14.165.mp4536872201</linkclipref>
								</link>
								<link>
									<linkclipref>ArmA 3 2020.11.28 - 21.31.14.165.mp45368722011</linkclipref>
								</link>
								<fielddominance>none</fielddominance>
							</clipitem>
							<clipitem id="ArmA 3 2020.11.28 - 21.31.58.166.mp4805307658">
								<name>ArmA 3 2020.11.28 - 21.31.58.166.mp4</name>
								<duration>710</duration>
								<rate>
									<ntsc>FALSE</ntsc>
									<timebase>60</timebase>
								</rate>
								<in>0</in>
								<out>710</out>
								<start>25028</start>
								<end>25738</end>
								<pixelaspectratio>Square</pixelaspectratio>
								<anamorphic>FALSE</anamorphic>
								<alphatype>none</alphatype>
								<masterclipid>ArmA 3 2020.11.28 - 21.31.58.166.mp4</masterclipid>
								<logginginfo>
									<scene />
									<shottake />
									<lognote />
									<good>FALSE</good>
								</logginginfo>
								<labels>
									<label2 />
								</labels>
								<comments>
									<mastercomment1 />
									<mastercomment2 />
									<mastercomment3 />
									<mastercomment4 />
								</comments>
								<file id="ArmA 3 2020.11.28 - 21.31.58.166" />
								<filter>
									<effect>
										<name>Opacity</name>
										<effectid>opacity</effectid>
										<effectcategory>motion</effectcategory>
										<effecttype>motion</effecttype>
										<mediatype>video</mediatype>
										<parameter>
											<name>opacity</name>
											<parameterid>opacity</parameterid>
											<valuemin>0</valuemin>
											<valuemax>100</valuemax>
											<value>100</value>
										</parameter>
									</effect>
								</filter>
								<sourcetrack>
									<mediatype>video</mediatype>
								</sourcetrack>
								<link>
									<linkclipref>ArmA 3 2020.11.28 - 21.31.58.166.mp4805307658</linkclipref>
								</link>
								<link>
									<linkclipref>ArmA 3 2020.11.28 - 21.31.58.166.mp4536872203</linkclipref>
								</link>
								<link>
									<linkclipref>ArmA 3 2020.11.28 - 21.31.58.166.mp45368722031</linkclipref>
								</link>
								<link>
									<linkclipref>ArmA 3 2020.11.28 - 21.31.58.166.mp4536872204</linkclipref>
								</link>
								<link>
									<linkclipref>ArmA 3 2020.11.28 - 21.31.58.166.mp45368722041</linkclipref>
								</link>
								<fielddominance>none</fielddominance>
							</clipitem>
							<clipitem id="ArmA 3 2020.11.28 - 21.32.33.167.mp4805307661">
								<name>ArmA 3 2020.11.28 - 21.32.33.167.mp4</name>
								<duration>1026</duration>
								<rate>
									<ntsc>FALSE</ntsc>
									<timebase>60</timebase>
								</rate>
								<in>0</in>
								<out>1026</out>
								<start>25739</start>
								<end>26765</end>
								<pixelaspectratio>Square</pixelaspectratio>
								<anamorphic>FALSE</anamorphic>
								<alphatype>none</alphatype>
								<masterclipid>ArmA 3 2020.11.28 - 21.32.33.167.mp4</masterclipid>
								<logginginfo>
									<scene />
									<shottake />
									<lognote />
									<good>FALSE</good>
								</logginginfo>
								<labels>
									<label2 />
								</labels>
								<comments>
									<mastercomment1 />
									<mastercomment2 />
									<mastercomment3 />
									<mastercomment4 />
								</comments>
								<file id="ArmA 3 2020.11.28 - 21.32.33.167" />
								<filter>
									<effect>
										<name>Opacity</name>
										<effectid>opacity</effectid>
										<effectcategory>motion</effectcategory>
										<effecttype>motion</effecttype>
										<mediatype>video</mediatype>
										<parameter>
											<name>opacity</name>
											<parameterid>opacity</parameterid>
											<valuemin>0</valuemin>
											<valuemax>100</valuemax>
											<value>100</value>
										</parameter>
									</effect>
								</filter>
								<sourcetrack>
									<mediatype>video</mediatype>
								</sourcetrack>
								<link>
									<linkclipref>ArmA 3 2020.11.28 - 21.32.33.167.mp4805307661</linkclipref>
								</link>
								<link>
									<linkclipref>ArmA 3 2020.11.28 - 21.32.33.167.mp4536872206</linkclipref>
								</link>
								<link>
									<linkclipref>ArmA 3 2020.11.28 - 21.32.33.167.mp45368722061</linkclipref>
								</link>
								<link>
									<linkclipref>ArmA 3 2020.11.28 - 21.32.33.167.mp4536872207</linkclipref>
								</link>
								<link>
									<linkclipref>ArmA 3 2020.11.28 - 21.32.33.167.mp45368722071</linkclipref>
								</link>
								<fielddominance>none</fielddominance>
							</clipitem>
						</track>
					</video>
					<audio>
						<track>
							<clipitem id="ArmA 3 2020.11.28 - 21.09.20.144.mp4536872138">
								<name>ArmA 3 2020.11.28 - 21.09.20.144.mp4</name>
								<duration>593</duration>
								<rate>
									<ntsc>TRUE</ntsc>
									<timebase>24</timebase>
								</rate>
								<in>0</in>
								<out>593</out>
								<start>0</start>
								<end>593</end>
								<enabled>FALSE</enabled>
								<masterclipid>ArmA 3 2020.11.28 - 21.09.20.144.mp4</masterclipid>
								<logginginfo>
									<scene />
									<shottake />
									<lognote />
									<good>FALSE</good>
								</logginginfo>
								<labels>
									<label2 />
								</labels>
								<comments>
									<mastercomment1 />
									<mastercomment2 />
									<mastercomment3 />
									<mastercomment4 />
								</comments>
								<file id="ArmA 3 2020.11.28 - 21.09.20.144" />
								<filter>
									<effect>
										<name>Audio Levels</name>
										<effectid>audiolevels</effectid>
										<effectcategory>audiolevels</effectcategory>
										<effecttype>audiolevels</effecttype>
										<mediatype>audio</mediatype>
										<parameter>
											<name>Level</name>
											<parameterid>level</parameterid>
											<valuemin>0</valuemin>
											<valuemax>3,98109</valuemax>
											<value>1</value>
										</parameter>
									</effect>
								</filter>
								<filter>
									<effect>
										<name>Audio Pan</name>
										<effectid>audiopan</effectid>
										<effectcategory>audiopan</effectcategory>
										<effecttype>audiopan</effecttype>
										<mediatype>audio</mediatype>
										<parameter>
											<name>Pan</name>
											<parameterid>pan</parameterid>
											<valuemin>-1</valuemin>
											<valuemax>1</valuemax>
											<value>-1</value>
										</parameter>
									</effect>
								</filter>
								<sourcetrack>
									<mediatype>audio</mediatype>
									<trackindex>1</trackindex>
								</sourcetrack>
								<link>
									<linkclipref>ArmA 3 2020.11.28 - 21.09.20.144.mp4805307592</linkclipref>
								</link>
								<link>
									<linkclipref>ArmA 3 2020.11.28 - 21.09.20.144.mp4536872137</linkclipref>
								</link>
								<link>
									<linkclipref>ArmA 3 2020.11.28 - 21.09.20.144.mp45368721371</linkclipref>
								</link>
								<link>
									<linkclipref>ArmA 3 2020.11.28 - 21.09.20.144.mp4536872138</linkclipref>
								</link>
								<link>
									<linkclipref>ArmA 3 2020.11.28 - 21.09.20.144.mp45368721381</linkclipref>
								</link>
							</clipitem>
							<clipitem id="ArmA 3 2020.11.28 - 21.10.25.145.DVR.mp4536872141">
								<name>ArmA 3 2020.11.28 - 21.10.25.145.DVR.mp4</name>
								<duration>7195</duration>
								<rate>
									<ntsc>TRUE</ntsc>
									<timebase>24</timebase>
								</rate>
								<in>0</in>
								<out>7195</out>
								<start>594</start>
								<end>7789</end>
								<enabled>FALSE</enabled>
								<masterclipid>ArmA 3 2020.11.28 - 21.10.25.145.DVR.mp4</masterclipid>
								<logginginfo>
									<scene />
									<shottake />
									<lognote />
									<good>FALSE</good>
								</logginginfo>
								<labels>
									<label2 />
								</labels>
								<comments>
									<mastercomment1 />
									<mastercomment2 />
									<mastercomment3 />
									<mastercomment4 />
								</comments>
								<file id="ArmA 3 2020.11.28 - 21.10.25.145.DVR" />
								<filter>
									<effect>
										<name>Audio Levels</name>
										<effectid>audiolevels</effectid>
										<effectcategory>audiolevels</effectcategory>
										<effecttype>audiolevels</effecttype>
										<mediatype>audio</mediatype>
										<parameter>
											<name>Level</name>
											<parameterid>level</parameterid>
											<valuemin>0</valuemin>
											<valuemax>3,98109</valuemax>
											<value>1</value>
										</parameter>
									</effect>
								</filter>
								<filter>
									<effect>
										<name>Audio Pan</name>
										<effectid>audiopan</effectid>
										<effectcategory>audiopan</effectcategory>
										<effecttype>audiopan</effecttype>
										<mediatype>audio</mediatype>
										<parameter>
											<name>Pan</name>
											<parameterid>pan</parameterid>
											<valuemin>-1</valuemin>
											<valuemax>1</valuemax>
											<value>-1</value>
										</parameter>
									</effect>
								</filter>
								<sourcetrack>
									<mediatype>audio</mediatype>
									<trackindex>1</trackindex>
								</sourcetrack>
								<link>
									<linkclipref>ArmA 3 2020.11.28 - 21.10.25.145.DVR.mp4805307595</linkclipref>
								</link>
								<link>
									<linkclipref>ArmA 3 2020.11.28 - 21.10.25.145.DVR.mp4536872140</linkclipref>
								</link>
								<link>
									<linkclipref>ArmA 3 2020.11.28 - 21.10.25.145.DVR.mp45368721401</linkclipref>
								</link>
								<link>
									<linkclipref>ArmA 3 2020.11.28 - 21.10.25.145.DVR.mp4536872141</linkclipref>
								</link>
								<link>
									<linkclipref>ArmA 3 2020.11.28 - 21.10.25.145.DVR.mp45368721411</linkclipref>
								</link>
							</clipitem>
							<clipitem id="ArmA 3 2020.11.28 - 21.10.28.146.mp4536872144">
								<name>ArmA 3 2020.11.28 - 21.10.28.146.mp4</name>
								<duration>226</duration>
								<rate>
									<ntsc>TRUE</ntsc>
									<timebase>24</timebase>
								</rate>
								<in>0</in>
								<out>226</out>
								<start>7790</start>
								<end>8016</end>
								<enabled>FALSE</enabled>
								<masterclipid>ArmA 3 2020.11.28 - 21.10.28.146.mp4</masterclipid>
								<logginginfo>
									<scene />
									<shottake />
									<lognote />
									<good>FALSE</good>
								</logginginfo>
								<labels>
									<label2 />
								</labels>
								<comments>
									<mastercomment1 />
									<mastercomment2 />
									<mastercomment3 />
									<mastercomment4 />
								</comments>
								<file id="ArmA 3 2020.11.28 - 21.10.28.146" />
								<filter>
									<effect>
										<name>Audio Levels</name>
										<effectid>audiolevels</effectid>
										<effectcategory>audiolevels</effectcategory>
										<effecttype>audiolevels</effecttype>
										<mediatype>audio</mediatype>
										<parameter>
											<name>Level</name>
											<parameterid>level</parameterid>
											<valuemin>0</valuemin>
											<valuemax>3,98109</valuemax>
											<value>1</value>
										</parameter>
									</effect>
								</filter>
								<filter>
									<effect>
										<name>Audio Pan</name>
										<effectid>audiopan</effectid>
										<effectcategory>audiopan</effectcategory>
										<effecttype>audiopan</effecttype>
										<mediatype>audio</mediatype>
										<parameter>
											<name>Pan</name>
											<parameterid>pan</parameterid>
											<valuemin>-1</valuemin>
											<valuemax>1</valuemax>
											<value>-1</value>
										</parameter>
									</effect>
								</filter>
								<sourcetrack>
									<mediatype>audio</mediatype>
									<trackindex>1</trackindex>
								</sourcetrack>
								<link>
									<linkclipref>ArmA 3 2020.11.28 - 21.10.28.146.mp4805307598</linkclipref>
								</link>
								<link>
									<linkclipref>ArmA 3 2020.11.28 - 21.10.28.146.mp4536872143</linkclipref>
								</link>
								<link>
									<linkclipref>ArmA 3 2020.11.28 - 21.10.28.146.mp45368721431</linkclipref>
								</link>
								<link>
									<linkclipref>ArmA 3 2020.11.28 - 21.10.28.146.mp4536872144</linkclipref>
								</link>
								<link>
									<linkclipref>ArmA 3 2020.11.28 - 21.10.28.146.mp45368721441</linkclipref>
								</link>
							</clipitem>
							<clipitem id="ArmA 3 2020.11.28 - 21.10.39.147.mp4536872147">
								<name>ArmA 3 2020.11.28 - 21.10.39.147.mp4</name>
								<duration>1154</duration>
								<rate>
									<ntsc>TRUE</ntsc>
									<timebase>24</timebase>
								</rate>
								<in>0</in>
								<out>1154</out>
								<start>8017</start>
								<end>9171</end>
								<enabled>FALSE</enabled>
								<masterclipid>ArmA 3 2020.11.28 - 21.10.39.147.mp4</masterclipid>
								<logginginfo>
									<scene />
									<shottake />
									<lognote />
									<good>FALSE</good>
								</logginginfo>
								<labels>
									<label2 />
								</labels>
								<comments>
									<mastercomment1 />
									<mastercomment2 />
									<mastercomment3 />
									<mastercomment4 />
								</comments>
								<file id="ArmA 3 2020.11.28 - 21.10.39.147" />
								<filter>
									<effect>
										<name>Audio Levels</name>
										<effectid>audiolevels</effectid>
										<effectcategory>audiolevels</effectcategory>
										<effecttype>audiolevels</effecttype>
										<mediatype>audio</mediatype>
										<parameter>
											<name>Level</name>
											<parameterid>level</parameterid>
											<valuemin>0</valuemin>
											<valuemax>3,98109</valuemax>
											<value>1</value>
										</parameter>
									</effect>
								</filter>
								<filter>
									<effect>
										<name>Audio Pan</name>
										<effectid>audiopan</effectid>
										<effectcategory>audiopan</effectcategory>
										<effecttype>audiopan</effecttype>
										<mediatype>audio</mediatype>
										<parameter>
											<name>Pan</name>
											<parameterid>pan</parameterid>
											<valuemin>-1</valuemin>
											<valuemax>1</valuemax>
											<value>-1</value>
										</parameter>
									</effect>
								</filter>
								<sourcetrack>
									<mediatype>audio</mediatype>
									<trackindex>1</trackindex>
								</sourcetrack>
								<link>
									<linkclipref>ArmA 3 2020.11.28 - 21.10.39.147.mp4805307601</linkclipref>
								</link>
								<link>
									<linkclipref>ArmA 3 2020.11.28 - 21.10.39.147.mp4536872146</linkclipref>
								</link>
								<link>
									<linkclipref>ArmA 3 2020.11.28 - 21.10.39.147.mp45368721461</linkclipref>
								</link>
								<link>
									<linkclipref>ArmA 3 2020.11.28 - 21.10.39.147.mp4536872147</linkclipref>
								</link>
								<link>
									<linkclipref>ArmA 3 2020.11.28 - 21.10.39.147.mp45368721471</linkclipref>
								</link>
							</clipitem>
							<clipitem id="ArmA 3 2020.11.28 - 21.11.34.148.mp4536872150">
								<name>ArmA 3 2020.11.28 - 21.11.34.148.mp4</name>
								<duration>1118</duration>
								<rate>
									<ntsc>TRUE</ntsc>
									<timebase>24</timebase>
								</rate>
								<in>0</in>
								<out>1118</out>
								<start>9172</start>
								<end>10290</end>
								<enabled>FALSE</enabled>
								<masterclipid>ArmA 3 2020.11.28 - 21.11.34.148.mp4</masterclipid>
								<logginginfo>
									<scene />
									<shottake />
									<lognote />
									<good>FALSE</good>
								</logginginfo>
								<labels>
									<label2 />
								</labels>
								<comments>
									<mastercomment1 />
									<mastercomment2 />
									<mastercomment3 />
									<mastercomment4 />
								</comments>
								<file id="ArmA 3 2020.11.28 - 21.11.34.148" />
								<filter>
									<effect>
										<name>Audio Levels</name>
										<effectid>audiolevels</effectid>
										<effectcategory>audiolevels</effectcategory>
										<effecttype>audiolevels</effecttype>
										<mediatype>audio</mediatype>
										<parameter>
											<name>Level</name>
											<parameterid>level</parameterid>
											<valuemin>0</valuemin>
											<valuemax>3,98109</valuemax>
											<value>1</value>
										</parameter>
									</effect>
								</filter>
								<filter>
									<effect>
										<name>Audio Pan</name>
										<effectid>audiopan</effectid>
										<effectcategory>audiopan</effectcategory>
										<effecttype>audiopan</effecttype>
										<mediatype>audio</mediatype>
										<parameter>
											<name>Pan</name>
											<parameterid>pan</parameterid>
											<valuemin>-1</valuemin>
											<valuemax>1</valuemax>
											<value>-1</value>
										</parameter>
									</effect>
								</filter>
								<sourcetrack>
									<mediatype>audio</mediatype>
									<trackindex>1</trackindex>
								</sourcetrack>
								<link>
									<linkclipref>ArmA 3 2020.11.28 - 21.11.34.148.mp4805307604</linkclipref>
								</link>
								<link>
									<linkclipref>ArmA 3 2020.11.28 - 21.11.34.148.mp4536872149</linkclipref>
								</link>
								<link>
									<linkclipref>ArmA 3 2020.11.28 - 21.11.34.148.mp45368721491</linkclipref>
								</link>
								<link>
									<linkclipref>ArmA 3 2020.11.28 - 21.11.34.148.mp4536872150</linkclipref>
								</link>
								<link>
									<linkclipref>ArmA 3 2020.11.28 - 21.11.34.148.mp45368721501</linkclipref>
								</link>
							</clipitem>
							<clipitem id="ArmA 3 2020.11.28 - 21.12.26.149.mp4536872153">
								<name>ArmA 3 2020.11.28 - 21.12.26.149.mp4</name>
								<duration>533</duration>
								<rate>
									<ntsc>TRUE</ntsc>
									<timebase>24</timebase>
								</rate>
								<in>0</in>
								<out>533</out>
								<start>10290</start>
								<end>10823</end>
								<enabled>FALSE</enabled>
								<masterclipid>ArmA 3 2020.11.28 - 21.12.26.149.mp4</masterclipid>
								<logginginfo>
									<scene />
									<shottake />
									<lognote />
									<good>FALSE</good>
								</logginginfo>
								<labels>
									<label2 />
								</labels>
								<comments>
									<mastercomment1 />
									<mastercomment2 />
									<mastercomment3 />
									<mastercomment4 />
								</comments>
								<file id="ArmA 3 2020.11.28 - 21.12.26.149" />
								<filter>
									<effect>
										<name>Audio Levels</name>
										<effectid>audiolevels</effectid>
										<effectcategory>audiolevels</effectcategory>
										<effecttype>audiolevels</effecttype>
										<mediatype>audio</mediatype>
										<parameter>
											<name>Level</name>
											<parameterid>level</parameterid>
											<valuemin>0</valuemin>
											<valuemax>3,98109</valuemax>
											<value>1</value>
										</parameter>
									</effect>
								</filter>
								<filter>
									<effect>
										<name>Audio Pan</name>
										<effectid>audiopan</effectid>
										<effectcategory>audiopan</effectcategory>
										<effecttype>audiopan</effecttype>
										<mediatype>audio</mediatype>
										<parameter>
											<name>Pan</name>
											<parameterid>pan</parameterid>
											<valuemin>-1</valuemin>
											<valuemax>1</valuemax>
											<value>-1</value>
										</parameter>
									</effect>
								</filter>
								<sourcetrack>
									<mediatype>audio</mediatype>
									<trackindex>1</trackindex>
								</sourcetrack>
								<link>
									<linkclipref>ArmA 3 2020.11.28 - 21.12.26.149.mp4805307607</linkclipref>
								</link>
								<link>
									<linkclipref>ArmA 3 2020.11.28 - 21.12.26.149.mp4536872152</linkclipref>
								</link>
								<link>
									<linkclipref>ArmA 3 2020.11.28 - 21.12.26.149.mp45368721521</linkclipref>
								</link>
								<link>
									<linkclipref>ArmA 3 2020.11.28 - 21.12.26.149.mp4536872153</linkclipref>
								</link>
								<link>
									<linkclipref>ArmA 3 2020.11.28 - 21.12.26.149.mp45368721531</linkclipref>
								</link>
							</clipitem>
							<clipitem id="ArmA 3 2020.11.28 - 21.13.10.150.mp4536872156">
								<name>ArmA 3 2020.11.28 - 21.13.10.150.mp4</name>
								<duration>803</duration>
								<rate>
									<ntsc>TRUE</ntsc>
									<timebase>24</timebase>
								</rate>
								<in>0</in>
								<out>803</out>
								<start>10824</start>
								<end>11627</end>
								<enabled>FALSE</enabled>
								<masterclipid>ArmA 3 2020.11.28 - 21.13.10.150.mp4</masterclipid>
								<logginginfo>
									<scene />
									<shottake />
									<lognote />
									<good>FALSE</good>
								</logginginfo>
								<labels>
									<label2 />
								</labels>
								<comments>
									<mastercomment1 />
									<mastercomment2 />
									<mastercomment3 />
									<mastercomment4 />
								</comments>
								<file id="ArmA 3 2020.11.28 - 21.13.10.150" />
								<filter>
									<effect>
										<name>Audio Levels</name>
										<effectid>audiolevels</effectid>
										<effectcategory>audiolevels</effectcategory>
										<effecttype>audiolevels</effecttype>
										<mediatype>audio</mediatype>
										<parameter>
											<name>Level</name>
											<parameterid>level</parameterid>
											<valuemin>0</valuemin>
											<valuemax>3,98109</valuemax>
											<value>1</value>
										</parameter>
									</effect>
								</filter>
								<filter>
									<effect>
										<name>Audio Pan</name>
										<effectid>audiopan</effectid>
										<effectcategory>audiopan</effectcategory>
										<effecttype>audiopan</effecttype>
										<mediatype>audio</mediatype>
										<parameter>
											<name>Pan</name>
											<parameterid>pan</parameterid>
											<valuemin>-1</valuemin>
											<valuemax>1</valuemax>
											<value>-1</value>
										</parameter>
									</effect>
								</filter>
								<sourcetrack>
									<mediatype>audio</mediatype>
									<trackindex>1</trackindex>
								</sourcetrack>
								<link>
									<linkclipref>ArmA 3 2020.11.28 - 21.13.10.150.mp4805307610</linkclipref>
								</link>
								<link>
									<linkclipref>ArmA 3 2020.11.28 - 21.13.10.150.mp4536872155</linkclipref>
								</link>
								<link>
									<linkclipref>ArmA 3 2020.11.28 - 21.13.10.150.mp45368721551</linkclipref>
								</link>
								<link>
									<linkclipref>ArmA 3 2020.11.28 - 21.13.10.150.mp4536872156</linkclipref>
								</link>
								<link>
									<linkclipref>ArmA 3 2020.11.28 - 21.13.10.150.mp45368721561</linkclipref>
								</link>
							</clipitem>
							<clipitem id="ArmA 3 2020.11.28 - 21.15.17.151.mp4536872159">
								<name>ArmA 3 2020.11.28 - 21.15.17.151.mp4</name>
								<duration>1024</duration>
								<rate>
									<ntsc>TRUE</ntsc>
									<timebase>24</timebase>
								</rate>
								<in>0</in>
								<out>1024</out>
								<start>11628</start>
								<end>12652</end>
								<enabled>FALSE</enabled>
								<masterclipid>ArmA 3 2020.11.28 - 21.15.17.151.mp4</masterclipid>
								<logginginfo>
									<scene />
									<shottake />
									<lognote />
									<good>FALSE</good>
								</logginginfo>
								<labels>
									<label2 />
								</labels>
								<comments>
									<mastercomment1 />
									<mastercomment2 />
									<mastercomment3 />
									<mastercomment4 />
								</comments>
								<file id="ArmA 3 2020.11.28 - 21.15.17.151" />
								<filter>
									<effect>
										<name>Audio Levels</name>
										<effectid>audiolevels</effectid>
										<effectcategory>audiolevels</effectcategory>
										<effecttype>audiolevels</effecttype>
										<mediatype>audio</mediatype>
										<parameter>
											<name>Level</name>
											<parameterid>level</parameterid>
											<valuemin>0</valuemin>
											<valuemax>3,98109</valuemax>
											<value>1</value>
										</parameter>
									</effect>
								</filter>
								<filter>
									<effect>
										<name>Audio Pan</name>
										<effectid>audiopan</effectid>
										<effectcategory>audiopan</effectcategory>
										<effecttype>audiopan</effecttype>
										<mediatype>audio</mediatype>
										<parameter>
											<name>Pan</name>
											<parameterid>pan</parameterid>
											<valuemin>-1</valuemin>
											<valuemax>1</valuemax>
											<value>-1</value>
										</parameter>
									</effect>
								</filter>
								<sourcetrack>
									<mediatype>audio</mediatype>
									<trackindex>1</trackindex>
								</sourcetrack>
								<link>
									<linkclipref>ArmA 3 2020.11.28 - 21.15.17.151.mp4805307613</linkclipref>
								</link>
								<link>
									<linkclipref>ArmA 3 2020.11.28 - 21.15.17.151.mp4536872158</linkclipref>
								</link>
								<link>
									<linkclipref>ArmA 3 2020.11.28 - 21.15.17.151.mp45368721581</linkclipref>
								</link>
								<link>
									<linkclipref>ArmA 3 2020.11.28 - 21.15.17.151.mp4536872159</linkclipref>
								</link>
								<link>
									<linkclipref>ArmA 3 2020.11.28 - 21.15.17.151.mp45368721591</linkclipref>
								</link>
							</clipitem>
							<clipitem id="ArmA 3 2020.11.28 - 21.16.08.152.mp4536872162">
								<name>ArmA 3 2020.11.28 - 21.16.08.152.mp4</name>
								<duration>500</duration>
								<rate>
									<ntsc>TRUE</ntsc>
									<timebase>24</timebase>
								</rate>
								<in>0</in>
								<out>500</out>
								<start>12653</start>
								<end>13153</end>
								<enabled>FALSE</enabled>
								<masterclipid>ArmA 3 2020.11.28 - 21.16.08.152.mp4</masterclipid>
								<logginginfo>
									<scene />
									<shottake />
									<lognote />
									<good>FALSE</good>
								</logginginfo>
								<labels>
									<label2 />
								</labels>
								<comments>
									<mastercomment1 />
									<mastercomment2 />
									<mastercomment3 />
									<mastercomment4 />
								</comments>
								<file id="ArmA 3 2020.11.28 - 21.16.08.152" />
								<filter>
									<effect>
										<name>Audio Levels</name>
										<effectid>audiolevels</effectid>
										<effectcategory>audiolevels</effectcategory>
										<effecttype>audiolevels</effecttype>
										<mediatype>audio</mediatype>
										<parameter>
											<name>Level</name>
											<parameterid>level</parameterid>
											<valuemin>0</valuemin>
											<valuemax>3,98109</valuemax>
											<value>1</value>
										</parameter>
									</effect>
								</filter>
								<filter>
									<effect>
										<name>Audio Pan</name>
										<effectid>audiopan</effectid>
										<effectcategory>audiopan</effectcategory>
										<effecttype>audiopan</effecttype>
										<mediatype>audio</mediatype>
										<parameter>
											<name>Pan</name>
											<parameterid>pan</parameterid>
											<valuemin>-1</valuemin>
											<valuemax>1</valuemax>
											<value>-1</value>
										</parameter>
									</effect>
								</filter>
								<sourcetrack>
									<mediatype>audio</mediatype>
									<trackindex>1</trackindex>
								</sourcetrack>
								<link>
									<linkclipref>ArmA 3 2020.11.28 - 21.16.08.152.mp4805307616</linkclipref>
								</link>
								<link>
									<linkclipref>ArmA 3 2020.11.28 - 21.16.08.152.mp4536872161</linkclipref>
								</link>
								<link>
									<linkclipref>ArmA 3 2020.11.28 - 21.16.08.152.mp45368721611</linkclipref>
								</link>
								<link>
									<linkclipref>ArmA 3 2020.11.28 - 21.16.08.152.mp4536872162</linkclipref>
								</link>
								<link>
									<linkclipref>ArmA 3 2020.11.28 - 21.16.08.152.mp45368721621</linkclipref>
								</link>
							</clipitem>
							<clipitem id="ArmA 3 2020.11.28 - 21.16.44.153.mp4536872165">
								<name>ArmA 3 2020.11.28 - 21.16.44.153.mp4</name>
								<duration>1280</duration>
								<rate>
									<ntsc>TRUE</ntsc>
									<timebase>24</timebase>
								</rate>
								<in>0</in>
								<out>1280</out>
								<start>13154</start>
								<end>14434</end>
								<enabled>FALSE</enabled>
								<masterclipid>ArmA 3 2020.11.28 - 21.16.44.153.mp4</masterclipid>
								<logginginfo>
									<scene />
									<shottake />
									<lognote />
									<good>FALSE</good>
								</logginginfo>
								<labels>
									<label2 />
								</labels>
								<comments>
									<mastercomment1 />
									<mastercomment2 />
									<mastercomment3 />
									<mastercomment4 />
								</comments>
								<file id="ArmA 3 2020.11.28 - 21.16.44.153" />
								<filter>
									<effect>
										<name>Audio Levels</name>
										<effectid>audiolevels</effectid>
										<effectcategory>audiolevels</effectcategory>
										<effecttype>audiolevels</effecttype>
										<mediatype>audio</mediatype>
										<parameter>
											<name>Level</name>
											<parameterid>level</parameterid>
											<valuemin>0</valuemin>
											<valuemax>3,98109</valuemax>
											<value>1</value>
										</parameter>
									</effect>
								</filter>
								<filter>
									<effect>
										<name>Audio Pan</name>
										<effectid>audiopan</effectid>
										<effectcategory>audiopan</effectcategory>
										<effecttype>audiopan</effecttype>
										<mediatype>audio</mediatype>
										<parameter>
											<name>Pan</name>
											<parameterid>pan</parameterid>
											<valuemin>-1</valuemin>
											<valuemax>1</valuemax>
											<value>-1</value>
										</parameter>
									</effect>
								</filter>
								<sourcetrack>
									<mediatype>audio</mediatype>
									<trackindex>1</trackindex>
								</sourcetrack>
								<link>
									<linkclipref>ArmA 3 2020.11.28 - 21.16.44.153.mp4805307619</linkclipref>
								</link>
								<link>
									<linkclipref>ArmA 3 2020.11.28 - 21.16.44.153.mp4536872164</linkclipref>
								</link>
								<link>
									<linkclipref>ArmA 3 2020.11.28 - 21.16.44.153.mp45368721641</linkclipref>
								</link>
								<link>
									<linkclipref>ArmA 3 2020.11.28 - 21.16.44.153.mp4536872165</linkclipref>
								</link>
								<link>
									<linkclipref>ArmA 3 2020.11.28 - 21.16.44.153.mp45368721651</linkclipref>
								</link>
							</clipitem>
							<clipitem id="ArmA 3 2020.11.28 - 21.18.36.154.mp4536872168">
								<name>ArmA 3 2020.11.28 - 21.18.36.154.mp4</name>
								<duration>1079</duration>
								<rate>
									<ntsc>TRUE</ntsc>
									<timebase>24</timebase>
								</rate>
								<in>0</in>
								<out>1079</out>
								<start>14435</start>
								<end>15514</end>
								<enabled>FALSE</enabled>
								<masterclipid>ArmA 3 2020.11.28 - 21.18.36.154.mp4</masterclipid>
								<logginginfo>
									<scene />
									<shottake />
									<lognote />
									<good>FALSE</good>
								</logginginfo>
								<labels>
									<label2 />
								</labels>
								<comments>
									<mastercomment1 />
									<mastercomment2 />
									<mastercomment3 />
									<mastercomment4 />
								</comments>
								<file id="ArmA 3 2020.11.28 - 21.18.36.154" />
								<filter>
									<effect>
										<name>Audio Levels</name>
										<effectid>audiolevels</effectid>
										<effectcategory>audiolevels</effectcategory>
										<effecttype>audiolevels</effecttype>
										<mediatype>audio</mediatype>
										<parameter>
											<name>Level</name>
											<parameterid>level</parameterid>
											<valuemin>0</valuemin>
											<valuemax>3,98109</valuemax>
											<value>1</value>
										</parameter>
									</effect>
								</filter>
								<filter>
									<effect>
										<name>Audio Pan</name>
										<effectid>audiopan</effectid>
										<effectcategory>audiopan</effectcategory>
										<effecttype>audiopan</effecttype>
										<mediatype>audio</mediatype>
										<parameter>
											<name>Pan</name>
											<parameterid>pan</parameterid>
											<valuemin>-1</valuemin>
											<valuemax>1</valuemax>
											<value>-1</value>
										</parameter>
									</effect>
								</filter>
								<sourcetrack>
									<mediatype>audio</mediatype>
									<trackindex>1</trackindex>
								</sourcetrack>
								<link>
									<linkclipref>ArmA 3 2020.11.28 - 21.18.36.154.mp4805307622</linkclipref>
								</link>
								<link>
									<linkclipref>ArmA 3 2020.11.28 - 21.18.36.154.mp4536872167</linkclipref>
								</link>
								<link>
									<linkclipref>ArmA 3 2020.11.28 - 21.18.36.154.mp45368721671</linkclipref>
								</link>
								<link>
									<linkclipref>ArmA 3 2020.11.28 - 21.18.36.154.mp4536872168</linkclipref>
								</link>
								<link>
									<linkclipref>ArmA 3 2020.11.28 - 21.18.36.154.mp45368721681</linkclipref>
								</link>
							</clipitem>
							<clipitem id="ArmA 3 2020.11.28 - 21.21.45.155.mp4536872171">
								<name>ArmA 3 2020.11.28 - 21.21.45.155.mp4</name>
								<duration>458</duration>
								<rate>
									<ntsc>TRUE</ntsc>
									<timebase>24</timebase>
								</rate>
								<in>0</in>
								<out>458</out>
								<start>15515</start>
								<end>15973</end>
								<enabled>FALSE</enabled>
								<masterclipid>ArmA 3 2020.11.28 - 21.21.45.155.mp4</masterclipid>
								<logginginfo>
									<scene />
									<shottake />
									<lognote />
									<good>FALSE</good>
								</logginginfo>
								<labels>
									<label2 />
								</labels>
								<comments>
									<mastercomment1 />
									<mastercomment2 />
									<mastercomment3 />
									<mastercomment4 />
								</comments>
								<file id="ArmA 3 2020.11.28 - 21.21.45.155" />
								<filter>
									<effect>
										<name>Audio Levels</name>
										<effectid>audiolevels</effectid>
										<effectcategory>audiolevels</effectcategory>
										<effecttype>audiolevels</effecttype>
										<mediatype>audio</mediatype>
										<parameter>
											<name>Level</name>
											<parameterid>level</parameterid>
											<valuemin>0</valuemin>
											<valuemax>3,98109</valuemax>
											<value>1</value>
										</parameter>
									</effect>
								</filter>
								<filter>
									<effect>
										<name>Audio Pan</name>
										<effectid>audiopan</effectid>
										<effectcategory>audiopan</effectcategory>
										<effecttype>audiopan</effecttype>
										<mediatype>audio</mediatype>
										<parameter>
											<name>Pan</name>
											<parameterid>pan</parameterid>
											<valuemin>-1</valuemin>
											<valuemax>1</valuemax>
											<value>-1</value>
										</parameter>
									</effect>
								</filter>
								<sourcetrack>
									<mediatype>audio</mediatype>
									<trackindex>1</trackindex>
								</sourcetrack>
								<link>
									<linkclipref>ArmA 3 2020.11.28 - 21.21.45.155.mp4805307625</linkclipref>
								</link>
								<link>
									<linkclipref>ArmA 3 2020.11.28 - 21.21.45.155.mp4536872170</linkclipref>
								</link>
								<link>
									<linkclipref>ArmA 3 2020.11.28 - 21.21.45.155.mp45368721701</linkclipref>
								</link>
								<link>
									<linkclipref>ArmA 3 2020.11.28 - 21.21.45.155.mp4536872171</linkclipref>
								</link>
								<link>
									<linkclipref>ArmA 3 2020.11.28 - 21.21.45.155.mp45368721711</linkclipref>
								</link>
							</clipitem>
							<clipitem id="ArmA 3 2020.11.28 - 21.23.14.156.mp4536872174">
								<name>ArmA 3 2020.11.28 - 21.23.14.156.mp4</name>
								<duration>289</duration>
								<rate>
									<ntsc>TRUE</ntsc>
									<timebase>24</timebase>
								</rate>
								<in>0</in>
								<out>289</out>
								<start>15974</start>
								<end>16263</end>
								<enabled>FALSE</enabled>
								<masterclipid>ArmA 3 2020.11.28 - 21.23.14.156.mp4</masterclipid>
								<logginginfo>
									<scene />
									<shottake />
									<lognote />
									<good>FALSE</good>
								</logginginfo>
								<labels>
									<label2 />
								</labels>
								<comments>
									<mastercomment1 />
									<mastercomment2 />
									<mastercomment3 />
									<mastercomment4 />
								</comments>
								<file id="ArmA 3 2020.11.28 - 21.23.14.156" />
								<filter>
									<effect>
										<name>Audio Levels</name>
										<effectid>audiolevels</effectid>
										<effectcategory>audiolevels</effectcategory>
										<effecttype>audiolevels</effecttype>
										<mediatype>audio</mediatype>
										<parameter>
											<name>Level</name>
											<parameterid>level</parameterid>
											<valuemin>0</valuemin>
											<valuemax>3,98109</valuemax>
											<value>1</value>
										</parameter>
									</effect>
								</filter>
								<filter>
									<effect>
										<name>Audio Pan</name>
										<effectid>audiopan</effectid>
										<effectcategory>audiopan</effectcategory>
										<effecttype>audiopan</effecttype>
										<mediatype>audio</mediatype>
										<parameter>
											<name>Pan</name>
											<parameterid>pan</parameterid>
											<valuemin>-1</valuemin>
											<valuemax>1</valuemax>
											<value>-1</value>
										</parameter>
									</effect>
								</filter>
								<sourcetrack>
									<mediatype>audio</mediatype>
									<trackindex>1</trackindex>
								</sourcetrack>
								<link>
									<linkclipref>ArmA 3 2020.11.28 - 21.23.14.156.mp4805307628</linkclipref>
								</link>
								<link>
									<linkclipref>ArmA 3 2020.11.28 - 21.23.14.156.mp4536872173</linkclipref>
								</link>
								<link>
									<linkclipref>ArmA 3 2020.11.28 - 21.23.14.156.mp45368721731</linkclipref>
								</link>
								<link>
									<linkclipref>ArmA 3 2020.11.28 - 21.23.14.156.mp4536872174</linkclipref>
								</link>
								<link>
									<linkclipref>ArmA 3 2020.11.28 - 21.23.14.156.mp45368721741</linkclipref>
								</link>
							</clipitem>
							<clipitem id="ArmA 3 2020.11.28 - 21.23.42.157.mp4536872177">
								<name>ArmA 3 2020.11.28 - 21.23.42.157.mp4</name>
								<duration>161</duration>
								<rate>
									<ntsc>TRUE</ntsc>
									<timebase>24</timebase>
								</rate>
								<in>0</in>
								<out>161</out>
								<start>16264</start>
								<end>16425</end>
								<enabled>FALSE</enabled>
								<masterclipid>ArmA 3 2020.11.28 - 21.23.42.157.mp4</masterclipid>
								<logginginfo>
									<scene />
									<shottake />
									<lognote />
									<good>FALSE</good>
								</logginginfo>
								<labels>
									<label2 />
								</labels>
								<comments>
									<mastercomment1 />
									<mastercomment2 />
									<mastercomment3 />
									<mastercomment4 />
								</comments>
								<file id="ArmA 3 2020.11.28 - 21.23.42.157" />
								<filter>
									<effect>
										<name>Audio Levels</name>
										<effectid>audiolevels</effectid>
										<effectcategory>audiolevels</effectcategory>
										<effecttype>audiolevels</effecttype>
										<mediatype>audio</mediatype>
										<parameter>
											<name>Level</name>
											<parameterid>level</parameterid>
											<valuemin>0</valuemin>
											<valuemax>3,98109</valuemax>
											<value>1</value>
										</parameter>
									</effect>
								</filter>
								<filter>
									<effect>
										<name>Audio Pan</name>
										<effectid>audiopan</effectid>
										<effectcategory>audiopan</effectcategory>
										<effecttype>audiopan</effecttype>
										<mediatype>audio</mediatype>
										<parameter>
											<name>Pan</name>
											<parameterid>pan</parameterid>
											<valuemin>-1</valuemin>
											<valuemax>1</valuemax>
											<value>-1</value>
										</parameter>
									</effect>
								</filter>
								<sourcetrack>
									<mediatype>audio</mediatype>
									<trackindex>1</trackindex>
								</sourcetrack>
								<link>
									<linkclipref>ArmA 3 2020.11.28 - 21.23.42.157.mp4805307631</linkclipref>
								</link>
								<link>
									<linkclipref>ArmA 3 2020.11.28 - 21.23.42.157.mp4536872176</linkclipref>
								</link>
								<link>
									<linkclipref>ArmA 3 2020.11.28 - 21.23.42.157.mp45368721761</linkclipref>
								</link>
								<link>
									<linkclipref>ArmA 3 2020.11.28 - 21.23.42.157.mp4536872177</linkclipref>
								</link>
								<link>
									<linkclipref>ArmA 3 2020.11.28 - 21.23.42.157.mp45368721771</linkclipref>
								</link>
							</clipitem>
							<clipitem id="ArmA 3 2020.11.28 - 21.24.02.158.mp4536872180">
								<name>ArmA 3 2020.11.28 - 21.24.02.158.mp4</name>
								<duration>425</duration>
								<rate>
									<ntsc>TRUE</ntsc>
									<timebase>24</timebase>
								</rate>
								<in>0</in>
								<out>425</out>
								<start>16426</start>
								<end>16851</end>
								<enabled>FALSE</enabled>
								<masterclipid>ArmA 3 2020.11.28 - 21.24.02.158.mp4</masterclipid>
								<logginginfo>
									<scene />
									<shottake />
									<lognote />
									<good>FALSE</good>
								</logginginfo>
								<labels>
									<label2 />
								</labels>
								<comments>
									<mastercomment1 />
									<mastercomment2 />
									<mastercomment3 />
									<mastercomment4 />
								</comments>
								<file id="ArmA 3 2020.11.28 - 21.24.02.158" />
								<filter>
									<effect>
										<name>Audio Levels</name>
										<effectid>audiolevels</effectid>
										<effectcategory>audiolevels</effectcategory>
										<effecttype>audiolevels</effecttype>
										<mediatype>audio</mediatype>
										<parameter>
											<name>Level</name>
											<parameterid>level</parameterid>
											<valuemin>0</valuemin>
											<valuemax>3,98109</valuemax>
											<value>1</value>
										</parameter>
									</effect>
								</filter>
								<filter>
									<effect>
										<name>Audio Pan</name>
										<effectid>audiopan</effectid>
										<effectcategory>audiopan</effectcategory>
										<effecttype>audiopan</effecttype>
										<mediatype>audio</mediatype>
										<parameter>
											<name>Pan</name>
											<parameterid>pan</parameterid>
											<valuemin>-1</valuemin>
											<valuemax>1</valuemax>
											<value>-1</value>
										</parameter>
									</effect>
								</filter>
								<sourcetrack>
									<mediatype>audio</mediatype>
									<trackindex>1</trackindex>
								</sourcetrack>
								<link>
									<linkclipref>ArmA 3 2020.11.28 - 21.24.02.158.mp4805307634</linkclipref>
								</link>
								<link>
									<linkclipref>ArmA 3 2020.11.28 - 21.24.02.158.mp4536872179</linkclipref>
								</link>
								<link>
									<linkclipref>ArmA 3 2020.11.28 - 21.24.02.158.mp45368721791</linkclipref>
								</link>
								<link>
									<linkclipref>ArmA 3 2020.11.28 - 21.24.02.158.mp4536872180</linkclipref>
								</link>
								<link>
									<linkclipref>ArmA 3 2020.11.28 - 21.24.02.158.mp45368721801</linkclipref>
								</link>
							</clipitem>
							<clipitem id="ArmA 3 2020.11.28 - 21.24.28.159.mp4536872183">
								<name>ArmA 3 2020.11.28 - 21.24.28.159.mp4</name>
								<duration>114</duration>
								<rate>
									<ntsc>TRUE</ntsc>
									<timebase>24</timebase>
								</rate>
								<in>0</in>
								<out>114</out>
								<start>16852</start>
								<end>16966</end>
								<enabled>FALSE</enabled>
								<masterclipid>ArmA 3 2020.11.28 - 21.24.28.159.mp4</masterclipid>
								<logginginfo>
									<scene />
									<shottake />
									<lognote />
									<good>FALSE</good>
								</logginginfo>
								<labels>
									<label2 />
								</labels>
								<comments>
									<mastercomment1 />
									<mastercomment2 />
									<mastercomment3 />
									<mastercomment4 />
								</comments>
								<file id="ArmA 3 2020.11.28 - 21.24.28.159" />
								<filter>
									<effect>
										<name>Audio Levels</name>
										<effectid>audiolevels</effectid>
										<effectcategory>audiolevels</effectcategory>
										<effecttype>audiolevels</effecttype>
										<mediatype>audio</mediatype>
										<parameter>
											<name>Level</name>
											<parameterid>level</parameterid>
											<valuemin>0</valuemin>
											<valuemax>3,98109</valuemax>
											<value>1</value>
										</parameter>
									</effect>
								</filter>
								<filter>
									<effect>
										<name>Audio Pan</name>
										<effectid>audiopan</effectid>
										<effectcategory>audiopan</effectcategory>
										<effecttype>audiopan</effecttype>
										<mediatype>audio</mediatype>
										<parameter>
											<name>Pan</name>
											<parameterid>pan</parameterid>
											<valuemin>-1</valuemin>
											<valuemax>1</valuemax>
											<value>-1</value>
										</parameter>
									</effect>
								</filter>
								<sourcetrack>
									<mediatype>audio</mediatype>
									<trackindex>1</trackindex>
								</sourcetrack>
								<link>
									<linkclipref>ArmA 3 2020.11.28 - 21.24.28.159.mp4805307637</linkclipref>
								</link>
								<link>
									<linkclipref>ArmA 3 2020.11.28 - 21.24.28.159.mp4536872182</linkclipref>
								</link>
								<link>
									<linkclipref>ArmA 3 2020.11.28 - 21.24.28.159.mp45368721821</linkclipref>
								</link>
								<link>
									<linkclipref>ArmA 3 2020.11.28 - 21.24.28.159.mp4536872183</linkclipref>
								</link>
								<link>
									<linkclipref>ArmA 3 2020.11.28 - 21.24.28.159.mp45368721831</linkclipref>
								</link>
							</clipitem>
							<clipitem id="ArmA 3 2020.11.28 - 21.24.48.160.mp4536872186">
								<name>ArmA 3 2020.11.28 - 21.24.48.160.mp4</name>
								<duration>2003</duration>
								<rate>
									<ntsc>TRUE</ntsc>
									<timebase>24</timebase>
								</rate>
								<in>0</in>
								<out>2003</out>
								<start>16967</start>
								<end>18970</end>
								<enabled>FALSE</enabled>
								<masterclipid>ArmA 3 2020.11.28 - 21.24.48.160.mp4</masterclipid>
								<logginginfo>
									<scene />
									<shottake />
									<lognote />
									<good>FALSE</good>
								</logginginfo>
								<labels>
									<label2 />
								</labels>
								<comments>
									<mastercomment1 />
									<mastercomment2 />
									<mastercomment3 />
									<mastercomment4 />
								</comments>
								<file id="ArmA 3 2020.11.28 - 21.24.48.160" />
								<filter>
									<effect>
										<name>Audio Levels</name>
										<effectid>audiolevels</effectid>
										<effectcategory>audiolevels</effectcategory>
										<effecttype>audiolevels</effecttype>
										<mediatype>audio</mediatype>
										<parameter>
											<name>Level</name>
											<parameterid>level</parameterid>
											<valuemin>0</valuemin>
											<valuemax>3,98109</valuemax>
											<value>1</value>
										</parameter>
									</effect>
								</filter>
								<filter>
									<effect>
										<name>Audio Pan</name>
										<effectid>audiopan</effectid>
										<effectcategory>audiopan</effectcategory>
										<effecttype>audiopan</effecttype>
										<mediatype>audio</mediatype>
										<parameter>
											<name>Pan</name>
											<parameterid>pan</parameterid>
											<valuemin>-1</valuemin>
											<valuemax>1</valuemax>
											<value>-1</value>
										</parameter>
									</effect>
								</filter>
								<sourcetrack>
									<mediatype>audio</mediatype>
									<trackindex>1</trackindex>
								</sourcetrack>
								<link>
									<linkclipref>ArmA 3 2020.11.28 - 21.24.48.160.mp4805307640</linkclipref>
								</link>
								<link>
									<linkclipref>ArmA 3 2020.11.28 - 21.24.48.160.mp4536872185</linkclipref>
								</link>
								<link>
									<linkclipref>ArmA 3 2020.11.28 - 21.24.48.160.mp45368721851</linkclipref>
								</link>
								<link>
									<linkclipref>ArmA 3 2020.11.28 - 21.24.48.160.mp4536872186</linkclipref>
								</link>
								<link>
									<linkclipref>ArmA 3 2020.11.28 - 21.24.48.160.mp45368721861</linkclipref>
								</link>
							</clipitem>
							<clipitem id="ArmA 3 2020.11.28 - 21.26.19.161.mp4536872189">
								<name>ArmA 3 2020.11.28 - 21.26.19.161.mp4</name>
								<duration>2498</duration>
								<rate>
									<ntsc>TRUE</ntsc>
									<timebase>24</timebase>
								</rate>
								<in>0</in>
								<out>2498</out>
								<start>18971</start>
								<end>21469</end>
								<enabled>FALSE</enabled>
								<masterclipid>ArmA 3 2020.11.28 - 21.26.19.161.mp4</masterclipid>
								<logginginfo>
									<scene />
									<shottake />
									<lognote />
									<good>FALSE</good>
								</logginginfo>
								<labels>
									<label2 />
								</labels>
								<comments>
									<mastercomment1 />
									<mastercomment2 />
									<mastercomment3 />
									<mastercomment4 />
								</comments>
								<file id="ArmA 3 2020.11.28 - 21.26.19.161" />
								<filter>
									<effect>
										<name>Audio Levels</name>
										<effectid>audiolevels</effectid>
										<effectcategory>audiolevels</effectcategory>
										<effecttype>audiolevels</effecttype>
										<mediatype>audio</mediatype>
										<parameter>
											<name>Level</name>
											<parameterid>level</parameterid>
											<valuemin>0</valuemin>
											<valuemax>3,98109</valuemax>
											<value>1</value>
										</parameter>
									</effect>
								</filter>
								<filter>
									<effect>
										<name>Audio Pan</name>
										<effectid>audiopan</effectid>
										<effectcategory>audiopan</effectcategory>
										<effecttype>audiopan</effecttype>
										<mediatype>audio</mediatype>
										<parameter>
											<name>Pan</name>
											<parameterid>pan</parameterid>
											<valuemin>-1</valuemin>
											<valuemax>1</valuemax>
											<value>-1</value>
										</parameter>
									</effect>
								</filter>
								<sourcetrack>
									<mediatype>audio</mediatype>
									<trackindex>1</trackindex>
								</sourcetrack>
								<link>
									<linkclipref>ArmA 3 2020.11.28 - 21.26.19.161.mp4805307643</linkclipref>
								</link>
								<link>
									<linkclipref>ArmA 3 2020.11.28 - 21.26.19.161.mp4536872188</linkclipref>
								</link>
								<link>
									<linkclipref>ArmA 3 2020.11.28 - 21.26.19.161.mp45368721881</linkclipref>
								</link>
								<link>
									<linkclipref>ArmA 3 2020.11.28 - 21.26.19.161.mp4536872189</linkclipref>
								</link>
								<link>
									<linkclipref>ArmA 3 2020.11.28 - 21.26.19.161.mp45368721891</linkclipref>
								</link>
							</clipitem>
							<clipitem id="ArmA 3 2020.11.28 - 21.28.04.162.mp4536872192">
								<name>ArmA 3 2020.11.28 - 21.28.04.162.mp4</name>
								<duration>1150</duration>
								<rate>
									<ntsc>TRUE</ntsc>
									<timebase>24</timebase>
								</rate>
								<in>0</in>
								<out>1150</out>
								<start>21470</start>
								<end>22620</end>
								<enabled>FALSE</enabled>
								<masterclipid>ArmA 3 2020.11.28 - 21.28.04.162.mp4</masterclipid>
								<logginginfo>
									<scene />
									<shottake />
									<lognote />
									<good>FALSE</good>
								</logginginfo>
								<labels>
									<label2 />
								</labels>
								<comments>
									<mastercomment1 />
									<mastercomment2 />
									<mastercomment3 />
									<mastercomment4 />
								</comments>
								<file id="ArmA 3 2020.11.28 - 21.28.04.162" />
								<filter>
									<effect>
										<name>Audio Levels</name>
										<effectid>audiolevels</effectid>
										<effectcategory>audiolevels</effectcategory>
										<effecttype>audiolevels</effecttype>
										<mediatype>audio</mediatype>
										<parameter>
											<name>Level</name>
											<parameterid>level</parameterid>
											<valuemin>0</valuemin>
											<valuemax>3,98109</valuemax>
											<value>1</value>
										</parameter>
									</effect>
								</filter>
								<filter>
									<effect>
										<name>Audio Pan</name>
										<effectid>audiopan</effectid>
										<effectcategory>audiopan</effectcategory>
										<effecttype>audiopan</effecttype>
										<mediatype>audio</mediatype>
										<parameter>
											<name>Pan</name>
											<parameterid>pan</parameterid>
											<valuemin>-1</valuemin>
											<valuemax>1</valuemax>
											<value>-1</value>
										</parameter>
									</effect>
								</filter>
								<sourcetrack>
									<mediatype>audio</mediatype>
									<trackindex>1</trackindex>
								</sourcetrack>
								<link>
									<linkclipref>ArmA 3 2020.11.28 - 21.28.04.162.mp4805307646</linkclipref>
								</link>
								<link>
									<linkclipref>ArmA 3 2020.11.28 - 21.28.04.162.mp4536872191</linkclipref>
								</link>
								<link>
									<linkclipref>ArmA 3 2020.11.28 - 21.28.04.162.mp45368721911</linkclipref>
								</link>
								<link>
									<linkclipref>ArmA 3 2020.11.28 - 21.28.04.162.mp4536872192</linkclipref>
								</link>
								<link>
									<linkclipref>ArmA 3 2020.11.28 - 21.28.04.162.mp45368721921</linkclipref>
								</link>
							</clipitem>
							<clipitem id="ArmA 3 2020.11.28 - 21.29.07.163.mp4536872195">
								<name>ArmA 3 2020.11.28 - 21.29.07.163.mp4</name>
								<duration>407</duration>
								<rate>
									<ntsc>TRUE</ntsc>
									<timebase>24</timebase>
								</rate>
								<in>0</in>
								<out>407</out>
								<start>22621</start>
								<end>23028</end>
								<enabled>FALSE</enabled>
								<masterclipid>ArmA 3 2020.11.28 - 21.29.07.163.mp4</masterclipid>
								<logginginfo>
									<scene />
									<shottake />
									<lognote />
									<good>FALSE</good>
								</logginginfo>
								<labels>
									<label2 />
								</labels>
								<comments>
									<mastercomment1 />
									<mastercomment2 />
									<mastercomment3 />
									<mastercomment4 />
								</comments>
								<file id="ArmA 3 2020.11.28 - 21.29.07.163" />
								<filter>
									<effect>
										<name>Audio Levels</name>
										<effectid>audiolevels</effectid>
										<effectcategory>audiolevels</effectcategory>
										<effecttype>audiolevels</effecttype>
										<mediatype>audio</mediatype>
										<parameter>
											<name>Level</name>
											<parameterid>level</parameterid>
											<valuemin>0</valuemin>
											<valuemax>3,98109</valuemax>
											<value>1</value>
										</parameter>
									</effect>
								</filter>
								<filter>
									<effect>
										<name>Audio Pan</name>
										<effectid>audiopan</effectid>
										<effectcategory>audiopan</effectcategory>
										<effecttype>audiopan</effecttype>
										<mediatype>audio</mediatype>
										<parameter>
											<name>Pan</name>
											<parameterid>pan</parameterid>
											<valuemin>-1</valuemin>
											<valuemax>1</valuemax>
											<value>-1</value>
										</parameter>
									</effect>
								</filter>
								<sourcetrack>
									<mediatype>audio</mediatype>
									<trackindex>1</trackindex>
								</sourcetrack>
								<link>
									<linkclipref>ArmA 3 2020.11.28 - 21.29.07.163.mp4805307649</linkclipref>
								</link>
								<link>
									<linkclipref>ArmA 3 2020.11.28 - 21.29.07.163.mp4536872194</linkclipref>
								</link>
								<link>
									<linkclipref>ArmA 3 2020.11.28 - 21.29.07.163.mp45368721941</linkclipref>
								</link>
								<link>
									<linkclipref>ArmA 3 2020.11.28 - 21.29.07.163.mp4536872195</linkclipref>
								</link>
								<link>
									<linkclipref>ArmA 3 2020.11.28 - 21.29.07.163.mp45368721951</linkclipref>
								</link>
							</clipitem>
							<clipitem id="ArmA 3 2020.11.28 - 21.29.46.164.mp4536872198">
								<name>ArmA 3 2020.11.28 - 21.29.46.164.mp4</name>
								<duration>1238</duration>
								<rate>
									<ntsc>TRUE</ntsc>
									<timebase>24</timebase>
								</rate>
								<in>0</in>
								<out>1238</out>
								<start>23029</start>
								<end>24267</end>
								<enabled>FALSE</enabled>
								<masterclipid>ArmA 3 2020.11.28 - 21.29.46.164.mp4</masterclipid>
								<logginginfo>
									<scene />
									<shottake />
									<lognote />
									<good>FALSE</good>
								</logginginfo>
								<labels>
									<label2 />
								</labels>
								<comments>
									<mastercomment1 />
									<mastercomment2 />
									<mastercomment3 />
									<mastercomment4 />
								</comments>
								<file id="ArmA 3 2020.11.28 - 21.29.46.164" />
								<filter>
									<effect>
										<name>Audio Levels</name>
										<effectid>audiolevels</effectid>
										<effectcategory>audiolevels</effectcategory>
										<effecttype>audiolevels</effecttype>
										<mediatype>audio</mediatype>
										<parameter>
											<name>Level</name>
											<parameterid>level</parameterid>
											<valuemin>0</valuemin>
											<valuemax>3,98109</valuemax>
											<value>1</value>
										</parameter>
									</effect>
								</filter>
								<filter>
									<effect>
										<name>Audio Pan</name>
										<effectid>audiopan</effectid>
										<effectcategory>audiopan</effectcategory>
										<effecttype>audiopan</effecttype>
										<mediatype>audio</mediatype>
										<parameter>
											<name>Pan</name>
											<parameterid>pan</parameterid>
											<valuemin>-1</valuemin>
											<valuemax>1</valuemax>
											<value>-1</value>
										</parameter>
									</effect>
								</filter>
								<sourcetrack>
									<mediatype>audio</mediatype>
									<trackindex>1</trackindex>
								</sourcetrack>
								<link>
									<linkclipref>ArmA 3 2020.11.28 - 21.29.46.164.mp4805307652</linkclipref>
								</link>
								<link>
									<linkclipref>ArmA 3 2020.11.28 - 21.29.46.164.mp4536872197</linkclipref>
								</link>
								<link>
									<linkclipref>ArmA 3 2020.11.28 - 21.29.46.164.mp45368721971</linkclipref>
								</link>
								<link>
									<linkclipref>ArmA 3 2020.11.28 - 21.29.46.164.mp4536872198</linkclipref>
								</link>
								<link>
									<linkclipref>ArmA 3 2020.11.28 - 21.29.46.164.mp45368721981</linkclipref>
								</link>
							</clipitem>
							<clipitem id="ArmA 3 2020.11.28 - 21.31.14.165.mp4536872201">
								<name>ArmA 3 2020.11.28 - 21.31.14.165.mp4</name>
								<duration>759</duration>
								<rate>
									<ntsc>TRUE</ntsc>
									<timebase>24</timebase>
								</rate>
								<in>0</in>
								<out>759</out>
								<start>24268</start>
								<end>25027</end>
								<enabled>FALSE</enabled>
								<masterclipid>ArmA 3 2020.11.28 - 21.31.14.165.mp4</masterclipid>
								<logginginfo>
									<scene />
									<shottake />
									<lognote />
									<good>FALSE</good>
								</logginginfo>
								<labels>
									<label2 />
								</labels>
								<comments>
									<mastercomment1 />
									<mastercomment2 />
									<mastercomment3 />
									<mastercomment4 />
								</comments>
								<file id="ArmA 3 2020.11.28 - 21.31.14.165" />
								<filter>
									<effect>
										<name>Audio Levels</name>
										<effectid>audiolevels</effectid>
										<effectcategory>audiolevels</effectcategory>
										<effecttype>audiolevels</effecttype>
										<mediatype>audio</mediatype>
										<parameter>
											<name>Level</name>
											<parameterid>level</parameterid>
											<valuemin>0</valuemin>
											<valuemax>3,98109</valuemax>
											<value>1</value>
										</parameter>
									</effect>
								</filter>
								<filter>
									<effect>
										<name>Audio Pan</name>
										<effectid>audiopan</effectid>
										<effectcategory>audiopan</effectcategory>
										<effecttype>audiopan</effecttype>
										<mediatype>audio</mediatype>
										<parameter>
											<name>Pan</name>
											<parameterid>pan</parameterid>
											<valuemin>-1</valuemin>
											<valuemax>1</valuemax>
											<value>-1</value>
										</parameter>
									</effect>
								</filter>
								<sourcetrack>
									<mediatype>audio</mediatype>
									<trackindex>1</trackindex>
								</sourcetrack>
								<link>
									<linkclipref>ArmA 3 2020.11.28 - 21.31.14.165.mp4805307655</linkclipref>
								</link>
								<link>
									<linkclipref>ArmA 3 2020.11.28 - 21.31.14.165.mp4536872200</linkclipref>
								</link>
								<link>
									<linkclipref>ArmA 3 2020.11.28 - 21.31.14.165.mp45368722001</linkclipref>
								</link>
								<link>
									<linkclipref>ArmA 3 2020.11.28 - 21.31.14.165.mp4536872201</linkclipref>
								</link>
								<link>
									<linkclipref>ArmA 3 2020.11.28 - 21.31.14.165.mp45368722011</linkclipref>
								</link>
							</clipitem>
							<clipitem id="ArmA 3 2020.11.28 - 21.31.58.166.mp4536872204">
								<name>ArmA 3 2020.11.28 - 21.31.58.166.mp4</name>
								<duration>710</duration>
								<rate>
									<ntsc>TRUE</ntsc>
									<timebase>24</timebase>
								</rate>
								<in>0</in>
								<out>710</out>
								<start>25028</start>
								<end>25738</end>
								<enabled>FALSE</enabled>
								<masterclipid>ArmA 3 2020.11.28 - 21.31.58.166.mp4</masterclipid>
								<logginginfo>
									<scene />
									<shottake />
									<lognote />
									<good>FALSE</good>
								</logginginfo>
								<labels>
									<label2 />
								</labels>
								<comments>
									<mastercomment1 />
									<mastercomment2 />
									<mastercomment3 />
									<mastercomment4 />
								</comments>
								<file id="ArmA 3 2020.11.28 - 21.31.58.166" />
								<filter>
									<effect>
										<name>Audio Levels</name>
										<effectid>audiolevels</effectid>
										<effectcategory>audiolevels</effectcategory>
										<effecttype>audiolevels</effecttype>
										<mediatype>audio</mediatype>
										<parameter>
											<name>Level</name>
											<parameterid>level</parameterid>
											<valuemin>0</valuemin>
											<valuemax>3,98109</valuemax>
											<value>1</value>
										</parameter>
									</effect>
								</filter>
								<filter>
									<effect>
										<name>Audio Pan</name>
										<effectid>audiopan</effectid>
										<effectcategory>audiopan</effectcategory>
										<effecttype>audiopan</effecttype>
										<mediatype>audio</mediatype>
										<parameter>
											<name>Pan</name>
											<parameterid>pan</parameterid>
											<valuemin>-1</valuemin>
											<valuemax>1</valuemax>
											<value>-1</value>
										</parameter>
									</effect>
								</filter>
								<sourcetrack>
									<mediatype>audio</mediatype>
									<trackindex>1</trackindex>
								</sourcetrack>
								<link>
									<linkclipref>ArmA 3 2020.11.28 - 21.31.58.166.mp4805307658</linkclipref>
								</link>
								<link>
									<linkclipref>ArmA 3 2020.11.28 - 21.31.58.166.mp4536872203</linkclipref>
								</link>
								<link>
									<linkclipref>ArmA 3 2020.11.28 - 21.31.58.166.mp45368722031</linkclipref>
								</link>
								<link>
									<linkclipref>ArmA 3 2020.11.28 - 21.31.58.166.mp4536872204</linkclipref>
								</link>
								<link>
									<linkclipref>ArmA 3 2020.11.28 - 21.31.58.166.mp45368722041</linkclipref>
								</link>
							</clipitem>
							<clipitem id="ArmA 3 2020.11.28 - 21.32.33.167.mp4536872207">
								<name>ArmA 3 2020.11.28 - 21.32.33.167.mp4</name>
								<duration>1026</duration>
								<rate>
									<ntsc>TRUE</ntsc>
									<timebase>24</timebase>
								</rate>
								<in>0</in>
								<out>1026</out>
								<start>25739</start>
								<end>26765</end>
								<enabled>FALSE</enabled>
								<masterclipid>ArmA 3 2020.11.28 - 21.32.33.167.mp4</masterclipid>
								<logginginfo>
									<scene />
									<shottake />
									<lognote />
									<good>FALSE</good>
								</logginginfo>
								<labels>
									<label2 />
								</labels>
								<comments>
									<mastercomment1 />
									<mastercomment2 />
									<mastercomment3 />
									<mastercomment4 />
								</comments>
								<file id="ArmA 3 2020.11.28 - 21.32.33.167" />
								<filter>
									<effect>
										<name>Audio Levels</name>
										<effectid>audiolevels</effectid>
										<effectcategory>audiolevels</effectcategory>
										<effecttype>audiolevels</effecttype>
										<mediatype>audio</mediatype>
										<parameter>
											<name>Level</name>
											<parameterid>level</parameterid>
											<valuemin>0</valuemin>
											<valuemax>3,98109</valuemax>
											<value>1</value>
										</parameter>
									</effect>
								</filter>
								<filter>
									<effect>
										<name>Audio Pan</name>
										<effectid>audiopan</effectid>
										<effectcategory>audiopan</effectcategory>
										<effecttype>audiopan</effecttype>
										<mediatype>audio</mediatype>
										<parameter>
											<name>Pan</name>
											<parameterid>pan</parameterid>
											<valuemin>-1</valuemin>
											<valuemax>1</valuemax>
											<value>-1</value>
										</parameter>
									</effect>
								</filter>
								<sourcetrack>
									<mediatype>audio</mediatype>
									<trackindex>1</trackindex>
								</sourcetrack>
								<link>
									<linkclipref>ArmA 3 2020.11.28 - 21.32.33.167.mp4805307661</linkclipref>
								</link>
								<link>
									<linkclipref>ArmA 3 2020.11.28 - 21.32.33.167.mp4536872206</linkclipref>
								</link>
								<link>
									<linkclipref>ArmA 3 2020.11.28 - 21.32.33.167.mp45368722061</linkclipref>
								</link>
								<link>
									<linkclipref>ArmA 3 2020.11.28 - 21.32.33.167.mp4536872207</linkclipref>
								</link>
								<link>
									<linkclipref>ArmA 3 2020.11.28 - 21.32.33.167.mp45368722071</linkclipref>
								</link>
							</clipitem>
						</track>
						<track>
							<clipitem id="ArmA 3 2020.11.28 - 21.09.20.144.mp45368721381">
								<name>ArmA 3 2020.11.28 - 21.09.20.144.mp4</name>
								<duration>593</duration>
								<rate>
									<ntsc>TRUE</ntsc>
									<timebase>24</timebase>
								</rate>
								<in>0</in>
								<out>593</out>
								<start>0</start>
								<end>593</end>
								<enabled>FALSE</enabled>
								<masterclipid>ArmA 3 2020.11.28 - 21.09.20.144.mp4</masterclipid>
								<logginginfo>
									<scene />
									<shottake />
									<lognote />
									<good>FALSE</good>
								</logginginfo>
								<labels>
									<label2 />
								</labels>
								<comments>
									<mastercomment1 />
									<mastercomment2 />
									<mastercomment3 />
									<mastercomment4 />
								</comments>
								<file id="ArmA 3 2020.11.28 - 21.09.20.144" />
								<filter>
									<effect>
										<name>Audio Levels</name>
										<effectid>audiolevels</effectid>
										<effectcategory>audiolevels</effectcategory>
										<effecttype>audiolevels</effecttype>
										<mediatype>audio</mediatype>
										<parameter>
											<name>Level</name>
											<parameterid>level</parameterid>
											<valuemin>0</valuemin>
											<valuemax>3,98109</valuemax>
											<value>1</value>
										</parameter>
									</effect>
								</filter>
								<filter>
									<effect>
										<name>Audio Pan</name>
										<effectid>audiopan</effectid>
										<effectcategory>audiopan</effectcategory>
										<effecttype>audiopan</effecttype>
										<mediatype>audio</mediatype>
										<parameter>
											<name>Pan</name>
											<parameterid>pan</parameterid>
											<valuemin>-1</valuemin>
											<valuemax>1</valuemax>
											<value>1</value>
										</parameter>
									</effect>
								</filter>
								<sourcetrack>
									<mediatype>audio</mediatype>
									<trackindex>2</trackindex>
								</sourcetrack>
								<link>
									<linkclipref>ArmA 3 2020.11.28 - 21.09.20.144.mp4805307592</linkclipref>
								</link>
								<link>
									<linkclipref>ArmA 3 2020.11.28 - 21.09.20.144.mp4536872137</linkclipref>
								</link>
								<link>
									<linkclipref>ArmA 3 2020.11.28 - 21.09.20.144.mp45368721371</linkclipref>
								</link>
								<link>
									<linkclipref>ArmA 3 2020.11.28 - 21.09.20.144.mp4536872138</linkclipref>
								</link>
								<link>
									<linkclipref>ArmA 3 2020.11.28 - 21.09.20.144.mp45368721381</linkclipref>
								</link>
							</clipitem>
							<clipitem id="ArmA 3 2020.11.28 - 21.10.25.145.DVR.mp45368721411">
								<name>ArmA 3 2020.11.28 - 21.10.25.145.DVR.mp4</name>
								<duration>7195</duration>
								<rate>
									<ntsc>TRUE</ntsc>
									<timebase>24</timebase>
								</rate>
								<in>0</in>
								<out>7195</out>
								<start>594</start>
								<end>7789</end>
								<enabled>FALSE</enabled>
								<masterclipid>ArmA 3 2020.11.28 - 21.10.25.145.DVR.mp4</masterclipid>
								<logginginfo>
									<scene />
									<shottake />
									<lognote />
									<good>FALSE</good>
								</logginginfo>
								<labels>
									<label2 />
								</labels>
								<comments>
									<mastercomment1 />
									<mastercomment2 />
									<mastercomment3 />
									<mastercomment4 />
								</comments>
								<file id="ArmA 3 2020.11.28 - 21.10.25.145.DVR" />
								<filter>
									<effect>
										<name>Audio Levels</name>
										<effectid>audiolevels</effectid>
										<effectcategory>audiolevels</effectcategory>
										<effecttype>audiolevels</effecttype>
										<mediatype>audio</mediatype>
										<parameter>
											<name>Level</name>
											<parameterid>level</parameterid>
											<valuemin>0</valuemin>
											<valuemax>3,98109</valuemax>
											<value>1</value>
										</parameter>
									</effect>
								</filter>
								<filter>
									<effect>
										<name>Audio Pan</name>
										<effectid>audiopan</effectid>
										<effectcategory>audiopan</effectcategory>
										<effecttype>audiopan</effecttype>
										<mediatype>audio</mediatype>
										<parameter>
											<name>Pan</name>
											<parameterid>pan</parameterid>
											<valuemin>-1</valuemin>
											<valuemax>1</valuemax>
											<value>1</value>
										</parameter>
									</effect>
								</filter>
								<sourcetrack>
									<mediatype>audio</mediatype>
									<trackindex>2</trackindex>
								</sourcetrack>
								<link>
									<linkclipref>ArmA 3 2020.11.28 - 21.10.25.145.DVR.mp4805307595</linkclipref>
								</link>
								<link>
									<linkclipref>ArmA 3 2020.11.28 - 21.10.25.145.DVR.mp4536872140</linkclipref>
								</link>
								<link>
									<linkclipref>ArmA 3 2020.11.28 - 21.10.25.145.DVR.mp45368721401</linkclipref>
								</link>
								<link>
									<linkclipref>ArmA 3 2020.11.28 - 21.10.25.145.DVR.mp4536872141</linkclipref>
								</link>
								<link>
									<linkclipref>ArmA 3 2020.11.28 - 21.10.25.145.DVR.mp45368721411</linkclipref>
								</link>
							</clipitem>
							<clipitem id="ArmA 3 2020.11.28 - 21.10.28.146.mp45368721441">
								<name>ArmA 3 2020.11.28 - 21.10.28.146.mp4</name>
								<duration>226</duration>
								<rate>
									<ntsc>TRUE</ntsc>
									<timebase>24</timebase>
								</rate>
								<in>0</in>
								<out>226</out>
								<start>7790</start>
								<end>8016</end>
								<enabled>FALSE</enabled>
								<masterclipid>ArmA 3 2020.11.28 - 21.10.28.146.mp4</masterclipid>
								<logginginfo>
									<scene />
									<shottake />
									<lognote />
									<good>FALSE</good>
								</logginginfo>
								<labels>
									<label2 />
								</labels>
								<comments>
									<mastercomment1 />
									<mastercomment2 />
									<mastercomment3 />
									<mastercomment4 />
								</comments>
								<file id="ArmA 3 2020.11.28 - 21.10.28.146" />
								<filter>
									<effect>
										<name>Audio Levels</name>
										<effectid>audiolevels</effectid>
										<effectcategory>audiolevels</effectcategory>
										<effecttype>audiolevels</effecttype>
										<mediatype>audio</mediatype>
										<parameter>
											<name>Level</name>
											<parameterid>level</parameterid>
											<valuemin>0</valuemin>
											<valuemax>3,98109</valuemax>
											<value>1</value>
										</parameter>
									</effect>
								</filter>
								<filter>
									<effect>
										<name>Audio Pan</name>
										<effectid>audiopan</effectid>
										<effectcategory>audiopan</effectcategory>
										<effecttype>audiopan</effecttype>
										<mediatype>audio</mediatype>
										<parameter>
											<name>Pan</name>
											<parameterid>pan</parameterid>
											<valuemin>-1</valuemin>
											<valuemax>1</valuemax>
											<value>1</value>
										</parameter>
									</effect>
								</filter>
								<sourcetrack>
									<mediatype>audio</mediatype>
									<trackindex>2</trackindex>
								</sourcetrack>
								<link>
									<linkclipref>ArmA 3 2020.11.28 - 21.10.28.146.mp4805307598</linkclipref>
								</link>
								<link>
									<linkclipref>ArmA 3 2020.11.28 - 21.10.28.146.mp4536872143</linkclipref>
								</link>
								<link>
									<linkclipref>ArmA 3 2020.11.28 - 21.10.28.146.mp45368721431</linkclipref>
								</link>
								<link>
									<linkclipref>ArmA 3 2020.11.28 - 21.10.28.146.mp4536872144</linkclipref>
								</link>
								<link>
									<linkclipref>ArmA 3 2020.11.28 - 21.10.28.146.mp45368721441</linkclipref>
								</link>
							</clipitem>
							<clipitem id="ArmA 3 2020.11.28 - 21.10.39.147.mp45368721471">
								<name>ArmA 3 2020.11.28 - 21.10.39.147.mp4</name>
								<duration>1154</duration>
								<rate>
									<ntsc>TRUE</ntsc>
									<timebase>24</timebase>
								</rate>
								<in>0</in>
								<out>1154</out>
								<start>8017</start>
								<end>9171</end>
								<enabled>FALSE</enabled>
								<masterclipid>ArmA 3 2020.11.28 - 21.10.39.147.mp4</masterclipid>
								<logginginfo>
									<scene />
									<shottake />
									<lognote />
									<good>FALSE</good>
								</logginginfo>
								<labels>
									<label2 />
								</labels>
								<comments>
									<mastercomment1 />
									<mastercomment2 />
									<mastercomment3 />
									<mastercomment4 />
								</comments>
								<file id="ArmA 3 2020.11.28 - 21.10.39.147" />
								<filter>
									<effect>
										<name>Audio Levels</name>
										<effectid>audiolevels</effectid>
										<effectcategory>audiolevels</effectcategory>
										<effecttype>audiolevels</effecttype>
										<mediatype>audio</mediatype>
										<parameter>
											<name>Level</name>
											<parameterid>level</parameterid>
											<valuemin>0</valuemin>
											<valuemax>3,98109</valuemax>
											<value>1</value>
										</parameter>
									</effect>
								</filter>
								<filter>
									<effect>
										<name>Audio Pan</name>
										<effectid>audiopan</effectid>
										<effectcategory>audiopan</effectcategory>
										<effecttype>audiopan</effecttype>
										<mediatype>audio</mediatype>
										<parameter>
											<name>Pan</name>
											<parameterid>pan</parameterid>
											<valuemin>-1</valuemin>
											<valuemax>1</valuemax>
											<value>1</value>
										</parameter>
									</effect>
								</filter>
								<sourcetrack>
									<mediatype>audio</mediatype>
									<trackindex>2</trackindex>
								</sourcetrack>
								<link>
									<linkclipref>ArmA 3 2020.11.28 - 21.10.39.147.mp4805307601</linkclipref>
								</link>
								<link>
									<linkclipref>ArmA 3 2020.11.28 - 21.10.39.147.mp4536872146</linkclipref>
								</link>
								<link>
									<linkclipref>ArmA 3 2020.11.28 - 21.10.39.147.mp45368721461</linkclipref>
								</link>
								<link>
									<linkclipref>ArmA 3 2020.11.28 - 21.10.39.147.mp4536872147</linkclipref>
								</link>
								<link>
									<linkclipref>ArmA 3 2020.11.28 - 21.10.39.147.mp45368721471</linkclipref>
								</link>
							</clipitem>
							<clipitem id="ArmA 3 2020.11.28 - 21.11.34.148.mp45368721501">
								<name>ArmA 3 2020.11.28 - 21.11.34.148.mp4</name>
								<duration>1118</duration>
								<rate>
									<ntsc>TRUE</ntsc>
									<timebase>24</timebase>
								</rate>
								<in>0</in>
								<out>1118</out>
								<start>9172</start>
								<end>10290</end>
								<enabled>FALSE</enabled>
								<masterclipid>ArmA 3 2020.11.28 - 21.11.34.148.mp4</masterclipid>
								<logginginfo>
									<scene />
									<shottake />
									<lognote />
									<good>FALSE</good>
								</logginginfo>
								<labels>
									<label2 />
								</labels>
								<comments>
									<mastercomment1 />
									<mastercomment2 />
									<mastercomment3 />
									<mastercomment4 />
								</comments>
								<file id="ArmA 3 2020.11.28 - 21.11.34.148" />
								<filter>
									<effect>
										<name>Audio Levels</name>
										<effectid>audiolevels</effectid>
										<effectcategory>audiolevels</effectcategory>
										<effecttype>audiolevels</effecttype>
										<mediatype>audio</mediatype>
										<parameter>
											<name>Level</name>
											<parameterid>level</parameterid>
											<valuemin>0</valuemin>
											<valuemax>3,98109</valuemax>
											<value>1</value>
										</parameter>
									</effect>
								</filter>
								<filter>
									<effect>
										<name>Audio Pan</name>
										<effectid>audiopan</effectid>
										<effectcategory>audiopan</effectcategory>
										<effecttype>audiopan</effecttype>
										<mediatype>audio</mediatype>
										<parameter>
											<name>Pan</name>
											<parameterid>pan</parameterid>
											<valuemin>-1</valuemin>
											<valuemax>1</valuemax>
											<value>1</value>
										</parameter>
									</effect>
								</filter>
								<sourcetrack>
									<mediatype>audio</mediatype>
									<trackindex>2</trackindex>
								</sourcetrack>
								<link>
									<linkclipref>ArmA 3 2020.11.28 - 21.11.34.148.mp4805307604</linkclipref>
								</link>
								<link>
									<linkclipref>ArmA 3 2020.11.28 - 21.11.34.148.mp4536872149</linkclipref>
								</link>
								<link>
									<linkclipref>ArmA 3 2020.11.28 - 21.11.34.148.mp45368721491</linkclipref>
								</link>
								<link>
									<linkclipref>ArmA 3 2020.11.28 - 21.11.34.148.mp4536872150</linkclipref>
								</link>
								<link>
									<linkclipref>ArmA 3 2020.11.28 - 21.11.34.148.mp45368721501</linkclipref>
								</link>
							</clipitem>
							<clipitem id="ArmA 3 2020.11.28 - 21.12.26.149.mp45368721531">
								<name>ArmA 3 2020.11.28 - 21.12.26.149.mp4</name>
								<duration>533</duration>
								<rate>
									<ntsc>TRUE</ntsc>
									<timebase>24</timebase>
								</rate>
								<in>0</in>
								<out>533</out>
								<start>10290</start>
								<end>10823</end>
								<enabled>FALSE</enabled>
								<masterclipid>ArmA 3 2020.11.28 - 21.12.26.149.mp4</masterclipid>
								<logginginfo>
									<scene />
									<shottake />
									<lognote />
									<good>FALSE</good>
								</logginginfo>
								<labels>
									<label2 />
								</labels>
								<comments>
									<mastercomment1 />
									<mastercomment2 />
									<mastercomment3 />
									<mastercomment4 />
								</comments>
								<file id="ArmA 3 2020.11.28 - 21.12.26.149" />
								<filter>
									<effect>
										<name>Audio Levels</name>
										<effectid>audiolevels</effectid>
										<effectcategory>audiolevels</effectcategory>
										<effecttype>audiolevels</effecttype>
										<mediatype>audio</mediatype>
										<parameter>
											<name>Level</name>
											<parameterid>level</parameterid>
											<valuemin>0</valuemin>
											<valuemax>3,98109</valuemax>
											<value>1</value>
										</parameter>
									</effect>
								</filter>
								<filter>
									<effect>
										<name>Audio Pan</name>
										<effectid>audiopan</effectid>
										<effectcategory>audiopan</effectcategory>
										<effecttype>audiopan</effecttype>
										<mediatype>audio</mediatype>
										<parameter>
											<name>Pan</name>
											<parameterid>pan</parameterid>
											<valuemin>-1</valuemin>
											<valuemax>1</valuemax>
											<value>1</value>
										</parameter>
									</effect>
								</filter>
								<sourcetrack>
									<mediatype>audio</mediatype>
									<trackindex>2</trackindex>
								</sourcetrack>
								<link>
									<linkclipref>ArmA 3 2020.11.28 - 21.12.26.149.mp4805307607</linkclipref>
								</link>
								<link>
									<linkclipref>ArmA 3 2020.11.28 - 21.12.26.149.mp4536872152</linkclipref>
								</link>
								<link>
									<linkclipref>ArmA 3 2020.11.28 - 21.12.26.149.mp45368721521</linkclipref>
								</link>
								<link>
									<linkclipref>ArmA 3 2020.11.28 - 21.12.26.149.mp4536872153</linkclipref>
								</link>
								<link>
									<linkclipref>ArmA 3 2020.11.28 - 21.12.26.149.mp45368721531</linkclipref>
								</link>
							</clipitem>
							<clipitem id="ArmA 3 2020.11.28 - 21.13.10.150.mp45368721561">
								<name>ArmA 3 2020.11.28 - 21.13.10.150.mp4</name>
								<duration>803</duration>
								<rate>
									<ntsc>TRUE</ntsc>
									<timebase>24</timebase>
								</rate>
								<in>0</in>
								<out>803</out>
								<start>10824</start>
								<end>11627</end>
								<enabled>FALSE</enabled>
								<masterclipid>ArmA 3 2020.11.28 - 21.13.10.150.mp4</masterclipid>
								<logginginfo>
									<scene />
									<shottake />
									<lognote />
									<good>FALSE</good>
								</logginginfo>
								<labels>
									<label2 />
								</labels>
								<comments>
									<mastercomment1 />
									<mastercomment2 />
									<mastercomment3 />
									<mastercomment4 />
								</comments>
								<file id="ArmA 3 2020.11.28 - 21.13.10.150" />
								<filter>
									<effect>
										<name>Audio Levels</name>
										<effectid>audiolevels</effectid>
										<effectcategory>audiolevels</effectcategory>
										<effecttype>audiolevels</effecttype>
										<mediatype>audio</mediatype>
										<parameter>
											<name>Level</name>
											<parameterid>level</parameterid>
											<valuemin>0</valuemin>
											<valuemax>3,98109</valuemax>
											<value>1</value>
										</parameter>
									</effect>
								</filter>
								<filter>
									<effect>
										<name>Audio Pan</name>
										<effectid>audiopan</effectid>
										<effectcategory>audiopan</effectcategory>
										<effecttype>audiopan</effecttype>
										<mediatype>audio</mediatype>
										<parameter>
											<name>Pan</name>
											<parameterid>pan</parameterid>
											<valuemin>-1</valuemin>
											<valuemax>1</valuemax>
											<value>1</value>
										</parameter>
									</effect>
								</filter>
								<sourcetrack>
									<mediatype>audio</mediatype>
									<trackindex>2</trackindex>
								</sourcetrack>
								<link>
									<linkclipref>ArmA 3 2020.11.28 - 21.13.10.150.mp4805307610</linkclipref>
								</link>
								<link>
									<linkclipref>ArmA 3 2020.11.28 - 21.13.10.150.mp4536872155</linkclipref>
								</link>
								<link>
									<linkclipref>ArmA 3 2020.11.28 - 21.13.10.150.mp45368721551</linkclipref>
								</link>
								<link>
									<linkclipref>ArmA 3 2020.11.28 - 21.13.10.150.mp4536872156</linkclipref>
								</link>
								<link>
									<linkclipref>ArmA 3 2020.11.28 - 21.13.10.150.mp45368721561</linkclipref>
								</link>
							</clipitem>
							<clipitem id="ArmA 3 2020.11.28 - 21.15.17.151.mp45368721591">
								<name>ArmA 3 2020.11.28 - 21.15.17.151.mp4</name>
								<duration>1024</duration>
								<rate>
									<ntsc>TRUE</ntsc>
									<timebase>24</timebase>
								</rate>
								<in>0</in>
								<out>1024</out>
								<start>11628</start>
								<end>12652</end>
								<enabled>FALSE</enabled>
								<masterclipid>ArmA 3 2020.11.28 - 21.15.17.151.mp4</masterclipid>
								<logginginfo>
									<scene />
									<shottake />
									<lognote />
									<good>FALSE</good>
								</logginginfo>
								<labels>
									<label2 />
								</labels>
								<comments>
									<mastercomment1 />
									<mastercomment2 />
									<mastercomment3 />
									<mastercomment4 />
								</comments>
								<file id="ArmA 3 2020.11.28 - 21.15.17.151" />
								<filter>
									<effect>
										<name>Audio Levels</name>
										<effectid>audiolevels</effectid>
										<effectcategory>audiolevels</effectcategory>
										<effecttype>audiolevels</effecttype>
										<mediatype>audio</mediatype>
										<parameter>
											<name>Level</name>
											<parameterid>level</parameterid>
											<valuemin>0</valuemin>
											<valuemax>3,98109</valuemax>
											<value>1</value>
										</parameter>
									</effect>
								</filter>
								<filter>
									<effect>
										<name>Audio Pan</name>
										<effectid>audiopan</effectid>
										<effectcategory>audiopan</effectcategory>
										<effecttype>audiopan</effecttype>
										<mediatype>audio</mediatype>
										<parameter>
											<name>Pan</name>
											<parameterid>pan</parameterid>
											<valuemin>-1</valuemin>
											<valuemax>1</valuemax>
											<value>1</value>
										</parameter>
									</effect>
								</filter>
								<sourcetrack>
									<mediatype>audio</mediatype>
									<trackindex>2</trackindex>
								</sourcetrack>
								<link>
									<linkclipref>ArmA 3 2020.11.28 - 21.15.17.151.mp4805307613</linkclipref>
								</link>
								<link>
									<linkclipref>ArmA 3 2020.11.28 - 21.15.17.151.mp4536872158</linkclipref>
								</link>
								<link>
									<linkclipref>ArmA 3 2020.11.28 - 21.15.17.151.mp45368721581</linkclipref>
								</link>
								<link>
									<linkclipref>ArmA 3 2020.11.28 - 21.15.17.151.mp4536872159</linkclipref>
								</link>
								<link>
									<linkclipref>ArmA 3 2020.11.28 - 21.15.17.151.mp45368721591</linkclipref>
								</link>
							</clipitem>
							<clipitem id="ArmA 3 2020.11.28 - 21.16.08.152.mp45368721621">
								<name>ArmA 3 2020.11.28 - 21.16.08.152.mp4</name>
								<duration>500</duration>
								<rate>
									<ntsc>TRUE</ntsc>
									<timebase>24</timebase>
								</rate>
								<in>0</in>
								<out>500</out>
								<start>12653</start>
								<end>13153</end>
								<enabled>FALSE</enabled>
								<masterclipid>ArmA 3 2020.11.28 - 21.16.08.152.mp4</masterclipid>
								<logginginfo>
									<scene />
									<shottake />
									<lognote />
									<good>FALSE</good>
								</logginginfo>
								<labels>
									<label2 />
								</labels>
								<comments>
									<mastercomment1 />
									<mastercomment2 />
									<mastercomment3 />
									<mastercomment4 />
								</comments>
								<file id="ArmA 3 2020.11.28 - 21.16.08.152" />
								<filter>
									<effect>
										<name>Audio Levels</name>
										<effectid>audiolevels</effectid>
										<effectcategory>audiolevels</effectcategory>
										<effecttype>audiolevels</effecttype>
										<mediatype>audio</mediatype>
										<parameter>
											<name>Level</name>
											<parameterid>level</parameterid>
											<valuemin>0</valuemin>
											<valuemax>3,98109</valuemax>
											<value>1</value>
										</parameter>
									</effect>
								</filter>
								<filter>
									<effect>
										<name>Audio Pan</name>
										<effectid>audiopan</effectid>
										<effectcategory>audiopan</effectcategory>
										<effecttype>audiopan</effecttype>
										<mediatype>audio</mediatype>
										<parameter>
											<name>Pan</name>
											<parameterid>pan</parameterid>
											<valuemin>-1</valuemin>
											<valuemax>1</valuemax>
											<value>1</value>
										</parameter>
									</effect>
								</filter>
								<sourcetrack>
									<mediatype>audio</mediatype>
									<trackindex>2</trackindex>
								</sourcetrack>
								<link>
									<linkclipref>ArmA 3 2020.11.28 - 21.16.08.152.mp4805307616</linkclipref>
								</link>
								<link>
									<linkclipref>ArmA 3 2020.11.28 - 21.16.08.152.mp4536872161</linkclipref>
								</link>
								<link>
									<linkclipref>ArmA 3 2020.11.28 - 21.16.08.152.mp45368721611</linkclipref>
								</link>
								<link>
									<linkclipref>ArmA 3 2020.11.28 - 21.16.08.152.mp4536872162</linkclipref>
								</link>
								<link>
									<linkclipref>ArmA 3 2020.11.28 - 21.16.08.152.mp45368721621</linkclipref>
								</link>
							</clipitem>
							<clipitem id="ArmA 3 2020.11.28 - 21.16.44.153.mp45368721651">
								<name>ArmA 3 2020.11.28 - 21.16.44.153.mp4</name>
								<duration>1280</duration>
								<rate>
									<ntsc>TRUE</ntsc>
									<timebase>24</timebase>
								</rate>
								<in>0</in>
								<out>1280</out>
								<start>13154</start>
								<end>14434</end>
								<enabled>FALSE</enabled>
								<masterclipid>ArmA 3 2020.11.28 - 21.16.44.153.mp4</masterclipid>
								<logginginfo>
									<scene />
									<shottake />
									<lognote />
									<good>FALSE</good>
								</logginginfo>
								<labels>
									<label2 />
								</labels>
								<comments>
									<mastercomment1 />
									<mastercomment2 />
									<mastercomment3 />
									<mastercomment4 />
								</comments>
								<file id="ArmA 3 2020.11.28 - 21.16.44.153" />
								<filter>
									<effect>
										<name>Audio Levels</name>
										<effectid>audiolevels</effectid>
										<effectcategory>audiolevels</effectcategory>
										<effecttype>audiolevels</effecttype>
										<mediatype>audio</mediatype>
										<parameter>
											<name>Level</name>
											<parameterid>level</parameterid>
											<valuemin>0</valuemin>
											<valuemax>3,98109</valuemax>
											<value>1</value>
										</parameter>
									</effect>
								</filter>
								<filter>
									<effect>
										<name>Audio Pan</name>
										<effectid>audiopan</effectid>
										<effectcategory>audiopan</effectcategory>
										<effecttype>audiopan</effecttype>
										<mediatype>audio</mediatype>
										<parameter>
											<name>Pan</name>
											<parameterid>pan</parameterid>
											<valuemin>-1</valuemin>
											<valuemax>1</valuemax>
											<value>1</value>
										</parameter>
									</effect>
								</filter>
								<sourcetrack>
									<mediatype>audio</mediatype>
									<trackindex>2</trackindex>
								</sourcetrack>
								<link>
									<linkclipref>ArmA 3 2020.11.28 - 21.16.44.153.mp4805307619</linkclipref>
								</link>
								<link>
									<linkclipref>ArmA 3 2020.11.28 - 21.16.44.153.mp4536872164</linkclipref>
								</link>
								<link>
									<linkclipref>ArmA 3 2020.11.28 - 21.16.44.153.mp45368721641</linkclipref>
								</link>
								<link>
									<linkclipref>ArmA 3 2020.11.28 - 21.16.44.153.mp4536872165</linkclipref>
								</link>
								<link>
									<linkclipref>ArmA 3 2020.11.28 - 21.16.44.153.mp45368721651</linkclipref>
								</link>
							</clipitem>
							<clipitem id="ArmA 3 2020.11.28 - 21.18.36.154.mp45368721681">
								<name>ArmA 3 2020.11.28 - 21.18.36.154.mp4</name>
								<duration>1079</duration>
								<rate>
									<ntsc>TRUE</ntsc>
									<timebase>24</timebase>
								</rate>
								<in>0</in>
								<out>1079</out>
								<start>14435</start>
								<end>15514</end>
								<enabled>FALSE</enabled>
								<masterclipid>ArmA 3 2020.11.28 - 21.18.36.154.mp4</masterclipid>
								<logginginfo>
									<scene />
									<shottake />
									<lognote />
									<good>FALSE</good>
								</logginginfo>
								<labels>
									<label2 />
								</labels>
								<comments>
									<mastercomment1 />
									<mastercomment2 />
									<mastercomment3 />
									<mastercomment4 />
								</comments>
								<file id="ArmA 3 2020.11.28 - 21.18.36.154" />
								<filter>
									<effect>
										<name>Audio Levels</name>
										<effectid>audiolevels</effectid>
										<effectcategory>audiolevels</effectcategory>
										<effecttype>audiolevels</effecttype>
										<mediatype>audio</mediatype>
										<parameter>
											<name>Level</name>
											<parameterid>level</parameterid>
											<valuemin>0</valuemin>
											<valuemax>3,98109</valuemax>
											<value>1</value>
										</parameter>
									</effect>
								</filter>
								<filter>
									<effect>
										<name>Audio Pan</name>
										<effectid>audiopan</effectid>
										<effectcategory>audiopan</effectcategory>
										<effecttype>audiopan</effecttype>
										<mediatype>audio</mediatype>
										<parameter>
											<name>Pan</name>
											<parameterid>pan</parameterid>
											<valuemin>-1</valuemin>
											<valuemax>1</valuemax>
											<value>1</value>
										</parameter>
									</effect>
								</filter>
								<sourcetrack>
									<mediatype>audio</mediatype>
									<trackindex>2</trackindex>
								</sourcetrack>
								<link>
									<linkclipref>ArmA 3 2020.11.28 - 21.18.36.154.mp4805307622</linkclipref>
								</link>
								<link>
									<linkclipref>ArmA 3 2020.11.28 - 21.18.36.154.mp4536872167</linkclipref>
								</link>
								<link>
									<linkclipref>ArmA 3 2020.11.28 - 21.18.36.154.mp45368721671</linkclipref>
								</link>
								<link>
									<linkclipref>ArmA 3 2020.11.28 - 21.18.36.154.mp4536872168</linkclipref>
								</link>
								<link>
									<linkclipref>ArmA 3 2020.11.28 - 21.18.36.154.mp45368721681</linkclipref>
								</link>
							</clipitem>
							<clipitem id="ArmA 3 2020.11.28 - 21.21.45.155.mp45368721711">
								<name>ArmA 3 2020.11.28 - 21.21.45.155.mp4</name>
								<duration>458</duration>
								<rate>
									<ntsc>TRUE</ntsc>
									<timebase>24</timebase>
								</rate>
								<in>0</in>
								<out>458</out>
								<start>15515</start>
								<end>15973</end>
								<enabled>FALSE</enabled>
								<masterclipid>ArmA 3 2020.11.28 - 21.21.45.155.mp4</masterclipid>
								<logginginfo>
									<scene />
									<shottake />
									<lognote />
									<good>FALSE</good>
								</logginginfo>
								<labels>
									<label2 />
								</labels>
								<comments>
									<mastercomment1 />
									<mastercomment2 />
									<mastercomment3 />
									<mastercomment4 />
								</comments>
								<file id="ArmA 3 2020.11.28 - 21.21.45.155" />
								<filter>
									<effect>
										<name>Audio Levels</name>
										<effectid>audiolevels</effectid>
										<effectcategory>audiolevels</effectcategory>
										<effecttype>audiolevels</effecttype>
										<mediatype>audio</mediatype>
										<parameter>
											<name>Level</name>
											<parameterid>level</parameterid>
											<valuemin>0</valuemin>
											<valuemax>3,98109</valuemax>
											<value>1</value>
										</parameter>
									</effect>
								</filter>
								<filter>
									<effect>
										<name>Audio Pan</name>
										<effectid>audiopan</effectid>
										<effectcategory>audiopan</effectcategory>
										<effecttype>audiopan</effecttype>
										<mediatype>audio</mediatype>
										<parameter>
											<name>Pan</name>
											<parameterid>pan</parameterid>
											<valuemin>-1</valuemin>
											<valuemax>1</valuemax>
											<value>1</value>
										</parameter>
									</effect>
								</filter>
								<sourcetrack>
									<mediatype>audio</mediatype>
									<trackindex>2</trackindex>
								</sourcetrack>
								<link>
									<linkclipref>ArmA 3 2020.11.28 - 21.21.45.155.mp4805307625</linkclipref>
								</link>
								<link>
									<linkclipref>ArmA 3 2020.11.28 - 21.21.45.155.mp4536872170</linkclipref>
								</link>
								<link>
									<linkclipref>ArmA 3 2020.11.28 - 21.21.45.155.mp45368721701</linkclipref>
								</link>
								<link>
									<linkclipref>ArmA 3 2020.11.28 - 21.21.45.155.mp4536872171</linkclipref>
								</link>
								<link>
									<linkclipref>ArmA 3 2020.11.28 - 21.21.45.155.mp45368721711</linkclipref>
								</link>
							</clipitem>
							<clipitem id="ArmA 3 2020.11.28 - 21.23.14.156.mp45368721741">
								<name>ArmA 3 2020.11.28 - 21.23.14.156.mp4</name>
								<duration>289</duration>
								<rate>
									<ntsc>TRUE</ntsc>
									<timebase>24</timebase>
								</rate>
								<in>0</in>
								<out>289</out>
								<start>15974</start>
								<end>16263</end>
								<enabled>FALSE</enabled>
								<masterclipid>ArmA 3 2020.11.28 - 21.23.14.156.mp4</masterclipid>
								<logginginfo>
									<scene />
									<shottake />
									<lognote />
									<good>FALSE</good>
								</logginginfo>
								<labels>
									<label2 />
								</labels>
								<comments>
									<mastercomment1 />
									<mastercomment2 />
									<mastercomment3 />
									<mastercomment4 />
								</comments>
								<file id="ArmA 3 2020.11.28 - 21.23.14.156" />
								<filter>
									<effect>
										<name>Audio Levels</name>
										<effectid>audiolevels</effectid>
										<effectcategory>audiolevels</effectcategory>
										<effecttype>audiolevels</effecttype>
										<mediatype>audio</mediatype>
										<parameter>
											<name>Level</name>
											<parameterid>level</parameterid>
											<valuemin>0</valuemin>
											<valuemax>3,98109</valuemax>
											<value>1</value>
										</parameter>
									</effect>
								</filter>
								<filter>
									<effect>
										<name>Audio Pan</name>
										<effectid>audiopan</effectid>
										<effectcategory>audiopan</effectcategory>
										<effecttype>audiopan</effecttype>
										<mediatype>audio</mediatype>
										<parameter>
											<name>Pan</name>
											<parameterid>pan</parameterid>
											<valuemin>-1</valuemin>
											<valuemax>1</valuemax>
											<value>1</value>
										</parameter>
									</effect>
								</filter>
								<sourcetrack>
									<mediatype>audio</mediatype>
									<trackindex>2</trackindex>
								</sourcetrack>
								<link>
									<linkclipref>ArmA 3 2020.11.28 - 21.23.14.156.mp4805307628</linkclipref>
								</link>
								<link>
									<linkclipref>ArmA 3 2020.11.28 - 21.23.14.156.mp4536872173</linkclipref>
								</link>
								<link>
									<linkclipref>ArmA 3 2020.11.28 - 21.23.14.156.mp45368721731</linkclipref>
								</link>
								<link>
									<linkclipref>ArmA 3 2020.11.28 - 21.23.14.156.mp4536872174</linkclipref>
								</link>
								<link>
									<linkclipref>ArmA 3 2020.11.28 - 21.23.14.156.mp45368721741</linkclipref>
								</link>
							</clipitem>
							<clipitem id="ArmA 3 2020.11.28 - 21.23.42.157.mp45368721771">
								<name>ArmA 3 2020.11.28 - 21.23.42.157.mp4</name>
								<duration>161</duration>
								<rate>
									<ntsc>TRUE</ntsc>
									<timebase>24</timebase>
								</rate>
								<in>0</in>
								<out>161</out>
								<start>16264</start>
								<end>16425</end>
								<enabled>FALSE</enabled>
								<masterclipid>ArmA 3 2020.11.28 - 21.23.42.157.mp4</masterclipid>
								<logginginfo>
									<scene />
									<shottake />
									<lognote />
									<good>FALSE</good>
								</logginginfo>
								<labels>
									<label2 />
								</labels>
								<comments>
									<mastercomment1 />
									<mastercomment2 />
									<mastercomment3 />
									<mastercomment4 />
								</comments>
								<file id="ArmA 3 2020.11.28 - 21.23.42.157" />
								<filter>
									<effect>
										<name>Audio Levels</name>
										<effectid>audiolevels</effectid>
										<effectcategory>audiolevels</effectcategory>
										<effecttype>audiolevels</effecttype>
										<mediatype>audio</mediatype>
										<parameter>
											<name>Level</name>
											<parameterid>level</parameterid>
											<valuemin>0</valuemin>
											<valuemax>3,98109</valuemax>
											<value>1</value>
										</parameter>
									</effect>
								</filter>
								<filter>
									<effect>
										<name>Audio Pan</name>
										<effectid>audiopan</effectid>
										<effectcategory>audiopan</effectcategory>
										<effecttype>audiopan</effecttype>
										<mediatype>audio</mediatype>
										<parameter>
											<name>Pan</name>
											<parameterid>pan</parameterid>
											<valuemin>-1</valuemin>
											<valuemax>1</valuemax>
											<value>1</value>
										</parameter>
									</effect>
								</filter>
								<sourcetrack>
									<mediatype>audio</mediatype>
									<trackindex>2</trackindex>
								</sourcetrack>
								<link>
									<linkclipref>ArmA 3 2020.11.28 - 21.23.42.157.mp4805307631</linkclipref>
								</link>
								<link>
									<linkclipref>ArmA 3 2020.11.28 - 21.23.42.157.mp4536872176</linkclipref>
								</link>
								<link>
									<linkclipref>ArmA 3 2020.11.28 - 21.23.42.157.mp45368721761</linkclipref>
								</link>
								<link>
									<linkclipref>ArmA 3 2020.11.28 - 21.23.42.157.mp4536872177</linkclipref>
								</link>
								<link>
									<linkclipref>ArmA 3 2020.11.28 - 21.23.42.157.mp45368721771</linkclipref>
								</link>
							</clipitem>
							<clipitem id="ArmA 3 2020.11.28 - 21.24.02.158.mp45368721801">
								<name>ArmA 3 2020.11.28 - 21.24.02.158.mp4</name>
								<duration>425</duration>
								<rate>
									<ntsc>TRUE</ntsc>
									<timebase>24</timebase>
								</rate>
								<in>0</in>
								<out>425</out>
								<start>16426</start>
								<end>16851</end>
								<enabled>FALSE</enabled>
								<masterclipid>ArmA 3 2020.11.28 - 21.24.02.158.mp4</masterclipid>
								<logginginfo>
									<scene />
									<shottake />
									<lognote />
									<good>FALSE</good>
								</logginginfo>
								<labels>
									<label2 />
								</labels>
								<comments>
									<mastercomment1 />
									<mastercomment2 />
									<mastercomment3 />
									<mastercomment4 />
								</comments>
								<file id="ArmA 3 2020.11.28 - 21.24.02.158" />
								<filter>
									<effect>
										<name>Audio Levels</name>
										<effectid>audiolevels</effectid>
										<effectcategory>audiolevels</effectcategory>
										<effecttype>audiolevels</effecttype>
										<mediatype>audio</mediatype>
										<parameter>
											<name>Level</name>
											<parameterid>level</parameterid>
											<valuemin>0</valuemin>
											<valuemax>3,98109</valuemax>
											<value>1</value>
										</parameter>
									</effect>
								</filter>
								<filter>
									<effect>
										<name>Audio Pan</name>
										<effectid>audiopan</effectid>
										<effectcategory>audiopan</effectcategory>
										<effecttype>audiopan</effecttype>
										<mediatype>audio</mediatype>
										<parameter>
											<name>Pan</name>
											<parameterid>pan</parameterid>
											<valuemin>-1</valuemin>
											<valuemax>1</valuemax>
											<value>1</value>
										</parameter>
									</effect>
								</filter>
								<sourcetrack>
									<mediatype>audio</mediatype>
									<trackindex>2</trackindex>
								</sourcetrack>
								<link>
									<linkclipref>ArmA 3 2020.11.28 - 21.24.02.158.mp4805307634</linkclipref>
								</link>
								<link>
									<linkclipref>ArmA 3 2020.11.28 - 21.24.02.158.mp4536872179</linkclipref>
								</link>
								<link>
									<linkclipref>ArmA 3 2020.11.28 - 21.24.02.158.mp45368721791</linkclipref>
								</link>
								<link>
									<linkclipref>ArmA 3 2020.11.28 - 21.24.02.158.mp4536872180</linkclipref>
								</link>
								<link>
									<linkclipref>ArmA 3 2020.11.28 - 21.24.02.158.mp45368721801</linkclipref>
								</link>
							</clipitem>
							<clipitem id="ArmA 3 2020.11.28 - 21.24.28.159.mp45368721831">
								<name>ArmA 3 2020.11.28 - 21.24.28.159.mp4</name>
								<duration>114</duration>
								<rate>
									<ntsc>TRUE</ntsc>
									<timebase>24</timebase>
								</rate>
								<in>0</in>
								<out>114</out>
								<start>16852</start>
								<end>16966</end>
								<enabled>FALSE</enabled>
								<masterclipid>ArmA 3 2020.11.28 - 21.24.28.159.mp4</masterclipid>
								<logginginfo>
									<scene />
									<shottake />
									<lognote />
									<good>FALSE</good>
								</logginginfo>
								<labels>
									<label2 />
								</labels>
								<comments>
									<mastercomment1 />
									<mastercomment2 />
									<mastercomment3 />
									<mastercomment4 />
								</comments>
								<file id="ArmA 3 2020.11.28 - 21.24.28.159" />
								<filter>
									<effect>
										<name>Audio Levels</name>
										<effectid>audiolevels</effectid>
										<effectcategory>audiolevels</effectcategory>
										<effecttype>audiolevels</effecttype>
										<mediatype>audio</mediatype>
										<parameter>
											<name>Level</name>
											<parameterid>level</parameterid>
											<valuemin>0</valuemin>
											<valuemax>3,98109</valuemax>
											<value>1</value>
										</parameter>
									</effect>
								</filter>
								<filter>
									<effect>
										<name>Audio Pan</name>
										<effectid>audiopan</effectid>
										<effectcategory>audiopan</effectcategory>
										<effecttype>audiopan</effecttype>
										<mediatype>audio</mediatype>
										<parameter>
											<name>Pan</name>
											<parameterid>pan</parameterid>
											<valuemin>-1</valuemin>
											<valuemax>1</valuemax>
											<value>1</value>
										</parameter>
									</effect>
								</filter>
								<sourcetrack>
									<mediatype>audio</mediatype>
									<trackindex>2</trackindex>
								</sourcetrack>
								<link>
									<linkclipref>ArmA 3 2020.11.28 - 21.24.28.159.mp4805307637</linkclipref>
								</link>
								<link>
									<linkclipref>ArmA 3 2020.11.28 - 21.24.28.159.mp4536872182</linkclipref>
								</link>
								<link>
									<linkclipref>ArmA 3 2020.11.28 - 21.24.28.159.mp45368721821</linkclipref>
								</link>
								<link>
									<linkclipref>ArmA 3 2020.11.28 - 21.24.28.159.mp4536872183</linkclipref>
								</link>
								<link>
									<linkclipref>ArmA 3 2020.11.28 - 21.24.28.159.mp45368721831</linkclipref>
								</link>
							</clipitem>
							<clipitem id="ArmA 3 2020.11.28 - 21.24.48.160.mp45368721861">
								<name>ArmA 3 2020.11.28 - 21.24.48.160.mp4</name>
								<duration>2003</duration>
								<rate>
									<ntsc>TRUE</ntsc>
									<timebase>24</timebase>
								</rate>
								<in>0</in>
								<out>2003</out>
								<start>16967</start>
								<end>18970</end>
								<enabled>FALSE</enabled>
								<masterclipid>ArmA 3 2020.11.28 - 21.24.48.160.mp4</masterclipid>
								<logginginfo>
									<scene />
									<shottake />
									<lognote />
									<good>FALSE</good>
								</logginginfo>
								<labels>
									<label2 />
								</labels>
								<comments>
									<mastercomment1 />
									<mastercomment2 />
									<mastercomment3 />
									<mastercomment4 />
								</comments>
								<file id="ArmA 3 2020.11.28 - 21.24.48.160" />
								<filter>
									<effect>
										<name>Audio Levels</name>
										<effectid>audiolevels</effectid>
										<effectcategory>audiolevels</effectcategory>
										<effecttype>audiolevels</effecttype>
										<mediatype>audio</mediatype>
										<parameter>
											<name>Level</name>
											<parameterid>level</parameterid>
											<valuemin>0</valuemin>
											<valuemax>3,98109</valuemax>
											<value>1</value>
										</parameter>
									</effect>
								</filter>
								<filter>
									<effect>
										<name>Audio Pan</name>
										<effectid>audiopan</effectid>
										<effectcategory>audiopan</effectcategory>
										<effecttype>audiopan</effecttype>
										<mediatype>audio</mediatype>
										<parameter>
											<name>Pan</name>
											<parameterid>pan</parameterid>
											<valuemin>-1</valuemin>
											<valuemax>1</valuemax>
											<value>1</value>
										</parameter>
									</effect>
								</filter>
								<sourcetrack>
									<mediatype>audio</mediatype>
									<trackindex>2</trackindex>
								</sourcetrack>
								<link>
									<linkclipref>ArmA 3 2020.11.28 - 21.24.48.160.mp4805307640</linkclipref>
								</link>
								<link>
									<linkclipref>ArmA 3 2020.11.28 - 21.24.48.160.mp4536872185</linkclipref>
								</link>
								<link>
									<linkclipref>ArmA 3 2020.11.28 - 21.24.48.160.mp45368721851</linkclipref>
								</link>
								<link>
									<linkclipref>ArmA 3 2020.11.28 - 21.24.48.160.mp4536872186</linkclipref>
								</link>
								<link>
									<linkclipref>ArmA 3 2020.11.28 - 21.24.48.160.mp45368721861</linkclipref>
								</link>
							</clipitem>
							<clipitem id="ArmA 3 2020.11.28 - 21.26.19.161.mp45368721891">
								<name>ArmA 3 2020.11.28 - 21.26.19.161.mp4</name>
								<duration>2498</duration>
								<rate>
									<ntsc>TRUE</ntsc>
									<timebase>24</timebase>
								</rate>
								<in>0</in>
								<out>2498</out>
								<start>18971</start>
								<end>21469</end>
								<enabled>FALSE</enabled>
								<masterclipid>ArmA 3 2020.11.28 - 21.26.19.161.mp4</masterclipid>
								<logginginfo>
									<scene />
									<shottake />
									<lognote />
									<good>FALSE</good>
								</logginginfo>
								<labels>
									<label2 />
								</labels>
								<comments>
									<mastercomment1 />
									<mastercomment2 />
									<mastercomment3 />
									<mastercomment4 />
								</comments>
								<file id="ArmA 3 2020.11.28 - 21.26.19.161" />
								<filter>
									<effect>
										<name>Audio Levels</name>
										<effectid>audiolevels</effectid>
										<effectcategory>audiolevels</effectcategory>
										<effecttype>audiolevels</effecttype>
										<mediatype>audio</mediatype>
										<parameter>
											<name>Level</name>
											<parameterid>level</parameterid>
											<valuemin>0</valuemin>
											<valuemax>3,98109</valuemax>
											<value>1</value>
										</parameter>
									</effect>
								</filter>
								<filter>
									<effect>
										<name>Audio Pan</name>
										<effectid>audiopan</effectid>
										<effectcategory>audiopan</effectcategory>
										<effecttype>audiopan</effecttype>
										<mediatype>audio</mediatype>
										<parameter>
											<name>Pan</name>
											<parameterid>pan</parameterid>
											<valuemin>-1</valuemin>
											<valuemax>1</valuemax>
											<value>1</value>
										</parameter>
									</effect>
								</filter>
								<sourcetrack>
									<mediatype>audio</mediatype>
									<trackindex>2</trackindex>
								</sourcetrack>
								<link>
									<linkclipref>ArmA 3 2020.11.28 - 21.26.19.161.mp4805307643</linkclipref>
								</link>
								<link>
									<linkclipref>ArmA 3 2020.11.28 - 21.26.19.161.mp4536872188</linkclipref>
								</link>
								<link>
									<linkclipref>ArmA 3 2020.11.28 - 21.26.19.161.mp45368721881</linkclipref>
								</link>
								<link>
									<linkclipref>ArmA 3 2020.11.28 - 21.26.19.161.mp4536872189</linkclipref>
								</link>
								<link>
									<linkclipref>ArmA 3 2020.11.28 - 21.26.19.161.mp45368721891</linkclipref>
								</link>
							</clipitem>
							<clipitem id="ArmA 3 2020.11.28 - 21.28.04.162.mp45368721921">
								<name>ArmA 3 2020.11.28 - 21.28.04.162.mp4</name>
								<duration>1150</duration>
								<rate>
									<ntsc>TRUE</ntsc>
									<timebase>24</timebase>
								</rate>
								<in>0</in>
								<out>1150</out>
								<start>21470</start>
								<end>22620</end>
								<enabled>FALSE</enabled>
								<masterclipid>ArmA 3 2020.11.28 - 21.28.04.162.mp4</masterclipid>
								<logginginfo>
									<scene />
									<shottake />
									<lognote />
									<good>FALSE</good>
								</logginginfo>
								<labels>
									<label2 />
								</labels>
								<comments>
									<mastercomment1 />
									<mastercomment2 />
									<mastercomment3 />
									<mastercomment4 />
								</comments>
								<file id="ArmA 3 2020.11.28 - 21.28.04.162" />
								<filter>
									<effect>
										<name>Audio Levels</name>
										<effectid>audiolevels</effectid>
										<effectcategory>audiolevels</effectcategory>
										<effecttype>audiolevels</effecttype>
										<mediatype>audio</mediatype>
										<parameter>
											<name>Level</name>
											<parameterid>level</parameterid>
											<valuemin>0</valuemin>
											<valuemax>3,98109</valuemax>
											<value>1</value>
										</parameter>
									</effect>
								</filter>
								<filter>
									<effect>
										<name>Audio Pan</name>
										<effectid>audiopan</effectid>
										<effectcategory>audiopan</effectcategory>
										<effecttype>audiopan</effecttype>
										<mediatype>audio</mediatype>
										<parameter>
											<name>Pan</name>
											<parameterid>pan</parameterid>
											<valuemin>-1</valuemin>
											<valuemax>1</valuemax>
											<value>1</value>
										</parameter>
									</effect>
								</filter>
								<sourcetrack>
									<mediatype>audio</mediatype>
									<trackindex>2</trackindex>
								</sourcetrack>
								<link>
									<linkclipref>ArmA 3 2020.11.28 - 21.28.04.162.mp4805307646</linkclipref>
								</link>
								<link>
									<linkclipref>ArmA 3 2020.11.28 - 21.28.04.162.mp4536872191</linkclipref>
								</link>
								<link>
									<linkclipref>ArmA 3 2020.11.28 - 21.28.04.162.mp45368721911</linkclipref>
								</link>
								<link>
									<linkclipref>ArmA 3 2020.11.28 - 21.28.04.162.mp4536872192</linkclipref>
								</link>
								<link>
									<linkclipref>ArmA 3 2020.11.28 - 21.28.04.162.mp45368721921</linkclipref>
								</link>
							</clipitem>
							<clipitem id="ArmA 3 2020.11.28 - 21.29.07.163.mp45368721951">
								<name>ArmA 3 2020.11.28 - 21.29.07.163.mp4</name>
								<duration>407</duration>
								<rate>
									<ntsc>TRUE</ntsc>
									<timebase>24</timebase>
								</rate>
								<in>0</in>
								<out>407</out>
								<start>22621</start>
								<end>23028</end>
								<enabled>FALSE</enabled>
								<masterclipid>ArmA 3 2020.11.28 - 21.29.07.163.mp4</masterclipid>
								<logginginfo>
									<scene />
									<shottake />
									<lognote />
									<good>FALSE</good>
								</logginginfo>
								<labels>
									<label2 />
								</labels>
								<comments>
									<mastercomment1 />
									<mastercomment2 />
									<mastercomment3 />
									<mastercomment4 />
								</comments>
								<file id="ArmA 3 2020.11.28 - 21.29.07.163" />
								<filter>
									<effect>
										<name>Audio Levels</name>
										<effectid>audiolevels</effectid>
										<effectcategory>audiolevels</effectcategory>
										<effecttype>audiolevels</effecttype>
										<mediatype>audio</mediatype>
										<parameter>
											<name>Level</name>
											<parameterid>level</parameterid>
											<valuemin>0</valuemin>
											<valuemax>3,98109</valuemax>
											<value>1</value>
										</parameter>
									</effect>
								</filter>
								<filter>
									<effect>
										<name>Audio Pan</name>
										<effectid>audiopan</effectid>
										<effectcategory>audiopan</effectcategory>
										<effecttype>audiopan</effecttype>
										<mediatype>audio</mediatype>
										<parameter>
											<name>Pan</name>
											<parameterid>pan</parameterid>
											<valuemin>-1</valuemin>
											<valuemax>1</valuemax>
											<value>1</value>
										</parameter>
									</effect>
								</filter>
								<sourcetrack>
									<mediatype>audio</mediatype>
									<trackindex>2</trackindex>
								</sourcetrack>
								<link>
									<linkclipref>ArmA 3 2020.11.28 - 21.29.07.163.mp4805307649</linkclipref>
								</link>
								<link>
									<linkclipref>ArmA 3 2020.11.28 - 21.29.07.163.mp4536872194</linkclipref>
								</link>
								<link>
									<linkclipref>ArmA 3 2020.11.28 - 21.29.07.163.mp45368721941</linkclipref>
								</link>
								<link>
									<linkclipref>ArmA 3 2020.11.28 - 21.29.07.163.mp4536872195</linkclipref>
								</link>
								<link>
									<linkclipref>ArmA 3 2020.11.28 - 21.29.07.163.mp45368721951</linkclipref>
								</link>
							</clipitem>
							<clipitem id="ArmA 3 2020.11.28 - 21.29.46.164.mp45368721981">
								<name>ArmA 3 2020.11.28 - 21.29.46.164.mp4</name>
								<duration>1238</duration>
								<rate>
									<ntsc>TRUE</ntsc>
									<timebase>24</timebase>
								</rate>
								<in>0</in>
								<out>1238</out>
								<start>23029</start>
								<end>24267</end>
								<enabled>FALSE</enabled>
								<masterclipid>ArmA 3 2020.11.28 - 21.29.46.164.mp4</masterclipid>
								<logginginfo>
									<scene />
									<shottake />
									<lognote />
									<good>FALSE</good>
								</logginginfo>
								<labels>
									<label2 />
								</labels>
								<comments>
									<mastercomment1 />
									<mastercomment2 />
									<mastercomment3 />
									<mastercomment4 />
								</comments>
								<file id="ArmA 3 2020.11.28 - 21.29.46.164" />
								<filter>
									<effect>
										<name>Audio Levels</name>
										<effectid>audiolevels</effectid>
										<effectcategory>audiolevels</effectcategory>
										<effecttype>audiolevels</effecttype>
										<mediatype>audio</mediatype>
										<parameter>
											<name>Level</name>
											<parameterid>level</parameterid>
											<valuemin>0</valuemin>
											<valuemax>3,98109</valuemax>
											<value>1</value>
										</parameter>
									</effect>
								</filter>
								<filter>
									<effect>
										<name>Audio Pan</name>
										<effectid>audiopan</effectid>
										<effectcategory>audiopan</effectcategory>
										<effecttype>audiopan</effecttype>
										<mediatype>audio</mediatype>
										<parameter>
											<name>Pan</name>
											<parameterid>pan</parameterid>
											<valuemin>-1</valuemin>
											<valuemax>1</valuemax>
											<value>1</value>
										</parameter>
									</effect>
								</filter>
								<sourcetrack>
									<mediatype>audio</mediatype>
									<trackindex>2</trackindex>
								</sourcetrack>
								<link>
									<linkclipref>ArmA 3 2020.11.28 - 21.29.46.164.mp4805307652</linkclipref>
								</link>
								<link>
									<linkclipref>ArmA 3 2020.11.28 - 21.29.46.164.mp4536872197</linkclipref>
								</link>
								<link>
									<linkclipref>ArmA 3 2020.11.28 - 21.29.46.164.mp45368721971</linkclipref>
								</link>
								<link>
									<linkclipref>ArmA 3 2020.11.28 - 21.29.46.164.mp4536872198</linkclipref>
								</link>
								<link>
									<linkclipref>ArmA 3 2020.11.28 - 21.29.46.164.mp45368721981</linkclipref>
								</link>
							</clipitem>
							<clipitem id="ArmA 3 2020.11.28 - 21.31.14.165.mp45368722011">
								<name>ArmA 3 2020.11.28 - 21.31.14.165.mp4</name>
								<duration>759</duration>
								<rate>
									<ntsc>TRUE</ntsc>
									<timebase>24</timebase>
								</rate>
								<in>0</in>
								<out>759</out>
								<start>24268</start>
								<end>25027</end>
								<enabled>FALSE</enabled>
								<masterclipid>ArmA 3 2020.11.28 - 21.31.14.165.mp4</masterclipid>
								<logginginfo>
									<scene />
									<shottake />
									<lognote />
									<good>FALSE</good>
								</logginginfo>
								<labels>
									<label2 />
								</labels>
								<comments>
									<mastercomment1 />
									<mastercomment2 />
									<mastercomment3 />
									<mastercomment4 />
								</comments>
								<file id="ArmA 3 2020.11.28 - 21.31.14.165" />
								<filter>
									<effect>
										<name>Audio Levels</name>
										<effectid>audiolevels</effectid>
										<effectcategory>audiolevels</effectcategory>
										<effecttype>audiolevels</effecttype>
										<mediatype>audio</mediatype>
										<parameter>
											<name>Level</name>
											<parameterid>level</parameterid>
											<valuemin>0</valuemin>
											<valuemax>3,98109</valuemax>
											<value>1</value>
										</parameter>
									</effect>
								</filter>
								<filter>
									<effect>
										<name>Audio Pan</name>
										<effectid>audiopan</effectid>
										<effectcategory>audiopan</effectcategory>
										<effecttype>audiopan</effecttype>
										<mediatype>audio</mediatype>
										<parameter>
											<name>Pan</name>
											<parameterid>pan</parameterid>
											<valuemin>-1</valuemin>
											<valuemax>1</valuemax>
											<value>1</value>
										</parameter>
									</effect>
								</filter>
								<sourcetrack>
									<mediatype>audio</mediatype>
									<trackindex>2</trackindex>
								</sourcetrack>
								<link>
									<linkclipref>ArmA 3 2020.11.28 - 21.31.14.165.mp4805307655</linkclipref>
								</link>
								<link>
									<linkclipref>ArmA 3 2020.11.28 - 21.31.14.165.mp4536872200</linkclipref>
								</link>
								<link>
									<linkclipref>ArmA 3 2020.11.28 - 21.31.14.165.mp45368722001</linkclipref>
								</link>
								<link>
									<linkclipref>ArmA 3 2020.11.28 - 21.31.14.165.mp4536872201</linkclipref>
								</link>
								<link>
									<linkclipref>ArmA 3 2020.11.28 - 21.31.14.165.mp45368722011</linkclipref>
								</link>
							</clipitem>
							<clipitem id="ArmA 3 2020.11.28 - 21.31.58.166.mp45368722041">
								<name>ArmA 3 2020.11.28 - 21.31.58.166.mp4</name>
								<duration>710</duration>
								<rate>
									<ntsc>TRUE</ntsc>
									<timebase>24</timebase>
								</rate>
								<in>0</in>
								<out>710</out>
								<start>25028</start>
								<end>25738</end>
								<enabled>FALSE</enabled>
								<masterclipid>ArmA 3 2020.11.28 - 21.31.58.166.mp4</masterclipid>
								<logginginfo>
									<scene />
									<shottake />
									<lognote />
									<good>FALSE</good>
								</logginginfo>
								<labels>
									<label2 />
								</labels>
								<comments>
									<mastercomment1 />
									<mastercomment2 />
									<mastercomment3 />
									<mastercomment4 />
								</comments>
								<file id="ArmA 3 2020.11.28 - 21.31.58.166" />
								<filter>
									<effect>
										<name>Audio Levels</name>
										<effectid>audiolevels</effectid>
										<effectcategory>audiolevels</effectcategory>
										<effecttype>audiolevels</effecttype>
										<mediatype>audio</mediatype>
										<parameter>
											<name>Level</name>
											<parameterid>level</parameterid>
											<valuemin>0</valuemin>
											<valuemax>3,98109</valuemax>
											<value>1</value>
										</parameter>
									</effect>
								</filter>
								<filter>
									<effect>
										<name>Audio Pan</name>
										<effectid>audiopan</effectid>
										<effectcategory>audiopan</effectcategory>
										<effecttype>audiopan</effecttype>
										<mediatype>audio</mediatype>
										<parameter>
											<name>Pan</name>
											<parameterid>pan</parameterid>
											<valuemin>-1</valuemin>
											<valuemax>1</valuemax>
											<value>1</value>
										</parameter>
									</effect>
								</filter>
								<sourcetrack>
									<mediatype>audio</mediatype>
									<trackindex>2</trackindex>
								</sourcetrack>
								<link>
									<linkclipref>ArmA 3 2020.11.28 - 21.31.58.166.mp4805307658</linkclipref>
								</link>
								<link>
									<linkclipref>ArmA 3 2020.11.28 - 21.31.58.166.mp4536872203</linkclipref>
								</link>
								<link>
									<linkclipref>ArmA 3 2020.11.28 - 21.31.58.166.mp45368722031</linkclipref>
								</link>
								<link>
									<linkclipref>ArmA 3 2020.11.28 - 21.31.58.166.mp4536872204</linkclipref>
								</link>
								<link>
									<linkclipref>ArmA 3 2020.11.28 - 21.31.58.166.mp45368722041</linkclipref>
								</link>
							</clipitem>
							<clipitem id="ArmA 3 2020.11.28 - 21.32.33.167.mp45368722071">
								<name>ArmA 3 2020.11.28 - 21.32.33.167.mp4</name>
								<duration>1026</duration>
								<rate>
									<ntsc>TRUE</ntsc>
									<timebase>24</timebase>
								</rate>
								<in>0</in>
								<out>1026</out>
								<start>25739</start>
								<end>26765</end>
								<enabled>FALSE</enabled>
								<masterclipid>ArmA 3 2020.11.28 - 21.32.33.167.mp4</masterclipid>
								<logginginfo>
									<scene />
									<shottake />
									<lognote />
									<good>FALSE</good>
								</logginginfo>
								<labels>
									<label2 />
								</labels>
								<comments>
									<mastercomment1 />
									<mastercomment2 />
									<mastercomment3 />
									<mastercomment4 />
								</comments>
								<file id="ArmA 3 2020.11.28 - 21.32.33.167" />
								<filter>
									<effect>
										<name>Audio Levels</name>
										<effectid>audiolevels</effectid>
										<effectcategory>audiolevels</effectcategory>
										<effecttype>audiolevels</effecttype>
										<mediatype>audio</mediatype>
										<parameter>
											<name>Level</name>
											<parameterid>level</parameterid>
											<valuemin>0</valuemin>
											<valuemax>3,98109</valuemax>
											<value>1</value>
										</parameter>
									</effect>
								</filter>
								<filter>
									<effect>
										<name>Audio Pan</name>
										<effectid>audiopan</effectid>
										<effectcategory>audiopan</effectcategory>
										<effecttype>audiopan</effecttype>
										<mediatype>audio</mediatype>
										<parameter>
											<name>Pan</name>
											<parameterid>pan</parameterid>
											<valuemin>-1</valuemin>
											<valuemax>1</valuemax>
											<value>1</value>
										</parameter>
									</effect>
								</filter>
								<sourcetrack>
									<mediatype>audio</mediatype>
									<trackindex>2</trackindex>
								</sourcetrack>
								<link>
									<linkclipref>ArmA 3 2020.11.28 - 21.32.33.167.mp4805307661</linkclipref>
								</link>
								<link>
									<linkclipref>ArmA 3 2020.11.28 - 21.32.33.167.mp4536872206</linkclipref>
								</link>
								<link>
									<linkclipref>ArmA 3 2020.11.28 - 21.32.33.167.mp45368722061</linkclipref>
								</link>
								<link>
									<linkclipref>ArmA 3 2020.11.28 - 21.32.33.167.mp4536872207</linkclipref>
								</link>
								<link>
									<linkclipref>ArmA 3 2020.11.28 - 21.32.33.167.mp45368722071</linkclipref>
								</link>
							</clipitem>
						</track>
						<track>
							<clipitem id="ArmA 3 2020.11.28 - 21.09.20.144.mp4536872137">
								<name>ArmA 3 2020.11.28 - 21.09.20.144.mp4</name>
								<duration>593</duration>
								<rate>
									<ntsc>TRUE</ntsc>
									<timebase>24</timebase>
								</rate>
								<in>0</in>
								<out>593</out>
								<start>0</start>
								<end>593</end>
								<enabled>FALSE</enabled>
								<masterclipid>ArmA 3 2020.11.28 - 21.09.20.144.mp4</masterclipid>
								<logginginfo>
									<scene />
									<shottake />
									<lognote />
									<good>FALSE</good>
								</logginginfo>
								<labels>
									<label2 />
								</labels>
								<comments>
									<mastercomment1 />
									<mastercomment2 />
									<mastercomment3 />
									<mastercomment4 />
								</comments>
								<file id="ArmA 3 2020.11.28 - 21.09.20.144" />
								<filter>
									<effect>
										<name>Audio Levels</name>
										<effectid>audiolevels</effectid>
										<effectcategory>audiolevels</effectcategory>
										<effecttype>audiolevels</effecttype>
										<mediatype>audio</mediatype>
										<parameter>
											<name>Level</name>
											<parameterid>level</parameterid>
											<valuemin>0</valuemin>
											<valuemax>3,98109</valuemax>
											<value>1</value>
										</parameter>
									</effect>
								</filter>
								<filter>
									<effect>
										<name>Audio Pan</name>
										<effectid>audiopan</effectid>
										<effectcategory>audiopan</effectcategory>
										<effecttype>audiopan</effecttype>
										<mediatype>audio</mediatype>
										<parameter>
											<name>Pan</name>
											<parameterid>pan</parameterid>
											<valuemin>-1</valuemin>
											<valuemax>1</valuemax>
											<value>-1</value>
										</parameter>
									</effect>
								</filter>
								<sourcetrack>
									<mediatype>audio</mediatype>
									<trackindex>1</trackindex>
								</sourcetrack>
								<link>
									<linkclipref>ArmA 3 2020.11.28 - 21.09.20.144.mp4805307592</linkclipref>
								</link>
								<link>
									<linkclipref>ArmA 3 2020.11.28 - 21.09.20.144.mp4536872137</linkclipref>
								</link>
								<link>
									<linkclipref>ArmA 3 2020.11.28 - 21.09.20.144.mp45368721371</linkclipref>
								</link>
								<link>
									<linkclipref>ArmA 3 2020.11.28 - 21.09.20.144.mp4536872138</linkclipref>
								</link>
								<link>
									<linkclipref>ArmA 3 2020.11.28 - 21.09.20.144.mp45368721381</linkclipref>
								</link>
							</clipitem>
							<clipitem id="ArmA 3 2020.11.28 - 21.10.25.145.DVR.mp4536872140">
								<name>ArmA 3 2020.11.28 - 21.10.25.145.DVR.mp4</name>
								<duration>7195</duration>
								<rate>
									<ntsc>TRUE</ntsc>
									<timebase>24</timebase>
								</rate>
								<in>0</in>
								<out>7195</out>
								<start>594</start>
								<end>7789</end>
								<enabled>FALSE</enabled>
								<masterclipid>ArmA 3 2020.11.28 - 21.10.25.145.DVR.mp4</masterclipid>
								<logginginfo>
									<scene />
									<shottake />
									<lognote />
									<good>FALSE</good>
								</logginginfo>
								<labels>
									<label2 />
								</labels>
								<comments>
									<mastercomment1 />
									<mastercomment2 />
									<mastercomment3 />
									<mastercomment4 />
								</comments>
								<file id="ArmA 3 2020.11.28 - 21.10.25.145.DVR" />
								<filter>
									<effect>
										<name>Audio Levels</name>
										<effectid>audiolevels</effectid>
										<effectcategory>audiolevels</effectcategory>
										<effecttype>audiolevels</effecttype>
										<mediatype>audio</mediatype>
										<parameter>
											<name>Level</name>
											<parameterid>level</parameterid>
											<valuemin>0</valuemin>
											<valuemax>3,98109</valuemax>
											<value>1</value>
										</parameter>
									</effect>
								</filter>
								<filter>
									<effect>
										<name>Audio Pan</name>
										<effectid>audiopan</effectid>
										<effectcategory>audiopan</effectcategory>
										<effecttype>audiopan</effecttype>
										<mediatype>audio</mediatype>
										<parameter>
											<name>Pan</name>
											<parameterid>pan</parameterid>
											<valuemin>-1</valuemin>
											<valuemax>1</valuemax>
											<value>-1</value>
										</parameter>
									</effect>
								</filter>
								<sourcetrack>
									<mediatype>audio</mediatype>
									<trackindex>1</trackindex>
								</sourcetrack>
								<link>
									<linkclipref>ArmA 3 2020.11.28 - 21.10.25.145.DVR.mp4805307595</linkclipref>
								</link>
								<link>
									<linkclipref>ArmA 3 2020.11.28 - 21.10.25.145.DVR.mp4536872140</linkclipref>
								</link>
								<link>
									<linkclipref>ArmA 3 2020.11.28 - 21.10.25.145.DVR.mp45368721401</linkclipref>
								</link>
								<link>
									<linkclipref>ArmA 3 2020.11.28 - 21.10.25.145.DVR.mp4536872141</linkclipref>
								</link>
								<link>
									<linkclipref>ArmA 3 2020.11.28 - 21.10.25.145.DVR.mp45368721411</linkclipref>
								</link>
							</clipitem>
							<clipitem id="ArmA 3 2020.11.28 - 21.10.28.146.mp4536872143">
								<name>ArmA 3 2020.11.28 - 21.10.28.146.mp4</name>
								<duration>226</duration>
								<rate>
									<ntsc>TRUE</ntsc>
									<timebase>24</timebase>
								</rate>
								<in>0</in>
								<out>226</out>
								<start>7790</start>
								<end>8016</end>
								<enabled>FALSE</enabled>
								<masterclipid>ArmA 3 2020.11.28 - 21.10.28.146.mp4</masterclipid>
								<logginginfo>
									<scene />
									<shottake />
									<lognote />
									<good>FALSE</good>
								</logginginfo>
								<labels>
									<label2 />
								</labels>
								<comments>
									<mastercomment1 />
									<mastercomment2 />
									<mastercomment3 />
									<mastercomment4 />
								</comments>
								<file id="ArmA 3 2020.11.28 - 21.10.28.146" />
								<filter>
									<effect>
										<name>Audio Levels</name>
										<effectid>audiolevels</effectid>
										<effectcategory>audiolevels</effectcategory>
										<effecttype>audiolevels</effecttype>
										<mediatype>audio</mediatype>
										<parameter>
											<name>Level</name>
											<parameterid>level</parameterid>
											<valuemin>0</valuemin>
											<valuemax>3,98109</valuemax>
											<value>1</value>
										</parameter>
									</effect>
								</filter>
								<filter>
									<effect>
										<name>Audio Pan</name>
										<effectid>audiopan</effectid>
										<effectcategory>audiopan</effectcategory>
										<effecttype>audiopan</effecttype>
										<mediatype>audio</mediatype>
										<parameter>
											<name>Pan</name>
											<parameterid>pan</parameterid>
											<valuemin>-1</valuemin>
											<valuemax>1</valuemax>
											<value>-1</value>
										</parameter>
									</effect>
								</filter>
								<sourcetrack>
									<mediatype>audio</mediatype>
									<trackindex>1</trackindex>
								</sourcetrack>
								<link>
									<linkclipref>ArmA 3 2020.11.28 - 21.10.28.146.mp4805307598</linkclipref>
								</link>
								<link>
									<linkclipref>ArmA 3 2020.11.28 - 21.10.28.146.mp4536872143</linkclipref>
								</link>
								<link>
									<linkclipref>ArmA 3 2020.11.28 - 21.10.28.146.mp45368721431</linkclipref>
								</link>
								<link>
									<linkclipref>ArmA 3 2020.11.28 - 21.10.28.146.mp4536872144</linkclipref>
								</link>
								<link>
									<linkclipref>ArmA 3 2020.11.28 - 21.10.28.146.mp45368721441</linkclipref>
								</link>
							</clipitem>
							<clipitem id="ArmA 3 2020.11.28 - 21.10.39.147.mp4536872146">
								<name>ArmA 3 2020.11.28 - 21.10.39.147.mp4</name>
								<duration>1154</duration>
								<rate>
									<ntsc>TRUE</ntsc>
									<timebase>24</timebase>
								</rate>
								<in>0</in>
								<out>1154</out>
								<start>8017</start>
								<end>9171</end>
								<enabled>FALSE</enabled>
								<masterclipid>ArmA 3 2020.11.28 - 21.10.39.147.mp4</masterclipid>
								<logginginfo>
									<scene />
									<shottake />
									<lognote />
									<good>FALSE</good>
								</logginginfo>
								<labels>
									<label2 />
								</labels>
								<comments>
									<mastercomment1 />
									<mastercomment2 />
									<mastercomment3 />
									<mastercomment4 />
								</comments>
								<file id="ArmA 3 2020.11.28 - 21.10.39.147" />
								<filter>
									<effect>
										<name>Audio Levels</name>
										<effectid>audiolevels</effectid>
										<effectcategory>audiolevels</effectcategory>
										<effecttype>audiolevels</effecttype>
										<mediatype>audio</mediatype>
										<parameter>
											<name>Level</name>
											<parameterid>level</parameterid>
											<valuemin>0</valuemin>
											<valuemax>3,98109</valuemax>
											<value>1</value>
										</parameter>
									</effect>
								</filter>
								<filter>
									<effect>
										<name>Audio Pan</name>
										<effectid>audiopan</effectid>
										<effectcategory>audiopan</effectcategory>
										<effecttype>audiopan</effecttype>
										<mediatype>audio</mediatype>
										<parameter>
											<name>Pan</name>
											<parameterid>pan</parameterid>
											<valuemin>-1</valuemin>
											<valuemax>1</valuemax>
											<value>-1</value>
										</parameter>
									</effect>
								</filter>
								<sourcetrack>
									<mediatype>audio</mediatype>
									<trackindex>1</trackindex>
								</sourcetrack>
								<link>
									<linkclipref>ArmA 3 2020.11.28 - 21.10.39.147.mp4805307601</linkclipref>
								</link>
								<link>
									<linkclipref>ArmA 3 2020.11.28 - 21.10.39.147.mp4536872146</linkclipref>
								</link>
								<link>
									<linkclipref>ArmA 3 2020.11.28 - 21.10.39.147.mp45368721461</linkclipref>
								</link>
								<link>
									<linkclipref>ArmA 3 2020.11.28 - 21.10.39.147.mp4536872147</linkclipref>
								</link>
								<link>
									<linkclipref>ArmA 3 2020.11.28 - 21.10.39.147.mp45368721471</linkclipref>
								</link>
							</clipitem>
							<clipitem id="ArmA 3 2020.11.28 - 21.11.34.148.mp4536872149">
								<name>ArmA 3 2020.11.28 - 21.11.34.148.mp4</name>
								<duration>1118</duration>
								<rate>
									<ntsc>TRUE</ntsc>
									<timebase>24</timebase>
								</rate>
								<in>0</in>
								<out>1118</out>
								<start>9172</start>
								<end>10290</end>
								<enabled>FALSE</enabled>
								<masterclipid>ArmA 3 2020.11.28 - 21.11.34.148.mp4</masterclipid>
								<logginginfo>
									<scene />
									<shottake />
									<lognote />
									<good>FALSE</good>
								</logginginfo>
								<labels>
									<label2 />
								</labels>
								<comments>
									<mastercomment1 />
									<mastercomment2 />
									<mastercomment3 />
									<mastercomment4 />
								</comments>
								<file id="ArmA 3 2020.11.28 - 21.11.34.148" />
								<filter>
									<effect>
										<name>Audio Levels</name>
										<effectid>audiolevels</effectid>
										<effectcategory>audiolevels</effectcategory>
										<effecttype>audiolevels</effecttype>
										<mediatype>audio</mediatype>
										<parameter>
											<name>Level</name>
											<parameterid>level</parameterid>
											<valuemin>0</valuemin>
											<valuemax>3,98109</valuemax>
											<value>1</value>
										</parameter>
									</effect>
								</filter>
								<filter>
									<effect>
										<name>Audio Pan</name>
										<effectid>audiopan</effectid>
										<effectcategory>audiopan</effectcategory>
										<effecttype>audiopan</effecttype>
										<mediatype>audio</mediatype>
										<parameter>
											<name>Pan</name>
											<parameterid>pan</parameterid>
											<valuemin>-1</valuemin>
											<valuemax>1</valuemax>
											<value>-1</value>
										</parameter>
									</effect>
								</filter>
								<sourcetrack>
									<mediatype>audio</mediatype>
									<trackindex>1</trackindex>
								</sourcetrack>
								<link>
									<linkclipref>ArmA 3 2020.11.28 - 21.11.34.148.mp4805307604</linkclipref>
								</link>
								<link>
									<linkclipref>ArmA 3 2020.11.28 - 21.11.34.148.mp4536872149</linkclipref>
								</link>
								<link>
									<linkclipref>ArmA 3 2020.11.28 - 21.11.34.148.mp45368721491</linkclipref>
								</link>
								<link>
									<linkclipref>ArmA 3 2020.11.28 - 21.11.34.148.mp4536872150</linkclipref>
								</link>
								<link>
									<linkclipref>ArmA 3 2020.11.28 - 21.11.34.148.mp45368721501</linkclipref>
								</link>
							</clipitem>
							<clipitem id="ArmA 3 2020.11.28 - 21.12.26.149.mp4536872152">
								<name>ArmA 3 2020.11.28 - 21.12.26.149.mp4</name>
								<duration>533</duration>
								<rate>
									<ntsc>TRUE</ntsc>
									<timebase>24</timebase>
								</rate>
								<in>0</in>
								<out>533</out>
								<start>10290</start>
								<end>10823</end>
								<enabled>FALSE</enabled>
								<masterclipid>ArmA 3 2020.11.28 - 21.12.26.149.mp4</masterclipid>
								<logginginfo>
									<scene />
									<shottake />
									<lognote />
									<good>FALSE</good>
								</logginginfo>
								<labels>
									<label2 />
								</labels>
								<comments>
									<mastercomment1 />
									<mastercomment2 />
									<mastercomment3 />
									<mastercomment4 />
								</comments>
								<file id="ArmA 3 2020.11.28 - 21.12.26.149" />
								<filter>
									<effect>
										<name>Audio Levels</name>
										<effectid>audiolevels</effectid>
										<effectcategory>audiolevels</effectcategory>
										<effecttype>audiolevels</effecttype>
										<mediatype>audio</mediatype>
										<parameter>
											<name>Level</name>
											<parameterid>level</parameterid>
											<valuemin>0</valuemin>
											<valuemax>3,98109</valuemax>
											<value>1</value>
										</parameter>
									</effect>
								</filter>
								<filter>
									<effect>
										<name>Audio Pan</name>
										<effectid>audiopan</effectid>
										<effectcategory>audiopan</effectcategory>
										<effecttype>audiopan</effecttype>
										<mediatype>audio</mediatype>
										<parameter>
											<name>Pan</name>
											<parameterid>pan</parameterid>
											<valuemin>-1</valuemin>
											<valuemax>1</valuemax>
											<value>-1</value>
										</parameter>
									</effect>
								</filter>
								<sourcetrack>
									<mediatype>audio</mediatype>
									<trackindex>1</trackindex>
								</sourcetrack>
								<link>
									<linkclipref>ArmA 3 2020.11.28 - 21.12.26.149.mp4805307607</linkclipref>
								</link>
								<link>
									<linkclipref>ArmA 3 2020.11.28 - 21.12.26.149.mp4536872152</linkclipref>
								</link>
								<link>
									<linkclipref>ArmA 3 2020.11.28 - 21.12.26.149.mp45368721521</linkclipref>
								</link>
								<link>
									<linkclipref>ArmA 3 2020.11.28 - 21.12.26.149.mp4536872153</linkclipref>
								</link>
								<link>
									<linkclipref>ArmA 3 2020.11.28 - 21.12.26.149.mp45368721531</linkclipref>
								</link>
							</clipitem>
							<clipitem id="ArmA 3 2020.11.28 - 21.13.10.150.mp4536872155">
								<name>ArmA 3 2020.11.28 - 21.13.10.150.mp4</name>
								<duration>803</duration>
								<rate>
									<ntsc>TRUE</ntsc>
									<timebase>24</timebase>
								</rate>
								<in>0</in>
								<out>803</out>
								<start>10824</start>
								<end>11627</end>
								<enabled>FALSE</enabled>
								<masterclipid>ArmA 3 2020.11.28 - 21.13.10.150.mp4</masterclipid>
								<logginginfo>
									<scene />
									<shottake />
									<lognote />
									<good>FALSE</good>
								</logginginfo>
								<labels>
									<label2 />
								</labels>
								<comments>
									<mastercomment1 />
									<mastercomment2 />
									<mastercomment3 />
									<mastercomment4 />
								</comments>
								<file id="ArmA 3 2020.11.28 - 21.13.10.150" />
								<filter>
									<effect>
										<name>Audio Levels</name>
										<effectid>audiolevels</effectid>
										<effectcategory>audiolevels</effectcategory>
										<effecttype>audiolevels</effecttype>
										<mediatype>audio</mediatype>
										<parameter>
											<name>Level</name>
											<parameterid>level</parameterid>
											<valuemin>0</valuemin>
											<valuemax>3,98109</valuemax>
											<value>1</value>
										</parameter>
									</effect>
								</filter>
								<filter>
									<effect>
										<name>Audio Pan</name>
										<effectid>audiopan</effectid>
										<effectcategory>audiopan</effectcategory>
										<effecttype>audiopan</effecttype>
										<mediatype>audio</mediatype>
										<parameter>
											<name>Pan</name>
											<parameterid>pan</parameterid>
											<valuemin>-1</valuemin>
											<valuemax>1</valuemax>
											<value>-1</value>
										</parameter>
									</effect>
								</filter>
								<sourcetrack>
									<mediatype>audio</mediatype>
									<trackindex>1</trackindex>
								</sourcetrack>
								<link>
									<linkclipref>ArmA 3 2020.11.28 - 21.13.10.150.mp4805307610</linkclipref>
								</link>
								<link>
									<linkclipref>ArmA 3 2020.11.28 - 21.13.10.150.mp4536872155</linkclipref>
								</link>
								<link>
									<linkclipref>ArmA 3 2020.11.28 - 21.13.10.150.mp45368721551</linkclipref>
								</link>
								<link>
									<linkclipref>ArmA 3 2020.11.28 - 21.13.10.150.mp4536872156</linkclipref>
								</link>
								<link>
									<linkclipref>ArmA 3 2020.11.28 - 21.13.10.150.mp45368721561</linkclipref>
								</link>
							</clipitem>
							<clipitem id="ArmA 3 2020.11.28 - 21.15.17.151.mp4536872158">
								<name>ArmA 3 2020.11.28 - 21.15.17.151.mp4</name>
								<duration>1024</duration>
								<rate>
									<ntsc>TRUE</ntsc>
									<timebase>24</timebase>
								</rate>
								<in>0</in>
								<out>1024</out>
								<start>11628</start>
								<end>12652</end>
								<enabled>FALSE</enabled>
								<masterclipid>ArmA 3 2020.11.28 - 21.15.17.151.mp4</masterclipid>
								<logginginfo>
									<scene />
									<shottake />
									<lognote />
									<good>FALSE</good>
								</logginginfo>
								<labels>
									<label2 />
								</labels>
								<comments>
									<mastercomment1 />
									<mastercomment2 />
									<mastercomment3 />
									<mastercomment4 />
								</comments>
								<file id="ArmA 3 2020.11.28 - 21.15.17.151" />
								<filter>
									<effect>
										<name>Audio Levels</name>
										<effectid>audiolevels</effectid>
										<effectcategory>audiolevels</effectcategory>
										<effecttype>audiolevels</effecttype>
										<mediatype>audio</mediatype>
										<parameter>
											<name>Level</name>
											<parameterid>level</parameterid>
											<valuemin>0</valuemin>
											<valuemax>3,98109</valuemax>
											<value>1</value>
										</parameter>
									</effect>
								</filter>
								<filter>
									<effect>
										<name>Audio Pan</name>
										<effectid>audiopan</effectid>
										<effectcategory>audiopan</effectcategory>
										<effecttype>audiopan</effecttype>
										<mediatype>audio</mediatype>
										<parameter>
											<name>Pan</name>
											<parameterid>pan</parameterid>
											<valuemin>-1</valuemin>
											<valuemax>1</valuemax>
											<value>-1</value>
										</parameter>
									</effect>
								</filter>
								<sourcetrack>
									<mediatype>audio</mediatype>
									<trackindex>1</trackindex>
								</sourcetrack>
								<link>
									<linkclipref>ArmA 3 2020.11.28 - 21.15.17.151.mp4805307613</linkclipref>
								</link>
								<link>
									<linkclipref>ArmA 3 2020.11.28 - 21.15.17.151.mp4536872158</linkclipref>
								</link>
								<link>
									<linkclipref>ArmA 3 2020.11.28 - 21.15.17.151.mp45368721581</linkclipref>
								</link>
								<link>
									<linkclipref>ArmA 3 2020.11.28 - 21.15.17.151.mp4536872159</linkclipref>
								</link>
								<link>
									<linkclipref>ArmA 3 2020.11.28 - 21.15.17.151.mp45368721591</linkclipref>
								</link>
							</clipitem>
							<clipitem id="ArmA 3 2020.11.28 - 21.16.08.152.mp4536872161">
								<name>ArmA 3 2020.11.28 - 21.16.08.152.mp4</name>
								<duration>500</duration>
								<rate>
									<ntsc>TRUE</ntsc>
									<timebase>24</timebase>
								</rate>
								<in>0</in>
								<out>500</out>
								<start>12653</start>
								<end>13153</end>
								<enabled>FALSE</enabled>
								<masterclipid>ArmA 3 2020.11.28 - 21.16.08.152.mp4</masterclipid>
								<logginginfo>
									<scene />
									<shottake />
									<lognote />
									<good>FALSE</good>
								</logginginfo>
								<labels>
									<label2 />
								</labels>
								<comments>
									<mastercomment1 />
									<mastercomment2 />
									<mastercomment3 />
									<mastercomment4 />
								</comments>
								<file id="ArmA 3 2020.11.28 - 21.16.08.152" />
								<filter>
									<effect>
										<name>Audio Levels</name>
										<effectid>audiolevels</effectid>
										<effectcategory>audiolevels</effectcategory>
										<effecttype>audiolevels</effecttype>
										<mediatype>audio</mediatype>
										<parameter>
											<name>Level</name>
											<parameterid>level</parameterid>
											<valuemin>0</valuemin>
											<valuemax>3,98109</valuemax>
											<value>1</value>
										</parameter>
									</effect>
								</filter>
								<filter>
									<effect>
										<name>Audio Pan</name>
										<effectid>audiopan</effectid>
										<effectcategory>audiopan</effectcategory>
										<effecttype>audiopan</effecttype>
										<mediatype>audio</mediatype>
										<parameter>
											<name>Pan</name>
											<parameterid>pan</parameterid>
											<valuemin>-1</valuemin>
											<valuemax>1</valuemax>
											<value>-1</value>
										</parameter>
									</effect>
								</filter>
								<sourcetrack>
									<mediatype>audio</mediatype>
									<trackindex>1</trackindex>
								</sourcetrack>
								<link>
									<linkclipref>ArmA 3 2020.11.28 - 21.16.08.152.mp4805307616</linkclipref>
								</link>
								<link>
									<linkclipref>ArmA 3 2020.11.28 - 21.16.08.152.mp4536872161</linkclipref>
								</link>
								<link>
									<linkclipref>ArmA 3 2020.11.28 - 21.16.08.152.mp45368721611</linkclipref>
								</link>
								<link>
									<linkclipref>ArmA 3 2020.11.28 - 21.16.08.152.mp4536872162</linkclipref>
								</link>
								<link>
									<linkclipref>ArmA 3 2020.11.28 - 21.16.08.152.mp45368721621</linkclipref>
								</link>
							</clipitem>
							<clipitem id="ArmA 3 2020.11.28 - 21.16.44.153.mp4536872164">
								<name>ArmA 3 2020.11.28 - 21.16.44.153.mp4</name>
								<duration>1280</duration>
								<rate>
									<ntsc>TRUE</ntsc>
									<timebase>24</timebase>
								</rate>
								<in>0</in>
								<out>1280</out>
								<start>13154</start>
								<end>14434</end>
								<enabled>FALSE</enabled>
								<masterclipid>ArmA 3 2020.11.28 - 21.16.44.153.mp4</masterclipid>
								<logginginfo>
									<scene />
									<shottake />
									<lognote />
									<good>FALSE</good>
								</logginginfo>
								<labels>
									<label2 />
								</labels>
								<comments>
									<mastercomment1 />
									<mastercomment2 />
									<mastercomment3 />
									<mastercomment4 />
								</comments>
								<file id="ArmA 3 2020.11.28 - 21.16.44.153" />
								<filter>
									<effect>
										<name>Audio Levels</name>
										<effectid>audiolevels</effectid>
										<effectcategory>audiolevels</effectcategory>
										<effecttype>audiolevels</effecttype>
										<mediatype>audio</mediatype>
										<parameter>
											<name>Level</name>
											<parameterid>level</parameterid>
											<valuemin>0</valuemin>
											<valuemax>3,98109</valuemax>
											<value>1</value>
										</parameter>
									</effect>
								</filter>
								<filter>
									<effect>
										<name>Audio Pan</name>
										<effectid>audiopan</effectid>
										<effectcategory>audiopan</effectcategory>
										<effecttype>audiopan</effecttype>
										<mediatype>audio</mediatype>
										<parameter>
											<name>Pan</name>
											<parameterid>pan</parameterid>
											<valuemin>-1</valuemin>
											<valuemax>1</valuemax>
											<value>-1</value>
										</parameter>
									</effect>
								</filter>
								<sourcetrack>
									<mediatype>audio</mediatype>
									<trackindex>1</trackindex>
								</sourcetrack>
								<link>
									<linkclipref>ArmA 3 2020.11.28 - 21.16.44.153.mp4805307619</linkclipref>
								</link>
								<link>
									<linkclipref>ArmA 3 2020.11.28 - 21.16.44.153.mp4536872164</linkclipref>
								</link>
								<link>
									<linkclipref>ArmA 3 2020.11.28 - 21.16.44.153.mp45368721641</linkclipref>
								</link>
								<link>
									<linkclipref>ArmA 3 2020.11.28 - 21.16.44.153.mp4536872165</linkclipref>
								</link>
								<link>
									<linkclipref>ArmA 3 2020.11.28 - 21.16.44.153.mp45368721651</linkclipref>
								</link>
							</clipitem>
							<clipitem id="ArmA 3 2020.11.28 - 21.18.36.154.mp4536872167">
								<name>ArmA 3 2020.11.28 - 21.18.36.154.mp4</name>
								<duration>1079</duration>
								<rate>
									<ntsc>TRUE</ntsc>
									<timebase>24</timebase>
								</rate>
								<in>0</in>
								<out>1079</out>
								<start>14435</start>
								<end>15514</end>
								<enabled>FALSE</enabled>
								<masterclipid>ArmA 3 2020.11.28 - 21.18.36.154.mp4</masterclipid>
								<logginginfo>
									<scene />
									<shottake />
									<lognote />
									<good>FALSE</good>
								</logginginfo>
								<labels>
									<label2 />
								</labels>
								<comments>
									<mastercomment1 />
									<mastercomment2 />
									<mastercomment3 />
									<mastercomment4 />
								</comments>
								<file id="ArmA 3 2020.11.28 - 21.18.36.154" />
								<filter>
									<effect>
										<name>Audio Levels</name>
										<effectid>audiolevels</effectid>
										<effectcategory>audiolevels</effectcategory>
										<effecttype>audiolevels</effecttype>
										<mediatype>audio</mediatype>
										<parameter>
											<name>Level</name>
											<parameterid>level</parameterid>
											<valuemin>0</valuemin>
											<valuemax>3,98109</valuemax>
											<value>1</value>
										</parameter>
									</effect>
								</filter>
								<filter>
									<effect>
										<name>Audio Pan</name>
										<effectid>audiopan</effectid>
										<effectcategory>audiopan</effectcategory>
										<effecttype>audiopan</effecttype>
										<mediatype>audio</mediatype>
										<parameter>
											<name>Pan</name>
											<parameterid>pan</parameterid>
											<valuemin>-1</valuemin>
											<valuemax>1</valuemax>
											<value>-1</value>
										</parameter>
									</effect>
								</filter>
								<sourcetrack>
									<mediatype>audio</mediatype>
									<trackindex>1</trackindex>
								</sourcetrack>
								<link>
									<linkclipref>ArmA 3 2020.11.28 - 21.18.36.154.mp4805307622</linkclipref>
								</link>
								<link>
									<linkclipref>ArmA 3 2020.11.28 - 21.18.36.154.mp4536872167</linkclipref>
								</link>
								<link>
									<linkclipref>ArmA 3 2020.11.28 - 21.18.36.154.mp45368721671</linkclipref>
								</link>
								<link>
									<linkclipref>ArmA 3 2020.11.28 - 21.18.36.154.mp4536872168</linkclipref>
								</link>
								<link>
									<linkclipref>ArmA 3 2020.11.28 - 21.18.36.154.mp45368721681</linkclipref>
								</link>
							</clipitem>
							<clipitem id="ArmA 3 2020.11.28 - 21.21.45.155.mp4536872170">
								<name>ArmA 3 2020.11.28 - 21.21.45.155.mp4</name>
								<duration>458</duration>
								<rate>
									<ntsc>TRUE</ntsc>
									<timebase>24</timebase>
								</rate>
								<in>0</in>
								<out>458</out>
								<start>15515</start>
								<end>15973</end>
								<enabled>FALSE</enabled>
								<masterclipid>ArmA 3 2020.11.28 - 21.21.45.155.mp4</masterclipid>
								<logginginfo>
									<scene />
									<shottake />
									<lognote />
									<good>FALSE</good>
								</logginginfo>
								<labels>
									<label2 />
								</labels>
								<comments>
									<mastercomment1 />
									<mastercomment2 />
									<mastercomment3 />
									<mastercomment4 />
								</comments>
								<file id="ArmA 3 2020.11.28 - 21.21.45.155" />
								<filter>
									<effect>
										<name>Audio Levels</name>
										<effectid>audiolevels</effectid>
										<effectcategory>audiolevels</effectcategory>
										<effecttype>audiolevels</effecttype>
										<mediatype>audio</mediatype>
										<parameter>
											<name>Level</name>
											<parameterid>level</parameterid>
											<valuemin>0</valuemin>
											<valuemax>3,98109</valuemax>
											<value>1</value>
										</parameter>
									</effect>
								</filter>
								<filter>
									<effect>
										<name>Audio Pan</name>
										<effectid>audiopan</effectid>
										<effectcategory>audiopan</effectcategory>
										<effecttype>audiopan</effecttype>
										<mediatype>audio</mediatype>
										<parameter>
											<name>Pan</name>
											<parameterid>pan</parameterid>
											<valuemin>-1</valuemin>
											<valuemax>1</valuemax>
											<value>-1</value>
										</parameter>
									</effect>
								</filter>
								<sourcetrack>
									<mediatype>audio</mediatype>
									<trackindex>1</trackindex>
								</sourcetrack>
								<link>
									<linkclipref>ArmA 3 2020.11.28 - 21.21.45.155.mp4805307625</linkclipref>
								</link>
								<link>
									<linkclipref>ArmA 3 2020.11.28 - 21.21.45.155.mp4536872170</linkclipref>
								</link>
								<link>
									<linkclipref>ArmA 3 2020.11.28 - 21.21.45.155.mp45368721701</linkclipref>
								</link>
								<link>
									<linkclipref>ArmA 3 2020.11.28 - 21.21.45.155.mp4536872171</linkclipref>
								</link>
								<link>
									<linkclipref>ArmA 3 2020.11.28 - 21.21.45.155.mp45368721711</linkclipref>
								</link>
							</clipitem>
							<clipitem id="ArmA 3 2020.11.28 - 21.23.14.156.mp4536872173">
								<name>ArmA 3 2020.11.28 - 21.23.14.156.mp4</name>
								<duration>289</duration>
								<rate>
									<ntsc>TRUE</ntsc>
									<timebase>24</timebase>
								</rate>
								<in>0</in>
								<out>289</out>
								<start>15974</start>
								<end>16263</end>
								<enabled>FALSE</enabled>
								<masterclipid>ArmA 3 2020.11.28 - 21.23.14.156.mp4</masterclipid>
								<logginginfo>
									<scene />
									<shottake />
									<lognote />
									<good>FALSE</good>
								</logginginfo>
								<labels>
									<label2 />
								</labels>
								<comments>
									<mastercomment1 />
									<mastercomment2 />
									<mastercomment3 />
									<mastercomment4 />
								</comments>
								<file id="ArmA 3 2020.11.28 - 21.23.14.156" />
								<filter>
									<effect>
										<name>Audio Levels</name>
										<effectid>audiolevels</effectid>
										<effectcategory>audiolevels</effectcategory>
										<effecttype>audiolevels</effecttype>
										<mediatype>audio</mediatype>
										<parameter>
											<name>Level</name>
											<parameterid>level</parameterid>
											<valuemin>0</valuemin>
											<valuemax>3,98109</valuemax>
											<value>1</value>
										</parameter>
									</effect>
								</filter>
								<filter>
									<effect>
										<name>Audio Pan</name>
										<effectid>audiopan</effectid>
										<effectcategory>audiopan</effectcategory>
										<effecttype>audiopan</effecttype>
										<mediatype>audio</mediatype>
										<parameter>
											<name>Pan</name>
											<parameterid>pan</parameterid>
											<valuemin>-1</valuemin>
											<valuemax>1</valuemax>
											<value>-1</value>
										</parameter>
									</effect>
								</filter>
								<sourcetrack>
									<mediatype>audio</mediatype>
									<trackindex>1</trackindex>
								</sourcetrack>
								<link>
									<linkclipref>ArmA 3 2020.11.28 - 21.23.14.156.mp4805307628</linkclipref>
								</link>
								<link>
									<linkclipref>ArmA 3 2020.11.28 - 21.23.14.156.mp4536872173</linkclipref>
								</link>
								<link>
									<linkclipref>ArmA 3 2020.11.28 - 21.23.14.156.mp45368721731</linkclipref>
								</link>
								<link>
									<linkclipref>ArmA 3 2020.11.28 - 21.23.14.156.mp4536872174</linkclipref>
								</link>
								<link>
									<linkclipref>ArmA 3 2020.11.28 - 21.23.14.156.mp45368721741</linkclipref>
								</link>
							</clipitem>
							<clipitem id="ArmA 3 2020.11.28 - 21.23.42.157.mp4536872176">
								<name>ArmA 3 2020.11.28 - 21.23.42.157.mp4</name>
								<duration>161</duration>
								<rate>
									<ntsc>TRUE</ntsc>
									<timebase>24</timebase>
								</rate>
								<in>0</in>
								<out>161</out>
								<start>16264</start>
								<end>16425</end>
								<enabled>FALSE</enabled>
								<masterclipid>ArmA 3 2020.11.28 - 21.23.42.157.mp4</masterclipid>
								<logginginfo>
									<scene />
									<shottake />
									<lognote />
									<good>FALSE</good>
								</logginginfo>
								<labels>
									<label2 />
								</labels>
								<comments>
									<mastercomment1 />
									<mastercomment2 />
									<mastercomment3 />
									<mastercomment4 />
								</comments>
								<file id="ArmA 3 2020.11.28 - 21.23.42.157" />
								<filter>
									<effect>
										<name>Audio Levels</name>
										<effectid>audiolevels</effectid>
										<effectcategory>audiolevels</effectcategory>
										<effecttype>audiolevels</effecttype>
										<mediatype>audio</mediatype>
										<parameter>
											<name>Level</name>
											<parameterid>level</parameterid>
											<valuemin>0</valuemin>
											<valuemax>3,98109</valuemax>
											<value>1</value>
										</parameter>
									</effect>
								</filter>
								<filter>
									<effect>
										<name>Audio Pan</name>
										<effectid>audiopan</effectid>
										<effectcategory>audiopan</effectcategory>
										<effecttype>audiopan</effecttype>
										<mediatype>audio</mediatype>
										<parameter>
											<name>Pan</name>
											<parameterid>pan</parameterid>
											<valuemin>-1</valuemin>
											<valuemax>1</valuemax>
											<value>-1</value>
										</parameter>
									</effect>
								</filter>
								<sourcetrack>
									<mediatype>audio</mediatype>
									<trackindex>1</trackindex>
								</sourcetrack>
								<link>
									<linkclipref>ArmA 3 2020.11.28 - 21.23.42.157.mp4805307631</linkclipref>
								</link>
								<link>
									<linkclipref>ArmA 3 2020.11.28 - 21.23.42.157.mp4536872176</linkclipref>
								</link>
								<link>
									<linkclipref>ArmA 3 2020.11.28 - 21.23.42.157.mp45368721761</linkclipref>
								</link>
								<link>
									<linkclipref>ArmA 3 2020.11.28 - 21.23.42.157.mp4536872177</linkclipref>
								</link>
								<link>
									<linkclipref>ArmA 3 2020.11.28 - 21.23.42.157.mp45368721771</linkclipref>
								</link>
							</clipitem>
							<clipitem id="ArmA 3 2020.11.28 - 21.24.02.158.mp4536872179">
								<name>ArmA 3 2020.11.28 - 21.24.02.158.mp4</name>
								<duration>425</duration>
								<rate>
									<ntsc>TRUE</ntsc>
									<timebase>24</timebase>
								</rate>
								<in>0</in>
								<out>425</out>
								<start>16426</start>
								<end>16851</end>
								<enabled>FALSE</enabled>
								<masterclipid>ArmA 3 2020.11.28 - 21.24.02.158.mp4</masterclipid>
								<logginginfo>
									<scene />
									<shottake />
									<lognote />
									<good>FALSE</good>
								</logginginfo>
								<labels>
									<label2 />
								</labels>
								<comments>
									<mastercomment1 />
									<mastercomment2 />
									<mastercomment3 />
									<mastercomment4 />
								</comments>
								<file id="ArmA 3 2020.11.28 - 21.24.02.158" />
								<filter>
									<effect>
										<name>Audio Levels</name>
										<effectid>audiolevels</effectid>
										<effectcategory>audiolevels</effectcategory>
										<effecttype>audiolevels</effecttype>
										<mediatype>audio</mediatype>
										<parameter>
											<name>Level</name>
											<parameterid>level</parameterid>
											<valuemin>0</valuemin>
											<valuemax>3,98109</valuemax>
											<value>1</value>
										</parameter>
									</effect>
								</filter>
								<filter>
									<effect>
										<name>Audio Pan</name>
										<effectid>audiopan</effectid>
										<effectcategory>audiopan</effectcategory>
										<effecttype>audiopan</effecttype>
										<mediatype>audio</mediatype>
										<parameter>
											<name>Pan</name>
											<parameterid>pan</parameterid>
											<valuemin>-1</valuemin>
											<valuemax>1</valuemax>
											<value>-1</value>
										</parameter>
									</effect>
								</filter>
								<sourcetrack>
									<mediatype>audio</mediatype>
									<trackindex>1</trackindex>
								</sourcetrack>
								<link>
									<linkclipref>ArmA 3 2020.11.28 - 21.24.02.158.mp4805307634</linkclipref>
								</link>
								<link>
									<linkclipref>ArmA 3 2020.11.28 - 21.24.02.158.mp4536872179</linkclipref>
								</link>
								<link>
									<linkclipref>ArmA 3 2020.11.28 - 21.24.02.158.mp45368721791</linkclipref>
								</link>
								<link>
									<linkclipref>ArmA 3 2020.11.28 - 21.24.02.158.mp4536872180</linkclipref>
								</link>
								<link>
									<linkclipref>ArmA 3 2020.11.28 - 21.24.02.158.mp45368721801</linkclipref>
								</link>
							</clipitem>
							<clipitem id="ArmA 3 2020.11.28 - 21.24.28.159.mp4536872182">
								<name>ArmA 3 2020.11.28 - 21.24.28.159.mp4</name>
								<duration>114</duration>
								<rate>
									<ntsc>TRUE</ntsc>
									<timebase>24</timebase>
								</rate>
								<in>0</in>
								<out>114</out>
								<start>16852</start>
								<end>16966</end>
								<enabled>FALSE</enabled>
								<masterclipid>ArmA 3 2020.11.28 - 21.24.28.159.mp4</masterclipid>
								<logginginfo>
									<scene />
									<shottake />
									<lognote />
									<good>FALSE</good>
								</logginginfo>
								<labels>
									<label2 />
								</labels>
								<comments>
									<mastercomment1 />
									<mastercomment2 />
									<mastercomment3 />
									<mastercomment4 />
								</comments>
								<file id="ArmA 3 2020.11.28 - 21.24.28.159" />
								<filter>
									<effect>
										<name>Audio Levels</name>
										<effectid>audiolevels</effectid>
										<effectcategory>audiolevels</effectcategory>
										<effecttype>audiolevels</effecttype>
										<mediatype>audio</mediatype>
										<parameter>
											<name>Level</name>
											<parameterid>level</parameterid>
											<valuemin>0</valuemin>
											<valuemax>3,98109</valuemax>
											<value>1</value>
										</parameter>
									</effect>
								</filter>
								<filter>
									<effect>
										<name>Audio Pan</name>
										<effectid>audiopan</effectid>
										<effectcategory>audiopan</effectcategory>
										<effecttype>audiopan</effecttype>
										<mediatype>audio</mediatype>
										<parameter>
											<name>Pan</name>
											<parameterid>pan</parameterid>
											<valuemin>-1</valuemin>
											<valuemax>1</valuemax>
											<value>-1</value>
										</parameter>
									</effect>
								</filter>
								<sourcetrack>
									<mediatype>audio</mediatype>
									<trackindex>1</trackindex>
								</sourcetrack>
								<link>
									<linkclipref>ArmA 3 2020.11.28 - 21.24.28.159.mp4805307637</linkclipref>
								</link>
								<link>
									<linkclipref>ArmA 3 2020.11.28 - 21.24.28.159.mp4536872182</linkclipref>
								</link>
								<link>
									<linkclipref>ArmA 3 2020.11.28 - 21.24.28.159.mp45368721821</linkclipref>
								</link>
								<link>
									<linkclipref>ArmA 3 2020.11.28 - 21.24.28.159.mp4536872183</linkclipref>
								</link>
								<link>
									<linkclipref>ArmA 3 2020.11.28 - 21.24.28.159.mp45368721831</linkclipref>
								</link>
							</clipitem>
							<clipitem id="ArmA 3 2020.11.28 - 21.24.48.160.mp4536872185">
								<name>ArmA 3 2020.11.28 - 21.24.48.160.mp4</name>
								<duration>2003</duration>
								<rate>
									<ntsc>TRUE</ntsc>
									<timebase>24</timebase>
								</rate>
								<in>0</in>
								<out>2003</out>
								<start>16967</start>
								<end>18970</end>
								<enabled>FALSE</enabled>
								<masterclipid>ArmA 3 2020.11.28 - 21.24.48.160.mp4</masterclipid>
								<logginginfo>
									<scene />
									<shottake />
									<lognote />
									<good>FALSE</good>
								</logginginfo>
								<labels>
									<label2 />
								</labels>
								<comments>
									<mastercomment1 />
									<mastercomment2 />
									<mastercomment3 />
									<mastercomment4 />
								</comments>
								<file id="ArmA 3 2020.11.28 - 21.24.48.160" />
								<filter>
									<effect>
										<name>Audio Levels</name>
										<effectid>audiolevels</effectid>
										<effectcategory>audiolevels</effectcategory>
										<effecttype>audiolevels</effecttype>
										<mediatype>audio</mediatype>
										<parameter>
											<name>Level</name>
											<parameterid>level</parameterid>
											<valuemin>0</valuemin>
											<valuemax>3,98109</valuemax>
											<value>1</value>
										</parameter>
									</effect>
								</filter>
								<filter>
									<effect>
										<name>Audio Pan</name>
										<effectid>audiopan</effectid>
										<effectcategory>audiopan</effectcategory>
										<effecttype>audiopan</effecttype>
										<mediatype>audio</mediatype>
										<parameter>
											<name>Pan</name>
											<parameterid>pan</parameterid>
											<valuemin>-1</valuemin>
											<valuemax>1</valuemax>
											<value>-1</value>
										</parameter>
									</effect>
								</filter>
								<sourcetrack>
									<mediatype>audio</mediatype>
									<trackindex>1</trackindex>
								</sourcetrack>
								<link>
									<linkclipref>ArmA 3 2020.11.28 - 21.24.48.160.mp4805307640</linkclipref>
								</link>
								<link>
									<linkclipref>ArmA 3 2020.11.28 - 21.24.48.160.mp4536872185</linkclipref>
								</link>
								<link>
									<linkclipref>ArmA 3 2020.11.28 - 21.24.48.160.mp45368721851</linkclipref>
								</link>
								<link>
									<linkclipref>ArmA 3 2020.11.28 - 21.24.48.160.mp4536872186</linkclipref>
								</link>
								<link>
									<linkclipref>ArmA 3 2020.11.28 - 21.24.48.160.mp45368721861</linkclipref>
								</link>
							</clipitem>
							<clipitem id="ArmA 3 2020.11.28 - 21.26.19.161.mp4536872188">
								<name>ArmA 3 2020.11.28 - 21.26.19.161.mp4</name>
								<duration>2498</duration>
								<rate>
									<ntsc>TRUE</ntsc>
									<timebase>24</timebase>
								</rate>
								<in>0</in>
								<out>2498</out>
								<start>18971</start>
								<end>21469</end>
								<enabled>FALSE</enabled>
								<masterclipid>ArmA 3 2020.11.28 - 21.26.19.161.mp4</masterclipid>
								<logginginfo>
									<scene />
									<shottake />
									<lognote />
									<good>FALSE</good>
								</logginginfo>
								<labels>
									<label2 />
								</labels>
								<comments>
									<mastercomment1 />
									<mastercomment2 />
									<mastercomment3 />
									<mastercomment4 />
								</comments>
								<file id="ArmA 3 2020.11.28 - 21.26.19.161" />
								<filter>
									<effect>
										<name>Audio Levels</name>
										<effectid>audiolevels</effectid>
										<effectcategory>audiolevels</effectcategory>
										<effecttype>audiolevels</effecttype>
										<mediatype>audio</mediatype>
										<parameter>
											<name>Level</name>
											<parameterid>level</parameterid>
											<valuemin>0</valuemin>
											<valuemax>3,98109</valuemax>
											<value>1</value>
										</parameter>
									</effect>
								</filter>
								<filter>
									<effect>
										<name>Audio Pan</name>
										<effectid>audiopan</effectid>
										<effectcategory>audiopan</effectcategory>
										<effecttype>audiopan</effecttype>
										<mediatype>audio</mediatype>
										<parameter>
											<name>Pan</name>
											<parameterid>pan</parameterid>
											<valuemin>-1</valuemin>
											<valuemax>1</valuemax>
											<value>-1</value>
										</parameter>
									</effect>
								</filter>
								<sourcetrack>
									<mediatype>audio</mediatype>
									<trackindex>1</trackindex>
								</sourcetrack>
								<link>
									<linkclipref>ArmA 3 2020.11.28 - 21.26.19.161.mp4805307643</linkclipref>
								</link>
								<link>
									<linkclipref>ArmA 3 2020.11.28 - 21.26.19.161.mp4536872188</linkclipref>
								</link>
								<link>
									<linkclipref>ArmA 3 2020.11.28 - 21.26.19.161.mp45368721881</linkclipref>
								</link>
								<link>
									<linkclipref>ArmA 3 2020.11.28 - 21.26.19.161.mp4536872189</linkclipref>
								</link>
								<link>
									<linkclipref>ArmA 3 2020.11.28 - 21.26.19.161.mp45368721891</linkclipref>
								</link>
							</clipitem>
							<clipitem id="ArmA 3 2020.11.28 - 21.28.04.162.mp4536872191">
								<name>ArmA 3 2020.11.28 - 21.28.04.162.mp4</name>
								<duration>1150</duration>
								<rate>
									<ntsc>TRUE</ntsc>
									<timebase>24</timebase>
								</rate>
								<in>0</in>
								<out>1150</out>
								<start>21470</start>
								<end>22620</end>
								<enabled>FALSE</enabled>
								<masterclipid>ArmA 3 2020.11.28 - 21.28.04.162.mp4</masterclipid>
								<logginginfo>
									<scene />
									<shottake />
									<lognote />
									<good>FALSE</good>
								</logginginfo>
								<labels>
									<label2 />
								</labels>
								<comments>
									<mastercomment1 />
									<mastercomment2 />
									<mastercomment3 />
									<mastercomment4 />
								</comments>
								<file id="ArmA 3 2020.11.28 - 21.28.04.162" />
								<filter>
									<effect>
										<name>Audio Levels</name>
										<effectid>audiolevels</effectid>
										<effectcategory>audiolevels</effectcategory>
										<effecttype>audiolevels</effecttype>
										<mediatype>audio</mediatype>
										<parameter>
											<name>Level</name>
											<parameterid>level</parameterid>
											<valuemin>0</valuemin>
											<valuemax>3,98109</valuemax>
											<value>1</value>
										</parameter>
									</effect>
								</filter>
								<filter>
									<effect>
										<name>Audio Pan</name>
										<effectid>audiopan</effectid>
										<effectcategory>audiopan</effectcategory>
										<effecttype>audiopan</effecttype>
										<mediatype>audio</mediatype>
										<parameter>
											<name>Pan</name>
											<parameterid>pan</parameterid>
											<valuemin>-1</valuemin>
											<valuemax>1</valuemax>
											<value>-1</value>
										</parameter>
									</effect>
								</filter>
								<sourcetrack>
									<mediatype>audio</mediatype>
									<trackindex>1</trackindex>
								</sourcetrack>
								<link>
									<linkclipref>ArmA 3 2020.11.28 - 21.28.04.162.mp4805307646</linkclipref>
								</link>
								<link>
									<linkclipref>ArmA 3 2020.11.28 - 21.28.04.162.mp4536872191</linkclipref>
								</link>
								<link>
									<linkclipref>ArmA 3 2020.11.28 - 21.28.04.162.mp45368721911</linkclipref>
								</link>
								<link>
									<linkclipref>ArmA 3 2020.11.28 - 21.28.04.162.mp4536872192</linkclipref>
								</link>
								<link>
									<linkclipref>ArmA 3 2020.11.28 - 21.28.04.162.mp45368721921</linkclipref>
								</link>
							</clipitem>
							<clipitem id="ArmA 3 2020.11.28 - 21.29.07.163.mp4536872194">
								<name>ArmA 3 2020.11.28 - 21.29.07.163.mp4</name>
								<duration>407</duration>
								<rate>
									<ntsc>TRUE</ntsc>
									<timebase>24</timebase>
								</rate>
								<in>0</in>
								<out>407</out>
								<start>22621</start>
								<end>23028</end>
								<enabled>FALSE</enabled>
								<masterclipid>ArmA 3 2020.11.28 - 21.29.07.163.mp4</masterclipid>
								<logginginfo>
									<scene />
									<shottake />
									<lognote />
									<good>FALSE</good>
								</logginginfo>
								<labels>
									<label2 />
								</labels>
								<comments>
									<mastercomment1 />
									<mastercomment2 />
									<mastercomment3 />
									<mastercomment4 />
								</comments>
								<file id="ArmA 3 2020.11.28 - 21.29.07.163" />
								<filter>
									<effect>
										<name>Audio Levels</name>
										<effectid>audiolevels</effectid>
										<effectcategory>audiolevels</effectcategory>
										<effecttype>audiolevels</effecttype>
										<mediatype>audio</mediatype>
										<parameter>
											<name>Level</name>
											<parameterid>level</parameterid>
											<valuemin>0</valuemin>
											<valuemax>3,98109</valuemax>
											<value>1</value>
										</parameter>
									</effect>
								</filter>
								<filter>
									<effect>
										<name>Audio Pan</name>
										<effectid>audiopan</effectid>
										<effectcategory>audiopan</effectcategory>
										<effecttype>audiopan</effecttype>
										<mediatype>audio</mediatype>
										<parameter>
											<name>Pan</name>
											<parameterid>pan</parameterid>
											<valuemin>-1</valuemin>
											<valuemax>1</valuemax>
											<value>-1</value>
										</parameter>
									</effect>
								</filter>
								<sourcetrack>
									<mediatype>audio</mediatype>
									<trackindex>1</trackindex>
								</sourcetrack>
								<link>
									<linkclipref>ArmA 3 2020.11.28 - 21.29.07.163.mp4805307649</linkclipref>
								</link>
								<link>
									<linkclipref>ArmA 3 2020.11.28 - 21.29.07.163.mp4536872194</linkclipref>
								</link>
								<link>
									<linkclipref>ArmA 3 2020.11.28 - 21.29.07.163.mp45368721941</linkclipref>
								</link>
								<link>
									<linkclipref>ArmA 3 2020.11.28 - 21.29.07.163.mp4536872195</linkclipref>
								</link>
								<link>
									<linkclipref>ArmA 3 2020.11.28 - 21.29.07.163.mp45368721951</linkclipref>
								</link>
							</clipitem>
							<clipitem id="ArmA 3 2020.11.28 - 21.29.46.164.mp4536872197">
								<name>ArmA 3 2020.11.28 - 21.29.46.164.mp4</name>
								<duration>1238</duration>
								<rate>
									<ntsc>TRUE</ntsc>
									<timebase>24</timebase>
								</rate>
								<in>0</in>
								<out>1238</out>
								<start>23029</start>
								<end>24267</end>
								<enabled>FALSE</enabled>
								<masterclipid>ArmA 3 2020.11.28 - 21.29.46.164.mp4</masterclipid>
								<logginginfo>
									<scene />
									<shottake />
									<lognote />
									<good>FALSE</good>
								</logginginfo>
								<labels>
									<label2 />
								</labels>
								<comments>
									<mastercomment1 />
									<mastercomment2 />
									<mastercomment3 />
									<mastercomment4 />
								</comments>
								<file id="ArmA 3 2020.11.28 - 21.29.46.164" />
								<filter>
									<effect>
										<name>Audio Levels</name>
										<effectid>audiolevels</effectid>
										<effectcategory>audiolevels</effectcategory>
										<effecttype>audiolevels</effecttype>
										<mediatype>audio</mediatype>
										<parameter>
											<name>Level</name>
											<parameterid>level</parameterid>
											<valuemin>0</valuemin>
											<valuemax>3,98109</valuemax>
											<value>1</value>
										</parameter>
									</effect>
								</filter>
								<filter>
									<effect>
										<name>Audio Pan</name>
										<effectid>audiopan</effectid>
										<effectcategory>audiopan</effectcategory>
										<effecttype>audiopan</effecttype>
										<mediatype>audio</mediatype>
										<parameter>
											<name>Pan</name>
											<parameterid>pan</parameterid>
											<valuemin>-1</valuemin>
											<valuemax>1</valuemax>
											<value>-1</value>
										</parameter>
									</effect>
								</filter>
								<sourcetrack>
									<mediatype>audio</mediatype>
									<trackindex>1</trackindex>
								</sourcetrack>
								<link>
									<linkclipref>ArmA 3 2020.11.28 - 21.29.46.164.mp4805307652</linkclipref>
								</link>
								<link>
									<linkclipref>ArmA 3 2020.11.28 - 21.29.46.164.mp4536872197</linkclipref>
								</link>
								<link>
									<linkclipref>ArmA 3 2020.11.28 - 21.29.46.164.mp45368721971</linkclipref>
								</link>
								<link>
									<linkclipref>ArmA 3 2020.11.28 - 21.29.46.164.mp4536872198</linkclipref>
								</link>
								<link>
									<linkclipref>ArmA 3 2020.11.28 - 21.29.46.164.mp45368721981</linkclipref>
								</link>
							</clipitem>
							<clipitem id="ArmA 3 2020.11.28 - 21.31.14.165.mp4536872200">
								<name>ArmA 3 2020.11.28 - 21.31.14.165.mp4</name>
								<duration>759</duration>
								<rate>
									<ntsc>TRUE</ntsc>
									<timebase>24</timebase>
								</rate>
								<in>0</in>
								<out>759</out>
								<start>24268</start>
								<end>25027</end>
								<enabled>FALSE</enabled>
								<masterclipid>ArmA 3 2020.11.28 - 21.31.14.165.mp4</masterclipid>
								<logginginfo>
									<scene />
									<shottake />
									<lognote />
									<good>FALSE</good>
								</logginginfo>
								<labels>
									<label2 />
								</labels>
								<comments>
									<mastercomment1 />
									<mastercomment2 />
									<mastercomment3 />
									<mastercomment4 />
								</comments>
								<file id="ArmA 3 2020.11.28 - 21.31.14.165" />
								<filter>
									<effect>
										<name>Audio Levels</name>
										<effectid>audiolevels</effectid>
										<effectcategory>audiolevels</effectcategory>
										<effecttype>audiolevels</effecttype>
										<mediatype>audio</mediatype>
										<parameter>
											<name>Level</name>
											<parameterid>level</parameterid>
											<valuemin>0</valuemin>
											<valuemax>3,98109</valuemax>
											<value>1</value>
										</parameter>
									</effect>
								</filter>
								<filter>
									<effect>
										<name>Audio Pan</name>
										<effectid>audiopan</effectid>
										<effectcategory>audiopan</effectcategory>
										<effecttype>audiopan</effecttype>
										<mediatype>audio</mediatype>
										<parameter>
											<name>Pan</name>
											<parameterid>pan</parameterid>
											<valuemin>-1</valuemin>
											<valuemax>1</valuemax>
											<value>-1</value>
										</parameter>
									</effect>
								</filter>
								<sourcetrack>
									<mediatype>audio</mediatype>
									<trackindex>1</trackindex>
								</sourcetrack>
								<link>
									<linkclipref>ArmA 3 2020.11.28 - 21.31.14.165.mp4805307655</linkclipref>
								</link>
								<link>
									<linkclipref>ArmA 3 2020.11.28 - 21.31.14.165.mp4536872200</linkclipref>
								</link>
								<link>
									<linkclipref>ArmA 3 2020.11.28 - 21.31.14.165.mp45368722001</linkclipref>
								</link>
								<link>
									<linkclipref>ArmA 3 2020.11.28 - 21.31.14.165.mp4536872201</linkclipref>
								</link>
								<link>
									<linkclipref>ArmA 3 2020.11.28 - 21.31.14.165.mp45368722011</linkclipref>
								</link>
							</clipitem>
							<clipitem id="ArmA 3 2020.11.28 - 21.31.58.166.mp4536872203">
								<name>ArmA 3 2020.11.28 - 21.31.58.166.mp4</name>
								<duration>710</duration>
								<rate>
									<ntsc>TRUE</ntsc>
									<timebase>24</timebase>
								</rate>
								<in>0</in>
								<out>710</out>
								<start>25028</start>
								<end>25738</end>
								<enabled>FALSE</enabled>
								<masterclipid>ArmA 3 2020.11.28 - 21.31.58.166.mp4</masterclipid>
								<logginginfo>
									<scene />
									<shottake />
									<lognote />
									<good>FALSE</good>
								</logginginfo>
								<labels>
									<label2 />
								</labels>
								<comments>
									<mastercomment1 />
									<mastercomment2 />
									<mastercomment3 />
									<mastercomment4 />
								</comments>
								<file id="ArmA 3 2020.11.28 - 21.31.58.166" />
								<filter>
									<effect>
										<name>Audio Levels</name>
										<effectid>audiolevels</effectid>
										<effectcategory>audiolevels</effectcategory>
										<effecttype>audiolevels</effecttype>
										<mediatype>audio</mediatype>
										<parameter>
											<name>Level</name>
											<parameterid>level</parameterid>
											<valuemin>0</valuemin>
											<valuemax>3,98109</valuemax>
											<value>1</value>
										</parameter>
									</effect>
								</filter>
								<filter>
									<effect>
										<name>Audio Pan</name>
										<effectid>audiopan</effectid>
										<effectcategory>audiopan</effectcategory>
										<effecttype>audiopan</effecttype>
										<mediatype>audio</mediatype>
										<parameter>
											<name>Pan</name>
											<parameterid>pan</parameterid>
											<valuemin>-1</valuemin>
											<valuemax>1</valuemax>
											<value>-1</value>
										</parameter>
									</effect>
								</filter>
								<sourcetrack>
									<mediatype>audio</mediatype>
									<trackindex>1</trackindex>
								</sourcetrack>
								<link>
									<linkclipref>ArmA 3 2020.11.28 - 21.31.58.166.mp4805307658</linkclipref>
								</link>
								<link>
									<linkclipref>ArmA 3 2020.11.28 - 21.31.58.166.mp4536872203</linkclipref>
								</link>
								<link>
									<linkclipref>ArmA 3 2020.11.28 - 21.31.58.166.mp45368722031</linkclipref>
								</link>
								<link>
									<linkclipref>ArmA 3 2020.11.28 - 21.31.58.166.mp4536872204</linkclipref>
								</link>
								<link>
									<linkclipref>ArmA 3 2020.11.28 - 21.31.58.166.mp45368722041</linkclipref>
								</link>
							</clipitem>
							<clipitem id="ArmA 3 2020.11.28 - 21.32.33.167.mp4536872206">
								<name>ArmA 3 2020.11.28 - 21.32.33.167.mp4</name>
								<duration>1026</duration>
								<rate>
									<ntsc>TRUE</ntsc>
									<timebase>24</timebase>
								</rate>
								<in>0</in>
								<out>1026</out>
								<start>25739</start>
								<end>26765</end>
								<enabled>FALSE</enabled>
								<masterclipid>ArmA 3 2020.11.28 - 21.32.33.167.mp4</masterclipid>
								<logginginfo>
									<scene />
									<shottake />
									<lognote />
									<good>FALSE</good>
								</logginginfo>
								<labels>
									<label2 />
								</labels>
								<comments>
									<mastercomment1 />
									<mastercomment2 />
									<mastercomment3 />
									<mastercomment4 />
								</comments>
								<file id="ArmA 3 2020.11.28 - 21.32.33.167" />
								<filter>
									<effect>
										<name>Audio Levels</name>
										<effectid>audiolevels</effectid>
										<effectcategory>audiolevels</effectcategory>
										<effecttype>audiolevels</effecttype>
										<mediatype>audio</mediatype>
										<parameter>
											<name>Level</name>
											<parameterid>level</parameterid>
											<valuemin>0</valuemin>
											<valuemax>3,98109</valuemax>
											<value>1</value>
										</parameter>
									</effect>
								</filter>
								<filter>
									<effect>
										<name>Audio Pan</name>
										<effectid>audiopan</effectid>
										<effectcategory>audiopan</effectcategory>
										<effecttype>audiopan</effecttype>
										<mediatype>audio</mediatype>
										<parameter>
											<name>Pan</name>
											<parameterid>pan</parameterid>
											<valuemin>-1</valuemin>
											<valuemax>1</valuemax>
											<value>-1</value>
										</parameter>
									</effect>
								</filter>
								<sourcetrack>
									<mediatype>audio</mediatype>
									<trackindex>1</trackindex>
								</sourcetrack>
								<link>
									<linkclipref>ArmA 3 2020.11.28 - 21.32.33.167.mp4805307661</linkclipref>
								</link>
								<link>
									<linkclipref>ArmA 3 2020.11.28 - 21.32.33.167.mp4536872206</linkclipref>
								</link>
								<link>
									<linkclipref>ArmA 3 2020.11.28 - 21.32.33.167.mp45368722061</linkclipref>
								</link>
								<link>
									<linkclipref>ArmA 3 2020.11.28 - 21.32.33.167.mp4536872207</linkclipref>
								</link>
								<link>
									<linkclipref>ArmA 3 2020.11.28 - 21.32.33.167.mp45368722071</linkclipref>
								</link>
							</clipitem>
						</track>
						<track>
							<clipitem id="ArmA 3 2020.11.28 - 21.09.20.144.mp45368721371">
								<name>ArmA 3 2020.11.28 - 21.09.20.144.mp4</name>
								<duration>593</duration>
								<rate>
									<ntsc>TRUE</ntsc>
									<timebase>24</timebase>
								</rate>
								<in>0</in>
								<out>593</out>
								<start>0</start>
								<end>593</end>
								<enabled>FALSE</enabled>
								<masterclipid>ArmA 3 2020.11.28 - 21.09.20.144.mp4</masterclipid>
								<logginginfo>
									<scene />
									<shottake />
									<lognote />
									<good>FALSE</good>
								</logginginfo>
								<labels>
									<label2 />
								</labels>
								<comments>
									<mastercomment1 />
									<mastercomment2 />
									<mastercomment3 />
									<mastercomment4 />
								</comments>
								<file id="ArmA 3 2020.11.28 - 21.09.20.144" />
								<filter>
									<effect>
										<name>Audio Levels</name>
										<effectid>audiolevels</effectid>
										<effectcategory>audiolevels</effectcategory>
										<effecttype>audiolevels</effecttype>
										<mediatype>audio</mediatype>
										<parameter>
											<name>Level</name>
											<parameterid>level</parameterid>
											<valuemin>0</valuemin>
											<valuemax>3,98109</valuemax>
											<value>1</value>
										</parameter>
									</effect>
								</filter>
								<filter>
									<effect>
										<name>Audio Pan</name>
										<effectid>audiopan</effectid>
										<effectcategory>audiopan</effectcategory>
										<effecttype>audiopan</effecttype>
										<mediatype>audio</mediatype>
										<parameter>
											<name>Pan</name>
											<parameterid>pan</parameterid>
											<valuemin>-1</valuemin>
											<valuemax>1</valuemax>
											<value>1</value>
										</parameter>
									</effect>
								</filter>
								<sourcetrack>
									<mediatype>audio</mediatype>
									<trackindex>2</trackindex>
								</sourcetrack>
								<link>
									<linkclipref>ArmA 3 2020.11.28 - 21.09.20.144.mp4805307592</linkclipref>
								</link>
								<link>
									<linkclipref>ArmA 3 2020.11.28 - 21.09.20.144.mp4536872137</linkclipref>
								</link>
								<link>
									<linkclipref>ArmA 3 2020.11.28 - 21.09.20.144.mp45368721371</linkclipref>
								</link>
								<link>
									<linkclipref>ArmA 3 2020.11.28 - 21.09.20.144.mp4536872138</linkclipref>
								</link>
								<link>
									<linkclipref>ArmA 3 2020.11.28 - 21.09.20.144.mp45368721381</linkclipref>
								</link>
							</clipitem>
							<clipitem id="ArmA 3 2020.11.28 - 21.10.25.145.DVR.mp45368721401">
								<name>ArmA 3 2020.11.28 - 21.10.25.145.DVR.mp4</name>
								<duration>7195</duration>
								<rate>
									<ntsc>TRUE</ntsc>
									<timebase>24</timebase>
								</rate>
								<in>0</in>
								<out>7195</out>
								<start>594</start>
								<end>7789</end>
								<enabled>FALSE</enabled>
								<masterclipid>ArmA 3 2020.11.28 - 21.10.25.145.DVR.mp4</masterclipid>
								<logginginfo>
									<scene />
									<shottake />
									<lognote />
									<good>FALSE</good>
								</logginginfo>
								<labels>
									<label2 />
								</labels>
								<comments>
									<mastercomment1 />
									<mastercomment2 />
									<mastercomment3 />
									<mastercomment4 />
								</comments>
								<file id="ArmA 3 2020.11.28 - 21.10.25.145.DVR" />
								<filter>
									<effect>
										<name>Audio Levels</name>
										<effectid>audiolevels</effectid>
										<effectcategory>audiolevels</effectcategory>
										<effecttype>audiolevels</effecttype>
										<mediatype>audio</mediatype>
										<parameter>
											<name>Level</name>
											<parameterid>level</parameterid>
											<valuemin>0</valuemin>
											<valuemax>3,98109</valuemax>
											<value>1</value>
										</parameter>
									</effect>
								</filter>
								<filter>
									<effect>
										<name>Audio Pan</name>
										<effectid>audiopan</effectid>
										<effectcategory>audiopan</effectcategory>
										<effecttype>audiopan</effecttype>
										<mediatype>audio</mediatype>
										<parameter>
											<name>Pan</name>
											<parameterid>pan</parameterid>
											<valuemin>-1</valuemin>
											<valuemax>1</valuemax>
											<value>1</value>
										</parameter>
									</effect>
								</filter>
								<sourcetrack>
									<mediatype>audio</mediatype>
									<trackindex>2</trackindex>
								</sourcetrack>
								<link>
									<linkclipref>ArmA 3 2020.11.28 - 21.10.25.145.DVR.mp4805307595</linkclipref>
								</link>
								<link>
									<linkclipref>ArmA 3 2020.11.28 - 21.10.25.145.DVR.mp4536872140</linkclipref>
								</link>
								<link>
									<linkclipref>ArmA 3 2020.11.28 - 21.10.25.145.DVR.mp45368721401</linkclipref>
								</link>
								<link>
									<linkclipref>ArmA 3 2020.11.28 - 21.10.25.145.DVR.mp4536872141</linkclipref>
								</link>
								<link>
									<linkclipref>ArmA 3 2020.11.28 - 21.10.25.145.DVR.mp45368721411</linkclipref>
								</link>
							</clipitem>
							<clipitem id="ArmA 3 2020.11.28 - 21.10.28.146.mp45368721431">
								<name>ArmA 3 2020.11.28 - 21.10.28.146.mp4</name>
								<duration>226</duration>
								<rate>
									<ntsc>TRUE</ntsc>
									<timebase>24</timebase>
								</rate>
								<in>0</in>
								<out>226</out>
								<start>7790</start>
								<end>8016</end>
								<enabled>FALSE</enabled>
								<masterclipid>ArmA 3 2020.11.28 - 21.10.28.146.mp4</masterclipid>
								<logginginfo>
									<scene />
									<shottake />
									<lognote />
									<good>FALSE</good>
								</logginginfo>
								<labels>
									<label2 />
								</labels>
								<comments>
									<mastercomment1 />
									<mastercomment2 />
									<mastercomment3 />
									<mastercomment4 />
								</comments>
								<file id="ArmA 3 2020.11.28 - 21.10.28.146" />
								<filter>
									<effect>
										<name>Audio Levels</name>
										<effectid>audiolevels</effectid>
										<effectcategory>audiolevels</effectcategory>
										<effecttype>audiolevels</effecttype>
										<mediatype>audio</mediatype>
										<parameter>
											<name>Level</name>
											<parameterid>level</parameterid>
											<valuemin>0</valuemin>
											<valuemax>3,98109</valuemax>
											<value>1</value>
										</parameter>
									</effect>
								</filter>
								<filter>
									<effect>
										<name>Audio Pan</name>
										<effectid>audiopan</effectid>
										<effectcategory>audiopan</effectcategory>
										<effecttype>audiopan</effecttype>
										<mediatype>audio</mediatype>
										<parameter>
											<name>Pan</name>
											<parameterid>pan</parameterid>
											<valuemin>-1</valuemin>
											<valuemax>1</valuemax>
											<value>1</value>
										</parameter>
									</effect>
								</filter>
								<sourcetrack>
									<mediatype>audio</mediatype>
									<trackindex>2</trackindex>
								</sourcetrack>
								<link>
									<linkclipref>ArmA 3 2020.11.28 - 21.10.28.146.mp4805307598</linkclipref>
								</link>
								<link>
									<linkclipref>ArmA 3 2020.11.28 - 21.10.28.146.mp4536872143</linkclipref>
								</link>
								<link>
									<linkclipref>ArmA 3 2020.11.28 - 21.10.28.146.mp45368721431</linkclipref>
								</link>
								<link>
									<linkclipref>ArmA 3 2020.11.28 - 21.10.28.146.mp4536872144</linkclipref>
								</link>
								<link>
									<linkclipref>ArmA 3 2020.11.28 - 21.10.28.146.mp45368721441</linkclipref>
								</link>
							</clipitem>
							<clipitem id="ArmA 3 2020.11.28 - 21.10.39.147.mp45368721461">
								<name>ArmA 3 2020.11.28 - 21.10.39.147.mp4</name>
								<duration>1154</duration>
								<rate>
									<ntsc>TRUE</ntsc>
									<timebase>24</timebase>
								</rate>
								<in>0</in>
								<out>1154</out>
								<start>8017</start>
								<end>9171</end>
								<enabled>FALSE</enabled>
								<masterclipid>ArmA 3 2020.11.28 - 21.10.39.147.mp4</masterclipid>
								<logginginfo>
									<scene />
									<shottake />
									<lognote />
									<good>FALSE</good>
								</logginginfo>
								<labels>
									<label2 />
								</labels>
								<comments>
									<mastercomment1 />
									<mastercomment2 />
									<mastercomment3 />
									<mastercomment4 />
								</comments>
								<file id="ArmA 3 2020.11.28 - 21.10.39.147" />
								<filter>
									<effect>
										<name>Audio Levels</name>
										<effectid>audiolevels</effectid>
										<effectcategory>audiolevels</effectcategory>
										<effecttype>audiolevels</effecttype>
										<mediatype>audio</mediatype>
										<parameter>
											<name>Level</name>
											<parameterid>level</parameterid>
											<valuemin>0</valuemin>
											<valuemax>3,98109</valuemax>
											<value>1</value>
										</parameter>
									</effect>
								</filter>
								<filter>
									<effect>
										<name>Audio Pan</name>
										<effectid>audiopan</effectid>
										<effectcategory>audiopan</effectcategory>
										<effecttype>audiopan</effecttype>
										<mediatype>audio</mediatype>
										<parameter>
											<name>Pan</name>
											<parameterid>pan</parameterid>
											<valuemin>-1</valuemin>
											<valuemax>1</valuemax>
											<value>1</value>
										</parameter>
									</effect>
								</filter>
								<sourcetrack>
									<mediatype>audio</mediatype>
									<trackindex>2</trackindex>
								</sourcetrack>
								<link>
									<linkclipref>ArmA 3 2020.11.28 - 21.10.39.147.mp4805307601</linkclipref>
								</link>
								<link>
									<linkclipref>ArmA 3 2020.11.28 - 21.10.39.147.mp4536872146</linkclipref>
								</link>
								<link>
									<linkclipref>ArmA 3 2020.11.28 - 21.10.39.147.mp45368721461</linkclipref>
								</link>
								<link>
									<linkclipref>ArmA 3 2020.11.28 - 21.10.39.147.mp4536872147</linkclipref>
								</link>
								<link>
									<linkclipref>ArmA 3 2020.11.28 - 21.10.39.147.mp45368721471</linkclipref>
								</link>
							</clipitem>
							<clipitem id="ArmA 3 2020.11.28 - 21.11.34.148.mp45368721491">
								<name>ArmA 3 2020.11.28 - 21.11.34.148.mp4</name>
								<duration>1118</duration>
								<rate>
									<ntsc>TRUE</ntsc>
									<timebase>24</timebase>
								</rate>
								<in>0</in>
								<out>1118</out>
								<start>9172</start>
								<end>10290</end>
								<enabled>FALSE</enabled>
								<masterclipid>ArmA 3 2020.11.28 - 21.11.34.148.mp4</masterclipid>
								<logginginfo>
									<scene />
									<shottake />
									<lognote />
									<good>FALSE</good>
								</logginginfo>
								<labels>
									<label2 />
								</labels>
								<comments>
									<mastercomment1 />
									<mastercomment2 />
									<mastercomment3 />
									<mastercomment4 />
								</comments>
								<file id="ArmA 3 2020.11.28 - 21.11.34.148" />
								<filter>
									<effect>
										<name>Audio Levels</name>
										<effectid>audiolevels</effectid>
										<effectcategory>audiolevels</effectcategory>
										<effecttype>audiolevels</effecttype>
										<mediatype>audio</mediatype>
										<parameter>
											<name>Level</name>
											<parameterid>level</parameterid>
											<valuemin>0</valuemin>
											<valuemax>3,98109</valuemax>
											<value>1</value>
										</parameter>
									</effect>
								</filter>
								<filter>
									<effect>
										<name>Audio Pan</name>
										<effectid>audiopan</effectid>
										<effectcategory>audiopan</effectcategory>
										<effecttype>audiopan</effecttype>
										<mediatype>audio</mediatype>
										<parameter>
											<name>Pan</name>
											<parameterid>pan</parameterid>
											<valuemin>-1</valuemin>
											<valuemax>1</valuemax>
											<value>1</value>
										</parameter>
									</effect>
								</filter>
								<sourcetrack>
									<mediatype>audio</mediatype>
									<trackindex>2</trackindex>
								</sourcetrack>
								<link>
									<linkclipref>ArmA 3 2020.11.28 - 21.11.34.148.mp4805307604</linkclipref>
								</link>
								<link>
									<linkclipref>ArmA 3 2020.11.28 - 21.11.34.148.mp4536872149</linkclipref>
								</link>
								<link>
									<linkclipref>ArmA 3 2020.11.28 - 21.11.34.148.mp45368721491</linkclipref>
								</link>
								<link>
									<linkclipref>ArmA 3 2020.11.28 - 21.11.34.148.mp4536872150</linkclipref>
								</link>
								<link>
									<linkclipref>ArmA 3 2020.11.28 - 21.11.34.148.mp45368721501</linkclipref>
								</link>
							</clipitem>
							<clipitem id="ArmA 3 2020.11.28 - 21.12.26.149.mp45368721521">
								<name>ArmA 3 2020.11.28 - 21.12.26.149.mp4</name>
								<duration>533</duration>
								<rate>
									<ntsc>TRUE</ntsc>
									<timebase>24</timebase>
								</rate>
								<in>0</in>
								<out>533</out>
								<start>10290</start>
								<end>10823</end>
								<enabled>FALSE</enabled>
								<masterclipid>ArmA 3 2020.11.28 - 21.12.26.149.mp4</masterclipid>
								<logginginfo>
									<scene />
									<shottake />
									<lognote />
									<good>FALSE</good>
								</logginginfo>
								<labels>
									<label2 />
								</labels>
								<comments>
									<mastercomment1 />
									<mastercomment2 />
									<mastercomment3 />
									<mastercomment4 />
								</comments>
								<file id="ArmA 3 2020.11.28 - 21.12.26.149" />
								<filter>
									<effect>
										<name>Audio Levels</name>
										<effectid>audiolevels</effectid>
										<effectcategory>audiolevels</effectcategory>
										<effecttype>audiolevels</effecttype>
										<mediatype>audio</mediatype>
										<parameter>
											<name>Level</name>
											<parameterid>level</parameterid>
											<valuemin>0</valuemin>
											<valuemax>3,98109</valuemax>
											<value>1</value>
										</parameter>
									</effect>
								</filter>
								<filter>
									<effect>
										<name>Audio Pan</name>
										<effectid>audiopan</effectid>
										<effectcategory>audiopan</effectcategory>
										<effecttype>audiopan</effecttype>
										<mediatype>audio</mediatype>
										<parameter>
											<name>Pan</name>
											<parameterid>pan</parameterid>
											<valuemin>-1</valuemin>
											<valuemax>1</valuemax>
											<value>1</value>
										</parameter>
									</effect>
								</filter>
								<sourcetrack>
									<mediatype>audio</mediatype>
									<trackindex>2</trackindex>
								</sourcetrack>
								<link>
									<linkclipref>ArmA 3 2020.11.28 - 21.12.26.149.mp4805307607</linkclipref>
								</link>
								<link>
									<linkclipref>ArmA 3 2020.11.28 - 21.12.26.149.mp4536872152</linkclipref>
								</link>
								<link>
									<linkclipref>ArmA 3 2020.11.28 - 21.12.26.149.mp45368721521</linkclipref>
								</link>
								<link>
									<linkclipref>ArmA 3 2020.11.28 - 21.12.26.149.mp4536872153</linkclipref>
								</link>
								<link>
									<linkclipref>ArmA 3 2020.11.28 - 21.12.26.149.mp45368721531</linkclipref>
								</link>
							</clipitem>
							<clipitem id="ArmA 3 2020.11.28 - 21.13.10.150.mp45368721551">
								<name>ArmA 3 2020.11.28 - 21.13.10.150.mp4</name>
								<duration>803</duration>
								<rate>
									<ntsc>TRUE</ntsc>
									<timebase>24</timebase>
								</rate>
								<in>0</in>
								<out>803</out>
								<start>10824</start>
								<end>11627</end>
								<enabled>FALSE</enabled>
								<masterclipid>ArmA 3 2020.11.28 - 21.13.10.150.mp4</masterclipid>
								<logginginfo>
									<scene />
									<shottake />
									<lognote />
									<good>FALSE</good>
								</logginginfo>
								<labels>
									<label2 />
								</labels>
								<comments>
									<mastercomment1 />
									<mastercomment2 />
									<mastercomment3 />
									<mastercomment4 />
								</comments>
								<file id="ArmA 3 2020.11.28 - 21.13.10.150" />
								<filter>
									<effect>
										<name>Audio Levels</name>
										<effectid>audiolevels</effectid>
										<effectcategory>audiolevels</effectcategory>
										<effecttype>audiolevels</effecttype>
										<mediatype>audio</mediatype>
										<parameter>
											<name>Level</name>
											<parameterid>level</parameterid>
											<valuemin>0</valuemin>
											<valuemax>3,98109</valuemax>
											<value>1</value>
										</parameter>
									</effect>
								</filter>
								<filter>
									<effect>
										<name>Audio Pan</name>
										<effectid>audiopan</effectid>
										<effectcategory>audiopan</effectcategory>
										<effecttype>audiopan</effecttype>
										<mediatype>audio</mediatype>
										<parameter>
											<name>Pan</name>
											<parameterid>pan</parameterid>
											<valuemin>-1</valuemin>
											<valuemax>1</valuemax>
											<value>1</value>
										</parameter>
									</effect>
								</filter>
								<sourcetrack>
									<mediatype>audio</mediatype>
									<trackindex>2</trackindex>
								</sourcetrack>
								<link>
									<linkclipref>ArmA 3 2020.11.28 - 21.13.10.150.mp4805307610</linkclipref>
								</link>
								<link>
									<linkclipref>ArmA 3 2020.11.28 - 21.13.10.150.mp4536872155</linkclipref>
								</link>
								<link>
									<linkclipref>ArmA 3 2020.11.28 - 21.13.10.150.mp45368721551</linkclipref>
								</link>
								<link>
									<linkclipref>ArmA 3 2020.11.28 - 21.13.10.150.mp4536872156</linkclipref>
								</link>
								<link>
									<linkclipref>ArmA 3 2020.11.28 - 21.13.10.150.mp45368721561</linkclipref>
								</link>
							</clipitem>
							<clipitem id="ArmA 3 2020.11.28 - 21.15.17.151.mp45368721581">
								<name>ArmA 3 2020.11.28 - 21.15.17.151.mp4</name>
								<duration>1024</duration>
								<rate>
									<ntsc>TRUE</ntsc>
									<timebase>24</timebase>
								</rate>
								<in>0</in>
								<out>1024</out>
								<start>11628</start>
								<end>12652</end>
								<enabled>FALSE</enabled>
								<masterclipid>ArmA 3 2020.11.28 - 21.15.17.151.mp4</masterclipid>
								<logginginfo>
									<scene />
									<shottake />
									<lognote />
									<good>FALSE</good>
								</logginginfo>
								<labels>
									<label2 />
								</labels>
								<comments>
									<mastercomment1 />
									<mastercomment2 />
									<mastercomment3 />
									<mastercomment4 />
								</comments>
								<file id="ArmA 3 2020.11.28 - 21.15.17.151" />
								<filter>
									<effect>
										<name>Audio Levels</name>
										<effectid>audiolevels</effectid>
										<effectcategory>audiolevels</effectcategory>
										<effecttype>audiolevels</effecttype>
										<mediatype>audio</mediatype>
										<parameter>
											<name>Level</name>
											<parameterid>level</parameterid>
											<valuemin>0</valuemin>
											<valuemax>3,98109</valuemax>
											<value>1</value>
										</parameter>
									</effect>
								</filter>
								<filter>
									<effect>
										<name>Audio Pan</name>
										<effectid>audiopan</effectid>
										<effectcategory>audiopan</effectcategory>
										<effecttype>audiopan</effecttype>
										<mediatype>audio</mediatype>
										<parameter>
											<name>Pan</name>
											<parameterid>pan</parameterid>
											<valuemin>-1</valuemin>
											<valuemax>1</valuemax>
											<value>1</value>
										</parameter>
									</effect>
								</filter>
								<sourcetrack>
									<mediatype>audio</mediatype>
									<trackindex>2</trackindex>
								</sourcetrack>
								<link>
									<linkclipref>ArmA 3 2020.11.28 - 21.15.17.151.mp4805307613</linkclipref>
								</link>
								<link>
									<linkclipref>ArmA 3 2020.11.28 - 21.15.17.151.mp4536872158</linkclipref>
								</link>
								<link>
									<linkclipref>ArmA 3 2020.11.28 - 21.15.17.151.mp45368721581</linkclipref>
								</link>
								<link>
									<linkclipref>ArmA 3 2020.11.28 - 21.15.17.151.mp4536872159</linkclipref>
								</link>
								<link>
									<linkclipref>ArmA 3 2020.11.28 - 21.15.17.151.mp45368721591</linkclipref>
								</link>
							</clipitem>
							<clipitem id="ArmA 3 2020.11.28 - 21.16.08.152.mp45368721611">
								<name>ArmA 3 2020.11.28 - 21.16.08.152.mp4</name>
								<duration>500</duration>
								<rate>
									<ntsc>TRUE</ntsc>
									<timebase>24</timebase>
								</rate>
								<in>0</in>
								<out>500</out>
								<start>12653</start>
								<end>13153</end>
								<enabled>FALSE</enabled>
								<masterclipid>ArmA 3 2020.11.28 - 21.16.08.152.mp4</masterclipid>
								<logginginfo>
									<scene />
									<shottake />
									<lognote />
									<good>FALSE</good>
								</logginginfo>
								<labels>
									<label2 />
								</labels>
								<comments>
									<mastercomment1 />
									<mastercomment2 />
									<mastercomment3 />
									<mastercomment4 />
								</comments>
								<file id="ArmA 3 2020.11.28 - 21.16.08.152" />
								<filter>
									<effect>
										<name>Audio Levels</name>
										<effectid>audiolevels</effectid>
										<effectcategory>audiolevels</effectcategory>
										<effecttype>audiolevels</effecttype>
										<mediatype>audio</mediatype>
										<parameter>
											<name>Level</name>
											<parameterid>level</parameterid>
											<valuemin>0</valuemin>
											<valuemax>3,98109</valuemax>
											<value>1</value>
										</parameter>
									</effect>
								</filter>
								<filter>
									<effect>
										<name>Audio Pan</name>
										<effectid>audiopan</effectid>
										<effectcategory>audiopan</effectcategory>
										<effecttype>audiopan</effecttype>
										<mediatype>audio</mediatype>
										<parameter>
											<name>Pan</name>
											<parameterid>pan</parameterid>
											<valuemin>-1</valuemin>
											<valuemax>1</valuemax>
											<value>1</value>
										</parameter>
									</effect>
								</filter>
								<sourcetrack>
									<mediatype>audio</mediatype>
									<trackindex>2</trackindex>
								</sourcetrack>
								<link>
									<linkclipref>ArmA 3 2020.11.28 - 21.16.08.152.mp4805307616</linkclipref>
								</link>
								<link>
									<linkclipref>ArmA 3 2020.11.28 - 21.16.08.152.mp4536872161</linkclipref>
								</link>
								<link>
									<linkclipref>ArmA 3 2020.11.28 - 21.16.08.152.mp45368721611</linkclipref>
								</link>
								<link>
									<linkclipref>ArmA 3 2020.11.28 - 21.16.08.152.mp4536872162</linkclipref>
								</link>
								<link>
									<linkclipref>ArmA 3 2020.11.28 - 21.16.08.152.mp45368721621</linkclipref>
								</link>
							</clipitem>
							<clipitem id="ArmA 3 2020.11.28 - 21.16.44.153.mp45368721641">
								<name>ArmA 3 2020.11.28 - 21.16.44.153.mp4</name>
								<duration>1280</duration>
								<rate>
									<ntsc>TRUE</ntsc>
									<timebase>24</timebase>
								</rate>
								<in>0</in>
								<out>1280</out>
								<start>13154</start>
								<end>14434</end>
								<enabled>FALSE</enabled>
								<masterclipid>ArmA 3 2020.11.28 - 21.16.44.153.mp4</masterclipid>
								<logginginfo>
									<scene />
									<shottake />
									<lognote />
									<good>FALSE</good>
								</logginginfo>
								<labels>
									<label2 />
								</labels>
								<comments>
									<mastercomment1 />
									<mastercomment2 />
									<mastercomment3 />
									<mastercomment4 />
								</comments>
								<file id="ArmA 3 2020.11.28 - 21.16.44.153" />
								<filter>
									<effect>
										<name>Audio Levels</name>
										<effectid>audiolevels</effectid>
										<effectcategory>audiolevels</effectcategory>
										<effecttype>audiolevels</effecttype>
										<mediatype>audio</mediatype>
										<parameter>
											<name>Level</name>
											<parameterid>level</parameterid>
											<valuemin>0</valuemin>
											<valuemax>3,98109</valuemax>
											<value>1</value>
										</parameter>
									</effect>
								</filter>
								<filter>
									<effect>
										<name>Audio Pan</name>
										<effectid>audiopan</effectid>
										<effectcategory>audiopan</effectcategory>
										<effecttype>audiopan</effecttype>
										<mediatype>audio</mediatype>
										<parameter>
											<name>Pan</name>
											<parameterid>pan</parameterid>
											<valuemin>-1</valuemin>
											<valuemax>1</valuemax>
											<value>1</value>
										</parameter>
									</effect>
								</filter>
								<sourcetrack>
									<mediatype>audio</mediatype>
									<trackindex>2</trackindex>
								</sourcetrack>
								<link>
									<linkclipref>ArmA 3 2020.11.28 - 21.16.44.153.mp4805307619</linkclipref>
								</link>
								<link>
									<linkclipref>ArmA 3 2020.11.28 - 21.16.44.153.mp4536872164</linkclipref>
								</link>
								<link>
									<linkclipref>ArmA 3 2020.11.28 - 21.16.44.153.mp45368721641</linkclipref>
								</link>
								<link>
									<linkclipref>ArmA 3 2020.11.28 - 21.16.44.153.mp4536872165</linkclipref>
								</link>
								<link>
									<linkclipref>ArmA 3 2020.11.28 - 21.16.44.153.mp45368721651</linkclipref>
								</link>
							</clipitem>
							<clipitem id="ArmA 3 2020.11.28 - 21.18.36.154.mp45368721671">
								<name>ArmA 3 2020.11.28 - 21.18.36.154.mp4</name>
								<duration>1079</duration>
								<rate>
									<ntsc>TRUE</ntsc>
									<timebase>24</timebase>
								</rate>
								<in>0</in>
								<out>1079</out>
								<start>14435</start>
								<end>15514</end>
								<enabled>FALSE</enabled>
								<masterclipid>ArmA 3 2020.11.28 - 21.18.36.154.mp4</masterclipid>
								<logginginfo>
									<scene />
									<shottake />
									<lognote />
									<good>FALSE</good>
								</logginginfo>
								<labels>
									<label2 />
								</labels>
								<comments>
									<mastercomment1 />
									<mastercomment2 />
									<mastercomment3 />
									<mastercomment4 />
								</comments>
								<file id="ArmA 3 2020.11.28 - 21.18.36.154" />
								<filter>
									<effect>
										<name>Audio Levels</name>
										<effectid>audiolevels</effectid>
										<effectcategory>audiolevels</effectcategory>
										<effecttype>audiolevels</effecttype>
										<mediatype>audio</mediatype>
										<parameter>
											<name>Level</name>
											<parameterid>level</parameterid>
											<valuemin>0</valuemin>
											<valuemax>3,98109</valuemax>
											<value>1</value>
										</parameter>
									</effect>
								</filter>
								<filter>
									<effect>
										<name>Audio Pan</name>
										<effectid>audiopan</effectid>
										<effectcategory>audiopan</effectcategory>
										<effecttype>audiopan</effecttype>
										<mediatype>audio</mediatype>
										<parameter>
											<name>Pan</name>
											<parameterid>pan</parameterid>
											<valuemin>-1</valuemin>
											<valuemax>1</valuemax>
											<value>1</value>
										</parameter>
									</effect>
								</filter>
								<sourcetrack>
									<mediatype>audio</mediatype>
									<trackindex>2</trackindex>
								</sourcetrack>
								<link>
									<linkclipref>ArmA 3 2020.11.28 - 21.18.36.154.mp4805307622</linkclipref>
								</link>
								<link>
									<linkclipref>ArmA 3 2020.11.28 - 21.18.36.154.mp4536872167</linkclipref>
								</link>
								<link>
									<linkclipref>ArmA 3 2020.11.28 - 21.18.36.154.mp45368721671</linkclipref>
								</link>
								<link>
									<linkclipref>ArmA 3 2020.11.28 - 21.18.36.154.mp4536872168</linkclipref>
								</link>
								<link>
									<linkclipref>ArmA 3 2020.11.28 - 21.18.36.154.mp45368721681</linkclipref>
								</link>
							</clipitem>
							<clipitem id="ArmA 3 2020.11.28 - 21.21.45.155.mp45368721701">
								<name>ArmA 3 2020.11.28 - 21.21.45.155.mp4</name>
								<duration>458</duration>
								<rate>
									<ntsc>TRUE</ntsc>
									<timebase>24</timebase>
								</rate>
								<in>0</in>
								<out>458</out>
								<start>15515</start>
								<end>15973</end>
								<enabled>FALSE</enabled>
								<masterclipid>ArmA 3 2020.11.28 - 21.21.45.155.mp4</masterclipid>
								<logginginfo>
									<scene />
									<shottake />
									<lognote />
									<good>FALSE</good>
								</logginginfo>
								<labels>
									<label2 />
								</labels>
								<comments>
									<mastercomment1 />
									<mastercomment2 />
									<mastercomment3 />
									<mastercomment4 />
								</comments>
								<file id="ArmA 3 2020.11.28 - 21.21.45.155" />
								<filter>
									<effect>
										<name>Audio Levels</name>
										<effectid>audiolevels</effectid>
										<effectcategory>audiolevels</effectcategory>
										<effecttype>audiolevels</effecttype>
										<mediatype>audio</mediatype>
										<parameter>
											<name>Level</name>
											<parameterid>level</parameterid>
											<valuemin>0</valuemin>
											<valuemax>3,98109</valuemax>
											<value>1</value>
										</parameter>
									</effect>
								</filter>
								<filter>
									<effect>
										<name>Audio Pan</name>
										<effectid>audiopan</effectid>
										<effectcategory>audiopan</effectcategory>
										<effecttype>audiopan</effecttype>
										<mediatype>audio</mediatype>
										<parameter>
											<name>Pan</name>
											<parameterid>pan</parameterid>
											<valuemin>-1</valuemin>
											<valuemax>1</valuemax>
											<value>1</value>
										</parameter>
									</effect>
								</filter>
								<sourcetrack>
									<mediatype>audio</mediatype>
									<trackindex>2</trackindex>
								</sourcetrack>
								<link>
									<linkclipref>ArmA 3 2020.11.28 - 21.21.45.155.mp4805307625</linkclipref>
								</link>
								<link>
									<linkclipref>ArmA 3 2020.11.28 - 21.21.45.155.mp4536872170</linkclipref>
								</link>
								<link>
									<linkclipref>ArmA 3 2020.11.28 - 21.21.45.155.mp45368721701</linkclipref>
								</link>
								<link>
									<linkclipref>ArmA 3 2020.11.28 - 21.21.45.155.mp4536872171</linkclipref>
								</link>
								<link>
									<linkclipref>ArmA 3 2020.11.28 - 21.21.45.155.mp45368721711</linkclipref>
								</link>
							</clipitem>
							<clipitem id="ArmA 3 2020.11.28 - 21.23.14.156.mp45368721731">
								<name>ArmA 3 2020.11.28 - 21.23.14.156.mp4</name>
								<duration>289</duration>
								<rate>
									<ntsc>TRUE</ntsc>
									<timebase>24</timebase>
								</rate>
								<in>0</in>
								<out>289</out>
								<start>15974</start>
								<end>16263</end>
								<enabled>FALSE</enabled>
								<masterclipid>ArmA 3 2020.11.28 - 21.23.14.156.mp4</masterclipid>
								<logginginfo>
									<scene />
									<shottake />
									<lognote />
									<good>FALSE</good>
								</logginginfo>
								<labels>
									<label2 />
								</labels>
								<comments>
									<mastercomment1 />
									<mastercomment2 />
									<mastercomment3 />
									<mastercomment4 />
								</comments>
								<file id="ArmA 3 2020.11.28 - 21.23.14.156" />
								<filter>
									<effect>
										<name>Audio Levels</name>
										<effectid>audiolevels</effectid>
										<effectcategory>audiolevels</effectcategory>
										<effecttype>audiolevels</effecttype>
										<mediatype>audio</mediatype>
										<parameter>
											<name>Level</name>
											<parameterid>level</parameterid>
											<valuemin>0</valuemin>
											<valuemax>3,98109</valuemax>
											<value>1</value>
										</parameter>
									</effect>
								</filter>
								<filter>
									<effect>
										<name>Audio Pan</name>
										<effectid>audiopan</effectid>
										<effectcategory>audiopan</effectcategory>
										<effecttype>audiopan</effecttype>
										<mediatype>audio</mediatype>
										<parameter>
											<name>Pan</name>
											<parameterid>pan</parameterid>
											<valuemin>-1</valuemin>
											<valuemax>1</valuemax>
											<value>1</value>
										</parameter>
									</effect>
								</filter>
								<sourcetrack>
									<mediatype>audio</mediatype>
									<trackindex>2</trackindex>
								</sourcetrack>
								<link>
									<linkclipref>ArmA 3 2020.11.28 - 21.23.14.156.mp4805307628</linkclipref>
								</link>
								<link>
									<linkclipref>ArmA 3 2020.11.28 - 21.23.14.156.mp4536872173</linkclipref>
								</link>
								<link>
									<linkclipref>ArmA 3 2020.11.28 - 21.23.14.156.mp45368721731</linkclipref>
								</link>
								<link>
									<linkclipref>ArmA 3 2020.11.28 - 21.23.14.156.mp4536872174</linkclipref>
								</link>
								<link>
									<linkclipref>ArmA 3 2020.11.28 - 21.23.14.156.mp45368721741</linkclipref>
								</link>
							</clipitem>
							<clipitem id="ArmA 3 2020.11.28 - 21.23.42.157.mp45368721761">
								<name>ArmA 3 2020.11.28 - 21.23.42.157.mp4</name>
								<duration>161</duration>
								<rate>
									<ntsc>TRUE</ntsc>
									<timebase>24</timebase>
								</rate>
								<in>0</in>
								<out>161</out>
								<start>16264</start>
								<end>16425</end>
								<enabled>FALSE</enabled>
								<masterclipid>ArmA 3 2020.11.28 - 21.23.42.157.mp4</masterclipid>
								<logginginfo>
									<scene />
									<shottake />
									<lognote />
									<good>FALSE</good>
								</logginginfo>
								<labels>
									<label2 />
								</labels>
								<comments>
									<mastercomment1 />
									<mastercomment2 />
									<mastercomment3 />
									<mastercomment4 />
								</comments>
								<file id="ArmA 3 2020.11.28 - 21.23.42.157" />
								<filter>
									<effect>
										<name>Audio Levels</name>
										<effectid>audiolevels</effectid>
										<effectcategory>audiolevels</effectcategory>
										<effecttype>audiolevels</effecttype>
										<mediatype>audio</mediatype>
										<parameter>
											<name>Level</name>
											<parameterid>level</parameterid>
											<valuemin>0</valuemin>
											<valuemax>3,98109</valuemax>
											<value>1</value>
										</parameter>
									</effect>
								</filter>
								<filter>
									<effect>
										<name>Audio Pan</name>
										<effectid>audiopan</effectid>
										<effectcategory>audiopan</effectcategory>
										<effecttype>audiopan</effecttype>
										<mediatype>audio</mediatype>
										<parameter>
											<name>Pan</name>
											<parameterid>pan</parameterid>
											<valuemin>-1</valuemin>
											<valuemax>1</valuemax>
											<value>1</value>
										</parameter>
									</effect>
								</filter>
								<sourcetrack>
									<mediatype>audio</mediatype>
									<trackindex>2</trackindex>
								</sourcetrack>
								<link>
									<linkclipref>ArmA 3 2020.11.28 - 21.23.42.157.mp4805307631</linkclipref>
								</link>
								<link>
									<linkclipref>ArmA 3 2020.11.28 - 21.23.42.157.mp4536872176</linkclipref>
								</link>
								<link>
									<linkclipref>ArmA 3 2020.11.28 - 21.23.42.157.mp45368721761</linkclipref>
								</link>
								<link>
									<linkclipref>ArmA 3 2020.11.28 - 21.23.42.157.mp4536872177</linkclipref>
								</link>
								<link>
									<linkclipref>ArmA 3 2020.11.28 - 21.23.42.157.mp45368721771</linkclipref>
								</link>
							</clipitem>
							<clipitem id="ArmA 3 2020.11.28 - 21.24.02.158.mp45368721791">
								<name>ArmA 3 2020.11.28 - 21.24.02.158.mp4</name>
								<duration>425</duration>
								<rate>
									<ntsc>TRUE</ntsc>
									<timebase>24</timebase>
								</rate>
								<in>0</in>
								<out>425</out>
								<start>16426</start>
								<end>16851</end>
								<enabled>FALSE</enabled>
								<masterclipid>ArmA 3 2020.11.28 - 21.24.02.158.mp4</masterclipid>
								<logginginfo>
									<scene />
									<shottake />
									<lognote />
									<good>FALSE</good>
								</logginginfo>
								<labels>
									<label2 />
								</labels>
								<comments>
									<mastercomment1 />
									<mastercomment2 />
									<mastercomment3 />
									<mastercomment4 />
								</comments>
								<file id="ArmA 3 2020.11.28 - 21.24.02.158" />
								<filter>
									<effect>
										<name>Audio Levels</name>
										<effectid>audiolevels</effectid>
										<effectcategory>audiolevels</effectcategory>
										<effecttype>audiolevels</effecttype>
										<mediatype>audio</mediatype>
										<parameter>
											<name>Level</name>
											<parameterid>level</parameterid>
											<valuemin>0</valuemin>
											<valuemax>3,98109</valuemax>
											<value>1</value>
										</parameter>
									</effect>
								</filter>
								<filter>
									<effect>
										<name>Audio Pan</name>
										<effectid>audiopan</effectid>
										<effectcategory>audiopan</effectcategory>
										<effecttype>audiopan</effecttype>
										<mediatype>audio</mediatype>
										<parameter>
											<name>Pan</name>
											<parameterid>pan</parameterid>
											<valuemin>-1</valuemin>
											<valuemax>1</valuemax>
											<value>1</value>
										</parameter>
									</effect>
								</filter>
								<sourcetrack>
									<mediatype>audio</mediatype>
									<trackindex>2</trackindex>
								</sourcetrack>
								<link>
									<linkclipref>ArmA 3 2020.11.28 - 21.24.02.158.mp4805307634</linkclipref>
								</link>
								<link>
									<linkclipref>ArmA 3 2020.11.28 - 21.24.02.158.mp4536872179</linkclipref>
								</link>
								<link>
									<linkclipref>ArmA 3 2020.11.28 - 21.24.02.158.mp45368721791</linkclipref>
								</link>
								<link>
									<linkclipref>ArmA 3 2020.11.28 - 21.24.02.158.mp4536872180</linkclipref>
								</link>
								<link>
									<linkclipref>ArmA 3 2020.11.28 - 21.24.02.158.mp45368721801</linkclipref>
								</link>
							</clipitem>
							<clipitem id="ArmA 3 2020.11.28 - 21.24.28.159.mp45368721821">
								<name>ArmA 3 2020.11.28 - 21.24.28.159.mp4</name>
								<duration>114</duration>
								<rate>
									<ntsc>TRUE</ntsc>
									<timebase>24</timebase>
								</rate>
								<in>0</in>
								<out>114</out>
								<start>16852</start>
								<end>16966</end>
								<enabled>FALSE</enabled>
								<masterclipid>ArmA 3 2020.11.28 - 21.24.28.159.mp4</masterclipid>
								<logginginfo>
									<scene />
									<shottake />
									<lognote />
									<good>FALSE</good>
								</logginginfo>
								<labels>
									<label2 />
								</labels>
								<comments>
									<mastercomment1 />
									<mastercomment2 />
									<mastercomment3 />
									<mastercomment4 />
								</comments>
								<file id="ArmA 3 2020.11.28 - 21.24.28.159" />
								<filter>
									<effect>
										<name>Audio Levels</name>
										<effectid>audiolevels</effectid>
										<effectcategory>audiolevels</effectcategory>
										<effecttype>audiolevels</effecttype>
										<mediatype>audio</mediatype>
										<parameter>
											<name>Level</name>
											<parameterid>level</parameterid>
											<valuemin>0</valuemin>
											<valuemax>3,98109</valuemax>
											<value>1</value>
										</parameter>
									</effect>
								</filter>
								<filter>
									<effect>
										<name>Audio Pan</name>
										<effectid>audiopan</effectid>
										<effectcategory>audiopan</effectcategory>
										<effecttype>audiopan</effecttype>
										<mediatype>audio</mediatype>
										<parameter>
											<name>Pan</name>
											<parameterid>pan</parameterid>
											<valuemin>-1</valuemin>
											<valuemax>1</valuemax>
											<value>1</value>
										</parameter>
									</effect>
								</filter>
								<sourcetrack>
									<mediatype>audio</mediatype>
									<trackindex>2</trackindex>
								</sourcetrack>
								<link>
									<linkclipref>ArmA 3 2020.11.28 - 21.24.28.159.mp4805307637</linkclipref>
								</link>
								<link>
									<linkclipref>ArmA 3 2020.11.28 - 21.24.28.159.mp4536872182</linkclipref>
								</link>
								<link>
									<linkclipref>ArmA 3 2020.11.28 - 21.24.28.159.mp45368721821</linkclipref>
								</link>
								<link>
									<linkclipref>ArmA 3 2020.11.28 - 21.24.28.159.mp4536872183</linkclipref>
								</link>
								<link>
									<linkclipref>ArmA 3 2020.11.28 - 21.24.28.159.mp45368721831</linkclipref>
								</link>
							</clipitem>
							<clipitem id="ArmA 3 2020.11.28 - 21.24.48.160.mp45368721851">
								<name>ArmA 3 2020.11.28 - 21.24.48.160.mp4</name>
								<duration>2003</duration>
								<rate>
									<ntsc>TRUE</ntsc>
									<timebase>24</timebase>
								</rate>
								<in>0</in>
								<out>2003</out>
								<start>16967</start>
								<end>18970</end>
								<enabled>FALSE</enabled>
								<masterclipid>ArmA 3 2020.11.28 - 21.24.48.160.mp4</masterclipid>
								<logginginfo>
									<scene />
									<shottake />
									<lognote />
									<good>FALSE</good>
								</logginginfo>
								<labels>
									<label2 />
								</labels>
								<comments>
									<mastercomment1 />
									<mastercomment2 />
									<mastercomment3 />
									<mastercomment4 />
								</comments>
								<file id="ArmA 3 2020.11.28 - 21.24.48.160" />
								<filter>
									<effect>
										<name>Audio Levels</name>
										<effectid>audiolevels</effectid>
										<effectcategory>audiolevels</effectcategory>
										<effecttype>audiolevels</effecttype>
										<mediatype>audio</mediatype>
										<parameter>
											<name>Level</name>
											<parameterid>level</parameterid>
											<valuemin>0</valuemin>
											<valuemax>3,98109</valuemax>
											<value>1</value>
										</parameter>
									</effect>
								</filter>
								<filter>
									<effect>
										<name>Audio Pan</name>
										<effectid>audiopan</effectid>
										<effectcategory>audiopan</effectcategory>
										<effecttype>audiopan</effecttype>
										<mediatype>audio</mediatype>
										<parameter>
											<name>Pan</name>
											<parameterid>pan</parameterid>
											<valuemin>-1</valuemin>
											<valuemax>1</valuemax>
											<value>1</value>
										</parameter>
									</effect>
								</filter>
								<sourcetrack>
									<mediatype>audio</mediatype>
									<trackindex>2</trackindex>
								</sourcetrack>
								<link>
									<linkclipref>ArmA 3 2020.11.28 - 21.24.48.160.mp4805307640</linkclipref>
								</link>
								<link>
									<linkclipref>ArmA 3 2020.11.28 - 21.24.48.160.mp4536872185</linkclipref>
								</link>
								<link>
									<linkclipref>ArmA 3 2020.11.28 - 21.24.48.160.mp45368721851</linkclipref>
								</link>
								<link>
									<linkclipref>ArmA 3 2020.11.28 - 21.24.48.160.mp4536872186</linkclipref>
								</link>
								<link>
									<linkclipref>ArmA 3 2020.11.28 - 21.24.48.160.mp45368721861</linkclipref>
								</link>
							</clipitem>
							<clipitem id="ArmA 3 2020.11.28 - 21.26.19.161.mp45368721881">
								<name>ArmA 3 2020.11.28 - 21.26.19.161.mp4</name>
								<duration>2498</duration>
								<rate>
									<ntsc>TRUE</ntsc>
									<timebase>24</timebase>
								</rate>
								<in>0</in>
								<out>2498</out>
								<start>18971</start>
								<end>21469</end>
								<enabled>FALSE</enabled>
								<masterclipid>ArmA 3 2020.11.28 - 21.26.19.161.mp4</masterclipid>
								<logginginfo>
									<scene />
									<shottake />
									<lognote />
									<good>FALSE</good>
								</logginginfo>
								<labels>
									<label2 />
								</labels>
								<comments>
									<mastercomment1 />
									<mastercomment2 />
									<mastercomment3 />
									<mastercomment4 />
								</comments>
								<file id="ArmA 3 2020.11.28 - 21.26.19.161" />
								<filter>
									<effect>
										<name>Audio Levels</name>
										<effectid>audiolevels</effectid>
										<effectcategory>audiolevels</effectcategory>
										<effecttype>audiolevels</effecttype>
										<mediatype>audio</mediatype>
										<parameter>
											<name>Level</name>
											<parameterid>level</parameterid>
											<valuemin>0</valuemin>
											<valuemax>3,98109</valuemax>
											<value>1</value>
										</parameter>
									</effect>
								</filter>
								<filter>
									<effect>
										<name>Audio Pan</name>
										<effectid>audiopan</effectid>
										<effectcategory>audiopan</effectcategory>
										<effecttype>audiopan</effecttype>
										<mediatype>audio</mediatype>
										<parameter>
											<name>Pan</name>
											<parameterid>pan</parameterid>
											<valuemin>-1</valuemin>
											<valuemax>1</valuemax>
											<value>1</value>
										</parameter>
									</effect>
								</filter>
								<sourcetrack>
									<mediatype>audio</mediatype>
									<trackindex>2</trackindex>
								</sourcetrack>
								<link>
									<linkclipref>ArmA 3 2020.11.28 - 21.26.19.161.mp4805307643</linkclipref>
								</link>
								<link>
									<linkclipref>ArmA 3 2020.11.28 - 21.26.19.161.mp4536872188</linkclipref>
								</link>
								<link>
									<linkclipref>ArmA 3 2020.11.28 - 21.26.19.161.mp45368721881</linkclipref>
								</link>
								<link>
									<linkclipref>ArmA 3 2020.11.28 - 21.26.19.161.mp4536872189</linkclipref>
								</link>
								<link>
									<linkclipref>ArmA 3 2020.11.28 - 21.26.19.161.mp45368721891</linkclipref>
								</link>
							</clipitem>
							<clipitem id="ArmA 3 2020.11.28 - 21.28.04.162.mp45368721911">
								<name>ArmA 3 2020.11.28 - 21.28.04.162.mp4</name>
								<duration>1150</duration>
								<rate>
									<ntsc>TRUE</ntsc>
									<timebase>24</timebase>
								</rate>
								<in>0</in>
								<out>1150</out>
								<start>21470</start>
								<end>22620</end>
								<enabled>FALSE</enabled>
								<masterclipid>ArmA 3 2020.11.28 - 21.28.04.162.mp4</masterclipid>
								<logginginfo>
									<scene />
									<shottake />
									<lognote />
									<good>FALSE</good>
								</logginginfo>
								<labels>
									<label2 />
								</labels>
								<comments>
									<mastercomment1 />
									<mastercomment2 />
									<mastercomment3 />
									<mastercomment4 />
								</comments>
								<file id="ArmA 3 2020.11.28 - 21.28.04.162" />
								<filter>
									<effect>
										<name>Audio Levels</name>
										<effectid>audiolevels</effectid>
										<effectcategory>audiolevels</effectcategory>
										<effecttype>audiolevels</effecttype>
										<mediatype>audio</mediatype>
										<parameter>
											<name>Level</name>
											<parameterid>level</parameterid>
											<valuemin>0</valuemin>
											<valuemax>3,98109</valuemax>
											<value>1</value>
										</parameter>
									</effect>
								</filter>
								<filter>
									<effect>
										<name>Audio Pan</name>
										<effectid>audiopan</effectid>
										<effectcategory>audiopan</effectcategory>
										<effecttype>audiopan</effecttype>
										<mediatype>audio</mediatype>
										<parameter>
											<name>Pan</name>
											<parameterid>pan</parameterid>
											<valuemin>-1</valuemin>
											<valuemax>1</valuemax>
											<value>1</value>
										</parameter>
									</effect>
								</filter>
								<sourcetrack>
									<mediatype>audio</mediatype>
									<trackindex>2</trackindex>
								</sourcetrack>
								<link>
									<linkclipref>ArmA 3 2020.11.28 - 21.28.04.162.mp4805307646</linkclipref>
								</link>
								<link>
									<linkclipref>ArmA 3 2020.11.28 - 21.28.04.162.mp4536872191</linkclipref>
								</link>
								<link>
									<linkclipref>ArmA 3 2020.11.28 - 21.28.04.162.mp45368721911</linkclipref>
								</link>
								<link>
									<linkclipref>ArmA 3 2020.11.28 - 21.28.04.162.mp4536872192</linkclipref>
								</link>
								<link>
									<linkclipref>ArmA 3 2020.11.28 - 21.28.04.162.mp45368721921</linkclipref>
								</link>
							</clipitem>
							<clipitem id="ArmA 3 2020.11.28 - 21.29.07.163.mp45368721941">
								<name>ArmA 3 2020.11.28 - 21.29.07.163.mp4</name>
								<duration>407</duration>
								<rate>
									<ntsc>TRUE</ntsc>
									<timebase>24</timebase>
								</rate>
								<in>0</in>
								<out>407</out>
								<start>22621</start>
								<end>23028</end>
								<enabled>FALSE</enabled>
								<masterclipid>ArmA 3 2020.11.28 - 21.29.07.163.mp4</masterclipid>
								<logginginfo>
									<scene />
									<shottake />
									<lognote />
									<good>FALSE</good>
								</logginginfo>
								<labels>
									<label2 />
								</labels>
								<comments>
									<mastercomment1 />
									<mastercomment2 />
									<mastercomment3 />
									<mastercomment4 />
								</comments>
								<file id="ArmA 3 2020.11.28 - 21.29.07.163" />
								<filter>
									<effect>
										<name>Audio Levels</name>
										<effectid>audiolevels</effectid>
										<effectcategory>audiolevels</effectcategory>
										<effecttype>audiolevels</effecttype>
										<mediatype>audio</mediatype>
										<parameter>
											<name>Level</name>
											<parameterid>level</parameterid>
											<valuemin>0</valuemin>
											<valuemax>3,98109</valuemax>
											<value>1</value>
										</parameter>
									</effect>
								</filter>
								<filter>
									<effect>
										<name>Audio Pan</name>
										<effectid>audiopan</effectid>
										<effectcategory>audiopan</effectcategory>
										<effecttype>audiopan</effecttype>
										<mediatype>audio</mediatype>
										<parameter>
											<name>Pan</name>
											<parameterid>pan</parameterid>
											<valuemin>-1</valuemin>
											<valuemax>1</valuemax>
											<value>1</value>
										</parameter>
									</effect>
								</filter>
								<sourcetrack>
									<mediatype>audio</mediatype>
									<trackindex>2</trackindex>
								</sourcetrack>
								<link>
									<linkclipref>ArmA 3 2020.11.28 - 21.29.07.163.mp4805307649</linkclipref>
								</link>
								<link>
									<linkclipref>ArmA 3 2020.11.28 - 21.29.07.163.mp4536872194</linkclipref>
								</link>
								<link>
									<linkclipref>ArmA 3 2020.11.28 - 21.29.07.163.mp45368721941</linkclipref>
								</link>
								<link>
									<linkclipref>ArmA 3 2020.11.28 - 21.29.07.163.mp4536872195</linkclipref>
								</link>
								<link>
									<linkclipref>ArmA 3 2020.11.28 - 21.29.07.163.mp45368721951</linkclipref>
								</link>
							</clipitem>
							<clipitem id="ArmA 3 2020.11.28 - 21.29.46.164.mp45368721971">
								<name>ArmA 3 2020.11.28 - 21.29.46.164.mp4</name>
								<duration>1238</duration>
								<rate>
									<ntsc>TRUE</ntsc>
									<timebase>24</timebase>
								</rate>
								<in>0</in>
								<out>1238</out>
								<start>23029</start>
								<end>24267</end>
								<enabled>FALSE</enabled>
								<masterclipid>ArmA 3 2020.11.28 - 21.29.46.164.mp4</masterclipid>
								<logginginfo>
									<scene />
									<shottake />
									<lognote />
									<good>FALSE</good>
								</logginginfo>
								<labels>
									<label2 />
								</labels>
								<comments>
									<mastercomment1 />
									<mastercomment2 />
									<mastercomment3 />
									<mastercomment4 />
								</comments>
								<file id="ArmA 3 2020.11.28 - 21.29.46.164" />
								<filter>
									<effect>
										<name>Audio Levels</name>
										<effectid>audiolevels</effectid>
										<effectcategory>audiolevels</effectcategory>
										<effecttype>audiolevels</effecttype>
										<mediatype>audio</mediatype>
										<parameter>
											<name>Level</name>
											<parameterid>level</parameterid>
											<valuemin>0</valuemin>
											<valuemax>3,98109</valuemax>
											<value>1</value>
										</parameter>
									</effect>
								</filter>
								<filter>
									<effect>
										<name>Audio Pan</name>
										<effectid>audiopan</effectid>
										<effectcategory>audiopan</effectcategory>
										<effecttype>audiopan</effecttype>
										<mediatype>audio</mediatype>
										<parameter>
											<name>Pan</name>
											<parameterid>pan</parameterid>
											<valuemin>-1</valuemin>
											<valuemax>1</valuemax>
											<value>1</value>
										</parameter>
									</effect>
								</filter>
								<sourcetrack>
									<mediatype>audio</mediatype>
									<trackindex>2</trackindex>
								</sourcetrack>
								<link>
									<linkclipref>ArmA 3 2020.11.28 - 21.29.46.164.mp4805307652</linkclipref>
								</link>
								<link>
									<linkclipref>ArmA 3 2020.11.28 - 21.29.46.164.mp4536872197</linkclipref>
								</link>
								<link>
									<linkclipref>ArmA 3 2020.11.28 - 21.29.46.164.mp45368721971</linkclipref>
								</link>
								<link>
									<linkclipref>ArmA 3 2020.11.28 - 21.29.46.164.mp4536872198</linkclipref>
								</link>
								<link>
									<linkclipref>ArmA 3 2020.11.28 - 21.29.46.164.mp45368721981</linkclipref>
								</link>
							</clipitem>
							<clipitem id="ArmA 3 2020.11.28 - 21.31.14.165.mp45368722001">
								<name>ArmA 3 2020.11.28 - 21.31.14.165.mp4</name>
								<duration>759</duration>
								<rate>
									<ntsc>TRUE</ntsc>
									<timebase>24</timebase>
								</rate>
								<in>0</in>
								<out>759</out>
								<start>24268</start>
								<end>25027</end>
								<enabled>FALSE</enabled>
								<masterclipid>ArmA 3 2020.11.28 - 21.31.14.165.mp4</masterclipid>
								<logginginfo>
									<scene />
									<shottake />
									<lognote />
									<good>FALSE</good>
								</logginginfo>
								<labels>
									<label2 />
								</labels>
								<comments>
									<mastercomment1 />
									<mastercomment2 />
									<mastercomment3 />
									<mastercomment4 />
								</comments>
								<file id="ArmA 3 2020.11.28 - 21.31.14.165" />
								<filter>
									<effect>
										<name>Audio Levels</name>
										<effectid>audiolevels</effectid>
										<effectcategory>audiolevels</effectcategory>
										<effecttype>audiolevels</effecttype>
										<mediatype>audio</mediatype>
										<parameter>
											<name>Level</name>
											<parameterid>level</parameterid>
											<valuemin>0</valuemin>
											<valuemax>3,98109</valuemax>
											<value>1</value>
										</parameter>
									</effect>
								</filter>
								<filter>
									<effect>
										<name>Audio Pan</name>
										<effectid>audiopan</effectid>
										<effectcategory>audiopan</effectcategory>
										<effecttype>audiopan</effecttype>
										<mediatype>audio</mediatype>
										<parameter>
											<name>Pan</name>
											<parameterid>pan</parameterid>
											<valuemin>-1</valuemin>
											<valuemax>1</valuemax>
											<value>1</value>
										</parameter>
									</effect>
								</filter>
								<sourcetrack>
									<mediatype>audio</mediatype>
									<trackindex>2</trackindex>
								</sourcetrack>
								<link>
									<linkclipref>ArmA 3 2020.11.28 - 21.31.14.165.mp4805307655</linkclipref>
								</link>
								<link>
									<linkclipref>ArmA 3 2020.11.28 - 21.31.14.165.mp4536872200</linkclipref>
								</link>
								<link>
									<linkclipref>ArmA 3 2020.11.28 - 21.31.14.165.mp45368722001</linkclipref>
								</link>
								<link>
									<linkclipref>ArmA 3 2020.11.28 - 21.31.14.165.mp4536872201</linkclipref>
								</link>
								<link>
									<linkclipref>ArmA 3 2020.11.28 - 21.31.14.165.mp45368722011</linkclipref>
								</link>
							</clipitem>
							<clipitem id="ArmA 3 2020.11.28 - 21.31.58.166.mp45368722031">
								<name>ArmA 3 2020.11.28 - 21.31.58.166.mp4</name>
								<duration>710</duration>
								<rate>
									<ntsc>TRUE</ntsc>
									<timebase>24</timebase>
								</rate>
								<in>0</in>
								<out>710</out>
								<start>25028</start>
								<end>25738</end>
								<enabled>FALSE</enabled>
								<masterclipid>ArmA 3 2020.11.28 - 21.31.58.166.mp4</masterclipid>
								<logginginfo>
									<scene />
									<shottake />
									<lognote />
									<good>FALSE</good>
								</logginginfo>
								<labels>
									<label2 />
								</labels>
								<comments>
									<mastercomment1 />
									<mastercomment2 />
									<mastercomment3 />
									<mastercomment4 />
								</comments>
								<file id="ArmA 3 2020.11.28 - 21.31.58.166" />
								<filter>
									<effect>
										<name>Audio Levels</name>
										<effectid>audiolevels</effectid>
										<effectcategory>audiolevels</effectcategory>
										<effecttype>audiolevels</effecttype>
										<mediatype>audio</mediatype>
										<parameter>
											<name>Level</name>
											<parameterid>level</parameterid>
											<valuemin>0</valuemin>
											<valuemax>3,98109</valuemax>
											<value>1</value>
										</parameter>
									</effect>
								</filter>
								<filter>
									<effect>
										<name>Audio Pan</name>
										<effectid>audiopan</effectid>
										<effectcategory>audiopan</effectcategory>
										<effecttype>audiopan</effecttype>
										<mediatype>audio</mediatype>
										<parameter>
											<name>Pan</name>
											<parameterid>pan</parameterid>
											<valuemin>-1</valuemin>
											<valuemax>1</valuemax>
											<value>1</value>
										</parameter>
									</effect>
								</filter>
								<sourcetrack>
									<mediatype>audio</mediatype>
									<trackindex>2</trackindex>
								</sourcetrack>
								<link>
									<linkclipref>ArmA 3 2020.11.28 - 21.31.58.166.mp4805307658</linkclipref>
								</link>
								<link>
									<linkclipref>ArmA 3 2020.11.28 - 21.31.58.166.mp4536872203</linkclipref>
								</link>
								<link>
									<linkclipref>ArmA 3 2020.11.28 - 21.31.58.166.mp45368722031</linkclipref>
								</link>
								<link>
									<linkclipref>ArmA 3 2020.11.28 - 21.31.58.166.mp4536872204</linkclipref>
								</link>
								<link>
									<linkclipref>ArmA 3 2020.11.28 - 21.31.58.166.mp45368722041</linkclipref>
								</link>
							</clipitem>
							<clipitem id="ArmA 3 2020.11.28 - 21.32.33.167.mp45368722061">
								<name>ArmA 3 2020.11.28 - 21.32.33.167.mp4</name>
								<duration>1026</duration>
								<rate>
									<ntsc>TRUE</ntsc>
									<timebase>24</timebase>
								</rate>
								<in>0</in>
								<out>1026</out>
								<start>25739</start>
								<end>26765</end>
								<enabled>FALSE</enabled>
								<masterclipid>ArmA 3 2020.11.28 - 21.32.33.167.mp4</masterclipid>
								<logginginfo>
									<scene />
									<shottake />
									<lognote />
									<good>FALSE</good>
								</logginginfo>
								<labels>
									<label2 />
								</labels>
								<comments>
									<mastercomment1 />
									<mastercomment2 />
									<mastercomment3 />
									<mastercomment4 />
								</comments>
								<file id="ArmA 3 2020.11.28 - 21.32.33.167" />
								<filter>
									<effect>
										<name>Audio Levels</name>
										<effectid>audiolevels</effectid>
										<effectcategory>audiolevels</effectcategory>
										<effecttype>audiolevels</effecttype>
										<mediatype>audio</mediatype>
										<parameter>
											<name>Level</name>
											<parameterid>level</parameterid>
											<valuemin>0</valuemin>
											<valuemax>3,98109</valuemax>
											<value>1</value>
										</parameter>
									</effect>
								</filter>
								<filter>
									<effect>
										<name>Audio Pan</name>
										<effectid>audiopan</effectid>
										<effectcategory>audiopan</effectcategory>
										<effecttype>audiopan</effecttype>
										<mediatype>audio</mediatype>
										<parameter>
											<name>Pan</name>
											<parameterid>pan</parameterid>
											<valuemin>-1</valuemin>
											<valuemax>1</valuemax>
											<value>1</value>
										</parameter>
									</effect>
								</filter>
								<sourcetrack>
									<mediatype>audio</mediatype>
									<trackindex>2</trackindex>
								</sourcetrack>
								<link>
									<linkclipref>ArmA 3 2020.11.28 - 21.32.33.167.mp4805307661</linkclipref>
								</link>
								<link>
									<linkclipref>ArmA 3 2020.11.28 - 21.32.33.167.mp4536872206</linkclipref>
								</link>
								<link>
									<linkclipref>ArmA 3 2020.11.28 - 21.32.33.167.mp45368722061</linkclipref>
								</link>
								<link>
									<linkclipref>ArmA 3 2020.11.28 - 21.32.33.167.mp4536872207</linkclipref>
								</link>
								<link>
									<linkclipref>ArmA 3 2020.11.28 - 21.32.33.167.mp45368722071</linkclipref>
								</link>
							</clipitem>
						</track>
					</audio>
				</media>
			</sequence>
		</children>
	</project>
</xmeml>