<?xml version="1.0"?>
<xmeml version="5">
	<project>
		<name>Untitled Project 1</name>
		<children>
			<bin>
				<updatebehavior>add</updatebehavior>
				<name>Custom Bins</name>
				<children>
					<bin>
						<updatebehavior>add</updatebehavior>
						<name>PR_SCENE20</name>
						<children>
							<clip id="ArmA 3 2020.11.28 - 20.26.45.120.mp4">
								<updatebehavior>add</updatebehavior>
								<name>ArmA 3 2020.11.28 - 20.26.45.120.mp4</name>
								<duration>443</duration>
								<rate>
									<ntsc>FALSE</ntsc>
									<timebase>60</timebase>
								</rate>
								<in>-1</in>
								<out>-1</out>
								<masterclipid>ArmA 3 2020.11.28 - 20.26.45.120.mp4</masterclipid>
								<ismasterclip>TRUE</ismasterclip>
								<logginginfo>
									<scene />
									<shottake />
									<lognote />
									<good>FALSE</good>
								</logginginfo>
								<labels>
									<label2 />
								</labels>
								<comments>
									<mastercomment1 />
									<mastercomment2 />
									<mastercomment3 />
									<mastercomment4 />
								</comments>
								<media>
									<video>
										<track>
											<clipitem id="ArmA 3 2020.11.28 - 20.26.45.120.mp41">
												<name>ArmA 3 2020.11.28 - 20.26.45.120.mp4</name>
												<duration>443</duration>
												<rate>
													<ntsc>FALSE</ntsc>
													<timebase>60</timebase>
												</rate>
												<in>0</in>
												<out>443</out>
												<start>0</start>
												<end>443</end>
												<pixelaspectratio>Square</pixelaspectratio>
												<anamorphic>FALSE</anamorphic>
												<alphatype>none</alphatype>
												<masterclipid>ArmA 3 2020.11.28 - 20.26.45.120.mp4</masterclipid>
												<logginginfo>
													<scene />
													<shottake />
													<lognote />
													<good>FALSE</good>
												</logginginfo>
												<labels>
													<label2 />
												</labels>
												<comments>
													<mastercomment1 />
													<mastercomment2 />
													<mastercomment3 />
													<mastercomment4 />
												</comments>
												<file id="ArmA 3 2020.11.28 - 20.26.45.120">
													<name>ArmA 3 2020.11.28 - 20.26.45.120.mp4</name>
													<pathurl>file://localhost/F:/AMVS Russia/NaturaDestruction/PRPACK6/ArmA 3 2020.11.28 - 20.26.45.120.mp4</pathurl>
													<rate>
														<timebase>60</timebase>
														<ntsc>FALSE</ntsc>
													</rate>
													<duration>443</duration>
													<timecode>
														<rate>
															<timebase>60</timebase>
															<ntsc>FALSE</ntsc>
														</rate>
														<frame>0</frame>
														<displayformat>NDF</displayformat>
														<source>source</source>
													</timecode>
													<media>
														<video>
															<duration>443</duration>
															<samplecharacteristics>
																<width>1920</width>
																<height>1080</height>
															</samplecharacteristics>
														</video>
														<audio>
															<samplecharacteristics>
																<samplerate>48000</samplerate>
																<depth>32</depth>
															</samplecharacteristics>
															<channelcount>1</channelcount>
														</audio>
														<audio>
															<samplecharacteristics>
																<samplerate>48000</samplerate>
																<depth>32</depth>
															</samplecharacteristics>
															<channelcount>1</channelcount>
														</audio>
													</media>
												</file>
												<sourcetrack>
													<mediatype>video</mediatype>
												</sourcetrack>
												<fielddominance>none</fielddominance>
											</clipitem>
											<enabled>TRUE</enabled>
											<locked>FALSE</locked>
										</track>
									</video>
									<audio>
										<track>
											<clipitem id="ArmA 3 2020.11.28 - 20.26.45.120.mp42">
												<name>ArmA 3 2020.11.28 - 20.26.45.120.mp4</name>
												<duration>443</duration>
												<rate>
													<ntsc>TRUE</ntsc>
													<timebase>24</timebase>
												</rate>
												<in>0</in>
												<out>443</out>
												<start>0</start>
												<end>443</end>
												<masterclipid>ArmA 3 2020.11.28 - 20.26.45.120.mp4</masterclipid>
												<logginginfo>
													<scene />
													<shottake />
													<lognote />
													<good>FALSE</good>
												</logginginfo>
												<labels>
													<label2 />
												</labels>
												<comments>
													<mastercomment1 />
													<mastercomment2 />
													<mastercomment3 />
													<mastercomment4 />
												</comments>
												<file id="ArmA 3 2020.11.28 - 20.26.45.120" />
												<sourcetrack>
													<mediatype>audio</mediatype>
												</sourcetrack>
											</clipitem>
											<enabled>TRUE</enabled>
											<locked>FALSE</locked>
										</track>
										<track>
											<clipitem id="ArmA 3 2020.11.28 - 20.26.45.120.mp43">
												<name>ArmA 3 2020.11.28 - 20.26.45.120.mp4</name>
												<duration>443</duration>
												<rate>
													<ntsc>TRUE</ntsc>
													<timebase>24</timebase>
												</rate>
												<in>0</in>
												<out>443</out>
												<start>0</start>
												<end>443</end>
												<masterclipid>ArmA 3 2020.11.28 - 20.26.45.120.mp4</masterclipid>
												<logginginfo>
													<scene />
													<shottake />
													<lognote />
													<good>FALSE</good>
												</logginginfo>
												<labels>
													<label2 />
												</labels>
												<comments>
													<mastercomment1 />
													<mastercomment2 />
													<mastercomment3 />
													<mastercomment4 />
												</comments>
												<file id="ArmA 3 2020.11.28 - 20.26.45.120" />
												<sourcetrack>
													<mediatype>audio</mediatype>
												</sourcetrack>
											</clipitem>
											<enabled>TRUE</enabled>
											<locked>FALSE</locked>
										</track>
									</audio>
								</media>
							</clip>
							<clip id="ArmA 3 2020.11.28 - 20.27.22.121.mp4">
								<updatebehavior>add</updatebehavior>
								<name>ArmA 3 2020.11.28 - 20.27.22.121.mp4</name>
								<duration>412</duration>
								<rate>
									<ntsc>FALSE</ntsc>
									<timebase>60</timebase>
								</rate>
								<in>-1</in>
								<out>-1</out>
								<masterclipid>ArmA 3 2020.11.28 - 20.27.22.121.mp4</masterclipid>
								<ismasterclip>TRUE</ismasterclip>
								<logginginfo>
									<scene />
									<shottake />
									<lognote />
									<good>FALSE</good>
								</logginginfo>
								<labels>
									<label2 />
								</labels>
								<comments>
									<mastercomment1 />
									<mastercomment2 />
									<mastercomment3 />
									<mastercomment4 />
								</comments>
								<media>
									<video>
										<track>
											<clipitem id="ArmA 3 2020.11.28 - 20.27.22.121.mp41">
												<name>ArmA 3 2020.11.28 - 20.27.22.121.mp4</name>
												<duration>412</duration>
												<rate>
													<ntsc>FALSE</ntsc>
													<timebase>60</timebase>
												</rate>
												<in>0</in>
												<out>412</out>
												<start>0</start>
												<end>412</end>
												<pixelaspectratio>Square</pixelaspectratio>
												<anamorphic>FALSE</anamorphic>
												<alphatype>none</alphatype>
												<masterclipid>ArmA 3 2020.11.28 - 20.27.22.121.mp4</masterclipid>
												<logginginfo>
													<scene />
													<shottake />
													<lognote />
													<good>FALSE</good>
												</logginginfo>
												<labels>
													<label2 />
												</labels>
												<comments>
													<mastercomment1 />
													<mastercomment2 />
													<mastercomment3 />
													<mastercomment4 />
												</comments>
												<file id="ArmA 3 2020.11.28 - 20.27.22.121">
													<name>ArmA 3 2020.11.28 - 20.27.22.121.mp4</name>
													<pathurl>file://localhost/F:/AMVS Russia/NaturaDestruction/PRPACK7/ArmA 3 2020.11.28 - 20.27.22.121.mp4</pathurl>
													<rate>
														<timebase>60</timebase>
														<ntsc>FALSE</ntsc>
													</rate>
													<duration>412</duration>
													<timecode>
														<rate>
															<timebase>60</timebase>
															<ntsc>FALSE</ntsc>
														</rate>
														<frame>0</frame>
														<displayformat>NDF</displayformat>
														<source>source</source>
													</timecode>
													<media>
														<video>
															<duration>412</duration>
															<samplecharacteristics>
																<width>1920</width>
																<height>1080</height>
															</samplecharacteristics>
														</video>
														<audio>
															<samplecharacteristics>
																<samplerate>48000</samplerate>
																<depth>32</depth>
															</samplecharacteristics>
															<channelcount>1</channelcount>
														</audio>
														<audio>
															<samplecharacteristics>
																<samplerate>48000</samplerate>
																<depth>32</depth>
															</samplecharacteristics>
															<channelcount>1</channelcount>
														</audio>
													</media>
												</file>
												<sourcetrack>
													<mediatype>video</mediatype>
												</sourcetrack>
												<fielddominance>none</fielddominance>
											</clipitem>
											<enabled>TRUE</enabled>
											<locked>FALSE</locked>
										</track>
									</video>
									<audio>
										<track>
											<clipitem id="ArmA 3 2020.11.28 - 20.27.22.121.mp42">
												<name>ArmA 3 2020.11.28 - 20.27.22.121.mp4</name>
												<duration>412</duration>
												<rate>
													<ntsc>TRUE</ntsc>
													<timebase>24</timebase>
												</rate>
												<in>0</in>
												<out>412</out>
												<start>0</start>
												<end>412</end>
												<masterclipid>ArmA 3 2020.11.28 - 20.27.22.121.mp4</masterclipid>
												<logginginfo>
													<scene />
													<shottake />
													<lognote />
													<good>FALSE</good>
												</logginginfo>
												<labels>
													<label2 />
												</labels>
												<comments>
													<mastercomment1 />
													<mastercomment2 />
													<mastercomment3 />
													<mastercomment4 />
												</comments>
												<file id="ArmA 3 2020.11.28 - 20.27.22.121" />
												<sourcetrack>
													<mediatype>audio</mediatype>
												</sourcetrack>
											</clipitem>
											<enabled>TRUE</enabled>
											<locked>FALSE</locked>
										</track>
										<track>
											<clipitem id="ArmA 3 2020.11.28 - 20.27.22.121.mp43">
												<name>ArmA 3 2020.11.28 - 20.27.22.121.mp4</name>
												<duration>412</duration>
												<rate>
													<ntsc>TRUE</ntsc>
													<timebase>24</timebase>
												</rate>
												<in>0</in>
												<out>412</out>
												<start>0</start>
												<end>412</end>
												<masterclipid>ArmA 3 2020.11.28 - 20.27.22.121.mp4</masterclipid>
												<logginginfo>
													<scene />
													<shottake />
													<lognote />
													<good>FALSE</good>
												</logginginfo>
												<labels>
													<label2 />
												</labels>
												<comments>
													<mastercomment1 />
													<mastercomment2 />
													<mastercomment3 />
													<mastercomment4 />
												</comments>
												<file id="ArmA 3 2020.11.28 - 20.27.22.121" />
												<sourcetrack>
													<mediatype>audio</mediatype>
												</sourcetrack>
											</clipitem>
											<enabled>TRUE</enabled>
											<locked>FALSE</locked>
										</track>
									</audio>
								</media>
							</clip>
							<clip id="ArmA 3 2020.11.28 - 20.28.12.122.mp4">
								<updatebehavior>add</updatebehavior>
								<name>ArmA 3 2020.11.28 - 20.28.12.122.mp4</name>
								<duration>354</duration>
								<rate>
									<ntsc>FALSE</ntsc>
									<timebase>60</timebase>
								</rate>
								<in>-1</in>
								<out>-1</out>
								<masterclipid>ArmA 3 2020.11.28 - 20.28.12.122.mp4</masterclipid>
								<ismasterclip>TRUE</ismasterclip>
								<logginginfo>
									<scene />
									<shottake />
									<lognote />
									<good>FALSE</good>
								</logginginfo>
								<labels>
									<label2 />
								</labels>
								<comments>
									<mastercomment1 />
									<mastercomment2 />
									<mastercomment3 />
									<mastercomment4 />
								</comments>
								<media>
									<video>
										<track>
											<clipitem id="ArmA 3 2020.11.28 - 20.28.12.122.mp41">
												<name>ArmA 3 2020.11.28 - 20.28.12.122.mp4</name>
												<duration>354</duration>
												<rate>
													<ntsc>FALSE</ntsc>
													<timebase>60</timebase>
												</rate>
												<in>0</in>
												<out>354</out>
												<start>0</start>
												<end>354</end>
												<pixelaspectratio>Square</pixelaspectratio>
												<anamorphic>FALSE</anamorphic>
												<alphatype>none</alphatype>
												<masterclipid>ArmA 3 2020.11.28 - 20.28.12.122.mp4</masterclipid>
												<logginginfo>
													<scene />
													<shottake />
													<lognote />
													<good>FALSE</good>
												</logginginfo>
												<labels>
													<label2 />
												</labels>
												<comments>
													<mastercomment1 />
													<mastercomment2 />
													<mastercomment3 />
													<mastercomment4 />
												</comments>
												<file id="ArmA 3 2020.11.28 - 20.28.12.122">
													<name>ArmA 3 2020.11.28 - 20.28.12.122.mp4</name>
													<pathurl>file://localhost/F:/AMVS Russia/NaturaDestruction/PRPACK7/ArmA 3 2020.11.28 - 20.28.12.122.mp4</pathurl>
													<rate>
														<timebase>60</timebase>
														<ntsc>FALSE</ntsc>
													</rate>
													<duration>354</duration>
													<timecode>
														<rate>
															<timebase>60</timebase>
															<ntsc>FALSE</ntsc>
														</rate>
														<frame>0</frame>
														<displayformat>NDF</displayformat>
														<source>source</source>
													</timecode>
													<media>
														<video>
															<duration>354</duration>
															<samplecharacteristics>
																<width>1920</width>
																<height>1080</height>
															</samplecharacteristics>
														</video>
														<audio>
															<samplecharacteristics>
																<samplerate>48000</samplerate>
																<depth>32</depth>
															</samplecharacteristics>
															<channelcount>1</channelcount>
														</audio>
														<audio>
															<samplecharacteristics>
																<samplerate>48000</samplerate>
																<depth>32</depth>
															</samplecharacteristics>
															<channelcount>1</channelcount>
														</audio>
													</media>
												</file>
												<sourcetrack>
													<mediatype>video</mediatype>
												</sourcetrack>
												<fielddominance>none</fielddominance>
											</clipitem>
											<enabled>TRUE</enabled>
											<locked>FALSE</locked>
										</track>
									</video>
									<audio>
										<track>
											<clipitem id="ArmA 3 2020.11.28 - 20.28.12.122.mp42">
												<name>ArmA 3 2020.11.28 - 20.28.12.122.mp4</name>
												<duration>354</duration>
												<rate>
													<ntsc>TRUE</ntsc>
													<timebase>24</timebase>
												</rate>
												<in>0</in>
												<out>354</out>
												<start>0</start>
												<end>354</end>
												<masterclipid>ArmA 3 2020.11.28 - 20.28.12.122.mp4</masterclipid>
												<logginginfo>
													<scene />
													<shottake />
													<lognote />
													<good>FALSE</good>
												</logginginfo>
												<labels>
													<label2 />
												</labels>
												<comments>
													<mastercomment1 />
													<mastercomment2 />
													<mastercomment3 />
													<mastercomment4 />
												</comments>
												<file id="ArmA 3 2020.11.28 - 20.28.12.122" />
												<sourcetrack>
													<mediatype>audio</mediatype>
												</sourcetrack>
											</clipitem>
											<enabled>TRUE</enabled>
											<locked>FALSE</locked>
										</track>
										<track>
											<clipitem id="ArmA 3 2020.11.28 - 20.28.12.122.mp43">
												<name>ArmA 3 2020.11.28 - 20.28.12.122.mp4</name>
												<duration>354</duration>
												<rate>
													<ntsc>TRUE</ntsc>
													<timebase>24</timebase>
												</rate>
												<in>0</in>
												<out>354</out>
												<start>0</start>
												<end>354</end>
												<masterclipid>ArmA 3 2020.11.28 - 20.28.12.122.mp4</masterclipid>
												<logginginfo>
													<scene />
													<shottake />
													<lognote />
													<good>FALSE</good>
												</logginginfo>
												<labels>
													<label2 />
												</labels>
												<comments>
													<mastercomment1 />
													<mastercomment2 />
													<mastercomment3 />
													<mastercomment4 />
												</comments>
												<file id="ArmA 3 2020.11.28 - 20.28.12.122" />
												<sourcetrack>
													<mediatype>audio</mediatype>
												</sourcetrack>
											</clipitem>
											<enabled>TRUE</enabled>
											<locked>FALSE</locked>
										</track>
									</audio>
								</media>
							</clip>
							<clip id="ArmA 3 2020.11.28 - 20.28.56.123.mp4">
								<updatebehavior>add</updatebehavior>
								<name>ArmA 3 2020.11.28 - 20.28.56.123.mp4</name>
								<duration>496</duration>
								<rate>
									<ntsc>FALSE</ntsc>
									<timebase>60</timebase>
								</rate>
								<in>-1</in>
								<out>-1</out>
								<masterclipid>ArmA 3 2020.11.28 - 20.28.56.123.mp4</masterclipid>
								<ismasterclip>TRUE</ismasterclip>
								<logginginfo>
									<scene />
									<shottake />
									<lognote />
									<good>FALSE</good>
								</logginginfo>
								<labels>
									<label2 />
								</labels>
								<comments>
									<mastercomment1 />
									<mastercomment2 />
									<mastercomment3 />
									<mastercomment4 />
								</comments>
								<media>
									<video>
										<track>
											<clipitem id="ArmA 3 2020.11.28 - 20.28.56.123.mp41">
												<name>ArmA 3 2020.11.28 - 20.28.56.123.mp4</name>
												<duration>496</duration>
												<rate>
													<ntsc>FALSE</ntsc>
													<timebase>60</timebase>
												</rate>
												<in>0</in>
												<out>496</out>
												<start>0</start>
												<end>496</end>
												<pixelaspectratio>Square</pixelaspectratio>
												<anamorphic>FALSE</anamorphic>
												<alphatype>none</alphatype>
												<masterclipid>ArmA 3 2020.11.28 - 20.28.56.123.mp4</masterclipid>
												<logginginfo>
													<scene />
													<shottake />
													<lognote />
													<good>FALSE</good>
												</logginginfo>
												<labels>
													<label2 />
												</labels>
												<comments>
													<mastercomment1 />
													<mastercomment2 />
													<mastercomment3 />
													<mastercomment4 />
												</comments>
												<file id="ArmA 3 2020.11.28 - 20.28.56.123">
													<name>ArmA 3 2020.11.28 - 20.28.56.123.mp4</name>
													<pathurl>file://localhost/F:/AMVS Russia/NaturaDestruction/PRPACK6/ArmA 3 2020.11.28 - 20.28.56.123.mp4</pathurl>
													<rate>
														<timebase>60</timebase>
														<ntsc>FALSE</ntsc>
													</rate>
													<duration>496</duration>
													<timecode>
														<rate>
															<timebase>60</timebase>
															<ntsc>FALSE</ntsc>
														</rate>
														<frame>0</frame>
														<displayformat>NDF</displayformat>
														<source>source</source>
													</timecode>
													<media>
														<video>
															<duration>496</duration>
															<samplecharacteristics>
																<width>1920</width>
																<height>1080</height>
															</samplecharacteristics>
														</video>
														<audio>
															<samplecharacteristics>
																<samplerate>48000</samplerate>
																<depth>32</depth>
															</samplecharacteristics>
															<channelcount>1</channelcount>
														</audio>
														<audio>
															<samplecharacteristics>
																<samplerate>48000</samplerate>
																<depth>32</depth>
															</samplecharacteristics>
															<channelcount>1</channelcount>
														</audio>
													</media>
												</file>
												<sourcetrack>
													<mediatype>video</mediatype>
												</sourcetrack>
												<fielddominance>none</fielddominance>
											</clipitem>
											<enabled>TRUE</enabled>
											<locked>FALSE</locked>
										</track>
									</video>
									<audio>
										<track>
											<clipitem id="ArmA 3 2020.11.28 - 20.28.56.123.mp42">
												<name>ArmA 3 2020.11.28 - 20.28.56.123.mp4</name>
												<duration>496</duration>
												<rate>
													<ntsc>TRUE</ntsc>
													<timebase>24</timebase>
												</rate>
												<in>0</in>
												<out>496</out>
												<start>0</start>
												<end>496</end>
												<masterclipid>ArmA 3 2020.11.28 - 20.28.56.123.mp4</masterclipid>
												<logginginfo>
													<scene />
													<shottake />
													<lognote />
													<good>FALSE</good>
												</logginginfo>
												<labels>
													<label2 />
												</labels>
												<comments>
													<mastercomment1 />
													<mastercomment2 />
													<mastercomment3 />
													<mastercomment4 />
												</comments>
												<file id="ArmA 3 2020.11.28 - 20.28.56.123" />
												<sourcetrack>
													<mediatype>audio</mediatype>
												</sourcetrack>
											</clipitem>
											<enabled>TRUE</enabled>
											<locked>FALSE</locked>
										</track>
										<track>
											<clipitem id="ArmA 3 2020.11.28 - 20.28.56.123.mp43">
												<name>ArmA 3 2020.11.28 - 20.28.56.123.mp4</name>
												<duration>496</duration>
												<rate>
													<ntsc>TRUE</ntsc>
													<timebase>24</timebase>
												</rate>
												<in>0</in>
												<out>496</out>
												<start>0</start>
												<end>496</end>
												<masterclipid>ArmA 3 2020.11.28 - 20.28.56.123.mp4</masterclipid>
												<logginginfo>
													<scene />
													<shottake />
													<lognote />
													<good>FALSE</good>
												</logginginfo>
												<labels>
													<label2 />
												</labels>
												<comments>
													<mastercomment1 />
													<mastercomment2 />
													<mastercomment3 />
													<mastercomment4 />
												</comments>
												<file id="ArmA 3 2020.11.28 - 20.28.56.123" />
												<sourcetrack>
													<mediatype>audio</mediatype>
												</sourcetrack>
											</clipitem>
											<enabled>TRUE</enabled>
											<locked>FALSE</locked>
										</track>
									</audio>
								</media>
							</clip>
							<clip id="ArmA 3 2020.11.28 - 20.29.21.124.mp4">
								<updatebehavior>add</updatebehavior>
								<name>ArmA 3 2020.11.28 - 20.29.21.124.mp4</name>
								<duration>590</duration>
								<rate>
									<ntsc>TRUE</ntsc>
									<timebase>60</timebase>
								</rate>
								<in>-1</in>
								<out>-1</out>
								<masterclipid>ArmA 3 2020.11.28 - 20.29.21.124.mp4</masterclipid>
								<ismasterclip>TRUE</ismasterclip>
								<logginginfo>
									<scene />
									<shottake />
									<lognote />
									<good>FALSE</good>
								</logginginfo>
								<labels>
									<label2 />
								</labels>
								<comments>
									<mastercomment1 />
									<mastercomment2 />
									<mastercomment3 />
									<mastercomment4 />
								</comments>
								<media>
									<video>
										<track>
											<clipitem id="ArmA 3 2020.11.28 - 20.29.21.124.mp41">
												<name>ArmA 3 2020.11.28 - 20.29.21.124.mp4</name>
												<duration>590</duration>
												<rate>
													<ntsc>TRUE</ntsc>
													<timebase>60</timebase>
												</rate>
												<in>0</in>
												<out>590</out>
												<start>0</start>
												<end>590</end>
												<pixelaspectratio>Square</pixelaspectratio>
												<anamorphic>FALSE</anamorphic>
												<alphatype>none</alphatype>
												<masterclipid>ArmA 3 2020.11.28 - 20.29.21.124.mp4</masterclipid>
												<logginginfo>
													<scene />
													<shottake />
													<lognote />
													<good>FALSE</good>
												</logginginfo>
												<labels>
													<label2 />
												</labels>
												<comments>
													<mastercomment1 />
													<mastercomment2 />
													<mastercomment3 />
													<mastercomment4 />
												</comments>
												<file id="ArmA 3 2020.11.28 - 20.29.21.124">
													<name>ArmA 3 2020.11.28 - 20.29.21.124.mp4</name>
													<pathurl>file://localhost/F:/AMVS Russia/NaturaDestruction/PRPACK6/ArmA 3 2020.11.28 - 20.29.21.124.mp4</pathurl>
													<rate>
														<timebase>60</timebase>
														<ntsc>TRUE</ntsc>
													</rate>
													<duration>590</duration>
													<timecode>
														<rate>
															<timebase>60</timebase>
															<ntsc>TRUE</ntsc>
														</rate>
														<frame>0</frame>
														<displayformat>DF</displayformat>
														<source>source</source>
													</timecode>
													<media>
														<video>
															<duration>590</duration>
															<samplecharacteristics>
																<width>1920</width>
																<height>1080</height>
															</samplecharacteristics>
														</video>
														<audio>
															<samplecharacteristics>
																<samplerate>48000</samplerate>
																<depth>32</depth>
															</samplecharacteristics>
															<channelcount>1</channelcount>
														</audio>
														<audio>
															<samplecharacteristics>
																<samplerate>48000</samplerate>
																<depth>32</depth>
															</samplecharacteristics>
															<channelcount>1</channelcount>
														</audio>
													</media>
												</file>
												<sourcetrack>
													<mediatype>video</mediatype>
												</sourcetrack>
												<fielddominance>none</fielddominance>
											</clipitem>
											<enabled>TRUE</enabled>
											<locked>FALSE</locked>
										</track>
									</video>
									<audio>
										<track>
											<clipitem id="ArmA 3 2020.11.28 - 20.29.21.124.mp42">
												<name>ArmA 3 2020.11.28 - 20.29.21.124.mp4</name>
												<duration>590</duration>
												<rate>
													<ntsc>TRUE</ntsc>
													<timebase>24</timebase>
												</rate>
												<in>0</in>
												<out>590</out>
												<start>0</start>
												<end>590</end>
												<masterclipid>ArmA 3 2020.11.28 - 20.29.21.124.mp4</masterclipid>
												<logginginfo>
													<scene />
													<shottake />
													<lognote />
													<good>FALSE</good>
												</logginginfo>
												<labels>
													<label2 />
												</labels>
												<comments>
													<mastercomment1 />
													<mastercomment2 />
													<mastercomment3 />
													<mastercomment4 />
												</comments>
												<file id="ArmA 3 2020.11.28 - 20.29.21.124" />
												<sourcetrack>
													<mediatype>audio</mediatype>
												</sourcetrack>
											</clipitem>
											<enabled>TRUE</enabled>
											<locked>FALSE</locked>
										</track>
										<track>
											<clipitem id="ArmA 3 2020.11.28 - 20.29.21.124.mp43">
												<name>ArmA 3 2020.11.28 - 20.29.21.124.mp4</name>
												<duration>590</duration>
												<rate>
													<ntsc>TRUE</ntsc>
													<timebase>24</timebase>
												</rate>
												<in>0</in>
												<out>590</out>
												<start>0</start>
												<end>590</end>
												<masterclipid>ArmA 3 2020.11.28 - 20.29.21.124.mp4</masterclipid>
												<logginginfo>
													<scene />
													<shottake />
													<lognote />
													<good>FALSE</good>
												</logginginfo>
												<labels>
													<label2 />
												</labels>
												<comments>
													<mastercomment1 />
													<mastercomment2 />
													<mastercomment3 />
													<mastercomment4 />
												</comments>
												<file id="ArmA 3 2020.11.28 - 20.29.21.124" />
												<sourcetrack>
													<mediatype>audio</mediatype>
												</sourcetrack>
											</clipitem>
											<enabled>TRUE</enabled>
											<locked>FALSE</locked>
										</track>
									</audio>
								</media>
							</clip>
							<clip id="ArmA 3 2020.11.28 - 20.30.01.125.mp4">
								<updatebehavior>add</updatebehavior>
								<name>ArmA 3 2020.11.28 - 20.30.01.125.mp4</name>
								<duration>336</duration>
								<rate>
									<ntsc>FALSE</ntsc>
									<timebase>60</timebase>
								</rate>
								<in>-1</in>
								<out>-1</out>
								<masterclipid>ArmA 3 2020.11.28 - 20.30.01.125.mp4</masterclipid>
								<ismasterclip>TRUE</ismasterclip>
								<logginginfo>
									<scene />
									<shottake />
									<lognote />
									<good>FALSE</good>
								</logginginfo>
								<labels>
									<label2 />
								</labels>
								<comments>
									<mastercomment1 />
									<mastercomment2 />
									<mastercomment3 />
									<mastercomment4 />
								</comments>
								<media>
									<video>
										<track>
											<clipitem id="ArmA 3 2020.11.28 - 20.30.01.125.mp41">
												<name>ArmA 3 2020.11.28 - 20.30.01.125.mp4</name>
												<duration>336</duration>
												<rate>
													<ntsc>FALSE</ntsc>
													<timebase>60</timebase>
												</rate>
												<in>0</in>
												<out>336</out>
												<start>0</start>
												<end>336</end>
												<pixelaspectratio>Square</pixelaspectratio>
												<anamorphic>FALSE</anamorphic>
												<alphatype>none</alphatype>
												<masterclipid>ArmA 3 2020.11.28 - 20.30.01.125.mp4</masterclipid>
												<logginginfo>
													<scene />
													<shottake />
													<lognote />
													<good>FALSE</good>
												</logginginfo>
												<labels>
													<label2 />
												</labels>
												<comments>
													<mastercomment1 />
													<mastercomment2 />
													<mastercomment3 />
													<mastercomment4 />
												</comments>
												<file id="ArmA 3 2020.11.28 - 20.30.01.125">
													<name>ArmA 3 2020.11.28 - 20.30.01.125.mp4</name>
													<pathurl>file://localhost/F:/AMVS Russia/NaturaDestruction/PRPACK7/ArmA 3 2020.11.28 - 20.30.01.125.mp4</pathurl>
													<rate>
														<timebase>60</timebase>
														<ntsc>FALSE</ntsc>
													</rate>
													<duration>336</duration>
													<timecode>
														<rate>
															<timebase>60</timebase>
															<ntsc>FALSE</ntsc>
														</rate>
														<frame>0</frame>
														<displayformat>NDF</displayformat>
														<source>source</source>
													</timecode>
													<media>
														<video>
															<duration>336</duration>
															<samplecharacteristics>
																<width>1920</width>
																<height>1080</height>
															</samplecharacteristics>
														</video>
														<audio>
															<samplecharacteristics>
																<samplerate>48000</samplerate>
																<depth>32</depth>
															</samplecharacteristics>
															<channelcount>1</channelcount>
														</audio>
														<audio>
															<samplecharacteristics>
																<samplerate>48000</samplerate>
																<depth>32</depth>
															</samplecharacteristics>
															<channelcount>1</channelcount>
														</audio>
													</media>
												</file>
												<sourcetrack>
													<mediatype>video</mediatype>
												</sourcetrack>
												<fielddominance>none</fielddominance>
											</clipitem>
											<enabled>TRUE</enabled>
											<locked>FALSE</locked>
										</track>
									</video>
									<audio>
										<track>
											<clipitem id="ArmA 3 2020.11.28 - 20.30.01.125.mp42">
												<name>ArmA 3 2020.11.28 - 20.30.01.125.mp4</name>
												<duration>332</duration>
												<rate>
													<ntsc>TRUE</ntsc>
													<timebase>24</timebase>
												</rate>
												<in>0</in>
												<out>332</out>
												<start>0</start>
												<end>332</end>
												<masterclipid>ArmA 3 2020.11.28 - 20.30.01.125.mp4</masterclipid>
												<logginginfo>
													<scene />
													<shottake />
													<lognote />
													<good>FALSE</good>
												</logginginfo>
												<labels>
													<label2 />
												</labels>
												<comments>
													<mastercomment1 />
													<mastercomment2 />
													<mastercomment3 />
													<mastercomment4 />
												</comments>
												<file id="ArmA 3 2020.11.28 - 20.30.01.125" />
												<sourcetrack>
													<mediatype>audio</mediatype>
												</sourcetrack>
											</clipitem>
											<enabled>TRUE</enabled>
											<locked>FALSE</locked>
										</track>
										<track>
											<clipitem id="ArmA 3 2020.11.28 - 20.30.01.125.mp43">
												<name>ArmA 3 2020.11.28 - 20.30.01.125.mp4</name>
												<duration>332</duration>
												<rate>
													<ntsc>TRUE</ntsc>
													<timebase>24</timebase>
												</rate>
												<in>0</in>
												<out>332</out>
												<start>0</start>
												<end>332</end>
												<masterclipid>ArmA 3 2020.11.28 - 20.30.01.125.mp4</masterclipid>
												<logginginfo>
													<scene />
													<shottake />
													<lognote />
													<good>FALSE</good>
												</logginginfo>
												<labels>
													<label2 />
												</labels>
												<comments>
													<mastercomment1 />
													<mastercomment2 />
													<mastercomment3 />
													<mastercomment4 />
												</comments>
												<file id="ArmA 3 2020.11.28 - 20.30.01.125" />
												<sourcetrack>
													<mediatype>audio</mediatype>
												</sourcetrack>
											</clipitem>
											<enabled>TRUE</enabled>
											<locked>FALSE</locked>
										</track>
									</audio>
								</media>
							</clip>
							<clip id="ArmA 3 2020.11.28 - 20.30.43.126.mp4">
								<updatebehavior>add</updatebehavior>
								<name>ArmA 3 2020.11.28 - 20.30.43.126.mp4</name>
								<duration>889</duration>
								<rate>
									<ntsc>FALSE</ntsc>
									<timebase>60</timebase>
								</rate>
								<in>-1</in>
								<out>-1</out>
								<masterclipid>ArmA 3 2020.11.28 - 20.30.43.126.mp4</masterclipid>
								<ismasterclip>TRUE</ismasterclip>
								<logginginfo>
									<scene />
									<shottake />
									<lognote />
									<good>FALSE</good>
								</logginginfo>
								<labels>
									<label2 />
								</labels>
								<comments>
									<mastercomment1 />
									<mastercomment2 />
									<mastercomment3 />
									<mastercomment4 />
								</comments>
								<media>
									<video>
										<track>
											<clipitem id="ArmA 3 2020.11.28 - 20.30.43.126.mp41">
												<name>ArmA 3 2020.11.28 - 20.30.43.126.mp4</name>
												<duration>889</duration>
												<rate>
													<ntsc>FALSE</ntsc>
													<timebase>60</timebase>
												</rate>
												<in>0</in>
												<out>889</out>
												<start>0</start>
												<end>889</end>
												<pixelaspectratio>Square</pixelaspectratio>
												<anamorphic>FALSE</anamorphic>
												<alphatype>none</alphatype>
												<masterclipid>ArmA 3 2020.11.28 - 20.30.43.126.mp4</masterclipid>
												<logginginfo>
													<scene />
													<shottake />
													<lognote />
													<good>FALSE</good>
												</logginginfo>
												<labels>
													<label2 />
												</labels>
												<comments>
													<mastercomment1 />
													<mastercomment2 />
													<mastercomment3 />
													<mastercomment4 />
												</comments>
												<file id="ArmA 3 2020.11.28 - 20.30.43.126">
													<name>ArmA 3 2020.11.28 - 20.30.43.126.mp4</name>
													<pathurl>file://localhost/F:/AMVS Russia/NaturaDestruction/PRPACK5/ArmA 3 2020.11.28 - 20.30.43.126.mp4</pathurl>
													<rate>
														<timebase>60</timebase>
														<ntsc>FALSE</ntsc>
													</rate>
													<duration>889</duration>
													<timecode>
														<rate>
															<timebase>60</timebase>
															<ntsc>FALSE</ntsc>
														</rate>
														<frame>0</frame>
														<displayformat>NDF</displayformat>
														<source>source</source>
													</timecode>
													<media>
														<video>
															<duration>889</duration>
															<samplecharacteristics>
																<width>1920</width>
																<height>1080</height>
															</samplecharacteristics>
														</video>
														<audio>
															<samplecharacteristics>
																<samplerate>48000</samplerate>
																<depth>32</depth>
															</samplecharacteristics>
															<channelcount>1</channelcount>
														</audio>
														<audio>
															<samplecharacteristics>
																<samplerate>48000</samplerate>
																<depth>32</depth>
															</samplecharacteristics>
															<channelcount>1</channelcount>
														</audio>
													</media>
												</file>
												<sourcetrack>
													<mediatype>video</mediatype>
												</sourcetrack>
												<fielddominance>none</fielddominance>
											</clipitem>
											<enabled>TRUE</enabled>
											<locked>FALSE</locked>
										</track>
									</video>
									<audio>
										<track>
											<clipitem id="ArmA 3 2020.11.28 - 20.30.43.126.mp42">
												<name>ArmA 3 2020.11.28 - 20.30.43.126.mp4</name>
												<duration>885</duration>
												<rate>
													<ntsc>TRUE</ntsc>
													<timebase>24</timebase>
												</rate>
												<in>0</in>
												<out>885</out>
												<start>0</start>
												<end>885</end>
												<masterclipid>ArmA 3 2020.11.28 - 20.30.43.126.mp4</masterclipid>
												<logginginfo>
													<scene />
													<shottake />
													<lognote />
													<good>FALSE</good>
												</logginginfo>
												<labels>
													<label2 />
												</labels>
												<comments>
													<mastercomment1 />
													<mastercomment2 />
													<mastercomment3 />
													<mastercomment4 />
												</comments>
												<file id="ArmA 3 2020.11.28 - 20.30.43.126" />
												<sourcetrack>
													<mediatype>audio</mediatype>
												</sourcetrack>
											</clipitem>
											<enabled>TRUE</enabled>
											<locked>FALSE</locked>
										</track>
										<track>
											<clipitem id="ArmA 3 2020.11.28 - 20.30.43.126.mp43">
												<name>ArmA 3 2020.11.28 - 20.30.43.126.mp4</name>
												<duration>885</duration>
												<rate>
													<ntsc>TRUE</ntsc>
													<timebase>24</timebase>
												</rate>
												<in>0</in>
												<out>885</out>
												<start>0</start>
												<end>885</end>
												<masterclipid>ArmA 3 2020.11.28 - 20.30.43.126.mp4</masterclipid>
												<logginginfo>
													<scene />
													<shottake />
													<lognote />
													<good>FALSE</good>
												</logginginfo>
												<labels>
													<label2 />
												</labels>
												<comments>
													<mastercomment1 />
													<mastercomment2 />
													<mastercomment3 />
													<mastercomment4 />
												</comments>
												<file id="ArmA 3 2020.11.28 - 20.30.43.126" />
												<sourcetrack>
													<mediatype>audio</mediatype>
												</sourcetrack>
											</clipitem>
											<enabled>TRUE</enabled>
											<locked>FALSE</locked>
										</track>
									</audio>
								</media>
							</clip>
							<clip id="ArmA 3 2020.11.28 - 20.31.29.127.mp4">
								<updatebehavior>add</updatebehavior>
								<name>ArmA 3 2020.11.28 - 20.31.29.127.mp4</name>
								<duration>1130</duration>
								<rate>
									<ntsc>FALSE</ntsc>
									<timebase>60</timebase>
								</rate>
								<in>-1</in>
								<out>-1</out>
								<masterclipid>ArmA 3 2020.11.28 - 20.31.29.127.mp4</masterclipid>
								<ismasterclip>TRUE</ismasterclip>
								<logginginfo>
									<scene />
									<shottake />
									<lognote />
									<good>FALSE</good>
								</logginginfo>
								<labels>
									<label2 />
								</labels>
								<comments>
									<mastercomment1 />
									<mastercomment2 />
									<mastercomment3 />
									<mastercomment4 />
								</comments>
								<media>
									<video>
										<track>
											<clipitem id="ArmA 3 2020.11.28 - 20.31.29.127.mp41">
												<name>ArmA 3 2020.11.28 - 20.31.29.127.mp4</name>
												<duration>1130</duration>
												<rate>
													<ntsc>FALSE</ntsc>
													<timebase>60</timebase>
												</rate>
												<in>0</in>
												<out>1130</out>
												<start>0</start>
												<end>1130</end>
												<pixelaspectratio>Square</pixelaspectratio>
												<anamorphic>FALSE</anamorphic>
												<alphatype>none</alphatype>
												<masterclipid>ArmA 3 2020.11.28 - 20.31.29.127.mp4</masterclipid>
												<logginginfo>
													<scene />
													<shottake />
													<lognote />
													<good>FALSE</good>
												</logginginfo>
												<labels>
													<label2 />
												</labels>
												<comments>
													<mastercomment1 />
													<mastercomment2 />
													<mastercomment3 />
													<mastercomment4 />
												</comments>
												<file id="ArmA 3 2020.11.28 - 20.31.29.127">
													<name>ArmA 3 2020.11.28 - 20.31.29.127.mp4</name>
													<pathurl>file://localhost/F:/AMVS Russia/NaturaDestruction/PRPACK4/ArmA 3 2020.11.28 - 20.31.29.127.mp4</pathurl>
													<rate>
														<timebase>60</timebase>
														<ntsc>FALSE</ntsc>
													</rate>
													<duration>1130</duration>
													<timecode>
														<rate>
															<timebase>60</timebase>
															<ntsc>FALSE</ntsc>
														</rate>
														<frame>0</frame>
														<displayformat>NDF</displayformat>
														<source>source</source>
													</timecode>
													<media>
														<video>
															<duration>1130</duration>
															<samplecharacteristics>
																<width>1920</width>
																<height>1080</height>
															</samplecharacteristics>
														</video>
														<audio>
															<samplecharacteristics>
																<samplerate>48000</samplerate>
																<depth>32</depth>
															</samplecharacteristics>
															<channelcount>1</channelcount>
														</audio>
														<audio>
															<samplecharacteristics>
																<samplerate>48000</samplerate>
																<depth>32</depth>
															</samplecharacteristics>
															<channelcount>1</channelcount>
														</audio>
													</media>
												</file>
												<sourcetrack>
													<mediatype>video</mediatype>
												</sourcetrack>
												<fielddominance>none</fielddominance>
											</clipitem>
											<enabled>TRUE</enabled>
											<locked>FALSE</locked>
										</track>
									</video>
									<audio>
										<track>
											<clipitem id="ArmA 3 2020.11.28 - 20.31.29.127.mp42">
												<name>ArmA 3 2020.11.28 - 20.31.29.127.mp4</name>
												<duration>1130</duration>
												<rate>
													<ntsc>TRUE</ntsc>
													<timebase>24</timebase>
												</rate>
												<in>0</in>
												<out>1130</out>
												<start>0</start>
												<end>1130</end>
												<masterclipid>ArmA 3 2020.11.28 - 20.31.29.127.mp4</masterclipid>
												<logginginfo>
													<scene />
													<shottake />
													<lognote />
													<good>FALSE</good>
												</logginginfo>
												<labels>
													<label2 />
												</labels>
												<comments>
													<mastercomment1 />
													<mastercomment2 />
													<mastercomment3 />
													<mastercomment4 />
												</comments>
												<file id="ArmA 3 2020.11.28 - 20.31.29.127" />
												<sourcetrack>
													<mediatype>audio</mediatype>
												</sourcetrack>
											</clipitem>
											<enabled>TRUE</enabled>
											<locked>FALSE</locked>
										</track>
										<track>
											<clipitem id="ArmA 3 2020.11.28 - 20.31.29.127.mp43">
												<name>ArmA 3 2020.11.28 - 20.31.29.127.mp4</name>
												<duration>1130</duration>
												<rate>
													<ntsc>TRUE</ntsc>
													<timebase>24</timebase>
												</rate>
												<in>0</in>
												<out>1130</out>
												<start>0</start>
												<end>1130</end>
												<masterclipid>ArmA 3 2020.11.28 - 20.31.29.127.mp4</masterclipid>
												<logginginfo>
													<scene />
													<shottake />
													<lognote />
													<good>FALSE</good>
												</logginginfo>
												<labels>
													<label2 />
												</labels>
												<comments>
													<mastercomment1 />
													<mastercomment2 />
													<mastercomment3 />
													<mastercomment4 />
												</comments>
												<file id="ArmA 3 2020.11.28 - 20.31.29.127" />
												<sourcetrack>
													<mediatype>audio</mediatype>
												</sourcetrack>
											</clipitem>
											<enabled>TRUE</enabled>
											<locked>FALSE</locked>
										</track>
									</audio>
								</media>
							</clip>
							<clip id="ArmA 3 2020.11.28 - 20.32.26.128.mp4">
								<updatebehavior>add</updatebehavior>
								<name>ArmA 3 2020.11.28 - 20.32.26.128.mp4</name>
								<duration>731</duration>
								<rate>
									<ntsc>FALSE</ntsc>
									<timebase>60</timebase>
								</rate>
								<in>-1</in>
								<out>-1</out>
								<masterclipid>ArmA 3 2020.11.28 - 20.32.26.128.mp4</masterclipid>
								<ismasterclip>TRUE</ismasterclip>
								<logginginfo>
									<scene />
									<shottake />
									<lognote />
									<good>FALSE</good>
								</logginginfo>
								<labels>
									<label2 />
								</labels>
								<comments>
									<mastercomment1 />
									<mastercomment2 />
									<mastercomment3 />
									<mastercomment4 />
								</comments>
								<media>
									<video>
										<track>
											<clipitem id="ArmA 3 2020.11.28 - 20.32.26.128.mp41">
												<name>ArmA 3 2020.11.28 - 20.32.26.128.mp4</name>
												<duration>731</duration>
												<rate>
													<ntsc>FALSE</ntsc>
													<timebase>60</timebase>
												</rate>
												<in>0</in>
												<out>731</out>
												<start>0</start>
												<end>731</end>
												<pixelaspectratio>Square</pixelaspectratio>
												<anamorphic>FALSE</anamorphic>
												<alphatype>none</alphatype>
												<masterclipid>ArmA 3 2020.11.28 - 20.32.26.128.mp4</masterclipid>
												<logginginfo>
													<scene />
													<shottake />
													<lognote />
													<good>FALSE</good>
												</logginginfo>
												<labels>
													<label2 />
												</labels>
												<comments>
													<mastercomment1 />
													<mastercomment2 />
													<mastercomment3 />
													<mastercomment4 />
												</comments>
												<file id="ArmA 3 2020.11.28 - 20.32.26.128">
													<name>ArmA 3 2020.11.28 - 20.32.26.128.mp4</name>
													<pathurl>file://localhost/F:/AMVS Russia/NaturaDestruction/PRPACK5/ArmA 3 2020.11.28 - 20.32.26.128.mp4</pathurl>
													<rate>
														<timebase>60</timebase>
														<ntsc>FALSE</ntsc>
													</rate>
													<duration>731</duration>
													<timecode>
														<rate>
															<timebase>60</timebase>
															<ntsc>FALSE</ntsc>
														</rate>
														<frame>0</frame>
														<displayformat>NDF</displayformat>
														<source>source</source>
													</timecode>
													<media>
														<video>
															<duration>731</duration>
															<samplecharacteristics>
																<width>1920</width>
																<height>1080</height>
															</samplecharacteristics>
														</video>
														<audio>
															<samplecharacteristics>
																<samplerate>48000</samplerate>
																<depth>32</depth>
															</samplecharacteristics>
															<channelcount>1</channelcount>
														</audio>
														<audio>
															<samplecharacteristics>
																<samplerate>48000</samplerate>
																<depth>32</depth>
															</samplecharacteristics>
															<channelcount>1</channelcount>
														</audio>
													</media>
												</file>
												<sourcetrack>
													<mediatype>video</mediatype>
												</sourcetrack>
												<fielddominance>none</fielddominance>
											</clipitem>
											<enabled>TRUE</enabled>
											<locked>FALSE</locked>
										</track>
									</video>
									<audio>
										<track>
											<clipitem id="ArmA 3 2020.11.28 - 20.32.26.128.mp42">
												<name>ArmA 3 2020.11.28 - 20.32.26.128.mp4</name>
												<duration>731</duration>
												<rate>
													<ntsc>TRUE</ntsc>
													<timebase>24</timebase>
												</rate>
												<in>0</in>
												<out>731</out>
												<start>0</start>
												<end>731</end>
												<masterclipid>ArmA 3 2020.11.28 - 20.32.26.128.mp4</masterclipid>
												<logginginfo>
													<scene />
													<shottake />
													<lognote />
													<good>FALSE</good>
												</logginginfo>
												<labels>
													<label2 />
												</labels>
												<comments>
													<mastercomment1 />
													<mastercomment2 />
													<mastercomment3 />
													<mastercomment4 />
												</comments>
												<file id="ArmA 3 2020.11.28 - 20.32.26.128" />
												<sourcetrack>
													<mediatype>audio</mediatype>
												</sourcetrack>
											</clipitem>
											<enabled>TRUE</enabled>
											<locked>FALSE</locked>
										</track>
										<track>
											<clipitem id="ArmA 3 2020.11.28 - 20.32.26.128.mp43">
												<name>ArmA 3 2020.11.28 - 20.32.26.128.mp4</name>
												<duration>731</duration>
												<rate>
													<ntsc>TRUE</ntsc>
													<timebase>24</timebase>
												</rate>
												<in>0</in>
												<out>731</out>
												<start>0</start>
												<end>731</end>
												<masterclipid>ArmA 3 2020.11.28 - 20.32.26.128.mp4</masterclipid>
												<logginginfo>
													<scene />
													<shottake />
													<lognote />
													<good>FALSE</good>
												</logginginfo>
												<labels>
													<label2 />
												</labels>
												<comments>
													<mastercomment1 />
													<mastercomment2 />
													<mastercomment3 />
													<mastercomment4 />
												</comments>
												<file id="ArmA 3 2020.11.28 - 20.32.26.128" />
												<sourcetrack>
													<mediatype>audio</mediatype>
												</sourcetrack>
											</clipitem>
											<enabled>TRUE</enabled>
											<locked>FALSE</locked>
										</track>
									</audio>
								</media>
							</clip>
							<clip id="ArmA 3 2020.11.28 - 20.33.18.129.mp4">
								<updatebehavior>add</updatebehavior>
								<name>ArmA 3 2020.11.28 - 20.33.18.129.mp4</name>
								<duration>772</duration>
								<rate>
									<ntsc>TRUE</ntsc>
									<timebase>60</timebase>
								</rate>
								<in>-1</in>
								<out>-1</out>
								<masterclipid>ArmA 3 2020.11.28 - 20.33.18.129.mp4</masterclipid>
								<ismasterclip>TRUE</ismasterclip>
								<logginginfo>
									<scene />
									<shottake />
									<lognote />
									<good>FALSE</good>
								</logginginfo>
								<labels>
									<label2 />
								</labels>
								<comments>
									<mastercomment1 />
									<mastercomment2 />
									<mastercomment3 />
									<mastercomment4 />
								</comments>
								<media>
									<video>
										<track>
											<clipitem id="ArmA 3 2020.11.28 - 20.33.18.129.mp41">
												<name>ArmA 3 2020.11.28 - 20.33.18.129.mp4</name>
												<duration>772</duration>
												<rate>
													<ntsc>TRUE</ntsc>
													<timebase>60</timebase>
												</rate>
												<in>0</in>
												<out>772</out>
												<start>0</start>
												<end>772</end>
												<pixelaspectratio>Square</pixelaspectratio>
												<anamorphic>FALSE</anamorphic>
												<alphatype>none</alphatype>
												<masterclipid>ArmA 3 2020.11.28 - 20.33.18.129.mp4</masterclipid>
												<logginginfo>
													<scene />
													<shottake />
													<lognote />
													<good>FALSE</good>
												</logginginfo>
												<labels>
													<label2 />
												</labels>
												<comments>
													<mastercomment1 />
													<mastercomment2 />
													<mastercomment3 />
													<mastercomment4 />
												</comments>
												<file id="ArmA 3 2020.11.28 - 20.33.18.129">
													<name>ArmA 3 2020.11.28 - 20.33.18.129.mp4</name>
													<pathurl>file://localhost/F:/AMVS Russia/NaturaDestruction/PRPACK7/ArmA 3 2020.11.28 - 20.33.18.129.mp4</pathurl>
													<rate>
														<timebase>60</timebase>
														<ntsc>TRUE</ntsc>
													</rate>
													<duration>772</duration>
													<timecode>
														<rate>
															<timebase>60</timebase>
															<ntsc>TRUE</ntsc>
														</rate>
														<frame>0</frame>
														<displayformat>DF</displayformat>
														<source>source</source>
													</timecode>
													<media>
														<video>
															<duration>772</duration>
															<samplecharacteristics>
																<width>1920</width>
																<height>1080</height>
															</samplecharacteristics>
														</video>
														<audio>
															<samplecharacteristics>
																<samplerate>48000</samplerate>
																<depth>32</depth>
															</samplecharacteristics>
															<channelcount>1</channelcount>
														</audio>
														<audio>
															<samplecharacteristics>
																<samplerate>48000</samplerate>
																<depth>32</depth>
															</samplecharacteristics>
															<channelcount>1</channelcount>
														</audio>
													</media>
												</file>
												<sourcetrack>
													<mediatype>video</mediatype>
												</sourcetrack>
												<fielddominance>none</fielddominance>
											</clipitem>
											<enabled>TRUE</enabled>
											<locked>FALSE</locked>
										</track>
									</video>
									<audio>
										<track>
											<clipitem id="ArmA 3 2020.11.28 - 20.33.18.129.mp42">
												<name>ArmA 3 2020.11.28 - 20.33.18.129.mp4</name>
												<duration>772</duration>
												<rate>
													<ntsc>TRUE</ntsc>
													<timebase>24</timebase>
												</rate>
												<in>0</in>
												<out>772</out>
												<start>0</start>
												<end>772</end>
												<masterclipid>ArmA 3 2020.11.28 - 20.33.18.129.mp4</masterclipid>
												<logginginfo>
													<scene />
													<shottake />
													<lognote />
													<good>FALSE</good>
												</logginginfo>
												<labels>
													<label2 />
												</labels>
												<comments>
													<mastercomment1 />
													<mastercomment2 />
													<mastercomment3 />
													<mastercomment4 />
												</comments>
												<file id="ArmA 3 2020.11.28 - 20.33.18.129" />
												<sourcetrack>
													<mediatype>audio</mediatype>
												</sourcetrack>
											</clipitem>
											<enabled>TRUE</enabled>
											<locked>FALSE</locked>
										</track>
										<track>
											<clipitem id="ArmA 3 2020.11.28 - 20.33.18.129.mp43">
												<name>ArmA 3 2020.11.28 - 20.33.18.129.mp4</name>
												<duration>772</duration>
												<rate>
													<ntsc>TRUE</ntsc>
													<timebase>24</timebase>
												</rate>
												<in>0</in>
												<out>772</out>
												<start>0</start>
												<end>772</end>
												<masterclipid>ArmA 3 2020.11.28 - 20.33.18.129.mp4</masterclipid>
												<logginginfo>
													<scene />
													<shottake />
													<lognote />
													<good>FALSE</good>
												</logginginfo>
												<labels>
													<label2 />
												</labels>
												<comments>
													<mastercomment1 />
													<mastercomment2 />
													<mastercomment3 />
													<mastercomment4 />
												</comments>
												<file id="ArmA 3 2020.11.28 - 20.33.18.129" />
												<sourcetrack>
													<mediatype>audio</mediatype>
												</sourcetrack>
											</clipitem>
											<enabled>TRUE</enabled>
											<locked>FALSE</locked>
										</track>
									</audio>
								</media>
							</clip>
							<clip id="ArmA 3 2020.11.28 - 20.34.04.130.mp4">
								<updatebehavior>add</updatebehavior>
								<name>ArmA 3 2020.11.28 - 20.34.04.130.mp4</name>
								<duration>521</duration>
								<rate>
									<ntsc>FALSE</ntsc>
									<timebase>60</timebase>
								</rate>
								<in>-1</in>
								<out>-1</out>
								<masterclipid>ArmA 3 2020.11.28 - 20.34.04.130.mp4</masterclipid>
								<ismasterclip>TRUE</ismasterclip>
								<logginginfo>
									<scene />
									<shottake />
									<lognote />
									<good>FALSE</good>
								</logginginfo>
								<labels>
									<label2 />
								</labels>
								<comments>
									<mastercomment1 />
									<mastercomment2 />
									<mastercomment3 />
									<mastercomment4 />
								</comments>
								<media>
									<video>
										<track>
											<clipitem id="ArmA 3 2020.11.28 - 20.34.04.130.mp41">
												<name>ArmA 3 2020.11.28 - 20.34.04.130.mp4</name>
												<duration>521</duration>
												<rate>
													<ntsc>FALSE</ntsc>
													<timebase>60</timebase>
												</rate>
												<in>0</in>
												<out>521</out>
												<start>0</start>
												<end>521</end>
												<pixelaspectratio>Square</pixelaspectratio>
												<anamorphic>FALSE</anamorphic>
												<alphatype>none</alphatype>
												<masterclipid>ArmA 3 2020.11.28 - 20.34.04.130.mp4</masterclipid>
												<logginginfo>
													<scene />
													<shottake />
													<lognote />
													<good>FALSE</good>
												</logginginfo>
												<labels>
													<label2 />
												</labels>
												<comments>
													<mastercomment1 />
													<mastercomment2 />
													<mastercomment3 />
													<mastercomment4 />
												</comments>
												<file id="ArmA 3 2020.11.28 - 20.34.04.130">
													<name>ArmA 3 2020.11.28 - 20.34.04.130.mp4</name>
													<pathurl>file://localhost/F:/AMVS Russia/NaturaDestruction/PRPACK7/ArmA 3 2020.11.28 - 20.34.04.130.mp4</pathurl>
													<rate>
														<timebase>60</timebase>
														<ntsc>FALSE</ntsc>
													</rate>
													<duration>521</duration>
													<timecode>
														<rate>
															<timebase>60</timebase>
															<ntsc>FALSE</ntsc>
														</rate>
														<frame>0</frame>
														<displayformat>NDF</displayformat>
														<source>source</source>
													</timecode>
													<media>
														<video>
															<duration>521</duration>
															<samplecharacteristics>
																<width>1920</width>
																<height>1080</height>
															</samplecharacteristics>
														</video>
														<audio>
															<samplecharacteristics>
																<samplerate>48000</samplerate>
																<depth>32</depth>
															</samplecharacteristics>
															<channelcount>1</channelcount>
														</audio>
														<audio>
															<samplecharacteristics>
																<samplerate>48000</samplerate>
																<depth>32</depth>
															</samplecharacteristics>
															<channelcount>1</channelcount>
														</audio>
													</media>
												</file>
												<sourcetrack>
													<mediatype>video</mediatype>
												</sourcetrack>
												<fielddominance>none</fielddominance>
											</clipitem>
											<enabled>TRUE</enabled>
											<locked>FALSE</locked>
										</track>
									</video>
									<audio>
										<track>
											<clipitem id="ArmA 3 2020.11.28 - 20.34.04.130.mp42">
												<name>ArmA 3 2020.11.28 - 20.34.04.130.mp4</name>
												<duration>521</duration>
												<rate>
													<ntsc>TRUE</ntsc>
													<timebase>24</timebase>
												</rate>
												<in>0</in>
												<out>521</out>
												<start>0</start>
												<end>521</end>
												<masterclipid>ArmA 3 2020.11.28 - 20.34.04.130.mp4</masterclipid>
												<logginginfo>
													<scene />
													<shottake />
													<lognote />
													<good>FALSE</good>
												</logginginfo>
												<labels>
													<label2 />
												</labels>
												<comments>
													<mastercomment1 />
													<mastercomment2 />
													<mastercomment3 />
													<mastercomment4 />
												</comments>
												<file id="ArmA 3 2020.11.28 - 20.34.04.130" />
												<sourcetrack>
													<mediatype>audio</mediatype>
												</sourcetrack>
											</clipitem>
											<enabled>TRUE</enabled>
											<locked>FALSE</locked>
										</track>
										<track>
											<clipitem id="ArmA 3 2020.11.28 - 20.34.04.130.mp43">
												<name>ArmA 3 2020.11.28 - 20.34.04.130.mp4</name>
												<duration>521</duration>
												<rate>
													<ntsc>TRUE</ntsc>
													<timebase>24</timebase>
												</rate>
												<in>0</in>
												<out>521</out>
												<start>0</start>
												<end>521</end>
												<masterclipid>ArmA 3 2020.11.28 - 20.34.04.130.mp4</masterclipid>
												<logginginfo>
													<scene />
													<shottake />
													<lognote />
													<good>FALSE</good>
												</logginginfo>
												<labels>
													<label2 />
												</labels>
												<comments>
													<mastercomment1 />
													<mastercomment2 />
													<mastercomment3 />
													<mastercomment4 />
												</comments>
												<file id="ArmA 3 2020.11.28 - 20.34.04.130" />
												<sourcetrack>
													<mediatype>audio</mediatype>
												</sourcetrack>
											</clipitem>
											<enabled>TRUE</enabled>
											<locked>FALSE</locked>
										</track>
									</audio>
								</media>
							</clip>
							<clip id="ArmA 3 2020.11.28 - 20.35.50.131.mp4">
								<updatebehavior>add</updatebehavior>
								<name>ArmA 3 2020.11.28 - 20.35.50.131.mp4</name>
								<duration>315</duration>
								<rate>
									<ntsc>FALSE</ntsc>
									<timebase>60</timebase>
								</rate>
								<in>-1</in>
								<out>-1</out>
								<masterclipid>ArmA 3 2020.11.28 - 20.35.50.131.mp4</masterclipid>
								<ismasterclip>TRUE</ismasterclip>
								<logginginfo>
									<scene />
									<shottake />
									<lognote />
									<good>FALSE</good>
								</logginginfo>
								<labels>
									<label2 />
								</labels>
								<comments>
									<mastercomment1 />
									<mastercomment2 />
									<mastercomment3 />
									<mastercomment4 />
								</comments>
								<media>
									<video>
										<track>
											<clipitem id="ArmA 3 2020.11.28 - 20.35.50.131.mp41">
												<name>ArmA 3 2020.11.28 - 20.35.50.131.mp4</name>
												<duration>315</duration>
												<rate>
													<ntsc>FALSE</ntsc>
													<timebase>60</timebase>
												</rate>
												<in>0</in>
												<out>315</out>
												<start>0</start>
												<end>315</end>
												<pixelaspectratio>Square</pixelaspectratio>
												<anamorphic>FALSE</anamorphic>
												<alphatype>none</alphatype>
												<masterclipid>ArmA 3 2020.11.28 - 20.35.50.131.mp4</masterclipid>
												<logginginfo>
													<scene />
													<shottake />
													<lognote />
													<good>FALSE</good>
												</logginginfo>
												<labels>
													<label2 />
												</labels>
												<comments>
													<mastercomment1 />
													<mastercomment2 />
													<mastercomment3 />
													<mastercomment4 />
												</comments>
												<file id="ArmA 3 2020.11.28 - 20.35.50.131">
													<name>ArmA 3 2020.11.28 - 20.35.50.131.mp4</name>
													<pathurl>file://localhost/F:/AMVS Russia/NaturaDestruction/PRPACK7/ArmA 3 2020.11.28 - 20.35.50.131.mp4</pathurl>
													<rate>
														<timebase>60</timebase>
														<ntsc>FALSE</ntsc>
													</rate>
													<duration>315</duration>
													<timecode>
														<rate>
															<timebase>60</timebase>
															<ntsc>FALSE</ntsc>
														</rate>
														<frame>0</frame>
														<displayformat>NDF</displayformat>
														<source>source</source>
													</timecode>
													<media>
														<video>
															<duration>315</duration>
															<samplecharacteristics>
																<width>1920</width>
																<height>1080</height>
															</samplecharacteristics>
														</video>
														<audio>
															<samplecharacteristics>
																<samplerate>48000</samplerate>
																<depth>32</depth>
															</samplecharacteristics>
															<channelcount>1</channelcount>
														</audio>
														<audio>
															<samplecharacteristics>
																<samplerate>48000</samplerate>
																<depth>32</depth>
															</samplecharacteristics>
															<channelcount>1</channelcount>
														</audio>
													</media>
												</file>
												<sourcetrack>
													<mediatype>video</mediatype>
												</sourcetrack>
												<fielddominance>none</fielddominance>
											</clipitem>
											<enabled>TRUE</enabled>
											<locked>FALSE</locked>
										</track>
									</video>
									<audio>
										<track>
											<clipitem id="ArmA 3 2020.11.28 - 20.35.50.131.mp42">
												<name>ArmA 3 2020.11.28 - 20.35.50.131.mp4</name>
												<duration>315</duration>
												<rate>
													<ntsc>TRUE</ntsc>
													<timebase>24</timebase>
												</rate>
												<in>0</in>
												<out>315</out>
												<start>0</start>
												<end>315</end>
												<masterclipid>ArmA 3 2020.11.28 - 20.35.50.131.mp4</masterclipid>
												<logginginfo>
													<scene />
													<shottake />
													<lognote />
													<good>FALSE</good>
												</logginginfo>
												<labels>
													<label2 />
												</labels>
												<comments>
													<mastercomment1 />
													<mastercomment2 />
													<mastercomment3 />
													<mastercomment4 />
												</comments>
												<file id="ArmA 3 2020.11.28 - 20.35.50.131" />
												<sourcetrack>
													<mediatype>audio</mediatype>
												</sourcetrack>
											</clipitem>
											<enabled>TRUE</enabled>
											<locked>FALSE</locked>
										</track>
										<track>
											<clipitem id="ArmA 3 2020.11.28 - 20.35.50.131.mp43">
												<name>ArmA 3 2020.11.28 - 20.35.50.131.mp4</name>
												<duration>315</duration>
												<rate>
													<ntsc>TRUE</ntsc>
													<timebase>24</timebase>
												</rate>
												<in>0</in>
												<out>315</out>
												<start>0</start>
												<end>315</end>
												<masterclipid>ArmA 3 2020.11.28 - 20.35.50.131.mp4</masterclipid>
												<logginginfo>
													<scene />
													<shottake />
													<lognote />
													<good>FALSE</good>
												</logginginfo>
												<labels>
													<label2 />
												</labels>
												<comments>
													<mastercomment1 />
													<mastercomment2 />
													<mastercomment3 />
													<mastercomment4 />
												</comments>
												<file id="ArmA 3 2020.11.28 - 20.35.50.131" />
												<sourcetrack>
													<mediatype>audio</mediatype>
												</sourcetrack>
											</clipitem>
											<enabled>TRUE</enabled>
											<locked>FALSE</locked>
										</track>
									</audio>
								</media>
							</clip>
							<clip id="ArmA 3 2020.11.28 - 20.45.07.132.mp4">
								<updatebehavior>add</updatebehavior>
								<name>ArmA 3 2020.11.28 - 20.45.07.132.mp4</name>
								<duration>502</duration>
								<rate>
									<ntsc>FALSE</ntsc>
									<timebase>60</timebase>
								</rate>
								<in>-1</in>
								<out>-1</out>
								<masterclipid>ArmA 3 2020.11.28 - 20.45.07.132.mp4</masterclipid>
								<ismasterclip>TRUE</ismasterclip>
								<logginginfo>
									<scene />
									<shottake />
									<lognote />
									<good>FALSE</good>
								</logginginfo>
								<labels>
									<label2 />
								</labels>
								<comments>
									<mastercomment1 />
									<mastercomment2 />
									<mastercomment3 />
									<mastercomment4 />
								</comments>
								<media>
									<video>
										<track>
											<clipitem id="ArmA 3 2020.11.28 - 20.45.07.132.mp41">
												<name>ArmA 3 2020.11.28 - 20.45.07.132.mp4</name>
												<duration>502</duration>
												<rate>
													<ntsc>FALSE</ntsc>
													<timebase>60</timebase>
												</rate>
												<in>0</in>
												<out>502</out>
												<start>0</start>
												<end>502</end>
												<pixelaspectratio>Square</pixelaspectratio>
												<anamorphic>FALSE</anamorphic>
												<alphatype>none</alphatype>
												<masterclipid>ArmA 3 2020.11.28 - 20.45.07.132.mp4</masterclipid>
												<logginginfo>
													<scene />
													<shottake />
													<lognote />
													<good>FALSE</good>
												</logginginfo>
												<labels>
													<label2 />
												</labels>
												<comments>
													<mastercomment1 />
													<mastercomment2 />
													<mastercomment3 />
													<mastercomment4 />
												</comments>
												<file id="ArmA 3 2020.11.28 - 20.45.07.132">
													<name>ArmA 3 2020.11.28 - 20.45.07.132.mp4</name>
													<pathurl>file://localhost/F:/AMVS Russia/NaturaDestruction/PRPACK7/ArmA 3 2020.11.28 - 20.45.07.132.mp4</pathurl>
													<rate>
														<timebase>60</timebase>
														<ntsc>FALSE</ntsc>
													</rate>
													<duration>502</duration>
													<timecode>
														<rate>
															<timebase>60</timebase>
															<ntsc>FALSE</ntsc>
														</rate>
														<frame>0</frame>
														<displayformat>NDF</displayformat>
														<source>source</source>
													</timecode>
													<media>
														<video>
															<duration>502</duration>
															<samplecharacteristics>
																<width>1920</width>
																<height>1080</height>
															</samplecharacteristics>
														</video>
														<audio>
															<samplecharacteristics>
																<samplerate>48000</samplerate>
																<depth>32</depth>
															</samplecharacteristics>
															<channelcount>1</channelcount>
														</audio>
														<audio>
															<samplecharacteristics>
																<samplerate>48000</samplerate>
																<depth>32</depth>
															</samplecharacteristics>
															<channelcount>1</channelcount>
														</audio>
													</media>
												</file>
												<sourcetrack>
													<mediatype>video</mediatype>
												</sourcetrack>
												<fielddominance>none</fielddominance>
											</clipitem>
											<enabled>TRUE</enabled>
											<locked>FALSE</locked>
										</track>
									</video>
									<audio>
										<track>
											<clipitem id="ArmA 3 2020.11.28 - 20.45.07.132.mp42">
												<name>ArmA 3 2020.11.28 - 20.45.07.132.mp4</name>
												<duration>502</duration>
												<rate>
													<ntsc>TRUE</ntsc>
													<timebase>24</timebase>
												</rate>
												<in>0</in>
												<out>502</out>
												<start>0</start>
												<end>502</end>
												<masterclipid>ArmA 3 2020.11.28 - 20.45.07.132.mp4</masterclipid>
												<logginginfo>
													<scene />
													<shottake />
													<lognote />
													<good>FALSE</good>
												</logginginfo>
												<labels>
													<label2 />
												</labels>
												<comments>
													<mastercomment1 />
													<mastercomment2 />
													<mastercomment3 />
													<mastercomment4 />
												</comments>
												<file id="ArmA 3 2020.11.28 - 20.45.07.132" />
												<sourcetrack>
													<mediatype>audio</mediatype>
												</sourcetrack>
											</clipitem>
											<enabled>TRUE</enabled>
											<locked>FALSE</locked>
										</track>
										<track>
											<clipitem id="ArmA 3 2020.11.28 - 20.45.07.132.mp43">
												<name>ArmA 3 2020.11.28 - 20.45.07.132.mp4</name>
												<duration>502</duration>
												<rate>
													<ntsc>TRUE</ntsc>
													<timebase>24</timebase>
												</rate>
												<in>0</in>
												<out>502</out>
												<start>0</start>
												<end>502</end>
												<masterclipid>ArmA 3 2020.11.28 - 20.45.07.132.mp4</masterclipid>
												<logginginfo>
													<scene />
													<shottake />
													<lognote />
													<good>FALSE</good>
												</logginginfo>
												<labels>
													<label2 />
												</labels>
												<comments>
													<mastercomment1 />
													<mastercomment2 />
													<mastercomment3 />
													<mastercomment4 />
												</comments>
												<file id="ArmA 3 2020.11.28 - 20.45.07.132" />
												<sourcetrack>
													<mediatype>audio</mediatype>
												</sourcetrack>
											</clipitem>
											<enabled>TRUE</enabled>
											<locked>FALSE</locked>
										</track>
									</audio>
								</media>
							</clip>
							<clip id="ArmA 3 2020.11.28 - 20.48.15.133.mp4">
								<updatebehavior>add</updatebehavior>
								<name>ArmA 3 2020.11.28 - 20.48.15.133.mp4</name>
								<duration>1172</duration>
								<rate>
									<ntsc>FALSE</ntsc>
									<timebase>60</timebase>
								</rate>
								<in>-1</in>
								<out>-1</out>
								<masterclipid>ArmA 3 2020.11.28 - 20.48.15.133.mp4</masterclipid>
								<ismasterclip>TRUE</ismasterclip>
								<logginginfo>
									<scene />
									<shottake />
									<lognote />
									<good>FALSE</good>
								</logginginfo>
								<labels>
									<label2 />
								</labels>
								<comments>
									<mastercomment1 />
									<mastercomment2 />
									<mastercomment3 />
									<mastercomment4 />
								</comments>
								<media>
									<video>
										<track>
											<clipitem id="ArmA 3 2020.11.28 - 20.48.15.133.mp41">
												<name>ArmA 3 2020.11.28 - 20.48.15.133.mp4</name>
												<duration>1172</duration>
												<rate>
													<ntsc>FALSE</ntsc>
													<timebase>60</timebase>
												</rate>
												<in>0</in>
												<out>1172</out>
												<start>0</start>
												<end>1172</end>
												<pixelaspectratio>Square</pixelaspectratio>
												<anamorphic>FALSE</anamorphic>
												<alphatype>none</alphatype>
												<masterclipid>ArmA 3 2020.11.28 - 20.48.15.133.mp4</masterclipid>
												<logginginfo>
													<scene />
													<shottake />
													<lognote />
													<good>FALSE</good>
												</logginginfo>
												<labels>
													<label2 />
												</labels>
												<comments>
													<mastercomment1 />
													<mastercomment2 />
													<mastercomment3 />
													<mastercomment4 />
												</comments>
												<file id="ArmA 3 2020.11.28 - 20.48.15.133">
													<name>ArmA 3 2020.11.28 - 20.48.15.133.mp4</name>
													<pathurl>file://localhost/F:/AMVS Russia/NaturaDestruction/PRPACK4/ArmA 3 2020.11.28 - 20.48.15.133.mp4</pathurl>
													<rate>
														<timebase>60</timebase>
														<ntsc>FALSE</ntsc>
													</rate>
													<duration>1172</duration>
													<timecode>
														<rate>
															<timebase>60</timebase>
															<ntsc>FALSE</ntsc>
														</rate>
														<frame>0</frame>
														<displayformat>NDF</displayformat>
														<source>source</source>
													</timecode>
													<media>
														<video>
															<duration>1172</duration>
															<samplecharacteristics>
																<width>1920</width>
																<height>1080</height>
															</samplecharacteristics>
														</video>
														<audio>
															<samplecharacteristics>
																<samplerate>48000</samplerate>
																<depth>32</depth>
															</samplecharacteristics>
															<channelcount>1</channelcount>
														</audio>
														<audio>
															<samplecharacteristics>
																<samplerate>48000</samplerate>
																<depth>32</depth>
															</samplecharacteristics>
															<channelcount>1</channelcount>
														</audio>
													</media>
												</file>
												<sourcetrack>
													<mediatype>video</mediatype>
												</sourcetrack>
												<fielddominance>none</fielddominance>
											</clipitem>
											<enabled>TRUE</enabled>
											<locked>FALSE</locked>
										</track>
									</video>
									<audio>
										<track>
											<clipitem id="ArmA 3 2020.11.28 - 20.48.15.133.mp42">
												<name>ArmA 3 2020.11.28 - 20.48.15.133.mp4</name>
												<duration>1172</duration>
												<rate>
													<ntsc>TRUE</ntsc>
													<timebase>24</timebase>
												</rate>
												<in>0</in>
												<out>1172</out>
												<start>0</start>
												<end>1172</end>
												<masterclipid>ArmA 3 2020.11.28 - 20.48.15.133.mp4</masterclipid>
												<logginginfo>
													<scene />
													<shottake />
													<lognote />
													<good>FALSE</good>
												</logginginfo>
												<labels>
													<label2 />
												</labels>
												<comments>
													<mastercomment1 />
													<mastercomment2 />
													<mastercomment3 />
													<mastercomment4 />
												</comments>
												<file id="ArmA 3 2020.11.28 - 20.48.15.133" />
												<sourcetrack>
													<mediatype>audio</mediatype>
												</sourcetrack>
											</clipitem>
											<enabled>TRUE</enabled>
											<locked>FALSE</locked>
										</track>
										<track>
											<clipitem id="ArmA 3 2020.11.28 - 20.48.15.133.mp43">
												<name>ArmA 3 2020.11.28 - 20.48.15.133.mp4</name>
												<duration>1172</duration>
												<rate>
													<ntsc>TRUE</ntsc>
													<timebase>24</timebase>
												</rate>
												<in>0</in>
												<out>1172</out>
												<start>0</start>
												<end>1172</end>
												<masterclipid>ArmA 3 2020.11.28 - 20.48.15.133.mp4</masterclipid>
												<logginginfo>
													<scene />
													<shottake />
													<lognote />
													<good>FALSE</good>
												</logginginfo>
												<labels>
													<label2 />
												</labels>
												<comments>
													<mastercomment1 />
													<mastercomment2 />
													<mastercomment3 />
													<mastercomment4 />
												</comments>
												<file id="ArmA 3 2020.11.28 - 20.48.15.133" />
												<sourcetrack>
													<mediatype>audio</mediatype>
												</sourcetrack>
											</clipitem>
											<enabled>TRUE</enabled>
											<locked>FALSE</locked>
										</track>
									</audio>
								</media>
							</clip>
							<clip id="ArmA 3 2020.11.28 - 20.49.24.134.mp4">
								<updatebehavior>add</updatebehavior>
								<name>ArmA 3 2020.11.28 - 20.49.24.134.mp4</name>
								<duration>1233</duration>
								<rate>
									<ntsc>FALSE</ntsc>
									<timebase>60</timebase>
								</rate>
								<in>-1</in>
								<out>-1</out>
								<masterclipid>ArmA 3 2020.11.28 - 20.49.24.134.mp4</masterclipid>
								<ismasterclip>TRUE</ismasterclip>
								<logginginfo>
									<scene />
									<shottake />
									<lognote />
									<good>FALSE</good>
								</logginginfo>
								<labels>
									<label2 />
								</labels>
								<comments>
									<mastercomment1 />
									<mastercomment2 />
									<mastercomment3 />
									<mastercomment4 />
								</comments>
								<media>
									<video>
										<track>
											<clipitem id="ArmA 3 2020.11.28 - 20.49.24.134.mp41">
												<name>ArmA 3 2020.11.28 - 20.49.24.134.mp4</name>
												<duration>1233</duration>
												<rate>
													<ntsc>FALSE</ntsc>
													<timebase>60</timebase>
												</rate>
												<in>0</in>
												<out>1233</out>
												<start>0</start>
												<end>1233</end>
												<pixelaspectratio>Square</pixelaspectratio>
												<anamorphic>FALSE</anamorphic>
												<alphatype>none</alphatype>
												<masterclipid>ArmA 3 2020.11.28 - 20.49.24.134.mp4</masterclipid>
												<logginginfo>
													<scene />
													<shottake />
													<lognote />
													<good>FALSE</good>
												</logginginfo>
												<labels>
													<label2 />
												</labels>
												<comments>
													<mastercomment1 />
													<mastercomment2 />
													<mastercomment3 />
													<mastercomment4 />
												</comments>
												<file id="ArmA 3 2020.11.28 - 20.49.24.134">
													<name>ArmA 3 2020.11.28 - 20.49.24.134.mp4</name>
													<pathurl>file://localhost/F:/AMVS Russia/NaturaDestruction/PRPACK4/ArmA 3 2020.11.28 - 20.49.24.134.mp4</pathurl>
													<rate>
														<timebase>60</timebase>
														<ntsc>FALSE</ntsc>
													</rate>
													<duration>1233</duration>
													<timecode>
														<rate>
															<timebase>60</timebase>
															<ntsc>FALSE</ntsc>
														</rate>
														<frame>0</frame>
														<displayformat>NDF</displayformat>
														<source>source</source>
													</timecode>
													<media>
														<video>
															<duration>1233</duration>
															<samplecharacteristics>
																<width>1920</width>
																<height>1080</height>
															</samplecharacteristics>
														</video>
														<audio>
															<samplecharacteristics>
																<samplerate>48000</samplerate>
																<depth>32</depth>
															</samplecharacteristics>
															<channelcount>1</channelcount>
														</audio>
														<audio>
															<samplecharacteristics>
																<samplerate>48000</samplerate>
																<depth>32</depth>
															</samplecharacteristics>
															<channelcount>1</channelcount>
														</audio>
													</media>
												</file>
												<sourcetrack>
													<mediatype>video</mediatype>
												</sourcetrack>
												<fielddominance>none</fielddominance>
											</clipitem>
											<enabled>TRUE</enabled>
											<locked>FALSE</locked>
										</track>
									</video>
									<audio>
										<track>
											<clipitem id="ArmA 3 2020.11.28 - 20.49.24.134.mp42">
												<name>ArmA 3 2020.11.28 - 20.49.24.134.mp4</name>
												<duration>1233</duration>
												<rate>
													<ntsc>TRUE</ntsc>
													<timebase>24</timebase>
												</rate>
												<in>0</in>
												<out>1233</out>
												<start>0</start>
												<end>1233</end>
												<masterclipid>ArmA 3 2020.11.28 - 20.49.24.134.mp4</masterclipid>
												<logginginfo>
													<scene />
													<shottake />
													<lognote />
													<good>FALSE</good>
												</logginginfo>
												<labels>
													<label2 />
												</labels>
												<comments>
													<mastercomment1 />
													<mastercomment2 />
													<mastercomment3 />
													<mastercomment4 />
												</comments>
												<file id="ArmA 3 2020.11.28 - 20.49.24.134" />
												<sourcetrack>
													<mediatype>audio</mediatype>
												</sourcetrack>
											</clipitem>
											<enabled>TRUE</enabled>
											<locked>FALSE</locked>
										</track>
										<track>
											<clipitem id="ArmA 3 2020.11.28 - 20.49.24.134.mp43">
												<name>ArmA 3 2020.11.28 - 20.49.24.134.mp4</name>
												<duration>1233</duration>
												<rate>
													<ntsc>TRUE</ntsc>
													<timebase>24</timebase>
												</rate>
												<in>0</in>
												<out>1233</out>
												<start>0</start>
												<end>1233</end>
												<masterclipid>ArmA 3 2020.11.28 - 20.49.24.134.mp4</masterclipid>
												<logginginfo>
													<scene />
													<shottake />
													<lognote />
													<good>FALSE</good>
												</logginginfo>
												<labels>
													<label2 />
												</labels>
												<comments>
													<mastercomment1 />
													<mastercomment2 />
													<mastercomment3 />
													<mastercomment4 />
												</comments>
												<file id="ArmA 3 2020.11.28 - 20.49.24.134" />
												<sourcetrack>
													<mediatype>audio</mediatype>
												</sourcetrack>
											</clipitem>
											<enabled>TRUE</enabled>
											<locked>FALSE</locked>
										</track>
									</audio>
								</media>
							</clip>
							<clip id="ArmA 3 2020.11.28 - 20.50.27.135.mp4">
								<updatebehavior>add</updatebehavior>
								<name>ArmA 3 2020.11.28 - 20.50.27.135.mp4</name>
								<duration>754</duration>
								<rate>
									<ntsc>FALSE</ntsc>
									<timebase>60</timebase>
								</rate>
								<in>-1</in>
								<out>-1</out>
								<masterclipid>ArmA 3 2020.11.28 - 20.50.27.135.mp4</masterclipid>
								<ismasterclip>TRUE</ismasterclip>
								<logginginfo>
									<scene />
									<shottake />
									<lognote />
									<good>FALSE</good>
								</logginginfo>
								<labels>
									<label2 />
								</labels>
								<comments>
									<mastercomment1 />
									<mastercomment2 />
									<mastercomment3 />
									<mastercomment4 />
								</comments>
								<media>
									<video>
										<track>
											<clipitem id="ArmA 3 2020.11.28 - 20.50.27.135.mp41">
												<name>ArmA 3 2020.11.28 - 20.50.27.135.mp4</name>
												<duration>754</duration>
												<rate>
													<ntsc>FALSE</ntsc>
													<timebase>60</timebase>
												</rate>
												<in>0</in>
												<out>754</out>
												<start>0</start>
												<end>754</end>
												<pixelaspectratio>Square</pixelaspectratio>
												<anamorphic>FALSE</anamorphic>
												<alphatype>none</alphatype>
												<masterclipid>ArmA 3 2020.11.28 - 20.50.27.135.mp4</masterclipid>
												<logginginfo>
													<scene />
													<shottake />
													<lognote />
													<good>FALSE</good>
												</logginginfo>
												<labels>
													<label2 />
												</labels>
												<comments>
													<mastercomment1 />
													<mastercomment2 />
													<mastercomment3 />
													<mastercomment4 />
												</comments>
												<file id="ArmA 3 2020.11.28 - 20.50.27.135">
													<name>ArmA 3 2020.11.28 - 20.50.27.135.mp4</name>
													<pathurl>file://localhost/F:/AMVS Russia/NaturaDestruction/PRPACK5/ArmA 3 2020.11.28 - 20.50.27.135.mp4</pathurl>
													<rate>
														<timebase>60</timebase>
														<ntsc>FALSE</ntsc>
													</rate>
													<duration>754</duration>
													<timecode>
														<rate>
															<timebase>60</timebase>
															<ntsc>FALSE</ntsc>
														</rate>
														<frame>0</frame>
														<displayformat>NDF</displayformat>
														<source>source</source>
													</timecode>
													<media>
														<video>
															<duration>754</duration>
															<samplecharacteristics>
																<width>1920</width>
																<height>1080</height>
															</samplecharacteristics>
														</video>
														<audio>
															<samplecharacteristics>
																<samplerate>48000</samplerate>
																<depth>32</depth>
															</samplecharacteristics>
															<channelcount>1</channelcount>
														</audio>
														<audio>
															<samplecharacteristics>
																<samplerate>48000</samplerate>
																<depth>32</depth>
															</samplecharacteristics>
															<channelcount>1</channelcount>
														</audio>
													</media>
												</file>
												<sourcetrack>
													<mediatype>video</mediatype>
												</sourcetrack>
												<fielddominance>none</fielddominance>
											</clipitem>
											<enabled>TRUE</enabled>
											<locked>FALSE</locked>
										</track>
									</video>
									<audio>
										<track>
											<clipitem id="ArmA 3 2020.11.28 - 20.50.27.135.mp42">
												<name>ArmA 3 2020.11.28 - 20.50.27.135.mp4</name>
												<duration>754</duration>
												<rate>
													<ntsc>TRUE</ntsc>
													<timebase>24</timebase>
												</rate>
												<in>0</in>
												<out>754</out>
												<start>0</start>
												<end>754</end>
												<masterclipid>ArmA 3 2020.11.28 - 20.50.27.135.mp4</masterclipid>
												<logginginfo>
													<scene />
													<shottake />
													<lognote />
													<good>FALSE</good>
												</logginginfo>
												<labels>
													<label2 />
												</labels>
												<comments>
													<mastercomment1 />
													<mastercomment2 />
													<mastercomment3 />
													<mastercomment4 />
												</comments>
												<file id="ArmA 3 2020.11.28 - 20.50.27.135" />
												<sourcetrack>
													<mediatype>audio</mediatype>
												</sourcetrack>
											</clipitem>
											<enabled>TRUE</enabled>
											<locked>FALSE</locked>
										</track>
										<track>
											<clipitem id="ArmA 3 2020.11.28 - 20.50.27.135.mp43">
												<name>ArmA 3 2020.11.28 - 20.50.27.135.mp4</name>
												<duration>754</duration>
												<rate>
													<ntsc>TRUE</ntsc>
													<timebase>24</timebase>
												</rate>
												<in>0</in>
												<out>754</out>
												<start>0</start>
												<end>754</end>
												<masterclipid>ArmA 3 2020.11.28 - 20.50.27.135.mp4</masterclipid>
												<logginginfo>
													<scene />
													<shottake />
													<lognote />
													<good>FALSE</good>
												</logginginfo>
												<labels>
													<label2 />
												</labels>
												<comments>
													<mastercomment1 />
													<mastercomment2 />
													<mastercomment3 />
													<mastercomment4 />
												</comments>
												<file id="ArmA 3 2020.11.28 - 20.50.27.135" />
												<sourcetrack>
													<mediatype>audio</mediatype>
												</sourcetrack>
											</clipitem>
											<enabled>TRUE</enabled>
											<locked>FALSE</locked>
										</track>
									</audio>
								</media>
							</clip>
						</children>
					</bin>
					<bin>
						<updatebehavior>add</updatebehavior>
						<name>Voiceover</name>
						<children>
							<clip id="PR_Bashir_SC20.ogg">
								<updatebehavior>add</updatebehavior>
								<name>PR_Bashir_SC20.ogg</name>
								<duration>0</duration>
								<rate>
									<ntsc>TRUE</ntsc>
									<timebase>24</timebase>
								</rate>
								<in>-1</in>
								<out>-1</out>
								<masterclipid>PR_Bashir_SC20.ogg</masterclipid>
								<ismasterclip>TRUE</ismasterclip>
								<logginginfo>
									<scene />
									<shottake />
									<lognote />
									<good>FALSE</good>
								</logginginfo>
								<labels>
									<label2 />
								</labels>
								<comments>
									<mastercomment1 />
									<mastercomment2 />
									<mastercomment3 />
									<mastercomment4 />
								</comments>
								<media>
									<video />
									<audio />
								</media>
							</clip>
							<clip id="PR_Shingis_Sc20.ogg">
								<updatebehavior>add</updatebehavior>
								<name>PR_Shingis_Sc20.ogg</name>
								<duration>0</duration>
								<rate>
									<ntsc>TRUE</ntsc>
									<timebase>24</timebase>
								</rate>
								<in>-1</in>
								<out>-1</out>
								<masterclipid>PR_Shingis_Sc20.ogg</masterclipid>
								<ismasterclip>TRUE</ismasterclip>
								<logginginfo>
									<scene />
									<shottake />
									<lognote />
									<good>FALSE</good>
								</logginginfo>
								<labels>
									<label2 />
								</labels>
								<comments>
									<mastercomment1 />
									<mastercomment2 />
									<mastercomment3 />
									<mastercomment4 />
								</comments>
								<media>
									<video />
									<audio />
								</media>
							</clip>
						</children>
					</bin>
					<bin>
						<updatebehavior>add</updatebehavior>
						<name>SFX</name>
						<children />
					</bin>
					<bin>
						<updatebehavior>add</updatebehavior>
						<name>Music</name>
						<children />
					</bin>
				</children>
			</bin>
			<sequence id="Sequence 1">
				<updatebehavior>add</updatebehavior>
				<name>Sequence 1</name>
				<duration>10664</duration>
				<rate>
					<ntsc>TRUE</ntsc>
					<timebase>24</timebase>
				</rate>
				<timecode>
					<rate>
						<ntsc>TRUE</ntsc>
						<timebase>24</timebase>
					</rate>
					<frame>86313</frame>
					<source>source</source>
					<displayformat>DF</displayformat>
				</timecode>
				<in>-1</in>
				<out>-1</out>
				<media>
					<video>
						<format>
							<samplecharacteristics>
								<width>1920</width>
								<height>1080</height>
								<pixelaspectratio>Square</pixelaspectratio>
								<anamorphic>FALSE</anamorphic>
								<fielddominance>none</fielddominance>
								<rate>
									<ntsc>TRUE</ntsc>
									<timebase>24</timebase>
								</rate>
								<colordepth>24</colordepth>
								<codec>
									<appspecificdata>
										<data>
											<qtcodec>
												<codectypecode>avc1</codectypecode>
											</qtcodec>
										</data>
										<appname>Final Cut Pro</appname>
										<appmanufacturer>Apple Inc.</appmanufacturer>
										<appversion>7.0</appversion>
									</appspecificdata>
								</codec>
							</samplecharacteristics>
						</format>
						<track>
							<clipitem id="ArmA 3 2020.11.28 - 20.26.45.120.mp4805307592">
								<name>ArmA 3 2020.11.28 - 20.26.45.120.mp4</name>
								<duration>443</duration>
								<rate>
									<ntsc>FALSE</ntsc>
									<timebase>60</timebase>
								</rate>
								<in>0</in>
								<out>443</out>
								<start>0</start>
								<end>443</end>
								<pixelaspectratio>Square</pixelaspectratio>
								<anamorphic>FALSE</anamorphic>
								<alphatype>none</alphatype>
								<masterclipid>ArmA 3 2020.11.28 - 20.26.45.120.mp4</masterclipid>
								<logginginfo>
									<scene />
									<shottake />
									<lognote />
									<good>FALSE</good>
								</logginginfo>
								<labels>
									<label2 />
								</labels>
								<comments>
									<mastercomment1 />
									<mastercomment2 />
									<mastercomment3 />
									<mastercomment4 />
								</comments>
								<file id="ArmA 3 2020.11.28 - 20.26.45.120" />
								<filter>
									<effect>
										<name>Opacity</name>
										<effectid>opacity</effectid>
										<effectcategory>motion</effectcategory>
										<effecttype>motion</effecttype>
										<mediatype>video</mediatype>
										<parameter>
											<name>opacity</name>
											<parameterid>opacity</parameterid>
											<valuemin>0</valuemin>
											<valuemax>100</valuemax>
											<value>100</value>
										</parameter>
									</effect>
								</filter>
								<sourcetrack>
									<mediatype>video</mediatype>
								</sourcetrack>
								<link>
									<linkclipref>ArmA 3 2020.11.28 - 20.26.45.120.mp4805307592</linkclipref>
								</link>
								<link>
									<linkclipref>ArmA 3 2020.11.28 - 20.26.45.120.mp4536872137</linkclipref>
								</link>
								<link>
									<linkclipref>ArmA 3 2020.11.28 - 20.26.45.120.mp45368721371</linkclipref>
								</link>
								<link>
									<linkclipref>ArmA 3 2020.11.28 - 20.26.45.120.mp4536872138</linkclipref>
								</link>
								<link>
									<linkclipref>ArmA 3 2020.11.28 - 20.26.45.120.mp45368721381</linkclipref>
								</link>
								<fielddominance>none</fielddominance>
							</clipitem>
							<clipitem id="ArmA 3 2020.11.28 - 20.27.22.121.mp4805307595">
								<name>ArmA 3 2020.11.28 - 20.27.22.121.mp4</name>
								<duration>411</duration>
								<rate>
									<ntsc>FALSE</ntsc>
									<timebase>60</timebase>
								</rate>
								<in>0</in>
								<out>411</out>
								<start>444</start>
								<end>855</end>
								<pixelaspectratio>Square</pixelaspectratio>
								<anamorphic>FALSE</anamorphic>
								<alphatype>none</alphatype>
								<masterclipid>ArmA 3 2020.11.28 - 20.27.22.121.mp4</masterclipid>
								<logginginfo>
									<scene />
									<shottake />
									<lognote />
									<good>FALSE</good>
								</logginginfo>
								<labels>
									<label2 />
								</labels>
								<comments>
									<mastercomment1 />
									<mastercomment2 />
									<mastercomment3 />
									<mastercomment4 />
								</comments>
								<file id="ArmA 3 2020.11.28 - 20.27.22.121" />
								<filter>
									<effect>
										<name>Opacity</name>
										<effectid>opacity</effectid>
										<effectcategory>motion</effectcategory>
										<effecttype>motion</effecttype>
										<mediatype>video</mediatype>
										<parameter>
											<name>opacity</name>
											<parameterid>opacity</parameterid>
											<valuemin>0</valuemin>
											<valuemax>100</valuemax>
											<value>100</value>
										</parameter>
									</effect>
								</filter>
								<sourcetrack>
									<mediatype>video</mediatype>
								</sourcetrack>
								<link>
									<linkclipref>ArmA 3 2020.11.28 - 20.27.22.121.mp4805307595</linkclipref>
								</link>
								<link>
									<linkclipref>ArmA 3 2020.11.28 - 20.27.22.121.mp4536872140</linkclipref>
								</link>
								<link>
									<linkclipref>ArmA 3 2020.11.28 - 20.27.22.121.mp45368721401</linkclipref>
								</link>
								<link>
									<linkclipref>ArmA 3 2020.11.28 - 20.27.22.121.mp4536872141</linkclipref>
								</link>
								<link>
									<linkclipref>ArmA 3 2020.11.28 - 20.27.22.121.mp45368721411</linkclipref>
								</link>
								<fielddominance>none</fielddominance>
							</clipitem>
							<clipitem id="ArmA 3 2020.11.28 - 20.28.12.122.mp4805307598">
								<name>ArmA 3 2020.11.28 - 20.28.12.122.mp4</name>
								<duration>354</duration>
								<rate>
									<ntsc>FALSE</ntsc>
									<timebase>60</timebase>
								</rate>
								<in>0</in>
								<out>354</out>
								<start>856</start>
								<end>1210</end>
								<pixelaspectratio>Square</pixelaspectratio>
								<anamorphic>FALSE</anamorphic>
								<alphatype>none</alphatype>
								<masterclipid>ArmA 3 2020.11.28 - 20.28.12.122.mp4</masterclipid>
								<logginginfo>
									<scene />
									<shottake />
									<lognote />
									<good>FALSE</good>
								</logginginfo>
								<labels>
									<label2 />
								</labels>
								<comments>
									<mastercomment1 />
									<mastercomment2 />
									<mastercomment3 />
									<mastercomment4 />
								</comments>
								<file id="ArmA 3 2020.11.28 - 20.28.12.122" />
								<filter>
									<effect>
										<name>Opacity</name>
										<effectid>opacity</effectid>
										<effectcategory>motion</effectcategory>
										<effecttype>motion</effecttype>
										<mediatype>video</mediatype>
										<parameter>
											<name>opacity</name>
											<parameterid>opacity</parameterid>
											<valuemin>0</valuemin>
											<valuemax>100</valuemax>
											<value>100</value>
										</parameter>
									</effect>
								</filter>
								<sourcetrack>
									<mediatype>video</mediatype>
								</sourcetrack>
								<link>
									<linkclipref>ArmA 3 2020.11.28 - 20.28.12.122.mp4805307598</linkclipref>
								</link>
								<link>
									<linkclipref>ArmA 3 2020.11.28 - 20.28.12.122.mp4536872143</linkclipref>
								</link>
								<link>
									<linkclipref>ArmA 3 2020.11.28 - 20.28.12.122.mp45368721431</linkclipref>
								</link>
								<link>
									<linkclipref>ArmA 3 2020.11.28 - 20.28.12.122.mp4536872144</linkclipref>
								</link>
								<link>
									<linkclipref>ArmA 3 2020.11.28 - 20.28.12.122.mp45368721441</linkclipref>
								</link>
								<fielddominance>none</fielddominance>
							</clipitem>
							<clipitem id="ArmA 3 2020.11.28 - 20.28.56.123.mp4805307601">
								<name>ArmA 3 2020.11.28 - 20.28.56.123.mp4</name>
								<duration>496</duration>
								<rate>
									<ntsc>FALSE</ntsc>
									<timebase>60</timebase>
								</rate>
								<in>0</in>
								<out>496</out>
								<start>1211</start>
								<end>1707</end>
								<pixelaspectratio>Square</pixelaspectratio>
								<anamorphic>FALSE</anamorphic>
								<alphatype>none</alphatype>
								<masterclipid>ArmA 3 2020.11.28 - 20.28.56.123.mp4</masterclipid>
								<logginginfo>
									<scene />
									<shottake />
									<lognote />
									<good>FALSE</good>
								</logginginfo>
								<labels>
									<label2 />
								</labels>
								<comments>
									<mastercomment1 />
									<mastercomment2 />
									<mastercomment3 />
									<mastercomment4 />
								</comments>
								<file id="ArmA 3 2020.11.28 - 20.28.56.123" />
								<filter>
									<effect>
										<name>Opacity</name>
										<effectid>opacity</effectid>
										<effectcategory>motion</effectcategory>
										<effecttype>motion</effecttype>
										<mediatype>video</mediatype>
										<parameter>
											<name>opacity</name>
											<parameterid>opacity</parameterid>
											<valuemin>0</valuemin>
											<valuemax>100</valuemax>
											<value>100</value>
										</parameter>
									</effect>
								</filter>
								<sourcetrack>
									<mediatype>video</mediatype>
								</sourcetrack>
								<link>
									<linkclipref>ArmA 3 2020.11.28 - 20.28.56.123.mp4805307601</linkclipref>
								</link>
								<link>
									<linkclipref>ArmA 3 2020.11.28 - 20.28.56.123.mp4536872146</linkclipref>
								</link>
								<link>
									<linkclipref>ArmA 3 2020.11.28 - 20.28.56.123.mp45368721461</linkclipref>
								</link>
								<link>
									<linkclipref>ArmA 3 2020.11.28 - 20.28.56.123.mp4536872147</linkclipref>
								</link>
								<link>
									<linkclipref>ArmA 3 2020.11.28 - 20.28.56.123.mp45368721471</linkclipref>
								</link>
								<fielddominance>none</fielddominance>
							</clipitem>
							<clipitem id="ArmA 3 2020.11.28 - 20.29.21.124.mp4805307604">
								<name>ArmA 3 2020.11.28 - 20.29.21.124.mp4</name>
								<duration>590</duration>
								<rate>
									<ntsc>TRUE</ntsc>
									<timebase>60</timebase>
								</rate>
								<in>0</in>
								<out>590</out>
								<start>1708</start>
								<end>2298</end>
								<pixelaspectratio>Square</pixelaspectratio>
								<anamorphic>FALSE</anamorphic>
								<alphatype>none</alphatype>
								<masterclipid>ArmA 3 2020.11.28 - 20.29.21.124.mp4</masterclipid>
								<logginginfo>
									<scene />
									<shottake />
									<lognote />
									<good>FALSE</good>
								</logginginfo>
								<labels>
									<label2 />
								</labels>
								<comments>
									<mastercomment1 />
									<mastercomment2 />
									<mastercomment3 />
									<mastercomment4 />
								</comments>
								<file id="ArmA 3 2020.11.28 - 20.29.21.124" />
								<filter>
									<effect>
										<name>Opacity</name>
										<effectid>opacity</effectid>
										<effectcategory>motion</effectcategory>
										<effecttype>motion</effecttype>
										<mediatype>video</mediatype>
										<parameter>
											<name>opacity</name>
											<parameterid>opacity</parameterid>
											<valuemin>0</valuemin>
											<valuemax>100</valuemax>
											<value>100</value>
										</parameter>
									</effect>
								</filter>
								<sourcetrack>
									<mediatype>video</mediatype>
								</sourcetrack>
								<link>
									<linkclipref>ArmA 3 2020.11.28 - 20.29.21.124.mp4805307604</linkclipref>
								</link>
								<link>
									<linkclipref>ArmA 3 2020.11.28 - 20.29.21.124.mp4536872149</linkclipref>
								</link>
								<link>
									<linkclipref>ArmA 3 2020.11.28 - 20.29.21.124.mp45368721491</linkclipref>
								</link>
								<link>
									<linkclipref>ArmA 3 2020.11.28 - 20.29.21.124.mp4536872150</linkclipref>
								</link>
								<link>
									<linkclipref>ArmA 3 2020.11.28 - 20.29.21.124.mp45368721501</linkclipref>
								</link>
								<fielddominance>none</fielddominance>
							</clipitem>
							<clipitem id="ArmA 3 2020.11.28 - 20.30.01.125.mp4805307607">
								<name>ArmA 3 2020.11.28 - 20.30.01.125.mp4</name>
								<duration>336</duration>
								<rate>
									<ntsc>FALSE</ntsc>
									<timebase>60</timebase>
								</rate>
								<in>0</in>
								<out>336</out>
								<start>2299</start>
								<end>2635</end>
								<pixelaspectratio>Square</pixelaspectratio>
								<anamorphic>FALSE</anamorphic>
								<alphatype>none</alphatype>
								<masterclipid>ArmA 3 2020.11.28 - 20.30.01.125.mp4</masterclipid>
								<logginginfo>
									<scene />
									<shottake />
									<lognote />
									<good>FALSE</good>
								</logginginfo>
								<labels>
									<label2 />
								</labels>
								<comments>
									<mastercomment1 />
									<mastercomment2 />
									<mastercomment3 />
									<mastercomment4 />
								</comments>
								<file id="ArmA 3 2020.11.28 - 20.30.01.125" />
								<filter>
									<effect>
										<name>Opacity</name>
										<effectid>opacity</effectid>
										<effectcategory>motion</effectcategory>
										<effecttype>motion</effecttype>
										<mediatype>video</mediatype>
										<parameter>
											<name>opacity</name>
											<parameterid>opacity</parameterid>
											<valuemin>0</valuemin>
											<valuemax>100</valuemax>
											<value>100</value>
										</parameter>
									</effect>
								</filter>
								<sourcetrack>
									<mediatype>video</mediatype>
								</sourcetrack>
								<link>
									<linkclipref>ArmA 3 2020.11.28 - 20.30.01.125.mp4805307607</linkclipref>
								</link>
								<link>
									<linkclipref>ArmA 3 2020.11.28 - 20.30.01.125.mp4536872152</linkclipref>
								</link>
								<link>
									<linkclipref>ArmA 3 2020.11.28 - 20.30.01.125.mp45368721521</linkclipref>
								</link>
								<link>
									<linkclipref>ArmA 3 2020.11.28 - 20.30.01.125.mp4536872153</linkclipref>
								</link>
								<link>
									<linkclipref>ArmA 3 2020.11.28 - 20.30.01.125.mp45368721531</linkclipref>
								</link>
								<fielddominance>none</fielddominance>
							</clipitem>
							<clipitem id="ArmA 3 2020.11.28 - 20.30.43.126.mp4805307610">
								<name>ArmA 3 2020.11.28 - 20.30.43.126.mp4</name>
								<duration>889</duration>
								<rate>
									<ntsc>FALSE</ntsc>
									<timebase>60</timebase>
								</rate>
								<in>0</in>
								<out>889</out>
								<start>2636</start>
								<end>3525</end>
								<pixelaspectratio>Square</pixelaspectratio>
								<anamorphic>FALSE</anamorphic>
								<alphatype>none</alphatype>
								<masterclipid>ArmA 3 2020.11.28 - 20.30.43.126.mp4</masterclipid>
								<logginginfo>
									<scene />
									<shottake />
									<lognote />
									<good>FALSE</good>
								</logginginfo>
								<labels>
									<label2 />
								</labels>
								<comments>
									<mastercomment1 />
									<mastercomment2 />
									<mastercomment3 />
									<mastercomment4 />
								</comments>
								<file id="ArmA 3 2020.11.28 - 20.30.43.126" />
								<filter>
									<effect>
										<name>Opacity</name>
										<effectid>opacity</effectid>
										<effectcategory>motion</effectcategory>
										<effecttype>motion</effecttype>
										<mediatype>video</mediatype>
										<parameter>
											<name>opacity</name>
											<parameterid>opacity</parameterid>
											<valuemin>0</valuemin>
											<valuemax>100</valuemax>
											<value>100</value>
										</parameter>
									</effect>
								</filter>
								<sourcetrack>
									<mediatype>video</mediatype>
								</sourcetrack>
								<link>
									<linkclipref>ArmA 3 2020.11.28 - 20.30.43.126.mp4805307610</linkclipref>
								</link>
								<link>
									<linkclipref>ArmA 3 2020.11.28 - 20.30.43.126.mp4536872155</linkclipref>
								</link>
								<link>
									<linkclipref>ArmA 3 2020.11.28 - 20.30.43.126.mp45368721551</linkclipref>
								</link>
								<link>
									<linkclipref>ArmA 3 2020.11.28 - 20.30.43.126.mp4536872156</linkclipref>
								</link>
								<link>
									<linkclipref>ArmA 3 2020.11.28 - 20.30.43.126.mp45368721561</linkclipref>
								</link>
								<fielddominance>none</fielddominance>
							</clipitem>
							<clipitem id="ArmA 3 2020.11.28 - 20.31.29.127.mp4805307613">
								<name>ArmA 3 2020.11.28 - 20.31.29.127.mp4</name>
								<duration>1130</duration>
								<rate>
									<ntsc>FALSE</ntsc>
									<timebase>60</timebase>
								</rate>
								<in>0</in>
								<out>1130</out>
								<start>3526</start>
								<end>4656</end>
								<pixelaspectratio>Square</pixelaspectratio>
								<anamorphic>FALSE</anamorphic>
								<alphatype>none</alphatype>
								<masterclipid>ArmA 3 2020.11.28 - 20.31.29.127.mp4</masterclipid>
								<logginginfo>
									<scene />
									<shottake />
									<lognote />
									<good>FALSE</good>
								</logginginfo>
								<labels>
									<label2 />
								</labels>
								<comments>
									<mastercomment1 />
									<mastercomment2 />
									<mastercomment3 />
									<mastercomment4 />
								</comments>
								<file id="ArmA 3 2020.11.28 - 20.31.29.127" />
								<filter>
									<effect>
										<name>Opacity</name>
										<effectid>opacity</effectid>
										<effectcategory>motion</effectcategory>
										<effecttype>motion</effecttype>
										<mediatype>video</mediatype>
										<parameter>
											<name>opacity</name>
											<parameterid>opacity</parameterid>
											<valuemin>0</valuemin>
											<valuemax>100</valuemax>
											<value>100</value>
										</parameter>
									</effect>
								</filter>
								<sourcetrack>
									<mediatype>video</mediatype>
								</sourcetrack>
								<link>
									<linkclipref>ArmA 3 2020.11.28 - 20.31.29.127.mp4805307613</linkclipref>
								</link>
								<link>
									<linkclipref>ArmA 3 2020.11.28 - 20.31.29.127.mp4536872158</linkclipref>
								</link>
								<link>
									<linkclipref>ArmA 3 2020.11.28 - 20.31.29.127.mp45368721581</linkclipref>
								</link>
								<link>
									<linkclipref>ArmA 3 2020.11.28 - 20.31.29.127.mp4536872159</linkclipref>
								</link>
								<link>
									<linkclipref>ArmA 3 2020.11.28 - 20.31.29.127.mp45368721591</linkclipref>
								</link>
								<fielddominance>none</fielddominance>
							</clipitem>
							<clipitem id="ArmA 3 2020.11.28 - 20.32.26.128.mp4805307616">
								<name>ArmA 3 2020.11.28 - 20.32.26.128.mp4</name>
								<duration>731</duration>
								<rate>
									<ntsc>FALSE</ntsc>
									<timebase>60</timebase>
								</rate>
								<in>0</in>
								<out>731</out>
								<start>4657</start>
								<end>5388</end>
								<pixelaspectratio>Square</pixelaspectratio>
								<anamorphic>FALSE</anamorphic>
								<alphatype>none</alphatype>
								<masterclipid>ArmA 3 2020.11.28 - 20.32.26.128.mp4</masterclipid>
								<logginginfo>
									<scene />
									<shottake />
									<lognote />
									<good>FALSE</good>
								</logginginfo>
								<labels>
									<label2 />
								</labels>
								<comments>
									<mastercomment1 />
									<mastercomment2 />
									<mastercomment3 />
									<mastercomment4 />
								</comments>
								<file id="ArmA 3 2020.11.28 - 20.32.26.128" />
								<filter>
									<effect>
										<name>Opacity</name>
										<effectid>opacity</effectid>
										<effectcategory>motion</effectcategory>
										<effecttype>motion</effecttype>
										<mediatype>video</mediatype>
										<parameter>
											<name>opacity</name>
											<parameterid>opacity</parameterid>
											<valuemin>0</valuemin>
											<valuemax>100</valuemax>
											<value>100</value>
										</parameter>
									</effect>
								</filter>
								<sourcetrack>
									<mediatype>video</mediatype>
								</sourcetrack>
								<link>
									<linkclipref>ArmA 3 2020.11.28 - 20.32.26.128.mp4805307616</linkclipref>
								</link>
								<link>
									<linkclipref>ArmA 3 2020.11.28 - 20.32.26.128.mp4536872161</linkclipref>
								</link>
								<link>
									<linkclipref>ArmA 3 2020.11.28 - 20.32.26.128.mp45368721611</linkclipref>
								</link>
								<link>
									<linkclipref>ArmA 3 2020.11.28 - 20.32.26.128.mp4536872162</linkclipref>
								</link>
								<link>
									<linkclipref>ArmA 3 2020.11.28 - 20.32.26.128.mp45368721621</linkclipref>
								</link>
								<fielddominance>none</fielddominance>
							</clipitem>
							<clipitem id="ArmA 3 2020.11.28 - 20.33.18.129.mp4805307619">
								<name>ArmA 3 2020.11.28 - 20.33.18.129.mp4</name>
								<duration>772</duration>
								<rate>
									<ntsc>TRUE</ntsc>
									<timebase>60</timebase>
								</rate>
								<in>0</in>
								<out>772</out>
								<start>5389</start>
								<end>6161</end>
								<pixelaspectratio>Square</pixelaspectratio>
								<anamorphic>FALSE</anamorphic>
								<alphatype>none</alphatype>
								<masterclipid>ArmA 3 2020.11.28 - 20.33.18.129.mp4</masterclipid>
								<logginginfo>
									<scene />
									<shottake />
									<lognote />
									<good>FALSE</good>
								</logginginfo>
								<labels>
									<label2 />
								</labels>
								<comments>
									<mastercomment1 />
									<mastercomment2 />
									<mastercomment3 />
									<mastercomment4 />
								</comments>
								<file id="ArmA 3 2020.11.28 - 20.33.18.129" />
								<filter>
									<effect>
										<name>Opacity</name>
										<effectid>opacity</effectid>
										<effectcategory>motion</effectcategory>
										<effecttype>motion</effecttype>
										<mediatype>video</mediatype>
										<parameter>
											<name>opacity</name>
											<parameterid>opacity</parameterid>
											<valuemin>0</valuemin>
											<valuemax>100</valuemax>
											<value>100</value>
										</parameter>
									</effect>
								</filter>
								<sourcetrack>
									<mediatype>video</mediatype>
								</sourcetrack>
								<link>
									<linkclipref>ArmA 3 2020.11.28 - 20.33.18.129.mp4805307619</linkclipref>
								</link>
								<link>
									<linkclipref>ArmA 3 2020.11.28 - 20.33.18.129.mp4536872164</linkclipref>
								</link>
								<link>
									<linkclipref>ArmA 3 2020.11.28 - 20.33.18.129.mp45368721641</linkclipref>
								</link>
								<link>
									<linkclipref>ArmA 3 2020.11.28 - 20.33.18.129.mp4536872165</linkclipref>
								</link>
								<link>
									<linkclipref>ArmA 3 2020.11.28 - 20.33.18.129.mp45368721651</linkclipref>
								</link>
								<fielddominance>none</fielddominance>
							</clipitem>
							<clipitem id="ArmA 3 2020.11.28 - 20.34.04.130.mp4805307622">
								<name>ArmA 3 2020.11.28 - 20.34.04.130.mp4</name>
								<duration>521</duration>
								<rate>
									<ntsc>FALSE</ntsc>
									<timebase>60</timebase>
								</rate>
								<in>0</in>
								<out>521</out>
								<start>6162</start>
								<end>6683</end>
								<pixelaspectratio>Square</pixelaspectratio>
								<anamorphic>FALSE</anamorphic>
								<alphatype>none</alphatype>
								<masterclipid>ArmA 3 2020.11.28 - 20.34.04.130.mp4</masterclipid>
								<logginginfo>
									<scene />
									<shottake />
									<lognote />
									<good>FALSE</good>
								</logginginfo>
								<labels>
									<label2 />
								</labels>
								<comments>
									<mastercomment1 />
									<mastercomment2 />
									<mastercomment3 />
									<mastercomment4 />
								</comments>
								<file id="ArmA 3 2020.11.28 - 20.34.04.130" />
								<filter>
									<effect>
										<name>Opacity</name>
										<effectid>opacity</effectid>
										<effectcategory>motion</effectcategory>
										<effecttype>motion</effecttype>
										<mediatype>video</mediatype>
										<parameter>
											<name>opacity</name>
											<parameterid>opacity</parameterid>
											<valuemin>0</valuemin>
											<valuemax>100</valuemax>
											<value>100</value>
										</parameter>
									</effect>
								</filter>
								<sourcetrack>
									<mediatype>video</mediatype>
								</sourcetrack>
								<link>
									<linkclipref>ArmA 3 2020.11.28 - 20.34.04.130.mp4805307622</linkclipref>
								</link>
								<link>
									<linkclipref>ArmA 3 2020.11.28 - 20.34.04.130.mp4536872167</linkclipref>
								</link>
								<link>
									<linkclipref>ArmA 3 2020.11.28 - 20.34.04.130.mp45368721671</linkclipref>
								</link>
								<link>
									<linkclipref>ArmA 3 2020.11.28 - 20.34.04.130.mp4536872168</linkclipref>
								</link>
								<link>
									<linkclipref>ArmA 3 2020.11.28 - 20.34.04.130.mp45368721681</linkclipref>
								</link>
								<fielddominance>none</fielddominance>
							</clipitem>
							<clipitem id="ArmA 3 2020.11.28 - 20.35.50.131.mp4805307625">
								<name>ArmA 3 2020.11.28 - 20.35.50.131.mp4</name>
								<duration>315</duration>
								<rate>
									<ntsc>FALSE</ntsc>
									<timebase>60</timebase>
								</rate>
								<in>0</in>
								<out>315</out>
								<start>6684</start>
								<end>6999</end>
								<pixelaspectratio>Square</pixelaspectratio>
								<anamorphic>FALSE</anamorphic>
								<alphatype>none</alphatype>
								<masterclipid>ArmA 3 2020.11.28 - 20.35.50.131.mp4</masterclipid>
								<logginginfo>
									<scene />
									<shottake />
									<lognote />
									<good>FALSE</good>
								</logginginfo>
								<labels>
									<label2 />
								</labels>
								<comments>
									<mastercomment1 />
									<mastercomment2 />
									<mastercomment3 />
									<mastercomment4 />
								</comments>
								<file id="ArmA 3 2020.11.28 - 20.35.50.131" />
								<filter>
									<effect>
										<name>Opacity</name>
										<effectid>opacity</effectid>
										<effectcategory>motion</effectcategory>
										<effecttype>motion</effecttype>
										<mediatype>video</mediatype>
										<parameter>
											<name>opacity</name>
											<parameterid>opacity</parameterid>
											<valuemin>0</valuemin>
											<valuemax>100</valuemax>
											<value>100</value>
										</parameter>
									</effect>
								</filter>
								<sourcetrack>
									<mediatype>video</mediatype>
								</sourcetrack>
								<link>
									<linkclipref>ArmA 3 2020.11.28 - 20.35.50.131.mp4805307625</linkclipref>
								</link>
								<link>
									<linkclipref>ArmA 3 2020.11.28 - 20.35.50.131.mp4536872170</linkclipref>
								</link>
								<link>
									<linkclipref>ArmA 3 2020.11.28 - 20.35.50.131.mp45368721701</linkclipref>
								</link>
								<link>
									<linkclipref>ArmA 3 2020.11.28 - 20.35.50.131.mp4536872171</linkclipref>
								</link>
								<link>
									<linkclipref>ArmA 3 2020.11.28 - 20.35.50.131.mp45368721711</linkclipref>
								</link>
								<fielddominance>none</fielddominance>
							</clipitem>
							<clipitem id="ArmA 3 2020.11.28 - 20.45.07.132.mp4805307628">
								<name>ArmA 3 2020.11.28 - 20.45.07.132.mp4</name>
								<duration>502</duration>
								<rate>
									<ntsc>FALSE</ntsc>
									<timebase>60</timebase>
								</rate>
								<in>0</in>
								<out>502</out>
								<start>7000</start>
								<end>7502</end>
								<pixelaspectratio>Square</pixelaspectratio>
								<anamorphic>FALSE</anamorphic>
								<alphatype>none</alphatype>
								<masterclipid>ArmA 3 2020.11.28 - 20.45.07.132.mp4</masterclipid>
								<logginginfo>
									<scene />
									<shottake />
									<lognote />
									<good>FALSE</good>
								</logginginfo>
								<labels>
									<label2 />
								</labels>
								<comments>
									<mastercomment1 />
									<mastercomment2 />
									<mastercomment3 />
									<mastercomment4 />
								</comments>
								<file id="ArmA 3 2020.11.28 - 20.45.07.132" />
								<filter>
									<effect>
										<name>Opacity</name>
										<effectid>opacity</effectid>
										<effectcategory>motion</effectcategory>
										<effecttype>motion</effecttype>
										<mediatype>video</mediatype>
										<parameter>
											<name>opacity</name>
											<parameterid>opacity</parameterid>
											<valuemin>0</valuemin>
											<valuemax>100</valuemax>
											<value>100</value>
										</parameter>
									</effect>
								</filter>
								<sourcetrack>
									<mediatype>video</mediatype>
								</sourcetrack>
								<link>
									<linkclipref>ArmA 3 2020.11.28 - 20.45.07.132.mp4805307628</linkclipref>
								</link>
								<link>
									<linkclipref>ArmA 3 2020.11.28 - 20.45.07.132.mp4536872173</linkclipref>
								</link>
								<link>
									<linkclipref>ArmA 3 2020.11.28 - 20.45.07.132.mp45368721731</linkclipref>
								</link>
								<link>
									<linkclipref>ArmA 3 2020.11.28 - 20.45.07.132.mp4536872174</linkclipref>
								</link>
								<link>
									<linkclipref>ArmA 3 2020.11.28 - 20.45.07.132.mp45368721741</linkclipref>
								</link>
								<fielddominance>none</fielddominance>
							</clipitem>
							<clipitem id="ArmA 3 2020.11.28 - 20.48.15.133.mp4805307631">
								<name>ArmA 3 2020.11.28 - 20.48.15.133.mp4</name>
								<duration>1172</duration>
								<rate>
									<ntsc>FALSE</ntsc>
									<timebase>60</timebase>
								</rate>
								<in>0</in>
								<out>1172</out>
								<start>7503</start>
								<end>8675</end>
								<pixelaspectratio>Square</pixelaspectratio>
								<anamorphic>FALSE</anamorphic>
								<alphatype>none</alphatype>
								<masterclipid>ArmA 3 2020.11.28 - 20.48.15.133.mp4</masterclipid>
								<logginginfo>
									<scene />
									<shottake />
									<lognote />
									<good>FALSE</good>
								</logginginfo>
								<labels>
									<label2 />
								</labels>
								<comments>
									<mastercomment1 />
									<mastercomment2 />
									<mastercomment3 />
									<mastercomment4 />
								</comments>
								<file id="ArmA 3 2020.11.28 - 20.48.15.133" />
								<filter>
									<effect>
										<name>Opacity</name>
										<effectid>opacity</effectid>
										<effectcategory>motion</effectcategory>
										<effecttype>motion</effecttype>
										<mediatype>video</mediatype>
										<parameter>
											<name>opacity</name>
											<parameterid>opacity</parameterid>
											<valuemin>0</valuemin>
											<valuemax>100</valuemax>
											<value>100</value>
										</parameter>
									</effect>
								</filter>
								<sourcetrack>
									<mediatype>video</mediatype>
								</sourcetrack>
								<link>
									<linkclipref>ArmA 3 2020.11.28 - 20.48.15.133.mp4805307631</linkclipref>
								</link>
								<link>
									<linkclipref>ArmA 3 2020.11.28 - 20.48.15.133.mp4536872176</linkclipref>
								</link>
								<link>
									<linkclipref>ArmA 3 2020.11.28 - 20.48.15.133.mp45368721761</linkclipref>
								</link>
								<link>
									<linkclipref>ArmA 3 2020.11.28 - 20.48.15.133.mp4536872177</linkclipref>
								</link>
								<link>
									<linkclipref>ArmA 3 2020.11.28 - 20.48.15.133.mp45368721771</linkclipref>
								</link>
								<fielddominance>none</fielddominance>
							</clipitem>
							<clipitem id="ArmA 3 2020.11.28 - 20.49.24.134.mp4805307634">
								<name>ArmA 3 2020.11.28 - 20.49.24.134.mp4</name>
								<duration>1233</duration>
								<rate>
									<ntsc>FALSE</ntsc>
									<timebase>60</timebase>
								</rate>
								<in>0</in>
								<out>1233</out>
								<start>8676</start>
								<end>9909</end>
								<pixelaspectratio>Square</pixelaspectratio>
								<anamorphic>FALSE</anamorphic>
								<alphatype>none</alphatype>
								<masterclipid>ArmA 3 2020.11.28 - 20.49.24.134.mp4</masterclipid>
								<logginginfo>
									<scene />
									<shottake />
									<lognote />
									<good>FALSE</good>
								</logginginfo>
								<labels>
									<label2 />
								</labels>
								<comments>
									<mastercomment1 />
									<mastercomment2 />
									<mastercomment3 />
									<mastercomment4 />
								</comments>
								<file id="ArmA 3 2020.11.28 - 20.49.24.134" />
								<filter>
									<effect>
										<name>Opacity</name>
										<effectid>opacity</effectid>
										<effectcategory>motion</effectcategory>
										<effecttype>motion</effecttype>
										<mediatype>video</mediatype>
										<parameter>
											<name>opacity</name>
											<parameterid>opacity</parameterid>
											<valuemin>0</valuemin>
											<valuemax>100</valuemax>
											<value>100</value>
										</parameter>
									</effect>
								</filter>
								<sourcetrack>
									<mediatype>video</mediatype>
								</sourcetrack>
								<link>
									<linkclipref>ArmA 3 2020.11.28 - 20.49.24.134.mp4805307634</linkclipref>
								</link>
								<link>
									<linkclipref>ArmA 3 2020.11.28 - 20.49.24.134.mp4536872179</linkclipref>
								</link>
								<link>
									<linkclipref>ArmA 3 2020.11.28 - 20.49.24.134.mp45368721791</linkclipref>
								</link>
								<link>
									<linkclipref>ArmA 3 2020.11.28 - 20.49.24.134.mp4536872180</linkclipref>
								</link>
								<link>
									<linkclipref>ArmA 3 2020.11.28 - 20.49.24.134.mp45368721801</linkclipref>
								</link>
								<fielddominance>none</fielddominance>
							</clipitem>
							<clipitem id="ArmA 3 2020.11.28 - 20.50.27.135.mp4805307637">
								<name>ArmA 3 2020.11.28 - 20.50.27.135.mp4</name>
								<duration>754</duration>
								<rate>
									<ntsc>FALSE</ntsc>
									<timebase>60</timebase>
								</rate>
								<in>0</in>
								<out>754</out>
								<start>9910</start>
								<end>10664</end>
								<pixelaspectratio>Square</pixelaspectratio>
								<anamorphic>FALSE</anamorphic>
								<alphatype>none</alphatype>
								<masterclipid>ArmA 3 2020.11.28 - 20.50.27.135.mp4</masterclipid>
								<logginginfo>
									<scene />
									<shottake />
									<lognote />
									<good>FALSE</good>
								</logginginfo>
								<labels>
									<label2 />
								</labels>
								<comments>
									<mastercomment1 />
									<mastercomment2 />
									<mastercomment3 />
									<mastercomment4 />
								</comments>
								<file id="ArmA 3 2020.11.28 - 20.50.27.135" />
								<filter>
									<effect>
										<name>Opacity</name>
										<effectid>opacity</effectid>
										<effectcategory>motion</effectcategory>
										<effecttype>motion</effecttype>
										<mediatype>video</mediatype>
										<parameter>
											<name>opacity</name>
											<parameterid>opacity</parameterid>
											<valuemin>0</valuemin>
											<valuemax>100</valuemax>
											<value>100</value>
										</parameter>
									</effect>
								</filter>
								<sourcetrack>
									<mediatype>video</mediatype>
								</sourcetrack>
								<link>
									<linkclipref>ArmA 3 2020.11.28 - 20.50.27.135.mp4805307637</linkclipref>
								</link>
								<link>
									<linkclipref>ArmA 3 2020.11.28 - 20.50.27.135.mp4536872182</linkclipref>
								</link>
								<link>
									<linkclipref>ArmA 3 2020.11.28 - 20.50.27.135.mp45368721821</linkclipref>
								</link>
								<link>
									<linkclipref>ArmA 3 2020.11.28 - 20.50.27.135.mp4536872183</linkclipref>
								</link>
								<link>
									<linkclipref>ArmA 3 2020.11.28 - 20.50.27.135.mp45368721831</linkclipref>
								</link>
								<fielddominance>none</fielddominance>
							</clipitem>
						</track>
					</video>
					<audio>
						<track>
							<clipitem id="ArmA 3 2020.11.28 - 20.26.45.120.mp4536872138">
								<name>ArmA 3 2020.11.28 - 20.26.45.120.mp4</name>
								<duration>443</duration>
								<rate>
									<ntsc>TRUE</ntsc>
									<timebase>24</timebase>
								</rate>
								<in>0</in>
								<out>443</out>
								<start>0</start>
								<end>443</end>
								<enabled>FALSE</enabled>
								<masterclipid>ArmA 3 2020.11.28 - 20.26.45.120.mp4</masterclipid>
								<logginginfo>
									<scene />
									<shottake />
									<lognote />
									<good>FALSE</good>
								</logginginfo>
								<labels>
									<label2 />
								</labels>
								<comments>
									<mastercomment1 />
									<mastercomment2 />
									<mastercomment3 />
									<mastercomment4 />
								</comments>
								<file id="ArmA 3 2020.11.28 - 20.26.45.120" />
								<filter>
									<effect>
										<name>Audio Levels</name>
										<effectid>audiolevels</effectid>
										<effectcategory>audiolevels</effectcategory>
										<effecttype>audiolevels</effecttype>
										<mediatype>audio</mediatype>
										<parameter>
											<name>Level</name>
											<parameterid>level</parameterid>
											<valuemin>0</valuemin>
											<valuemax>3,98109</valuemax>
											<value>1</value>
										</parameter>
									</effect>
								</filter>
								<filter>
									<effect>
										<name>Audio Pan</name>
										<effectid>audiopan</effectid>
										<effectcategory>audiopan</effectcategory>
										<effecttype>audiopan</effecttype>
										<mediatype>audio</mediatype>
										<parameter>
											<name>Pan</name>
											<parameterid>pan</parameterid>
											<valuemin>-1</valuemin>
											<valuemax>1</valuemax>
											<value>-1</value>
										</parameter>
									</effect>
								</filter>
								<sourcetrack>
									<mediatype>audio</mediatype>
									<trackindex>1</trackindex>
								</sourcetrack>
								<link>
									<linkclipref>ArmA 3 2020.11.28 - 20.26.45.120.mp4805307592</linkclipref>
								</link>
								<link>
									<linkclipref>ArmA 3 2020.11.28 - 20.26.45.120.mp4536872137</linkclipref>
								</link>
								<link>
									<linkclipref>ArmA 3 2020.11.28 - 20.26.45.120.mp45368721371</linkclipref>
								</link>
								<link>
									<linkclipref>ArmA 3 2020.11.28 - 20.26.45.120.mp4536872138</linkclipref>
								</link>
								<link>
									<linkclipref>ArmA 3 2020.11.28 - 20.26.45.120.mp45368721381</linkclipref>
								</link>
							</clipitem>
							<clipitem id="ArmA 3 2020.11.28 - 20.27.22.121.mp4536872141">
								<name>ArmA 3 2020.11.28 - 20.27.22.121.mp4</name>
								<duration>411</duration>
								<rate>
									<ntsc>TRUE</ntsc>
									<timebase>24</timebase>
								</rate>
								<in>0</in>
								<out>411</out>
								<start>444</start>
								<end>855</end>
								<enabled>FALSE</enabled>
								<masterclipid>ArmA 3 2020.11.28 - 20.27.22.121.mp4</masterclipid>
								<logginginfo>
									<scene />
									<shottake />
									<lognote />
									<good>FALSE</good>
								</logginginfo>
								<labels>
									<label2 />
								</labels>
								<comments>
									<mastercomment1 />
									<mastercomment2 />
									<mastercomment3 />
									<mastercomment4 />
								</comments>
								<file id="ArmA 3 2020.11.28 - 20.27.22.121" />
								<filter>
									<effect>
										<name>Audio Levels</name>
										<effectid>audiolevels</effectid>
										<effectcategory>audiolevels</effectcategory>
										<effecttype>audiolevels</effecttype>
										<mediatype>audio</mediatype>
										<parameter>
											<name>Level</name>
											<parameterid>level</parameterid>
											<valuemin>0</valuemin>
											<valuemax>3,98109</valuemax>
											<value>1</value>
										</parameter>
									</effect>
								</filter>
								<filter>
									<effect>
										<name>Audio Pan</name>
										<effectid>audiopan</effectid>
										<effectcategory>audiopan</effectcategory>
										<effecttype>audiopan</effecttype>
										<mediatype>audio</mediatype>
										<parameter>
											<name>Pan</name>
											<parameterid>pan</parameterid>
											<valuemin>-1</valuemin>
											<valuemax>1</valuemax>
											<value>-1</value>
										</parameter>
									</effect>
								</filter>
								<sourcetrack>
									<mediatype>audio</mediatype>
									<trackindex>1</trackindex>
								</sourcetrack>
								<link>
									<linkclipref>ArmA 3 2020.11.28 - 20.27.22.121.mp4805307595</linkclipref>
								</link>
								<link>
									<linkclipref>ArmA 3 2020.11.28 - 20.27.22.121.mp4536872140</linkclipref>
								</link>
								<link>
									<linkclipref>ArmA 3 2020.11.28 - 20.27.22.121.mp45368721401</linkclipref>
								</link>
								<link>
									<linkclipref>ArmA 3 2020.11.28 - 20.27.22.121.mp4536872141</linkclipref>
								</link>
								<link>
									<linkclipref>ArmA 3 2020.11.28 - 20.27.22.121.mp45368721411</linkclipref>
								</link>
							</clipitem>
							<clipitem id="ArmA 3 2020.11.28 - 20.28.12.122.mp4536872144">
								<name>ArmA 3 2020.11.28 - 20.28.12.122.mp4</name>
								<duration>354</duration>
								<rate>
									<ntsc>TRUE</ntsc>
									<timebase>24</timebase>
								</rate>
								<in>0</in>
								<out>354</out>
								<start>856</start>
								<end>1210</end>
								<enabled>FALSE</enabled>
								<masterclipid>ArmA 3 2020.11.28 - 20.28.12.122.mp4</masterclipid>
								<logginginfo>
									<scene />
									<shottake />
									<lognote />
									<good>FALSE</good>
								</logginginfo>
								<labels>
									<label2 />
								</labels>
								<comments>
									<mastercomment1 />
									<mastercomment2 />
									<mastercomment3 />
									<mastercomment4 />
								</comments>
								<file id="ArmA 3 2020.11.28 - 20.28.12.122" />
								<filter>
									<effect>
										<name>Audio Levels</name>
										<effectid>audiolevels</effectid>
										<effectcategory>audiolevels</effectcategory>
										<effecttype>audiolevels</effecttype>
										<mediatype>audio</mediatype>
										<parameter>
											<name>Level</name>
											<parameterid>level</parameterid>
											<valuemin>0</valuemin>
											<valuemax>3,98109</valuemax>
											<value>1</value>
										</parameter>
									</effect>
								</filter>
								<filter>
									<effect>
										<name>Audio Pan</name>
										<effectid>audiopan</effectid>
										<effectcategory>audiopan</effectcategory>
										<effecttype>audiopan</effecttype>
										<mediatype>audio</mediatype>
										<parameter>
											<name>Pan</name>
											<parameterid>pan</parameterid>
											<valuemin>-1</valuemin>
											<valuemax>1</valuemax>
											<value>-1</value>
										</parameter>
									</effect>
								</filter>
								<sourcetrack>
									<mediatype>audio</mediatype>
									<trackindex>1</trackindex>
								</sourcetrack>
								<link>
									<linkclipref>ArmA 3 2020.11.28 - 20.28.12.122.mp4805307598</linkclipref>
								</link>
								<link>
									<linkclipref>ArmA 3 2020.11.28 - 20.28.12.122.mp4536872143</linkclipref>
								</link>
								<link>
									<linkclipref>ArmA 3 2020.11.28 - 20.28.12.122.mp45368721431</linkclipref>
								</link>
								<link>
									<linkclipref>ArmA 3 2020.11.28 - 20.28.12.122.mp4536872144</linkclipref>
								</link>
								<link>
									<linkclipref>ArmA 3 2020.11.28 - 20.28.12.122.mp45368721441</linkclipref>
								</link>
							</clipitem>
							<clipitem id="ArmA 3 2020.11.28 - 20.28.56.123.mp4536872147">
								<name>ArmA 3 2020.11.28 - 20.28.56.123.mp4</name>
								<duration>496</duration>
								<rate>
									<ntsc>TRUE</ntsc>
									<timebase>24</timebase>
								</rate>
								<in>0</in>
								<out>496</out>
								<start>1211</start>
								<end>1707</end>
								<enabled>FALSE</enabled>
								<masterclipid>ArmA 3 2020.11.28 - 20.28.56.123.mp4</masterclipid>
								<logginginfo>
									<scene />
									<shottake />
									<lognote />
									<good>FALSE</good>
								</logginginfo>
								<labels>
									<label2 />
								</labels>
								<comments>
									<mastercomment1 />
									<mastercomment2 />
									<mastercomment3 />
									<mastercomment4 />
								</comments>
								<file id="ArmA 3 2020.11.28 - 20.28.56.123" />
								<filter>
									<effect>
										<name>Audio Levels</name>
										<effectid>audiolevels</effectid>
										<effectcategory>audiolevels</effectcategory>
										<effecttype>audiolevels</effecttype>
										<mediatype>audio</mediatype>
										<parameter>
											<name>Level</name>
											<parameterid>level</parameterid>
											<valuemin>0</valuemin>
											<valuemax>3,98109</valuemax>
											<value>1</value>
										</parameter>
									</effect>
								</filter>
								<filter>
									<effect>
										<name>Audio Pan</name>
										<effectid>audiopan</effectid>
										<effectcategory>audiopan</effectcategory>
										<effecttype>audiopan</effecttype>
										<mediatype>audio</mediatype>
										<parameter>
											<name>Pan</name>
											<parameterid>pan</parameterid>
											<valuemin>-1</valuemin>
											<valuemax>1</valuemax>
											<value>-1</value>
										</parameter>
									</effect>
								</filter>
								<sourcetrack>
									<mediatype>audio</mediatype>
									<trackindex>1</trackindex>
								</sourcetrack>
								<link>
									<linkclipref>ArmA 3 2020.11.28 - 20.28.56.123.mp4805307601</linkclipref>
								</link>
								<link>
									<linkclipref>ArmA 3 2020.11.28 - 20.28.56.123.mp4536872146</linkclipref>
								</link>
								<link>
									<linkclipref>ArmA 3 2020.11.28 - 20.28.56.123.mp45368721461</linkclipref>
								</link>
								<link>
									<linkclipref>ArmA 3 2020.11.28 - 20.28.56.123.mp4536872147</linkclipref>
								</link>
								<link>
									<linkclipref>ArmA 3 2020.11.28 - 20.28.56.123.mp45368721471</linkclipref>
								</link>
							</clipitem>
							<clipitem id="ArmA 3 2020.11.28 - 20.29.21.124.mp4536872150">
								<name>ArmA 3 2020.11.28 - 20.29.21.124.mp4</name>
								<duration>590</duration>
								<rate>
									<ntsc>TRUE</ntsc>
									<timebase>24</timebase>
								</rate>
								<in>0</in>
								<out>590</out>
								<start>1708</start>
								<end>2298</end>
								<enabled>FALSE</enabled>
								<masterclipid>ArmA 3 2020.11.28 - 20.29.21.124.mp4</masterclipid>
								<logginginfo>
									<scene />
									<shottake />
									<lognote />
									<good>FALSE</good>
								</logginginfo>
								<labels>
									<label2 />
								</labels>
								<comments>
									<mastercomment1 />
									<mastercomment2 />
									<mastercomment3 />
									<mastercomment4 />
								</comments>
								<file id="ArmA 3 2020.11.28 - 20.29.21.124" />
								<filter>
									<effect>
										<name>Audio Levels</name>
										<effectid>audiolevels</effectid>
										<effectcategory>audiolevels</effectcategory>
										<effecttype>audiolevels</effecttype>
										<mediatype>audio</mediatype>
										<parameter>
											<name>Level</name>
											<parameterid>level</parameterid>
											<valuemin>0</valuemin>
											<valuemax>3,98109</valuemax>
											<value>1</value>
										</parameter>
									</effect>
								</filter>
								<filter>
									<effect>
										<name>Audio Pan</name>
										<effectid>audiopan</effectid>
										<effectcategory>audiopan</effectcategory>
										<effecttype>audiopan</effecttype>
										<mediatype>audio</mediatype>
										<parameter>
											<name>Pan</name>
											<parameterid>pan</parameterid>
											<valuemin>-1</valuemin>
											<valuemax>1</valuemax>
											<value>-1</value>
										</parameter>
									</effect>
								</filter>
								<sourcetrack>
									<mediatype>audio</mediatype>
									<trackindex>1</trackindex>
								</sourcetrack>
								<link>
									<linkclipref>ArmA 3 2020.11.28 - 20.29.21.124.mp4805307604</linkclipref>
								</link>
								<link>
									<linkclipref>ArmA 3 2020.11.28 - 20.29.21.124.mp4536872149</linkclipref>
								</link>
								<link>
									<linkclipref>ArmA 3 2020.11.28 - 20.29.21.124.mp45368721491</linkclipref>
								</link>
								<link>
									<linkclipref>ArmA 3 2020.11.28 - 20.29.21.124.mp4536872150</linkclipref>
								</link>
								<link>
									<linkclipref>ArmA 3 2020.11.28 - 20.29.21.124.mp45368721501</linkclipref>
								</link>
							</clipitem>
							<clipitem id="ArmA 3 2020.11.28 - 20.30.01.125.mp4536872153">
								<name>ArmA 3 2020.11.28 - 20.30.01.125.mp4</name>
								<duration>336</duration>
								<rate>
									<ntsc>TRUE</ntsc>
									<timebase>24</timebase>
								</rate>
								<in>0</in>
								<out>336</out>
								<start>2299</start>
								<end>2635</end>
								<enabled>FALSE</enabled>
								<masterclipid>ArmA 3 2020.11.28 - 20.30.01.125.mp4</masterclipid>
								<logginginfo>
									<scene />
									<shottake />
									<lognote />
									<good>FALSE</good>
								</logginginfo>
								<labels>
									<label2 />
								</labels>
								<comments>
									<mastercomment1 />
									<mastercomment2 />
									<mastercomment3 />
									<mastercomment4 />
								</comments>
								<file id="ArmA 3 2020.11.28 - 20.30.01.125" />
								<filter>
									<effect>
										<name>Audio Levels</name>
										<effectid>audiolevels</effectid>
										<effectcategory>audiolevels</effectcategory>
										<effecttype>audiolevels</effecttype>
										<mediatype>audio</mediatype>
										<parameter>
											<name>Level</name>
											<parameterid>level</parameterid>
											<valuemin>0</valuemin>
											<valuemax>3,98109</valuemax>
											<value>1</value>
										</parameter>
									</effect>
								</filter>
								<filter>
									<effect>
										<name>Audio Pan</name>
										<effectid>audiopan</effectid>
										<effectcategory>audiopan</effectcategory>
										<effecttype>audiopan</effecttype>
										<mediatype>audio</mediatype>
										<parameter>
											<name>Pan</name>
											<parameterid>pan</parameterid>
											<valuemin>-1</valuemin>
											<valuemax>1</valuemax>
											<value>-1</value>
										</parameter>
									</effect>
								</filter>
								<sourcetrack>
									<mediatype>audio</mediatype>
									<trackindex>1</trackindex>
								</sourcetrack>
								<link>
									<linkclipref>ArmA 3 2020.11.28 - 20.30.01.125.mp4805307607</linkclipref>
								</link>
								<link>
									<linkclipref>ArmA 3 2020.11.28 - 20.30.01.125.mp4536872152</linkclipref>
								</link>
								<link>
									<linkclipref>ArmA 3 2020.11.28 - 20.30.01.125.mp45368721521</linkclipref>
								</link>
								<link>
									<linkclipref>ArmA 3 2020.11.28 - 20.30.01.125.mp4536872153</linkclipref>
								</link>
								<link>
									<linkclipref>ArmA 3 2020.11.28 - 20.30.01.125.mp45368721531</linkclipref>
								</link>
							</clipitem>
							<clipitem id="ArmA 3 2020.11.28 - 20.30.43.126.mp4536872156">
								<name>ArmA 3 2020.11.28 - 20.30.43.126.mp4</name>
								<duration>889</duration>
								<rate>
									<ntsc>TRUE</ntsc>
									<timebase>24</timebase>
								</rate>
								<in>0</in>
								<out>889</out>
								<start>2636</start>
								<end>3525</end>
								<enabled>FALSE</enabled>
								<masterclipid>ArmA 3 2020.11.28 - 20.30.43.126.mp4</masterclipid>
								<logginginfo>
									<scene />
									<shottake />
									<lognote />
									<good>FALSE</good>
								</logginginfo>
								<labels>
									<label2 />
								</labels>
								<comments>
									<mastercomment1 />
									<mastercomment2 />
									<mastercomment3 />
									<mastercomment4 />
								</comments>
								<file id="ArmA 3 2020.11.28 - 20.30.43.126" />
								<filter>
									<effect>
										<name>Audio Levels</name>
										<effectid>audiolevels</effectid>
										<effectcategory>audiolevels</effectcategory>
										<effecttype>audiolevels</effecttype>
										<mediatype>audio</mediatype>
										<parameter>
											<name>Level</name>
											<parameterid>level</parameterid>
											<valuemin>0</valuemin>
											<valuemax>3,98109</valuemax>
											<value>1</value>
										</parameter>
									</effect>
								</filter>
								<filter>
									<effect>
										<name>Audio Pan</name>
										<effectid>audiopan</effectid>
										<effectcategory>audiopan</effectcategory>
										<effecttype>audiopan</effecttype>
										<mediatype>audio</mediatype>
										<parameter>
											<name>Pan</name>
											<parameterid>pan</parameterid>
											<valuemin>-1</valuemin>
											<valuemax>1</valuemax>
											<value>-1</value>
										</parameter>
									</effect>
								</filter>
								<sourcetrack>
									<mediatype>audio</mediatype>
									<trackindex>1</trackindex>
								</sourcetrack>
								<link>
									<linkclipref>ArmA 3 2020.11.28 - 20.30.43.126.mp4805307610</linkclipref>
								</link>
								<link>
									<linkclipref>ArmA 3 2020.11.28 - 20.30.43.126.mp4536872155</linkclipref>
								</link>
								<link>
									<linkclipref>ArmA 3 2020.11.28 - 20.30.43.126.mp45368721551</linkclipref>
								</link>
								<link>
									<linkclipref>ArmA 3 2020.11.28 - 20.30.43.126.mp4536872156</linkclipref>
								</link>
								<link>
									<linkclipref>ArmA 3 2020.11.28 - 20.30.43.126.mp45368721561</linkclipref>
								</link>
							</clipitem>
							<clipitem id="ArmA 3 2020.11.28 - 20.31.29.127.mp4536872159">
								<name>ArmA 3 2020.11.28 - 20.31.29.127.mp4</name>
								<duration>1130</duration>
								<rate>
									<ntsc>TRUE</ntsc>
									<timebase>24</timebase>
								</rate>
								<in>0</in>
								<out>1130</out>
								<start>3526</start>
								<end>4656</end>
								<enabled>FALSE</enabled>
								<masterclipid>ArmA 3 2020.11.28 - 20.31.29.127.mp4</masterclipid>
								<logginginfo>
									<scene />
									<shottake />
									<lognote />
									<good>FALSE</good>
								</logginginfo>
								<labels>
									<label2 />
								</labels>
								<comments>
									<mastercomment1 />
									<mastercomment2 />
									<mastercomment3 />
									<mastercomment4 />
								</comments>
								<file id="ArmA 3 2020.11.28 - 20.31.29.127" />
								<filter>
									<effect>
										<name>Audio Levels</name>
										<effectid>audiolevels</effectid>
										<effectcategory>audiolevels</effectcategory>
										<effecttype>audiolevels</effecttype>
										<mediatype>audio</mediatype>
										<parameter>
											<name>Level</name>
											<parameterid>level</parameterid>
											<valuemin>0</valuemin>
											<valuemax>3,98109</valuemax>
											<value>1</value>
										</parameter>
									</effect>
								</filter>
								<filter>
									<effect>
										<name>Audio Pan</name>
										<effectid>audiopan</effectid>
										<effectcategory>audiopan</effectcategory>
										<effecttype>audiopan</effecttype>
										<mediatype>audio</mediatype>
										<parameter>
											<name>Pan</name>
											<parameterid>pan</parameterid>
											<valuemin>-1</valuemin>
											<valuemax>1</valuemax>
											<value>-1</value>
										</parameter>
									</effect>
								</filter>
								<sourcetrack>
									<mediatype>audio</mediatype>
									<trackindex>1</trackindex>
								</sourcetrack>
								<link>
									<linkclipref>ArmA 3 2020.11.28 - 20.31.29.127.mp4805307613</linkclipref>
								</link>
								<link>
									<linkclipref>ArmA 3 2020.11.28 - 20.31.29.127.mp4536872158</linkclipref>
								</link>
								<link>
									<linkclipref>ArmA 3 2020.11.28 - 20.31.29.127.mp45368721581</linkclipref>
								</link>
								<link>
									<linkclipref>ArmA 3 2020.11.28 - 20.31.29.127.mp4536872159</linkclipref>
								</link>
								<link>
									<linkclipref>ArmA 3 2020.11.28 - 20.31.29.127.mp45368721591</linkclipref>
								</link>
							</clipitem>
							<clipitem id="ArmA 3 2020.11.28 - 20.32.26.128.mp4536872162">
								<name>ArmA 3 2020.11.28 - 20.32.26.128.mp4</name>
								<duration>731</duration>
								<rate>
									<ntsc>TRUE</ntsc>
									<timebase>24</timebase>
								</rate>
								<in>0</in>
								<out>731</out>
								<start>4657</start>
								<end>5388</end>
								<enabled>FALSE</enabled>
								<masterclipid>ArmA 3 2020.11.28 - 20.32.26.128.mp4</masterclipid>
								<logginginfo>
									<scene />
									<shottake />
									<lognote />
									<good>FALSE</good>
								</logginginfo>
								<labels>
									<label2 />
								</labels>
								<comments>
									<mastercomment1 />
									<mastercomment2 />
									<mastercomment3 />
									<mastercomment4 />
								</comments>
								<file id="ArmA 3 2020.11.28 - 20.32.26.128" />
								<filter>
									<effect>
										<name>Audio Levels</name>
										<effectid>audiolevels</effectid>
										<effectcategory>audiolevels</effectcategory>
										<effecttype>audiolevels</effecttype>
										<mediatype>audio</mediatype>
										<parameter>
											<name>Level</name>
											<parameterid>level</parameterid>
											<valuemin>0</valuemin>
											<valuemax>3,98109</valuemax>
											<value>1</value>
										</parameter>
									</effect>
								</filter>
								<filter>
									<effect>
										<name>Audio Pan</name>
										<effectid>audiopan</effectid>
										<effectcategory>audiopan</effectcategory>
										<effecttype>audiopan</effecttype>
										<mediatype>audio</mediatype>
										<parameter>
											<name>Pan</name>
											<parameterid>pan</parameterid>
											<valuemin>-1</valuemin>
											<valuemax>1</valuemax>
											<value>-1</value>
										</parameter>
									</effect>
								</filter>
								<sourcetrack>
									<mediatype>audio</mediatype>
									<trackindex>1</trackindex>
								</sourcetrack>
								<link>
									<linkclipref>ArmA 3 2020.11.28 - 20.32.26.128.mp4805307616</linkclipref>
								</link>
								<link>
									<linkclipref>ArmA 3 2020.11.28 - 20.32.26.128.mp4536872161</linkclipref>
								</link>
								<link>
									<linkclipref>ArmA 3 2020.11.28 - 20.32.26.128.mp45368721611</linkclipref>
								</link>
								<link>
									<linkclipref>ArmA 3 2020.11.28 - 20.32.26.128.mp4536872162</linkclipref>
								</link>
								<link>
									<linkclipref>ArmA 3 2020.11.28 - 20.32.26.128.mp45368721621</linkclipref>
								</link>
							</clipitem>
							<clipitem id="ArmA 3 2020.11.28 - 20.33.18.129.mp4536872165">
								<name>ArmA 3 2020.11.28 - 20.33.18.129.mp4</name>
								<duration>772</duration>
								<rate>
									<ntsc>TRUE</ntsc>
									<timebase>24</timebase>
								</rate>
								<in>0</in>
								<out>772</out>
								<start>5389</start>
								<end>6161</end>
								<enabled>FALSE</enabled>
								<masterclipid>ArmA 3 2020.11.28 - 20.33.18.129.mp4</masterclipid>
								<logginginfo>
									<scene />
									<shottake />
									<lognote />
									<good>FALSE</good>
								</logginginfo>
								<labels>
									<label2 />
								</labels>
								<comments>
									<mastercomment1 />
									<mastercomment2 />
									<mastercomment3 />
									<mastercomment4 />
								</comments>
								<file id="ArmA 3 2020.11.28 - 20.33.18.129" />
								<filter>
									<effect>
										<name>Audio Levels</name>
										<effectid>audiolevels</effectid>
										<effectcategory>audiolevels</effectcategory>
										<effecttype>audiolevels</effecttype>
										<mediatype>audio</mediatype>
										<parameter>
											<name>Level</name>
											<parameterid>level</parameterid>
											<valuemin>0</valuemin>
											<valuemax>3,98109</valuemax>
											<value>1</value>
										</parameter>
									</effect>
								</filter>
								<filter>
									<effect>
										<name>Audio Pan</name>
										<effectid>audiopan</effectid>
										<effectcategory>audiopan</effectcategory>
										<effecttype>audiopan</effecttype>
										<mediatype>audio</mediatype>
										<parameter>
											<name>Pan</name>
											<parameterid>pan</parameterid>
											<valuemin>-1</valuemin>
											<valuemax>1</valuemax>
											<value>-1</value>
										</parameter>
									</effect>
								</filter>
								<sourcetrack>
									<mediatype>audio</mediatype>
									<trackindex>1</trackindex>
								</sourcetrack>
								<link>
									<linkclipref>ArmA 3 2020.11.28 - 20.33.18.129.mp4805307619</linkclipref>
								</link>
								<link>
									<linkclipref>ArmA 3 2020.11.28 - 20.33.18.129.mp4536872164</linkclipref>
								</link>
								<link>
									<linkclipref>ArmA 3 2020.11.28 - 20.33.18.129.mp45368721641</linkclipref>
								</link>
								<link>
									<linkclipref>ArmA 3 2020.11.28 - 20.33.18.129.mp4536872165</linkclipref>
								</link>
								<link>
									<linkclipref>ArmA 3 2020.11.28 - 20.33.18.129.mp45368721651</linkclipref>
								</link>
							</clipitem>
							<clipitem id="ArmA 3 2020.11.28 - 20.34.04.130.mp4536872168">
								<name>ArmA 3 2020.11.28 - 20.34.04.130.mp4</name>
								<duration>521</duration>
								<rate>
									<ntsc>TRUE</ntsc>
									<timebase>24</timebase>
								</rate>
								<in>0</in>
								<out>521</out>
								<start>6162</start>
								<end>6683</end>
								<enabled>FALSE</enabled>
								<masterclipid>ArmA 3 2020.11.28 - 20.34.04.130.mp4</masterclipid>
								<logginginfo>
									<scene />
									<shottake />
									<lognote />
									<good>FALSE</good>
								</logginginfo>
								<labels>
									<label2 />
								</labels>
								<comments>
									<mastercomment1 />
									<mastercomment2 />
									<mastercomment3 />
									<mastercomment4 />
								</comments>
								<file id="ArmA 3 2020.11.28 - 20.34.04.130" />
								<filter>
									<effect>
										<name>Audio Levels</name>
										<effectid>audiolevels</effectid>
										<effectcategory>audiolevels</effectcategory>
										<effecttype>audiolevels</effecttype>
										<mediatype>audio</mediatype>
										<parameter>
											<name>Level</name>
											<parameterid>level</parameterid>
											<valuemin>0</valuemin>
											<valuemax>3,98109</valuemax>
											<value>1</value>
										</parameter>
									</effect>
								</filter>
								<filter>
									<effect>
										<name>Audio Pan</name>
										<effectid>audiopan</effectid>
										<effectcategory>audiopan</effectcategory>
										<effecttype>audiopan</effecttype>
										<mediatype>audio</mediatype>
										<parameter>
											<name>Pan</name>
											<parameterid>pan</parameterid>
											<valuemin>-1</valuemin>
											<valuemax>1</valuemax>
											<value>-1</value>
										</parameter>
									</effect>
								</filter>
								<sourcetrack>
									<mediatype>audio</mediatype>
									<trackindex>1</trackindex>
								</sourcetrack>
								<link>
									<linkclipref>ArmA 3 2020.11.28 - 20.34.04.130.mp4805307622</linkclipref>
								</link>
								<link>
									<linkclipref>ArmA 3 2020.11.28 - 20.34.04.130.mp4536872167</linkclipref>
								</link>
								<link>
									<linkclipref>ArmA 3 2020.11.28 - 20.34.04.130.mp45368721671</linkclipref>
								</link>
								<link>
									<linkclipref>ArmA 3 2020.11.28 - 20.34.04.130.mp4536872168</linkclipref>
								</link>
								<link>
									<linkclipref>ArmA 3 2020.11.28 - 20.34.04.130.mp45368721681</linkclipref>
								</link>
							</clipitem>
							<clipitem id="ArmA 3 2020.11.28 - 20.35.50.131.mp4536872171">
								<name>ArmA 3 2020.11.28 - 20.35.50.131.mp4</name>
								<duration>315</duration>
								<rate>
									<ntsc>TRUE</ntsc>
									<timebase>24</timebase>
								</rate>
								<in>0</in>
								<out>315</out>
								<start>6684</start>
								<end>6999</end>
								<enabled>FALSE</enabled>
								<masterclipid>ArmA 3 2020.11.28 - 20.35.50.131.mp4</masterclipid>
								<logginginfo>
									<scene />
									<shottake />
									<lognote />
									<good>FALSE</good>
								</logginginfo>
								<labels>
									<label2 />
								</labels>
								<comments>
									<mastercomment1 />
									<mastercomment2 />
									<mastercomment3 />
									<mastercomment4 />
								</comments>
								<file id="ArmA 3 2020.11.28 - 20.35.50.131" />
								<filter>
									<effect>
										<name>Audio Levels</name>
										<effectid>audiolevels</effectid>
										<effectcategory>audiolevels</effectcategory>
										<effecttype>audiolevels</effecttype>
										<mediatype>audio</mediatype>
										<parameter>
											<name>Level</name>
											<parameterid>level</parameterid>
											<valuemin>0</valuemin>
											<valuemax>3,98109</valuemax>
											<value>1</value>
										</parameter>
									</effect>
								</filter>
								<filter>
									<effect>
										<name>Audio Pan</name>
										<effectid>audiopan</effectid>
										<effectcategory>audiopan</effectcategory>
										<effecttype>audiopan</effecttype>
										<mediatype>audio</mediatype>
										<parameter>
											<name>Pan</name>
											<parameterid>pan</parameterid>
											<valuemin>-1</valuemin>
											<valuemax>1</valuemax>
											<value>-1</value>
										</parameter>
									</effect>
								</filter>
								<sourcetrack>
									<mediatype>audio</mediatype>
									<trackindex>1</trackindex>
								</sourcetrack>
								<link>
									<linkclipref>ArmA 3 2020.11.28 - 20.35.50.131.mp4805307625</linkclipref>
								</link>
								<link>
									<linkclipref>ArmA 3 2020.11.28 - 20.35.50.131.mp4536872170</linkclipref>
								</link>
								<link>
									<linkclipref>ArmA 3 2020.11.28 - 20.35.50.131.mp45368721701</linkclipref>
								</link>
								<link>
									<linkclipref>ArmA 3 2020.11.28 - 20.35.50.131.mp4536872171</linkclipref>
								</link>
								<link>
									<linkclipref>ArmA 3 2020.11.28 - 20.35.50.131.mp45368721711</linkclipref>
								</link>
							</clipitem>
							<clipitem id="ArmA 3 2020.11.28 - 20.45.07.132.mp4536872174">
								<name>ArmA 3 2020.11.28 - 20.45.07.132.mp4</name>
								<duration>502</duration>
								<rate>
									<ntsc>TRUE</ntsc>
									<timebase>24</timebase>
								</rate>
								<in>0</in>
								<out>502</out>
								<start>7000</start>
								<end>7502</end>
								<enabled>FALSE</enabled>
								<masterclipid>ArmA 3 2020.11.28 - 20.45.07.132.mp4</masterclipid>
								<logginginfo>
									<scene />
									<shottake />
									<lognote />
									<good>FALSE</good>
								</logginginfo>
								<labels>
									<label2 />
								</labels>
								<comments>
									<mastercomment1 />
									<mastercomment2 />
									<mastercomment3 />
									<mastercomment4 />
								</comments>
								<file id="ArmA 3 2020.11.28 - 20.45.07.132" />
								<filter>
									<effect>
										<name>Audio Levels</name>
										<effectid>audiolevels</effectid>
										<effectcategory>audiolevels</effectcategory>
										<effecttype>audiolevels</effecttype>
										<mediatype>audio</mediatype>
										<parameter>
											<name>Level</name>
											<parameterid>level</parameterid>
											<valuemin>0</valuemin>
											<valuemax>3,98109</valuemax>
											<value>1</value>
										</parameter>
									</effect>
								</filter>
								<filter>
									<effect>
										<name>Audio Pan</name>
										<effectid>audiopan</effectid>
										<effectcategory>audiopan</effectcategory>
										<effecttype>audiopan</effecttype>
										<mediatype>audio</mediatype>
										<parameter>
											<name>Pan</name>
											<parameterid>pan</parameterid>
											<valuemin>-1</valuemin>
											<valuemax>1</valuemax>
											<value>-1</value>
										</parameter>
									</effect>
								</filter>
								<sourcetrack>
									<mediatype>audio</mediatype>
									<trackindex>1</trackindex>
								</sourcetrack>
								<link>
									<linkclipref>ArmA 3 2020.11.28 - 20.45.07.132.mp4805307628</linkclipref>
								</link>
								<link>
									<linkclipref>ArmA 3 2020.11.28 - 20.45.07.132.mp4536872173</linkclipref>
								</link>
								<link>
									<linkclipref>ArmA 3 2020.11.28 - 20.45.07.132.mp45368721731</linkclipref>
								</link>
								<link>
									<linkclipref>ArmA 3 2020.11.28 - 20.45.07.132.mp4536872174</linkclipref>
								</link>
								<link>
									<linkclipref>ArmA 3 2020.11.28 - 20.45.07.132.mp45368721741</linkclipref>
								</link>
							</clipitem>
							<clipitem id="ArmA 3 2020.11.28 - 20.48.15.133.mp4536872177">
								<name>ArmA 3 2020.11.28 - 20.48.15.133.mp4</name>
								<duration>1172</duration>
								<rate>
									<ntsc>TRUE</ntsc>
									<timebase>24</timebase>
								</rate>
								<in>0</in>
								<out>1172</out>
								<start>7503</start>
								<end>8675</end>
								<enabled>FALSE</enabled>
								<masterclipid>ArmA 3 2020.11.28 - 20.48.15.133.mp4</masterclipid>
								<logginginfo>
									<scene />
									<shottake />
									<lognote />
									<good>FALSE</good>
								</logginginfo>
								<labels>
									<label2 />
								</labels>
								<comments>
									<mastercomment1 />
									<mastercomment2 />
									<mastercomment3 />
									<mastercomment4 />
								</comments>
								<file id="ArmA 3 2020.11.28 - 20.48.15.133" />
								<filter>
									<effect>
										<name>Audio Levels</name>
										<effectid>audiolevels</effectid>
										<effectcategory>audiolevels</effectcategory>
										<effecttype>audiolevels</effecttype>
										<mediatype>audio</mediatype>
										<parameter>
											<name>Level</name>
											<parameterid>level</parameterid>
											<valuemin>0</valuemin>
											<valuemax>3,98109</valuemax>
											<value>1</value>
										</parameter>
									</effect>
								</filter>
								<filter>
									<effect>
										<name>Audio Pan</name>
										<effectid>audiopan</effectid>
										<effectcategory>audiopan</effectcategory>
										<effecttype>audiopan</effecttype>
										<mediatype>audio</mediatype>
										<parameter>
											<name>Pan</name>
											<parameterid>pan</parameterid>
											<valuemin>-1</valuemin>
											<valuemax>1</valuemax>
											<value>-1</value>
										</parameter>
									</effect>
								</filter>
								<sourcetrack>
									<mediatype>audio</mediatype>
									<trackindex>1</trackindex>
								</sourcetrack>
								<link>
									<linkclipref>ArmA 3 2020.11.28 - 20.48.15.133.mp4805307631</linkclipref>
								</link>
								<link>
									<linkclipref>ArmA 3 2020.11.28 - 20.48.15.133.mp4536872176</linkclipref>
								</link>
								<link>
									<linkclipref>ArmA 3 2020.11.28 - 20.48.15.133.mp45368721761</linkclipref>
								</link>
								<link>
									<linkclipref>ArmA 3 2020.11.28 - 20.48.15.133.mp4536872177</linkclipref>
								</link>
								<link>
									<linkclipref>ArmA 3 2020.11.28 - 20.48.15.133.mp45368721771</linkclipref>
								</link>
							</clipitem>
							<clipitem id="ArmA 3 2020.11.28 - 20.49.24.134.mp4536872180">
								<name>ArmA 3 2020.11.28 - 20.49.24.134.mp4</name>
								<duration>1233</duration>
								<rate>
									<ntsc>TRUE</ntsc>
									<timebase>24</timebase>
								</rate>
								<in>0</in>
								<out>1233</out>
								<start>8676</start>
								<end>9909</end>
								<enabled>FALSE</enabled>
								<masterclipid>ArmA 3 2020.11.28 - 20.49.24.134.mp4</masterclipid>
								<logginginfo>
									<scene />
									<shottake />
									<lognote />
									<good>FALSE</good>
								</logginginfo>
								<labels>
									<label2 />
								</labels>
								<comments>
									<mastercomment1 />
									<mastercomment2 />
									<mastercomment3 />
									<mastercomment4 />
								</comments>
								<file id="ArmA 3 2020.11.28 - 20.49.24.134" />
								<filter>
									<effect>
										<name>Audio Levels</name>
										<effectid>audiolevels</effectid>
										<effectcategory>audiolevels</effectcategory>
										<effecttype>audiolevels</effecttype>
										<mediatype>audio</mediatype>
										<parameter>
											<name>Level</name>
											<parameterid>level</parameterid>
											<valuemin>0</valuemin>
											<valuemax>3,98109</valuemax>
											<value>1</value>
										</parameter>
									</effect>
								</filter>
								<filter>
									<effect>
										<name>Audio Pan</name>
										<effectid>audiopan</effectid>
										<effectcategory>audiopan</effectcategory>
										<effecttype>audiopan</effecttype>
										<mediatype>audio</mediatype>
										<parameter>
											<name>Pan</name>
											<parameterid>pan</parameterid>
											<valuemin>-1</valuemin>
											<valuemax>1</valuemax>
											<value>-1</value>
										</parameter>
									</effect>
								</filter>
								<sourcetrack>
									<mediatype>audio</mediatype>
									<trackindex>1</trackindex>
								</sourcetrack>
								<link>
									<linkclipref>ArmA 3 2020.11.28 - 20.49.24.134.mp4805307634</linkclipref>
								</link>
								<link>
									<linkclipref>ArmA 3 2020.11.28 - 20.49.24.134.mp4536872179</linkclipref>
								</link>
								<link>
									<linkclipref>ArmA 3 2020.11.28 - 20.49.24.134.mp45368721791</linkclipref>
								</link>
								<link>
									<linkclipref>ArmA 3 2020.11.28 - 20.49.24.134.mp4536872180</linkclipref>
								</link>
								<link>
									<linkclipref>ArmA 3 2020.11.28 - 20.49.24.134.mp45368721801</linkclipref>
								</link>
							</clipitem>
							<clipitem id="ArmA 3 2020.11.28 - 20.50.27.135.mp4536872183">
								<name>ArmA 3 2020.11.28 - 20.50.27.135.mp4</name>
								<duration>754</duration>
								<rate>
									<ntsc>TRUE</ntsc>
									<timebase>24</timebase>
								</rate>
								<in>0</in>
								<out>754</out>
								<start>9910</start>
								<end>10664</end>
								<enabled>FALSE</enabled>
								<masterclipid>ArmA 3 2020.11.28 - 20.50.27.135.mp4</masterclipid>
								<logginginfo>
									<scene />
									<shottake />
									<lognote />
									<good>FALSE</good>
								</logginginfo>
								<labels>
									<label2 />
								</labels>
								<comments>
									<mastercomment1 />
									<mastercomment2 />
									<mastercomment3 />
									<mastercomment4 />
								</comments>
								<file id="ArmA 3 2020.11.28 - 20.50.27.135" />
								<filter>
									<effect>
										<name>Audio Levels</name>
										<effectid>audiolevels</effectid>
										<effectcategory>audiolevels</effectcategory>
										<effecttype>audiolevels</effecttype>
										<mediatype>audio</mediatype>
										<parameter>
											<name>Level</name>
											<parameterid>level</parameterid>
											<valuemin>0</valuemin>
											<valuemax>3,98109</valuemax>
											<value>1</value>
										</parameter>
									</effect>
								</filter>
								<filter>
									<effect>
										<name>Audio Pan</name>
										<effectid>audiopan</effectid>
										<effectcategory>audiopan</effectcategory>
										<effecttype>audiopan</effecttype>
										<mediatype>audio</mediatype>
										<parameter>
											<name>Pan</name>
											<parameterid>pan</parameterid>
											<valuemin>-1</valuemin>
											<valuemax>1</valuemax>
											<value>-1</value>
										</parameter>
									</effect>
								</filter>
								<sourcetrack>
									<mediatype>audio</mediatype>
									<trackindex>1</trackindex>
								</sourcetrack>
								<link>
									<linkclipref>ArmA 3 2020.11.28 - 20.50.27.135.mp4805307637</linkclipref>
								</link>
								<link>
									<linkclipref>ArmA 3 2020.11.28 - 20.50.27.135.mp4536872182</linkclipref>
								</link>
								<link>
									<linkclipref>ArmA 3 2020.11.28 - 20.50.27.135.mp45368721821</linkclipref>
								</link>
								<link>
									<linkclipref>ArmA 3 2020.11.28 - 20.50.27.135.mp4536872183</linkclipref>
								</link>
								<link>
									<linkclipref>ArmA 3 2020.11.28 - 20.50.27.135.mp45368721831</linkclipref>
								</link>
							</clipitem>
						</track>
						<track>
							<clipitem id="ArmA 3 2020.11.28 - 20.26.45.120.mp45368721381">
								<name>ArmA 3 2020.11.28 - 20.26.45.120.mp4</name>
								<duration>443</duration>
								<rate>
									<ntsc>TRUE</ntsc>
									<timebase>24</timebase>
								</rate>
								<in>0</in>
								<out>443</out>
								<start>0</start>
								<end>443</end>
								<enabled>FALSE</enabled>
								<masterclipid>ArmA 3 2020.11.28 - 20.26.45.120.mp4</masterclipid>
								<logginginfo>
									<scene />
									<shottake />
									<lognote />
									<good>FALSE</good>
								</logginginfo>
								<labels>
									<label2 />
								</labels>
								<comments>
									<mastercomment1 />
									<mastercomment2 />
									<mastercomment3 />
									<mastercomment4 />
								</comments>
								<file id="ArmA 3 2020.11.28 - 20.26.45.120" />
								<filter>
									<effect>
										<name>Audio Levels</name>
										<effectid>audiolevels</effectid>
										<effectcategory>audiolevels</effectcategory>
										<effecttype>audiolevels</effecttype>
										<mediatype>audio</mediatype>
										<parameter>
											<name>Level</name>
											<parameterid>level</parameterid>
											<valuemin>0</valuemin>
											<valuemax>3,98109</valuemax>
											<value>1</value>
										</parameter>
									</effect>
								</filter>
								<filter>
									<effect>
										<name>Audio Pan</name>
										<effectid>audiopan</effectid>
										<effectcategory>audiopan</effectcategory>
										<effecttype>audiopan</effecttype>
										<mediatype>audio</mediatype>
										<parameter>
											<name>Pan</name>
											<parameterid>pan</parameterid>
											<valuemin>-1</valuemin>
											<valuemax>1</valuemax>
											<value>1</value>
										</parameter>
									</effect>
								</filter>
								<sourcetrack>
									<mediatype>audio</mediatype>
									<trackindex>2</trackindex>
								</sourcetrack>
								<link>
									<linkclipref>ArmA 3 2020.11.28 - 20.26.45.120.mp4805307592</linkclipref>
								</link>
								<link>
									<linkclipref>ArmA 3 2020.11.28 - 20.26.45.120.mp4536872137</linkclipref>
								</link>
								<link>
									<linkclipref>ArmA 3 2020.11.28 - 20.26.45.120.mp45368721371</linkclipref>
								</link>
								<link>
									<linkclipref>ArmA 3 2020.11.28 - 20.26.45.120.mp4536872138</linkclipref>
								</link>
								<link>
									<linkclipref>ArmA 3 2020.11.28 - 20.26.45.120.mp45368721381</linkclipref>
								</link>
							</clipitem>
							<clipitem id="ArmA 3 2020.11.28 - 20.27.22.121.mp45368721411">
								<name>ArmA 3 2020.11.28 - 20.27.22.121.mp4</name>
								<duration>411</duration>
								<rate>
									<ntsc>TRUE</ntsc>
									<timebase>24</timebase>
								</rate>
								<in>0</in>
								<out>411</out>
								<start>444</start>
								<end>855</end>
								<enabled>FALSE</enabled>
								<masterclipid>ArmA 3 2020.11.28 - 20.27.22.121.mp4</masterclipid>
								<logginginfo>
									<scene />
									<shottake />
									<lognote />
									<good>FALSE</good>
								</logginginfo>
								<labels>
									<label2 />
								</labels>
								<comments>
									<mastercomment1 />
									<mastercomment2 />
									<mastercomment3 />
									<mastercomment4 />
								</comments>
								<file id="ArmA 3 2020.11.28 - 20.27.22.121" />
								<filter>
									<effect>
										<name>Audio Levels</name>
										<effectid>audiolevels</effectid>
										<effectcategory>audiolevels</effectcategory>
										<effecttype>audiolevels</effecttype>
										<mediatype>audio</mediatype>
										<parameter>
											<name>Level</name>
											<parameterid>level</parameterid>
											<valuemin>0</valuemin>
											<valuemax>3,98109</valuemax>
											<value>1</value>
										</parameter>
									</effect>
								</filter>
								<filter>
									<effect>
										<name>Audio Pan</name>
										<effectid>audiopan</effectid>
										<effectcategory>audiopan</effectcategory>
										<effecttype>audiopan</effecttype>
										<mediatype>audio</mediatype>
										<parameter>
											<name>Pan</name>
											<parameterid>pan</parameterid>
											<valuemin>-1</valuemin>
											<valuemax>1</valuemax>
											<value>1</value>
										</parameter>
									</effect>
								</filter>
								<sourcetrack>
									<mediatype>audio</mediatype>
									<trackindex>2</trackindex>
								</sourcetrack>
								<link>
									<linkclipref>ArmA 3 2020.11.28 - 20.27.22.121.mp4805307595</linkclipref>
								</link>
								<link>
									<linkclipref>ArmA 3 2020.11.28 - 20.27.22.121.mp4536872140</linkclipref>
								</link>
								<link>
									<linkclipref>ArmA 3 2020.11.28 - 20.27.22.121.mp45368721401</linkclipref>
								</link>
								<link>
									<linkclipref>ArmA 3 2020.11.28 - 20.27.22.121.mp4536872141</linkclipref>
								</link>
								<link>
									<linkclipref>ArmA 3 2020.11.28 - 20.27.22.121.mp45368721411</linkclipref>
								</link>
							</clipitem>
							<clipitem id="ArmA 3 2020.11.28 - 20.28.12.122.mp45368721441">
								<name>ArmA 3 2020.11.28 - 20.28.12.122.mp4</name>
								<duration>354</duration>
								<rate>
									<ntsc>TRUE</ntsc>
									<timebase>24</timebase>
								</rate>
								<in>0</in>
								<out>354</out>
								<start>856</start>
								<end>1210</end>
								<enabled>FALSE</enabled>
								<masterclipid>ArmA 3 2020.11.28 - 20.28.12.122.mp4</masterclipid>
								<logginginfo>
									<scene />
									<shottake />
									<lognote />
									<good>FALSE</good>
								</logginginfo>
								<labels>
									<label2 />
								</labels>
								<comments>
									<mastercomment1 />
									<mastercomment2 />
									<mastercomment3 />
									<mastercomment4 />
								</comments>
								<file id="ArmA 3 2020.11.28 - 20.28.12.122" />
								<filter>
									<effect>
										<name>Audio Levels</name>
										<effectid>audiolevels</effectid>
										<effectcategory>audiolevels</effectcategory>
										<effecttype>audiolevels</effecttype>
										<mediatype>audio</mediatype>
										<parameter>
											<name>Level</name>
											<parameterid>level</parameterid>
											<valuemin>0</valuemin>
											<valuemax>3,98109</valuemax>
											<value>1</value>
										</parameter>
									</effect>
								</filter>
								<filter>
									<effect>
										<name>Audio Pan</name>
										<effectid>audiopan</effectid>
										<effectcategory>audiopan</effectcategory>
										<effecttype>audiopan</effecttype>
										<mediatype>audio</mediatype>
										<parameter>
											<name>Pan</name>
											<parameterid>pan</parameterid>
											<valuemin>-1</valuemin>
											<valuemax>1</valuemax>
											<value>1</value>
										</parameter>
									</effect>
								</filter>
								<sourcetrack>
									<mediatype>audio</mediatype>
									<trackindex>2</trackindex>
								</sourcetrack>
								<link>
									<linkclipref>ArmA 3 2020.11.28 - 20.28.12.122.mp4805307598</linkclipref>
								</link>
								<link>
									<linkclipref>ArmA 3 2020.11.28 - 20.28.12.122.mp4536872143</linkclipref>
								</link>
								<link>
									<linkclipref>ArmA 3 2020.11.28 - 20.28.12.122.mp45368721431</linkclipref>
								</link>
								<link>
									<linkclipref>ArmA 3 2020.11.28 - 20.28.12.122.mp4536872144</linkclipref>
								</link>
								<link>
									<linkclipref>ArmA 3 2020.11.28 - 20.28.12.122.mp45368721441</linkclipref>
								</link>
							</clipitem>
							<clipitem id="ArmA 3 2020.11.28 - 20.28.56.123.mp45368721471">
								<name>ArmA 3 2020.11.28 - 20.28.56.123.mp4</name>
								<duration>496</duration>
								<rate>
									<ntsc>TRUE</ntsc>
									<timebase>24</timebase>
								</rate>
								<in>0</in>
								<out>496</out>
								<start>1211</start>
								<end>1707</end>
								<enabled>FALSE</enabled>
								<masterclipid>ArmA 3 2020.11.28 - 20.28.56.123.mp4</masterclipid>
								<logginginfo>
									<scene />
									<shottake />
									<lognote />
									<good>FALSE</good>
								</logginginfo>
								<labels>
									<label2 />
								</labels>
								<comments>
									<mastercomment1 />
									<mastercomment2 />
									<mastercomment3 />
									<mastercomment4 />
								</comments>
								<file id="ArmA 3 2020.11.28 - 20.28.56.123" />
								<filter>
									<effect>
										<name>Audio Levels</name>
										<effectid>audiolevels</effectid>
										<effectcategory>audiolevels</effectcategory>
										<effecttype>audiolevels</effecttype>
										<mediatype>audio</mediatype>
										<parameter>
											<name>Level</name>
											<parameterid>level</parameterid>
											<valuemin>0</valuemin>
											<valuemax>3,98109</valuemax>
											<value>1</value>
										</parameter>
									</effect>
								</filter>
								<filter>
									<effect>
										<name>Audio Pan</name>
										<effectid>audiopan</effectid>
										<effectcategory>audiopan</effectcategory>
										<effecttype>audiopan</effecttype>
										<mediatype>audio</mediatype>
										<parameter>
											<name>Pan</name>
											<parameterid>pan</parameterid>
											<valuemin>-1</valuemin>
											<valuemax>1</valuemax>
											<value>1</value>
										</parameter>
									</effect>
								</filter>
								<sourcetrack>
									<mediatype>audio</mediatype>
									<trackindex>2</trackindex>
								</sourcetrack>
								<link>
									<linkclipref>ArmA 3 2020.11.28 - 20.28.56.123.mp4805307601</linkclipref>
								</link>
								<link>
									<linkclipref>ArmA 3 2020.11.28 - 20.28.56.123.mp4536872146</linkclipref>
								</link>
								<link>
									<linkclipref>ArmA 3 2020.11.28 - 20.28.56.123.mp45368721461</linkclipref>
								</link>
								<link>
									<linkclipref>ArmA 3 2020.11.28 - 20.28.56.123.mp4536872147</linkclipref>
								</link>
								<link>
									<linkclipref>ArmA 3 2020.11.28 - 20.28.56.123.mp45368721471</linkclipref>
								</link>
							</clipitem>
							<clipitem id="ArmA 3 2020.11.28 - 20.29.21.124.mp45368721501">
								<name>ArmA 3 2020.11.28 - 20.29.21.124.mp4</name>
								<duration>590</duration>
								<rate>
									<ntsc>TRUE</ntsc>
									<timebase>24</timebase>
								</rate>
								<in>0</in>
								<out>590</out>
								<start>1708</start>
								<end>2298</end>
								<enabled>FALSE</enabled>
								<masterclipid>ArmA 3 2020.11.28 - 20.29.21.124.mp4</masterclipid>
								<logginginfo>
									<scene />
									<shottake />
									<lognote />
									<good>FALSE</good>
								</logginginfo>
								<labels>
									<label2 />
								</labels>
								<comments>
									<mastercomment1 />
									<mastercomment2 />
									<mastercomment3 />
									<mastercomment4 />
								</comments>
								<file id="ArmA 3 2020.11.28 - 20.29.21.124" />
								<filter>
									<effect>
										<name>Audio Levels</name>
										<effectid>audiolevels</effectid>
										<effectcategory>audiolevels</effectcategory>
										<effecttype>audiolevels</effecttype>
										<mediatype>audio</mediatype>
										<parameter>
											<name>Level</name>
											<parameterid>level</parameterid>
											<valuemin>0</valuemin>
											<valuemax>3,98109</valuemax>
											<value>1</value>
										</parameter>
									</effect>
								</filter>
								<filter>
									<effect>
										<name>Audio Pan</name>
										<effectid>audiopan</effectid>
										<effectcategory>audiopan</effectcategory>
										<effecttype>audiopan</effecttype>
										<mediatype>audio</mediatype>
										<parameter>
											<name>Pan</name>
											<parameterid>pan</parameterid>
											<valuemin>-1</valuemin>
											<valuemax>1</valuemax>
											<value>1</value>
										</parameter>
									</effect>
								</filter>
								<sourcetrack>
									<mediatype>audio</mediatype>
									<trackindex>2</trackindex>
								</sourcetrack>
								<link>
									<linkclipref>ArmA 3 2020.11.28 - 20.29.21.124.mp4805307604</linkclipref>
								</link>
								<link>
									<linkclipref>ArmA 3 2020.11.28 - 20.29.21.124.mp4536872149</linkclipref>
								</link>
								<link>
									<linkclipref>ArmA 3 2020.11.28 - 20.29.21.124.mp45368721491</linkclipref>
								</link>
								<link>
									<linkclipref>ArmA 3 2020.11.28 - 20.29.21.124.mp4536872150</linkclipref>
								</link>
								<link>
									<linkclipref>ArmA 3 2020.11.28 - 20.29.21.124.mp45368721501</linkclipref>
								</link>
							</clipitem>
							<clipitem id="ArmA 3 2020.11.28 - 20.30.01.125.mp45368721531">
								<name>ArmA 3 2020.11.28 - 20.30.01.125.mp4</name>
								<duration>336</duration>
								<rate>
									<ntsc>TRUE</ntsc>
									<timebase>24</timebase>
								</rate>
								<in>0</in>
								<out>336</out>
								<start>2299</start>
								<end>2635</end>
								<enabled>FALSE</enabled>
								<masterclipid>ArmA 3 2020.11.28 - 20.30.01.125.mp4</masterclipid>
								<logginginfo>
									<scene />
									<shottake />
									<lognote />
									<good>FALSE</good>
								</logginginfo>
								<labels>
									<label2 />
								</labels>
								<comments>
									<mastercomment1 />
									<mastercomment2 />
									<mastercomment3 />
									<mastercomment4 />
								</comments>
								<file id="ArmA 3 2020.11.28 - 20.30.01.125" />
								<filter>
									<effect>
										<name>Audio Levels</name>
										<effectid>audiolevels</effectid>
										<effectcategory>audiolevels</effectcategory>
										<effecttype>audiolevels</effecttype>
										<mediatype>audio</mediatype>
										<parameter>
											<name>Level</name>
											<parameterid>level</parameterid>
											<valuemin>0</valuemin>
											<valuemax>3,98109</valuemax>
											<value>1</value>
										</parameter>
									</effect>
								</filter>
								<filter>
									<effect>
										<name>Audio Pan</name>
										<effectid>audiopan</effectid>
										<effectcategory>audiopan</effectcategory>
										<effecttype>audiopan</effecttype>
										<mediatype>audio</mediatype>
										<parameter>
											<name>Pan</name>
											<parameterid>pan</parameterid>
											<valuemin>-1</valuemin>
											<valuemax>1</valuemax>
											<value>1</value>
										</parameter>
									</effect>
								</filter>
								<sourcetrack>
									<mediatype>audio</mediatype>
									<trackindex>2</trackindex>
								</sourcetrack>
								<link>
									<linkclipref>ArmA 3 2020.11.28 - 20.30.01.125.mp4805307607</linkclipref>
								</link>
								<link>
									<linkclipref>ArmA 3 2020.11.28 - 20.30.01.125.mp4536872152</linkclipref>
								</link>
								<link>
									<linkclipref>ArmA 3 2020.11.28 - 20.30.01.125.mp45368721521</linkclipref>
								</link>
								<link>
									<linkclipref>ArmA 3 2020.11.28 - 20.30.01.125.mp4536872153</linkclipref>
								</link>
								<link>
									<linkclipref>ArmA 3 2020.11.28 - 20.30.01.125.mp45368721531</linkclipref>
								</link>
							</clipitem>
							<clipitem id="ArmA 3 2020.11.28 - 20.30.43.126.mp45368721561">
								<name>ArmA 3 2020.11.28 - 20.30.43.126.mp4</name>
								<duration>889</duration>
								<rate>
									<ntsc>TRUE</ntsc>
									<timebase>24</timebase>
								</rate>
								<in>0</in>
								<out>889</out>
								<start>2636</start>
								<end>3525</end>
								<enabled>FALSE</enabled>
								<masterclipid>ArmA 3 2020.11.28 - 20.30.43.126.mp4</masterclipid>
								<logginginfo>
									<scene />
									<shottake />
									<lognote />
									<good>FALSE</good>
								</logginginfo>
								<labels>
									<label2 />
								</labels>
								<comments>
									<mastercomment1 />
									<mastercomment2 />
									<mastercomment3 />
									<mastercomment4 />
								</comments>
								<file id="ArmA 3 2020.11.28 - 20.30.43.126" />
								<filter>
									<effect>
										<name>Audio Levels</name>
										<effectid>audiolevels</effectid>
										<effectcategory>audiolevels</effectcategory>
										<effecttype>audiolevels</effecttype>
										<mediatype>audio</mediatype>
										<parameter>
											<name>Level</name>
											<parameterid>level</parameterid>
											<valuemin>0</valuemin>
											<valuemax>3,98109</valuemax>
											<value>1</value>
										</parameter>
									</effect>
								</filter>
								<filter>
									<effect>
										<name>Audio Pan</name>
										<effectid>audiopan</effectid>
										<effectcategory>audiopan</effectcategory>
										<effecttype>audiopan</effecttype>
										<mediatype>audio</mediatype>
										<parameter>
											<name>Pan</name>
											<parameterid>pan</parameterid>
											<valuemin>-1</valuemin>
											<valuemax>1</valuemax>
											<value>1</value>
										</parameter>
									</effect>
								</filter>
								<sourcetrack>
									<mediatype>audio</mediatype>
									<trackindex>2</trackindex>
								</sourcetrack>
								<link>
									<linkclipref>ArmA 3 2020.11.28 - 20.30.43.126.mp4805307610</linkclipref>
								</link>
								<link>
									<linkclipref>ArmA 3 2020.11.28 - 20.30.43.126.mp4536872155</linkclipref>
								</link>
								<link>
									<linkclipref>ArmA 3 2020.11.28 - 20.30.43.126.mp45368721551</linkclipref>
								</link>
								<link>
									<linkclipref>ArmA 3 2020.11.28 - 20.30.43.126.mp4536872156</linkclipref>
								</link>
								<link>
									<linkclipref>ArmA 3 2020.11.28 - 20.30.43.126.mp45368721561</linkclipref>
								</link>
							</clipitem>
							<clipitem id="ArmA 3 2020.11.28 - 20.31.29.127.mp45368721591">
								<name>ArmA 3 2020.11.28 - 20.31.29.127.mp4</name>
								<duration>1130</duration>
								<rate>
									<ntsc>TRUE</ntsc>
									<timebase>24</timebase>
								</rate>
								<in>0</in>
								<out>1130</out>
								<start>3526</start>
								<end>4656</end>
								<enabled>FALSE</enabled>
								<masterclipid>ArmA 3 2020.11.28 - 20.31.29.127.mp4</masterclipid>
								<logginginfo>
									<scene />
									<shottake />
									<lognote />
									<good>FALSE</good>
								</logginginfo>
								<labels>
									<label2 />
								</labels>
								<comments>
									<mastercomment1 />
									<mastercomment2 />
									<mastercomment3 />
									<mastercomment4 />
								</comments>
								<file id="ArmA 3 2020.11.28 - 20.31.29.127" />
								<filter>
									<effect>
										<name>Audio Levels</name>
										<effectid>audiolevels</effectid>
										<effectcategory>audiolevels</effectcategory>
										<effecttype>audiolevels</effecttype>
										<mediatype>audio</mediatype>
										<parameter>
											<name>Level</name>
											<parameterid>level</parameterid>
											<valuemin>0</valuemin>
											<valuemax>3,98109</valuemax>
											<value>1</value>
										</parameter>
									</effect>
								</filter>
								<filter>
									<effect>
										<name>Audio Pan</name>
										<effectid>audiopan</effectid>
										<effectcategory>audiopan</effectcategory>
										<effecttype>audiopan</effecttype>
										<mediatype>audio</mediatype>
										<parameter>
											<name>Pan</name>
											<parameterid>pan</parameterid>
											<valuemin>-1</valuemin>
											<valuemax>1</valuemax>
											<value>1</value>
										</parameter>
									</effect>
								</filter>
								<sourcetrack>
									<mediatype>audio</mediatype>
									<trackindex>2</trackindex>
								</sourcetrack>
								<link>
									<linkclipref>ArmA 3 2020.11.28 - 20.31.29.127.mp4805307613</linkclipref>
								</link>
								<link>
									<linkclipref>ArmA 3 2020.11.28 - 20.31.29.127.mp4536872158</linkclipref>
								</link>
								<link>
									<linkclipref>ArmA 3 2020.11.28 - 20.31.29.127.mp45368721581</linkclipref>
								</link>
								<link>
									<linkclipref>ArmA 3 2020.11.28 - 20.31.29.127.mp4536872159</linkclipref>
								</link>
								<link>
									<linkclipref>ArmA 3 2020.11.28 - 20.31.29.127.mp45368721591</linkclipref>
								</link>
							</clipitem>
							<clipitem id="ArmA 3 2020.11.28 - 20.32.26.128.mp45368721621">
								<name>ArmA 3 2020.11.28 - 20.32.26.128.mp4</name>
								<duration>731</duration>
								<rate>
									<ntsc>TRUE</ntsc>
									<timebase>24</timebase>
								</rate>
								<in>0</in>
								<out>731</out>
								<start>4657</start>
								<end>5388</end>
								<enabled>FALSE</enabled>
								<masterclipid>ArmA 3 2020.11.28 - 20.32.26.128.mp4</masterclipid>
								<logginginfo>
									<scene />
									<shottake />
									<lognote />
									<good>FALSE</good>
								</logginginfo>
								<labels>
									<label2 />
								</labels>
								<comments>
									<mastercomment1 />
									<mastercomment2 />
									<mastercomment3 />
									<mastercomment4 />
								</comments>
								<file id="ArmA 3 2020.11.28 - 20.32.26.128" />
								<filter>
									<effect>
										<name>Audio Levels</name>
										<effectid>audiolevels</effectid>
										<effectcategory>audiolevels</effectcategory>
										<effecttype>audiolevels</effecttype>
										<mediatype>audio</mediatype>
										<parameter>
											<name>Level</name>
											<parameterid>level</parameterid>
											<valuemin>0</valuemin>
											<valuemax>3,98109</valuemax>
											<value>1</value>
										</parameter>
									</effect>
								</filter>
								<filter>
									<effect>
										<name>Audio Pan</name>
										<effectid>audiopan</effectid>
										<effectcategory>audiopan</effectcategory>
										<effecttype>audiopan</effecttype>
										<mediatype>audio</mediatype>
										<parameter>
											<name>Pan</name>
											<parameterid>pan</parameterid>
											<valuemin>-1</valuemin>
											<valuemax>1</valuemax>
											<value>1</value>
										</parameter>
									</effect>
								</filter>
								<sourcetrack>
									<mediatype>audio</mediatype>
									<trackindex>2</trackindex>
								</sourcetrack>
								<link>
									<linkclipref>ArmA 3 2020.11.28 - 20.32.26.128.mp4805307616</linkclipref>
								</link>
								<link>
									<linkclipref>ArmA 3 2020.11.28 - 20.32.26.128.mp4536872161</linkclipref>
								</link>
								<link>
									<linkclipref>ArmA 3 2020.11.28 - 20.32.26.128.mp45368721611</linkclipref>
								</link>
								<link>
									<linkclipref>ArmA 3 2020.11.28 - 20.32.26.128.mp4536872162</linkclipref>
								</link>
								<link>
									<linkclipref>ArmA 3 2020.11.28 - 20.32.26.128.mp45368721621</linkclipref>
								</link>
							</clipitem>
							<clipitem id="ArmA 3 2020.11.28 - 20.33.18.129.mp45368721651">
								<name>ArmA 3 2020.11.28 - 20.33.18.129.mp4</name>
								<duration>772</duration>
								<rate>
									<ntsc>TRUE</ntsc>
									<timebase>24</timebase>
								</rate>
								<in>0</in>
								<out>772</out>
								<start>5389</start>
								<end>6161</end>
								<enabled>FALSE</enabled>
								<masterclipid>ArmA 3 2020.11.28 - 20.33.18.129.mp4</masterclipid>
								<logginginfo>
									<scene />
									<shottake />
									<lognote />
									<good>FALSE</good>
								</logginginfo>
								<labels>
									<label2 />
								</labels>
								<comments>
									<mastercomment1 />
									<mastercomment2 />
									<mastercomment3 />
									<mastercomment4 />
								</comments>
								<file id="ArmA 3 2020.11.28 - 20.33.18.129" />
								<filter>
									<effect>
										<name>Audio Levels</name>
										<effectid>audiolevels</effectid>
										<effectcategory>audiolevels</effectcategory>
										<effecttype>audiolevels</effecttype>
										<mediatype>audio</mediatype>
										<parameter>
											<name>Level</name>
											<parameterid>level</parameterid>
											<valuemin>0</valuemin>
											<valuemax>3,98109</valuemax>
											<value>1</value>
										</parameter>
									</effect>
								</filter>
								<filter>
									<effect>
										<name>Audio Pan</name>
										<effectid>audiopan</effectid>
										<effectcategory>audiopan</effectcategory>
										<effecttype>audiopan</effecttype>
										<mediatype>audio</mediatype>
										<parameter>
											<name>Pan</name>
											<parameterid>pan</parameterid>
											<valuemin>-1</valuemin>
											<valuemax>1</valuemax>
											<value>1</value>
										</parameter>
									</effect>
								</filter>
								<sourcetrack>
									<mediatype>audio</mediatype>
									<trackindex>2</trackindex>
								</sourcetrack>
								<link>
									<linkclipref>ArmA 3 2020.11.28 - 20.33.18.129.mp4805307619</linkclipref>
								</link>
								<link>
									<linkclipref>ArmA 3 2020.11.28 - 20.33.18.129.mp4536872164</linkclipref>
								</link>
								<link>
									<linkclipref>ArmA 3 2020.11.28 - 20.33.18.129.mp45368721641</linkclipref>
								</link>
								<link>
									<linkclipref>ArmA 3 2020.11.28 - 20.33.18.129.mp4536872165</linkclipref>
								</link>
								<link>
									<linkclipref>ArmA 3 2020.11.28 - 20.33.18.129.mp45368721651</linkclipref>
								</link>
							</clipitem>
							<clipitem id="ArmA 3 2020.11.28 - 20.34.04.130.mp45368721681">
								<name>ArmA 3 2020.11.28 - 20.34.04.130.mp4</name>
								<duration>521</duration>
								<rate>
									<ntsc>TRUE</ntsc>
									<timebase>24</timebase>
								</rate>
								<in>0</in>
								<out>521</out>
								<start>6162</start>
								<end>6683</end>
								<enabled>FALSE</enabled>
								<masterclipid>ArmA 3 2020.11.28 - 20.34.04.130.mp4</masterclipid>
								<logginginfo>
									<scene />
									<shottake />
									<lognote />
									<good>FALSE</good>
								</logginginfo>
								<labels>
									<label2 />
								</labels>
								<comments>
									<mastercomment1 />
									<mastercomment2 />
									<mastercomment3 />
									<mastercomment4 />
								</comments>
								<file id="ArmA 3 2020.11.28 - 20.34.04.130" />
								<filter>
									<effect>
										<name>Audio Levels</name>
										<effectid>audiolevels</effectid>
										<effectcategory>audiolevels</effectcategory>
										<effecttype>audiolevels</effecttype>
										<mediatype>audio</mediatype>
										<parameter>
											<name>Level</name>
											<parameterid>level</parameterid>
											<valuemin>0</valuemin>
											<valuemax>3,98109</valuemax>
											<value>1</value>
										</parameter>
									</effect>
								</filter>
								<filter>
									<effect>
										<name>Audio Pan</name>
										<effectid>audiopan</effectid>
										<effectcategory>audiopan</effectcategory>
										<effecttype>audiopan</effecttype>
										<mediatype>audio</mediatype>
										<parameter>
											<name>Pan</name>
											<parameterid>pan</parameterid>
											<valuemin>-1</valuemin>
											<valuemax>1</valuemax>
											<value>1</value>
										</parameter>
									</effect>
								</filter>
								<sourcetrack>
									<mediatype>audio</mediatype>
									<trackindex>2</trackindex>
								</sourcetrack>
								<link>
									<linkclipref>ArmA 3 2020.11.28 - 20.34.04.130.mp4805307622</linkclipref>
								</link>
								<link>
									<linkclipref>ArmA 3 2020.11.28 - 20.34.04.130.mp4536872167</linkclipref>
								</link>
								<link>
									<linkclipref>ArmA 3 2020.11.28 - 20.34.04.130.mp45368721671</linkclipref>
								</link>
								<link>
									<linkclipref>ArmA 3 2020.11.28 - 20.34.04.130.mp4536872168</linkclipref>
								</link>
								<link>
									<linkclipref>ArmA 3 2020.11.28 - 20.34.04.130.mp45368721681</linkclipref>
								</link>
							</clipitem>
							<clipitem id="ArmA 3 2020.11.28 - 20.35.50.131.mp45368721711">
								<name>ArmA 3 2020.11.28 - 20.35.50.131.mp4</name>
								<duration>315</duration>
								<rate>
									<ntsc>TRUE</ntsc>
									<timebase>24</timebase>
								</rate>
								<in>0</in>
								<out>315</out>
								<start>6684</start>
								<end>6999</end>
								<enabled>FALSE</enabled>
								<masterclipid>ArmA 3 2020.11.28 - 20.35.50.131.mp4</masterclipid>
								<logginginfo>
									<scene />
									<shottake />
									<lognote />
									<good>FALSE</good>
								</logginginfo>
								<labels>
									<label2 />
								</labels>
								<comments>
									<mastercomment1 />
									<mastercomment2 />
									<mastercomment3 />
									<mastercomment4 />
								</comments>
								<file id="ArmA 3 2020.11.28 - 20.35.50.131" />
								<filter>
									<effect>
										<name>Audio Levels</name>
										<effectid>audiolevels</effectid>
										<effectcategory>audiolevels</effectcategory>
										<effecttype>audiolevels</effecttype>
										<mediatype>audio</mediatype>
										<parameter>
											<name>Level</name>
											<parameterid>level</parameterid>
											<valuemin>0</valuemin>
											<valuemax>3,98109</valuemax>
											<value>1</value>
										</parameter>
									</effect>
								</filter>
								<filter>
									<effect>
										<name>Audio Pan</name>
										<effectid>audiopan</effectid>
										<effectcategory>audiopan</effectcategory>
										<effecttype>audiopan</effecttype>
										<mediatype>audio</mediatype>
										<parameter>
											<name>Pan</name>
											<parameterid>pan</parameterid>
											<valuemin>-1</valuemin>
											<valuemax>1</valuemax>
											<value>1</value>
										</parameter>
									</effect>
								</filter>
								<sourcetrack>
									<mediatype>audio</mediatype>
									<trackindex>2</trackindex>
								</sourcetrack>
								<link>
									<linkclipref>ArmA 3 2020.11.28 - 20.35.50.131.mp4805307625</linkclipref>
								</link>
								<link>
									<linkclipref>ArmA 3 2020.11.28 - 20.35.50.131.mp4536872170</linkclipref>
								</link>
								<link>
									<linkclipref>ArmA 3 2020.11.28 - 20.35.50.131.mp45368721701</linkclipref>
								</link>
								<link>
									<linkclipref>ArmA 3 2020.11.28 - 20.35.50.131.mp4536872171</linkclipref>
								</link>
								<link>
									<linkclipref>ArmA 3 2020.11.28 - 20.35.50.131.mp45368721711</linkclipref>
								</link>
							</clipitem>
							<clipitem id="ArmA 3 2020.11.28 - 20.45.07.132.mp45368721741">
								<name>ArmA 3 2020.11.28 - 20.45.07.132.mp4</name>
								<duration>502</duration>
								<rate>
									<ntsc>TRUE</ntsc>
									<timebase>24</timebase>
								</rate>
								<in>0</in>
								<out>502</out>
								<start>7000</start>
								<end>7502</end>
								<enabled>FALSE</enabled>
								<masterclipid>ArmA 3 2020.11.28 - 20.45.07.132.mp4</masterclipid>
								<logginginfo>
									<scene />
									<shottake />
									<lognote />
									<good>FALSE</good>
								</logginginfo>
								<labels>
									<label2 />
								</labels>
								<comments>
									<mastercomment1 />
									<mastercomment2 />
									<mastercomment3 />
									<mastercomment4 />
								</comments>
								<file id="ArmA 3 2020.11.28 - 20.45.07.132" />
								<filter>
									<effect>
										<name>Audio Levels</name>
										<effectid>audiolevels</effectid>
										<effectcategory>audiolevels</effectcategory>
										<effecttype>audiolevels</effecttype>
										<mediatype>audio</mediatype>
										<parameter>
											<name>Level</name>
											<parameterid>level</parameterid>
											<valuemin>0</valuemin>
											<valuemax>3,98109</valuemax>
											<value>1</value>
										</parameter>
									</effect>
								</filter>
								<filter>
									<effect>
										<name>Audio Pan</name>
										<effectid>audiopan</effectid>
										<effectcategory>audiopan</effectcategory>
										<effecttype>audiopan</effecttype>
										<mediatype>audio</mediatype>
										<parameter>
											<name>Pan</name>
											<parameterid>pan</parameterid>
											<valuemin>-1</valuemin>
											<valuemax>1</valuemax>
											<value>1</value>
										</parameter>
									</effect>
								</filter>
								<sourcetrack>
									<mediatype>audio</mediatype>
									<trackindex>2</trackindex>
								</sourcetrack>
								<link>
									<linkclipref>ArmA 3 2020.11.28 - 20.45.07.132.mp4805307628</linkclipref>
								</link>
								<link>
									<linkclipref>ArmA 3 2020.11.28 - 20.45.07.132.mp4536872173</linkclipref>
								</link>
								<link>
									<linkclipref>ArmA 3 2020.11.28 - 20.45.07.132.mp45368721731</linkclipref>
								</link>
								<link>
									<linkclipref>ArmA 3 2020.11.28 - 20.45.07.132.mp4536872174</linkclipref>
								</link>
								<link>
									<linkclipref>ArmA 3 2020.11.28 - 20.45.07.132.mp45368721741</linkclipref>
								</link>
							</clipitem>
							<clipitem id="ArmA 3 2020.11.28 - 20.48.15.133.mp45368721771">
								<name>ArmA 3 2020.11.28 - 20.48.15.133.mp4</name>
								<duration>1172</duration>
								<rate>
									<ntsc>TRUE</ntsc>
									<timebase>24</timebase>
								</rate>
								<in>0</in>
								<out>1172</out>
								<start>7503</start>
								<end>8675</end>
								<enabled>FALSE</enabled>
								<masterclipid>ArmA 3 2020.11.28 - 20.48.15.133.mp4</masterclipid>
								<logginginfo>
									<scene />
									<shottake />
									<lognote />
									<good>FALSE</good>
								</logginginfo>
								<labels>
									<label2 />
								</labels>
								<comments>
									<mastercomment1 />
									<mastercomment2 />
									<mastercomment3 />
									<mastercomment4 />
								</comments>
								<file id="ArmA 3 2020.11.28 - 20.48.15.133" />
								<filter>
									<effect>
										<name>Audio Levels</name>
										<effectid>audiolevels</effectid>
										<effectcategory>audiolevels</effectcategory>
										<effecttype>audiolevels</effecttype>
										<mediatype>audio</mediatype>
										<parameter>
											<name>Level</name>
											<parameterid>level</parameterid>
											<valuemin>0</valuemin>
											<valuemax>3,98109</valuemax>
											<value>1</value>
										</parameter>
									</effect>
								</filter>
								<filter>
									<effect>
										<name>Audio Pan</name>
										<effectid>audiopan</effectid>
										<effectcategory>audiopan</effectcategory>
										<effecttype>audiopan</effecttype>
										<mediatype>audio</mediatype>
										<parameter>
											<name>Pan</name>
											<parameterid>pan</parameterid>
											<valuemin>-1</valuemin>
											<valuemax>1</valuemax>
											<value>1</value>
										</parameter>
									</effect>
								</filter>
								<sourcetrack>
									<mediatype>audio</mediatype>
									<trackindex>2</trackindex>
								</sourcetrack>
								<link>
									<linkclipref>ArmA 3 2020.11.28 - 20.48.15.133.mp4805307631</linkclipref>
								</link>
								<link>
									<linkclipref>ArmA 3 2020.11.28 - 20.48.15.133.mp4536872176</linkclipref>
								</link>
								<link>
									<linkclipref>ArmA 3 2020.11.28 - 20.48.15.133.mp45368721761</linkclipref>
								</link>
								<link>
									<linkclipref>ArmA 3 2020.11.28 - 20.48.15.133.mp4536872177</linkclipref>
								</link>
								<link>
									<linkclipref>ArmA 3 2020.11.28 - 20.48.15.133.mp45368721771</linkclipref>
								</link>
							</clipitem>
							<clipitem id="ArmA 3 2020.11.28 - 20.49.24.134.mp45368721801">
								<name>ArmA 3 2020.11.28 - 20.49.24.134.mp4</name>
								<duration>1233</duration>
								<rate>
									<ntsc>TRUE</ntsc>
									<timebase>24</timebase>
								</rate>
								<in>0</in>
								<out>1233</out>
								<start>8676</start>
								<end>9909</end>
								<enabled>FALSE</enabled>
								<masterclipid>ArmA 3 2020.11.28 - 20.49.24.134.mp4</masterclipid>
								<logginginfo>
									<scene />
									<shottake />
									<lognote />
									<good>FALSE</good>
								</logginginfo>
								<labels>
									<label2 />
								</labels>
								<comments>
									<mastercomment1 />
									<mastercomment2 />
									<mastercomment3 />
									<mastercomment4 />
								</comments>
								<file id="ArmA 3 2020.11.28 - 20.49.24.134" />
								<filter>
									<effect>
										<name>Audio Levels</name>
										<effectid>audiolevels</effectid>
										<effectcategory>audiolevels</effectcategory>
										<effecttype>audiolevels</effecttype>
										<mediatype>audio</mediatype>
										<parameter>
											<name>Level</name>
											<parameterid>level</parameterid>
											<valuemin>0</valuemin>
											<valuemax>3,98109</valuemax>
											<value>1</value>
										</parameter>
									</effect>
								</filter>
								<filter>
									<effect>
										<name>Audio Pan</name>
										<effectid>audiopan</effectid>
										<effectcategory>audiopan</effectcategory>
										<effecttype>audiopan</effecttype>
										<mediatype>audio</mediatype>
										<parameter>
											<name>Pan</name>
											<parameterid>pan</parameterid>
											<valuemin>-1</valuemin>
											<valuemax>1</valuemax>
											<value>1</value>
										</parameter>
									</effect>
								</filter>
								<sourcetrack>
									<mediatype>audio</mediatype>
									<trackindex>2</trackindex>
								</sourcetrack>
								<link>
									<linkclipref>ArmA 3 2020.11.28 - 20.49.24.134.mp4805307634</linkclipref>
								</link>
								<link>
									<linkclipref>ArmA 3 2020.11.28 - 20.49.24.134.mp4536872179</linkclipref>
								</link>
								<link>
									<linkclipref>ArmA 3 2020.11.28 - 20.49.24.134.mp45368721791</linkclipref>
								</link>
								<link>
									<linkclipref>ArmA 3 2020.11.28 - 20.49.24.134.mp4536872180</linkclipref>
								</link>
								<link>
									<linkclipref>ArmA 3 2020.11.28 - 20.49.24.134.mp45368721801</linkclipref>
								</link>
							</clipitem>
							<clipitem id="ArmA 3 2020.11.28 - 20.50.27.135.mp45368721831">
								<name>ArmA 3 2020.11.28 - 20.50.27.135.mp4</name>
								<duration>754</duration>
								<rate>
									<ntsc>TRUE</ntsc>
									<timebase>24</timebase>
								</rate>
								<in>0</in>
								<out>754</out>
								<start>9910</start>
								<end>10664</end>
								<enabled>FALSE</enabled>
								<masterclipid>ArmA 3 2020.11.28 - 20.50.27.135.mp4</masterclipid>
								<logginginfo>
									<scene />
									<shottake />
									<lognote />
									<good>FALSE</good>
								</logginginfo>
								<labels>
									<label2 />
								</labels>
								<comments>
									<mastercomment1 />
									<mastercomment2 />
									<mastercomment3 />
									<mastercomment4 />
								</comments>
								<file id="ArmA 3 2020.11.28 - 20.50.27.135" />
								<filter>
									<effect>
										<name>Audio Levels</name>
										<effectid>audiolevels</effectid>
										<effectcategory>audiolevels</effectcategory>
										<effecttype>audiolevels</effecttype>
										<mediatype>audio</mediatype>
										<parameter>
											<name>Level</name>
											<parameterid>level</parameterid>
											<valuemin>0</valuemin>
											<valuemax>3,98109</valuemax>
											<value>1</value>
										</parameter>
									</effect>
								</filter>
								<filter>
									<effect>
										<name>Audio Pan</name>
										<effectid>audiopan</effectid>
										<effectcategory>audiopan</effectcategory>
										<effecttype>audiopan</effecttype>
										<mediatype>audio</mediatype>
										<parameter>
											<name>Pan</name>
											<parameterid>pan</parameterid>
											<valuemin>-1</valuemin>
											<valuemax>1</valuemax>
											<value>1</value>
										</parameter>
									</effect>
								</filter>
								<sourcetrack>
									<mediatype>audio</mediatype>
									<trackindex>2</trackindex>
								</sourcetrack>
								<link>
									<linkclipref>ArmA 3 2020.11.28 - 20.50.27.135.mp4805307637</linkclipref>
								</link>
								<link>
									<linkclipref>ArmA 3 2020.11.28 - 20.50.27.135.mp4536872182</linkclipref>
								</link>
								<link>
									<linkclipref>ArmA 3 2020.11.28 - 20.50.27.135.mp45368721821</linkclipref>
								</link>
								<link>
									<linkclipref>ArmA 3 2020.11.28 - 20.50.27.135.mp4536872183</linkclipref>
								</link>
								<link>
									<linkclipref>ArmA 3 2020.11.28 - 20.50.27.135.mp45368721831</linkclipref>
								</link>
							</clipitem>
						</track>
						<track>
							<clipitem id="ArmA 3 2020.11.28 - 20.26.45.120.mp4536872137">
								<name>ArmA 3 2020.11.28 - 20.26.45.120.mp4</name>
								<duration>443</duration>
								<rate>
									<ntsc>TRUE</ntsc>
									<timebase>24</timebase>
								</rate>
								<in>0</in>
								<out>443</out>
								<start>0</start>
								<end>443</end>
								<enabled>FALSE</enabled>
								<masterclipid>ArmA 3 2020.11.28 - 20.26.45.120.mp4</masterclipid>
								<logginginfo>
									<scene />
									<shottake />
									<lognote />
									<good>FALSE</good>
								</logginginfo>
								<labels>
									<label2 />
								</labels>
								<comments>
									<mastercomment1 />
									<mastercomment2 />
									<mastercomment3 />
									<mastercomment4 />
								</comments>
								<file id="ArmA 3 2020.11.28 - 20.26.45.120" />
								<filter>
									<effect>
										<name>Audio Levels</name>
										<effectid>audiolevels</effectid>
										<effectcategory>audiolevels</effectcategory>
										<effecttype>audiolevels</effecttype>
										<mediatype>audio</mediatype>
										<parameter>
											<name>Level</name>
											<parameterid>level</parameterid>
											<valuemin>0</valuemin>
											<valuemax>3,98109</valuemax>
											<value>1</value>
										</parameter>
									</effect>
								</filter>
								<filter>
									<effect>
										<name>Audio Pan</name>
										<effectid>audiopan</effectid>
										<effectcategory>audiopan</effectcategory>
										<effecttype>audiopan</effecttype>
										<mediatype>audio</mediatype>
										<parameter>
											<name>Pan</name>
											<parameterid>pan</parameterid>
											<valuemin>-1</valuemin>
											<valuemax>1</valuemax>
											<value>-1</value>
										</parameter>
									</effect>
								</filter>
								<sourcetrack>
									<mediatype>audio</mediatype>
									<trackindex>1</trackindex>
								</sourcetrack>
								<link>
									<linkclipref>ArmA 3 2020.11.28 - 20.26.45.120.mp4805307592</linkclipref>
								</link>
								<link>
									<linkclipref>ArmA 3 2020.11.28 - 20.26.45.120.mp4536872137</linkclipref>
								</link>
								<link>
									<linkclipref>ArmA 3 2020.11.28 - 20.26.45.120.mp45368721371</linkclipref>
								</link>
								<link>
									<linkclipref>ArmA 3 2020.11.28 - 20.26.45.120.mp4536872138</linkclipref>
								</link>
								<link>
									<linkclipref>ArmA 3 2020.11.28 - 20.26.45.120.mp45368721381</linkclipref>
								</link>
							</clipitem>
							<clipitem id="ArmA 3 2020.11.28 - 20.27.22.121.mp4536872140">
								<name>ArmA 3 2020.11.28 - 20.27.22.121.mp4</name>
								<duration>411</duration>
								<rate>
									<ntsc>TRUE</ntsc>
									<timebase>24</timebase>
								</rate>
								<in>0</in>
								<out>411</out>
								<start>444</start>
								<end>855</end>
								<enabled>FALSE</enabled>
								<masterclipid>ArmA 3 2020.11.28 - 20.27.22.121.mp4</masterclipid>
								<logginginfo>
									<scene />
									<shottake />
									<lognote />
									<good>FALSE</good>
								</logginginfo>
								<labels>
									<label2 />
								</labels>
								<comments>
									<mastercomment1 />
									<mastercomment2 />
									<mastercomment3 />
									<mastercomment4 />
								</comments>
								<file id="ArmA 3 2020.11.28 - 20.27.22.121" />
								<filter>
									<effect>
										<name>Audio Levels</name>
										<effectid>audiolevels</effectid>
										<effectcategory>audiolevels</effectcategory>
										<effecttype>audiolevels</effecttype>
										<mediatype>audio</mediatype>
										<parameter>
											<name>Level</name>
											<parameterid>level</parameterid>
											<valuemin>0</valuemin>
											<valuemax>3,98109</valuemax>
											<value>1</value>
										</parameter>
									</effect>
								</filter>
								<filter>
									<effect>
										<name>Audio Pan</name>
										<effectid>audiopan</effectid>
										<effectcategory>audiopan</effectcategory>
										<effecttype>audiopan</effecttype>
										<mediatype>audio</mediatype>
										<parameter>
											<name>Pan</name>
											<parameterid>pan</parameterid>
											<valuemin>-1</valuemin>
											<valuemax>1</valuemax>
											<value>-1</value>
										</parameter>
									</effect>
								</filter>
								<sourcetrack>
									<mediatype>audio</mediatype>
									<trackindex>1</trackindex>
								</sourcetrack>
								<link>
									<linkclipref>ArmA 3 2020.11.28 - 20.27.22.121.mp4805307595</linkclipref>
								</link>
								<link>
									<linkclipref>ArmA 3 2020.11.28 - 20.27.22.121.mp4536872140</linkclipref>
								</link>
								<link>
									<linkclipref>ArmA 3 2020.11.28 - 20.27.22.121.mp45368721401</linkclipref>
								</link>
								<link>
									<linkclipref>ArmA 3 2020.11.28 - 20.27.22.121.mp4536872141</linkclipref>
								</link>
								<link>
									<linkclipref>ArmA 3 2020.11.28 - 20.27.22.121.mp45368721411</linkclipref>
								</link>
							</clipitem>
							<clipitem id="ArmA 3 2020.11.28 - 20.28.12.122.mp4536872143">
								<name>ArmA 3 2020.11.28 - 20.28.12.122.mp4</name>
								<duration>354</duration>
								<rate>
									<ntsc>TRUE</ntsc>
									<timebase>24</timebase>
								</rate>
								<in>0</in>
								<out>354</out>
								<start>856</start>
								<end>1210</end>
								<enabled>FALSE</enabled>
								<masterclipid>ArmA 3 2020.11.28 - 20.28.12.122.mp4</masterclipid>
								<logginginfo>
									<scene />
									<shottake />
									<lognote />
									<good>FALSE</good>
								</logginginfo>
								<labels>
									<label2 />
								</labels>
								<comments>
									<mastercomment1 />
									<mastercomment2 />
									<mastercomment3 />
									<mastercomment4 />
								</comments>
								<file id="ArmA 3 2020.11.28 - 20.28.12.122" />
								<filter>
									<effect>
										<name>Audio Levels</name>
										<effectid>audiolevels</effectid>
										<effectcategory>audiolevels</effectcategory>
										<effecttype>audiolevels</effecttype>
										<mediatype>audio</mediatype>
										<parameter>
											<name>Level</name>
											<parameterid>level</parameterid>
											<valuemin>0</valuemin>
											<valuemax>3,98109</valuemax>
											<value>1</value>
										</parameter>
									</effect>
								</filter>
								<filter>
									<effect>
										<name>Audio Pan</name>
										<effectid>audiopan</effectid>
										<effectcategory>audiopan</effectcategory>
										<effecttype>audiopan</effecttype>
										<mediatype>audio</mediatype>
										<parameter>
											<name>Pan</name>
											<parameterid>pan</parameterid>
											<valuemin>-1</valuemin>
											<valuemax>1</valuemax>
											<value>-1</value>
										</parameter>
									</effect>
								</filter>
								<sourcetrack>
									<mediatype>audio</mediatype>
									<trackindex>1</trackindex>
								</sourcetrack>
								<link>
									<linkclipref>ArmA 3 2020.11.28 - 20.28.12.122.mp4805307598</linkclipref>
								</link>
								<link>
									<linkclipref>ArmA 3 2020.11.28 - 20.28.12.122.mp4536872143</linkclipref>
								</link>
								<link>
									<linkclipref>ArmA 3 2020.11.28 - 20.28.12.122.mp45368721431</linkclipref>
								</link>
								<link>
									<linkclipref>ArmA 3 2020.11.28 - 20.28.12.122.mp4536872144</linkclipref>
								</link>
								<link>
									<linkclipref>ArmA 3 2020.11.28 - 20.28.12.122.mp45368721441</linkclipref>
								</link>
							</clipitem>
							<clipitem id="ArmA 3 2020.11.28 - 20.28.56.123.mp4536872146">
								<name>ArmA 3 2020.11.28 - 20.28.56.123.mp4</name>
								<duration>496</duration>
								<rate>
									<ntsc>TRUE</ntsc>
									<timebase>24</timebase>
								</rate>
								<in>0</in>
								<out>496</out>
								<start>1211</start>
								<end>1707</end>
								<enabled>FALSE</enabled>
								<masterclipid>ArmA 3 2020.11.28 - 20.28.56.123.mp4</masterclipid>
								<logginginfo>
									<scene />
									<shottake />
									<lognote />
									<good>FALSE</good>
								</logginginfo>
								<labels>
									<label2 />
								</labels>
								<comments>
									<mastercomment1 />
									<mastercomment2 />
									<mastercomment3 />
									<mastercomment4 />
								</comments>
								<file id="ArmA 3 2020.11.28 - 20.28.56.123" />
								<filter>
									<effect>
										<name>Audio Levels</name>
										<effectid>audiolevels</effectid>
										<effectcategory>audiolevels</effectcategory>
										<effecttype>audiolevels</effecttype>
										<mediatype>audio</mediatype>
										<parameter>
											<name>Level</name>
											<parameterid>level</parameterid>
											<valuemin>0</valuemin>
											<valuemax>3,98109</valuemax>
											<value>1</value>
										</parameter>
									</effect>
								</filter>
								<filter>
									<effect>
										<name>Audio Pan</name>
										<effectid>audiopan</effectid>
										<effectcategory>audiopan</effectcategory>
										<effecttype>audiopan</effecttype>
										<mediatype>audio</mediatype>
										<parameter>
											<name>Pan</name>
											<parameterid>pan</parameterid>
											<valuemin>-1</valuemin>
											<valuemax>1</valuemax>
											<value>-1</value>
										</parameter>
									</effect>
								</filter>
								<sourcetrack>
									<mediatype>audio</mediatype>
									<trackindex>1</trackindex>
								</sourcetrack>
								<link>
									<linkclipref>ArmA 3 2020.11.28 - 20.28.56.123.mp4805307601</linkclipref>
								</link>
								<link>
									<linkclipref>ArmA 3 2020.11.28 - 20.28.56.123.mp4536872146</linkclipref>
								</link>
								<link>
									<linkclipref>ArmA 3 2020.11.28 - 20.28.56.123.mp45368721461</linkclipref>
								</link>
								<link>
									<linkclipref>ArmA 3 2020.11.28 - 20.28.56.123.mp4536872147</linkclipref>
								</link>
								<link>
									<linkclipref>ArmA 3 2020.11.28 - 20.28.56.123.mp45368721471</linkclipref>
								</link>
							</clipitem>
							<clipitem id="ArmA 3 2020.11.28 - 20.29.21.124.mp4536872149">
								<name>ArmA 3 2020.11.28 - 20.29.21.124.mp4</name>
								<duration>590</duration>
								<rate>
									<ntsc>TRUE</ntsc>
									<timebase>24</timebase>
								</rate>
								<in>0</in>
								<out>590</out>
								<start>1708</start>
								<end>2298</end>
								<enabled>FALSE</enabled>
								<masterclipid>ArmA 3 2020.11.28 - 20.29.21.124.mp4</masterclipid>
								<logginginfo>
									<scene />
									<shottake />
									<lognote />
									<good>FALSE</good>
								</logginginfo>
								<labels>
									<label2 />
								</labels>
								<comments>
									<mastercomment1 />
									<mastercomment2 />
									<mastercomment3 />
									<mastercomment4 />
								</comments>
								<file id="ArmA 3 2020.11.28 - 20.29.21.124" />
								<filter>
									<effect>
										<name>Audio Levels</name>
										<effectid>audiolevels</effectid>
										<effectcategory>audiolevels</effectcategory>
										<effecttype>audiolevels</effecttype>
										<mediatype>audio</mediatype>
										<parameter>
											<name>Level</name>
											<parameterid>level</parameterid>
											<valuemin>0</valuemin>
											<valuemax>3,98109</valuemax>
											<value>1</value>
										</parameter>
									</effect>
								</filter>
								<filter>
									<effect>
										<name>Audio Pan</name>
										<effectid>audiopan</effectid>
										<effectcategory>audiopan</effectcategory>
										<effecttype>audiopan</effecttype>
										<mediatype>audio</mediatype>
										<parameter>
											<name>Pan</name>
											<parameterid>pan</parameterid>
											<valuemin>-1</valuemin>
											<valuemax>1</valuemax>
											<value>-1</value>
										</parameter>
									</effect>
								</filter>
								<sourcetrack>
									<mediatype>audio</mediatype>
									<trackindex>1</trackindex>
								</sourcetrack>
								<link>
									<linkclipref>ArmA 3 2020.11.28 - 20.29.21.124.mp4805307604</linkclipref>
								</link>
								<link>
									<linkclipref>ArmA 3 2020.11.28 - 20.29.21.124.mp4536872149</linkclipref>
								</link>
								<link>
									<linkclipref>ArmA 3 2020.11.28 - 20.29.21.124.mp45368721491</linkclipref>
								</link>
								<link>
									<linkclipref>ArmA 3 2020.11.28 - 20.29.21.124.mp4536872150</linkclipref>
								</link>
								<link>
									<linkclipref>ArmA 3 2020.11.28 - 20.29.21.124.mp45368721501</linkclipref>
								</link>
							</clipitem>
							<clipitem id="ArmA 3 2020.11.28 - 20.30.01.125.mp4536872152">
								<name>ArmA 3 2020.11.28 - 20.30.01.125.mp4</name>
								<duration>336</duration>
								<rate>
									<ntsc>TRUE</ntsc>
									<timebase>24</timebase>
								</rate>
								<in>0</in>
								<out>336</out>
								<start>2299</start>
								<end>2635</end>
								<enabled>FALSE</enabled>
								<masterclipid>ArmA 3 2020.11.28 - 20.30.01.125.mp4</masterclipid>
								<logginginfo>
									<scene />
									<shottake />
									<lognote />
									<good>FALSE</good>
								</logginginfo>
								<labels>
									<label2 />
								</labels>
								<comments>
									<mastercomment1 />
									<mastercomment2 />
									<mastercomment3 />
									<mastercomment4 />
								</comments>
								<file id="ArmA 3 2020.11.28 - 20.30.01.125" />
								<filter>
									<effect>
										<name>Audio Levels</name>
										<effectid>audiolevels</effectid>
										<effectcategory>audiolevels</effectcategory>
										<effecttype>audiolevels</effecttype>
										<mediatype>audio</mediatype>
										<parameter>
											<name>Level</name>
											<parameterid>level</parameterid>
											<valuemin>0</valuemin>
											<valuemax>3,98109</valuemax>
											<value>1</value>
										</parameter>
									</effect>
								</filter>
								<filter>
									<effect>
										<name>Audio Pan</name>
										<effectid>audiopan</effectid>
										<effectcategory>audiopan</effectcategory>
										<effecttype>audiopan</effecttype>
										<mediatype>audio</mediatype>
										<parameter>
											<name>Pan</name>
											<parameterid>pan</parameterid>
											<valuemin>-1</valuemin>
											<valuemax>1</valuemax>
											<value>-1</value>
										</parameter>
									</effect>
								</filter>
								<sourcetrack>
									<mediatype>audio</mediatype>
									<trackindex>1</trackindex>
								</sourcetrack>
								<link>
									<linkclipref>ArmA 3 2020.11.28 - 20.30.01.125.mp4805307607</linkclipref>
								</link>
								<link>
									<linkclipref>ArmA 3 2020.11.28 - 20.30.01.125.mp4536872152</linkclipref>
								</link>
								<link>
									<linkclipref>ArmA 3 2020.11.28 - 20.30.01.125.mp45368721521</linkclipref>
								</link>
								<link>
									<linkclipref>ArmA 3 2020.11.28 - 20.30.01.125.mp4536872153</linkclipref>
								</link>
								<link>
									<linkclipref>ArmA 3 2020.11.28 - 20.30.01.125.mp45368721531</linkclipref>
								</link>
							</clipitem>
							<clipitem id="ArmA 3 2020.11.28 - 20.30.43.126.mp4536872155">
								<name>ArmA 3 2020.11.28 - 20.30.43.126.mp4</name>
								<duration>889</duration>
								<rate>
									<ntsc>TRUE</ntsc>
									<timebase>24</timebase>
								</rate>
								<in>0</in>
								<out>889</out>
								<start>2636</start>
								<end>3525</end>
								<enabled>FALSE</enabled>
								<masterclipid>ArmA 3 2020.11.28 - 20.30.43.126.mp4</masterclipid>
								<logginginfo>
									<scene />
									<shottake />
									<lognote />
									<good>FALSE</good>
								</logginginfo>
								<labels>
									<label2 />
								</labels>
								<comments>
									<mastercomment1 />
									<mastercomment2 />
									<mastercomment3 />
									<mastercomment4 />
								</comments>
								<file id="ArmA 3 2020.11.28 - 20.30.43.126" />
								<filter>
									<effect>
										<name>Audio Levels</name>
										<effectid>audiolevels</effectid>
										<effectcategory>audiolevels</effectcategory>
										<effecttype>audiolevels</effecttype>
										<mediatype>audio</mediatype>
										<parameter>
											<name>Level</name>
											<parameterid>level</parameterid>
											<valuemin>0</valuemin>
											<valuemax>3,98109</valuemax>
											<value>1</value>
										</parameter>
									</effect>
								</filter>
								<filter>
									<effect>
										<name>Audio Pan</name>
										<effectid>audiopan</effectid>
										<effectcategory>audiopan</effectcategory>
										<effecttype>audiopan</effecttype>
										<mediatype>audio</mediatype>
										<parameter>
											<name>Pan</name>
											<parameterid>pan</parameterid>
											<valuemin>-1</valuemin>
											<valuemax>1</valuemax>
											<value>-1</value>
										</parameter>
									</effect>
								</filter>
								<sourcetrack>
									<mediatype>audio</mediatype>
									<trackindex>1</trackindex>
								</sourcetrack>
								<link>
									<linkclipref>ArmA 3 2020.11.28 - 20.30.43.126.mp4805307610</linkclipref>
								</link>
								<link>
									<linkclipref>ArmA 3 2020.11.28 - 20.30.43.126.mp4536872155</linkclipref>
								</link>
								<link>
									<linkclipref>ArmA 3 2020.11.28 - 20.30.43.126.mp45368721551</linkclipref>
								</link>
								<link>
									<linkclipref>ArmA 3 2020.11.28 - 20.30.43.126.mp4536872156</linkclipref>
								</link>
								<link>
									<linkclipref>ArmA 3 2020.11.28 - 20.30.43.126.mp45368721561</linkclipref>
								</link>
							</clipitem>
							<clipitem id="ArmA 3 2020.11.28 - 20.31.29.127.mp4536872158">
								<name>ArmA 3 2020.11.28 - 20.31.29.127.mp4</name>
								<duration>1130</duration>
								<rate>
									<ntsc>TRUE</ntsc>
									<timebase>24</timebase>
								</rate>
								<in>0</in>
								<out>1130</out>
								<start>3526</start>
								<end>4656</end>
								<enabled>FALSE</enabled>
								<masterclipid>ArmA 3 2020.11.28 - 20.31.29.127.mp4</masterclipid>
								<logginginfo>
									<scene />
									<shottake />
									<lognote />
									<good>FALSE</good>
								</logginginfo>
								<labels>
									<label2 />
								</labels>
								<comments>
									<mastercomment1 />
									<mastercomment2 />
									<mastercomment3 />
									<mastercomment4 />
								</comments>
								<file id="ArmA 3 2020.11.28 - 20.31.29.127" />
								<filter>
									<effect>
										<name>Audio Levels</name>
										<effectid>audiolevels</effectid>
										<effectcategory>audiolevels</effectcategory>
										<effecttype>audiolevels</effecttype>
										<mediatype>audio</mediatype>
										<parameter>
											<name>Level</name>
											<parameterid>level</parameterid>
											<valuemin>0</valuemin>
											<valuemax>3,98109</valuemax>
											<value>1</value>
										</parameter>
									</effect>
								</filter>
								<filter>
									<effect>
										<name>Audio Pan</name>
										<effectid>audiopan</effectid>
										<effectcategory>audiopan</effectcategory>
										<effecttype>audiopan</effecttype>
										<mediatype>audio</mediatype>
										<parameter>
											<name>Pan</name>
											<parameterid>pan</parameterid>
											<valuemin>-1</valuemin>
											<valuemax>1</valuemax>
											<value>-1</value>
										</parameter>
									</effect>
								</filter>
								<sourcetrack>
									<mediatype>audio</mediatype>
									<trackindex>1</trackindex>
								</sourcetrack>
								<link>
									<linkclipref>ArmA 3 2020.11.28 - 20.31.29.127.mp4805307613</linkclipref>
								</link>
								<link>
									<linkclipref>ArmA 3 2020.11.28 - 20.31.29.127.mp4536872158</linkclipref>
								</link>
								<link>
									<linkclipref>ArmA 3 2020.11.28 - 20.31.29.127.mp45368721581</linkclipref>
								</link>
								<link>
									<linkclipref>ArmA 3 2020.11.28 - 20.31.29.127.mp4536872159</linkclipref>
								</link>
								<link>
									<linkclipref>ArmA 3 2020.11.28 - 20.31.29.127.mp45368721591</linkclipref>
								</link>
							</clipitem>
							<clipitem id="ArmA 3 2020.11.28 - 20.32.26.128.mp4536872161">
								<name>ArmA 3 2020.11.28 - 20.32.26.128.mp4</name>
								<duration>731</duration>
								<rate>
									<ntsc>TRUE</ntsc>
									<timebase>24</timebase>
								</rate>
								<in>0</in>
								<out>731</out>
								<start>4657</start>
								<end>5388</end>
								<enabled>FALSE</enabled>
								<masterclipid>ArmA 3 2020.11.28 - 20.32.26.128.mp4</masterclipid>
								<logginginfo>
									<scene />
									<shottake />
									<lognote />
									<good>FALSE</good>
								</logginginfo>
								<labels>
									<label2 />
								</labels>
								<comments>
									<mastercomment1 />
									<mastercomment2 />
									<mastercomment3 />
									<mastercomment4 />
								</comments>
								<file id="ArmA 3 2020.11.28 - 20.32.26.128" />
								<filter>
									<effect>
										<name>Audio Levels</name>
										<effectid>audiolevels</effectid>
										<effectcategory>audiolevels</effectcategory>
										<effecttype>audiolevels</effecttype>
										<mediatype>audio</mediatype>
										<parameter>
											<name>Level</name>
											<parameterid>level</parameterid>
											<valuemin>0</valuemin>
											<valuemax>3,98109</valuemax>
											<value>1</value>
										</parameter>
									</effect>
								</filter>
								<filter>
									<effect>
										<name>Audio Pan</name>
										<effectid>audiopan</effectid>
										<effectcategory>audiopan</effectcategory>
										<effecttype>audiopan</effecttype>
										<mediatype>audio</mediatype>
										<parameter>
											<name>Pan</name>
											<parameterid>pan</parameterid>
											<valuemin>-1</valuemin>
											<valuemax>1</valuemax>
											<value>-1</value>
										</parameter>
									</effect>
								</filter>
								<sourcetrack>
									<mediatype>audio</mediatype>
									<trackindex>1</trackindex>
								</sourcetrack>
								<link>
									<linkclipref>ArmA 3 2020.11.28 - 20.32.26.128.mp4805307616</linkclipref>
								</link>
								<link>
									<linkclipref>ArmA 3 2020.11.28 - 20.32.26.128.mp4536872161</linkclipref>
								</link>
								<link>
									<linkclipref>ArmA 3 2020.11.28 - 20.32.26.128.mp45368721611</linkclipref>
								</link>
								<link>
									<linkclipref>ArmA 3 2020.11.28 - 20.32.26.128.mp4536872162</linkclipref>
								</link>
								<link>
									<linkclipref>ArmA 3 2020.11.28 - 20.32.26.128.mp45368721621</linkclipref>
								</link>
							</clipitem>
							<clipitem id="ArmA 3 2020.11.28 - 20.33.18.129.mp4536872164">
								<name>ArmA 3 2020.11.28 - 20.33.18.129.mp4</name>
								<duration>772</duration>
								<rate>
									<ntsc>TRUE</ntsc>
									<timebase>24</timebase>
								</rate>
								<in>0</in>
								<out>772</out>
								<start>5389</start>
								<end>6161</end>
								<enabled>FALSE</enabled>
								<masterclipid>ArmA 3 2020.11.28 - 20.33.18.129.mp4</masterclipid>
								<logginginfo>
									<scene />
									<shottake />
									<lognote />
									<good>FALSE</good>
								</logginginfo>
								<labels>
									<label2 />
								</labels>
								<comments>
									<mastercomment1 />
									<mastercomment2 />
									<mastercomment3 />
									<mastercomment4 />
								</comments>
								<file id="ArmA 3 2020.11.28 - 20.33.18.129" />
								<filter>
									<effect>
										<name>Audio Levels</name>
										<effectid>audiolevels</effectid>
										<effectcategory>audiolevels</effectcategory>
										<effecttype>audiolevels</effecttype>
										<mediatype>audio</mediatype>
										<parameter>
											<name>Level</name>
											<parameterid>level</parameterid>
											<valuemin>0</valuemin>
											<valuemax>3,98109</valuemax>
											<value>1</value>
										</parameter>
									</effect>
								</filter>
								<filter>
									<effect>
										<name>Audio Pan</name>
										<effectid>audiopan</effectid>
										<effectcategory>audiopan</effectcategory>
										<effecttype>audiopan</effecttype>
										<mediatype>audio</mediatype>
										<parameter>
											<name>Pan</name>
											<parameterid>pan</parameterid>
											<valuemin>-1</valuemin>
											<valuemax>1</valuemax>
											<value>-1</value>
										</parameter>
									</effect>
								</filter>
								<sourcetrack>
									<mediatype>audio</mediatype>
									<trackindex>1</trackindex>
								</sourcetrack>
								<link>
									<linkclipref>ArmA 3 2020.11.28 - 20.33.18.129.mp4805307619</linkclipref>
								</link>
								<link>
									<linkclipref>ArmA 3 2020.11.28 - 20.33.18.129.mp4536872164</linkclipref>
								</link>
								<link>
									<linkclipref>ArmA 3 2020.11.28 - 20.33.18.129.mp45368721641</linkclipref>
								</link>
								<link>
									<linkclipref>ArmA 3 2020.11.28 - 20.33.18.129.mp4536872165</linkclipref>
								</link>
								<link>
									<linkclipref>ArmA 3 2020.11.28 - 20.33.18.129.mp45368721651</linkclipref>
								</link>
							</clipitem>
							<clipitem id="ArmA 3 2020.11.28 - 20.34.04.130.mp4536872167">
								<name>ArmA 3 2020.11.28 - 20.34.04.130.mp4</name>
								<duration>521</duration>
								<rate>
									<ntsc>TRUE</ntsc>
									<timebase>24</timebase>
								</rate>
								<in>0</in>
								<out>521</out>
								<start>6162</start>
								<end>6683</end>
								<enabled>FALSE</enabled>
								<masterclipid>ArmA 3 2020.11.28 - 20.34.04.130.mp4</masterclipid>
								<logginginfo>
									<scene />
									<shottake />
									<lognote />
									<good>FALSE</good>
								</logginginfo>
								<labels>
									<label2 />
								</labels>
								<comments>
									<mastercomment1 />
									<mastercomment2 />
									<mastercomment3 />
									<mastercomment4 />
								</comments>
								<file id="ArmA 3 2020.11.28 - 20.34.04.130" />
								<filter>
									<effect>
										<name>Audio Levels</name>
										<effectid>audiolevels</effectid>
										<effectcategory>audiolevels</effectcategory>
										<effecttype>audiolevels</effecttype>
										<mediatype>audio</mediatype>
										<parameter>
											<name>Level</name>
											<parameterid>level</parameterid>
											<valuemin>0</valuemin>
											<valuemax>3,98109</valuemax>
											<value>1</value>
										</parameter>
									</effect>
								</filter>
								<filter>
									<effect>
										<name>Audio Pan</name>
										<effectid>audiopan</effectid>
										<effectcategory>audiopan</effectcategory>
										<effecttype>audiopan</effecttype>
										<mediatype>audio</mediatype>
										<parameter>
											<name>Pan</name>
											<parameterid>pan</parameterid>
											<valuemin>-1</valuemin>
											<valuemax>1</valuemax>
											<value>-1</value>
										</parameter>
									</effect>
								</filter>
								<sourcetrack>
									<mediatype>audio</mediatype>
									<trackindex>1</trackindex>
								</sourcetrack>
								<link>
									<linkclipref>ArmA 3 2020.11.28 - 20.34.04.130.mp4805307622</linkclipref>
								</link>
								<link>
									<linkclipref>ArmA 3 2020.11.28 - 20.34.04.130.mp4536872167</linkclipref>
								</link>
								<link>
									<linkclipref>ArmA 3 2020.11.28 - 20.34.04.130.mp45368721671</linkclipref>
								</link>
								<link>
									<linkclipref>ArmA 3 2020.11.28 - 20.34.04.130.mp4536872168</linkclipref>
								</link>
								<link>
									<linkclipref>ArmA 3 2020.11.28 - 20.34.04.130.mp45368721681</linkclipref>
								</link>
							</clipitem>
							<clipitem id="ArmA 3 2020.11.28 - 20.35.50.131.mp4536872170">
								<name>ArmA 3 2020.11.28 - 20.35.50.131.mp4</name>
								<duration>315</duration>
								<rate>
									<ntsc>TRUE</ntsc>
									<timebase>24</timebase>
								</rate>
								<in>0</in>
								<out>315</out>
								<start>6684</start>
								<end>6999</end>
								<enabled>FALSE</enabled>
								<masterclipid>ArmA 3 2020.11.28 - 20.35.50.131.mp4</masterclipid>
								<logginginfo>
									<scene />
									<shottake />
									<lognote />
									<good>FALSE</good>
								</logginginfo>
								<labels>
									<label2 />
								</labels>
								<comments>
									<mastercomment1 />
									<mastercomment2 />
									<mastercomment3 />
									<mastercomment4 />
								</comments>
								<file id="ArmA 3 2020.11.28 - 20.35.50.131" />
								<filter>
									<effect>
										<name>Audio Levels</name>
										<effectid>audiolevels</effectid>
										<effectcategory>audiolevels</effectcategory>
										<effecttype>audiolevels</effecttype>
										<mediatype>audio</mediatype>
										<parameter>
											<name>Level</name>
											<parameterid>level</parameterid>
											<valuemin>0</valuemin>
											<valuemax>3,98109</valuemax>
											<value>1</value>
										</parameter>
									</effect>
								</filter>
								<filter>
									<effect>
										<name>Audio Pan</name>
										<effectid>audiopan</effectid>
										<effectcategory>audiopan</effectcategory>
										<effecttype>audiopan</effecttype>
										<mediatype>audio</mediatype>
										<parameter>
											<name>Pan</name>
											<parameterid>pan</parameterid>
											<valuemin>-1</valuemin>
											<valuemax>1</valuemax>
											<value>-1</value>
										</parameter>
									</effect>
								</filter>
								<sourcetrack>
									<mediatype>audio</mediatype>
									<trackindex>1</trackindex>
								</sourcetrack>
								<link>
									<linkclipref>ArmA 3 2020.11.28 - 20.35.50.131.mp4805307625</linkclipref>
								</link>
								<link>
									<linkclipref>ArmA 3 2020.11.28 - 20.35.50.131.mp4536872170</linkclipref>
								</link>
								<link>
									<linkclipref>ArmA 3 2020.11.28 - 20.35.50.131.mp45368721701</linkclipref>
								</link>
								<link>
									<linkclipref>ArmA 3 2020.11.28 - 20.35.50.131.mp4536872171</linkclipref>
								</link>
								<link>
									<linkclipref>ArmA 3 2020.11.28 - 20.35.50.131.mp45368721711</linkclipref>
								</link>
							</clipitem>
							<clipitem id="ArmA 3 2020.11.28 - 20.45.07.132.mp4536872173">
								<name>ArmA 3 2020.11.28 - 20.45.07.132.mp4</name>
								<duration>502</duration>
								<rate>
									<ntsc>TRUE</ntsc>
									<timebase>24</timebase>
								</rate>
								<in>0</in>
								<out>502</out>
								<start>7000</start>
								<end>7502</end>
								<enabled>FALSE</enabled>
								<masterclipid>ArmA 3 2020.11.28 - 20.45.07.132.mp4</masterclipid>
								<logginginfo>
									<scene />
									<shottake />
									<lognote />
									<good>FALSE</good>
								</logginginfo>
								<labels>
									<label2 />
								</labels>
								<comments>
									<mastercomment1 />
									<mastercomment2 />
									<mastercomment3 />
									<mastercomment4 />
								</comments>
								<file id="ArmA 3 2020.11.28 - 20.45.07.132" />
								<filter>
									<effect>
										<name>Audio Levels</name>
										<effectid>audiolevels</effectid>
										<effectcategory>audiolevels</effectcategory>
										<effecttype>audiolevels</effecttype>
										<mediatype>audio</mediatype>
										<parameter>
											<name>Level</name>
											<parameterid>level</parameterid>
											<valuemin>0</valuemin>
											<valuemax>3,98109</valuemax>
											<value>1</value>
										</parameter>
									</effect>
								</filter>
								<filter>
									<effect>
										<name>Audio Pan</name>
										<effectid>audiopan</effectid>
										<effectcategory>audiopan</effectcategory>
										<effecttype>audiopan</effecttype>
										<mediatype>audio</mediatype>
										<parameter>
											<name>Pan</name>
											<parameterid>pan</parameterid>
											<valuemin>-1</valuemin>
											<valuemax>1</valuemax>
											<value>-1</value>
										</parameter>
									</effect>
								</filter>
								<sourcetrack>
									<mediatype>audio</mediatype>
									<trackindex>1</trackindex>
								</sourcetrack>
								<link>
									<linkclipref>ArmA 3 2020.11.28 - 20.45.07.132.mp4805307628</linkclipref>
								</link>
								<link>
									<linkclipref>ArmA 3 2020.11.28 - 20.45.07.132.mp4536872173</linkclipref>
								</link>
								<link>
									<linkclipref>ArmA 3 2020.11.28 - 20.45.07.132.mp45368721731</linkclipref>
								</link>
								<link>
									<linkclipref>ArmA 3 2020.11.28 - 20.45.07.132.mp4536872174</linkclipref>
								</link>
								<link>
									<linkclipref>ArmA 3 2020.11.28 - 20.45.07.132.mp45368721741</linkclipref>
								</link>
							</clipitem>
							<clipitem id="ArmA 3 2020.11.28 - 20.48.15.133.mp4536872176">
								<name>ArmA 3 2020.11.28 - 20.48.15.133.mp4</name>
								<duration>1172</duration>
								<rate>
									<ntsc>TRUE</ntsc>
									<timebase>24</timebase>
								</rate>
								<in>0</in>
								<out>1172</out>
								<start>7503</start>
								<end>8675</end>
								<enabled>FALSE</enabled>
								<masterclipid>ArmA 3 2020.11.28 - 20.48.15.133.mp4</masterclipid>
								<logginginfo>
									<scene />
									<shottake />
									<lognote />
									<good>FALSE</good>
								</logginginfo>
								<labels>
									<label2 />
								</labels>
								<comments>
									<mastercomment1 />
									<mastercomment2 />
									<mastercomment3 />
									<mastercomment4 />
								</comments>
								<file id="ArmA 3 2020.11.28 - 20.48.15.133" />
								<filter>
									<effect>
										<name>Audio Levels</name>
										<effectid>audiolevels</effectid>
										<effectcategory>audiolevels</effectcategory>
										<effecttype>audiolevels</effecttype>
										<mediatype>audio</mediatype>
										<parameter>
											<name>Level</name>
											<parameterid>level</parameterid>
											<valuemin>0</valuemin>
											<valuemax>3,98109</valuemax>
											<value>1</value>
										</parameter>
									</effect>
								</filter>
								<filter>
									<effect>
										<name>Audio Pan</name>
										<effectid>audiopan</effectid>
										<effectcategory>audiopan</effectcategory>
										<effecttype>audiopan</effecttype>
										<mediatype>audio</mediatype>
										<parameter>
											<name>Pan</name>
											<parameterid>pan</parameterid>
											<valuemin>-1</valuemin>
											<valuemax>1</valuemax>
											<value>-1</value>
										</parameter>
									</effect>
								</filter>
								<sourcetrack>
									<mediatype>audio</mediatype>
									<trackindex>1</trackindex>
								</sourcetrack>
								<link>
									<linkclipref>ArmA 3 2020.11.28 - 20.48.15.133.mp4805307631</linkclipref>
								</link>
								<link>
									<linkclipref>ArmA 3 2020.11.28 - 20.48.15.133.mp4536872176</linkclipref>
								</link>
								<link>
									<linkclipref>ArmA 3 2020.11.28 - 20.48.15.133.mp45368721761</linkclipref>
								</link>
								<link>
									<linkclipref>ArmA 3 2020.11.28 - 20.48.15.133.mp4536872177</linkclipref>
								</link>
								<link>
									<linkclipref>ArmA 3 2020.11.28 - 20.48.15.133.mp45368721771</linkclipref>
								</link>
							</clipitem>
							<clipitem id="ArmA 3 2020.11.28 - 20.49.24.134.mp4536872179">
								<name>ArmA 3 2020.11.28 - 20.49.24.134.mp4</name>
								<duration>1233</duration>
								<rate>
									<ntsc>TRUE</ntsc>
									<timebase>24</timebase>
								</rate>
								<in>0</in>
								<out>1233</out>
								<start>8676</start>
								<end>9909</end>
								<enabled>FALSE</enabled>
								<masterclipid>ArmA 3 2020.11.28 - 20.49.24.134.mp4</masterclipid>
								<logginginfo>
									<scene />
									<shottake />
									<lognote />
									<good>FALSE</good>
								</logginginfo>
								<labels>
									<label2 />
								</labels>
								<comments>
									<mastercomment1 />
									<mastercomment2 />
									<mastercomment3 />
									<mastercomment4 />
								</comments>
								<file id="ArmA 3 2020.11.28 - 20.49.24.134" />
								<filter>
									<effect>
										<name>Audio Levels</name>
										<effectid>audiolevels</effectid>
										<effectcategory>audiolevels</effectcategory>
										<effecttype>audiolevels</effecttype>
										<mediatype>audio</mediatype>
										<parameter>
											<name>Level</name>
											<parameterid>level</parameterid>
											<valuemin>0</valuemin>
											<valuemax>3,98109</valuemax>
											<value>1</value>
										</parameter>
									</effect>
								</filter>
								<filter>
									<effect>
										<name>Audio Pan</name>
										<effectid>audiopan</effectid>
										<effectcategory>audiopan</effectcategory>
										<effecttype>audiopan</effecttype>
										<mediatype>audio</mediatype>
										<parameter>
											<name>Pan</name>
											<parameterid>pan</parameterid>
											<valuemin>-1</valuemin>
											<valuemax>1</valuemax>
											<value>-1</value>
										</parameter>
									</effect>
								</filter>
								<sourcetrack>
									<mediatype>audio</mediatype>
									<trackindex>1</trackindex>
								</sourcetrack>
								<link>
									<linkclipref>ArmA 3 2020.11.28 - 20.49.24.134.mp4805307634</linkclipref>
								</link>
								<link>
									<linkclipref>ArmA 3 2020.11.28 - 20.49.24.134.mp4536872179</linkclipref>
								</link>
								<link>
									<linkclipref>ArmA 3 2020.11.28 - 20.49.24.134.mp45368721791</linkclipref>
								</link>
								<link>
									<linkclipref>ArmA 3 2020.11.28 - 20.49.24.134.mp4536872180</linkclipref>
								</link>
								<link>
									<linkclipref>ArmA 3 2020.11.28 - 20.49.24.134.mp45368721801</linkclipref>
								</link>
							</clipitem>
							<clipitem id="ArmA 3 2020.11.28 - 20.50.27.135.mp4536872182">
								<name>ArmA 3 2020.11.28 - 20.50.27.135.mp4</name>
								<duration>754</duration>
								<rate>
									<ntsc>TRUE</ntsc>
									<timebase>24</timebase>
								</rate>
								<in>0</in>
								<out>754</out>
								<start>9910</start>
								<end>10664</end>
								<enabled>FALSE</enabled>
								<masterclipid>ArmA 3 2020.11.28 - 20.50.27.135.mp4</masterclipid>
								<logginginfo>
									<scene />
									<shottake />
									<lognote />
									<good>FALSE</good>
								</logginginfo>
								<labels>
									<label2 />
								</labels>
								<comments>
									<mastercomment1 />
									<mastercomment2 />
									<mastercomment3 />
									<mastercomment4 />
								</comments>
								<file id="ArmA 3 2020.11.28 - 20.50.27.135" />
								<filter>
									<effect>
										<name>Audio Levels</name>
										<effectid>audiolevels</effectid>
										<effectcategory>audiolevels</effectcategory>
										<effecttype>audiolevels</effecttype>
										<mediatype>audio</mediatype>
										<parameter>
											<name>Level</name>
											<parameterid>level</parameterid>
											<valuemin>0</valuemin>
											<valuemax>3,98109</valuemax>
											<value>1</value>
										</parameter>
									</effect>
								</filter>
								<filter>
									<effect>
										<name>Audio Pan</name>
										<effectid>audiopan</effectid>
										<effectcategory>audiopan</effectcategory>
										<effecttype>audiopan</effecttype>
										<mediatype>audio</mediatype>
										<parameter>
											<name>Pan</name>
											<parameterid>pan</parameterid>
											<valuemin>-1</valuemin>
											<valuemax>1</valuemax>
											<value>-1</value>
										</parameter>
									</effect>
								</filter>
								<sourcetrack>
									<mediatype>audio</mediatype>
									<trackindex>1</trackindex>
								</sourcetrack>
								<link>
									<linkclipref>ArmA 3 2020.11.28 - 20.50.27.135.mp4805307637</linkclipref>
								</link>
								<link>
									<linkclipref>ArmA 3 2020.11.28 - 20.50.27.135.mp4536872182</linkclipref>
								</link>
								<link>
									<linkclipref>ArmA 3 2020.11.28 - 20.50.27.135.mp45368721821</linkclipref>
								</link>
								<link>
									<linkclipref>ArmA 3 2020.11.28 - 20.50.27.135.mp4536872183</linkclipref>
								</link>
								<link>
									<linkclipref>ArmA 3 2020.11.28 - 20.50.27.135.mp45368721831</linkclipref>
								</link>
							</clipitem>
						</track>
						<track>
							<clipitem id="ArmA 3 2020.11.28 - 20.26.45.120.mp45368721371">
								<name>ArmA 3 2020.11.28 - 20.26.45.120.mp4</name>
								<duration>443</duration>
								<rate>
									<ntsc>TRUE</ntsc>
									<timebase>24</timebase>
								</rate>
								<in>0</in>
								<out>443</out>
								<start>0</start>
								<end>443</end>
								<enabled>FALSE</enabled>
								<masterclipid>ArmA 3 2020.11.28 - 20.26.45.120.mp4</masterclipid>
								<logginginfo>
									<scene />
									<shottake />
									<lognote />
									<good>FALSE</good>
								</logginginfo>
								<labels>
									<label2 />
								</labels>
								<comments>
									<mastercomment1 />
									<mastercomment2 />
									<mastercomment3 />
									<mastercomment4 />
								</comments>
								<file id="ArmA 3 2020.11.28 - 20.26.45.120" />
								<filter>
									<effect>
										<name>Audio Levels</name>
										<effectid>audiolevels</effectid>
										<effectcategory>audiolevels</effectcategory>
										<effecttype>audiolevels</effecttype>
										<mediatype>audio</mediatype>
										<parameter>
											<name>Level</name>
											<parameterid>level</parameterid>
											<valuemin>0</valuemin>
											<valuemax>3,98109</valuemax>
											<value>1</value>
										</parameter>
									</effect>
								</filter>
								<filter>
									<effect>
										<name>Audio Pan</name>
										<effectid>audiopan</effectid>
										<effectcategory>audiopan</effectcategory>
										<effecttype>audiopan</effecttype>
										<mediatype>audio</mediatype>
										<parameter>
											<name>Pan</name>
											<parameterid>pan</parameterid>
											<valuemin>-1</valuemin>
											<valuemax>1</valuemax>
											<value>1</value>
										</parameter>
									</effect>
								</filter>
								<sourcetrack>
									<mediatype>audio</mediatype>
									<trackindex>2</trackindex>
								</sourcetrack>
								<link>
									<linkclipref>ArmA 3 2020.11.28 - 20.26.45.120.mp4805307592</linkclipref>
								</link>
								<link>
									<linkclipref>ArmA 3 2020.11.28 - 20.26.45.120.mp4536872137</linkclipref>
								</link>
								<link>
									<linkclipref>ArmA 3 2020.11.28 - 20.26.45.120.mp45368721371</linkclipref>
								</link>
								<link>
									<linkclipref>ArmA 3 2020.11.28 - 20.26.45.120.mp4536872138</linkclipref>
								</link>
								<link>
									<linkclipref>ArmA 3 2020.11.28 - 20.26.45.120.mp45368721381</linkclipref>
								</link>
							</clipitem>
							<clipitem id="ArmA 3 2020.11.28 - 20.27.22.121.mp45368721401">
								<name>ArmA 3 2020.11.28 - 20.27.22.121.mp4</name>
								<duration>411</duration>
								<rate>
									<ntsc>TRUE</ntsc>
									<timebase>24</timebase>
								</rate>
								<in>0</in>
								<out>411</out>
								<start>444</start>
								<end>855</end>
								<enabled>FALSE</enabled>
								<masterclipid>ArmA 3 2020.11.28 - 20.27.22.121.mp4</masterclipid>
								<logginginfo>
									<scene />
									<shottake />
									<lognote />
									<good>FALSE</good>
								</logginginfo>
								<labels>
									<label2 />
								</labels>
								<comments>
									<mastercomment1 />
									<mastercomment2 />
									<mastercomment3 />
									<mastercomment4 />
								</comments>
								<file id="ArmA 3 2020.11.28 - 20.27.22.121" />
								<filter>
									<effect>
										<name>Audio Levels</name>
										<effectid>audiolevels</effectid>
										<effectcategory>audiolevels</effectcategory>
										<effecttype>audiolevels</effecttype>
										<mediatype>audio</mediatype>
										<parameter>
											<name>Level</name>
											<parameterid>level</parameterid>
											<valuemin>0</valuemin>
											<valuemax>3,98109</valuemax>
											<value>1</value>
										</parameter>
									</effect>
								</filter>
								<filter>
									<effect>
										<name>Audio Pan</name>
										<effectid>audiopan</effectid>
										<effectcategory>audiopan</effectcategory>
										<effecttype>audiopan</effecttype>
										<mediatype>audio</mediatype>
										<parameter>
											<name>Pan</name>
											<parameterid>pan</parameterid>
											<valuemin>-1</valuemin>
											<valuemax>1</valuemax>
											<value>1</value>
										</parameter>
									</effect>
								</filter>
								<sourcetrack>
									<mediatype>audio</mediatype>
									<trackindex>2</trackindex>
								</sourcetrack>
								<link>
									<linkclipref>ArmA 3 2020.11.28 - 20.27.22.121.mp4805307595</linkclipref>
								</link>
								<link>
									<linkclipref>ArmA 3 2020.11.28 - 20.27.22.121.mp4536872140</linkclipref>
								</link>
								<link>
									<linkclipref>ArmA 3 2020.11.28 - 20.27.22.121.mp45368721401</linkclipref>
								</link>
								<link>
									<linkclipref>ArmA 3 2020.11.28 - 20.27.22.121.mp4536872141</linkclipref>
								</link>
								<link>
									<linkclipref>ArmA 3 2020.11.28 - 20.27.22.121.mp45368721411</linkclipref>
								</link>
							</clipitem>
							<clipitem id="ArmA 3 2020.11.28 - 20.28.12.122.mp45368721431">
								<name>ArmA 3 2020.11.28 - 20.28.12.122.mp4</name>
								<duration>354</duration>
								<rate>
									<ntsc>TRUE</ntsc>
									<timebase>24</timebase>
								</rate>
								<in>0</in>
								<out>354</out>
								<start>856</start>
								<end>1210</end>
								<enabled>FALSE</enabled>
								<masterclipid>ArmA 3 2020.11.28 - 20.28.12.122.mp4</masterclipid>
								<logginginfo>
									<scene />
									<shottake />
									<lognote />
									<good>FALSE</good>
								</logginginfo>
								<labels>
									<label2 />
								</labels>
								<comments>
									<mastercomment1 />
									<mastercomment2 />
									<mastercomment3 />
									<mastercomment4 />
								</comments>
								<file id="ArmA 3 2020.11.28 - 20.28.12.122" />
								<filter>
									<effect>
										<name>Audio Levels</name>
										<effectid>audiolevels</effectid>
										<effectcategory>audiolevels</effectcategory>
										<effecttype>audiolevels</effecttype>
										<mediatype>audio</mediatype>
										<parameter>
											<name>Level</name>
											<parameterid>level</parameterid>
											<valuemin>0</valuemin>
											<valuemax>3,98109</valuemax>
											<value>1</value>
										</parameter>
									</effect>
								</filter>
								<filter>
									<effect>
										<name>Audio Pan</name>
										<effectid>audiopan</effectid>
										<effectcategory>audiopan</effectcategory>
										<effecttype>audiopan</effecttype>
										<mediatype>audio</mediatype>
										<parameter>
											<name>Pan</name>
											<parameterid>pan</parameterid>
											<valuemin>-1</valuemin>
											<valuemax>1</valuemax>
											<value>1</value>
										</parameter>
									</effect>
								</filter>
								<sourcetrack>
									<mediatype>audio</mediatype>
									<trackindex>2</trackindex>
								</sourcetrack>
								<link>
									<linkclipref>ArmA 3 2020.11.28 - 20.28.12.122.mp4805307598</linkclipref>
								</link>
								<link>
									<linkclipref>ArmA 3 2020.11.28 - 20.28.12.122.mp4536872143</linkclipref>
								</link>
								<link>
									<linkclipref>ArmA 3 2020.11.28 - 20.28.12.122.mp45368721431</linkclipref>
								</link>
								<link>
									<linkclipref>ArmA 3 2020.11.28 - 20.28.12.122.mp4536872144</linkclipref>
								</link>
								<link>
									<linkclipref>ArmA 3 2020.11.28 - 20.28.12.122.mp45368721441</linkclipref>
								</link>
							</clipitem>
							<clipitem id="ArmA 3 2020.11.28 - 20.28.56.123.mp45368721461">
								<name>ArmA 3 2020.11.28 - 20.28.56.123.mp4</name>
								<duration>496</duration>
								<rate>
									<ntsc>TRUE</ntsc>
									<timebase>24</timebase>
								</rate>
								<in>0</in>
								<out>496</out>
								<start>1211</start>
								<end>1707</end>
								<enabled>FALSE</enabled>
								<masterclipid>ArmA 3 2020.11.28 - 20.28.56.123.mp4</masterclipid>
								<logginginfo>
									<scene />
									<shottake />
									<lognote />
									<good>FALSE</good>
								</logginginfo>
								<labels>
									<label2 />
								</labels>
								<comments>
									<mastercomment1 />
									<mastercomment2 />
									<mastercomment3 />
									<mastercomment4 />
								</comments>
								<file id="ArmA 3 2020.11.28 - 20.28.56.123" />
								<filter>
									<effect>
										<name>Audio Levels</name>
										<effectid>audiolevels</effectid>
										<effectcategory>audiolevels</effectcategory>
										<effecttype>audiolevels</effecttype>
										<mediatype>audio</mediatype>
										<parameter>
											<name>Level</name>
											<parameterid>level</parameterid>
											<valuemin>0</valuemin>
											<valuemax>3,98109</valuemax>
											<value>1</value>
										</parameter>
									</effect>
								</filter>
								<filter>
									<effect>
										<name>Audio Pan</name>
										<effectid>audiopan</effectid>
										<effectcategory>audiopan</effectcategory>
										<effecttype>audiopan</effecttype>
										<mediatype>audio</mediatype>
										<parameter>
											<name>Pan</name>
											<parameterid>pan</parameterid>
											<valuemin>-1</valuemin>
											<valuemax>1</valuemax>
											<value>1</value>
										</parameter>
									</effect>
								</filter>
								<sourcetrack>
									<mediatype>audio</mediatype>
									<trackindex>2</trackindex>
								</sourcetrack>
								<link>
									<linkclipref>ArmA 3 2020.11.28 - 20.28.56.123.mp4805307601</linkclipref>
								</link>
								<link>
									<linkclipref>ArmA 3 2020.11.28 - 20.28.56.123.mp4536872146</linkclipref>
								</link>
								<link>
									<linkclipref>ArmA 3 2020.11.28 - 20.28.56.123.mp45368721461</linkclipref>
								</link>
								<link>
									<linkclipref>ArmA 3 2020.11.28 - 20.28.56.123.mp4536872147</linkclipref>
								</link>
								<link>
									<linkclipref>ArmA 3 2020.11.28 - 20.28.56.123.mp45368721471</linkclipref>
								</link>
							</clipitem>
							<clipitem id="ArmA 3 2020.11.28 - 20.29.21.124.mp45368721491">
								<name>ArmA 3 2020.11.28 - 20.29.21.124.mp4</name>
								<duration>590</duration>
								<rate>
									<ntsc>TRUE</ntsc>
									<timebase>24</timebase>
								</rate>
								<in>0</in>
								<out>590</out>
								<start>1708</start>
								<end>2298</end>
								<enabled>FALSE</enabled>
								<masterclipid>ArmA 3 2020.11.28 - 20.29.21.124.mp4</masterclipid>
								<logginginfo>
									<scene />
									<shottake />
									<lognote />
									<good>FALSE</good>
								</logginginfo>
								<labels>
									<label2 />
								</labels>
								<comments>
									<mastercomment1 />
									<mastercomment2 />
									<mastercomment3 />
									<mastercomment4 />
								</comments>
								<file id="ArmA 3 2020.11.28 - 20.29.21.124" />
								<filter>
									<effect>
										<name>Audio Levels</name>
										<effectid>audiolevels</effectid>
										<effectcategory>audiolevels</effectcategory>
										<effecttype>audiolevels</effecttype>
										<mediatype>audio</mediatype>
										<parameter>
											<name>Level</name>
											<parameterid>level</parameterid>
											<valuemin>0</valuemin>
											<valuemax>3,98109</valuemax>
											<value>1</value>
										</parameter>
									</effect>
								</filter>
								<filter>
									<effect>
										<name>Audio Pan</name>
										<effectid>audiopan</effectid>
										<effectcategory>audiopan</effectcategory>
										<effecttype>audiopan</effecttype>
										<mediatype>audio</mediatype>
										<parameter>
											<name>Pan</name>
											<parameterid>pan</parameterid>
											<valuemin>-1</valuemin>
											<valuemax>1</valuemax>
											<value>1</value>
										</parameter>
									</effect>
								</filter>
								<sourcetrack>
									<mediatype>audio</mediatype>
									<trackindex>2</trackindex>
								</sourcetrack>
								<link>
									<linkclipref>ArmA 3 2020.11.28 - 20.29.21.124.mp4805307604</linkclipref>
								</link>
								<link>
									<linkclipref>ArmA 3 2020.11.28 - 20.29.21.124.mp4536872149</linkclipref>
								</link>
								<link>
									<linkclipref>ArmA 3 2020.11.28 - 20.29.21.124.mp45368721491</linkclipref>
								</link>
								<link>
									<linkclipref>ArmA 3 2020.11.28 - 20.29.21.124.mp4536872150</linkclipref>
								</link>
								<link>
									<linkclipref>ArmA 3 2020.11.28 - 20.29.21.124.mp45368721501</linkclipref>
								</link>
							</clipitem>
							<clipitem id="ArmA 3 2020.11.28 - 20.30.01.125.mp45368721521">
								<name>ArmA 3 2020.11.28 - 20.30.01.125.mp4</name>
								<duration>336</duration>
								<rate>
									<ntsc>TRUE</ntsc>
									<timebase>24</timebase>
								</rate>
								<in>0</in>
								<out>336</out>
								<start>2299</start>
								<end>2635</end>
								<enabled>FALSE</enabled>
								<masterclipid>ArmA 3 2020.11.28 - 20.30.01.125.mp4</masterclipid>
								<logginginfo>
									<scene />
									<shottake />
									<lognote />
									<good>FALSE</good>
								</logginginfo>
								<labels>
									<label2 />
								</labels>
								<comments>
									<mastercomment1 />
									<mastercomment2 />
									<mastercomment3 />
									<mastercomment4 />
								</comments>
								<file id="ArmA 3 2020.11.28 - 20.30.01.125" />
								<filter>
									<effect>
										<name>Audio Levels</name>
										<effectid>audiolevels</effectid>
										<effectcategory>audiolevels</effectcategory>
										<effecttype>audiolevels</effecttype>
										<mediatype>audio</mediatype>
										<parameter>
											<name>Level</name>
											<parameterid>level</parameterid>
											<valuemin>0</valuemin>
											<valuemax>3,98109</valuemax>
											<value>1</value>
										</parameter>
									</effect>
								</filter>
								<filter>
									<effect>
										<name>Audio Pan</name>
										<effectid>audiopan</effectid>
										<effectcategory>audiopan</effectcategory>
										<effecttype>audiopan</effecttype>
										<mediatype>audio</mediatype>
										<parameter>
											<name>Pan</name>
											<parameterid>pan</parameterid>
											<valuemin>-1</valuemin>
											<valuemax>1</valuemax>
											<value>1</value>
										</parameter>
									</effect>
								</filter>
								<sourcetrack>
									<mediatype>audio</mediatype>
									<trackindex>2</trackindex>
								</sourcetrack>
								<link>
									<linkclipref>ArmA 3 2020.11.28 - 20.30.01.125.mp4805307607</linkclipref>
								</link>
								<link>
									<linkclipref>ArmA 3 2020.11.28 - 20.30.01.125.mp4536872152</linkclipref>
								</link>
								<link>
									<linkclipref>ArmA 3 2020.11.28 - 20.30.01.125.mp45368721521</linkclipref>
								</link>
								<link>
									<linkclipref>ArmA 3 2020.11.28 - 20.30.01.125.mp4536872153</linkclipref>
								</link>
								<link>
									<linkclipref>ArmA 3 2020.11.28 - 20.30.01.125.mp45368721531</linkclipref>
								</link>
							</clipitem>
							<clipitem id="ArmA 3 2020.11.28 - 20.30.43.126.mp45368721551">
								<name>ArmA 3 2020.11.28 - 20.30.43.126.mp4</name>
								<duration>889</duration>
								<rate>
									<ntsc>TRUE</ntsc>
									<timebase>24</timebase>
								</rate>
								<in>0</in>
								<out>889</out>
								<start>2636</start>
								<end>3525</end>
								<enabled>FALSE</enabled>
								<masterclipid>ArmA 3 2020.11.28 - 20.30.43.126.mp4</masterclipid>
								<logginginfo>
									<scene />
									<shottake />
									<lognote />
									<good>FALSE</good>
								</logginginfo>
								<labels>
									<label2 />
								</labels>
								<comments>
									<mastercomment1 />
									<mastercomment2 />
									<mastercomment3 />
									<mastercomment4 />
								</comments>
								<file id="ArmA 3 2020.11.28 - 20.30.43.126" />
								<filter>
									<effect>
										<name>Audio Levels</name>
										<effectid>audiolevels</effectid>
										<effectcategory>audiolevels</effectcategory>
										<effecttype>audiolevels</effecttype>
										<mediatype>audio</mediatype>
										<parameter>
											<name>Level</name>
											<parameterid>level</parameterid>
											<valuemin>0</valuemin>
											<valuemax>3,98109</valuemax>
											<value>1</value>
										</parameter>
									</effect>
								</filter>
								<filter>
									<effect>
										<name>Audio Pan</name>
										<effectid>audiopan</effectid>
										<effectcategory>audiopan</effectcategory>
										<effecttype>audiopan</effecttype>
										<mediatype>audio</mediatype>
										<parameter>
											<name>Pan</name>
											<parameterid>pan</parameterid>
											<valuemin>-1</valuemin>
											<valuemax>1</valuemax>
											<value>1</value>
										</parameter>
									</effect>
								</filter>
								<sourcetrack>
									<mediatype>audio</mediatype>
									<trackindex>2</trackindex>
								</sourcetrack>
								<link>
									<linkclipref>ArmA 3 2020.11.28 - 20.30.43.126.mp4805307610</linkclipref>
								</link>
								<link>
									<linkclipref>ArmA 3 2020.11.28 - 20.30.43.126.mp4536872155</linkclipref>
								</link>
								<link>
									<linkclipref>ArmA 3 2020.11.28 - 20.30.43.126.mp45368721551</linkclipref>
								</link>
								<link>
									<linkclipref>ArmA 3 2020.11.28 - 20.30.43.126.mp4536872156</linkclipref>
								</link>
								<link>
									<linkclipref>ArmA 3 2020.11.28 - 20.30.43.126.mp45368721561</linkclipref>
								</link>
							</clipitem>
							<clipitem id="ArmA 3 2020.11.28 - 20.31.29.127.mp45368721581">
								<name>ArmA 3 2020.11.28 - 20.31.29.127.mp4</name>
								<duration>1130</duration>
								<rate>
									<ntsc>TRUE</ntsc>
									<timebase>24</timebase>
								</rate>
								<in>0</in>
								<out>1130</out>
								<start>3526</start>
								<end>4656</end>
								<enabled>FALSE</enabled>
								<masterclipid>ArmA 3 2020.11.28 - 20.31.29.127.mp4</masterclipid>
								<logginginfo>
									<scene />
									<shottake />
									<lognote />
									<good>FALSE</good>
								</logginginfo>
								<labels>
									<label2 />
								</labels>
								<comments>
									<mastercomment1 />
									<mastercomment2 />
									<mastercomment3 />
									<mastercomment4 />
								</comments>
								<file id="ArmA 3 2020.11.28 - 20.31.29.127" />
								<filter>
									<effect>
										<name>Audio Levels</name>
										<effectid>audiolevels</effectid>
										<effectcategory>audiolevels</effectcategory>
										<effecttype>audiolevels</effecttype>
										<mediatype>audio</mediatype>
										<parameter>
											<name>Level</name>
											<parameterid>level</parameterid>
											<valuemin>0</valuemin>
											<valuemax>3,98109</valuemax>
											<value>1</value>
										</parameter>
									</effect>
								</filter>
								<filter>
									<effect>
										<name>Audio Pan</name>
										<effectid>audiopan</effectid>
										<effectcategory>audiopan</effectcategory>
										<effecttype>audiopan</effecttype>
										<mediatype>audio</mediatype>
										<parameter>
											<name>Pan</name>
											<parameterid>pan</parameterid>
											<valuemin>-1</valuemin>
											<valuemax>1</valuemax>
											<value>1</value>
										</parameter>
									</effect>
								</filter>
								<sourcetrack>
									<mediatype>audio</mediatype>
									<trackindex>2</trackindex>
								</sourcetrack>
								<link>
									<linkclipref>ArmA 3 2020.11.28 - 20.31.29.127.mp4805307613</linkclipref>
								</link>
								<link>
									<linkclipref>ArmA 3 2020.11.28 - 20.31.29.127.mp4536872158</linkclipref>
								</link>
								<link>
									<linkclipref>ArmA 3 2020.11.28 - 20.31.29.127.mp45368721581</linkclipref>
								</link>
								<link>
									<linkclipref>ArmA 3 2020.11.28 - 20.31.29.127.mp4536872159</linkclipref>
								</link>
								<link>
									<linkclipref>ArmA 3 2020.11.28 - 20.31.29.127.mp45368721591</linkclipref>
								</link>
							</clipitem>
							<clipitem id="ArmA 3 2020.11.28 - 20.32.26.128.mp45368721611">
								<name>ArmA 3 2020.11.28 - 20.32.26.128.mp4</name>
								<duration>731</duration>
								<rate>
									<ntsc>TRUE</ntsc>
									<timebase>24</timebase>
								</rate>
								<in>0</in>
								<out>731</out>
								<start>4657</start>
								<end>5388</end>
								<enabled>FALSE</enabled>
								<masterclipid>ArmA 3 2020.11.28 - 20.32.26.128.mp4</masterclipid>
								<logginginfo>
									<scene />
									<shottake />
									<lognote />
									<good>FALSE</good>
								</logginginfo>
								<labels>
									<label2 />
								</labels>
								<comments>
									<mastercomment1 />
									<mastercomment2 />
									<mastercomment3 />
									<mastercomment4 />
								</comments>
								<file id="ArmA 3 2020.11.28 - 20.32.26.128" />
								<filter>
									<effect>
										<name>Audio Levels</name>
										<effectid>audiolevels</effectid>
										<effectcategory>audiolevels</effectcategory>
										<effecttype>audiolevels</effecttype>
										<mediatype>audio</mediatype>
										<parameter>
											<name>Level</name>
											<parameterid>level</parameterid>
											<valuemin>0</valuemin>
											<valuemax>3,98109</valuemax>
											<value>1</value>
										</parameter>
									</effect>
								</filter>
								<filter>
									<effect>
										<name>Audio Pan</name>
										<effectid>audiopan</effectid>
										<effectcategory>audiopan</effectcategory>
										<effecttype>audiopan</effecttype>
										<mediatype>audio</mediatype>
										<parameter>
											<name>Pan</name>
											<parameterid>pan</parameterid>
											<valuemin>-1</valuemin>
											<valuemax>1</valuemax>
											<value>1</value>
										</parameter>
									</effect>
								</filter>
								<sourcetrack>
									<mediatype>audio</mediatype>
									<trackindex>2</trackindex>
								</sourcetrack>
								<link>
									<linkclipref>ArmA 3 2020.11.28 - 20.32.26.128.mp4805307616</linkclipref>
								</link>
								<link>
									<linkclipref>ArmA 3 2020.11.28 - 20.32.26.128.mp4536872161</linkclipref>
								</link>
								<link>
									<linkclipref>ArmA 3 2020.11.28 - 20.32.26.128.mp45368721611</linkclipref>
								</link>
								<link>
									<linkclipref>ArmA 3 2020.11.28 - 20.32.26.128.mp4536872162</linkclipref>
								</link>
								<link>
									<linkclipref>ArmA 3 2020.11.28 - 20.32.26.128.mp45368721621</linkclipref>
								</link>
							</clipitem>
							<clipitem id="ArmA 3 2020.11.28 - 20.33.18.129.mp45368721641">
								<name>ArmA 3 2020.11.28 - 20.33.18.129.mp4</name>
								<duration>772</duration>
								<rate>
									<ntsc>TRUE</ntsc>
									<timebase>24</timebase>
								</rate>
								<in>0</in>
								<out>772</out>
								<start>5389</start>
								<end>6161</end>
								<enabled>FALSE</enabled>
								<masterclipid>ArmA 3 2020.11.28 - 20.33.18.129.mp4</masterclipid>
								<logginginfo>
									<scene />
									<shottake />
									<lognote />
									<good>FALSE</good>
								</logginginfo>
								<labels>
									<label2 />
								</labels>
								<comments>
									<mastercomment1 />
									<mastercomment2 />
									<mastercomment3 />
									<mastercomment4 />
								</comments>
								<file id="ArmA 3 2020.11.28 - 20.33.18.129" />
								<filter>
									<effect>
										<name>Audio Levels</name>
										<effectid>audiolevels</effectid>
										<effectcategory>audiolevels</effectcategory>
										<effecttype>audiolevels</effecttype>
										<mediatype>audio</mediatype>
										<parameter>
											<name>Level</name>
											<parameterid>level</parameterid>
											<valuemin>0</valuemin>
											<valuemax>3,98109</valuemax>
											<value>1</value>
										</parameter>
									</effect>
								</filter>
								<filter>
									<effect>
										<name>Audio Pan</name>
										<effectid>audiopan</effectid>
										<effectcategory>audiopan</effectcategory>
										<effecttype>audiopan</effecttype>
										<mediatype>audio</mediatype>
										<parameter>
											<name>Pan</name>
											<parameterid>pan</parameterid>
											<valuemin>-1</valuemin>
											<valuemax>1</valuemax>
											<value>1</value>
										</parameter>
									</effect>
								</filter>
								<sourcetrack>
									<mediatype>audio</mediatype>
									<trackindex>2</trackindex>
								</sourcetrack>
								<link>
									<linkclipref>ArmA 3 2020.11.28 - 20.33.18.129.mp4805307619</linkclipref>
								</link>
								<link>
									<linkclipref>ArmA 3 2020.11.28 - 20.33.18.129.mp4536872164</linkclipref>
								</link>
								<link>
									<linkclipref>ArmA 3 2020.11.28 - 20.33.18.129.mp45368721641</linkclipref>
								</link>
								<link>
									<linkclipref>ArmA 3 2020.11.28 - 20.33.18.129.mp4536872165</linkclipref>
								</link>
								<link>
									<linkclipref>ArmA 3 2020.11.28 - 20.33.18.129.mp45368721651</linkclipref>
								</link>
							</clipitem>
							<clipitem id="ArmA 3 2020.11.28 - 20.34.04.130.mp45368721671">
								<name>ArmA 3 2020.11.28 - 20.34.04.130.mp4</name>
								<duration>521</duration>
								<rate>
									<ntsc>TRUE</ntsc>
									<timebase>24</timebase>
								</rate>
								<in>0</in>
								<out>521</out>
								<start>6162</start>
								<end>6683</end>
								<enabled>FALSE</enabled>
								<masterclipid>ArmA 3 2020.11.28 - 20.34.04.130.mp4</masterclipid>
								<logginginfo>
									<scene />
									<shottake />
									<lognote />
									<good>FALSE</good>
								</logginginfo>
								<labels>
									<label2 />
								</labels>
								<comments>
									<mastercomment1 />
									<mastercomment2 />
									<mastercomment3 />
									<mastercomment4 />
								</comments>
								<file id="ArmA 3 2020.11.28 - 20.34.04.130" />
								<filter>
									<effect>
										<name>Audio Levels</name>
										<effectid>audiolevels</effectid>
										<effectcategory>audiolevels</effectcategory>
										<effecttype>audiolevels</effecttype>
										<mediatype>audio</mediatype>
										<parameter>
											<name>Level</name>
											<parameterid>level</parameterid>
											<valuemin>0</valuemin>
											<valuemax>3,98109</valuemax>
											<value>1</value>
										</parameter>
									</effect>
								</filter>
								<filter>
									<effect>
										<name>Audio Pan</name>
										<effectid>audiopan</effectid>
										<effectcategory>audiopan</effectcategory>
										<effecttype>audiopan</effecttype>
										<mediatype>audio</mediatype>
										<parameter>
											<name>Pan</name>
											<parameterid>pan</parameterid>
											<valuemin>-1</valuemin>
											<valuemax>1</valuemax>
											<value>1</value>
										</parameter>
									</effect>
								</filter>
								<sourcetrack>
									<mediatype>audio</mediatype>
									<trackindex>2</trackindex>
								</sourcetrack>
								<link>
									<linkclipref>ArmA 3 2020.11.28 - 20.34.04.130.mp4805307622</linkclipref>
								</link>
								<link>
									<linkclipref>ArmA 3 2020.11.28 - 20.34.04.130.mp4536872167</linkclipref>
								</link>
								<link>
									<linkclipref>ArmA 3 2020.11.28 - 20.34.04.130.mp45368721671</linkclipref>
								</link>
								<link>
									<linkclipref>ArmA 3 2020.11.28 - 20.34.04.130.mp4536872168</linkclipref>
								</link>
								<link>
									<linkclipref>ArmA 3 2020.11.28 - 20.34.04.130.mp45368721681</linkclipref>
								</link>
							</clipitem>
							<clipitem id="ArmA 3 2020.11.28 - 20.35.50.131.mp45368721701">
								<name>ArmA 3 2020.11.28 - 20.35.50.131.mp4</name>
								<duration>315</duration>
								<rate>
									<ntsc>TRUE</ntsc>
									<timebase>24</timebase>
								</rate>
								<in>0</in>
								<out>315</out>
								<start>6684</start>
								<end>6999</end>
								<enabled>FALSE</enabled>
								<masterclipid>ArmA 3 2020.11.28 - 20.35.50.131.mp4</masterclipid>
								<logginginfo>
									<scene />
									<shottake />
									<lognote />
									<good>FALSE</good>
								</logginginfo>
								<labels>
									<label2 />
								</labels>
								<comments>
									<mastercomment1 />
									<mastercomment2 />
									<mastercomment3 />
									<mastercomment4 />
								</comments>
								<file id="ArmA 3 2020.11.28 - 20.35.50.131" />
								<filter>
									<effect>
										<name>Audio Levels</name>
										<effectid>audiolevels</effectid>
										<effectcategory>audiolevels</effectcategory>
										<effecttype>audiolevels</effecttype>
										<mediatype>audio</mediatype>
										<parameter>
											<name>Level</name>
											<parameterid>level</parameterid>
											<valuemin>0</valuemin>
											<valuemax>3,98109</valuemax>
											<value>1</value>
										</parameter>
									</effect>
								</filter>
								<filter>
									<effect>
										<name>Audio Pan</name>
										<effectid>audiopan</effectid>
										<effectcategory>audiopan</effectcategory>
										<effecttype>audiopan</effecttype>
										<mediatype>audio</mediatype>
										<parameter>
											<name>Pan</name>
											<parameterid>pan</parameterid>
											<valuemin>-1</valuemin>
											<valuemax>1</valuemax>
											<value>1</value>
										</parameter>
									</effect>
								</filter>
								<sourcetrack>
									<mediatype>audio</mediatype>
									<trackindex>2</trackindex>
								</sourcetrack>
								<link>
									<linkclipref>ArmA 3 2020.11.28 - 20.35.50.131.mp4805307625</linkclipref>
								</link>
								<link>
									<linkclipref>ArmA 3 2020.11.28 - 20.35.50.131.mp4536872170</linkclipref>
								</link>
								<link>
									<linkclipref>ArmA 3 2020.11.28 - 20.35.50.131.mp45368721701</linkclipref>
								</link>
								<link>
									<linkclipref>ArmA 3 2020.11.28 - 20.35.50.131.mp4536872171</linkclipref>
								</link>
								<link>
									<linkclipref>ArmA 3 2020.11.28 - 20.35.50.131.mp45368721711</linkclipref>
								</link>
							</clipitem>
							<clipitem id="ArmA 3 2020.11.28 - 20.45.07.132.mp45368721731">
								<name>ArmA 3 2020.11.28 - 20.45.07.132.mp4</name>
								<duration>502</duration>
								<rate>
									<ntsc>TRUE</ntsc>
									<timebase>24</timebase>
								</rate>
								<in>0</in>
								<out>502</out>
								<start>7000</start>
								<end>7502</end>
								<enabled>FALSE</enabled>
								<masterclipid>ArmA 3 2020.11.28 - 20.45.07.132.mp4</masterclipid>
								<logginginfo>
									<scene />
									<shottake />
									<lognote />
									<good>FALSE</good>
								</logginginfo>
								<labels>
									<label2 />
								</labels>
								<comments>
									<mastercomment1 />
									<mastercomment2 />
									<mastercomment3 />
									<mastercomment4 />
								</comments>
								<file id="ArmA 3 2020.11.28 - 20.45.07.132" />
								<filter>
									<effect>
										<name>Audio Levels</name>
										<effectid>audiolevels</effectid>
										<effectcategory>audiolevels</effectcategory>
										<effecttype>audiolevels</effecttype>
										<mediatype>audio</mediatype>
										<parameter>
											<name>Level</name>
											<parameterid>level</parameterid>
											<valuemin>0</valuemin>
											<valuemax>3,98109</valuemax>
											<value>1</value>
										</parameter>
									</effect>
								</filter>
								<filter>
									<effect>
										<name>Audio Pan</name>
										<effectid>audiopan</effectid>
										<effectcategory>audiopan</effectcategory>
										<effecttype>audiopan</effecttype>
										<mediatype>audio</mediatype>
										<parameter>
											<name>Pan</name>
											<parameterid>pan</parameterid>
											<valuemin>-1</valuemin>
											<valuemax>1</valuemax>
											<value>1</value>
										</parameter>
									</effect>
								</filter>
								<sourcetrack>
									<mediatype>audio</mediatype>
									<trackindex>2</trackindex>
								</sourcetrack>
								<link>
									<linkclipref>ArmA 3 2020.11.28 - 20.45.07.132.mp4805307628</linkclipref>
								</link>
								<link>
									<linkclipref>ArmA 3 2020.11.28 - 20.45.07.132.mp4536872173</linkclipref>
								</link>
								<link>
									<linkclipref>ArmA 3 2020.11.28 - 20.45.07.132.mp45368721731</linkclipref>
								</link>
								<link>
									<linkclipref>ArmA 3 2020.11.28 - 20.45.07.132.mp4536872174</linkclipref>
								</link>
								<link>
									<linkclipref>ArmA 3 2020.11.28 - 20.45.07.132.mp45368721741</linkclipref>
								</link>
							</clipitem>
							<clipitem id="ArmA 3 2020.11.28 - 20.48.15.133.mp45368721761">
								<name>ArmA 3 2020.11.28 - 20.48.15.133.mp4</name>
								<duration>1172</duration>
								<rate>
									<ntsc>TRUE</ntsc>
									<timebase>24</timebase>
								</rate>
								<in>0</in>
								<out>1172</out>
								<start>7503</start>
								<end>8675</end>
								<enabled>FALSE</enabled>
								<masterclipid>ArmA 3 2020.11.28 - 20.48.15.133.mp4</masterclipid>
								<logginginfo>
									<scene />
									<shottake />
									<lognote />
									<good>FALSE</good>
								</logginginfo>
								<labels>
									<label2 />
								</labels>
								<comments>
									<mastercomment1 />
									<mastercomment2 />
									<mastercomment3 />
									<mastercomment4 />
								</comments>
								<file id="ArmA 3 2020.11.28 - 20.48.15.133" />
								<filter>
									<effect>
										<name>Audio Levels</name>
										<effectid>audiolevels</effectid>
										<effectcategory>audiolevels</effectcategory>
										<effecttype>audiolevels</effecttype>
										<mediatype>audio</mediatype>
										<parameter>
											<name>Level</name>
											<parameterid>level</parameterid>
											<valuemin>0</valuemin>
											<valuemax>3,98109</valuemax>
											<value>1</value>
										</parameter>
									</effect>
								</filter>
								<filter>
									<effect>
										<name>Audio Pan</name>
										<effectid>audiopan</effectid>
										<effectcategory>audiopan</effectcategory>
										<effecttype>audiopan</effecttype>
										<mediatype>audio</mediatype>
										<parameter>
											<name>Pan</name>
											<parameterid>pan</parameterid>
											<valuemin>-1</valuemin>
											<valuemax>1</valuemax>
											<value>1</value>
										</parameter>
									</effect>
								</filter>
								<sourcetrack>
									<mediatype>audio</mediatype>
									<trackindex>2</trackindex>
								</sourcetrack>
								<link>
									<linkclipref>ArmA 3 2020.11.28 - 20.48.15.133.mp4805307631</linkclipref>
								</link>
								<link>
									<linkclipref>ArmA 3 2020.11.28 - 20.48.15.133.mp4536872176</linkclipref>
								</link>
								<link>
									<linkclipref>ArmA 3 2020.11.28 - 20.48.15.133.mp45368721761</linkclipref>
								</link>
								<link>
									<linkclipref>ArmA 3 2020.11.28 - 20.48.15.133.mp4536872177</linkclipref>
								</link>
								<link>
									<linkclipref>ArmA 3 2020.11.28 - 20.48.15.133.mp45368721771</linkclipref>
								</link>
							</clipitem>
							<clipitem id="ArmA 3 2020.11.28 - 20.49.24.134.mp45368721791">
								<name>ArmA 3 2020.11.28 - 20.49.24.134.mp4</name>
								<duration>1233</duration>
								<rate>
									<ntsc>TRUE</ntsc>
									<timebase>24</timebase>
								</rate>
								<in>0</in>
								<out>1233</out>
								<start>8676</start>
								<end>9909</end>
								<enabled>FALSE</enabled>
								<masterclipid>ArmA 3 2020.11.28 - 20.49.24.134.mp4</masterclipid>
								<logginginfo>
									<scene />
									<shottake />
									<lognote />
									<good>FALSE</good>
								</logginginfo>
								<labels>
									<label2 />
								</labels>
								<comments>
									<mastercomment1 />
									<mastercomment2 />
									<mastercomment3 />
									<mastercomment4 />
								</comments>
								<file id="ArmA 3 2020.11.28 - 20.49.24.134" />
								<filter>
									<effect>
										<name>Audio Levels</name>
										<effectid>audiolevels</effectid>
										<effectcategory>audiolevels</effectcategory>
										<effecttype>audiolevels</effecttype>
										<mediatype>audio</mediatype>
										<parameter>
											<name>Level</name>
											<parameterid>level</parameterid>
											<valuemin>0</valuemin>
											<valuemax>3,98109</valuemax>
											<value>1</value>
										</parameter>
									</effect>
								</filter>
								<filter>
									<effect>
										<name>Audio Pan</name>
										<effectid>audiopan</effectid>
										<effectcategory>audiopan</effectcategory>
										<effecttype>audiopan</effecttype>
										<mediatype>audio</mediatype>
										<parameter>
											<name>Pan</name>
											<parameterid>pan</parameterid>
											<valuemin>-1</valuemin>
											<valuemax>1</valuemax>
											<value>1</value>
										</parameter>
									</effect>
								</filter>
								<sourcetrack>
									<mediatype>audio</mediatype>
									<trackindex>2</trackindex>
								</sourcetrack>
								<link>
									<linkclipref>ArmA 3 2020.11.28 - 20.49.24.134.mp4805307634</linkclipref>
								</link>
								<link>
									<linkclipref>ArmA 3 2020.11.28 - 20.49.24.134.mp4536872179</linkclipref>
								</link>
								<link>
									<linkclipref>ArmA 3 2020.11.28 - 20.49.24.134.mp45368721791</linkclipref>
								</link>
								<link>
									<linkclipref>ArmA 3 2020.11.28 - 20.49.24.134.mp4536872180</linkclipref>
								</link>
								<link>
									<linkclipref>ArmA 3 2020.11.28 - 20.49.24.134.mp45368721801</linkclipref>
								</link>
							</clipitem>
							<clipitem id="ArmA 3 2020.11.28 - 20.50.27.135.mp45368721821">
								<name>ArmA 3 2020.11.28 - 20.50.27.135.mp4</name>
								<duration>754</duration>
								<rate>
									<ntsc>TRUE</ntsc>
									<timebase>24</timebase>
								</rate>
								<in>0</in>
								<out>754</out>
								<start>9910</start>
								<end>10664</end>
								<enabled>FALSE</enabled>
								<masterclipid>ArmA 3 2020.11.28 - 20.50.27.135.mp4</masterclipid>
								<logginginfo>
									<scene />
									<shottake />
									<lognote />
									<good>FALSE</good>
								</logginginfo>
								<labels>
									<label2 />
								</labels>
								<comments>
									<mastercomment1 />
									<mastercomment2 />
									<mastercomment3 />
									<mastercomment4 />
								</comments>
								<file id="ArmA 3 2020.11.28 - 20.50.27.135" />
								<filter>
									<effect>
										<name>Audio Levels</name>
										<effectid>audiolevels</effectid>
										<effectcategory>audiolevels</effectcategory>
										<effecttype>audiolevels</effecttype>
										<mediatype>audio</mediatype>
										<parameter>
											<name>Level</name>
											<parameterid>level</parameterid>
											<valuemin>0</valuemin>
											<valuemax>3,98109</valuemax>
											<value>1</value>
										</parameter>
									</effect>
								</filter>
								<filter>
									<effect>
										<name>Audio Pan</name>
										<effectid>audiopan</effectid>
										<effectcategory>audiopan</effectcategory>
										<effecttype>audiopan</effecttype>
										<mediatype>audio</mediatype>
										<parameter>
											<name>Pan</name>
											<parameterid>pan</parameterid>
											<valuemin>-1</valuemin>
											<valuemax>1</valuemax>
											<value>1</value>
										</parameter>
									</effect>
								</filter>
								<sourcetrack>
									<mediatype>audio</mediatype>
									<trackindex>2</trackindex>
								</sourcetrack>
								<link>
									<linkclipref>ArmA 3 2020.11.28 - 20.50.27.135.mp4805307637</linkclipref>
								</link>
								<link>
									<linkclipref>ArmA 3 2020.11.28 - 20.50.27.135.mp4536872182</linkclipref>
								</link>
								<link>
									<linkclipref>ArmA 3 2020.11.28 - 20.50.27.135.mp45368721821</linkclipref>
								</link>
								<link>
									<linkclipref>ArmA 3 2020.11.28 - 20.50.27.135.mp4536872183</linkclipref>
								</link>
								<link>
									<linkclipref>ArmA 3 2020.11.28 - 20.50.27.135.mp45368721831</linkclipref>
								</link>
							</clipitem>
						</track>
					</audio>
				</media>
			</sequence>
		</children>
	</project>
</xmeml>