<?xml version="1.0"?>
<xmeml version="5">
	<project>
		<name>Untitled Project 1</name>
		<children>
			<bin>
				<updatebehavior>add</updatebehavior>
				<name>Custom Bins</name>
				<children>
					<bin>
						<updatebehavior>add</updatebehavior>
						<name>PR_SCENE3</name>
						<children>
							<clip id="ArmA 3 2020.11.14 - 00.58.28.78.mp4">
								<updatebehavior>add</updatebehavior>
								<name>ArmA 3 2020.11.14 - 00.58.28.78.mp4</name>
								<duration>529</duration>
								<rate>
									<ntsc>FALSE</ntsc>
									<timebase>60</timebase>
								</rate>
								<in>-1</in>
								<out>-1</out>
								<masterclipid>ArmA 3 2020.11.14 - 00.58.28.78.mp4</masterclipid>
								<ismasterclip>TRUE</ismasterclip>
								<logginginfo>
									<scene />
									<shottake />
									<lognote />
									<good>FALSE</good>
								</logginginfo>
								<labels>
									<label2 />
								</labels>
								<comments>
									<mastercomment1 />
									<mastercomment2 />
									<mastercomment3 />
									<mastercomment4 />
								</comments>
								<media>
									<video>
										<track>
											<clipitem id="ArmA 3 2020.11.14 - 00.58.28.78.mp41">
												<name>ArmA 3 2020.11.14 - 00.58.28.78.mp4</name>
												<duration>529</duration>
												<rate>
													<ntsc>FALSE</ntsc>
													<timebase>60</timebase>
												</rate>
												<in>0</in>
												<out>529</out>
												<start>0</start>
												<end>529</end>
												<pixelaspectratio>Square</pixelaspectratio>
												<anamorphic>FALSE</anamorphic>
												<alphatype>none</alphatype>
												<masterclipid>ArmA 3 2020.11.14 - 00.58.28.78.mp4</masterclipid>
												<logginginfo>
													<scene />
													<shottake />
													<lognote />
													<good>FALSE</good>
												</logginginfo>
												<labels>
													<label2 />
												</labels>
												<comments>
													<mastercomment1 />
													<mastercomment2 />
													<mastercomment3 />
													<mastercomment4 />
												</comments>
												<file id="ArmA 3 2020.11.14 - 00.58.28.78">
													<name>ArmA 3 2020.11.14 - 00.58.28.78.mp4</name>
													<pathurl>file://localhost/F:/AMVS Russia/NaturaDestruction/PRPACK6/ArmA 3 2020.11.14 - 00.58.28.78.mp4</pathurl>
													<rate>
														<timebase>60</timebase>
														<ntsc>FALSE</ntsc>
													</rate>
													<duration>529</duration>
													<timecode>
														<rate>
															<timebase>60</timebase>
															<ntsc>FALSE</ntsc>
														</rate>
														<frame>0</frame>
														<displayformat>NDF</displayformat>
														<source>source</source>
													</timecode>
													<media>
														<video>
															<duration>529</duration>
															<samplecharacteristics>
																<width>1920</width>
																<height>1080</height>
															</samplecharacteristics>
														</video>
														<audio>
															<samplecharacteristics>
																<samplerate>48000</samplerate>
																<depth>32</depth>
															</samplecharacteristics>
															<channelcount>1</channelcount>
														</audio>
														<audio>
															<samplecharacteristics>
																<samplerate>48000</samplerate>
																<depth>32</depth>
															</samplecharacteristics>
															<channelcount>1</channelcount>
														</audio>
													</media>
												</file>
												<sourcetrack>
													<mediatype>video</mediatype>
												</sourcetrack>
												<fielddominance>none</fielddominance>
											</clipitem>
											<enabled>TRUE</enabled>
											<locked>FALSE</locked>
										</track>
									</video>
									<audio>
										<track>
											<clipitem id="ArmA 3 2020.11.14 - 00.58.28.78.mp42">
												<name>ArmA 3 2020.11.14 - 00.58.28.78.mp4</name>
												<duration>529</duration>
												<rate>
													<ntsc>TRUE</ntsc>
													<timebase>24</timebase>
												</rate>
												<in>0</in>
												<out>529</out>
												<start>0</start>
												<end>529</end>
												<masterclipid>ArmA 3 2020.11.14 - 00.58.28.78.mp4</masterclipid>
												<logginginfo>
													<scene />
													<shottake />
													<lognote />
													<good>FALSE</good>
												</logginginfo>
												<labels>
													<label2 />
												</labels>
												<comments>
													<mastercomment1 />
													<mastercomment2 />
													<mastercomment3 />
													<mastercomment4 />
												</comments>
												<file id="ArmA 3 2020.11.14 - 00.58.28.78" />
												<sourcetrack>
													<mediatype>audio</mediatype>
												</sourcetrack>
											</clipitem>
											<enabled>TRUE</enabled>
											<locked>FALSE</locked>
										</track>
										<track>
											<clipitem id="ArmA 3 2020.11.14 - 00.58.28.78.mp43">
												<name>ArmA 3 2020.11.14 - 00.58.28.78.mp4</name>
												<duration>529</duration>
												<rate>
													<ntsc>TRUE</ntsc>
													<timebase>24</timebase>
												</rate>
												<in>0</in>
												<out>529</out>
												<start>0</start>
												<end>529</end>
												<masterclipid>ArmA 3 2020.11.14 - 00.58.28.78.mp4</masterclipid>
												<logginginfo>
													<scene />
													<shottake />
													<lognote />
													<good>FALSE</good>
												</logginginfo>
												<labels>
													<label2 />
												</labels>
												<comments>
													<mastercomment1 />
													<mastercomment2 />
													<mastercomment3 />
													<mastercomment4 />
												</comments>
												<file id="ArmA 3 2020.11.14 - 00.58.28.78" />
												<sourcetrack>
													<mediatype>audio</mediatype>
												</sourcetrack>
											</clipitem>
											<enabled>TRUE</enabled>
											<locked>FALSE</locked>
										</track>
									</audio>
								</media>
							</clip>
							<clip id="ArmA 3 2020.11.14 - 00.59.31.79.mp4">
								<updatebehavior>add</updatebehavior>
								<name>ArmA 3 2020.11.14 - 00.59.31.79.mp4</name>
								<duration>605</duration>
								<rate>
									<ntsc>FALSE</ntsc>
									<timebase>60</timebase>
								</rate>
								<in>-1</in>
								<out>-1</out>
								<masterclipid>ArmA 3 2020.11.14 - 00.59.31.79.mp4</masterclipid>
								<ismasterclip>TRUE</ismasterclip>
								<logginginfo>
									<scene />
									<shottake />
									<lognote />
									<good>FALSE</good>
								</logginginfo>
								<labels>
									<label2 />
								</labels>
								<comments>
									<mastercomment1 />
									<mastercomment2 />
									<mastercomment3 />
									<mastercomment4 />
								</comments>
								<media>
									<video>
										<track>
											<clipitem id="ArmA 3 2020.11.14 - 00.59.31.79.mp41">
												<name>ArmA 3 2020.11.14 - 00.59.31.79.mp4</name>
												<duration>605</duration>
												<rate>
													<ntsc>FALSE</ntsc>
													<timebase>60</timebase>
												</rate>
												<in>0</in>
												<out>605</out>
												<start>0</start>
												<end>605</end>
												<pixelaspectratio>Square</pixelaspectratio>
												<anamorphic>FALSE</anamorphic>
												<alphatype>none</alphatype>
												<masterclipid>ArmA 3 2020.11.14 - 00.59.31.79.mp4</masterclipid>
												<logginginfo>
													<scene />
													<shottake />
													<lognote />
													<good>FALSE</good>
												</logginginfo>
												<labels>
													<label2 />
												</labels>
												<comments>
													<mastercomment1 />
													<mastercomment2 />
													<mastercomment3 />
													<mastercomment4 />
												</comments>
												<file id="ArmA 3 2020.11.14 - 00.59.31.79">
													<name>ArmA 3 2020.11.14 - 00.59.31.79.mp4</name>
													<pathurl>file://localhost/F:/AMVS Russia/NaturaDestruction/PRPACK6/ArmA 3 2020.11.14 - 00.59.31.79.mp4</pathurl>
													<rate>
														<timebase>60</timebase>
														<ntsc>FALSE</ntsc>
													</rate>
													<duration>605</duration>
													<timecode>
														<rate>
															<timebase>60</timebase>
															<ntsc>FALSE</ntsc>
														</rate>
														<frame>0</frame>
														<displayformat>NDF</displayformat>
														<source>source</source>
													</timecode>
													<media>
														<video>
															<duration>605</duration>
															<samplecharacteristics>
																<width>1920</width>
																<height>1080</height>
															</samplecharacteristics>
														</video>
														<audio>
															<samplecharacteristics>
																<samplerate>48000</samplerate>
																<depth>32</depth>
															</samplecharacteristics>
															<channelcount>1</channelcount>
														</audio>
														<audio>
															<samplecharacteristics>
																<samplerate>48000</samplerate>
																<depth>32</depth>
															</samplecharacteristics>
															<channelcount>1</channelcount>
														</audio>
													</media>
												</file>
												<sourcetrack>
													<mediatype>video</mediatype>
												</sourcetrack>
												<fielddominance>none</fielddominance>
											</clipitem>
											<enabled>TRUE</enabled>
											<locked>FALSE</locked>
										</track>
									</video>
									<audio>
										<track>
											<clipitem id="ArmA 3 2020.11.14 - 00.59.31.79.mp42">
												<name>ArmA 3 2020.11.14 - 00.59.31.79.mp4</name>
												<duration>605</duration>
												<rate>
													<ntsc>TRUE</ntsc>
													<timebase>24</timebase>
												</rate>
												<in>0</in>
												<out>605</out>
												<start>0</start>
												<end>605</end>
												<masterclipid>ArmA 3 2020.11.14 - 00.59.31.79.mp4</masterclipid>
												<logginginfo>
													<scene />
													<shottake />
													<lognote />
													<good>FALSE</good>
												</logginginfo>
												<labels>
													<label2 />
												</labels>
												<comments>
													<mastercomment1 />
													<mastercomment2 />
													<mastercomment3 />
													<mastercomment4 />
												</comments>
												<file id="ArmA 3 2020.11.14 - 00.59.31.79" />
												<sourcetrack>
													<mediatype>audio</mediatype>
												</sourcetrack>
											</clipitem>
											<enabled>TRUE</enabled>
											<locked>FALSE</locked>
										</track>
										<track>
											<clipitem id="ArmA 3 2020.11.14 - 00.59.31.79.mp43">
												<name>ArmA 3 2020.11.14 - 00.59.31.79.mp4</name>
												<duration>605</duration>
												<rate>
													<ntsc>TRUE</ntsc>
													<timebase>24</timebase>
												</rate>
												<in>0</in>
												<out>605</out>
												<start>0</start>
												<end>605</end>
												<masterclipid>ArmA 3 2020.11.14 - 00.59.31.79.mp4</masterclipid>
												<logginginfo>
													<scene />
													<shottake />
													<lognote />
													<good>FALSE</good>
												</logginginfo>
												<labels>
													<label2 />
												</labels>
												<comments>
													<mastercomment1 />
													<mastercomment2 />
													<mastercomment3 />
													<mastercomment4 />
												</comments>
												<file id="ArmA 3 2020.11.14 - 00.59.31.79" />
												<sourcetrack>
													<mediatype>audio</mediatype>
												</sourcetrack>
											</clipitem>
											<enabled>TRUE</enabled>
											<locked>FALSE</locked>
										</track>
									</audio>
								</media>
							</clip>
							<clip id="ArmA 3 2020.11.14 - 01.00.07.80.mp4">
								<updatebehavior>add</updatebehavior>
								<name>ArmA 3 2020.11.14 - 01.00.07.80.mp4</name>
								<duration>666</duration>
								<rate>
									<ntsc>FALSE</ntsc>
									<timebase>60</timebase>
								</rate>
								<in>-1</in>
								<out>-1</out>
								<masterclipid>ArmA 3 2020.11.14 - 01.00.07.80.mp4</masterclipid>
								<ismasterclip>TRUE</ismasterclip>
								<logginginfo>
									<scene />
									<shottake />
									<lognote />
									<good>FALSE</good>
								</logginginfo>
								<labels>
									<label2 />
								</labels>
								<comments>
									<mastercomment1 />
									<mastercomment2 />
									<mastercomment3 />
									<mastercomment4 />
								</comments>
								<media>
									<video>
										<track>
											<clipitem id="ArmA 3 2020.11.14 - 01.00.07.80.mp41">
												<name>ArmA 3 2020.11.14 - 01.00.07.80.mp4</name>
												<duration>666</duration>
												<rate>
													<ntsc>FALSE</ntsc>
													<timebase>60</timebase>
												</rate>
												<in>0</in>
												<out>666</out>
												<start>0</start>
												<end>666</end>
												<pixelaspectratio>Square</pixelaspectratio>
												<anamorphic>FALSE</anamorphic>
												<alphatype>none</alphatype>
												<masterclipid>ArmA 3 2020.11.14 - 01.00.07.80.mp4</masterclipid>
												<logginginfo>
													<scene />
													<shottake />
													<lognote />
													<good>FALSE</good>
												</logginginfo>
												<labels>
													<label2 />
												</labels>
												<comments>
													<mastercomment1 />
													<mastercomment2 />
													<mastercomment3 />
													<mastercomment4 />
												</comments>
												<file id="ArmA 3 2020.11.14 - 01.00.07.80">
													<name>ArmA 3 2020.11.14 - 01.00.07.80.mp4</name>
													<pathurl>file://localhost/F:/AMVS Russia/NaturaDestruction/PRPACK5/ArmA 3 2020.11.14 - 01.00.07.80.mp4</pathurl>
													<rate>
														<timebase>60</timebase>
														<ntsc>FALSE</ntsc>
													</rate>
													<duration>666</duration>
													<timecode>
														<rate>
															<timebase>60</timebase>
															<ntsc>FALSE</ntsc>
														</rate>
														<frame>0</frame>
														<displayformat>NDF</displayformat>
														<source>source</source>
													</timecode>
													<media>
														<video>
															<duration>666</duration>
															<samplecharacteristics>
																<width>1920</width>
																<height>1080</height>
															</samplecharacteristics>
														</video>
														<audio>
															<samplecharacteristics>
																<samplerate>48000</samplerate>
																<depth>32</depth>
															</samplecharacteristics>
															<channelcount>1</channelcount>
														</audio>
														<audio>
															<samplecharacteristics>
																<samplerate>48000</samplerate>
																<depth>32</depth>
															</samplecharacteristics>
															<channelcount>1</channelcount>
														</audio>
													</media>
												</file>
												<sourcetrack>
													<mediatype>video</mediatype>
												</sourcetrack>
												<fielddominance>none</fielddominance>
											</clipitem>
											<enabled>TRUE</enabled>
											<locked>FALSE</locked>
										</track>
									</video>
									<audio>
										<track>
											<clipitem id="ArmA 3 2020.11.14 - 01.00.07.80.mp42">
												<name>ArmA 3 2020.11.14 - 01.00.07.80.mp4</name>
												<duration>666</duration>
												<rate>
													<ntsc>TRUE</ntsc>
													<timebase>24</timebase>
												</rate>
												<in>0</in>
												<out>666</out>
												<start>0</start>
												<end>666</end>
												<masterclipid>ArmA 3 2020.11.14 - 01.00.07.80.mp4</masterclipid>
												<logginginfo>
													<scene />
													<shottake />
													<lognote />
													<good>FALSE</good>
												</logginginfo>
												<labels>
													<label2 />
												</labels>
												<comments>
													<mastercomment1 />
													<mastercomment2 />
													<mastercomment3 />
													<mastercomment4 />
												</comments>
												<file id="ArmA 3 2020.11.14 - 01.00.07.80" />
												<sourcetrack>
													<mediatype>audio</mediatype>
												</sourcetrack>
											</clipitem>
											<enabled>TRUE</enabled>
											<locked>FALSE</locked>
										</track>
										<track>
											<clipitem id="ArmA 3 2020.11.14 - 01.00.07.80.mp43">
												<name>ArmA 3 2020.11.14 - 01.00.07.80.mp4</name>
												<duration>666</duration>
												<rate>
													<ntsc>TRUE</ntsc>
													<timebase>24</timebase>
												</rate>
												<in>0</in>
												<out>666</out>
												<start>0</start>
												<end>666</end>
												<masterclipid>ArmA 3 2020.11.14 - 01.00.07.80.mp4</masterclipid>
												<logginginfo>
													<scene />
													<shottake />
													<lognote />
													<good>FALSE</good>
												</logginginfo>
												<labels>
													<label2 />
												</labels>
												<comments>
													<mastercomment1 />
													<mastercomment2 />
													<mastercomment3 />
													<mastercomment4 />
												</comments>
												<file id="ArmA 3 2020.11.14 - 01.00.07.80" />
												<sourcetrack>
													<mediatype>audio</mediatype>
												</sourcetrack>
											</clipitem>
											<enabled>TRUE</enabled>
											<locked>FALSE</locked>
										</track>
									</audio>
								</media>
							</clip>
							<clip id="ArmA 3 2020.11.14 - 01.01.23.81.mp4">
								<updatebehavior>add</updatebehavior>
								<name>ArmA 3 2020.11.14 - 01.01.23.81.mp4</name>
								<duration>1005</duration>
								<rate>
									<ntsc>FALSE</ntsc>
									<timebase>60</timebase>
								</rate>
								<in>-1</in>
								<out>-1</out>
								<masterclipid>ArmA 3 2020.11.14 - 01.01.23.81.mp4</masterclipid>
								<ismasterclip>TRUE</ismasterclip>
								<logginginfo>
									<scene />
									<shottake />
									<lognote />
									<good>FALSE</good>
								</logginginfo>
								<labels>
									<label2 />
								</labels>
								<comments>
									<mastercomment1 />
									<mastercomment2 />
									<mastercomment3 />
									<mastercomment4 />
								</comments>
								<media>
									<video>
										<track>
											<clipitem id="ArmA 3 2020.11.14 - 01.01.23.81.mp41">
												<name>ArmA 3 2020.11.14 - 01.01.23.81.mp4</name>
												<duration>1005</duration>
												<rate>
													<ntsc>FALSE</ntsc>
													<timebase>60</timebase>
												</rate>
												<in>0</in>
												<out>1005</out>
												<start>0</start>
												<end>1005</end>
												<pixelaspectratio>Square</pixelaspectratio>
												<anamorphic>FALSE</anamorphic>
												<alphatype>none</alphatype>
												<masterclipid>ArmA 3 2020.11.14 - 01.01.23.81.mp4</masterclipid>
												<logginginfo>
													<scene />
													<shottake />
													<lognote />
													<good>FALSE</good>
												</logginginfo>
												<labels>
													<label2 />
												</labels>
												<comments>
													<mastercomment1 />
													<mastercomment2 />
													<mastercomment3 />
													<mastercomment4 />
												</comments>
												<file id="ArmA 3 2020.11.14 - 01.01.23.81">
													<name>ArmA 3 2020.11.14 - 01.01.23.81.mp4</name>
													<pathurl>file://localhost/F:/AMVS Russia/NaturaDestruction/PRPACK4/ArmA 3 2020.11.14 - 01.01.23.81.mp4</pathurl>
													<rate>
														<timebase>60</timebase>
														<ntsc>FALSE</ntsc>
													</rate>
													<duration>1005</duration>
													<timecode>
														<rate>
															<timebase>60</timebase>
															<ntsc>FALSE</ntsc>
														</rate>
														<frame>0</frame>
														<displayformat>NDF</displayformat>
														<source>source</source>
													</timecode>
													<media>
														<video>
															<duration>1005</duration>
															<samplecharacteristics>
																<width>1920</width>
																<height>1080</height>
															</samplecharacteristics>
														</video>
														<audio>
															<samplecharacteristics>
																<samplerate>48000</samplerate>
																<depth>32</depth>
															</samplecharacteristics>
															<channelcount>1</channelcount>
														</audio>
														<audio>
															<samplecharacteristics>
																<samplerate>48000</samplerate>
																<depth>32</depth>
															</samplecharacteristics>
															<channelcount>1</channelcount>
														</audio>
													</media>
												</file>
												<sourcetrack>
													<mediatype>video</mediatype>
												</sourcetrack>
												<fielddominance>none</fielddominance>
											</clipitem>
											<enabled>TRUE</enabled>
											<locked>FALSE</locked>
										</track>
									</video>
									<audio>
										<track>
											<clipitem id="ArmA 3 2020.11.14 - 01.01.23.81.mp42">
												<name>ArmA 3 2020.11.14 - 01.01.23.81.mp4</name>
												<duration>1005</duration>
												<rate>
													<ntsc>TRUE</ntsc>
													<timebase>24</timebase>
												</rate>
												<in>0</in>
												<out>1005</out>
												<start>0</start>
												<end>1005</end>
												<masterclipid>ArmA 3 2020.11.14 - 01.01.23.81.mp4</masterclipid>
												<logginginfo>
													<scene />
													<shottake />
													<lognote />
													<good>FALSE</good>
												</logginginfo>
												<labels>
													<label2 />
												</labels>
												<comments>
													<mastercomment1 />
													<mastercomment2 />
													<mastercomment3 />
													<mastercomment4 />
												</comments>
												<file id="ArmA 3 2020.11.14 - 01.01.23.81" />
												<sourcetrack>
													<mediatype>audio</mediatype>
												</sourcetrack>
											</clipitem>
											<enabled>TRUE</enabled>
											<locked>FALSE</locked>
										</track>
										<track>
											<clipitem id="ArmA 3 2020.11.14 - 01.01.23.81.mp43">
												<name>ArmA 3 2020.11.14 - 01.01.23.81.mp4</name>
												<duration>1005</duration>
												<rate>
													<ntsc>TRUE</ntsc>
													<timebase>24</timebase>
												</rate>
												<in>0</in>
												<out>1005</out>
												<start>0</start>
												<end>1005</end>
												<masterclipid>ArmA 3 2020.11.14 - 01.01.23.81.mp4</masterclipid>
												<logginginfo>
													<scene />
													<shottake />
													<lognote />
													<good>FALSE</good>
												</logginginfo>
												<labels>
													<label2 />
												</labels>
												<comments>
													<mastercomment1 />
													<mastercomment2 />
													<mastercomment3 />
													<mastercomment4 />
												</comments>
												<file id="ArmA 3 2020.11.14 - 01.01.23.81" />
												<sourcetrack>
													<mediatype>audio</mediatype>
												</sourcetrack>
											</clipitem>
											<enabled>TRUE</enabled>
											<locked>FALSE</locked>
										</track>
									</audio>
								</media>
							</clip>
							<clip id="ArmA 3 2020.11.14 - 01.02.36.82.mp4">
								<updatebehavior>add</updatebehavior>
								<name>ArmA 3 2020.11.14 - 01.02.36.82.mp4</name>
								<duration>447</duration>
								<rate>
									<ntsc>FALSE</ntsc>
									<timebase>60</timebase>
								</rate>
								<in>-1</in>
								<out>-1</out>
								<masterclipid>ArmA 3 2020.11.14 - 01.02.36.82.mp4</masterclipid>
								<ismasterclip>TRUE</ismasterclip>
								<logginginfo>
									<scene />
									<shottake />
									<lognote />
									<good>FALSE</good>
								</logginginfo>
								<labels>
									<label2 />
								</labels>
								<comments>
									<mastercomment1 />
									<mastercomment2 />
									<mastercomment3 />
									<mastercomment4 />
								</comments>
								<media>
									<video>
										<track>
											<clipitem id="ArmA 3 2020.11.14 - 01.02.36.82.mp41">
												<name>ArmA 3 2020.11.14 - 01.02.36.82.mp4</name>
												<duration>447</duration>
												<rate>
													<ntsc>FALSE</ntsc>
													<timebase>60</timebase>
												</rate>
												<in>0</in>
												<out>447</out>
												<start>0</start>
												<end>447</end>
												<pixelaspectratio>Square</pixelaspectratio>
												<anamorphic>FALSE</anamorphic>
												<alphatype>none</alphatype>
												<masterclipid>ArmA 3 2020.11.14 - 01.02.36.82.mp4</masterclipid>
												<logginginfo>
													<scene />
													<shottake />
													<lognote />
													<good>FALSE</good>
												</logginginfo>
												<labels>
													<label2 />
												</labels>
												<comments>
													<mastercomment1 />
													<mastercomment2 />
													<mastercomment3 />
													<mastercomment4 />
												</comments>
												<file id="ArmA 3 2020.11.14 - 01.02.36.82">
													<name>ArmA 3 2020.11.14 - 01.02.36.82.mp4</name>
													<pathurl>file://localhost/F:/AMVS Russia/NaturaDestruction/PRPACK6/ArmA 3 2020.11.14 - 01.02.36.82.mp4</pathurl>
													<rate>
														<timebase>60</timebase>
														<ntsc>FALSE</ntsc>
													</rate>
													<duration>447</duration>
													<timecode>
														<rate>
															<timebase>60</timebase>
															<ntsc>FALSE</ntsc>
														</rate>
														<frame>0</frame>
														<displayformat>NDF</displayformat>
														<source>source</source>
													</timecode>
													<media>
														<video>
															<duration>447</duration>
															<samplecharacteristics>
																<width>1920</width>
																<height>1080</height>
															</samplecharacteristics>
														</video>
														<audio>
															<samplecharacteristics>
																<samplerate>48000</samplerate>
																<depth>32</depth>
															</samplecharacteristics>
															<channelcount>1</channelcount>
														</audio>
														<audio>
															<samplecharacteristics>
																<samplerate>48000</samplerate>
																<depth>32</depth>
															</samplecharacteristics>
															<channelcount>1</channelcount>
														</audio>
													</media>
												</file>
												<sourcetrack>
													<mediatype>video</mediatype>
												</sourcetrack>
												<fielddominance>none</fielddominance>
											</clipitem>
											<enabled>TRUE</enabled>
											<locked>FALSE</locked>
										</track>
									</video>
									<audio>
										<track>
											<clipitem id="ArmA 3 2020.11.14 - 01.02.36.82.mp42">
												<name>ArmA 3 2020.11.14 - 01.02.36.82.mp4</name>
												<duration>447</duration>
												<rate>
													<ntsc>TRUE</ntsc>
													<timebase>24</timebase>
												</rate>
												<in>0</in>
												<out>447</out>
												<start>0</start>
												<end>447</end>
												<masterclipid>ArmA 3 2020.11.14 - 01.02.36.82.mp4</masterclipid>
												<logginginfo>
													<scene />
													<shottake />
													<lognote />
													<good>FALSE</good>
												</logginginfo>
												<labels>
													<label2 />
												</labels>
												<comments>
													<mastercomment1 />
													<mastercomment2 />
													<mastercomment3 />
													<mastercomment4 />
												</comments>
												<file id="ArmA 3 2020.11.14 - 01.02.36.82" />
												<sourcetrack>
													<mediatype>audio</mediatype>
												</sourcetrack>
											</clipitem>
											<enabled>TRUE</enabled>
											<locked>FALSE</locked>
										</track>
										<track>
											<clipitem id="ArmA 3 2020.11.14 - 01.02.36.82.mp43">
												<name>ArmA 3 2020.11.14 - 01.02.36.82.mp4</name>
												<duration>447</duration>
												<rate>
													<ntsc>TRUE</ntsc>
													<timebase>24</timebase>
												</rate>
												<in>0</in>
												<out>447</out>
												<start>0</start>
												<end>447</end>
												<masterclipid>ArmA 3 2020.11.14 - 01.02.36.82.mp4</masterclipid>
												<logginginfo>
													<scene />
													<shottake />
													<lognote />
													<good>FALSE</good>
												</logginginfo>
												<labels>
													<label2 />
												</labels>
												<comments>
													<mastercomment1 />
													<mastercomment2 />
													<mastercomment3 />
													<mastercomment4 />
												</comments>
												<file id="ArmA 3 2020.11.14 - 01.02.36.82" />
												<sourcetrack>
													<mediatype>audio</mediatype>
												</sourcetrack>
											</clipitem>
											<enabled>TRUE</enabled>
											<locked>FALSE</locked>
										</track>
									</audio>
								</media>
							</clip>
							<clip id="ArmA 3 2020.11.14 - 01.03.14.83.mp4">
								<updatebehavior>add</updatebehavior>
								<name>ArmA 3 2020.11.14 - 01.03.14.83.mp4</name>
								<duration>404</duration>
								<rate>
									<ntsc>FALSE</ntsc>
									<timebase>60</timebase>
								</rate>
								<in>-1</in>
								<out>-1</out>
								<masterclipid>ArmA 3 2020.11.14 - 01.03.14.83.mp4</masterclipid>
								<ismasterclip>TRUE</ismasterclip>
								<logginginfo>
									<scene />
									<shottake />
									<lognote />
									<good>FALSE</good>
								</logginginfo>
								<labels>
									<label2 />
								</labels>
								<comments>
									<mastercomment1 />
									<mastercomment2 />
									<mastercomment3 />
									<mastercomment4 />
								</comments>
								<media>
									<video>
										<track>
											<clipitem id="ArmA 3 2020.11.14 - 01.03.14.83.mp41">
												<name>ArmA 3 2020.11.14 - 01.03.14.83.mp4</name>
												<duration>404</duration>
												<rate>
													<ntsc>FALSE</ntsc>
													<timebase>60</timebase>
												</rate>
												<in>0</in>
												<out>404</out>
												<start>0</start>
												<end>404</end>
												<pixelaspectratio>Square</pixelaspectratio>
												<anamorphic>FALSE</anamorphic>
												<alphatype>none</alphatype>
												<masterclipid>ArmA 3 2020.11.14 - 01.03.14.83.mp4</masterclipid>
												<logginginfo>
													<scene />
													<shottake />
													<lognote />
													<good>FALSE</good>
												</logginginfo>
												<labels>
													<label2 />
												</labels>
												<comments>
													<mastercomment1 />
													<mastercomment2 />
													<mastercomment3 />
													<mastercomment4 />
												</comments>
												<file id="ArmA 3 2020.11.14 - 01.03.14.83">
													<name>ArmA 3 2020.11.14 - 01.03.14.83.mp4</name>
													<pathurl>file://localhost/F:/AMVS Russia/NaturaDestruction/PRPACK6/ArmA 3 2020.11.14 - 01.03.14.83.mp4</pathurl>
													<rate>
														<timebase>60</timebase>
														<ntsc>FALSE</ntsc>
													</rate>
													<duration>404</duration>
													<timecode>
														<rate>
															<timebase>60</timebase>
															<ntsc>FALSE</ntsc>
														</rate>
														<frame>0</frame>
														<displayformat>NDF</displayformat>
														<source>source</source>
													</timecode>
													<media>
														<video>
															<duration>404</duration>
															<samplecharacteristics>
																<width>1920</width>
																<height>1080</height>
															</samplecharacteristics>
														</video>
														<audio>
															<samplecharacteristics>
																<samplerate>48000</samplerate>
																<depth>32</depth>
															</samplecharacteristics>
															<channelcount>1</channelcount>
														</audio>
														<audio>
															<samplecharacteristics>
																<samplerate>48000</samplerate>
																<depth>32</depth>
															</samplecharacteristics>
															<channelcount>1</channelcount>
														</audio>
													</media>
												</file>
												<sourcetrack>
													<mediatype>video</mediatype>
												</sourcetrack>
												<fielddominance>none</fielddominance>
											</clipitem>
											<enabled>TRUE</enabled>
											<locked>FALSE</locked>
										</track>
									</video>
									<audio>
										<track>
											<clipitem id="ArmA 3 2020.11.14 - 01.03.14.83.mp42">
												<name>ArmA 3 2020.11.14 - 01.03.14.83.mp4</name>
												<duration>404</duration>
												<rate>
													<ntsc>TRUE</ntsc>
													<timebase>24</timebase>
												</rate>
												<in>0</in>
												<out>404</out>
												<start>0</start>
												<end>404</end>
												<masterclipid>ArmA 3 2020.11.14 - 01.03.14.83.mp4</masterclipid>
												<logginginfo>
													<scene />
													<shottake />
													<lognote />
													<good>FALSE</good>
												</logginginfo>
												<labels>
													<label2 />
												</labels>
												<comments>
													<mastercomment1 />
													<mastercomment2 />
													<mastercomment3 />
													<mastercomment4 />
												</comments>
												<file id="ArmA 3 2020.11.14 - 01.03.14.83" />
												<sourcetrack>
													<mediatype>audio</mediatype>
												</sourcetrack>
											</clipitem>
											<enabled>TRUE</enabled>
											<locked>FALSE</locked>
										</track>
										<track>
											<clipitem id="ArmA 3 2020.11.14 - 01.03.14.83.mp43">
												<name>ArmA 3 2020.11.14 - 01.03.14.83.mp4</name>
												<duration>404</duration>
												<rate>
													<ntsc>TRUE</ntsc>
													<timebase>24</timebase>
												</rate>
												<in>0</in>
												<out>404</out>
												<start>0</start>
												<end>404</end>
												<masterclipid>ArmA 3 2020.11.14 - 01.03.14.83.mp4</masterclipid>
												<logginginfo>
													<scene />
													<shottake />
													<lognote />
													<good>FALSE</good>
												</logginginfo>
												<labels>
													<label2 />
												</labels>
												<comments>
													<mastercomment1 />
													<mastercomment2 />
													<mastercomment3 />
													<mastercomment4 />
												</comments>
												<file id="ArmA 3 2020.11.14 - 01.03.14.83" />
												<sourcetrack>
													<mediatype>audio</mediatype>
												</sourcetrack>
											</clipitem>
											<enabled>TRUE</enabled>
											<locked>FALSE</locked>
										</track>
									</audio>
								</media>
							</clip>
							<clip id="ArmA 3 2020.11.14 - 01.03.51.84.mp4">
								<updatebehavior>add</updatebehavior>
								<name>ArmA 3 2020.11.14 - 01.03.51.84.mp4</name>
								<duration>421</duration>
								<rate>
									<ntsc>FALSE</ntsc>
									<timebase>60</timebase>
								</rate>
								<in>-1</in>
								<out>-1</out>
								<masterclipid>ArmA 3 2020.11.14 - 01.03.51.84.mp4</masterclipid>
								<ismasterclip>TRUE</ismasterclip>
								<logginginfo>
									<scene />
									<shottake />
									<lognote />
									<good>FALSE</good>
								</logginginfo>
								<labels>
									<label2 />
								</labels>
								<comments>
									<mastercomment1 />
									<mastercomment2 />
									<mastercomment3 />
									<mastercomment4 />
								</comments>
								<media>
									<video>
										<track>
											<clipitem id="ArmA 3 2020.11.14 - 01.03.51.84.mp41">
												<name>ArmA 3 2020.11.14 - 01.03.51.84.mp4</name>
												<duration>421</duration>
												<rate>
													<ntsc>FALSE</ntsc>
													<timebase>60</timebase>
												</rate>
												<in>0</in>
												<out>421</out>
												<start>0</start>
												<end>421</end>
												<pixelaspectratio>Square</pixelaspectratio>
												<anamorphic>FALSE</anamorphic>
												<alphatype>none</alphatype>
												<masterclipid>ArmA 3 2020.11.14 - 01.03.51.84.mp4</masterclipid>
												<logginginfo>
													<scene />
													<shottake />
													<lognote />
													<good>FALSE</good>
												</logginginfo>
												<labels>
													<label2 />
												</labels>
												<comments>
													<mastercomment1 />
													<mastercomment2 />
													<mastercomment3 />
													<mastercomment4 />
												</comments>
												<file id="ArmA 3 2020.11.14 - 01.03.51.84">
													<name>ArmA 3 2020.11.14 - 01.03.51.84.mp4</name>
													<pathurl>file://localhost/F:/AMVS Russia/NaturaDestruction/PRPACK6/ArmA 3 2020.11.14 - 01.03.51.84.mp4</pathurl>
													<rate>
														<timebase>60</timebase>
														<ntsc>FALSE</ntsc>
													</rate>
													<duration>421</duration>
													<timecode>
														<rate>
															<timebase>60</timebase>
															<ntsc>FALSE</ntsc>
														</rate>
														<frame>0</frame>
														<displayformat>NDF</displayformat>
														<source>source</source>
													</timecode>
													<media>
														<video>
															<duration>421</duration>
															<samplecharacteristics>
																<width>1920</width>
																<height>1080</height>
															</samplecharacteristics>
														</video>
														<audio>
															<samplecharacteristics>
																<samplerate>48000</samplerate>
																<depth>32</depth>
															</samplecharacteristics>
															<channelcount>1</channelcount>
														</audio>
														<audio>
															<samplecharacteristics>
																<samplerate>48000</samplerate>
																<depth>32</depth>
															</samplecharacteristics>
															<channelcount>1</channelcount>
														</audio>
													</media>
												</file>
												<sourcetrack>
													<mediatype>video</mediatype>
												</sourcetrack>
												<fielddominance>none</fielddominance>
											</clipitem>
											<enabled>TRUE</enabled>
											<locked>FALSE</locked>
										</track>
									</video>
									<audio>
										<track>
											<clipitem id="ArmA 3 2020.11.14 - 01.03.51.84.mp42">
												<name>ArmA 3 2020.11.14 - 01.03.51.84.mp4</name>
												<duration>421</duration>
												<rate>
													<ntsc>TRUE</ntsc>
													<timebase>24</timebase>
												</rate>
												<in>0</in>
												<out>421</out>
												<start>0</start>
												<end>421</end>
												<masterclipid>ArmA 3 2020.11.14 - 01.03.51.84.mp4</masterclipid>
												<logginginfo>
													<scene />
													<shottake />
													<lognote />
													<good>FALSE</good>
												</logginginfo>
												<labels>
													<label2 />
												</labels>
												<comments>
													<mastercomment1 />
													<mastercomment2 />
													<mastercomment3 />
													<mastercomment4 />
												</comments>
												<file id="ArmA 3 2020.11.14 - 01.03.51.84" />
												<sourcetrack>
													<mediatype>audio</mediatype>
												</sourcetrack>
											</clipitem>
											<enabled>TRUE</enabled>
											<locked>FALSE</locked>
										</track>
										<track>
											<clipitem id="ArmA 3 2020.11.14 - 01.03.51.84.mp43">
												<name>ArmA 3 2020.11.14 - 01.03.51.84.mp4</name>
												<duration>421</duration>
												<rate>
													<ntsc>TRUE</ntsc>
													<timebase>24</timebase>
												</rate>
												<in>0</in>
												<out>421</out>
												<start>0</start>
												<end>421</end>
												<masterclipid>ArmA 3 2020.11.14 - 01.03.51.84.mp4</masterclipid>
												<logginginfo>
													<scene />
													<shottake />
													<lognote />
													<good>FALSE</good>
												</logginginfo>
												<labels>
													<label2 />
												</labels>
												<comments>
													<mastercomment1 />
													<mastercomment2 />
													<mastercomment3 />
													<mastercomment4 />
												</comments>
												<file id="ArmA 3 2020.11.14 - 01.03.51.84" />
												<sourcetrack>
													<mediatype>audio</mediatype>
												</sourcetrack>
											</clipitem>
											<enabled>TRUE</enabled>
											<locked>FALSE</locked>
										</track>
									</audio>
								</media>
							</clip>
							<clip id="ArmA 3 2020.11.14 - 01.04.31.85.mp4">
								<updatebehavior>add</updatebehavior>
								<name>ArmA 3 2020.11.14 - 01.04.31.85.mp4</name>
								<duration>1222</duration>
								<rate>
									<ntsc>FALSE</ntsc>
									<timebase>60</timebase>
								</rate>
								<in>-1</in>
								<out>-1</out>
								<masterclipid>ArmA 3 2020.11.14 - 01.04.31.85.mp4</masterclipid>
								<ismasterclip>TRUE</ismasterclip>
								<logginginfo>
									<scene />
									<shottake />
									<lognote />
									<good>FALSE</good>
								</logginginfo>
								<labels>
									<label2 />
								</labels>
								<comments>
									<mastercomment1 />
									<mastercomment2 />
									<mastercomment3 />
									<mastercomment4 />
								</comments>
								<media>
									<video>
										<track>
											<clipitem id="ArmA 3 2020.11.14 - 01.04.31.85.mp41">
												<name>ArmA 3 2020.11.14 - 01.04.31.85.mp4</name>
												<duration>1222</duration>
												<rate>
													<ntsc>FALSE</ntsc>
													<timebase>60</timebase>
												</rate>
												<in>0</in>
												<out>1222</out>
												<start>0</start>
												<end>1222</end>
												<pixelaspectratio>Square</pixelaspectratio>
												<anamorphic>FALSE</anamorphic>
												<alphatype>none</alphatype>
												<masterclipid>ArmA 3 2020.11.14 - 01.04.31.85.mp4</masterclipid>
												<logginginfo>
													<scene />
													<shottake />
													<lognote />
													<good>FALSE</good>
												</logginginfo>
												<labels>
													<label2 />
												</labels>
												<comments>
													<mastercomment1 />
													<mastercomment2 />
													<mastercomment3 />
													<mastercomment4 />
												</comments>
												<file id="ArmA 3 2020.11.14 - 01.04.31.85">
													<name>ArmA 3 2020.11.14 - 01.04.31.85.mp4</name>
													<pathurl>file://localhost/F:/AMVS Russia/NaturaDestruction/PRPACK4/ArmA 3 2020.11.14 - 01.04.31.85.mp4</pathurl>
													<rate>
														<timebase>60</timebase>
														<ntsc>FALSE</ntsc>
													</rate>
													<duration>1222</duration>
													<timecode>
														<rate>
															<timebase>60</timebase>
															<ntsc>FALSE</ntsc>
														</rate>
														<frame>0</frame>
														<displayformat>NDF</displayformat>
														<source>source</source>
													</timecode>
													<media>
														<video>
															<duration>1222</duration>
															<samplecharacteristics>
																<width>1920</width>
																<height>1080</height>
															</samplecharacteristics>
														</video>
														<audio>
															<samplecharacteristics>
																<samplerate>48000</samplerate>
																<depth>32</depth>
															</samplecharacteristics>
															<channelcount>1</channelcount>
														</audio>
														<audio>
															<samplecharacteristics>
																<samplerate>48000</samplerate>
																<depth>32</depth>
															</samplecharacteristics>
															<channelcount>1</channelcount>
														</audio>
													</media>
												</file>
												<sourcetrack>
													<mediatype>video</mediatype>
												</sourcetrack>
												<fielddominance>none</fielddominance>
											</clipitem>
											<enabled>TRUE</enabled>
											<locked>FALSE</locked>
										</track>
									</video>
									<audio>
										<track>
											<clipitem id="ArmA 3 2020.11.14 - 01.04.31.85.mp42">
												<name>ArmA 3 2020.11.14 - 01.04.31.85.mp4</name>
												<duration>1222</duration>
												<rate>
													<ntsc>TRUE</ntsc>
													<timebase>24</timebase>
												</rate>
												<in>0</in>
												<out>1222</out>
												<start>0</start>
												<end>1222</end>
												<masterclipid>ArmA 3 2020.11.14 - 01.04.31.85.mp4</masterclipid>
												<logginginfo>
													<scene />
													<shottake />
													<lognote />
													<good>FALSE</good>
												</logginginfo>
												<labels>
													<label2 />
												</labels>
												<comments>
													<mastercomment1 />
													<mastercomment2 />
													<mastercomment3 />
													<mastercomment4 />
												</comments>
												<file id="ArmA 3 2020.11.14 - 01.04.31.85" />
												<sourcetrack>
													<mediatype>audio</mediatype>
												</sourcetrack>
											</clipitem>
											<enabled>TRUE</enabled>
											<locked>FALSE</locked>
										</track>
										<track>
											<clipitem id="ArmA 3 2020.11.14 - 01.04.31.85.mp43">
												<name>ArmA 3 2020.11.14 - 01.04.31.85.mp4</name>
												<duration>1222</duration>
												<rate>
													<ntsc>TRUE</ntsc>
													<timebase>24</timebase>
												</rate>
												<in>0</in>
												<out>1222</out>
												<start>0</start>
												<end>1222</end>
												<masterclipid>ArmA 3 2020.11.14 - 01.04.31.85.mp4</masterclipid>
												<logginginfo>
													<scene />
													<shottake />
													<lognote />
													<good>FALSE</good>
												</logginginfo>
												<labels>
													<label2 />
												</labels>
												<comments>
													<mastercomment1 />
													<mastercomment2 />
													<mastercomment3 />
													<mastercomment4 />
												</comments>
												<file id="ArmA 3 2020.11.14 - 01.04.31.85" />
												<sourcetrack>
													<mediatype>audio</mediatype>
												</sourcetrack>
											</clipitem>
											<enabled>TRUE</enabled>
											<locked>FALSE</locked>
										</track>
									</audio>
								</media>
							</clip>
							<clip id="ArmA 3 2020.11.14 - 01.05.31.86.mp4">
								<updatebehavior>add</updatebehavior>
								<name>ArmA 3 2020.11.14 - 01.05.31.86.mp4</name>
								<duration>122</duration>
								<rate>
									<ntsc>FALSE</ntsc>
									<timebase>60</timebase>
								</rate>
								<in>-1</in>
								<out>-1</out>
								<masterclipid>ArmA 3 2020.11.14 - 01.05.31.86.mp4</masterclipid>
								<ismasterclip>TRUE</ismasterclip>
								<logginginfo>
									<scene />
									<shottake />
									<lognote />
									<good>FALSE</good>
								</logginginfo>
								<labels>
									<label2 />
								</labels>
								<comments>
									<mastercomment1 />
									<mastercomment2 />
									<mastercomment3 />
									<mastercomment4 />
								</comments>
								<media>
									<video>
										<track>
											<clipitem id="ArmA 3 2020.11.14 - 01.05.31.86.mp41">
												<name>ArmA 3 2020.11.14 - 01.05.31.86.mp4</name>
												<duration>122</duration>
												<rate>
													<ntsc>FALSE</ntsc>
													<timebase>60</timebase>
												</rate>
												<in>0</in>
												<out>122</out>
												<start>0</start>
												<end>122</end>
												<pixelaspectratio>Square</pixelaspectratio>
												<anamorphic>FALSE</anamorphic>
												<alphatype>none</alphatype>
												<masterclipid>ArmA 3 2020.11.14 - 01.05.31.86.mp4</masterclipid>
												<logginginfo>
													<scene />
													<shottake />
													<lognote />
													<good>FALSE</good>
												</logginginfo>
												<labels>
													<label2 />
												</labels>
												<comments>
													<mastercomment1 />
													<mastercomment2 />
													<mastercomment3 />
													<mastercomment4 />
												</comments>
												<file id="ArmA 3 2020.11.14 - 01.05.31.86">
													<name>ArmA 3 2020.11.14 - 01.05.31.86.mp4</name>
													<pathurl>file://localhost/F:/AMVS Russia/NaturaDestruction/PRPACK7/ArmA 3 2020.11.14 - 01.05.31.86.mp4</pathurl>
													<rate>
														<timebase>60</timebase>
														<ntsc>FALSE</ntsc>
													</rate>
													<duration>122</duration>
													<timecode>
														<rate>
															<timebase>60</timebase>
															<ntsc>FALSE</ntsc>
														</rate>
														<frame>0</frame>
														<displayformat>NDF</displayformat>
														<source>source</source>
													</timecode>
													<media>
														<video>
															<duration>122</duration>
															<samplecharacteristics>
																<width>1920</width>
																<height>1080</height>
															</samplecharacteristics>
														</video>
														<audio>
															<samplecharacteristics>
																<samplerate>48000</samplerate>
																<depth>32</depth>
															</samplecharacteristics>
															<channelcount>1</channelcount>
														</audio>
														<audio>
															<samplecharacteristics>
																<samplerate>48000</samplerate>
																<depth>32</depth>
															</samplecharacteristics>
															<channelcount>1</channelcount>
														</audio>
													</media>
												</file>
												<sourcetrack>
													<mediatype>video</mediatype>
												</sourcetrack>
												<fielddominance>none</fielddominance>
											</clipitem>
											<enabled>TRUE</enabled>
											<locked>FALSE</locked>
										</track>
									</video>
									<audio>
										<track>
											<clipitem id="ArmA 3 2020.11.14 - 01.05.31.86.mp42">
												<name>ArmA 3 2020.11.14 - 01.05.31.86.mp4</name>
												<duration>122</duration>
												<rate>
													<ntsc>TRUE</ntsc>
													<timebase>24</timebase>
												</rate>
												<in>0</in>
												<out>122</out>
												<start>0</start>
												<end>122</end>
												<masterclipid>ArmA 3 2020.11.14 - 01.05.31.86.mp4</masterclipid>
												<logginginfo>
													<scene />
													<shottake />
													<lognote />
													<good>FALSE</good>
												</logginginfo>
												<labels>
													<label2 />
												</labels>
												<comments>
													<mastercomment1 />
													<mastercomment2 />
													<mastercomment3 />
													<mastercomment4 />
												</comments>
												<file id="ArmA 3 2020.11.14 - 01.05.31.86" />
												<sourcetrack>
													<mediatype>audio</mediatype>
												</sourcetrack>
											</clipitem>
											<enabled>TRUE</enabled>
											<locked>FALSE</locked>
										</track>
										<track>
											<clipitem id="ArmA 3 2020.11.14 - 01.05.31.86.mp43">
												<name>ArmA 3 2020.11.14 - 01.05.31.86.mp4</name>
												<duration>122</duration>
												<rate>
													<ntsc>TRUE</ntsc>
													<timebase>24</timebase>
												</rate>
												<in>0</in>
												<out>122</out>
												<start>0</start>
												<end>122</end>
												<masterclipid>ArmA 3 2020.11.14 - 01.05.31.86.mp4</masterclipid>
												<logginginfo>
													<scene />
													<shottake />
													<lognote />
													<good>FALSE</good>
												</logginginfo>
												<labels>
													<label2 />
												</labels>
												<comments>
													<mastercomment1 />
													<mastercomment2 />
													<mastercomment3 />
													<mastercomment4 />
												</comments>
												<file id="ArmA 3 2020.11.14 - 01.05.31.86" />
												<sourcetrack>
													<mediatype>audio</mediatype>
												</sourcetrack>
											</clipitem>
											<enabled>TRUE</enabled>
											<locked>FALSE</locked>
										</track>
									</audio>
								</media>
							</clip>
							<clip id="ArmA 3 2020.11.14 - 01.05.58.87.mp4">
								<updatebehavior>add</updatebehavior>
								<name>ArmA 3 2020.11.14 - 01.05.58.87.mp4</name>
								<duration>538</duration>
								<rate>
									<ntsc>FALSE</ntsc>
									<timebase>60</timebase>
								</rate>
								<in>-1</in>
								<out>-1</out>
								<masterclipid>ArmA 3 2020.11.14 - 01.05.58.87.mp4</masterclipid>
								<ismasterclip>TRUE</ismasterclip>
								<logginginfo>
									<scene />
									<shottake />
									<lognote />
									<good>FALSE</good>
								</logginginfo>
								<labels>
									<label2 />
								</labels>
								<comments>
									<mastercomment1 />
									<mastercomment2 />
									<mastercomment3 />
									<mastercomment4 />
								</comments>
								<media>
									<video>
										<track>
											<clipitem id="ArmA 3 2020.11.14 - 01.05.58.87.mp41">
												<name>ArmA 3 2020.11.14 - 01.05.58.87.mp4</name>
												<duration>538</duration>
												<rate>
													<ntsc>FALSE</ntsc>
													<timebase>60</timebase>
												</rate>
												<in>0</in>
												<out>538</out>
												<start>0</start>
												<end>538</end>
												<pixelaspectratio>Square</pixelaspectratio>
												<anamorphic>FALSE</anamorphic>
												<alphatype>none</alphatype>
												<masterclipid>ArmA 3 2020.11.14 - 01.05.58.87.mp4</masterclipid>
												<logginginfo>
													<scene />
													<shottake />
													<lognote />
													<good>FALSE</good>
												</logginginfo>
												<labels>
													<label2 />
												</labels>
												<comments>
													<mastercomment1 />
													<mastercomment2 />
													<mastercomment3 />
													<mastercomment4 />
												</comments>
												<file id="ArmA 3 2020.11.14 - 01.05.58.87">
													<name>ArmA 3 2020.11.14 - 01.05.58.87.mp4</name>
													<pathurl>file://localhost/F:/AMVS Russia/NaturaDestruction/PRPACK6/ArmA 3 2020.11.14 - 01.05.58.87.mp4</pathurl>
													<rate>
														<timebase>60</timebase>
														<ntsc>FALSE</ntsc>
													</rate>
													<duration>538</duration>
													<timecode>
														<rate>
															<timebase>60</timebase>
															<ntsc>FALSE</ntsc>
														</rate>
														<frame>0</frame>
														<displayformat>NDF</displayformat>
														<source>source</source>
													</timecode>
													<media>
														<video>
															<duration>538</duration>
															<samplecharacteristics>
																<width>1920</width>
																<height>1080</height>
															</samplecharacteristics>
														</video>
														<audio>
															<samplecharacteristics>
																<samplerate>48000</samplerate>
																<depth>32</depth>
															</samplecharacteristics>
															<channelcount>1</channelcount>
														</audio>
														<audio>
															<samplecharacteristics>
																<samplerate>48000</samplerate>
																<depth>32</depth>
															</samplecharacteristics>
															<channelcount>1</channelcount>
														</audio>
													</media>
												</file>
												<sourcetrack>
													<mediatype>video</mediatype>
												</sourcetrack>
												<fielddominance>none</fielddominance>
											</clipitem>
											<enabled>TRUE</enabled>
											<locked>FALSE</locked>
										</track>
									</video>
									<audio>
										<track>
											<clipitem id="ArmA 3 2020.11.14 - 01.05.58.87.mp42">
												<name>ArmA 3 2020.11.14 - 01.05.58.87.mp4</name>
												<duration>538</duration>
												<rate>
													<ntsc>TRUE</ntsc>
													<timebase>24</timebase>
												</rate>
												<in>0</in>
												<out>538</out>
												<start>0</start>
												<end>538</end>
												<masterclipid>ArmA 3 2020.11.14 - 01.05.58.87.mp4</masterclipid>
												<logginginfo>
													<scene />
													<shottake />
													<lognote />
													<good>FALSE</good>
												</logginginfo>
												<labels>
													<label2 />
												</labels>
												<comments>
													<mastercomment1 />
													<mastercomment2 />
													<mastercomment3 />
													<mastercomment4 />
												</comments>
												<file id="ArmA 3 2020.11.14 - 01.05.58.87" />
												<sourcetrack>
													<mediatype>audio</mediatype>
												</sourcetrack>
											</clipitem>
											<enabled>TRUE</enabled>
											<locked>FALSE</locked>
										</track>
										<track>
											<clipitem id="ArmA 3 2020.11.14 - 01.05.58.87.mp43">
												<name>ArmA 3 2020.11.14 - 01.05.58.87.mp4</name>
												<duration>538</duration>
												<rate>
													<ntsc>TRUE</ntsc>
													<timebase>24</timebase>
												</rate>
												<in>0</in>
												<out>538</out>
												<start>0</start>
												<end>538</end>
												<masterclipid>ArmA 3 2020.11.14 - 01.05.58.87.mp4</masterclipid>
												<logginginfo>
													<scene />
													<shottake />
													<lognote />
													<good>FALSE</good>
												</logginginfo>
												<labels>
													<label2 />
												</labels>
												<comments>
													<mastercomment1 />
													<mastercomment2 />
													<mastercomment3 />
													<mastercomment4 />
												</comments>
												<file id="ArmA 3 2020.11.14 - 01.05.58.87" />
												<sourcetrack>
													<mediatype>audio</mediatype>
												</sourcetrack>
											</clipitem>
											<enabled>TRUE</enabled>
											<locked>FALSE</locked>
										</track>
									</audio>
								</media>
							</clip>
							<clip id="ArmA 3 2020.11.14 - 01.06.24.88.mp4">
								<updatebehavior>add</updatebehavior>
								<name>ArmA 3 2020.11.14 - 01.06.24.88.mp4</name>
								<duration>288</duration>
								<rate>
									<ntsc>FALSE</ntsc>
									<timebase>60</timebase>
								</rate>
								<in>-1</in>
								<out>-1</out>
								<masterclipid>ArmA 3 2020.11.14 - 01.06.24.88.mp4</masterclipid>
								<ismasterclip>TRUE</ismasterclip>
								<logginginfo>
									<scene />
									<shottake />
									<lognote />
									<good>FALSE</good>
								</logginginfo>
								<labels>
									<label2 />
								</labels>
								<comments>
									<mastercomment1 />
									<mastercomment2 />
									<mastercomment3 />
									<mastercomment4 />
								</comments>
								<media>
									<video>
										<track>
											<clipitem id="ArmA 3 2020.11.14 - 01.06.24.88.mp41">
												<name>ArmA 3 2020.11.14 - 01.06.24.88.mp4</name>
												<duration>288</duration>
												<rate>
													<ntsc>FALSE</ntsc>
													<timebase>60</timebase>
												</rate>
												<in>0</in>
												<out>288</out>
												<start>0</start>
												<end>288</end>
												<pixelaspectratio>Square</pixelaspectratio>
												<anamorphic>FALSE</anamorphic>
												<alphatype>none</alphatype>
												<masterclipid>ArmA 3 2020.11.14 - 01.06.24.88.mp4</masterclipid>
												<logginginfo>
													<scene />
													<shottake />
													<lognote />
													<good>FALSE</good>
												</logginginfo>
												<labels>
													<label2 />
												</labels>
												<comments>
													<mastercomment1 />
													<mastercomment2 />
													<mastercomment3 />
													<mastercomment4 />
												</comments>
												<file id="ArmA 3 2020.11.14 - 01.06.24.88">
													<name>ArmA 3 2020.11.14 - 01.06.24.88.mp4</name>
													<pathurl>file://localhost/F:/AMVS Russia/NaturaDestruction/PRPACK7/ArmA 3 2020.11.14 - 01.06.24.88.mp4</pathurl>
													<rate>
														<timebase>60</timebase>
														<ntsc>FALSE</ntsc>
													</rate>
													<duration>288</duration>
													<timecode>
														<rate>
															<timebase>60</timebase>
															<ntsc>FALSE</ntsc>
														</rate>
														<frame>0</frame>
														<displayformat>NDF</displayformat>
														<source>source</source>
													</timecode>
													<media>
														<video>
															<duration>288</duration>
															<samplecharacteristics>
																<width>1920</width>
																<height>1080</height>
															</samplecharacteristics>
														</video>
														<audio>
															<samplecharacteristics>
																<samplerate>48000</samplerate>
																<depth>32</depth>
															</samplecharacteristics>
															<channelcount>1</channelcount>
														</audio>
														<audio>
															<samplecharacteristics>
																<samplerate>48000</samplerate>
																<depth>32</depth>
															</samplecharacteristics>
															<channelcount>1</channelcount>
														</audio>
													</media>
												</file>
												<sourcetrack>
													<mediatype>video</mediatype>
												</sourcetrack>
												<fielddominance>none</fielddominance>
											</clipitem>
											<enabled>TRUE</enabled>
											<locked>FALSE</locked>
										</track>
									</video>
									<audio>
										<track>
											<clipitem id="ArmA 3 2020.11.14 - 01.06.24.88.mp42">
												<name>ArmA 3 2020.11.14 - 01.06.24.88.mp4</name>
												<duration>288</duration>
												<rate>
													<ntsc>TRUE</ntsc>
													<timebase>24</timebase>
												</rate>
												<in>0</in>
												<out>288</out>
												<start>0</start>
												<end>288</end>
												<masterclipid>ArmA 3 2020.11.14 - 01.06.24.88.mp4</masterclipid>
												<logginginfo>
													<scene />
													<shottake />
													<lognote />
													<good>FALSE</good>
												</logginginfo>
												<labels>
													<label2 />
												</labels>
												<comments>
													<mastercomment1 />
													<mastercomment2 />
													<mastercomment3 />
													<mastercomment4 />
												</comments>
												<file id="ArmA 3 2020.11.14 - 01.06.24.88" />
												<sourcetrack>
													<mediatype>audio</mediatype>
												</sourcetrack>
											</clipitem>
											<enabled>TRUE</enabled>
											<locked>FALSE</locked>
										</track>
										<track>
											<clipitem id="ArmA 3 2020.11.14 - 01.06.24.88.mp43">
												<name>ArmA 3 2020.11.14 - 01.06.24.88.mp4</name>
												<duration>288</duration>
												<rate>
													<ntsc>TRUE</ntsc>
													<timebase>24</timebase>
												</rate>
												<in>0</in>
												<out>288</out>
												<start>0</start>
												<end>288</end>
												<masterclipid>ArmA 3 2020.11.14 - 01.06.24.88.mp4</masterclipid>
												<logginginfo>
													<scene />
													<shottake />
													<lognote />
													<good>FALSE</good>
												</logginginfo>
												<labels>
													<label2 />
												</labels>
												<comments>
													<mastercomment1 />
													<mastercomment2 />
													<mastercomment3 />
													<mastercomment4 />
												</comments>
												<file id="ArmA 3 2020.11.14 - 01.06.24.88" />
												<sourcetrack>
													<mediatype>audio</mediatype>
												</sourcetrack>
											</clipitem>
											<enabled>TRUE</enabled>
											<locked>FALSE</locked>
										</track>
									</audio>
								</media>
							</clip>
							<clip id="ArmA 3 2020.11.14 - 01.06.46.89.mp4">
								<updatebehavior>add</updatebehavior>
								<name>ArmA 3 2020.11.14 - 01.06.46.89.mp4</name>
								<duration>856</duration>
								<rate>
									<ntsc>FALSE</ntsc>
									<timebase>60</timebase>
								</rate>
								<in>-1</in>
								<out>-1</out>
								<masterclipid>ArmA 3 2020.11.14 - 01.06.46.89.mp4</masterclipid>
								<ismasterclip>TRUE</ismasterclip>
								<logginginfo>
									<scene />
									<shottake />
									<lognote />
									<good>FALSE</good>
								</logginginfo>
								<labels>
									<label2 />
								</labels>
								<comments>
									<mastercomment1 />
									<mastercomment2 />
									<mastercomment3 />
									<mastercomment4 />
								</comments>
								<media>
									<video>
										<track>
											<clipitem id="ArmA 3 2020.11.14 - 01.06.46.89.mp41">
												<name>ArmA 3 2020.11.14 - 01.06.46.89.mp4</name>
												<duration>856</duration>
												<rate>
													<ntsc>FALSE</ntsc>
													<timebase>60</timebase>
												</rate>
												<in>0</in>
												<out>856</out>
												<start>0</start>
												<end>856</end>
												<pixelaspectratio>Square</pixelaspectratio>
												<anamorphic>FALSE</anamorphic>
												<alphatype>none</alphatype>
												<masterclipid>ArmA 3 2020.11.14 - 01.06.46.89.mp4</masterclipid>
												<logginginfo>
													<scene />
													<shottake />
													<lognote />
													<good>FALSE</good>
												</logginginfo>
												<labels>
													<label2 />
												</labels>
												<comments>
													<mastercomment1 />
													<mastercomment2 />
													<mastercomment3 />
													<mastercomment4 />
												</comments>
												<file id="ArmA 3 2020.11.14 - 01.06.46.89">
													<name>ArmA 3 2020.11.14 - 01.06.46.89.mp4</name>
													<pathurl>file://localhost/F:/AMVS Russia/NaturaDestruction/PRPACK5/ArmA 3 2020.11.14 - 01.06.46.89.mp4</pathurl>
													<rate>
														<timebase>60</timebase>
														<ntsc>FALSE</ntsc>
													</rate>
													<duration>856</duration>
													<timecode>
														<rate>
															<timebase>60</timebase>
															<ntsc>FALSE</ntsc>
														</rate>
														<frame>0</frame>
														<displayformat>NDF</displayformat>
														<source>source</source>
													</timecode>
													<media>
														<video>
															<duration>856</duration>
															<samplecharacteristics>
																<width>1920</width>
																<height>1080</height>
															</samplecharacteristics>
														</video>
														<audio>
															<samplecharacteristics>
																<samplerate>48000</samplerate>
																<depth>32</depth>
															</samplecharacteristics>
															<channelcount>1</channelcount>
														</audio>
														<audio>
															<samplecharacteristics>
																<samplerate>48000</samplerate>
																<depth>32</depth>
															</samplecharacteristics>
															<channelcount>1</channelcount>
														</audio>
													</media>
												</file>
												<sourcetrack>
													<mediatype>video</mediatype>
												</sourcetrack>
												<fielddominance>none</fielddominance>
											</clipitem>
											<enabled>TRUE</enabled>
											<locked>FALSE</locked>
										</track>
									</video>
									<audio>
										<track>
											<clipitem id="ArmA 3 2020.11.14 - 01.06.46.89.mp42">
												<name>ArmA 3 2020.11.14 - 01.06.46.89.mp4</name>
												<duration>856</duration>
												<rate>
													<ntsc>TRUE</ntsc>
													<timebase>24</timebase>
												</rate>
												<in>0</in>
												<out>856</out>
												<start>0</start>
												<end>856</end>
												<masterclipid>ArmA 3 2020.11.14 - 01.06.46.89.mp4</masterclipid>
												<logginginfo>
													<scene />
													<shottake />
													<lognote />
													<good>FALSE</good>
												</logginginfo>
												<labels>
													<label2 />
												</labels>
												<comments>
													<mastercomment1 />
													<mastercomment2 />
													<mastercomment3 />
													<mastercomment4 />
												</comments>
												<file id="ArmA 3 2020.11.14 - 01.06.46.89" />
												<sourcetrack>
													<mediatype>audio</mediatype>
												</sourcetrack>
											</clipitem>
											<enabled>TRUE</enabled>
											<locked>FALSE</locked>
										</track>
										<track>
											<clipitem id="ArmA 3 2020.11.14 - 01.06.46.89.mp43">
												<name>ArmA 3 2020.11.14 - 01.06.46.89.mp4</name>
												<duration>856</duration>
												<rate>
													<ntsc>TRUE</ntsc>
													<timebase>24</timebase>
												</rate>
												<in>0</in>
												<out>856</out>
												<start>0</start>
												<end>856</end>
												<masterclipid>ArmA 3 2020.11.14 - 01.06.46.89.mp4</masterclipid>
												<logginginfo>
													<scene />
													<shottake />
													<lognote />
													<good>FALSE</good>
												</logginginfo>
												<labels>
													<label2 />
												</labels>
												<comments>
													<mastercomment1 />
													<mastercomment2 />
													<mastercomment3 />
													<mastercomment4 />
												</comments>
												<file id="ArmA 3 2020.11.14 - 01.06.46.89" />
												<sourcetrack>
													<mediatype>audio</mediatype>
												</sourcetrack>
											</clipitem>
											<enabled>TRUE</enabled>
											<locked>FALSE</locked>
										</track>
									</audio>
								</media>
							</clip>
							<clip id="ArmA 3 2020.11.14 - 01.07.32.90.mp4">
								<updatebehavior>add</updatebehavior>
								<name>ArmA 3 2020.11.14 - 01.07.32.90.mp4</name>
								<duration>396</duration>
								<rate>
									<ntsc>FALSE</ntsc>
									<timebase>60</timebase>
								</rate>
								<in>-1</in>
								<out>-1</out>
								<masterclipid>ArmA 3 2020.11.14 - 01.07.32.90.mp4</masterclipid>
								<ismasterclip>TRUE</ismasterclip>
								<logginginfo>
									<scene />
									<shottake />
									<lognote />
									<good>FALSE</good>
								</logginginfo>
								<labels>
									<label2 />
								</labels>
								<comments>
									<mastercomment1 />
									<mastercomment2 />
									<mastercomment3 />
									<mastercomment4 />
								</comments>
								<media>
									<video>
										<track>
											<clipitem id="ArmA 3 2020.11.14 - 01.07.32.90.mp41">
												<name>ArmA 3 2020.11.14 - 01.07.32.90.mp4</name>
												<duration>396</duration>
												<rate>
													<ntsc>FALSE</ntsc>
													<timebase>60</timebase>
												</rate>
												<in>0</in>
												<out>396</out>
												<start>0</start>
												<end>396</end>
												<pixelaspectratio>Square</pixelaspectratio>
												<anamorphic>FALSE</anamorphic>
												<alphatype>none</alphatype>
												<masterclipid>ArmA 3 2020.11.14 - 01.07.32.90.mp4</masterclipid>
												<logginginfo>
													<scene />
													<shottake />
													<lognote />
													<good>FALSE</good>
												</logginginfo>
												<labels>
													<label2 />
												</labels>
												<comments>
													<mastercomment1 />
													<mastercomment2 />
													<mastercomment3 />
													<mastercomment4 />
												</comments>
												<file id="ArmA 3 2020.11.14 - 01.07.32.90">
													<name>ArmA 3 2020.11.14 - 01.07.32.90.mp4</name>
													<pathurl>file://localhost/F:/AMVS Russia/NaturaDestruction/PRPACK7/ArmA 3 2020.11.14 - 01.07.32.90.mp4</pathurl>
													<rate>
														<timebase>60</timebase>
														<ntsc>FALSE</ntsc>
													</rate>
													<duration>396</duration>
													<timecode>
														<rate>
															<timebase>60</timebase>
															<ntsc>FALSE</ntsc>
														</rate>
														<frame>0</frame>
														<displayformat>NDF</displayformat>
														<source>source</source>
													</timecode>
													<media>
														<video>
															<duration>396</duration>
															<samplecharacteristics>
																<width>1920</width>
																<height>1080</height>
															</samplecharacteristics>
														</video>
														<audio>
															<samplecharacteristics>
																<samplerate>48000</samplerate>
																<depth>32</depth>
															</samplecharacteristics>
															<channelcount>1</channelcount>
														</audio>
														<audio>
															<samplecharacteristics>
																<samplerate>48000</samplerate>
																<depth>32</depth>
															</samplecharacteristics>
															<channelcount>1</channelcount>
														</audio>
													</media>
												</file>
												<sourcetrack>
													<mediatype>video</mediatype>
												</sourcetrack>
												<fielddominance>none</fielddominance>
											</clipitem>
											<enabled>TRUE</enabled>
											<locked>FALSE</locked>
										</track>
									</video>
									<audio>
										<track>
											<clipitem id="ArmA 3 2020.11.14 - 01.07.32.90.mp42">
												<name>ArmA 3 2020.11.14 - 01.07.32.90.mp4</name>
												<duration>396</duration>
												<rate>
													<ntsc>TRUE</ntsc>
													<timebase>24</timebase>
												</rate>
												<in>0</in>
												<out>396</out>
												<start>0</start>
												<end>396</end>
												<masterclipid>ArmA 3 2020.11.14 - 01.07.32.90.mp4</masterclipid>
												<logginginfo>
													<scene />
													<shottake />
													<lognote />
													<good>FALSE</good>
												</logginginfo>
												<labels>
													<label2 />
												</labels>
												<comments>
													<mastercomment1 />
													<mastercomment2 />
													<mastercomment3 />
													<mastercomment4 />
												</comments>
												<file id="ArmA 3 2020.11.14 - 01.07.32.90" />
												<sourcetrack>
													<mediatype>audio</mediatype>
												</sourcetrack>
											</clipitem>
											<enabled>TRUE</enabled>
											<locked>FALSE</locked>
										</track>
										<track>
											<clipitem id="ArmA 3 2020.11.14 - 01.07.32.90.mp43">
												<name>ArmA 3 2020.11.14 - 01.07.32.90.mp4</name>
												<duration>396</duration>
												<rate>
													<ntsc>TRUE</ntsc>
													<timebase>24</timebase>
												</rate>
												<in>0</in>
												<out>396</out>
												<start>0</start>
												<end>396</end>
												<masterclipid>ArmA 3 2020.11.14 - 01.07.32.90.mp4</masterclipid>
												<logginginfo>
													<scene />
													<shottake />
													<lognote />
													<good>FALSE</good>
												</logginginfo>
												<labels>
													<label2 />
												</labels>
												<comments>
													<mastercomment1 />
													<mastercomment2 />
													<mastercomment3 />
													<mastercomment4 />
												</comments>
												<file id="ArmA 3 2020.11.14 - 01.07.32.90" />
												<sourcetrack>
													<mediatype>audio</mediatype>
												</sourcetrack>
											</clipitem>
											<enabled>TRUE</enabled>
											<locked>FALSE</locked>
										</track>
									</audio>
								</media>
							</clip>
							<clip id="ArmA 3 2020.11.14 - 01.08.19.91.mp4">
								<updatebehavior>add</updatebehavior>
								<name>ArmA 3 2020.11.14 - 01.08.19.91.mp4</name>
								<duration>894</duration>
								<rate>
									<ntsc>FALSE</ntsc>
									<timebase>60</timebase>
								</rate>
								<in>-1</in>
								<out>-1</out>
								<masterclipid>ArmA 3 2020.11.14 - 01.08.19.91.mp4</masterclipid>
								<ismasterclip>TRUE</ismasterclip>
								<logginginfo>
									<scene />
									<shottake />
									<lognote />
									<good>FALSE</good>
								</logginginfo>
								<labels>
									<label2 />
								</labels>
								<comments>
									<mastercomment1 />
									<mastercomment2 />
									<mastercomment3 />
									<mastercomment4 />
								</comments>
								<media>
									<video>
										<track>
											<clipitem id="ArmA 3 2020.11.14 - 01.08.19.91.mp41">
												<name>ArmA 3 2020.11.14 - 01.08.19.91.mp4</name>
												<duration>894</duration>
												<rate>
													<ntsc>FALSE</ntsc>
													<timebase>60</timebase>
												</rate>
												<in>0</in>
												<out>894</out>
												<start>0</start>
												<end>894</end>
												<pixelaspectratio>Square</pixelaspectratio>
												<anamorphic>FALSE</anamorphic>
												<alphatype>none</alphatype>
												<masterclipid>ArmA 3 2020.11.14 - 01.08.19.91.mp4</masterclipid>
												<logginginfo>
													<scene />
													<shottake />
													<lognote />
													<good>FALSE</good>
												</logginginfo>
												<labels>
													<label2 />
												</labels>
												<comments>
													<mastercomment1 />
													<mastercomment2 />
													<mastercomment3 />
													<mastercomment4 />
												</comments>
												<file id="ArmA 3 2020.11.14 - 01.08.19.91">
													<name>ArmA 3 2020.11.14 - 01.08.19.91.mp4</name>
													<pathurl>file://localhost/F:/AMVS Russia/NaturaDestruction/PRPACK4/ArmA 3 2020.11.14 - 01.08.19.91.mp4</pathurl>
													<rate>
														<timebase>60</timebase>
														<ntsc>FALSE</ntsc>
													</rate>
													<duration>894</duration>
													<timecode>
														<rate>
															<timebase>60</timebase>
															<ntsc>FALSE</ntsc>
														</rate>
														<frame>0</frame>
														<displayformat>NDF</displayformat>
														<source>source</source>
													</timecode>
													<media>
														<video>
															<duration>894</duration>
															<samplecharacteristics>
																<width>1920</width>
																<height>1080</height>
															</samplecharacteristics>
														</video>
														<audio>
															<samplecharacteristics>
																<samplerate>48000</samplerate>
																<depth>32</depth>
															</samplecharacteristics>
															<channelcount>1</channelcount>
														</audio>
														<audio>
															<samplecharacteristics>
																<samplerate>48000</samplerate>
																<depth>32</depth>
															</samplecharacteristics>
															<channelcount>1</channelcount>
														</audio>
													</media>
												</file>
												<sourcetrack>
													<mediatype>video</mediatype>
												</sourcetrack>
												<fielddominance>none</fielddominance>
											</clipitem>
											<enabled>TRUE</enabled>
											<locked>FALSE</locked>
										</track>
									</video>
									<audio>
										<track>
											<clipitem id="ArmA 3 2020.11.14 - 01.08.19.91.mp42">
												<name>ArmA 3 2020.11.14 - 01.08.19.91.mp4</name>
												<duration>894</duration>
												<rate>
													<ntsc>TRUE</ntsc>
													<timebase>24</timebase>
												</rate>
												<in>0</in>
												<out>894</out>
												<start>0</start>
												<end>894</end>
												<masterclipid>ArmA 3 2020.11.14 - 01.08.19.91.mp4</masterclipid>
												<logginginfo>
													<scene />
													<shottake />
													<lognote />
													<good>FALSE</good>
												</logginginfo>
												<labels>
													<label2 />
												</labels>
												<comments>
													<mastercomment1 />
													<mastercomment2 />
													<mastercomment3 />
													<mastercomment4 />
												</comments>
												<file id="ArmA 3 2020.11.14 - 01.08.19.91" />
												<sourcetrack>
													<mediatype>audio</mediatype>
												</sourcetrack>
											</clipitem>
											<enabled>TRUE</enabled>
											<locked>FALSE</locked>
										</track>
										<track>
											<clipitem id="ArmA 3 2020.11.14 - 01.08.19.91.mp43">
												<name>ArmA 3 2020.11.14 - 01.08.19.91.mp4</name>
												<duration>894</duration>
												<rate>
													<ntsc>TRUE</ntsc>
													<timebase>24</timebase>
												</rate>
												<in>0</in>
												<out>894</out>
												<start>0</start>
												<end>894</end>
												<masterclipid>ArmA 3 2020.11.14 - 01.08.19.91.mp4</masterclipid>
												<logginginfo>
													<scene />
													<shottake />
													<lognote />
													<good>FALSE</good>
												</logginginfo>
												<labels>
													<label2 />
												</labels>
												<comments>
													<mastercomment1 />
													<mastercomment2 />
													<mastercomment3 />
													<mastercomment4 />
												</comments>
												<file id="ArmA 3 2020.11.14 - 01.08.19.91" />
												<sourcetrack>
													<mediatype>audio</mediatype>
												</sourcetrack>
											</clipitem>
											<enabled>TRUE</enabled>
											<locked>FALSE</locked>
										</track>
									</audio>
								</media>
							</clip>
							<clip id="ArmA 3 2020.11.14 - 01.09.43.92.mp4">
								<updatebehavior>add</updatebehavior>
								<name>ArmA 3 2020.11.14 - 01.09.43.92.mp4</name>
								<duration>704</duration>
								<rate>
									<ntsc>FALSE</ntsc>
									<timebase>60</timebase>
								</rate>
								<in>-1</in>
								<out>-1</out>
								<masterclipid>ArmA 3 2020.11.14 - 01.09.43.92.mp4</masterclipid>
								<ismasterclip>TRUE</ismasterclip>
								<logginginfo>
									<scene />
									<shottake />
									<lognote />
									<good>FALSE</good>
								</logginginfo>
								<labels>
									<label2 />
								</labels>
								<comments>
									<mastercomment1 />
									<mastercomment2 />
									<mastercomment3 />
									<mastercomment4 />
								</comments>
								<media>
									<video>
										<track>
											<clipitem id="ArmA 3 2020.11.14 - 01.09.43.92.mp41">
												<name>ArmA 3 2020.11.14 - 01.09.43.92.mp4</name>
												<duration>704</duration>
												<rate>
													<ntsc>FALSE</ntsc>
													<timebase>60</timebase>
												</rate>
												<in>0</in>
												<out>704</out>
												<start>0</start>
												<end>704</end>
												<pixelaspectratio>Square</pixelaspectratio>
												<anamorphic>FALSE</anamorphic>
												<alphatype>none</alphatype>
												<masterclipid>ArmA 3 2020.11.14 - 01.09.43.92.mp4</masterclipid>
												<logginginfo>
													<scene />
													<shottake />
													<lognote />
													<good>FALSE</good>
												</logginginfo>
												<labels>
													<label2 />
												</labels>
												<comments>
													<mastercomment1 />
													<mastercomment2 />
													<mastercomment3 />
													<mastercomment4 />
												</comments>
												<file id="ArmA 3 2020.11.14 - 01.09.43.92">
													<name>ArmA 3 2020.11.14 - 01.09.43.92.mp4</name>
													<pathurl>file://localhost/F:/AMVS Russia/NaturaDestruction/PRPACK5/ArmA 3 2020.11.14 - 01.09.43.92.mp4</pathurl>
													<rate>
														<timebase>60</timebase>
														<ntsc>FALSE</ntsc>
													</rate>
													<duration>704</duration>
													<timecode>
														<rate>
															<timebase>60</timebase>
															<ntsc>FALSE</ntsc>
														</rate>
														<frame>0</frame>
														<displayformat>NDF</displayformat>
														<source>source</source>
													</timecode>
													<media>
														<video>
															<duration>704</duration>
															<samplecharacteristics>
																<width>1920</width>
																<height>1080</height>
															</samplecharacteristics>
														</video>
														<audio>
															<samplecharacteristics>
																<samplerate>48000</samplerate>
																<depth>32</depth>
															</samplecharacteristics>
															<channelcount>1</channelcount>
														</audio>
														<audio>
															<samplecharacteristics>
																<samplerate>48000</samplerate>
																<depth>32</depth>
															</samplecharacteristics>
															<channelcount>1</channelcount>
														</audio>
													</media>
												</file>
												<sourcetrack>
													<mediatype>video</mediatype>
												</sourcetrack>
												<fielddominance>none</fielddominance>
											</clipitem>
											<enabled>TRUE</enabled>
											<locked>FALSE</locked>
										</track>
									</video>
									<audio>
										<track>
											<clipitem id="ArmA 3 2020.11.14 - 01.09.43.92.mp42">
												<name>ArmA 3 2020.11.14 - 01.09.43.92.mp4</name>
												<duration>704</duration>
												<rate>
													<ntsc>TRUE</ntsc>
													<timebase>24</timebase>
												</rate>
												<in>0</in>
												<out>704</out>
												<start>0</start>
												<end>704</end>
												<masterclipid>ArmA 3 2020.11.14 - 01.09.43.92.mp4</masterclipid>
												<logginginfo>
													<scene />
													<shottake />
													<lognote />
													<good>FALSE</good>
												</logginginfo>
												<labels>
													<label2 />
												</labels>
												<comments>
													<mastercomment1 />
													<mastercomment2 />
													<mastercomment3 />
													<mastercomment4 />
												</comments>
												<file id="ArmA 3 2020.11.14 - 01.09.43.92" />
												<sourcetrack>
													<mediatype>audio</mediatype>
												</sourcetrack>
											</clipitem>
											<enabled>TRUE</enabled>
											<locked>FALSE</locked>
										</track>
										<track>
											<clipitem id="ArmA 3 2020.11.14 - 01.09.43.92.mp43">
												<name>ArmA 3 2020.11.14 - 01.09.43.92.mp4</name>
												<duration>704</duration>
												<rate>
													<ntsc>TRUE</ntsc>
													<timebase>24</timebase>
												</rate>
												<in>0</in>
												<out>704</out>
												<start>0</start>
												<end>704</end>
												<masterclipid>ArmA 3 2020.11.14 - 01.09.43.92.mp4</masterclipid>
												<logginginfo>
													<scene />
													<shottake />
													<lognote />
													<good>FALSE</good>
												</logginginfo>
												<labels>
													<label2 />
												</labels>
												<comments>
													<mastercomment1 />
													<mastercomment2 />
													<mastercomment3 />
													<mastercomment4 />
												</comments>
												<file id="ArmA 3 2020.11.14 - 01.09.43.92" />
												<sourcetrack>
													<mediatype>audio</mediatype>
												</sourcetrack>
											</clipitem>
											<enabled>TRUE</enabled>
											<locked>FALSE</locked>
										</track>
									</audio>
								</media>
							</clip>
							<clip id="ArmA 3 2020.11.14 - 01.10.27.93.mp4">
								<updatebehavior>add</updatebehavior>
								<name>ArmA 3 2020.11.14 - 01.10.27.93.mp4</name>
								<duration>653</duration>
								<rate>
									<ntsc>FALSE</ntsc>
									<timebase>60</timebase>
								</rate>
								<in>-1</in>
								<out>-1</out>
								<masterclipid>ArmA 3 2020.11.14 - 01.10.27.93.mp4</masterclipid>
								<ismasterclip>TRUE</ismasterclip>
								<logginginfo>
									<scene />
									<shottake />
									<lognote />
									<good>FALSE</good>
								</logginginfo>
								<labels>
									<label2 />
								</labels>
								<comments>
									<mastercomment1 />
									<mastercomment2 />
									<mastercomment3 />
									<mastercomment4 />
								</comments>
								<media>
									<video>
										<track>
											<clipitem id="ArmA 3 2020.11.14 - 01.10.27.93.mp41">
												<name>ArmA 3 2020.11.14 - 01.10.27.93.mp4</name>
												<duration>653</duration>
												<rate>
													<ntsc>FALSE</ntsc>
													<timebase>60</timebase>
												</rate>
												<in>0</in>
												<out>653</out>
												<start>0</start>
												<end>653</end>
												<pixelaspectratio>Square</pixelaspectratio>
												<anamorphic>FALSE</anamorphic>
												<alphatype>none</alphatype>
												<masterclipid>ArmA 3 2020.11.14 - 01.10.27.93.mp4</masterclipid>
												<logginginfo>
													<scene />
													<shottake />
													<lognote />
													<good>FALSE</good>
												</logginginfo>
												<labels>
													<label2 />
												</labels>
												<comments>
													<mastercomment1 />
													<mastercomment2 />
													<mastercomment3 />
													<mastercomment4 />
												</comments>
												<file id="ArmA 3 2020.11.14 - 01.10.27.93">
													<name>ArmA 3 2020.11.14 - 01.10.27.93.mp4</name>
													<pathurl>file://localhost/F:/AMVS Russia/NaturaDestruction/PRPACK5/ArmA 3 2020.11.14 - 01.10.27.93.mp4</pathurl>
													<rate>
														<timebase>60</timebase>
														<ntsc>FALSE</ntsc>
													</rate>
													<duration>653</duration>
													<timecode>
														<rate>
															<timebase>60</timebase>
															<ntsc>FALSE</ntsc>
														</rate>
														<frame>0</frame>
														<displayformat>NDF</displayformat>
														<source>source</source>
													</timecode>
													<media>
														<video>
															<duration>653</duration>
															<samplecharacteristics>
																<width>1920</width>
																<height>1080</height>
															</samplecharacteristics>
														</video>
														<audio>
															<samplecharacteristics>
																<samplerate>48000</samplerate>
																<depth>32</depth>
															</samplecharacteristics>
															<channelcount>1</channelcount>
														</audio>
														<audio>
															<samplecharacteristics>
																<samplerate>48000</samplerate>
																<depth>32</depth>
															</samplecharacteristics>
															<channelcount>1</channelcount>
														</audio>
													</media>
												</file>
												<sourcetrack>
													<mediatype>video</mediatype>
												</sourcetrack>
												<fielddominance>none</fielddominance>
											</clipitem>
											<enabled>TRUE</enabled>
											<locked>FALSE</locked>
										</track>
									</video>
									<audio>
										<track>
											<clipitem id="ArmA 3 2020.11.14 - 01.10.27.93.mp42">
												<name>ArmA 3 2020.11.14 - 01.10.27.93.mp4</name>
												<duration>653</duration>
												<rate>
													<ntsc>TRUE</ntsc>
													<timebase>24</timebase>
												</rate>
												<in>0</in>
												<out>653</out>
												<start>0</start>
												<end>653</end>
												<masterclipid>ArmA 3 2020.11.14 - 01.10.27.93.mp4</masterclipid>
												<logginginfo>
													<scene />
													<shottake />
													<lognote />
													<good>FALSE</good>
												</logginginfo>
												<labels>
													<label2 />
												</labels>
												<comments>
													<mastercomment1 />
													<mastercomment2 />
													<mastercomment3 />
													<mastercomment4 />
												</comments>
												<file id="ArmA 3 2020.11.14 - 01.10.27.93" />
												<sourcetrack>
													<mediatype>audio</mediatype>
												</sourcetrack>
											</clipitem>
											<enabled>TRUE</enabled>
											<locked>FALSE</locked>
										</track>
										<track>
											<clipitem id="ArmA 3 2020.11.14 - 01.10.27.93.mp43">
												<name>ArmA 3 2020.11.14 - 01.10.27.93.mp4</name>
												<duration>653</duration>
												<rate>
													<ntsc>TRUE</ntsc>
													<timebase>24</timebase>
												</rate>
												<in>0</in>
												<out>653</out>
												<start>0</start>
												<end>653</end>
												<masterclipid>ArmA 3 2020.11.14 - 01.10.27.93.mp4</masterclipid>
												<logginginfo>
													<scene />
													<shottake />
													<lognote />
													<good>FALSE</good>
												</logginginfo>
												<labels>
													<label2 />
												</labels>
												<comments>
													<mastercomment1 />
													<mastercomment2 />
													<mastercomment3 />
													<mastercomment4 />
												</comments>
												<file id="ArmA 3 2020.11.14 - 01.10.27.93" />
												<sourcetrack>
													<mediatype>audio</mediatype>
												</sourcetrack>
											</clipitem>
											<enabled>TRUE</enabled>
											<locked>FALSE</locked>
										</track>
									</audio>
								</media>
							</clip>
							<clip id="ArmA 3 2020.11.14 - 01.11.14.94.mp4">
								<updatebehavior>add</updatebehavior>
								<name>ArmA 3 2020.11.14 - 01.11.14.94.mp4</name>
								<duration>682</duration>
								<rate>
									<ntsc>FALSE</ntsc>
									<timebase>60</timebase>
								</rate>
								<in>-1</in>
								<out>-1</out>
								<masterclipid>ArmA 3 2020.11.14 - 01.11.14.94.mp4</masterclipid>
								<ismasterclip>TRUE</ismasterclip>
								<logginginfo>
									<scene />
									<shottake />
									<lognote />
									<good>FALSE</good>
								</logginginfo>
								<labels>
									<label2 />
								</labels>
								<comments>
									<mastercomment1 />
									<mastercomment2 />
									<mastercomment3 />
									<mastercomment4 />
								</comments>
								<media>
									<video>
										<track>
											<clipitem id="ArmA 3 2020.11.14 - 01.11.14.94.mp41">
												<name>ArmA 3 2020.11.14 - 01.11.14.94.mp4</name>
												<duration>682</duration>
												<rate>
													<ntsc>FALSE</ntsc>
													<timebase>60</timebase>
												</rate>
												<in>0</in>
												<out>682</out>
												<start>0</start>
												<end>682</end>
												<pixelaspectratio>Square</pixelaspectratio>
												<anamorphic>FALSE</anamorphic>
												<alphatype>none</alphatype>
												<masterclipid>ArmA 3 2020.11.14 - 01.11.14.94.mp4</masterclipid>
												<logginginfo>
													<scene />
													<shottake />
													<lognote />
													<good>FALSE</good>
												</logginginfo>
												<labels>
													<label2 />
												</labels>
												<comments>
													<mastercomment1 />
													<mastercomment2 />
													<mastercomment3 />
													<mastercomment4 />
												</comments>
												<file id="ArmA 3 2020.11.14 - 01.11.14.94">
													<name>ArmA 3 2020.11.14 - 01.11.14.94.mp4</name>
													<pathurl>file://localhost/F:/AMVS Russia/NaturaDestruction/PRPACK5/ArmA 3 2020.11.14 - 01.11.14.94.mp4</pathurl>
													<rate>
														<timebase>60</timebase>
														<ntsc>FALSE</ntsc>
													</rate>
													<duration>682</duration>
													<timecode>
														<rate>
															<timebase>60</timebase>
															<ntsc>FALSE</ntsc>
														</rate>
														<frame>0</frame>
														<displayformat>NDF</displayformat>
														<source>source</source>
													</timecode>
													<media>
														<video>
															<duration>682</duration>
															<samplecharacteristics>
																<width>1920</width>
																<height>1080</height>
															</samplecharacteristics>
														</video>
														<audio>
															<samplecharacteristics>
																<samplerate>48000</samplerate>
																<depth>32</depth>
															</samplecharacteristics>
															<channelcount>1</channelcount>
														</audio>
														<audio>
															<samplecharacteristics>
																<samplerate>48000</samplerate>
																<depth>32</depth>
															</samplecharacteristics>
															<channelcount>1</channelcount>
														</audio>
													</media>
												</file>
												<sourcetrack>
													<mediatype>video</mediatype>
												</sourcetrack>
												<fielddominance>none</fielddominance>
											</clipitem>
											<enabled>TRUE</enabled>
											<locked>FALSE</locked>
										</track>
									</video>
									<audio>
										<track>
											<clipitem id="ArmA 3 2020.11.14 - 01.11.14.94.mp42">
												<name>ArmA 3 2020.11.14 - 01.11.14.94.mp4</name>
												<duration>682</duration>
												<rate>
													<ntsc>TRUE</ntsc>
													<timebase>24</timebase>
												</rate>
												<in>0</in>
												<out>682</out>
												<start>0</start>
												<end>682</end>
												<masterclipid>ArmA 3 2020.11.14 - 01.11.14.94.mp4</masterclipid>
												<logginginfo>
													<scene />
													<shottake />
													<lognote />
													<good>FALSE</good>
												</logginginfo>
												<labels>
													<label2 />
												</labels>
												<comments>
													<mastercomment1 />
													<mastercomment2 />
													<mastercomment3 />
													<mastercomment4 />
												</comments>
												<file id="ArmA 3 2020.11.14 - 01.11.14.94" />
												<sourcetrack>
													<mediatype>audio</mediatype>
												</sourcetrack>
											</clipitem>
											<enabled>TRUE</enabled>
											<locked>FALSE</locked>
										</track>
										<track>
											<clipitem id="ArmA 3 2020.11.14 - 01.11.14.94.mp43">
												<name>ArmA 3 2020.11.14 - 01.11.14.94.mp4</name>
												<duration>682</duration>
												<rate>
													<ntsc>TRUE</ntsc>
													<timebase>24</timebase>
												</rate>
												<in>0</in>
												<out>682</out>
												<start>0</start>
												<end>682</end>
												<masterclipid>ArmA 3 2020.11.14 - 01.11.14.94.mp4</masterclipid>
												<logginginfo>
													<scene />
													<shottake />
													<lognote />
													<good>FALSE</good>
												</logginginfo>
												<labels>
													<label2 />
												</labels>
												<comments>
													<mastercomment1 />
													<mastercomment2 />
													<mastercomment3 />
													<mastercomment4 />
												</comments>
												<file id="ArmA 3 2020.11.14 - 01.11.14.94" />
												<sourcetrack>
													<mediatype>audio</mediatype>
												</sourcetrack>
											</clipitem>
											<enabled>TRUE</enabled>
											<locked>FALSE</locked>
										</track>
									</audio>
								</media>
							</clip>
							<clip id="ArmA 3 2020.11.14 - 01.13.07.95.mp4">
								<updatebehavior>add</updatebehavior>
								<name>ArmA 3 2020.11.14 - 01.13.07.95.mp4</name>
								<duration>837</duration>
								<rate>
									<ntsc>FALSE</ntsc>
									<timebase>60</timebase>
								</rate>
								<in>-1</in>
								<out>-1</out>
								<masterclipid>ArmA 3 2020.11.14 - 01.13.07.95.mp4</masterclipid>
								<ismasterclip>TRUE</ismasterclip>
								<logginginfo>
									<scene />
									<shottake />
									<lognote />
									<good>FALSE</good>
								</logginginfo>
								<labels>
									<label2 />
								</labels>
								<comments>
									<mastercomment1 />
									<mastercomment2 />
									<mastercomment3 />
									<mastercomment4 />
								</comments>
								<media>
									<video>
										<track>
											<clipitem id="ArmA 3 2020.11.14 - 01.13.07.95.mp41">
												<name>ArmA 3 2020.11.14 - 01.13.07.95.mp4</name>
												<duration>837</duration>
												<rate>
													<ntsc>FALSE</ntsc>
													<timebase>60</timebase>
												</rate>
												<in>0</in>
												<out>837</out>
												<start>0</start>
												<end>837</end>
												<pixelaspectratio>Square</pixelaspectratio>
												<anamorphic>FALSE</anamorphic>
												<alphatype>none</alphatype>
												<masterclipid>ArmA 3 2020.11.14 - 01.13.07.95.mp4</masterclipid>
												<logginginfo>
													<scene />
													<shottake />
													<lognote />
													<good>FALSE</good>
												</logginginfo>
												<labels>
													<label2 />
												</labels>
												<comments>
													<mastercomment1 />
													<mastercomment2 />
													<mastercomment3 />
													<mastercomment4 />
												</comments>
												<file id="ArmA 3 2020.11.14 - 01.13.07.95">
													<name>ArmA 3 2020.11.14 - 01.13.07.95.mp4</name>
													<pathurl>file://localhost/F:/AMVS Russia/NaturaDestruction/PRPACK5/ArmA 3 2020.11.14 - 01.13.07.95.mp4</pathurl>
													<rate>
														<timebase>60</timebase>
														<ntsc>FALSE</ntsc>
													</rate>
													<duration>837</duration>
													<timecode>
														<rate>
															<timebase>60</timebase>
															<ntsc>FALSE</ntsc>
														</rate>
														<frame>0</frame>
														<displayformat>NDF</displayformat>
														<source>source</source>
													</timecode>
													<media>
														<video>
															<duration>837</duration>
															<samplecharacteristics>
																<width>1920</width>
																<height>1080</height>
															</samplecharacteristics>
														</video>
														<audio>
															<samplecharacteristics>
																<samplerate>48000</samplerate>
																<depth>32</depth>
															</samplecharacteristics>
															<channelcount>1</channelcount>
														</audio>
														<audio>
															<samplecharacteristics>
																<samplerate>48000</samplerate>
																<depth>32</depth>
															</samplecharacteristics>
															<channelcount>1</channelcount>
														</audio>
													</media>
												</file>
												<sourcetrack>
													<mediatype>video</mediatype>
												</sourcetrack>
												<fielddominance>none</fielddominance>
											</clipitem>
											<enabled>TRUE</enabled>
											<locked>FALSE</locked>
										</track>
									</video>
									<audio>
										<track>
											<clipitem id="ArmA 3 2020.11.14 - 01.13.07.95.mp42">
												<name>ArmA 3 2020.11.14 - 01.13.07.95.mp4</name>
												<duration>837</duration>
												<rate>
													<ntsc>TRUE</ntsc>
													<timebase>24</timebase>
												</rate>
												<in>0</in>
												<out>837</out>
												<start>0</start>
												<end>837</end>
												<masterclipid>ArmA 3 2020.11.14 - 01.13.07.95.mp4</masterclipid>
												<logginginfo>
													<scene />
													<shottake />
													<lognote />
													<good>FALSE</good>
												</logginginfo>
												<labels>
													<label2 />
												</labels>
												<comments>
													<mastercomment1 />
													<mastercomment2 />
													<mastercomment3 />
													<mastercomment4 />
												</comments>
												<file id="ArmA 3 2020.11.14 - 01.13.07.95" />
												<sourcetrack>
													<mediatype>audio</mediatype>
												</sourcetrack>
											</clipitem>
											<enabled>TRUE</enabled>
											<locked>FALSE</locked>
										</track>
										<track>
											<clipitem id="ArmA 3 2020.11.14 - 01.13.07.95.mp43">
												<name>ArmA 3 2020.11.14 - 01.13.07.95.mp4</name>
												<duration>837</duration>
												<rate>
													<ntsc>TRUE</ntsc>
													<timebase>24</timebase>
												</rate>
												<in>0</in>
												<out>837</out>
												<start>0</start>
												<end>837</end>
												<masterclipid>ArmA 3 2020.11.14 - 01.13.07.95.mp4</masterclipid>
												<logginginfo>
													<scene />
													<shottake />
													<lognote />
													<good>FALSE</good>
												</logginginfo>
												<labels>
													<label2 />
												</labels>
												<comments>
													<mastercomment1 />
													<mastercomment2 />
													<mastercomment3 />
													<mastercomment4 />
												</comments>
												<file id="ArmA 3 2020.11.14 - 01.13.07.95" />
												<sourcetrack>
													<mediatype>audio</mediatype>
												</sourcetrack>
											</clipitem>
											<enabled>TRUE</enabled>
											<locked>FALSE</locked>
										</track>
									</audio>
								</media>
							</clip>
							<clip id="ArmA 3 2020.11.14 - 01.17.25.96.mp4">
								<updatebehavior>add</updatebehavior>
								<name>ArmA 3 2020.11.14 - 01.17.25.96.mp4</name>
								<duration>1040</duration>
								<rate>
									<ntsc>FALSE</ntsc>
									<timebase>60</timebase>
								</rate>
								<in>-1</in>
								<out>-1</out>
								<masterclipid>ArmA 3 2020.11.14 - 01.17.25.96.mp4</masterclipid>
								<ismasterclip>TRUE</ismasterclip>
								<logginginfo>
									<scene />
									<shottake />
									<lognote />
									<good>FALSE</good>
								</logginginfo>
								<labels>
									<label2 />
								</labels>
								<comments>
									<mastercomment1 />
									<mastercomment2 />
									<mastercomment3 />
									<mastercomment4 />
								</comments>
								<media>
									<video>
										<track>
											<clipitem id="ArmA 3 2020.11.14 - 01.17.25.96.mp41">
												<name>ArmA 3 2020.11.14 - 01.17.25.96.mp4</name>
												<duration>1040</duration>
												<rate>
													<ntsc>FALSE</ntsc>
													<timebase>60</timebase>
												</rate>
												<in>0</in>
												<out>1040</out>
												<start>0</start>
												<end>1040</end>
												<pixelaspectratio>Square</pixelaspectratio>
												<anamorphic>FALSE</anamorphic>
												<alphatype>none</alphatype>
												<masterclipid>ArmA 3 2020.11.14 - 01.17.25.96.mp4</masterclipid>
												<logginginfo>
													<scene />
													<shottake />
													<lognote />
													<good>FALSE</good>
												</logginginfo>
												<labels>
													<label2 />
												</labels>
												<comments>
													<mastercomment1 />
													<mastercomment2 />
													<mastercomment3 />
													<mastercomment4 />
												</comments>
												<file id="ArmA 3 2020.11.14 - 01.17.25.96">
													<name>ArmA 3 2020.11.14 - 01.17.25.96.mp4</name>
													<pathurl>file://localhost/F:/AMVS Russia/NaturaDestruction/PRPACK4/ArmA 3 2020.11.14 - 01.17.25.96.mp4</pathurl>
													<rate>
														<timebase>60</timebase>
														<ntsc>FALSE</ntsc>
													</rate>
													<duration>1040</duration>
													<timecode>
														<rate>
															<timebase>60</timebase>
															<ntsc>FALSE</ntsc>
														</rate>
														<frame>0</frame>
														<displayformat>NDF</displayformat>
														<source>source</source>
													</timecode>
													<media>
														<video>
															<duration>1040</duration>
															<samplecharacteristics>
																<width>1920</width>
																<height>1080</height>
															</samplecharacteristics>
														</video>
														<audio>
															<samplecharacteristics>
																<samplerate>48000</samplerate>
																<depth>32</depth>
															</samplecharacteristics>
															<channelcount>1</channelcount>
														</audio>
														<audio>
															<samplecharacteristics>
																<samplerate>48000</samplerate>
																<depth>32</depth>
															</samplecharacteristics>
															<channelcount>1</channelcount>
														</audio>
													</media>
												</file>
												<sourcetrack>
													<mediatype>video</mediatype>
												</sourcetrack>
												<fielddominance>none</fielddominance>
											</clipitem>
											<enabled>TRUE</enabled>
											<locked>FALSE</locked>
										</track>
									</video>
									<audio>
										<track>
											<clipitem id="ArmA 3 2020.11.14 - 01.17.25.96.mp42">
												<name>ArmA 3 2020.11.14 - 01.17.25.96.mp4</name>
												<duration>1040</duration>
												<rate>
													<ntsc>TRUE</ntsc>
													<timebase>24</timebase>
												</rate>
												<in>0</in>
												<out>1040</out>
												<start>0</start>
												<end>1040</end>
												<masterclipid>ArmA 3 2020.11.14 - 01.17.25.96.mp4</masterclipid>
												<logginginfo>
													<scene />
													<shottake />
													<lognote />
													<good>FALSE</good>
												</logginginfo>
												<labels>
													<label2 />
												</labels>
												<comments>
													<mastercomment1 />
													<mastercomment2 />
													<mastercomment3 />
													<mastercomment4 />
												</comments>
												<file id="ArmA 3 2020.11.14 - 01.17.25.96" />
												<sourcetrack>
													<mediatype>audio</mediatype>
												</sourcetrack>
											</clipitem>
											<enabled>TRUE</enabled>
											<locked>FALSE</locked>
										</track>
										<track>
											<clipitem id="ArmA 3 2020.11.14 - 01.17.25.96.mp43">
												<name>ArmA 3 2020.11.14 - 01.17.25.96.mp4</name>
												<duration>1040</duration>
												<rate>
													<ntsc>TRUE</ntsc>
													<timebase>24</timebase>
												</rate>
												<in>0</in>
												<out>1040</out>
												<start>0</start>
												<end>1040</end>
												<masterclipid>ArmA 3 2020.11.14 - 01.17.25.96.mp4</masterclipid>
												<logginginfo>
													<scene />
													<shottake />
													<lognote />
													<good>FALSE</good>
												</logginginfo>
												<labels>
													<label2 />
												</labels>
												<comments>
													<mastercomment1 />
													<mastercomment2 />
													<mastercomment3 />
													<mastercomment4 />
												</comments>
												<file id="ArmA 3 2020.11.14 - 01.17.25.96" />
												<sourcetrack>
													<mediatype>audio</mediatype>
												</sourcetrack>
											</clipitem>
											<enabled>TRUE</enabled>
											<locked>FALSE</locked>
										</track>
									</audio>
								</media>
							</clip>
							<clip id="ArmA 3 2020.11.14 - 01.18.27.97.mp4">
								<updatebehavior>add</updatebehavior>
								<name>ArmA 3 2020.11.14 - 01.18.27.97.mp4</name>
								<duration>723</duration>
								<rate>
									<ntsc>FALSE</ntsc>
									<timebase>60</timebase>
								</rate>
								<in>-1</in>
								<out>-1</out>
								<masterclipid>ArmA 3 2020.11.14 - 01.18.27.97.mp4</masterclipid>
								<ismasterclip>TRUE</ismasterclip>
								<logginginfo>
									<scene />
									<shottake />
									<lognote />
									<good>FALSE</good>
								</logginginfo>
								<labels>
									<label2 />
								</labels>
								<comments>
									<mastercomment1 />
									<mastercomment2 />
									<mastercomment3 />
									<mastercomment4 />
								</comments>
								<media>
									<video>
										<track>
											<clipitem id="ArmA 3 2020.11.14 - 01.18.27.97.mp41">
												<name>ArmA 3 2020.11.14 - 01.18.27.97.mp4</name>
												<duration>723</duration>
												<rate>
													<ntsc>FALSE</ntsc>
													<timebase>60</timebase>
												</rate>
												<in>0</in>
												<out>723</out>
												<start>0</start>
												<end>723</end>
												<pixelaspectratio>Square</pixelaspectratio>
												<anamorphic>FALSE</anamorphic>
												<alphatype>none</alphatype>
												<masterclipid>ArmA 3 2020.11.14 - 01.18.27.97.mp4</masterclipid>
												<logginginfo>
													<scene />
													<shottake />
													<lognote />
													<good>FALSE</good>
												</logginginfo>
												<labels>
													<label2 />
												</labels>
												<comments>
													<mastercomment1 />
													<mastercomment2 />
													<mastercomment3 />
													<mastercomment4 />
												</comments>
												<file id="ArmA 3 2020.11.14 - 01.18.27.97">
													<name>ArmA 3 2020.11.14 - 01.18.27.97.mp4</name>
													<pathurl>file://localhost/F:/AMVS Russia/NaturaDestruction/PRPACK6/ArmA 3 2020.11.14 - 01.18.27.97.mp4</pathurl>
													<rate>
														<timebase>60</timebase>
														<ntsc>FALSE</ntsc>
													</rate>
													<duration>723</duration>
													<timecode>
														<rate>
															<timebase>60</timebase>
															<ntsc>FALSE</ntsc>
														</rate>
														<frame>0</frame>
														<displayformat>NDF</displayformat>
														<source>source</source>
													</timecode>
													<media>
														<video>
															<duration>723</duration>
															<samplecharacteristics>
																<width>1920</width>
																<height>1080</height>
															</samplecharacteristics>
														</video>
														<audio>
															<samplecharacteristics>
																<samplerate>48000</samplerate>
																<depth>32</depth>
															</samplecharacteristics>
															<channelcount>1</channelcount>
														</audio>
														<audio>
															<samplecharacteristics>
																<samplerate>48000</samplerate>
																<depth>32</depth>
															</samplecharacteristics>
															<channelcount>1</channelcount>
														</audio>
													</media>
												</file>
												<sourcetrack>
													<mediatype>video</mediatype>
												</sourcetrack>
												<fielddominance>none</fielddominance>
											</clipitem>
											<enabled>TRUE</enabled>
											<locked>FALSE</locked>
										</track>
									</video>
									<audio>
										<track>
											<clipitem id="ArmA 3 2020.11.14 - 01.18.27.97.mp42">
												<name>ArmA 3 2020.11.14 - 01.18.27.97.mp4</name>
												<duration>723</duration>
												<rate>
													<ntsc>TRUE</ntsc>
													<timebase>24</timebase>
												</rate>
												<in>0</in>
												<out>723</out>
												<start>0</start>
												<end>723</end>
												<masterclipid>ArmA 3 2020.11.14 - 01.18.27.97.mp4</masterclipid>
												<logginginfo>
													<scene />
													<shottake />
													<lognote />
													<good>FALSE</good>
												</logginginfo>
												<labels>
													<label2 />
												</labels>
												<comments>
													<mastercomment1 />
													<mastercomment2 />
													<mastercomment3 />
													<mastercomment4 />
												</comments>
												<file id="ArmA 3 2020.11.14 - 01.18.27.97" />
												<sourcetrack>
													<mediatype>audio</mediatype>
												</sourcetrack>
											</clipitem>
											<enabled>TRUE</enabled>
											<locked>FALSE</locked>
										</track>
										<track>
											<clipitem id="ArmA 3 2020.11.14 - 01.18.27.97.mp43">
												<name>ArmA 3 2020.11.14 - 01.18.27.97.mp4</name>
												<duration>723</duration>
												<rate>
													<ntsc>TRUE</ntsc>
													<timebase>24</timebase>
												</rate>
												<in>0</in>
												<out>723</out>
												<start>0</start>
												<end>723</end>
												<masterclipid>ArmA 3 2020.11.14 - 01.18.27.97.mp4</masterclipid>
												<logginginfo>
													<scene />
													<shottake />
													<lognote />
													<good>FALSE</good>
												</logginginfo>
												<labels>
													<label2 />
												</labels>
												<comments>
													<mastercomment1 />
													<mastercomment2 />
													<mastercomment3 />
													<mastercomment4 />
												</comments>
												<file id="ArmA 3 2020.11.14 - 01.18.27.97" />
												<sourcetrack>
													<mediatype>audio</mediatype>
												</sourcetrack>
											</clipitem>
											<enabled>TRUE</enabled>
											<locked>FALSE</locked>
										</track>
									</audio>
								</media>
							</clip>
							<clip id="ArmA 3 2020.11.14 - 01.19.04.98.mp4">
								<updatebehavior>add</updatebehavior>
								<name>ArmA 3 2020.11.14 - 01.19.04.98.mp4</name>
								<duration>597</duration>
								<rate>
									<ntsc>FALSE</ntsc>
									<timebase>60</timebase>
								</rate>
								<in>-1</in>
								<out>-1</out>
								<masterclipid>ArmA 3 2020.11.14 - 01.19.04.98.mp4</masterclipid>
								<ismasterclip>TRUE</ismasterclip>
								<logginginfo>
									<scene />
									<shottake />
									<lognote />
									<good>FALSE</good>
								</logginginfo>
								<labels>
									<label2 />
								</labels>
								<comments>
									<mastercomment1 />
									<mastercomment2 />
									<mastercomment3 />
									<mastercomment4 />
								</comments>
								<media>
									<video>
										<track>
											<clipitem id="ArmA 3 2020.11.14 - 01.19.04.98.mp41">
												<name>ArmA 3 2020.11.14 - 01.19.04.98.mp4</name>
												<duration>597</duration>
												<rate>
													<ntsc>FALSE</ntsc>
													<timebase>60</timebase>
												</rate>
												<in>0</in>
												<out>597</out>
												<start>0</start>
												<end>597</end>
												<pixelaspectratio>Square</pixelaspectratio>
												<anamorphic>FALSE</anamorphic>
												<alphatype>none</alphatype>
												<masterclipid>ArmA 3 2020.11.14 - 01.19.04.98.mp4</masterclipid>
												<logginginfo>
													<scene />
													<shottake />
													<lognote />
													<good>FALSE</good>
												</logginginfo>
												<labels>
													<label2 />
												</labels>
												<comments>
													<mastercomment1 />
													<mastercomment2 />
													<mastercomment3 />
													<mastercomment4 />
												</comments>
												<file id="ArmA 3 2020.11.14 - 01.19.04.98">
													<name>ArmA 3 2020.11.14 - 01.19.04.98.mp4</name>
													<pathurl>file://localhost/F:/AMVS Russia/NaturaDestruction/PRPACK6/ArmA 3 2020.11.14 - 01.19.04.98.mp4</pathurl>
													<rate>
														<timebase>60</timebase>
														<ntsc>FALSE</ntsc>
													</rate>
													<duration>597</duration>
													<timecode>
														<rate>
															<timebase>60</timebase>
															<ntsc>FALSE</ntsc>
														</rate>
														<frame>0</frame>
														<displayformat>NDF</displayformat>
														<source>source</source>
													</timecode>
													<media>
														<video>
															<duration>597</duration>
															<samplecharacteristics>
																<width>1920</width>
																<height>1080</height>
															</samplecharacteristics>
														</video>
														<audio>
															<samplecharacteristics>
																<samplerate>48000</samplerate>
																<depth>32</depth>
															</samplecharacteristics>
															<channelcount>1</channelcount>
														</audio>
														<audio>
															<samplecharacteristics>
																<samplerate>48000</samplerate>
																<depth>32</depth>
															</samplecharacteristics>
															<channelcount>1</channelcount>
														</audio>
													</media>
												</file>
												<sourcetrack>
													<mediatype>video</mediatype>
												</sourcetrack>
												<fielddominance>none</fielddominance>
											</clipitem>
											<enabled>TRUE</enabled>
											<locked>FALSE</locked>
										</track>
									</video>
									<audio>
										<track>
											<clipitem id="ArmA 3 2020.11.14 - 01.19.04.98.mp42">
												<name>ArmA 3 2020.11.14 - 01.19.04.98.mp4</name>
												<duration>597</duration>
												<rate>
													<ntsc>TRUE</ntsc>
													<timebase>24</timebase>
												</rate>
												<in>0</in>
												<out>597</out>
												<start>0</start>
												<end>597</end>
												<masterclipid>ArmA 3 2020.11.14 - 01.19.04.98.mp4</masterclipid>
												<logginginfo>
													<scene />
													<shottake />
													<lognote />
													<good>FALSE</good>
												</logginginfo>
												<labels>
													<label2 />
												</labels>
												<comments>
													<mastercomment1 />
													<mastercomment2 />
													<mastercomment3 />
													<mastercomment4 />
												</comments>
												<file id="ArmA 3 2020.11.14 - 01.19.04.98" />
												<sourcetrack>
													<mediatype>audio</mediatype>
												</sourcetrack>
											</clipitem>
											<enabled>TRUE</enabled>
											<locked>FALSE</locked>
										</track>
										<track>
											<clipitem id="ArmA 3 2020.11.14 - 01.19.04.98.mp43">
												<name>ArmA 3 2020.11.14 - 01.19.04.98.mp4</name>
												<duration>597</duration>
												<rate>
													<ntsc>TRUE</ntsc>
													<timebase>24</timebase>
												</rate>
												<in>0</in>
												<out>597</out>
												<start>0</start>
												<end>597</end>
												<masterclipid>ArmA 3 2020.11.14 - 01.19.04.98.mp4</masterclipid>
												<logginginfo>
													<scene />
													<shottake />
													<lognote />
													<good>FALSE</good>
												</logginginfo>
												<labels>
													<label2 />
												</labels>
												<comments>
													<mastercomment1 />
													<mastercomment2 />
													<mastercomment3 />
													<mastercomment4 />
												</comments>
												<file id="ArmA 3 2020.11.14 - 01.19.04.98" />
												<sourcetrack>
													<mediatype>audio</mediatype>
												</sourcetrack>
											</clipitem>
											<enabled>TRUE</enabled>
											<locked>FALSE</locked>
										</track>
									</audio>
								</media>
							</clip>
							<clip id="ArmA 3 2020.11.14 - 01.19.30.99.mp4">
								<updatebehavior>add</updatebehavior>
								<name>ArmA 3 2020.11.14 - 01.19.30.99.mp4</name>
								<duration>782</duration>
								<rate>
									<ntsc>FALSE</ntsc>
									<timebase>60</timebase>
								</rate>
								<in>-1</in>
								<out>-1</out>
								<masterclipid>ArmA 3 2020.11.14 - 01.19.30.99.mp4</masterclipid>
								<ismasterclip>TRUE</ismasterclip>
								<logginginfo>
									<scene />
									<shottake />
									<lognote />
									<good>FALSE</good>
								</logginginfo>
								<labels>
									<label2 />
								</labels>
								<comments>
									<mastercomment1 />
									<mastercomment2 />
									<mastercomment3 />
									<mastercomment4 />
								</comments>
								<media>
									<video>
										<track>
											<clipitem id="ArmA 3 2020.11.14 - 01.19.30.99.mp41">
												<name>ArmA 3 2020.11.14 - 01.19.30.99.mp4</name>
												<duration>782</duration>
												<rate>
													<ntsc>FALSE</ntsc>
													<timebase>60</timebase>
												</rate>
												<in>0</in>
												<out>782</out>
												<start>0</start>
												<end>782</end>
												<pixelaspectratio>Square</pixelaspectratio>
												<anamorphic>FALSE</anamorphic>
												<alphatype>none</alphatype>
												<masterclipid>ArmA 3 2020.11.14 - 01.19.30.99.mp4</masterclipid>
												<logginginfo>
													<scene />
													<shottake />
													<lognote />
													<good>FALSE</good>
												</logginginfo>
												<labels>
													<label2 />
												</labels>
												<comments>
													<mastercomment1 />
													<mastercomment2 />
													<mastercomment3 />
													<mastercomment4 />
												</comments>
												<file id="ArmA 3 2020.11.14 - 01.19.30.99">
													<name>ArmA 3 2020.11.14 - 01.19.30.99.mp4</name>
													<pathurl>file://localhost/F:/AMVS Russia/NaturaDestruction/PRPACK5/ArmA 3 2020.11.14 - 01.19.30.99.mp4</pathurl>
													<rate>
														<timebase>60</timebase>
														<ntsc>FALSE</ntsc>
													</rate>
													<duration>782</duration>
													<timecode>
														<rate>
															<timebase>60</timebase>
															<ntsc>FALSE</ntsc>
														</rate>
														<frame>0</frame>
														<displayformat>NDF</displayformat>
														<source>source</source>
													</timecode>
													<media>
														<video>
															<duration>782</duration>
															<samplecharacteristics>
																<width>1920</width>
																<height>1080</height>
															</samplecharacteristics>
														</video>
														<audio>
															<samplecharacteristics>
																<samplerate>48000</samplerate>
																<depth>32</depth>
															</samplecharacteristics>
															<channelcount>1</channelcount>
														</audio>
														<audio>
															<samplecharacteristics>
																<samplerate>48000</samplerate>
																<depth>32</depth>
															</samplecharacteristics>
															<channelcount>1</channelcount>
														</audio>
													</media>
												</file>
												<sourcetrack>
													<mediatype>video</mediatype>
												</sourcetrack>
												<fielddominance>none</fielddominance>
											</clipitem>
											<enabled>TRUE</enabled>
											<locked>FALSE</locked>
										</track>
									</video>
									<audio>
										<track>
											<clipitem id="ArmA 3 2020.11.14 - 01.19.30.99.mp42">
												<name>ArmA 3 2020.11.14 - 01.19.30.99.mp4</name>
												<duration>782</duration>
												<rate>
													<ntsc>TRUE</ntsc>
													<timebase>24</timebase>
												</rate>
												<in>0</in>
												<out>782</out>
												<start>0</start>
												<end>782</end>
												<masterclipid>ArmA 3 2020.11.14 - 01.19.30.99.mp4</masterclipid>
												<logginginfo>
													<scene />
													<shottake />
													<lognote />
													<good>FALSE</good>
												</logginginfo>
												<labels>
													<label2 />
												</labels>
												<comments>
													<mastercomment1 />
													<mastercomment2 />
													<mastercomment3 />
													<mastercomment4 />
												</comments>
												<file id="ArmA 3 2020.11.14 - 01.19.30.99" />
												<sourcetrack>
													<mediatype>audio</mediatype>
												</sourcetrack>
											</clipitem>
											<enabled>TRUE</enabled>
											<locked>FALSE</locked>
										</track>
										<track>
											<clipitem id="ArmA 3 2020.11.14 - 01.19.30.99.mp43">
												<name>ArmA 3 2020.11.14 - 01.19.30.99.mp4</name>
												<duration>782</duration>
												<rate>
													<ntsc>TRUE</ntsc>
													<timebase>24</timebase>
												</rate>
												<in>0</in>
												<out>782</out>
												<start>0</start>
												<end>782</end>
												<masterclipid>ArmA 3 2020.11.14 - 01.19.30.99.mp4</masterclipid>
												<logginginfo>
													<scene />
													<shottake />
													<lognote />
													<good>FALSE</good>
												</logginginfo>
												<labels>
													<label2 />
												</labels>
												<comments>
													<mastercomment1 />
													<mastercomment2 />
													<mastercomment3 />
													<mastercomment4 />
												</comments>
												<file id="ArmA 3 2020.11.14 - 01.19.30.99" />
												<sourcetrack>
													<mediatype>audio</mediatype>
												</sourcetrack>
											</clipitem>
											<enabled>TRUE</enabled>
											<locked>FALSE</locked>
										</track>
									</audio>
								</media>
							</clip>
							<clip id="ArmA 3 2020.11.14 - 01.21.06.100.mp4">
								<updatebehavior>add</updatebehavior>
								<name>ArmA 3 2020.11.14 - 01.21.06.100.mp4</name>
								<duration>349</duration>
								<rate>
									<ntsc>FALSE</ntsc>
									<timebase>60</timebase>
								</rate>
								<in>-1</in>
								<out>-1</out>
								<masterclipid>ArmA 3 2020.11.14 - 01.21.06.100.mp4</masterclipid>
								<ismasterclip>TRUE</ismasterclip>
								<logginginfo>
									<scene />
									<shottake />
									<lognote />
									<good>FALSE</good>
								</logginginfo>
								<labels>
									<label2 />
								</labels>
								<comments>
									<mastercomment1 />
									<mastercomment2 />
									<mastercomment3 />
									<mastercomment4 />
								</comments>
								<media>
									<video>
										<track>
											<clipitem id="ArmA 3 2020.11.14 - 01.21.06.100.mp41">
												<name>ArmA 3 2020.11.14 - 01.21.06.100.mp4</name>
												<duration>349</duration>
												<rate>
													<ntsc>FALSE</ntsc>
													<timebase>60</timebase>
												</rate>
												<in>0</in>
												<out>349</out>
												<start>0</start>
												<end>349</end>
												<pixelaspectratio>Square</pixelaspectratio>
												<anamorphic>FALSE</anamorphic>
												<alphatype>none</alphatype>
												<masterclipid>ArmA 3 2020.11.14 - 01.21.06.100.mp4</masterclipid>
												<logginginfo>
													<scene />
													<shottake />
													<lognote />
													<good>FALSE</good>
												</logginginfo>
												<labels>
													<label2 />
												</labels>
												<comments>
													<mastercomment1 />
													<mastercomment2 />
													<mastercomment3 />
													<mastercomment4 />
												</comments>
												<file id="ArmA 3 2020.11.14 - 01.21.06.100">
													<name>ArmA 3 2020.11.14 - 01.21.06.100.mp4</name>
													<pathurl>file://localhost/F:/AMVS Russia/NaturaDestruction/PRPACK7/ArmA 3 2020.11.14 - 01.21.06.100.mp4</pathurl>
													<rate>
														<timebase>60</timebase>
														<ntsc>FALSE</ntsc>
													</rate>
													<duration>349</duration>
													<timecode>
														<rate>
															<timebase>60</timebase>
															<ntsc>FALSE</ntsc>
														</rate>
														<frame>0</frame>
														<displayformat>NDF</displayformat>
														<source>source</source>
													</timecode>
													<media>
														<video>
															<duration>349</duration>
															<samplecharacteristics>
																<width>1920</width>
																<height>1080</height>
															</samplecharacteristics>
														</video>
														<audio>
															<samplecharacteristics>
																<samplerate>48000</samplerate>
																<depth>32</depth>
															</samplecharacteristics>
															<channelcount>1</channelcount>
														</audio>
														<audio>
															<samplecharacteristics>
																<samplerate>48000</samplerate>
																<depth>32</depth>
															</samplecharacteristics>
															<channelcount>1</channelcount>
														</audio>
													</media>
												</file>
												<sourcetrack>
													<mediatype>video</mediatype>
												</sourcetrack>
												<fielddominance>none</fielddominance>
											</clipitem>
											<enabled>TRUE</enabled>
											<locked>FALSE</locked>
										</track>
									</video>
									<audio>
										<track>
											<clipitem id="ArmA 3 2020.11.14 - 01.21.06.100.mp42">
												<name>ArmA 3 2020.11.14 - 01.21.06.100.mp4</name>
												<duration>349</duration>
												<rate>
													<ntsc>TRUE</ntsc>
													<timebase>24</timebase>
												</rate>
												<in>0</in>
												<out>349</out>
												<start>0</start>
												<end>349</end>
												<masterclipid>ArmA 3 2020.11.14 - 01.21.06.100.mp4</masterclipid>
												<logginginfo>
													<scene />
													<shottake />
													<lognote />
													<good>FALSE</good>
												</logginginfo>
												<labels>
													<label2 />
												</labels>
												<comments>
													<mastercomment1 />
													<mastercomment2 />
													<mastercomment3 />
													<mastercomment4 />
												</comments>
												<file id="ArmA 3 2020.11.14 - 01.21.06.100" />
												<sourcetrack>
													<mediatype>audio</mediatype>
												</sourcetrack>
											</clipitem>
											<enabled>TRUE</enabled>
											<locked>FALSE</locked>
										</track>
										<track>
											<clipitem id="ArmA 3 2020.11.14 - 01.21.06.100.mp43">
												<name>ArmA 3 2020.11.14 - 01.21.06.100.mp4</name>
												<duration>349</duration>
												<rate>
													<ntsc>TRUE</ntsc>
													<timebase>24</timebase>
												</rate>
												<in>0</in>
												<out>349</out>
												<start>0</start>
												<end>349</end>
												<masterclipid>ArmA 3 2020.11.14 - 01.21.06.100.mp4</masterclipid>
												<logginginfo>
													<scene />
													<shottake />
													<lognote />
													<good>FALSE</good>
												</logginginfo>
												<labels>
													<label2 />
												</labels>
												<comments>
													<mastercomment1 />
													<mastercomment2 />
													<mastercomment3 />
													<mastercomment4 />
												</comments>
												<file id="ArmA 3 2020.11.14 - 01.21.06.100" />
												<sourcetrack>
													<mediatype>audio</mediatype>
												</sourcetrack>
											</clipitem>
											<enabled>TRUE</enabled>
											<locked>FALSE</locked>
										</track>
									</audio>
								</media>
							</clip>
							<clip id="ArmA 3 2020.11.14 - 01.21.52.101.mp4">
								<updatebehavior>add</updatebehavior>
								<name>ArmA 3 2020.11.14 - 01.21.52.101.mp4</name>
								<duration>1025</duration>
								<rate>
									<ntsc>FALSE</ntsc>
									<timebase>60</timebase>
								</rate>
								<in>-1</in>
								<out>-1</out>
								<masterclipid>ArmA 3 2020.11.14 - 01.21.52.101.mp4</masterclipid>
								<ismasterclip>TRUE</ismasterclip>
								<logginginfo>
									<scene />
									<shottake />
									<lognote />
									<good>FALSE</good>
								</logginginfo>
								<labels>
									<label2 />
								</labels>
								<comments>
									<mastercomment1 />
									<mastercomment2 />
									<mastercomment3 />
									<mastercomment4 />
								</comments>
								<media>
									<video>
										<track>
											<clipitem id="ArmA 3 2020.11.14 - 01.21.52.101.mp41">
												<name>ArmA 3 2020.11.14 - 01.21.52.101.mp4</name>
												<duration>1025</duration>
												<rate>
													<ntsc>FALSE</ntsc>
													<timebase>60</timebase>
												</rate>
												<in>0</in>
												<out>1025</out>
												<start>0</start>
												<end>1025</end>
												<pixelaspectratio>Square</pixelaspectratio>
												<anamorphic>FALSE</anamorphic>
												<alphatype>none</alphatype>
												<masterclipid>ArmA 3 2020.11.14 - 01.21.52.101.mp4</masterclipid>
												<logginginfo>
													<scene />
													<shottake />
													<lognote />
													<good>FALSE</good>
												</logginginfo>
												<labels>
													<label2 />
												</labels>
												<comments>
													<mastercomment1 />
													<mastercomment2 />
													<mastercomment3 />
													<mastercomment4 />
												</comments>
												<file id="ArmA 3 2020.11.14 - 01.21.52.101">
													<name>ArmA 3 2020.11.14 - 01.21.52.101.mp4</name>
													<pathurl>file://localhost/F:/AMVS Russia/NaturaDestruction/PRPACK6/ArmA 3 2020.11.14 - 01.21.52.101.mp4</pathurl>
													<rate>
														<timebase>60</timebase>
														<ntsc>FALSE</ntsc>
													</rate>
													<duration>1025</duration>
													<timecode>
														<rate>
															<timebase>60</timebase>
															<ntsc>FALSE</ntsc>
														</rate>
														<frame>0</frame>
														<displayformat>NDF</displayformat>
														<source>source</source>
													</timecode>
													<media>
														<video>
															<duration>1025</duration>
															<samplecharacteristics>
																<width>1920</width>
																<height>1080</height>
															</samplecharacteristics>
														</video>
														<audio>
															<samplecharacteristics>
																<samplerate>48000</samplerate>
																<depth>32</depth>
															</samplecharacteristics>
															<channelcount>1</channelcount>
														</audio>
														<audio>
															<samplecharacteristics>
																<samplerate>48000</samplerate>
																<depth>32</depth>
															</samplecharacteristics>
															<channelcount>1</channelcount>
														</audio>
													</media>
												</file>
												<sourcetrack>
													<mediatype>video</mediatype>
												</sourcetrack>
												<fielddominance>none</fielddominance>
											</clipitem>
											<enabled>TRUE</enabled>
											<locked>FALSE</locked>
										</track>
									</video>
									<audio>
										<track>
											<clipitem id="ArmA 3 2020.11.14 - 01.21.52.101.mp42">
												<name>ArmA 3 2020.11.14 - 01.21.52.101.mp4</name>
												<duration>1025</duration>
												<rate>
													<ntsc>TRUE</ntsc>
													<timebase>24</timebase>
												</rate>
												<in>0</in>
												<out>1025</out>
												<start>0</start>
												<end>1025</end>
												<masterclipid>ArmA 3 2020.11.14 - 01.21.52.101.mp4</masterclipid>
												<logginginfo>
													<scene />
													<shottake />
													<lognote />
													<good>FALSE</good>
												</logginginfo>
												<labels>
													<label2 />
												</labels>
												<comments>
													<mastercomment1 />
													<mastercomment2 />
													<mastercomment3 />
													<mastercomment4 />
												</comments>
												<file id="ArmA 3 2020.11.14 - 01.21.52.101" />
												<sourcetrack>
													<mediatype>audio</mediatype>
												</sourcetrack>
											</clipitem>
											<enabled>TRUE</enabled>
											<locked>FALSE</locked>
										</track>
										<track>
											<clipitem id="ArmA 3 2020.11.14 - 01.21.52.101.mp43">
												<name>ArmA 3 2020.11.14 - 01.21.52.101.mp4</name>
												<duration>1025</duration>
												<rate>
													<ntsc>TRUE</ntsc>
													<timebase>24</timebase>
												</rate>
												<in>0</in>
												<out>1025</out>
												<start>0</start>
												<end>1025</end>
												<masterclipid>ArmA 3 2020.11.14 - 01.21.52.101.mp4</masterclipid>
												<logginginfo>
													<scene />
													<shottake />
													<lognote />
													<good>FALSE</good>
												</logginginfo>
												<labels>
													<label2 />
												</labels>
												<comments>
													<mastercomment1 />
													<mastercomment2 />
													<mastercomment3 />
													<mastercomment4 />
												</comments>
												<file id="ArmA 3 2020.11.14 - 01.21.52.101" />
												<sourcetrack>
													<mediatype>audio</mediatype>
												</sourcetrack>
											</clipitem>
											<enabled>TRUE</enabled>
											<locked>FALSE</locked>
										</track>
									</audio>
								</media>
							</clip>
							<clip id="ArmA 3 2020.11.14 - 01.22.45.102.mp4">
								<updatebehavior>add</updatebehavior>
								<name>ArmA 3 2020.11.14 - 01.22.45.102.mp4</name>
								<duration>1159</duration>
								<rate>
									<ntsc>FALSE</ntsc>
									<timebase>60</timebase>
								</rate>
								<in>-1</in>
								<out>-1</out>
								<masterclipid>ArmA 3 2020.11.14 - 01.22.45.102.mp4</masterclipid>
								<ismasterclip>TRUE</ismasterclip>
								<logginginfo>
									<scene />
									<shottake />
									<lognote />
									<good>FALSE</good>
								</logginginfo>
								<labels>
									<label2 />
								</labels>
								<comments>
									<mastercomment1 />
									<mastercomment2 />
									<mastercomment3 />
									<mastercomment4 />
								</comments>
								<media>
									<video>
										<track>
											<clipitem id="ArmA 3 2020.11.14 - 01.22.45.102.mp41">
												<name>ArmA 3 2020.11.14 - 01.22.45.102.mp4</name>
												<duration>1159</duration>
												<rate>
													<ntsc>FALSE</ntsc>
													<timebase>60</timebase>
												</rate>
												<in>0</in>
												<out>1159</out>
												<start>0</start>
												<end>1159</end>
												<pixelaspectratio>Square</pixelaspectratio>
												<anamorphic>FALSE</anamorphic>
												<alphatype>none</alphatype>
												<masterclipid>ArmA 3 2020.11.14 - 01.22.45.102.mp4</masterclipid>
												<logginginfo>
													<scene />
													<shottake />
													<lognote />
													<good>FALSE</good>
												</logginginfo>
												<labels>
													<label2 />
												</labels>
												<comments>
													<mastercomment1 />
													<mastercomment2 />
													<mastercomment3 />
													<mastercomment4 />
												</comments>
												<file id="ArmA 3 2020.11.14 - 01.22.45.102">
													<name>ArmA 3 2020.11.14 - 01.22.45.102.mp4</name>
													<pathurl>file://localhost/F:/AMVS Russia/NaturaDestruction/PRPACK4/ArmA 3 2020.11.14 - 01.22.45.102.mp4</pathurl>
													<rate>
														<timebase>60</timebase>
														<ntsc>FALSE</ntsc>
													</rate>
													<duration>1159</duration>
													<timecode>
														<rate>
															<timebase>60</timebase>
															<ntsc>FALSE</ntsc>
														</rate>
														<frame>0</frame>
														<displayformat>NDF</displayformat>
														<source>source</source>
													</timecode>
													<media>
														<video>
															<duration>1159</duration>
															<samplecharacteristics>
																<width>1920</width>
																<height>1080</height>
															</samplecharacteristics>
														</video>
														<audio>
															<samplecharacteristics>
																<samplerate>48000</samplerate>
																<depth>32</depth>
															</samplecharacteristics>
															<channelcount>1</channelcount>
														</audio>
														<audio>
															<samplecharacteristics>
																<samplerate>48000</samplerate>
																<depth>32</depth>
															</samplecharacteristics>
															<channelcount>1</channelcount>
														</audio>
													</media>
												</file>
												<sourcetrack>
													<mediatype>video</mediatype>
												</sourcetrack>
												<fielddominance>none</fielddominance>
											</clipitem>
											<enabled>TRUE</enabled>
											<locked>FALSE</locked>
										</track>
									</video>
									<audio>
										<track>
											<clipitem id="ArmA 3 2020.11.14 - 01.22.45.102.mp42">
												<name>ArmA 3 2020.11.14 - 01.22.45.102.mp4</name>
												<duration>1159</duration>
												<rate>
													<ntsc>TRUE</ntsc>
													<timebase>24</timebase>
												</rate>
												<in>0</in>
												<out>1159</out>
												<start>0</start>
												<end>1159</end>
												<masterclipid>ArmA 3 2020.11.14 - 01.22.45.102.mp4</masterclipid>
												<logginginfo>
													<scene />
													<shottake />
													<lognote />
													<good>FALSE</good>
												</logginginfo>
												<labels>
													<label2 />
												</labels>
												<comments>
													<mastercomment1 />
													<mastercomment2 />
													<mastercomment3 />
													<mastercomment4 />
												</comments>
												<file id="ArmA 3 2020.11.14 - 01.22.45.102" />
												<sourcetrack>
													<mediatype>audio</mediatype>
												</sourcetrack>
											</clipitem>
											<enabled>TRUE</enabled>
											<locked>FALSE</locked>
										</track>
										<track>
											<clipitem id="ArmA 3 2020.11.14 - 01.22.45.102.mp43">
												<name>ArmA 3 2020.11.14 - 01.22.45.102.mp4</name>
												<duration>1159</duration>
												<rate>
													<ntsc>TRUE</ntsc>
													<timebase>24</timebase>
												</rate>
												<in>0</in>
												<out>1159</out>
												<start>0</start>
												<end>1159</end>
												<masterclipid>ArmA 3 2020.11.14 - 01.22.45.102.mp4</masterclipid>
												<logginginfo>
													<scene />
													<shottake />
													<lognote />
													<good>FALSE</good>
												</logginginfo>
												<labels>
													<label2 />
												</labels>
												<comments>
													<mastercomment1 />
													<mastercomment2 />
													<mastercomment3 />
													<mastercomment4 />
												</comments>
												<file id="ArmA 3 2020.11.14 - 01.22.45.102" />
												<sourcetrack>
													<mediatype>audio</mediatype>
												</sourcetrack>
											</clipitem>
											<enabled>TRUE</enabled>
											<locked>FALSE</locked>
										</track>
									</audio>
								</media>
							</clip>
							<clip id="ArmA 3 2020.11.14 - 01.24.35.103.mp4">
								<updatebehavior>add</updatebehavior>
								<name>ArmA 3 2020.11.14 - 01.24.35.103.mp4</name>
								<duration>1749</duration>
								<rate>
									<ntsc>FALSE</ntsc>
									<timebase>60</timebase>
								</rate>
								<in>-1</in>
								<out>-1</out>
								<masterclipid>ArmA 3 2020.11.14 - 01.24.35.103.mp4</masterclipid>
								<ismasterclip>TRUE</ismasterclip>
								<logginginfo>
									<scene />
									<shottake />
									<lognote />
									<good>FALSE</good>
								</logginginfo>
								<labels>
									<label2 />
								</labels>
								<comments>
									<mastercomment1 />
									<mastercomment2 />
									<mastercomment3 />
									<mastercomment4 />
								</comments>
								<media>
									<video>
										<track>
											<clipitem id="ArmA 3 2020.11.14 - 01.24.35.103.mp41">
												<name>ArmA 3 2020.11.14 - 01.24.35.103.mp4</name>
												<duration>1749</duration>
												<rate>
													<ntsc>FALSE</ntsc>
													<timebase>60</timebase>
												</rate>
												<in>0</in>
												<out>1749</out>
												<start>0</start>
												<end>1749</end>
												<pixelaspectratio>Square</pixelaspectratio>
												<anamorphic>FALSE</anamorphic>
												<alphatype>none</alphatype>
												<masterclipid>ArmA 3 2020.11.14 - 01.24.35.103.mp4</masterclipid>
												<logginginfo>
													<scene />
													<shottake />
													<lognote />
													<good>FALSE</good>
												</logginginfo>
												<labels>
													<label2 />
												</labels>
												<comments>
													<mastercomment1 />
													<mastercomment2 />
													<mastercomment3 />
													<mastercomment4 />
												</comments>
												<file id="ArmA 3 2020.11.14 - 01.24.35.103">
													<name>ArmA 3 2020.11.14 - 01.24.35.103.mp4</name>
													<pathurl>file://localhost/F:/AMVS Russia/NaturaDestruction/PRPACK3/ArmA 3 2020.11.14 - 01.24.35.103.mp4</pathurl>
													<rate>
														<timebase>60</timebase>
														<ntsc>FALSE</ntsc>
													</rate>
													<duration>1749</duration>
													<timecode>
														<rate>
															<timebase>60</timebase>
															<ntsc>FALSE</ntsc>
														</rate>
														<frame>0</frame>
														<displayformat>NDF</displayformat>
														<source>source</source>
													</timecode>
													<media>
														<video>
															<duration>1749</duration>
															<samplecharacteristics>
																<width>1920</width>
																<height>1080</height>
															</samplecharacteristics>
														</video>
														<audio>
															<samplecharacteristics>
																<samplerate>48000</samplerate>
																<depth>32</depth>
															</samplecharacteristics>
															<channelcount>1</channelcount>
														</audio>
														<audio>
															<samplecharacteristics>
																<samplerate>48000</samplerate>
																<depth>32</depth>
															</samplecharacteristics>
															<channelcount>1</channelcount>
														</audio>
													</media>
												</file>
												<sourcetrack>
													<mediatype>video</mediatype>
												</sourcetrack>
												<fielddominance>none</fielddominance>
											</clipitem>
											<enabled>TRUE</enabled>
											<locked>FALSE</locked>
										</track>
									</video>
									<audio>
										<track>
											<clipitem id="ArmA 3 2020.11.14 - 01.24.35.103.mp42">
												<name>ArmA 3 2020.11.14 - 01.24.35.103.mp4</name>
												<duration>1749</duration>
												<rate>
													<ntsc>TRUE</ntsc>
													<timebase>24</timebase>
												</rate>
												<in>0</in>
												<out>1749</out>
												<start>0</start>
												<end>1749</end>
												<masterclipid>ArmA 3 2020.11.14 - 01.24.35.103.mp4</masterclipid>
												<logginginfo>
													<scene />
													<shottake />
													<lognote />
													<good>FALSE</good>
												</logginginfo>
												<labels>
													<label2 />
												</labels>
												<comments>
													<mastercomment1 />
													<mastercomment2 />
													<mastercomment3 />
													<mastercomment4 />
												</comments>
												<file id="ArmA 3 2020.11.14 - 01.24.35.103" />
												<sourcetrack>
													<mediatype>audio</mediatype>
												</sourcetrack>
											</clipitem>
											<enabled>TRUE</enabled>
											<locked>FALSE</locked>
										</track>
										<track>
											<clipitem id="ArmA 3 2020.11.14 - 01.24.35.103.mp43">
												<name>ArmA 3 2020.11.14 - 01.24.35.103.mp4</name>
												<duration>1749</duration>
												<rate>
													<ntsc>TRUE</ntsc>
													<timebase>24</timebase>
												</rate>
												<in>0</in>
												<out>1749</out>
												<start>0</start>
												<end>1749</end>
												<masterclipid>ArmA 3 2020.11.14 - 01.24.35.103.mp4</masterclipid>
												<logginginfo>
													<scene />
													<shottake />
													<lognote />
													<good>FALSE</good>
												</logginginfo>
												<labels>
													<label2 />
												</labels>
												<comments>
													<mastercomment1 />
													<mastercomment2 />
													<mastercomment3 />
													<mastercomment4 />
												</comments>
												<file id="ArmA 3 2020.11.14 - 01.24.35.103" />
												<sourcetrack>
													<mediatype>audio</mediatype>
												</sourcetrack>
											</clipitem>
											<enabled>TRUE</enabled>
											<locked>FALSE</locked>
										</track>
									</audio>
								</media>
							</clip>
							<clip id="ArmA 3 2020.11.14 - 01.27.04.104.mp4">
								<updatebehavior>add</updatebehavior>
								<name>ArmA 3 2020.11.14 - 01.27.04.104.mp4</name>
								<duration>170</duration>
								<rate>
									<ntsc>FALSE</ntsc>
									<timebase>60</timebase>
								</rate>
								<in>-1</in>
								<out>-1</out>
								<masterclipid>ArmA 3 2020.11.14 - 01.27.04.104.mp4</masterclipid>
								<ismasterclip>TRUE</ismasterclip>
								<logginginfo>
									<scene />
									<shottake />
									<lognote />
									<good>FALSE</good>
								</logginginfo>
								<labels>
									<label2 />
								</labels>
								<comments>
									<mastercomment1 />
									<mastercomment2 />
									<mastercomment3 />
									<mastercomment4 />
								</comments>
								<media>
									<video>
										<track>
											<clipitem id="ArmA 3 2020.11.14 - 01.27.04.104.mp41">
												<name>ArmA 3 2020.11.14 - 01.27.04.104.mp4</name>
												<duration>170</duration>
												<rate>
													<ntsc>FALSE</ntsc>
													<timebase>60</timebase>
												</rate>
												<in>0</in>
												<out>170</out>
												<start>0</start>
												<end>170</end>
												<pixelaspectratio>Square</pixelaspectratio>
												<anamorphic>FALSE</anamorphic>
												<alphatype>none</alphatype>
												<masterclipid>ArmA 3 2020.11.14 - 01.27.04.104.mp4</masterclipid>
												<logginginfo>
													<scene />
													<shottake />
													<lognote />
													<good>FALSE</good>
												</logginginfo>
												<labels>
													<label2 />
												</labels>
												<comments>
													<mastercomment1 />
													<mastercomment2 />
													<mastercomment3 />
													<mastercomment4 />
												</comments>
												<file id="ArmA 3 2020.11.14 - 01.27.04.104">
													<name>ArmA 3 2020.11.14 - 01.27.04.104.mp4</name>
													<pathurl>file://localhost/F:/AMVS Russia/NaturaDestruction/PRPACK7/ArmA 3 2020.11.14 - 01.27.04.104.mp4</pathurl>
													<rate>
														<timebase>60</timebase>
														<ntsc>FALSE</ntsc>
													</rate>
													<duration>170</duration>
													<timecode>
														<rate>
															<timebase>60</timebase>
															<ntsc>FALSE</ntsc>
														</rate>
														<frame>0</frame>
														<displayformat>NDF</displayformat>
														<source>source</source>
													</timecode>
													<media>
														<video>
															<duration>170</duration>
															<samplecharacteristics>
																<width>1920</width>
																<height>1080</height>
															</samplecharacteristics>
														</video>
														<audio>
															<samplecharacteristics>
																<samplerate>48000</samplerate>
																<depth>32</depth>
															</samplecharacteristics>
															<channelcount>1</channelcount>
														</audio>
														<audio>
															<samplecharacteristics>
																<samplerate>48000</samplerate>
																<depth>32</depth>
															</samplecharacteristics>
															<channelcount>1</channelcount>
														</audio>
													</media>
												</file>
												<sourcetrack>
													<mediatype>video</mediatype>
												</sourcetrack>
												<fielddominance>none</fielddominance>
											</clipitem>
											<enabled>TRUE</enabled>
											<locked>FALSE</locked>
										</track>
									</video>
									<audio>
										<track>
											<clipitem id="ArmA 3 2020.11.14 - 01.27.04.104.mp42">
												<name>ArmA 3 2020.11.14 - 01.27.04.104.mp4</name>
												<duration>170</duration>
												<rate>
													<ntsc>TRUE</ntsc>
													<timebase>24</timebase>
												</rate>
												<in>0</in>
												<out>170</out>
												<start>0</start>
												<end>170</end>
												<masterclipid>ArmA 3 2020.11.14 - 01.27.04.104.mp4</masterclipid>
												<logginginfo>
													<scene />
													<shottake />
													<lognote />
													<good>FALSE</good>
												</logginginfo>
												<labels>
													<label2 />
												</labels>
												<comments>
													<mastercomment1 />
													<mastercomment2 />
													<mastercomment3 />
													<mastercomment4 />
												</comments>
												<file id="ArmA 3 2020.11.14 - 01.27.04.104" />
												<sourcetrack>
													<mediatype>audio</mediatype>
												</sourcetrack>
											</clipitem>
											<enabled>TRUE</enabled>
											<locked>FALSE</locked>
										</track>
										<track>
											<clipitem id="ArmA 3 2020.11.14 - 01.27.04.104.mp43">
												<name>ArmA 3 2020.11.14 - 01.27.04.104.mp4</name>
												<duration>170</duration>
												<rate>
													<ntsc>TRUE</ntsc>
													<timebase>24</timebase>
												</rate>
												<in>0</in>
												<out>170</out>
												<start>0</start>
												<end>170</end>
												<masterclipid>ArmA 3 2020.11.14 - 01.27.04.104.mp4</masterclipid>
												<logginginfo>
													<scene />
													<shottake />
													<lognote />
													<good>FALSE</good>
												</logginginfo>
												<labels>
													<label2 />
												</labels>
												<comments>
													<mastercomment1 />
													<mastercomment2 />
													<mastercomment3 />
													<mastercomment4 />
												</comments>
												<file id="ArmA 3 2020.11.14 - 01.27.04.104" />
												<sourcetrack>
													<mediatype>audio</mediatype>
												</sourcetrack>
											</clipitem>
											<enabled>TRUE</enabled>
											<locked>FALSE</locked>
										</track>
									</audio>
								</media>
							</clip>
							<clip id="ArmA 3 2020.11.14 - 01.27.36.105.mp4">
								<updatebehavior>add</updatebehavior>
								<name>ArmA 3 2020.11.14 - 01.27.36.105.mp4</name>
								<duration>747</duration>
								<rate>
									<ntsc>FALSE</ntsc>
									<timebase>60</timebase>
								</rate>
								<in>-1</in>
								<out>-1</out>
								<masterclipid>ArmA 3 2020.11.14 - 01.27.36.105.mp4</masterclipid>
								<ismasterclip>TRUE</ismasterclip>
								<logginginfo>
									<scene />
									<shottake />
									<lognote />
									<good>FALSE</good>
								</logginginfo>
								<labels>
									<label2 />
								</labels>
								<comments>
									<mastercomment1 />
									<mastercomment2 />
									<mastercomment3 />
									<mastercomment4 />
								</comments>
								<media>
									<video>
										<track>
											<clipitem id="ArmA 3 2020.11.14 - 01.27.36.105.mp41">
												<name>ArmA 3 2020.11.14 - 01.27.36.105.mp4</name>
												<duration>747</duration>
												<rate>
													<ntsc>FALSE</ntsc>
													<timebase>60</timebase>
												</rate>
												<in>0</in>
												<out>747</out>
												<start>0</start>
												<end>747</end>
												<pixelaspectratio>Square</pixelaspectratio>
												<anamorphic>FALSE</anamorphic>
												<alphatype>none</alphatype>
												<masterclipid>ArmA 3 2020.11.14 - 01.27.36.105.mp4</masterclipid>
												<logginginfo>
													<scene />
													<shottake />
													<lognote />
													<good>FALSE</good>
												</logginginfo>
												<labels>
													<label2 />
												</labels>
												<comments>
													<mastercomment1 />
													<mastercomment2 />
													<mastercomment3 />
													<mastercomment4 />
												</comments>
												<file id="ArmA 3 2020.11.14 - 01.27.36.105">
													<name>ArmA 3 2020.11.14 - 01.27.36.105.mp4</name>
													<pathurl>file://localhost/F:/AMVS Russia/NaturaDestruction/PRPACK5/ArmA 3 2020.11.14 - 01.27.36.105.mp4</pathurl>
													<rate>
														<timebase>60</timebase>
														<ntsc>FALSE</ntsc>
													</rate>
													<duration>747</duration>
													<timecode>
														<rate>
															<timebase>60</timebase>
															<ntsc>FALSE</ntsc>
														</rate>
														<frame>0</frame>
														<displayformat>NDF</displayformat>
														<source>source</source>
													</timecode>
													<media>
														<video>
															<duration>747</duration>
															<samplecharacteristics>
																<width>1920</width>
																<height>1080</height>
															</samplecharacteristics>
														</video>
														<audio>
															<samplecharacteristics>
																<samplerate>48000</samplerate>
																<depth>32</depth>
															</samplecharacteristics>
															<channelcount>1</channelcount>
														</audio>
														<audio>
															<samplecharacteristics>
																<samplerate>48000</samplerate>
																<depth>32</depth>
															</samplecharacteristics>
															<channelcount>1</channelcount>
														</audio>
													</media>
												</file>
												<sourcetrack>
													<mediatype>video</mediatype>
												</sourcetrack>
												<fielddominance>none</fielddominance>
											</clipitem>
											<enabled>TRUE</enabled>
											<locked>FALSE</locked>
										</track>
									</video>
									<audio>
										<track>
											<clipitem id="ArmA 3 2020.11.14 - 01.27.36.105.mp42">
												<name>ArmA 3 2020.11.14 - 01.27.36.105.mp4</name>
												<duration>747</duration>
												<rate>
													<ntsc>TRUE</ntsc>
													<timebase>24</timebase>
												</rate>
												<in>0</in>
												<out>747</out>
												<start>0</start>
												<end>747</end>
												<masterclipid>ArmA 3 2020.11.14 - 01.27.36.105.mp4</masterclipid>
												<logginginfo>
													<scene />
													<shottake />
													<lognote />
													<good>FALSE</good>
												</logginginfo>
												<labels>
													<label2 />
												</labels>
												<comments>
													<mastercomment1 />
													<mastercomment2 />
													<mastercomment3 />
													<mastercomment4 />
												</comments>
												<file id="ArmA 3 2020.11.14 - 01.27.36.105" />
												<sourcetrack>
													<mediatype>audio</mediatype>
												</sourcetrack>
											</clipitem>
											<enabled>TRUE</enabled>
											<locked>FALSE</locked>
										</track>
										<track>
											<clipitem id="ArmA 3 2020.11.14 - 01.27.36.105.mp43">
												<name>ArmA 3 2020.11.14 - 01.27.36.105.mp4</name>
												<duration>747</duration>
												<rate>
													<ntsc>TRUE</ntsc>
													<timebase>24</timebase>
												</rate>
												<in>0</in>
												<out>747</out>
												<start>0</start>
												<end>747</end>
												<masterclipid>ArmA 3 2020.11.14 - 01.27.36.105.mp4</masterclipid>
												<logginginfo>
													<scene />
													<shottake />
													<lognote />
													<good>FALSE</good>
												</logginginfo>
												<labels>
													<label2 />
												</labels>
												<comments>
													<mastercomment1 />
													<mastercomment2 />
													<mastercomment3 />
													<mastercomment4 />
												</comments>
												<file id="ArmA 3 2020.11.14 - 01.27.36.105" />
												<sourcetrack>
													<mediatype>audio</mediatype>
												</sourcetrack>
											</clipitem>
											<enabled>TRUE</enabled>
											<locked>FALSE</locked>
										</track>
									</audio>
								</media>
							</clip>
							<clip id="ArmA 3 2020.11.14 - 01.32.59.106.mp4">
								<updatebehavior>add</updatebehavior>
								<name>ArmA 3 2020.11.14 - 01.32.59.106.mp4</name>
								<duration>834</duration>
								<rate>
									<ntsc>FALSE</ntsc>
									<timebase>60</timebase>
								</rate>
								<in>-1</in>
								<out>-1</out>
								<masterclipid>ArmA 3 2020.11.14 - 01.32.59.106.mp4</masterclipid>
								<ismasterclip>TRUE</ismasterclip>
								<logginginfo>
									<scene />
									<shottake />
									<lognote />
									<good>FALSE</good>
								</logginginfo>
								<labels>
									<label2 />
								</labels>
								<comments>
									<mastercomment1 />
									<mastercomment2 />
									<mastercomment3 />
									<mastercomment4 />
								</comments>
								<media>
									<video>
										<track>
											<clipitem id="ArmA 3 2020.11.14 - 01.32.59.106.mp41">
												<name>ArmA 3 2020.11.14 - 01.32.59.106.mp4</name>
												<duration>834</duration>
												<rate>
													<ntsc>FALSE</ntsc>
													<timebase>60</timebase>
												</rate>
												<in>0</in>
												<out>834</out>
												<start>0</start>
												<end>834</end>
												<pixelaspectratio>Square</pixelaspectratio>
												<anamorphic>FALSE</anamorphic>
												<alphatype>none</alphatype>
												<masterclipid>ArmA 3 2020.11.14 - 01.32.59.106.mp4</masterclipid>
												<logginginfo>
													<scene />
													<shottake />
													<lognote />
													<good>FALSE</good>
												</logginginfo>
												<labels>
													<label2 />
												</labels>
												<comments>
													<mastercomment1 />
													<mastercomment2 />
													<mastercomment3 />
													<mastercomment4 />
												</comments>
												<file id="ArmA 3 2020.11.14 - 01.32.59.106">
													<name>ArmA 3 2020.11.14 - 01.32.59.106.mp4</name>
													<pathurl>file://localhost/F:/AMVS Russia/NaturaDestruction/PRPACK5/ArmA 3 2020.11.14 - 01.32.59.106.mp4</pathurl>
													<rate>
														<timebase>60</timebase>
														<ntsc>FALSE</ntsc>
													</rate>
													<duration>834</duration>
													<timecode>
														<rate>
															<timebase>60</timebase>
															<ntsc>FALSE</ntsc>
														</rate>
														<frame>0</frame>
														<displayformat>NDF</displayformat>
														<source>source</source>
													</timecode>
													<media>
														<video>
															<duration>834</duration>
															<samplecharacteristics>
																<width>1920</width>
																<height>1080</height>
															</samplecharacteristics>
														</video>
														<audio>
															<samplecharacteristics>
																<samplerate>48000</samplerate>
																<depth>32</depth>
															</samplecharacteristics>
															<channelcount>1</channelcount>
														</audio>
														<audio>
															<samplecharacteristics>
																<samplerate>48000</samplerate>
																<depth>32</depth>
															</samplecharacteristics>
															<channelcount>1</channelcount>
														</audio>
													</media>
												</file>
												<sourcetrack>
													<mediatype>video</mediatype>
												</sourcetrack>
												<fielddominance>none</fielddominance>
											</clipitem>
											<enabled>TRUE</enabled>
											<locked>FALSE</locked>
										</track>
									</video>
									<audio>
										<track>
											<clipitem id="ArmA 3 2020.11.14 - 01.32.59.106.mp42">
												<name>ArmA 3 2020.11.14 - 01.32.59.106.mp4</name>
												<duration>834</duration>
												<rate>
													<ntsc>TRUE</ntsc>
													<timebase>24</timebase>
												</rate>
												<in>0</in>
												<out>834</out>
												<start>0</start>
												<end>834</end>
												<masterclipid>ArmA 3 2020.11.14 - 01.32.59.106.mp4</masterclipid>
												<logginginfo>
													<scene />
													<shottake />
													<lognote />
													<good>FALSE</good>
												</logginginfo>
												<labels>
													<label2 />
												</labels>
												<comments>
													<mastercomment1 />
													<mastercomment2 />
													<mastercomment3 />
													<mastercomment4 />
												</comments>
												<file id="ArmA 3 2020.11.14 - 01.32.59.106" />
												<sourcetrack>
													<mediatype>audio</mediatype>
												</sourcetrack>
											</clipitem>
											<enabled>TRUE</enabled>
											<locked>FALSE</locked>
										</track>
										<track>
											<clipitem id="ArmA 3 2020.11.14 - 01.32.59.106.mp43">
												<name>ArmA 3 2020.11.14 - 01.32.59.106.mp4</name>
												<duration>834</duration>
												<rate>
													<ntsc>TRUE</ntsc>
													<timebase>24</timebase>
												</rate>
												<in>0</in>
												<out>834</out>
												<start>0</start>
												<end>834</end>
												<masterclipid>ArmA 3 2020.11.14 - 01.32.59.106.mp4</masterclipid>
												<logginginfo>
													<scene />
													<shottake />
													<lognote />
													<good>FALSE</good>
												</logginginfo>
												<labels>
													<label2 />
												</labels>
												<comments>
													<mastercomment1 />
													<mastercomment2 />
													<mastercomment3 />
													<mastercomment4 />
												</comments>
												<file id="ArmA 3 2020.11.14 - 01.32.59.106" />
												<sourcetrack>
													<mediatype>audio</mediatype>
												</sourcetrack>
											</clipitem>
											<enabled>TRUE</enabled>
											<locked>FALSE</locked>
										</track>
									</audio>
								</media>
							</clip>
							<clip id="ArmA 3 2020.11.14 - 01.34.00.107.mp4">
								<updatebehavior>add</updatebehavior>
								<name>ArmA 3 2020.11.14 - 01.34.00.107.mp4</name>
								<duration>670</duration>
								<rate>
									<ntsc>FALSE</ntsc>
									<timebase>60</timebase>
								</rate>
								<in>-1</in>
								<out>-1</out>
								<masterclipid>ArmA 3 2020.11.14 - 01.34.00.107.mp4</masterclipid>
								<ismasterclip>TRUE</ismasterclip>
								<logginginfo>
									<scene />
									<shottake />
									<lognote />
									<good>FALSE</good>
								</logginginfo>
								<labels>
									<label2 />
								</labels>
								<comments>
									<mastercomment1 />
									<mastercomment2 />
									<mastercomment3 />
									<mastercomment4 />
								</comments>
								<media>
									<video>
										<track>
											<clipitem id="ArmA 3 2020.11.14 - 01.34.00.107.mp41">
												<name>ArmA 3 2020.11.14 - 01.34.00.107.mp4</name>
												<duration>670</duration>
												<rate>
													<ntsc>FALSE</ntsc>
													<timebase>60</timebase>
												</rate>
												<in>0</in>
												<out>670</out>
												<start>0</start>
												<end>670</end>
												<pixelaspectratio>Square</pixelaspectratio>
												<anamorphic>FALSE</anamorphic>
												<alphatype>none</alphatype>
												<masterclipid>ArmA 3 2020.11.14 - 01.34.00.107.mp4</masterclipid>
												<logginginfo>
													<scene />
													<shottake />
													<lognote />
													<good>FALSE</good>
												</logginginfo>
												<labels>
													<label2 />
												</labels>
												<comments>
													<mastercomment1 />
													<mastercomment2 />
													<mastercomment3 />
													<mastercomment4 />
												</comments>
												<file id="ArmA 3 2020.11.14 - 01.34.00.107">
													<name>ArmA 3 2020.11.14 - 01.34.00.107.mp4</name>
													<pathurl>file://localhost/F:/AMVS Russia/NaturaDestruction/PRPACK5/ArmA 3 2020.11.14 - 01.34.00.107.mp4</pathurl>
													<rate>
														<timebase>60</timebase>
														<ntsc>FALSE</ntsc>
													</rate>
													<duration>670</duration>
													<timecode>
														<rate>
															<timebase>60</timebase>
															<ntsc>FALSE</ntsc>
														</rate>
														<frame>0</frame>
														<displayformat>NDF</displayformat>
														<source>source</source>
													</timecode>
													<media>
														<video>
															<duration>670</duration>
															<samplecharacteristics>
																<width>1920</width>
																<height>1080</height>
															</samplecharacteristics>
														</video>
														<audio>
															<samplecharacteristics>
																<samplerate>48000</samplerate>
																<depth>32</depth>
															</samplecharacteristics>
															<channelcount>1</channelcount>
														</audio>
														<audio>
															<samplecharacteristics>
																<samplerate>48000</samplerate>
																<depth>32</depth>
															</samplecharacteristics>
															<channelcount>1</channelcount>
														</audio>
													</media>
												</file>
												<sourcetrack>
													<mediatype>video</mediatype>
												</sourcetrack>
												<fielddominance>none</fielddominance>
											</clipitem>
											<enabled>TRUE</enabled>
											<locked>FALSE</locked>
										</track>
									</video>
									<audio>
										<track>
											<clipitem id="ArmA 3 2020.11.14 - 01.34.00.107.mp42">
												<name>ArmA 3 2020.11.14 - 01.34.00.107.mp4</name>
												<duration>670</duration>
												<rate>
													<ntsc>TRUE</ntsc>
													<timebase>24</timebase>
												</rate>
												<in>0</in>
												<out>670</out>
												<start>0</start>
												<end>670</end>
												<masterclipid>ArmA 3 2020.11.14 - 01.34.00.107.mp4</masterclipid>
												<logginginfo>
													<scene />
													<shottake />
													<lognote />
													<good>FALSE</good>
												</logginginfo>
												<labels>
													<label2 />
												</labels>
												<comments>
													<mastercomment1 />
													<mastercomment2 />
													<mastercomment3 />
													<mastercomment4 />
												</comments>
												<file id="ArmA 3 2020.11.14 - 01.34.00.107" />
												<sourcetrack>
													<mediatype>audio</mediatype>
												</sourcetrack>
											</clipitem>
											<enabled>TRUE</enabled>
											<locked>FALSE</locked>
										</track>
										<track>
											<clipitem id="ArmA 3 2020.11.14 - 01.34.00.107.mp43">
												<name>ArmA 3 2020.11.14 - 01.34.00.107.mp4</name>
												<duration>670</duration>
												<rate>
													<ntsc>TRUE</ntsc>
													<timebase>24</timebase>
												</rate>
												<in>0</in>
												<out>670</out>
												<start>0</start>
												<end>670</end>
												<masterclipid>ArmA 3 2020.11.14 - 01.34.00.107.mp4</masterclipid>
												<logginginfo>
													<scene />
													<shottake />
													<lognote />
													<good>FALSE</good>
												</logginginfo>
												<labels>
													<label2 />
												</labels>
												<comments>
													<mastercomment1 />
													<mastercomment2 />
													<mastercomment3 />
													<mastercomment4 />
												</comments>
												<file id="ArmA 3 2020.11.14 - 01.34.00.107" />
												<sourcetrack>
													<mediatype>audio</mediatype>
												</sourcetrack>
											</clipitem>
											<enabled>TRUE</enabled>
											<locked>FALSE</locked>
										</track>
									</audio>
								</media>
							</clip>
							<clip id="ArmA 3 2020.11.14 - 01.34.52.108.mp4">
								<updatebehavior>add</updatebehavior>
								<name>ArmA 3 2020.11.14 - 01.34.52.108.mp4</name>
								<duration>461</duration>
								<rate>
									<ntsc>FALSE</ntsc>
									<timebase>60</timebase>
								</rate>
								<in>-1</in>
								<out>-1</out>
								<masterclipid>ArmA 3 2020.11.14 - 01.34.52.108.mp4</masterclipid>
								<ismasterclip>TRUE</ismasterclip>
								<logginginfo>
									<scene />
									<shottake />
									<lognote />
									<good>FALSE</good>
								</logginginfo>
								<labels>
									<label2 />
								</labels>
								<comments>
									<mastercomment1 />
									<mastercomment2 />
									<mastercomment3 />
									<mastercomment4 />
								</comments>
								<media>
									<video>
										<track>
											<clipitem id="ArmA 3 2020.11.14 - 01.34.52.108.mp41">
												<name>ArmA 3 2020.11.14 - 01.34.52.108.mp4</name>
												<duration>461</duration>
												<rate>
													<ntsc>FALSE</ntsc>
													<timebase>60</timebase>
												</rate>
												<in>0</in>
												<out>461</out>
												<start>0</start>
												<end>461</end>
												<pixelaspectratio>Square</pixelaspectratio>
												<anamorphic>FALSE</anamorphic>
												<alphatype>none</alphatype>
												<masterclipid>ArmA 3 2020.11.14 - 01.34.52.108.mp4</masterclipid>
												<logginginfo>
													<scene />
													<shottake />
													<lognote />
													<good>FALSE</good>
												</logginginfo>
												<labels>
													<label2 />
												</labels>
												<comments>
													<mastercomment1 />
													<mastercomment2 />
													<mastercomment3 />
													<mastercomment4 />
												</comments>
												<file id="ArmA 3 2020.11.14 - 01.34.52.108">
													<name>ArmA 3 2020.11.14 - 01.34.52.108.mp4</name>
													<pathurl>file://localhost/F:/AMVS Russia/NaturaDestruction/PRPACK6/ArmA 3 2020.11.14 - 01.34.52.108.mp4</pathurl>
													<rate>
														<timebase>60</timebase>
														<ntsc>FALSE</ntsc>
													</rate>
													<duration>461</duration>
													<timecode>
														<rate>
															<timebase>60</timebase>
															<ntsc>FALSE</ntsc>
														</rate>
														<frame>0</frame>
														<displayformat>NDF</displayformat>
														<source>source</source>
													</timecode>
													<media>
														<video>
															<duration>461</duration>
															<samplecharacteristics>
																<width>1920</width>
																<height>1080</height>
															</samplecharacteristics>
														</video>
														<audio>
															<samplecharacteristics>
																<samplerate>48000</samplerate>
																<depth>32</depth>
															</samplecharacteristics>
															<channelcount>1</channelcount>
														</audio>
														<audio>
															<samplecharacteristics>
																<samplerate>48000</samplerate>
																<depth>32</depth>
															</samplecharacteristics>
															<channelcount>1</channelcount>
														</audio>
													</media>
												</file>
												<sourcetrack>
													<mediatype>video</mediatype>
												</sourcetrack>
												<fielddominance>none</fielddominance>
											</clipitem>
											<enabled>TRUE</enabled>
											<locked>FALSE</locked>
										</track>
									</video>
									<audio>
										<track>
											<clipitem id="ArmA 3 2020.11.14 - 01.34.52.108.mp42">
												<name>ArmA 3 2020.11.14 - 01.34.52.108.mp4</name>
												<duration>461</duration>
												<rate>
													<ntsc>TRUE</ntsc>
													<timebase>24</timebase>
												</rate>
												<in>0</in>
												<out>461</out>
												<start>0</start>
												<end>461</end>
												<masterclipid>ArmA 3 2020.11.14 - 01.34.52.108.mp4</masterclipid>
												<logginginfo>
													<scene />
													<shottake />
													<lognote />
													<good>FALSE</good>
												</logginginfo>
												<labels>
													<label2 />
												</labels>
												<comments>
													<mastercomment1 />
													<mastercomment2 />
													<mastercomment3 />
													<mastercomment4 />
												</comments>
												<file id="ArmA 3 2020.11.14 - 01.34.52.108" />
												<sourcetrack>
													<mediatype>audio</mediatype>
												</sourcetrack>
											</clipitem>
											<enabled>TRUE</enabled>
											<locked>FALSE</locked>
										</track>
										<track>
											<clipitem id="ArmA 3 2020.11.14 - 01.34.52.108.mp43">
												<name>ArmA 3 2020.11.14 - 01.34.52.108.mp4</name>
												<duration>461</duration>
												<rate>
													<ntsc>TRUE</ntsc>
													<timebase>24</timebase>
												</rate>
												<in>0</in>
												<out>461</out>
												<start>0</start>
												<end>461</end>
												<masterclipid>ArmA 3 2020.11.14 - 01.34.52.108.mp4</masterclipid>
												<logginginfo>
													<scene />
													<shottake />
													<lognote />
													<good>FALSE</good>
												</logginginfo>
												<labels>
													<label2 />
												</labels>
												<comments>
													<mastercomment1 />
													<mastercomment2 />
													<mastercomment3 />
													<mastercomment4 />
												</comments>
												<file id="ArmA 3 2020.11.14 - 01.34.52.108" />
												<sourcetrack>
													<mediatype>audio</mediatype>
												</sourcetrack>
											</clipitem>
											<enabled>TRUE</enabled>
											<locked>FALSE</locked>
										</track>
									</audio>
								</media>
							</clip>
							<clip id="ArmA 3 2020.11.14 - 01.35.14.109.mp4">
								<updatebehavior>add</updatebehavior>
								<name>ArmA 3 2020.11.14 - 01.35.14.109.mp4</name>
								<duration>115</duration>
								<rate>
									<ntsc>FALSE</ntsc>
									<timebase>60</timebase>
								</rate>
								<in>-1</in>
								<out>-1</out>
								<masterclipid>ArmA 3 2020.11.14 - 01.35.14.109.mp4</masterclipid>
								<ismasterclip>TRUE</ismasterclip>
								<logginginfo>
									<scene />
									<shottake />
									<lognote />
									<good>FALSE</good>
								</logginginfo>
								<labels>
									<label2 />
								</labels>
								<comments>
									<mastercomment1 />
									<mastercomment2 />
									<mastercomment3 />
									<mastercomment4 />
								</comments>
								<media>
									<video>
										<track>
											<clipitem id="ArmA 3 2020.11.14 - 01.35.14.109.mp41">
												<name>ArmA 3 2020.11.14 - 01.35.14.109.mp4</name>
												<duration>115</duration>
												<rate>
													<ntsc>FALSE</ntsc>
													<timebase>60</timebase>
												</rate>
												<in>0</in>
												<out>115</out>
												<start>0</start>
												<end>115</end>
												<pixelaspectratio>Square</pixelaspectratio>
												<anamorphic>FALSE</anamorphic>
												<alphatype>none</alphatype>
												<masterclipid>ArmA 3 2020.11.14 - 01.35.14.109.mp4</masterclipid>
												<logginginfo>
													<scene />
													<shottake />
													<lognote />
													<good>FALSE</good>
												</logginginfo>
												<labels>
													<label2 />
												</labels>
												<comments>
													<mastercomment1 />
													<mastercomment2 />
													<mastercomment3 />
													<mastercomment4 />
												</comments>
												<file id="ArmA 3 2020.11.14 - 01.35.14.109">
													<name>ArmA 3 2020.11.14 - 01.35.14.109.mp4</name>
													<pathurl>file://localhost/F:/AMVS Russia/NaturaDestruction/PRPACK7/ArmA 3 2020.11.14 - 01.35.14.109.mp4</pathurl>
													<rate>
														<timebase>60</timebase>
														<ntsc>FALSE</ntsc>
													</rate>
													<duration>115</duration>
													<timecode>
														<rate>
															<timebase>60</timebase>
															<ntsc>FALSE</ntsc>
														</rate>
														<frame>0</frame>
														<displayformat>NDF</displayformat>
														<source>source</source>
													</timecode>
													<media>
														<video>
															<duration>115</duration>
															<samplecharacteristics>
																<width>1920</width>
																<height>1080</height>
															</samplecharacteristics>
														</video>
														<audio>
															<samplecharacteristics>
																<samplerate>48000</samplerate>
																<depth>32</depth>
															</samplecharacteristics>
															<channelcount>1</channelcount>
														</audio>
														<audio>
															<samplecharacteristics>
																<samplerate>48000</samplerate>
																<depth>32</depth>
															</samplecharacteristics>
															<channelcount>1</channelcount>
														</audio>
													</media>
												</file>
												<sourcetrack>
													<mediatype>video</mediatype>
												</sourcetrack>
												<fielddominance>none</fielddominance>
											</clipitem>
											<enabled>TRUE</enabled>
											<locked>FALSE</locked>
										</track>
									</video>
									<audio>
										<track>
											<clipitem id="ArmA 3 2020.11.14 - 01.35.14.109.mp42">
												<name>ArmA 3 2020.11.14 - 01.35.14.109.mp4</name>
												<duration>115</duration>
												<rate>
													<ntsc>TRUE</ntsc>
													<timebase>24</timebase>
												</rate>
												<in>0</in>
												<out>115</out>
												<start>0</start>
												<end>115</end>
												<masterclipid>ArmA 3 2020.11.14 - 01.35.14.109.mp4</masterclipid>
												<logginginfo>
													<scene />
													<shottake />
													<lognote />
													<good>FALSE</good>
												</logginginfo>
												<labels>
													<label2 />
												</labels>
												<comments>
													<mastercomment1 />
													<mastercomment2 />
													<mastercomment3 />
													<mastercomment4 />
												</comments>
												<file id="ArmA 3 2020.11.14 - 01.35.14.109" />
												<sourcetrack>
													<mediatype>audio</mediatype>
												</sourcetrack>
											</clipitem>
											<enabled>TRUE</enabled>
											<locked>FALSE</locked>
										</track>
										<track>
											<clipitem id="ArmA 3 2020.11.14 - 01.35.14.109.mp43">
												<name>ArmA 3 2020.11.14 - 01.35.14.109.mp4</name>
												<duration>115</duration>
												<rate>
													<ntsc>TRUE</ntsc>
													<timebase>24</timebase>
												</rate>
												<in>0</in>
												<out>115</out>
												<start>0</start>
												<end>115</end>
												<masterclipid>ArmA 3 2020.11.14 - 01.35.14.109.mp4</masterclipid>
												<logginginfo>
													<scene />
													<shottake />
													<lognote />
													<good>FALSE</good>
												</logginginfo>
												<labels>
													<label2 />
												</labels>
												<comments>
													<mastercomment1 />
													<mastercomment2 />
													<mastercomment3 />
													<mastercomment4 />
												</comments>
												<file id="ArmA 3 2020.11.14 - 01.35.14.109" />
												<sourcetrack>
													<mediatype>audio</mediatype>
												</sourcetrack>
											</clipitem>
											<enabled>TRUE</enabled>
											<locked>FALSE</locked>
										</track>
									</audio>
								</media>
							</clip>
							<clip id="ArmA 3 2020.11.14 - 01.36.01.110.mp4">
								<updatebehavior>add</updatebehavior>
								<name>ArmA 3 2020.11.14 - 01.36.01.110.mp4</name>
								<duration>2427</duration>
								<rate>
									<ntsc>FALSE</ntsc>
									<timebase>60</timebase>
								</rate>
								<in>-1</in>
								<out>-1</out>
								<masterclipid>ArmA 3 2020.11.14 - 01.36.01.110.mp4</masterclipid>
								<ismasterclip>TRUE</ismasterclip>
								<logginginfo>
									<scene />
									<shottake />
									<lognote />
									<good>FALSE</good>
								</logginginfo>
								<labels>
									<label2 />
								</labels>
								<comments>
									<mastercomment1 />
									<mastercomment2 />
									<mastercomment3 />
									<mastercomment4 />
								</comments>
								<media>
									<video>
										<track>
											<clipitem id="ArmA 3 2020.11.14 - 01.36.01.110.mp41">
												<name>ArmA 3 2020.11.14 - 01.36.01.110.mp4</name>
												<duration>2427</duration>
												<rate>
													<ntsc>FALSE</ntsc>
													<timebase>60</timebase>
												</rate>
												<in>0</in>
												<out>2427</out>
												<start>0</start>
												<end>2427</end>
												<pixelaspectratio>Square</pixelaspectratio>
												<anamorphic>FALSE</anamorphic>
												<alphatype>none</alphatype>
												<masterclipid>ArmA 3 2020.11.14 - 01.36.01.110.mp4</masterclipid>
												<logginginfo>
													<scene />
													<shottake />
													<lognote />
													<good>FALSE</good>
												</logginginfo>
												<labels>
													<label2 />
												</labels>
												<comments>
													<mastercomment1 />
													<mastercomment2 />
													<mastercomment3 />
													<mastercomment4 />
												</comments>
												<file id="ArmA 3 2020.11.14 - 01.36.01.110">
													<name>ArmA 3 2020.11.14 - 01.36.01.110.mp4</name>
													<pathurl>file://localhost/F:/AMVS Russia/NaturaDestruction/PRPACK2/ArmA 3 2020.11.14 - 01.36.01.110.mp4</pathurl>
													<rate>
														<timebase>60</timebase>
														<ntsc>FALSE</ntsc>
													</rate>
													<duration>2427</duration>
													<timecode>
														<rate>
															<timebase>60</timebase>
															<ntsc>FALSE</ntsc>
														</rate>
														<frame>0</frame>
														<displayformat>NDF</displayformat>
														<source>source</source>
													</timecode>
													<media>
														<video>
															<duration>2427</duration>
															<samplecharacteristics>
																<width>1920</width>
																<height>1080</height>
															</samplecharacteristics>
														</video>
														<audio>
															<samplecharacteristics>
																<samplerate>48000</samplerate>
																<depth>32</depth>
															</samplecharacteristics>
															<channelcount>1</channelcount>
														</audio>
														<audio>
															<samplecharacteristics>
																<samplerate>48000</samplerate>
																<depth>32</depth>
															</samplecharacteristics>
															<channelcount>1</channelcount>
														</audio>
													</media>
												</file>
												<sourcetrack>
													<mediatype>video</mediatype>
												</sourcetrack>
												<fielddominance>none</fielddominance>
											</clipitem>
											<enabled>TRUE</enabled>
											<locked>FALSE</locked>
										</track>
									</video>
									<audio>
										<track>
											<clipitem id="ArmA 3 2020.11.14 - 01.36.01.110.mp42">
												<name>ArmA 3 2020.11.14 - 01.36.01.110.mp4</name>
												<duration>2427</duration>
												<rate>
													<ntsc>TRUE</ntsc>
													<timebase>24</timebase>
												</rate>
												<in>0</in>
												<out>2427</out>
												<start>0</start>
												<end>2427</end>
												<masterclipid>ArmA 3 2020.11.14 - 01.36.01.110.mp4</masterclipid>
												<logginginfo>
													<scene />
													<shottake />
													<lognote />
													<good>FALSE</good>
												</logginginfo>
												<labels>
													<label2 />
												</labels>
												<comments>
													<mastercomment1 />
													<mastercomment2 />
													<mastercomment3 />
													<mastercomment4 />
												</comments>
												<file id="ArmA 3 2020.11.14 - 01.36.01.110" />
												<sourcetrack>
													<mediatype>audio</mediatype>
												</sourcetrack>
											</clipitem>
											<enabled>TRUE</enabled>
											<locked>FALSE</locked>
										</track>
										<track>
											<clipitem id="ArmA 3 2020.11.14 - 01.36.01.110.mp43">
												<name>ArmA 3 2020.11.14 - 01.36.01.110.mp4</name>
												<duration>2427</duration>
												<rate>
													<ntsc>TRUE</ntsc>
													<timebase>24</timebase>
												</rate>
												<in>0</in>
												<out>2427</out>
												<start>0</start>
												<end>2427</end>
												<masterclipid>ArmA 3 2020.11.14 - 01.36.01.110.mp4</masterclipid>
												<logginginfo>
													<scene />
													<shottake />
													<lognote />
													<good>FALSE</good>
												</logginginfo>
												<labels>
													<label2 />
												</labels>
												<comments>
													<mastercomment1 />
													<mastercomment2 />
													<mastercomment3 />
													<mastercomment4 />
												</comments>
												<file id="ArmA 3 2020.11.14 - 01.36.01.110" />
												<sourcetrack>
													<mediatype>audio</mediatype>
												</sourcetrack>
											</clipitem>
											<enabled>TRUE</enabled>
											<locked>FALSE</locked>
										</track>
									</audio>
								</media>
							</clip>
							<clip id="ArmA 3 2020.11.14 - 01.37.46.111.mp4">
								<updatebehavior>add</updatebehavior>
								<name>ArmA 3 2020.11.14 - 01.37.46.111.mp4</name>
								<duration>2189</duration>
								<rate>
									<ntsc>FALSE</ntsc>
									<timebase>60</timebase>
								</rate>
								<in>-1</in>
								<out>-1</out>
								<masterclipid>ArmA 3 2020.11.14 - 01.37.46.111.mp4</masterclipid>
								<ismasterclip>TRUE</ismasterclip>
								<logginginfo>
									<scene />
									<shottake />
									<lognote />
									<good>FALSE</good>
								</logginginfo>
								<labels>
									<label2 />
								</labels>
								<comments>
									<mastercomment1 />
									<mastercomment2 />
									<mastercomment3 />
									<mastercomment4 />
								</comments>
								<media>
									<video>
										<track>
											<clipitem id="ArmA 3 2020.11.14 - 01.37.46.111.mp41">
												<name>ArmA 3 2020.11.14 - 01.37.46.111.mp4</name>
												<duration>2189</duration>
												<rate>
													<ntsc>FALSE</ntsc>
													<timebase>60</timebase>
												</rate>
												<in>0</in>
												<out>2189</out>
												<start>0</start>
												<end>2189</end>
												<pixelaspectratio>Square</pixelaspectratio>
												<anamorphic>FALSE</anamorphic>
												<alphatype>none</alphatype>
												<masterclipid>ArmA 3 2020.11.14 - 01.37.46.111.mp4</masterclipid>
												<logginginfo>
													<scene />
													<shottake />
													<lognote />
													<good>FALSE</good>
												</logginginfo>
												<labels>
													<label2 />
												</labels>
												<comments>
													<mastercomment1 />
													<mastercomment2 />
													<mastercomment3 />
													<mastercomment4 />
												</comments>
												<file id="ArmA 3 2020.11.14 - 01.37.46.111">
													<name>ArmA 3 2020.11.14 - 01.37.46.111.mp4</name>
													<pathurl>file://localhost/F:/AMVS Russia/NaturaDestruction/PRPACK3/ArmA 3 2020.11.14 - 01.37.46.111.mp4</pathurl>
													<rate>
														<timebase>60</timebase>
														<ntsc>FALSE</ntsc>
													</rate>
													<duration>2189</duration>
													<timecode>
														<rate>
															<timebase>60</timebase>
															<ntsc>FALSE</ntsc>
														</rate>
														<frame>0</frame>
														<displayformat>NDF</displayformat>
														<source>source</source>
													</timecode>
													<media>
														<video>
															<duration>2189</duration>
															<samplecharacteristics>
																<width>1920</width>
																<height>1080</height>
															</samplecharacteristics>
														</video>
														<audio>
															<samplecharacteristics>
																<samplerate>48000</samplerate>
																<depth>32</depth>
															</samplecharacteristics>
															<channelcount>1</channelcount>
														</audio>
														<audio>
															<samplecharacteristics>
																<samplerate>48000</samplerate>
																<depth>32</depth>
															</samplecharacteristics>
															<channelcount>1</channelcount>
														</audio>
													</media>
												</file>
												<sourcetrack>
													<mediatype>video</mediatype>
												</sourcetrack>
												<fielddominance>none</fielddominance>
											</clipitem>
											<enabled>TRUE</enabled>
											<locked>FALSE</locked>
										</track>
									</video>
									<audio>
										<track>
											<clipitem id="ArmA 3 2020.11.14 - 01.37.46.111.mp42">
												<name>ArmA 3 2020.11.14 - 01.37.46.111.mp4</name>
												<duration>2189</duration>
												<rate>
													<ntsc>TRUE</ntsc>
													<timebase>24</timebase>
												</rate>
												<in>0</in>
												<out>2189</out>
												<start>0</start>
												<end>2189</end>
												<masterclipid>ArmA 3 2020.11.14 - 01.37.46.111.mp4</masterclipid>
												<logginginfo>
													<scene />
													<shottake />
													<lognote />
													<good>FALSE</good>
												</logginginfo>
												<labels>
													<label2 />
												</labels>
												<comments>
													<mastercomment1 />
													<mastercomment2 />
													<mastercomment3 />
													<mastercomment4 />
												</comments>
												<file id="ArmA 3 2020.11.14 - 01.37.46.111" />
												<sourcetrack>
													<mediatype>audio</mediatype>
												</sourcetrack>
											</clipitem>
											<enabled>TRUE</enabled>
											<locked>FALSE</locked>
										</track>
										<track>
											<clipitem id="ArmA 3 2020.11.14 - 01.37.46.111.mp43">
												<name>ArmA 3 2020.11.14 - 01.37.46.111.mp4</name>
												<duration>2189</duration>
												<rate>
													<ntsc>TRUE</ntsc>
													<timebase>24</timebase>
												</rate>
												<in>0</in>
												<out>2189</out>
												<start>0</start>
												<end>2189</end>
												<masterclipid>ArmA 3 2020.11.14 - 01.37.46.111.mp4</masterclipid>
												<logginginfo>
													<scene />
													<shottake />
													<lognote />
													<good>FALSE</good>
												</logginginfo>
												<labels>
													<label2 />
												</labels>
												<comments>
													<mastercomment1 />
													<mastercomment2 />
													<mastercomment3 />
													<mastercomment4 />
												</comments>
												<file id="ArmA 3 2020.11.14 - 01.37.46.111" />
												<sourcetrack>
													<mediatype>audio</mediatype>
												</sourcetrack>
											</clipitem>
											<enabled>TRUE</enabled>
											<locked>FALSE</locked>
										</track>
									</audio>
								</media>
							</clip>
							<clip id="ArmA 3 2020.11.14 - 01.40.03.112.mp4">
								<updatebehavior>add</updatebehavior>
								<name>ArmA 3 2020.11.14 - 01.40.03.112.mp4</name>
								<duration>1199</duration>
								<rate>
									<ntsc>FALSE</ntsc>
									<timebase>60</timebase>
								</rate>
								<in>-1</in>
								<out>-1</out>
								<masterclipid>ArmA 3 2020.11.14 - 01.40.03.112.mp4</masterclipid>
								<ismasterclip>TRUE</ismasterclip>
								<logginginfo>
									<scene />
									<shottake />
									<lognote />
									<good>FALSE</good>
								</logginginfo>
								<labels>
									<label2 />
								</labels>
								<comments>
									<mastercomment1 />
									<mastercomment2 />
									<mastercomment3 />
									<mastercomment4 />
								</comments>
								<media>
									<video>
										<track>
											<clipitem id="ArmA 3 2020.11.14 - 01.40.03.112.mp41">
												<name>ArmA 3 2020.11.14 - 01.40.03.112.mp4</name>
												<duration>1199</duration>
												<rate>
													<ntsc>FALSE</ntsc>
													<timebase>60</timebase>
												</rate>
												<in>0</in>
												<out>1199</out>
												<start>0</start>
												<end>1199</end>
												<pixelaspectratio>Square</pixelaspectratio>
												<anamorphic>FALSE</anamorphic>
												<alphatype>none</alphatype>
												<masterclipid>ArmA 3 2020.11.14 - 01.40.03.112.mp4</masterclipid>
												<logginginfo>
													<scene />
													<shottake />
													<lognote />
													<good>FALSE</good>
												</logginginfo>
												<labels>
													<label2 />
												</labels>
												<comments>
													<mastercomment1 />
													<mastercomment2 />
													<mastercomment3 />
													<mastercomment4 />
												</comments>
												<file id="ArmA 3 2020.11.14 - 01.40.03.112">
													<name>ArmA 3 2020.11.14 - 01.40.03.112.mp4</name>
													<pathurl>file://localhost/F:/AMVS Russia/NaturaDestruction/PRPACK4/ArmA 3 2020.11.14 - 01.40.03.112.mp4</pathurl>
													<rate>
														<timebase>60</timebase>
														<ntsc>FALSE</ntsc>
													</rate>
													<duration>1199</duration>
													<timecode>
														<rate>
															<timebase>60</timebase>
															<ntsc>FALSE</ntsc>
														</rate>
														<frame>0</frame>
														<displayformat>NDF</displayformat>
														<source>source</source>
													</timecode>
													<media>
														<video>
															<duration>1199</duration>
															<samplecharacteristics>
																<width>1920</width>
																<height>1080</height>
															</samplecharacteristics>
														</video>
														<audio>
															<samplecharacteristics>
																<samplerate>48000</samplerate>
																<depth>32</depth>
															</samplecharacteristics>
															<channelcount>1</channelcount>
														</audio>
														<audio>
															<samplecharacteristics>
																<samplerate>48000</samplerate>
																<depth>32</depth>
															</samplecharacteristics>
															<channelcount>1</channelcount>
														</audio>
													</media>
												</file>
												<sourcetrack>
													<mediatype>video</mediatype>
												</sourcetrack>
												<fielddominance>none</fielddominance>
											</clipitem>
											<enabled>TRUE</enabled>
											<locked>FALSE</locked>
										</track>
									</video>
									<audio>
										<track>
											<clipitem id="ArmA 3 2020.11.14 - 01.40.03.112.mp42">
												<name>ArmA 3 2020.11.14 - 01.40.03.112.mp4</name>
												<duration>1199</duration>
												<rate>
													<ntsc>TRUE</ntsc>
													<timebase>24</timebase>
												</rate>
												<in>0</in>
												<out>1199</out>
												<start>0</start>
												<end>1199</end>
												<masterclipid>ArmA 3 2020.11.14 - 01.40.03.112.mp4</masterclipid>
												<logginginfo>
													<scene />
													<shottake />
													<lognote />
													<good>FALSE</good>
												</logginginfo>
												<labels>
													<label2 />
												</labels>
												<comments>
													<mastercomment1 />
													<mastercomment2 />
													<mastercomment3 />
													<mastercomment4 />
												</comments>
												<file id="ArmA 3 2020.11.14 - 01.40.03.112" />
												<sourcetrack>
													<mediatype>audio</mediatype>
												</sourcetrack>
											</clipitem>
											<enabled>TRUE</enabled>
											<locked>FALSE</locked>
										</track>
										<track>
											<clipitem id="ArmA 3 2020.11.14 - 01.40.03.112.mp43">
												<name>ArmA 3 2020.11.14 - 01.40.03.112.mp4</name>
												<duration>1199</duration>
												<rate>
													<ntsc>TRUE</ntsc>
													<timebase>24</timebase>
												</rate>
												<in>0</in>
												<out>1199</out>
												<start>0</start>
												<end>1199</end>
												<masterclipid>ArmA 3 2020.11.14 - 01.40.03.112.mp4</masterclipid>
												<logginginfo>
													<scene />
													<shottake />
													<lognote />
													<good>FALSE</good>
												</logginginfo>
												<labels>
													<label2 />
												</labels>
												<comments>
													<mastercomment1 />
													<mastercomment2 />
													<mastercomment3 />
													<mastercomment4 />
												</comments>
												<file id="ArmA 3 2020.11.14 - 01.40.03.112" />
												<sourcetrack>
													<mediatype>audio</mediatype>
												</sourcetrack>
											</clipitem>
											<enabled>TRUE</enabled>
											<locked>FALSE</locked>
										</track>
									</audio>
								</media>
							</clip>
							<clip id="ArmA 3 2020.11.14 - 01.41.02.113.mp4">
								<updatebehavior>add</updatebehavior>
								<name>ArmA 3 2020.11.14 - 01.41.02.113.mp4</name>
								<duration>927</duration>
								<rate>
									<ntsc>FALSE</ntsc>
									<timebase>60</timebase>
								</rate>
								<in>-1</in>
								<out>-1</out>
								<masterclipid>ArmA 3 2020.11.14 - 01.41.02.113.mp4</masterclipid>
								<ismasterclip>TRUE</ismasterclip>
								<logginginfo>
									<scene />
									<shottake />
									<lognote />
									<good>FALSE</good>
								</logginginfo>
								<labels>
									<label2 />
								</labels>
								<comments>
									<mastercomment1 />
									<mastercomment2 />
									<mastercomment3 />
									<mastercomment4 />
								</comments>
								<media>
									<video>
										<track>
											<clipitem id="ArmA 3 2020.11.14 - 01.41.02.113.mp41">
												<name>ArmA 3 2020.11.14 - 01.41.02.113.mp4</name>
												<duration>927</duration>
												<rate>
													<ntsc>FALSE</ntsc>
													<timebase>60</timebase>
												</rate>
												<in>0</in>
												<out>927</out>
												<start>0</start>
												<end>927</end>
												<pixelaspectratio>Square</pixelaspectratio>
												<anamorphic>FALSE</anamorphic>
												<alphatype>none</alphatype>
												<masterclipid>ArmA 3 2020.11.14 - 01.41.02.113.mp4</masterclipid>
												<logginginfo>
													<scene />
													<shottake />
													<lognote />
													<good>FALSE</good>
												</logginginfo>
												<labels>
													<label2 />
												</labels>
												<comments>
													<mastercomment1 />
													<mastercomment2 />
													<mastercomment3 />
													<mastercomment4 />
												</comments>
												<file id="ArmA 3 2020.11.14 - 01.41.02.113">
													<name>ArmA 3 2020.11.14 - 01.41.02.113.mp4</name>
													<pathurl>file://localhost/F:/AMVS Russia/NaturaDestruction/PRPACK4/ArmA 3 2020.11.14 - 01.41.02.113.mp4</pathurl>
													<rate>
														<timebase>60</timebase>
														<ntsc>FALSE</ntsc>
													</rate>
													<duration>927</duration>
													<timecode>
														<rate>
															<timebase>60</timebase>
															<ntsc>FALSE</ntsc>
														</rate>
														<frame>0</frame>
														<displayformat>NDF</displayformat>
														<source>source</source>
													</timecode>
													<media>
														<video>
															<duration>927</duration>
															<samplecharacteristics>
																<width>1920</width>
																<height>1080</height>
															</samplecharacteristics>
														</video>
														<audio>
															<samplecharacteristics>
																<samplerate>48000</samplerate>
																<depth>32</depth>
															</samplecharacteristics>
															<channelcount>1</channelcount>
														</audio>
														<audio>
															<samplecharacteristics>
																<samplerate>48000</samplerate>
																<depth>32</depth>
															</samplecharacteristics>
															<channelcount>1</channelcount>
														</audio>
													</media>
												</file>
												<sourcetrack>
													<mediatype>video</mediatype>
												</sourcetrack>
												<fielddominance>none</fielddominance>
											</clipitem>
											<enabled>TRUE</enabled>
											<locked>FALSE</locked>
										</track>
									</video>
									<audio>
										<track>
											<clipitem id="ArmA 3 2020.11.14 - 01.41.02.113.mp42">
												<name>ArmA 3 2020.11.14 - 01.41.02.113.mp4</name>
												<duration>927</duration>
												<rate>
													<ntsc>TRUE</ntsc>
													<timebase>24</timebase>
												</rate>
												<in>0</in>
												<out>927</out>
												<start>0</start>
												<end>927</end>
												<masterclipid>ArmA 3 2020.11.14 - 01.41.02.113.mp4</masterclipid>
												<logginginfo>
													<scene />
													<shottake />
													<lognote />
													<good>FALSE</good>
												</logginginfo>
												<labels>
													<label2 />
												</labels>
												<comments>
													<mastercomment1 />
													<mastercomment2 />
													<mastercomment3 />
													<mastercomment4 />
												</comments>
												<file id="ArmA 3 2020.11.14 - 01.41.02.113" />
												<sourcetrack>
													<mediatype>audio</mediatype>
												</sourcetrack>
											</clipitem>
											<enabled>TRUE</enabled>
											<locked>FALSE</locked>
										</track>
										<track>
											<clipitem id="ArmA 3 2020.11.14 - 01.41.02.113.mp43">
												<name>ArmA 3 2020.11.14 - 01.41.02.113.mp4</name>
												<duration>927</duration>
												<rate>
													<ntsc>TRUE</ntsc>
													<timebase>24</timebase>
												</rate>
												<in>0</in>
												<out>927</out>
												<start>0</start>
												<end>927</end>
												<masterclipid>ArmA 3 2020.11.14 - 01.41.02.113.mp4</masterclipid>
												<logginginfo>
													<scene />
													<shottake />
													<lognote />
													<good>FALSE</good>
												</logginginfo>
												<labels>
													<label2 />
												</labels>
												<comments>
													<mastercomment1 />
													<mastercomment2 />
													<mastercomment3 />
													<mastercomment4 />
												</comments>
												<file id="ArmA 3 2020.11.14 - 01.41.02.113" />
												<sourcetrack>
													<mediatype>audio</mediatype>
												</sourcetrack>
											</clipitem>
											<enabled>TRUE</enabled>
											<locked>FALSE</locked>
										</track>
									</audio>
								</media>
							</clip>
							<clip id="ArmA 3 2020.11.14 - 01.42.04.114.mp4">
								<updatebehavior>add</updatebehavior>
								<name>ArmA 3 2020.11.14 - 01.42.04.114.mp4</name>
								<duration>871</duration>
								<rate>
									<ntsc>FALSE</ntsc>
									<timebase>60</timebase>
								</rate>
								<in>-1</in>
								<out>-1</out>
								<masterclipid>ArmA 3 2020.11.14 - 01.42.04.114.mp4</masterclipid>
								<ismasterclip>TRUE</ismasterclip>
								<logginginfo>
									<scene />
									<shottake />
									<lognote />
									<good>FALSE</good>
								</logginginfo>
								<labels>
									<label2 />
								</labels>
								<comments>
									<mastercomment1 />
									<mastercomment2 />
									<mastercomment3 />
									<mastercomment4 />
								</comments>
								<media>
									<video>
										<track>
											<clipitem id="ArmA 3 2020.11.14 - 01.42.04.114.mp41">
												<name>ArmA 3 2020.11.14 - 01.42.04.114.mp4</name>
												<duration>871</duration>
												<rate>
													<ntsc>FALSE</ntsc>
													<timebase>60</timebase>
												</rate>
												<in>0</in>
												<out>871</out>
												<start>0</start>
												<end>871</end>
												<pixelaspectratio>Square</pixelaspectratio>
												<anamorphic>FALSE</anamorphic>
												<alphatype>none</alphatype>
												<masterclipid>ArmA 3 2020.11.14 - 01.42.04.114.mp4</masterclipid>
												<logginginfo>
													<scene />
													<shottake />
													<lognote />
													<good>FALSE</good>
												</logginginfo>
												<labels>
													<label2 />
												</labels>
												<comments>
													<mastercomment1 />
													<mastercomment2 />
													<mastercomment3 />
													<mastercomment4 />
												</comments>
												<file id="ArmA 3 2020.11.14 - 01.42.04.114">
													<name>ArmA 3 2020.11.14 - 01.42.04.114.mp4</name>
													<pathurl>file://localhost/F:/AMVS Russia/NaturaDestruction/PRPACK4/ArmA 3 2020.11.14 - 01.42.04.114.mp4</pathurl>
													<rate>
														<timebase>60</timebase>
														<ntsc>FALSE</ntsc>
													</rate>
													<duration>871</duration>
													<timecode>
														<rate>
															<timebase>60</timebase>
															<ntsc>FALSE</ntsc>
														</rate>
														<frame>0</frame>
														<displayformat>NDF</displayformat>
														<source>source</source>
													</timecode>
													<media>
														<video>
															<duration>871</duration>
															<samplecharacteristics>
																<width>1920</width>
																<height>1080</height>
															</samplecharacteristics>
														</video>
														<audio>
															<samplecharacteristics>
																<samplerate>48000</samplerate>
																<depth>32</depth>
															</samplecharacteristics>
															<channelcount>1</channelcount>
														</audio>
														<audio>
															<samplecharacteristics>
																<samplerate>48000</samplerate>
																<depth>32</depth>
															</samplecharacteristics>
															<channelcount>1</channelcount>
														</audio>
													</media>
												</file>
												<sourcetrack>
													<mediatype>video</mediatype>
												</sourcetrack>
												<fielddominance>none</fielddominance>
											</clipitem>
											<enabled>TRUE</enabled>
											<locked>FALSE</locked>
										</track>
									</video>
									<audio>
										<track>
											<clipitem id="ArmA 3 2020.11.14 - 01.42.04.114.mp42">
												<name>ArmA 3 2020.11.14 - 01.42.04.114.mp4</name>
												<duration>871</duration>
												<rate>
													<ntsc>TRUE</ntsc>
													<timebase>24</timebase>
												</rate>
												<in>0</in>
												<out>871</out>
												<start>0</start>
												<end>871</end>
												<masterclipid>ArmA 3 2020.11.14 - 01.42.04.114.mp4</masterclipid>
												<logginginfo>
													<scene />
													<shottake />
													<lognote />
													<good>FALSE</good>
												</logginginfo>
												<labels>
													<label2 />
												</labels>
												<comments>
													<mastercomment1 />
													<mastercomment2 />
													<mastercomment3 />
													<mastercomment4 />
												</comments>
												<file id="ArmA 3 2020.11.14 - 01.42.04.114" />
												<sourcetrack>
													<mediatype>audio</mediatype>
												</sourcetrack>
											</clipitem>
											<enabled>TRUE</enabled>
											<locked>FALSE</locked>
										</track>
										<track>
											<clipitem id="ArmA 3 2020.11.14 - 01.42.04.114.mp43">
												<name>ArmA 3 2020.11.14 - 01.42.04.114.mp4</name>
												<duration>871</duration>
												<rate>
													<ntsc>TRUE</ntsc>
													<timebase>24</timebase>
												</rate>
												<in>0</in>
												<out>871</out>
												<start>0</start>
												<end>871</end>
												<masterclipid>ArmA 3 2020.11.14 - 01.42.04.114.mp4</masterclipid>
												<logginginfo>
													<scene />
													<shottake />
													<lognote />
													<good>FALSE</good>
												</logginginfo>
												<labels>
													<label2 />
												</labels>
												<comments>
													<mastercomment1 />
													<mastercomment2 />
													<mastercomment3 />
													<mastercomment4 />
												</comments>
												<file id="ArmA 3 2020.11.14 - 01.42.04.114" />
												<sourcetrack>
													<mediatype>audio</mediatype>
												</sourcetrack>
											</clipitem>
											<enabled>TRUE</enabled>
											<locked>FALSE</locked>
										</track>
									</audio>
								</media>
							</clip>
							<clip id="ArmA 3 2020.11.14 - 01.44.22.115.mp4">
								<updatebehavior>add</updatebehavior>
								<name>ArmA 3 2020.11.14 - 01.44.22.115.mp4</name>
								<duration>519</duration>
								<rate>
									<ntsc>FALSE</ntsc>
									<timebase>60</timebase>
								</rate>
								<in>-1</in>
								<out>-1</out>
								<masterclipid>ArmA 3 2020.11.14 - 01.44.22.115.mp4</masterclipid>
								<ismasterclip>TRUE</ismasterclip>
								<logginginfo>
									<scene />
									<shottake />
									<lognote />
									<good>FALSE</good>
								</logginginfo>
								<labels>
									<label2 />
								</labels>
								<comments>
									<mastercomment1 />
									<mastercomment2 />
									<mastercomment3 />
									<mastercomment4 />
								</comments>
								<media>
									<video>
										<track>
											<clipitem id="ArmA 3 2020.11.14 - 01.44.22.115.mp41">
												<name>ArmA 3 2020.11.14 - 01.44.22.115.mp4</name>
												<duration>519</duration>
												<rate>
													<ntsc>FALSE</ntsc>
													<timebase>60</timebase>
												</rate>
												<in>0</in>
												<out>519</out>
												<start>0</start>
												<end>519</end>
												<pixelaspectratio>Square</pixelaspectratio>
												<anamorphic>FALSE</anamorphic>
												<alphatype>none</alphatype>
												<masterclipid>ArmA 3 2020.11.14 - 01.44.22.115.mp4</masterclipid>
												<logginginfo>
													<scene />
													<shottake />
													<lognote />
													<good>FALSE</good>
												</logginginfo>
												<labels>
													<label2 />
												</labels>
												<comments>
													<mastercomment1 />
													<mastercomment2 />
													<mastercomment3 />
													<mastercomment4 />
												</comments>
												<file id="ArmA 3 2020.11.14 - 01.44.22.115">
													<name>ArmA 3 2020.11.14 - 01.44.22.115.mp4</name>
													<pathurl>file://localhost/F:/AMVS Russia/NaturaDestruction/PRPACK6/ArmA 3 2020.11.14 - 01.44.22.115.mp4</pathurl>
													<rate>
														<timebase>60</timebase>
														<ntsc>FALSE</ntsc>
													</rate>
													<duration>519</duration>
													<timecode>
														<rate>
															<timebase>60</timebase>
															<ntsc>FALSE</ntsc>
														</rate>
														<frame>0</frame>
														<displayformat>NDF</displayformat>
														<source>source</source>
													</timecode>
													<media>
														<video>
															<duration>519</duration>
															<samplecharacteristics>
																<width>1920</width>
																<height>1080</height>
															</samplecharacteristics>
														</video>
														<audio>
															<samplecharacteristics>
																<samplerate>48000</samplerate>
																<depth>32</depth>
															</samplecharacteristics>
															<channelcount>1</channelcount>
														</audio>
														<audio>
															<samplecharacteristics>
																<samplerate>48000</samplerate>
																<depth>32</depth>
															</samplecharacteristics>
															<channelcount>1</channelcount>
														</audio>
													</media>
												</file>
												<sourcetrack>
													<mediatype>video</mediatype>
												</sourcetrack>
												<fielddominance>none</fielddominance>
											</clipitem>
											<enabled>TRUE</enabled>
											<locked>FALSE</locked>
										</track>
									</video>
									<audio>
										<track>
											<clipitem id="ArmA 3 2020.11.14 - 01.44.22.115.mp42">
												<name>ArmA 3 2020.11.14 - 01.44.22.115.mp4</name>
												<duration>519</duration>
												<rate>
													<ntsc>TRUE</ntsc>
													<timebase>24</timebase>
												</rate>
												<in>0</in>
												<out>519</out>
												<start>0</start>
												<end>519</end>
												<masterclipid>ArmA 3 2020.11.14 - 01.44.22.115.mp4</masterclipid>
												<logginginfo>
													<scene />
													<shottake />
													<lognote />
													<good>FALSE</good>
												</logginginfo>
												<labels>
													<label2 />
												</labels>
												<comments>
													<mastercomment1 />
													<mastercomment2 />
													<mastercomment3 />
													<mastercomment4 />
												</comments>
												<file id="ArmA 3 2020.11.14 - 01.44.22.115" />
												<sourcetrack>
													<mediatype>audio</mediatype>
												</sourcetrack>
											</clipitem>
											<enabled>TRUE</enabled>
											<locked>FALSE</locked>
										</track>
										<track>
											<clipitem id="ArmA 3 2020.11.14 - 01.44.22.115.mp43">
												<name>ArmA 3 2020.11.14 - 01.44.22.115.mp4</name>
												<duration>519</duration>
												<rate>
													<ntsc>TRUE</ntsc>
													<timebase>24</timebase>
												</rate>
												<in>0</in>
												<out>519</out>
												<start>0</start>
												<end>519</end>
												<masterclipid>ArmA 3 2020.11.14 - 01.44.22.115.mp4</masterclipid>
												<logginginfo>
													<scene />
													<shottake />
													<lognote />
													<good>FALSE</good>
												</logginginfo>
												<labels>
													<label2 />
												</labels>
												<comments>
													<mastercomment1 />
													<mastercomment2 />
													<mastercomment3 />
													<mastercomment4 />
												</comments>
												<file id="ArmA 3 2020.11.14 - 01.44.22.115" />
												<sourcetrack>
													<mediatype>audio</mediatype>
												</sourcetrack>
											</clipitem>
											<enabled>TRUE</enabled>
											<locked>FALSE</locked>
										</track>
									</audio>
								</media>
							</clip>
							<clip id="ArmA 3 2020.11.14 - 01.44.58.116.mp4">
								<updatebehavior>add</updatebehavior>
								<name>ArmA 3 2020.11.14 - 01.44.58.116.mp4</name>
								<duration>882</duration>
								<rate>
									<ntsc>FALSE</ntsc>
									<timebase>60</timebase>
								</rate>
								<in>-1</in>
								<out>-1</out>
								<masterclipid>ArmA 3 2020.11.14 - 01.44.58.116.mp4</masterclipid>
								<ismasterclip>TRUE</ismasterclip>
								<logginginfo>
									<scene />
									<shottake />
									<lognote />
									<good>FALSE</good>
								</logginginfo>
								<labels>
									<label2 />
								</labels>
								<comments>
									<mastercomment1 />
									<mastercomment2 />
									<mastercomment3 />
									<mastercomment4 />
								</comments>
								<media>
									<video>
										<track>
											<clipitem id="ArmA 3 2020.11.14 - 01.44.58.116.mp41">
												<name>ArmA 3 2020.11.14 - 01.44.58.116.mp4</name>
												<duration>882</duration>
												<rate>
													<ntsc>FALSE</ntsc>
													<timebase>60</timebase>
												</rate>
												<in>0</in>
												<out>882</out>
												<start>0</start>
												<end>882</end>
												<pixelaspectratio>Square</pixelaspectratio>
												<anamorphic>FALSE</anamorphic>
												<alphatype>none</alphatype>
												<masterclipid>ArmA 3 2020.11.14 - 01.44.58.116.mp4</masterclipid>
												<logginginfo>
													<scene />
													<shottake />
													<lognote />
													<good>FALSE</good>
												</logginginfo>
												<labels>
													<label2 />
												</labels>
												<comments>
													<mastercomment1 />
													<mastercomment2 />
													<mastercomment3 />
													<mastercomment4 />
												</comments>
												<file id="ArmA 3 2020.11.14 - 01.44.58.116">
													<name>ArmA 3 2020.11.14 - 01.44.58.116.mp4</name>
													<pathurl>file://localhost/F:/AMVS Russia/NaturaDestruction/PRPACK4/ArmA 3 2020.11.14 - 01.44.58.116.mp4</pathurl>
													<rate>
														<timebase>60</timebase>
														<ntsc>FALSE</ntsc>
													</rate>
													<duration>882</duration>
													<timecode>
														<rate>
															<timebase>60</timebase>
															<ntsc>FALSE</ntsc>
														</rate>
														<frame>0</frame>
														<displayformat>NDF</displayformat>
														<source>source</source>
													</timecode>
													<media>
														<video>
															<duration>882</duration>
															<samplecharacteristics>
																<width>1920</width>
																<height>1080</height>
															</samplecharacteristics>
														</video>
														<audio>
															<samplecharacteristics>
																<samplerate>48000</samplerate>
																<depth>32</depth>
															</samplecharacteristics>
															<channelcount>1</channelcount>
														</audio>
														<audio>
															<samplecharacteristics>
																<samplerate>48000</samplerate>
																<depth>32</depth>
															</samplecharacteristics>
															<channelcount>1</channelcount>
														</audio>
													</media>
												</file>
												<sourcetrack>
													<mediatype>video</mediatype>
												</sourcetrack>
												<fielddominance>none</fielddominance>
											</clipitem>
											<enabled>TRUE</enabled>
											<locked>FALSE</locked>
										</track>
									</video>
									<audio>
										<track>
											<clipitem id="ArmA 3 2020.11.14 - 01.44.58.116.mp42">
												<name>ArmA 3 2020.11.14 - 01.44.58.116.mp4</name>
												<duration>882</duration>
												<rate>
													<ntsc>TRUE</ntsc>
													<timebase>24</timebase>
												</rate>
												<in>0</in>
												<out>882</out>
												<start>0</start>
												<end>882</end>
												<masterclipid>ArmA 3 2020.11.14 - 01.44.58.116.mp4</masterclipid>
												<logginginfo>
													<scene />
													<shottake />
													<lognote />
													<good>FALSE</good>
												</logginginfo>
												<labels>
													<label2 />
												</labels>
												<comments>
													<mastercomment1 />
													<mastercomment2 />
													<mastercomment3 />
													<mastercomment4 />
												</comments>
												<file id="ArmA 3 2020.11.14 - 01.44.58.116" />
												<sourcetrack>
													<mediatype>audio</mediatype>
												</sourcetrack>
											</clipitem>
											<enabled>TRUE</enabled>
											<locked>FALSE</locked>
										</track>
										<track>
											<clipitem id="ArmA 3 2020.11.14 - 01.44.58.116.mp43">
												<name>ArmA 3 2020.11.14 - 01.44.58.116.mp4</name>
												<duration>882</duration>
												<rate>
													<ntsc>TRUE</ntsc>
													<timebase>24</timebase>
												</rate>
												<in>0</in>
												<out>882</out>
												<start>0</start>
												<end>882</end>
												<masterclipid>ArmA 3 2020.11.14 - 01.44.58.116.mp4</masterclipid>
												<logginginfo>
													<scene />
													<shottake />
													<lognote />
													<good>FALSE</good>
												</logginginfo>
												<labels>
													<label2 />
												</labels>
												<comments>
													<mastercomment1 />
													<mastercomment2 />
													<mastercomment3 />
													<mastercomment4 />
												</comments>
												<file id="ArmA 3 2020.11.14 - 01.44.58.116" />
												<sourcetrack>
													<mediatype>audio</mediatype>
												</sourcetrack>
											</clipitem>
											<enabled>TRUE</enabled>
											<locked>FALSE</locked>
										</track>
									</audio>
								</media>
							</clip>
							<clip id="ArmA 3 2020.11.14 - 01.48.52.117.mp4">
								<updatebehavior>add</updatebehavior>
								<name>ArmA 3 2020.11.14 - 01.48.52.117.mp4</name>
								<duration>628</duration>
								<rate>
									<ntsc>FALSE</ntsc>
									<timebase>60</timebase>
								</rate>
								<in>-1</in>
								<out>-1</out>
								<masterclipid>ArmA 3 2020.11.14 - 01.48.52.117.mp4</masterclipid>
								<ismasterclip>TRUE</ismasterclip>
								<logginginfo>
									<scene />
									<shottake />
									<lognote />
									<good>FALSE</good>
								</logginginfo>
								<labels>
									<label2 />
								</labels>
								<comments>
									<mastercomment1 />
									<mastercomment2 />
									<mastercomment3 />
									<mastercomment4 />
								</comments>
								<media>
									<video>
										<track>
											<clipitem id="ArmA 3 2020.11.14 - 01.48.52.117.mp41">
												<name>ArmA 3 2020.11.14 - 01.48.52.117.mp4</name>
												<duration>628</duration>
												<rate>
													<ntsc>FALSE</ntsc>
													<timebase>60</timebase>
												</rate>
												<in>0</in>
												<out>628</out>
												<start>0</start>
												<end>628</end>
												<pixelaspectratio>Square</pixelaspectratio>
												<anamorphic>FALSE</anamorphic>
												<alphatype>none</alphatype>
												<masterclipid>ArmA 3 2020.11.14 - 01.48.52.117.mp4</masterclipid>
												<logginginfo>
													<scene />
													<shottake />
													<lognote />
													<good>FALSE</good>
												</logginginfo>
												<labels>
													<label2 />
												</labels>
												<comments>
													<mastercomment1 />
													<mastercomment2 />
													<mastercomment3 />
													<mastercomment4 />
												</comments>
												<file id="ArmA 3 2020.11.14 - 01.48.52.117">
													<name>ArmA 3 2020.11.14 - 01.48.52.117.mp4</name>
													<pathurl>file://localhost/F:/AMVS Russia/NaturaDestruction/PRPACK5/ArmA 3 2020.11.14 - 01.48.52.117.mp4</pathurl>
													<rate>
														<timebase>60</timebase>
														<ntsc>FALSE</ntsc>
													</rate>
													<duration>628</duration>
													<timecode>
														<rate>
															<timebase>60</timebase>
															<ntsc>FALSE</ntsc>
														</rate>
														<frame>0</frame>
														<displayformat>NDF</displayformat>
														<source>source</source>
													</timecode>
													<media>
														<video>
															<duration>628</duration>
															<samplecharacteristics>
																<width>1920</width>
																<height>1080</height>
															</samplecharacteristics>
														</video>
														<audio>
															<samplecharacteristics>
																<samplerate>48000</samplerate>
																<depth>32</depth>
															</samplecharacteristics>
															<channelcount>1</channelcount>
														</audio>
														<audio>
															<samplecharacteristics>
																<samplerate>48000</samplerate>
																<depth>32</depth>
															</samplecharacteristics>
															<channelcount>1</channelcount>
														</audio>
													</media>
												</file>
												<sourcetrack>
													<mediatype>video</mediatype>
												</sourcetrack>
												<fielddominance>none</fielddominance>
											</clipitem>
											<enabled>TRUE</enabled>
											<locked>FALSE</locked>
										</track>
									</video>
									<audio>
										<track>
											<clipitem id="ArmA 3 2020.11.14 - 01.48.52.117.mp42">
												<name>ArmA 3 2020.11.14 - 01.48.52.117.mp4</name>
												<duration>628</duration>
												<rate>
													<ntsc>TRUE</ntsc>
													<timebase>24</timebase>
												</rate>
												<in>0</in>
												<out>628</out>
												<start>0</start>
												<end>628</end>
												<masterclipid>ArmA 3 2020.11.14 - 01.48.52.117.mp4</masterclipid>
												<logginginfo>
													<scene />
													<shottake />
													<lognote />
													<good>FALSE</good>
												</logginginfo>
												<labels>
													<label2 />
												</labels>
												<comments>
													<mastercomment1 />
													<mastercomment2 />
													<mastercomment3 />
													<mastercomment4 />
												</comments>
												<file id="ArmA 3 2020.11.14 - 01.48.52.117" />
												<sourcetrack>
													<mediatype>audio</mediatype>
												</sourcetrack>
											</clipitem>
											<enabled>TRUE</enabled>
											<locked>FALSE</locked>
										</track>
										<track>
											<clipitem id="ArmA 3 2020.11.14 - 01.48.52.117.mp43">
												<name>ArmA 3 2020.11.14 - 01.48.52.117.mp4</name>
												<duration>628</duration>
												<rate>
													<ntsc>TRUE</ntsc>
													<timebase>24</timebase>
												</rate>
												<in>0</in>
												<out>628</out>
												<start>0</start>
												<end>628</end>
												<masterclipid>ArmA 3 2020.11.14 - 01.48.52.117.mp4</masterclipid>
												<logginginfo>
													<scene />
													<shottake />
													<lognote />
													<good>FALSE</good>
												</logginginfo>
												<labels>
													<label2 />
												</labels>
												<comments>
													<mastercomment1 />
													<mastercomment2 />
													<mastercomment3 />
													<mastercomment4 />
												</comments>
												<file id="ArmA 3 2020.11.14 - 01.48.52.117" />
												<sourcetrack>
													<mediatype>audio</mediatype>
												</sourcetrack>
											</clipitem>
											<enabled>TRUE</enabled>
											<locked>FALSE</locked>
										</track>
									</audio>
								</media>
							</clip>
							<clip id="ArmA 3 2020.11.14 - 01.48.52.117.mp4">
								<updatebehavior>add</updatebehavior>
								<name>ArmA 3 2020.11.14 - 01.48.52.117.mp4</name>
								<duration>628</duration>
								<rate>
									<ntsc>FALSE</ntsc>
									<timebase>60</timebase>
								</rate>
								<in>-1</in>
								<out>-1</out>
								<masterclipid>ArmA 3 2020.11.14 - 01.48.52.117.mp4</masterclipid>
								<ismasterclip>TRUE</ismasterclip>
								<logginginfo>
									<scene />
									<shottake />
									<lognote />
									<good>FALSE</good>
								</logginginfo>
								<labels>
									<label2 />
								</labels>
								<comments>
									<mastercomment1 />
									<mastercomment2 />
									<mastercomment3 />
									<mastercomment4 />
								</comments>
								<media>
									<video>
										<track>
											<clipitem id="ArmA 3 2020.11.14 - 01.48.52.117.mp41">
												<name>ArmA 3 2020.11.14 - 01.48.52.117.mp4</name>
												<duration>628</duration>
												<rate>
													<ntsc>FALSE</ntsc>
													<timebase>60</timebase>
												</rate>
												<in>0</in>
												<out>628</out>
												<start>0</start>
												<end>628</end>
												<pixelaspectratio>Square</pixelaspectratio>
												<anamorphic>FALSE</anamorphic>
												<alphatype>none</alphatype>
												<masterclipid>ArmA 3 2020.11.14 - 01.48.52.117.mp4</masterclipid>
												<logginginfo>
													<scene />
													<shottake />
													<lognote />
													<good>FALSE</good>
												</logginginfo>
												<labels>
													<label2 />
												</labels>
												<comments>
													<mastercomment1 />
													<mastercomment2 />
													<mastercomment3 />
													<mastercomment4 />
												</comments>
												<file id="ArmA 3 2020.11.14 - 01.48.52.117" />
												<sourcetrack>
													<mediatype>video</mediatype>
												</sourcetrack>
												<fielddominance>none</fielddominance>
											</clipitem>
											<enabled>TRUE</enabled>
											<locked>FALSE</locked>
										</track>
									</video>
									<audio>
										<track>
											<clipitem id="ArmA 3 2020.11.14 - 01.48.52.117.mp42">
												<name>ArmA 3 2020.11.14 - 01.48.52.117.mp4</name>
												<duration>628</duration>
												<rate>
													<ntsc>TRUE</ntsc>
													<timebase>24</timebase>
												</rate>
												<in>0</in>
												<out>628</out>
												<start>0</start>
												<end>628</end>
												<masterclipid>ArmA 3 2020.11.14 - 01.48.52.117.mp4</masterclipid>
												<logginginfo>
													<scene />
													<shottake />
													<lognote />
													<good>FALSE</good>
												</logginginfo>
												<labels>
													<label2 />
												</labels>
												<comments>
													<mastercomment1 />
													<mastercomment2 />
													<mastercomment3 />
													<mastercomment4 />
												</comments>
												<file id="ArmA 3 2020.11.14 - 01.48.52.117" />
												<sourcetrack>
													<mediatype>audio</mediatype>
												</sourcetrack>
											</clipitem>
											<enabled>TRUE</enabled>
											<locked>FALSE</locked>
										</track>
										<track>
											<clipitem id="ArmA 3 2020.11.14 - 01.48.52.117.mp43">
												<name>ArmA 3 2020.11.14 - 01.48.52.117.mp4</name>
												<duration>628</duration>
												<rate>
													<ntsc>TRUE</ntsc>
													<timebase>24</timebase>
												</rate>
												<in>0</in>
												<out>628</out>
												<start>0</start>
												<end>628</end>
												<masterclipid>ArmA 3 2020.11.14 - 01.48.52.117.mp4</masterclipid>
												<logginginfo>
													<scene />
													<shottake />
													<lognote />
													<good>FALSE</good>
												</logginginfo>
												<labels>
													<label2 />
												</labels>
												<comments>
													<mastercomment1 />
													<mastercomment2 />
													<mastercomment3 />
													<mastercomment4 />
												</comments>
												<file id="ArmA 3 2020.11.14 - 01.48.52.117" />
												<sourcetrack>
													<mediatype>audio</mediatype>
												</sourcetrack>
											</clipitem>
											<enabled>TRUE</enabled>
											<locked>FALSE</locked>
										</track>
									</audio>
								</media>
							</clip>
							<clip id="ArmA 3 2020.11.14 - 01.49.37.118.mp4">
								<updatebehavior>add</updatebehavior>
								<name>ArmA 3 2020.11.14 - 01.49.37.118.mp4</name>
								<duration>1699</duration>
								<rate>
									<ntsc>FALSE</ntsc>
									<timebase>60</timebase>
								</rate>
								<in>-1</in>
								<out>-1</out>
								<masterclipid>ArmA 3 2020.11.14 - 01.49.37.118.mp4</masterclipid>
								<ismasterclip>TRUE</ismasterclip>
								<logginginfo>
									<scene />
									<shottake />
									<lognote />
									<good>FALSE</good>
								</logginginfo>
								<labels>
									<label2 />
								</labels>
								<comments>
									<mastercomment1 />
									<mastercomment2 />
									<mastercomment3 />
									<mastercomment4 />
								</comments>
								<media>
									<video>
										<track>
											<clipitem id="ArmA 3 2020.11.14 - 01.49.37.118.mp41">
												<name>ArmA 3 2020.11.14 - 01.49.37.118.mp4</name>
												<duration>1699</duration>
												<rate>
													<ntsc>FALSE</ntsc>
													<timebase>60</timebase>
												</rate>
												<in>0</in>
												<out>1699</out>
												<start>0</start>
												<end>1699</end>
												<pixelaspectratio>Square</pixelaspectratio>
												<anamorphic>FALSE</anamorphic>
												<alphatype>none</alphatype>
												<masterclipid>ArmA 3 2020.11.14 - 01.49.37.118.mp4</masterclipid>
												<logginginfo>
													<scene />
													<shottake />
													<lognote />
													<good>FALSE</good>
												</logginginfo>
												<labels>
													<label2 />
												</labels>
												<comments>
													<mastercomment1 />
													<mastercomment2 />
													<mastercomment3 />
													<mastercomment4 />
												</comments>
												<file id="ArmA 3 2020.11.14 - 01.49.37.118">
													<name>ArmA 3 2020.11.14 - 01.49.37.118.mp4</name>
													<pathurl>file://localhost/F:/AMVS Russia/NaturaDestruction/PRPACK3/ArmA 3 2020.11.14 - 01.49.37.118.mp4</pathurl>
													<rate>
														<timebase>60</timebase>
														<ntsc>FALSE</ntsc>
													</rate>
													<duration>1699</duration>
													<timecode>
														<rate>
															<timebase>60</timebase>
															<ntsc>FALSE</ntsc>
														</rate>
														<frame>0</frame>
														<displayformat>NDF</displayformat>
														<source>source</source>
													</timecode>
													<media>
														<video>
															<duration>1699</duration>
															<samplecharacteristics>
																<width>1920</width>
																<height>1080</height>
															</samplecharacteristics>
														</video>
														<audio>
															<samplecharacteristics>
																<samplerate>48000</samplerate>
																<depth>32</depth>
															</samplecharacteristics>
															<channelcount>1</channelcount>
														</audio>
														<audio>
															<samplecharacteristics>
																<samplerate>48000</samplerate>
																<depth>32</depth>
															</samplecharacteristics>
															<channelcount>1</channelcount>
														</audio>
													</media>
												</file>
												<sourcetrack>
													<mediatype>video</mediatype>
												</sourcetrack>
												<fielddominance>none</fielddominance>
											</clipitem>
											<enabled>TRUE</enabled>
											<locked>FALSE</locked>
										</track>
									</video>
									<audio>
										<track>
											<clipitem id="ArmA 3 2020.11.14 - 01.49.37.118.mp42">
												<name>ArmA 3 2020.11.14 - 01.49.37.118.mp4</name>
												<duration>1699</duration>
												<rate>
													<ntsc>TRUE</ntsc>
													<timebase>24</timebase>
												</rate>
												<in>0</in>
												<out>1699</out>
												<start>0</start>
												<end>1699</end>
												<masterclipid>ArmA 3 2020.11.14 - 01.49.37.118.mp4</masterclipid>
												<logginginfo>
													<scene />
													<shottake />
													<lognote />
													<good>FALSE</good>
												</logginginfo>
												<labels>
													<label2 />
												</labels>
												<comments>
													<mastercomment1 />
													<mastercomment2 />
													<mastercomment3 />
													<mastercomment4 />
												</comments>
												<file id="ArmA 3 2020.11.14 - 01.49.37.118" />
												<sourcetrack>
													<mediatype>audio</mediatype>
												</sourcetrack>
											</clipitem>
											<enabled>TRUE</enabled>
											<locked>FALSE</locked>
										</track>
										<track>
											<clipitem id="ArmA 3 2020.11.14 - 01.49.37.118.mp43">
												<name>ArmA 3 2020.11.14 - 01.49.37.118.mp4</name>
												<duration>1699</duration>
												<rate>
													<ntsc>TRUE</ntsc>
													<timebase>24</timebase>
												</rate>
												<in>0</in>
												<out>1699</out>
												<start>0</start>
												<end>1699</end>
												<masterclipid>ArmA 3 2020.11.14 - 01.49.37.118.mp4</masterclipid>
												<logginginfo>
													<scene />
													<shottake />
													<lognote />
													<good>FALSE</good>
												</logginginfo>
												<labels>
													<label2 />
												</labels>
												<comments>
													<mastercomment1 />
													<mastercomment2 />
													<mastercomment3 />
													<mastercomment4 />
												</comments>
												<file id="ArmA 3 2020.11.14 - 01.49.37.118" />
												<sourcetrack>
													<mediatype>audio</mediatype>
												</sourcetrack>
											</clipitem>
											<enabled>TRUE</enabled>
											<locked>FALSE</locked>
										</track>
									</audio>
								</media>
							</clip>
							<clip id="ArmA 3 2020.11.14 - 01.54.33.119.mp4">
								<updatebehavior>add</updatebehavior>
								<name>ArmA 3 2020.11.14 - 01.54.33.119.mp4</name>
								<duration>772</duration>
								<rate>
									<ntsc>FALSE</ntsc>
									<timebase>60</timebase>
								</rate>
								<in>-1</in>
								<out>-1</out>
								<masterclipid>ArmA 3 2020.11.14 - 01.54.33.119.mp4</masterclipid>
								<ismasterclip>TRUE</ismasterclip>
								<logginginfo>
									<scene />
									<shottake />
									<lognote />
									<good>FALSE</good>
								</logginginfo>
								<labels>
									<label2 />
								</labels>
								<comments>
									<mastercomment1 />
									<mastercomment2 />
									<mastercomment3 />
									<mastercomment4 />
								</comments>
								<media>
									<video>
										<track>
											<clipitem id="ArmA 3 2020.11.14 - 01.54.33.119.mp41">
												<name>ArmA 3 2020.11.14 - 01.54.33.119.mp4</name>
												<duration>772</duration>
												<rate>
													<ntsc>FALSE</ntsc>
													<timebase>60</timebase>
												</rate>
												<in>0</in>
												<out>772</out>
												<start>0</start>
												<end>772</end>
												<pixelaspectratio>Square</pixelaspectratio>
												<anamorphic>FALSE</anamorphic>
												<alphatype>none</alphatype>
												<masterclipid>ArmA 3 2020.11.14 - 01.54.33.119.mp4</masterclipid>
												<logginginfo>
													<scene />
													<shottake />
													<lognote />
													<good>FALSE</good>
												</logginginfo>
												<labels>
													<label2 />
												</labels>
												<comments>
													<mastercomment1 />
													<mastercomment2 />
													<mastercomment3 />
													<mastercomment4 />
												</comments>
												<file id="ArmA 3 2020.11.14 - 01.54.33.119">
													<name>ArmA 3 2020.11.14 - 01.54.33.119.mp4</name>
													<pathurl>file://localhost/F:/AMVS Russia/NaturaDestruction/PRPACK5/ArmA 3 2020.11.14 - 01.54.33.119.mp4</pathurl>
													<rate>
														<timebase>60</timebase>
														<ntsc>FALSE</ntsc>
													</rate>
													<duration>772</duration>
													<timecode>
														<rate>
															<timebase>60</timebase>
															<ntsc>FALSE</ntsc>
														</rate>
														<frame>0</frame>
														<displayformat>NDF</displayformat>
														<source>source</source>
													</timecode>
													<media>
														<video>
															<duration>772</duration>
															<samplecharacteristics>
																<width>1920</width>
																<height>1080</height>
															</samplecharacteristics>
														</video>
														<audio>
															<samplecharacteristics>
																<samplerate>48000</samplerate>
																<depth>32</depth>
															</samplecharacteristics>
															<channelcount>1</channelcount>
														</audio>
														<audio>
															<samplecharacteristics>
																<samplerate>48000</samplerate>
																<depth>32</depth>
															</samplecharacteristics>
															<channelcount>1</channelcount>
														</audio>
													</media>
												</file>
												<sourcetrack>
													<mediatype>video</mediatype>
												</sourcetrack>
												<fielddominance>none</fielddominance>
											</clipitem>
											<enabled>TRUE</enabled>
											<locked>FALSE</locked>
										</track>
									</video>
									<audio>
										<track>
											<clipitem id="ArmA 3 2020.11.14 - 01.54.33.119.mp42">
												<name>ArmA 3 2020.11.14 - 01.54.33.119.mp4</name>
												<duration>772</duration>
												<rate>
													<ntsc>TRUE</ntsc>
													<timebase>24</timebase>
												</rate>
												<in>0</in>
												<out>772</out>
												<start>0</start>
												<end>772</end>
												<masterclipid>ArmA 3 2020.11.14 - 01.54.33.119.mp4</masterclipid>
												<logginginfo>
													<scene />
													<shottake />
													<lognote />
													<good>FALSE</good>
												</logginginfo>
												<labels>
													<label2 />
												</labels>
												<comments>
													<mastercomment1 />
													<mastercomment2 />
													<mastercomment3 />
													<mastercomment4 />
												</comments>
												<file id="ArmA 3 2020.11.14 - 01.54.33.119" />
												<sourcetrack>
													<mediatype>audio</mediatype>
												</sourcetrack>
											</clipitem>
											<enabled>TRUE</enabled>
											<locked>FALSE</locked>
										</track>
										<track>
											<clipitem id="ArmA 3 2020.11.14 - 01.54.33.119.mp43">
												<name>ArmA 3 2020.11.14 - 01.54.33.119.mp4</name>
												<duration>772</duration>
												<rate>
													<ntsc>TRUE</ntsc>
													<timebase>24</timebase>
												</rate>
												<in>0</in>
												<out>772</out>
												<start>0</start>
												<end>772</end>
												<masterclipid>ArmA 3 2020.11.14 - 01.54.33.119.mp4</masterclipid>
												<logginginfo>
													<scene />
													<shottake />
													<lognote />
													<good>FALSE</good>
												</logginginfo>
												<labels>
													<label2 />
												</labels>
												<comments>
													<mastercomment1 />
													<mastercomment2 />
													<mastercomment3 />
													<mastercomment4 />
												</comments>
												<file id="ArmA 3 2020.11.14 - 01.54.33.119" />
												<sourcetrack>
													<mediatype>audio</mediatype>
												</sourcetrack>
											</clipitem>
											<enabled>TRUE</enabled>
											<locked>FALSE</locked>
										</track>
									</audio>
								</media>
							</clip>
							<clip id="ArmA 3 2020.11.14 - 01.56.32.120.mp4">
								<updatebehavior>add</updatebehavior>
								<name>ArmA 3 2020.11.14 - 01.56.32.120.mp4</name>
								<duration>1087</duration>
								<rate>
									<ntsc>FALSE</ntsc>
									<timebase>60</timebase>
								</rate>
								<in>-1</in>
								<out>-1</out>
								<masterclipid>ArmA 3 2020.11.14 - 01.56.32.120.mp4</masterclipid>
								<ismasterclip>TRUE</ismasterclip>
								<logginginfo>
									<scene />
									<shottake />
									<lognote />
									<good>FALSE</good>
								</logginginfo>
								<labels>
									<label2 />
								</labels>
								<comments>
									<mastercomment1 />
									<mastercomment2 />
									<mastercomment3 />
									<mastercomment4 />
								</comments>
								<media>
									<video>
										<track>
											<clipitem id="ArmA 3 2020.11.14 - 01.56.32.120.mp41">
												<name>ArmA 3 2020.11.14 - 01.56.32.120.mp4</name>
												<duration>1087</duration>
												<rate>
													<ntsc>FALSE</ntsc>
													<timebase>60</timebase>
												</rate>
												<in>0</in>
												<out>1087</out>
												<start>0</start>
												<end>1087</end>
												<pixelaspectratio>Square</pixelaspectratio>
												<anamorphic>FALSE</anamorphic>
												<alphatype>none</alphatype>
												<masterclipid>ArmA 3 2020.11.14 - 01.56.32.120.mp4</masterclipid>
												<logginginfo>
													<scene />
													<shottake />
													<lognote />
													<good>FALSE</good>
												</logginginfo>
												<labels>
													<label2 />
												</labels>
												<comments>
													<mastercomment1 />
													<mastercomment2 />
													<mastercomment3 />
													<mastercomment4 />
												</comments>
												<file id="ArmA 3 2020.11.14 - 01.56.32.120">
													<name>ArmA 3 2020.11.14 - 01.56.32.120.mp4</name>
													<pathurl>file://localhost/F:/AMVS Russia/NaturaDestruction/PRPACK4/ArmA 3 2020.11.14 - 01.56.32.120.mp4</pathurl>
													<rate>
														<timebase>60</timebase>
														<ntsc>FALSE</ntsc>
													</rate>
													<duration>1087</duration>
													<timecode>
														<rate>
															<timebase>60</timebase>
															<ntsc>FALSE</ntsc>
														</rate>
														<frame>0</frame>
														<displayformat>NDF</displayformat>
														<source>source</source>
													</timecode>
													<media>
														<video>
															<duration>1087</duration>
															<samplecharacteristics>
																<width>1920</width>
																<height>1080</height>
															</samplecharacteristics>
														</video>
														<audio>
															<samplecharacteristics>
																<samplerate>48000</samplerate>
																<depth>32</depth>
															</samplecharacteristics>
															<channelcount>1</channelcount>
														</audio>
														<audio>
															<samplecharacteristics>
																<samplerate>48000</samplerate>
																<depth>32</depth>
															</samplecharacteristics>
															<channelcount>1</channelcount>
														</audio>
													</media>
												</file>
												<sourcetrack>
													<mediatype>video</mediatype>
												</sourcetrack>
												<fielddominance>none</fielddominance>
											</clipitem>
											<enabled>TRUE</enabled>
											<locked>FALSE</locked>
										</track>
									</video>
									<audio>
										<track>
											<clipitem id="ArmA 3 2020.11.14 - 01.56.32.120.mp42">
												<name>ArmA 3 2020.11.14 - 01.56.32.120.mp4</name>
												<duration>1087</duration>
												<rate>
													<ntsc>TRUE</ntsc>
													<timebase>24</timebase>
												</rate>
												<in>0</in>
												<out>1087</out>
												<start>0</start>
												<end>1087</end>
												<masterclipid>ArmA 3 2020.11.14 - 01.56.32.120.mp4</masterclipid>
												<logginginfo>
													<scene />
													<shottake />
													<lognote />
													<good>FALSE</good>
												</logginginfo>
												<labels>
													<label2 />
												</labels>
												<comments>
													<mastercomment1 />
													<mastercomment2 />
													<mastercomment3 />
													<mastercomment4 />
												</comments>
												<file id="ArmA 3 2020.11.14 - 01.56.32.120" />
												<sourcetrack>
													<mediatype>audio</mediatype>
												</sourcetrack>
											</clipitem>
											<enabled>TRUE</enabled>
											<locked>FALSE</locked>
										</track>
										<track>
											<clipitem id="ArmA 3 2020.11.14 - 01.56.32.120.mp43">
												<name>ArmA 3 2020.11.14 - 01.56.32.120.mp4</name>
												<duration>1087</duration>
												<rate>
													<ntsc>TRUE</ntsc>
													<timebase>24</timebase>
												</rate>
												<in>0</in>
												<out>1087</out>
												<start>0</start>
												<end>1087</end>
												<masterclipid>ArmA 3 2020.11.14 - 01.56.32.120.mp4</masterclipid>
												<logginginfo>
													<scene />
													<shottake />
													<lognote />
													<good>FALSE</good>
												</logginginfo>
												<labels>
													<label2 />
												</labels>
												<comments>
													<mastercomment1 />
													<mastercomment2 />
													<mastercomment3 />
													<mastercomment4 />
												</comments>
												<file id="ArmA 3 2020.11.14 - 01.56.32.120" />
												<sourcetrack>
													<mediatype>audio</mediatype>
												</sourcetrack>
											</clipitem>
											<enabled>TRUE</enabled>
											<locked>FALSE</locked>
										</track>
									</audio>
								</media>
							</clip>
							<clip id="ArmA 3 2020.11.14 - 01.57.19.121.mp4">
								<updatebehavior>add</updatebehavior>
								<name>ArmA 3 2020.11.14 - 01.57.19.121.mp4</name>
								<duration>263</duration>
								<rate>
									<ntsc>FALSE</ntsc>
									<timebase>60</timebase>
								</rate>
								<in>-1</in>
								<out>-1</out>
								<masterclipid>ArmA 3 2020.11.14 - 01.57.19.121.mp4</masterclipid>
								<ismasterclip>TRUE</ismasterclip>
								<logginginfo>
									<scene />
									<shottake />
									<lognote />
									<good>FALSE</good>
								</logginginfo>
								<labels>
									<label2 />
								</labels>
								<comments>
									<mastercomment1 />
									<mastercomment2 />
									<mastercomment3 />
									<mastercomment4 />
								</comments>
								<media>
									<video>
										<track>
											<clipitem id="ArmA 3 2020.11.14 - 01.57.19.121.mp41">
												<name>ArmA 3 2020.11.14 - 01.57.19.121.mp4</name>
												<duration>263</duration>
												<rate>
													<ntsc>FALSE</ntsc>
													<timebase>60</timebase>
												</rate>
												<in>0</in>
												<out>263</out>
												<start>0</start>
												<end>263</end>
												<pixelaspectratio>Square</pixelaspectratio>
												<anamorphic>FALSE</anamorphic>
												<alphatype>none</alphatype>
												<masterclipid>ArmA 3 2020.11.14 - 01.57.19.121.mp4</masterclipid>
												<logginginfo>
													<scene />
													<shottake />
													<lognote />
													<good>FALSE</good>
												</logginginfo>
												<labels>
													<label2 />
												</labels>
												<comments>
													<mastercomment1 />
													<mastercomment2 />
													<mastercomment3 />
													<mastercomment4 />
												</comments>
												<file id="ArmA 3 2020.11.14 - 01.57.19.121">
													<name>ArmA 3 2020.11.14 - 01.57.19.121.mp4</name>
													<pathurl>file://localhost/F:/AMVS Russia/NaturaDestruction/PRPACK7/ArmA 3 2020.11.14 - 01.57.19.121.mp4</pathurl>
													<rate>
														<timebase>60</timebase>
														<ntsc>FALSE</ntsc>
													</rate>
													<duration>263</duration>
													<timecode>
														<rate>
															<timebase>60</timebase>
															<ntsc>FALSE</ntsc>
														</rate>
														<frame>0</frame>
														<displayformat>NDF</displayformat>
														<source>source</source>
													</timecode>
													<media>
														<video>
															<duration>263</duration>
															<samplecharacteristics>
																<width>1920</width>
																<height>1080</height>
															</samplecharacteristics>
														</video>
														<audio>
															<samplecharacteristics>
																<samplerate>48000</samplerate>
																<depth>32</depth>
															</samplecharacteristics>
															<channelcount>1</channelcount>
														</audio>
														<audio>
															<samplecharacteristics>
																<samplerate>48000</samplerate>
																<depth>32</depth>
															</samplecharacteristics>
															<channelcount>1</channelcount>
														</audio>
													</media>
												</file>
												<sourcetrack>
													<mediatype>video</mediatype>
												</sourcetrack>
												<fielddominance>none</fielddominance>
											</clipitem>
											<enabled>TRUE</enabled>
											<locked>FALSE</locked>
										</track>
									</video>
									<audio>
										<track>
											<clipitem id="ArmA 3 2020.11.14 - 01.57.19.121.mp42">
												<name>ArmA 3 2020.11.14 - 01.57.19.121.mp4</name>
												<duration>263</duration>
												<rate>
													<ntsc>TRUE</ntsc>
													<timebase>24</timebase>
												</rate>
												<in>0</in>
												<out>263</out>
												<start>0</start>
												<end>263</end>
												<masterclipid>ArmA 3 2020.11.14 - 01.57.19.121.mp4</masterclipid>
												<logginginfo>
													<scene />
													<shottake />
													<lognote />
													<good>FALSE</good>
												</logginginfo>
												<labels>
													<label2 />
												</labels>
												<comments>
													<mastercomment1 />
													<mastercomment2 />
													<mastercomment3 />
													<mastercomment4 />
												</comments>
												<file id="ArmA 3 2020.11.14 - 01.57.19.121" />
												<sourcetrack>
													<mediatype>audio</mediatype>
												</sourcetrack>
											</clipitem>
											<enabled>TRUE</enabled>
											<locked>FALSE</locked>
										</track>
										<track>
											<clipitem id="ArmA 3 2020.11.14 - 01.57.19.121.mp43">
												<name>ArmA 3 2020.11.14 - 01.57.19.121.mp4</name>
												<duration>263</duration>
												<rate>
													<ntsc>TRUE</ntsc>
													<timebase>24</timebase>
												</rate>
												<in>0</in>
												<out>263</out>
												<start>0</start>
												<end>263</end>
												<masterclipid>ArmA 3 2020.11.14 - 01.57.19.121.mp4</masterclipid>
												<logginginfo>
													<scene />
													<shottake />
													<lognote />
													<good>FALSE</good>
												</logginginfo>
												<labels>
													<label2 />
												</labels>
												<comments>
													<mastercomment1 />
													<mastercomment2 />
													<mastercomment3 />
													<mastercomment4 />
												</comments>
												<file id="ArmA 3 2020.11.14 - 01.57.19.121" />
												<sourcetrack>
													<mediatype>audio</mediatype>
												</sourcetrack>
											</clipitem>
											<enabled>TRUE</enabled>
											<locked>FALSE</locked>
										</track>
									</audio>
								</media>
							</clip>
							<clip id="ArmA 3 2020.11.14 - 01.58.13.122.mp4">
								<updatebehavior>add</updatebehavior>
								<name>ArmA 3 2020.11.14 - 01.58.13.122.mp4</name>
								<duration>562</duration>
								<rate>
									<ntsc>FALSE</ntsc>
									<timebase>60</timebase>
								</rate>
								<in>-1</in>
								<out>-1</out>
								<masterclipid>ArmA 3 2020.11.14 - 01.58.13.122.mp4</masterclipid>
								<ismasterclip>TRUE</ismasterclip>
								<logginginfo>
									<scene />
									<shottake />
									<lognote />
									<good>FALSE</good>
								</logginginfo>
								<labels>
									<label2 />
								</labels>
								<comments>
									<mastercomment1 />
									<mastercomment2 />
									<mastercomment3 />
									<mastercomment4 />
								</comments>
								<media>
									<video>
										<track>
											<clipitem id="ArmA 3 2020.11.14 - 01.58.13.122.mp41">
												<name>ArmA 3 2020.11.14 - 01.58.13.122.mp4</name>
												<duration>562</duration>
												<rate>
													<ntsc>FALSE</ntsc>
													<timebase>60</timebase>
												</rate>
												<in>0</in>
												<out>562</out>
												<start>0</start>
												<end>562</end>
												<pixelaspectratio>Square</pixelaspectratio>
												<anamorphic>FALSE</anamorphic>
												<alphatype>none</alphatype>
												<masterclipid>ArmA 3 2020.11.14 - 01.58.13.122.mp4</masterclipid>
												<logginginfo>
													<scene />
													<shottake />
													<lognote />
													<good>FALSE</good>
												</logginginfo>
												<labels>
													<label2 />
												</labels>
												<comments>
													<mastercomment1 />
													<mastercomment2 />
													<mastercomment3 />
													<mastercomment4 />
												</comments>
												<file id="ArmA 3 2020.11.14 - 01.58.13.122">
													<name>ArmA 3 2020.11.14 - 01.58.13.122.mp4</name>
													<pathurl>file://localhost/F:/AMVS Russia/NaturaDestruction/PRPACK6/ArmA 3 2020.11.14 - 01.58.13.122.mp4</pathurl>
													<rate>
														<timebase>60</timebase>
														<ntsc>FALSE</ntsc>
													</rate>
													<duration>562</duration>
													<timecode>
														<rate>
															<timebase>60</timebase>
															<ntsc>FALSE</ntsc>
														</rate>
														<frame>0</frame>
														<displayformat>NDF</displayformat>
														<source>source</source>
													</timecode>
													<media>
														<video>
															<duration>562</duration>
															<samplecharacteristics>
																<width>1920</width>
																<height>1080</height>
															</samplecharacteristics>
														</video>
														<audio>
															<samplecharacteristics>
																<samplerate>48000</samplerate>
																<depth>32</depth>
															</samplecharacteristics>
															<channelcount>1</channelcount>
														</audio>
														<audio>
															<samplecharacteristics>
																<samplerate>48000</samplerate>
																<depth>32</depth>
															</samplecharacteristics>
															<channelcount>1</channelcount>
														</audio>
													</media>
												</file>
												<sourcetrack>
													<mediatype>video</mediatype>
												</sourcetrack>
												<fielddominance>none</fielddominance>
											</clipitem>
											<enabled>TRUE</enabled>
											<locked>FALSE</locked>
										</track>
									</video>
									<audio>
										<track>
											<clipitem id="ArmA 3 2020.11.14 - 01.58.13.122.mp42">
												<name>ArmA 3 2020.11.14 - 01.58.13.122.mp4</name>
												<duration>562</duration>
												<rate>
													<ntsc>TRUE</ntsc>
													<timebase>24</timebase>
												</rate>
												<in>0</in>
												<out>562</out>
												<start>0</start>
												<end>562</end>
												<masterclipid>ArmA 3 2020.11.14 - 01.58.13.122.mp4</masterclipid>
												<logginginfo>
													<scene />
													<shottake />
													<lognote />
													<good>FALSE</good>
												</logginginfo>
												<labels>
													<label2 />
												</labels>
												<comments>
													<mastercomment1 />
													<mastercomment2 />
													<mastercomment3 />
													<mastercomment4 />
												</comments>
												<file id="ArmA 3 2020.11.14 - 01.58.13.122" />
												<sourcetrack>
													<mediatype>audio</mediatype>
												</sourcetrack>
											</clipitem>
											<enabled>TRUE</enabled>
											<locked>FALSE</locked>
										</track>
										<track>
											<clipitem id="ArmA 3 2020.11.14 - 01.58.13.122.mp43">
												<name>ArmA 3 2020.11.14 - 01.58.13.122.mp4</name>
												<duration>562</duration>
												<rate>
													<ntsc>TRUE</ntsc>
													<timebase>24</timebase>
												</rate>
												<in>0</in>
												<out>562</out>
												<start>0</start>
												<end>562</end>
												<masterclipid>ArmA 3 2020.11.14 - 01.58.13.122.mp4</masterclipid>
												<logginginfo>
													<scene />
													<shottake />
													<lognote />
													<good>FALSE</good>
												</logginginfo>
												<labels>
													<label2 />
												</labels>
												<comments>
													<mastercomment1 />
													<mastercomment2 />
													<mastercomment3 />
													<mastercomment4 />
												</comments>
												<file id="ArmA 3 2020.11.14 - 01.58.13.122" />
												<sourcetrack>
													<mediatype>audio</mediatype>
												</sourcetrack>
											</clipitem>
											<enabled>TRUE</enabled>
											<locked>FALSE</locked>
										</track>
									</audio>
								</media>
							</clip>
						</children>
					</bin>
					<bin>
						<updatebehavior>add</updatebehavior>
						<name>Voiceover</name>
						<children>
							<clip id="PR_Sanya_Sc03.ogg">
								<updatebehavior>add</updatebehavior>
								<name>PR_Sanya_Sc03.ogg</name>
								<duration>0</duration>
								<rate>
									<ntsc>TRUE</ntsc>
									<timebase>24</timebase>
								</rate>
								<in>-1</in>
								<out>-1</out>
								<masterclipid>PR_Sanya_Sc03.ogg</masterclipid>
								<ismasterclip>TRUE</ismasterclip>
								<logginginfo>
									<scene />
									<shottake />
									<lognote />
									<good>FALSE</good>
								</logginginfo>
								<labels>
									<label2 />
								</labels>
								<comments>
									<mastercomment1 />
									<mastercomment2 />
									<mastercomment3 />
									<mastercomment4 />
								</comments>
								<media>
									<video />
									<audio />
								</media>
							</clip>
							<clip id="PR_Shingis_Sc03.ogg">
								<updatebehavior>add</updatebehavior>
								<name>PR_Shingis_Sc03.ogg</name>
								<duration>0</duration>
								<rate>
									<ntsc>TRUE</ntsc>
									<timebase>24</timebase>
								</rate>
								<in>-1</in>
								<out>-1</out>
								<masterclipid>PR_Shingis_Sc03.ogg</masterclipid>
								<ismasterclip>TRUE</ismasterclip>
								<logginginfo>
									<scene />
									<shottake />
									<lognote />
									<good>FALSE</good>
								</logginginfo>
								<labels>
									<label2 />
								</labels>
								<comments>
									<mastercomment1 />
									<mastercomment2 />
									<mastercomment3 />
									<mastercomment4 />
								</comments>
								<media>
									<video />
									<audio />
								</media>
							</clip>
						</children>
					</bin>
				</children>
			</bin>
			<sequence id="Sequence 1">
				<updatebehavior>add</updatebehavior>
				<name>Sequence 1</name>
				<duration>36387</duration>
				<rate>
					<ntsc>TRUE</ntsc>
					<timebase>24</timebase>
				</rate>
				<timecode>
					<rate>
						<ntsc>TRUE</ntsc>
						<timebase>24</timebase>
					</rate>
					<frame>86313</frame>
					<source>source</source>
					<displayformat>DF</displayformat>
				</timecode>
				<in>-1</in>
				<out>-1</out>
				<media>
					<video>
						<format>
							<samplecharacteristics>
								<width>1920</width>
								<height>1080</height>
								<pixelaspectratio>Square</pixelaspectratio>
								<anamorphic>FALSE</anamorphic>
								<fielddominance>none</fielddominance>
								<rate>
									<ntsc>TRUE</ntsc>
									<timebase>24</timebase>
								</rate>
								<colordepth>24</colordepth>
								<codec>
									<appspecificdata>
										<data>
											<qtcodec>
												<codectypecode>avc1</codectypecode>
											</qtcodec>
										</data>
										<appname>Final Cut Pro</appname>
										<appmanufacturer>Apple Inc.</appmanufacturer>
										<appversion>7.0</appversion>
									</appspecificdata>
								</codec>
							</samplecharacteristics>
						</format>
						<track>
							<clipitem id="ArmA 3 2020.11.14 - 00.58.28.78.mp4805307592">
								<name>ArmA 3 2020.11.14 - 00.58.28.78.mp4</name>
								<duration>529</duration>
								<rate>
									<ntsc>FALSE</ntsc>
									<timebase>60</timebase>
								</rate>
								<in>0</in>
								<out>529</out>
								<start>0</start>
								<end>529</end>
								<pixelaspectratio>Square</pixelaspectratio>
								<anamorphic>FALSE</anamorphic>
								<alphatype>none</alphatype>
								<masterclipid>ArmA 3 2020.11.14 - 00.58.28.78.mp4</masterclipid>
								<logginginfo>
									<scene />
									<shottake />
									<lognote />
									<good>FALSE</good>
								</logginginfo>
								<labels>
									<label2 />
								</labels>
								<comments>
									<mastercomment1 />
									<mastercomment2 />
									<mastercomment3 />
									<mastercomment4 />
								</comments>
								<file id="ArmA 3 2020.11.14 - 00.58.28.78" />
								<filter>
									<effect>
										<name>Opacity</name>
										<effectid>opacity</effectid>
										<effectcategory>motion</effectcategory>
										<effecttype>motion</effecttype>
										<mediatype>video</mediatype>
										<parameter>
											<name>opacity</name>
											<parameterid>opacity</parameterid>
											<valuemin>0</valuemin>
											<valuemax>100</valuemax>
											<value>100</value>
										</parameter>
									</effect>
								</filter>
								<sourcetrack>
									<mediatype>video</mediatype>
								</sourcetrack>
								<link>
									<linkclipref>ArmA 3 2020.11.14 - 00.58.28.78.mp4805307592</linkclipref>
								</link>
								<link>
									<linkclipref>ArmA 3 2020.11.14 - 00.58.28.78.mp4536872137</linkclipref>
								</link>
								<link>
									<linkclipref>ArmA 3 2020.11.14 - 00.58.28.78.mp45368721371</linkclipref>
								</link>
								<link>
									<linkclipref>ArmA 3 2020.11.14 - 00.58.28.78.mp4536872138</linkclipref>
								</link>
								<link>
									<linkclipref>ArmA 3 2020.11.14 - 00.58.28.78.mp45368721381</linkclipref>
								</link>
								<fielddominance>none</fielddominance>
							</clipitem>
							<clipitem id="ArmA 3 2020.11.14 - 00.59.31.79.mp4805307595">
								<name>ArmA 3 2020.11.14 - 00.59.31.79.mp4</name>
								<duration>605</duration>
								<rate>
									<ntsc>FALSE</ntsc>
									<timebase>60</timebase>
								</rate>
								<in>0</in>
								<out>605</out>
								<start>530</start>
								<end>1135</end>
								<pixelaspectratio>Square</pixelaspectratio>
								<anamorphic>FALSE</anamorphic>
								<alphatype>none</alphatype>
								<masterclipid>ArmA 3 2020.11.14 - 00.59.31.79.mp4</masterclipid>
								<logginginfo>
									<scene />
									<shottake />
									<lognote />
									<good>FALSE</good>
								</logginginfo>
								<labels>
									<label2 />
								</labels>
								<comments>
									<mastercomment1 />
									<mastercomment2 />
									<mastercomment3 />
									<mastercomment4 />
								</comments>
								<file id="ArmA 3 2020.11.14 - 00.59.31.79" />
								<filter>
									<effect>
										<name>Opacity</name>
										<effectid>opacity</effectid>
										<effectcategory>motion</effectcategory>
										<effecttype>motion</effecttype>
										<mediatype>video</mediatype>
										<parameter>
											<name>opacity</name>
											<parameterid>opacity</parameterid>
											<valuemin>0</valuemin>
											<valuemax>100</valuemax>
											<value>100</value>
										</parameter>
									</effect>
								</filter>
								<sourcetrack>
									<mediatype>video</mediatype>
								</sourcetrack>
								<link>
									<linkclipref>ArmA 3 2020.11.14 - 00.59.31.79.mp4805307595</linkclipref>
								</link>
								<link>
									<linkclipref>ArmA 3 2020.11.14 - 00.59.31.79.mp4536872140</linkclipref>
								</link>
								<link>
									<linkclipref>ArmA 3 2020.11.14 - 00.59.31.79.mp45368721401</linkclipref>
								</link>
								<link>
									<linkclipref>ArmA 3 2020.11.14 - 00.59.31.79.mp4536872141</linkclipref>
								</link>
								<link>
									<linkclipref>ArmA 3 2020.11.14 - 00.59.31.79.mp45368721411</linkclipref>
								</link>
								<fielddominance>none</fielddominance>
							</clipitem>
							<clipitem id="ArmA 3 2020.11.14 - 01.00.07.80.mp4805307598">
								<name>ArmA 3 2020.11.14 - 01.00.07.80.mp4</name>
								<duration>666</duration>
								<rate>
									<ntsc>FALSE</ntsc>
									<timebase>60</timebase>
								</rate>
								<in>0</in>
								<out>666</out>
								<start>1136</start>
								<end>1802</end>
								<pixelaspectratio>Square</pixelaspectratio>
								<anamorphic>FALSE</anamorphic>
								<alphatype>none</alphatype>
								<masterclipid>ArmA 3 2020.11.14 - 01.00.07.80.mp4</masterclipid>
								<logginginfo>
									<scene />
									<shottake />
									<lognote />
									<good>FALSE</good>
								</logginginfo>
								<labels>
									<label2 />
								</labels>
								<comments>
									<mastercomment1 />
									<mastercomment2 />
									<mastercomment3 />
									<mastercomment4 />
								</comments>
								<file id="ArmA 3 2020.11.14 - 01.00.07.80" />
								<filter>
									<effect>
										<name>Opacity</name>
										<effectid>opacity</effectid>
										<effectcategory>motion</effectcategory>
										<effecttype>motion</effecttype>
										<mediatype>video</mediatype>
										<parameter>
											<name>opacity</name>
											<parameterid>opacity</parameterid>
											<valuemin>0</valuemin>
											<valuemax>100</valuemax>
											<value>100</value>
										</parameter>
									</effect>
								</filter>
								<sourcetrack>
									<mediatype>video</mediatype>
								</sourcetrack>
								<link>
									<linkclipref>ArmA 3 2020.11.14 - 01.00.07.80.mp4805307598</linkclipref>
								</link>
								<link>
									<linkclipref>ArmA 3 2020.11.14 - 01.00.07.80.mp4536872143</linkclipref>
								</link>
								<link>
									<linkclipref>ArmA 3 2020.11.14 - 01.00.07.80.mp45368721431</linkclipref>
								</link>
								<link>
									<linkclipref>ArmA 3 2020.11.14 - 01.00.07.80.mp4536872144</linkclipref>
								</link>
								<link>
									<linkclipref>ArmA 3 2020.11.14 - 01.00.07.80.mp45368721441</linkclipref>
								</link>
								<fielddominance>none</fielddominance>
							</clipitem>
							<clipitem id="ArmA 3 2020.11.14 - 01.01.23.81.mp4805307601">
								<name>ArmA 3 2020.11.14 - 01.01.23.81.mp4</name>
								<duration>1004</duration>
								<rate>
									<ntsc>FALSE</ntsc>
									<timebase>60</timebase>
								</rate>
								<in>0</in>
								<out>1004</out>
								<start>1803</start>
								<end>2807</end>
								<pixelaspectratio>Square</pixelaspectratio>
								<anamorphic>FALSE</anamorphic>
								<alphatype>none</alphatype>
								<masterclipid>ArmA 3 2020.11.14 - 01.01.23.81.mp4</masterclipid>
								<logginginfo>
									<scene />
									<shottake />
									<lognote />
									<good>FALSE</good>
								</logginginfo>
								<labels>
									<label2 />
								</labels>
								<comments>
									<mastercomment1 />
									<mastercomment2 />
									<mastercomment3 />
									<mastercomment4 />
								</comments>
								<file id="ArmA 3 2020.11.14 - 01.01.23.81" />
								<filter>
									<effect>
										<name>Opacity</name>
										<effectid>opacity</effectid>
										<effectcategory>motion</effectcategory>
										<effecttype>motion</effecttype>
										<mediatype>video</mediatype>
										<parameter>
											<name>opacity</name>
											<parameterid>opacity</parameterid>
											<valuemin>0</valuemin>
											<valuemax>100</valuemax>
											<value>100</value>
										</parameter>
									</effect>
								</filter>
								<sourcetrack>
									<mediatype>video</mediatype>
								</sourcetrack>
								<link>
									<linkclipref>ArmA 3 2020.11.14 - 01.01.23.81.mp4805307601</linkclipref>
								</link>
								<link>
									<linkclipref>ArmA 3 2020.11.14 - 01.01.23.81.mp4536872146</linkclipref>
								</link>
								<link>
									<linkclipref>ArmA 3 2020.11.14 - 01.01.23.81.mp45368721461</linkclipref>
								</link>
								<link>
									<linkclipref>ArmA 3 2020.11.14 - 01.01.23.81.mp4536872147</linkclipref>
								</link>
								<link>
									<linkclipref>ArmA 3 2020.11.14 - 01.01.23.81.mp45368721471</linkclipref>
								</link>
								<fielddominance>none</fielddominance>
							</clipitem>
							<clipitem id="ArmA 3 2020.11.14 - 01.02.36.82.mp4805307604">
								<name>ArmA 3 2020.11.14 - 01.02.36.82.mp4</name>
								<duration>447</duration>
								<rate>
									<ntsc>FALSE</ntsc>
									<timebase>60</timebase>
								</rate>
								<in>0</in>
								<out>447</out>
								<start>2808</start>
								<end>3255</end>
								<pixelaspectratio>Square</pixelaspectratio>
								<anamorphic>FALSE</anamorphic>
								<alphatype>none</alphatype>
								<masterclipid>ArmA 3 2020.11.14 - 01.02.36.82.mp4</masterclipid>
								<logginginfo>
									<scene />
									<shottake />
									<lognote />
									<good>FALSE</good>
								</logginginfo>
								<labels>
									<label2 />
								</labels>
								<comments>
									<mastercomment1 />
									<mastercomment2 />
									<mastercomment3 />
									<mastercomment4 />
								</comments>
								<file id="ArmA 3 2020.11.14 - 01.02.36.82" />
								<filter>
									<effect>
										<name>Opacity</name>
										<effectid>opacity</effectid>
										<effectcategory>motion</effectcategory>
										<effecttype>motion</effecttype>
										<mediatype>video</mediatype>
										<parameter>
											<name>opacity</name>
											<parameterid>opacity</parameterid>
											<valuemin>0</valuemin>
											<valuemax>100</valuemax>
											<value>100</value>
										</parameter>
									</effect>
								</filter>
								<sourcetrack>
									<mediatype>video</mediatype>
								</sourcetrack>
								<link>
									<linkclipref>ArmA 3 2020.11.14 - 01.02.36.82.mp4805307604</linkclipref>
								</link>
								<link>
									<linkclipref>ArmA 3 2020.11.14 - 01.02.36.82.mp4536872149</linkclipref>
								</link>
								<link>
									<linkclipref>ArmA 3 2020.11.14 - 01.02.36.82.mp45368721491</linkclipref>
								</link>
								<link>
									<linkclipref>ArmA 3 2020.11.14 - 01.02.36.82.mp4536872150</linkclipref>
								</link>
								<link>
									<linkclipref>ArmA 3 2020.11.14 - 01.02.36.82.mp45368721501</linkclipref>
								</link>
								<fielddominance>none</fielddominance>
							</clipitem>
							<clipitem id="ArmA 3 2020.11.14 - 01.03.14.83.mp4805307607">
								<name>ArmA 3 2020.11.14 - 01.03.14.83.mp4</name>
								<duration>404</duration>
								<rate>
									<ntsc>FALSE</ntsc>
									<timebase>60</timebase>
								</rate>
								<in>0</in>
								<out>404</out>
								<start>3256</start>
								<end>3660</end>
								<pixelaspectratio>Square</pixelaspectratio>
								<anamorphic>FALSE</anamorphic>
								<alphatype>none</alphatype>
								<masterclipid>ArmA 3 2020.11.14 - 01.03.14.83.mp4</masterclipid>
								<logginginfo>
									<scene />
									<shottake />
									<lognote />
									<good>FALSE</good>
								</logginginfo>
								<labels>
									<label2 />
								</labels>
								<comments>
									<mastercomment1 />
									<mastercomment2 />
									<mastercomment3 />
									<mastercomment4 />
								</comments>
								<file id="ArmA 3 2020.11.14 - 01.03.14.83" />
								<filter>
									<effect>
										<name>Opacity</name>
										<effectid>opacity</effectid>
										<effectcategory>motion</effectcategory>
										<effecttype>motion</effecttype>
										<mediatype>video</mediatype>
										<parameter>
											<name>opacity</name>
											<parameterid>opacity</parameterid>
											<valuemin>0</valuemin>
											<valuemax>100</valuemax>
											<value>100</value>
										</parameter>
									</effect>
								</filter>
								<sourcetrack>
									<mediatype>video</mediatype>
								</sourcetrack>
								<link>
									<linkclipref>ArmA 3 2020.11.14 - 01.03.14.83.mp4805307607</linkclipref>
								</link>
								<link>
									<linkclipref>ArmA 3 2020.11.14 - 01.03.14.83.mp4536872152</linkclipref>
								</link>
								<link>
									<linkclipref>ArmA 3 2020.11.14 - 01.03.14.83.mp45368721521</linkclipref>
								</link>
								<link>
									<linkclipref>ArmA 3 2020.11.14 - 01.03.14.83.mp4536872153</linkclipref>
								</link>
								<link>
									<linkclipref>ArmA 3 2020.11.14 - 01.03.14.83.mp45368721531</linkclipref>
								</link>
								<fielddominance>none</fielddominance>
							</clipitem>
							<clipitem id="ArmA 3 2020.11.14 - 01.03.51.84.mp4805307610">
								<name>ArmA 3 2020.11.14 - 01.03.51.84.mp4</name>
								<duration>421</duration>
								<rate>
									<ntsc>FALSE</ntsc>
									<timebase>60</timebase>
								</rate>
								<in>0</in>
								<out>421</out>
								<start>3661</start>
								<end>4082</end>
								<pixelaspectratio>Square</pixelaspectratio>
								<anamorphic>FALSE</anamorphic>
								<alphatype>none</alphatype>
								<masterclipid>ArmA 3 2020.11.14 - 01.03.51.84.mp4</masterclipid>
								<logginginfo>
									<scene />
									<shottake />
									<lognote />
									<good>FALSE</good>
								</logginginfo>
								<labels>
									<label2 />
								</labels>
								<comments>
									<mastercomment1 />
									<mastercomment2 />
									<mastercomment3 />
									<mastercomment4 />
								</comments>
								<file id="ArmA 3 2020.11.14 - 01.03.51.84" />
								<filter>
									<effect>
										<name>Opacity</name>
										<effectid>opacity</effectid>
										<effectcategory>motion</effectcategory>
										<effecttype>motion</effecttype>
										<mediatype>video</mediatype>
										<parameter>
											<name>opacity</name>
											<parameterid>opacity</parameterid>
											<valuemin>0</valuemin>
											<valuemax>100</valuemax>
											<value>100</value>
										</parameter>
									</effect>
								</filter>
								<sourcetrack>
									<mediatype>video</mediatype>
								</sourcetrack>
								<link>
									<linkclipref>ArmA 3 2020.11.14 - 01.03.51.84.mp4805307610</linkclipref>
								</link>
								<link>
									<linkclipref>ArmA 3 2020.11.14 - 01.03.51.84.mp4536872155</linkclipref>
								</link>
								<link>
									<linkclipref>ArmA 3 2020.11.14 - 01.03.51.84.mp45368721551</linkclipref>
								</link>
								<link>
									<linkclipref>ArmA 3 2020.11.14 - 01.03.51.84.mp4536872156</linkclipref>
								</link>
								<link>
									<linkclipref>ArmA 3 2020.11.14 - 01.03.51.84.mp45368721561</linkclipref>
								</link>
								<fielddominance>none</fielddominance>
							</clipitem>
							<clipitem id="ArmA 3 2020.11.14 - 01.04.31.85.mp4805307613">
								<name>ArmA 3 2020.11.14 - 01.04.31.85.mp4</name>
								<duration>1222</duration>
								<rate>
									<ntsc>FALSE</ntsc>
									<timebase>60</timebase>
								</rate>
								<in>0</in>
								<out>1222</out>
								<start>4083</start>
								<end>5305</end>
								<pixelaspectratio>Square</pixelaspectratio>
								<anamorphic>FALSE</anamorphic>
								<alphatype>none</alphatype>
								<masterclipid>ArmA 3 2020.11.14 - 01.04.31.85.mp4</masterclipid>
								<logginginfo>
									<scene />
									<shottake />
									<lognote />
									<good>FALSE</good>
								</logginginfo>
								<labels>
									<label2 />
								</labels>
								<comments>
									<mastercomment1 />
									<mastercomment2 />
									<mastercomment3 />
									<mastercomment4 />
								</comments>
								<file id="ArmA 3 2020.11.14 - 01.04.31.85" />
								<filter>
									<effect>
										<name>Opacity</name>
										<effectid>opacity</effectid>
										<effectcategory>motion</effectcategory>
										<effecttype>motion</effecttype>
										<mediatype>video</mediatype>
										<parameter>
											<name>opacity</name>
											<parameterid>opacity</parameterid>
											<valuemin>0</valuemin>
											<valuemax>100</valuemax>
											<value>100</value>
										</parameter>
									</effect>
								</filter>
								<sourcetrack>
									<mediatype>video</mediatype>
								</sourcetrack>
								<link>
									<linkclipref>ArmA 3 2020.11.14 - 01.04.31.85.mp4805307613</linkclipref>
								</link>
								<link>
									<linkclipref>ArmA 3 2020.11.14 - 01.04.31.85.mp4536872158</linkclipref>
								</link>
								<link>
									<linkclipref>ArmA 3 2020.11.14 - 01.04.31.85.mp45368721581</linkclipref>
								</link>
								<link>
									<linkclipref>ArmA 3 2020.11.14 - 01.04.31.85.mp4536872159</linkclipref>
								</link>
								<link>
									<linkclipref>ArmA 3 2020.11.14 - 01.04.31.85.mp45368721591</linkclipref>
								</link>
								<fielddominance>none</fielddominance>
							</clipitem>
							<clipitem id="ArmA 3 2020.11.14 - 01.05.31.86.mp4805307616">
								<name>ArmA 3 2020.11.14 - 01.05.31.86.mp4</name>
								<duration>122</duration>
								<rate>
									<ntsc>FALSE</ntsc>
									<timebase>60</timebase>
								</rate>
								<in>0</in>
								<out>122</out>
								<start>5306</start>
								<end>5428</end>
								<pixelaspectratio>Square</pixelaspectratio>
								<anamorphic>FALSE</anamorphic>
								<alphatype>none</alphatype>
								<masterclipid>ArmA 3 2020.11.14 - 01.05.31.86.mp4</masterclipid>
								<logginginfo>
									<scene />
									<shottake />
									<lognote />
									<good>FALSE</good>
								</logginginfo>
								<labels>
									<label2 />
								</labels>
								<comments>
									<mastercomment1 />
									<mastercomment2 />
									<mastercomment3 />
									<mastercomment4 />
								</comments>
								<file id="ArmA 3 2020.11.14 - 01.05.31.86" />
								<filter>
									<effect>
										<name>Opacity</name>
										<effectid>opacity</effectid>
										<effectcategory>motion</effectcategory>
										<effecttype>motion</effecttype>
										<mediatype>video</mediatype>
										<parameter>
											<name>opacity</name>
											<parameterid>opacity</parameterid>
											<valuemin>0</valuemin>
											<valuemax>100</valuemax>
											<value>100</value>
										</parameter>
									</effect>
								</filter>
								<sourcetrack>
									<mediatype>video</mediatype>
								</sourcetrack>
								<link>
									<linkclipref>ArmA 3 2020.11.14 - 01.05.31.86.mp4805307616</linkclipref>
								</link>
								<link>
									<linkclipref>ArmA 3 2020.11.14 - 01.05.31.86.mp4536872161</linkclipref>
								</link>
								<link>
									<linkclipref>ArmA 3 2020.11.14 - 01.05.31.86.mp45368721611</linkclipref>
								</link>
								<link>
									<linkclipref>ArmA 3 2020.11.14 - 01.05.31.86.mp4536872162</linkclipref>
								</link>
								<link>
									<linkclipref>ArmA 3 2020.11.14 - 01.05.31.86.mp45368721621</linkclipref>
								</link>
								<fielddominance>none</fielddominance>
							</clipitem>
							<clipitem id="ArmA 3 2020.11.14 - 01.05.58.87.mp4805307619">
								<name>ArmA 3 2020.11.14 - 01.05.58.87.mp4</name>
								<duration>538</duration>
								<rate>
									<ntsc>FALSE</ntsc>
									<timebase>60</timebase>
								</rate>
								<in>0</in>
								<out>538</out>
								<start>5429</start>
								<end>5967</end>
								<pixelaspectratio>Square</pixelaspectratio>
								<anamorphic>FALSE</anamorphic>
								<alphatype>none</alphatype>
								<masterclipid>ArmA 3 2020.11.14 - 01.05.58.87.mp4</masterclipid>
								<logginginfo>
									<scene />
									<shottake />
									<lognote />
									<good>FALSE</good>
								</logginginfo>
								<labels>
									<label2 />
								</labels>
								<comments>
									<mastercomment1 />
									<mastercomment2 />
									<mastercomment3 />
									<mastercomment4 />
								</comments>
								<file id="ArmA 3 2020.11.14 - 01.05.58.87" />
								<filter>
									<effect>
										<name>Opacity</name>
										<effectid>opacity</effectid>
										<effectcategory>motion</effectcategory>
										<effecttype>motion</effecttype>
										<mediatype>video</mediatype>
										<parameter>
											<name>opacity</name>
											<parameterid>opacity</parameterid>
											<valuemin>0</valuemin>
											<valuemax>100</valuemax>
											<value>100</value>
										</parameter>
									</effect>
								</filter>
								<sourcetrack>
									<mediatype>video</mediatype>
								</sourcetrack>
								<link>
									<linkclipref>ArmA 3 2020.11.14 - 01.05.58.87.mp4805307619</linkclipref>
								</link>
								<link>
									<linkclipref>ArmA 3 2020.11.14 - 01.05.58.87.mp4536872164</linkclipref>
								</link>
								<link>
									<linkclipref>ArmA 3 2020.11.14 - 01.05.58.87.mp45368721641</linkclipref>
								</link>
								<link>
									<linkclipref>ArmA 3 2020.11.14 - 01.05.58.87.mp4536872165</linkclipref>
								</link>
								<link>
									<linkclipref>ArmA 3 2020.11.14 - 01.05.58.87.mp45368721651</linkclipref>
								</link>
								<fielddominance>none</fielddominance>
							</clipitem>
							<clipitem id="ArmA 3 2020.11.14 - 01.06.24.88.mp4805307622">
								<name>ArmA 3 2020.11.14 - 01.06.24.88.mp4</name>
								<duration>288</duration>
								<rate>
									<ntsc>FALSE</ntsc>
									<timebase>60</timebase>
								</rate>
								<in>0</in>
								<out>288</out>
								<start>5968</start>
								<end>6256</end>
								<pixelaspectratio>Square</pixelaspectratio>
								<anamorphic>FALSE</anamorphic>
								<alphatype>none</alphatype>
								<masterclipid>ArmA 3 2020.11.14 - 01.06.24.88.mp4</masterclipid>
								<logginginfo>
									<scene />
									<shottake />
									<lognote />
									<good>FALSE</good>
								</logginginfo>
								<labels>
									<label2 />
								</labels>
								<comments>
									<mastercomment1 />
									<mastercomment2 />
									<mastercomment3 />
									<mastercomment4 />
								</comments>
								<file id="ArmA 3 2020.11.14 - 01.06.24.88" />
								<filter>
									<effect>
										<name>Opacity</name>
										<effectid>opacity</effectid>
										<effectcategory>motion</effectcategory>
										<effecttype>motion</effecttype>
										<mediatype>video</mediatype>
										<parameter>
											<name>opacity</name>
											<parameterid>opacity</parameterid>
											<valuemin>0</valuemin>
											<valuemax>100</valuemax>
											<value>100</value>
										</parameter>
									</effect>
								</filter>
								<sourcetrack>
									<mediatype>video</mediatype>
								</sourcetrack>
								<link>
									<linkclipref>ArmA 3 2020.11.14 - 01.06.24.88.mp4805307622</linkclipref>
								</link>
								<link>
									<linkclipref>ArmA 3 2020.11.14 - 01.06.24.88.mp4536872167</linkclipref>
								</link>
								<link>
									<linkclipref>ArmA 3 2020.11.14 - 01.06.24.88.mp45368721671</linkclipref>
								</link>
								<link>
									<linkclipref>ArmA 3 2020.11.14 - 01.06.24.88.mp4536872168</linkclipref>
								</link>
								<link>
									<linkclipref>ArmA 3 2020.11.14 - 01.06.24.88.mp45368721681</linkclipref>
								</link>
								<fielddominance>none</fielddominance>
							</clipitem>
							<clipitem id="ArmA 3 2020.11.14 - 01.06.46.89.mp4805307625">
								<name>ArmA 3 2020.11.14 - 01.06.46.89.mp4</name>
								<duration>856</duration>
								<rate>
									<ntsc>FALSE</ntsc>
									<timebase>60</timebase>
								</rate>
								<in>0</in>
								<out>856</out>
								<start>6257</start>
								<end>7113</end>
								<pixelaspectratio>Square</pixelaspectratio>
								<anamorphic>FALSE</anamorphic>
								<alphatype>none</alphatype>
								<masterclipid>ArmA 3 2020.11.14 - 01.06.46.89.mp4</masterclipid>
								<logginginfo>
									<scene />
									<shottake />
									<lognote />
									<good>FALSE</good>
								</logginginfo>
								<labels>
									<label2 />
								</labels>
								<comments>
									<mastercomment1 />
									<mastercomment2 />
									<mastercomment3 />
									<mastercomment4 />
								</comments>
								<file id="ArmA 3 2020.11.14 - 01.06.46.89" />
								<filter>
									<effect>
										<name>Opacity</name>
										<effectid>opacity</effectid>
										<effectcategory>motion</effectcategory>
										<effecttype>motion</effecttype>
										<mediatype>video</mediatype>
										<parameter>
											<name>opacity</name>
											<parameterid>opacity</parameterid>
											<valuemin>0</valuemin>
											<valuemax>100</valuemax>
											<value>100</value>
										</parameter>
									</effect>
								</filter>
								<sourcetrack>
									<mediatype>video</mediatype>
								</sourcetrack>
								<link>
									<linkclipref>ArmA 3 2020.11.14 - 01.06.46.89.mp4805307625</linkclipref>
								</link>
								<link>
									<linkclipref>ArmA 3 2020.11.14 - 01.06.46.89.mp4536872170</linkclipref>
								</link>
								<link>
									<linkclipref>ArmA 3 2020.11.14 - 01.06.46.89.mp45368721701</linkclipref>
								</link>
								<link>
									<linkclipref>ArmA 3 2020.11.14 - 01.06.46.89.mp4536872171</linkclipref>
								</link>
								<link>
									<linkclipref>ArmA 3 2020.11.14 - 01.06.46.89.mp45368721711</linkclipref>
								</link>
								<fielddominance>none</fielddominance>
							</clipitem>
							<clipitem id="ArmA 3 2020.11.14 - 01.07.32.90.mp4805307628">
								<name>ArmA 3 2020.11.14 - 01.07.32.90.mp4</name>
								<duration>396</duration>
								<rate>
									<ntsc>FALSE</ntsc>
									<timebase>60</timebase>
								</rate>
								<in>0</in>
								<out>396</out>
								<start>7114</start>
								<end>7510</end>
								<pixelaspectratio>Square</pixelaspectratio>
								<anamorphic>FALSE</anamorphic>
								<alphatype>none</alphatype>
								<masterclipid>ArmA 3 2020.11.14 - 01.07.32.90.mp4</masterclipid>
								<logginginfo>
									<scene />
									<shottake />
									<lognote />
									<good>FALSE</good>
								</logginginfo>
								<labels>
									<label2 />
								</labels>
								<comments>
									<mastercomment1 />
									<mastercomment2 />
									<mastercomment3 />
									<mastercomment4 />
								</comments>
								<file id="ArmA 3 2020.11.14 - 01.07.32.90" />
								<filter>
									<effect>
										<name>Opacity</name>
										<effectid>opacity</effectid>
										<effectcategory>motion</effectcategory>
										<effecttype>motion</effecttype>
										<mediatype>video</mediatype>
										<parameter>
											<name>opacity</name>
											<parameterid>opacity</parameterid>
											<valuemin>0</valuemin>
											<valuemax>100</valuemax>
											<value>100</value>
										</parameter>
									</effect>
								</filter>
								<sourcetrack>
									<mediatype>video</mediatype>
								</sourcetrack>
								<link>
									<linkclipref>ArmA 3 2020.11.14 - 01.07.32.90.mp4805307628</linkclipref>
								</link>
								<link>
									<linkclipref>ArmA 3 2020.11.14 - 01.07.32.90.mp4536872173</linkclipref>
								</link>
								<link>
									<linkclipref>ArmA 3 2020.11.14 - 01.07.32.90.mp45368721731</linkclipref>
								</link>
								<link>
									<linkclipref>ArmA 3 2020.11.14 - 01.07.32.90.mp4536872174</linkclipref>
								</link>
								<link>
									<linkclipref>ArmA 3 2020.11.14 - 01.07.32.90.mp45368721741</linkclipref>
								</link>
								<fielddominance>none</fielddominance>
							</clipitem>
							<clipitem id="ArmA 3 2020.11.14 - 01.08.19.91.mp4805307631">
								<name>ArmA 3 2020.11.14 - 01.08.19.91.mp4</name>
								<duration>894</duration>
								<rate>
									<ntsc>FALSE</ntsc>
									<timebase>60</timebase>
								</rate>
								<in>0</in>
								<out>894</out>
								<start>7511</start>
								<end>8405</end>
								<pixelaspectratio>Square</pixelaspectratio>
								<anamorphic>FALSE</anamorphic>
								<alphatype>none</alphatype>
								<masterclipid>ArmA 3 2020.11.14 - 01.08.19.91.mp4</masterclipid>
								<logginginfo>
									<scene />
									<shottake />
									<lognote />
									<good>FALSE</good>
								</logginginfo>
								<labels>
									<label2 />
								</labels>
								<comments>
									<mastercomment1 />
									<mastercomment2 />
									<mastercomment3 />
									<mastercomment4 />
								</comments>
								<file id="ArmA 3 2020.11.14 - 01.08.19.91" />
								<filter>
									<effect>
										<name>Opacity</name>
										<effectid>opacity</effectid>
										<effectcategory>motion</effectcategory>
										<effecttype>motion</effecttype>
										<mediatype>video</mediatype>
										<parameter>
											<name>opacity</name>
											<parameterid>opacity</parameterid>
											<valuemin>0</valuemin>
											<valuemax>100</valuemax>
											<value>100</value>
										</parameter>
									</effect>
								</filter>
								<sourcetrack>
									<mediatype>video</mediatype>
								</sourcetrack>
								<link>
									<linkclipref>ArmA 3 2020.11.14 - 01.08.19.91.mp4805307631</linkclipref>
								</link>
								<link>
									<linkclipref>ArmA 3 2020.11.14 - 01.08.19.91.mp4536872176</linkclipref>
								</link>
								<link>
									<linkclipref>ArmA 3 2020.11.14 - 01.08.19.91.mp45368721761</linkclipref>
								</link>
								<link>
									<linkclipref>ArmA 3 2020.11.14 - 01.08.19.91.mp4536872177</linkclipref>
								</link>
								<link>
									<linkclipref>ArmA 3 2020.11.14 - 01.08.19.91.mp45368721771</linkclipref>
								</link>
								<fielddominance>none</fielddominance>
							</clipitem>
							<clipitem id="ArmA 3 2020.11.14 - 01.09.43.92.mp4805307634">
								<name>ArmA 3 2020.11.14 - 01.09.43.92.mp4</name>
								<duration>704</duration>
								<rate>
									<ntsc>FALSE</ntsc>
									<timebase>60</timebase>
								</rate>
								<in>0</in>
								<out>704</out>
								<start>8406</start>
								<end>9110</end>
								<pixelaspectratio>Square</pixelaspectratio>
								<anamorphic>FALSE</anamorphic>
								<alphatype>none</alphatype>
								<masterclipid>ArmA 3 2020.11.14 - 01.09.43.92.mp4</masterclipid>
								<logginginfo>
									<scene />
									<shottake />
									<lognote />
									<good>FALSE</good>
								</logginginfo>
								<labels>
									<label2 />
								</labels>
								<comments>
									<mastercomment1 />
									<mastercomment2 />
									<mastercomment3 />
									<mastercomment4 />
								</comments>
								<file id="ArmA 3 2020.11.14 - 01.09.43.92" />
								<filter>
									<effect>
										<name>Opacity</name>
										<effectid>opacity</effectid>
										<effectcategory>motion</effectcategory>
										<effecttype>motion</effecttype>
										<mediatype>video</mediatype>
										<parameter>
											<name>opacity</name>
											<parameterid>opacity</parameterid>
											<valuemin>0</valuemin>
											<valuemax>100</valuemax>
											<value>100</value>
										</parameter>
									</effect>
								</filter>
								<sourcetrack>
									<mediatype>video</mediatype>
								</sourcetrack>
								<link>
									<linkclipref>ArmA 3 2020.11.14 - 01.09.43.92.mp4805307634</linkclipref>
								</link>
								<link>
									<linkclipref>ArmA 3 2020.11.14 - 01.09.43.92.mp4536872179</linkclipref>
								</link>
								<link>
									<linkclipref>ArmA 3 2020.11.14 - 01.09.43.92.mp45368721791</linkclipref>
								</link>
								<link>
									<linkclipref>ArmA 3 2020.11.14 - 01.09.43.92.mp4536872180</linkclipref>
								</link>
								<link>
									<linkclipref>ArmA 3 2020.11.14 - 01.09.43.92.mp45368721801</linkclipref>
								</link>
								<fielddominance>none</fielddominance>
							</clipitem>
							<clipitem id="ArmA 3 2020.11.14 - 01.10.27.93.mp4805307637">
								<name>ArmA 3 2020.11.14 - 01.10.27.93.mp4</name>
								<duration>653</duration>
								<rate>
									<ntsc>FALSE</ntsc>
									<timebase>60</timebase>
								</rate>
								<in>0</in>
								<out>653</out>
								<start>9111</start>
								<end>9764</end>
								<pixelaspectratio>Square</pixelaspectratio>
								<anamorphic>FALSE</anamorphic>
								<alphatype>none</alphatype>
								<masterclipid>ArmA 3 2020.11.14 - 01.10.27.93.mp4</masterclipid>
								<logginginfo>
									<scene />
									<shottake />
									<lognote />
									<good>FALSE</good>
								</logginginfo>
								<labels>
									<label2 />
								</labels>
								<comments>
									<mastercomment1 />
									<mastercomment2 />
									<mastercomment3 />
									<mastercomment4 />
								</comments>
								<file id="ArmA 3 2020.11.14 - 01.10.27.93" />
								<filter>
									<effect>
										<name>Opacity</name>
										<effectid>opacity</effectid>
										<effectcategory>motion</effectcategory>
										<effecttype>motion</effecttype>
										<mediatype>video</mediatype>
										<parameter>
											<name>opacity</name>
											<parameterid>opacity</parameterid>
											<valuemin>0</valuemin>
											<valuemax>100</valuemax>
											<value>100</value>
										</parameter>
									</effect>
								</filter>
								<sourcetrack>
									<mediatype>video</mediatype>
								</sourcetrack>
								<link>
									<linkclipref>ArmA 3 2020.11.14 - 01.10.27.93.mp4805307637</linkclipref>
								</link>
								<link>
									<linkclipref>ArmA 3 2020.11.14 - 01.10.27.93.mp4536872182</linkclipref>
								</link>
								<link>
									<linkclipref>ArmA 3 2020.11.14 - 01.10.27.93.mp45368721821</linkclipref>
								</link>
								<link>
									<linkclipref>ArmA 3 2020.11.14 - 01.10.27.93.mp4536872183</linkclipref>
								</link>
								<link>
									<linkclipref>ArmA 3 2020.11.14 - 01.10.27.93.mp45368721831</linkclipref>
								</link>
								<fielddominance>none</fielddominance>
							</clipitem>
							<clipitem id="ArmA 3 2020.11.14 - 01.11.14.94.mp4805307640">
								<name>ArmA 3 2020.11.14 - 01.11.14.94.mp4</name>
								<duration>682</duration>
								<rate>
									<ntsc>FALSE</ntsc>
									<timebase>60</timebase>
								</rate>
								<in>0</in>
								<out>682</out>
								<start>9765</start>
								<end>10447</end>
								<pixelaspectratio>Square</pixelaspectratio>
								<anamorphic>FALSE</anamorphic>
								<alphatype>none</alphatype>
								<masterclipid>ArmA 3 2020.11.14 - 01.11.14.94.mp4</masterclipid>
								<logginginfo>
									<scene />
									<shottake />
									<lognote />
									<good>FALSE</good>
								</logginginfo>
								<labels>
									<label2 />
								</labels>
								<comments>
									<mastercomment1 />
									<mastercomment2 />
									<mastercomment3 />
									<mastercomment4 />
								</comments>
								<file id="ArmA 3 2020.11.14 - 01.11.14.94" />
								<filter>
									<effect>
										<name>Opacity</name>
										<effectid>opacity</effectid>
										<effectcategory>motion</effectcategory>
										<effecttype>motion</effecttype>
										<mediatype>video</mediatype>
										<parameter>
											<name>opacity</name>
											<parameterid>opacity</parameterid>
											<valuemin>0</valuemin>
											<valuemax>100</valuemax>
											<value>100</value>
										</parameter>
									</effect>
								</filter>
								<sourcetrack>
									<mediatype>video</mediatype>
								</sourcetrack>
								<link>
									<linkclipref>ArmA 3 2020.11.14 - 01.11.14.94.mp4805307640</linkclipref>
								</link>
								<link>
									<linkclipref>ArmA 3 2020.11.14 - 01.11.14.94.mp4536872185</linkclipref>
								</link>
								<link>
									<linkclipref>ArmA 3 2020.11.14 - 01.11.14.94.mp45368721851</linkclipref>
								</link>
								<link>
									<linkclipref>ArmA 3 2020.11.14 - 01.11.14.94.mp4536872186</linkclipref>
								</link>
								<link>
									<linkclipref>ArmA 3 2020.11.14 - 01.11.14.94.mp45368721861</linkclipref>
								</link>
								<fielddominance>none</fielddominance>
							</clipitem>
							<clipitem id="ArmA 3 2020.11.14 - 01.13.07.95.mp4805307643">
								<name>ArmA 3 2020.11.14 - 01.13.07.95.mp4</name>
								<duration>837</duration>
								<rate>
									<ntsc>FALSE</ntsc>
									<timebase>60</timebase>
								</rate>
								<in>0</in>
								<out>837</out>
								<start>10448</start>
								<end>11285</end>
								<pixelaspectratio>Square</pixelaspectratio>
								<anamorphic>FALSE</anamorphic>
								<alphatype>none</alphatype>
								<masterclipid>ArmA 3 2020.11.14 - 01.13.07.95.mp4</masterclipid>
								<logginginfo>
									<scene />
									<shottake />
									<lognote />
									<good>FALSE</good>
								</logginginfo>
								<labels>
									<label2 />
								</labels>
								<comments>
									<mastercomment1 />
									<mastercomment2 />
									<mastercomment3 />
									<mastercomment4 />
								</comments>
								<file id="ArmA 3 2020.11.14 - 01.13.07.95" />
								<filter>
									<effect>
										<name>Opacity</name>
										<effectid>opacity</effectid>
										<effectcategory>motion</effectcategory>
										<effecttype>motion</effecttype>
										<mediatype>video</mediatype>
										<parameter>
											<name>opacity</name>
											<parameterid>opacity</parameterid>
											<valuemin>0</valuemin>
											<valuemax>100</valuemax>
											<value>100</value>
										</parameter>
									</effect>
								</filter>
								<sourcetrack>
									<mediatype>video</mediatype>
								</sourcetrack>
								<link>
									<linkclipref>ArmA 3 2020.11.14 - 01.13.07.95.mp4805307643</linkclipref>
								</link>
								<link>
									<linkclipref>ArmA 3 2020.11.14 - 01.13.07.95.mp4536872188</linkclipref>
								</link>
								<link>
									<linkclipref>ArmA 3 2020.11.14 - 01.13.07.95.mp45368721881</linkclipref>
								</link>
								<link>
									<linkclipref>ArmA 3 2020.11.14 - 01.13.07.95.mp4536872189</linkclipref>
								</link>
								<link>
									<linkclipref>ArmA 3 2020.11.14 - 01.13.07.95.mp45368721891</linkclipref>
								</link>
								<fielddominance>none</fielddominance>
							</clipitem>
							<clipitem id="ArmA 3 2020.11.14 - 01.17.25.96.mp4805307646">
								<name>ArmA 3 2020.11.14 - 01.17.25.96.mp4</name>
								<duration>1040</duration>
								<rate>
									<ntsc>FALSE</ntsc>
									<timebase>60</timebase>
								</rate>
								<in>0</in>
								<out>1040</out>
								<start>11286</start>
								<end>12326</end>
								<pixelaspectratio>Square</pixelaspectratio>
								<anamorphic>FALSE</anamorphic>
								<alphatype>none</alphatype>
								<masterclipid>ArmA 3 2020.11.14 - 01.17.25.96.mp4</masterclipid>
								<logginginfo>
									<scene />
									<shottake />
									<lognote />
									<good>FALSE</good>
								</logginginfo>
								<labels>
									<label2 />
								</labels>
								<comments>
									<mastercomment1 />
									<mastercomment2 />
									<mastercomment3 />
									<mastercomment4 />
								</comments>
								<file id="ArmA 3 2020.11.14 - 01.17.25.96" />
								<filter>
									<effect>
										<name>Opacity</name>
										<effectid>opacity</effectid>
										<effectcategory>motion</effectcategory>
										<effecttype>motion</effecttype>
										<mediatype>video</mediatype>
										<parameter>
											<name>opacity</name>
											<parameterid>opacity</parameterid>
											<valuemin>0</valuemin>
											<valuemax>100</valuemax>
											<value>100</value>
										</parameter>
									</effect>
								</filter>
								<sourcetrack>
									<mediatype>video</mediatype>
								</sourcetrack>
								<link>
									<linkclipref>ArmA 3 2020.11.14 - 01.17.25.96.mp4805307646</linkclipref>
								</link>
								<link>
									<linkclipref>ArmA 3 2020.11.14 - 01.17.25.96.mp4536872191</linkclipref>
								</link>
								<link>
									<linkclipref>ArmA 3 2020.11.14 - 01.17.25.96.mp45368721911</linkclipref>
								</link>
								<link>
									<linkclipref>ArmA 3 2020.11.14 - 01.17.25.96.mp4536872192</linkclipref>
								</link>
								<link>
									<linkclipref>ArmA 3 2020.11.14 - 01.17.25.96.mp45368721921</linkclipref>
								</link>
								<fielddominance>none</fielddominance>
							</clipitem>
							<clipitem id="ArmA 3 2020.11.14 - 01.18.27.97.mp4805307649">
								<name>ArmA 3 2020.11.14 - 01.18.27.97.mp4</name>
								<duration>723</duration>
								<rate>
									<ntsc>FALSE</ntsc>
									<timebase>60</timebase>
								</rate>
								<in>0</in>
								<out>723</out>
								<start>12327</start>
								<end>13050</end>
								<pixelaspectratio>Square</pixelaspectratio>
								<anamorphic>FALSE</anamorphic>
								<alphatype>none</alphatype>
								<masterclipid>ArmA 3 2020.11.14 - 01.18.27.97.mp4</masterclipid>
								<logginginfo>
									<scene />
									<shottake />
									<lognote />
									<good>FALSE</good>
								</logginginfo>
								<labels>
									<label2 />
								</labels>
								<comments>
									<mastercomment1 />
									<mastercomment2 />
									<mastercomment3 />
									<mastercomment4 />
								</comments>
								<file id="ArmA 3 2020.11.14 - 01.18.27.97" />
								<filter>
									<effect>
										<name>Opacity</name>
										<effectid>opacity</effectid>
										<effectcategory>motion</effectcategory>
										<effecttype>motion</effecttype>
										<mediatype>video</mediatype>
										<parameter>
											<name>opacity</name>
											<parameterid>opacity</parameterid>
											<valuemin>0</valuemin>
											<valuemax>100</valuemax>
											<value>100</value>
										</parameter>
									</effect>
								</filter>
								<sourcetrack>
									<mediatype>video</mediatype>
								</sourcetrack>
								<link>
									<linkclipref>ArmA 3 2020.11.14 - 01.18.27.97.mp4805307649</linkclipref>
								</link>
								<link>
									<linkclipref>ArmA 3 2020.11.14 - 01.18.27.97.mp4536872194</linkclipref>
								</link>
								<link>
									<linkclipref>ArmA 3 2020.11.14 - 01.18.27.97.mp45368721941</linkclipref>
								</link>
								<link>
									<linkclipref>ArmA 3 2020.11.14 - 01.18.27.97.mp4536872195</linkclipref>
								</link>
								<link>
									<linkclipref>ArmA 3 2020.11.14 - 01.18.27.97.mp45368721951</linkclipref>
								</link>
								<fielddominance>none</fielddominance>
							</clipitem>
							<clipitem id="ArmA 3 2020.11.14 - 01.19.04.98.mp4805307652">
								<name>ArmA 3 2020.11.14 - 01.19.04.98.mp4</name>
								<duration>597</duration>
								<rate>
									<ntsc>FALSE</ntsc>
									<timebase>60</timebase>
								</rate>
								<in>0</in>
								<out>597</out>
								<start>13051</start>
								<end>13648</end>
								<pixelaspectratio>Square</pixelaspectratio>
								<anamorphic>FALSE</anamorphic>
								<alphatype>none</alphatype>
								<masterclipid>ArmA 3 2020.11.14 - 01.19.04.98.mp4</masterclipid>
								<logginginfo>
									<scene />
									<shottake />
									<lognote />
									<good>FALSE</good>
								</logginginfo>
								<labels>
									<label2 />
								</labels>
								<comments>
									<mastercomment1 />
									<mastercomment2 />
									<mastercomment3 />
									<mastercomment4 />
								</comments>
								<file id="ArmA 3 2020.11.14 - 01.19.04.98" />
								<filter>
									<effect>
										<name>Opacity</name>
										<effectid>opacity</effectid>
										<effectcategory>motion</effectcategory>
										<effecttype>motion</effecttype>
										<mediatype>video</mediatype>
										<parameter>
											<name>opacity</name>
											<parameterid>opacity</parameterid>
											<valuemin>0</valuemin>
											<valuemax>100</valuemax>
											<value>100</value>
										</parameter>
									</effect>
								</filter>
								<sourcetrack>
									<mediatype>video</mediatype>
								</sourcetrack>
								<link>
									<linkclipref>ArmA 3 2020.11.14 - 01.19.04.98.mp4805307652</linkclipref>
								</link>
								<link>
									<linkclipref>ArmA 3 2020.11.14 - 01.19.04.98.mp4536872197</linkclipref>
								</link>
								<link>
									<linkclipref>ArmA 3 2020.11.14 - 01.19.04.98.mp45368721971</linkclipref>
								</link>
								<link>
									<linkclipref>ArmA 3 2020.11.14 - 01.19.04.98.mp4536872198</linkclipref>
								</link>
								<link>
									<linkclipref>ArmA 3 2020.11.14 - 01.19.04.98.mp45368721981</linkclipref>
								</link>
								<fielddominance>none</fielddominance>
							</clipitem>
							<clipitem id="ArmA 3 2020.11.14 - 01.19.30.99.mp4805307655">
								<name>ArmA 3 2020.11.14 - 01.19.30.99.mp4</name>
								<duration>782</duration>
								<rate>
									<ntsc>FALSE</ntsc>
									<timebase>60</timebase>
								</rate>
								<in>0</in>
								<out>782</out>
								<start>13649</start>
								<end>14431</end>
								<pixelaspectratio>Square</pixelaspectratio>
								<anamorphic>FALSE</anamorphic>
								<alphatype>none</alphatype>
								<masterclipid>ArmA 3 2020.11.14 - 01.19.30.99.mp4</masterclipid>
								<logginginfo>
									<scene />
									<shottake />
									<lognote />
									<good>FALSE</good>
								</logginginfo>
								<labels>
									<label2 />
								</labels>
								<comments>
									<mastercomment1 />
									<mastercomment2 />
									<mastercomment3 />
									<mastercomment4 />
								</comments>
								<file id="ArmA 3 2020.11.14 - 01.19.30.99" />
								<filter>
									<effect>
										<name>Opacity</name>
										<effectid>opacity</effectid>
										<effectcategory>motion</effectcategory>
										<effecttype>motion</effecttype>
										<mediatype>video</mediatype>
										<parameter>
											<name>opacity</name>
											<parameterid>opacity</parameterid>
											<valuemin>0</valuemin>
											<valuemax>100</valuemax>
											<value>100</value>
										</parameter>
									</effect>
								</filter>
								<sourcetrack>
									<mediatype>video</mediatype>
								</sourcetrack>
								<link>
									<linkclipref>ArmA 3 2020.11.14 - 01.19.30.99.mp4805307655</linkclipref>
								</link>
								<link>
									<linkclipref>ArmA 3 2020.11.14 - 01.19.30.99.mp4536872200</linkclipref>
								</link>
								<link>
									<linkclipref>ArmA 3 2020.11.14 - 01.19.30.99.mp45368722001</linkclipref>
								</link>
								<link>
									<linkclipref>ArmA 3 2020.11.14 - 01.19.30.99.mp4536872201</linkclipref>
								</link>
								<link>
									<linkclipref>ArmA 3 2020.11.14 - 01.19.30.99.mp45368722011</linkclipref>
								</link>
								<fielddominance>none</fielddominance>
							</clipitem>
							<clipitem id="ArmA 3 2020.11.14 - 01.21.06.100.mp4805307658">
								<name>ArmA 3 2020.11.14 - 01.21.06.100.mp4</name>
								<duration>349</duration>
								<rate>
									<ntsc>FALSE</ntsc>
									<timebase>60</timebase>
								</rate>
								<in>0</in>
								<out>349</out>
								<start>14432</start>
								<end>14781</end>
								<pixelaspectratio>Square</pixelaspectratio>
								<anamorphic>FALSE</anamorphic>
								<alphatype>none</alphatype>
								<masterclipid>ArmA 3 2020.11.14 - 01.21.06.100.mp4</masterclipid>
								<logginginfo>
									<scene />
									<shottake />
									<lognote />
									<good>FALSE</good>
								</logginginfo>
								<labels>
									<label2 />
								</labels>
								<comments>
									<mastercomment1 />
									<mastercomment2 />
									<mastercomment3 />
									<mastercomment4 />
								</comments>
								<file id="ArmA 3 2020.11.14 - 01.21.06.100" />
								<filter>
									<effect>
										<name>Opacity</name>
										<effectid>opacity</effectid>
										<effectcategory>motion</effectcategory>
										<effecttype>motion</effecttype>
										<mediatype>video</mediatype>
										<parameter>
											<name>opacity</name>
											<parameterid>opacity</parameterid>
											<valuemin>0</valuemin>
											<valuemax>100</valuemax>
											<value>100</value>
										</parameter>
									</effect>
								</filter>
								<sourcetrack>
									<mediatype>video</mediatype>
								</sourcetrack>
								<link>
									<linkclipref>ArmA 3 2020.11.14 - 01.21.06.100.mp4805307658</linkclipref>
								</link>
								<link>
									<linkclipref>ArmA 3 2020.11.14 - 01.21.06.100.mp4536872203</linkclipref>
								</link>
								<link>
									<linkclipref>ArmA 3 2020.11.14 - 01.21.06.100.mp45368722031</linkclipref>
								</link>
								<link>
									<linkclipref>ArmA 3 2020.11.14 - 01.21.06.100.mp4536872204</linkclipref>
								</link>
								<link>
									<linkclipref>ArmA 3 2020.11.14 - 01.21.06.100.mp45368722041</linkclipref>
								</link>
								<fielddominance>none</fielddominance>
							</clipitem>
							<clipitem id="ArmA 3 2020.11.14 - 01.21.52.101.mp4805307661">
								<name>ArmA 3 2020.11.14 - 01.21.52.101.mp4</name>
								<duration>1025</duration>
								<rate>
									<ntsc>FALSE</ntsc>
									<timebase>60</timebase>
								</rate>
								<in>0</in>
								<out>1025</out>
								<start>14782</start>
								<end>15807</end>
								<pixelaspectratio>Square</pixelaspectratio>
								<anamorphic>FALSE</anamorphic>
								<alphatype>none</alphatype>
								<masterclipid>ArmA 3 2020.11.14 - 01.21.52.101.mp4</masterclipid>
								<logginginfo>
									<scene />
									<shottake />
									<lognote />
									<good>FALSE</good>
								</logginginfo>
								<labels>
									<label2 />
								</labels>
								<comments>
									<mastercomment1 />
									<mastercomment2 />
									<mastercomment3 />
									<mastercomment4 />
								</comments>
								<file id="ArmA 3 2020.11.14 - 01.21.52.101" />
								<filter>
									<effect>
										<name>Opacity</name>
										<effectid>opacity</effectid>
										<effectcategory>motion</effectcategory>
										<effecttype>motion</effecttype>
										<mediatype>video</mediatype>
										<parameter>
											<name>opacity</name>
											<parameterid>opacity</parameterid>
											<valuemin>0</valuemin>
											<valuemax>100</valuemax>
											<value>100</value>
										</parameter>
									</effect>
								</filter>
								<sourcetrack>
									<mediatype>video</mediatype>
								</sourcetrack>
								<link>
									<linkclipref>ArmA 3 2020.11.14 - 01.21.52.101.mp4805307661</linkclipref>
								</link>
								<link>
									<linkclipref>ArmA 3 2020.11.14 - 01.21.52.101.mp4536872206</linkclipref>
								</link>
								<link>
									<linkclipref>ArmA 3 2020.11.14 - 01.21.52.101.mp45368722061</linkclipref>
								</link>
								<link>
									<linkclipref>ArmA 3 2020.11.14 - 01.21.52.101.mp4536872207</linkclipref>
								</link>
								<link>
									<linkclipref>ArmA 3 2020.11.14 - 01.21.52.101.mp45368722071</linkclipref>
								</link>
								<fielddominance>none</fielddominance>
							</clipitem>
							<clipitem id="ArmA 3 2020.11.14 - 01.22.45.102.mp4805307664">
								<name>ArmA 3 2020.11.14 - 01.22.45.102.mp4</name>
								<duration>1159</duration>
								<rate>
									<ntsc>FALSE</ntsc>
									<timebase>60</timebase>
								</rate>
								<in>0</in>
								<out>1159</out>
								<start>15808</start>
								<end>16967</end>
								<pixelaspectratio>Square</pixelaspectratio>
								<anamorphic>FALSE</anamorphic>
								<alphatype>none</alphatype>
								<masterclipid>ArmA 3 2020.11.14 - 01.22.45.102.mp4</masterclipid>
								<logginginfo>
									<scene />
									<shottake />
									<lognote />
									<good>FALSE</good>
								</logginginfo>
								<labels>
									<label2 />
								</labels>
								<comments>
									<mastercomment1 />
									<mastercomment2 />
									<mastercomment3 />
									<mastercomment4 />
								</comments>
								<file id="ArmA 3 2020.11.14 - 01.22.45.102" />
								<filter>
									<effect>
										<name>Opacity</name>
										<effectid>opacity</effectid>
										<effectcategory>motion</effectcategory>
										<effecttype>motion</effecttype>
										<mediatype>video</mediatype>
										<parameter>
											<name>opacity</name>
											<parameterid>opacity</parameterid>
											<valuemin>0</valuemin>
											<valuemax>100</valuemax>
											<value>100</value>
										</parameter>
									</effect>
								</filter>
								<sourcetrack>
									<mediatype>video</mediatype>
								</sourcetrack>
								<link>
									<linkclipref>ArmA 3 2020.11.14 - 01.22.45.102.mp4805307664</linkclipref>
								</link>
								<link>
									<linkclipref>ArmA 3 2020.11.14 - 01.22.45.102.mp4536872209</linkclipref>
								</link>
								<link>
									<linkclipref>ArmA 3 2020.11.14 - 01.22.45.102.mp45368722091</linkclipref>
								</link>
								<link>
									<linkclipref>ArmA 3 2020.11.14 - 01.22.45.102.mp4536872210</linkclipref>
								</link>
								<link>
									<linkclipref>ArmA 3 2020.11.14 - 01.22.45.102.mp45368722101</linkclipref>
								</link>
								<fielddominance>none</fielddominance>
							</clipitem>
							<clipitem id="ArmA 3 2020.11.14 - 01.24.35.103.mp4805307667">
								<name>ArmA 3 2020.11.14 - 01.24.35.103.mp4</name>
								<duration>1749</duration>
								<rate>
									<ntsc>FALSE</ntsc>
									<timebase>60</timebase>
								</rate>
								<in>0</in>
								<out>1749</out>
								<start>16968</start>
								<end>18717</end>
								<pixelaspectratio>Square</pixelaspectratio>
								<anamorphic>FALSE</anamorphic>
								<alphatype>none</alphatype>
								<masterclipid>ArmA 3 2020.11.14 - 01.24.35.103.mp4</masterclipid>
								<logginginfo>
									<scene />
									<shottake />
									<lognote />
									<good>FALSE</good>
								</logginginfo>
								<labels>
									<label2 />
								</labels>
								<comments>
									<mastercomment1 />
									<mastercomment2 />
									<mastercomment3 />
									<mastercomment4 />
								</comments>
								<file id="ArmA 3 2020.11.14 - 01.24.35.103" />
								<filter>
									<effect>
										<name>Opacity</name>
										<effectid>opacity</effectid>
										<effectcategory>motion</effectcategory>
										<effecttype>motion</effecttype>
										<mediatype>video</mediatype>
										<parameter>
											<name>opacity</name>
											<parameterid>opacity</parameterid>
											<valuemin>0</valuemin>
											<valuemax>100</valuemax>
											<value>100</value>
										</parameter>
									</effect>
								</filter>
								<sourcetrack>
									<mediatype>video</mediatype>
								</sourcetrack>
								<link>
									<linkclipref>ArmA 3 2020.11.14 - 01.24.35.103.mp4805307667</linkclipref>
								</link>
								<link>
									<linkclipref>ArmA 3 2020.11.14 - 01.24.35.103.mp4536872212</linkclipref>
								</link>
								<link>
									<linkclipref>ArmA 3 2020.11.14 - 01.24.35.103.mp45368722121</linkclipref>
								</link>
								<link>
									<linkclipref>ArmA 3 2020.11.14 - 01.24.35.103.mp4536872213</linkclipref>
								</link>
								<link>
									<linkclipref>ArmA 3 2020.11.14 - 01.24.35.103.mp45368722131</linkclipref>
								</link>
								<fielddominance>none</fielddominance>
							</clipitem>
							<clipitem id="ArmA 3 2020.11.14 - 01.27.04.104.mp4805307670">
								<name>ArmA 3 2020.11.14 - 01.27.04.104.mp4</name>
								<duration>170</duration>
								<rate>
									<ntsc>FALSE</ntsc>
									<timebase>60</timebase>
								</rate>
								<in>0</in>
								<out>170</out>
								<start>18718</start>
								<end>18888</end>
								<pixelaspectratio>Square</pixelaspectratio>
								<anamorphic>FALSE</anamorphic>
								<alphatype>none</alphatype>
								<masterclipid>ArmA 3 2020.11.14 - 01.27.04.104.mp4</masterclipid>
								<logginginfo>
									<scene />
									<shottake />
									<lognote />
									<good>FALSE</good>
								</logginginfo>
								<labels>
									<label2 />
								</labels>
								<comments>
									<mastercomment1 />
									<mastercomment2 />
									<mastercomment3 />
									<mastercomment4 />
								</comments>
								<file id="ArmA 3 2020.11.14 - 01.27.04.104" />
								<filter>
									<effect>
										<name>Opacity</name>
										<effectid>opacity</effectid>
										<effectcategory>motion</effectcategory>
										<effecttype>motion</effecttype>
										<mediatype>video</mediatype>
										<parameter>
											<name>opacity</name>
											<parameterid>opacity</parameterid>
											<valuemin>0</valuemin>
											<valuemax>100</valuemax>
											<value>100</value>
										</parameter>
									</effect>
								</filter>
								<sourcetrack>
									<mediatype>video</mediatype>
								</sourcetrack>
								<link>
									<linkclipref>ArmA 3 2020.11.14 - 01.27.04.104.mp4805307670</linkclipref>
								</link>
								<link>
									<linkclipref>ArmA 3 2020.11.14 - 01.27.04.104.mp4536872215</linkclipref>
								</link>
								<link>
									<linkclipref>ArmA 3 2020.11.14 - 01.27.04.104.mp45368722151</linkclipref>
								</link>
								<link>
									<linkclipref>ArmA 3 2020.11.14 - 01.27.04.104.mp4536872216</linkclipref>
								</link>
								<link>
									<linkclipref>ArmA 3 2020.11.14 - 01.27.04.104.mp45368722161</linkclipref>
								</link>
								<fielddominance>none</fielddominance>
							</clipitem>
							<clipitem id="ArmA 3 2020.11.14 - 01.27.36.105.mp4805307673">
								<name>ArmA 3 2020.11.14 - 01.27.36.105.mp4</name>
								<duration>747</duration>
								<rate>
									<ntsc>FALSE</ntsc>
									<timebase>60</timebase>
								</rate>
								<in>0</in>
								<out>747</out>
								<start>18889</start>
								<end>19636</end>
								<pixelaspectratio>Square</pixelaspectratio>
								<anamorphic>FALSE</anamorphic>
								<alphatype>none</alphatype>
								<masterclipid>ArmA 3 2020.11.14 - 01.27.36.105.mp4</masterclipid>
								<logginginfo>
									<scene />
									<shottake />
									<lognote />
									<good>FALSE</good>
								</logginginfo>
								<labels>
									<label2 />
								</labels>
								<comments>
									<mastercomment1 />
									<mastercomment2 />
									<mastercomment3 />
									<mastercomment4 />
								</comments>
								<file id="ArmA 3 2020.11.14 - 01.27.36.105" />
								<filter>
									<effect>
										<name>Opacity</name>
										<effectid>opacity</effectid>
										<effectcategory>motion</effectcategory>
										<effecttype>motion</effecttype>
										<mediatype>video</mediatype>
										<parameter>
											<name>opacity</name>
											<parameterid>opacity</parameterid>
											<valuemin>0</valuemin>
											<valuemax>100</valuemax>
											<value>100</value>
										</parameter>
									</effect>
								</filter>
								<sourcetrack>
									<mediatype>video</mediatype>
								</sourcetrack>
								<link>
									<linkclipref>ArmA 3 2020.11.14 - 01.27.36.105.mp4805307673</linkclipref>
								</link>
								<link>
									<linkclipref>ArmA 3 2020.11.14 - 01.27.36.105.mp4536872218</linkclipref>
								</link>
								<link>
									<linkclipref>ArmA 3 2020.11.14 - 01.27.36.105.mp45368722181</linkclipref>
								</link>
								<link>
									<linkclipref>ArmA 3 2020.11.14 - 01.27.36.105.mp4536872219</linkclipref>
								</link>
								<link>
									<linkclipref>ArmA 3 2020.11.14 - 01.27.36.105.mp45368722191</linkclipref>
								</link>
								<fielddominance>none</fielddominance>
							</clipitem>
							<clipitem id="ArmA 3 2020.11.14 - 01.32.59.106.mp4805307676">
								<name>ArmA 3 2020.11.14 - 01.32.59.106.mp4</name>
								<duration>834</duration>
								<rate>
									<ntsc>FALSE</ntsc>
									<timebase>60</timebase>
								</rate>
								<in>0</in>
								<out>834</out>
								<start>19637</start>
								<end>20471</end>
								<pixelaspectratio>Square</pixelaspectratio>
								<anamorphic>FALSE</anamorphic>
								<alphatype>none</alphatype>
								<masterclipid>ArmA 3 2020.11.14 - 01.32.59.106.mp4</masterclipid>
								<logginginfo>
									<scene />
									<shottake />
									<lognote />
									<good>FALSE</good>
								</logginginfo>
								<labels>
									<label2 />
								</labels>
								<comments>
									<mastercomment1 />
									<mastercomment2 />
									<mastercomment3 />
									<mastercomment4 />
								</comments>
								<file id="ArmA 3 2020.11.14 - 01.32.59.106" />
								<filter>
									<effect>
										<name>Opacity</name>
										<effectid>opacity</effectid>
										<effectcategory>motion</effectcategory>
										<effecttype>motion</effecttype>
										<mediatype>video</mediatype>
										<parameter>
											<name>opacity</name>
											<parameterid>opacity</parameterid>
											<valuemin>0</valuemin>
											<valuemax>100</valuemax>
											<value>100</value>
										</parameter>
									</effect>
								</filter>
								<sourcetrack>
									<mediatype>video</mediatype>
								</sourcetrack>
								<link>
									<linkclipref>ArmA 3 2020.11.14 - 01.32.59.106.mp4805307676</linkclipref>
								</link>
								<link>
									<linkclipref>ArmA 3 2020.11.14 - 01.32.59.106.mp4536872221</linkclipref>
								</link>
								<link>
									<linkclipref>ArmA 3 2020.11.14 - 01.32.59.106.mp45368722211</linkclipref>
								</link>
								<link>
									<linkclipref>ArmA 3 2020.11.14 - 01.32.59.106.mp4536872222</linkclipref>
								</link>
								<link>
									<linkclipref>ArmA 3 2020.11.14 - 01.32.59.106.mp45368722221</linkclipref>
								</link>
								<fielddominance>none</fielddominance>
							</clipitem>
							<clipitem id="ArmA 3 2020.11.14 - 01.34.00.107.mp4805307679">
								<name>ArmA 3 2020.11.14 - 01.34.00.107.mp4</name>
								<duration>670</duration>
								<rate>
									<ntsc>FALSE</ntsc>
									<timebase>60</timebase>
								</rate>
								<in>0</in>
								<out>670</out>
								<start>20472</start>
								<end>21142</end>
								<pixelaspectratio>Square</pixelaspectratio>
								<anamorphic>FALSE</anamorphic>
								<alphatype>none</alphatype>
								<masterclipid>ArmA 3 2020.11.14 - 01.34.00.107.mp4</masterclipid>
								<logginginfo>
									<scene />
									<shottake />
									<lognote />
									<good>FALSE</good>
								</logginginfo>
								<labels>
									<label2 />
								</labels>
								<comments>
									<mastercomment1 />
									<mastercomment2 />
									<mastercomment3 />
									<mastercomment4 />
								</comments>
								<file id="ArmA 3 2020.11.14 - 01.34.00.107" />
								<filter>
									<effect>
										<name>Opacity</name>
										<effectid>opacity</effectid>
										<effectcategory>motion</effectcategory>
										<effecttype>motion</effecttype>
										<mediatype>video</mediatype>
										<parameter>
											<name>opacity</name>
											<parameterid>opacity</parameterid>
											<valuemin>0</valuemin>
											<valuemax>100</valuemax>
											<value>100</value>
										</parameter>
									</effect>
								</filter>
								<sourcetrack>
									<mediatype>video</mediatype>
								</sourcetrack>
								<link>
									<linkclipref>ArmA 3 2020.11.14 - 01.34.00.107.mp4805307679</linkclipref>
								</link>
								<link>
									<linkclipref>ArmA 3 2020.11.14 - 01.34.00.107.mp4536872224</linkclipref>
								</link>
								<link>
									<linkclipref>ArmA 3 2020.11.14 - 01.34.00.107.mp45368722241</linkclipref>
								</link>
								<link>
									<linkclipref>ArmA 3 2020.11.14 - 01.34.00.107.mp4536872225</linkclipref>
								</link>
								<link>
									<linkclipref>ArmA 3 2020.11.14 - 01.34.00.107.mp45368722251</linkclipref>
								</link>
								<fielddominance>none</fielddominance>
							</clipitem>
							<clipitem id="ArmA 3 2020.11.14 - 01.34.52.108.mp4805307682">
								<name>ArmA 3 2020.11.14 - 01.34.52.108.mp4</name>
								<duration>461</duration>
								<rate>
									<ntsc>FALSE</ntsc>
									<timebase>60</timebase>
								</rate>
								<in>0</in>
								<out>461</out>
								<start>21143</start>
								<end>21604</end>
								<pixelaspectratio>Square</pixelaspectratio>
								<anamorphic>FALSE</anamorphic>
								<alphatype>none</alphatype>
								<masterclipid>ArmA 3 2020.11.14 - 01.34.52.108.mp4</masterclipid>
								<logginginfo>
									<scene />
									<shottake />
									<lognote />
									<good>FALSE</good>
								</logginginfo>
								<labels>
									<label2 />
								</labels>
								<comments>
									<mastercomment1 />
									<mastercomment2 />
									<mastercomment3 />
									<mastercomment4 />
								</comments>
								<file id="ArmA 3 2020.11.14 - 01.34.52.108" />
								<filter>
									<effect>
										<name>Opacity</name>
										<effectid>opacity</effectid>
										<effectcategory>motion</effectcategory>
										<effecttype>motion</effecttype>
										<mediatype>video</mediatype>
										<parameter>
											<name>opacity</name>
											<parameterid>opacity</parameterid>
											<valuemin>0</valuemin>
											<valuemax>100</valuemax>
											<value>100</value>
										</parameter>
									</effect>
								</filter>
								<sourcetrack>
									<mediatype>video</mediatype>
								</sourcetrack>
								<link>
									<linkclipref>ArmA 3 2020.11.14 - 01.34.52.108.mp4805307682</linkclipref>
								</link>
								<link>
									<linkclipref>ArmA 3 2020.11.14 - 01.34.52.108.mp4536872227</linkclipref>
								</link>
								<link>
									<linkclipref>ArmA 3 2020.11.14 - 01.34.52.108.mp45368722271</linkclipref>
								</link>
								<link>
									<linkclipref>ArmA 3 2020.11.14 - 01.34.52.108.mp4536872228</linkclipref>
								</link>
								<link>
									<linkclipref>ArmA 3 2020.11.14 - 01.34.52.108.mp45368722281</linkclipref>
								</link>
								<fielddominance>none</fielddominance>
							</clipitem>
							<clipitem id="ArmA 3 2020.11.14 - 01.35.14.109.mp4805307685">
								<name>ArmA 3 2020.11.14 - 01.35.14.109.mp4</name>
								<duration>115</duration>
								<rate>
									<ntsc>FALSE</ntsc>
									<timebase>60</timebase>
								</rate>
								<in>0</in>
								<out>115</out>
								<start>21605</start>
								<end>21720</end>
								<pixelaspectratio>Square</pixelaspectratio>
								<anamorphic>FALSE</anamorphic>
								<alphatype>none</alphatype>
								<masterclipid>ArmA 3 2020.11.14 - 01.35.14.109.mp4</masterclipid>
								<logginginfo>
									<scene />
									<shottake />
									<lognote />
									<good>FALSE</good>
								</logginginfo>
								<labels>
									<label2 />
								</labels>
								<comments>
									<mastercomment1 />
									<mastercomment2 />
									<mastercomment3 />
									<mastercomment4 />
								</comments>
								<file id="ArmA 3 2020.11.14 - 01.35.14.109" />
								<filter>
									<effect>
										<name>Opacity</name>
										<effectid>opacity</effectid>
										<effectcategory>motion</effectcategory>
										<effecttype>motion</effecttype>
										<mediatype>video</mediatype>
										<parameter>
											<name>opacity</name>
											<parameterid>opacity</parameterid>
											<valuemin>0</valuemin>
											<valuemax>100</valuemax>
											<value>100</value>
										</parameter>
									</effect>
								</filter>
								<sourcetrack>
									<mediatype>video</mediatype>
								</sourcetrack>
								<link>
									<linkclipref>ArmA 3 2020.11.14 - 01.35.14.109.mp4805307685</linkclipref>
								</link>
								<link>
									<linkclipref>ArmA 3 2020.11.14 - 01.35.14.109.mp4536872230</linkclipref>
								</link>
								<link>
									<linkclipref>ArmA 3 2020.11.14 - 01.35.14.109.mp45368722301</linkclipref>
								</link>
								<link>
									<linkclipref>ArmA 3 2020.11.14 - 01.35.14.109.mp4536872231</linkclipref>
								</link>
								<link>
									<linkclipref>ArmA 3 2020.11.14 - 01.35.14.109.mp45368722311</linkclipref>
								</link>
								<fielddominance>none</fielddominance>
							</clipitem>
							<clipitem id="ArmA 3 2020.11.14 - 01.36.01.110.mp4805307688">
								<name>ArmA 3 2020.11.14 - 01.36.01.110.mp4</name>
								<duration>2427</duration>
								<rate>
									<ntsc>FALSE</ntsc>
									<timebase>60</timebase>
								</rate>
								<in>0</in>
								<out>2427</out>
								<start>21721</start>
								<end>24148</end>
								<pixelaspectratio>Square</pixelaspectratio>
								<anamorphic>FALSE</anamorphic>
								<alphatype>none</alphatype>
								<masterclipid>ArmA 3 2020.11.14 - 01.36.01.110.mp4</masterclipid>
								<logginginfo>
									<scene />
									<shottake />
									<lognote />
									<good>FALSE</good>
								</logginginfo>
								<labels>
									<label2 />
								</labels>
								<comments>
									<mastercomment1 />
									<mastercomment2 />
									<mastercomment3 />
									<mastercomment4 />
								</comments>
								<file id="ArmA 3 2020.11.14 - 01.36.01.110" />
								<filter>
									<effect>
										<name>Opacity</name>
										<effectid>opacity</effectid>
										<effectcategory>motion</effectcategory>
										<effecttype>motion</effecttype>
										<mediatype>video</mediatype>
										<parameter>
											<name>opacity</name>
											<parameterid>opacity</parameterid>
											<valuemin>0</valuemin>
											<valuemax>100</valuemax>
											<value>100</value>
										</parameter>
									</effect>
								</filter>
								<sourcetrack>
									<mediatype>video</mediatype>
								</sourcetrack>
								<link>
									<linkclipref>ArmA 3 2020.11.14 - 01.36.01.110.mp4805307688</linkclipref>
								</link>
								<link>
									<linkclipref>ArmA 3 2020.11.14 - 01.36.01.110.mp4536872233</linkclipref>
								</link>
								<link>
									<linkclipref>ArmA 3 2020.11.14 - 01.36.01.110.mp45368722331</linkclipref>
								</link>
								<link>
									<linkclipref>ArmA 3 2020.11.14 - 01.36.01.110.mp4536872234</linkclipref>
								</link>
								<link>
									<linkclipref>ArmA 3 2020.11.14 - 01.36.01.110.mp45368722341</linkclipref>
								</link>
								<fielddominance>none</fielddominance>
							</clipitem>
							<clipitem id="ArmA 3 2020.11.14 - 01.37.46.111.mp4805307691">
								<name>ArmA 3 2020.11.14 - 01.37.46.111.mp4</name>
								<duration>2189</duration>
								<rate>
									<ntsc>FALSE</ntsc>
									<timebase>60</timebase>
								</rate>
								<in>0</in>
								<out>2189</out>
								<start>24149</start>
								<end>26338</end>
								<pixelaspectratio>Square</pixelaspectratio>
								<anamorphic>FALSE</anamorphic>
								<alphatype>none</alphatype>
								<masterclipid>ArmA 3 2020.11.14 - 01.37.46.111.mp4</masterclipid>
								<logginginfo>
									<scene />
									<shottake />
									<lognote />
									<good>FALSE</good>
								</logginginfo>
								<labels>
									<label2 />
								</labels>
								<comments>
									<mastercomment1 />
									<mastercomment2 />
									<mastercomment3 />
									<mastercomment4 />
								</comments>
								<file id="ArmA 3 2020.11.14 - 01.37.46.111" />
								<filter>
									<effect>
										<name>Opacity</name>
										<effectid>opacity</effectid>
										<effectcategory>motion</effectcategory>
										<effecttype>motion</effecttype>
										<mediatype>video</mediatype>
										<parameter>
											<name>opacity</name>
											<parameterid>opacity</parameterid>
											<valuemin>0</valuemin>
											<valuemax>100</valuemax>
											<value>100</value>
										</parameter>
									</effect>
								</filter>
								<sourcetrack>
									<mediatype>video</mediatype>
								</sourcetrack>
								<link>
									<linkclipref>ArmA 3 2020.11.14 - 01.37.46.111.mp4805307691</linkclipref>
								</link>
								<link>
									<linkclipref>ArmA 3 2020.11.14 - 01.37.46.111.mp4536872236</linkclipref>
								</link>
								<link>
									<linkclipref>ArmA 3 2020.11.14 - 01.37.46.111.mp45368722361</linkclipref>
								</link>
								<link>
									<linkclipref>ArmA 3 2020.11.14 - 01.37.46.111.mp4536872237</linkclipref>
								</link>
								<link>
									<linkclipref>ArmA 3 2020.11.14 - 01.37.46.111.mp45368722371</linkclipref>
								</link>
								<fielddominance>none</fielddominance>
							</clipitem>
							<clipitem id="ArmA 3 2020.11.14 - 01.40.03.112.mp4805307694">
								<name>ArmA 3 2020.11.14 - 01.40.03.112.mp4</name>
								<duration>1199</duration>
								<rate>
									<ntsc>FALSE</ntsc>
									<timebase>60</timebase>
								</rate>
								<in>0</in>
								<out>1199</out>
								<start>26339</start>
								<end>27538</end>
								<pixelaspectratio>Square</pixelaspectratio>
								<anamorphic>FALSE</anamorphic>
								<alphatype>none</alphatype>
								<masterclipid>ArmA 3 2020.11.14 - 01.40.03.112.mp4</masterclipid>
								<logginginfo>
									<scene />
									<shottake />
									<lognote />
									<good>FALSE</good>
								</logginginfo>
								<labels>
									<label2 />
								</labels>
								<comments>
									<mastercomment1 />
									<mastercomment2 />
									<mastercomment3 />
									<mastercomment4 />
								</comments>
								<file id="ArmA 3 2020.11.14 - 01.40.03.112" />
								<filter>
									<effect>
										<name>Opacity</name>
										<effectid>opacity</effectid>
										<effectcategory>motion</effectcategory>
										<effecttype>motion</effecttype>
										<mediatype>video</mediatype>
										<parameter>
											<name>opacity</name>
											<parameterid>opacity</parameterid>
											<valuemin>0</valuemin>
											<valuemax>100</valuemax>
											<value>100</value>
										</parameter>
									</effect>
								</filter>
								<sourcetrack>
									<mediatype>video</mediatype>
								</sourcetrack>
								<link>
									<linkclipref>ArmA 3 2020.11.14 - 01.40.03.112.mp4805307694</linkclipref>
								</link>
								<link>
									<linkclipref>ArmA 3 2020.11.14 - 01.40.03.112.mp4536872239</linkclipref>
								</link>
								<link>
									<linkclipref>ArmA 3 2020.11.14 - 01.40.03.112.mp45368722391</linkclipref>
								</link>
								<link>
									<linkclipref>ArmA 3 2020.11.14 - 01.40.03.112.mp4536872240</linkclipref>
								</link>
								<link>
									<linkclipref>ArmA 3 2020.11.14 - 01.40.03.112.mp45368722401</linkclipref>
								</link>
								<fielddominance>none</fielddominance>
							</clipitem>
							<clipitem id="ArmA 3 2020.11.14 - 01.41.02.113.mp4805307697">
								<name>ArmA 3 2020.11.14 - 01.41.02.113.mp4</name>
								<duration>927</duration>
								<rate>
									<ntsc>FALSE</ntsc>
									<timebase>60</timebase>
								</rate>
								<in>0</in>
								<out>927</out>
								<start>27539</start>
								<end>28466</end>
								<pixelaspectratio>Square</pixelaspectratio>
								<anamorphic>FALSE</anamorphic>
								<alphatype>none</alphatype>
								<masterclipid>ArmA 3 2020.11.14 - 01.41.02.113.mp4</masterclipid>
								<logginginfo>
									<scene />
									<shottake />
									<lognote />
									<good>FALSE</good>
								</logginginfo>
								<labels>
									<label2 />
								</labels>
								<comments>
									<mastercomment1 />
									<mastercomment2 />
									<mastercomment3 />
									<mastercomment4 />
								</comments>
								<file id="ArmA 3 2020.11.14 - 01.41.02.113" />
								<filter>
									<effect>
										<name>Opacity</name>
										<effectid>opacity</effectid>
										<effectcategory>motion</effectcategory>
										<effecttype>motion</effecttype>
										<mediatype>video</mediatype>
										<parameter>
											<name>opacity</name>
											<parameterid>opacity</parameterid>
											<valuemin>0</valuemin>
											<valuemax>100</valuemax>
											<value>100</value>
										</parameter>
									</effect>
								</filter>
								<sourcetrack>
									<mediatype>video</mediatype>
								</sourcetrack>
								<link>
									<linkclipref>ArmA 3 2020.11.14 - 01.41.02.113.mp4805307697</linkclipref>
								</link>
								<link>
									<linkclipref>ArmA 3 2020.11.14 - 01.41.02.113.mp4536872242</linkclipref>
								</link>
								<link>
									<linkclipref>ArmA 3 2020.11.14 - 01.41.02.113.mp45368722421</linkclipref>
								</link>
								<link>
									<linkclipref>ArmA 3 2020.11.14 - 01.41.02.113.mp4536872243</linkclipref>
								</link>
								<link>
									<linkclipref>ArmA 3 2020.11.14 - 01.41.02.113.mp45368722431</linkclipref>
								</link>
								<fielddominance>none</fielddominance>
							</clipitem>
							<clipitem id="ArmA 3 2020.11.14 - 01.42.04.114.mp4805307700">
								<name>ArmA 3 2020.11.14 - 01.42.04.114.mp4</name>
								<duration>871</duration>
								<rate>
									<ntsc>FALSE</ntsc>
									<timebase>60</timebase>
								</rate>
								<in>0</in>
								<out>871</out>
								<start>28467</start>
								<end>29338</end>
								<pixelaspectratio>Square</pixelaspectratio>
								<anamorphic>FALSE</anamorphic>
								<alphatype>none</alphatype>
								<masterclipid>ArmA 3 2020.11.14 - 01.42.04.114.mp4</masterclipid>
								<logginginfo>
									<scene />
									<shottake />
									<lognote />
									<good>FALSE</good>
								</logginginfo>
								<labels>
									<label2 />
								</labels>
								<comments>
									<mastercomment1 />
									<mastercomment2 />
									<mastercomment3 />
									<mastercomment4 />
								</comments>
								<file id="ArmA 3 2020.11.14 - 01.42.04.114" />
								<filter>
									<effect>
										<name>Opacity</name>
										<effectid>opacity</effectid>
										<effectcategory>motion</effectcategory>
										<effecttype>motion</effecttype>
										<mediatype>video</mediatype>
										<parameter>
											<name>opacity</name>
											<parameterid>opacity</parameterid>
											<valuemin>0</valuemin>
											<valuemax>100</valuemax>
											<value>100</value>
										</parameter>
									</effect>
								</filter>
								<sourcetrack>
									<mediatype>video</mediatype>
								</sourcetrack>
								<link>
									<linkclipref>ArmA 3 2020.11.14 - 01.42.04.114.mp4805307700</linkclipref>
								</link>
								<link>
									<linkclipref>ArmA 3 2020.11.14 - 01.42.04.114.mp4536872245</linkclipref>
								</link>
								<link>
									<linkclipref>ArmA 3 2020.11.14 - 01.42.04.114.mp45368722451</linkclipref>
								</link>
								<link>
									<linkclipref>ArmA 3 2020.11.14 - 01.42.04.114.mp4536872246</linkclipref>
								</link>
								<link>
									<linkclipref>ArmA 3 2020.11.14 - 01.42.04.114.mp45368722461</linkclipref>
								</link>
								<fielddominance>none</fielddominance>
							</clipitem>
							<clipitem id="ArmA 3 2020.11.14 - 01.44.22.115.mp4805307703">
								<name>ArmA 3 2020.11.14 - 01.44.22.115.mp4</name>
								<duration>519</duration>
								<rate>
									<ntsc>FALSE</ntsc>
									<timebase>60</timebase>
								</rate>
								<in>0</in>
								<out>519</out>
								<start>29339</start>
								<end>29858</end>
								<pixelaspectratio>Square</pixelaspectratio>
								<anamorphic>FALSE</anamorphic>
								<alphatype>none</alphatype>
								<masterclipid>ArmA 3 2020.11.14 - 01.44.22.115.mp4</masterclipid>
								<logginginfo>
									<scene />
									<shottake />
									<lognote />
									<good>FALSE</good>
								</logginginfo>
								<labels>
									<label2 />
								</labels>
								<comments>
									<mastercomment1 />
									<mastercomment2 />
									<mastercomment3 />
									<mastercomment4 />
								</comments>
								<file id="ArmA 3 2020.11.14 - 01.44.22.115" />
								<filter>
									<effect>
										<name>Opacity</name>
										<effectid>opacity</effectid>
										<effectcategory>motion</effectcategory>
										<effecttype>motion</effecttype>
										<mediatype>video</mediatype>
										<parameter>
											<name>opacity</name>
											<parameterid>opacity</parameterid>
											<valuemin>0</valuemin>
											<valuemax>100</valuemax>
											<value>100</value>
										</parameter>
									</effect>
								</filter>
								<sourcetrack>
									<mediatype>video</mediatype>
								</sourcetrack>
								<link>
									<linkclipref>ArmA 3 2020.11.14 - 01.44.22.115.mp4805307703</linkclipref>
								</link>
								<link>
									<linkclipref>ArmA 3 2020.11.14 - 01.44.22.115.mp4536872248</linkclipref>
								</link>
								<link>
									<linkclipref>ArmA 3 2020.11.14 - 01.44.22.115.mp45368722481</linkclipref>
								</link>
								<link>
									<linkclipref>ArmA 3 2020.11.14 - 01.44.22.115.mp4536872249</linkclipref>
								</link>
								<link>
									<linkclipref>ArmA 3 2020.11.14 - 01.44.22.115.mp45368722491</linkclipref>
								</link>
								<fielddominance>none</fielddominance>
							</clipitem>
							<clipitem id="ArmA 3 2020.11.14 - 01.44.58.116.mp4805307706">
								<name>ArmA 3 2020.11.14 - 01.44.58.116.mp4</name>
								<duration>882</duration>
								<rate>
									<ntsc>FALSE</ntsc>
									<timebase>60</timebase>
								</rate>
								<in>0</in>
								<out>882</out>
								<start>29859</start>
								<end>30741</end>
								<pixelaspectratio>Square</pixelaspectratio>
								<anamorphic>FALSE</anamorphic>
								<alphatype>none</alphatype>
								<masterclipid>ArmA 3 2020.11.14 - 01.44.58.116.mp4</masterclipid>
								<logginginfo>
									<scene />
									<shottake />
									<lognote />
									<good>FALSE</good>
								</logginginfo>
								<labels>
									<label2 />
								</labels>
								<comments>
									<mastercomment1 />
									<mastercomment2 />
									<mastercomment3 />
									<mastercomment4 />
								</comments>
								<file id="ArmA 3 2020.11.14 - 01.44.58.116" />
								<filter>
									<effect>
										<name>Opacity</name>
										<effectid>opacity</effectid>
										<effectcategory>motion</effectcategory>
										<effecttype>motion</effecttype>
										<mediatype>video</mediatype>
										<parameter>
											<name>opacity</name>
											<parameterid>opacity</parameterid>
											<valuemin>0</valuemin>
											<valuemax>100</valuemax>
											<value>100</value>
										</parameter>
									</effect>
								</filter>
								<sourcetrack>
									<mediatype>video</mediatype>
								</sourcetrack>
								<link>
									<linkclipref>ArmA 3 2020.11.14 - 01.44.58.116.mp4805307706</linkclipref>
								</link>
								<link>
									<linkclipref>ArmA 3 2020.11.14 - 01.44.58.116.mp4536872251</linkclipref>
								</link>
								<link>
									<linkclipref>ArmA 3 2020.11.14 - 01.44.58.116.mp45368722511</linkclipref>
								</link>
								<link>
									<linkclipref>ArmA 3 2020.11.14 - 01.44.58.116.mp4536872252</linkclipref>
								</link>
								<link>
									<linkclipref>ArmA 3 2020.11.14 - 01.44.58.116.mp45368722521</linkclipref>
								</link>
								<fielddominance>none</fielddominance>
							</clipitem>
							<clipitem id="ArmA 3 2020.11.14 - 01.48.52.117.mp4805307709">
								<name>ArmA 3 2020.11.14 - 01.48.52.117.mp4</name>
								<duration>628</duration>
								<rate>
									<ntsc>FALSE</ntsc>
									<timebase>60</timebase>
								</rate>
								<in>0</in>
								<out>628</out>
								<start>30742</start>
								<end>31370</end>
								<pixelaspectratio>Square</pixelaspectratio>
								<anamorphic>FALSE</anamorphic>
								<alphatype>none</alphatype>
								<masterclipid>ArmA 3 2020.11.14 - 01.48.52.117.mp4</masterclipid>
								<logginginfo>
									<scene />
									<shottake />
									<lognote />
									<good>FALSE</good>
								</logginginfo>
								<labels>
									<label2 />
								</labels>
								<comments>
									<mastercomment1 />
									<mastercomment2 />
									<mastercomment3 />
									<mastercomment4 />
								</comments>
								<file id="ArmA 3 2020.11.14 - 01.48.52.117" />
								<filter>
									<effect>
										<name>Opacity</name>
										<effectid>opacity</effectid>
										<effectcategory>motion</effectcategory>
										<effecttype>motion</effecttype>
										<mediatype>video</mediatype>
										<parameter>
											<name>opacity</name>
											<parameterid>opacity</parameterid>
											<valuemin>0</valuemin>
											<valuemax>100</valuemax>
											<value>100</value>
										</parameter>
									</effect>
								</filter>
								<sourcetrack>
									<mediatype>video</mediatype>
								</sourcetrack>
								<link>
									<linkclipref>ArmA 3 2020.11.14 - 01.48.52.117.mp4805307709</linkclipref>
								</link>
								<link>
									<linkclipref>ArmA 3 2020.11.14 - 01.48.52.117.mp4536872254</linkclipref>
								</link>
								<link>
									<linkclipref>ArmA 3 2020.11.14 - 01.48.52.117.mp45368722541</linkclipref>
								</link>
								<link>
									<linkclipref>ArmA 3 2020.11.14 - 01.48.52.117.mp4536872255</linkclipref>
								</link>
								<link>
									<linkclipref>ArmA 3 2020.11.14 - 01.48.52.117.mp45368722551</linkclipref>
								</link>
								<fielddominance>none</fielddominance>
							</clipitem>
							<clipitem id="ArmA 3 2020.11.14 - 01.48.52.117.mp4805307712">
								<name>ArmA 3 2020.11.14 - 01.48.52.117.mp4</name>
								<duration>628</duration>
								<rate>
									<ntsc>FALSE</ntsc>
									<timebase>60</timebase>
								</rate>
								<in>0</in>
								<out>628</out>
								<start>31371</start>
								<end>31999</end>
								<pixelaspectratio>Square</pixelaspectratio>
								<anamorphic>FALSE</anamorphic>
								<alphatype>none</alphatype>
								<masterclipid>ArmA 3 2020.11.14 - 01.48.52.117.mp4</masterclipid>
								<logginginfo>
									<scene />
									<shottake />
									<lognote />
									<good>FALSE</good>
								</logginginfo>
								<labels>
									<label2 />
								</labels>
								<comments>
									<mastercomment1 />
									<mastercomment2 />
									<mastercomment3 />
									<mastercomment4 />
								</comments>
								<file id="ArmA 3 2020.11.14 - 01.48.52.117" />
								<filter>
									<effect>
										<name>Opacity</name>
										<effectid>opacity</effectid>
										<effectcategory>motion</effectcategory>
										<effecttype>motion</effecttype>
										<mediatype>video</mediatype>
										<parameter>
											<name>opacity</name>
											<parameterid>opacity</parameterid>
											<valuemin>0</valuemin>
											<valuemax>100</valuemax>
											<value>100</value>
										</parameter>
									</effect>
								</filter>
								<sourcetrack>
									<mediatype>video</mediatype>
								</sourcetrack>
								<link>
									<linkclipref>ArmA 3 2020.11.14 - 01.48.52.117.mp4805307712</linkclipref>
								</link>
								<link>
									<linkclipref>ArmA 3 2020.11.14 - 01.48.52.117.mp4536872257</linkclipref>
								</link>
								<link>
									<linkclipref>ArmA 3 2020.11.14 - 01.48.52.117.mp45368722571</linkclipref>
								</link>
								<link>
									<linkclipref>ArmA 3 2020.11.14 - 01.48.52.117.mp4536872258</linkclipref>
								</link>
								<link>
									<linkclipref>ArmA 3 2020.11.14 - 01.48.52.117.mp45368722581</linkclipref>
								</link>
								<fielddominance>none</fielddominance>
							</clipitem>
							<clipitem id="ArmA 3 2020.11.14 - 01.49.37.118.mp4805307715">
								<name>ArmA 3 2020.11.14 - 01.49.37.118.mp4</name>
								<duration>1699</duration>
								<rate>
									<ntsc>FALSE</ntsc>
									<timebase>60</timebase>
								</rate>
								<in>0</in>
								<out>1699</out>
								<start>32000</start>
								<end>33699</end>
								<pixelaspectratio>Square</pixelaspectratio>
								<anamorphic>FALSE</anamorphic>
								<alphatype>none</alphatype>
								<masterclipid>ArmA 3 2020.11.14 - 01.49.37.118.mp4</masterclipid>
								<logginginfo>
									<scene />
									<shottake />
									<lognote />
									<good>FALSE</good>
								</logginginfo>
								<labels>
									<label2 />
								</labels>
								<comments>
									<mastercomment1 />
									<mastercomment2 />
									<mastercomment3 />
									<mastercomment4 />
								</comments>
								<file id="ArmA 3 2020.11.14 - 01.49.37.118" />
								<filter>
									<effect>
										<name>Opacity</name>
										<effectid>opacity</effectid>
										<effectcategory>motion</effectcategory>
										<effecttype>motion</effecttype>
										<mediatype>video</mediatype>
										<parameter>
											<name>opacity</name>
											<parameterid>opacity</parameterid>
											<valuemin>0</valuemin>
											<valuemax>100</valuemax>
											<value>100</value>
										</parameter>
									</effect>
								</filter>
								<sourcetrack>
									<mediatype>video</mediatype>
								</sourcetrack>
								<link>
									<linkclipref>ArmA 3 2020.11.14 - 01.49.37.118.mp4805307715</linkclipref>
								</link>
								<link>
									<linkclipref>ArmA 3 2020.11.14 - 01.49.37.118.mp4536872260</linkclipref>
								</link>
								<link>
									<linkclipref>ArmA 3 2020.11.14 - 01.49.37.118.mp45368722601</linkclipref>
								</link>
								<link>
									<linkclipref>ArmA 3 2020.11.14 - 01.49.37.118.mp4536872261</linkclipref>
								</link>
								<link>
									<linkclipref>ArmA 3 2020.11.14 - 01.49.37.118.mp45368722611</linkclipref>
								</link>
								<fielddominance>none</fielddominance>
							</clipitem>
							<clipitem id="ArmA 3 2020.11.14 - 01.54.33.119.mp4805307718">
								<name>ArmA 3 2020.11.14 - 01.54.33.119.mp4</name>
								<duration>772</duration>
								<rate>
									<ntsc>FALSE</ntsc>
									<timebase>60</timebase>
								</rate>
								<in>0</in>
								<out>772</out>
								<start>33700</start>
								<end>34472</end>
								<pixelaspectratio>Square</pixelaspectratio>
								<anamorphic>FALSE</anamorphic>
								<alphatype>none</alphatype>
								<masterclipid>ArmA 3 2020.11.14 - 01.54.33.119.mp4</masterclipid>
								<logginginfo>
									<scene />
									<shottake />
									<lognote />
									<good>FALSE</good>
								</logginginfo>
								<labels>
									<label2 />
								</labels>
								<comments>
									<mastercomment1 />
									<mastercomment2 />
									<mastercomment3 />
									<mastercomment4 />
								</comments>
								<file id="ArmA 3 2020.11.14 - 01.54.33.119" />
								<filter>
									<effect>
										<name>Opacity</name>
										<effectid>opacity</effectid>
										<effectcategory>motion</effectcategory>
										<effecttype>motion</effecttype>
										<mediatype>video</mediatype>
										<parameter>
											<name>opacity</name>
											<parameterid>opacity</parameterid>
											<valuemin>0</valuemin>
											<valuemax>100</valuemax>
											<value>100</value>
										</parameter>
									</effect>
								</filter>
								<sourcetrack>
									<mediatype>video</mediatype>
								</sourcetrack>
								<link>
									<linkclipref>ArmA 3 2020.11.14 - 01.54.33.119.mp4805307718</linkclipref>
								</link>
								<link>
									<linkclipref>ArmA 3 2020.11.14 - 01.54.33.119.mp4536872263</linkclipref>
								</link>
								<link>
									<linkclipref>ArmA 3 2020.11.14 - 01.54.33.119.mp45368722631</linkclipref>
								</link>
								<link>
									<linkclipref>ArmA 3 2020.11.14 - 01.54.33.119.mp4536872264</linkclipref>
								</link>
								<link>
									<linkclipref>ArmA 3 2020.11.14 - 01.54.33.119.mp45368722641</linkclipref>
								</link>
								<fielddominance>none</fielddominance>
							</clipitem>
							<clipitem id="ArmA 3 2020.11.14 - 01.56.32.120.mp4805307721">
								<name>ArmA 3 2020.11.14 - 01.56.32.120.mp4</name>
								<duration>1087</duration>
								<rate>
									<ntsc>FALSE</ntsc>
									<timebase>60</timebase>
								</rate>
								<in>0</in>
								<out>1087</out>
								<start>34473</start>
								<end>35560</end>
								<pixelaspectratio>Square</pixelaspectratio>
								<anamorphic>FALSE</anamorphic>
								<alphatype>none</alphatype>
								<masterclipid>ArmA 3 2020.11.14 - 01.56.32.120.mp4</masterclipid>
								<logginginfo>
									<scene />
									<shottake />
									<lognote />
									<good>FALSE</good>
								</logginginfo>
								<labels>
									<label2 />
								</labels>
								<comments>
									<mastercomment1 />
									<mastercomment2 />
									<mastercomment3 />
									<mastercomment4 />
								</comments>
								<file id="ArmA 3 2020.11.14 - 01.56.32.120" />
								<filter>
									<effect>
										<name>Opacity</name>
										<effectid>opacity</effectid>
										<effectcategory>motion</effectcategory>
										<effecttype>motion</effecttype>
										<mediatype>video</mediatype>
										<parameter>
											<name>opacity</name>
											<parameterid>opacity</parameterid>
											<valuemin>0</valuemin>
											<valuemax>100</valuemax>
											<value>100</value>
										</parameter>
									</effect>
								</filter>
								<sourcetrack>
									<mediatype>video</mediatype>
								</sourcetrack>
								<link>
									<linkclipref>ArmA 3 2020.11.14 - 01.56.32.120.mp4805307721</linkclipref>
								</link>
								<link>
									<linkclipref>ArmA 3 2020.11.14 - 01.56.32.120.mp4536872266</linkclipref>
								</link>
								<link>
									<linkclipref>ArmA 3 2020.11.14 - 01.56.32.120.mp45368722661</linkclipref>
								</link>
								<link>
									<linkclipref>ArmA 3 2020.11.14 - 01.56.32.120.mp4536872267</linkclipref>
								</link>
								<link>
									<linkclipref>ArmA 3 2020.11.14 - 01.56.32.120.mp45368722671</linkclipref>
								</link>
								<fielddominance>none</fielddominance>
							</clipitem>
							<clipitem id="ArmA 3 2020.11.14 - 01.57.19.121.mp4805307724">
								<name>ArmA 3 2020.11.14 - 01.57.19.121.mp4</name>
								<duration>263</duration>
								<rate>
									<ntsc>FALSE</ntsc>
									<timebase>60</timebase>
								</rate>
								<in>0</in>
								<out>263</out>
								<start>35561</start>
								<end>35824</end>
								<pixelaspectratio>Square</pixelaspectratio>
								<anamorphic>FALSE</anamorphic>
								<alphatype>none</alphatype>
								<masterclipid>ArmA 3 2020.11.14 - 01.57.19.121.mp4</masterclipid>
								<logginginfo>
									<scene />
									<shottake />
									<lognote />
									<good>FALSE</good>
								</logginginfo>
								<labels>
									<label2 />
								</labels>
								<comments>
									<mastercomment1 />
									<mastercomment2 />
									<mastercomment3 />
									<mastercomment4 />
								</comments>
								<file id="ArmA 3 2020.11.14 - 01.57.19.121" />
								<filter>
									<effect>
										<name>Opacity</name>
										<effectid>opacity</effectid>
										<effectcategory>motion</effectcategory>
										<effecttype>motion</effecttype>
										<mediatype>video</mediatype>
										<parameter>
											<name>opacity</name>
											<parameterid>opacity</parameterid>
											<valuemin>0</valuemin>
											<valuemax>100</valuemax>
											<value>100</value>
										</parameter>
									</effect>
								</filter>
								<sourcetrack>
									<mediatype>video</mediatype>
								</sourcetrack>
								<link>
									<linkclipref>ArmA 3 2020.11.14 - 01.57.19.121.mp4805307724</linkclipref>
								</link>
								<link>
									<linkclipref>ArmA 3 2020.11.14 - 01.57.19.121.mp4536872269</linkclipref>
								</link>
								<link>
									<linkclipref>ArmA 3 2020.11.14 - 01.57.19.121.mp45368722691</linkclipref>
								</link>
								<link>
									<linkclipref>ArmA 3 2020.11.14 - 01.57.19.121.mp4536872270</linkclipref>
								</link>
								<link>
									<linkclipref>ArmA 3 2020.11.14 - 01.57.19.121.mp45368722701</linkclipref>
								</link>
								<fielddominance>none</fielddominance>
							</clipitem>
							<clipitem id="ArmA 3 2020.11.14 - 01.58.13.122.mp4805307727">
								<name>ArmA 3 2020.11.14 - 01.58.13.122.mp4</name>
								<duration>562</duration>
								<rate>
									<ntsc>FALSE</ntsc>
									<timebase>60</timebase>
								</rate>
								<in>0</in>
								<out>562</out>
								<start>35825</start>
								<end>36387</end>
								<pixelaspectratio>Square</pixelaspectratio>
								<anamorphic>FALSE</anamorphic>
								<alphatype>none</alphatype>
								<masterclipid>ArmA 3 2020.11.14 - 01.58.13.122.mp4</masterclipid>
								<logginginfo>
									<scene />
									<shottake />
									<lognote />
									<good>FALSE</good>
								</logginginfo>
								<labels>
									<label2 />
								</labels>
								<comments>
									<mastercomment1 />
									<mastercomment2 />
									<mastercomment3 />
									<mastercomment4 />
								</comments>
								<file id="ArmA 3 2020.11.14 - 01.58.13.122" />
								<filter>
									<effect>
										<name>Opacity</name>
										<effectid>opacity</effectid>
										<effectcategory>motion</effectcategory>
										<effecttype>motion</effecttype>
										<mediatype>video</mediatype>
										<parameter>
											<name>opacity</name>
											<parameterid>opacity</parameterid>
											<valuemin>0</valuemin>
											<valuemax>100</valuemax>
											<value>100</value>
										</parameter>
									</effect>
								</filter>
								<sourcetrack>
									<mediatype>video</mediatype>
								</sourcetrack>
								<link>
									<linkclipref>ArmA 3 2020.11.14 - 01.58.13.122.mp4805307727</linkclipref>
								</link>
								<link>
									<linkclipref>ArmA 3 2020.11.14 - 01.58.13.122.mp4536872272</linkclipref>
								</link>
								<link>
									<linkclipref>ArmA 3 2020.11.14 - 01.58.13.122.mp45368722721</linkclipref>
								</link>
								<link>
									<linkclipref>ArmA 3 2020.11.14 - 01.58.13.122.mp4536872273</linkclipref>
								</link>
								<link>
									<linkclipref>ArmA 3 2020.11.14 - 01.58.13.122.mp45368722731</linkclipref>
								</link>
								<fielddominance>none</fielddominance>
							</clipitem>
						</track>
					</video>
					<audio>
						<track>
							<clipitem id="ArmA 3 2020.11.14 - 00.58.28.78.mp4536872138">
								<name>ArmA 3 2020.11.14 - 00.58.28.78.mp4</name>
								<duration>529</duration>
								<rate>
									<ntsc>TRUE</ntsc>
									<timebase>24</timebase>
								</rate>
								<in>0</in>
								<out>529</out>
								<start>0</start>
								<end>529</end>
								<masterclipid>ArmA 3 2020.11.14 - 00.58.28.78.mp4</masterclipid>
								<logginginfo>
									<scene />
									<shottake />
									<lognote />
									<good>FALSE</good>
								</logginginfo>
								<labels>
									<label2 />
								</labels>
								<comments>
									<mastercomment1 />
									<mastercomment2 />
									<mastercomment3 />
									<mastercomment4 />
								</comments>
								<file id="ArmA 3 2020.11.14 - 00.58.28.78" />
								<filter>
									<effect>
										<name>Audio Levels</name>
										<effectid>audiolevels</effectid>
										<effectcategory>audiolevels</effectcategory>
										<effecttype>audiolevels</effecttype>
										<mediatype>audio</mediatype>
										<parameter>
											<name>Level</name>
											<parameterid>level</parameterid>
											<valuemin>0</valuemin>
											<valuemax>3,98109</valuemax>
											<value>1</value>
										</parameter>
									</effect>
								</filter>
								<filter>
									<effect>
										<name>Audio Pan</name>
										<effectid>audiopan</effectid>
										<effectcategory>audiopan</effectcategory>
										<effecttype>audiopan</effecttype>
										<mediatype>audio</mediatype>
										<parameter>
											<name>Pan</name>
											<parameterid>pan</parameterid>
											<valuemin>-1</valuemin>
											<valuemax>1</valuemax>
											<value>-1</value>
										</parameter>
									</effect>
								</filter>
								<sourcetrack>
									<mediatype>audio</mediatype>
									<trackindex>1</trackindex>
								</sourcetrack>
								<link>
									<linkclipref>ArmA 3 2020.11.14 - 00.58.28.78.mp4805307592</linkclipref>
								</link>
								<link>
									<linkclipref>ArmA 3 2020.11.14 - 00.58.28.78.mp4536872137</linkclipref>
								</link>
								<link>
									<linkclipref>ArmA 3 2020.11.14 - 00.58.28.78.mp45368721371</linkclipref>
								</link>
								<link>
									<linkclipref>ArmA 3 2020.11.14 - 00.58.28.78.mp4536872138</linkclipref>
								</link>
								<link>
									<linkclipref>ArmA 3 2020.11.14 - 00.58.28.78.mp45368721381</linkclipref>
								</link>
							</clipitem>
							<clipitem id="ArmA 3 2020.11.14 - 00.59.31.79.mp4536872141">
								<name>ArmA 3 2020.11.14 - 00.59.31.79.mp4</name>
								<duration>605</duration>
								<rate>
									<ntsc>TRUE</ntsc>
									<timebase>24</timebase>
								</rate>
								<in>0</in>
								<out>605</out>
								<start>530</start>
								<end>1135</end>
								<masterclipid>ArmA 3 2020.11.14 - 00.59.31.79.mp4</masterclipid>
								<logginginfo>
									<scene />
									<shottake />
									<lognote />
									<good>FALSE</good>
								</logginginfo>
								<labels>
									<label2 />
								</labels>
								<comments>
									<mastercomment1 />
									<mastercomment2 />
									<mastercomment3 />
									<mastercomment4 />
								</comments>
								<file id="ArmA 3 2020.11.14 - 00.59.31.79" />
								<filter>
									<effect>
										<name>Audio Levels</name>
										<effectid>audiolevels</effectid>
										<effectcategory>audiolevels</effectcategory>
										<effecttype>audiolevels</effecttype>
										<mediatype>audio</mediatype>
										<parameter>
											<name>Level</name>
											<parameterid>level</parameterid>
											<valuemin>0</valuemin>
											<valuemax>3,98109</valuemax>
											<value>1</value>
										</parameter>
									</effect>
								</filter>
								<filter>
									<effect>
										<name>Audio Pan</name>
										<effectid>audiopan</effectid>
										<effectcategory>audiopan</effectcategory>
										<effecttype>audiopan</effecttype>
										<mediatype>audio</mediatype>
										<parameter>
											<name>Pan</name>
											<parameterid>pan</parameterid>
											<valuemin>-1</valuemin>
											<valuemax>1</valuemax>
											<value>-1</value>
										</parameter>
									</effect>
								</filter>
								<sourcetrack>
									<mediatype>audio</mediatype>
									<trackindex>1</trackindex>
								</sourcetrack>
								<link>
									<linkclipref>ArmA 3 2020.11.14 - 00.59.31.79.mp4805307595</linkclipref>
								</link>
								<link>
									<linkclipref>ArmA 3 2020.11.14 - 00.59.31.79.mp4536872140</linkclipref>
								</link>
								<link>
									<linkclipref>ArmA 3 2020.11.14 - 00.59.31.79.mp45368721401</linkclipref>
								</link>
								<link>
									<linkclipref>ArmA 3 2020.11.14 - 00.59.31.79.mp4536872141</linkclipref>
								</link>
								<link>
									<linkclipref>ArmA 3 2020.11.14 - 00.59.31.79.mp45368721411</linkclipref>
								</link>
							</clipitem>
							<clipitem id="ArmA 3 2020.11.14 - 01.00.07.80.mp4536872144">
								<name>ArmA 3 2020.11.14 - 01.00.07.80.mp4</name>
								<duration>666</duration>
								<rate>
									<ntsc>TRUE</ntsc>
									<timebase>24</timebase>
								</rate>
								<in>0</in>
								<out>666</out>
								<start>1136</start>
								<end>1802</end>
								<masterclipid>ArmA 3 2020.11.14 - 01.00.07.80.mp4</masterclipid>
								<logginginfo>
									<scene />
									<shottake />
									<lognote />
									<good>FALSE</good>
								</logginginfo>
								<labels>
									<label2 />
								</labels>
								<comments>
									<mastercomment1 />
									<mastercomment2 />
									<mastercomment3 />
									<mastercomment4 />
								</comments>
								<file id="ArmA 3 2020.11.14 - 01.00.07.80" />
								<filter>
									<effect>
										<name>Audio Levels</name>
										<effectid>audiolevels</effectid>
										<effectcategory>audiolevels</effectcategory>
										<effecttype>audiolevels</effecttype>
										<mediatype>audio</mediatype>
										<parameter>
											<name>Level</name>
											<parameterid>level</parameterid>
											<valuemin>0</valuemin>
											<valuemax>3,98109</valuemax>
											<value>1</value>
										</parameter>
									</effect>
								</filter>
								<filter>
									<effect>
										<name>Audio Pan</name>
										<effectid>audiopan</effectid>
										<effectcategory>audiopan</effectcategory>
										<effecttype>audiopan</effecttype>
										<mediatype>audio</mediatype>
										<parameter>
											<name>Pan</name>
											<parameterid>pan</parameterid>
											<valuemin>-1</valuemin>
											<valuemax>1</valuemax>
											<value>-1</value>
										</parameter>
									</effect>
								</filter>
								<sourcetrack>
									<mediatype>audio</mediatype>
									<trackindex>1</trackindex>
								</sourcetrack>
								<link>
									<linkclipref>ArmA 3 2020.11.14 - 01.00.07.80.mp4805307598</linkclipref>
								</link>
								<link>
									<linkclipref>ArmA 3 2020.11.14 - 01.00.07.80.mp4536872143</linkclipref>
								</link>
								<link>
									<linkclipref>ArmA 3 2020.11.14 - 01.00.07.80.mp45368721431</linkclipref>
								</link>
								<link>
									<linkclipref>ArmA 3 2020.11.14 - 01.00.07.80.mp4536872144</linkclipref>
								</link>
								<link>
									<linkclipref>ArmA 3 2020.11.14 - 01.00.07.80.mp45368721441</linkclipref>
								</link>
							</clipitem>
							<clipitem id="ArmA 3 2020.11.14 - 01.01.23.81.mp4536872147">
								<name>ArmA 3 2020.11.14 - 01.01.23.81.mp4</name>
								<duration>1004</duration>
								<rate>
									<ntsc>TRUE</ntsc>
									<timebase>24</timebase>
								</rate>
								<in>0</in>
								<out>1004</out>
								<start>1803</start>
								<end>2807</end>
								<masterclipid>ArmA 3 2020.11.14 - 01.01.23.81.mp4</masterclipid>
								<logginginfo>
									<scene />
									<shottake />
									<lognote />
									<good>FALSE</good>
								</logginginfo>
								<labels>
									<label2 />
								</labels>
								<comments>
									<mastercomment1 />
									<mastercomment2 />
									<mastercomment3 />
									<mastercomment4 />
								</comments>
								<file id="ArmA 3 2020.11.14 - 01.01.23.81" />
								<filter>
									<effect>
										<name>Audio Levels</name>
										<effectid>audiolevels</effectid>
										<effectcategory>audiolevels</effectcategory>
										<effecttype>audiolevels</effecttype>
										<mediatype>audio</mediatype>
										<parameter>
											<name>Level</name>
											<parameterid>level</parameterid>
											<valuemin>0</valuemin>
											<valuemax>3,98109</valuemax>
											<value>1</value>
										</parameter>
									</effect>
								</filter>
								<filter>
									<effect>
										<name>Audio Pan</name>
										<effectid>audiopan</effectid>
										<effectcategory>audiopan</effectcategory>
										<effecttype>audiopan</effecttype>
										<mediatype>audio</mediatype>
										<parameter>
											<name>Pan</name>
											<parameterid>pan</parameterid>
											<valuemin>-1</valuemin>
											<valuemax>1</valuemax>
											<value>-1</value>
										</parameter>
									</effect>
								</filter>
								<sourcetrack>
									<mediatype>audio</mediatype>
									<trackindex>1</trackindex>
								</sourcetrack>
								<link>
									<linkclipref>ArmA 3 2020.11.14 - 01.01.23.81.mp4805307601</linkclipref>
								</link>
								<link>
									<linkclipref>ArmA 3 2020.11.14 - 01.01.23.81.mp4536872146</linkclipref>
								</link>
								<link>
									<linkclipref>ArmA 3 2020.11.14 - 01.01.23.81.mp45368721461</linkclipref>
								</link>
								<link>
									<linkclipref>ArmA 3 2020.11.14 - 01.01.23.81.mp4536872147</linkclipref>
								</link>
								<link>
									<linkclipref>ArmA 3 2020.11.14 - 01.01.23.81.mp45368721471</linkclipref>
								</link>
							</clipitem>
							<clipitem id="ArmA 3 2020.11.14 - 01.02.36.82.mp4536872150">
								<name>ArmA 3 2020.11.14 - 01.02.36.82.mp4</name>
								<duration>447</duration>
								<rate>
									<ntsc>TRUE</ntsc>
									<timebase>24</timebase>
								</rate>
								<in>0</in>
								<out>447</out>
								<start>2808</start>
								<end>3255</end>
								<masterclipid>ArmA 3 2020.11.14 - 01.02.36.82.mp4</masterclipid>
								<logginginfo>
									<scene />
									<shottake />
									<lognote />
									<good>FALSE</good>
								</logginginfo>
								<labels>
									<label2 />
								</labels>
								<comments>
									<mastercomment1 />
									<mastercomment2 />
									<mastercomment3 />
									<mastercomment4 />
								</comments>
								<file id="ArmA 3 2020.11.14 - 01.02.36.82" />
								<filter>
									<effect>
										<name>Audio Levels</name>
										<effectid>audiolevels</effectid>
										<effectcategory>audiolevels</effectcategory>
										<effecttype>audiolevels</effecttype>
										<mediatype>audio</mediatype>
										<parameter>
											<name>Level</name>
											<parameterid>level</parameterid>
											<valuemin>0</valuemin>
											<valuemax>3,98109</valuemax>
											<value>1</value>
										</parameter>
									</effect>
								</filter>
								<filter>
									<effect>
										<name>Audio Pan</name>
										<effectid>audiopan</effectid>
										<effectcategory>audiopan</effectcategory>
										<effecttype>audiopan</effecttype>
										<mediatype>audio</mediatype>
										<parameter>
											<name>Pan</name>
											<parameterid>pan</parameterid>
											<valuemin>-1</valuemin>
											<valuemax>1</valuemax>
											<value>-1</value>
										</parameter>
									</effect>
								</filter>
								<sourcetrack>
									<mediatype>audio</mediatype>
									<trackindex>1</trackindex>
								</sourcetrack>
								<link>
									<linkclipref>ArmA 3 2020.11.14 - 01.02.36.82.mp4805307604</linkclipref>
								</link>
								<link>
									<linkclipref>ArmA 3 2020.11.14 - 01.02.36.82.mp4536872149</linkclipref>
								</link>
								<link>
									<linkclipref>ArmA 3 2020.11.14 - 01.02.36.82.mp45368721491</linkclipref>
								</link>
								<link>
									<linkclipref>ArmA 3 2020.11.14 - 01.02.36.82.mp4536872150</linkclipref>
								</link>
								<link>
									<linkclipref>ArmA 3 2020.11.14 - 01.02.36.82.mp45368721501</linkclipref>
								</link>
							</clipitem>
							<clipitem id="ArmA 3 2020.11.14 - 01.03.14.83.mp4536872153">
								<name>ArmA 3 2020.11.14 - 01.03.14.83.mp4</name>
								<duration>404</duration>
								<rate>
									<ntsc>TRUE</ntsc>
									<timebase>24</timebase>
								</rate>
								<in>0</in>
								<out>404</out>
								<start>3256</start>
								<end>3660</end>
								<masterclipid>ArmA 3 2020.11.14 - 01.03.14.83.mp4</masterclipid>
								<logginginfo>
									<scene />
									<shottake />
									<lognote />
									<good>FALSE</good>
								</logginginfo>
								<labels>
									<label2 />
								</labels>
								<comments>
									<mastercomment1 />
									<mastercomment2 />
									<mastercomment3 />
									<mastercomment4 />
								</comments>
								<file id="ArmA 3 2020.11.14 - 01.03.14.83" />
								<filter>
									<effect>
										<name>Audio Levels</name>
										<effectid>audiolevels</effectid>
										<effectcategory>audiolevels</effectcategory>
										<effecttype>audiolevels</effecttype>
										<mediatype>audio</mediatype>
										<parameter>
											<name>Level</name>
											<parameterid>level</parameterid>
											<valuemin>0</valuemin>
											<valuemax>3,98109</valuemax>
											<value>1</value>
										</parameter>
									</effect>
								</filter>
								<filter>
									<effect>
										<name>Audio Pan</name>
										<effectid>audiopan</effectid>
										<effectcategory>audiopan</effectcategory>
										<effecttype>audiopan</effecttype>
										<mediatype>audio</mediatype>
										<parameter>
											<name>Pan</name>
											<parameterid>pan</parameterid>
											<valuemin>-1</valuemin>
											<valuemax>1</valuemax>
											<value>-1</value>
										</parameter>
									</effect>
								</filter>
								<sourcetrack>
									<mediatype>audio</mediatype>
									<trackindex>1</trackindex>
								</sourcetrack>
								<link>
									<linkclipref>ArmA 3 2020.11.14 - 01.03.14.83.mp4805307607</linkclipref>
								</link>
								<link>
									<linkclipref>ArmA 3 2020.11.14 - 01.03.14.83.mp4536872152</linkclipref>
								</link>
								<link>
									<linkclipref>ArmA 3 2020.11.14 - 01.03.14.83.mp45368721521</linkclipref>
								</link>
								<link>
									<linkclipref>ArmA 3 2020.11.14 - 01.03.14.83.mp4536872153</linkclipref>
								</link>
								<link>
									<linkclipref>ArmA 3 2020.11.14 - 01.03.14.83.mp45368721531</linkclipref>
								</link>
							</clipitem>
							<clipitem id="ArmA 3 2020.11.14 - 01.03.51.84.mp4536872156">
								<name>ArmA 3 2020.11.14 - 01.03.51.84.mp4</name>
								<duration>421</duration>
								<rate>
									<ntsc>TRUE</ntsc>
									<timebase>24</timebase>
								</rate>
								<in>0</in>
								<out>421</out>
								<start>3661</start>
								<end>4082</end>
								<masterclipid>ArmA 3 2020.11.14 - 01.03.51.84.mp4</masterclipid>
								<logginginfo>
									<scene />
									<shottake />
									<lognote />
									<good>FALSE</good>
								</logginginfo>
								<labels>
									<label2 />
								</labels>
								<comments>
									<mastercomment1 />
									<mastercomment2 />
									<mastercomment3 />
									<mastercomment4 />
								</comments>
								<file id="ArmA 3 2020.11.14 - 01.03.51.84" />
								<filter>
									<effect>
										<name>Audio Levels</name>
										<effectid>audiolevels</effectid>
										<effectcategory>audiolevels</effectcategory>
										<effecttype>audiolevels</effecttype>
										<mediatype>audio</mediatype>
										<parameter>
											<name>Level</name>
											<parameterid>level</parameterid>
											<valuemin>0</valuemin>
											<valuemax>3,98109</valuemax>
											<value>1</value>
										</parameter>
									</effect>
								</filter>
								<filter>
									<effect>
										<name>Audio Pan</name>
										<effectid>audiopan</effectid>
										<effectcategory>audiopan</effectcategory>
										<effecttype>audiopan</effecttype>
										<mediatype>audio</mediatype>
										<parameter>
											<name>Pan</name>
											<parameterid>pan</parameterid>
											<valuemin>-1</valuemin>
											<valuemax>1</valuemax>
											<value>-1</value>
										</parameter>
									</effect>
								</filter>
								<sourcetrack>
									<mediatype>audio</mediatype>
									<trackindex>1</trackindex>
								</sourcetrack>
								<link>
									<linkclipref>ArmA 3 2020.11.14 - 01.03.51.84.mp4805307610</linkclipref>
								</link>
								<link>
									<linkclipref>ArmA 3 2020.11.14 - 01.03.51.84.mp4536872155</linkclipref>
								</link>
								<link>
									<linkclipref>ArmA 3 2020.11.14 - 01.03.51.84.mp45368721551</linkclipref>
								</link>
								<link>
									<linkclipref>ArmA 3 2020.11.14 - 01.03.51.84.mp4536872156</linkclipref>
								</link>
								<link>
									<linkclipref>ArmA 3 2020.11.14 - 01.03.51.84.mp45368721561</linkclipref>
								</link>
							</clipitem>
							<clipitem id="ArmA 3 2020.11.14 - 01.04.31.85.mp4536872159">
								<name>ArmA 3 2020.11.14 - 01.04.31.85.mp4</name>
								<duration>1222</duration>
								<rate>
									<ntsc>TRUE</ntsc>
									<timebase>24</timebase>
								</rate>
								<in>0</in>
								<out>1222</out>
								<start>4083</start>
								<end>5305</end>
								<masterclipid>ArmA 3 2020.11.14 - 01.04.31.85.mp4</masterclipid>
								<logginginfo>
									<scene />
									<shottake />
									<lognote />
									<good>FALSE</good>
								</logginginfo>
								<labels>
									<label2 />
								</labels>
								<comments>
									<mastercomment1 />
									<mastercomment2 />
									<mastercomment3 />
									<mastercomment4 />
								</comments>
								<file id="ArmA 3 2020.11.14 - 01.04.31.85" />
								<filter>
									<effect>
										<name>Audio Levels</name>
										<effectid>audiolevels</effectid>
										<effectcategory>audiolevels</effectcategory>
										<effecttype>audiolevels</effecttype>
										<mediatype>audio</mediatype>
										<parameter>
											<name>Level</name>
											<parameterid>level</parameterid>
											<valuemin>0</valuemin>
											<valuemax>3,98109</valuemax>
											<value>1</value>
										</parameter>
									</effect>
								</filter>
								<filter>
									<effect>
										<name>Audio Pan</name>
										<effectid>audiopan</effectid>
										<effectcategory>audiopan</effectcategory>
										<effecttype>audiopan</effecttype>
										<mediatype>audio</mediatype>
										<parameter>
											<name>Pan</name>
											<parameterid>pan</parameterid>
											<valuemin>-1</valuemin>
											<valuemax>1</valuemax>
											<value>-1</value>
										</parameter>
									</effect>
								</filter>
								<sourcetrack>
									<mediatype>audio</mediatype>
									<trackindex>1</trackindex>
								</sourcetrack>
								<link>
									<linkclipref>ArmA 3 2020.11.14 - 01.04.31.85.mp4805307613</linkclipref>
								</link>
								<link>
									<linkclipref>ArmA 3 2020.11.14 - 01.04.31.85.mp4536872158</linkclipref>
								</link>
								<link>
									<linkclipref>ArmA 3 2020.11.14 - 01.04.31.85.mp45368721581</linkclipref>
								</link>
								<link>
									<linkclipref>ArmA 3 2020.11.14 - 01.04.31.85.mp4536872159</linkclipref>
								</link>
								<link>
									<linkclipref>ArmA 3 2020.11.14 - 01.04.31.85.mp45368721591</linkclipref>
								</link>
							</clipitem>
							<clipitem id="ArmA 3 2020.11.14 - 01.05.31.86.mp4536872162">
								<name>ArmA 3 2020.11.14 - 01.05.31.86.mp4</name>
								<duration>122</duration>
								<rate>
									<ntsc>TRUE</ntsc>
									<timebase>24</timebase>
								</rate>
								<in>0</in>
								<out>122</out>
								<start>5306</start>
								<end>5428</end>
								<masterclipid>ArmA 3 2020.11.14 - 01.05.31.86.mp4</masterclipid>
								<logginginfo>
									<scene />
									<shottake />
									<lognote />
									<good>FALSE</good>
								</logginginfo>
								<labels>
									<label2 />
								</labels>
								<comments>
									<mastercomment1 />
									<mastercomment2 />
									<mastercomment3 />
									<mastercomment4 />
								</comments>
								<file id="ArmA 3 2020.11.14 - 01.05.31.86" />
								<filter>
									<effect>
										<name>Audio Levels</name>
										<effectid>audiolevels</effectid>
										<effectcategory>audiolevels</effectcategory>
										<effecttype>audiolevels</effecttype>
										<mediatype>audio</mediatype>
										<parameter>
											<name>Level</name>
											<parameterid>level</parameterid>
											<valuemin>0</valuemin>
											<valuemax>3,98109</valuemax>
											<value>1</value>
										</parameter>
									</effect>
								</filter>
								<filter>
									<effect>
										<name>Audio Pan</name>
										<effectid>audiopan</effectid>
										<effectcategory>audiopan</effectcategory>
										<effecttype>audiopan</effecttype>
										<mediatype>audio</mediatype>
										<parameter>
											<name>Pan</name>
											<parameterid>pan</parameterid>
											<valuemin>-1</valuemin>
											<valuemax>1</valuemax>
											<value>-1</value>
										</parameter>
									</effect>
								</filter>
								<sourcetrack>
									<mediatype>audio</mediatype>
									<trackindex>1</trackindex>
								</sourcetrack>
								<link>
									<linkclipref>ArmA 3 2020.11.14 - 01.05.31.86.mp4805307616</linkclipref>
								</link>
								<link>
									<linkclipref>ArmA 3 2020.11.14 - 01.05.31.86.mp4536872161</linkclipref>
								</link>
								<link>
									<linkclipref>ArmA 3 2020.11.14 - 01.05.31.86.mp45368721611</linkclipref>
								</link>
								<link>
									<linkclipref>ArmA 3 2020.11.14 - 01.05.31.86.mp4536872162</linkclipref>
								</link>
								<link>
									<linkclipref>ArmA 3 2020.11.14 - 01.05.31.86.mp45368721621</linkclipref>
								</link>
							</clipitem>
							<clipitem id="ArmA 3 2020.11.14 - 01.05.58.87.mp4536872165">
								<name>ArmA 3 2020.11.14 - 01.05.58.87.mp4</name>
								<duration>538</duration>
								<rate>
									<ntsc>TRUE</ntsc>
									<timebase>24</timebase>
								</rate>
								<in>0</in>
								<out>538</out>
								<start>5429</start>
								<end>5967</end>
								<masterclipid>ArmA 3 2020.11.14 - 01.05.58.87.mp4</masterclipid>
								<logginginfo>
									<scene />
									<shottake />
									<lognote />
									<good>FALSE</good>
								</logginginfo>
								<labels>
									<label2 />
								</labels>
								<comments>
									<mastercomment1 />
									<mastercomment2 />
									<mastercomment3 />
									<mastercomment4 />
								</comments>
								<file id="ArmA 3 2020.11.14 - 01.05.58.87" />
								<filter>
									<effect>
										<name>Audio Levels</name>
										<effectid>audiolevels</effectid>
										<effectcategory>audiolevels</effectcategory>
										<effecttype>audiolevels</effecttype>
										<mediatype>audio</mediatype>
										<parameter>
											<name>Level</name>
											<parameterid>level</parameterid>
											<valuemin>0</valuemin>
											<valuemax>3,98109</valuemax>
											<value>1</value>
										</parameter>
									</effect>
								</filter>
								<filter>
									<effect>
										<name>Audio Pan</name>
										<effectid>audiopan</effectid>
										<effectcategory>audiopan</effectcategory>
										<effecttype>audiopan</effecttype>
										<mediatype>audio</mediatype>
										<parameter>
											<name>Pan</name>
											<parameterid>pan</parameterid>
											<valuemin>-1</valuemin>
											<valuemax>1</valuemax>
											<value>-1</value>
										</parameter>
									</effect>
								</filter>
								<sourcetrack>
									<mediatype>audio</mediatype>
									<trackindex>1</trackindex>
								</sourcetrack>
								<link>
									<linkclipref>ArmA 3 2020.11.14 - 01.05.58.87.mp4805307619</linkclipref>
								</link>
								<link>
									<linkclipref>ArmA 3 2020.11.14 - 01.05.58.87.mp4536872164</linkclipref>
								</link>
								<link>
									<linkclipref>ArmA 3 2020.11.14 - 01.05.58.87.mp45368721641</linkclipref>
								</link>
								<link>
									<linkclipref>ArmA 3 2020.11.14 - 01.05.58.87.mp4536872165</linkclipref>
								</link>
								<link>
									<linkclipref>ArmA 3 2020.11.14 - 01.05.58.87.mp45368721651</linkclipref>
								</link>
							</clipitem>
							<clipitem id="ArmA 3 2020.11.14 - 01.06.24.88.mp4536872168">
								<name>ArmA 3 2020.11.14 - 01.06.24.88.mp4</name>
								<duration>288</duration>
								<rate>
									<ntsc>TRUE</ntsc>
									<timebase>24</timebase>
								</rate>
								<in>0</in>
								<out>288</out>
								<start>5968</start>
								<end>6256</end>
								<masterclipid>ArmA 3 2020.11.14 - 01.06.24.88.mp4</masterclipid>
								<logginginfo>
									<scene />
									<shottake />
									<lognote />
									<good>FALSE</good>
								</logginginfo>
								<labels>
									<label2 />
								</labels>
								<comments>
									<mastercomment1 />
									<mastercomment2 />
									<mastercomment3 />
									<mastercomment4 />
								</comments>
								<file id="ArmA 3 2020.11.14 - 01.06.24.88" />
								<filter>
									<effect>
										<name>Audio Levels</name>
										<effectid>audiolevels</effectid>
										<effectcategory>audiolevels</effectcategory>
										<effecttype>audiolevels</effecttype>
										<mediatype>audio</mediatype>
										<parameter>
											<name>Level</name>
											<parameterid>level</parameterid>
											<valuemin>0</valuemin>
											<valuemax>3,98109</valuemax>
											<value>1</value>
										</parameter>
									</effect>
								</filter>
								<filter>
									<effect>
										<name>Audio Pan</name>
										<effectid>audiopan</effectid>
										<effectcategory>audiopan</effectcategory>
										<effecttype>audiopan</effecttype>
										<mediatype>audio</mediatype>
										<parameter>
											<name>Pan</name>
											<parameterid>pan</parameterid>
											<valuemin>-1</valuemin>
											<valuemax>1</valuemax>
											<value>-1</value>
										</parameter>
									</effect>
								</filter>
								<sourcetrack>
									<mediatype>audio</mediatype>
									<trackindex>1</trackindex>
								</sourcetrack>
								<link>
									<linkclipref>ArmA 3 2020.11.14 - 01.06.24.88.mp4805307622</linkclipref>
								</link>
								<link>
									<linkclipref>ArmA 3 2020.11.14 - 01.06.24.88.mp4536872167</linkclipref>
								</link>
								<link>
									<linkclipref>ArmA 3 2020.11.14 - 01.06.24.88.mp45368721671</linkclipref>
								</link>
								<link>
									<linkclipref>ArmA 3 2020.11.14 - 01.06.24.88.mp4536872168</linkclipref>
								</link>
								<link>
									<linkclipref>ArmA 3 2020.11.14 - 01.06.24.88.mp45368721681</linkclipref>
								</link>
							</clipitem>
							<clipitem id="ArmA 3 2020.11.14 - 01.06.46.89.mp4536872171">
								<name>ArmA 3 2020.11.14 - 01.06.46.89.mp4</name>
								<duration>856</duration>
								<rate>
									<ntsc>TRUE</ntsc>
									<timebase>24</timebase>
								</rate>
								<in>0</in>
								<out>856</out>
								<start>6257</start>
								<end>7113</end>
								<masterclipid>ArmA 3 2020.11.14 - 01.06.46.89.mp4</masterclipid>
								<logginginfo>
									<scene />
									<shottake />
									<lognote />
									<good>FALSE</good>
								</logginginfo>
								<labels>
									<label2 />
								</labels>
								<comments>
									<mastercomment1 />
									<mastercomment2 />
									<mastercomment3 />
									<mastercomment4 />
								</comments>
								<file id="ArmA 3 2020.11.14 - 01.06.46.89" />
								<filter>
									<effect>
										<name>Audio Levels</name>
										<effectid>audiolevels</effectid>
										<effectcategory>audiolevels</effectcategory>
										<effecttype>audiolevels</effecttype>
										<mediatype>audio</mediatype>
										<parameter>
											<name>Level</name>
											<parameterid>level</parameterid>
											<valuemin>0</valuemin>
											<valuemax>3,98109</valuemax>
											<value>1</value>
										</parameter>
									</effect>
								</filter>
								<filter>
									<effect>
										<name>Audio Pan</name>
										<effectid>audiopan</effectid>
										<effectcategory>audiopan</effectcategory>
										<effecttype>audiopan</effecttype>
										<mediatype>audio</mediatype>
										<parameter>
											<name>Pan</name>
											<parameterid>pan</parameterid>
											<valuemin>-1</valuemin>
											<valuemax>1</valuemax>
											<value>-1</value>
										</parameter>
									</effect>
								</filter>
								<sourcetrack>
									<mediatype>audio</mediatype>
									<trackindex>1</trackindex>
								</sourcetrack>
								<link>
									<linkclipref>ArmA 3 2020.11.14 - 01.06.46.89.mp4805307625</linkclipref>
								</link>
								<link>
									<linkclipref>ArmA 3 2020.11.14 - 01.06.46.89.mp4536872170</linkclipref>
								</link>
								<link>
									<linkclipref>ArmA 3 2020.11.14 - 01.06.46.89.mp45368721701</linkclipref>
								</link>
								<link>
									<linkclipref>ArmA 3 2020.11.14 - 01.06.46.89.mp4536872171</linkclipref>
								</link>
								<link>
									<linkclipref>ArmA 3 2020.11.14 - 01.06.46.89.mp45368721711</linkclipref>
								</link>
							</clipitem>
							<clipitem id="ArmA 3 2020.11.14 - 01.07.32.90.mp4536872174">
								<name>ArmA 3 2020.11.14 - 01.07.32.90.mp4</name>
								<duration>396</duration>
								<rate>
									<ntsc>TRUE</ntsc>
									<timebase>24</timebase>
								</rate>
								<in>0</in>
								<out>396</out>
								<start>7114</start>
								<end>7510</end>
								<masterclipid>ArmA 3 2020.11.14 - 01.07.32.90.mp4</masterclipid>
								<logginginfo>
									<scene />
									<shottake />
									<lognote />
									<good>FALSE</good>
								</logginginfo>
								<labels>
									<label2 />
								</labels>
								<comments>
									<mastercomment1 />
									<mastercomment2 />
									<mastercomment3 />
									<mastercomment4 />
								</comments>
								<file id="ArmA 3 2020.11.14 - 01.07.32.90" />
								<filter>
									<effect>
										<name>Audio Levels</name>
										<effectid>audiolevels</effectid>
										<effectcategory>audiolevels</effectcategory>
										<effecttype>audiolevels</effecttype>
										<mediatype>audio</mediatype>
										<parameter>
											<name>Level</name>
											<parameterid>level</parameterid>
											<valuemin>0</valuemin>
											<valuemax>3,98109</valuemax>
											<value>1</value>
										</parameter>
									</effect>
								</filter>
								<filter>
									<effect>
										<name>Audio Pan</name>
										<effectid>audiopan</effectid>
										<effectcategory>audiopan</effectcategory>
										<effecttype>audiopan</effecttype>
										<mediatype>audio</mediatype>
										<parameter>
											<name>Pan</name>
											<parameterid>pan</parameterid>
											<valuemin>-1</valuemin>
											<valuemax>1</valuemax>
											<value>-1</value>
										</parameter>
									</effect>
								</filter>
								<sourcetrack>
									<mediatype>audio</mediatype>
									<trackindex>1</trackindex>
								</sourcetrack>
								<link>
									<linkclipref>ArmA 3 2020.11.14 - 01.07.32.90.mp4805307628</linkclipref>
								</link>
								<link>
									<linkclipref>ArmA 3 2020.11.14 - 01.07.32.90.mp4536872173</linkclipref>
								</link>
								<link>
									<linkclipref>ArmA 3 2020.11.14 - 01.07.32.90.mp45368721731</linkclipref>
								</link>
								<link>
									<linkclipref>ArmA 3 2020.11.14 - 01.07.32.90.mp4536872174</linkclipref>
								</link>
								<link>
									<linkclipref>ArmA 3 2020.11.14 - 01.07.32.90.mp45368721741</linkclipref>
								</link>
							</clipitem>
							<clipitem id="ArmA 3 2020.11.14 - 01.08.19.91.mp4536872177">
								<name>ArmA 3 2020.11.14 - 01.08.19.91.mp4</name>
								<duration>894</duration>
								<rate>
									<ntsc>TRUE</ntsc>
									<timebase>24</timebase>
								</rate>
								<in>0</in>
								<out>894</out>
								<start>7511</start>
								<end>8405</end>
								<masterclipid>ArmA 3 2020.11.14 - 01.08.19.91.mp4</masterclipid>
								<logginginfo>
									<scene />
									<shottake />
									<lognote />
									<good>FALSE</good>
								</logginginfo>
								<labels>
									<label2 />
								</labels>
								<comments>
									<mastercomment1 />
									<mastercomment2 />
									<mastercomment3 />
									<mastercomment4 />
								</comments>
								<file id="ArmA 3 2020.11.14 - 01.08.19.91" />
								<filter>
									<effect>
										<name>Audio Levels</name>
										<effectid>audiolevels</effectid>
										<effectcategory>audiolevels</effectcategory>
										<effecttype>audiolevels</effecttype>
										<mediatype>audio</mediatype>
										<parameter>
											<name>Level</name>
											<parameterid>level</parameterid>
											<valuemin>0</valuemin>
											<valuemax>3,98109</valuemax>
											<value>1</value>
										</parameter>
									</effect>
								</filter>
								<filter>
									<effect>
										<name>Audio Pan</name>
										<effectid>audiopan</effectid>
										<effectcategory>audiopan</effectcategory>
										<effecttype>audiopan</effecttype>
										<mediatype>audio</mediatype>
										<parameter>
											<name>Pan</name>
											<parameterid>pan</parameterid>
											<valuemin>-1</valuemin>
											<valuemax>1</valuemax>
											<value>-1</value>
										</parameter>
									</effect>
								</filter>
								<sourcetrack>
									<mediatype>audio</mediatype>
									<trackindex>1</trackindex>
								</sourcetrack>
								<link>
									<linkclipref>ArmA 3 2020.11.14 - 01.08.19.91.mp4805307631</linkclipref>
								</link>
								<link>
									<linkclipref>ArmA 3 2020.11.14 - 01.08.19.91.mp4536872176</linkclipref>
								</link>
								<link>
									<linkclipref>ArmA 3 2020.11.14 - 01.08.19.91.mp45368721761</linkclipref>
								</link>
								<link>
									<linkclipref>ArmA 3 2020.11.14 - 01.08.19.91.mp4536872177</linkclipref>
								</link>
								<link>
									<linkclipref>ArmA 3 2020.11.14 - 01.08.19.91.mp45368721771</linkclipref>
								</link>
							</clipitem>
							<clipitem id="ArmA 3 2020.11.14 - 01.09.43.92.mp4536872180">
								<name>ArmA 3 2020.11.14 - 01.09.43.92.mp4</name>
								<duration>704</duration>
								<rate>
									<ntsc>TRUE</ntsc>
									<timebase>24</timebase>
								</rate>
								<in>0</in>
								<out>704</out>
								<start>8406</start>
								<end>9110</end>
								<masterclipid>ArmA 3 2020.11.14 - 01.09.43.92.mp4</masterclipid>
								<logginginfo>
									<scene />
									<shottake />
									<lognote />
									<good>FALSE</good>
								</logginginfo>
								<labels>
									<label2 />
								</labels>
								<comments>
									<mastercomment1 />
									<mastercomment2 />
									<mastercomment3 />
									<mastercomment4 />
								</comments>
								<file id="ArmA 3 2020.11.14 - 01.09.43.92" />
								<filter>
									<effect>
										<name>Audio Levels</name>
										<effectid>audiolevels</effectid>
										<effectcategory>audiolevels</effectcategory>
										<effecttype>audiolevels</effecttype>
										<mediatype>audio</mediatype>
										<parameter>
											<name>Level</name>
											<parameterid>level</parameterid>
											<valuemin>0</valuemin>
											<valuemax>3,98109</valuemax>
											<value>1</value>
										</parameter>
									</effect>
								</filter>
								<filter>
									<effect>
										<name>Audio Pan</name>
										<effectid>audiopan</effectid>
										<effectcategory>audiopan</effectcategory>
										<effecttype>audiopan</effecttype>
										<mediatype>audio</mediatype>
										<parameter>
											<name>Pan</name>
											<parameterid>pan</parameterid>
											<valuemin>-1</valuemin>
											<valuemax>1</valuemax>
											<value>-1</value>
										</parameter>
									</effect>
								</filter>
								<sourcetrack>
									<mediatype>audio</mediatype>
									<trackindex>1</trackindex>
								</sourcetrack>
								<link>
									<linkclipref>ArmA 3 2020.11.14 - 01.09.43.92.mp4805307634</linkclipref>
								</link>
								<link>
									<linkclipref>ArmA 3 2020.11.14 - 01.09.43.92.mp4536872179</linkclipref>
								</link>
								<link>
									<linkclipref>ArmA 3 2020.11.14 - 01.09.43.92.mp45368721791</linkclipref>
								</link>
								<link>
									<linkclipref>ArmA 3 2020.11.14 - 01.09.43.92.mp4536872180</linkclipref>
								</link>
								<link>
									<linkclipref>ArmA 3 2020.11.14 - 01.09.43.92.mp45368721801</linkclipref>
								</link>
							</clipitem>
							<clipitem id="ArmA 3 2020.11.14 - 01.10.27.93.mp4536872183">
								<name>ArmA 3 2020.11.14 - 01.10.27.93.mp4</name>
								<duration>653</duration>
								<rate>
									<ntsc>TRUE</ntsc>
									<timebase>24</timebase>
								</rate>
								<in>0</in>
								<out>653</out>
								<start>9111</start>
								<end>9764</end>
								<masterclipid>ArmA 3 2020.11.14 - 01.10.27.93.mp4</masterclipid>
								<logginginfo>
									<scene />
									<shottake />
									<lognote />
									<good>FALSE</good>
								</logginginfo>
								<labels>
									<label2 />
								</labels>
								<comments>
									<mastercomment1 />
									<mastercomment2 />
									<mastercomment3 />
									<mastercomment4 />
								</comments>
								<file id="ArmA 3 2020.11.14 - 01.10.27.93" />
								<filter>
									<effect>
										<name>Audio Levels</name>
										<effectid>audiolevels</effectid>
										<effectcategory>audiolevels</effectcategory>
										<effecttype>audiolevels</effecttype>
										<mediatype>audio</mediatype>
										<parameter>
											<name>Level</name>
											<parameterid>level</parameterid>
											<valuemin>0</valuemin>
											<valuemax>3,98109</valuemax>
											<value>1</value>
										</parameter>
									</effect>
								</filter>
								<filter>
									<effect>
										<name>Audio Pan</name>
										<effectid>audiopan</effectid>
										<effectcategory>audiopan</effectcategory>
										<effecttype>audiopan</effecttype>
										<mediatype>audio</mediatype>
										<parameter>
											<name>Pan</name>
											<parameterid>pan</parameterid>
											<valuemin>-1</valuemin>
											<valuemax>1</valuemax>
											<value>-1</value>
										</parameter>
									</effect>
								</filter>
								<sourcetrack>
									<mediatype>audio</mediatype>
									<trackindex>1</trackindex>
								</sourcetrack>
								<link>
									<linkclipref>ArmA 3 2020.11.14 - 01.10.27.93.mp4805307637</linkclipref>
								</link>
								<link>
									<linkclipref>ArmA 3 2020.11.14 - 01.10.27.93.mp4536872182</linkclipref>
								</link>
								<link>
									<linkclipref>ArmA 3 2020.11.14 - 01.10.27.93.mp45368721821</linkclipref>
								</link>
								<link>
									<linkclipref>ArmA 3 2020.11.14 - 01.10.27.93.mp4536872183</linkclipref>
								</link>
								<link>
									<linkclipref>ArmA 3 2020.11.14 - 01.10.27.93.mp45368721831</linkclipref>
								</link>
							</clipitem>
							<clipitem id="ArmA 3 2020.11.14 - 01.11.14.94.mp4536872186">
								<name>ArmA 3 2020.11.14 - 01.11.14.94.mp4</name>
								<duration>682</duration>
								<rate>
									<ntsc>TRUE</ntsc>
									<timebase>24</timebase>
								</rate>
								<in>0</in>
								<out>682</out>
								<start>9765</start>
								<end>10447</end>
								<masterclipid>ArmA 3 2020.11.14 - 01.11.14.94.mp4</masterclipid>
								<logginginfo>
									<scene />
									<shottake />
									<lognote />
									<good>FALSE</good>
								</logginginfo>
								<labels>
									<label2 />
								</labels>
								<comments>
									<mastercomment1 />
									<mastercomment2 />
									<mastercomment3 />
									<mastercomment4 />
								</comments>
								<file id="ArmA 3 2020.11.14 - 01.11.14.94" />
								<filter>
									<effect>
										<name>Audio Levels</name>
										<effectid>audiolevels</effectid>
										<effectcategory>audiolevels</effectcategory>
										<effecttype>audiolevels</effecttype>
										<mediatype>audio</mediatype>
										<parameter>
											<name>Level</name>
											<parameterid>level</parameterid>
											<valuemin>0</valuemin>
											<valuemax>3,98109</valuemax>
											<value>1</value>
										</parameter>
									</effect>
								</filter>
								<filter>
									<effect>
										<name>Audio Pan</name>
										<effectid>audiopan</effectid>
										<effectcategory>audiopan</effectcategory>
										<effecttype>audiopan</effecttype>
										<mediatype>audio</mediatype>
										<parameter>
											<name>Pan</name>
											<parameterid>pan</parameterid>
											<valuemin>-1</valuemin>
											<valuemax>1</valuemax>
											<value>-1</value>
										</parameter>
									</effect>
								</filter>
								<sourcetrack>
									<mediatype>audio</mediatype>
									<trackindex>1</trackindex>
								</sourcetrack>
								<link>
									<linkclipref>ArmA 3 2020.11.14 - 01.11.14.94.mp4805307640</linkclipref>
								</link>
								<link>
									<linkclipref>ArmA 3 2020.11.14 - 01.11.14.94.mp4536872185</linkclipref>
								</link>
								<link>
									<linkclipref>ArmA 3 2020.11.14 - 01.11.14.94.mp45368721851</linkclipref>
								</link>
								<link>
									<linkclipref>ArmA 3 2020.11.14 - 01.11.14.94.mp4536872186</linkclipref>
								</link>
								<link>
									<linkclipref>ArmA 3 2020.11.14 - 01.11.14.94.mp45368721861</linkclipref>
								</link>
							</clipitem>
							<clipitem id="ArmA 3 2020.11.14 - 01.13.07.95.mp4536872189">
								<name>ArmA 3 2020.11.14 - 01.13.07.95.mp4</name>
								<duration>837</duration>
								<rate>
									<ntsc>TRUE</ntsc>
									<timebase>24</timebase>
								</rate>
								<in>0</in>
								<out>837</out>
								<start>10448</start>
								<end>11285</end>
								<masterclipid>ArmA 3 2020.11.14 - 01.13.07.95.mp4</masterclipid>
								<logginginfo>
									<scene />
									<shottake />
									<lognote />
									<good>FALSE</good>
								</logginginfo>
								<labels>
									<label2 />
								</labels>
								<comments>
									<mastercomment1 />
									<mastercomment2 />
									<mastercomment3 />
									<mastercomment4 />
								</comments>
								<file id="ArmA 3 2020.11.14 - 01.13.07.95" />
								<filter>
									<effect>
										<name>Audio Levels</name>
										<effectid>audiolevels</effectid>
										<effectcategory>audiolevels</effectcategory>
										<effecttype>audiolevels</effecttype>
										<mediatype>audio</mediatype>
										<parameter>
											<name>Level</name>
											<parameterid>level</parameterid>
											<valuemin>0</valuemin>
											<valuemax>3,98109</valuemax>
											<value>1</value>
										</parameter>
									</effect>
								</filter>
								<filter>
									<effect>
										<name>Audio Pan</name>
										<effectid>audiopan</effectid>
										<effectcategory>audiopan</effectcategory>
										<effecttype>audiopan</effecttype>
										<mediatype>audio</mediatype>
										<parameter>
											<name>Pan</name>
											<parameterid>pan</parameterid>
											<valuemin>-1</valuemin>
											<valuemax>1</valuemax>
											<value>-1</value>
										</parameter>
									</effect>
								</filter>
								<sourcetrack>
									<mediatype>audio</mediatype>
									<trackindex>1</trackindex>
								</sourcetrack>
								<link>
									<linkclipref>ArmA 3 2020.11.14 - 01.13.07.95.mp4805307643</linkclipref>
								</link>
								<link>
									<linkclipref>ArmA 3 2020.11.14 - 01.13.07.95.mp4536872188</linkclipref>
								</link>
								<link>
									<linkclipref>ArmA 3 2020.11.14 - 01.13.07.95.mp45368721881</linkclipref>
								</link>
								<link>
									<linkclipref>ArmA 3 2020.11.14 - 01.13.07.95.mp4536872189</linkclipref>
								</link>
								<link>
									<linkclipref>ArmA 3 2020.11.14 - 01.13.07.95.mp45368721891</linkclipref>
								</link>
							</clipitem>
							<clipitem id="ArmA 3 2020.11.14 - 01.17.25.96.mp4536872192">
								<name>ArmA 3 2020.11.14 - 01.17.25.96.mp4</name>
								<duration>1040</duration>
								<rate>
									<ntsc>TRUE</ntsc>
									<timebase>24</timebase>
								</rate>
								<in>0</in>
								<out>1040</out>
								<start>11286</start>
								<end>12326</end>
								<masterclipid>ArmA 3 2020.11.14 - 01.17.25.96.mp4</masterclipid>
								<logginginfo>
									<scene />
									<shottake />
									<lognote />
									<good>FALSE</good>
								</logginginfo>
								<labels>
									<label2 />
								</labels>
								<comments>
									<mastercomment1 />
									<mastercomment2 />
									<mastercomment3 />
									<mastercomment4 />
								</comments>
								<file id="ArmA 3 2020.11.14 - 01.17.25.96" />
								<filter>
									<effect>
										<name>Audio Levels</name>
										<effectid>audiolevels</effectid>
										<effectcategory>audiolevels</effectcategory>
										<effecttype>audiolevels</effecttype>
										<mediatype>audio</mediatype>
										<parameter>
											<name>Level</name>
											<parameterid>level</parameterid>
											<valuemin>0</valuemin>
											<valuemax>3,98109</valuemax>
											<value>1</value>
										</parameter>
									</effect>
								</filter>
								<filter>
									<effect>
										<name>Audio Pan</name>
										<effectid>audiopan</effectid>
										<effectcategory>audiopan</effectcategory>
										<effecttype>audiopan</effecttype>
										<mediatype>audio</mediatype>
										<parameter>
											<name>Pan</name>
											<parameterid>pan</parameterid>
											<valuemin>-1</valuemin>
											<valuemax>1</valuemax>
											<value>-1</value>
										</parameter>
									</effect>
								</filter>
								<sourcetrack>
									<mediatype>audio</mediatype>
									<trackindex>1</trackindex>
								</sourcetrack>
								<link>
									<linkclipref>ArmA 3 2020.11.14 - 01.17.25.96.mp4805307646</linkclipref>
								</link>
								<link>
									<linkclipref>ArmA 3 2020.11.14 - 01.17.25.96.mp4536872191</linkclipref>
								</link>
								<link>
									<linkclipref>ArmA 3 2020.11.14 - 01.17.25.96.mp45368721911</linkclipref>
								</link>
								<link>
									<linkclipref>ArmA 3 2020.11.14 - 01.17.25.96.mp4536872192</linkclipref>
								</link>
								<link>
									<linkclipref>ArmA 3 2020.11.14 - 01.17.25.96.mp45368721921</linkclipref>
								</link>
							</clipitem>
							<clipitem id="ArmA 3 2020.11.14 - 01.18.27.97.mp4536872195">
								<name>ArmA 3 2020.11.14 - 01.18.27.97.mp4</name>
								<duration>723</duration>
								<rate>
									<ntsc>TRUE</ntsc>
									<timebase>24</timebase>
								</rate>
								<in>0</in>
								<out>723</out>
								<start>12327</start>
								<end>13050</end>
								<masterclipid>ArmA 3 2020.11.14 - 01.18.27.97.mp4</masterclipid>
								<logginginfo>
									<scene />
									<shottake />
									<lognote />
									<good>FALSE</good>
								</logginginfo>
								<labels>
									<label2 />
								</labels>
								<comments>
									<mastercomment1 />
									<mastercomment2 />
									<mastercomment3 />
									<mastercomment4 />
								</comments>
								<file id="ArmA 3 2020.11.14 - 01.18.27.97" />
								<filter>
									<effect>
										<name>Audio Levels</name>
										<effectid>audiolevels</effectid>
										<effectcategory>audiolevels</effectcategory>
										<effecttype>audiolevels</effecttype>
										<mediatype>audio</mediatype>
										<parameter>
											<name>Level</name>
											<parameterid>level</parameterid>
											<valuemin>0</valuemin>
											<valuemax>3,98109</valuemax>
											<value>1</value>
										</parameter>
									</effect>
								</filter>
								<filter>
									<effect>
										<name>Audio Pan</name>
										<effectid>audiopan</effectid>
										<effectcategory>audiopan</effectcategory>
										<effecttype>audiopan</effecttype>
										<mediatype>audio</mediatype>
										<parameter>
											<name>Pan</name>
											<parameterid>pan</parameterid>
											<valuemin>-1</valuemin>
											<valuemax>1</valuemax>
											<value>-1</value>
										</parameter>
									</effect>
								</filter>
								<sourcetrack>
									<mediatype>audio</mediatype>
									<trackindex>1</trackindex>
								</sourcetrack>
								<link>
									<linkclipref>ArmA 3 2020.11.14 - 01.18.27.97.mp4805307649</linkclipref>
								</link>
								<link>
									<linkclipref>ArmA 3 2020.11.14 - 01.18.27.97.mp4536872194</linkclipref>
								</link>
								<link>
									<linkclipref>ArmA 3 2020.11.14 - 01.18.27.97.mp45368721941</linkclipref>
								</link>
								<link>
									<linkclipref>ArmA 3 2020.11.14 - 01.18.27.97.mp4536872195</linkclipref>
								</link>
								<link>
									<linkclipref>ArmA 3 2020.11.14 - 01.18.27.97.mp45368721951</linkclipref>
								</link>
							</clipitem>
							<clipitem id="ArmA 3 2020.11.14 - 01.19.04.98.mp4536872198">
								<name>ArmA 3 2020.11.14 - 01.19.04.98.mp4</name>
								<duration>597</duration>
								<rate>
									<ntsc>TRUE</ntsc>
									<timebase>24</timebase>
								</rate>
								<in>0</in>
								<out>597</out>
								<start>13051</start>
								<end>13648</end>
								<masterclipid>ArmA 3 2020.11.14 - 01.19.04.98.mp4</masterclipid>
								<logginginfo>
									<scene />
									<shottake />
									<lognote />
									<good>FALSE</good>
								</logginginfo>
								<labels>
									<label2 />
								</labels>
								<comments>
									<mastercomment1 />
									<mastercomment2 />
									<mastercomment3 />
									<mastercomment4 />
								</comments>
								<file id="ArmA 3 2020.11.14 - 01.19.04.98" />
								<filter>
									<effect>
										<name>Audio Levels</name>
										<effectid>audiolevels</effectid>
										<effectcategory>audiolevels</effectcategory>
										<effecttype>audiolevels</effecttype>
										<mediatype>audio</mediatype>
										<parameter>
											<name>Level</name>
											<parameterid>level</parameterid>
											<valuemin>0</valuemin>
											<valuemax>3,98109</valuemax>
											<value>1</value>
										</parameter>
									</effect>
								</filter>
								<filter>
									<effect>
										<name>Audio Pan</name>
										<effectid>audiopan</effectid>
										<effectcategory>audiopan</effectcategory>
										<effecttype>audiopan</effecttype>
										<mediatype>audio</mediatype>
										<parameter>
											<name>Pan</name>
											<parameterid>pan</parameterid>
											<valuemin>-1</valuemin>
											<valuemax>1</valuemax>
											<value>-1</value>
										</parameter>
									</effect>
								</filter>
								<sourcetrack>
									<mediatype>audio</mediatype>
									<trackindex>1</trackindex>
								</sourcetrack>
								<link>
									<linkclipref>ArmA 3 2020.11.14 - 01.19.04.98.mp4805307652</linkclipref>
								</link>
								<link>
									<linkclipref>ArmA 3 2020.11.14 - 01.19.04.98.mp4536872197</linkclipref>
								</link>
								<link>
									<linkclipref>ArmA 3 2020.11.14 - 01.19.04.98.mp45368721971</linkclipref>
								</link>
								<link>
									<linkclipref>ArmA 3 2020.11.14 - 01.19.04.98.mp4536872198</linkclipref>
								</link>
								<link>
									<linkclipref>ArmA 3 2020.11.14 - 01.19.04.98.mp45368721981</linkclipref>
								</link>
							</clipitem>
							<clipitem id="ArmA 3 2020.11.14 - 01.19.30.99.mp4536872201">
								<name>ArmA 3 2020.11.14 - 01.19.30.99.mp4</name>
								<duration>782</duration>
								<rate>
									<ntsc>TRUE</ntsc>
									<timebase>24</timebase>
								</rate>
								<in>0</in>
								<out>782</out>
								<start>13649</start>
								<end>14431</end>
								<masterclipid>ArmA 3 2020.11.14 - 01.19.30.99.mp4</masterclipid>
								<logginginfo>
									<scene />
									<shottake />
									<lognote />
									<good>FALSE</good>
								</logginginfo>
								<labels>
									<label2 />
								</labels>
								<comments>
									<mastercomment1 />
									<mastercomment2 />
									<mastercomment3 />
									<mastercomment4 />
								</comments>
								<file id="ArmA 3 2020.11.14 - 01.19.30.99" />
								<filter>
									<effect>
										<name>Audio Levels</name>
										<effectid>audiolevels</effectid>
										<effectcategory>audiolevels</effectcategory>
										<effecttype>audiolevels</effecttype>
										<mediatype>audio</mediatype>
										<parameter>
											<name>Level</name>
											<parameterid>level</parameterid>
											<valuemin>0</valuemin>
											<valuemax>3,98109</valuemax>
											<value>1</value>
										</parameter>
									</effect>
								</filter>
								<filter>
									<effect>
										<name>Audio Pan</name>
										<effectid>audiopan</effectid>
										<effectcategory>audiopan</effectcategory>
										<effecttype>audiopan</effecttype>
										<mediatype>audio</mediatype>
										<parameter>
											<name>Pan</name>
											<parameterid>pan</parameterid>
											<valuemin>-1</valuemin>
											<valuemax>1</valuemax>
											<value>-1</value>
										</parameter>
									</effect>
								</filter>
								<sourcetrack>
									<mediatype>audio</mediatype>
									<trackindex>1</trackindex>
								</sourcetrack>
								<link>
									<linkclipref>ArmA 3 2020.11.14 - 01.19.30.99.mp4805307655</linkclipref>
								</link>
								<link>
									<linkclipref>ArmA 3 2020.11.14 - 01.19.30.99.mp4536872200</linkclipref>
								</link>
								<link>
									<linkclipref>ArmA 3 2020.11.14 - 01.19.30.99.mp45368722001</linkclipref>
								</link>
								<link>
									<linkclipref>ArmA 3 2020.11.14 - 01.19.30.99.mp4536872201</linkclipref>
								</link>
								<link>
									<linkclipref>ArmA 3 2020.11.14 - 01.19.30.99.mp45368722011</linkclipref>
								</link>
							</clipitem>
							<clipitem id="ArmA 3 2020.11.14 - 01.21.06.100.mp4536872204">
								<name>ArmA 3 2020.11.14 - 01.21.06.100.mp4</name>
								<duration>349</duration>
								<rate>
									<ntsc>TRUE</ntsc>
									<timebase>24</timebase>
								</rate>
								<in>0</in>
								<out>349</out>
								<start>14432</start>
								<end>14781</end>
								<masterclipid>ArmA 3 2020.11.14 - 01.21.06.100.mp4</masterclipid>
								<logginginfo>
									<scene />
									<shottake />
									<lognote />
									<good>FALSE</good>
								</logginginfo>
								<labels>
									<label2 />
								</labels>
								<comments>
									<mastercomment1 />
									<mastercomment2 />
									<mastercomment3 />
									<mastercomment4 />
								</comments>
								<file id="ArmA 3 2020.11.14 - 01.21.06.100" />
								<filter>
									<effect>
										<name>Audio Levels</name>
										<effectid>audiolevels</effectid>
										<effectcategory>audiolevels</effectcategory>
										<effecttype>audiolevels</effecttype>
										<mediatype>audio</mediatype>
										<parameter>
											<name>Level</name>
											<parameterid>level</parameterid>
											<valuemin>0</valuemin>
											<valuemax>3,98109</valuemax>
											<value>1</value>
										</parameter>
									</effect>
								</filter>
								<filter>
									<effect>
										<name>Audio Pan</name>
										<effectid>audiopan</effectid>
										<effectcategory>audiopan</effectcategory>
										<effecttype>audiopan</effecttype>
										<mediatype>audio</mediatype>
										<parameter>
											<name>Pan</name>
											<parameterid>pan</parameterid>
											<valuemin>-1</valuemin>
											<valuemax>1</valuemax>
											<value>-1</value>
										</parameter>
									</effect>
								</filter>
								<sourcetrack>
									<mediatype>audio</mediatype>
									<trackindex>1</trackindex>
								</sourcetrack>
								<link>
									<linkclipref>ArmA 3 2020.11.14 - 01.21.06.100.mp4805307658</linkclipref>
								</link>
								<link>
									<linkclipref>ArmA 3 2020.11.14 - 01.21.06.100.mp4536872203</linkclipref>
								</link>
								<link>
									<linkclipref>ArmA 3 2020.11.14 - 01.21.06.100.mp45368722031</linkclipref>
								</link>
								<link>
									<linkclipref>ArmA 3 2020.11.14 - 01.21.06.100.mp4536872204</linkclipref>
								</link>
								<link>
									<linkclipref>ArmA 3 2020.11.14 - 01.21.06.100.mp45368722041</linkclipref>
								</link>
							</clipitem>
							<clipitem id="ArmA 3 2020.11.14 - 01.21.52.101.mp4536872207">
								<name>ArmA 3 2020.11.14 - 01.21.52.101.mp4</name>
								<duration>1025</duration>
								<rate>
									<ntsc>TRUE</ntsc>
									<timebase>24</timebase>
								</rate>
								<in>0</in>
								<out>1025</out>
								<start>14782</start>
								<end>15807</end>
								<masterclipid>ArmA 3 2020.11.14 - 01.21.52.101.mp4</masterclipid>
								<logginginfo>
									<scene />
									<shottake />
									<lognote />
									<good>FALSE</good>
								</logginginfo>
								<labels>
									<label2 />
								</labels>
								<comments>
									<mastercomment1 />
									<mastercomment2 />
									<mastercomment3 />
									<mastercomment4 />
								</comments>
								<file id="ArmA 3 2020.11.14 - 01.21.52.101" />
								<filter>
									<effect>
										<name>Audio Levels</name>
										<effectid>audiolevels</effectid>
										<effectcategory>audiolevels</effectcategory>
										<effecttype>audiolevels</effecttype>
										<mediatype>audio</mediatype>
										<parameter>
											<name>Level</name>
											<parameterid>level</parameterid>
											<valuemin>0</valuemin>
											<valuemax>3,98109</valuemax>
											<value>1</value>
										</parameter>
									</effect>
								</filter>
								<filter>
									<effect>
										<name>Audio Pan</name>
										<effectid>audiopan</effectid>
										<effectcategory>audiopan</effectcategory>
										<effecttype>audiopan</effecttype>
										<mediatype>audio</mediatype>
										<parameter>
											<name>Pan</name>
											<parameterid>pan</parameterid>
											<valuemin>-1</valuemin>
											<valuemax>1</valuemax>
											<value>-1</value>
										</parameter>
									</effect>
								</filter>
								<sourcetrack>
									<mediatype>audio</mediatype>
									<trackindex>1</trackindex>
								</sourcetrack>
								<link>
									<linkclipref>ArmA 3 2020.11.14 - 01.21.52.101.mp4805307661</linkclipref>
								</link>
								<link>
									<linkclipref>ArmA 3 2020.11.14 - 01.21.52.101.mp4536872206</linkclipref>
								</link>
								<link>
									<linkclipref>ArmA 3 2020.11.14 - 01.21.52.101.mp45368722061</linkclipref>
								</link>
								<link>
									<linkclipref>ArmA 3 2020.11.14 - 01.21.52.101.mp4536872207</linkclipref>
								</link>
								<link>
									<linkclipref>ArmA 3 2020.11.14 - 01.21.52.101.mp45368722071</linkclipref>
								</link>
							</clipitem>
							<clipitem id="ArmA 3 2020.11.14 - 01.22.45.102.mp4536872210">
								<name>ArmA 3 2020.11.14 - 01.22.45.102.mp4</name>
								<duration>1159</duration>
								<rate>
									<ntsc>TRUE</ntsc>
									<timebase>24</timebase>
								</rate>
								<in>0</in>
								<out>1159</out>
								<start>15808</start>
								<end>16967</end>
								<masterclipid>ArmA 3 2020.11.14 - 01.22.45.102.mp4</masterclipid>
								<logginginfo>
									<scene />
									<shottake />
									<lognote />
									<good>FALSE</good>
								</logginginfo>
								<labels>
									<label2 />
								</labels>
								<comments>
									<mastercomment1 />
									<mastercomment2 />
									<mastercomment3 />
									<mastercomment4 />
								</comments>
								<file id="ArmA 3 2020.11.14 - 01.22.45.102" />
								<filter>
									<effect>
										<name>Audio Levels</name>
										<effectid>audiolevels</effectid>
										<effectcategory>audiolevels</effectcategory>
										<effecttype>audiolevels</effecttype>
										<mediatype>audio</mediatype>
										<parameter>
											<name>Level</name>
											<parameterid>level</parameterid>
											<valuemin>0</valuemin>
											<valuemax>3,98109</valuemax>
											<value>1</value>
										</parameter>
									</effect>
								</filter>
								<filter>
									<effect>
										<name>Audio Pan</name>
										<effectid>audiopan</effectid>
										<effectcategory>audiopan</effectcategory>
										<effecttype>audiopan</effecttype>
										<mediatype>audio</mediatype>
										<parameter>
											<name>Pan</name>
											<parameterid>pan</parameterid>
											<valuemin>-1</valuemin>
											<valuemax>1</valuemax>
											<value>-1</value>
										</parameter>
									</effect>
								</filter>
								<sourcetrack>
									<mediatype>audio</mediatype>
									<trackindex>1</trackindex>
								</sourcetrack>
								<link>
									<linkclipref>ArmA 3 2020.11.14 - 01.22.45.102.mp4805307664</linkclipref>
								</link>
								<link>
									<linkclipref>ArmA 3 2020.11.14 - 01.22.45.102.mp4536872209</linkclipref>
								</link>
								<link>
									<linkclipref>ArmA 3 2020.11.14 - 01.22.45.102.mp45368722091</linkclipref>
								</link>
								<link>
									<linkclipref>ArmA 3 2020.11.14 - 01.22.45.102.mp4536872210</linkclipref>
								</link>
								<link>
									<linkclipref>ArmA 3 2020.11.14 - 01.22.45.102.mp45368722101</linkclipref>
								</link>
							</clipitem>
							<clipitem id="ArmA 3 2020.11.14 - 01.24.35.103.mp4536872213">
								<name>ArmA 3 2020.11.14 - 01.24.35.103.mp4</name>
								<duration>1749</duration>
								<rate>
									<ntsc>TRUE</ntsc>
									<timebase>24</timebase>
								</rate>
								<in>0</in>
								<out>1749</out>
								<start>16968</start>
								<end>18717</end>
								<masterclipid>ArmA 3 2020.11.14 - 01.24.35.103.mp4</masterclipid>
								<logginginfo>
									<scene />
									<shottake />
									<lognote />
									<good>FALSE</good>
								</logginginfo>
								<labels>
									<label2 />
								</labels>
								<comments>
									<mastercomment1 />
									<mastercomment2 />
									<mastercomment3 />
									<mastercomment4 />
								</comments>
								<file id="ArmA 3 2020.11.14 - 01.24.35.103" />
								<filter>
									<effect>
										<name>Audio Levels</name>
										<effectid>audiolevels</effectid>
										<effectcategory>audiolevels</effectcategory>
										<effecttype>audiolevels</effecttype>
										<mediatype>audio</mediatype>
										<parameter>
											<name>Level</name>
											<parameterid>level</parameterid>
											<valuemin>0</valuemin>
											<valuemax>3,98109</valuemax>
											<value>1</value>
										</parameter>
									</effect>
								</filter>
								<filter>
									<effect>
										<name>Audio Pan</name>
										<effectid>audiopan</effectid>
										<effectcategory>audiopan</effectcategory>
										<effecttype>audiopan</effecttype>
										<mediatype>audio</mediatype>
										<parameter>
											<name>Pan</name>
											<parameterid>pan</parameterid>
											<valuemin>-1</valuemin>
											<valuemax>1</valuemax>
											<value>-1</value>
										</parameter>
									</effect>
								</filter>
								<sourcetrack>
									<mediatype>audio</mediatype>
									<trackindex>1</trackindex>
								</sourcetrack>
								<link>
									<linkclipref>ArmA 3 2020.11.14 - 01.24.35.103.mp4805307667</linkclipref>
								</link>
								<link>
									<linkclipref>ArmA 3 2020.11.14 - 01.24.35.103.mp4536872212</linkclipref>
								</link>
								<link>
									<linkclipref>ArmA 3 2020.11.14 - 01.24.35.103.mp45368722121</linkclipref>
								</link>
								<link>
									<linkclipref>ArmA 3 2020.11.14 - 01.24.35.103.mp4536872213</linkclipref>
								</link>
								<link>
									<linkclipref>ArmA 3 2020.11.14 - 01.24.35.103.mp45368722131</linkclipref>
								</link>
							</clipitem>
							<clipitem id="ArmA 3 2020.11.14 - 01.27.04.104.mp4536872216">
								<name>ArmA 3 2020.11.14 - 01.27.04.104.mp4</name>
								<duration>170</duration>
								<rate>
									<ntsc>TRUE</ntsc>
									<timebase>24</timebase>
								</rate>
								<in>0</in>
								<out>170</out>
								<start>18718</start>
								<end>18888</end>
								<masterclipid>ArmA 3 2020.11.14 - 01.27.04.104.mp4</masterclipid>
								<logginginfo>
									<scene />
									<shottake />
									<lognote />
									<good>FALSE</good>
								</logginginfo>
								<labels>
									<label2 />
								</labels>
								<comments>
									<mastercomment1 />
									<mastercomment2 />
									<mastercomment3 />
									<mastercomment4 />
								</comments>
								<file id="ArmA 3 2020.11.14 - 01.27.04.104" />
								<filter>
									<effect>
										<name>Audio Levels</name>
										<effectid>audiolevels</effectid>
										<effectcategory>audiolevels</effectcategory>
										<effecttype>audiolevels</effecttype>
										<mediatype>audio</mediatype>
										<parameter>
											<name>Level</name>
											<parameterid>level</parameterid>
											<valuemin>0</valuemin>
											<valuemax>3,98109</valuemax>
											<value>1</value>
										</parameter>
									</effect>
								</filter>
								<filter>
									<effect>
										<name>Audio Pan</name>
										<effectid>audiopan</effectid>
										<effectcategory>audiopan</effectcategory>
										<effecttype>audiopan</effecttype>
										<mediatype>audio</mediatype>
										<parameter>
											<name>Pan</name>
											<parameterid>pan</parameterid>
											<valuemin>-1</valuemin>
											<valuemax>1</valuemax>
											<value>-1</value>
										</parameter>
									</effect>
								</filter>
								<sourcetrack>
									<mediatype>audio</mediatype>
									<trackindex>1</trackindex>
								</sourcetrack>
								<link>
									<linkclipref>ArmA 3 2020.11.14 - 01.27.04.104.mp4805307670</linkclipref>
								</link>
								<link>
									<linkclipref>ArmA 3 2020.11.14 - 01.27.04.104.mp4536872215</linkclipref>
								</link>
								<link>
									<linkclipref>ArmA 3 2020.11.14 - 01.27.04.104.mp45368722151</linkclipref>
								</link>
								<link>
									<linkclipref>ArmA 3 2020.11.14 - 01.27.04.104.mp4536872216</linkclipref>
								</link>
								<link>
									<linkclipref>ArmA 3 2020.11.14 - 01.27.04.104.mp45368722161</linkclipref>
								</link>
							</clipitem>
							<clipitem id="ArmA 3 2020.11.14 - 01.27.36.105.mp4536872219">
								<name>ArmA 3 2020.11.14 - 01.27.36.105.mp4</name>
								<duration>747</duration>
								<rate>
									<ntsc>TRUE</ntsc>
									<timebase>24</timebase>
								</rate>
								<in>0</in>
								<out>747</out>
								<start>18889</start>
								<end>19636</end>
								<masterclipid>ArmA 3 2020.11.14 - 01.27.36.105.mp4</masterclipid>
								<logginginfo>
									<scene />
									<shottake />
									<lognote />
									<good>FALSE</good>
								</logginginfo>
								<labels>
									<label2 />
								</labels>
								<comments>
									<mastercomment1 />
									<mastercomment2 />
									<mastercomment3 />
									<mastercomment4 />
								</comments>
								<file id="ArmA 3 2020.11.14 - 01.27.36.105" />
								<filter>
									<effect>
										<name>Audio Levels</name>
										<effectid>audiolevels</effectid>
										<effectcategory>audiolevels</effectcategory>
										<effecttype>audiolevels</effecttype>
										<mediatype>audio</mediatype>
										<parameter>
											<name>Level</name>
											<parameterid>level</parameterid>
											<valuemin>0</valuemin>
											<valuemax>3,98109</valuemax>
											<value>1</value>
										</parameter>
									</effect>
								</filter>
								<filter>
									<effect>
										<name>Audio Pan</name>
										<effectid>audiopan</effectid>
										<effectcategory>audiopan</effectcategory>
										<effecttype>audiopan</effecttype>
										<mediatype>audio</mediatype>
										<parameter>
											<name>Pan</name>
											<parameterid>pan</parameterid>
											<valuemin>-1</valuemin>
											<valuemax>1</valuemax>
											<value>-1</value>
										</parameter>
									</effect>
								</filter>
								<sourcetrack>
									<mediatype>audio</mediatype>
									<trackindex>1</trackindex>
								</sourcetrack>
								<link>
									<linkclipref>ArmA 3 2020.11.14 - 01.27.36.105.mp4805307673</linkclipref>
								</link>
								<link>
									<linkclipref>ArmA 3 2020.11.14 - 01.27.36.105.mp4536872218</linkclipref>
								</link>
								<link>
									<linkclipref>ArmA 3 2020.11.14 - 01.27.36.105.mp45368722181</linkclipref>
								</link>
								<link>
									<linkclipref>ArmA 3 2020.11.14 - 01.27.36.105.mp4536872219</linkclipref>
								</link>
								<link>
									<linkclipref>ArmA 3 2020.11.14 - 01.27.36.105.mp45368722191</linkclipref>
								</link>
							</clipitem>
							<clipitem id="ArmA 3 2020.11.14 - 01.32.59.106.mp4536872222">
								<name>ArmA 3 2020.11.14 - 01.32.59.106.mp4</name>
								<duration>834</duration>
								<rate>
									<ntsc>TRUE</ntsc>
									<timebase>24</timebase>
								</rate>
								<in>0</in>
								<out>834</out>
								<start>19637</start>
								<end>20471</end>
								<masterclipid>ArmA 3 2020.11.14 - 01.32.59.106.mp4</masterclipid>
								<logginginfo>
									<scene />
									<shottake />
									<lognote />
									<good>FALSE</good>
								</logginginfo>
								<labels>
									<label2 />
								</labels>
								<comments>
									<mastercomment1 />
									<mastercomment2 />
									<mastercomment3 />
									<mastercomment4 />
								</comments>
								<file id="ArmA 3 2020.11.14 - 01.32.59.106" />
								<filter>
									<effect>
										<name>Audio Levels</name>
										<effectid>audiolevels</effectid>
										<effectcategory>audiolevels</effectcategory>
										<effecttype>audiolevels</effecttype>
										<mediatype>audio</mediatype>
										<parameter>
											<name>Level</name>
											<parameterid>level</parameterid>
											<valuemin>0</valuemin>
											<valuemax>3,98109</valuemax>
											<value>1</value>
										</parameter>
									</effect>
								</filter>
								<filter>
									<effect>
										<name>Audio Pan</name>
										<effectid>audiopan</effectid>
										<effectcategory>audiopan</effectcategory>
										<effecttype>audiopan</effecttype>
										<mediatype>audio</mediatype>
										<parameter>
											<name>Pan</name>
											<parameterid>pan</parameterid>
											<valuemin>-1</valuemin>
											<valuemax>1</valuemax>
											<value>-1</value>
										</parameter>
									</effect>
								</filter>
								<sourcetrack>
									<mediatype>audio</mediatype>
									<trackindex>1</trackindex>
								</sourcetrack>
								<link>
									<linkclipref>ArmA 3 2020.11.14 - 01.32.59.106.mp4805307676</linkclipref>
								</link>
								<link>
									<linkclipref>ArmA 3 2020.11.14 - 01.32.59.106.mp4536872221</linkclipref>
								</link>
								<link>
									<linkclipref>ArmA 3 2020.11.14 - 01.32.59.106.mp45368722211</linkclipref>
								</link>
								<link>
									<linkclipref>ArmA 3 2020.11.14 - 01.32.59.106.mp4536872222</linkclipref>
								</link>
								<link>
									<linkclipref>ArmA 3 2020.11.14 - 01.32.59.106.mp45368722221</linkclipref>
								</link>
							</clipitem>
							<clipitem id="ArmA 3 2020.11.14 - 01.34.00.107.mp4536872225">
								<name>ArmA 3 2020.11.14 - 01.34.00.107.mp4</name>
								<duration>670</duration>
								<rate>
									<ntsc>TRUE</ntsc>
									<timebase>24</timebase>
								</rate>
								<in>0</in>
								<out>670</out>
								<start>20472</start>
								<end>21142</end>
								<masterclipid>ArmA 3 2020.11.14 - 01.34.00.107.mp4</masterclipid>
								<logginginfo>
									<scene />
									<shottake />
									<lognote />
									<good>FALSE</good>
								</logginginfo>
								<labels>
									<label2 />
								</labels>
								<comments>
									<mastercomment1 />
									<mastercomment2 />
									<mastercomment3 />
									<mastercomment4 />
								</comments>
								<file id="ArmA 3 2020.11.14 - 01.34.00.107" />
								<filter>
									<effect>
										<name>Audio Levels</name>
										<effectid>audiolevels</effectid>
										<effectcategory>audiolevels</effectcategory>
										<effecttype>audiolevels</effecttype>
										<mediatype>audio</mediatype>
										<parameter>
											<name>Level</name>
											<parameterid>level</parameterid>
											<valuemin>0</valuemin>
											<valuemax>3,98109</valuemax>
											<value>1</value>
										</parameter>
									</effect>
								</filter>
								<filter>
									<effect>
										<name>Audio Pan</name>
										<effectid>audiopan</effectid>
										<effectcategory>audiopan</effectcategory>
										<effecttype>audiopan</effecttype>
										<mediatype>audio</mediatype>
										<parameter>
											<name>Pan</name>
											<parameterid>pan</parameterid>
											<valuemin>-1</valuemin>
											<valuemax>1</valuemax>
											<value>-1</value>
										</parameter>
									</effect>
								</filter>
								<sourcetrack>
									<mediatype>audio</mediatype>
									<trackindex>1</trackindex>
								</sourcetrack>
								<link>
									<linkclipref>ArmA 3 2020.11.14 - 01.34.00.107.mp4805307679</linkclipref>
								</link>
								<link>
									<linkclipref>ArmA 3 2020.11.14 - 01.34.00.107.mp4536872224</linkclipref>
								</link>
								<link>
									<linkclipref>ArmA 3 2020.11.14 - 01.34.00.107.mp45368722241</linkclipref>
								</link>
								<link>
									<linkclipref>ArmA 3 2020.11.14 - 01.34.00.107.mp4536872225</linkclipref>
								</link>
								<link>
									<linkclipref>ArmA 3 2020.11.14 - 01.34.00.107.mp45368722251</linkclipref>
								</link>
							</clipitem>
							<clipitem id="ArmA 3 2020.11.14 - 01.34.52.108.mp4536872228">
								<name>ArmA 3 2020.11.14 - 01.34.52.108.mp4</name>
								<duration>461</duration>
								<rate>
									<ntsc>TRUE</ntsc>
									<timebase>24</timebase>
								</rate>
								<in>0</in>
								<out>461</out>
								<start>21143</start>
								<end>21604</end>
								<masterclipid>ArmA 3 2020.11.14 - 01.34.52.108.mp4</masterclipid>
								<logginginfo>
									<scene />
									<shottake />
									<lognote />
									<good>FALSE</good>
								</logginginfo>
								<labels>
									<label2 />
								</labels>
								<comments>
									<mastercomment1 />
									<mastercomment2 />
									<mastercomment3 />
									<mastercomment4 />
								</comments>
								<file id="ArmA 3 2020.11.14 - 01.34.52.108" />
								<filter>
									<effect>
										<name>Audio Levels</name>
										<effectid>audiolevels</effectid>
										<effectcategory>audiolevels</effectcategory>
										<effecttype>audiolevels</effecttype>
										<mediatype>audio</mediatype>
										<parameter>
											<name>Level</name>
											<parameterid>level</parameterid>
											<valuemin>0</valuemin>
											<valuemax>3,98109</valuemax>
											<value>1</value>
										</parameter>
									</effect>
								</filter>
								<filter>
									<effect>
										<name>Audio Pan</name>
										<effectid>audiopan</effectid>
										<effectcategory>audiopan</effectcategory>
										<effecttype>audiopan</effecttype>
										<mediatype>audio</mediatype>
										<parameter>
											<name>Pan</name>
											<parameterid>pan</parameterid>
											<valuemin>-1</valuemin>
											<valuemax>1</valuemax>
											<value>-1</value>
										</parameter>
									</effect>
								</filter>
								<sourcetrack>
									<mediatype>audio</mediatype>
									<trackindex>1</trackindex>
								</sourcetrack>
								<link>
									<linkclipref>ArmA 3 2020.11.14 - 01.34.52.108.mp4805307682</linkclipref>
								</link>
								<link>
									<linkclipref>ArmA 3 2020.11.14 - 01.34.52.108.mp4536872227</linkclipref>
								</link>
								<link>
									<linkclipref>ArmA 3 2020.11.14 - 01.34.52.108.mp45368722271</linkclipref>
								</link>
								<link>
									<linkclipref>ArmA 3 2020.11.14 - 01.34.52.108.mp4536872228</linkclipref>
								</link>
								<link>
									<linkclipref>ArmA 3 2020.11.14 - 01.34.52.108.mp45368722281</linkclipref>
								</link>
							</clipitem>
							<clipitem id="ArmA 3 2020.11.14 - 01.35.14.109.mp4536872231">
								<name>ArmA 3 2020.11.14 - 01.35.14.109.mp4</name>
								<duration>115</duration>
								<rate>
									<ntsc>TRUE</ntsc>
									<timebase>24</timebase>
								</rate>
								<in>0</in>
								<out>115</out>
								<start>21605</start>
								<end>21720</end>
								<masterclipid>ArmA 3 2020.11.14 - 01.35.14.109.mp4</masterclipid>
								<logginginfo>
									<scene />
									<shottake />
									<lognote />
									<good>FALSE</good>
								</logginginfo>
								<labels>
									<label2 />
								</labels>
								<comments>
									<mastercomment1 />
									<mastercomment2 />
									<mastercomment3 />
									<mastercomment4 />
								</comments>
								<file id="ArmA 3 2020.11.14 - 01.35.14.109" />
								<filter>
									<effect>
										<name>Audio Levels</name>
										<effectid>audiolevels</effectid>
										<effectcategory>audiolevels</effectcategory>
										<effecttype>audiolevels</effecttype>
										<mediatype>audio</mediatype>
										<parameter>
											<name>Level</name>
											<parameterid>level</parameterid>
											<valuemin>0</valuemin>
											<valuemax>3,98109</valuemax>
											<value>1</value>
										</parameter>
									</effect>
								</filter>
								<filter>
									<effect>
										<name>Audio Pan</name>
										<effectid>audiopan</effectid>
										<effectcategory>audiopan</effectcategory>
										<effecttype>audiopan</effecttype>
										<mediatype>audio</mediatype>
										<parameter>
											<name>Pan</name>
											<parameterid>pan</parameterid>
											<valuemin>-1</valuemin>
											<valuemax>1</valuemax>
											<value>-1</value>
										</parameter>
									</effect>
								</filter>
								<sourcetrack>
									<mediatype>audio</mediatype>
									<trackindex>1</trackindex>
								</sourcetrack>
								<link>
									<linkclipref>ArmA 3 2020.11.14 - 01.35.14.109.mp4805307685</linkclipref>
								</link>
								<link>
									<linkclipref>ArmA 3 2020.11.14 - 01.35.14.109.mp4536872230</linkclipref>
								</link>
								<link>
									<linkclipref>ArmA 3 2020.11.14 - 01.35.14.109.mp45368722301</linkclipref>
								</link>
								<link>
									<linkclipref>ArmA 3 2020.11.14 - 01.35.14.109.mp4536872231</linkclipref>
								</link>
								<link>
									<linkclipref>ArmA 3 2020.11.14 - 01.35.14.109.mp45368722311</linkclipref>
								</link>
							</clipitem>
							<clipitem id="ArmA 3 2020.11.14 - 01.36.01.110.mp4536872234">
								<name>ArmA 3 2020.11.14 - 01.36.01.110.mp4</name>
								<duration>2427</duration>
								<rate>
									<ntsc>TRUE</ntsc>
									<timebase>24</timebase>
								</rate>
								<in>0</in>
								<out>2427</out>
								<start>21721</start>
								<end>24148</end>
								<masterclipid>ArmA 3 2020.11.14 - 01.36.01.110.mp4</masterclipid>
								<logginginfo>
									<scene />
									<shottake />
									<lognote />
									<good>FALSE</good>
								</logginginfo>
								<labels>
									<label2 />
								</labels>
								<comments>
									<mastercomment1 />
									<mastercomment2 />
									<mastercomment3 />
									<mastercomment4 />
								</comments>
								<file id="ArmA 3 2020.11.14 - 01.36.01.110" />
								<filter>
									<effect>
										<name>Audio Levels</name>
										<effectid>audiolevels</effectid>
										<effectcategory>audiolevels</effectcategory>
										<effecttype>audiolevels</effecttype>
										<mediatype>audio</mediatype>
										<parameter>
											<name>Level</name>
											<parameterid>level</parameterid>
											<valuemin>0</valuemin>
											<valuemax>3,98109</valuemax>
											<value>1</value>
										</parameter>
									</effect>
								</filter>
								<filter>
									<effect>
										<name>Audio Pan</name>
										<effectid>audiopan</effectid>
										<effectcategory>audiopan</effectcategory>
										<effecttype>audiopan</effecttype>
										<mediatype>audio</mediatype>
										<parameter>
											<name>Pan</name>
											<parameterid>pan</parameterid>
											<valuemin>-1</valuemin>
											<valuemax>1</valuemax>
											<value>-1</value>
										</parameter>
									</effect>
								</filter>
								<sourcetrack>
									<mediatype>audio</mediatype>
									<trackindex>1</trackindex>
								</sourcetrack>
								<link>
									<linkclipref>ArmA 3 2020.11.14 - 01.36.01.110.mp4805307688</linkclipref>
								</link>
								<link>
									<linkclipref>ArmA 3 2020.11.14 - 01.36.01.110.mp4536872233</linkclipref>
								</link>
								<link>
									<linkclipref>ArmA 3 2020.11.14 - 01.36.01.110.mp45368722331</linkclipref>
								</link>
								<link>
									<linkclipref>ArmA 3 2020.11.14 - 01.36.01.110.mp4536872234</linkclipref>
								</link>
								<link>
									<linkclipref>ArmA 3 2020.11.14 - 01.36.01.110.mp45368722341</linkclipref>
								</link>
							</clipitem>
							<clipitem id="ArmA 3 2020.11.14 - 01.37.46.111.mp4536872237">
								<name>ArmA 3 2020.11.14 - 01.37.46.111.mp4</name>
								<duration>2189</duration>
								<rate>
									<ntsc>TRUE</ntsc>
									<timebase>24</timebase>
								</rate>
								<in>0</in>
								<out>2189</out>
								<start>24149</start>
								<end>26338</end>
								<masterclipid>ArmA 3 2020.11.14 - 01.37.46.111.mp4</masterclipid>
								<logginginfo>
									<scene />
									<shottake />
									<lognote />
									<good>FALSE</good>
								</logginginfo>
								<labels>
									<label2 />
								</labels>
								<comments>
									<mastercomment1 />
									<mastercomment2 />
									<mastercomment3 />
									<mastercomment4 />
								</comments>
								<file id="ArmA 3 2020.11.14 - 01.37.46.111" />
								<filter>
									<effect>
										<name>Audio Levels</name>
										<effectid>audiolevels</effectid>
										<effectcategory>audiolevels</effectcategory>
										<effecttype>audiolevels</effecttype>
										<mediatype>audio</mediatype>
										<parameter>
											<name>Level</name>
											<parameterid>level</parameterid>
											<valuemin>0</valuemin>
											<valuemax>3,98109</valuemax>
											<value>1</value>
										</parameter>
									</effect>
								</filter>
								<filter>
									<effect>
										<name>Audio Pan</name>
										<effectid>audiopan</effectid>
										<effectcategory>audiopan</effectcategory>
										<effecttype>audiopan</effecttype>
										<mediatype>audio</mediatype>
										<parameter>
											<name>Pan</name>
											<parameterid>pan</parameterid>
											<valuemin>-1</valuemin>
											<valuemax>1</valuemax>
											<value>-1</value>
										</parameter>
									</effect>
								</filter>
								<sourcetrack>
									<mediatype>audio</mediatype>
									<trackindex>1</trackindex>
								</sourcetrack>
								<link>
									<linkclipref>ArmA 3 2020.11.14 - 01.37.46.111.mp4805307691</linkclipref>
								</link>
								<link>
									<linkclipref>ArmA 3 2020.11.14 - 01.37.46.111.mp4536872236</linkclipref>
								</link>
								<link>
									<linkclipref>ArmA 3 2020.11.14 - 01.37.46.111.mp45368722361</linkclipref>
								</link>
								<link>
									<linkclipref>ArmA 3 2020.11.14 - 01.37.46.111.mp4536872237</linkclipref>
								</link>
								<link>
									<linkclipref>ArmA 3 2020.11.14 - 01.37.46.111.mp45368722371</linkclipref>
								</link>
							</clipitem>
							<clipitem id="ArmA 3 2020.11.14 - 01.40.03.112.mp4536872240">
								<name>ArmA 3 2020.11.14 - 01.40.03.112.mp4</name>
								<duration>1199</duration>
								<rate>
									<ntsc>TRUE</ntsc>
									<timebase>24</timebase>
								</rate>
								<in>0</in>
								<out>1199</out>
								<start>26339</start>
								<end>27538</end>
								<masterclipid>ArmA 3 2020.11.14 - 01.40.03.112.mp4</masterclipid>
								<logginginfo>
									<scene />
									<shottake />
									<lognote />
									<good>FALSE</good>
								</logginginfo>
								<labels>
									<label2 />
								</labels>
								<comments>
									<mastercomment1 />
									<mastercomment2 />
									<mastercomment3 />
									<mastercomment4 />
								</comments>
								<file id="ArmA 3 2020.11.14 - 01.40.03.112" />
								<filter>
									<effect>
										<name>Audio Levels</name>
										<effectid>audiolevels</effectid>
										<effectcategory>audiolevels</effectcategory>
										<effecttype>audiolevels</effecttype>
										<mediatype>audio</mediatype>
										<parameter>
											<name>Level</name>
											<parameterid>level</parameterid>
											<valuemin>0</valuemin>
											<valuemax>3,98109</valuemax>
											<value>1</value>
										</parameter>
									</effect>
								</filter>
								<filter>
									<effect>
										<name>Audio Pan</name>
										<effectid>audiopan</effectid>
										<effectcategory>audiopan</effectcategory>
										<effecttype>audiopan</effecttype>
										<mediatype>audio</mediatype>
										<parameter>
											<name>Pan</name>
											<parameterid>pan</parameterid>
											<valuemin>-1</valuemin>
											<valuemax>1</valuemax>
											<value>-1</value>
										</parameter>
									</effect>
								</filter>
								<sourcetrack>
									<mediatype>audio</mediatype>
									<trackindex>1</trackindex>
								</sourcetrack>
								<link>
									<linkclipref>ArmA 3 2020.11.14 - 01.40.03.112.mp4805307694</linkclipref>
								</link>
								<link>
									<linkclipref>ArmA 3 2020.11.14 - 01.40.03.112.mp4536872239</linkclipref>
								</link>
								<link>
									<linkclipref>ArmA 3 2020.11.14 - 01.40.03.112.mp45368722391</linkclipref>
								</link>
								<link>
									<linkclipref>ArmA 3 2020.11.14 - 01.40.03.112.mp4536872240</linkclipref>
								</link>
								<link>
									<linkclipref>ArmA 3 2020.11.14 - 01.40.03.112.mp45368722401</linkclipref>
								</link>
							</clipitem>
							<clipitem id="ArmA 3 2020.11.14 - 01.41.02.113.mp4536872243">
								<name>ArmA 3 2020.11.14 - 01.41.02.113.mp4</name>
								<duration>927</duration>
								<rate>
									<ntsc>TRUE</ntsc>
									<timebase>24</timebase>
								</rate>
								<in>0</in>
								<out>927</out>
								<start>27539</start>
								<end>28466</end>
								<masterclipid>ArmA 3 2020.11.14 - 01.41.02.113.mp4</masterclipid>
								<logginginfo>
									<scene />
									<shottake />
									<lognote />
									<good>FALSE</good>
								</logginginfo>
								<labels>
									<label2 />
								</labels>
								<comments>
									<mastercomment1 />
									<mastercomment2 />
									<mastercomment3 />
									<mastercomment4 />
								</comments>
								<file id="ArmA 3 2020.11.14 - 01.41.02.113" />
								<filter>
									<effect>
										<name>Audio Levels</name>
										<effectid>audiolevels</effectid>
										<effectcategory>audiolevels</effectcategory>
										<effecttype>audiolevels</effecttype>
										<mediatype>audio</mediatype>
										<parameter>
											<name>Level</name>
											<parameterid>level</parameterid>
											<valuemin>0</valuemin>
											<valuemax>3,98109</valuemax>
											<value>1</value>
										</parameter>
									</effect>
								</filter>
								<filter>
									<effect>
										<name>Audio Pan</name>
										<effectid>audiopan</effectid>
										<effectcategory>audiopan</effectcategory>
										<effecttype>audiopan</effecttype>
										<mediatype>audio</mediatype>
										<parameter>
											<name>Pan</name>
											<parameterid>pan</parameterid>
											<valuemin>-1</valuemin>
											<valuemax>1</valuemax>
											<value>-1</value>
										</parameter>
									</effect>
								</filter>
								<sourcetrack>
									<mediatype>audio</mediatype>
									<trackindex>1</trackindex>
								</sourcetrack>
								<link>
									<linkclipref>ArmA 3 2020.11.14 - 01.41.02.113.mp4805307697</linkclipref>
								</link>
								<link>
									<linkclipref>ArmA 3 2020.11.14 - 01.41.02.113.mp4536872242</linkclipref>
								</link>
								<link>
									<linkclipref>ArmA 3 2020.11.14 - 01.41.02.113.mp45368722421</linkclipref>
								</link>
								<link>
									<linkclipref>ArmA 3 2020.11.14 - 01.41.02.113.mp4536872243</linkclipref>
								</link>
								<link>
									<linkclipref>ArmA 3 2020.11.14 - 01.41.02.113.mp45368722431</linkclipref>
								</link>
							</clipitem>
							<clipitem id="ArmA 3 2020.11.14 - 01.42.04.114.mp4536872246">
								<name>ArmA 3 2020.11.14 - 01.42.04.114.mp4</name>
								<duration>871</duration>
								<rate>
									<ntsc>TRUE</ntsc>
									<timebase>24</timebase>
								</rate>
								<in>0</in>
								<out>871</out>
								<start>28467</start>
								<end>29338</end>
								<masterclipid>ArmA 3 2020.11.14 - 01.42.04.114.mp4</masterclipid>
								<logginginfo>
									<scene />
									<shottake />
									<lognote />
									<good>FALSE</good>
								</logginginfo>
								<labels>
									<label2 />
								</labels>
								<comments>
									<mastercomment1 />
									<mastercomment2 />
									<mastercomment3 />
									<mastercomment4 />
								</comments>
								<file id="ArmA 3 2020.11.14 - 01.42.04.114" />
								<filter>
									<effect>
										<name>Audio Levels</name>
										<effectid>audiolevels</effectid>
										<effectcategory>audiolevels</effectcategory>
										<effecttype>audiolevels</effecttype>
										<mediatype>audio</mediatype>
										<parameter>
											<name>Level</name>
											<parameterid>level</parameterid>
											<valuemin>0</valuemin>
											<valuemax>3,98109</valuemax>
											<value>1</value>
										</parameter>
									</effect>
								</filter>
								<filter>
									<effect>
										<name>Audio Pan</name>
										<effectid>audiopan</effectid>
										<effectcategory>audiopan</effectcategory>
										<effecttype>audiopan</effecttype>
										<mediatype>audio</mediatype>
										<parameter>
											<name>Pan</name>
											<parameterid>pan</parameterid>
											<valuemin>-1</valuemin>
											<valuemax>1</valuemax>
											<value>-1</value>
										</parameter>
									</effect>
								</filter>
								<sourcetrack>
									<mediatype>audio</mediatype>
									<trackindex>1</trackindex>
								</sourcetrack>
								<link>
									<linkclipref>ArmA 3 2020.11.14 - 01.42.04.114.mp4805307700</linkclipref>
								</link>
								<link>
									<linkclipref>ArmA 3 2020.11.14 - 01.42.04.114.mp4536872245</linkclipref>
								</link>
								<link>
									<linkclipref>ArmA 3 2020.11.14 - 01.42.04.114.mp45368722451</linkclipref>
								</link>
								<link>
									<linkclipref>ArmA 3 2020.11.14 - 01.42.04.114.mp4536872246</linkclipref>
								</link>
								<link>
									<linkclipref>ArmA 3 2020.11.14 - 01.42.04.114.mp45368722461</linkclipref>
								</link>
							</clipitem>
							<clipitem id="ArmA 3 2020.11.14 - 01.44.22.115.mp4536872249">
								<name>ArmA 3 2020.11.14 - 01.44.22.115.mp4</name>
								<duration>519</duration>
								<rate>
									<ntsc>TRUE</ntsc>
									<timebase>24</timebase>
								</rate>
								<in>0</in>
								<out>519</out>
								<start>29339</start>
								<end>29858</end>
								<masterclipid>ArmA 3 2020.11.14 - 01.44.22.115.mp4</masterclipid>
								<logginginfo>
									<scene />
									<shottake />
									<lognote />
									<good>FALSE</good>
								</logginginfo>
								<labels>
									<label2 />
								</labels>
								<comments>
									<mastercomment1 />
									<mastercomment2 />
									<mastercomment3 />
									<mastercomment4 />
								</comments>
								<file id="ArmA 3 2020.11.14 - 01.44.22.115" />
								<filter>
									<effect>
										<name>Audio Levels</name>
										<effectid>audiolevels</effectid>
										<effectcategory>audiolevels</effectcategory>
										<effecttype>audiolevels</effecttype>
										<mediatype>audio</mediatype>
										<parameter>
											<name>Level</name>
											<parameterid>level</parameterid>
											<valuemin>0</valuemin>
											<valuemax>3,98109</valuemax>
											<value>1</value>
										</parameter>
									</effect>
								</filter>
								<filter>
									<effect>
										<name>Audio Pan</name>
										<effectid>audiopan</effectid>
										<effectcategory>audiopan</effectcategory>
										<effecttype>audiopan</effecttype>
										<mediatype>audio</mediatype>
										<parameter>
											<name>Pan</name>
											<parameterid>pan</parameterid>
											<valuemin>-1</valuemin>
											<valuemax>1</valuemax>
											<value>-1</value>
										</parameter>
									</effect>
								</filter>
								<sourcetrack>
									<mediatype>audio</mediatype>
									<trackindex>1</trackindex>
								</sourcetrack>
								<link>
									<linkclipref>ArmA 3 2020.11.14 - 01.44.22.115.mp4805307703</linkclipref>
								</link>
								<link>
									<linkclipref>ArmA 3 2020.11.14 - 01.44.22.115.mp4536872248</linkclipref>
								</link>
								<link>
									<linkclipref>ArmA 3 2020.11.14 - 01.44.22.115.mp45368722481</linkclipref>
								</link>
								<link>
									<linkclipref>ArmA 3 2020.11.14 - 01.44.22.115.mp4536872249</linkclipref>
								</link>
								<link>
									<linkclipref>ArmA 3 2020.11.14 - 01.44.22.115.mp45368722491</linkclipref>
								</link>
							</clipitem>
							<clipitem id="ArmA 3 2020.11.14 - 01.44.58.116.mp4536872252">
								<name>ArmA 3 2020.11.14 - 01.44.58.116.mp4</name>
								<duration>882</duration>
								<rate>
									<ntsc>TRUE</ntsc>
									<timebase>24</timebase>
								</rate>
								<in>0</in>
								<out>882</out>
								<start>29859</start>
								<end>30741</end>
								<masterclipid>ArmA 3 2020.11.14 - 01.44.58.116.mp4</masterclipid>
								<logginginfo>
									<scene />
									<shottake />
									<lognote />
									<good>FALSE</good>
								</logginginfo>
								<labels>
									<label2 />
								</labels>
								<comments>
									<mastercomment1 />
									<mastercomment2 />
									<mastercomment3 />
									<mastercomment4 />
								</comments>
								<file id="ArmA 3 2020.11.14 - 01.44.58.116" />
								<filter>
									<effect>
										<name>Audio Levels</name>
										<effectid>audiolevels</effectid>
										<effectcategory>audiolevels</effectcategory>
										<effecttype>audiolevels</effecttype>
										<mediatype>audio</mediatype>
										<parameter>
											<name>Level</name>
											<parameterid>level</parameterid>
											<valuemin>0</valuemin>
											<valuemax>3,98109</valuemax>
											<value>1</value>
										</parameter>
									</effect>
								</filter>
								<filter>
									<effect>
										<name>Audio Pan</name>
										<effectid>audiopan</effectid>
										<effectcategory>audiopan</effectcategory>
										<effecttype>audiopan</effecttype>
										<mediatype>audio</mediatype>
										<parameter>
											<name>Pan</name>
											<parameterid>pan</parameterid>
											<valuemin>-1</valuemin>
											<valuemax>1</valuemax>
											<value>-1</value>
										</parameter>
									</effect>
								</filter>
								<sourcetrack>
									<mediatype>audio</mediatype>
									<trackindex>1</trackindex>
								</sourcetrack>
								<link>
									<linkclipref>ArmA 3 2020.11.14 - 01.44.58.116.mp4805307706</linkclipref>
								</link>
								<link>
									<linkclipref>ArmA 3 2020.11.14 - 01.44.58.116.mp4536872251</linkclipref>
								</link>
								<link>
									<linkclipref>ArmA 3 2020.11.14 - 01.44.58.116.mp45368722511</linkclipref>
								</link>
								<link>
									<linkclipref>ArmA 3 2020.11.14 - 01.44.58.116.mp4536872252</linkclipref>
								</link>
								<link>
									<linkclipref>ArmA 3 2020.11.14 - 01.44.58.116.mp45368722521</linkclipref>
								</link>
							</clipitem>
							<clipitem id="ArmA 3 2020.11.14 - 01.48.52.117.mp4536872255">
								<name>ArmA 3 2020.11.14 - 01.48.52.117.mp4</name>
								<duration>628</duration>
								<rate>
									<ntsc>TRUE</ntsc>
									<timebase>24</timebase>
								</rate>
								<in>0</in>
								<out>628</out>
								<start>30742</start>
								<end>31370</end>
								<masterclipid>ArmA 3 2020.11.14 - 01.48.52.117.mp4</masterclipid>
								<logginginfo>
									<scene />
									<shottake />
									<lognote />
									<good>FALSE</good>
								</logginginfo>
								<labels>
									<label2 />
								</labels>
								<comments>
									<mastercomment1 />
									<mastercomment2 />
									<mastercomment3 />
									<mastercomment4 />
								</comments>
								<file id="ArmA 3 2020.11.14 - 01.48.52.117" />
								<filter>
									<effect>
										<name>Audio Levels</name>
										<effectid>audiolevels</effectid>
										<effectcategory>audiolevels</effectcategory>
										<effecttype>audiolevels</effecttype>
										<mediatype>audio</mediatype>
										<parameter>
											<name>Level</name>
											<parameterid>level</parameterid>
											<valuemin>0</valuemin>
											<valuemax>3,98109</valuemax>
											<value>1</value>
										</parameter>
									</effect>
								</filter>
								<filter>
									<effect>
										<name>Audio Pan</name>
										<effectid>audiopan</effectid>
										<effectcategory>audiopan</effectcategory>
										<effecttype>audiopan</effecttype>
										<mediatype>audio</mediatype>
										<parameter>
											<name>Pan</name>
											<parameterid>pan</parameterid>
											<valuemin>-1</valuemin>
											<valuemax>1</valuemax>
											<value>-1</value>
										</parameter>
									</effect>
								</filter>
								<sourcetrack>
									<mediatype>audio</mediatype>
									<trackindex>1</trackindex>
								</sourcetrack>
								<link>
									<linkclipref>ArmA 3 2020.11.14 - 01.48.52.117.mp4805307709</linkclipref>
								</link>
								<link>
									<linkclipref>ArmA 3 2020.11.14 - 01.48.52.117.mp4536872254</linkclipref>
								</link>
								<link>
									<linkclipref>ArmA 3 2020.11.14 - 01.48.52.117.mp45368722541</linkclipref>
								</link>
								<link>
									<linkclipref>ArmA 3 2020.11.14 - 01.48.52.117.mp4536872255</linkclipref>
								</link>
								<link>
									<linkclipref>ArmA 3 2020.11.14 - 01.48.52.117.mp45368722551</linkclipref>
								</link>
							</clipitem>
							<clipitem id="ArmA 3 2020.11.14 - 01.48.52.117.mp4536872258">
								<name>ArmA 3 2020.11.14 - 01.48.52.117.mp4</name>
								<duration>628</duration>
								<rate>
									<ntsc>TRUE</ntsc>
									<timebase>24</timebase>
								</rate>
								<in>0</in>
								<out>628</out>
								<start>31371</start>
								<end>31999</end>
								<masterclipid>ArmA 3 2020.11.14 - 01.48.52.117.mp4</masterclipid>
								<logginginfo>
									<scene />
									<shottake />
									<lognote />
									<good>FALSE</good>
								</logginginfo>
								<labels>
									<label2 />
								</labels>
								<comments>
									<mastercomment1 />
									<mastercomment2 />
									<mastercomment3 />
									<mastercomment4 />
								</comments>
								<file id="ArmA 3 2020.11.14 - 01.48.52.117" />
								<filter>
									<effect>
										<name>Audio Levels</name>
										<effectid>audiolevels</effectid>
										<effectcategory>audiolevels</effectcategory>
										<effecttype>audiolevels</effecttype>
										<mediatype>audio</mediatype>
										<parameter>
											<name>Level</name>
											<parameterid>level</parameterid>
											<valuemin>0</valuemin>
											<valuemax>3,98109</valuemax>
											<value>1</value>
										</parameter>
									</effect>
								</filter>
								<filter>
									<effect>
										<name>Audio Pan</name>
										<effectid>audiopan</effectid>
										<effectcategory>audiopan</effectcategory>
										<effecttype>audiopan</effecttype>
										<mediatype>audio</mediatype>
										<parameter>
											<name>Pan</name>
											<parameterid>pan</parameterid>
											<valuemin>-1</valuemin>
											<valuemax>1</valuemax>
											<value>-1</value>
										</parameter>
									</effect>
								</filter>
								<sourcetrack>
									<mediatype>audio</mediatype>
									<trackindex>1</trackindex>
								</sourcetrack>
								<link>
									<linkclipref>ArmA 3 2020.11.14 - 01.48.52.117.mp4805307712</linkclipref>
								</link>
								<link>
									<linkclipref>ArmA 3 2020.11.14 - 01.48.52.117.mp4536872257</linkclipref>
								</link>
								<link>
									<linkclipref>ArmA 3 2020.11.14 - 01.48.52.117.mp45368722571</linkclipref>
								</link>
								<link>
									<linkclipref>ArmA 3 2020.11.14 - 01.48.52.117.mp4536872258</linkclipref>
								</link>
								<link>
									<linkclipref>ArmA 3 2020.11.14 - 01.48.52.117.mp45368722581</linkclipref>
								</link>
							</clipitem>
							<clipitem id="ArmA 3 2020.11.14 - 01.49.37.118.mp4536872261">
								<name>ArmA 3 2020.11.14 - 01.49.37.118.mp4</name>
								<duration>1699</duration>
								<rate>
									<ntsc>TRUE</ntsc>
									<timebase>24</timebase>
								</rate>
								<in>0</in>
								<out>1699</out>
								<start>32000</start>
								<end>33699</end>
								<masterclipid>ArmA 3 2020.11.14 - 01.49.37.118.mp4</masterclipid>
								<logginginfo>
									<scene />
									<shottake />
									<lognote />
									<good>FALSE</good>
								</logginginfo>
								<labels>
									<label2 />
								</labels>
								<comments>
									<mastercomment1 />
									<mastercomment2 />
									<mastercomment3 />
									<mastercomment4 />
								</comments>
								<file id="ArmA 3 2020.11.14 - 01.49.37.118" />
								<filter>
									<effect>
										<name>Audio Levels</name>
										<effectid>audiolevels</effectid>
										<effectcategory>audiolevels</effectcategory>
										<effecttype>audiolevels</effecttype>
										<mediatype>audio</mediatype>
										<parameter>
											<name>Level</name>
											<parameterid>level</parameterid>
											<valuemin>0</valuemin>
											<valuemax>3,98109</valuemax>
											<value>1</value>
										</parameter>
									</effect>
								</filter>
								<filter>
									<effect>
										<name>Audio Pan</name>
										<effectid>audiopan</effectid>
										<effectcategory>audiopan</effectcategory>
										<effecttype>audiopan</effecttype>
										<mediatype>audio</mediatype>
										<parameter>
											<name>Pan</name>
											<parameterid>pan</parameterid>
											<valuemin>-1</valuemin>
											<valuemax>1</valuemax>
											<value>-1</value>
										</parameter>
									</effect>
								</filter>
								<sourcetrack>
									<mediatype>audio</mediatype>
									<trackindex>1</trackindex>
								</sourcetrack>
								<link>
									<linkclipref>ArmA 3 2020.11.14 - 01.49.37.118.mp4805307715</linkclipref>
								</link>
								<link>
									<linkclipref>ArmA 3 2020.11.14 - 01.49.37.118.mp4536872260</linkclipref>
								</link>
								<link>
									<linkclipref>ArmA 3 2020.11.14 - 01.49.37.118.mp45368722601</linkclipref>
								</link>
								<link>
									<linkclipref>ArmA 3 2020.11.14 - 01.49.37.118.mp4536872261</linkclipref>
								</link>
								<link>
									<linkclipref>ArmA 3 2020.11.14 - 01.49.37.118.mp45368722611</linkclipref>
								</link>
							</clipitem>
							<clipitem id="ArmA 3 2020.11.14 - 01.54.33.119.mp4536872264">
								<name>ArmA 3 2020.11.14 - 01.54.33.119.mp4</name>
								<duration>772</duration>
								<rate>
									<ntsc>TRUE</ntsc>
									<timebase>24</timebase>
								</rate>
								<in>0</in>
								<out>772</out>
								<start>33700</start>
								<end>34472</end>
								<masterclipid>ArmA 3 2020.11.14 - 01.54.33.119.mp4</masterclipid>
								<logginginfo>
									<scene />
									<shottake />
									<lognote />
									<good>FALSE</good>
								</logginginfo>
								<labels>
									<label2 />
								</labels>
								<comments>
									<mastercomment1 />
									<mastercomment2 />
									<mastercomment3 />
									<mastercomment4 />
								</comments>
								<file id="ArmA 3 2020.11.14 - 01.54.33.119" />
								<filter>
									<effect>
										<name>Audio Levels</name>
										<effectid>audiolevels</effectid>
										<effectcategory>audiolevels</effectcategory>
										<effecttype>audiolevels</effecttype>
										<mediatype>audio</mediatype>
										<parameter>
											<name>Level</name>
											<parameterid>level</parameterid>
											<valuemin>0</valuemin>
											<valuemax>3,98109</valuemax>
											<value>1</value>
										</parameter>
									</effect>
								</filter>
								<filter>
									<effect>
										<name>Audio Pan</name>
										<effectid>audiopan</effectid>
										<effectcategory>audiopan</effectcategory>
										<effecttype>audiopan</effecttype>
										<mediatype>audio</mediatype>
										<parameter>
											<name>Pan</name>
											<parameterid>pan</parameterid>
											<valuemin>-1</valuemin>
											<valuemax>1</valuemax>
											<value>-1</value>
										</parameter>
									</effect>
								</filter>
								<sourcetrack>
									<mediatype>audio</mediatype>
									<trackindex>1</trackindex>
								</sourcetrack>
								<link>
									<linkclipref>ArmA 3 2020.11.14 - 01.54.33.119.mp4805307718</linkclipref>
								</link>
								<link>
									<linkclipref>ArmA 3 2020.11.14 - 01.54.33.119.mp4536872263</linkclipref>
								</link>
								<link>
									<linkclipref>ArmA 3 2020.11.14 - 01.54.33.119.mp45368722631</linkclipref>
								</link>
								<link>
									<linkclipref>ArmA 3 2020.11.14 - 01.54.33.119.mp4536872264</linkclipref>
								</link>
								<link>
									<linkclipref>ArmA 3 2020.11.14 - 01.54.33.119.mp45368722641</linkclipref>
								</link>
							</clipitem>
							<clipitem id="ArmA 3 2020.11.14 - 01.56.32.120.mp4536872267">
								<name>ArmA 3 2020.11.14 - 01.56.32.120.mp4</name>
								<duration>1087</duration>
								<rate>
									<ntsc>TRUE</ntsc>
									<timebase>24</timebase>
								</rate>
								<in>0</in>
								<out>1087</out>
								<start>34473</start>
								<end>35560</end>
								<masterclipid>ArmA 3 2020.11.14 - 01.56.32.120.mp4</masterclipid>
								<logginginfo>
									<scene />
									<shottake />
									<lognote />
									<good>FALSE</good>
								</logginginfo>
								<labels>
									<label2 />
								</labels>
								<comments>
									<mastercomment1 />
									<mastercomment2 />
									<mastercomment3 />
									<mastercomment4 />
								</comments>
								<file id="ArmA 3 2020.11.14 - 01.56.32.120" />
								<filter>
									<effect>
										<name>Audio Levels</name>
										<effectid>audiolevels</effectid>
										<effectcategory>audiolevels</effectcategory>
										<effecttype>audiolevels</effecttype>
										<mediatype>audio</mediatype>
										<parameter>
											<name>Level</name>
											<parameterid>level</parameterid>
											<valuemin>0</valuemin>
											<valuemax>3,98109</valuemax>
											<value>1</value>
										</parameter>
									</effect>
								</filter>
								<filter>
									<effect>
										<name>Audio Pan</name>
										<effectid>audiopan</effectid>
										<effectcategory>audiopan</effectcategory>
										<effecttype>audiopan</effecttype>
										<mediatype>audio</mediatype>
										<parameter>
											<name>Pan</name>
											<parameterid>pan</parameterid>
											<valuemin>-1</valuemin>
											<valuemax>1</valuemax>
											<value>-1</value>
										</parameter>
									</effect>
								</filter>
								<sourcetrack>
									<mediatype>audio</mediatype>
									<trackindex>1</trackindex>
								</sourcetrack>
								<link>
									<linkclipref>ArmA 3 2020.11.14 - 01.56.32.120.mp4805307721</linkclipref>
								</link>
								<link>
									<linkclipref>ArmA 3 2020.11.14 - 01.56.32.120.mp4536872266</linkclipref>
								</link>
								<link>
									<linkclipref>ArmA 3 2020.11.14 - 01.56.32.120.mp45368722661</linkclipref>
								</link>
								<link>
									<linkclipref>ArmA 3 2020.11.14 - 01.56.32.120.mp4536872267</linkclipref>
								</link>
								<link>
									<linkclipref>ArmA 3 2020.11.14 - 01.56.32.120.mp45368722671</linkclipref>
								</link>
							</clipitem>
							<clipitem id="ArmA 3 2020.11.14 - 01.57.19.121.mp4536872270">
								<name>ArmA 3 2020.11.14 - 01.57.19.121.mp4</name>
								<duration>263</duration>
								<rate>
									<ntsc>TRUE</ntsc>
									<timebase>24</timebase>
								</rate>
								<in>0</in>
								<out>263</out>
								<start>35561</start>
								<end>35824</end>
								<masterclipid>ArmA 3 2020.11.14 - 01.57.19.121.mp4</masterclipid>
								<logginginfo>
									<scene />
									<shottake />
									<lognote />
									<good>FALSE</good>
								</logginginfo>
								<labels>
									<label2 />
								</labels>
								<comments>
									<mastercomment1 />
									<mastercomment2 />
									<mastercomment3 />
									<mastercomment4 />
								</comments>
								<file id="ArmA 3 2020.11.14 - 01.57.19.121" />
								<filter>
									<effect>
										<name>Audio Levels</name>
										<effectid>audiolevels</effectid>
										<effectcategory>audiolevels</effectcategory>
										<effecttype>audiolevels</effecttype>
										<mediatype>audio</mediatype>
										<parameter>
											<name>Level</name>
											<parameterid>level</parameterid>
											<valuemin>0</valuemin>
											<valuemax>3,98109</valuemax>
											<value>1</value>
										</parameter>
									</effect>
								</filter>
								<filter>
									<effect>
										<name>Audio Pan</name>
										<effectid>audiopan</effectid>
										<effectcategory>audiopan</effectcategory>
										<effecttype>audiopan</effecttype>
										<mediatype>audio</mediatype>
										<parameter>
											<name>Pan</name>
											<parameterid>pan</parameterid>
											<valuemin>-1</valuemin>
											<valuemax>1</valuemax>
											<value>-1</value>
										</parameter>
									</effect>
								</filter>
								<sourcetrack>
									<mediatype>audio</mediatype>
									<trackindex>1</trackindex>
								</sourcetrack>
								<link>
									<linkclipref>ArmA 3 2020.11.14 - 01.57.19.121.mp4805307724</linkclipref>
								</link>
								<link>
									<linkclipref>ArmA 3 2020.11.14 - 01.57.19.121.mp4536872269</linkclipref>
								</link>
								<link>
									<linkclipref>ArmA 3 2020.11.14 - 01.57.19.121.mp45368722691</linkclipref>
								</link>
								<link>
									<linkclipref>ArmA 3 2020.11.14 - 01.57.19.121.mp4536872270</linkclipref>
								</link>
								<link>
									<linkclipref>ArmA 3 2020.11.14 - 01.57.19.121.mp45368722701</linkclipref>
								</link>
							</clipitem>
							<clipitem id="ArmA 3 2020.11.14 - 01.58.13.122.mp4536872273">
								<name>ArmA 3 2020.11.14 - 01.58.13.122.mp4</name>
								<duration>562</duration>
								<rate>
									<ntsc>TRUE</ntsc>
									<timebase>24</timebase>
								</rate>
								<in>0</in>
								<out>562</out>
								<start>35825</start>
								<end>36387</end>
								<masterclipid>ArmA 3 2020.11.14 - 01.58.13.122.mp4</masterclipid>
								<logginginfo>
									<scene />
									<shottake />
									<lognote />
									<good>FALSE</good>
								</logginginfo>
								<labels>
									<label2 />
								</labels>
								<comments>
									<mastercomment1 />
									<mastercomment2 />
									<mastercomment3 />
									<mastercomment4 />
								</comments>
								<file id="ArmA 3 2020.11.14 - 01.58.13.122" />
								<filter>
									<effect>
										<name>Audio Levels</name>
										<effectid>audiolevels</effectid>
										<effectcategory>audiolevels</effectcategory>
										<effecttype>audiolevels</effecttype>
										<mediatype>audio</mediatype>
										<parameter>
											<name>Level</name>
											<parameterid>level</parameterid>
											<valuemin>0</valuemin>
											<valuemax>3,98109</valuemax>
											<value>1</value>
										</parameter>
									</effect>
								</filter>
								<filter>
									<effect>
										<name>Audio Pan</name>
										<effectid>audiopan</effectid>
										<effectcategory>audiopan</effectcategory>
										<effecttype>audiopan</effecttype>
										<mediatype>audio</mediatype>
										<parameter>
											<name>Pan</name>
											<parameterid>pan</parameterid>
											<valuemin>-1</valuemin>
											<valuemax>1</valuemax>
											<value>-1</value>
										</parameter>
									</effect>
								</filter>
								<sourcetrack>
									<mediatype>audio</mediatype>
									<trackindex>1</trackindex>
								</sourcetrack>
								<link>
									<linkclipref>ArmA 3 2020.11.14 - 01.58.13.122.mp4805307727</linkclipref>
								</link>
								<link>
									<linkclipref>ArmA 3 2020.11.14 - 01.58.13.122.mp4536872272</linkclipref>
								</link>
								<link>
									<linkclipref>ArmA 3 2020.11.14 - 01.58.13.122.mp45368722721</linkclipref>
								</link>
								<link>
									<linkclipref>ArmA 3 2020.11.14 - 01.58.13.122.mp4536872273</linkclipref>
								</link>
								<link>
									<linkclipref>ArmA 3 2020.11.14 - 01.58.13.122.mp45368722731</linkclipref>
								</link>
							</clipitem>
						</track>
						<track>
							<clipitem id="ArmA 3 2020.11.14 - 00.58.28.78.mp45368721381">
								<name>ArmA 3 2020.11.14 - 00.58.28.78.mp4</name>
								<duration>529</duration>
								<rate>
									<ntsc>TRUE</ntsc>
									<timebase>24</timebase>
								</rate>
								<in>0</in>
								<out>529</out>
								<start>0</start>
								<end>529</end>
								<masterclipid>ArmA 3 2020.11.14 - 00.58.28.78.mp4</masterclipid>
								<logginginfo>
									<scene />
									<shottake />
									<lognote />
									<good>FALSE</good>
								</logginginfo>
								<labels>
									<label2 />
								</labels>
								<comments>
									<mastercomment1 />
									<mastercomment2 />
									<mastercomment3 />
									<mastercomment4 />
								</comments>
								<file id="ArmA 3 2020.11.14 - 00.58.28.78" />
								<filter>
									<effect>
										<name>Audio Levels</name>
										<effectid>audiolevels</effectid>
										<effectcategory>audiolevels</effectcategory>
										<effecttype>audiolevels</effecttype>
										<mediatype>audio</mediatype>
										<parameter>
											<name>Level</name>
											<parameterid>level</parameterid>
											<valuemin>0</valuemin>
											<valuemax>3,98109</valuemax>
											<value>1</value>
										</parameter>
									</effect>
								</filter>
								<filter>
									<effect>
										<name>Audio Pan</name>
										<effectid>audiopan</effectid>
										<effectcategory>audiopan</effectcategory>
										<effecttype>audiopan</effecttype>
										<mediatype>audio</mediatype>
										<parameter>
											<name>Pan</name>
											<parameterid>pan</parameterid>
											<valuemin>-1</valuemin>
											<valuemax>1</valuemax>
											<value>1</value>
										</parameter>
									</effect>
								</filter>
								<sourcetrack>
									<mediatype>audio</mediatype>
									<trackindex>2</trackindex>
								</sourcetrack>
								<link>
									<linkclipref>ArmA 3 2020.11.14 - 00.58.28.78.mp4805307592</linkclipref>
								</link>
								<link>
									<linkclipref>ArmA 3 2020.11.14 - 00.58.28.78.mp4536872137</linkclipref>
								</link>
								<link>
									<linkclipref>ArmA 3 2020.11.14 - 00.58.28.78.mp45368721371</linkclipref>
								</link>
								<link>
									<linkclipref>ArmA 3 2020.11.14 - 00.58.28.78.mp4536872138</linkclipref>
								</link>
								<link>
									<linkclipref>ArmA 3 2020.11.14 - 00.58.28.78.mp45368721381</linkclipref>
								</link>
							</clipitem>
							<clipitem id="ArmA 3 2020.11.14 - 00.59.31.79.mp45368721411">
								<name>ArmA 3 2020.11.14 - 00.59.31.79.mp4</name>
								<duration>605</duration>
								<rate>
									<ntsc>TRUE</ntsc>
									<timebase>24</timebase>
								</rate>
								<in>0</in>
								<out>605</out>
								<start>530</start>
								<end>1135</end>
								<masterclipid>ArmA 3 2020.11.14 - 00.59.31.79.mp4</masterclipid>
								<logginginfo>
									<scene />
									<shottake />
									<lognote />
									<good>FALSE</good>
								</logginginfo>
								<labels>
									<label2 />
								</labels>
								<comments>
									<mastercomment1 />
									<mastercomment2 />
									<mastercomment3 />
									<mastercomment4 />
								</comments>
								<file id="ArmA 3 2020.11.14 - 00.59.31.79" />
								<filter>
									<effect>
										<name>Audio Levels</name>
										<effectid>audiolevels</effectid>
										<effectcategory>audiolevels</effectcategory>
										<effecttype>audiolevels</effecttype>
										<mediatype>audio</mediatype>
										<parameter>
											<name>Level</name>
											<parameterid>level</parameterid>
											<valuemin>0</valuemin>
											<valuemax>3,98109</valuemax>
											<value>1</value>
										</parameter>
									</effect>
								</filter>
								<filter>
									<effect>
										<name>Audio Pan</name>
										<effectid>audiopan</effectid>
										<effectcategory>audiopan</effectcategory>
										<effecttype>audiopan</effecttype>
										<mediatype>audio</mediatype>
										<parameter>
											<name>Pan</name>
											<parameterid>pan</parameterid>
											<valuemin>-1</valuemin>
											<valuemax>1</valuemax>
											<value>1</value>
										</parameter>
									</effect>
								</filter>
								<sourcetrack>
									<mediatype>audio</mediatype>
									<trackindex>2</trackindex>
								</sourcetrack>
								<link>
									<linkclipref>ArmA 3 2020.11.14 - 00.59.31.79.mp4805307595</linkclipref>
								</link>
								<link>
									<linkclipref>ArmA 3 2020.11.14 - 00.59.31.79.mp4536872140</linkclipref>
								</link>
								<link>
									<linkclipref>ArmA 3 2020.11.14 - 00.59.31.79.mp45368721401</linkclipref>
								</link>
								<link>
									<linkclipref>ArmA 3 2020.11.14 - 00.59.31.79.mp4536872141</linkclipref>
								</link>
								<link>
									<linkclipref>ArmA 3 2020.11.14 - 00.59.31.79.mp45368721411</linkclipref>
								</link>
							</clipitem>
							<clipitem id="ArmA 3 2020.11.14 - 01.00.07.80.mp45368721441">
								<name>ArmA 3 2020.11.14 - 01.00.07.80.mp4</name>
								<duration>666</duration>
								<rate>
									<ntsc>TRUE</ntsc>
									<timebase>24</timebase>
								</rate>
								<in>0</in>
								<out>666</out>
								<start>1136</start>
								<end>1802</end>
								<masterclipid>ArmA 3 2020.11.14 - 01.00.07.80.mp4</masterclipid>
								<logginginfo>
									<scene />
									<shottake />
									<lognote />
									<good>FALSE</good>
								</logginginfo>
								<labels>
									<label2 />
								</labels>
								<comments>
									<mastercomment1 />
									<mastercomment2 />
									<mastercomment3 />
									<mastercomment4 />
								</comments>
								<file id="ArmA 3 2020.11.14 - 01.00.07.80" />
								<filter>
									<effect>
										<name>Audio Levels</name>
										<effectid>audiolevels</effectid>
										<effectcategory>audiolevels</effectcategory>
										<effecttype>audiolevels</effecttype>
										<mediatype>audio</mediatype>
										<parameter>
											<name>Level</name>
											<parameterid>level</parameterid>
											<valuemin>0</valuemin>
											<valuemax>3,98109</valuemax>
											<value>1</value>
										</parameter>
									</effect>
								</filter>
								<filter>
									<effect>
										<name>Audio Pan</name>
										<effectid>audiopan</effectid>
										<effectcategory>audiopan</effectcategory>
										<effecttype>audiopan</effecttype>
										<mediatype>audio</mediatype>
										<parameter>
											<name>Pan</name>
											<parameterid>pan</parameterid>
											<valuemin>-1</valuemin>
											<valuemax>1</valuemax>
											<value>1</value>
										</parameter>
									</effect>
								</filter>
								<sourcetrack>
									<mediatype>audio</mediatype>
									<trackindex>2</trackindex>
								</sourcetrack>
								<link>
									<linkclipref>ArmA 3 2020.11.14 - 01.00.07.80.mp4805307598</linkclipref>
								</link>
								<link>
									<linkclipref>ArmA 3 2020.11.14 - 01.00.07.80.mp4536872143</linkclipref>
								</link>
								<link>
									<linkclipref>ArmA 3 2020.11.14 - 01.00.07.80.mp45368721431</linkclipref>
								</link>
								<link>
									<linkclipref>ArmA 3 2020.11.14 - 01.00.07.80.mp4536872144</linkclipref>
								</link>
								<link>
									<linkclipref>ArmA 3 2020.11.14 - 01.00.07.80.mp45368721441</linkclipref>
								</link>
							</clipitem>
							<clipitem id="ArmA 3 2020.11.14 - 01.01.23.81.mp45368721471">
								<name>ArmA 3 2020.11.14 - 01.01.23.81.mp4</name>
								<duration>1004</duration>
								<rate>
									<ntsc>TRUE</ntsc>
									<timebase>24</timebase>
								</rate>
								<in>0</in>
								<out>1004</out>
								<start>1803</start>
								<end>2807</end>
								<masterclipid>ArmA 3 2020.11.14 - 01.01.23.81.mp4</masterclipid>
								<logginginfo>
									<scene />
									<shottake />
									<lognote />
									<good>FALSE</good>
								</logginginfo>
								<labels>
									<label2 />
								</labels>
								<comments>
									<mastercomment1 />
									<mastercomment2 />
									<mastercomment3 />
									<mastercomment4 />
								</comments>
								<file id="ArmA 3 2020.11.14 - 01.01.23.81" />
								<filter>
									<effect>
										<name>Audio Levels</name>
										<effectid>audiolevels</effectid>
										<effectcategory>audiolevels</effectcategory>
										<effecttype>audiolevels</effecttype>
										<mediatype>audio</mediatype>
										<parameter>
											<name>Level</name>
											<parameterid>level</parameterid>
											<valuemin>0</valuemin>
											<valuemax>3,98109</valuemax>
											<value>1</value>
										</parameter>
									</effect>
								</filter>
								<filter>
									<effect>
										<name>Audio Pan</name>
										<effectid>audiopan</effectid>
										<effectcategory>audiopan</effectcategory>
										<effecttype>audiopan</effecttype>
										<mediatype>audio</mediatype>
										<parameter>
											<name>Pan</name>
											<parameterid>pan</parameterid>
											<valuemin>-1</valuemin>
											<valuemax>1</valuemax>
											<value>1</value>
										</parameter>
									</effect>
								</filter>
								<sourcetrack>
									<mediatype>audio</mediatype>
									<trackindex>2</trackindex>
								</sourcetrack>
								<link>
									<linkclipref>ArmA 3 2020.11.14 - 01.01.23.81.mp4805307601</linkclipref>
								</link>
								<link>
									<linkclipref>ArmA 3 2020.11.14 - 01.01.23.81.mp4536872146</linkclipref>
								</link>
								<link>
									<linkclipref>ArmA 3 2020.11.14 - 01.01.23.81.mp45368721461</linkclipref>
								</link>
								<link>
									<linkclipref>ArmA 3 2020.11.14 - 01.01.23.81.mp4536872147</linkclipref>
								</link>
								<link>
									<linkclipref>ArmA 3 2020.11.14 - 01.01.23.81.mp45368721471</linkclipref>
								</link>
							</clipitem>
							<clipitem id="ArmA 3 2020.11.14 - 01.02.36.82.mp45368721501">
								<name>ArmA 3 2020.11.14 - 01.02.36.82.mp4</name>
								<duration>447</duration>
								<rate>
									<ntsc>TRUE</ntsc>
									<timebase>24</timebase>
								</rate>
								<in>0</in>
								<out>447</out>
								<start>2808</start>
								<end>3255</end>
								<masterclipid>ArmA 3 2020.11.14 - 01.02.36.82.mp4</masterclipid>
								<logginginfo>
									<scene />
									<shottake />
									<lognote />
									<good>FALSE</good>
								</logginginfo>
								<labels>
									<label2 />
								</labels>
								<comments>
									<mastercomment1 />
									<mastercomment2 />
									<mastercomment3 />
									<mastercomment4 />
								</comments>
								<file id="ArmA 3 2020.11.14 - 01.02.36.82" />
								<filter>
									<effect>
										<name>Audio Levels</name>
										<effectid>audiolevels</effectid>
										<effectcategory>audiolevels</effectcategory>
										<effecttype>audiolevels</effecttype>
										<mediatype>audio</mediatype>
										<parameter>
											<name>Level</name>
											<parameterid>level</parameterid>
											<valuemin>0</valuemin>
											<valuemax>3,98109</valuemax>
											<value>1</value>
										</parameter>
									</effect>
								</filter>
								<filter>
									<effect>
										<name>Audio Pan</name>
										<effectid>audiopan</effectid>
										<effectcategory>audiopan</effectcategory>
										<effecttype>audiopan</effecttype>
										<mediatype>audio</mediatype>
										<parameter>
											<name>Pan</name>
											<parameterid>pan</parameterid>
											<valuemin>-1</valuemin>
											<valuemax>1</valuemax>
											<value>1</value>
										</parameter>
									</effect>
								</filter>
								<sourcetrack>
									<mediatype>audio</mediatype>
									<trackindex>2</trackindex>
								</sourcetrack>
								<link>
									<linkclipref>ArmA 3 2020.11.14 - 01.02.36.82.mp4805307604</linkclipref>
								</link>
								<link>
									<linkclipref>ArmA 3 2020.11.14 - 01.02.36.82.mp4536872149</linkclipref>
								</link>
								<link>
									<linkclipref>ArmA 3 2020.11.14 - 01.02.36.82.mp45368721491</linkclipref>
								</link>
								<link>
									<linkclipref>ArmA 3 2020.11.14 - 01.02.36.82.mp4536872150</linkclipref>
								</link>
								<link>
									<linkclipref>ArmA 3 2020.11.14 - 01.02.36.82.mp45368721501</linkclipref>
								</link>
							</clipitem>
							<clipitem id="ArmA 3 2020.11.14 - 01.03.14.83.mp45368721531">
								<name>ArmA 3 2020.11.14 - 01.03.14.83.mp4</name>
								<duration>404</duration>
								<rate>
									<ntsc>TRUE</ntsc>
									<timebase>24</timebase>
								</rate>
								<in>0</in>
								<out>404</out>
								<start>3256</start>
								<end>3660</end>
								<masterclipid>ArmA 3 2020.11.14 - 01.03.14.83.mp4</masterclipid>
								<logginginfo>
									<scene />
									<shottake />
									<lognote />
									<good>FALSE</good>
								</logginginfo>
								<labels>
									<label2 />
								</labels>
								<comments>
									<mastercomment1 />
									<mastercomment2 />
									<mastercomment3 />
									<mastercomment4 />
								</comments>
								<file id="ArmA 3 2020.11.14 - 01.03.14.83" />
								<filter>
									<effect>
										<name>Audio Levels</name>
										<effectid>audiolevels</effectid>
										<effectcategory>audiolevels</effectcategory>
										<effecttype>audiolevels</effecttype>
										<mediatype>audio</mediatype>
										<parameter>
											<name>Level</name>
											<parameterid>level</parameterid>
											<valuemin>0</valuemin>
											<valuemax>3,98109</valuemax>
											<value>1</value>
										</parameter>
									</effect>
								</filter>
								<filter>
									<effect>
										<name>Audio Pan</name>
										<effectid>audiopan</effectid>
										<effectcategory>audiopan</effectcategory>
										<effecttype>audiopan</effecttype>
										<mediatype>audio</mediatype>
										<parameter>
											<name>Pan</name>
											<parameterid>pan</parameterid>
											<valuemin>-1</valuemin>
											<valuemax>1</valuemax>
											<value>1</value>
										</parameter>
									</effect>
								</filter>
								<sourcetrack>
									<mediatype>audio</mediatype>
									<trackindex>2</trackindex>
								</sourcetrack>
								<link>
									<linkclipref>ArmA 3 2020.11.14 - 01.03.14.83.mp4805307607</linkclipref>
								</link>
								<link>
									<linkclipref>ArmA 3 2020.11.14 - 01.03.14.83.mp4536872152</linkclipref>
								</link>
								<link>
									<linkclipref>ArmA 3 2020.11.14 - 01.03.14.83.mp45368721521</linkclipref>
								</link>
								<link>
									<linkclipref>ArmA 3 2020.11.14 - 01.03.14.83.mp4536872153</linkclipref>
								</link>
								<link>
									<linkclipref>ArmA 3 2020.11.14 - 01.03.14.83.mp45368721531</linkclipref>
								</link>
							</clipitem>
							<clipitem id="ArmA 3 2020.11.14 - 01.03.51.84.mp45368721561">
								<name>ArmA 3 2020.11.14 - 01.03.51.84.mp4</name>
								<duration>421</duration>
								<rate>
									<ntsc>TRUE</ntsc>
									<timebase>24</timebase>
								</rate>
								<in>0</in>
								<out>421</out>
								<start>3661</start>
								<end>4082</end>
								<masterclipid>ArmA 3 2020.11.14 - 01.03.51.84.mp4</masterclipid>
								<logginginfo>
									<scene />
									<shottake />
									<lognote />
									<good>FALSE</good>
								</logginginfo>
								<labels>
									<label2 />
								</labels>
								<comments>
									<mastercomment1 />
									<mastercomment2 />
									<mastercomment3 />
									<mastercomment4 />
								</comments>
								<file id="ArmA 3 2020.11.14 - 01.03.51.84" />
								<filter>
									<effect>
										<name>Audio Levels</name>
										<effectid>audiolevels</effectid>
										<effectcategory>audiolevels</effectcategory>
										<effecttype>audiolevels</effecttype>
										<mediatype>audio</mediatype>
										<parameter>
											<name>Level</name>
											<parameterid>level</parameterid>
											<valuemin>0</valuemin>
											<valuemax>3,98109</valuemax>
											<value>1</value>
										</parameter>
									</effect>
								</filter>
								<filter>
									<effect>
										<name>Audio Pan</name>
										<effectid>audiopan</effectid>
										<effectcategory>audiopan</effectcategory>
										<effecttype>audiopan</effecttype>
										<mediatype>audio</mediatype>
										<parameter>
											<name>Pan</name>
											<parameterid>pan</parameterid>
											<valuemin>-1</valuemin>
											<valuemax>1</valuemax>
											<value>1</value>
										</parameter>
									</effect>
								</filter>
								<sourcetrack>
									<mediatype>audio</mediatype>
									<trackindex>2</trackindex>
								</sourcetrack>
								<link>
									<linkclipref>ArmA 3 2020.11.14 - 01.03.51.84.mp4805307610</linkclipref>
								</link>
								<link>
									<linkclipref>ArmA 3 2020.11.14 - 01.03.51.84.mp4536872155</linkclipref>
								</link>
								<link>
									<linkclipref>ArmA 3 2020.11.14 - 01.03.51.84.mp45368721551</linkclipref>
								</link>
								<link>
									<linkclipref>ArmA 3 2020.11.14 - 01.03.51.84.mp4536872156</linkclipref>
								</link>
								<link>
									<linkclipref>ArmA 3 2020.11.14 - 01.03.51.84.mp45368721561</linkclipref>
								</link>
							</clipitem>
							<clipitem id="ArmA 3 2020.11.14 - 01.04.31.85.mp45368721591">
								<name>ArmA 3 2020.11.14 - 01.04.31.85.mp4</name>
								<duration>1222</duration>
								<rate>
									<ntsc>TRUE</ntsc>
									<timebase>24</timebase>
								</rate>
								<in>0</in>
								<out>1222</out>
								<start>4083</start>
								<end>5305</end>
								<masterclipid>ArmA 3 2020.11.14 - 01.04.31.85.mp4</masterclipid>
								<logginginfo>
									<scene />
									<shottake />
									<lognote />
									<good>FALSE</good>
								</logginginfo>
								<labels>
									<label2 />
								</labels>
								<comments>
									<mastercomment1 />
									<mastercomment2 />
									<mastercomment3 />
									<mastercomment4 />
								</comments>
								<file id="ArmA 3 2020.11.14 - 01.04.31.85" />
								<filter>
									<effect>
										<name>Audio Levels</name>
										<effectid>audiolevels</effectid>
										<effectcategory>audiolevels</effectcategory>
										<effecttype>audiolevels</effecttype>
										<mediatype>audio</mediatype>
										<parameter>
											<name>Level</name>
											<parameterid>level</parameterid>
											<valuemin>0</valuemin>
											<valuemax>3,98109</valuemax>
											<value>1</value>
										</parameter>
									</effect>
								</filter>
								<filter>
									<effect>
										<name>Audio Pan</name>
										<effectid>audiopan</effectid>
										<effectcategory>audiopan</effectcategory>
										<effecttype>audiopan</effecttype>
										<mediatype>audio</mediatype>
										<parameter>
											<name>Pan</name>
											<parameterid>pan</parameterid>
											<valuemin>-1</valuemin>
											<valuemax>1</valuemax>
											<value>1</value>
										</parameter>
									</effect>
								</filter>
								<sourcetrack>
									<mediatype>audio</mediatype>
									<trackindex>2</trackindex>
								</sourcetrack>
								<link>
									<linkclipref>ArmA 3 2020.11.14 - 01.04.31.85.mp4805307613</linkclipref>
								</link>
								<link>
									<linkclipref>ArmA 3 2020.11.14 - 01.04.31.85.mp4536872158</linkclipref>
								</link>
								<link>
									<linkclipref>ArmA 3 2020.11.14 - 01.04.31.85.mp45368721581</linkclipref>
								</link>
								<link>
									<linkclipref>ArmA 3 2020.11.14 - 01.04.31.85.mp4536872159</linkclipref>
								</link>
								<link>
									<linkclipref>ArmA 3 2020.11.14 - 01.04.31.85.mp45368721591</linkclipref>
								</link>
							</clipitem>
							<clipitem id="ArmA 3 2020.11.14 - 01.05.31.86.mp45368721621">
								<name>ArmA 3 2020.11.14 - 01.05.31.86.mp4</name>
								<duration>122</duration>
								<rate>
									<ntsc>TRUE</ntsc>
									<timebase>24</timebase>
								</rate>
								<in>0</in>
								<out>122</out>
								<start>5306</start>
								<end>5428</end>
								<masterclipid>ArmA 3 2020.11.14 - 01.05.31.86.mp4</masterclipid>
								<logginginfo>
									<scene />
									<shottake />
									<lognote />
									<good>FALSE</good>
								</logginginfo>
								<labels>
									<label2 />
								</labels>
								<comments>
									<mastercomment1 />
									<mastercomment2 />
									<mastercomment3 />
									<mastercomment4 />
								</comments>
								<file id="ArmA 3 2020.11.14 - 01.05.31.86" />
								<filter>
									<effect>
										<name>Audio Levels</name>
										<effectid>audiolevels</effectid>
										<effectcategory>audiolevels</effectcategory>
										<effecttype>audiolevels</effecttype>
										<mediatype>audio</mediatype>
										<parameter>
											<name>Level</name>
											<parameterid>level</parameterid>
											<valuemin>0</valuemin>
											<valuemax>3,98109</valuemax>
											<value>1</value>
										</parameter>
									</effect>
								</filter>
								<filter>
									<effect>
										<name>Audio Pan</name>
										<effectid>audiopan</effectid>
										<effectcategory>audiopan</effectcategory>
										<effecttype>audiopan</effecttype>
										<mediatype>audio</mediatype>
										<parameter>
											<name>Pan</name>
											<parameterid>pan</parameterid>
											<valuemin>-1</valuemin>
											<valuemax>1</valuemax>
											<value>1</value>
										</parameter>
									</effect>
								</filter>
								<sourcetrack>
									<mediatype>audio</mediatype>
									<trackindex>2</trackindex>
								</sourcetrack>
								<link>
									<linkclipref>ArmA 3 2020.11.14 - 01.05.31.86.mp4805307616</linkclipref>
								</link>
								<link>
									<linkclipref>ArmA 3 2020.11.14 - 01.05.31.86.mp4536872161</linkclipref>
								</link>
								<link>
									<linkclipref>ArmA 3 2020.11.14 - 01.05.31.86.mp45368721611</linkclipref>
								</link>
								<link>
									<linkclipref>ArmA 3 2020.11.14 - 01.05.31.86.mp4536872162</linkclipref>
								</link>
								<link>
									<linkclipref>ArmA 3 2020.11.14 - 01.05.31.86.mp45368721621</linkclipref>
								</link>
							</clipitem>
							<clipitem id="ArmA 3 2020.11.14 - 01.05.58.87.mp45368721651">
								<name>ArmA 3 2020.11.14 - 01.05.58.87.mp4</name>
								<duration>538</duration>
								<rate>
									<ntsc>TRUE</ntsc>
									<timebase>24</timebase>
								</rate>
								<in>0</in>
								<out>538</out>
								<start>5429</start>
								<end>5967</end>
								<masterclipid>ArmA 3 2020.11.14 - 01.05.58.87.mp4</masterclipid>
								<logginginfo>
									<scene />
									<shottake />
									<lognote />
									<good>FALSE</good>
								</logginginfo>
								<labels>
									<label2 />
								</labels>
								<comments>
									<mastercomment1 />
									<mastercomment2 />
									<mastercomment3 />
									<mastercomment4 />
								</comments>
								<file id="ArmA 3 2020.11.14 - 01.05.58.87" />
								<filter>
									<effect>
										<name>Audio Levels</name>
										<effectid>audiolevels</effectid>
										<effectcategory>audiolevels</effectcategory>
										<effecttype>audiolevels</effecttype>
										<mediatype>audio</mediatype>
										<parameter>
											<name>Level</name>
											<parameterid>level</parameterid>
											<valuemin>0</valuemin>
											<valuemax>3,98109</valuemax>
											<value>1</value>
										</parameter>
									</effect>
								</filter>
								<filter>
									<effect>
										<name>Audio Pan</name>
										<effectid>audiopan</effectid>
										<effectcategory>audiopan</effectcategory>
										<effecttype>audiopan</effecttype>
										<mediatype>audio</mediatype>
										<parameter>
											<name>Pan</name>
											<parameterid>pan</parameterid>
											<valuemin>-1</valuemin>
											<valuemax>1</valuemax>
											<value>1</value>
										</parameter>
									</effect>
								</filter>
								<sourcetrack>
									<mediatype>audio</mediatype>
									<trackindex>2</trackindex>
								</sourcetrack>
								<link>
									<linkclipref>ArmA 3 2020.11.14 - 01.05.58.87.mp4805307619</linkclipref>
								</link>
								<link>
									<linkclipref>ArmA 3 2020.11.14 - 01.05.58.87.mp4536872164</linkclipref>
								</link>
								<link>
									<linkclipref>ArmA 3 2020.11.14 - 01.05.58.87.mp45368721641</linkclipref>
								</link>
								<link>
									<linkclipref>ArmA 3 2020.11.14 - 01.05.58.87.mp4536872165</linkclipref>
								</link>
								<link>
									<linkclipref>ArmA 3 2020.11.14 - 01.05.58.87.mp45368721651</linkclipref>
								</link>
							</clipitem>
							<clipitem id="ArmA 3 2020.11.14 - 01.06.24.88.mp45368721681">
								<name>ArmA 3 2020.11.14 - 01.06.24.88.mp4</name>
								<duration>288</duration>
								<rate>
									<ntsc>TRUE</ntsc>
									<timebase>24</timebase>
								</rate>
								<in>0</in>
								<out>288</out>
								<start>5968</start>
								<end>6256</end>
								<masterclipid>ArmA 3 2020.11.14 - 01.06.24.88.mp4</masterclipid>
								<logginginfo>
									<scene />
									<shottake />
									<lognote />
									<good>FALSE</good>
								</logginginfo>
								<labels>
									<label2 />
								</labels>
								<comments>
									<mastercomment1 />
									<mastercomment2 />
									<mastercomment3 />
									<mastercomment4 />
								</comments>
								<file id="ArmA 3 2020.11.14 - 01.06.24.88" />
								<filter>
									<effect>
										<name>Audio Levels</name>
										<effectid>audiolevels</effectid>
										<effectcategory>audiolevels</effectcategory>
										<effecttype>audiolevels</effecttype>
										<mediatype>audio</mediatype>
										<parameter>
											<name>Level</name>
											<parameterid>level</parameterid>
											<valuemin>0</valuemin>
											<valuemax>3,98109</valuemax>
											<value>1</value>
										</parameter>
									</effect>
								</filter>
								<filter>
									<effect>
										<name>Audio Pan</name>
										<effectid>audiopan</effectid>
										<effectcategory>audiopan</effectcategory>
										<effecttype>audiopan</effecttype>
										<mediatype>audio</mediatype>
										<parameter>
											<name>Pan</name>
											<parameterid>pan</parameterid>
											<valuemin>-1</valuemin>
											<valuemax>1</valuemax>
											<value>1</value>
										</parameter>
									</effect>
								</filter>
								<sourcetrack>
									<mediatype>audio</mediatype>
									<trackindex>2</trackindex>
								</sourcetrack>
								<link>
									<linkclipref>ArmA 3 2020.11.14 - 01.06.24.88.mp4805307622</linkclipref>
								</link>
								<link>
									<linkclipref>ArmA 3 2020.11.14 - 01.06.24.88.mp4536872167</linkclipref>
								</link>
								<link>
									<linkclipref>ArmA 3 2020.11.14 - 01.06.24.88.mp45368721671</linkclipref>
								</link>
								<link>
									<linkclipref>ArmA 3 2020.11.14 - 01.06.24.88.mp4536872168</linkclipref>
								</link>
								<link>
									<linkclipref>ArmA 3 2020.11.14 - 01.06.24.88.mp45368721681</linkclipref>
								</link>
							</clipitem>
							<clipitem id="ArmA 3 2020.11.14 - 01.06.46.89.mp45368721711">
								<name>ArmA 3 2020.11.14 - 01.06.46.89.mp4</name>
								<duration>856</duration>
								<rate>
									<ntsc>TRUE</ntsc>
									<timebase>24</timebase>
								</rate>
								<in>0</in>
								<out>856</out>
								<start>6257</start>
								<end>7113</end>
								<masterclipid>ArmA 3 2020.11.14 - 01.06.46.89.mp4</masterclipid>
								<logginginfo>
									<scene />
									<shottake />
									<lognote />
									<good>FALSE</good>
								</logginginfo>
								<labels>
									<label2 />
								</labels>
								<comments>
									<mastercomment1 />
									<mastercomment2 />
									<mastercomment3 />
									<mastercomment4 />
								</comments>
								<file id="ArmA 3 2020.11.14 - 01.06.46.89" />
								<filter>
									<effect>
										<name>Audio Levels</name>
										<effectid>audiolevels</effectid>
										<effectcategory>audiolevels</effectcategory>
										<effecttype>audiolevels</effecttype>
										<mediatype>audio</mediatype>
										<parameter>
											<name>Level</name>
											<parameterid>level</parameterid>
											<valuemin>0</valuemin>
											<valuemax>3,98109</valuemax>
											<value>1</value>
										</parameter>
									</effect>
								</filter>
								<filter>
									<effect>
										<name>Audio Pan</name>
										<effectid>audiopan</effectid>
										<effectcategory>audiopan</effectcategory>
										<effecttype>audiopan</effecttype>
										<mediatype>audio</mediatype>
										<parameter>
											<name>Pan</name>
											<parameterid>pan</parameterid>
											<valuemin>-1</valuemin>
											<valuemax>1</valuemax>
											<value>1</value>
										</parameter>
									</effect>
								</filter>
								<sourcetrack>
									<mediatype>audio</mediatype>
									<trackindex>2</trackindex>
								</sourcetrack>
								<link>
									<linkclipref>ArmA 3 2020.11.14 - 01.06.46.89.mp4805307625</linkclipref>
								</link>
								<link>
									<linkclipref>ArmA 3 2020.11.14 - 01.06.46.89.mp4536872170</linkclipref>
								</link>
								<link>
									<linkclipref>ArmA 3 2020.11.14 - 01.06.46.89.mp45368721701</linkclipref>
								</link>
								<link>
									<linkclipref>ArmA 3 2020.11.14 - 01.06.46.89.mp4536872171</linkclipref>
								</link>
								<link>
									<linkclipref>ArmA 3 2020.11.14 - 01.06.46.89.mp45368721711</linkclipref>
								</link>
							</clipitem>
							<clipitem id="ArmA 3 2020.11.14 - 01.07.32.90.mp45368721741">
								<name>ArmA 3 2020.11.14 - 01.07.32.90.mp4</name>
								<duration>396</duration>
								<rate>
									<ntsc>TRUE</ntsc>
									<timebase>24</timebase>
								</rate>
								<in>0</in>
								<out>396</out>
								<start>7114</start>
								<end>7510</end>
								<masterclipid>ArmA 3 2020.11.14 - 01.07.32.90.mp4</masterclipid>
								<logginginfo>
									<scene />
									<shottake />
									<lognote />
									<good>FALSE</good>
								</logginginfo>
								<labels>
									<label2 />
								</labels>
								<comments>
									<mastercomment1 />
									<mastercomment2 />
									<mastercomment3 />
									<mastercomment4 />
								</comments>
								<file id="ArmA 3 2020.11.14 - 01.07.32.90" />
								<filter>
									<effect>
										<name>Audio Levels</name>
										<effectid>audiolevels</effectid>
										<effectcategory>audiolevels</effectcategory>
										<effecttype>audiolevels</effecttype>
										<mediatype>audio</mediatype>
										<parameter>
											<name>Level</name>
											<parameterid>level</parameterid>
											<valuemin>0</valuemin>
											<valuemax>3,98109</valuemax>
											<value>1</value>
										</parameter>
									</effect>
								</filter>
								<filter>
									<effect>
										<name>Audio Pan</name>
										<effectid>audiopan</effectid>
										<effectcategory>audiopan</effectcategory>
										<effecttype>audiopan</effecttype>
										<mediatype>audio</mediatype>
										<parameter>
											<name>Pan</name>
											<parameterid>pan</parameterid>
											<valuemin>-1</valuemin>
											<valuemax>1</valuemax>
											<value>1</value>
										</parameter>
									</effect>
								</filter>
								<sourcetrack>
									<mediatype>audio</mediatype>
									<trackindex>2</trackindex>
								</sourcetrack>
								<link>
									<linkclipref>ArmA 3 2020.11.14 - 01.07.32.90.mp4805307628</linkclipref>
								</link>
								<link>
									<linkclipref>ArmA 3 2020.11.14 - 01.07.32.90.mp4536872173</linkclipref>
								</link>
								<link>
									<linkclipref>ArmA 3 2020.11.14 - 01.07.32.90.mp45368721731</linkclipref>
								</link>
								<link>
									<linkclipref>ArmA 3 2020.11.14 - 01.07.32.90.mp4536872174</linkclipref>
								</link>
								<link>
									<linkclipref>ArmA 3 2020.11.14 - 01.07.32.90.mp45368721741</linkclipref>
								</link>
							</clipitem>
							<clipitem id="ArmA 3 2020.11.14 - 01.08.19.91.mp45368721771">
								<name>ArmA 3 2020.11.14 - 01.08.19.91.mp4</name>
								<duration>894</duration>
								<rate>
									<ntsc>TRUE</ntsc>
									<timebase>24</timebase>
								</rate>
								<in>0</in>
								<out>894</out>
								<start>7511</start>
								<end>8405</end>
								<masterclipid>ArmA 3 2020.11.14 - 01.08.19.91.mp4</masterclipid>
								<logginginfo>
									<scene />
									<shottake />
									<lognote />
									<good>FALSE</good>
								</logginginfo>
								<labels>
									<label2 />
								</labels>
								<comments>
									<mastercomment1 />
									<mastercomment2 />
									<mastercomment3 />
									<mastercomment4 />
								</comments>
								<file id="ArmA 3 2020.11.14 - 01.08.19.91" />
								<filter>
									<effect>
										<name>Audio Levels</name>
										<effectid>audiolevels</effectid>
										<effectcategory>audiolevels</effectcategory>
										<effecttype>audiolevels</effecttype>
										<mediatype>audio</mediatype>
										<parameter>
											<name>Level</name>
											<parameterid>level</parameterid>
											<valuemin>0</valuemin>
											<valuemax>3,98109</valuemax>
											<value>1</value>
										</parameter>
									</effect>
								</filter>
								<filter>
									<effect>
										<name>Audio Pan</name>
										<effectid>audiopan</effectid>
										<effectcategory>audiopan</effectcategory>
										<effecttype>audiopan</effecttype>
										<mediatype>audio</mediatype>
										<parameter>
											<name>Pan</name>
											<parameterid>pan</parameterid>
											<valuemin>-1</valuemin>
											<valuemax>1</valuemax>
											<value>1</value>
										</parameter>
									</effect>
								</filter>
								<sourcetrack>
									<mediatype>audio</mediatype>
									<trackindex>2</trackindex>
								</sourcetrack>
								<link>
									<linkclipref>ArmA 3 2020.11.14 - 01.08.19.91.mp4805307631</linkclipref>
								</link>
								<link>
									<linkclipref>ArmA 3 2020.11.14 - 01.08.19.91.mp4536872176</linkclipref>
								</link>
								<link>
									<linkclipref>ArmA 3 2020.11.14 - 01.08.19.91.mp45368721761</linkclipref>
								</link>
								<link>
									<linkclipref>ArmA 3 2020.11.14 - 01.08.19.91.mp4536872177</linkclipref>
								</link>
								<link>
									<linkclipref>ArmA 3 2020.11.14 - 01.08.19.91.mp45368721771</linkclipref>
								</link>
							</clipitem>
							<clipitem id="ArmA 3 2020.11.14 - 01.09.43.92.mp45368721801">
								<name>ArmA 3 2020.11.14 - 01.09.43.92.mp4</name>
								<duration>704</duration>
								<rate>
									<ntsc>TRUE</ntsc>
									<timebase>24</timebase>
								</rate>
								<in>0</in>
								<out>704</out>
								<start>8406</start>
								<end>9110</end>
								<masterclipid>ArmA 3 2020.11.14 - 01.09.43.92.mp4</masterclipid>
								<logginginfo>
									<scene />
									<shottake />
									<lognote />
									<good>FALSE</good>
								</logginginfo>
								<labels>
									<label2 />
								</labels>
								<comments>
									<mastercomment1 />
									<mastercomment2 />
									<mastercomment3 />
									<mastercomment4 />
								</comments>
								<file id="ArmA 3 2020.11.14 - 01.09.43.92" />
								<filter>
									<effect>
										<name>Audio Levels</name>
										<effectid>audiolevels</effectid>
										<effectcategory>audiolevels</effectcategory>
										<effecttype>audiolevels</effecttype>
										<mediatype>audio</mediatype>
										<parameter>
											<name>Level</name>
											<parameterid>level</parameterid>
											<valuemin>0</valuemin>
											<valuemax>3,98109</valuemax>
											<value>1</value>
										</parameter>
									</effect>
								</filter>
								<filter>
									<effect>
										<name>Audio Pan</name>
										<effectid>audiopan</effectid>
										<effectcategory>audiopan</effectcategory>
										<effecttype>audiopan</effecttype>
										<mediatype>audio</mediatype>
										<parameter>
											<name>Pan</name>
											<parameterid>pan</parameterid>
											<valuemin>-1</valuemin>
											<valuemax>1</valuemax>
											<value>1</value>
										</parameter>
									</effect>
								</filter>
								<sourcetrack>
									<mediatype>audio</mediatype>
									<trackindex>2</trackindex>
								</sourcetrack>
								<link>
									<linkclipref>ArmA 3 2020.11.14 - 01.09.43.92.mp4805307634</linkclipref>
								</link>
								<link>
									<linkclipref>ArmA 3 2020.11.14 - 01.09.43.92.mp4536872179</linkclipref>
								</link>
								<link>
									<linkclipref>ArmA 3 2020.11.14 - 01.09.43.92.mp45368721791</linkclipref>
								</link>
								<link>
									<linkclipref>ArmA 3 2020.11.14 - 01.09.43.92.mp4536872180</linkclipref>
								</link>
								<link>
									<linkclipref>ArmA 3 2020.11.14 - 01.09.43.92.mp45368721801</linkclipref>
								</link>
							</clipitem>
							<clipitem id="ArmA 3 2020.11.14 - 01.10.27.93.mp45368721831">
								<name>ArmA 3 2020.11.14 - 01.10.27.93.mp4</name>
								<duration>653</duration>
								<rate>
									<ntsc>TRUE</ntsc>
									<timebase>24</timebase>
								</rate>
								<in>0</in>
								<out>653</out>
								<start>9111</start>
								<end>9764</end>
								<masterclipid>ArmA 3 2020.11.14 - 01.10.27.93.mp4</masterclipid>
								<logginginfo>
									<scene />
									<shottake />
									<lognote />
									<good>FALSE</good>
								</logginginfo>
								<labels>
									<label2 />
								</labels>
								<comments>
									<mastercomment1 />
									<mastercomment2 />
									<mastercomment3 />
									<mastercomment4 />
								</comments>
								<file id="ArmA 3 2020.11.14 - 01.10.27.93" />
								<filter>
									<effect>
										<name>Audio Levels</name>
										<effectid>audiolevels</effectid>
										<effectcategory>audiolevels</effectcategory>
										<effecttype>audiolevels</effecttype>
										<mediatype>audio</mediatype>
										<parameter>
											<name>Level</name>
											<parameterid>level</parameterid>
											<valuemin>0</valuemin>
											<valuemax>3,98109</valuemax>
											<value>1</value>
										</parameter>
									</effect>
								</filter>
								<filter>
									<effect>
										<name>Audio Pan</name>
										<effectid>audiopan</effectid>
										<effectcategory>audiopan</effectcategory>
										<effecttype>audiopan</effecttype>
										<mediatype>audio</mediatype>
										<parameter>
											<name>Pan</name>
											<parameterid>pan</parameterid>
											<valuemin>-1</valuemin>
											<valuemax>1</valuemax>
											<value>1</value>
										</parameter>
									</effect>
								</filter>
								<sourcetrack>
									<mediatype>audio</mediatype>
									<trackindex>2</trackindex>
								</sourcetrack>
								<link>
									<linkclipref>ArmA 3 2020.11.14 - 01.10.27.93.mp4805307637</linkclipref>
								</link>
								<link>
									<linkclipref>ArmA 3 2020.11.14 - 01.10.27.93.mp4536872182</linkclipref>
								</link>
								<link>
									<linkclipref>ArmA 3 2020.11.14 - 01.10.27.93.mp45368721821</linkclipref>
								</link>
								<link>
									<linkclipref>ArmA 3 2020.11.14 - 01.10.27.93.mp4536872183</linkclipref>
								</link>
								<link>
									<linkclipref>ArmA 3 2020.11.14 - 01.10.27.93.mp45368721831</linkclipref>
								</link>
							</clipitem>
							<clipitem id="ArmA 3 2020.11.14 - 01.11.14.94.mp45368721861">
								<name>ArmA 3 2020.11.14 - 01.11.14.94.mp4</name>
								<duration>682</duration>
								<rate>
									<ntsc>TRUE</ntsc>
									<timebase>24</timebase>
								</rate>
								<in>0</in>
								<out>682</out>
								<start>9765</start>
								<end>10447</end>
								<masterclipid>ArmA 3 2020.11.14 - 01.11.14.94.mp4</masterclipid>
								<logginginfo>
									<scene />
									<shottake />
									<lognote />
									<good>FALSE</good>
								</logginginfo>
								<labels>
									<label2 />
								</labels>
								<comments>
									<mastercomment1 />
									<mastercomment2 />
									<mastercomment3 />
									<mastercomment4 />
								</comments>
								<file id="ArmA 3 2020.11.14 - 01.11.14.94" />
								<filter>
									<effect>
										<name>Audio Levels</name>
										<effectid>audiolevels</effectid>
										<effectcategory>audiolevels</effectcategory>
										<effecttype>audiolevels</effecttype>
										<mediatype>audio</mediatype>
										<parameter>
											<name>Level</name>
											<parameterid>level</parameterid>
											<valuemin>0</valuemin>
											<valuemax>3,98109</valuemax>
											<value>1</value>
										</parameter>
									</effect>
								</filter>
								<filter>
									<effect>
										<name>Audio Pan</name>
										<effectid>audiopan</effectid>
										<effectcategory>audiopan</effectcategory>
										<effecttype>audiopan</effecttype>
										<mediatype>audio</mediatype>
										<parameter>
											<name>Pan</name>
											<parameterid>pan</parameterid>
											<valuemin>-1</valuemin>
											<valuemax>1</valuemax>
											<value>1</value>
										</parameter>
									</effect>
								</filter>
								<sourcetrack>
									<mediatype>audio</mediatype>
									<trackindex>2</trackindex>
								</sourcetrack>
								<link>
									<linkclipref>ArmA 3 2020.11.14 - 01.11.14.94.mp4805307640</linkclipref>
								</link>
								<link>
									<linkclipref>ArmA 3 2020.11.14 - 01.11.14.94.mp4536872185</linkclipref>
								</link>
								<link>
									<linkclipref>ArmA 3 2020.11.14 - 01.11.14.94.mp45368721851</linkclipref>
								</link>
								<link>
									<linkclipref>ArmA 3 2020.11.14 - 01.11.14.94.mp4536872186</linkclipref>
								</link>
								<link>
									<linkclipref>ArmA 3 2020.11.14 - 01.11.14.94.mp45368721861</linkclipref>
								</link>
							</clipitem>
							<clipitem id="ArmA 3 2020.11.14 - 01.13.07.95.mp45368721891">
								<name>ArmA 3 2020.11.14 - 01.13.07.95.mp4</name>
								<duration>837</duration>
								<rate>
									<ntsc>TRUE</ntsc>
									<timebase>24</timebase>
								</rate>
								<in>0</in>
								<out>837</out>
								<start>10448</start>
								<end>11285</end>
								<masterclipid>ArmA 3 2020.11.14 - 01.13.07.95.mp4</masterclipid>
								<logginginfo>
									<scene />
									<shottake />
									<lognote />
									<good>FALSE</good>
								</logginginfo>
								<labels>
									<label2 />
								</labels>
								<comments>
									<mastercomment1 />
									<mastercomment2 />
									<mastercomment3 />
									<mastercomment4 />
								</comments>
								<file id="ArmA 3 2020.11.14 - 01.13.07.95" />
								<filter>
									<effect>
										<name>Audio Levels</name>
										<effectid>audiolevels</effectid>
										<effectcategory>audiolevels</effectcategory>
										<effecttype>audiolevels</effecttype>
										<mediatype>audio</mediatype>
										<parameter>
											<name>Level</name>
											<parameterid>level</parameterid>
											<valuemin>0</valuemin>
											<valuemax>3,98109</valuemax>
											<value>1</value>
										</parameter>
									</effect>
								</filter>
								<filter>
									<effect>
										<name>Audio Pan</name>
										<effectid>audiopan</effectid>
										<effectcategory>audiopan</effectcategory>
										<effecttype>audiopan</effecttype>
										<mediatype>audio</mediatype>
										<parameter>
											<name>Pan</name>
											<parameterid>pan</parameterid>
											<valuemin>-1</valuemin>
											<valuemax>1</valuemax>
											<value>1</value>
										</parameter>
									</effect>
								</filter>
								<sourcetrack>
									<mediatype>audio</mediatype>
									<trackindex>2</trackindex>
								</sourcetrack>
								<link>
									<linkclipref>ArmA 3 2020.11.14 - 01.13.07.95.mp4805307643</linkclipref>
								</link>
								<link>
									<linkclipref>ArmA 3 2020.11.14 - 01.13.07.95.mp4536872188</linkclipref>
								</link>
								<link>
									<linkclipref>ArmA 3 2020.11.14 - 01.13.07.95.mp45368721881</linkclipref>
								</link>
								<link>
									<linkclipref>ArmA 3 2020.11.14 - 01.13.07.95.mp4536872189</linkclipref>
								</link>
								<link>
									<linkclipref>ArmA 3 2020.11.14 - 01.13.07.95.mp45368721891</linkclipref>
								</link>
							</clipitem>
							<clipitem id="ArmA 3 2020.11.14 - 01.17.25.96.mp45368721921">
								<name>ArmA 3 2020.11.14 - 01.17.25.96.mp4</name>
								<duration>1040</duration>
								<rate>
									<ntsc>TRUE</ntsc>
									<timebase>24</timebase>
								</rate>
								<in>0</in>
								<out>1040</out>
								<start>11286</start>
								<end>12326</end>
								<masterclipid>ArmA 3 2020.11.14 - 01.17.25.96.mp4</masterclipid>
								<logginginfo>
									<scene />
									<shottake />
									<lognote />
									<good>FALSE</good>
								</logginginfo>
								<labels>
									<label2 />
								</labels>
								<comments>
									<mastercomment1 />
									<mastercomment2 />
									<mastercomment3 />
									<mastercomment4 />
								</comments>
								<file id="ArmA 3 2020.11.14 - 01.17.25.96" />
								<filter>
									<effect>
										<name>Audio Levels</name>
										<effectid>audiolevels</effectid>
										<effectcategory>audiolevels</effectcategory>
										<effecttype>audiolevels</effecttype>
										<mediatype>audio</mediatype>
										<parameter>
											<name>Level</name>
											<parameterid>level</parameterid>
											<valuemin>0</valuemin>
											<valuemax>3,98109</valuemax>
											<value>1</value>
										</parameter>
									</effect>
								</filter>
								<filter>
									<effect>
										<name>Audio Pan</name>
										<effectid>audiopan</effectid>
										<effectcategory>audiopan</effectcategory>
										<effecttype>audiopan</effecttype>
										<mediatype>audio</mediatype>
										<parameter>
											<name>Pan</name>
											<parameterid>pan</parameterid>
											<valuemin>-1</valuemin>
											<valuemax>1</valuemax>
											<value>1</value>
										</parameter>
									</effect>
								</filter>
								<sourcetrack>
									<mediatype>audio</mediatype>
									<trackindex>2</trackindex>
								</sourcetrack>
								<link>
									<linkclipref>ArmA 3 2020.11.14 - 01.17.25.96.mp4805307646</linkclipref>
								</link>
								<link>
									<linkclipref>ArmA 3 2020.11.14 - 01.17.25.96.mp4536872191</linkclipref>
								</link>
								<link>
									<linkclipref>ArmA 3 2020.11.14 - 01.17.25.96.mp45368721911</linkclipref>
								</link>
								<link>
									<linkclipref>ArmA 3 2020.11.14 - 01.17.25.96.mp4536872192</linkclipref>
								</link>
								<link>
									<linkclipref>ArmA 3 2020.11.14 - 01.17.25.96.mp45368721921</linkclipref>
								</link>
							</clipitem>
							<clipitem id="ArmA 3 2020.11.14 - 01.18.27.97.mp45368721951">
								<name>ArmA 3 2020.11.14 - 01.18.27.97.mp4</name>
								<duration>723</duration>
								<rate>
									<ntsc>TRUE</ntsc>
									<timebase>24</timebase>
								</rate>
								<in>0</in>
								<out>723</out>
								<start>12327</start>
								<end>13050</end>
								<masterclipid>ArmA 3 2020.11.14 - 01.18.27.97.mp4</masterclipid>
								<logginginfo>
									<scene />
									<shottake />
									<lognote />
									<good>FALSE</good>
								</logginginfo>
								<labels>
									<label2 />
								</labels>
								<comments>
									<mastercomment1 />
									<mastercomment2 />
									<mastercomment3 />
									<mastercomment4 />
								</comments>
								<file id="ArmA 3 2020.11.14 - 01.18.27.97" />
								<filter>
									<effect>
										<name>Audio Levels</name>
										<effectid>audiolevels</effectid>
										<effectcategory>audiolevels</effectcategory>
										<effecttype>audiolevels</effecttype>
										<mediatype>audio</mediatype>
										<parameter>
											<name>Level</name>
											<parameterid>level</parameterid>
											<valuemin>0</valuemin>
											<valuemax>3,98109</valuemax>
											<value>1</value>
										</parameter>
									</effect>
								</filter>
								<filter>
									<effect>
										<name>Audio Pan</name>
										<effectid>audiopan</effectid>
										<effectcategory>audiopan</effectcategory>
										<effecttype>audiopan</effecttype>
										<mediatype>audio</mediatype>
										<parameter>
											<name>Pan</name>
											<parameterid>pan</parameterid>
											<valuemin>-1</valuemin>
											<valuemax>1</valuemax>
											<value>1</value>
										</parameter>
									</effect>
								</filter>
								<sourcetrack>
									<mediatype>audio</mediatype>
									<trackindex>2</trackindex>
								</sourcetrack>
								<link>
									<linkclipref>ArmA 3 2020.11.14 - 01.18.27.97.mp4805307649</linkclipref>
								</link>
								<link>
									<linkclipref>ArmA 3 2020.11.14 - 01.18.27.97.mp4536872194</linkclipref>
								</link>
								<link>
									<linkclipref>ArmA 3 2020.11.14 - 01.18.27.97.mp45368721941</linkclipref>
								</link>
								<link>
									<linkclipref>ArmA 3 2020.11.14 - 01.18.27.97.mp4536872195</linkclipref>
								</link>
								<link>
									<linkclipref>ArmA 3 2020.11.14 - 01.18.27.97.mp45368721951</linkclipref>
								</link>
							</clipitem>
							<clipitem id="ArmA 3 2020.11.14 - 01.19.04.98.mp45368721981">
								<name>ArmA 3 2020.11.14 - 01.19.04.98.mp4</name>
								<duration>597</duration>
								<rate>
									<ntsc>TRUE</ntsc>
									<timebase>24</timebase>
								</rate>
								<in>0</in>
								<out>597</out>
								<start>13051</start>
								<end>13648</end>
								<masterclipid>ArmA 3 2020.11.14 - 01.19.04.98.mp4</masterclipid>
								<logginginfo>
									<scene />
									<shottake />
									<lognote />
									<good>FALSE</good>
								</logginginfo>
								<labels>
									<label2 />
								</labels>
								<comments>
									<mastercomment1 />
									<mastercomment2 />
									<mastercomment3 />
									<mastercomment4 />
								</comments>
								<file id="ArmA 3 2020.11.14 - 01.19.04.98" />
								<filter>
									<effect>
										<name>Audio Levels</name>
										<effectid>audiolevels</effectid>
										<effectcategory>audiolevels</effectcategory>
										<effecttype>audiolevels</effecttype>
										<mediatype>audio</mediatype>
										<parameter>
											<name>Level</name>
											<parameterid>level</parameterid>
											<valuemin>0</valuemin>
											<valuemax>3,98109</valuemax>
											<value>1</value>
										</parameter>
									</effect>
								</filter>
								<filter>
									<effect>
										<name>Audio Pan</name>
										<effectid>audiopan</effectid>
										<effectcategory>audiopan</effectcategory>
										<effecttype>audiopan</effecttype>
										<mediatype>audio</mediatype>
										<parameter>
											<name>Pan</name>
											<parameterid>pan</parameterid>
											<valuemin>-1</valuemin>
											<valuemax>1</valuemax>
											<value>1</value>
										</parameter>
									</effect>
								</filter>
								<sourcetrack>
									<mediatype>audio</mediatype>
									<trackindex>2</trackindex>
								</sourcetrack>
								<link>
									<linkclipref>ArmA 3 2020.11.14 - 01.19.04.98.mp4805307652</linkclipref>
								</link>
								<link>
									<linkclipref>ArmA 3 2020.11.14 - 01.19.04.98.mp4536872197</linkclipref>
								</link>
								<link>
									<linkclipref>ArmA 3 2020.11.14 - 01.19.04.98.mp45368721971</linkclipref>
								</link>
								<link>
									<linkclipref>ArmA 3 2020.11.14 - 01.19.04.98.mp4536872198</linkclipref>
								</link>
								<link>
									<linkclipref>ArmA 3 2020.11.14 - 01.19.04.98.mp45368721981</linkclipref>
								</link>
							</clipitem>
							<clipitem id="ArmA 3 2020.11.14 - 01.19.30.99.mp45368722011">
								<name>ArmA 3 2020.11.14 - 01.19.30.99.mp4</name>
								<duration>782</duration>
								<rate>
									<ntsc>TRUE</ntsc>
									<timebase>24</timebase>
								</rate>
								<in>0</in>
								<out>782</out>
								<start>13649</start>
								<end>14431</end>
								<masterclipid>ArmA 3 2020.11.14 - 01.19.30.99.mp4</masterclipid>
								<logginginfo>
									<scene />
									<shottake />
									<lognote />
									<good>FALSE</good>
								</logginginfo>
								<labels>
									<label2 />
								</labels>
								<comments>
									<mastercomment1 />
									<mastercomment2 />
									<mastercomment3 />
									<mastercomment4 />
								</comments>
								<file id="ArmA 3 2020.11.14 - 01.19.30.99" />
								<filter>
									<effect>
										<name>Audio Levels</name>
										<effectid>audiolevels</effectid>
										<effectcategory>audiolevels</effectcategory>
										<effecttype>audiolevels</effecttype>
										<mediatype>audio</mediatype>
										<parameter>
											<name>Level</name>
											<parameterid>level</parameterid>
											<valuemin>0</valuemin>
											<valuemax>3,98109</valuemax>
											<value>1</value>
										</parameter>
									</effect>
								</filter>
								<filter>
									<effect>
										<name>Audio Pan</name>
										<effectid>audiopan</effectid>
										<effectcategory>audiopan</effectcategory>
										<effecttype>audiopan</effecttype>
										<mediatype>audio</mediatype>
										<parameter>
											<name>Pan</name>
											<parameterid>pan</parameterid>
											<valuemin>-1</valuemin>
											<valuemax>1</valuemax>
											<value>1</value>
										</parameter>
									</effect>
								</filter>
								<sourcetrack>
									<mediatype>audio</mediatype>
									<trackindex>2</trackindex>
								</sourcetrack>
								<link>
									<linkclipref>ArmA 3 2020.11.14 - 01.19.30.99.mp4805307655</linkclipref>
								</link>
								<link>
									<linkclipref>ArmA 3 2020.11.14 - 01.19.30.99.mp4536872200</linkclipref>
								</link>
								<link>
									<linkclipref>ArmA 3 2020.11.14 - 01.19.30.99.mp45368722001</linkclipref>
								</link>
								<link>
									<linkclipref>ArmA 3 2020.11.14 - 01.19.30.99.mp4536872201</linkclipref>
								</link>
								<link>
									<linkclipref>ArmA 3 2020.11.14 - 01.19.30.99.mp45368722011</linkclipref>
								</link>
							</clipitem>
							<clipitem id="ArmA 3 2020.11.14 - 01.21.06.100.mp45368722041">
								<name>ArmA 3 2020.11.14 - 01.21.06.100.mp4</name>
								<duration>349</duration>
								<rate>
									<ntsc>TRUE</ntsc>
									<timebase>24</timebase>
								</rate>
								<in>0</in>
								<out>349</out>
								<start>14432</start>
								<end>14781</end>
								<masterclipid>ArmA 3 2020.11.14 - 01.21.06.100.mp4</masterclipid>
								<logginginfo>
									<scene />
									<shottake />
									<lognote />
									<good>FALSE</good>
								</logginginfo>
								<labels>
									<label2 />
								</labels>
								<comments>
									<mastercomment1 />
									<mastercomment2 />
									<mastercomment3 />
									<mastercomment4 />
								</comments>
								<file id="ArmA 3 2020.11.14 - 01.21.06.100" />
								<filter>
									<effect>
										<name>Audio Levels</name>
										<effectid>audiolevels</effectid>
										<effectcategory>audiolevels</effectcategory>
										<effecttype>audiolevels</effecttype>
										<mediatype>audio</mediatype>
										<parameter>
											<name>Level</name>
											<parameterid>level</parameterid>
											<valuemin>0</valuemin>
											<valuemax>3,98109</valuemax>
											<value>1</value>
										</parameter>
									</effect>
								</filter>
								<filter>
									<effect>
										<name>Audio Pan</name>
										<effectid>audiopan</effectid>
										<effectcategory>audiopan</effectcategory>
										<effecttype>audiopan</effecttype>
										<mediatype>audio</mediatype>
										<parameter>
											<name>Pan</name>
											<parameterid>pan</parameterid>
											<valuemin>-1</valuemin>
											<valuemax>1</valuemax>
											<value>1</value>
										</parameter>
									</effect>
								</filter>
								<sourcetrack>
									<mediatype>audio</mediatype>
									<trackindex>2</trackindex>
								</sourcetrack>
								<link>
									<linkclipref>ArmA 3 2020.11.14 - 01.21.06.100.mp4805307658</linkclipref>
								</link>
								<link>
									<linkclipref>ArmA 3 2020.11.14 - 01.21.06.100.mp4536872203</linkclipref>
								</link>
								<link>
									<linkclipref>ArmA 3 2020.11.14 - 01.21.06.100.mp45368722031</linkclipref>
								</link>
								<link>
									<linkclipref>ArmA 3 2020.11.14 - 01.21.06.100.mp4536872204</linkclipref>
								</link>
								<link>
									<linkclipref>ArmA 3 2020.11.14 - 01.21.06.100.mp45368722041</linkclipref>
								</link>
							</clipitem>
							<clipitem id="ArmA 3 2020.11.14 - 01.21.52.101.mp45368722071">
								<name>ArmA 3 2020.11.14 - 01.21.52.101.mp4</name>
								<duration>1025</duration>
								<rate>
									<ntsc>TRUE</ntsc>
									<timebase>24</timebase>
								</rate>
								<in>0</in>
								<out>1025</out>
								<start>14782</start>
								<end>15807</end>
								<masterclipid>ArmA 3 2020.11.14 - 01.21.52.101.mp4</masterclipid>
								<logginginfo>
									<scene />
									<shottake />
									<lognote />
									<good>FALSE</good>
								</logginginfo>
								<labels>
									<label2 />
								</labels>
								<comments>
									<mastercomment1 />
									<mastercomment2 />
									<mastercomment3 />
									<mastercomment4 />
								</comments>
								<file id="ArmA 3 2020.11.14 - 01.21.52.101" />
								<filter>
									<effect>
										<name>Audio Levels</name>
										<effectid>audiolevels</effectid>
										<effectcategory>audiolevels</effectcategory>
										<effecttype>audiolevels</effecttype>
										<mediatype>audio</mediatype>
										<parameter>
											<name>Level</name>
											<parameterid>level</parameterid>
											<valuemin>0</valuemin>
											<valuemax>3,98109</valuemax>
											<value>1</value>
										</parameter>
									</effect>
								</filter>
								<filter>
									<effect>
										<name>Audio Pan</name>
										<effectid>audiopan</effectid>
										<effectcategory>audiopan</effectcategory>
										<effecttype>audiopan</effecttype>
										<mediatype>audio</mediatype>
										<parameter>
											<name>Pan</name>
											<parameterid>pan</parameterid>
											<valuemin>-1</valuemin>
											<valuemax>1</valuemax>
											<value>1</value>
										</parameter>
									</effect>
								</filter>
								<sourcetrack>
									<mediatype>audio</mediatype>
									<trackindex>2</trackindex>
								</sourcetrack>
								<link>
									<linkclipref>ArmA 3 2020.11.14 - 01.21.52.101.mp4805307661</linkclipref>
								</link>
								<link>
									<linkclipref>ArmA 3 2020.11.14 - 01.21.52.101.mp4536872206</linkclipref>
								</link>
								<link>
									<linkclipref>ArmA 3 2020.11.14 - 01.21.52.101.mp45368722061</linkclipref>
								</link>
								<link>
									<linkclipref>ArmA 3 2020.11.14 - 01.21.52.101.mp4536872207</linkclipref>
								</link>
								<link>
									<linkclipref>ArmA 3 2020.11.14 - 01.21.52.101.mp45368722071</linkclipref>
								</link>
							</clipitem>
							<clipitem id="ArmA 3 2020.11.14 - 01.22.45.102.mp45368722101">
								<name>ArmA 3 2020.11.14 - 01.22.45.102.mp4</name>
								<duration>1159</duration>
								<rate>
									<ntsc>TRUE</ntsc>
									<timebase>24</timebase>
								</rate>
								<in>0</in>
								<out>1159</out>
								<start>15808</start>
								<end>16967</end>
								<masterclipid>ArmA 3 2020.11.14 - 01.22.45.102.mp4</masterclipid>
								<logginginfo>
									<scene />
									<shottake />
									<lognote />
									<good>FALSE</good>
								</logginginfo>
								<labels>
									<label2 />
								</labels>
								<comments>
									<mastercomment1 />
									<mastercomment2 />
									<mastercomment3 />
									<mastercomment4 />
								</comments>
								<file id="ArmA 3 2020.11.14 - 01.22.45.102" />
								<filter>
									<effect>
										<name>Audio Levels</name>
										<effectid>audiolevels</effectid>
										<effectcategory>audiolevels</effectcategory>
										<effecttype>audiolevels</effecttype>
										<mediatype>audio</mediatype>
										<parameter>
											<name>Level</name>
											<parameterid>level</parameterid>
											<valuemin>0</valuemin>
											<valuemax>3,98109</valuemax>
											<value>1</value>
										</parameter>
									</effect>
								</filter>
								<filter>
									<effect>
										<name>Audio Pan</name>
										<effectid>audiopan</effectid>
										<effectcategory>audiopan</effectcategory>
										<effecttype>audiopan</effecttype>
										<mediatype>audio</mediatype>
										<parameter>
											<name>Pan</name>
											<parameterid>pan</parameterid>
											<valuemin>-1</valuemin>
											<valuemax>1</valuemax>
											<value>1</value>
										</parameter>
									</effect>
								</filter>
								<sourcetrack>
									<mediatype>audio</mediatype>
									<trackindex>2</trackindex>
								</sourcetrack>
								<link>
									<linkclipref>ArmA 3 2020.11.14 - 01.22.45.102.mp4805307664</linkclipref>
								</link>
								<link>
									<linkclipref>ArmA 3 2020.11.14 - 01.22.45.102.mp4536872209</linkclipref>
								</link>
								<link>
									<linkclipref>ArmA 3 2020.11.14 - 01.22.45.102.mp45368722091</linkclipref>
								</link>
								<link>
									<linkclipref>ArmA 3 2020.11.14 - 01.22.45.102.mp4536872210</linkclipref>
								</link>
								<link>
									<linkclipref>ArmA 3 2020.11.14 - 01.22.45.102.mp45368722101</linkclipref>
								</link>
							</clipitem>
							<clipitem id="ArmA 3 2020.11.14 - 01.24.35.103.mp45368722131">
								<name>ArmA 3 2020.11.14 - 01.24.35.103.mp4</name>
								<duration>1749</duration>
								<rate>
									<ntsc>TRUE</ntsc>
									<timebase>24</timebase>
								</rate>
								<in>0</in>
								<out>1749</out>
								<start>16968</start>
								<end>18717</end>
								<masterclipid>ArmA 3 2020.11.14 - 01.24.35.103.mp4</masterclipid>
								<logginginfo>
									<scene />
									<shottake />
									<lognote />
									<good>FALSE</good>
								</logginginfo>
								<labels>
									<label2 />
								</labels>
								<comments>
									<mastercomment1 />
									<mastercomment2 />
									<mastercomment3 />
									<mastercomment4 />
								</comments>
								<file id="ArmA 3 2020.11.14 - 01.24.35.103" />
								<filter>
									<effect>
										<name>Audio Levels</name>
										<effectid>audiolevels</effectid>
										<effectcategory>audiolevels</effectcategory>
										<effecttype>audiolevels</effecttype>
										<mediatype>audio</mediatype>
										<parameter>
											<name>Level</name>
											<parameterid>level</parameterid>
											<valuemin>0</valuemin>
											<valuemax>3,98109</valuemax>
											<value>1</value>
										</parameter>
									</effect>
								</filter>
								<filter>
									<effect>
										<name>Audio Pan</name>
										<effectid>audiopan</effectid>
										<effectcategory>audiopan</effectcategory>
										<effecttype>audiopan</effecttype>
										<mediatype>audio</mediatype>
										<parameter>
											<name>Pan</name>
											<parameterid>pan</parameterid>
											<valuemin>-1</valuemin>
											<valuemax>1</valuemax>
											<value>1</value>
										</parameter>
									</effect>
								</filter>
								<sourcetrack>
									<mediatype>audio</mediatype>
									<trackindex>2</trackindex>
								</sourcetrack>
								<link>
									<linkclipref>ArmA 3 2020.11.14 - 01.24.35.103.mp4805307667</linkclipref>
								</link>
								<link>
									<linkclipref>ArmA 3 2020.11.14 - 01.24.35.103.mp4536872212</linkclipref>
								</link>
								<link>
									<linkclipref>ArmA 3 2020.11.14 - 01.24.35.103.mp45368722121</linkclipref>
								</link>
								<link>
									<linkclipref>ArmA 3 2020.11.14 - 01.24.35.103.mp4536872213</linkclipref>
								</link>
								<link>
									<linkclipref>ArmA 3 2020.11.14 - 01.24.35.103.mp45368722131</linkclipref>
								</link>
							</clipitem>
							<clipitem id="ArmA 3 2020.11.14 - 01.27.04.104.mp45368722161">
								<name>ArmA 3 2020.11.14 - 01.27.04.104.mp4</name>
								<duration>170</duration>
								<rate>
									<ntsc>TRUE</ntsc>
									<timebase>24</timebase>
								</rate>
								<in>0</in>
								<out>170</out>
								<start>18718</start>
								<end>18888</end>
								<masterclipid>ArmA 3 2020.11.14 - 01.27.04.104.mp4</masterclipid>
								<logginginfo>
									<scene />
									<shottake />
									<lognote />
									<good>FALSE</good>
								</logginginfo>
								<labels>
									<label2 />
								</labels>
								<comments>
									<mastercomment1 />
									<mastercomment2 />
									<mastercomment3 />
									<mastercomment4 />
								</comments>
								<file id="ArmA 3 2020.11.14 - 01.27.04.104" />
								<filter>
									<effect>
										<name>Audio Levels</name>
										<effectid>audiolevels</effectid>
										<effectcategory>audiolevels</effectcategory>
										<effecttype>audiolevels</effecttype>
										<mediatype>audio</mediatype>
										<parameter>
											<name>Level</name>
											<parameterid>level</parameterid>
											<valuemin>0</valuemin>
											<valuemax>3,98109</valuemax>
											<value>1</value>
										</parameter>
									</effect>
								</filter>
								<filter>
									<effect>
										<name>Audio Pan</name>
										<effectid>audiopan</effectid>
										<effectcategory>audiopan</effectcategory>
										<effecttype>audiopan</effecttype>
										<mediatype>audio</mediatype>
										<parameter>
											<name>Pan</name>
											<parameterid>pan</parameterid>
											<valuemin>-1</valuemin>
											<valuemax>1</valuemax>
											<value>1</value>
										</parameter>
									</effect>
								</filter>
								<sourcetrack>
									<mediatype>audio</mediatype>
									<trackindex>2</trackindex>
								</sourcetrack>
								<link>
									<linkclipref>ArmA 3 2020.11.14 - 01.27.04.104.mp4805307670</linkclipref>
								</link>
								<link>
									<linkclipref>ArmA 3 2020.11.14 - 01.27.04.104.mp4536872215</linkclipref>
								</link>
								<link>
									<linkclipref>ArmA 3 2020.11.14 - 01.27.04.104.mp45368722151</linkclipref>
								</link>
								<link>
									<linkclipref>ArmA 3 2020.11.14 - 01.27.04.104.mp4536872216</linkclipref>
								</link>
								<link>
									<linkclipref>ArmA 3 2020.11.14 - 01.27.04.104.mp45368722161</linkclipref>
								</link>
							</clipitem>
							<clipitem id="ArmA 3 2020.11.14 - 01.27.36.105.mp45368722191">
								<name>ArmA 3 2020.11.14 - 01.27.36.105.mp4</name>
								<duration>747</duration>
								<rate>
									<ntsc>TRUE</ntsc>
									<timebase>24</timebase>
								</rate>
								<in>0</in>
								<out>747</out>
								<start>18889</start>
								<end>19636</end>
								<masterclipid>ArmA 3 2020.11.14 - 01.27.36.105.mp4</masterclipid>
								<logginginfo>
									<scene />
									<shottake />
									<lognote />
									<good>FALSE</good>
								</logginginfo>
								<labels>
									<label2 />
								</labels>
								<comments>
									<mastercomment1 />
									<mastercomment2 />
									<mastercomment3 />
									<mastercomment4 />
								</comments>
								<file id="ArmA 3 2020.11.14 - 01.27.36.105" />
								<filter>
									<effect>
										<name>Audio Levels</name>
										<effectid>audiolevels</effectid>
										<effectcategory>audiolevels</effectcategory>
										<effecttype>audiolevels</effecttype>
										<mediatype>audio</mediatype>
										<parameter>
											<name>Level</name>
											<parameterid>level</parameterid>
											<valuemin>0</valuemin>
											<valuemax>3,98109</valuemax>
											<value>1</value>
										</parameter>
									</effect>
								</filter>
								<filter>
									<effect>
										<name>Audio Pan</name>
										<effectid>audiopan</effectid>
										<effectcategory>audiopan</effectcategory>
										<effecttype>audiopan</effecttype>
										<mediatype>audio</mediatype>
										<parameter>
											<name>Pan</name>
											<parameterid>pan</parameterid>
											<valuemin>-1</valuemin>
											<valuemax>1</valuemax>
											<value>1</value>
										</parameter>
									</effect>
								</filter>
								<sourcetrack>
									<mediatype>audio</mediatype>
									<trackindex>2</trackindex>
								</sourcetrack>
								<link>
									<linkclipref>ArmA 3 2020.11.14 - 01.27.36.105.mp4805307673</linkclipref>
								</link>
								<link>
									<linkclipref>ArmA 3 2020.11.14 - 01.27.36.105.mp4536872218</linkclipref>
								</link>
								<link>
									<linkclipref>ArmA 3 2020.11.14 - 01.27.36.105.mp45368722181</linkclipref>
								</link>
								<link>
									<linkclipref>ArmA 3 2020.11.14 - 01.27.36.105.mp4536872219</linkclipref>
								</link>
								<link>
									<linkclipref>ArmA 3 2020.11.14 - 01.27.36.105.mp45368722191</linkclipref>
								</link>
							</clipitem>
							<clipitem id="ArmA 3 2020.11.14 - 01.32.59.106.mp45368722221">
								<name>ArmA 3 2020.11.14 - 01.32.59.106.mp4</name>
								<duration>834</duration>
								<rate>
									<ntsc>TRUE</ntsc>
									<timebase>24</timebase>
								</rate>
								<in>0</in>
								<out>834</out>
								<start>19637</start>
								<end>20471</end>
								<masterclipid>ArmA 3 2020.11.14 - 01.32.59.106.mp4</masterclipid>
								<logginginfo>
									<scene />
									<shottake />
									<lognote />
									<good>FALSE</good>
								</logginginfo>
								<labels>
									<label2 />
								</labels>
								<comments>
									<mastercomment1 />
									<mastercomment2 />
									<mastercomment3 />
									<mastercomment4 />
								</comments>
								<file id="ArmA 3 2020.11.14 - 01.32.59.106" />
								<filter>
									<effect>
										<name>Audio Levels</name>
										<effectid>audiolevels</effectid>
										<effectcategory>audiolevels</effectcategory>
										<effecttype>audiolevels</effecttype>
										<mediatype>audio</mediatype>
										<parameter>
											<name>Level</name>
											<parameterid>level</parameterid>
											<valuemin>0</valuemin>
											<valuemax>3,98109</valuemax>
											<value>1</value>
										</parameter>
									</effect>
								</filter>
								<filter>
									<effect>
										<name>Audio Pan</name>
										<effectid>audiopan</effectid>
										<effectcategory>audiopan</effectcategory>
										<effecttype>audiopan</effecttype>
										<mediatype>audio</mediatype>
										<parameter>
											<name>Pan</name>
											<parameterid>pan</parameterid>
											<valuemin>-1</valuemin>
											<valuemax>1</valuemax>
											<value>1</value>
										</parameter>
									</effect>
								</filter>
								<sourcetrack>
									<mediatype>audio</mediatype>
									<trackindex>2</trackindex>
								</sourcetrack>
								<link>
									<linkclipref>ArmA 3 2020.11.14 - 01.32.59.106.mp4805307676</linkclipref>
								</link>
								<link>
									<linkclipref>ArmA 3 2020.11.14 - 01.32.59.106.mp4536872221</linkclipref>
								</link>
								<link>
									<linkclipref>ArmA 3 2020.11.14 - 01.32.59.106.mp45368722211</linkclipref>
								</link>
								<link>
									<linkclipref>ArmA 3 2020.11.14 - 01.32.59.106.mp4536872222</linkclipref>
								</link>
								<link>
									<linkclipref>ArmA 3 2020.11.14 - 01.32.59.106.mp45368722221</linkclipref>
								</link>
							</clipitem>
							<clipitem id="ArmA 3 2020.11.14 - 01.34.00.107.mp45368722251">
								<name>ArmA 3 2020.11.14 - 01.34.00.107.mp4</name>
								<duration>670</duration>
								<rate>
									<ntsc>TRUE</ntsc>
									<timebase>24</timebase>
								</rate>
								<in>0</in>
								<out>670</out>
								<start>20472</start>
								<end>21142</end>
								<masterclipid>ArmA 3 2020.11.14 - 01.34.00.107.mp4</masterclipid>
								<logginginfo>
									<scene />
									<shottake />
									<lognote />
									<good>FALSE</good>
								</logginginfo>
								<labels>
									<label2 />
								</labels>
								<comments>
									<mastercomment1 />
									<mastercomment2 />
									<mastercomment3 />
									<mastercomment4 />
								</comments>
								<file id="ArmA 3 2020.11.14 - 01.34.00.107" />
								<filter>
									<effect>
										<name>Audio Levels</name>
										<effectid>audiolevels</effectid>
										<effectcategory>audiolevels</effectcategory>
										<effecttype>audiolevels</effecttype>
										<mediatype>audio</mediatype>
										<parameter>
											<name>Level</name>
											<parameterid>level</parameterid>
											<valuemin>0</valuemin>
											<valuemax>3,98109</valuemax>
											<value>1</value>
										</parameter>
									</effect>
								</filter>
								<filter>
									<effect>
										<name>Audio Pan</name>
										<effectid>audiopan</effectid>
										<effectcategory>audiopan</effectcategory>
										<effecttype>audiopan</effecttype>
										<mediatype>audio</mediatype>
										<parameter>
											<name>Pan</name>
											<parameterid>pan</parameterid>
											<valuemin>-1</valuemin>
											<valuemax>1</valuemax>
											<value>1</value>
										</parameter>
									</effect>
								</filter>
								<sourcetrack>
									<mediatype>audio</mediatype>
									<trackindex>2</trackindex>
								</sourcetrack>
								<link>
									<linkclipref>ArmA 3 2020.11.14 - 01.34.00.107.mp4805307679</linkclipref>
								</link>
								<link>
									<linkclipref>ArmA 3 2020.11.14 - 01.34.00.107.mp4536872224</linkclipref>
								</link>
								<link>
									<linkclipref>ArmA 3 2020.11.14 - 01.34.00.107.mp45368722241</linkclipref>
								</link>
								<link>
									<linkclipref>ArmA 3 2020.11.14 - 01.34.00.107.mp4536872225</linkclipref>
								</link>
								<link>
									<linkclipref>ArmA 3 2020.11.14 - 01.34.00.107.mp45368722251</linkclipref>
								</link>
							</clipitem>
							<clipitem id="ArmA 3 2020.11.14 - 01.34.52.108.mp45368722281">
								<name>ArmA 3 2020.11.14 - 01.34.52.108.mp4</name>
								<duration>461</duration>
								<rate>
									<ntsc>TRUE</ntsc>
									<timebase>24</timebase>
								</rate>
								<in>0</in>
								<out>461</out>
								<start>21143</start>
								<end>21604</end>
								<masterclipid>ArmA 3 2020.11.14 - 01.34.52.108.mp4</masterclipid>
								<logginginfo>
									<scene />
									<shottake />
									<lognote />
									<good>FALSE</good>
								</logginginfo>
								<labels>
									<label2 />
								</labels>
								<comments>
									<mastercomment1 />
									<mastercomment2 />
									<mastercomment3 />
									<mastercomment4 />
								</comments>
								<file id="ArmA 3 2020.11.14 - 01.34.52.108" />
								<filter>
									<effect>
										<name>Audio Levels</name>
										<effectid>audiolevels</effectid>
										<effectcategory>audiolevels</effectcategory>
										<effecttype>audiolevels</effecttype>
										<mediatype>audio</mediatype>
										<parameter>
											<name>Level</name>
											<parameterid>level</parameterid>
											<valuemin>0</valuemin>
											<valuemax>3,98109</valuemax>
											<value>1</value>
										</parameter>
									</effect>
								</filter>
								<filter>
									<effect>
										<name>Audio Pan</name>
										<effectid>audiopan</effectid>
										<effectcategory>audiopan</effectcategory>
										<effecttype>audiopan</effecttype>
										<mediatype>audio</mediatype>
										<parameter>
											<name>Pan</name>
											<parameterid>pan</parameterid>
											<valuemin>-1</valuemin>
											<valuemax>1</valuemax>
											<value>1</value>
										</parameter>
									</effect>
								</filter>
								<sourcetrack>
									<mediatype>audio</mediatype>
									<trackindex>2</trackindex>
								</sourcetrack>
								<link>
									<linkclipref>ArmA 3 2020.11.14 - 01.34.52.108.mp4805307682</linkclipref>
								</link>
								<link>
									<linkclipref>ArmA 3 2020.11.14 - 01.34.52.108.mp4536872227</linkclipref>
								</link>
								<link>
									<linkclipref>ArmA 3 2020.11.14 - 01.34.52.108.mp45368722271</linkclipref>
								</link>
								<link>
									<linkclipref>ArmA 3 2020.11.14 - 01.34.52.108.mp4536872228</linkclipref>
								</link>
								<link>
									<linkclipref>ArmA 3 2020.11.14 - 01.34.52.108.mp45368722281</linkclipref>
								</link>
							</clipitem>
							<clipitem id="ArmA 3 2020.11.14 - 01.35.14.109.mp45368722311">
								<name>ArmA 3 2020.11.14 - 01.35.14.109.mp4</name>
								<duration>115</duration>
								<rate>
									<ntsc>TRUE</ntsc>
									<timebase>24</timebase>
								</rate>
								<in>0</in>
								<out>115</out>
								<start>21605</start>
								<end>21720</end>
								<masterclipid>ArmA 3 2020.11.14 - 01.35.14.109.mp4</masterclipid>
								<logginginfo>
									<scene />
									<shottake />
									<lognote />
									<good>FALSE</good>
								</logginginfo>
								<labels>
									<label2 />
								</labels>
								<comments>
									<mastercomment1 />
									<mastercomment2 />
									<mastercomment3 />
									<mastercomment4 />
								</comments>
								<file id="ArmA 3 2020.11.14 - 01.35.14.109" />
								<filter>
									<effect>
										<name>Audio Levels</name>
										<effectid>audiolevels</effectid>
										<effectcategory>audiolevels</effectcategory>
										<effecttype>audiolevels</effecttype>
										<mediatype>audio</mediatype>
										<parameter>
											<name>Level</name>
											<parameterid>level</parameterid>
											<valuemin>0</valuemin>
											<valuemax>3,98109</valuemax>
											<value>1</value>
										</parameter>
									</effect>
								</filter>
								<filter>
									<effect>
										<name>Audio Pan</name>
										<effectid>audiopan</effectid>
										<effectcategory>audiopan</effectcategory>
										<effecttype>audiopan</effecttype>
										<mediatype>audio</mediatype>
										<parameter>
											<name>Pan</name>
											<parameterid>pan</parameterid>
											<valuemin>-1</valuemin>
											<valuemax>1</valuemax>
											<value>1</value>
										</parameter>
									</effect>
								</filter>
								<sourcetrack>
									<mediatype>audio</mediatype>
									<trackindex>2</trackindex>
								</sourcetrack>
								<link>
									<linkclipref>ArmA 3 2020.11.14 - 01.35.14.109.mp4805307685</linkclipref>
								</link>
								<link>
									<linkclipref>ArmA 3 2020.11.14 - 01.35.14.109.mp4536872230</linkclipref>
								</link>
								<link>
									<linkclipref>ArmA 3 2020.11.14 - 01.35.14.109.mp45368722301</linkclipref>
								</link>
								<link>
									<linkclipref>ArmA 3 2020.11.14 - 01.35.14.109.mp4536872231</linkclipref>
								</link>
								<link>
									<linkclipref>ArmA 3 2020.11.14 - 01.35.14.109.mp45368722311</linkclipref>
								</link>
							</clipitem>
							<clipitem id="ArmA 3 2020.11.14 - 01.36.01.110.mp45368722341">
								<name>ArmA 3 2020.11.14 - 01.36.01.110.mp4</name>
								<duration>2427</duration>
								<rate>
									<ntsc>TRUE</ntsc>
									<timebase>24</timebase>
								</rate>
								<in>0</in>
								<out>2427</out>
								<start>21721</start>
								<end>24148</end>
								<masterclipid>ArmA 3 2020.11.14 - 01.36.01.110.mp4</masterclipid>
								<logginginfo>
									<scene />
									<shottake />
									<lognote />
									<good>FALSE</good>
								</logginginfo>
								<labels>
									<label2 />
								</labels>
								<comments>
									<mastercomment1 />
									<mastercomment2 />
									<mastercomment3 />
									<mastercomment4 />
								</comments>
								<file id="ArmA 3 2020.11.14 - 01.36.01.110" />
								<filter>
									<effect>
										<name>Audio Levels</name>
										<effectid>audiolevels</effectid>
										<effectcategory>audiolevels</effectcategory>
										<effecttype>audiolevels</effecttype>
										<mediatype>audio</mediatype>
										<parameter>
											<name>Level</name>
											<parameterid>level</parameterid>
											<valuemin>0</valuemin>
											<valuemax>3,98109</valuemax>
											<value>1</value>
										</parameter>
									</effect>
								</filter>
								<filter>
									<effect>
										<name>Audio Pan</name>
										<effectid>audiopan</effectid>
										<effectcategory>audiopan</effectcategory>
										<effecttype>audiopan</effecttype>
										<mediatype>audio</mediatype>
										<parameter>
											<name>Pan</name>
											<parameterid>pan</parameterid>
											<valuemin>-1</valuemin>
											<valuemax>1</valuemax>
											<value>1</value>
										</parameter>
									</effect>
								</filter>
								<sourcetrack>
									<mediatype>audio</mediatype>
									<trackindex>2</trackindex>
								</sourcetrack>
								<link>
									<linkclipref>ArmA 3 2020.11.14 - 01.36.01.110.mp4805307688</linkclipref>
								</link>
								<link>
									<linkclipref>ArmA 3 2020.11.14 - 01.36.01.110.mp4536872233</linkclipref>
								</link>
								<link>
									<linkclipref>ArmA 3 2020.11.14 - 01.36.01.110.mp45368722331</linkclipref>
								</link>
								<link>
									<linkclipref>ArmA 3 2020.11.14 - 01.36.01.110.mp4536872234</linkclipref>
								</link>
								<link>
									<linkclipref>ArmA 3 2020.11.14 - 01.36.01.110.mp45368722341</linkclipref>
								</link>
							</clipitem>
							<clipitem id="ArmA 3 2020.11.14 - 01.37.46.111.mp45368722371">
								<name>ArmA 3 2020.11.14 - 01.37.46.111.mp4</name>
								<duration>2189</duration>
								<rate>
									<ntsc>TRUE</ntsc>
									<timebase>24</timebase>
								</rate>
								<in>0</in>
								<out>2189</out>
								<start>24149</start>
								<end>26338</end>
								<masterclipid>ArmA 3 2020.11.14 - 01.37.46.111.mp4</masterclipid>
								<logginginfo>
									<scene />
									<shottake />
									<lognote />
									<good>FALSE</good>
								</logginginfo>
								<labels>
									<label2 />
								</labels>
								<comments>
									<mastercomment1 />
									<mastercomment2 />
									<mastercomment3 />
									<mastercomment4 />
								</comments>
								<file id="ArmA 3 2020.11.14 - 01.37.46.111" />
								<filter>
									<effect>
										<name>Audio Levels</name>
										<effectid>audiolevels</effectid>
										<effectcategory>audiolevels</effectcategory>
										<effecttype>audiolevels</effecttype>
										<mediatype>audio</mediatype>
										<parameter>
											<name>Level</name>
											<parameterid>level</parameterid>
											<valuemin>0</valuemin>
											<valuemax>3,98109</valuemax>
											<value>1</value>
										</parameter>
									</effect>
								</filter>
								<filter>
									<effect>
										<name>Audio Pan</name>
										<effectid>audiopan</effectid>
										<effectcategory>audiopan</effectcategory>
										<effecttype>audiopan</effecttype>
										<mediatype>audio</mediatype>
										<parameter>
											<name>Pan</name>
											<parameterid>pan</parameterid>
											<valuemin>-1</valuemin>
											<valuemax>1</valuemax>
											<value>1</value>
										</parameter>
									</effect>
								</filter>
								<sourcetrack>
									<mediatype>audio</mediatype>
									<trackindex>2</trackindex>
								</sourcetrack>
								<link>
									<linkclipref>ArmA 3 2020.11.14 - 01.37.46.111.mp4805307691</linkclipref>
								</link>
								<link>
									<linkclipref>ArmA 3 2020.11.14 - 01.37.46.111.mp4536872236</linkclipref>
								</link>
								<link>
									<linkclipref>ArmA 3 2020.11.14 - 01.37.46.111.mp45368722361</linkclipref>
								</link>
								<link>
									<linkclipref>ArmA 3 2020.11.14 - 01.37.46.111.mp4536872237</linkclipref>
								</link>
								<link>
									<linkclipref>ArmA 3 2020.11.14 - 01.37.46.111.mp45368722371</linkclipref>
								</link>
							</clipitem>
							<clipitem id="ArmA 3 2020.11.14 - 01.40.03.112.mp45368722401">
								<name>ArmA 3 2020.11.14 - 01.40.03.112.mp4</name>
								<duration>1199</duration>
								<rate>
									<ntsc>TRUE</ntsc>
									<timebase>24</timebase>
								</rate>
								<in>0</in>
								<out>1199</out>
								<start>26339</start>
								<end>27538</end>
								<masterclipid>ArmA 3 2020.11.14 - 01.40.03.112.mp4</masterclipid>
								<logginginfo>
									<scene />
									<shottake />
									<lognote />
									<good>FALSE</good>
								</logginginfo>
								<labels>
									<label2 />
								</labels>
								<comments>
									<mastercomment1 />
									<mastercomment2 />
									<mastercomment3 />
									<mastercomment4 />
								</comments>
								<file id="ArmA 3 2020.11.14 - 01.40.03.112" />
								<filter>
									<effect>
										<name>Audio Levels</name>
										<effectid>audiolevels</effectid>
										<effectcategory>audiolevels</effectcategory>
										<effecttype>audiolevels</effecttype>
										<mediatype>audio</mediatype>
										<parameter>
											<name>Level</name>
											<parameterid>level</parameterid>
											<valuemin>0</valuemin>
											<valuemax>3,98109</valuemax>
											<value>1</value>
										</parameter>
									</effect>
								</filter>
								<filter>
									<effect>
										<name>Audio Pan</name>
										<effectid>audiopan</effectid>
										<effectcategory>audiopan</effectcategory>
										<effecttype>audiopan</effecttype>
										<mediatype>audio</mediatype>
										<parameter>
											<name>Pan</name>
											<parameterid>pan</parameterid>
											<valuemin>-1</valuemin>
											<valuemax>1</valuemax>
											<value>1</value>
										</parameter>
									</effect>
								</filter>
								<sourcetrack>
									<mediatype>audio</mediatype>
									<trackindex>2</trackindex>
								</sourcetrack>
								<link>
									<linkclipref>ArmA 3 2020.11.14 - 01.40.03.112.mp4805307694</linkclipref>
								</link>
								<link>
									<linkclipref>ArmA 3 2020.11.14 - 01.40.03.112.mp4536872239</linkclipref>
								</link>
								<link>
									<linkclipref>ArmA 3 2020.11.14 - 01.40.03.112.mp45368722391</linkclipref>
								</link>
								<link>
									<linkclipref>ArmA 3 2020.11.14 - 01.40.03.112.mp4536872240</linkclipref>
								</link>
								<link>
									<linkclipref>ArmA 3 2020.11.14 - 01.40.03.112.mp45368722401</linkclipref>
								</link>
							</clipitem>
							<clipitem id="ArmA 3 2020.11.14 - 01.41.02.113.mp45368722431">
								<name>ArmA 3 2020.11.14 - 01.41.02.113.mp4</name>
								<duration>927</duration>
								<rate>
									<ntsc>TRUE</ntsc>
									<timebase>24</timebase>
								</rate>
								<in>0</in>
								<out>927</out>
								<start>27539</start>
								<end>28466</end>
								<masterclipid>ArmA 3 2020.11.14 - 01.41.02.113.mp4</masterclipid>
								<logginginfo>
									<scene />
									<shottake />
									<lognote />
									<good>FALSE</good>
								</logginginfo>
								<labels>
									<label2 />
								</labels>
								<comments>
									<mastercomment1 />
									<mastercomment2 />
									<mastercomment3 />
									<mastercomment4 />
								</comments>
								<file id="ArmA 3 2020.11.14 - 01.41.02.113" />
								<filter>
									<effect>
										<name>Audio Levels</name>
										<effectid>audiolevels</effectid>
										<effectcategory>audiolevels</effectcategory>
										<effecttype>audiolevels</effecttype>
										<mediatype>audio</mediatype>
										<parameter>
											<name>Level</name>
											<parameterid>level</parameterid>
											<valuemin>0</valuemin>
											<valuemax>3,98109</valuemax>
											<value>1</value>
										</parameter>
									</effect>
								</filter>
								<filter>
									<effect>
										<name>Audio Pan</name>
										<effectid>audiopan</effectid>
										<effectcategory>audiopan</effectcategory>
										<effecttype>audiopan</effecttype>
										<mediatype>audio</mediatype>
										<parameter>
											<name>Pan</name>
											<parameterid>pan</parameterid>
											<valuemin>-1</valuemin>
											<valuemax>1</valuemax>
											<value>1</value>
										</parameter>
									</effect>
								</filter>
								<sourcetrack>
									<mediatype>audio</mediatype>
									<trackindex>2</trackindex>
								</sourcetrack>
								<link>
									<linkclipref>ArmA 3 2020.11.14 - 01.41.02.113.mp4805307697</linkclipref>
								</link>
								<link>
									<linkclipref>ArmA 3 2020.11.14 - 01.41.02.113.mp4536872242</linkclipref>
								</link>
								<link>
									<linkclipref>ArmA 3 2020.11.14 - 01.41.02.113.mp45368722421</linkclipref>
								</link>
								<link>
									<linkclipref>ArmA 3 2020.11.14 - 01.41.02.113.mp4536872243</linkclipref>
								</link>
								<link>
									<linkclipref>ArmA 3 2020.11.14 - 01.41.02.113.mp45368722431</linkclipref>
								</link>
							</clipitem>
							<clipitem id="ArmA 3 2020.11.14 - 01.42.04.114.mp45368722461">
								<name>ArmA 3 2020.11.14 - 01.42.04.114.mp4</name>
								<duration>871</duration>
								<rate>
									<ntsc>TRUE</ntsc>
									<timebase>24</timebase>
								</rate>
								<in>0</in>
								<out>871</out>
								<start>28467</start>
								<end>29338</end>
								<masterclipid>ArmA 3 2020.11.14 - 01.42.04.114.mp4</masterclipid>
								<logginginfo>
									<scene />
									<shottake />
									<lognote />
									<good>FALSE</good>
								</logginginfo>
								<labels>
									<label2 />
								</labels>
								<comments>
									<mastercomment1 />
									<mastercomment2 />
									<mastercomment3 />
									<mastercomment4 />
								</comments>
								<file id="ArmA 3 2020.11.14 - 01.42.04.114" />
								<filter>
									<effect>
										<name>Audio Levels</name>
										<effectid>audiolevels</effectid>
										<effectcategory>audiolevels</effectcategory>
										<effecttype>audiolevels</effecttype>
										<mediatype>audio</mediatype>
										<parameter>
											<name>Level</name>
											<parameterid>level</parameterid>
											<valuemin>0</valuemin>
											<valuemax>3,98109</valuemax>
											<value>1</value>
										</parameter>
									</effect>
								</filter>
								<filter>
									<effect>
										<name>Audio Pan</name>
										<effectid>audiopan</effectid>
										<effectcategory>audiopan</effectcategory>
										<effecttype>audiopan</effecttype>
										<mediatype>audio</mediatype>
										<parameter>
											<name>Pan</name>
											<parameterid>pan</parameterid>
											<valuemin>-1</valuemin>
											<valuemax>1</valuemax>
											<value>1</value>
										</parameter>
									</effect>
								</filter>
								<sourcetrack>
									<mediatype>audio</mediatype>
									<trackindex>2</trackindex>
								</sourcetrack>
								<link>
									<linkclipref>ArmA 3 2020.11.14 - 01.42.04.114.mp4805307700</linkclipref>
								</link>
								<link>
									<linkclipref>ArmA 3 2020.11.14 - 01.42.04.114.mp4536872245</linkclipref>
								</link>
								<link>
									<linkclipref>ArmA 3 2020.11.14 - 01.42.04.114.mp45368722451</linkclipref>
								</link>
								<link>
									<linkclipref>ArmA 3 2020.11.14 - 01.42.04.114.mp4536872246</linkclipref>
								</link>
								<link>
									<linkclipref>ArmA 3 2020.11.14 - 01.42.04.114.mp45368722461</linkclipref>
								</link>
							</clipitem>
							<clipitem id="ArmA 3 2020.11.14 - 01.44.22.115.mp45368722491">
								<name>ArmA 3 2020.11.14 - 01.44.22.115.mp4</name>
								<duration>519</duration>
								<rate>
									<ntsc>TRUE</ntsc>
									<timebase>24</timebase>
								</rate>
								<in>0</in>
								<out>519</out>
								<start>29339</start>
								<end>29858</end>
								<masterclipid>ArmA 3 2020.11.14 - 01.44.22.115.mp4</masterclipid>
								<logginginfo>
									<scene />
									<shottake />
									<lognote />
									<good>FALSE</good>
								</logginginfo>
								<labels>
									<label2 />
								</labels>
								<comments>
									<mastercomment1 />
									<mastercomment2 />
									<mastercomment3 />
									<mastercomment4 />
								</comments>
								<file id="ArmA 3 2020.11.14 - 01.44.22.115" />
								<filter>
									<effect>
										<name>Audio Levels</name>
										<effectid>audiolevels</effectid>
										<effectcategory>audiolevels</effectcategory>
										<effecttype>audiolevels</effecttype>
										<mediatype>audio</mediatype>
										<parameter>
											<name>Level</name>
											<parameterid>level</parameterid>
											<valuemin>0</valuemin>
											<valuemax>3,98109</valuemax>
											<value>1</value>
										</parameter>
									</effect>
								</filter>
								<filter>
									<effect>
										<name>Audio Pan</name>
										<effectid>audiopan</effectid>
										<effectcategory>audiopan</effectcategory>
										<effecttype>audiopan</effecttype>
										<mediatype>audio</mediatype>
										<parameter>
											<name>Pan</name>
											<parameterid>pan</parameterid>
											<valuemin>-1</valuemin>
											<valuemax>1</valuemax>
											<value>1</value>
										</parameter>
									</effect>
								</filter>
								<sourcetrack>
									<mediatype>audio</mediatype>
									<trackindex>2</trackindex>
								</sourcetrack>
								<link>
									<linkclipref>ArmA 3 2020.11.14 - 01.44.22.115.mp4805307703</linkclipref>
								</link>
								<link>
									<linkclipref>ArmA 3 2020.11.14 - 01.44.22.115.mp4536872248</linkclipref>
								</link>
								<link>
									<linkclipref>ArmA 3 2020.11.14 - 01.44.22.115.mp45368722481</linkclipref>
								</link>
								<link>
									<linkclipref>ArmA 3 2020.11.14 - 01.44.22.115.mp4536872249</linkclipref>
								</link>
								<link>
									<linkclipref>ArmA 3 2020.11.14 - 01.44.22.115.mp45368722491</linkclipref>
								</link>
							</clipitem>
							<clipitem id="ArmA 3 2020.11.14 - 01.44.58.116.mp45368722521">
								<name>ArmA 3 2020.11.14 - 01.44.58.116.mp4</name>
								<duration>882</duration>
								<rate>
									<ntsc>TRUE</ntsc>
									<timebase>24</timebase>
								</rate>
								<in>0</in>
								<out>882</out>
								<start>29859</start>
								<end>30741</end>
								<masterclipid>ArmA 3 2020.11.14 - 01.44.58.116.mp4</masterclipid>
								<logginginfo>
									<scene />
									<shottake />
									<lognote />
									<good>FALSE</good>
								</logginginfo>
								<labels>
									<label2 />
								</labels>
								<comments>
									<mastercomment1 />
									<mastercomment2 />
									<mastercomment3 />
									<mastercomment4 />
								</comments>
								<file id="ArmA 3 2020.11.14 - 01.44.58.116" />
								<filter>
									<effect>
										<name>Audio Levels</name>
										<effectid>audiolevels</effectid>
										<effectcategory>audiolevels</effectcategory>
										<effecttype>audiolevels</effecttype>
										<mediatype>audio</mediatype>
										<parameter>
											<name>Level</name>
											<parameterid>level</parameterid>
											<valuemin>0</valuemin>
											<valuemax>3,98109</valuemax>
											<value>1</value>
										</parameter>
									</effect>
								</filter>
								<filter>
									<effect>
										<name>Audio Pan</name>
										<effectid>audiopan</effectid>
										<effectcategory>audiopan</effectcategory>
										<effecttype>audiopan</effecttype>
										<mediatype>audio</mediatype>
										<parameter>
											<name>Pan</name>
											<parameterid>pan</parameterid>
											<valuemin>-1</valuemin>
											<valuemax>1</valuemax>
											<value>1</value>
										</parameter>
									</effect>
								</filter>
								<sourcetrack>
									<mediatype>audio</mediatype>
									<trackindex>2</trackindex>
								</sourcetrack>
								<link>
									<linkclipref>ArmA 3 2020.11.14 - 01.44.58.116.mp4805307706</linkclipref>
								</link>
								<link>
									<linkclipref>ArmA 3 2020.11.14 - 01.44.58.116.mp4536872251</linkclipref>
								</link>
								<link>
									<linkclipref>ArmA 3 2020.11.14 - 01.44.58.116.mp45368722511</linkclipref>
								</link>
								<link>
									<linkclipref>ArmA 3 2020.11.14 - 01.44.58.116.mp4536872252</linkclipref>
								</link>
								<link>
									<linkclipref>ArmA 3 2020.11.14 - 01.44.58.116.mp45368722521</linkclipref>
								</link>
							</clipitem>
							<clipitem id="ArmA 3 2020.11.14 - 01.48.52.117.mp45368722551">
								<name>ArmA 3 2020.11.14 - 01.48.52.117.mp4</name>
								<duration>628</duration>
								<rate>
									<ntsc>TRUE</ntsc>
									<timebase>24</timebase>
								</rate>
								<in>0</in>
								<out>628</out>
								<start>30742</start>
								<end>31370</end>
								<masterclipid>ArmA 3 2020.11.14 - 01.48.52.117.mp4</masterclipid>
								<logginginfo>
									<scene />
									<shottake />
									<lognote />
									<good>FALSE</good>
								</logginginfo>
								<labels>
									<label2 />
								</labels>
								<comments>
									<mastercomment1 />
									<mastercomment2 />
									<mastercomment3 />
									<mastercomment4 />
								</comments>
								<file id="ArmA 3 2020.11.14 - 01.48.52.117" />
								<filter>
									<effect>
										<name>Audio Levels</name>
										<effectid>audiolevels</effectid>
										<effectcategory>audiolevels</effectcategory>
										<effecttype>audiolevels</effecttype>
										<mediatype>audio</mediatype>
										<parameter>
											<name>Level</name>
											<parameterid>level</parameterid>
											<valuemin>0</valuemin>
											<valuemax>3,98109</valuemax>
											<value>1</value>
										</parameter>
									</effect>
								</filter>
								<filter>
									<effect>
										<name>Audio Pan</name>
										<effectid>audiopan</effectid>
										<effectcategory>audiopan</effectcategory>
										<effecttype>audiopan</effecttype>
										<mediatype>audio</mediatype>
										<parameter>
											<name>Pan</name>
											<parameterid>pan</parameterid>
											<valuemin>-1</valuemin>
											<valuemax>1</valuemax>
											<value>1</value>
										</parameter>
									</effect>
								</filter>
								<sourcetrack>
									<mediatype>audio</mediatype>
									<trackindex>2</trackindex>
								</sourcetrack>
								<link>
									<linkclipref>ArmA 3 2020.11.14 - 01.48.52.117.mp4805307709</linkclipref>
								</link>
								<link>
									<linkclipref>ArmA 3 2020.11.14 - 01.48.52.117.mp4536872254</linkclipref>
								</link>
								<link>
									<linkclipref>ArmA 3 2020.11.14 - 01.48.52.117.mp45368722541</linkclipref>
								</link>
								<link>
									<linkclipref>ArmA 3 2020.11.14 - 01.48.52.117.mp4536872255</linkclipref>
								</link>
								<link>
									<linkclipref>ArmA 3 2020.11.14 - 01.48.52.117.mp45368722551</linkclipref>
								</link>
							</clipitem>
							<clipitem id="ArmA 3 2020.11.14 - 01.48.52.117.mp45368722581">
								<name>ArmA 3 2020.11.14 - 01.48.52.117.mp4</name>
								<duration>628</duration>
								<rate>
									<ntsc>TRUE</ntsc>
									<timebase>24</timebase>
								</rate>
								<in>0</in>
								<out>628</out>
								<start>31371</start>
								<end>31999</end>
								<masterclipid>ArmA 3 2020.11.14 - 01.48.52.117.mp4</masterclipid>
								<logginginfo>
									<scene />
									<shottake />
									<lognote />
									<good>FALSE</good>
								</logginginfo>
								<labels>
									<label2 />
								</labels>
								<comments>
									<mastercomment1 />
									<mastercomment2 />
									<mastercomment3 />
									<mastercomment4 />
								</comments>
								<file id="ArmA 3 2020.11.14 - 01.48.52.117" />
								<filter>
									<effect>
										<name>Audio Levels</name>
										<effectid>audiolevels</effectid>
										<effectcategory>audiolevels</effectcategory>
										<effecttype>audiolevels</effecttype>
										<mediatype>audio</mediatype>
										<parameter>
											<name>Level</name>
											<parameterid>level</parameterid>
											<valuemin>0</valuemin>
											<valuemax>3,98109</valuemax>
											<value>1</value>
										</parameter>
									</effect>
								</filter>
								<filter>
									<effect>
										<name>Audio Pan</name>
										<effectid>audiopan</effectid>
										<effectcategory>audiopan</effectcategory>
										<effecttype>audiopan</effecttype>
										<mediatype>audio</mediatype>
										<parameter>
											<name>Pan</name>
											<parameterid>pan</parameterid>
											<valuemin>-1</valuemin>
											<valuemax>1</valuemax>
											<value>1</value>
										</parameter>
									</effect>
								</filter>
								<sourcetrack>
									<mediatype>audio</mediatype>
									<trackindex>2</trackindex>
								</sourcetrack>
								<link>
									<linkclipref>ArmA 3 2020.11.14 - 01.48.52.117.mp4805307712</linkclipref>
								</link>
								<link>
									<linkclipref>ArmA 3 2020.11.14 - 01.48.52.117.mp4536872257</linkclipref>
								</link>
								<link>
									<linkclipref>ArmA 3 2020.11.14 - 01.48.52.117.mp45368722571</linkclipref>
								</link>
								<link>
									<linkclipref>ArmA 3 2020.11.14 - 01.48.52.117.mp4536872258</linkclipref>
								</link>
								<link>
									<linkclipref>ArmA 3 2020.11.14 - 01.48.52.117.mp45368722581</linkclipref>
								</link>
							</clipitem>
							<clipitem id="ArmA 3 2020.11.14 - 01.49.37.118.mp45368722611">
								<name>ArmA 3 2020.11.14 - 01.49.37.118.mp4</name>
								<duration>1699</duration>
								<rate>
									<ntsc>TRUE</ntsc>
									<timebase>24</timebase>
								</rate>
								<in>0</in>
								<out>1699</out>
								<start>32000</start>
								<end>33699</end>
								<masterclipid>ArmA 3 2020.11.14 - 01.49.37.118.mp4</masterclipid>
								<logginginfo>
									<scene />
									<shottake />
									<lognote />
									<good>FALSE</good>
								</logginginfo>
								<labels>
									<label2 />
								</labels>
								<comments>
									<mastercomment1 />
									<mastercomment2 />
									<mastercomment3 />
									<mastercomment4 />
								</comments>
								<file id="ArmA 3 2020.11.14 - 01.49.37.118" />
								<filter>
									<effect>
										<name>Audio Levels</name>
										<effectid>audiolevels</effectid>
										<effectcategory>audiolevels</effectcategory>
										<effecttype>audiolevels</effecttype>
										<mediatype>audio</mediatype>
										<parameter>
											<name>Level</name>
											<parameterid>level</parameterid>
											<valuemin>0</valuemin>
											<valuemax>3,98109</valuemax>
											<value>1</value>
										</parameter>
									</effect>
								</filter>
								<filter>
									<effect>
										<name>Audio Pan</name>
										<effectid>audiopan</effectid>
										<effectcategory>audiopan</effectcategory>
										<effecttype>audiopan</effecttype>
										<mediatype>audio</mediatype>
										<parameter>
											<name>Pan</name>
											<parameterid>pan</parameterid>
											<valuemin>-1</valuemin>
											<valuemax>1</valuemax>
											<value>1</value>
										</parameter>
									</effect>
								</filter>
								<sourcetrack>
									<mediatype>audio</mediatype>
									<trackindex>2</trackindex>
								</sourcetrack>
								<link>
									<linkclipref>ArmA 3 2020.11.14 - 01.49.37.118.mp4805307715</linkclipref>
								</link>
								<link>
									<linkclipref>ArmA 3 2020.11.14 - 01.49.37.118.mp4536872260</linkclipref>
								</link>
								<link>
									<linkclipref>ArmA 3 2020.11.14 - 01.49.37.118.mp45368722601</linkclipref>
								</link>
								<link>
									<linkclipref>ArmA 3 2020.11.14 - 01.49.37.118.mp4536872261</linkclipref>
								</link>
								<link>
									<linkclipref>ArmA 3 2020.11.14 - 01.49.37.118.mp45368722611</linkclipref>
								</link>
							</clipitem>
							<clipitem id="ArmA 3 2020.11.14 - 01.54.33.119.mp45368722641">
								<name>ArmA 3 2020.11.14 - 01.54.33.119.mp4</name>
								<duration>772</duration>
								<rate>
									<ntsc>TRUE</ntsc>
									<timebase>24</timebase>
								</rate>
								<in>0</in>
								<out>772</out>
								<start>33700</start>
								<end>34472</end>
								<masterclipid>ArmA 3 2020.11.14 - 01.54.33.119.mp4</masterclipid>
								<logginginfo>
									<scene />
									<shottake />
									<lognote />
									<good>FALSE</good>
								</logginginfo>
								<labels>
									<label2 />
								</labels>
								<comments>
									<mastercomment1 />
									<mastercomment2 />
									<mastercomment3 />
									<mastercomment4 />
								</comments>
								<file id="ArmA 3 2020.11.14 - 01.54.33.119" />
								<filter>
									<effect>
										<name>Audio Levels</name>
										<effectid>audiolevels</effectid>
										<effectcategory>audiolevels</effectcategory>
										<effecttype>audiolevels</effecttype>
										<mediatype>audio</mediatype>
										<parameter>
											<name>Level</name>
											<parameterid>level</parameterid>
											<valuemin>0</valuemin>
											<valuemax>3,98109</valuemax>
											<value>1</value>
										</parameter>
									</effect>
								</filter>
								<filter>
									<effect>
										<name>Audio Pan</name>
										<effectid>audiopan</effectid>
										<effectcategory>audiopan</effectcategory>
										<effecttype>audiopan</effecttype>
										<mediatype>audio</mediatype>
										<parameter>
											<name>Pan</name>
											<parameterid>pan</parameterid>
											<valuemin>-1</valuemin>
											<valuemax>1</valuemax>
											<value>1</value>
										</parameter>
									</effect>
								</filter>
								<sourcetrack>
									<mediatype>audio</mediatype>
									<trackindex>2</trackindex>
								</sourcetrack>
								<link>
									<linkclipref>ArmA 3 2020.11.14 - 01.54.33.119.mp4805307718</linkclipref>
								</link>
								<link>
									<linkclipref>ArmA 3 2020.11.14 - 01.54.33.119.mp4536872263</linkclipref>
								</link>
								<link>
									<linkclipref>ArmA 3 2020.11.14 - 01.54.33.119.mp45368722631</linkclipref>
								</link>
								<link>
									<linkclipref>ArmA 3 2020.11.14 - 01.54.33.119.mp4536872264</linkclipref>
								</link>
								<link>
									<linkclipref>ArmA 3 2020.11.14 - 01.54.33.119.mp45368722641</linkclipref>
								</link>
							</clipitem>
							<clipitem id="ArmA 3 2020.11.14 - 01.56.32.120.mp45368722671">
								<name>ArmA 3 2020.11.14 - 01.56.32.120.mp4</name>
								<duration>1087</duration>
								<rate>
									<ntsc>TRUE</ntsc>
									<timebase>24</timebase>
								</rate>
								<in>0</in>
								<out>1087</out>
								<start>34473</start>
								<end>35560</end>
								<masterclipid>ArmA 3 2020.11.14 - 01.56.32.120.mp4</masterclipid>
								<logginginfo>
									<scene />
									<shottake />
									<lognote />
									<good>FALSE</good>
								</logginginfo>
								<labels>
									<label2 />
								</labels>
								<comments>
									<mastercomment1 />
									<mastercomment2 />
									<mastercomment3 />
									<mastercomment4 />
								</comments>
								<file id="ArmA 3 2020.11.14 - 01.56.32.120" />
								<filter>
									<effect>
										<name>Audio Levels</name>
										<effectid>audiolevels</effectid>
										<effectcategory>audiolevels</effectcategory>
										<effecttype>audiolevels</effecttype>
										<mediatype>audio</mediatype>
										<parameter>
											<name>Level</name>
											<parameterid>level</parameterid>
											<valuemin>0</valuemin>
											<valuemax>3,98109</valuemax>
											<value>1</value>
										</parameter>
									</effect>
								</filter>
								<filter>
									<effect>
										<name>Audio Pan</name>
										<effectid>audiopan</effectid>
										<effectcategory>audiopan</effectcategory>
										<effecttype>audiopan</effecttype>
										<mediatype>audio</mediatype>
										<parameter>
											<name>Pan</name>
											<parameterid>pan</parameterid>
											<valuemin>-1</valuemin>
											<valuemax>1</valuemax>
											<value>1</value>
										</parameter>
									</effect>
								</filter>
								<sourcetrack>
									<mediatype>audio</mediatype>
									<trackindex>2</trackindex>
								</sourcetrack>
								<link>
									<linkclipref>ArmA 3 2020.11.14 - 01.56.32.120.mp4805307721</linkclipref>
								</link>
								<link>
									<linkclipref>ArmA 3 2020.11.14 - 01.56.32.120.mp4536872266</linkclipref>
								</link>
								<link>
									<linkclipref>ArmA 3 2020.11.14 - 01.56.32.120.mp45368722661</linkclipref>
								</link>
								<link>
									<linkclipref>ArmA 3 2020.11.14 - 01.56.32.120.mp4536872267</linkclipref>
								</link>
								<link>
									<linkclipref>ArmA 3 2020.11.14 - 01.56.32.120.mp45368722671</linkclipref>
								</link>
							</clipitem>
							<clipitem id="ArmA 3 2020.11.14 - 01.57.19.121.mp45368722701">
								<name>ArmA 3 2020.11.14 - 01.57.19.121.mp4</name>
								<duration>263</duration>
								<rate>
									<ntsc>TRUE</ntsc>
									<timebase>24</timebase>
								</rate>
								<in>0</in>
								<out>263</out>
								<start>35561</start>
								<end>35824</end>
								<masterclipid>ArmA 3 2020.11.14 - 01.57.19.121.mp4</masterclipid>
								<logginginfo>
									<scene />
									<shottake />
									<lognote />
									<good>FALSE</good>
								</logginginfo>
								<labels>
									<label2 />
								</labels>
								<comments>
									<mastercomment1 />
									<mastercomment2 />
									<mastercomment3 />
									<mastercomment4 />
								</comments>
								<file id="ArmA 3 2020.11.14 - 01.57.19.121" />
								<filter>
									<effect>
										<name>Audio Levels</name>
										<effectid>audiolevels</effectid>
										<effectcategory>audiolevels</effectcategory>
										<effecttype>audiolevels</effecttype>
										<mediatype>audio</mediatype>
										<parameter>
											<name>Level</name>
											<parameterid>level</parameterid>
											<valuemin>0</valuemin>
											<valuemax>3,98109</valuemax>
											<value>1</value>
										</parameter>
									</effect>
								</filter>
								<filter>
									<effect>
										<name>Audio Pan</name>
										<effectid>audiopan</effectid>
										<effectcategory>audiopan</effectcategory>
										<effecttype>audiopan</effecttype>
										<mediatype>audio</mediatype>
										<parameter>
											<name>Pan</name>
											<parameterid>pan</parameterid>
											<valuemin>-1</valuemin>
											<valuemax>1</valuemax>
											<value>1</value>
										</parameter>
									</effect>
								</filter>
								<sourcetrack>
									<mediatype>audio</mediatype>
									<trackindex>2</trackindex>
								</sourcetrack>
								<link>
									<linkclipref>ArmA 3 2020.11.14 - 01.57.19.121.mp4805307724</linkclipref>
								</link>
								<link>
									<linkclipref>ArmA 3 2020.11.14 - 01.57.19.121.mp4536872269</linkclipref>
								</link>
								<link>
									<linkclipref>ArmA 3 2020.11.14 - 01.57.19.121.mp45368722691</linkclipref>
								</link>
								<link>
									<linkclipref>ArmA 3 2020.11.14 - 01.57.19.121.mp4536872270</linkclipref>
								</link>
								<link>
									<linkclipref>ArmA 3 2020.11.14 - 01.57.19.121.mp45368722701</linkclipref>
								</link>
							</clipitem>
							<clipitem id="ArmA 3 2020.11.14 - 01.58.13.122.mp45368722731">
								<name>ArmA 3 2020.11.14 - 01.58.13.122.mp4</name>
								<duration>562</duration>
								<rate>
									<ntsc>TRUE</ntsc>
									<timebase>24</timebase>
								</rate>
								<in>0</in>
								<out>562</out>
								<start>35825</start>
								<end>36387</end>
								<masterclipid>ArmA 3 2020.11.14 - 01.58.13.122.mp4</masterclipid>
								<logginginfo>
									<scene />
									<shottake />
									<lognote />
									<good>FALSE</good>
								</logginginfo>
								<labels>
									<label2 />
								</labels>
								<comments>
									<mastercomment1 />
									<mastercomment2 />
									<mastercomment3 />
									<mastercomment4 />
								</comments>
								<file id="ArmA 3 2020.11.14 - 01.58.13.122" />
								<filter>
									<effect>
										<name>Audio Levels</name>
										<effectid>audiolevels</effectid>
										<effectcategory>audiolevels</effectcategory>
										<effecttype>audiolevels</effecttype>
										<mediatype>audio</mediatype>
										<parameter>
											<name>Level</name>
											<parameterid>level</parameterid>
											<valuemin>0</valuemin>
											<valuemax>3,98109</valuemax>
											<value>1</value>
										</parameter>
									</effect>
								</filter>
								<filter>
									<effect>
										<name>Audio Pan</name>
										<effectid>audiopan</effectid>
										<effectcategory>audiopan</effectcategory>
										<effecttype>audiopan</effecttype>
										<mediatype>audio</mediatype>
										<parameter>
											<name>Pan</name>
											<parameterid>pan</parameterid>
											<valuemin>-1</valuemin>
											<valuemax>1</valuemax>
											<value>1</value>
										</parameter>
									</effect>
								</filter>
								<sourcetrack>
									<mediatype>audio</mediatype>
									<trackindex>2</trackindex>
								</sourcetrack>
								<link>
									<linkclipref>ArmA 3 2020.11.14 - 01.58.13.122.mp4805307727</linkclipref>
								</link>
								<link>
									<linkclipref>ArmA 3 2020.11.14 - 01.58.13.122.mp4536872272</linkclipref>
								</link>
								<link>
									<linkclipref>ArmA 3 2020.11.14 - 01.58.13.122.mp45368722721</linkclipref>
								</link>
								<link>
									<linkclipref>ArmA 3 2020.11.14 - 01.58.13.122.mp4536872273</linkclipref>
								</link>
								<link>
									<linkclipref>ArmA 3 2020.11.14 - 01.58.13.122.mp45368722731</linkclipref>
								</link>
							</clipitem>
						</track>
						<track>
							<clipitem id="ArmA 3 2020.11.14 - 00.58.28.78.mp4536872137">
								<name>ArmA 3 2020.11.14 - 00.58.28.78.mp4</name>
								<duration>529</duration>
								<rate>
									<ntsc>TRUE</ntsc>
									<timebase>24</timebase>
								</rate>
								<in>0</in>
								<out>529</out>
								<start>0</start>
								<end>529</end>
								<masterclipid>ArmA 3 2020.11.14 - 00.58.28.78.mp4</masterclipid>
								<logginginfo>
									<scene />
									<shottake />
									<lognote />
									<good>FALSE</good>
								</logginginfo>
								<labels>
									<label2 />
								</labels>
								<comments>
									<mastercomment1 />
									<mastercomment2 />
									<mastercomment3 />
									<mastercomment4 />
								</comments>
								<file id="ArmA 3 2020.11.14 - 00.58.28.78" />
								<filter>
									<effect>
										<name>Audio Levels</name>
										<effectid>audiolevels</effectid>
										<effectcategory>audiolevels</effectcategory>
										<effecttype>audiolevels</effecttype>
										<mediatype>audio</mediatype>
										<parameter>
											<name>Level</name>
											<parameterid>level</parameterid>
											<valuemin>0</valuemin>
											<valuemax>3,98109</valuemax>
											<value>1</value>
										</parameter>
									</effect>
								</filter>
								<filter>
									<effect>
										<name>Audio Pan</name>
										<effectid>audiopan</effectid>
										<effectcategory>audiopan</effectcategory>
										<effecttype>audiopan</effecttype>
										<mediatype>audio</mediatype>
										<parameter>
											<name>Pan</name>
											<parameterid>pan</parameterid>
											<valuemin>-1</valuemin>
											<valuemax>1</valuemax>
											<value>-1</value>
										</parameter>
									</effect>
								</filter>
								<sourcetrack>
									<mediatype>audio</mediatype>
									<trackindex>1</trackindex>
								</sourcetrack>
								<link>
									<linkclipref>ArmA 3 2020.11.14 - 00.58.28.78.mp4805307592</linkclipref>
								</link>
								<link>
									<linkclipref>ArmA 3 2020.11.14 - 00.58.28.78.mp4536872137</linkclipref>
								</link>
								<link>
									<linkclipref>ArmA 3 2020.11.14 - 00.58.28.78.mp45368721371</linkclipref>
								</link>
								<link>
									<linkclipref>ArmA 3 2020.11.14 - 00.58.28.78.mp4536872138</linkclipref>
								</link>
								<link>
									<linkclipref>ArmA 3 2020.11.14 - 00.58.28.78.mp45368721381</linkclipref>
								</link>
							</clipitem>
							<clipitem id="ArmA 3 2020.11.14 - 00.59.31.79.mp4536872140">
								<name>ArmA 3 2020.11.14 - 00.59.31.79.mp4</name>
								<duration>605</duration>
								<rate>
									<ntsc>TRUE</ntsc>
									<timebase>24</timebase>
								</rate>
								<in>0</in>
								<out>605</out>
								<start>530</start>
								<end>1135</end>
								<masterclipid>ArmA 3 2020.11.14 - 00.59.31.79.mp4</masterclipid>
								<logginginfo>
									<scene />
									<shottake />
									<lognote />
									<good>FALSE</good>
								</logginginfo>
								<labels>
									<label2 />
								</labels>
								<comments>
									<mastercomment1 />
									<mastercomment2 />
									<mastercomment3 />
									<mastercomment4 />
								</comments>
								<file id="ArmA 3 2020.11.14 - 00.59.31.79" />
								<filter>
									<effect>
										<name>Audio Levels</name>
										<effectid>audiolevels</effectid>
										<effectcategory>audiolevels</effectcategory>
										<effecttype>audiolevels</effecttype>
										<mediatype>audio</mediatype>
										<parameter>
											<name>Level</name>
											<parameterid>level</parameterid>
											<valuemin>0</valuemin>
											<valuemax>3,98109</valuemax>
											<value>1</value>
										</parameter>
									</effect>
								</filter>
								<filter>
									<effect>
										<name>Audio Pan</name>
										<effectid>audiopan</effectid>
										<effectcategory>audiopan</effectcategory>
										<effecttype>audiopan</effecttype>
										<mediatype>audio</mediatype>
										<parameter>
											<name>Pan</name>
											<parameterid>pan</parameterid>
											<valuemin>-1</valuemin>
											<valuemax>1</valuemax>
											<value>-1</value>
										</parameter>
									</effect>
								</filter>
								<sourcetrack>
									<mediatype>audio</mediatype>
									<trackindex>1</trackindex>
								</sourcetrack>
								<link>
									<linkclipref>ArmA 3 2020.11.14 - 00.59.31.79.mp4805307595</linkclipref>
								</link>
								<link>
									<linkclipref>ArmA 3 2020.11.14 - 00.59.31.79.mp4536872140</linkclipref>
								</link>
								<link>
									<linkclipref>ArmA 3 2020.11.14 - 00.59.31.79.mp45368721401</linkclipref>
								</link>
								<link>
									<linkclipref>ArmA 3 2020.11.14 - 00.59.31.79.mp4536872141</linkclipref>
								</link>
								<link>
									<linkclipref>ArmA 3 2020.11.14 - 00.59.31.79.mp45368721411</linkclipref>
								</link>
							</clipitem>
							<clipitem id="ArmA 3 2020.11.14 - 01.00.07.80.mp4536872143">
								<name>ArmA 3 2020.11.14 - 01.00.07.80.mp4</name>
								<duration>666</duration>
								<rate>
									<ntsc>TRUE</ntsc>
									<timebase>24</timebase>
								</rate>
								<in>0</in>
								<out>666</out>
								<start>1136</start>
								<end>1802</end>
								<masterclipid>ArmA 3 2020.11.14 - 01.00.07.80.mp4</masterclipid>
								<logginginfo>
									<scene />
									<shottake />
									<lognote />
									<good>FALSE</good>
								</logginginfo>
								<labels>
									<label2 />
								</labels>
								<comments>
									<mastercomment1 />
									<mastercomment2 />
									<mastercomment3 />
									<mastercomment4 />
								</comments>
								<file id="ArmA 3 2020.11.14 - 01.00.07.80" />
								<filter>
									<effect>
										<name>Audio Levels</name>
										<effectid>audiolevels</effectid>
										<effectcategory>audiolevels</effectcategory>
										<effecttype>audiolevels</effecttype>
										<mediatype>audio</mediatype>
										<parameter>
											<name>Level</name>
											<parameterid>level</parameterid>
											<valuemin>0</valuemin>
											<valuemax>3,98109</valuemax>
											<value>1</value>
										</parameter>
									</effect>
								</filter>
								<filter>
									<effect>
										<name>Audio Pan</name>
										<effectid>audiopan</effectid>
										<effectcategory>audiopan</effectcategory>
										<effecttype>audiopan</effecttype>
										<mediatype>audio</mediatype>
										<parameter>
											<name>Pan</name>
											<parameterid>pan</parameterid>
											<valuemin>-1</valuemin>
											<valuemax>1</valuemax>
											<value>-1</value>
										</parameter>
									</effect>
								</filter>
								<sourcetrack>
									<mediatype>audio</mediatype>
									<trackindex>1</trackindex>
								</sourcetrack>
								<link>
									<linkclipref>ArmA 3 2020.11.14 - 01.00.07.80.mp4805307598</linkclipref>
								</link>
								<link>
									<linkclipref>ArmA 3 2020.11.14 - 01.00.07.80.mp4536872143</linkclipref>
								</link>
								<link>
									<linkclipref>ArmA 3 2020.11.14 - 01.00.07.80.mp45368721431</linkclipref>
								</link>
								<link>
									<linkclipref>ArmA 3 2020.11.14 - 01.00.07.80.mp4536872144</linkclipref>
								</link>
								<link>
									<linkclipref>ArmA 3 2020.11.14 - 01.00.07.80.mp45368721441</linkclipref>
								</link>
							</clipitem>
							<clipitem id="ArmA 3 2020.11.14 - 01.01.23.81.mp4536872146">
								<name>ArmA 3 2020.11.14 - 01.01.23.81.mp4</name>
								<duration>1004</duration>
								<rate>
									<ntsc>TRUE</ntsc>
									<timebase>24</timebase>
								</rate>
								<in>0</in>
								<out>1004</out>
								<start>1803</start>
								<end>2807</end>
								<masterclipid>ArmA 3 2020.11.14 - 01.01.23.81.mp4</masterclipid>
								<logginginfo>
									<scene />
									<shottake />
									<lognote />
									<good>FALSE</good>
								</logginginfo>
								<labels>
									<label2 />
								</labels>
								<comments>
									<mastercomment1 />
									<mastercomment2 />
									<mastercomment3 />
									<mastercomment4 />
								</comments>
								<file id="ArmA 3 2020.11.14 - 01.01.23.81" />
								<filter>
									<effect>
										<name>Audio Levels</name>
										<effectid>audiolevels</effectid>
										<effectcategory>audiolevels</effectcategory>
										<effecttype>audiolevels</effecttype>
										<mediatype>audio</mediatype>
										<parameter>
											<name>Level</name>
											<parameterid>level</parameterid>
											<valuemin>0</valuemin>
											<valuemax>3,98109</valuemax>
											<value>1</value>
										</parameter>
									</effect>
								</filter>
								<filter>
									<effect>
										<name>Audio Pan</name>
										<effectid>audiopan</effectid>
										<effectcategory>audiopan</effectcategory>
										<effecttype>audiopan</effecttype>
										<mediatype>audio</mediatype>
										<parameter>
											<name>Pan</name>
											<parameterid>pan</parameterid>
											<valuemin>-1</valuemin>
											<valuemax>1</valuemax>
											<value>-1</value>
										</parameter>
									</effect>
								</filter>
								<sourcetrack>
									<mediatype>audio</mediatype>
									<trackindex>1</trackindex>
								</sourcetrack>
								<link>
									<linkclipref>ArmA 3 2020.11.14 - 01.01.23.81.mp4805307601</linkclipref>
								</link>
								<link>
									<linkclipref>ArmA 3 2020.11.14 - 01.01.23.81.mp4536872146</linkclipref>
								</link>
								<link>
									<linkclipref>ArmA 3 2020.11.14 - 01.01.23.81.mp45368721461</linkclipref>
								</link>
								<link>
									<linkclipref>ArmA 3 2020.11.14 - 01.01.23.81.mp4536872147</linkclipref>
								</link>
								<link>
									<linkclipref>ArmA 3 2020.11.14 - 01.01.23.81.mp45368721471</linkclipref>
								</link>
							</clipitem>
							<clipitem id="ArmA 3 2020.11.14 - 01.02.36.82.mp4536872149">
								<name>ArmA 3 2020.11.14 - 01.02.36.82.mp4</name>
								<duration>447</duration>
								<rate>
									<ntsc>TRUE</ntsc>
									<timebase>24</timebase>
								</rate>
								<in>0</in>
								<out>447</out>
								<start>2808</start>
								<end>3255</end>
								<masterclipid>ArmA 3 2020.11.14 - 01.02.36.82.mp4</masterclipid>
								<logginginfo>
									<scene />
									<shottake />
									<lognote />
									<good>FALSE</good>
								</logginginfo>
								<labels>
									<label2 />
								</labels>
								<comments>
									<mastercomment1 />
									<mastercomment2 />
									<mastercomment3 />
									<mastercomment4 />
								</comments>
								<file id="ArmA 3 2020.11.14 - 01.02.36.82" />
								<filter>
									<effect>
										<name>Audio Levels</name>
										<effectid>audiolevels</effectid>
										<effectcategory>audiolevels</effectcategory>
										<effecttype>audiolevels</effecttype>
										<mediatype>audio</mediatype>
										<parameter>
											<name>Level</name>
											<parameterid>level</parameterid>
											<valuemin>0</valuemin>
											<valuemax>3,98109</valuemax>
											<value>1</value>
										</parameter>
									</effect>
								</filter>
								<filter>
									<effect>
										<name>Audio Pan</name>
										<effectid>audiopan</effectid>
										<effectcategory>audiopan</effectcategory>
										<effecttype>audiopan</effecttype>
										<mediatype>audio</mediatype>
										<parameter>
											<name>Pan</name>
											<parameterid>pan</parameterid>
											<valuemin>-1</valuemin>
											<valuemax>1</valuemax>
											<value>-1</value>
										</parameter>
									</effect>
								</filter>
								<sourcetrack>
									<mediatype>audio</mediatype>
									<trackindex>1</trackindex>
								</sourcetrack>
								<link>
									<linkclipref>ArmA 3 2020.11.14 - 01.02.36.82.mp4805307604</linkclipref>
								</link>
								<link>
									<linkclipref>ArmA 3 2020.11.14 - 01.02.36.82.mp4536872149</linkclipref>
								</link>
								<link>
									<linkclipref>ArmA 3 2020.11.14 - 01.02.36.82.mp45368721491</linkclipref>
								</link>
								<link>
									<linkclipref>ArmA 3 2020.11.14 - 01.02.36.82.mp4536872150</linkclipref>
								</link>
								<link>
									<linkclipref>ArmA 3 2020.11.14 - 01.02.36.82.mp45368721501</linkclipref>
								</link>
							</clipitem>
							<clipitem id="ArmA 3 2020.11.14 - 01.03.14.83.mp4536872152">
								<name>ArmA 3 2020.11.14 - 01.03.14.83.mp4</name>
								<duration>404</duration>
								<rate>
									<ntsc>TRUE</ntsc>
									<timebase>24</timebase>
								</rate>
								<in>0</in>
								<out>404</out>
								<start>3256</start>
								<end>3660</end>
								<masterclipid>ArmA 3 2020.11.14 - 01.03.14.83.mp4</masterclipid>
								<logginginfo>
									<scene />
									<shottake />
									<lognote />
									<good>FALSE</good>
								</logginginfo>
								<labels>
									<label2 />
								</labels>
								<comments>
									<mastercomment1 />
									<mastercomment2 />
									<mastercomment3 />
									<mastercomment4 />
								</comments>
								<file id="ArmA 3 2020.11.14 - 01.03.14.83" />
								<filter>
									<effect>
										<name>Audio Levels</name>
										<effectid>audiolevels</effectid>
										<effectcategory>audiolevels</effectcategory>
										<effecttype>audiolevels</effecttype>
										<mediatype>audio</mediatype>
										<parameter>
											<name>Level</name>
											<parameterid>level</parameterid>
											<valuemin>0</valuemin>
											<valuemax>3,98109</valuemax>
											<value>1</value>
										</parameter>
									</effect>
								</filter>
								<filter>
									<effect>
										<name>Audio Pan</name>
										<effectid>audiopan</effectid>
										<effectcategory>audiopan</effectcategory>
										<effecttype>audiopan</effecttype>
										<mediatype>audio</mediatype>
										<parameter>
											<name>Pan</name>
											<parameterid>pan</parameterid>
											<valuemin>-1</valuemin>
											<valuemax>1</valuemax>
											<value>-1</value>
										</parameter>
									</effect>
								</filter>
								<sourcetrack>
									<mediatype>audio</mediatype>
									<trackindex>1</trackindex>
								</sourcetrack>
								<link>
									<linkclipref>ArmA 3 2020.11.14 - 01.03.14.83.mp4805307607</linkclipref>
								</link>
								<link>
									<linkclipref>ArmA 3 2020.11.14 - 01.03.14.83.mp4536872152</linkclipref>
								</link>
								<link>
									<linkclipref>ArmA 3 2020.11.14 - 01.03.14.83.mp45368721521</linkclipref>
								</link>
								<link>
									<linkclipref>ArmA 3 2020.11.14 - 01.03.14.83.mp4536872153</linkclipref>
								</link>
								<link>
									<linkclipref>ArmA 3 2020.11.14 - 01.03.14.83.mp45368721531</linkclipref>
								</link>
							</clipitem>
							<clipitem id="ArmA 3 2020.11.14 - 01.03.51.84.mp4536872155">
								<name>ArmA 3 2020.11.14 - 01.03.51.84.mp4</name>
								<duration>421</duration>
								<rate>
									<ntsc>TRUE</ntsc>
									<timebase>24</timebase>
								</rate>
								<in>0</in>
								<out>421</out>
								<start>3661</start>
								<end>4082</end>
								<masterclipid>ArmA 3 2020.11.14 - 01.03.51.84.mp4</masterclipid>
								<logginginfo>
									<scene />
									<shottake />
									<lognote />
									<good>FALSE</good>
								</logginginfo>
								<labels>
									<label2 />
								</labels>
								<comments>
									<mastercomment1 />
									<mastercomment2 />
									<mastercomment3 />
									<mastercomment4 />
								</comments>
								<file id="ArmA 3 2020.11.14 - 01.03.51.84" />
								<filter>
									<effect>
										<name>Audio Levels</name>
										<effectid>audiolevels</effectid>
										<effectcategory>audiolevels</effectcategory>
										<effecttype>audiolevels</effecttype>
										<mediatype>audio</mediatype>
										<parameter>
											<name>Level</name>
											<parameterid>level</parameterid>
											<valuemin>0</valuemin>
											<valuemax>3,98109</valuemax>
											<value>1</value>
										</parameter>
									</effect>
								</filter>
								<filter>
									<effect>
										<name>Audio Pan</name>
										<effectid>audiopan</effectid>
										<effectcategory>audiopan</effectcategory>
										<effecttype>audiopan</effecttype>
										<mediatype>audio</mediatype>
										<parameter>
											<name>Pan</name>
											<parameterid>pan</parameterid>
											<valuemin>-1</valuemin>
											<valuemax>1</valuemax>
											<value>-1</value>
										</parameter>
									</effect>
								</filter>
								<sourcetrack>
									<mediatype>audio</mediatype>
									<trackindex>1</trackindex>
								</sourcetrack>
								<link>
									<linkclipref>ArmA 3 2020.11.14 - 01.03.51.84.mp4805307610</linkclipref>
								</link>
								<link>
									<linkclipref>ArmA 3 2020.11.14 - 01.03.51.84.mp4536872155</linkclipref>
								</link>
								<link>
									<linkclipref>ArmA 3 2020.11.14 - 01.03.51.84.mp45368721551</linkclipref>
								</link>
								<link>
									<linkclipref>ArmA 3 2020.11.14 - 01.03.51.84.mp4536872156</linkclipref>
								</link>
								<link>
									<linkclipref>ArmA 3 2020.11.14 - 01.03.51.84.mp45368721561</linkclipref>
								</link>
							</clipitem>
							<clipitem id="ArmA 3 2020.11.14 - 01.04.31.85.mp4536872158">
								<name>ArmA 3 2020.11.14 - 01.04.31.85.mp4</name>
								<duration>1222</duration>
								<rate>
									<ntsc>TRUE</ntsc>
									<timebase>24</timebase>
								</rate>
								<in>0</in>
								<out>1222</out>
								<start>4083</start>
								<end>5305</end>
								<masterclipid>ArmA 3 2020.11.14 - 01.04.31.85.mp4</masterclipid>
								<logginginfo>
									<scene />
									<shottake />
									<lognote />
									<good>FALSE</good>
								</logginginfo>
								<labels>
									<label2 />
								</labels>
								<comments>
									<mastercomment1 />
									<mastercomment2 />
									<mastercomment3 />
									<mastercomment4 />
								</comments>
								<file id="ArmA 3 2020.11.14 - 01.04.31.85" />
								<filter>
									<effect>
										<name>Audio Levels</name>
										<effectid>audiolevels</effectid>
										<effectcategory>audiolevels</effectcategory>
										<effecttype>audiolevels</effecttype>
										<mediatype>audio</mediatype>
										<parameter>
											<name>Level</name>
											<parameterid>level</parameterid>
											<valuemin>0</valuemin>
											<valuemax>3,98109</valuemax>
											<value>1</value>
										</parameter>
									</effect>
								</filter>
								<filter>
									<effect>
										<name>Audio Pan</name>
										<effectid>audiopan</effectid>
										<effectcategory>audiopan</effectcategory>
										<effecttype>audiopan</effecttype>
										<mediatype>audio</mediatype>
										<parameter>
											<name>Pan</name>
											<parameterid>pan</parameterid>
											<valuemin>-1</valuemin>
											<valuemax>1</valuemax>
											<value>-1</value>
										</parameter>
									</effect>
								</filter>
								<sourcetrack>
									<mediatype>audio</mediatype>
									<trackindex>1</trackindex>
								</sourcetrack>
								<link>
									<linkclipref>ArmA 3 2020.11.14 - 01.04.31.85.mp4805307613</linkclipref>
								</link>
								<link>
									<linkclipref>ArmA 3 2020.11.14 - 01.04.31.85.mp4536872158</linkclipref>
								</link>
								<link>
									<linkclipref>ArmA 3 2020.11.14 - 01.04.31.85.mp45368721581</linkclipref>
								</link>
								<link>
									<linkclipref>ArmA 3 2020.11.14 - 01.04.31.85.mp4536872159</linkclipref>
								</link>
								<link>
									<linkclipref>ArmA 3 2020.11.14 - 01.04.31.85.mp45368721591</linkclipref>
								</link>
							</clipitem>
							<clipitem id="ArmA 3 2020.11.14 - 01.05.31.86.mp4536872161">
								<name>ArmA 3 2020.11.14 - 01.05.31.86.mp4</name>
								<duration>122</duration>
								<rate>
									<ntsc>TRUE</ntsc>
									<timebase>24</timebase>
								</rate>
								<in>0</in>
								<out>122</out>
								<start>5306</start>
								<end>5428</end>
								<masterclipid>ArmA 3 2020.11.14 - 01.05.31.86.mp4</masterclipid>
								<logginginfo>
									<scene />
									<shottake />
									<lognote />
									<good>FALSE</good>
								</logginginfo>
								<labels>
									<label2 />
								</labels>
								<comments>
									<mastercomment1 />
									<mastercomment2 />
									<mastercomment3 />
									<mastercomment4 />
								</comments>
								<file id="ArmA 3 2020.11.14 - 01.05.31.86" />
								<filter>
									<effect>
										<name>Audio Levels</name>
										<effectid>audiolevels</effectid>
										<effectcategory>audiolevels</effectcategory>
										<effecttype>audiolevels</effecttype>
										<mediatype>audio</mediatype>
										<parameter>
											<name>Level</name>
											<parameterid>level</parameterid>
											<valuemin>0</valuemin>
											<valuemax>3,98109</valuemax>
											<value>1</value>
										</parameter>
									</effect>
								</filter>
								<filter>
									<effect>
										<name>Audio Pan</name>
										<effectid>audiopan</effectid>
										<effectcategory>audiopan</effectcategory>
										<effecttype>audiopan</effecttype>
										<mediatype>audio</mediatype>
										<parameter>
											<name>Pan</name>
											<parameterid>pan</parameterid>
											<valuemin>-1</valuemin>
											<valuemax>1</valuemax>
											<value>-1</value>
										</parameter>
									</effect>
								</filter>
								<sourcetrack>
									<mediatype>audio</mediatype>
									<trackindex>1</trackindex>
								</sourcetrack>
								<link>
									<linkclipref>ArmA 3 2020.11.14 - 01.05.31.86.mp4805307616</linkclipref>
								</link>
								<link>
									<linkclipref>ArmA 3 2020.11.14 - 01.05.31.86.mp4536872161</linkclipref>
								</link>
								<link>
									<linkclipref>ArmA 3 2020.11.14 - 01.05.31.86.mp45368721611</linkclipref>
								</link>
								<link>
									<linkclipref>ArmA 3 2020.11.14 - 01.05.31.86.mp4536872162</linkclipref>
								</link>
								<link>
									<linkclipref>ArmA 3 2020.11.14 - 01.05.31.86.mp45368721621</linkclipref>
								</link>
							</clipitem>
							<clipitem id="ArmA 3 2020.11.14 - 01.05.58.87.mp4536872164">
								<name>ArmA 3 2020.11.14 - 01.05.58.87.mp4</name>
								<duration>538</duration>
								<rate>
									<ntsc>TRUE</ntsc>
									<timebase>24</timebase>
								</rate>
								<in>0</in>
								<out>538</out>
								<start>5429</start>
								<end>5967</end>
								<masterclipid>ArmA 3 2020.11.14 - 01.05.58.87.mp4</masterclipid>
								<logginginfo>
									<scene />
									<shottake />
									<lognote />
									<good>FALSE</good>
								</logginginfo>
								<labels>
									<label2 />
								</labels>
								<comments>
									<mastercomment1 />
									<mastercomment2 />
									<mastercomment3 />
									<mastercomment4 />
								</comments>
								<file id="ArmA 3 2020.11.14 - 01.05.58.87" />
								<filter>
									<effect>
										<name>Audio Levels</name>
										<effectid>audiolevels</effectid>
										<effectcategory>audiolevels</effectcategory>
										<effecttype>audiolevels</effecttype>
										<mediatype>audio</mediatype>
										<parameter>
											<name>Level</name>
											<parameterid>level</parameterid>
											<valuemin>0</valuemin>
											<valuemax>3,98109</valuemax>
											<value>1</value>
										</parameter>
									</effect>
								</filter>
								<filter>
									<effect>
										<name>Audio Pan</name>
										<effectid>audiopan</effectid>
										<effectcategory>audiopan</effectcategory>
										<effecttype>audiopan</effecttype>
										<mediatype>audio</mediatype>
										<parameter>
											<name>Pan</name>
											<parameterid>pan</parameterid>
											<valuemin>-1</valuemin>
											<valuemax>1</valuemax>
											<value>-1</value>
										</parameter>
									</effect>
								</filter>
								<sourcetrack>
									<mediatype>audio</mediatype>
									<trackindex>1</trackindex>
								</sourcetrack>
								<link>
									<linkclipref>ArmA 3 2020.11.14 - 01.05.58.87.mp4805307619</linkclipref>
								</link>
								<link>
									<linkclipref>ArmA 3 2020.11.14 - 01.05.58.87.mp4536872164</linkclipref>
								</link>
								<link>
									<linkclipref>ArmA 3 2020.11.14 - 01.05.58.87.mp45368721641</linkclipref>
								</link>
								<link>
									<linkclipref>ArmA 3 2020.11.14 - 01.05.58.87.mp4536872165</linkclipref>
								</link>
								<link>
									<linkclipref>ArmA 3 2020.11.14 - 01.05.58.87.mp45368721651</linkclipref>
								</link>
							</clipitem>
							<clipitem id="ArmA 3 2020.11.14 - 01.06.24.88.mp4536872167">
								<name>ArmA 3 2020.11.14 - 01.06.24.88.mp4</name>
								<duration>288</duration>
								<rate>
									<ntsc>TRUE</ntsc>
									<timebase>24</timebase>
								</rate>
								<in>0</in>
								<out>288</out>
								<start>5968</start>
								<end>6256</end>
								<masterclipid>ArmA 3 2020.11.14 - 01.06.24.88.mp4</masterclipid>
								<logginginfo>
									<scene />
									<shottake />
									<lognote />
									<good>FALSE</good>
								</logginginfo>
								<labels>
									<label2 />
								</labels>
								<comments>
									<mastercomment1 />
									<mastercomment2 />
									<mastercomment3 />
									<mastercomment4 />
								</comments>
								<file id="ArmA 3 2020.11.14 - 01.06.24.88" />
								<filter>
									<effect>
										<name>Audio Levels</name>
										<effectid>audiolevels</effectid>
										<effectcategory>audiolevels</effectcategory>
										<effecttype>audiolevels</effecttype>
										<mediatype>audio</mediatype>
										<parameter>
											<name>Level</name>
											<parameterid>level</parameterid>
											<valuemin>0</valuemin>
											<valuemax>3,98109</valuemax>
											<value>1</value>
										</parameter>
									</effect>
								</filter>
								<filter>
									<effect>
										<name>Audio Pan</name>
										<effectid>audiopan</effectid>
										<effectcategory>audiopan</effectcategory>
										<effecttype>audiopan</effecttype>
										<mediatype>audio</mediatype>
										<parameter>
											<name>Pan</name>
											<parameterid>pan</parameterid>
											<valuemin>-1</valuemin>
											<valuemax>1</valuemax>
											<value>-1</value>
										</parameter>
									</effect>
								</filter>
								<sourcetrack>
									<mediatype>audio</mediatype>
									<trackindex>1</trackindex>
								</sourcetrack>
								<link>
									<linkclipref>ArmA 3 2020.11.14 - 01.06.24.88.mp4805307622</linkclipref>
								</link>
								<link>
									<linkclipref>ArmA 3 2020.11.14 - 01.06.24.88.mp4536872167</linkclipref>
								</link>
								<link>
									<linkclipref>ArmA 3 2020.11.14 - 01.06.24.88.mp45368721671</linkclipref>
								</link>
								<link>
									<linkclipref>ArmA 3 2020.11.14 - 01.06.24.88.mp4536872168</linkclipref>
								</link>
								<link>
									<linkclipref>ArmA 3 2020.11.14 - 01.06.24.88.mp45368721681</linkclipref>
								</link>
							</clipitem>
							<clipitem id="ArmA 3 2020.11.14 - 01.06.46.89.mp4536872170">
								<name>ArmA 3 2020.11.14 - 01.06.46.89.mp4</name>
								<duration>856</duration>
								<rate>
									<ntsc>TRUE</ntsc>
									<timebase>24</timebase>
								</rate>
								<in>0</in>
								<out>856</out>
								<start>6257</start>
								<end>7113</end>
								<masterclipid>ArmA 3 2020.11.14 - 01.06.46.89.mp4</masterclipid>
								<logginginfo>
									<scene />
									<shottake />
									<lognote />
									<good>FALSE</good>
								</logginginfo>
								<labels>
									<label2 />
								</labels>
								<comments>
									<mastercomment1 />
									<mastercomment2 />
									<mastercomment3 />
									<mastercomment4 />
								</comments>
								<file id="ArmA 3 2020.11.14 - 01.06.46.89" />
								<filter>
									<effect>
										<name>Audio Levels</name>
										<effectid>audiolevels</effectid>
										<effectcategory>audiolevels</effectcategory>
										<effecttype>audiolevels</effecttype>
										<mediatype>audio</mediatype>
										<parameter>
											<name>Level</name>
											<parameterid>level</parameterid>
											<valuemin>0</valuemin>
											<valuemax>3,98109</valuemax>
											<value>1</value>
										</parameter>
									</effect>
								</filter>
								<filter>
									<effect>
										<name>Audio Pan</name>
										<effectid>audiopan</effectid>
										<effectcategory>audiopan</effectcategory>
										<effecttype>audiopan</effecttype>
										<mediatype>audio</mediatype>
										<parameter>
											<name>Pan</name>
											<parameterid>pan</parameterid>
											<valuemin>-1</valuemin>
											<valuemax>1</valuemax>
											<value>-1</value>
										</parameter>
									</effect>
								</filter>
								<sourcetrack>
									<mediatype>audio</mediatype>
									<trackindex>1</trackindex>
								</sourcetrack>
								<link>
									<linkclipref>ArmA 3 2020.11.14 - 01.06.46.89.mp4805307625</linkclipref>
								</link>
								<link>
									<linkclipref>ArmA 3 2020.11.14 - 01.06.46.89.mp4536872170</linkclipref>
								</link>
								<link>
									<linkclipref>ArmA 3 2020.11.14 - 01.06.46.89.mp45368721701</linkclipref>
								</link>
								<link>
									<linkclipref>ArmA 3 2020.11.14 - 01.06.46.89.mp4536872171</linkclipref>
								</link>
								<link>
									<linkclipref>ArmA 3 2020.11.14 - 01.06.46.89.mp45368721711</linkclipref>
								</link>
							</clipitem>
							<clipitem id="ArmA 3 2020.11.14 - 01.07.32.90.mp4536872173">
								<name>ArmA 3 2020.11.14 - 01.07.32.90.mp4</name>
								<duration>396</duration>
								<rate>
									<ntsc>TRUE</ntsc>
									<timebase>24</timebase>
								</rate>
								<in>0</in>
								<out>396</out>
								<start>7114</start>
								<end>7510</end>
								<masterclipid>ArmA 3 2020.11.14 - 01.07.32.90.mp4</masterclipid>
								<logginginfo>
									<scene />
									<shottake />
									<lognote />
									<good>FALSE</good>
								</logginginfo>
								<labels>
									<label2 />
								</labels>
								<comments>
									<mastercomment1 />
									<mastercomment2 />
									<mastercomment3 />
									<mastercomment4 />
								</comments>
								<file id="ArmA 3 2020.11.14 - 01.07.32.90" />
								<filter>
									<effect>
										<name>Audio Levels</name>
										<effectid>audiolevels</effectid>
										<effectcategory>audiolevels</effectcategory>
										<effecttype>audiolevels</effecttype>
										<mediatype>audio</mediatype>
										<parameter>
											<name>Level</name>
											<parameterid>level</parameterid>
											<valuemin>0</valuemin>
											<valuemax>3,98109</valuemax>
											<value>1</value>
										</parameter>
									</effect>
								</filter>
								<filter>
									<effect>
										<name>Audio Pan</name>
										<effectid>audiopan</effectid>
										<effectcategory>audiopan</effectcategory>
										<effecttype>audiopan</effecttype>
										<mediatype>audio</mediatype>
										<parameter>
											<name>Pan</name>
											<parameterid>pan</parameterid>
											<valuemin>-1</valuemin>
											<valuemax>1</valuemax>
											<value>-1</value>
										</parameter>
									</effect>
								</filter>
								<sourcetrack>
									<mediatype>audio</mediatype>
									<trackindex>1</trackindex>
								</sourcetrack>
								<link>
									<linkclipref>ArmA 3 2020.11.14 - 01.07.32.90.mp4805307628</linkclipref>
								</link>
								<link>
									<linkclipref>ArmA 3 2020.11.14 - 01.07.32.90.mp4536872173</linkclipref>
								</link>
								<link>
									<linkclipref>ArmA 3 2020.11.14 - 01.07.32.90.mp45368721731</linkclipref>
								</link>
								<link>
									<linkclipref>ArmA 3 2020.11.14 - 01.07.32.90.mp4536872174</linkclipref>
								</link>
								<link>
									<linkclipref>ArmA 3 2020.11.14 - 01.07.32.90.mp45368721741</linkclipref>
								</link>
							</clipitem>
							<clipitem id="ArmA 3 2020.11.14 - 01.08.19.91.mp4536872176">
								<name>ArmA 3 2020.11.14 - 01.08.19.91.mp4</name>
								<duration>894</duration>
								<rate>
									<ntsc>TRUE</ntsc>
									<timebase>24</timebase>
								</rate>
								<in>0</in>
								<out>894</out>
								<start>7511</start>
								<end>8405</end>
								<masterclipid>ArmA 3 2020.11.14 - 01.08.19.91.mp4</masterclipid>
								<logginginfo>
									<scene />
									<shottake />
									<lognote />
									<good>FALSE</good>
								</logginginfo>
								<labels>
									<label2 />
								</labels>
								<comments>
									<mastercomment1 />
									<mastercomment2 />
									<mastercomment3 />
									<mastercomment4 />
								</comments>
								<file id="ArmA 3 2020.11.14 - 01.08.19.91" />
								<filter>
									<effect>
										<name>Audio Levels</name>
										<effectid>audiolevels</effectid>
										<effectcategory>audiolevels</effectcategory>
										<effecttype>audiolevels</effecttype>
										<mediatype>audio</mediatype>
										<parameter>
											<name>Level</name>
											<parameterid>level</parameterid>
											<valuemin>0</valuemin>
											<valuemax>3,98109</valuemax>
											<value>1</value>
										</parameter>
									</effect>
								</filter>
								<filter>
									<effect>
										<name>Audio Pan</name>
										<effectid>audiopan</effectid>
										<effectcategory>audiopan</effectcategory>
										<effecttype>audiopan</effecttype>
										<mediatype>audio</mediatype>
										<parameter>
											<name>Pan</name>
											<parameterid>pan</parameterid>
											<valuemin>-1</valuemin>
											<valuemax>1</valuemax>
											<value>-1</value>
										</parameter>
									</effect>
								</filter>
								<sourcetrack>
									<mediatype>audio</mediatype>
									<trackindex>1</trackindex>
								</sourcetrack>
								<link>
									<linkclipref>ArmA 3 2020.11.14 - 01.08.19.91.mp4805307631</linkclipref>
								</link>
								<link>
									<linkclipref>ArmA 3 2020.11.14 - 01.08.19.91.mp4536872176</linkclipref>
								</link>
								<link>
									<linkclipref>ArmA 3 2020.11.14 - 01.08.19.91.mp45368721761</linkclipref>
								</link>
								<link>
									<linkclipref>ArmA 3 2020.11.14 - 01.08.19.91.mp4536872177</linkclipref>
								</link>
								<link>
									<linkclipref>ArmA 3 2020.11.14 - 01.08.19.91.mp45368721771</linkclipref>
								</link>
							</clipitem>
							<clipitem id="ArmA 3 2020.11.14 - 01.09.43.92.mp4536872179">
								<name>ArmA 3 2020.11.14 - 01.09.43.92.mp4</name>
								<duration>704</duration>
								<rate>
									<ntsc>TRUE</ntsc>
									<timebase>24</timebase>
								</rate>
								<in>0</in>
								<out>704</out>
								<start>8406</start>
								<end>9110</end>
								<masterclipid>ArmA 3 2020.11.14 - 01.09.43.92.mp4</masterclipid>
								<logginginfo>
									<scene />
									<shottake />
									<lognote />
									<good>FALSE</good>
								</logginginfo>
								<labels>
									<label2 />
								</labels>
								<comments>
									<mastercomment1 />
									<mastercomment2 />
									<mastercomment3 />
									<mastercomment4 />
								</comments>
								<file id="ArmA 3 2020.11.14 - 01.09.43.92" />
								<filter>
									<effect>
										<name>Audio Levels</name>
										<effectid>audiolevels</effectid>
										<effectcategory>audiolevels</effectcategory>
										<effecttype>audiolevels</effecttype>
										<mediatype>audio</mediatype>
										<parameter>
											<name>Level</name>
											<parameterid>level</parameterid>
											<valuemin>0</valuemin>
											<valuemax>3,98109</valuemax>
											<value>1</value>
										</parameter>
									</effect>
								</filter>
								<filter>
									<effect>
										<name>Audio Pan</name>
										<effectid>audiopan</effectid>
										<effectcategory>audiopan</effectcategory>
										<effecttype>audiopan</effecttype>
										<mediatype>audio</mediatype>
										<parameter>
											<name>Pan</name>
											<parameterid>pan</parameterid>
											<valuemin>-1</valuemin>
											<valuemax>1</valuemax>
											<value>-1</value>
										</parameter>
									</effect>
								</filter>
								<sourcetrack>
									<mediatype>audio</mediatype>
									<trackindex>1</trackindex>
								</sourcetrack>
								<link>
									<linkclipref>ArmA 3 2020.11.14 - 01.09.43.92.mp4805307634</linkclipref>
								</link>
								<link>
									<linkclipref>ArmA 3 2020.11.14 - 01.09.43.92.mp4536872179</linkclipref>
								</link>
								<link>
									<linkclipref>ArmA 3 2020.11.14 - 01.09.43.92.mp45368721791</linkclipref>
								</link>
								<link>
									<linkclipref>ArmA 3 2020.11.14 - 01.09.43.92.mp4536872180</linkclipref>
								</link>
								<link>
									<linkclipref>ArmA 3 2020.11.14 - 01.09.43.92.mp45368721801</linkclipref>
								</link>
							</clipitem>
							<clipitem id="ArmA 3 2020.11.14 - 01.10.27.93.mp4536872182">
								<name>ArmA 3 2020.11.14 - 01.10.27.93.mp4</name>
								<duration>653</duration>
								<rate>
									<ntsc>TRUE</ntsc>
									<timebase>24</timebase>
								</rate>
								<in>0</in>
								<out>653</out>
								<start>9111</start>
								<end>9764</end>
								<masterclipid>ArmA 3 2020.11.14 - 01.10.27.93.mp4</masterclipid>
								<logginginfo>
									<scene />
									<shottake />
									<lognote />
									<good>FALSE</good>
								</logginginfo>
								<labels>
									<label2 />
								</labels>
								<comments>
									<mastercomment1 />
									<mastercomment2 />
									<mastercomment3 />
									<mastercomment4 />
								</comments>
								<file id="ArmA 3 2020.11.14 - 01.10.27.93" />
								<filter>
									<effect>
										<name>Audio Levels</name>
										<effectid>audiolevels</effectid>
										<effectcategory>audiolevels</effectcategory>
										<effecttype>audiolevels</effecttype>
										<mediatype>audio</mediatype>
										<parameter>
											<name>Level</name>
											<parameterid>level</parameterid>
											<valuemin>0</valuemin>
											<valuemax>3,98109</valuemax>
											<value>1</value>
										</parameter>
									</effect>
								</filter>
								<filter>
									<effect>
										<name>Audio Pan</name>
										<effectid>audiopan</effectid>
										<effectcategory>audiopan</effectcategory>
										<effecttype>audiopan</effecttype>
										<mediatype>audio</mediatype>
										<parameter>
											<name>Pan</name>
											<parameterid>pan</parameterid>
											<valuemin>-1</valuemin>
											<valuemax>1</valuemax>
											<value>-1</value>
										</parameter>
									</effect>
								</filter>
								<sourcetrack>
									<mediatype>audio</mediatype>
									<trackindex>1</trackindex>
								</sourcetrack>
								<link>
									<linkclipref>ArmA 3 2020.11.14 - 01.10.27.93.mp4805307637</linkclipref>
								</link>
								<link>
									<linkclipref>ArmA 3 2020.11.14 - 01.10.27.93.mp4536872182</linkclipref>
								</link>
								<link>
									<linkclipref>ArmA 3 2020.11.14 - 01.10.27.93.mp45368721821</linkclipref>
								</link>
								<link>
									<linkclipref>ArmA 3 2020.11.14 - 01.10.27.93.mp4536872183</linkclipref>
								</link>
								<link>
									<linkclipref>ArmA 3 2020.11.14 - 01.10.27.93.mp45368721831</linkclipref>
								</link>
							</clipitem>
							<clipitem id="ArmA 3 2020.11.14 - 01.11.14.94.mp4536872185">
								<name>ArmA 3 2020.11.14 - 01.11.14.94.mp4</name>
								<duration>682</duration>
								<rate>
									<ntsc>TRUE</ntsc>
									<timebase>24</timebase>
								</rate>
								<in>0</in>
								<out>682</out>
								<start>9765</start>
								<end>10447</end>
								<masterclipid>ArmA 3 2020.11.14 - 01.11.14.94.mp4</masterclipid>
								<logginginfo>
									<scene />
									<shottake />
									<lognote />
									<good>FALSE</good>
								</logginginfo>
								<labels>
									<label2 />
								</labels>
								<comments>
									<mastercomment1 />
									<mastercomment2 />
									<mastercomment3 />
									<mastercomment4 />
								</comments>
								<file id="ArmA 3 2020.11.14 - 01.11.14.94" />
								<filter>
									<effect>
										<name>Audio Levels</name>
										<effectid>audiolevels</effectid>
										<effectcategory>audiolevels</effectcategory>
										<effecttype>audiolevels</effecttype>
										<mediatype>audio</mediatype>
										<parameter>
											<name>Level</name>
											<parameterid>level</parameterid>
											<valuemin>0</valuemin>
											<valuemax>3,98109</valuemax>
											<value>1</value>
										</parameter>
									</effect>
								</filter>
								<filter>
									<effect>
										<name>Audio Pan</name>
										<effectid>audiopan</effectid>
										<effectcategory>audiopan</effectcategory>
										<effecttype>audiopan</effecttype>
										<mediatype>audio</mediatype>
										<parameter>
											<name>Pan</name>
											<parameterid>pan</parameterid>
											<valuemin>-1</valuemin>
											<valuemax>1</valuemax>
											<value>-1</value>
										</parameter>
									</effect>
								</filter>
								<sourcetrack>
									<mediatype>audio</mediatype>
									<trackindex>1</trackindex>
								</sourcetrack>
								<link>
									<linkclipref>ArmA 3 2020.11.14 - 01.11.14.94.mp4805307640</linkclipref>
								</link>
								<link>
									<linkclipref>ArmA 3 2020.11.14 - 01.11.14.94.mp4536872185</linkclipref>
								</link>
								<link>
									<linkclipref>ArmA 3 2020.11.14 - 01.11.14.94.mp45368721851</linkclipref>
								</link>
								<link>
									<linkclipref>ArmA 3 2020.11.14 - 01.11.14.94.mp4536872186</linkclipref>
								</link>
								<link>
									<linkclipref>ArmA 3 2020.11.14 - 01.11.14.94.mp45368721861</linkclipref>
								</link>
							</clipitem>
							<clipitem id="ArmA 3 2020.11.14 - 01.13.07.95.mp4536872188">
								<name>ArmA 3 2020.11.14 - 01.13.07.95.mp4</name>
								<duration>837</duration>
								<rate>
									<ntsc>TRUE</ntsc>
									<timebase>24</timebase>
								</rate>
								<in>0</in>
								<out>837</out>
								<start>10448</start>
								<end>11285</end>
								<masterclipid>ArmA 3 2020.11.14 - 01.13.07.95.mp4</masterclipid>
								<logginginfo>
									<scene />
									<shottake />
									<lognote />
									<good>FALSE</good>
								</logginginfo>
								<labels>
									<label2 />
								</labels>
								<comments>
									<mastercomment1 />
									<mastercomment2 />
									<mastercomment3 />
									<mastercomment4 />
								</comments>
								<file id="ArmA 3 2020.11.14 - 01.13.07.95" />
								<filter>
									<effect>
										<name>Audio Levels</name>
										<effectid>audiolevels</effectid>
										<effectcategory>audiolevels</effectcategory>
										<effecttype>audiolevels</effecttype>
										<mediatype>audio</mediatype>
										<parameter>
											<name>Level</name>
											<parameterid>level</parameterid>
											<valuemin>0</valuemin>
											<valuemax>3,98109</valuemax>
											<value>1</value>
										</parameter>
									</effect>
								</filter>
								<filter>
									<effect>
										<name>Audio Pan</name>
										<effectid>audiopan</effectid>
										<effectcategory>audiopan</effectcategory>
										<effecttype>audiopan</effecttype>
										<mediatype>audio</mediatype>
										<parameter>
											<name>Pan</name>
											<parameterid>pan</parameterid>
											<valuemin>-1</valuemin>
											<valuemax>1</valuemax>
											<value>-1</value>
										</parameter>
									</effect>
								</filter>
								<sourcetrack>
									<mediatype>audio</mediatype>
									<trackindex>1</trackindex>
								</sourcetrack>
								<link>
									<linkclipref>ArmA 3 2020.11.14 - 01.13.07.95.mp4805307643</linkclipref>
								</link>
								<link>
									<linkclipref>ArmA 3 2020.11.14 - 01.13.07.95.mp4536872188</linkclipref>
								</link>
								<link>
									<linkclipref>ArmA 3 2020.11.14 - 01.13.07.95.mp45368721881</linkclipref>
								</link>
								<link>
									<linkclipref>ArmA 3 2020.11.14 - 01.13.07.95.mp4536872189</linkclipref>
								</link>
								<link>
									<linkclipref>ArmA 3 2020.11.14 - 01.13.07.95.mp45368721891</linkclipref>
								</link>
							</clipitem>
							<clipitem id="ArmA 3 2020.11.14 - 01.17.25.96.mp4536872191">
								<name>ArmA 3 2020.11.14 - 01.17.25.96.mp4</name>
								<duration>1040</duration>
								<rate>
									<ntsc>TRUE</ntsc>
									<timebase>24</timebase>
								</rate>
								<in>0</in>
								<out>1040</out>
								<start>11286</start>
								<end>12326</end>
								<masterclipid>ArmA 3 2020.11.14 - 01.17.25.96.mp4</masterclipid>
								<logginginfo>
									<scene />
									<shottake />
									<lognote />
									<good>FALSE</good>
								</logginginfo>
								<labels>
									<label2 />
								</labels>
								<comments>
									<mastercomment1 />
									<mastercomment2 />
									<mastercomment3 />
									<mastercomment4 />
								</comments>
								<file id="ArmA 3 2020.11.14 - 01.17.25.96" />
								<filter>
									<effect>
										<name>Audio Levels</name>
										<effectid>audiolevels</effectid>
										<effectcategory>audiolevels</effectcategory>
										<effecttype>audiolevels</effecttype>
										<mediatype>audio</mediatype>
										<parameter>
											<name>Level</name>
											<parameterid>level</parameterid>
											<valuemin>0</valuemin>
											<valuemax>3,98109</valuemax>
											<value>1</value>
										</parameter>
									</effect>
								</filter>
								<filter>
									<effect>
										<name>Audio Pan</name>
										<effectid>audiopan</effectid>
										<effectcategory>audiopan</effectcategory>
										<effecttype>audiopan</effecttype>
										<mediatype>audio</mediatype>
										<parameter>
											<name>Pan</name>
											<parameterid>pan</parameterid>
											<valuemin>-1</valuemin>
											<valuemax>1</valuemax>
											<value>-1</value>
										</parameter>
									</effect>
								</filter>
								<sourcetrack>
									<mediatype>audio</mediatype>
									<trackindex>1</trackindex>
								</sourcetrack>
								<link>
									<linkclipref>ArmA 3 2020.11.14 - 01.17.25.96.mp4805307646</linkclipref>
								</link>
								<link>
									<linkclipref>ArmA 3 2020.11.14 - 01.17.25.96.mp4536872191</linkclipref>
								</link>
								<link>
									<linkclipref>ArmA 3 2020.11.14 - 01.17.25.96.mp45368721911</linkclipref>
								</link>
								<link>
									<linkclipref>ArmA 3 2020.11.14 - 01.17.25.96.mp4536872192</linkclipref>
								</link>
								<link>
									<linkclipref>ArmA 3 2020.11.14 - 01.17.25.96.mp45368721921</linkclipref>
								</link>
							</clipitem>
							<clipitem id="ArmA 3 2020.11.14 - 01.18.27.97.mp4536872194">
								<name>ArmA 3 2020.11.14 - 01.18.27.97.mp4</name>
								<duration>723</duration>
								<rate>
									<ntsc>TRUE</ntsc>
									<timebase>24</timebase>
								</rate>
								<in>0</in>
								<out>723</out>
								<start>12327</start>
								<end>13050</end>
								<masterclipid>ArmA 3 2020.11.14 - 01.18.27.97.mp4</masterclipid>
								<logginginfo>
									<scene />
									<shottake />
									<lognote />
									<good>FALSE</good>
								</logginginfo>
								<labels>
									<label2 />
								</labels>
								<comments>
									<mastercomment1 />
									<mastercomment2 />
									<mastercomment3 />
									<mastercomment4 />
								</comments>
								<file id="ArmA 3 2020.11.14 - 01.18.27.97" />
								<filter>
									<effect>
										<name>Audio Levels</name>
										<effectid>audiolevels</effectid>
										<effectcategory>audiolevels</effectcategory>
										<effecttype>audiolevels</effecttype>
										<mediatype>audio</mediatype>
										<parameter>
											<name>Level</name>
											<parameterid>level</parameterid>
											<valuemin>0</valuemin>
											<valuemax>3,98109</valuemax>
											<value>1</value>
										</parameter>
									</effect>
								</filter>
								<filter>
									<effect>
										<name>Audio Pan</name>
										<effectid>audiopan</effectid>
										<effectcategory>audiopan</effectcategory>
										<effecttype>audiopan</effecttype>
										<mediatype>audio</mediatype>
										<parameter>
											<name>Pan</name>
											<parameterid>pan</parameterid>
											<valuemin>-1</valuemin>
											<valuemax>1</valuemax>
											<value>-1</value>
										</parameter>
									</effect>
								</filter>
								<sourcetrack>
									<mediatype>audio</mediatype>
									<trackindex>1</trackindex>
								</sourcetrack>
								<link>
									<linkclipref>ArmA 3 2020.11.14 - 01.18.27.97.mp4805307649</linkclipref>
								</link>
								<link>
									<linkclipref>ArmA 3 2020.11.14 - 01.18.27.97.mp4536872194</linkclipref>
								</link>
								<link>
									<linkclipref>ArmA 3 2020.11.14 - 01.18.27.97.mp45368721941</linkclipref>
								</link>
								<link>
									<linkclipref>ArmA 3 2020.11.14 - 01.18.27.97.mp4536872195</linkclipref>
								</link>
								<link>
									<linkclipref>ArmA 3 2020.11.14 - 01.18.27.97.mp45368721951</linkclipref>
								</link>
							</clipitem>
							<clipitem id="ArmA 3 2020.11.14 - 01.19.04.98.mp4536872197">
								<name>ArmA 3 2020.11.14 - 01.19.04.98.mp4</name>
								<duration>597</duration>
								<rate>
									<ntsc>TRUE</ntsc>
									<timebase>24</timebase>
								</rate>
								<in>0</in>
								<out>597</out>
								<start>13051</start>
								<end>13648</end>
								<masterclipid>ArmA 3 2020.11.14 - 01.19.04.98.mp4</masterclipid>
								<logginginfo>
									<scene />
									<shottake />
									<lognote />
									<good>FALSE</good>
								</logginginfo>
								<labels>
									<label2 />
								</labels>
								<comments>
									<mastercomment1 />
									<mastercomment2 />
									<mastercomment3 />
									<mastercomment4 />
								</comments>
								<file id="ArmA 3 2020.11.14 - 01.19.04.98" />
								<filter>
									<effect>
										<name>Audio Levels</name>
										<effectid>audiolevels</effectid>
										<effectcategory>audiolevels</effectcategory>
										<effecttype>audiolevels</effecttype>
										<mediatype>audio</mediatype>
										<parameter>
											<name>Level</name>
											<parameterid>level</parameterid>
											<valuemin>0</valuemin>
											<valuemax>3,98109</valuemax>
											<value>1</value>
										</parameter>
									</effect>
								</filter>
								<filter>
									<effect>
										<name>Audio Pan</name>
										<effectid>audiopan</effectid>
										<effectcategory>audiopan</effectcategory>
										<effecttype>audiopan</effecttype>
										<mediatype>audio</mediatype>
										<parameter>
											<name>Pan</name>
											<parameterid>pan</parameterid>
											<valuemin>-1</valuemin>
											<valuemax>1</valuemax>
											<value>-1</value>
										</parameter>
									</effect>
								</filter>
								<sourcetrack>
									<mediatype>audio</mediatype>
									<trackindex>1</trackindex>
								</sourcetrack>
								<link>
									<linkclipref>ArmA 3 2020.11.14 - 01.19.04.98.mp4805307652</linkclipref>
								</link>
								<link>
									<linkclipref>ArmA 3 2020.11.14 - 01.19.04.98.mp4536872197</linkclipref>
								</link>
								<link>
									<linkclipref>ArmA 3 2020.11.14 - 01.19.04.98.mp45368721971</linkclipref>
								</link>
								<link>
									<linkclipref>ArmA 3 2020.11.14 - 01.19.04.98.mp4536872198</linkclipref>
								</link>
								<link>
									<linkclipref>ArmA 3 2020.11.14 - 01.19.04.98.mp45368721981</linkclipref>
								</link>
							</clipitem>
							<clipitem id="ArmA 3 2020.11.14 - 01.19.30.99.mp4536872200">
								<name>ArmA 3 2020.11.14 - 01.19.30.99.mp4</name>
								<duration>782</duration>
								<rate>
									<ntsc>TRUE</ntsc>
									<timebase>24</timebase>
								</rate>
								<in>0</in>
								<out>782</out>
								<start>13649</start>
								<end>14431</end>
								<masterclipid>ArmA 3 2020.11.14 - 01.19.30.99.mp4</masterclipid>
								<logginginfo>
									<scene />
									<shottake />
									<lognote />
									<good>FALSE</good>
								</logginginfo>
								<labels>
									<label2 />
								</labels>
								<comments>
									<mastercomment1 />
									<mastercomment2 />
									<mastercomment3 />
									<mastercomment4 />
								</comments>
								<file id="ArmA 3 2020.11.14 - 01.19.30.99" />
								<filter>
									<effect>
										<name>Audio Levels</name>
										<effectid>audiolevels</effectid>
										<effectcategory>audiolevels</effectcategory>
										<effecttype>audiolevels</effecttype>
										<mediatype>audio</mediatype>
										<parameter>
											<name>Level</name>
											<parameterid>level</parameterid>
											<valuemin>0</valuemin>
											<valuemax>3,98109</valuemax>
											<value>1</value>
										</parameter>
									</effect>
								</filter>
								<filter>
									<effect>
										<name>Audio Pan</name>
										<effectid>audiopan</effectid>
										<effectcategory>audiopan</effectcategory>
										<effecttype>audiopan</effecttype>
										<mediatype>audio</mediatype>
										<parameter>
											<name>Pan</name>
											<parameterid>pan</parameterid>
											<valuemin>-1</valuemin>
											<valuemax>1</valuemax>
											<value>-1</value>
										</parameter>
									</effect>
								</filter>
								<sourcetrack>
									<mediatype>audio</mediatype>
									<trackindex>1</trackindex>
								</sourcetrack>
								<link>
									<linkclipref>ArmA 3 2020.11.14 - 01.19.30.99.mp4805307655</linkclipref>
								</link>
								<link>
									<linkclipref>ArmA 3 2020.11.14 - 01.19.30.99.mp4536872200</linkclipref>
								</link>
								<link>
									<linkclipref>ArmA 3 2020.11.14 - 01.19.30.99.mp45368722001</linkclipref>
								</link>
								<link>
									<linkclipref>ArmA 3 2020.11.14 - 01.19.30.99.mp4536872201</linkclipref>
								</link>
								<link>
									<linkclipref>ArmA 3 2020.11.14 - 01.19.30.99.mp45368722011</linkclipref>
								</link>
							</clipitem>
							<clipitem id="ArmA 3 2020.11.14 - 01.21.06.100.mp4536872203">
								<name>ArmA 3 2020.11.14 - 01.21.06.100.mp4</name>
								<duration>349</duration>
								<rate>
									<ntsc>TRUE</ntsc>
									<timebase>24</timebase>
								</rate>
								<in>0</in>
								<out>349</out>
								<start>14432</start>
								<end>14781</end>
								<masterclipid>ArmA 3 2020.11.14 - 01.21.06.100.mp4</masterclipid>
								<logginginfo>
									<scene />
									<shottake />
									<lognote />
									<good>FALSE</good>
								</logginginfo>
								<labels>
									<label2 />
								</labels>
								<comments>
									<mastercomment1 />
									<mastercomment2 />
									<mastercomment3 />
									<mastercomment4 />
								</comments>
								<file id="ArmA 3 2020.11.14 - 01.21.06.100" />
								<filter>
									<effect>
										<name>Audio Levels</name>
										<effectid>audiolevels</effectid>
										<effectcategory>audiolevels</effectcategory>
										<effecttype>audiolevels</effecttype>
										<mediatype>audio</mediatype>
										<parameter>
											<name>Level</name>
											<parameterid>level</parameterid>
											<valuemin>0</valuemin>
											<valuemax>3,98109</valuemax>
											<value>1</value>
										</parameter>
									</effect>
								</filter>
								<filter>
									<effect>
										<name>Audio Pan</name>
										<effectid>audiopan</effectid>
										<effectcategory>audiopan</effectcategory>
										<effecttype>audiopan</effecttype>
										<mediatype>audio</mediatype>
										<parameter>
											<name>Pan</name>
											<parameterid>pan</parameterid>
											<valuemin>-1</valuemin>
											<valuemax>1</valuemax>
											<value>-1</value>
										</parameter>
									</effect>
								</filter>
								<sourcetrack>
									<mediatype>audio</mediatype>
									<trackindex>1</trackindex>
								</sourcetrack>
								<link>
									<linkclipref>ArmA 3 2020.11.14 - 01.21.06.100.mp4805307658</linkclipref>
								</link>
								<link>
									<linkclipref>ArmA 3 2020.11.14 - 01.21.06.100.mp4536872203</linkclipref>
								</link>
								<link>
									<linkclipref>ArmA 3 2020.11.14 - 01.21.06.100.mp45368722031</linkclipref>
								</link>
								<link>
									<linkclipref>ArmA 3 2020.11.14 - 01.21.06.100.mp4536872204</linkclipref>
								</link>
								<link>
									<linkclipref>ArmA 3 2020.11.14 - 01.21.06.100.mp45368722041</linkclipref>
								</link>
							</clipitem>
							<clipitem id="ArmA 3 2020.11.14 - 01.21.52.101.mp4536872206">
								<name>ArmA 3 2020.11.14 - 01.21.52.101.mp4</name>
								<duration>1025</duration>
								<rate>
									<ntsc>TRUE</ntsc>
									<timebase>24</timebase>
								</rate>
								<in>0</in>
								<out>1025</out>
								<start>14782</start>
								<end>15807</end>
								<masterclipid>ArmA 3 2020.11.14 - 01.21.52.101.mp4</masterclipid>
								<logginginfo>
									<scene />
									<shottake />
									<lognote />
									<good>FALSE</good>
								</logginginfo>
								<labels>
									<label2 />
								</labels>
								<comments>
									<mastercomment1 />
									<mastercomment2 />
									<mastercomment3 />
									<mastercomment4 />
								</comments>
								<file id="ArmA 3 2020.11.14 - 01.21.52.101" />
								<filter>
									<effect>
										<name>Audio Levels</name>
										<effectid>audiolevels</effectid>
										<effectcategory>audiolevels</effectcategory>
										<effecttype>audiolevels</effecttype>
										<mediatype>audio</mediatype>
										<parameter>
											<name>Level</name>
											<parameterid>level</parameterid>
											<valuemin>0</valuemin>
											<valuemax>3,98109</valuemax>
											<value>1</value>
										</parameter>
									</effect>
								</filter>
								<filter>
									<effect>
										<name>Audio Pan</name>
										<effectid>audiopan</effectid>
										<effectcategory>audiopan</effectcategory>
										<effecttype>audiopan</effecttype>
										<mediatype>audio</mediatype>
										<parameter>
											<name>Pan</name>
											<parameterid>pan</parameterid>
											<valuemin>-1</valuemin>
											<valuemax>1</valuemax>
											<value>-1</value>
										</parameter>
									</effect>
								</filter>
								<sourcetrack>
									<mediatype>audio</mediatype>
									<trackindex>1</trackindex>
								</sourcetrack>
								<link>
									<linkclipref>ArmA 3 2020.11.14 - 01.21.52.101.mp4805307661</linkclipref>
								</link>
								<link>
									<linkclipref>ArmA 3 2020.11.14 - 01.21.52.101.mp4536872206</linkclipref>
								</link>
								<link>
									<linkclipref>ArmA 3 2020.11.14 - 01.21.52.101.mp45368722061</linkclipref>
								</link>
								<link>
									<linkclipref>ArmA 3 2020.11.14 - 01.21.52.101.mp4536872207</linkclipref>
								</link>
								<link>
									<linkclipref>ArmA 3 2020.11.14 - 01.21.52.101.mp45368722071</linkclipref>
								</link>
							</clipitem>
							<clipitem id="ArmA 3 2020.11.14 - 01.22.45.102.mp4536872209">
								<name>ArmA 3 2020.11.14 - 01.22.45.102.mp4</name>
								<duration>1159</duration>
								<rate>
									<ntsc>TRUE</ntsc>
									<timebase>24</timebase>
								</rate>
								<in>0</in>
								<out>1159</out>
								<start>15808</start>
								<end>16967</end>
								<masterclipid>ArmA 3 2020.11.14 - 01.22.45.102.mp4</masterclipid>
								<logginginfo>
									<scene />
									<shottake />
									<lognote />
									<good>FALSE</good>
								</logginginfo>
								<labels>
									<label2 />
								</labels>
								<comments>
									<mastercomment1 />
									<mastercomment2 />
									<mastercomment3 />
									<mastercomment4 />
								</comments>
								<file id="ArmA 3 2020.11.14 - 01.22.45.102" />
								<filter>
									<effect>
										<name>Audio Levels</name>
										<effectid>audiolevels</effectid>
										<effectcategory>audiolevels</effectcategory>
										<effecttype>audiolevels</effecttype>
										<mediatype>audio</mediatype>
										<parameter>
											<name>Level</name>
											<parameterid>level</parameterid>
											<valuemin>0</valuemin>
											<valuemax>3,98109</valuemax>
											<value>1</value>
										</parameter>
									</effect>
								</filter>
								<filter>
									<effect>
										<name>Audio Pan</name>
										<effectid>audiopan</effectid>
										<effectcategory>audiopan</effectcategory>
										<effecttype>audiopan</effecttype>
										<mediatype>audio</mediatype>
										<parameter>
											<name>Pan</name>
											<parameterid>pan</parameterid>
											<valuemin>-1</valuemin>
											<valuemax>1</valuemax>
											<value>-1</value>
										</parameter>
									</effect>
								</filter>
								<sourcetrack>
									<mediatype>audio</mediatype>
									<trackindex>1</trackindex>
								</sourcetrack>
								<link>
									<linkclipref>ArmA 3 2020.11.14 - 01.22.45.102.mp4805307664</linkclipref>
								</link>
								<link>
									<linkclipref>ArmA 3 2020.11.14 - 01.22.45.102.mp4536872209</linkclipref>
								</link>
								<link>
									<linkclipref>ArmA 3 2020.11.14 - 01.22.45.102.mp45368722091</linkclipref>
								</link>
								<link>
									<linkclipref>ArmA 3 2020.11.14 - 01.22.45.102.mp4536872210</linkclipref>
								</link>
								<link>
									<linkclipref>ArmA 3 2020.11.14 - 01.22.45.102.mp45368722101</linkclipref>
								</link>
							</clipitem>
							<clipitem id="ArmA 3 2020.11.14 - 01.24.35.103.mp4536872212">
								<name>ArmA 3 2020.11.14 - 01.24.35.103.mp4</name>
								<duration>1749</duration>
								<rate>
									<ntsc>TRUE</ntsc>
									<timebase>24</timebase>
								</rate>
								<in>0</in>
								<out>1749</out>
								<start>16968</start>
								<end>18717</end>
								<masterclipid>ArmA 3 2020.11.14 - 01.24.35.103.mp4</masterclipid>
								<logginginfo>
									<scene />
									<shottake />
									<lognote />
									<good>FALSE</good>
								</logginginfo>
								<labels>
									<label2 />
								</labels>
								<comments>
									<mastercomment1 />
									<mastercomment2 />
									<mastercomment3 />
									<mastercomment4 />
								</comments>
								<file id="ArmA 3 2020.11.14 - 01.24.35.103" />
								<filter>
									<effect>
										<name>Audio Levels</name>
										<effectid>audiolevels</effectid>
										<effectcategory>audiolevels</effectcategory>
										<effecttype>audiolevels</effecttype>
										<mediatype>audio</mediatype>
										<parameter>
											<name>Level</name>
											<parameterid>level</parameterid>
											<valuemin>0</valuemin>
											<valuemax>3,98109</valuemax>
											<value>1</value>
										</parameter>
									</effect>
								</filter>
								<filter>
									<effect>
										<name>Audio Pan</name>
										<effectid>audiopan</effectid>
										<effectcategory>audiopan</effectcategory>
										<effecttype>audiopan</effecttype>
										<mediatype>audio</mediatype>
										<parameter>
											<name>Pan</name>
											<parameterid>pan</parameterid>
											<valuemin>-1</valuemin>
											<valuemax>1</valuemax>
											<value>-1</value>
										</parameter>
									</effect>
								</filter>
								<sourcetrack>
									<mediatype>audio</mediatype>
									<trackindex>1</trackindex>
								</sourcetrack>
								<link>
									<linkclipref>ArmA 3 2020.11.14 - 01.24.35.103.mp4805307667</linkclipref>
								</link>
								<link>
									<linkclipref>ArmA 3 2020.11.14 - 01.24.35.103.mp4536872212</linkclipref>
								</link>
								<link>
									<linkclipref>ArmA 3 2020.11.14 - 01.24.35.103.mp45368722121</linkclipref>
								</link>
								<link>
									<linkclipref>ArmA 3 2020.11.14 - 01.24.35.103.mp4536872213</linkclipref>
								</link>
								<link>
									<linkclipref>ArmA 3 2020.11.14 - 01.24.35.103.mp45368722131</linkclipref>
								</link>
							</clipitem>
							<clipitem id="ArmA 3 2020.11.14 - 01.27.04.104.mp4536872215">
								<name>ArmA 3 2020.11.14 - 01.27.04.104.mp4</name>
								<duration>170</duration>
								<rate>
									<ntsc>TRUE</ntsc>
									<timebase>24</timebase>
								</rate>
								<in>0</in>
								<out>170</out>
								<start>18718</start>
								<end>18888</end>
								<masterclipid>ArmA 3 2020.11.14 - 01.27.04.104.mp4</masterclipid>
								<logginginfo>
									<scene />
									<shottake />
									<lognote />
									<good>FALSE</good>
								</logginginfo>
								<labels>
									<label2 />
								</labels>
								<comments>
									<mastercomment1 />
									<mastercomment2 />
									<mastercomment3 />
									<mastercomment4 />
								</comments>
								<file id="ArmA 3 2020.11.14 - 01.27.04.104" />
								<filter>
									<effect>
										<name>Audio Levels</name>
										<effectid>audiolevels</effectid>
										<effectcategory>audiolevels</effectcategory>
										<effecttype>audiolevels</effecttype>
										<mediatype>audio</mediatype>
										<parameter>
											<name>Level</name>
											<parameterid>level</parameterid>
											<valuemin>0</valuemin>
											<valuemax>3,98109</valuemax>
											<value>1</value>
										</parameter>
									</effect>
								</filter>
								<filter>
									<effect>
										<name>Audio Pan</name>
										<effectid>audiopan</effectid>
										<effectcategory>audiopan</effectcategory>
										<effecttype>audiopan</effecttype>
										<mediatype>audio</mediatype>
										<parameter>
											<name>Pan</name>
											<parameterid>pan</parameterid>
											<valuemin>-1</valuemin>
											<valuemax>1</valuemax>
											<value>-1</value>
										</parameter>
									</effect>
								</filter>
								<sourcetrack>
									<mediatype>audio</mediatype>
									<trackindex>1</trackindex>
								</sourcetrack>
								<link>
									<linkclipref>ArmA 3 2020.11.14 - 01.27.04.104.mp4805307670</linkclipref>
								</link>
								<link>
									<linkclipref>ArmA 3 2020.11.14 - 01.27.04.104.mp4536872215</linkclipref>
								</link>
								<link>
									<linkclipref>ArmA 3 2020.11.14 - 01.27.04.104.mp45368722151</linkclipref>
								</link>
								<link>
									<linkclipref>ArmA 3 2020.11.14 - 01.27.04.104.mp4536872216</linkclipref>
								</link>
								<link>
									<linkclipref>ArmA 3 2020.11.14 - 01.27.04.104.mp45368722161</linkclipref>
								</link>
							</clipitem>
							<clipitem id="ArmA 3 2020.11.14 - 01.27.36.105.mp4536872218">
								<name>ArmA 3 2020.11.14 - 01.27.36.105.mp4</name>
								<duration>747</duration>
								<rate>
									<ntsc>TRUE</ntsc>
									<timebase>24</timebase>
								</rate>
								<in>0</in>
								<out>747</out>
								<start>18889</start>
								<end>19636</end>
								<masterclipid>ArmA 3 2020.11.14 - 01.27.36.105.mp4</masterclipid>
								<logginginfo>
									<scene />
									<shottake />
									<lognote />
									<good>FALSE</good>
								</logginginfo>
								<labels>
									<label2 />
								</labels>
								<comments>
									<mastercomment1 />
									<mastercomment2 />
									<mastercomment3 />
									<mastercomment4 />
								</comments>
								<file id="ArmA 3 2020.11.14 - 01.27.36.105" />
								<filter>
									<effect>
										<name>Audio Levels</name>
										<effectid>audiolevels</effectid>
										<effectcategory>audiolevels</effectcategory>
										<effecttype>audiolevels</effecttype>
										<mediatype>audio</mediatype>
										<parameter>
											<name>Level</name>
											<parameterid>level</parameterid>
											<valuemin>0</valuemin>
											<valuemax>3,98109</valuemax>
											<value>1</value>
										</parameter>
									</effect>
								</filter>
								<filter>
									<effect>
										<name>Audio Pan</name>
										<effectid>audiopan</effectid>
										<effectcategory>audiopan</effectcategory>
										<effecttype>audiopan</effecttype>
										<mediatype>audio</mediatype>
										<parameter>
											<name>Pan</name>
											<parameterid>pan</parameterid>
											<valuemin>-1</valuemin>
											<valuemax>1</valuemax>
											<value>-1</value>
										</parameter>
									</effect>
								</filter>
								<sourcetrack>
									<mediatype>audio</mediatype>
									<trackindex>1</trackindex>
								</sourcetrack>
								<link>
									<linkclipref>ArmA 3 2020.11.14 - 01.27.36.105.mp4805307673</linkclipref>
								</link>
								<link>
									<linkclipref>ArmA 3 2020.11.14 - 01.27.36.105.mp4536872218</linkclipref>
								</link>
								<link>
									<linkclipref>ArmA 3 2020.11.14 - 01.27.36.105.mp45368722181</linkclipref>
								</link>
								<link>
									<linkclipref>ArmA 3 2020.11.14 - 01.27.36.105.mp4536872219</linkclipref>
								</link>
								<link>
									<linkclipref>ArmA 3 2020.11.14 - 01.27.36.105.mp45368722191</linkclipref>
								</link>
							</clipitem>
							<clipitem id="ArmA 3 2020.11.14 - 01.32.59.106.mp4536872221">
								<name>ArmA 3 2020.11.14 - 01.32.59.106.mp4</name>
								<duration>834</duration>
								<rate>
									<ntsc>TRUE</ntsc>
									<timebase>24</timebase>
								</rate>
								<in>0</in>
								<out>834</out>
								<start>19637</start>
								<end>20471</end>
								<masterclipid>ArmA 3 2020.11.14 - 01.32.59.106.mp4</masterclipid>
								<logginginfo>
									<scene />
									<shottake />
									<lognote />
									<good>FALSE</good>
								</logginginfo>
								<labels>
									<label2 />
								</labels>
								<comments>
									<mastercomment1 />
									<mastercomment2 />
									<mastercomment3 />
									<mastercomment4 />
								</comments>
								<file id="ArmA 3 2020.11.14 - 01.32.59.106" />
								<filter>
									<effect>
										<name>Audio Levels</name>
										<effectid>audiolevels</effectid>
										<effectcategory>audiolevels</effectcategory>
										<effecttype>audiolevels</effecttype>
										<mediatype>audio</mediatype>
										<parameter>
											<name>Level</name>
											<parameterid>level</parameterid>
											<valuemin>0</valuemin>
											<valuemax>3,98109</valuemax>
											<value>1</value>
										</parameter>
									</effect>
								</filter>
								<filter>
									<effect>
										<name>Audio Pan</name>
										<effectid>audiopan</effectid>
										<effectcategory>audiopan</effectcategory>
										<effecttype>audiopan</effecttype>
										<mediatype>audio</mediatype>
										<parameter>
											<name>Pan</name>
											<parameterid>pan</parameterid>
											<valuemin>-1</valuemin>
											<valuemax>1</valuemax>
											<value>-1</value>
										</parameter>
									</effect>
								</filter>
								<sourcetrack>
									<mediatype>audio</mediatype>
									<trackindex>1</trackindex>
								</sourcetrack>
								<link>
									<linkclipref>ArmA 3 2020.11.14 - 01.32.59.106.mp4805307676</linkclipref>
								</link>
								<link>
									<linkclipref>ArmA 3 2020.11.14 - 01.32.59.106.mp4536872221</linkclipref>
								</link>
								<link>
									<linkclipref>ArmA 3 2020.11.14 - 01.32.59.106.mp45368722211</linkclipref>
								</link>
								<link>
									<linkclipref>ArmA 3 2020.11.14 - 01.32.59.106.mp4536872222</linkclipref>
								</link>
								<link>
									<linkclipref>ArmA 3 2020.11.14 - 01.32.59.106.mp45368722221</linkclipref>
								</link>
							</clipitem>
							<clipitem id="ArmA 3 2020.11.14 - 01.34.00.107.mp4536872224">
								<name>ArmA 3 2020.11.14 - 01.34.00.107.mp4</name>
								<duration>670</duration>
								<rate>
									<ntsc>TRUE</ntsc>
									<timebase>24</timebase>
								</rate>
								<in>0</in>
								<out>670</out>
								<start>20472</start>
								<end>21142</end>
								<masterclipid>ArmA 3 2020.11.14 - 01.34.00.107.mp4</masterclipid>
								<logginginfo>
									<scene />
									<shottake />
									<lognote />
									<good>FALSE</good>
								</logginginfo>
								<labels>
									<label2 />
								</labels>
								<comments>
									<mastercomment1 />
									<mastercomment2 />
									<mastercomment3 />
									<mastercomment4 />
								</comments>
								<file id="ArmA 3 2020.11.14 - 01.34.00.107" />
								<filter>
									<effect>
										<name>Audio Levels</name>
										<effectid>audiolevels</effectid>
										<effectcategory>audiolevels</effectcategory>
										<effecttype>audiolevels</effecttype>
										<mediatype>audio</mediatype>
										<parameter>
											<name>Level</name>
											<parameterid>level</parameterid>
											<valuemin>0</valuemin>
											<valuemax>3,98109</valuemax>
											<value>1</value>
										</parameter>
									</effect>
								</filter>
								<filter>
									<effect>
										<name>Audio Pan</name>
										<effectid>audiopan</effectid>
										<effectcategory>audiopan</effectcategory>
										<effecttype>audiopan</effecttype>
										<mediatype>audio</mediatype>
										<parameter>
											<name>Pan</name>
											<parameterid>pan</parameterid>
											<valuemin>-1</valuemin>
											<valuemax>1</valuemax>
											<value>-1</value>
										</parameter>
									</effect>
								</filter>
								<sourcetrack>
									<mediatype>audio</mediatype>
									<trackindex>1</trackindex>
								</sourcetrack>
								<link>
									<linkclipref>ArmA 3 2020.11.14 - 01.34.00.107.mp4805307679</linkclipref>
								</link>
								<link>
									<linkclipref>ArmA 3 2020.11.14 - 01.34.00.107.mp4536872224</linkclipref>
								</link>
								<link>
									<linkclipref>ArmA 3 2020.11.14 - 01.34.00.107.mp45368722241</linkclipref>
								</link>
								<link>
									<linkclipref>ArmA 3 2020.11.14 - 01.34.00.107.mp4536872225</linkclipref>
								</link>
								<link>
									<linkclipref>ArmA 3 2020.11.14 - 01.34.00.107.mp45368722251</linkclipref>
								</link>
							</clipitem>
							<clipitem id="ArmA 3 2020.11.14 - 01.34.52.108.mp4536872227">
								<name>ArmA 3 2020.11.14 - 01.34.52.108.mp4</name>
								<duration>461</duration>
								<rate>
									<ntsc>TRUE</ntsc>
									<timebase>24</timebase>
								</rate>
								<in>0</in>
								<out>461</out>
								<start>21143</start>
								<end>21604</end>
								<masterclipid>ArmA 3 2020.11.14 - 01.34.52.108.mp4</masterclipid>
								<logginginfo>
									<scene />
									<shottake />
									<lognote />
									<good>FALSE</good>
								</logginginfo>
								<labels>
									<label2 />
								</labels>
								<comments>
									<mastercomment1 />
									<mastercomment2 />
									<mastercomment3 />
									<mastercomment4 />
								</comments>
								<file id="ArmA 3 2020.11.14 - 01.34.52.108" />
								<filter>
									<effect>
										<name>Audio Levels</name>
										<effectid>audiolevels</effectid>
										<effectcategory>audiolevels</effectcategory>
										<effecttype>audiolevels</effecttype>
										<mediatype>audio</mediatype>
										<parameter>
											<name>Level</name>
											<parameterid>level</parameterid>
											<valuemin>0</valuemin>
											<valuemax>3,98109</valuemax>
											<value>1</value>
										</parameter>
									</effect>
								</filter>
								<filter>
									<effect>
										<name>Audio Pan</name>
										<effectid>audiopan</effectid>
										<effectcategory>audiopan</effectcategory>
										<effecttype>audiopan</effecttype>
										<mediatype>audio</mediatype>
										<parameter>
											<name>Pan</name>
											<parameterid>pan</parameterid>
											<valuemin>-1</valuemin>
											<valuemax>1</valuemax>
											<value>-1</value>
										</parameter>
									</effect>
								</filter>
								<sourcetrack>
									<mediatype>audio</mediatype>
									<trackindex>1</trackindex>
								</sourcetrack>
								<link>
									<linkclipref>ArmA 3 2020.11.14 - 01.34.52.108.mp4805307682</linkclipref>
								</link>
								<link>
									<linkclipref>ArmA 3 2020.11.14 - 01.34.52.108.mp4536872227</linkclipref>
								</link>
								<link>
									<linkclipref>ArmA 3 2020.11.14 - 01.34.52.108.mp45368722271</linkclipref>
								</link>
								<link>
									<linkclipref>ArmA 3 2020.11.14 - 01.34.52.108.mp4536872228</linkclipref>
								</link>
								<link>
									<linkclipref>ArmA 3 2020.11.14 - 01.34.52.108.mp45368722281</linkclipref>
								</link>
							</clipitem>
							<clipitem id="ArmA 3 2020.11.14 - 01.35.14.109.mp4536872230">
								<name>ArmA 3 2020.11.14 - 01.35.14.109.mp4</name>
								<duration>115</duration>
								<rate>
									<ntsc>TRUE</ntsc>
									<timebase>24</timebase>
								</rate>
								<in>0</in>
								<out>115</out>
								<start>21605</start>
								<end>21720</end>
								<masterclipid>ArmA 3 2020.11.14 - 01.35.14.109.mp4</masterclipid>
								<logginginfo>
									<scene />
									<shottake />
									<lognote />
									<good>FALSE</good>
								</logginginfo>
								<labels>
									<label2 />
								</labels>
								<comments>
									<mastercomment1 />
									<mastercomment2 />
									<mastercomment3 />
									<mastercomment4 />
								</comments>
								<file id="ArmA 3 2020.11.14 - 01.35.14.109" />
								<filter>
									<effect>
										<name>Audio Levels</name>
										<effectid>audiolevels</effectid>
										<effectcategory>audiolevels</effectcategory>
										<effecttype>audiolevels</effecttype>
										<mediatype>audio</mediatype>
										<parameter>
											<name>Level</name>
											<parameterid>level</parameterid>
											<valuemin>0</valuemin>
											<valuemax>3,98109</valuemax>
											<value>1</value>
										</parameter>
									</effect>
								</filter>
								<filter>
									<effect>
										<name>Audio Pan</name>
										<effectid>audiopan</effectid>
										<effectcategory>audiopan</effectcategory>
										<effecttype>audiopan</effecttype>
										<mediatype>audio</mediatype>
										<parameter>
											<name>Pan</name>
											<parameterid>pan</parameterid>
											<valuemin>-1</valuemin>
											<valuemax>1</valuemax>
											<value>-1</value>
										</parameter>
									</effect>
								</filter>
								<sourcetrack>
									<mediatype>audio</mediatype>
									<trackindex>1</trackindex>
								</sourcetrack>
								<link>
									<linkclipref>ArmA 3 2020.11.14 - 01.35.14.109.mp4805307685</linkclipref>
								</link>
								<link>
									<linkclipref>ArmA 3 2020.11.14 - 01.35.14.109.mp4536872230</linkclipref>
								</link>
								<link>
									<linkclipref>ArmA 3 2020.11.14 - 01.35.14.109.mp45368722301</linkclipref>
								</link>
								<link>
									<linkclipref>ArmA 3 2020.11.14 - 01.35.14.109.mp4536872231</linkclipref>
								</link>
								<link>
									<linkclipref>ArmA 3 2020.11.14 - 01.35.14.109.mp45368722311</linkclipref>
								</link>
							</clipitem>
							<clipitem id="ArmA 3 2020.11.14 - 01.36.01.110.mp4536872233">
								<name>ArmA 3 2020.11.14 - 01.36.01.110.mp4</name>
								<duration>2427</duration>
								<rate>
									<ntsc>TRUE</ntsc>
									<timebase>24</timebase>
								</rate>
								<in>0</in>
								<out>2427</out>
								<start>21721</start>
								<end>24148</end>
								<masterclipid>ArmA 3 2020.11.14 - 01.36.01.110.mp4</masterclipid>
								<logginginfo>
									<scene />
									<shottake />
									<lognote />
									<good>FALSE</good>
								</logginginfo>
								<labels>
									<label2 />
								</labels>
								<comments>
									<mastercomment1 />
									<mastercomment2 />
									<mastercomment3 />
									<mastercomment4 />
								</comments>
								<file id="ArmA 3 2020.11.14 - 01.36.01.110" />
								<filter>
									<effect>
										<name>Audio Levels</name>
										<effectid>audiolevels</effectid>
										<effectcategory>audiolevels</effectcategory>
										<effecttype>audiolevels</effecttype>
										<mediatype>audio</mediatype>
										<parameter>
											<name>Level</name>
											<parameterid>level</parameterid>
											<valuemin>0</valuemin>
											<valuemax>3,98109</valuemax>
											<value>1</value>
										</parameter>
									</effect>
								</filter>
								<filter>
									<effect>
										<name>Audio Pan</name>
										<effectid>audiopan</effectid>
										<effectcategory>audiopan</effectcategory>
										<effecttype>audiopan</effecttype>
										<mediatype>audio</mediatype>
										<parameter>
											<name>Pan</name>
											<parameterid>pan</parameterid>
											<valuemin>-1</valuemin>
											<valuemax>1</valuemax>
											<value>-1</value>
										</parameter>
									</effect>
								</filter>
								<sourcetrack>
									<mediatype>audio</mediatype>
									<trackindex>1</trackindex>
								</sourcetrack>
								<link>
									<linkclipref>ArmA 3 2020.11.14 - 01.36.01.110.mp4805307688</linkclipref>
								</link>
								<link>
									<linkclipref>ArmA 3 2020.11.14 - 01.36.01.110.mp4536872233</linkclipref>
								</link>
								<link>
									<linkclipref>ArmA 3 2020.11.14 - 01.36.01.110.mp45368722331</linkclipref>
								</link>
								<link>
									<linkclipref>ArmA 3 2020.11.14 - 01.36.01.110.mp4536872234</linkclipref>
								</link>
								<link>
									<linkclipref>ArmA 3 2020.11.14 - 01.36.01.110.mp45368722341</linkclipref>
								</link>
							</clipitem>
							<clipitem id="ArmA 3 2020.11.14 - 01.37.46.111.mp4536872236">
								<name>ArmA 3 2020.11.14 - 01.37.46.111.mp4</name>
								<duration>2189</duration>
								<rate>
									<ntsc>TRUE</ntsc>
									<timebase>24</timebase>
								</rate>
								<in>0</in>
								<out>2189</out>
								<start>24149</start>
								<end>26338</end>
								<masterclipid>ArmA 3 2020.11.14 - 01.37.46.111.mp4</masterclipid>
								<logginginfo>
									<scene />
									<shottake />
									<lognote />
									<good>FALSE</good>
								</logginginfo>
								<labels>
									<label2 />
								</labels>
								<comments>
									<mastercomment1 />
									<mastercomment2 />
									<mastercomment3 />
									<mastercomment4 />
								</comments>
								<file id="ArmA 3 2020.11.14 - 01.37.46.111" />
								<filter>
									<effect>
										<name>Audio Levels</name>
										<effectid>audiolevels</effectid>
										<effectcategory>audiolevels</effectcategory>
										<effecttype>audiolevels</effecttype>
										<mediatype>audio</mediatype>
										<parameter>
											<name>Level</name>
											<parameterid>level</parameterid>
											<valuemin>0</valuemin>
											<valuemax>3,98109</valuemax>
											<value>1</value>
										</parameter>
									</effect>
								</filter>
								<filter>
									<effect>
										<name>Audio Pan</name>
										<effectid>audiopan</effectid>
										<effectcategory>audiopan</effectcategory>
										<effecttype>audiopan</effecttype>
										<mediatype>audio</mediatype>
										<parameter>
											<name>Pan</name>
											<parameterid>pan</parameterid>
											<valuemin>-1</valuemin>
											<valuemax>1</valuemax>
											<value>-1</value>
										</parameter>
									</effect>
								</filter>
								<sourcetrack>
									<mediatype>audio</mediatype>
									<trackindex>1</trackindex>
								</sourcetrack>
								<link>
									<linkclipref>ArmA 3 2020.11.14 - 01.37.46.111.mp4805307691</linkclipref>
								</link>
								<link>
									<linkclipref>ArmA 3 2020.11.14 - 01.37.46.111.mp4536872236</linkclipref>
								</link>
								<link>
									<linkclipref>ArmA 3 2020.11.14 - 01.37.46.111.mp45368722361</linkclipref>
								</link>
								<link>
									<linkclipref>ArmA 3 2020.11.14 - 01.37.46.111.mp4536872237</linkclipref>
								</link>
								<link>
									<linkclipref>ArmA 3 2020.11.14 - 01.37.46.111.mp45368722371</linkclipref>
								</link>
							</clipitem>
							<clipitem id="ArmA 3 2020.11.14 - 01.40.03.112.mp4536872239">
								<name>ArmA 3 2020.11.14 - 01.40.03.112.mp4</name>
								<duration>1199</duration>
								<rate>
									<ntsc>TRUE</ntsc>
									<timebase>24</timebase>
								</rate>
								<in>0</in>
								<out>1199</out>
								<start>26339</start>
								<end>27538</end>
								<masterclipid>ArmA 3 2020.11.14 - 01.40.03.112.mp4</masterclipid>
								<logginginfo>
									<scene />
									<shottake />
									<lognote />
									<good>FALSE</good>
								</logginginfo>
								<labels>
									<label2 />
								</labels>
								<comments>
									<mastercomment1 />
									<mastercomment2 />
									<mastercomment3 />
									<mastercomment4 />
								</comments>
								<file id="ArmA 3 2020.11.14 - 01.40.03.112" />
								<filter>
									<effect>
										<name>Audio Levels</name>
										<effectid>audiolevels</effectid>
										<effectcategory>audiolevels</effectcategory>
										<effecttype>audiolevels</effecttype>
										<mediatype>audio</mediatype>
										<parameter>
											<name>Level</name>
											<parameterid>level</parameterid>
											<valuemin>0</valuemin>
											<valuemax>3,98109</valuemax>
											<value>1</value>
										</parameter>
									</effect>
								</filter>
								<filter>
									<effect>
										<name>Audio Pan</name>
										<effectid>audiopan</effectid>
										<effectcategory>audiopan</effectcategory>
										<effecttype>audiopan</effecttype>
										<mediatype>audio</mediatype>
										<parameter>
											<name>Pan</name>
											<parameterid>pan</parameterid>
											<valuemin>-1</valuemin>
											<valuemax>1</valuemax>
											<value>-1</value>
										</parameter>
									</effect>
								</filter>
								<sourcetrack>
									<mediatype>audio</mediatype>
									<trackindex>1</trackindex>
								</sourcetrack>
								<link>
									<linkclipref>ArmA 3 2020.11.14 - 01.40.03.112.mp4805307694</linkclipref>
								</link>
								<link>
									<linkclipref>ArmA 3 2020.11.14 - 01.40.03.112.mp4536872239</linkclipref>
								</link>
								<link>
									<linkclipref>ArmA 3 2020.11.14 - 01.40.03.112.mp45368722391</linkclipref>
								</link>
								<link>
									<linkclipref>ArmA 3 2020.11.14 - 01.40.03.112.mp4536872240</linkclipref>
								</link>
								<link>
									<linkclipref>ArmA 3 2020.11.14 - 01.40.03.112.mp45368722401</linkclipref>
								</link>
							</clipitem>
							<clipitem id="ArmA 3 2020.11.14 - 01.41.02.113.mp4536872242">
								<name>ArmA 3 2020.11.14 - 01.41.02.113.mp4</name>
								<duration>927</duration>
								<rate>
									<ntsc>TRUE</ntsc>
									<timebase>24</timebase>
								</rate>
								<in>0</in>
								<out>927</out>
								<start>27539</start>
								<end>28466</end>
								<masterclipid>ArmA 3 2020.11.14 - 01.41.02.113.mp4</masterclipid>
								<logginginfo>
									<scene />
									<shottake />
									<lognote />
									<good>FALSE</good>
								</logginginfo>
								<labels>
									<label2 />
								</labels>
								<comments>
									<mastercomment1 />
									<mastercomment2 />
									<mastercomment3 />
									<mastercomment4 />
								</comments>
								<file id="ArmA 3 2020.11.14 - 01.41.02.113" />
								<filter>
									<effect>
										<name>Audio Levels</name>
										<effectid>audiolevels</effectid>
										<effectcategory>audiolevels</effectcategory>
										<effecttype>audiolevels</effecttype>
										<mediatype>audio</mediatype>
										<parameter>
											<name>Level</name>
											<parameterid>level</parameterid>
											<valuemin>0</valuemin>
											<valuemax>3,98109</valuemax>
											<value>1</value>
										</parameter>
									</effect>
								</filter>
								<filter>
									<effect>
										<name>Audio Pan</name>
										<effectid>audiopan</effectid>
										<effectcategory>audiopan</effectcategory>
										<effecttype>audiopan</effecttype>
										<mediatype>audio</mediatype>
										<parameter>
											<name>Pan</name>
											<parameterid>pan</parameterid>
											<valuemin>-1</valuemin>
											<valuemax>1</valuemax>
											<value>-1</value>
										</parameter>
									</effect>
								</filter>
								<sourcetrack>
									<mediatype>audio</mediatype>
									<trackindex>1</trackindex>
								</sourcetrack>
								<link>
									<linkclipref>ArmA 3 2020.11.14 - 01.41.02.113.mp4805307697</linkclipref>
								</link>
								<link>
									<linkclipref>ArmA 3 2020.11.14 - 01.41.02.113.mp4536872242</linkclipref>
								</link>
								<link>
									<linkclipref>ArmA 3 2020.11.14 - 01.41.02.113.mp45368722421</linkclipref>
								</link>
								<link>
									<linkclipref>ArmA 3 2020.11.14 - 01.41.02.113.mp4536872243</linkclipref>
								</link>
								<link>
									<linkclipref>ArmA 3 2020.11.14 - 01.41.02.113.mp45368722431</linkclipref>
								</link>
							</clipitem>
							<clipitem id="ArmA 3 2020.11.14 - 01.42.04.114.mp4536872245">
								<name>ArmA 3 2020.11.14 - 01.42.04.114.mp4</name>
								<duration>871</duration>
								<rate>
									<ntsc>TRUE</ntsc>
									<timebase>24</timebase>
								</rate>
								<in>0</in>
								<out>871</out>
								<start>28467</start>
								<end>29338</end>
								<masterclipid>ArmA 3 2020.11.14 - 01.42.04.114.mp4</masterclipid>
								<logginginfo>
									<scene />
									<shottake />
									<lognote />
									<good>FALSE</good>
								</logginginfo>
								<labels>
									<label2 />
								</labels>
								<comments>
									<mastercomment1 />
									<mastercomment2 />
									<mastercomment3 />
									<mastercomment4 />
								</comments>
								<file id="ArmA 3 2020.11.14 - 01.42.04.114" />
								<filter>
									<effect>
										<name>Audio Levels</name>
										<effectid>audiolevels</effectid>
										<effectcategory>audiolevels</effectcategory>
										<effecttype>audiolevels</effecttype>
										<mediatype>audio</mediatype>
										<parameter>
											<name>Level</name>
											<parameterid>level</parameterid>
											<valuemin>0</valuemin>
											<valuemax>3,98109</valuemax>
											<value>1</value>
										</parameter>
									</effect>
								</filter>
								<filter>
									<effect>
										<name>Audio Pan</name>
										<effectid>audiopan</effectid>
										<effectcategory>audiopan</effectcategory>
										<effecttype>audiopan</effecttype>
										<mediatype>audio</mediatype>
										<parameter>
											<name>Pan</name>
											<parameterid>pan</parameterid>
											<valuemin>-1</valuemin>
											<valuemax>1</valuemax>
											<value>-1</value>
										</parameter>
									</effect>
								</filter>
								<sourcetrack>
									<mediatype>audio</mediatype>
									<trackindex>1</trackindex>
								</sourcetrack>
								<link>
									<linkclipref>ArmA 3 2020.11.14 - 01.42.04.114.mp4805307700</linkclipref>
								</link>
								<link>
									<linkclipref>ArmA 3 2020.11.14 - 01.42.04.114.mp4536872245</linkclipref>
								</link>
								<link>
									<linkclipref>ArmA 3 2020.11.14 - 01.42.04.114.mp45368722451</linkclipref>
								</link>
								<link>
									<linkclipref>ArmA 3 2020.11.14 - 01.42.04.114.mp4536872246</linkclipref>
								</link>
								<link>
									<linkclipref>ArmA 3 2020.11.14 - 01.42.04.114.mp45368722461</linkclipref>
								</link>
							</clipitem>
							<clipitem id="ArmA 3 2020.11.14 - 01.44.22.115.mp4536872248">
								<name>ArmA 3 2020.11.14 - 01.44.22.115.mp4</name>
								<duration>519</duration>
								<rate>
									<ntsc>TRUE</ntsc>
									<timebase>24</timebase>
								</rate>
								<in>0</in>
								<out>519</out>
								<start>29339</start>
								<end>29858</end>
								<masterclipid>ArmA 3 2020.11.14 - 01.44.22.115.mp4</masterclipid>
								<logginginfo>
									<scene />
									<shottake />
									<lognote />
									<good>FALSE</good>
								</logginginfo>
								<labels>
									<label2 />
								</labels>
								<comments>
									<mastercomment1 />
									<mastercomment2 />
									<mastercomment3 />
									<mastercomment4 />
								</comments>
								<file id="ArmA 3 2020.11.14 - 01.44.22.115" />
								<filter>
									<effect>
										<name>Audio Levels</name>
										<effectid>audiolevels</effectid>
										<effectcategory>audiolevels</effectcategory>
										<effecttype>audiolevels</effecttype>
										<mediatype>audio</mediatype>
										<parameter>
											<name>Level</name>
											<parameterid>level</parameterid>
											<valuemin>0</valuemin>
											<valuemax>3,98109</valuemax>
											<value>1</value>
										</parameter>
									</effect>
								</filter>
								<filter>
									<effect>
										<name>Audio Pan</name>
										<effectid>audiopan</effectid>
										<effectcategory>audiopan</effectcategory>
										<effecttype>audiopan</effecttype>
										<mediatype>audio</mediatype>
										<parameter>
											<name>Pan</name>
											<parameterid>pan</parameterid>
											<valuemin>-1</valuemin>
											<valuemax>1</valuemax>
											<value>-1</value>
										</parameter>
									</effect>
								</filter>
								<sourcetrack>
									<mediatype>audio</mediatype>
									<trackindex>1</trackindex>
								</sourcetrack>
								<link>
									<linkclipref>ArmA 3 2020.11.14 - 01.44.22.115.mp4805307703</linkclipref>
								</link>
								<link>
									<linkclipref>ArmA 3 2020.11.14 - 01.44.22.115.mp4536872248</linkclipref>
								</link>
								<link>
									<linkclipref>ArmA 3 2020.11.14 - 01.44.22.115.mp45368722481</linkclipref>
								</link>
								<link>
									<linkclipref>ArmA 3 2020.11.14 - 01.44.22.115.mp4536872249</linkclipref>
								</link>
								<link>
									<linkclipref>ArmA 3 2020.11.14 - 01.44.22.115.mp45368722491</linkclipref>
								</link>
							</clipitem>
							<clipitem id="ArmA 3 2020.11.14 - 01.44.58.116.mp4536872251">
								<name>ArmA 3 2020.11.14 - 01.44.58.116.mp4</name>
								<duration>882</duration>
								<rate>
									<ntsc>TRUE</ntsc>
									<timebase>24</timebase>
								</rate>
								<in>0</in>
								<out>882</out>
								<start>29859</start>
								<end>30741</end>
								<masterclipid>ArmA 3 2020.11.14 - 01.44.58.116.mp4</masterclipid>
								<logginginfo>
									<scene />
									<shottake />
									<lognote />
									<good>FALSE</good>
								</logginginfo>
								<labels>
									<label2 />
								</labels>
								<comments>
									<mastercomment1 />
									<mastercomment2 />
									<mastercomment3 />
									<mastercomment4 />
								</comments>
								<file id="ArmA 3 2020.11.14 - 01.44.58.116" />
								<filter>
									<effect>
										<name>Audio Levels</name>
										<effectid>audiolevels</effectid>
										<effectcategory>audiolevels</effectcategory>
										<effecttype>audiolevels</effecttype>
										<mediatype>audio</mediatype>
										<parameter>
											<name>Level</name>
											<parameterid>level</parameterid>
											<valuemin>0</valuemin>
											<valuemax>3,98109</valuemax>
											<value>1</value>
										</parameter>
									</effect>
								</filter>
								<filter>
									<effect>
										<name>Audio Pan</name>
										<effectid>audiopan</effectid>
										<effectcategory>audiopan</effectcategory>
										<effecttype>audiopan</effecttype>
										<mediatype>audio</mediatype>
										<parameter>
											<name>Pan</name>
											<parameterid>pan</parameterid>
											<valuemin>-1</valuemin>
											<valuemax>1</valuemax>
											<value>-1</value>
										</parameter>
									</effect>
								</filter>
								<sourcetrack>
									<mediatype>audio</mediatype>
									<trackindex>1</trackindex>
								</sourcetrack>
								<link>
									<linkclipref>ArmA 3 2020.11.14 - 01.44.58.116.mp4805307706</linkclipref>
								</link>
								<link>
									<linkclipref>ArmA 3 2020.11.14 - 01.44.58.116.mp4536872251</linkclipref>
								</link>
								<link>
									<linkclipref>ArmA 3 2020.11.14 - 01.44.58.116.mp45368722511</linkclipref>
								</link>
								<link>
									<linkclipref>ArmA 3 2020.11.14 - 01.44.58.116.mp4536872252</linkclipref>
								</link>
								<link>
									<linkclipref>ArmA 3 2020.11.14 - 01.44.58.116.mp45368722521</linkclipref>
								</link>
							</clipitem>
							<clipitem id="ArmA 3 2020.11.14 - 01.48.52.117.mp4536872254">
								<name>ArmA 3 2020.11.14 - 01.48.52.117.mp4</name>
								<duration>628</duration>
								<rate>
									<ntsc>TRUE</ntsc>
									<timebase>24</timebase>
								</rate>
								<in>0</in>
								<out>628</out>
								<start>30742</start>
								<end>31370</end>
								<masterclipid>ArmA 3 2020.11.14 - 01.48.52.117.mp4</masterclipid>
								<logginginfo>
									<scene />
									<shottake />
									<lognote />
									<good>FALSE</good>
								</logginginfo>
								<labels>
									<label2 />
								</labels>
								<comments>
									<mastercomment1 />
									<mastercomment2 />
									<mastercomment3 />
									<mastercomment4 />
								</comments>
								<file id="ArmA 3 2020.11.14 - 01.48.52.117" />
								<filter>
									<effect>
										<name>Audio Levels</name>
										<effectid>audiolevels</effectid>
										<effectcategory>audiolevels</effectcategory>
										<effecttype>audiolevels</effecttype>
										<mediatype>audio</mediatype>
										<parameter>
											<name>Level</name>
											<parameterid>level</parameterid>
											<valuemin>0</valuemin>
											<valuemax>3,98109</valuemax>
											<value>1</value>
										</parameter>
									</effect>
								</filter>
								<filter>
									<effect>
										<name>Audio Pan</name>
										<effectid>audiopan</effectid>
										<effectcategory>audiopan</effectcategory>
										<effecttype>audiopan</effecttype>
										<mediatype>audio</mediatype>
										<parameter>
											<name>Pan</name>
											<parameterid>pan</parameterid>
											<valuemin>-1</valuemin>
											<valuemax>1</valuemax>
											<value>-1</value>
										</parameter>
									</effect>
								</filter>
								<sourcetrack>
									<mediatype>audio</mediatype>
									<trackindex>1</trackindex>
								</sourcetrack>
								<link>
									<linkclipref>ArmA 3 2020.11.14 - 01.48.52.117.mp4805307709</linkclipref>
								</link>
								<link>
									<linkclipref>ArmA 3 2020.11.14 - 01.48.52.117.mp4536872254</linkclipref>
								</link>
								<link>
									<linkclipref>ArmA 3 2020.11.14 - 01.48.52.117.mp45368722541</linkclipref>
								</link>
								<link>
									<linkclipref>ArmA 3 2020.11.14 - 01.48.52.117.mp4536872255</linkclipref>
								</link>
								<link>
									<linkclipref>ArmA 3 2020.11.14 - 01.48.52.117.mp45368722551</linkclipref>
								</link>
							</clipitem>
							<clipitem id="ArmA 3 2020.11.14 - 01.48.52.117.mp4536872257">
								<name>ArmA 3 2020.11.14 - 01.48.52.117.mp4</name>
								<duration>628</duration>
								<rate>
									<ntsc>TRUE</ntsc>
									<timebase>24</timebase>
								</rate>
								<in>0</in>
								<out>628</out>
								<start>31371</start>
								<end>31999</end>
								<masterclipid>ArmA 3 2020.11.14 - 01.48.52.117.mp4</masterclipid>
								<logginginfo>
									<scene />
									<shottake />
									<lognote />
									<good>FALSE</good>
								</logginginfo>
								<labels>
									<label2 />
								</labels>
								<comments>
									<mastercomment1 />
									<mastercomment2 />
									<mastercomment3 />
									<mastercomment4 />
								</comments>
								<file id="ArmA 3 2020.11.14 - 01.48.52.117" />
								<filter>
									<effect>
										<name>Audio Levels</name>
										<effectid>audiolevels</effectid>
										<effectcategory>audiolevels</effectcategory>
										<effecttype>audiolevels</effecttype>
										<mediatype>audio</mediatype>
										<parameter>
											<name>Level</name>
											<parameterid>level</parameterid>
											<valuemin>0</valuemin>
											<valuemax>3,98109</valuemax>
											<value>1</value>
										</parameter>
									</effect>
								</filter>
								<filter>
									<effect>
										<name>Audio Pan</name>
										<effectid>audiopan</effectid>
										<effectcategory>audiopan</effectcategory>
										<effecttype>audiopan</effecttype>
										<mediatype>audio</mediatype>
										<parameter>
											<name>Pan</name>
											<parameterid>pan</parameterid>
											<valuemin>-1</valuemin>
											<valuemax>1</valuemax>
											<value>-1</value>
										</parameter>
									</effect>
								</filter>
								<sourcetrack>
									<mediatype>audio</mediatype>
									<trackindex>1</trackindex>
								</sourcetrack>
								<link>
									<linkclipref>ArmA 3 2020.11.14 - 01.48.52.117.mp4805307712</linkclipref>
								</link>
								<link>
									<linkclipref>ArmA 3 2020.11.14 - 01.48.52.117.mp4536872257</linkclipref>
								</link>
								<link>
									<linkclipref>ArmA 3 2020.11.14 - 01.48.52.117.mp45368722571</linkclipref>
								</link>
								<link>
									<linkclipref>ArmA 3 2020.11.14 - 01.48.52.117.mp4536872258</linkclipref>
								</link>
								<link>
									<linkclipref>ArmA 3 2020.11.14 - 01.48.52.117.mp45368722581</linkclipref>
								</link>
							</clipitem>
							<clipitem id="ArmA 3 2020.11.14 - 01.49.37.118.mp4536872260">
								<name>ArmA 3 2020.11.14 - 01.49.37.118.mp4</name>
								<duration>1699</duration>
								<rate>
									<ntsc>TRUE</ntsc>
									<timebase>24</timebase>
								</rate>
								<in>0</in>
								<out>1699</out>
								<start>32000</start>
								<end>33699</end>
								<masterclipid>ArmA 3 2020.11.14 - 01.49.37.118.mp4</masterclipid>
								<logginginfo>
									<scene />
									<shottake />
									<lognote />
									<good>FALSE</good>
								</logginginfo>
								<labels>
									<label2 />
								</labels>
								<comments>
									<mastercomment1 />
									<mastercomment2 />
									<mastercomment3 />
									<mastercomment4 />
								</comments>
								<file id="ArmA 3 2020.11.14 - 01.49.37.118" />
								<filter>
									<effect>
										<name>Audio Levels</name>
										<effectid>audiolevels</effectid>
										<effectcategory>audiolevels</effectcategory>
										<effecttype>audiolevels</effecttype>
										<mediatype>audio</mediatype>
										<parameter>
											<name>Level</name>
											<parameterid>level</parameterid>
											<valuemin>0</valuemin>
											<valuemax>3,98109</valuemax>
											<value>1</value>
										</parameter>
									</effect>
								</filter>
								<filter>
									<effect>
										<name>Audio Pan</name>
										<effectid>audiopan</effectid>
										<effectcategory>audiopan</effectcategory>
										<effecttype>audiopan</effecttype>
										<mediatype>audio</mediatype>
										<parameter>
											<name>Pan</name>
											<parameterid>pan</parameterid>
											<valuemin>-1</valuemin>
											<valuemax>1</valuemax>
											<value>-1</value>
										</parameter>
									</effect>
								</filter>
								<sourcetrack>
									<mediatype>audio</mediatype>
									<trackindex>1</trackindex>
								</sourcetrack>
								<link>
									<linkclipref>ArmA 3 2020.11.14 - 01.49.37.118.mp4805307715</linkclipref>
								</link>
								<link>
									<linkclipref>ArmA 3 2020.11.14 - 01.49.37.118.mp4536872260</linkclipref>
								</link>
								<link>
									<linkclipref>ArmA 3 2020.11.14 - 01.49.37.118.mp45368722601</linkclipref>
								</link>
								<link>
									<linkclipref>ArmA 3 2020.11.14 - 01.49.37.118.mp4536872261</linkclipref>
								</link>
								<link>
									<linkclipref>ArmA 3 2020.11.14 - 01.49.37.118.mp45368722611</linkclipref>
								</link>
							</clipitem>
							<clipitem id="ArmA 3 2020.11.14 - 01.54.33.119.mp4536872263">
								<name>ArmA 3 2020.11.14 - 01.54.33.119.mp4</name>
								<duration>772</duration>
								<rate>
									<ntsc>TRUE</ntsc>
									<timebase>24</timebase>
								</rate>
								<in>0</in>
								<out>772</out>
								<start>33700</start>
								<end>34472</end>
								<masterclipid>ArmA 3 2020.11.14 - 01.54.33.119.mp4</masterclipid>
								<logginginfo>
									<scene />
									<shottake />
									<lognote />
									<good>FALSE</good>
								</logginginfo>
								<labels>
									<label2 />
								</labels>
								<comments>
									<mastercomment1 />
									<mastercomment2 />
									<mastercomment3 />
									<mastercomment4 />
								</comments>
								<file id="ArmA 3 2020.11.14 - 01.54.33.119" />
								<filter>
									<effect>
										<name>Audio Levels</name>
										<effectid>audiolevels</effectid>
										<effectcategory>audiolevels</effectcategory>
										<effecttype>audiolevels</effecttype>
										<mediatype>audio</mediatype>
										<parameter>
											<name>Level</name>
											<parameterid>level</parameterid>
											<valuemin>0</valuemin>
											<valuemax>3,98109</valuemax>
											<value>1</value>
										</parameter>
									</effect>
								</filter>
								<filter>
									<effect>
										<name>Audio Pan</name>
										<effectid>audiopan</effectid>
										<effectcategory>audiopan</effectcategory>
										<effecttype>audiopan</effecttype>
										<mediatype>audio</mediatype>
										<parameter>
											<name>Pan</name>
											<parameterid>pan</parameterid>
											<valuemin>-1</valuemin>
											<valuemax>1</valuemax>
											<value>-1</value>
										</parameter>
									</effect>
								</filter>
								<sourcetrack>
									<mediatype>audio</mediatype>
									<trackindex>1</trackindex>
								</sourcetrack>
								<link>
									<linkclipref>ArmA 3 2020.11.14 - 01.54.33.119.mp4805307718</linkclipref>
								</link>
								<link>
									<linkclipref>ArmA 3 2020.11.14 - 01.54.33.119.mp4536872263</linkclipref>
								</link>
								<link>
									<linkclipref>ArmA 3 2020.11.14 - 01.54.33.119.mp45368722631</linkclipref>
								</link>
								<link>
									<linkclipref>ArmA 3 2020.11.14 - 01.54.33.119.mp4536872264</linkclipref>
								</link>
								<link>
									<linkclipref>ArmA 3 2020.11.14 - 01.54.33.119.mp45368722641</linkclipref>
								</link>
							</clipitem>
							<clipitem id="ArmA 3 2020.11.14 - 01.56.32.120.mp4536872266">
								<name>ArmA 3 2020.11.14 - 01.56.32.120.mp4</name>
								<duration>1087</duration>
								<rate>
									<ntsc>TRUE</ntsc>
									<timebase>24</timebase>
								</rate>
								<in>0</in>
								<out>1087</out>
								<start>34473</start>
								<end>35560</end>
								<masterclipid>ArmA 3 2020.11.14 - 01.56.32.120.mp4</masterclipid>
								<logginginfo>
									<scene />
									<shottake />
									<lognote />
									<good>FALSE</good>
								</logginginfo>
								<labels>
									<label2 />
								</labels>
								<comments>
									<mastercomment1 />
									<mastercomment2 />
									<mastercomment3 />
									<mastercomment4 />
								</comments>
								<file id="ArmA 3 2020.11.14 - 01.56.32.120" />
								<filter>
									<effect>
										<name>Audio Levels</name>
										<effectid>audiolevels</effectid>
										<effectcategory>audiolevels</effectcategory>
										<effecttype>audiolevels</effecttype>
										<mediatype>audio</mediatype>
										<parameter>
											<name>Level</name>
											<parameterid>level</parameterid>
											<valuemin>0</valuemin>
											<valuemax>3,98109</valuemax>
											<value>1</value>
										</parameter>
									</effect>
								</filter>
								<filter>
									<effect>
										<name>Audio Pan</name>
										<effectid>audiopan</effectid>
										<effectcategory>audiopan</effectcategory>
										<effecttype>audiopan</effecttype>
										<mediatype>audio</mediatype>
										<parameter>
											<name>Pan</name>
											<parameterid>pan</parameterid>
											<valuemin>-1</valuemin>
											<valuemax>1</valuemax>
											<value>-1</value>
										</parameter>
									</effect>
								</filter>
								<sourcetrack>
									<mediatype>audio</mediatype>
									<trackindex>1</trackindex>
								</sourcetrack>
								<link>
									<linkclipref>ArmA 3 2020.11.14 - 01.56.32.120.mp4805307721</linkclipref>
								</link>
								<link>
									<linkclipref>ArmA 3 2020.11.14 - 01.56.32.120.mp4536872266</linkclipref>
								</link>
								<link>
									<linkclipref>ArmA 3 2020.11.14 - 01.56.32.120.mp45368722661</linkclipref>
								</link>
								<link>
									<linkclipref>ArmA 3 2020.11.14 - 01.56.32.120.mp4536872267</linkclipref>
								</link>
								<link>
									<linkclipref>ArmA 3 2020.11.14 - 01.56.32.120.mp45368722671</linkclipref>
								</link>
							</clipitem>
							<clipitem id="ArmA 3 2020.11.14 - 01.57.19.121.mp4536872269">
								<name>ArmA 3 2020.11.14 - 01.57.19.121.mp4</name>
								<duration>263</duration>
								<rate>
									<ntsc>TRUE</ntsc>
									<timebase>24</timebase>
								</rate>
								<in>0</in>
								<out>263</out>
								<start>35561</start>
								<end>35824</end>
								<masterclipid>ArmA 3 2020.11.14 - 01.57.19.121.mp4</masterclipid>
								<logginginfo>
									<scene />
									<shottake />
									<lognote />
									<good>FALSE</good>
								</logginginfo>
								<labels>
									<label2 />
								</labels>
								<comments>
									<mastercomment1 />
									<mastercomment2 />
									<mastercomment3 />
									<mastercomment4 />
								</comments>
								<file id="ArmA 3 2020.11.14 - 01.57.19.121" />
								<filter>
									<effect>
										<name>Audio Levels</name>
										<effectid>audiolevels</effectid>
										<effectcategory>audiolevels</effectcategory>
										<effecttype>audiolevels</effecttype>
										<mediatype>audio</mediatype>
										<parameter>
											<name>Level</name>
											<parameterid>level</parameterid>
											<valuemin>0</valuemin>
											<valuemax>3,98109</valuemax>
											<value>1</value>
										</parameter>
									</effect>
								</filter>
								<filter>
									<effect>
										<name>Audio Pan</name>
										<effectid>audiopan</effectid>
										<effectcategory>audiopan</effectcategory>
										<effecttype>audiopan</effecttype>
										<mediatype>audio</mediatype>
										<parameter>
											<name>Pan</name>
											<parameterid>pan</parameterid>
											<valuemin>-1</valuemin>
											<valuemax>1</valuemax>
											<value>-1</value>
										</parameter>
									</effect>
								</filter>
								<sourcetrack>
									<mediatype>audio</mediatype>
									<trackindex>1</trackindex>
								</sourcetrack>
								<link>
									<linkclipref>ArmA 3 2020.11.14 - 01.57.19.121.mp4805307724</linkclipref>
								</link>
								<link>
									<linkclipref>ArmA 3 2020.11.14 - 01.57.19.121.mp4536872269</linkclipref>
								</link>
								<link>
									<linkclipref>ArmA 3 2020.11.14 - 01.57.19.121.mp45368722691</linkclipref>
								</link>
								<link>
									<linkclipref>ArmA 3 2020.11.14 - 01.57.19.121.mp4536872270</linkclipref>
								</link>
								<link>
									<linkclipref>ArmA 3 2020.11.14 - 01.57.19.121.mp45368722701</linkclipref>
								</link>
							</clipitem>
							<clipitem id="ArmA 3 2020.11.14 - 01.58.13.122.mp4536872272">
								<name>ArmA 3 2020.11.14 - 01.58.13.122.mp4</name>
								<duration>562</duration>
								<rate>
									<ntsc>TRUE</ntsc>
									<timebase>24</timebase>
								</rate>
								<in>0</in>
								<out>562</out>
								<start>35825</start>
								<end>36387</end>
								<masterclipid>ArmA 3 2020.11.14 - 01.58.13.122.mp4</masterclipid>
								<logginginfo>
									<scene />
									<shottake />
									<lognote />
									<good>FALSE</good>
								</logginginfo>
								<labels>
									<label2 />
								</labels>
								<comments>
									<mastercomment1 />
									<mastercomment2 />
									<mastercomment3 />
									<mastercomment4 />
								</comments>
								<file id="ArmA 3 2020.11.14 - 01.58.13.122" />
								<filter>
									<effect>
										<name>Audio Levels</name>
										<effectid>audiolevels</effectid>
										<effectcategory>audiolevels</effectcategory>
										<effecttype>audiolevels</effecttype>
										<mediatype>audio</mediatype>
										<parameter>
											<name>Level</name>
											<parameterid>level</parameterid>
											<valuemin>0</valuemin>
											<valuemax>3,98109</valuemax>
											<value>1</value>
										</parameter>
									</effect>
								</filter>
								<filter>
									<effect>
										<name>Audio Pan</name>
										<effectid>audiopan</effectid>
										<effectcategory>audiopan</effectcategory>
										<effecttype>audiopan</effecttype>
										<mediatype>audio</mediatype>
										<parameter>
											<name>Pan</name>
											<parameterid>pan</parameterid>
											<valuemin>-1</valuemin>
											<valuemax>1</valuemax>
											<value>-1</value>
										</parameter>
									</effect>
								</filter>
								<sourcetrack>
									<mediatype>audio</mediatype>
									<trackindex>1</trackindex>
								</sourcetrack>
								<link>
									<linkclipref>ArmA 3 2020.11.14 - 01.58.13.122.mp4805307727</linkclipref>
								</link>
								<link>
									<linkclipref>ArmA 3 2020.11.14 - 01.58.13.122.mp4536872272</linkclipref>
								</link>
								<link>
									<linkclipref>ArmA 3 2020.11.14 - 01.58.13.122.mp45368722721</linkclipref>
								</link>
								<link>
									<linkclipref>ArmA 3 2020.11.14 - 01.58.13.122.mp4536872273</linkclipref>
								</link>
								<link>
									<linkclipref>ArmA 3 2020.11.14 - 01.58.13.122.mp45368722731</linkclipref>
								</link>
							</clipitem>
						</track>
						<track>
							<clipitem id="ArmA 3 2020.11.14 - 00.58.28.78.mp45368721371">
								<name>ArmA 3 2020.11.14 - 00.58.28.78.mp4</name>
								<duration>529</duration>
								<rate>
									<ntsc>TRUE</ntsc>
									<timebase>24</timebase>
								</rate>
								<in>0</in>
								<out>529</out>
								<start>0</start>
								<end>529</end>
								<masterclipid>ArmA 3 2020.11.14 - 00.58.28.78.mp4</masterclipid>
								<logginginfo>
									<scene />
									<shottake />
									<lognote />
									<good>FALSE</good>
								</logginginfo>
								<labels>
									<label2 />
								</labels>
								<comments>
									<mastercomment1 />
									<mastercomment2 />
									<mastercomment3 />
									<mastercomment4 />
								</comments>
								<file id="ArmA 3 2020.11.14 - 00.58.28.78" />
								<filter>
									<effect>
										<name>Audio Levels</name>
										<effectid>audiolevels</effectid>
										<effectcategory>audiolevels</effectcategory>
										<effecttype>audiolevels</effecttype>
										<mediatype>audio</mediatype>
										<parameter>
											<name>Level</name>
											<parameterid>level</parameterid>
											<valuemin>0</valuemin>
											<valuemax>3,98109</valuemax>
											<value>1</value>
										</parameter>
									</effect>
								</filter>
								<filter>
									<effect>
										<name>Audio Pan</name>
										<effectid>audiopan</effectid>
										<effectcategory>audiopan</effectcategory>
										<effecttype>audiopan</effecttype>
										<mediatype>audio</mediatype>
										<parameter>
											<name>Pan</name>
											<parameterid>pan</parameterid>
											<valuemin>-1</valuemin>
											<valuemax>1</valuemax>
											<value>1</value>
										</parameter>
									</effect>
								</filter>
								<sourcetrack>
									<mediatype>audio</mediatype>
									<trackindex>2</trackindex>
								</sourcetrack>
								<link>
									<linkclipref>ArmA 3 2020.11.14 - 00.58.28.78.mp4805307592</linkclipref>
								</link>
								<link>
									<linkclipref>ArmA 3 2020.11.14 - 00.58.28.78.mp4536872137</linkclipref>
								</link>
								<link>
									<linkclipref>ArmA 3 2020.11.14 - 00.58.28.78.mp45368721371</linkclipref>
								</link>
								<link>
									<linkclipref>ArmA 3 2020.11.14 - 00.58.28.78.mp4536872138</linkclipref>
								</link>
								<link>
									<linkclipref>ArmA 3 2020.11.14 - 00.58.28.78.mp45368721381</linkclipref>
								</link>
							</clipitem>
							<clipitem id="ArmA 3 2020.11.14 - 00.59.31.79.mp45368721401">
								<name>ArmA 3 2020.11.14 - 00.59.31.79.mp4</name>
								<duration>605</duration>
								<rate>
									<ntsc>TRUE</ntsc>
									<timebase>24</timebase>
								</rate>
								<in>0</in>
								<out>605</out>
								<start>530</start>
								<end>1135</end>
								<masterclipid>ArmA 3 2020.11.14 - 00.59.31.79.mp4</masterclipid>
								<logginginfo>
									<scene />
									<shottake />
									<lognote />
									<good>FALSE</good>
								</logginginfo>
								<labels>
									<label2 />
								</labels>
								<comments>
									<mastercomment1 />
									<mastercomment2 />
									<mastercomment3 />
									<mastercomment4 />
								</comments>
								<file id="ArmA 3 2020.11.14 - 00.59.31.79" />
								<filter>
									<effect>
										<name>Audio Levels</name>
										<effectid>audiolevels</effectid>
										<effectcategory>audiolevels</effectcategory>
										<effecttype>audiolevels</effecttype>
										<mediatype>audio</mediatype>
										<parameter>
											<name>Level</name>
											<parameterid>level</parameterid>
											<valuemin>0</valuemin>
											<valuemax>3,98109</valuemax>
											<value>1</value>
										</parameter>
									</effect>
								</filter>
								<filter>
									<effect>
										<name>Audio Pan</name>
										<effectid>audiopan</effectid>
										<effectcategory>audiopan</effectcategory>
										<effecttype>audiopan</effecttype>
										<mediatype>audio</mediatype>
										<parameter>
											<name>Pan</name>
											<parameterid>pan</parameterid>
											<valuemin>-1</valuemin>
											<valuemax>1</valuemax>
											<value>1</value>
										</parameter>
									</effect>
								</filter>
								<sourcetrack>
									<mediatype>audio</mediatype>
									<trackindex>2</trackindex>
								</sourcetrack>
								<link>
									<linkclipref>ArmA 3 2020.11.14 - 00.59.31.79.mp4805307595</linkclipref>
								</link>
								<link>
									<linkclipref>ArmA 3 2020.11.14 - 00.59.31.79.mp4536872140</linkclipref>
								</link>
								<link>
									<linkclipref>ArmA 3 2020.11.14 - 00.59.31.79.mp45368721401</linkclipref>
								</link>
								<link>
									<linkclipref>ArmA 3 2020.11.14 - 00.59.31.79.mp4536872141</linkclipref>
								</link>
								<link>
									<linkclipref>ArmA 3 2020.11.14 - 00.59.31.79.mp45368721411</linkclipref>
								</link>
							</clipitem>
							<clipitem id="ArmA 3 2020.11.14 - 01.00.07.80.mp45368721431">
								<name>ArmA 3 2020.11.14 - 01.00.07.80.mp4</name>
								<duration>666</duration>
								<rate>
									<ntsc>TRUE</ntsc>
									<timebase>24</timebase>
								</rate>
								<in>0</in>
								<out>666</out>
								<start>1136</start>
								<end>1802</end>
								<masterclipid>ArmA 3 2020.11.14 - 01.00.07.80.mp4</masterclipid>
								<logginginfo>
									<scene />
									<shottake />
									<lognote />
									<good>FALSE</good>
								</logginginfo>
								<labels>
									<label2 />
								</labels>
								<comments>
									<mastercomment1 />
									<mastercomment2 />
									<mastercomment3 />
									<mastercomment4 />
								</comments>
								<file id="ArmA 3 2020.11.14 - 01.00.07.80" />
								<filter>
									<effect>
										<name>Audio Levels</name>
										<effectid>audiolevels</effectid>
										<effectcategory>audiolevels</effectcategory>
										<effecttype>audiolevels</effecttype>
										<mediatype>audio</mediatype>
										<parameter>
											<name>Level</name>
											<parameterid>level</parameterid>
											<valuemin>0</valuemin>
											<valuemax>3,98109</valuemax>
											<value>1</value>
										</parameter>
									</effect>
								</filter>
								<filter>
									<effect>
										<name>Audio Pan</name>
										<effectid>audiopan</effectid>
										<effectcategory>audiopan</effectcategory>
										<effecttype>audiopan</effecttype>
										<mediatype>audio</mediatype>
										<parameter>
											<name>Pan</name>
											<parameterid>pan</parameterid>
											<valuemin>-1</valuemin>
											<valuemax>1</valuemax>
											<value>1</value>
										</parameter>
									</effect>
								</filter>
								<sourcetrack>
									<mediatype>audio</mediatype>
									<trackindex>2</trackindex>
								</sourcetrack>
								<link>
									<linkclipref>ArmA 3 2020.11.14 - 01.00.07.80.mp4805307598</linkclipref>
								</link>
								<link>
									<linkclipref>ArmA 3 2020.11.14 - 01.00.07.80.mp4536872143</linkclipref>
								</link>
								<link>
									<linkclipref>ArmA 3 2020.11.14 - 01.00.07.80.mp45368721431</linkclipref>
								</link>
								<link>
									<linkclipref>ArmA 3 2020.11.14 - 01.00.07.80.mp4536872144</linkclipref>
								</link>
								<link>
									<linkclipref>ArmA 3 2020.11.14 - 01.00.07.80.mp45368721441</linkclipref>
								</link>
							</clipitem>
							<clipitem id="ArmA 3 2020.11.14 - 01.01.23.81.mp45368721461">
								<name>ArmA 3 2020.11.14 - 01.01.23.81.mp4</name>
								<duration>1004</duration>
								<rate>
									<ntsc>TRUE</ntsc>
									<timebase>24</timebase>
								</rate>
								<in>0</in>
								<out>1004</out>
								<start>1803</start>
								<end>2807</end>
								<masterclipid>ArmA 3 2020.11.14 - 01.01.23.81.mp4</masterclipid>
								<logginginfo>
									<scene />
									<shottake />
									<lognote />
									<good>FALSE</good>
								</logginginfo>
								<labels>
									<label2 />
								</labels>
								<comments>
									<mastercomment1 />
									<mastercomment2 />
									<mastercomment3 />
									<mastercomment4 />
								</comments>
								<file id="ArmA 3 2020.11.14 - 01.01.23.81" />
								<filter>
									<effect>
										<name>Audio Levels</name>
										<effectid>audiolevels</effectid>
										<effectcategory>audiolevels</effectcategory>
										<effecttype>audiolevels</effecttype>
										<mediatype>audio</mediatype>
										<parameter>
											<name>Level</name>
											<parameterid>level</parameterid>
											<valuemin>0</valuemin>
											<valuemax>3,98109</valuemax>
											<value>1</value>
										</parameter>
									</effect>
								</filter>
								<filter>
									<effect>
										<name>Audio Pan</name>
										<effectid>audiopan</effectid>
										<effectcategory>audiopan</effectcategory>
										<effecttype>audiopan</effecttype>
										<mediatype>audio</mediatype>
										<parameter>
											<name>Pan</name>
											<parameterid>pan</parameterid>
											<valuemin>-1</valuemin>
											<valuemax>1</valuemax>
											<value>1</value>
										</parameter>
									</effect>
								</filter>
								<sourcetrack>
									<mediatype>audio</mediatype>
									<trackindex>2</trackindex>
								</sourcetrack>
								<link>
									<linkclipref>ArmA 3 2020.11.14 - 01.01.23.81.mp4805307601</linkclipref>
								</link>
								<link>
									<linkclipref>ArmA 3 2020.11.14 - 01.01.23.81.mp4536872146</linkclipref>
								</link>
								<link>
									<linkclipref>ArmA 3 2020.11.14 - 01.01.23.81.mp45368721461</linkclipref>
								</link>
								<link>
									<linkclipref>ArmA 3 2020.11.14 - 01.01.23.81.mp4536872147</linkclipref>
								</link>
								<link>
									<linkclipref>ArmA 3 2020.11.14 - 01.01.23.81.mp45368721471</linkclipref>
								</link>
							</clipitem>
							<clipitem id="ArmA 3 2020.11.14 - 01.02.36.82.mp45368721491">
								<name>ArmA 3 2020.11.14 - 01.02.36.82.mp4</name>
								<duration>447</duration>
								<rate>
									<ntsc>TRUE</ntsc>
									<timebase>24</timebase>
								</rate>
								<in>0</in>
								<out>447</out>
								<start>2808</start>
								<end>3255</end>
								<masterclipid>ArmA 3 2020.11.14 - 01.02.36.82.mp4</masterclipid>
								<logginginfo>
									<scene />
									<shottake />
									<lognote />
									<good>FALSE</good>
								</logginginfo>
								<labels>
									<label2 />
								</labels>
								<comments>
									<mastercomment1 />
									<mastercomment2 />
									<mastercomment3 />
									<mastercomment4 />
								</comments>
								<file id="ArmA 3 2020.11.14 - 01.02.36.82" />
								<filter>
									<effect>
										<name>Audio Levels</name>
										<effectid>audiolevels</effectid>
										<effectcategory>audiolevels</effectcategory>
										<effecttype>audiolevels</effecttype>
										<mediatype>audio</mediatype>
										<parameter>
											<name>Level</name>
											<parameterid>level</parameterid>
											<valuemin>0</valuemin>
											<valuemax>3,98109</valuemax>
											<value>1</value>
										</parameter>
									</effect>
								</filter>
								<filter>
									<effect>
										<name>Audio Pan</name>
										<effectid>audiopan</effectid>
										<effectcategory>audiopan</effectcategory>
										<effecttype>audiopan</effecttype>
										<mediatype>audio</mediatype>
										<parameter>
											<name>Pan</name>
											<parameterid>pan</parameterid>
											<valuemin>-1</valuemin>
											<valuemax>1</valuemax>
											<value>1</value>
										</parameter>
									</effect>
								</filter>
								<sourcetrack>
									<mediatype>audio</mediatype>
									<trackindex>2</trackindex>
								</sourcetrack>
								<link>
									<linkclipref>ArmA 3 2020.11.14 - 01.02.36.82.mp4805307604</linkclipref>
								</link>
								<link>
									<linkclipref>ArmA 3 2020.11.14 - 01.02.36.82.mp4536872149</linkclipref>
								</link>
								<link>
									<linkclipref>ArmA 3 2020.11.14 - 01.02.36.82.mp45368721491</linkclipref>
								</link>
								<link>
									<linkclipref>ArmA 3 2020.11.14 - 01.02.36.82.mp4536872150</linkclipref>
								</link>
								<link>
									<linkclipref>ArmA 3 2020.11.14 - 01.02.36.82.mp45368721501</linkclipref>
								</link>
							</clipitem>
							<clipitem id="ArmA 3 2020.11.14 - 01.03.14.83.mp45368721521">
								<name>ArmA 3 2020.11.14 - 01.03.14.83.mp4</name>
								<duration>404</duration>
								<rate>
									<ntsc>TRUE</ntsc>
									<timebase>24</timebase>
								</rate>
								<in>0</in>
								<out>404</out>
								<start>3256</start>
								<end>3660</end>
								<masterclipid>ArmA 3 2020.11.14 - 01.03.14.83.mp4</masterclipid>
								<logginginfo>
									<scene />
									<shottake />
									<lognote />
									<good>FALSE</good>
								</logginginfo>
								<labels>
									<label2 />
								</labels>
								<comments>
									<mastercomment1 />
									<mastercomment2 />
									<mastercomment3 />
									<mastercomment4 />
								</comments>
								<file id="ArmA 3 2020.11.14 - 01.03.14.83" />
								<filter>
									<effect>
										<name>Audio Levels</name>
										<effectid>audiolevels</effectid>
										<effectcategory>audiolevels</effectcategory>
										<effecttype>audiolevels</effecttype>
										<mediatype>audio</mediatype>
										<parameter>
											<name>Level</name>
											<parameterid>level</parameterid>
											<valuemin>0</valuemin>
											<valuemax>3,98109</valuemax>
											<value>1</value>
										</parameter>
									</effect>
								</filter>
								<filter>
									<effect>
										<name>Audio Pan</name>
										<effectid>audiopan</effectid>
										<effectcategory>audiopan</effectcategory>
										<effecttype>audiopan</effecttype>
										<mediatype>audio</mediatype>
										<parameter>
											<name>Pan</name>
											<parameterid>pan</parameterid>
											<valuemin>-1</valuemin>
											<valuemax>1</valuemax>
											<value>1</value>
										</parameter>
									</effect>
								</filter>
								<sourcetrack>
									<mediatype>audio</mediatype>
									<trackindex>2</trackindex>
								</sourcetrack>
								<link>
									<linkclipref>ArmA 3 2020.11.14 - 01.03.14.83.mp4805307607</linkclipref>
								</link>
								<link>
									<linkclipref>ArmA 3 2020.11.14 - 01.03.14.83.mp4536872152</linkclipref>
								</link>
								<link>
									<linkclipref>ArmA 3 2020.11.14 - 01.03.14.83.mp45368721521</linkclipref>
								</link>
								<link>
									<linkclipref>ArmA 3 2020.11.14 - 01.03.14.83.mp4536872153</linkclipref>
								</link>
								<link>
									<linkclipref>ArmA 3 2020.11.14 - 01.03.14.83.mp45368721531</linkclipref>
								</link>
							</clipitem>
							<clipitem id="ArmA 3 2020.11.14 - 01.03.51.84.mp45368721551">
								<name>ArmA 3 2020.11.14 - 01.03.51.84.mp4</name>
								<duration>421</duration>
								<rate>
									<ntsc>TRUE</ntsc>
									<timebase>24</timebase>
								</rate>
								<in>0</in>
								<out>421</out>
								<start>3661</start>
								<end>4082</end>
								<masterclipid>ArmA 3 2020.11.14 - 01.03.51.84.mp4</masterclipid>
								<logginginfo>
									<scene />
									<shottake />
									<lognote />
									<good>FALSE</good>
								</logginginfo>
								<labels>
									<label2 />
								</labels>
								<comments>
									<mastercomment1 />
									<mastercomment2 />
									<mastercomment3 />
									<mastercomment4 />
								</comments>
								<file id="ArmA 3 2020.11.14 - 01.03.51.84" />
								<filter>
									<effect>
										<name>Audio Levels</name>
										<effectid>audiolevels</effectid>
										<effectcategory>audiolevels</effectcategory>
										<effecttype>audiolevels</effecttype>
										<mediatype>audio</mediatype>
										<parameter>
											<name>Level</name>
											<parameterid>level</parameterid>
											<valuemin>0</valuemin>
											<valuemax>3,98109</valuemax>
											<value>1</value>
										</parameter>
									</effect>
								</filter>
								<filter>
									<effect>
										<name>Audio Pan</name>
										<effectid>audiopan</effectid>
										<effectcategory>audiopan</effectcategory>
										<effecttype>audiopan</effecttype>
										<mediatype>audio</mediatype>
										<parameter>
											<name>Pan</name>
											<parameterid>pan</parameterid>
											<valuemin>-1</valuemin>
											<valuemax>1</valuemax>
											<value>1</value>
										</parameter>
									</effect>
								</filter>
								<sourcetrack>
									<mediatype>audio</mediatype>
									<trackindex>2</trackindex>
								</sourcetrack>
								<link>
									<linkclipref>ArmA 3 2020.11.14 - 01.03.51.84.mp4805307610</linkclipref>
								</link>
								<link>
									<linkclipref>ArmA 3 2020.11.14 - 01.03.51.84.mp4536872155</linkclipref>
								</link>
								<link>
									<linkclipref>ArmA 3 2020.11.14 - 01.03.51.84.mp45368721551</linkclipref>
								</link>
								<link>
									<linkclipref>ArmA 3 2020.11.14 - 01.03.51.84.mp4536872156</linkclipref>
								</link>
								<link>
									<linkclipref>ArmA 3 2020.11.14 - 01.03.51.84.mp45368721561</linkclipref>
								</link>
							</clipitem>
							<clipitem id="ArmA 3 2020.11.14 - 01.04.31.85.mp45368721581">
								<name>ArmA 3 2020.11.14 - 01.04.31.85.mp4</name>
								<duration>1222</duration>
								<rate>
									<ntsc>TRUE</ntsc>
									<timebase>24</timebase>
								</rate>
								<in>0</in>
								<out>1222</out>
								<start>4083</start>
								<end>5305</end>
								<masterclipid>ArmA 3 2020.11.14 - 01.04.31.85.mp4</masterclipid>
								<logginginfo>
									<scene />
									<shottake />
									<lognote />
									<good>FALSE</good>
								</logginginfo>
								<labels>
									<label2 />
								</labels>
								<comments>
									<mastercomment1 />
									<mastercomment2 />
									<mastercomment3 />
									<mastercomment4 />
								</comments>
								<file id="ArmA 3 2020.11.14 - 01.04.31.85" />
								<filter>
									<effect>
										<name>Audio Levels</name>
										<effectid>audiolevels</effectid>
										<effectcategory>audiolevels</effectcategory>
										<effecttype>audiolevels</effecttype>
										<mediatype>audio</mediatype>
										<parameter>
											<name>Level</name>
											<parameterid>level</parameterid>
											<valuemin>0</valuemin>
											<valuemax>3,98109</valuemax>
											<value>1</value>
										</parameter>
									</effect>
								</filter>
								<filter>
									<effect>
										<name>Audio Pan</name>
										<effectid>audiopan</effectid>
										<effectcategory>audiopan</effectcategory>
										<effecttype>audiopan</effecttype>
										<mediatype>audio</mediatype>
										<parameter>
											<name>Pan</name>
											<parameterid>pan</parameterid>
											<valuemin>-1</valuemin>
											<valuemax>1</valuemax>
											<value>1</value>
										</parameter>
									</effect>
								</filter>
								<sourcetrack>
									<mediatype>audio</mediatype>
									<trackindex>2</trackindex>
								</sourcetrack>
								<link>
									<linkclipref>ArmA 3 2020.11.14 - 01.04.31.85.mp4805307613</linkclipref>
								</link>
								<link>
									<linkclipref>ArmA 3 2020.11.14 - 01.04.31.85.mp4536872158</linkclipref>
								</link>
								<link>
									<linkclipref>ArmA 3 2020.11.14 - 01.04.31.85.mp45368721581</linkclipref>
								</link>
								<link>
									<linkclipref>ArmA 3 2020.11.14 - 01.04.31.85.mp4536872159</linkclipref>
								</link>
								<link>
									<linkclipref>ArmA 3 2020.11.14 - 01.04.31.85.mp45368721591</linkclipref>
								</link>
							</clipitem>
							<clipitem id="ArmA 3 2020.11.14 - 01.05.31.86.mp45368721611">
								<name>ArmA 3 2020.11.14 - 01.05.31.86.mp4</name>
								<duration>122</duration>
								<rate>
									<ntsc>TRUE</ntsc>
									<timebase>24</timebase>
								</rate>
								<in>0</in>
								<out>122</out>
								<start>5306</start>
								<end>5428</end>
								<masterclipid>ArmA 3 2020.11.14 - 01.05.31.86.mp4</masterclipid>
								<logginginfo>
									<scene />
									<shottake />
									<lognote />
									<good>FALSE</good>
								</logginginfo>
								<labels>
									<label2 />
								</labels>
								<comments>
									<mastercomment1 />
									<mastercomment2 />
									<mastercomment3 />
									<mastercomment4 />
								</comments>
								<file id="ArmA 3 2020.11.14 - 01.05.31.86" />
								<filter>
									<effect>
										<name>Audio Levels</name>
										<effectid>audiolevels</effectid>
										<effectcategory>audiolevels</effectcategory>
										<effecttype>audiolevels</effecttype>
										<mediatype>audio</mediatype>
										<parameter>
											<name>Level</name>
											<parameterid>level</parameterid>
											<valuemin>0</valuemin>
											<valuemax>3,98109</valuemax>
											<value>1</value>
										</parameter>
									</effect>
								</filter>
								<filter>
									<effect>
										<name>Audio Pan</name>
										<effectid>audiopan</effectid>
										<effectcategory>audiopan</effectcategory>
										<effecttype>audiopan</effecttype>
										<mediatype>audio</mediatype>
										<parameter>
											<name>Pan</name>
											<parameterid>pan</parameterid>
											<valuemin>-1</valuemin>
											<valuemax>1</valuemax>
											<value>1</value>
										</parameter>
									</effect>
								</filter>
								<sourcetrack>
									<mediatype>audio</mediatype>
									<trackindex>2</trackindex>
								</sourcetrack>
								<link>
									<linkclipref>ArmA 3 2020.11.14 - 01.05.31.86.mp4805307616</linkclipref>
								</link>
								<link>
									<linkclipref>ArmA 3 2020.11.14 - 01.05.31.86.mp4536872161</linkclipref>
								</link>
								<link>
									<linkclipref>ArmA 3 2020.11.14 - 01.05.31.86.mp45368721611</linkclipref>
								</link>
								<link>
									<linkclipref>ArmA 3 2020.11.14 - 01.05.31.86.mp4536872162</linkclipref>
								</link>
								<link>
									<linkclipref>ArmA 3 2020.11.14 - 01.05.31.86.mp45368721621</linkclipref>
								</link>
							</clipitem>
							<clipitem id="ArmA 3 2020.11.14 - 01.05.58.87.mp45368721641">
								<name>ArmA 3 2020.11.14 - 01.05.58.87.mp4</name>
								<duration>538</duration>
								<rate>
									<ntsc>TRUE</ntsc>
									<timebase>24</timebase>
								</rate>
								<in>0</in>
								<out>538</out>
								<start>5429</start>
								<end>5967</end>
								<masterclipid>ArmA 3 2020.11.14 - 01.05.58.87.mp4</masterclipid>
								<logginginfo>
									<scene />
									<shottake />
									<lognote />
									<good>FALSE</good>
								</logginginfo>
								<labels>
									<label2 />
								</labels>
								<comments>
									<mastercomment1 />
									<mastercomment2 />
									<mastercomment3 />
									<mastercomment4 />
								</comments>
								<file id="ArmA 3 2020.11.14 - 01.05.58.87" />
								<filter>
									<effect>
										<name>Audio Levels</name>
										<effectid>audiolevels</effectid>
										<effectcategory>audiolevels</effectcategory>
										<effecttype>audiolevels</effecttype>
										<mediatype>audio</mediatype>
										<parameter>
											<name>Level</name>
											<parameterid>level</parameterid>
											<valuemin>0</valuemin>
											<valuemax>3,98109</valuemax>
											<value>1</value>
										</parameter>
									</effect>
								</filter>
								<filter>
									<effect>
										<name>Audio Pan</name>
										<effectid>audiopan</effectid>
										<effectcategory>audiopan</effectcategory>
										<effecttype>audiopan</effecttype>
										<mediatype>audio</mediatype>
										<parameter>
											<name>Pan</name>
											<parameterid>pan</parameterid>
											<valuemin>-1</valuemin>
											<valuemax>1</valuemax>
											<value>1</value>
										</parameter>
									</effect>
								</filter>
								<sourcetrack>
									<mediatype>audio</mediatype>
									<trackindex>2</trackindex>
								</sourcetrack>
								<link>
									<linkclipref>ArmA 3 2020.11.14 - 01.05.58.87.mp4805307619</linkclipref>
								</link>
								<link>
									<linkclipref>ArmA 3 2020.11.14 - 01.05.58.87.mp4536872164</linkclipref>
								</link>
								<link>
									<linkclipref>ArmA 3 2020.11.14 - 01.05.58.87.mp45368721641</linkclipref>
								</link>
								<link>
									<linkclipref>ArmA 3 2020.11.14 - 01.05.58.87.mp4536872165</linkclipref>
								</link>
								<link>
									<linkclipref>ArmA 3 2020.11.14 - 01.05.58.87.mp45368721651</linkclipref>
								</link>
							</clipitem>
							<clipitem id="ArmA 3 2020.11.14 - 01.06.24.88.mp45368721671">
								<name>ArmA 3 2020.11.14 - 01.06.24.88.mp4</name>
								<duration>288</duration>
								<rate>
									<ntsc>TRUE</ntsc>
									<timebase>24</timebase>
								</rate>
								<in>0</in>
								<out>288</out>
								<start>5968</start>
								<end>6256</end>
								<masterclipid>ArmA 3 2020.11.14 - 01.06.24.88.mp4</masterclipid>
								<logginginfo>
									<scene />
									<shottake />
									<lognote />
									<good>FALSE</good>
								</logginginfo>
								<labels>
									<label2 />
								</labels>
								<comments>
									<mastercomment1 />
									<mastercomment2 />
									<mastercomment3 />
									<mastercomment4 />
								</comments>
								<file id="ArmA 3 2020.11.14 - 01.06.24.88" />
								<filter>
									<effect>
										<name>Audio Levels</name>
										<effectid>audiolevels</effectid>
										<effectcategory>audiolevels</effectcategory>
										<effecttype>audiolevels</effecttype>
										<mediatype>audio</mediatype>
										<parameter>
											<name>Level</name>
											<parameterid>level</parameterid>
											<valuemin>0</valuemin>
											<valuemax>3,98109</valuemax>
											<value>1</value>
										</parameter>
									</effect>
								</filter>
								<filter>
									<effect>
										<name>Audio Pan</name>
										<effectid>audiopan</effectid>
										<effectcategory>audiopan</effectcategory>
										<effecttype>audiopan</effecttype>
										<mediatype>audio</mediatype>
										<parameter>
											<name>Pan</name>
											<parameterid>pan</parameterid>
											<valuemin>-1</valuemin>
											<valuemax>1</valuemax>
											<value>1</value>
										</parameter>
									</effect>
								</filter>
								<sourcetrack>
									<mediatype>audio</mediatype>
									<trackindex>2</trackindex>
								</sourcetrack>
								<link>
									<linkclipref>ArmA 3 2020.11.14 - 01.06.24.88.mp4805307622</linkclipref>
								</link>
								<link>
									<linkclipref>ArmA 3 2020.11.14 - 01.06.24.88.mp4536872167</linkclipref>
								</link>
								<link>
									<linkclipref>ArmA 3 2020.11.14 - 01.06.24.88.mp45368721671</linkclipref>
								</link>
								<link>
									<linkclipref>ArmA 3 2020.11.14 - 01.06.24.88.mp4536872168</linkclipref>
								</link>
								<link>
									<linkclipref>ArmA 3 2020.11.14 - 01.06.24.88.mp45368721681</linkclipref>
								</link>
							</clipitem>
							<clipitem id="ArmA 3 2020.11.14 - 01.06.46.89.mp45368721701">
								<name>ArmA 3 2020.11.14 - 01.06.46.89.mp4</name>
								<duration>856</duration>
								<rate>
									<ntsc>TRUE</ntsc>
									<timebase>24</timebase>
								</rate>
								<in>0</in>
								<out>856</out>
								<start>6257</start>
								<end>7113</end>
								<masterclipid>ArmA 3 2020.11.14 - 01.06.46.89.mp4</masterclipid>
								<logginginfo>
									<scene />
									<shottake />
									<lognote />
									<good>FALSE</good>
								</logginginfo>
								<labels>
									<label2 />
								</labels>
								<comments>
									<mastercomment1 />
									<mastercomment2 />
									<mastercomment3 />
									<mastercomment4 />
								</comments>
								<file id="ArmA 3 2020.11.14 - 01.06.46.89" />
								<filter>
									<effect>
										<name>Audio Levels</name>
										<effectid>audiolevels</effectid>
										<effectcategory>audiolevels</effectcategory>
										<effecttype>audiolevels</effecttype>
										<mediatype>audio</mediatype>
										<parameter>
											<name>Level</name>
											<parameterid>level</parameterid>
											<valuemin>0</valuemin>
											<valuemax>3,98109</valuemax>
											<value>1</value>
										</parameter>
									</effect>
								</filter>
								<filter>
									<effect>
										<name>Audio Pan</name>
										<effectid>audiopan</effectid>
										<effectcategory>audiopan</effectcategory>
										<effecttype>audiopan</effecttype>
										<mediatype>audio</mediatype>
										<parameter>
											<name>Pan</name>
											<parameterid>pan</parameterid>
											<valuemin>-1</valuemin>
											<valuemax>1</valuemax>
											<value>1</value>
										</parameter>
									</effect>
								</filter>
								<sourcetrack>
									<mediatype>audio</mediatype>
									<trackindex>2</trackindex>
								</sourcetrack>
								<link>
									<linkclipref>ArmA 3 2020.11.14 - 01.06.46.89.mp4805307625</linkclipref>
								</link>
								<link>
									<linkclipref>ArmA 3 2020.11.14 - 01.06.46.89.mp4536872170</linkclipref>
								</link>
								<link>
									<linkclipref>ArmA 3 2020.11.14 - 01.06.46.89.mp45368721701</linkclipref>
								</link>
								<link>
									<linkclipref>ArmA 3 2020.11.14 - 01.06.46.89.mp4536872171</linkclipref>
								</link>
								<link>
									<linkclipref>ArmA 3 2020.11.14 - 01.06.46.89.mp45368721711</linkclipref>
								</link>
							</clipitem>
							<clipitem id="ArmA 3 2020.11.14 - 01.07.32.90.mp45368721731">
								<name>ArmA 3 2020.11.14 - 01.07.32.90.mp4</name>
								<duration>396</duration>
								<rate>
									<ntsc>TRUE</ntsc>
									<timebase>24</timebase>
								</rate>
								<in>0</in>
								<out>396</out>
								<start>7114</start>
								<end>7510</end>
								<masterclipid>ArmA 3 2020.11.14 - 01.07.32.90.mp4</masterclipid>
								<logginginfo>
									<scene />
									<shottake />
									<lognote />
									<good>FALSE</good>
								</logginginfo>
								<labels>
									<label2 />
								</labels>
								<comments>
									<mastercomment1 />
									<mastercomment2 />
									<mastercomment3 />
									<mastercomment4 />
								</comments>
								<file id="ArmA 3 2020.11.14 - 01.07.32.90" />
								<filter>
									<effect>
										<name>Audio Levels</name>
										<effectid>audiolevels</effectid>
										<effectcategory>audiolevels</effectcategory>
										<effecttype>audiolevels</effecttype>
										<mediatype>audio</mediatype>
										<parameter>
											<name>Level</name>
											<parameterid>level</parameterid>
											<valuemin>0</valuemin>
											<valuemax>3,98109</valuemax>
											<value>1</value>
										</parameter>
									</effect>
								</filter>
								<filter>
									<effect>
										<name>Audio Pan</name>
										<effectid>audiopan</effectid>
										<effectcategory>audiopan</effectcategory>
										<effecttype>audiopan</effecttype>
										<mediatype>audio</mediatype>
										<parameter>
											<name>Pan</name>
											<parameterid>pan</parameterid>
											<valuemin>-1</valuemin>
											<valuemax>1</valuemax>
											<value>1</value>
										</parameter>
									</effect>
								</filter>
								<sourcetrack>
									<mediatype>audio</mediatype>
									<trackindex>2</trackindex>
								</sourcetrack>
								<link>
									<linkclipref>ArmA 3 2020.11.14 - 01.07.32.90.mp4805307628</linkclipref>
								</link>
								<link>
									<linkclipref>ArmA 3 2020.11.14 - 01.07.32.90.mp4536872173</linkclipref>
								</link>
								<link>
									<linkclipref>ArmA 3 2020.11.14 - 01.07.32.90.mp45368721731</linkclipref>
								</link>
								<link>
									<linkclipref>ArmA 3 2020.11.14 - 01.07.32.90.mp4536872174</linkclipref>
								</link>
								<link>
									<linkclipref>ArmA 3 2020.11.14 - 01.07.32.90.mp45368721741</linkclipref>
								</link>
							</clipitem>
							<clipitem id="ArmA 3 2020.11.14 - 01.08.19.91.mp45368721761">
								<name>ArmA 3 2020.11.14 - 01.08.19.91.mp4</name>
								<duration>894</duration>
								<rate>
									<ntsc>TRUE</ntsc>
									<timebase>24</timebase>
								</rate>
								<in>0</in>
								<out>894</out>
								<start>7511</start>
								<end>8405</end>
								<masterclipid>ArmA 3 2020.11.14 - 01.08.19.91.mp4</masterclipid>
								<logginginfo>
									<scene />
									<shottake />
									<lognote />
									<good>FALSE</good>
								</logginginfo>
								<labels>
									<label2 />
								</labels>
								<comments>
									<mastercomment1 />
									<mastercomment2 />
									<mastercomment3 />
									<mastercomment4 />
								</comments>
								<file id="ArmA 3 2020.11.14 - 01.08.19.91" />
								<filter>
									<effect>
										<name>Audio Levels</name>
										<effectid>audiolevels</effectid>
										<effectcategory>audiolevels</effectcategory>
										<effecttype>audiolevels</effecttype>
										<mediatype>audio</mediatype>
										<parameter>
											<name>Level</name>
											<parameterid>level</parameterid>
											<valuemin>0</valuemin>
											<valuemax>3,98109</valuemax>
											<value>1</value>
										</parameter>
									</effect>
								</filter>
								<filter>
									<effect>
										<name>Audio Pan</name>
										<effectid>audiopan</effectid>
										<effectcategory>audiopan</effectcategory>
										<effecttype>audiopan</effecttype>
										<mediatype>audio</mediatype>
										<parameter>
											<name>Pan</name>
											<parameterid>pan</parameterid>
											<valuemin>-1</valuemin>
											<valuemax>1</valuemax>
											<value>1</value>
										</parameter>
									</effect>
								</filter>
								<sourcetrack>
									<mediatype>audio</mediatype>
									<trackindex>2</trackindex>
								</sourcetrack>
								<link>
									<linkclipref>ArmA 3 2020.11.14 - 01.08.19.91.mp4805307631</linkclipref>
								</link>
								<link>
									<linkclipref>ArmA 3 2020.11.14 - 01.08.19.91.mp4536872176</linkclipref>
								</link>
								<link>
									<linkclipref>ArmA 3 2020.11.14 - 01.08.19.91.mp45368721761</linkclipref>
								</link>
								<link>
									<linkclipref>ArmA 3 2020.11.14 - 01.08.19.91.mp4536872177</linkclipref>
								</link>
								<link>
									<linkclipref>ArmA 3 2020.11.14 - 01.08.19.91.mp45368721771</linkclipref>
								</link>
							</clipitem>
							<clipitem id="ArmA 3 2020.11.14 - 01.09.43.92.mp45368721791">
								<name>ArmA 3 2020.11.14 - 01.09.43.92.mp4</name>
								<duration>704</duration>
								<rate>
									<ntsc>TRUE</ntsc>
									<timebase>24</timebase>
								</rate>
								<in>0</in>
								<out>704</out>
								<start>8406</start>
								<end>9110</end>
								<masterclipid>ArmA 3 2020.11.14 - 01.09.43.92.mp4</masterclipid>
								<logginginfo>
									<scene />
									<shottake />
									<lognote />
									<good>FALSE</good>
								</logginginfo>
								<labels>
									<label2 />
								</labels>
								<comments>
									<mastercomment1 />
									<mastercomment2 />
									<mastercomment3 />
									<mastercomment4 />
								</comments>
								<file id="ArmA 3 2020.11.14 - 01.09.43.92" />
								<filter>
									<effect>
										<name>Audio Levels</name>
										<effectid>audiolevels</effectid>
										<effectcategory>audiolevels</effectcategory>
										<effecttype>audiolevels</effecttype>
										<mediatype>audio</mediatype>
										<parameter>
											<name>Level</name>
											<parameterid>level</parameterid>
											<valuemin>0</valuemin>
											<valuemax>3,98109</valuemax>
											<value>1</value>
										</parameter>
									</effect>
								</filter>
								<filter>
									<effect>
										<name>Audio Pan</name>
										<effectid>audiopan</effectid>
										<effectcategory>audiopan</effectcategory>
										<effecttype>audiopan</effecttype>
										<mediatype>audio</mediatype>
										<parameter>
											<name>Pan</name>
											<parameterid>pan</parameterid>
											<valuemin>-1</valuemin>
											<valuemax>1</valuemax>
											<value>1</value>
										</parameter>
									</effect>
								</filter>
								<sourcetrack>
									<mediatype>audio</mediatype>
									<trackindex>2</trackindex>
								</sourcetrack>
								<link>
									<linkclipref>ArmA 3 2020.11.14 - 01.09.43.92.mp4805307634</linkclipref>
								</link>
								<link>
									<linkclipref>ArmA 3 2020.11.14 - 01.09.43.92.mp4536872179</linkclipref>
								</link>
								<link>
									<linkclipref>ArmA 3 2020.11.14 - 01.09.43.92.mp45368721791</linkclipref>
								</link>
								<link>
									<linkclipref>ArmA 3 2020.11.14 - 01.09.43.92.mp4536872180</linkclipref>
								</link>
								<link>
									<linkclipref>ArmA 3 2020.11.14 - 01.09.43.92.mp45368721801</linkclipref>
								</link>
							</clipitem>
							<clipitem id="ArmA 3 2020.11.14 - 01.10.27.93.mp45368721821">
								<name>ArmA 3 2020.11.14 - 01.10.27.93.mp4</name>
								<duration>653</duration>
								<rate>
									<ntsc>TRUE</ntsc>
									<timebase>24</timebase>
								</rate>
								<in>0</in>
								<out>653</out>
								<start>9111</start>
								<end>9764</end>
								<masterclipid>ArmA 3 2020.11.14 - 01.10.27.93.mp4</masterclipid>
								<logginginfo>
									<scene />
									<shottake />
									<lognote />
									<good>FALSE</good>
								</logginginfo>
								<labels>
									<label2 />
								</labels>
								<comments>
									<mastercomment1 />
									<mastercomment2 />
									<mastercomment3 />
									<mastercomment4 />
								</comments>
								<file id="ArmA 3 2020.11.14 - 01.10.27.93" />
								<filter>
									<effect>
										<name>Audio Levels</name>
										<effectid>audiolevels</effectid>
										<effectcategory>audiolevels</effectcategory>
										<effecttype>audiolevels</effecttype>
										<mediatype>audio</mediatype>
										<parameter>
											<name>Level</name>
											<parameterid>level</parameterid>
											<valuemin>0</valuemin>
											<valuemax>3,98109</valuemax>
											<value>1</value>
										</parameter>
									</effect>
								</filter>
								<filter>
									<effect>
										<name>Audio Pan</name>
										<effectid>audiopan</effectid>
										<effectcategory>audiopan</effectcategory>
										<effecttype>audiopan</effecttype>
										<mediatype>audio</mediatype>
										<parameter>
											<name>Pan</name>
											<parameterid>pan</parameterid>
											<valuemin>-1</valuemin>
											<valuemax>1</valuemax>
											<value>1</value>
										</parameter>
									</effect>
								</filter>
								<sourcetrack>
									<mediatype>audio</mediatype>
									<trackindex>2</trackindex>
								</sourcetrack>
								<link>
									<linkclipref>ArmA 3 2020.11.14 - 01.10.27.93.mp4805307637</linkclipref>
								</link>
								<link>
									<linkclipref>ArmA 3 2020.11.14 - 01.10.27.93.mp4536872182</linkclipref>
								</link>
								<link>
									<linkclipref>ArmA 3 2020.11.14 - 01.10.27.93.mp45368721821</linkclipref>
								</link>
								<link>
									<linkclipref>ArmA 3 2020.11.14 - 01.10.27.93.mp4536872183</linkclipref>
								</link>
								<link>
									<linkclipref>ArmA 3 2020.11.14 - 01.10.27.93.mp45368721831</linkclipref>
								</link>
							</clipitem>
							<clipitem id="ArmA 3 2020.11.14 - 01.11.14.94.mp45368721851">
								<name>ArmA 3 2020.11.14 - 01.11.14.94.mp4</name>
								<duration>682</duration>
								<rate>
									<ntsc>TRUE</ntsc>
									<timebase>24</timebase>
								</rate>
								<in>0</in>
								<out>682</out>
								<start>9765</start>
								<end>10447</end>
								<masterclipid>ArmA 3 2020.11.14 - 01.11.14.94.mp4</masterclipid>
								<logginginfo>
									<scene />
									<shottake />
									<lognote />
									<good>FALSE</good>
								</logginginfo>
								<labels>
									<label2 />
								</labels>
								<comments>
									<mastercomment1 />
									<mastercomment2 />
									<mastercomment3 />
									<mastercomment4 />
								</comments>
								<file id="ArmA 3 2020.11.14 - 01.11.14.94" />
								<filter>
									<effect>
										<name>Audio Levels</name>
										<effectid>audiolevels</effectid>
										<effectcategory>audiolevels</effectcategory>
										<effecttype>audiolevels</effecttype>
										<mediatype>audio</mediatype>
										<parameter>
											<name>Level</name>
											<parameterid>level</parameterid>
											<valuemin>0</valuemin>
											<valuemax>3,98109</valuemax>
											<value>1</value>
										</parameter>
									</effect>
								</filter>
								<filter>
									<effect>
										<name>Audio Pan</name>
										<effectid>audiopan</effectid>
										<effectcategory>audiopan</effectcategory>
										<effecttype>audiopan</effecttype>
										<mediatype>audio</mediatype>
										<parameter>
											<name>Pan</name>
											<parameterid>pan</parameterid>
											<valuemin>-1</valuemin>
											<valuemax>1</valuemax>
											<value>1</value>
										</parameter>
									</effect>
								</filter>
								<sourcetrack>
									<mediatype>audio</mediatype>
									<trackindex>2</trackindex>
								</sourcetrack>
								<link>
									<linkclipref>ArmA 3 2020.11.14 - 01.11.14.94.mp4805307640</linkclipref>
								</link>
								<link>
									<linkclipref>ArmA 3 2020.11.14 - 01.11.14.94.mp4536872185</linkclipref>
								</link>
								<link>
									<linkclipref>ArmA 3 2020.11.14 - 01.11.14.94.mp45368721851</linkclipref>
								</link>
								<link>
									<linkclipref>ArmA 3 2020.11.14 - 01.11.14.94.mp4536872186</linkclipref>
								</link>
								<link>
									<linkclipref>ArmA 3 2020.11.14 - 01.11.14.94.mp45368721861</linkclipref>
								</link>
							</clipitem>
							<clipitem id="ArmA 3 2020.11.14 - 01.13.07.95.mp45368721881">
								<name>ArmA 3 2020.11.14 - 01.13.07.95.mp4</name>
								<duration>837</duration>
								<rate>
									<ntsc>TRUE</ntsc>
									<timebase>24</timebase>
								</rate>
								<in>0</in>
								<out>837</out>
								<start>10448</start>
								<end>11285</end>
								<masterclipid>ArmA 3 2020.11.14 - 01.13.07.95.mp4</masterclipid>
								<logginginfo>
									<scene />
									<shottake />
									<lognote />
									<good>FALSE</good>
								</logginginfo>
								<labels>
									<label2 />
								</labels>
								<comments>
									<mastercomment1 />
									<mastercomment2 />
									<mastercomment3 />
									<mastercomment4 />
								</comments>
								<file id="ArmA 3 2020.11.14 - 01.13.07.95" />
								<filter>
									<effect>
										<name>Audio Levels</name>
										<effectid>audiolevels</effectid>
										<effectcategory>audiolevels</effectcategory>
										<effecttype>audiolevels</effecttype>
										<mediatype>audio</mediatype>
										<parameter>
											<name>Level</name>
											<parameterid>level</parameterid>
											<valuemin>0</valuemin>
											<valuemax>3,98109</valuemax>
											<value>1</value>
										</parameter>
									</effect>
								</filter>
								<filter>
									<effect>
										<name>Audio Pan</name>
										<effectid>audiopan</effectid>
										<effectcategory>audiopan</effectcategory>
										<effecttype>audiopan</effecttype>
										<mediatype>audio</mediatype>
										<parameter>
											<name>Pan</name>
											<parameterid>pan</parameterid>
											<valuemin>-1</valuemin>
											<valuemax>1</valuemax>
											<value>1</value>
										</parameter>
									</effect>
								</filter>
								<sourcetrack>
									<mediatype>audio</mediatype>
									<trackindex>2</trackindex>
								</sourcetrack>
								<link>
									<linkclipref>ArmA 3 2020.11.14 - 01.13.07.95.mp4805307643</linkclipref>
								</link>
								<link>
									<linkclipref>ArmA 3 2020.11.14 - 01.13.07.95.mp4536872188</linkclipref>
								</link>
								<link>
									<linkclipref>ArmA 3 2020.11.14 - 01.13.07.95.mp45368721881</linkclipref>
								</link>
								<link>
									<linkclipref>ArmA 3 2020.11.14 - 01.13.07.95.mp4536872189</linkclipref>
								</link>
								<link>
									<linkclipref>ArmA 3 2020.11.14 - 01.13.07.95.mp45368721891</linkclipref>
								</link>
							</clipitem>
							<clipitem id="ArmA 3 2020.11.14 - 01.17.25.96.mp45368721911">
								<name>ArmA 3 2020.11.14 - 01.17.25.96.mp4</name>
								<duration>1040</duration>
								<rate>
									<ntsc>TRUE</ntsc>
									<timebase>24</timebase>
								</rate>
								<in>0</in>
								<out>1040</out>
								<start>11286</start>
								<end>12326</end>
								<masterclipid>ArmA 3 2020.11.14 - 01.17.25.96.mp4</masterclipid>
								<logginginfo>
									<scene />
									<shottake />
									<lognote />
									<good>FALSE</good>
								</logginginfo>
								<labels>
									<label2 />
								</labels>
								<comments>
									<mastercomment1 />
									<mastercomment2 />
									<mastercomment3 />
									<mastercomment4 />
								</comments>
								<file id="ArmA 3 2020.11.14 - 01.17.25.96" />
								<filter>
									<effect>
										<name>Audio Levels</name>
										<effectid>audiolevels</effectid>
										<effectcategory>audiolevels</effectcategory>
										<effecttype>audiolevels</effecttype>
										<mediatype>audio</mediatype>
										<parameter>
											<name>Level</name>
											<parameterid>level</parameterid>
											<valuemin>0</valuemin>
											<valuemax>3,98109</valuemax>
											<value>1</value>
										</parameter>
									</effect>
								</filter>
								<filter>
									<effect>
										<name>Audio Pan</name>
										<effectid>audiopan</effectid>
										<effectcategory>audiopan</effectcategory>
										<effecttype>audiopan</effecttype>
										<mediatype>audio</mediatype>
										<parameter>
											<name>Pan</name>
											<parameterid>pan</parameterid>
											<valuemin>-1</valuemin>
											<valuemax>1</valuemax>
											<value>1</value>
										</parameter>
									</effect>
								</filter>
								<sourcetrack>
									<mediatype>audio</mediatype>
									<trackindex>2</trackindex>
								</sourcetrack>
								<link>
									<linkclipref>ArmA 3 2020.11.14 - 01.17.25.96.mp4805307646</linkclipref>
								</link>
								<link>
									<linkclipref>ArmA 3 2020.11.14 - 01.17.25.96.mp4536872191</linkclipref>
								</link>
								<link>
									<linkclipref>ArmA 3 2020.11.14 - 01.17.25.96.mp45368721911</linkclipref>
								</link>
								<link>
									<linkclipref>ArmA 3 2020.11.14 - 01.17.25.96.mp4536872192</linkclipref>
								</link>
								<link>
									<linkclipref>ArmA 3 2020.11.14 - 01.17.25.96.mp45368721921</linkclipref>
								</link>
							</clipitem>
							<clipitem id="ArmA 3 2020.11.14 - 01.18.27.97.mp45368721941">
								<name>ArmA 3 2020.11.14 - 01.18.27.97.mp4</name>
								<duration>723</duration>
								<rate>
									<ntsc>TRUE</ntsc>
									<timebase>24</timebase>
								</rate>
								<in>0</in>
								<out>723</out>
								<start>12327</start>
								<end>13050</end>
								<masterclipid>ArmA 3 2020.11.14 - 01.18.27.97.mp4</masterclipid>
								<logginginfo>
									<scene />
									<shottake />
									<lognote />
									<good>FALSE</good>
								</logginginfo>
								<labels>
									<label2 />
								</labels>
								<comments>
									<mastercomment1 />
									<mastercomment2 />
									<mastercomment3 />
									<mastercomment4 />
								</comments>
								<file id="ArmA 3 2020.11.14 - 01.18.27.97" />
								<filter>
									<effect>
										<name>Audio Levels</name>
										<effectid>audiolevels</effectid>
										<effectcategory>audiolevels</effectcategory>
										<effecttype>audiolevels</effecttype>
										<mediatype>audio</mediatype>
										<parameter>
											<name>Level</name>
											<parameterid>level</parameterid>
											<valuemin>0</valuemin>
											<valuemax>3,98109</valuemax>
											<value>1</value>
										</parameter>
									</effect>
								</filter>
								<filter>
									<effect>
										<name>Audio Pan</name>
										<effectid>audiopan</effectid>
										<effectcategory>audiopan</effectcategory>
										<effecttype>audiopan</effecttype>
										<mediatype>audio</mediatype>
										<parameter>
											<name>Pan</name>
											<parameterid>pan</parameterid>
											<valuemin>-1</valuemin>
											<valuemax>1</valuemax>
											<value>1</value>
										</parameter>
									</effect>
								</filter>
								<sourcetrack>
									<mediatype>audio</mediatype>
									<trackindex>2</trackindex>
								</sourcetrack>
								<link>
									<linkclipref>ArmA 3 2020.11.14 - 01.18.27.97.mp4805307649</linkclipref>
								</link>
								<link>
									<linkclipref>ArmA 3 2020.11.14 - 01.18.27.97.mp4536872194</linkclipref>
								</link>
								<link>
									<linkclipref>ArmA 3 2020.11.14 - 01.18.27.97.mp45368721941</linkclipref>
								</link>
								<link>
									<linkclipref>ArmA 3 2020.11.14 - 01.18.27.97.mp4536872195</linkclipref>
								</link>
								<link>
									<linkclipref>ArmA 3 2020.11.14 - 01.18.27.97.mp45368721951</linkclipref>
								</link>
							</clipitem>
							<clipitem id="ArmA 3 2020.11.14 - 01.19.04.98.mp45368721971">
								<name>ArmA 3 2020.11.14 - 01.19.04.98.mp4</name>
								<duration>597</duration>
								<rate>
									<ntsc>TRUE</ntsc>
									<timebase>24</timebase>
								</rate>
								<in>0</in>
								<out>597</out>
								<start>13051</start>
								<end>13648</end>
								<masterclipid>ArmA 3 2020.11.14 - 01.19.04.98.mp4</masterclipid>
								<logginginfo>
									<scene />
									<shottake />
									<lognote />
									<good>FALSE</good>
								</logginginfo>
								<labels>
									<label2 />
								</labels>
								<comments>
									<mastercomment1 />
									<mastercomment2 />
									<mastercomment3 />
									<mastercomment4 />
								</comments>
								<file id="ArmA 3 2020.11.14 - 01.19.04.98" />
								<filter>
									<effect>
										<name>Audio Levels</name>
										<effectid>audiolevels</effectid>
										<effectcategory>audiolevels</effectcategory>
										<effecttype>audiolevels</effecttype>
										<mediatype>audio</mediatype>
										<parameter>
											<name>Level</name>
											<parameterid>level</parameterid>
											<valuemin>0</valuemin>
											<valuemax>3,98109</valuemax>
											<value>1</value>
										</parameter>
									</effect>
								</filter>
								<filter>
									<effect>
										<name>Audio Pan</name>
										<effectid>audiopan</effectid>
										<effectcategory>audiopan</effectcategory>
										<effecttype>audiopan</effecttype>
										<mediatype>audio</mediatype>
										<parameter>
											<name>Pan</name>
											<parameterid>pan</parameterid>
											<valuemin>-1</valuemin>
											<valuemax>1</valuemax>
											<value>1</value>
										</parameter>
									</effect>
								</filter>
								<sourcetrack>
									<mediatype>audio</mediatype>
									<trackindex>2</trackindex>
								</sourcetrack>
								<link>
									<linkclipref>ArmA 3 2020.11.14 - 01.19.04.98.mp4805307652</linkclipref>
								</link>
								<link>
									<linkclipref>ArmA 3 2020.11.14 - 01.19.04.98.mp4536872197</linkclipref>
								</link>
								<link>
									<linkclipref>ArmA 3 2020.11.14 - 01.19.04.98.mp45368721971</linkclipref>
								</link>
								<link>
									<linkclipref>ArmA 3 2020.11.14 - 01.19.04.98.mp4536872198</linkclipref>
								</link>
								<link>
									<linkclipref>ArmA 3 2020.11.14 - 01.19.04.98.mp45368721981</linkclipref>
								</link>
							</clipitem>
							<clipitem id="ArmA 3 2020.11.14 - 01.19.30.99.mp45368722001">
								<name>ArmA 3 2020.11.14 - 01.19.30.99.mp4</name>
								<duration>782</duration>
								<rate>
									<ntsc>TRUE</ntsc>
									<timebase>24</timebase>
								</rate>
								<in>0</in>
								<out>782</out>
								<start>13649</start>
								<end>14431</end>
								<masterclipid>ArmA 3 2020.11.14 - 01.19.30.99.mp4</masterclipid>
								<logginginfo>
									<scene />
									<shottake />
									<lognote />
									<good>FALSE</good>
								</logginginfo>
								<labels>
									<label2 />
								</labels>
								<comments>
									<mastercomment1 />
									<mastercomment2 />
									<mastercomment3 />
									<mastercomment4 />
								</comments>
								<file id="ArmA 3 2020.11.14 - 01.19.30.99" />
								<filter>
									<effect>
										<name>Audio Levels</name>
										<effectid>audiolevels</effectid>
										<effectcategory>audiolevels</effectcategory>
										<effecttype>audiolevels</effecttype>
										<mediatype>audio</mediatype>
										<parameter>
											<name>Level</name>
											<parameterid>level</parameterid>
											<valuemin>0</valuemin>
											<valuemax>3,98109</valuemax>
											<value>1</value>
										</parameter>
									</effect>
								</filter>
								<filter>
									<effect>
										<name>Audio Pan</name>
										<effectid>audiopan</effectid>
										<effectcategory>audiopan</effectcategory>
										<effecttype>audiopan</effecttype>
										<mediatype>audio</mediatype>
										<parameter>
											<name>Pan</name>
											<parameterid>pan</parameterid>
											<valuemin>-1</valuemin>
											<valuemax>1</valuemax>
											<value>1</value>
										</parameter>
									</effect>
								</filter>
								<sourcetrack>
									<mediatype>audio</mediatype>
									<trackindex>2</trackindex>
								</sourcetrack>
								<link>
									<linkclipref>ArmA 3 2020.11.14 - 01.19.30.99.mp4805307655</linkclipref>
								</link>
								<link>
									<linkclipref>ArmA 3 2020.11.14 - 01.19.30.99.mp4536872200</linkclipref>
								</link>
								<link>
									<linkclipref>ArmA 3 2020.11.14 - 01.19.30.99.mp45368722001</linkclipref>
								</link>
								<link>
									<linkclipref>ArmA 3 2020.11.14 - 01.19.30.99.mp4536872201</linkclipref>
								</link>
								<link>
									<linkclipref>ArmA 3 2020.11.14 - 01.19.30.99.mp45368722011</linkclipref>
								</link>
							</clipitem>
							<clipitem id="ArmA 3 2020.11.14 - 01.21.06.100.mp45368722031">
								<name>ArmA 3 2020.11.14 - 01.21.06.100.mp4</name>
								<duration>349</duration>
								<rate>
									<ntsc>TRUE</ntsc>
									<timebase>24</timebase>
								</rate>
								<in>0</in>
								<out>349</out>
								<start>14432</start>
								<end>14781</end>
								<masterclipid>ArmA 3 2020.11.14 - 01.21.06.100.mp4</masterclipid>
								<logginginfo>
									<scene />
									<shottake />
									<lognote />
									<good>FALSE</good>
								</logginginfo>
								<labels>
									<label2 />
								</labels>
								<comments>
									<mastercomment1 />
									<mastercomment2 />
									<mastercomment3 />
									<mastercomment4 />
								</comments>
								<file id="ArmA 3 2020.11.14 - 01.21.06.100" />
								<filter>
									<effect>
										<name>Audio Levels</name>
										<effectid>audiolevels</effectid>
										<effectcategory>audiolevels</effectcategory>
										<effecttype>audiolevels</effecttype>
										<mediatype>audio</mediatype>
										<parameter>
											<name>Level</name>
											<parameterid>level</parameterid>
											<valuemin>0</valuemin>
											<valuemax>3,98109</valuemax>
											<value>1</value>
										</parameter>
									</effect>
								</filter>
								<filter>
									<effect>
										<name>Audio Pan</name>
										<effectid>audiopan</effectid>
										<effectcategory>audiopan</effectcategory>
										<effecttype>audiopan</effecttype>
										<mediatype>audio</mediatype>
										<parameter>
											<name>Pan</name>
											<parameterid>pan</parameterid>
											<valuemin>-1</valuemin>
											<valuemax>1</valuemax>
											<value>1</value>
										</parameter>
									</effect>
								</filter>
								<sourcetrack>
									<mediatype>audio</mediatype>
									<trackindex>2</trackindex>
								</sourcetrack>
								<link>
									<linkclipref>ArmA 3 2020.11.14 - 01.21.06.100.mp4805307658</linkclipref>
								</link>
								<link>
									<linkclipref>ArmA 3 2020.11.14 - 01.21.06.100.mp4536872203</linkclipref>
								</link>
								<link>
									<linkclipref>ArmA 3 2020.11.14 - 01.21.06.100.mp45368722031</linkclipref>
								</link>
								<link>
									<linkclipref>ArmA 3 2020.11.14 - 01.21.06.100.mp4536872204</linkclipref>
								</link>
								<link>
									<linkclipref>ArmA 3 2020.11.14 - 01.21.06.100.mp45368722041</linkclipref>
								</link>
							</clipitem>
							<clipitem id="ArmA 3 2020.11.14 - 01.21.52.101.mp45368722061">
								<name>ArmA 3 2020.11.14 - 01.21.52.101.mp4</name>
								<duration>1025</duration>
								<rate>
									<ntsc>TRUE</ntsc>
									<timebase>24</timebase>
								</rate>
								<in>0</in>
								<out>1025</out>
								<start>14782</start>
								<end>15807</end>
								<masterclipid>ArmA 3 2020.11.14 - 01.21.52.101.mp4</masterclipid>
								<logginginfo>
									<scene />
									<shottake />
									<lognote />
									<good>FALSE</good>
								</logginginfo>
								<labels>
									<label2 />
								</labels>
								<comments>
									<mastercomment1 />
									<mastercomment2 />
									<mastercomment3 />
									<mastercomment4 />
								</comments>
								<file id="ArmA 3 2020.11.14 - 01.21.52.101" />
								<filter>
									<effect>
										<name>Audio Levels</name>
										<effectid>audiolevels</effectid>
										<effectcategory>audiolevels</effectcategory>
										<effecttype>audiolevels</effecttype>
										<mediatype>audio</mediatype>
										<parameter>
											<name>Level</name>
											<parameterid>level</parameterid>
											<valuemin>0</valuemin>
											<valuemax>3,98109</valuemax>
											<value>1</value>
										</parameter>
									</effect>
								</filter>
								<filter>
									<effect>
										<name>Audio Pan</name>
										<effectid>audiopan</effectid>
										<effectcategory>audiopan</effectcategory>
										<effecttype>audiopan</effecttype>
										<mediatype>audio</mediatype>
										<parameter>
											<name>Pan</name>
											<parameterid>pan</parameterid>
											<valuemin>-1</valuemin>
											<valuemax>1</valuemax>
											<value>1</value>
										</parameter>
									</effect>
								</filter>
								<sourcetrack>
									<mediatype>audio</mediatype>
									<trackindex>2</trackindex>
								</sourcetrack>
								<link>
									<linkclipref>ArmA 3 2020.11.14 - 01.21.52.101.mp4805307661</linkclipref>
								</link>
								<link>
									<linkclipref>ArmA 3 2020.11.14 - 01.21.52.101.mp4536872206</linkclipref>
								</link>
								<link>
									<linkclipref>ArmA 3 2020.11.14 - 01.21.52.101.mp45368722061</linkclipref>
								</link>
								<link>
									<linkclipref>ArmA 3 2020.11.14 - 01.21.52.101.mp4536872207</linkclipref>
								</link>
								<link>
									<linkclipref>ArmA 3 2020.11.14 - 01.21.52.101.mp45368722071</linkclipref>
								</link>
							</clipitem>
							<clipitem id="ArmA 3 2020.11.14 - 01.22.45.102.mp45368722091">
								<name>ArmA 3 2020.11.14 - 01.22.45.102.mp4</name>
								<duration>1159</duration>
								<rate>
									<ntsc>TRUE</ntsc>
									<timebase>24</timebase>
								</rate>
								<in>0</in>
								<out>1159</out>
								<start>15808</start>
								<end>16967</end>
								<masterclipid>ArmA 3 2020.11.14 - 01.22.45.102.mp4</masterclipid>
								<logginginfo>
									<scene />
									<shottake />
									<lognote />
									<good>FALSE</good>
								</logginginfo>
								<labels>
									<label2 />
								</labels>
								<comments>
									<mastercomment1 />
									<mastercomment2 />
									<mastercomment3 />
									<mastercomment4 />
								</comments>
								<file id="ArmA 3 2020.11.14 - 01.22.45.102" />
								<filter>
									<effect>
										<name>Audio Levels</name>
										<effectid>audiolevels</effectid>
										<effectcategory>audiolevels</effectcategory>
										<effecttype>audiolevels</effecttype>
										<mediatype>audio</mediatype>
										<parameter>
											<name>Level</name>
											<parameterid>level</parameterid>
											<valuemin>0</valuemin>
											<valuemax>3,98109</valuemax>
											<value>1</value>
										</parameter>
									</effect>
								</filter>
								<filter>
									<effect>
										<name>Audio Pan</name>
										<effectid>audiopan</effectid>
										<effectcategory>audiopan</effectcategory>
										<effecttype>audiopan</effecttype>
										<mediatype>audio</mediatype>
										<parameter>
											<name>Pan</name>
											<parameterid>pan</parameterid>
											<valuemin>-1</valuemin>
											<valuemax>1</valuemax>
											<value>1</value>
										</parameter>
									</effect>
								</filter>
								<sourcetrack>
									<mediatype>audio</mediatype>
									<trackindex>2</trackindex>
								</sourcetrack>
								<link>
									<linkclipref>ArmA 3 2020.11.14 - 01.22.45.102.mp4805307664</linkclipref>
								</link>
								<link>
									<linkclipref>ArmA 3 2020.11.14 - 01.22.45.102.mp4536872209</linkclipref>
								</link>
								<link>
									<linkclipref>ArmA 3 2020.11.14 - 01.22.45.102.mp45368722091</linkclipref>
								</link>
								<link>
									<linkclipref>ArmA 3 2020.11.14 - 01.22.45.102.mp4536872210</linkclipref>
								</link>
								<link>
									<linkclipref>ArmA 3 2020.11.14 - 01.22.45.102.mp45368722101</linkclipref>
								</link>
							</clipitem>
							<clipitem id="ArmA 3 2020.11.14 - 01.24.35.103.mp45368722121">
								<name>ArmA 3 2020.11.14 - 01.24.35.103.mp4</name>
								<duration>1749</duration>
								<rate>
									<ntsc>TRUE</ntsc>
									<timebase>24</timebase>
								</rate>
								<in>0</in>
								<out>1749</out>
								<start>16968</start>
								<end>18717</end>
								<masterclipid>ArmA 3 2020.11.14 - 01.24.35.103.mp4</masterclipid>
								<logginginfo>
									<scene />
									<shottake />
									<lognote />
									<good>FALSE</good>
								</logginginfo>
								<labels>
									<label2 />
								</labels>
								<comments>
									<mastercomment1 />
									<mastercomment2 />
									<mastercomment3 />
									<mastercomment4 />
								</comments>
								<file id="ArmA 3 2020.11.14 - 01.24.35.103" />
								<filter>
									<effect>
										<name>Audio Levels</name>
										<effectid>audiolevels</effectid>
										<effectcategory>audiolevels</effectcategory>
										<effecttype>audiolevels</effecttype>
										<mediatype>audio</mediatype>
										<parameter>
											<name>Level</name>
											<parameterid>level</parameterid>
											<valuemin>0</valuemin>
											<valuemax>3,98109</valuemax>
											<value>1</value>
										</parameter>
									</effect>
								</filter>
								<filter>
									<effect>
										<name>Audio Pan</name>
										<effectid>audiopan</effectid>
										<effectcategory>audiopan</effectcategory>
										<effecttype>audiopan</effecttype>
										<mediatype>audio</mediatype>
										<parameter>
											<name>Pan</name>
											<parameterid>pan</parameterid>
											<valuemin>-1</valuemin>
											<valuemax>1</valuemax>
											<value>1</value>
										</parameter>
									</effect>
								</filter>
								<sourcetrack>
									<mediatype>audio</mediatype>
									<trackindex>2</trackindex>
								</sourcetrack>
								<link>
									<linkclipref>ArmA 3 2020.11.14 - 01.24.35.103.mp4805307667</linkclipref>
								</link>
								<link>
									<linkclipref>ArmA 3 2020.11.14 - 01.24.35.103.mp4536872212</linkclipref>
								</link>
								<link>
									<linkclipref>ArmA 3 2020.11.14 - 01.24.35.103.mp45368722121</linkclipref>
								</link>
								<link>
									<linkclipref>ArmA 3 2020.11.14 - 01.24.35.103.mp4536872213</linkclipref>
								</link>
								<link>
									<linkclipref>ArmA 3 2020.11.14 - 01.24.35.103.mp45368722131</linkclipref>
								</link>
							</clipitem>
							<clipitem id="ArmA 3 2020.11.14 - 01.27.04.104.mp45368722151">
								<name>ArmA 3 2020.11.14 - 01.27.04.104.mp4</name>
								<duration>170</duration>
								<rate>
									<ntsc>TRUE</ntsc>
									<timebase>24</timebase>
								</rate>
								<in>0</in>
								<out>170</out>
								<start>18718</start>
								<end>18888</end>
								<masterclipid>ArmA 3 2020.11.14 - 01.27.04.104.mp4</masterclipid>
								<logginginfo>
									<scene />
									<shottake />
									<lognote />
									<good>FALSE</good>
								</logginginfo>
								<labels>
									<label2 />
								</labels>
								<comments>
									<mastercomment1 />
									<mastercomment2 />
									<mastercomment3 />
									<mastercomment4 />
								</comments>
								<file id="ArmA 3 2020.11.14 - 01.27.04.104" />
								<filter>
									<effect>
										<name>Audio Levels</name>
										<effectid>audiolevels</effectid>
										<effectcategory>audiolevels</effectcategory>
										<effecttype>audiolevels</effecttype>
										<mediatype>audio</mediatype>
										<parameter>
											<name>Level</name>
											<parameterid>level</parameterid>
											<valuemin>0</valuemin>
											<valuemax>3,98109</valuemax>
											<value>1</value>
										</parameter>
									</effect>
								</filter>
								<filter>
									<effect>
										<name>Audio Pan</name>
										<effectid>audiopan</effectid>
										<effectcategory>audiopan</effectcategory>
										<effecttype>audiopan</effecttype>
										<mediatype>audio</mediatype>
										<parameter>
											<name>Pan</name>
											<parameterid>pan</parameterid>
											<valuemin>-1</valuemin>
											<valuemax>1</valuemax>
											<value>1</value>
										</parameter>
									</effect>
								</filter>
								<sourcetrack>
									<mediatype>audio</mediatype>
									<trackindex>2</trackindex>
								</sourcetrack>
								<link>
									<linkclipref>ArmA 3 2020.11.14 - 01.27.04.104.mp4805307670</linkclipref>
								</link>
								<link>
									<linkclipref>ArmA 3 2020.11.14 - 01.27.04.104.mp4536872215</linkclipref>
								</link>
								<link>
									<linkclipref>ArmA 3 2020.11.14 - 01.27.04.104.mp45368722151</linkclipref>
								</link>
								<link>
									<linkclipref>ArmA 3 2020.11.14 - 01.27.04.104.mp4536872216</linkclipref>
								</link>
								<link>
									<linkclipref>ArmA 3 2020.11.14 - 01.27.04.104.mp45368722161</linkclipref>
								</link>
							</clipitem>
							<clipitem id="ArmA 3 2020.11.14 - 01.27.36.105.mp45368722181">
								<name>ArmA 3 2020.11.14 - 01.27.36.105.mp4</name>
								<duration>747</duration>
								<rate>
									<ntsc>TRUE</ntsc>
									<timebase>24</timebase>
								</rate>
								<in>0</in>
								<out>747</out>
								<start>18889</start>
								<end>19636</end>
								<masterclipid>ArmA 3 2020.11.14 - 01.27.36.105.mp4</masterclipid>
								<logginginfo>
									<scene />
									<shottake />
									<lognote />
									<good>FALSE</good>
								</logginginfo>
								<labels>
									<label2 />
								</labels>
								<comments>
									<mastercomment1 />
									<mastercomment2 />
									<mastercomment3 />
									<mastercomment4 />
								</comments>
								<file id="ArmA 3 2020.11.14 - 01.27.36.105" />
								<filter>
									<effect>
										<name>Audio Levels</name>
										<effectid>audiolevels</effectid>
										<effectcategory>audiolevels</effectcategory>
										<effecttype>audiolevels</effecttype>
										<mediatype>audio</mediatype>
										<parameter>
											<name>Level</name>
											<parameterid>level</parameterid>
											<valuemin>0</valuemin>
											<valuemax>3,98109</valuemax>
											<value>1</value>
										</parameter>
									</effect>
								</filter>
								<filter>
									<effect>
										<name>Audio Pan</name>
										<effectid>audiopan</effectid>
										<effectcategory>audiopan</effectcategory>
										<effecttype>audiopan</effecttype>
										<mediatype>audio</mediatype>
										<parameter>
											<name>Pan</name>
											<parameterid>pan</parameterid>
											<valuemin>-1</valuemin>
											<valuemax>1</valuemax>
											<value>1</value>
										</parameter>
									</effect>
								</filter>
								<sourcetrack>
									<mediatype>audio</mediatype>
									<trackindex>2</trackindex>
								</sourcetrack>
								<link>
									<linkclipref>ArmA 3 2020.11.14 - 01.27.36.105.mp4805307673</linkclipref>
								</link>
								<link>
									<linkclipref>ArmA 3 2020.11.14 - 01.27.36.105.mp4536872218</linkclipref>
								</link>
								<link>
									<linkclipref>ArmA 3 2020.11.14 - 01.27.36.105.mp45368722181</linkclipref>
								</link>
								<link>
									<linkclipref>ArmA 3 2020.11.14 - 01.27.36.105.mp4536872219</linkclipref>
								</link>
								<link>
									<linkclipref>ArmA 3 2020.11.14 - 01.27.36.105.mp45368722191</linkclipref>
								</link>
							</clipitem>
							<clipitem id="ArmA 3 2020.11.14 - 01.32.59.106.mp45368722211">
								<name>ArmA 3 2020.11.14 - 01.32.59.106.mp4</name>
								<duration>834</duration>
								<rate>
									<ntsc>TRUE</ntsc>
									<timebase>24</timebase>
								</rate>
								<in>0</in>
								<out>834</out>
								<start>19637</start>
								<end>20471</end>
								<masterclipid>ArmA 3 2020.11.14 - 01.32.59.106.mp4</masterclipid>
								<logginginfo>
									<scene />
									<shottake />
									<lognote />
									<good>FALSE</good>
								</logginginfo>
								<labels>
									<label2 />
								</labels>
								<comments>
									<mastercomment1 />
									<mastercomment2 />
									<mastercomment3 />
									<mastercomment4 />
								</comments>
								<file id="ArmA 3 2020.11.14 - 01.32.59.106" />
								<filter>
									<effect>
										<name>Audio Levels</name>
										<effectid>audiolevels</effectid>
										<effectcategory>audiolevels</effectcategory>
										<effecttype>audiolevels</effecttype>
										<mediatype>audio</mediatype>
										<parameter>
											<name>Level</name>
											<parameterid>level</parameterid>
											<valuemin>0</valuemin>
											<valuemax>3,98109</valuemax>
											<value>1</value>
										</parameter>
									</effect>
								</filter>
								<filter>
									<effect>
										<name>Audio Pan</name>
										<effectid>audiopan</effectid>
										<effectcategory>audiopan</effectcategory>
										<effecttype>audiopan</effecttype>
										<mediatype>audio</mediatype>
										<parameter>
											<name>Pan</name>
											<parameterid>pan</parameterid>
											<valuemin>-1</valuemin>
											<valuemax>1</valuemax>
											<value>1</value>
										</parameter>
									</effect>
								</filter>
								<sourcetrack>
									<mediatype>audio</mediatype>
									<trackindex>2</trackindex>
								</sourcetrack>
								<link>
									<linkclipref>ArmA 3 2020.11.14 - 01.32.59.106.mp4805307676</linkclipref>
								</link>
								<link>
									<linkclipref>ArmA 3 2020.11.14 - 01.32.59.106.mp4536872221</linkclipref>
								</link>
								<link>
									<linkclipref>ArmA 3 2020.11.14 - 01.32.59.106.mp45368722211</linkclipref>
								</link>
								<link>
									<linkclipref>ArmA 3 2020.11.14 - 01.32.59.106.mp4536872222</linkclipref>
								</link>
								<link>
									<linkclipref>ArmA 3 2020.11.14 - 01.32.59.106.mp45368722221</linkclipref>
								</link>
							</clipitem>
							<clipitem id="ArmA 3 2020.11.14 - 01.34.00.107.mp45368722241">
								<name>ArmA 3 2020.11.14 - 01.34.00.107.mp4</name>
								<duration>670</duration>
								<rate>
									<ntsc>TRUE</ntsc>
									<timebase>24</timebase>
								</rate>
								<in>0</in>
								<out>670</out>
								<start>20472</start>
								<end>21142</end>
								<masterclipid>ArmA 3 2020.11.14 - 01.34.00.107.mp4</masterclipid>
								<logginginfo>
									<scene />
									<shottake />
									<lognote />
									<good>FALSE</good>
								</logginginfo>
								<labels>
									<label2 />
								</labels>
								<comments>
									<mastercomment1 />
									<mastercomment2 />
									<mastercomment3 />
									<mastercomment4 />
								</comments>
								<file id="ArmA 3 2020.11.14 - 01.34.00.107" />
								<filter>
									<effect>
										<name>Audio Levels</name>
										<effectid>audiolevels</effectid>
										<effectcategory>audiolevels</effectcategory>
										<effecttype>audiolevels</effecttype>
										<mediatype>audio</mediatype>
										<parameter>
											<name>Level</name>
											<parameterid>level</parameterid>
											<valuemin>0</valuemin>
											<valuemax>3,98109</valuemax>
											<value>1</value>
										</parameter>
									</effect>
								</filter>
								<filter>
									<effect>
										<name>Audio Pan</name>
										<effectid>audiopan</effectid>
										<effectcategory>audiopan</effectcategory>
										<effecttype>audiopan</effecttype>
										<mediatype>audio</mediatype>
										<parameter>
											<name>Pan</name>
											<parameterid>pan</parameterid>
											<valuemin>-1</valuemin>
											<valuemax>1</valuemax>
											<value>1</value>
										</parameter>
									</effect>
								</filter>
								<sourcetrack>
									<mediatype>audio</mediatype>
									<trackindex>2</trackindex>
								</sourcetrack>
								<link>
									<linkclipref>ArmA 3 2020.11.14 - 01.34.00.107.mp4805307679</linkclipref>
								</link>
								<link>
									<linkclipref>ArmA 3 2020.11.14 - 01.34.00.107.mp4536872224</linkclipref>
								</link>
								<link>
									<linkclipref>ArmA 3 2020.11.14 - 01.34.00.107.mp45368722241</linkclipref>
								</link>
								<link>
									<linkclipref>ArmA 3 2020.11.14 - 01.34.00.107.mp4536872225</linkclipref>
								</link>
								<link>
									<linkclipref>ArmA 3 2020.11.14 - 01.34.00.107.mp45368722251</linkclipref>
								</link>
							</clipitem>
							<clipitem id="ArmA 3 2020.11.14 - 01.34.52.108.mp45368722271">
								<name>ArmA 3 2020.11.14 - 01.34.52.108.mp4</name>
								<duration>461</duration>
								<rate>
									<ntsc>TRUE</ntsc>
									<timebase>24</timebase>
								</rate>
								<in>0</in>
								<out>461</out>
								<start>21143</start>
								<end>21604</end>
								<masterclipid>ArmA 3 2020.11.14 - 01.34.52.108.mp4</masterclipid>
								<logginginfo>
									<scene />
									<shottake />
									<lognote />
									<good>FALSE</good>
								</logginginfo>
								<labels>
									<label2 />
								</labels>
								<comments>
									<mastercomment1 />
									<mastercomment2 />
									<mastercomment3 />
									<mastercomment4 />
								</comments>
								<file id="ArmA 3 2020.11.14 - 01.34.52.108" />
								<filter>
									<effect>
										<name>Audio Levels</name>
										<effectid>audiolevels</effectid>
										<effectcategory>audiolevels</effectcategory>
										<effecttype>audiolevels</effecttype>
										<mediatype>audio</mediatype>
										<parameter>
											<name>Level</name>
											<parameterid>level</parameterid>
											<valuemin>0</valuemin>
											<valuemax>3,98109</valuemax>
											<value>1</value>
										</parameter>
									</effect>
								</filter>
								<filter>
									<effect>
										<name>Audio Pan</name>
										<effectid>audiopan</effectid>
										<effectcategory>audiopan</effectcategory>
										<effecttype>audiopan</effecttype>
										<mediatype>audio</mediatype>
										<parameter>
											<name>Pan</name>
											<parameterid>pan</parameterid>
											<valuemin>-1</valuemin>
											<valuemax>1</valuemax>
											<value>1</value>
										</parameter>
									</effect>
								</filter>
								<sourcetrack>
									<mediatype>audio</mediatype>
									<trackindex>2</trackindex>
								</sourcetrack>
								<link>
									<linkclipref>ArmA 3 2020.11.14 - 01.34.52.108.mp4805307682</linkclipref>
								</link>
								<link>
									<linkclipref>ArmA 3 2020.11.14 - 01.34.52.108.mp4536872227</linkclipref>
								</link>
								<link>
									<linkclipref>ArmA 3 2020.11.14 - 01.34.52.108.mp45368722271</linkclipref>
								</link>
								<link>
									<linkclipref>ArmA 3 2020.11.14 - 01.34.52.108.mp4536872228</linkclipref>
								</link>
								<link>
									<linkclipref>ArmA 3 2020.11.14 - 01.34.52.108.mp45368722281</linkclipref>
								</link>
							</clipitem>
							<clipitem id="ArmA 3 2020.11.14 - 01.35.14.109.mp45368722301">
								<name>ArmA 3 2020.11.14 - 01.35.14.109.mp4</name>
								<duration>115</duration>
								<rate>
									<ntsc>TRUE</ntsc>
									<timebase>24</timebase>
								</rate>
								<in>0</in>
								<out>115</out>
								<start>21605</start>
								<end>21720</end>
								<masterclipid>ArmA 3 2020.11.14 - 01.35.14.109.mp4</masterclipid>
								<logginginfo>
									<scene />
									<shottake />
									<lognote />
									<good>FALSE</good>
								</logginginfo>
								<labels>
									<label2 />
								</labels>
								<comments>
									<mastercomment1 />
									<mastercomment2 />
									<mastercomment3 />
									<mastercomment4 />
								</comments>
								<file id="ArmA 3 2020.11.14 - 01.35.14.109" />
								<filter>
									<effect>
										<name>Audio Levels</name>
										<effectid>audiolevels</effectid>
										<effectcategory>audiolevels</effectcategory>
										<effecttype>audiolevels</effecttype>
										<mediatype>audio</mediatype>
										<parameter>
											<name>Level</name>
											<parameterid>level</parameterid>
											<valuemin>0</valuemin>
											<valuemax>3,98109</valuemax>
											<value>1</value>
										</parameter>
									</effect>
								</filter>
								<filter>
									<effect>
										<name>Audio Pan</name>
										<effectid>audiopan</effectid>
										<effectcategory>audiopan</effectcategory>
										<effecttype>audiopan</effecttype>
										<mediatype>audio</mediatype>
										<parameter>
											<name>Pan</name>
											<parameterid>pan</parameterid>
											<valuemin>-1</valuemin>
											<valuemax>1</valuemax>
											<value>1</value>
										</parameter>
									</effect>
								</filter>
								<sourcetrack>
									<mediatype>audio</mediatype>
									<trackindex>2</trackindex>
								</sourcetrack>
								<link>
									<linkclipref>ArmA 3 2020.11.14 - 01.35.14.109.mp4805307685</linkclipref>
								</link>
								<link>
									<linkclipref>ArmA 3 2020.11.14 - 01.35.14.109.mp4536872230</linkclipref>
								</link>
								<link>
									<linkclipref>ArmA 3 2020.11.14 - 01.35.14.109.mp45368722301</linkclipref>
								</link>
								<link>
									<linkclipref>ArmA 3 2020.11.14 - 01.35.14.109.mp4536872231</linkclipref>
								</link>
								<link>
									<linkclipref>ArmA 3 2020.11.14 - 01.35.14.109.mp45368722311</linkclipref>
								</link>
							</clipitem>
							<clipitem id="ArmA 3 2020.11.14 - 01.36.01.110.mp45368722331">
								<name>ArmA 3 2020.11.14 - 01.36.01.110.mp4</name>
								<duration>2427</duration>
								<rate>
									<ntsc>TRUE</ntsc>
									<timebase>24</timebase>
								</rate>
								<in>0</in>
								<out>2427</out>
								<start>21721</start>
								<end>24148</end>
								<masterclipid>ArmA 3 2020.11.14 - 01.36.01.110.mp4</masterclipid>
								<logginginfo>
									<scene />
									<shottake />
									<lognote />
									<good>FALSE</good>
								</logginginfo>
								<labels>
									<label2 />
								</labels>
								<comments>
									<mastercomment1 />
									<mastercomment2 />
									<mastercomment3 />
									<mastercomment4 />
								</comments>
								<file id="ArmA 3 2020.11.14 - 01.36.01.110" />
								<filter>
									<effect>
										<name>Audio Levels</name>
										<effectid>audiolevels</effectid>
										<effectcategory>audiolevels</effectcategory>
										<effecttype>audiolevels</effecttype>
										<mediatype>audio</mediatype>
										<parameter>
											<name>Level</name>
											<parameterid>level</parameterid>
											<valuemin>0</valuemin>
											<valuemax>3,98109</valuemax>
											<value>1</value>
										</parameter>
									</effect>
								</filter>
								<filter>
									<effect>
										<name>Audio Pan</name>
										<effectid>audiopan</effectid>
										<effectcategory>audiopan</effectcategory>
										<effecttype>audiopan</effecttype>
										<mediatype>audio</mediatype>
										<parameter>
											<name>Pan</name>
											<parameterid>pan</parameterid>
											<valuemin>-1</valuemin>
											<valuemax>1</valuemax>
											<value>1</value>
										</parameter>
									</effect>
								</filter>
								<sourcetrack>
									<mediatype>audio</mediatype>
									<trackindex>2</trackindex>
								</sourcetrack>
								<link>
									<linkclipref>ArmA 3 2020.11.14 - 01.36.01.110.mp4805307688</linkclipref>
								</link>
								<link>
									<linkclipref>ArmA 3 2020.11.14 - 01.36.01.110.mp4536872233</linkclipref>
								</link>
								<link>
									<linkclipref>ArmA 3 2020.11.14 - 01.36.01.110.mp45368722331</linkclipref>
								</link>
								<link>
									<linkclipref>ArmA 3 2020.11.14 - 01.36.01.110.mp4536872234</linkclipref>
								</link>
								<link>
									<linkclipref>ArmA 3 2020.11.14 - 01.36.01.110.mp45368722341</linkclipref>
								</link>
							</clipitem>
							<clipitem id="ArmA 3 2020.11.14 - 01.37.46.111.mp45368722361">
								<name>ArmA 3 2020.11.14 - 01.37.46.111.mp4</name>
								<duration>2189</duration>
								<rate>
									<ntsc>TRUE</ntsc>
									<timebase>24</timebase>
								</rate>
								<in>0</in>
								<out>2189</out>
								<start>24149</start>
								<end>26338</end>
								<masterclipid>ArmA 3 2020.11.14 - 01.37.46.111.mp4</masterclipid>
								<logginginfo>
									<scene />
									<shottake />
									<lognote />
									<good>FALSE</good>
								</logginginfo>
								<labels>
									<label2 />
								</labels>
								<comments>
									<mastercomment1 />
									<mastercomment2 />
									<mastercomment3 />
									<mastercomment4 />
								</comments>
								<file id="ArmA 3 2020.11.14 - 01.37.46.111" />
								<filter>
									<effect>
										<name>Audio Levels</name>
										<effectid>audiolevels</effectid>
										<effectcategory>audiolevels</effectcategory>
										<effecttype>audiolevels</effecttype>
										<mediatype>audio</mediatype>
										<parameter>
											<name>Level</name>
											<parameterid>level</parameterid>
											<valuemin>0</valuemin>
											<valuemax>3,98109</valuemax>
											<value>1</value>
										</parameter>
									</effect>
								</filter>
								<filter>
									<effect>
										<name>Audio Pan</name>
										<effectid>audiopan</effectid>
										<effectcategory>audiopan</effectcategory>
										<effecttype>audiopan</effecttype>
										<mediatype>audio</mediatype>
										<parameter>
											<name>Pan</name>
											<parameterid>pan</parameterid>
											<valuemin>-1</valuemin>
											<valuemax>1</valuemax>
											<value>1</value>
										</parameter>
									</effect>
								</filter>
								<sourcetrack>
									<mediatype>audio</mediatype>
									<trackindex>2</trackindex>
								</sourcetrack>
								<link>
									<linkclipref>ArmA 3 2020.11.14 - 01.37.46.111.mp4805307691</linkclipref>
								</link>
								<link>
									<linkclipref>ArmA 3 2020.11.14 - 01.37.46.111.mp4536872236</linkclipref>
								</link>
								<link>
									<linkclipref>ArmA 3 2020.11.14 - 01.37.46.111.mp45368722361</linkclipref>
								</link>
								<link>
									<linkclipref>ArmA 3 2020.11.14 - 01.37.46.111.mp4536872237</linkclipref>
								</link>
								<link>
									<linkclipref>ArmA 3 2020.11.14 - 01.37.46.111.mp45368722371</linkclipref>
								</link>
							</clipitem>
							<clipitem id="ArmA 3 2020.11.14 - 01.40.03.112.mp45368722391">
								<name>ArmA 3 2020.11.14 - 01.40.03.112.mp4</name>
								<duration>1199</duration>
								<rate>
									<ntsc>TRUE</ntsc>
									<timebase>24</timebase>
								</rate>
								<in>0</in>
								<out>1199</out>
								<start>26339</start>
								<end>27538</end>
								<masterclipid>ArmA 3 2020.11.14 - 01.40.03.112.mp4</masterclipid>
								<logginginfo>
									<scene />
									<shottake />
									<lognote />
									<good>FALSE</good>
								</logginginfo>
								<labels>
									<label2 />
								</labels>
								<comments>
									<mastercomment1 />
									<mastercomment2 />
									<mastercomment3 />
									<mastercomment4 />
								</comments>
								<file id="ArmA 3 2020.11.14 - 01.40.03.112" />
								<filter>
									<effect>
										<name>Audio Levels</name>
										<effectid>audiolevels</effectid>
										<effectcategory>audiolevels</effectcategory>
										<effecttype>audiolevels</effecttype>
										<mediatype>audio</mediatype>
										<parameter>
											<name>Level</name>
											<parameterid>level</parameterid>
											<valuemin>0</valuemin>
											<valuemax>3,98109</valuemax>
											<value>1</value>
										</parameter>
									</effect>
								</filter>
								<filter>
									<effect>
										<name>Audio Pan</name>
										<effectid>audiopan</effectid>
										<effectcategory>audiopan</effectcategory>
										<effecttype>audiopan</effecttype>
										<mediatype>audio</mediatype>
										<parameter>
											<name>Pan</name>
											<parameterid>pan</parameterid>
											<valuemin>-1</valuemin>
											<valuemax>1</valuemax>
											<value>1</value>
										</parameter>
									</effect>
								</filter>
								<sourcetrack>
									<mediatype>audio</mediatype>
									<trackindex>2</trackindex>
								</sourcetrack>
								<link>
									<linkclipref>ArmA 3 2020.11.14 - 01.40.03.112.mp4805307694</linkclipref>
								</link>
								<link>
									<linkclipref>ArmA 3 2020.11.14 - 01.40.03.112.mp4536872239</linkclipref>
								</link>
								<link>
									<linkclipref>ArmA 3 2020.11.14 - 01.40.03.112.mp45368722391</linkclipref>
								</link>
								<link>
									<linkclipref>ArmA 3 2020.11.14 - 01.40.03.112.mp4536872240</linkclipref>
								</link>
								<link>
									<linkclipref>ArmA 3 2020.11.14 - 01.40.03.112.mp45368722401</linkclipref>
								</link>
							</clipitem>
							<clipitem id="ArmA 3 2020.11.14 - 01.41.02.113.mp45368722421">
								<name>ArmA 3 2020.11.14 - 01.41.02.113.mp4</name>
								<duration>927</duration>
								<rate>
									<ntsc>TRUE</ntsc>
									<timebase>24</timebase>
								</rate>
								<in>0</in>
								<out>927</out>
								<start>27539</start>
								<end>28466</end>
								<masterclipid>ArmA 3 2020.11.14 - 01.41.02.113.mp4</masterclipid>
								<logginginfo>
									<scene />
									<shottake />
									<lognote />
									<good>FALSE</good>
								</logginginfo>
								<labels>
									<label2 />
								</labels>
								<comments>
									<mastercomment1 />
									<mastercomment2 />
									<mastercomment3 />
									<mastercomment4 />
								</comments>
								<file id="ArmA 3 2020.11.14 - 01.41.02.113" />
								<filter>
									<effect>
										<name>Audio Levels</name>
										<effectid>audiolevels</effectid>
										<effectcategory>audiolevels</effectcategory>
										<effecttype>audiolevels</effecttype>
										<mediatype>audio</mediatype>
										<parameter>
											<name>Level</name>
											<parameterid>level</parameterid>
											<valuemin>0</valuemin>
											<valuemax>3,98109</valuemax>
											<value>1</value>
										</parameter>
									</effect>
								</filter>
								<filter>
									<effect>
										<name>Audio Pan</name>
										<effectid>audiopan</effectid>
										<effectcategory>audiopan</effectcategory>
										<effecttype>audiopan</effecttype>
										<mediatype>audio</mediatype>
										<parameter>
											<name>Pan</name>
											<parameterid>pan</parameterid>
											<valuemin>-1</valuemin>
											<valuemax>1</valuemax>
											<value>1</value>
										</parameter>
									</effect>
								</filter>
								<sourcetrack>
									<mediatype>audio</mediatype>
									<trackindex>2</trackindex>
								</sourcetrack>
								<link>
									<linkclipref>ArmA 3 2020.11.14 - 01.41.02.113.mp4805307697</linkclipref>
								</link>
								<link>
									<linkclipref>ArmA 3 2020.11.14 - 01.41.02.113.mp4536872242</linkclipref>
								</link>
								<link>
									<linkclipref>ArmA 3 2020.11.14 - 01.41.02.113.mp45368722421</linkclipref>
								</link>
								<link>
									<linkclipref>ArmA 3 2020.11.14 - 01.41.02.113.mp4536872243</linkclipref>
								</link>
								<link>
									<linkclipref>ArmA 3 2020.11.14 - 01.41.02.113.mp45368722431</linkclipref>
								</link>
							</clipitem>
							<clipitem id="ArmA 3 2020.11.14 - 01.42.04.114.mp45368722451">
								<name>ArmA 3 2020.11.14 - 01.42.04.114.mp4</name>
								<duration>871</duration>
								<rate>
									<ntsc>TRUE</ntsc>
									<timebase>24</timebase>
								</rate>
								<in>0</in>
								<out>871</out>
								<start>28467</start>
								<end>29338</end>
								<masterclipid>ArmA 3 2020.11.14 - 01.42.04.114.mp4</masterclipid>
								<logginginfo>
									<scene />
									<shottake />
									<lognote />
									<good>FALSE</good>
								</logginginfo>
								<labels>
									<label2 />
								</labels>
								<comments>
									<mastercomment1 />
									<mastercomment2 />
									<mastercomment3 />
									<mastercomment4 />
								</comments>
								<file id="ArmA 3 2020.11.14 - 01.42.04.114" />
								<filter>
									<effect>
										<name>Audio Levels</name>
										<effectid>audiolevels</effectid>
										<effectcategory>audiolevels</effectcategory>
										<effecttype>audiolevels</effecttype>
										<mediatype>audio</mediatype>
										<parameter>
											<name>Level</name>
											<parameterid>level</parameterid>
											<valuemin>0</valuemin>
											<valuemax>3,98109</valuemax>
											<value>1</value>
										</parameter>
									</effect>
								</filter>
								<filter>
									<effect>
										<name>Audio Pan</name>
										<effectid>audiopan</effectid>
										<effectcategory>audiopan</effectcategory>
										<effecttype>audiopan</effecttype>
										<mediatype>audio</mediatype>
										<parameter>
											<name>Pan</name>
											<parameterid>pan</parameterid>
											<valuemin>-1</valuemin>
											<valuemax>1</valuemax>
											<value>1</value>
										</parameter>
									</effect>
								</filter>
								<sourcetrack>
									<mediatype>audio</mediatype>
									<trackindex>2</trackindex>
								</sourcetrack>
								<link>
									<linkclipref>ArmA 3 2020.11.14 - 01.42.04.114.mp4805307700</linkclipref>
								</link>
								<link>
									<linkclipref>ArmA 3 2020.11.14 - 01.42.04.114.mp4536872245</linkclipref>
								</link>
								<link>
									<linkclipref>ArmA 3 2020.11.14 - 01.42.04.114.mp45368722451</linkclipref>
								</link>
								<link>
									<linkclipref>ArmA 3 2020.11.14 - 01.42.04.114.mp4536872246</linkclipref>
								</link>
								<link>
									<linkclipref>ArmA 3 2020.11.14 - 01.42.04.114.mp45368722461</linkclipref>
								</link>
							</clipitem>
							<clipitem id="ArmA 3 2020.11.14 - 01.44.22.115.mp45368722481">
								<name>ArmA 3 2020.11.14 - 01.44.22.115.mp4</name>
								<duration>519</duration>
								<rate>
									<ntsc>TRUE</ntsc>
									<timebase>24</timebase>
								</rate>
								<in>0</in>
								<out>519</out>
								<start>29339</start>
								<end>29858</end>
								<masterclipid>ArmA 3 2020.11.14 - 01.44.22.115.mp4</masterclipid>
								<logginginfo>
									<scene />
									<shottake />
									<lognote />
									<good>FALSE</good>
								</logginginfo>
								<labels>
									<label2 />
								</labels>
								<comments>
									<mastercomment1 />
									<mastercomment2 />
									<mastercomment3 />
									<mastercomment4 />
								</comments>
								<file id="ArmA 3 2020.11.14 - 01.44.22.115" />
								<filter>
									<effect>
										<name>Audio Levels</name>
										<effectid>audiolevels</effectid>
										<effectcategory>audiolevels</effectcategory>
										<effecttype>audiolevels</effecttype>
										<mediatype>audio</mediatype>
										<parameter>
											<name>Level</name>
											<parameterid>level</parameterid>
											<valuemin>0</valuemin>
											<valuemax>3,98109</valuemax>
											<value>1</value>
										</parameter>
									</effect>
								</filter>
								<filter>
									<effect>
										<name>Audio Pan</name>
										<effectid>audiopan</effectid>
										<effectcategory>audiopan</effectcategory>
										<effecttype>audiopan</effecttype>
										<mediatype>audio</mediatype>
										<parameter>
											<name>Pan</name>
											<parameterid>pan</parameterid>
											<valuemin>-1</valuemin>
											<valuemax>1</valuemax>
											<value>1</value>
										</parameter>
									</effect>
								</filter>
								<sourcetrack>
									<mediatype>audio</mediatype>
									<trackindex>2</trackindex>
								</sourcetrack>
								<link>
									<linkclipref>ArmA 3 2020.11.14 - 01.44.22.115.mp4805307703</linkclipref>
								</link>
								<link>
									<linkclipref>ArmA 3 2020.11.14 - 01.44.22.115.mp4536872248</linkclipref>
								</link>
								<link>
									<linkclipref>ArmA 3 2020.11.14 - 01.44.22.115.mp45368722481</linkclipref>
								</link>
								<link>
									<linkclipref>ArmA 3 2020.11.14 - 01.44.22.115.mp4536872249</linkclipref>
								</link>
								<link>
									<linkclipref>ArmA 3 2020.11.14 - 01.44.22.115.mp45368722491</linkclipref>
								</link>
							</clipitem>
							<clipitem id="ArmA 3 2020.11.14 - 01.44.58.116.mp45368722511">
								<name>ArmA 3 2020.11.14 - 01.44.58.116.mp4</name>
								<duration>882</duration>
								<rate>
									<ntsc>TRUE</ntsc>
									<timebase>24</timebase>
								</rate>
								<in>0</in>
								<out>882</out>
								<start>29859</start>
								<end>30741</end>
								<masterclipid>ArmA 3 2020.11.14 - 01.44.58.116.mp4</masterclipid>
								<logginginfo>
									<scene />
									<shottake />
									<lognote />
									<good>FALSE</good>
								</logginginfo>
								<labels>
									<label2 />
								</labels>
								<comments>
									<mastercomment1 />
									<mastercomment2 />
									<mastercomment3 />
									<mastercomment4 />
								</comments>
								<file id="ArmA 3 2020.11.14 - 01.44.58.116" />
								<filter>
									<effect>
										<name>Audio Levels</name>
										<effectid>audiolevels</effectid>
										<effectcategory>audiolevels</effectcategory>
										<effecttype>audiolevels</effecttype>
										<mediatype>audio</mediatype>
										<parameter>
											<name>Level</name>
											<parameterid>level</parameterid>
											<valuemin>0</valuemin>
											<valuemax>3,98109</valuemax>
											<value>1</value>
										</parameter>
									</effect>
								</filter>
								<filter>
									<effect>
										<name>Audio Pan</name>
										<effectid>audiopan</effectid>
										<effectcategory>audiopan</effectcategory>
										<effecttype>audiopan</effecttype>
										<mediatype>audio</mediatype>
										<parameter>
											<name>Pan</name>
											<parameterid>pan</parameterid>
											<valuemin>-1</valuemin>
											<valuemax>1</valuemax>
											<value>1</value>
										</parameter>
									</effect>
								</filter>
								<sourcetrack>
									<mediatype>audio</mediatype>
									<trackindex>2</trackindex>
								</sourcetrack>
								<link>
									<linkclipref>ArmA 3 2020.11.14 - 01.44.58.116.mp4805307706</linkclipref>
								</link>
								<link>
									<linkclipref>ArmA 3 2020.11.14 - 01.44.58.116.mp4536872251</linkclipref>
								</link>
								<link>
									<linkclipref>ArmA 3 2020.11.14 - 01.44.58.116.mp45368722511</linkclipref>
								</link>
								<link>
									<linkclipref>ArmA 3 2020.11.14 - 01.44.58.116.mp4536872252</linkclipref>
								</link>
								<link>
									<linkclipref>ArmA 3 2020.11.14 - 01.44.58.116.mp45368722521</linkclipref>
								</link>
							</clipitem>
							<clipitem id="ArmA 3 2020.11.14 - 01.48.52.117.mp45368722541">
								<name>ArmA 3 2020.11.14 - 01.48.52.117.mp4</name>
								<duration>628</duration>
								<rate>
									<ntsc>TRUE</ntsc>
									<timebase>24</timebase>
								</rate>
								<in>0</in>
								<out>628</out>
								<start>30742</start>
								<end>31370</end>
								<masterclipid>ArmA 3 2020.11.14 - 01.48.52.117.mp4</masterclipid>
								<logginginfo>
									<scene />
									<shottake />
									<lognote />
									<good>FALSE</good>
								</logginginfo>
								<labels>
									<label2 />
								</labels>
								<comments>
									<mastercomment1 />
									<mastercomment2 />
									<mastercomment3 />
									<mastercomment4 />
								</comments>
								<file id="ArmA 3 2020.11.14 - 01.48.52.117" />
								<filter>
									<effect>
										<name>Audio Levels</name>
										<effectid>audiolevels</effectid>
										<effectcategory>audiolevels</effectcategory>
										<effecttype>audiolevels</effecttype>
										<mediatype>audio</mediatype>
										<parameter>
											<name>Level</name>
											<parameterid>level</parameterid>
											<valuemin>0</valuemin>
											<valuemax>3,98109</valuemax>
											<value>1</value>
										</parameter>
									</effect>
								</filter>
								<filter>
									<effect>
										<name>Audio Pan</name>
										<effectid>audiopan</effectid>
										<effectcategory>audiopan</effectcategory>
										<effecttype>audiopan</effecttype>
										<mediatype>audio</mediatype>
										<parameter>
											<name>Pan</name>
											<parameterid>pan</parameterid>
											<valuemin>-1</valuemin>
											<valuemax>1</valuemax>
											<value>1</value>
										</parameter>
									</effect>
								</filter>
								<sourcetrack>
									<mediatype>audio</mediatype>
									<trackindex>2</trackindex>
								</sourcetrack>
								<link>
									<linkclipref>ArmA 3 2020.11.14 - 01.48.52.117.mp4805307709</linkclipref>
								</link>
								<link>
									<linkclipref>ArmA 3 2020.11.14 - 01.48.52.117.mp4536872254</linkclipref>
								</link>
								<link>
									<linkclipref>ArmA 3 2020.11.14 - 01.48.52.117.mp45368722541</linkclipref>
								</link>
								<link>
									<linkclipref>ArmA 3 2020.11.14 - 01.48.52.117.mp4536872255</linkclipref>
								</link>
								<link>
									<linkclipref>ArmA 3 2020.11.14 - 01.48.52.117.mp45368722551</linkclipref>
								</link>
							</clipitem>
							<clipitem id="ArmA 3 2020.11.14 - 01.48.52.117.mp45368722571">
								<name>ArmA 3 2020.11.14 - 01.48.52.117.mp4</name>
								<duration>628</duration>
								<rate>
									<ntsc>TRUE</ntsc>
									<timebase>24</timebase>
								</rate>
								<in>0</in>
								<out>628</out>
								<start>31371</start>
								<end>31999</end>
								<masterclipid>ArmA 3 2020.11.14 - 01.48.52.117.mp4</masterclipid>
								<logginginfo>
									<scene />
									<shottake />
									<lognote />
									<good>FALSE</good>
								</logginginfo>
								<labels>
									<label2 />
								</labels>
								<comments>
									<mastercomment1 />
									<mastercomment2 />
									<mastercomment3 />
									<mastercomment4 />
								</comments>
								<file id="ArmA 3 2020.11.14 - 01.48.52.117" />
								<filter>
									<effect>
										<name>Audio Levels</name>
										<effectid>audiolevels</effectid>
										<effectcategory>audiolevels</effectcategory>
										<effecttype>audiolevels</effecttype>
										<mediatype>audio</mediatype>
										<parameter>
											<name>Level</name>
											<parameterid>level</parameterid>
											<valuemin>0</valuemin>
											<valuemax>3,98109</valuemax>
											<value>1</value>
										</parameter>
									</effect>
								</filter>
								<filter>
									<effect>
										<name>Audio Pan</name>
										<effectid>audiopan</effectid>
										<effectcategory>audiopan</effectcategory>
										<effecttype>audiopan</effecttype>
										<mediatype>audio</mediatype>
										<parameter>
											<name>Pan</name>
											<parameterid>pan</parameterid>
											<valuemin>-1</valuemin>
											<valuemax>1</valuemax>
											<value>1</value>
										</parameter>
									</effect>
								</filter>
								<sourcetrack>
									<mediatype>audio</mediatype>
									<trackindex>2</trackindex>
								</sourcetrack>
								<link>
									<linkclipref>ArmA 3 2020.11.14 - 01.48.52.117.mp4805307712</linkclipref>
								</link>
								<link>
									<linkclipref>ArmA 3 2020.11.14 - 01.48.52.117.mp4536872257</linkclipref>
								</link>
								<link>
									<linkclipref>ArmA 3 2020.11.14 - 01.48.52.117.mp45368722571</linkclipref>
								</link>
								<link>
									<linkclipref>ArmA 3 2020.11.14 - 01.48.52.117.mp4536872258</linkclipref>
								</link>
								<link>
									<linkclipref>ArmA 3 2020.11.14 - 01.48.52.117.mp45368722581</linkclipref>
								</link>
							</clipitem>
							<clipitem id="ArmA 3 2020.11.14 - 01.49.37.118.mp45368722601">
								<name>ArmA 3 2020.11.14 - 01.49.37.118.mp4</name>
								<duration>1699</duration>
								<rate>
									<ntsc>TRUE</ntsc>
									<timebase>24</timebase>
								</rate>
								<in>0</in>
								<out>1699</out>
								<start>32000</start>
								<end>33699</end>
								<masterclipid>ArmA 3 2020.11.14 - 01.49.37.118.mp4</masterclipid>
								<logginginfo>
									<scene />
									<shottake />
									<lognote />
									<good>FALSE</good>
								</logginginfo>
								<labels>
									<label2 />
								</labels>
								<comments>
									<mastercomment1 />
									<mastercomment2 />
									<mastercomment3 />
									<mastercomment4 />
								</comments>
								<file id="ArmA 3 2020.11.14 - 01.49.37.118" />
								<filter>
									<effect>
										<name>Audio Levels</name>
										<effectid>audiolevels</effectid>
										<effectcategory>audiolevels</effectcategory>
										<effecttype>audiolevels</effecttype>
										<mediatype>audio</mediatype>
										<parameter>
											<name>Level</name>
											<parameterid>level</parameterid>
											<valuemin>0</valuemin>
											<valuemax>3,98109</valuemax>
											<value>1</value>
										</parameter>
									</effect>
								</filter>
								<filter>
									<effect>
										<name>Audio Pan</name>
										<effectid>audiopan</effectid>
										<effectcategory>audiopan</effectcategory>
										<effecttype>audiopan</effecttype>
										<mediatype>audio</mediatype>
										<parameter>
											<name>Pan</name>
											<parameterid>pan</parameterid>
											<valuemin>-1</valuemin>
											<valuemax>1</valuemax>
											<value>1</value>
										</parameter>
									</effect>
								</filter>
								<sourcetrack>
									<mediatype>audio</mediatype>
									<trackindex>2</trackindex>
								</sourcetrack>
								<link>
									<linkclipref>ArmA 3 2020.11.14 - 01.49.37.118.mp4805307715</linkclipref>
								</link>
								<link>
									<linkclipref>ArmA 3 2020.11.14 - 01.49.37.118.mp4536872260</linkclipref>
								</link>
								<link>
									<linkclipref>ArmA 3 2020.11.14 - 01.49.37.118.mp45368722601</linkclipref>
								</link>
								<link>
									<linkclipref>ArmA 3 2020.11.14 - 01.49.37.118.mp4536872261</linkclipref>
								</link>
								<link>
									<linkclipref>ArmA 3 2020.11.14 - 01.49.37.118.mp45368722611</linkclipref>
								</link>
							</clipitem>
							<clipitem id="ArmA 3 2020.11.14 - 01.54.33.119.mp45368722631">
								<name>ArmA 3 2020.11.14 - 01.54.33.119.mp4</name>
								<duration>772</duration>
								<rate>
									<ntsc>TRUE</ntsc>
									<timebase>24</timebase>
								</rate>
								<in>0</in>
								<out>772</out>
								<start>33700</start>
								<end>34472</end>
								<masterclipid>ArmA 3 2020.11.14 - 01.54.33.119.mp4</masterclipid>
								<logginginfo>
									<scene />
									<shottake />
									<lognote />
									<good>FALSE</good>
								</logginginfo>
								<labels>
									<label2 />
								</labels>
								<comments>
									<mastercomment1 />
									<mastercomment2 />
									<mastercomment3 />
									<mastercomment4 />
								</comments>
								<file id="ArmA 3 2020.11.14 - 01.54.33.119" />
								<filter>
									<effect>
										<name>Audio Levels</name>
										<effectid>audiolevels</effectid>
										<effectcategory>audiolevels</effectcategory>
										<effecttype>audiolevels</effecttype>
										<mediatype>audio</mediatype>
										<parameter>
											<name>Level</name>
											<parameterid>level</parameterid>
											<valuemin>0</valuemin>
											<valuemax>3,98109</valuemax>
											<value>1</value>
										</parameter>
									</effect>
								</filter>
								<filter>
									<effect>
										<name>Audio Pan</name>
										<effectid>audiopan</effectid>
										<effectcategory>audiopan</effectcategory>
										<effecttype>audiopan</effecttype>
										<mediatype>audio</mediatype>
										<parameter>
											<name>Pan</name>
											<parameterid>pan</parameterid>
											<valuemin>-1</valuemin>
											<valuemax>1</valuemax>
											<value>1</value>
										</parameter>
									</effect>
								</filter>
								<sourcetrack>
									<mediatype>audio</mediatype>
									<trackindex>2</trackindex>
								</sourcetrack>
								<link>
									<linkclipref>ArmA 3 2020.11.14 - 01.54.33.119.mp4805307718</linkclipref>
								</link>
								<link>
									<linkclipref>ArmA 3 2020.11.14 - 01.54.33.119.mp4536872263</linkclipref>
								</link>
								<link>
									<linkclipref>ArmA 3 2020.11.14 - 01.54.33.119.mp45368722631</linkclipref>
								</link>
								<link>
									<linkclipref>ArmA 3 2020.11.14 - 01.54.33.119.mp4536872264</linkclipref>
								</link>
								<link>
									<linkclipref>ArmA 3 2020.11.14 - 01.54.33.119.mp45368722641</linkclipref>
								</link>
							</clipitem>
							<clipitem id="ArmA 3 2020.11.14 - 01.56.32.120.mp45368722661">
								<name>ArmA 3 2020.11.14 - 01.56.32.120.mp4</name>
								<duration>1087</duration>
								<rate>
									<ntsc>TRUE</ntsc>
									<timebase>24</timebase>
								</rate>
								<in>0</in>
								<out>1087</out>
								<start>34473</start>
								<end>35560</end>
								<masterclipid>ArmA 3 2020.11.14 - 01.56.32.120.mp4</masterclipid>
								<logginginfo>
									<scene />
									<shottake />
									<lognote />
									<good>FALSE</good>
								</logginginfo>
								<labels>
									<label2 />
								</labels>
								<comments>
									<mastercomment1 />
									<mastercomment2 />
									<mastercomment3 />
									<mastercomment4 />
								</comments>
								<file id="ArmA 3 2020.11.14 - 01.56.32.120" />
								<filter>
									<effect>
										<name>Audio Levels</name>
										<effectid>audiolevels</effectid>
										<effectcategory>audiolevels</effectcategory>
										<effecttype>audiolevels</effecttype>
										<mediatype>audio</mediatype>
										<parameter>
											<name>Level</name>
											<parameterid>level</parameterid>
											<valuemin>0</valuemin>
											<valuemax>3,98109</valuemax>
											<value>1</value>
										</parameter>
									</effect>
								</filter>
								<filter>
									<effect>
										<name>Audio Pan</name>
										<effectid>audiopan</effectid>
										<effectcategory>audiopan</effectcategory>
										<effecttype>audiopan</effecttype>
										<mediatype>audio</mediatype>
										<parameter>
											<name>Pan</name>
											<parameterid>pan</parameterid>
											<valuemin>-1</valuemin>
											<valuemax>1</valuemax>
											<value>1</value>
										</parameter>
									</effect>
								</filter>
								<sourcetrack>
									<mediatype>audio</mediatype>
									<trackindex>2</trackindex>
								</sourcetrack>
								<link>
									<linkclipref>ArmA 3 2020.11.14 - 01.56.32.120.mp4805307721</linkclipref>
								</link>
								<link>
									<linkclipref>ArmA 3 2020.11.14 - 01.56.32.120.mp4536872266</linkclipref>
								</link>
								<link>
									<linkclipref>ArmA 3 2020.11.14 - 01.56.32.120.mp45368722661</linkclipref>
								</link>
								<link>
									<linkclipref>ArmA 3 2020.11.14 - 01.56.32.120.mp4536872267</linkclipref>
								</link>
								<link>
									<linkclipref>ArmA 3 2020.11.14 - 01.56.32.120.mp45368722671</linkclipref>
								</link>
							</clipitem>
							<clipitem id="ArmA 3 2020.11.14 - 01.57.19.121.mp45368722691">
								<name>ArmA 3 2020.11.14 - 01.57.19.121.mp4</name>
								<duration>263</duration>
								<rate>
									<ntsc>TRUE</ntsc>
									<timebase>24</timebase>
								</rate>
								<in>0</in>
								<out>263</out>
								<start>35561</start>
								<end>35824</end>
								<masterclipid>ArmA 3 2020.11.14 - 01.57.19.121.mp4</masterclipid>
								<logginginfo>
									<scene />
									<shottake />
									<lognote />
									<good>FALSE</good>
								</logginginfo>
								<labels>
									<label2 />
								</labels>
								<comments>
									<mastercomment1 />
									<mastercomment2 />
									<mastercomment3 />
									<mastercomment4 />
								</comments>
								<file id="ArmA 3 2020.11.14 - 01.57.19.121" />
								<filter>
									<effect>
										<name>Audio Levels</name>
										<effectid>audiolevels</effectid>
										<effectcategory>audiolevels</effectcategory>
										<effecttype>audiolevels</effecttype>
										<mediatype>audio</mediatype>
										<parameter>
											<name>Level</name>
											<parameterid>level</parameterid>
											<valuemin>0</valuemin>
											<valuemax>3,98109</valuemax>
											<value>1</value>
										</parameter>
									</effect>
								</filter>
								<filter>
									<effect>
										<name>Audio Pan</name>
										<effectid>audiopan</effectid>
										<effectcategory>audiopan</effectcategory>
										<effecttype>audiopan</effecttype>
										<mediatype>audio</mediatype>
										<parameter>
											<name>Pan</name>
											<parameterid>pan</parameterid>
											<valuemin>-1</valuemin>
											<valuemax>1</valuemax>
											<value>1</value>
										</parameter>
									</effect>
								</filter>
								<sourcetrack>
									<mediatype>audio</mediatype>
									<trackindex>2</trackindex>
								</sourcetrack>
								<link>
									<linkclipref>ArmA 3 2020.11.14 - 01.57.19.121.mp4805307724</linkclipref>
								</link>
								<link>
									<linkclipref>ArmA 3 2020.11.14 - 01.57.19.121.mp4536872269</linkclipref>
								</link>
								<link>
									<linkclipref>ArmA 3 2020.11.14 - 01.57.19.121.mp45368722691</linkclipref>
								</link>
								<link>
									<linkclipref>ArmA 3 2020.11.14 - 01.57.19.121.mp4536872270</linkclipref>
								</link>
								<link>
									<linkclipref>ArmA 3 2020.11.14 - 01.57.19.121.mp45368722701</linkclipref>
								</link>
							</clipitem>
							<clipitem id="ArmA 3 2020.11.14 - 01.58.13.122.mp45368722721">
								<name>ArmA 3 2020.11.14 - 01.58.13.122.mp4</name>
								<duration>562</duration>
								<rate>
									<ntsc>TRUE</ntsc>
									<timebase>24</timebase>
								</rate>
								<in>0</in>
								<out>562</out>
								<start>35825</start>
								<end>36387</end>
								<masterclipid>ArmA 3 2020.11.14 - 01.58.13.122.mp4</masterclipid>
								<logginginfo>
									<scene />
									<shottake />
									<lognote />
									<good>FALSE</good>
								</logginginfo>
								<labels>
									<label2 />
								</labels>
								<comments>
									<mastercomment1 />
									<mastercomment2 />
									<mastercomment3 />
									<mastercomment4 />
								</comments>
								<file id="ArmA 3 2020.11.14 - 01.58.13.122" />
								<filter>
									<effect>
										<name>Audio Levels</name>
										<effectid>audiolevels</effectid>
										<effectcategory>audiolevels</effectcategory>
										<effecttype>audiolevels</effecttype>
										<mediatype>audio</mediatype>
										<parameter>
											<name>Level</name>
											<parameterid>level</parameterid>
											<valuemin>0</valuemin>
											<valuemax>3,98109</valuemax>
											<value>1</value>
										</parameter>
									</effect>
								</filter>
								<filter>
									<effect>
										<name>Audio Pan</name>
										<effectid>audiopan</effectid>
										<effectcategory>audiopan</effectcategory>
										<effecttype>audiopan</effecttype>
										<mediatype>audio</mediatype>
										<parameter>
											<name>Pan</name>
											<parameterid>pan</parameterid>
											<valuemin>-1</valuemin>
											<valuemax>1</valuemax>
											<value>1</value>
										</parameter>
									</effect>
								</filter>
								<sourcetrack>
									<mediatype>audio</mediatype>
									<trackindex>2</trackindex>
								</sourcetrack>
								<link>
									<linkclipref>ArmA 3 2020.11.14 - 01.58.13.122.mp4805307727</linkclipref>
								</link>
								<link>
									<linkclipref>ArmA 3 2020.11.14 - 01.58.13.122.mp4536872272</linkclipref>
								</link>
								<link>
									<linkclipref>ArmA 3 2020.11.14 - 01.58.13.122.mp45368722721</linkclipref>
								</link>
								<link>
									<linkclipref>ArmA 3 2020.11.14 - 01.58.13.122.mp4536872273</linkclipref>
								</link>
								<link>
									<linkclipref>ArmA 3 2020.11.14 - 01.58.13.122.mp45368722731</linkclipref>
								</link>
							</clipitem>
						</track>
					</audio>
				</media>
				<marker>
					<name>SCENE1</name>
					<in>480</in>
					<out>-1</out>
					<color>
						<alpha>0</alpha>
						<red>255</red>
						<green>127</green>
						<blue>0</blue>
					</color>
				</marker>
			</sequence>
		</children>
	</project>
</xmeml>