<?xml version="1.0"?>
<xmeml version="5">
	<project>
		<name>Untitled Project 1</name>
		<children>
			<bin>
				<updatebehavior>add</updatebehavior>
				<name>Custom Bins</name>
				<children>
					<bin>
						<updatebehavior>add</updatebehavior>
						<name>PR_SCENE16</name>
						<children>
							<clip id="ArmA 3 2020.11.14 - 00.28.44.69.mp4">
								<updatebehavior>add</updatebehavior>
								<name>ArmA 3 2020.11.14 - 00.28.44.69.mp4</name>
								<duration>304</duration>
								<rate>
									<ntsc>FALSE</ntsc>
									<timebase>60</timebase>
								</rate>
								<in>-1</in>
								<out>-1</out>
								<masterclipid>ArmA 3 2020.11.14 - 00.28.44.69.mp4</masterclipid>
								<ismasterclip>TRUE</ismasterclip>
								<logginginfo>
									<scene />
									<shottake />
									<lognote />
									<good>FALSE</good>
								</logginginfo>
								<labels>
									<label2 />
								</labels>
								<comments>
									<mastercomment1 />
									<mastercomment2 />
									<mastercomment3 />
									<mastercomment4 />
								</comments>
								<media>
									<video>
										<track>
											<clipitem id="ArmA 3 2020.11.14 - 00.28.44.69.mp41">
												<name>ArmA 3 2020.11.14 - 00.28.44.69.mp4</name>
												<duration>304</duration>
												<rate>
													<ntsc>FALSE</ntsc>
													<timebase>60</timebase>
												</rate>
												<in>0</in>
												<out>304</out>
												<start>0</start>
												<end>304</end>
												<pixelaspectratio>Square</pixelaspectratio>
												<anamorphic>FALSE</anamorphic>
												<alphatype>none</alphatype>
												<masterclipid>ArmA 3 2020.11.14 - 00.28.44.69.mp4</masterclipid>
												<logginginfo>
													<scene />
													<shottake />
													<lognote />
													<good>FALSE</good>
												</logginginfo>
												<labels>
													<label2 />
												</labels>
												<comments>
													<mastercomment1 />
													<mastercomment2 />
													<mastercomment3 />
													<mastercomment4 />
												</comments>
												<file id="ArmA 3 2020.11.14 - 00.28.44.69">
													<name>ArmA 3 2020.11.14 - 00.28.44.69.mp4</name>
													<pathurl>file://localhost/F:/AMVS Russia/NaturaDestruction/PRPACK7/ArmA 3 2020.11.14 - 00.28.44.69.mp4</pathurl>
													<rate>
														<timebase>60</timebase>
														<ntsc>FALSE</ntsc>
													</rate>
													<duration>304</duration>
													<timecode>
														<rate>
															<timebase>60</timebase>
															<ntsc>FALSE</ntsc>
														</rate>
														<frame>0</frame>
														<displayformat>NDF</displayformat>
														<source>source</source>
													</timecode>
													<media>
														<video>
															<duration>304</duration>
															<samplecharacteristics>
																<width>1920</width>
																<height>1080</height>
															</samplecharacteristics>
														</video>
														<audio>
															<samplecharacteristics>
																<samplerate>48000</samplerate>
																<depth>32</depth>
															</samplecharacteristics>
															<channelcount>1</channelcount>
														</audio>
														<audio>
															<samplecharacteristics>
																<samplerate>48000</samplerate>
																<depth>32</depth>
															</samplecharacteristics>
															<channelcount>1</channelcount>
														</audio>
													</media>
												</file>
												<sourcetrack>
													<mediatype>video</mediatype>
												</sourcetrack>
												<fielddominance>none</fielddominance>
											</clipitem>
											<enabled>TRUE</enabled>
											<locked>FALSE</locked>
										</track>
									</video>
									<audio>
										<track>
											<clipitem id="ArmA 3 2020.11.14 - 00.28.44.69.mp42">
												<name>ArmA 3 2020.11.14 - 00.28.44.69.mp4</name>
												<duration>304</duration>
												<rate>
													<ntsc>TRUE</ntsc>
													<timebase>24</timebase>
												</rate>
												<in>0</in>
												<out>304</out>
												<start>0</start>
												<end>304</end>
												<masterclipid>ArmA 3 2020.11.14 - 00.28.44.69.mp4</masterclipid>
												<logginginfo>
													<scene />
													<shottake />
													<lognote />
													<good>FALSE</good>
												</logginginfo>
												<labels>
													<label2 />
												</labels>
												<comments>
													<mastercomment1 />
													<mastercomment2 />
													<mastercomment3 />
													<mastercomment4 />
												</comments>
												<file id="ArmA 3 2020.11.14 - 00.28.44.69" />
												<sourcetrack>
													<mediatype>audio</mediatype>
												</sourcetrack>
											</clipitem>
											<enabled>TRUE</enabled>
											<locked>FALSE</locked>
										</track>
										<track>
											<clipitem id="ArmA 3 2020.11.14 - 00.28.44.69.mp43">
												<name>ArmA 3 2020.11.14 - 00.28.44.69.mp4</name>
												<duration>304</duration>
												<rate>
													<ntsc>TRUE</ntsc>
													<timebase>24</timebase>
												</rate>
												<in>0</in>
												<out>304</out>
												<start>0</start>
												<end>304</end>
												<masterclipid>ArmA 3 2020.11.14 - 00.28.44.69.mp4</masterclipid>
												<logginginfo>
													<scene />
													<shottake />
													<lognote />
													<good>FALSE</good>
												</logginginfo>
												<labels>
													<label2 />
												</labels>
												<comments>
													<mastercomment1 />
													<mastercomment2 />
													<mastercomment3 />
													<mastercomment4 />
												</comments>
												<file id="ArmA 3 2020.11.14 - 00.28.44.69" />
												<sourcetrack>
													<mediatype>audio</mediatype>
												</sourcetrack>
											</clipitem>
											<enabled>TRUE</enabled>
											<locked>FALSE</locked>
										</track>
									</audio>
								</media>
							</clip>
							<clip id="ArmA 3 2020.11.14 - 00.29.10.70.mp4">
								<updatebehavior>add</updatebehavior>
								<name>ArmA 3 2020.11.14 - 00.29.10.70.mp4</name>
								<duration>1838</duration>
								<rate>
									<ntsc>FALSE</ntsc>
									<timebase>60</timebase>
								</rate>
								<in>-1</in>
								<out>-1</out>
								<masterclipid>ArmA 3 2020.11.14 - 00.29.10.70.mp4</masterclipid>
								<ismasterclip>TRUE</ismasterclip>
								<logginginfo>
									<scene />
									<shottake />
									<lognote />
									<good>FALSE</good>
								</logginginfo>
								<labels>
									<label2 />
								</labels>
								<comments>
									<mastercomment1 />
									<mastercomment2 />
									<mastercomment3 />
									<mastercomment4 />
								</comments>
								<media>
									<video>
										<track>
											<clipitem id="ArmA 3 2020.11.14 - 00.29.10.70.mp41">
												<name>ArmA 3 2020.11.14 - 00.29.10.70.mp4</name>
												<duration>1838</duration>
												<rate>
													<ntsc>FALSE</ntsc>
													<timebase>60</timebase>
												</rate>
												<in>0</in>
												<out>1838</out>
												<start>0</start>
												<end>1838</end>
												<pixelaspectratio>Square</pixelaspectratio>
												<anamorphic>FALSE</anamorphic>
												<alphatype>none</alphatype>
												<masterclipid>ArmA 3 2020.11.14 - 00.29.10.70.mp4</masterclipid>
												<logginginfo>
													<scene />
													<shottake />
													<lognote />
													<good>FALSE</good>
												</logginginfo>
												<labels>
													<label2 />
												</labels>
												<comments>
													<mastercomment1 />
													<mastercomment2 />
													<mastercomment3 />
													<mastercomment4 />
												</comments>
												<file id="ArmA 3 2020.11.14 - 00.29.10.70">
													<name>ArmA 3 2020.11.14 - 00.29.10.70.mp4</name>
													<pathurl>file://localhost/F:/AMVS Russia/NaturaDestruction/PRPACK3/ArmA 3 2020.11.14 - 00.29.10.70.mp4</pathurl>
													<rate>
														<timebase>60</timebase>
														<ntsc>FALSE</ntsc>
													</rate>
													<duration>1838</duration>
													<timecode>
														<rate>
															<timebase>60</timebase>
															<ntsc>FALSE</ntsc>
														</rate>
														<frame>0</frame>
														<displayformat>NDF</displayformat>
														<source>source</source>
													</timecode>
													<media>
														<video>
															<duration>1838</duration>
															<samplecharacteristics>
																<width>1920</width>
																<height>1080</height>
															</samplecharacteristics>
														</video>
														<audio>
															<samplecharacteristics>
																<samplerate>48000</samplerate>
																<depth>32</depth>
															</samplecharacteristics>
															<channelcount>1</channelcount>
														</audio>
														<audio>
															<samplecharacteristics>
																<samplerate>48000</samplerate>
																<depth>32</depth>
															</samplecharacteristics>
															<channelcount>1</channelcount>
														</audio>
													</media>
												</file>
												<sourcetrack>
													<mediatype>video</mediatype>
												</sourcetrack>
												<fielddominance>none</fielddominance>
											</clipitem>
											<enabled>TRUE</enabled>
											<locked>FALSE</locked>
										</track>
									</video>
									<audio>
										<track>
											<clipitem id="ArmA 3 2020.11.14 - 00.29.10.70.mp42">
												<name>ArmA 3 2020.11.14 - 00.29.10.70.mp4</name>
												<duration>1838</duration>
												<rate>
													<ntsc>TRUE</ntsc>
													<timebase>24</timebase>
												</rate>
												<in>0</in>
												<out>1838</out>
												<start>0</start>
												<end>1838</end>
												<masterclipid>ArmA 3 2020.11.14 - 00.29.10.70.mp4</masterclipid>
												<logginginfo>
													<scene />
													<shottake />
													<lognote />
													<good>FALSE</good>
												</logginginfo>
												<labels>
													<label2 />
												</labels>
												<comments>
													<mastercomment1 />
													<mastercomment2 />
													<mastercomment3 />
													<mastercomment4 />
												</comments>
												<file id="ArmA 3 2020.11.14 - 00.29.10.70" />
												<sourcetrack>
													<mediatype>audio</mediatype>
												</sourcetrack>
											</clipitem>
											<enabled>TRUE</enabled>
											<locked>FALSE</locked>
										</track>
										<track>
											<clipitem id="ArmA 3 2020.11.14 - 00.29.10.70.mp43">
												<name>ArmA 3 2020.11.14 - 00.29.10.70.mp4</name>
												<duration>1838</duration>
												<rate>
													<ntsc>TRUE</ntsc>
													<timebase>24</timebase>
												</rate>
												<in>0</in>
												<out>1838</out>
												<start>0</start>
												<end>1838</end>
												<masterclipid>ArmA 3 2020.11.14 - 00.29.10.70.mp4</masterclipid>
												<logginginfo>
													<scene />
													<shottake />
													<lognote />
													<good>FALSE</good>
												</logginginfo>
												<labels>
													<label2 />
												</labels>
												<comments>
													<mastercomment1 />
													<mastercomment2 />
													<mastercomment3 />
													<mastercomment4 />
												</comments>
												<file id="ArmA 3 2020.11.14 - 00.29.10.70" />
												<sourcetrack>
													<mediatype>audio</mediatype>
												</sourcetrack>
											</clipitem>
											<enabled>TRUE</enabled>
											<locked>FALSE</locked>
										</track>
									</audio>
								</media>
							</clip>
							<clip id="ArmA 3 2020.11.14 - 00.30.52.71.mp4">
								<updatebehavior>add</updatebehavior>
								<name>ArmA 3 2020.11.14 - 00.30.52.71.mp4</name>
								<duration>933</duration>
								<rate>
									<ntsc>FALSE</ntsc>
									<timebase>60</timebase>
								</rate>
								<in>-1</in>
								<out>-1</out>
								<masterclipid>ArmA 3 2020.11.14 - 00.30.52.71.mp4</masterclipid>
								<ismasterclip>TRUE</ismasterclip>
								<logginginfo>
									<scene />
									<shottake />
									<lognote />
									<good>FALSE</good>
								</logginginfo>
								<labels>
									<label2 />
								</labels>
								<comments>
									<mastercomment1 />
									<mastercomment2 />
									<mastercomment3 />
									<mastercomment4 />
								</comments>
								<media>
									<video>
										<track>
											<clipitem id="ArmA 3 2020.11.14 - 00.30.52.71.mp41">
												<name>ArmA 3 2020.11.14 - 00.30.52.71.mp4</name>
												<duration>933</duration>
												<rate>
													<ntsc>FALSE</ntsc>
													<timebase>60</timebase>
												</rate>
												<in>0</in>
												<out>933</out>
												<start>0</start>
												<end>933</end>
												<pixelaspectratio>Square</pixelaspectratio>
												<anamorphic>FALSE</anamorphic>
												<alphatype>none</alphatype>
												<masterclipid>ArmA 3 2020.11.14 - 00.30.52.71.mp4</masterclipid>
												<logginginfo>
													<scene />
													<shottake />
													<lognote />
													<good>FALSE</good>
												</logginginfo>
												<labels>
													<label2 />
												</labels>
												<comments>
													<mastercomment1 />
													<mastercomment2 />
													<mastercomment3 />
													<mastercomment4 />
												</comments>
												<file id="ArmA 3 2020.11.14 - 00.30.52.71">
													<name>ArmA 3 2020.11.14 - 00.30.52.71.mp4</name>
													<pathurl>file://localhost/F:/AMVS Russia/NaturaDestruction/PRPACK4/ArmA 3 2020.11.14 - 00.30.52.71.mp4</pathurl>
													<rate>
														<timebase>60</timebase>
														<ntsc>FALSE</ntsc>
													</rate>
													<duration>933</duration>
													<timecode>
														<rate>
															<timebase>60</timebase>
															<ntsc>FALSE</ntsc>
														</rate>
														<frame>0</frame>
														<displayformat>NDF</displayformat>
														<source>source</source>
													</timecode>
													<media>
														<video>
															<duration>933</duration>
															<samplecharacteristics>
																<width>1920</width>
																<height>1080</height>
															</samplecharacteristics>
														</video>
														<audio>
															<samplecharacteristics>
																<samplerate>48000</samplerate>
																<depth>32</depth>
															</samplecharacteristics>
															<channelcount>1</channelcount>
														</audio>
														<audio>
															<samplecharacteristics>
																<samplerate>48000</samplerate>
																<depth>32</depth>
															</samplecharacteristics>
															<channelcount>1</channelcount>
														</audio>
													</media>
												</file>
												<sourcetrack>
													<mediatype>video</mediatype>
												</sourcetrack>
												<fielddominance>none</fielddominance>
											</clipitem>
											<enabled>TRUE</enabled>
											<locked>FALSE</locked>
										</track>
									</video>
									<audio>
										<track>
											<clipitem id="ArmA 3 2020.11.14 - 00.30.52.71.mp42">
												<name>ArmA 3 2020.11.14 - 00.30.52.71.mp4</name>
												<duration>933</duration>
												<rate>
													<ntsc>TRUE</ntsc>
													<timebase>24</timebase>
												</rate>
												<in>0</in>
												<out>933</out>
												<start>0</start>
												<end>933</end>
												<masterclipid>ArmA 3 2020.11.14 - 00.30.52.71.mp4</masterclipid>
												<logginginfo>
													<scene />
													<shottake />
													<lognote />
													<good>FALSE</good>
												</logginginfo>
												<labels>
													<label2 />
												</labels>
												<comments>
													<mastercomment1 />
													<mastercomment2 />
													<mastercomment3 />
													<mastercomment4 />
												</comments>
												<file id="ArmA 3 2020.11.14 - 00.30.52.71" />
												<sourcetrack>
													<mediatype>audio</mediatype>
												</sourcetrack>
											</clipitem>
											<enabled>TRUE</enabled>
											<locked>FALSE</locked>
										</track>
										<track>
											<clipitem id="ArmA 3 2020.11.14 - 00.30.52.71.mp43">
												<name>ArmA 3 2020.11.14 - 00.30.52.71.mp4</name>
												<duration>933</duration>
												<rate>
													<ntsc>TRUE</ntsc>
													<timebase>24</timebase>
												</rate>
												<in>0</in>
												<out>933</out>
												<start>0</start>
												<end>933</end>
												<masterclipid>ArmA 3 2020.11.14 - 00.30.52.71.mp4</masterclipid>
												<logginginfo>
													<scene />
													<shottake />
													<lognote />
													<good>FALSE</good>
												</logginginfo>
												<labels>
													<label2 />
												</labels>
												<comments>
													<mastercomment1 />
													<mastercomment2 />
													<mastercomment3 />
													<mastercomment4 />
												</comments>
												<file id="ArmA 3 2020.11.14 - 00.30.52.71" />
												<sourcetrack>
													<mediatype>audio</mediatype>
												</sourcetrack>
											</clipitem>
											<enabled>TRUE</enabled>
											<locked>FALSE</locked>
										</track>
									</audio>
								</media>
							</clip>
							<clip id="ArmA 3 2020.11.14 - 00.32.09.72.mp4">
								<updatebehavior>add</updatebehavior>
								<name>ArmA 3 2020.11.14 - 00.32.09.72.mp4</name>
								<duration>1258</duration>
								<rate>
									<ntsc>FALSE</ntsc>
									<timebase>60</timebase>
								</rate>
								<in>-1</in>
								<out>-1</out>
								<masterclipid>ArmA 3 2020.11.14 - 00.32.09.72.mp4</masterclipid>
								<ismasterclip>TRUE</ismasterclip>
								<logginginfo>
									<scene />
									<shottake />
									<lognote />
									<good>FALSE</good>
								</logginginfo>
								<labels>
									<label2 />
								</labels>
								<comments>
									<mastercomment1 />
									<mastercomment2 />
									<mastercomment3 />
									<mastercomment4 />
								</comments>
								<media>
									<video>
										<track>
											<clipitem id="ArmA 3 2020.11.14 - 00.32.09.72.mp41">
												<name>ArmA 3 2020.11.14 - 00.32.09.72.mp4</name>
												<duration>1258</duration>
												<rate>
													<ntsc>FALSE</ntsc>
													<timebase>60</timebase>
												</rate>
												<in>0</in>
												<out>1258</out>
												<start>0</start>
												<end>1258</end>
												<pixelaspectratio>Square</pixelaspectratio>
												<anamorphic>FALSE</anamorphic>
												<alphatype>none</alphatype>
												<masterclipid>ArmA 3 2020.11.14 - 00.32.09.72.mp4</masterclipid>
												<logginginfo>
													<scene />
													<shottake />
													<lognote />
													<good>FALSE</good>
												</logginginfo>
												<labels>
													<label2 />
												</labels>
												<comments>
													<mastercomment1 />
													<mastercomment2 />
													<mastercomment3 />
													<mastercomment4 />
												</comments>
												<file id="ArmA 3 2020.11.14 - 00.32.09.72">
													<name>ArmA 3 2020.11.14 - 00.32.09.72.mp4</name>
													<pathurl>file://localhost/F:/AMVS Russia/NaturaDestruction/PRPACK3/ArmA 3 2020.11.14 - 00.32.09.72.mp4</pathurl>
													<rate>
														<timebase>60</timebase>
														<ntsc>FALSE</ntsc>
													</rate>
													<duration>1258</duration>
													<timecode>
														<rate>
															<timebase>60</timebase>
															<ntsc>FALSE</ntsc>
														</rate>
														<frame>0</frame>
														<displayformat>NDF</displayformat>
														<source>source</source>
													</timecode>
													<media>
														<video>
															<duration>1258</duration>
															<samplecharacteristics>
																<width>1920</width>
																<height>1080</height>
															</samplecharacteristics>
														</video>
														<audio>
															<samplecharacteristics>
																<samplerate>48000</samplerate>
																<depth>32</depth>
															</samplecharacteristics>
															<channelcount>1</channelcount>
														</audio>
														<audio>
															<samplecharacteristics>
																<samplerate>48000</samplerate>
																<depth>32</depth>
															</samplecharacteristics>
															<channelcount>1</channelcount>
														</audio>
													</media>
												</file>
												<sourcetrack>
													<mediatype>video</mediatype>
												</sourcetrack>
												<fielddominance>none</fielddominance>
											</clipitem>
											<enabled>TRUE</enabled>
											<locked>FALSE</locked>
										</track>
									</video>
									<audio>
										<track>
											<clipitem id="ArmA 3 2020.11.14 - 00.32.09.72.mp42">
												<name>ArmA 3 2020.11.14 - 00.32.09.72.mp4</name>
												<duration>1258</duration>
												<rate>
													<ntsc>TRUE</ntsc>
													<timebase>24</timebase>
												</rate>
												<in>0</in>
												<out>1258</out>
												<start>0</start>
												<end>1258</end>
												<masterclipid>ArmA 3 2020.11.14 - 00.32.09.72.mp4</masterclipid>
												<logginginfo>
													<scene />
													<shottake />
													<lognote />
													<good>FALSE</good>
												</logginginfo>
												<labels>
													<label2 />
												</labels>
												<comments>
													<mastercomment1 />
													<mastercomment2 />
													<mastercomment3 />
													<mastercomment4 />
												</comments>
												<file id="ArmA 3 2020.11.14 - 00.32.09.72" />
												<sourcetrack>
													<mediatype>audio</mediatype>
												</sourcetrack>
											</clipitem>
											<enabled>TRUE</enabled>
											<locked>FALSE</locked>
										</track>
										<track>
											<clipitem id="ArmA 3 2020.11.14 - 00.32.09.72.mp43">
												<name>ArmA 3 2020.11.14 - 00.32.09.72.mp4</name>
												<duration>1258</duration>
												<rate>
													<ntsc>TRUE</ntsc>
													<timebase>24</timebase>
												</rate>
												<in>0</in>
												<out>1258</out>
												<start>0</start>
												<end>1258</end>
												<masterclipid>ArmA 3 2020.11.14 - 00.32.09.72.mp4</masterclipid>
												<logginginfo>
													<scene />
													<shottake />
													<lognote />
													<good>FALSE</good>
												</logginginfo>
												<labels>
													<label2 />
												</labels>
												<comments>
													<mastercomment1 />
													<mastercomment2 />
													<mastercomment3 />
													<mastercomment4 />
												</comments>
												<file id="ArmA 3 2020.11.14 - 00.32.09.72" />
												<sourcetrack>
													<mediatype>audio</mediatype>
												</sourcetrack>
											</clipitem>
											<enabled>TRUE</enabled>
											<locked>FALSE</locked>
										</track>
									</audio>
								</media>
							</clip>
							<clip id="ArmA 3 2020.11.14 - 00.34.30.73.mp4">
								<updatebehavior>add</updatebehavior>
								<name>ArmA 3 2020.11.14 - 00.34.30.73.mp4</name>
								<duration>2159</duration>
								<rate>
									<ntsc>FALSE</ntsc>
									<timebase>60</timebase>
								</rate>
								<in>-1</in>
								<out>-1</out>
								<masterclipid>ArmA 3 2020.11.14 - 00.34.30.73.mp4</masterclipid>
								<ismasterclip>TRUE</ismasterclip>
								<logginginfo>
									<scene />
									<shottake />
									<lognote />
									<good>FALSE</good>
								</logginginfo>
								<labels>
									<label2 />
								</labels>
								<comments>
									<mastercomment1 />
									<mastercomment2 />
									<mastercomment3 />
									<mastercomment4 />
								</comments>
								<media>
									<video>
										<track>
											<clipitem id="ArmA 3 2020.11.14 - 00.34.30.73.mp41">
												<name>ArmA 3 2020.11.14 - 00.34.30.73.mp4</name>
												<duration>2159</duration>
												<rate>
													<ntsc>FALSE</ntsc>
													<timebase>60</timebase>
												</rate>
												<in>0</in>
												<out>2159</out>
												<start>0</start>
												<end>2159</end>
												<pixelaspectratio>Square</pixelaspectratio>
												<anamorphic>FALSE</anamorphic>
												<alphatype>none</alphatype>
												<masterclipid>ArmA 3 2020.11.14 - 00.34.30.73.mp4</masterclipid>
												<logginginfo>
													<scene />
													<shottake />
													<lognote />
													<good>FALSE</good>
												</logginginfo>
												<labels>
													<label2 />
												</labels>
												<comments>
													<mastercomment1 />
													<mastercomment2 />
													<mastercomment3 />
													<mastercomment4 />
												</comments>
												<file id="ArmA 3 2020.11.14 - 00.34.30.73">
													<name>ArmA 3 2020.11.14 - 00.34.30.73.mp4</name>
													<pathurl>file://localhost/F:/AMVS Russia/NaturaDestruction/PRPACK2/ArmA 3 2020.11.14 - 00.34.30.73.mp4</pathurl>
													<rate>
														<timebase>60</timebase>
														<ntsc>FALSE</ntsc>
													</rate>
													<duration>2159</duration>
													<timecode>
														<rate>
															<timebase>60</timebase>
															<ntsc>FALSE</ntsc>
														</rate>
														<frame>0</frame>
														<displayformat>NDF</displayformat>
														<source>source</source>
													</timecode>
													<media>
														<video>
															<duration>2159</duration>
															<samplecharacteristics>
																<width>1920</width>
																<height>1080</height>
															</samplecharacteristics>
														</video>
														<audio>
															<samplecharacteristics>
																<samplerate>48000</samplerate>
																<depth>32</depth>
															</samplecharacteristics>
															<channelcount>1</channelcount>
														</audio>
														<audio>
															<samplecharacteristics>
																<samplerate>48000</samplerate>
																<depth>32</depth>
															</samplecharacteristics>
															<channelcount>1</channelcount>
														</audio>
													</media>
												</file>
												<sourcetrack>
													<mediatype>video</mediatype>
												</sourcetrack>
												<fielddominance>none</fielddominance>
											</clipitem>
											<enabled>TRUE</enabled>
											<locked>FALSE</locked>
										</track>
									</video>
									<audio>
										<track>
											<clipitem id="ArmA 3 2020.11.14 - 00.34.30.73.mp42">
												<name>ArmA 3 2020.11.14 - 00.34.30.73.mp4</name>
												<duration>2159</duration>
												<rate>
													<ntsc>TRUE</ntsc>
													<timebase>24</timebase>
												</rate>
												<in>0</in>
												<out>2159</out>
												<start>0</start>
												<end>2159</end>
												<masterclipid>ArmA 3 2020.11.14 - 00.34.30.73.mp4</masterclipid>
												<logginginfo>
													<scene />
													<shottake />
													<lognote />
													<good>FALSE</good>
												</logginginfo>
												<labels>
													<label2 />
												</labels>
												<comments>
													<mastercomment1 />
													<mastercomment2 />
													<mastercomment3 />
													<mastercomment4 />
												</comments>
												<file id="ArmA 3 2020.11.14 - 00.34.30.73" />
												<sourcetrack>
													<mediatype>audio</mediatype>
												</sourcetrack>
											</clipitem>
											<enabled>TRUE</enabled>
											<locked>FALSE</locked>
										</track>
										<track>
											<clipitem id="ArmA 3 2020.11.14 - 00.34.30.73.mp43">
												<name>ArmA 3 2020.11.14 - 00.34.30.73.mp4</name>
												<duration>2159</duration>
												<rate>
													<ntsc>TRUE</ntsc>
													<timebase>24</timebase>
												</rate>
												<in>0</in>
												<out>2159</out>
												<start>0</start>
												<end>2159</end>
												<masterclipid>ArmA 3 2020.11.14 - 00.34.30.73.mp4</masterclipid>
												<logginginfo>
													<scene />
													<shottake />
													<lognote />
													<good>FALSE</good>
												</logginginfo>
												<labels>
													<label2 />
												</labels>
												<comments>
													<mastercomment1 />
													<mastercomment2 />
													<mastercomment3 />
													<mastercomment4 />
												</comments>
												<file id="ArmA 3 2020.11.14 - 00.34.30.73" />
												<sourcetrack>
													<mediatype>audio</mediatype>
												</sourcetrack>
											</clipitem>
											<enabled>TRUE</enabled>
											<locked>FALSE</locked>
										</track>
									</audio>
								</media>
							</clip>
							<clip id="ArmA 3 2020.11.14 - 00.39.58.74.mp4">
								<updatebehavior>add</updatebehavior>
								<name>ArmA 3 2020.11.14 - 00.39.58.74.mp4</name>
								<duration>1182</duration>
								<rate>
									<ntsc>FALSE</ntsc>
									<timebase>60</timebase>
								</rate>
								<in>-1</in>
								<out>-1</out>
								<masterclipid>ArmA 3 2020.11.14 - 00.39.58.74.mp4</masterclipid>
								<ismasterclip>TRUE</ismasterclip>
								<logginginfo>
									<scene />
									<shottake />
									<lognote />
									<good>FALSE</good>
								</logginginfo>
								<labels>
									<label2 />
								</labels>
								<comments>
									<mastercomment1 />
									<mastercomment2 />
									<mastercomment3 />
									<mastercomment4 />
								</comments>
								<media>
									<video>
										<track>
											<clipitem id="ArmA 3 2020.11.14 - 00.39.58.74.mp41">
												<name>ArmA 3 2020.11.14 - 00.39.58.74.mp4</name>
												<duration>1182</duration>
												<rate>
													<ntsc>FALSE</ntsc>
													<timebase>60</timebase>
												</rate>
												<in>0</in>
												<out>1182</out>
												<start>0</start>
												<end>1182</end>
												<pixelaspectratio>Square</pixelaspectratio>
												<anamorphic>FALSE</anamorphic>
												<alphatype>none</alphatype>
												<masterclipid>ArmA 3 2020.11.14 - 00.39.58.74.mp4</masterclipid>
												<logginginfo>
													<scene />
													<shottake />
													<lognote />
													<good>FALSE</good>
												</logginginfo>
												<labels>
													<label2 />
												</labels>
												<comments>
													<mastercomment1 />
													<mastercomment2 />
													<mastercomment3 />
													<mastercomment4 />
												</comments>
												<file id="ArmA 3 2020.11.14 - 00.39.58.74">
													<name>ArmA 3 2020.11.14 - 00.39.58.74.mp4</name>
													<pathurl>file://localhost/F:/AMVS Russia/NaturaDestruction/PRPACK4/ArmA 3 2020.11.14 - 00.39.58.74.mp4</pathurl>
													<rate>
														<timebase>60</timebase>
														<ntsc>FALSE</ntsc>
													</rate>
													<duration>1182</duration>
													<timecode>
														<rate>
															<timebase>60</timebase>
															<ntsc>FALSE</ntsc>
														</rate>
														<frame>0</frame>
														<displayformat>NDF</displayformat>
														<source>source</source>
													</timecode>
													<media>
														<video>
															<duration>1182</duration>
															<samplecharacteristics>
																<width>1920</width>
																<height>1080</height>
															</samplecharacteristics>
														</video>
														<audio>
															<samplecharacteristics>
																<samplerate>48000</samplerate>
																<depth>32</depth>
															</samplecharacteristics>
															<channelcount>1</channelcount>
														</audio>
														<audio>
															<samplecharacteristics>
																<samplerate>48000</samplerate>
																<depth>32</depth>
															</samplecharacteristics>
															<channelcount>1</channelcount>
														</audio>
													</media>
												</file>
												<sourcetrack>
													<mediatype>video</mediatype>
												</sourcetrack>
												<fielddominance>none</fielddominance>
											</clipitem>
											<enabled>TRUE</enabled>
											<locked>FALSE</locked>
										</track>
									</video>
									<audio>
										<track>
											<clipitem id="ArmA 3 2020.11.14 - 00.39.58.74.mp42">
												<name>ArmA 3 2020.11.14 - 00.39.58.74.mp4</name>
												<duration>1182</duration>
												<rate>
													<ntsc>TRUE</ntsc>
													<timebase>24</timebase>
												</rate>
												<in>0</in>
												<out>1182</out>
												<start>0</start>
												<end>1182</end>
												<masterclipid>ArmA 3 2020.11.14 - 00.39.58.74.mp4</masterclipid>
												<logginginfo>
													<scene />
													<shottake />
													<lognote />
													<good>FALSE</good>
												</logginginfo>
												<labels>
													<label2 />
												</labels>
												<comments>
													<mastercomment1 />
													<mastercomment2 />
													<mastercomment3 />
													<mastercomment4 />
												</comments>
												<file id="ArmA 3 2020.11.14 - 00.39.58.74" />
												<sourcetrack>
													<mediatype>audio</mediatype>
												</sourcetrack>
											</clipitem>
											<enabled>TRUE</enabled>
											<locked>FALSE</locked>
										</track>
										<track>
											<clipitem id="ArmA 3 2020.11.14 - 00.39.58.74.mp43">
												<name>ArmA 3 2020.11.14 - 00.39.58.74.mp4</name>
												<duration>1182</duration>
												<rate>
													<ntsc>TRUE</ntsc>
													<timebase>24</timebase>
												</rate>
												<in>0</in>
												<out>1182</out>
												<start>0</start>
												<end>1182</end>
												<masterclipid>ArmA 3 2020.11.14 - 00.39.58.74.mp4</masterclipid>
												<logginginfo>
													<scene />
													<shottake />
													<lognote />
													<good>FALSE</good>
												</logginginfo>
												<labels>
													<label2 />
												</labels>
												<comments>
													<mastercomment1 />
													<mastercomment2 />
													<mastercomment3 />
													<mastercomment4 />
												</comments>
												<file id="ArmA 3 2020.11.14 - 00.39.58.74" />
												<sourcetrack>
													<mediatype>audio</mediatype>
												</sourcetrack>
											</clipitem>
											<enabled>TRUE</enabled>
											<locked>FALSE</locked>
										</track>
									</audio>
								</media>
							</clip>
							<clip id="ArmA 3 2020.11.14 - 00.42.57.75.mp4">
								<updatebehavior>add</updatebehavior>
								<name>ArmA 3 2020.11.14 - 00.42.57.75.mp4</name>
								<duration>1353</duration>
								<rate>
									<ntsc>FALSE</ntsc>
									<timebase>60</timebase>
								</rate>
								<in>-1</in>
								<out>-1</out>
								<masterclipid>ArmA 3 2020.11.14 - 00.42.57.75.mp4</masterclipid>
								<ismasterclip>TRUE</ismasterclip>
								<logginginfo>
									<scene />
									<shottake />
									<lognote />
									<good>FALSE</good>
								</logginginfo>
								<labels>
									<label2 />
								</labels>
								<comments>
									<mastercomment1 />
									<mastercomment2 />
									<mastercomment3 />
									<mastercomment4 />
								</comments>
								<media>
									<video>
										<track>
											<clipitem id="ArmA 3 2020.11.14 - 00.42.57.75.mp41">
												<name>ArmA 3 2020.11.14 - 00.42.57.75.mp4</name>
												<duration>1353</duration>
												<rate>
													<ntsc>FALSE</ntsc>
													<timebase>60</timebase>
												</rate>
												<in>0</in>
												<out>1353</out>
												<start>0</start>
												<end>1353</end>
												<pixelaspectratio>Square</pixelaspectratio>
												<anamorphic>FALSE</anamorphic>
												<alphatype>none</alphatype>
												<masterclipid>ArmA 3 2020.11.14 - 00.42.57.75.mp4</masterclipid>
												<logginginfo>
													<scene />
													<shottake />
													<lognote />
													<good>FALSE</good>
												</logginginfo>
												<labels>
													<label2 />
												</labels>
												<comments>
													<mastercomment1 />
													<mastercomment2 />
													<mastercomment3 />
													<mastercomment4 />
												</comments>
												<file id="ArmA 3 2020.11.14 - 00.42.57.75">
													<name>ArmA 3 2020.11.14 - 00.42.57.75.mp4</name>
													<pathurl>file://localhost/F:/AMVS Russia/NaturaDestruction/PRPACK3/ArmA 3 2020.11.14 - 00.42.57.75.mp4</pathurl>
													<rate>
														<timebase>60</timebase>
														<ntsc>FALSE</ntsc>
													</rate>
													<duration>1353</duration>
													<timecode>
														<rate>
															<timebase>60</timebase>
															<ntsc>FALSE</ntsc>
														</rate>
														<frame>0</frame>
														<displayformat>NDF</displayformat>
														<source>source</source>
													</timecode>
													<media>
														<video>
															<duration>1353</duration>
															<samplecharacteristics>
																<width>1920</width>
																<height>1080</height>
															</samplecharacteristics>
														</video>
														<audio>
															<samplecharacteristics>
																<samplerate>48000</samplerate>
																<depth>32</depth>
															</samplecharacteristics>
															<channelcount>1</channelcount>
														</audio>
														<audio>
															<samplecharacteristics>
																<samplerate>48000</samplerate>
																<depth>32</depth>
															</samplecharacteristics>
															<channelcount>1</channelcount>
														</audio>
													</media>
												</file>
												<sourcetrack>
													<mediatype>video</mediatype>
												</sourcetrack>
												<fielddominance>none</fielddominance>
											</clipitem>
											<enabled>TRUE</enabled>
											<locked>FALSE</locked>
										</track>
									</video>
									<audio>
										<track>
											<clipitem id="ArmA 3 2020.11.14 - 00.42.57.75.mp42">
												<name>ArmA 3 2020.11.14 - 00.42.57.75.mp4</name>
												<duration>1353</duration>
												<rate>
													<ntsc>TRUE</ntsc>
													<timebase>24</timebase>
												</rate>
												<in>0</in>
												<out>1353</out>
												<start>0</start>
												<end>1353</end>
												<masterclipid>ArmA 3 2020.11.14 - 00.42.57.75.mp4</masterclipid>
												<logginginfo>
													<scene />
													<shottake />
													<lognote />
													<good>FALSE</good>
												</logginginfo>
												<labels>
													<label2 />
												</labels>
												<comments>
													<mastercomment1 />
													<mastercomment2 />
													<mastercomment3 />
													<mastercomment4 />
												</comments>
												<file id="ArmA 3 2020.11.14 - 00.42.57.75" />
												<sourcetrack>
													<mediatype>audio</mediatype>
												</sourcetrack>
											</clipitem>
											<enabled>TRUE</enabled>
											<locked>FALSE</locked>
										</track>
										<track>
											<clipitem id="ArmA 3 2020.11.14 - 00.42.57.75.mp43">
												<name>ArmA 3 2020.11.14 - 00.42.57.75.mp4</name>
												<duration>1353</duration>
												<rate>
													<ntsc>TRUE</ntsc>
													<timebase>24</timebase>
												</rate>
												<in>0</in>
												<out>1353</out>
												<start>0</start>
												<end>1353</end>
												<masterclipid>ArmA 3 2020.11.14 - 00.42.57.75.mp4</masterclipid>
												<logginginfo>
													<scene />
													<shottake />
													<lognote />
													<good>FALSE</good>
												</logginginfo>
												<labels>
													<label2 />
												</labels>
												<comments>
													<mastercomment1 />
													<mastercomment2 />
													<mastercomment3 />
													<mastercomment4 />
												</comments>
												<file id="ArmA 3 2020.11.14 - 00.42.57.75" />
												<sourcetrack>
													<mediatype>audio</mediatype>
												</sourcetrack>
											</clipitem>
											<enabled>TRUE</enabled>
											<locked>FALSE</locked>
										</track>
									</audio>
								</media>
							</clip>
							<clip id="ArmA 3 2020.11.14 - 00.44.30.76.mp4">
								<updatebehavior>add</updatebehavior>
								<name>ArmA 3 2020.11.14 - 00.44.30.76.mp4</name>
								<duration>2917</duration>
								<rate>
									<ntsc>FALSE</ntsc>
									<timebase>60</timebase>
								</rate>
								<in>-1</in>
								<out>-1</out>
								<masterclipid>ArmA 3 2020.11.14 - 00.44.30.76.mp4</masterclipid>
								<ismasterclip>TRUE</ismasterclip>
								<logginginfo>
									<scene />
									<shottake />
									<lognote />
									<good>FALSE</good>
								</logginginfo>
								<labels>
									<label2 />
								</labels>
								<comments>
									<mastercomment1 />
									<mastercomment2 />
									<mastercomment3 />
									<mastercomment4 />
								</comments>
								<media>
									<video>
										<track>
											<clipitem id="ArmA 3 2020.11.14 - 00.44.30.76.mp41">
												<name>ArmA 3 2020.11.14 - 00.44.30.76.mp4</name>
												<duration>2917</duration>
												<rate>
													<ntsc>FALSE</ntsc>
													<timebase>60</timebase>
												</rate>
												<in>0</in>
												<out>2917</out>
												<start>0</start>
												<end>2917</end>
												<pixelaspectratio>Square</pixelaspectratio>
												<anamorphic>FALSE</anamorphic>
												<alphatype>none</alphatype>
												<masterclipid>ArmA 3 2020.11.14 - 00.44.30.76.mp4</masterclipid>
												<logginginfo>
													<scene />
													<shottake />
													<lognote />
													<good>FALSE</good>
												</logginginfo>
												<labels>
													<label2 />
												</labels>
												<comments>
													<mastercomment1 />
													<mastercomment2 />
													<mastercomment3 />
													<mastercomment4 />
												</comments>
												<file id="ArmA 3 2020.11.14 - 00.44.30.76">
													<name>ArmA 3 2020.11.14 - 00.44.30.76.mp4</name>
													<pathurl>file://localhost/F:/AMVS Russia/NaturaDestruction/PRPACK2/ArmA 3 2020.11.14 - 00.44.30.76.mp4</pathurl>
													<rate>
														<timebase>60</timebase>
														<ntsc>FALSE</ntsc>
													</rate>
													<duration>2917</duration>
													<timecode>
														<rate>
															<timebase>60</timebase>
															<ntsc>FALSE</ntsc>
														</rate>
														<frame>0</frame>
														<displayformat>NDF</displayformat>
														<source>source</source>
													</timecode>
													<media>
														<video>
															<duration>2917</duration>
															<samplecharacteristics>
																<width>1920</width>
																<height>1080</height>
															</samplecharacteristics>
														</video>
														<audio>
															<samplecharacteristics>
																<samplerate>48000</samplerate>
																<depth>32</depth>
															</samplecharacteristics>
															<channelcount>1</channelcount>
														</audio>
														<audio>
															<samplecharacteristics>
																<samplerate>48000</samplerate>
																<depth>32</depth>
															</samplecharacteristics>
															<channelcount>1</channelcount>
														</audio>
													</media>
												</file>
												<sourcetrack>
													<mediatype>video</mediatype>
												</sourcetrack>
												<fielddominance>none</fielddominance>
											</clipitem>
											<enabled>TRUE</enabled>
											<locked>FALSE</locked>
										</track>
									</video>
									<audio>
										<track>
											<clipitem id="ArmA 3 2020.11.14 - 00.44.30.76.mp42">
												<name>ArmA 3 2020.11.14 - 00.44.30.76.mp4</name>
												<duration>2917</duration>
												<rate>
													<ntsc>TRUE</ntsc>
													<timebase>24</timebase>
												</rate>
												<in>0</in>
												<out>2917</out>
												<start>0</start>
												<end>2917</end>
												<masterclipid>ArmA 3 2020.11.14 - 00.44.30.76.mp4</masterclipid>
												<logginginfo>
													<scene />
													<shottake />
													<lognote />
													<good>FALSE</good>
												</logginginfo>
												<labels>
													<label2 />
												</labels>
												<comments>
													<mastercomment1 />
													<mastercomment2 />
													<mastercomment3 />
													<mastercomment4 />
												</comments>
												<file id="ArmA 3 2020.11.14 - 00.44.30.76" />
												<sourcetrack>
													<mediatype>audio</mediatype>
												</sourcetrack>
											</clipitem>
											<enabled>TRUE</enabled>
											<locked>FALSE</locked>
										</track>
										<track>
											<clipitem id="ArmA 3 2020.11.14 - 00.44.30.76.mp43">
												<name>ArmA 3 2020.11.14 - 00.44.30.76.mp4</name>
												<duration>2917</duration>
												<rate>
													<ntsc>TRUE</ntsc>
													<timebase>24</timebase>
												</rate>
												<in>0</in>
												<out>2917</out>
												<start>0</start>
												<end>2917</end>
												<masterclipid>ArmA 3 2020.11.14 - 00.44.30.76.mp4</masterclipid>
												<logginginfo>
													<scene />
													<shottake />
													<lognote />
													<good>FALSE</good>
												</logginginfo>
												<labels>
													<label2 />
												</labels>
												<comments>
													<mastercomment1 />
													<mastercomment2 />
													<mastercomment3 />
													<mastercomment4 />
												</comments>
												<file id="ArmA 3 2020.11.14 - 00.44.30.76" />
												<sourcetrack>
													<mediatype>audio</mediatype>
												</sourcetrack>
											</clipitem>
											<enabled>TRUE</enabled>
											<locked>FALSE</locked>
										</track>
									</audio>
								</media>
							</clip>
							<clip id="ArmA 3 2020.11.14 - 00.46.39.77.mp4">
								<updatebehavior>add</updatebehavior>
								<name>ArmA 3 2020.11.14 - 00.46.39.77.mp4</name>
								<duration>1515</duration>
								<rate>
									<ntsc>FALSE</ntsc>
									<timebase>60</timebase>
								</rate>
								<in>-1</in>
								<out>-1</out>
								<masterclipid>ArmA 3 2020.11.14 - 00.46.39.77.mp4</masterclipid>
								<ismasterclip>TRUE</ismasterclip>
								<logginginfo>
									<scene />
									<shottake />
									<lognote />
									<good>FALSE</good>
								</logginginfo>
								<labels>
									<label2 />
								</labels>
								<comments>
									<mastercomment1 />
									<mastercomment2 />
									<mastercomment3 />
									<mastercomment4 />
								</comments>
								<media>
									<video>
										<track>
											<clipitem id="ArmA 3 2020.11.14 - 00.46.39.77.mp41">
												<name>ArmA 3 2020.11.14 - 00.46.39.77.mp4</name>
												<duration>1515</duration>
												<rate>
													<ntsc>FALSE</ntsc>
													<timebase>60</timebase>
												</rate>
												<in>0</in>
												<out>1515</out>
												<start>0</start>
												<end>1515</end>
												<pixelaspectratio>Square</pixelaspectratio>
												<anamorphic>FALSE</anamorphic>
												<alphatype>none</alphatype>
												<masterclipid>ArmA 3 2020.11.14 - 00.46.39.77.mp4</masterclipid>
												<logginginfo>
													<scene />
													<shottake />
													<lognote />
													<good>FALSE</good>
												</logginginfo>
												<labels>
													<label2 />
												</labels>
												<comments>
													<mastercomment1 />
													<mastercomment2 />
													<mastercomment3 />
													<mastercomment4 />
												</comments>
												<file id="ArmA 3 2020.11.14 - 00.46.39.77">
													<name>ArmA 3 2020.11.14 - 00.46.39.77.mp4</name>
													<pathurl>file://localhost/F:/AMVS Russia/NaturaDestruction/PRPACK3/ArmA 3 2020.11.14 - 00.46.39.77.mp4</pathurl>
													<rate>
														<timebase>60</timebase>
														<ntsc>FALSE</ntsc>
													</rate>
													<duration>1515</duration>
													<timecode>
														<rate>
															<timebase>60</timebase>
															<ntsc>FALSE</ntsc>
														</rate>
														<frame>0</frame>
														<displayformat>NDF</displayformat>
														<source>source</source>
													</timecode>
													<media>
														<video>
															<duration>1515</duration>
															<samplecharacteristics>
																<width>1920</width>
																<height>1080</height>
															</samplecharacteristics>
														</video>
														<audio>
															<samplecharacteristics>
																<samplerate>48000</samplerate>
																<depth>32</depth>
															</samplecharacteristics>
															<channelcount>1</channelcount>
														</audio>
														<audio>
															<samplecharacteristics>
																<samplerate>48000</samplerate>
																<depth>32</depth>
															</samplecharacteristics>
															<channelcount>1</channelcount>
														</audio>
													</media>
												</file>
												<sourcetrack>
													<mediatype>video</mediatype>
												</sourcetrack>
												<fielddominance>none</fielddominance>
											</clipitem>
											<enabled>TRUE</enabled>
											<locked>FALSE</locked>
										</track>
									</video>
									<audio>
										<track>
											<clipitem id="ArmA 3 2020.11.14 - 00.46.39.77.mp42">
												<name>ArmA 3 2020.11.14 - 00.46.39.77.mp4</name>
												<duration>1515</duration>
												<rate>
													<ntsc>TRUE</ntsc>
													<timebase>24</timebase>
												</rate>
												<in>0</in>
												<out>1515</out>
												<start>0</start>
												<end>1515</end>
												<masterclipid>ArmA 3 2020.11.14 - 00.46.39.77.mp4</masterclipid>
												<logginginfo>
													<scene />
													<shottake />
													<lognote />
													<good>FALSE</good>
												</logginginfo>
												<labels>
													<label2 />
												</labels>
												<comments>
													<mastercomment1 />
													<mastercomment2 />
													<mastercomment3 />
													<mastercomment4 />
												</comments>
												<file id="ArmA 3 2020.11.14 - 00.46.39.77" />
												<sourcetrack>
													<mediatype>audio</mediatype>
												</sourcetrack>
											</clipitem>
											<enabled>TRUE</enabled>
											<locked>FALSE</locked>
										</track>
										<track>
											<clipitem id="ArmA 3 2020.11.14 - 00.46.39.77.mp43">
												<name>ArmA 3 2020.11.14 - 00.46.39.77.mp4</name>
												<duration>1515</duration>
												<rate>
													<ntsc>TRUE</ntsc>
													<timebase>24</timebase>
												</rate>
												<in>0</in>
												<out>1515</out>
												<start>0</start>
												<end>1515</end>
												<masterclipid>ArmA 3 2020.11.14 - 00.46.39.77.mp4</masterclipid>
												<logginginfo>
													<scene />
													<shottake />
													<lognote />
													<good>FALSE</good>
												</logginginfo>
												<labels>
													<label2 />
												</labels>
												<comments>
													<mastercomment1 />
													<mastercomment2 />
													<mastercomment3 />
													<mastercomment4 />
												</comments>
												<file id="ArmA 3 2020.11.14 - 00.46.39.77" />
												<sourcetrack>
													<mediatype>audio</mediatype>
												</sourcetrack>
											</clipitem>
											<enabled>TRUE</enabled>
											<locked>FALSE</locked>
										</track>
									</audio>
								</media>
							</clip>
						</children>
					</bin>
					<bin>
						<updatebehavior>add</updatebehavior>
						<name>Voiceover</name>
						<children>
							<clip id="PR_Scout2_Sc16.ogg">
								<updatebehavior>add</updatebehavior>
								<name>PR_Scout2_Sc16.ogg</name>
								<duration>0</duration>
								<rate>
									<ntsc>TRUE</ntsc>
									<timebase>24</timebase>
								</rate>
								<in>-1</in>
								<out>-1</out>
								<masterclipid>PR_Scout2_Sc16.ogg</masterclipid>
								<ismasterclip>TRUE</ismasterclip>
								<logginginfo>
									<scene />
									<shottake />
									<lognote />
									<good>FALSE</good>
								</logginginfo>
								<labels>
									<label2 />
								</labels>
								<comments>
									<mastercomment1 />
									<mastercomment2 />
									<mastercomment3 />
									<mastercomment4 />
								</comments>
								<media>
									<video />
									<audio />
								</media>
							</clip>
							<clip id="PR_Scout1_Sc16.ogg">
								<updatebehavior>add</updatebehavior>
								<name>PR_Scout1_Sc16.ogg</name>
								<duration>0</duration>
								<rate>
									<ntsc>TRUE</ntsc>
									<timebase>24</timebase>
								</rate>
								<in>-1</in>
								<out>-1</out>
								<masterclipid>PR_Scout1_Sc16.ogg</masterclipid>
								<ismasterclip>TRUE</ismasterclip>
								<logginginfo>
									<scene />
									<shottake />
									<lognote />
									<good>FALSE</good>
								</logginginfo>
								<labels>
									<label2 />
								</labels>
								<comments>
									<mastercomment1 />
									<mastercomment2 />
									<mastercomment3 />
									<mastercomment4 />
								</comments>
								<media>
									<video />
									<audio />
								</media>
							</clip>
							<clip id="PR_eagle6.ogg">
								<updatebehavior>add</updatebehavior>
								<name>PR_eagle6.ogg</name>
								<duration>1126</duration>
								<rate>
									<ntsc>TRUE</ntsc>
									<timebase>24</timebase>
								</rate>
								<in>-1</in>
								<out>-1</out>
								<masterclipid>PR_eagle6.ogg</masterclipid>
								<ismasterclip>TRUE</ismasterclip>
								<logginginfo>
									<scene />
									<shottake />
									<lognote />
									<good>FALSE</good>
								</logginginfo>
								<labels>
									<label2 />
								</labels>
								<comments>
									<mastercomment1 />
									<mastercomment2 />
									<mastercomment3 />
									<mastercomment4 />
								</comments>
								<media>
									<video />
									<audio>
										<track>
											<clipitem id="PR_eagle6.ogg1">
												<name>PR_eagle6.ogg</name>
												<duration>1126</duration>
												<rate>
													<ntsc>TRUE</ntsc>
													<timebase>24</timebase>
												</rate>
												<in>0</in>
												<out>1126</out>
												<start>0</start>
												<end>1126</end>
												<masterclipid>PR_eagle6.ogg</masterclipid>
												<logginginfo>
													<scene />
													<shottake />
													<lognote />
													<good>FALSE</good>
												</logginginfo>
												<labels>
													<label2 />
												</labels>
												<comments>
													<mastercomment1 />
													<mastercomment2 />
													<mastercomment3 />
													<mastercomment4 />
												</comments>
												<file id="PR_eagle6">
													<name>PR_eagle6.ogg</name>
													<pathurl>file://localhost/F:/AMVS Russia/NaturaDestruction/PRPACKVOICES/PR_eagle6.ogg</pathurl>
													<rate>
														<timebase>24</timebase>
														<ntsc>TRUE</ntsc>
													</rate>
													<duration>1126</duration>
													<timecode>
														<rate>
															<timebase>24</timebase>
															<ntsc>TRUE</ntsc>
														</rate>
														<frame>0</frame>
														<displayformat>DF</displayformat>
														<source>source</source>
													</timecode>
													<media>
														<audio>
															<samplecharacteristics>
																<samplerate>48000</samplerate>
																<depth>16</depth>
															</samplecharacteristics>
															<channelcount>1</channelcount>
														</audio>
														<audio>
															<samplecharacteristics>
																<samplerate>48000</samplerate>
																<depth>16</depth>
															</samplecharacteristics>
															<channelcount>1</channelcount>
														</audio>
													</media>
												</file>
												<sourcetrack>
													<mediatype>audio</mediatype>
												</sourcetrack>
											</clipitem>
											<enabled>TRUE</enabled>
											<locked>FALSE</locked>
										</track>
										<track>
											<clipitem id="PR_eagle6.ogg2">
												<name>PR_eagle6.ogg</name>
												<duration>1126</duration>
												<rate>
													<ntsc>TRUE</ntsc>
													<timebase>24</timebase>
												</rate>
												<in>0</in>
												<out>1126</out>
												<start>0</start>
												<end>1126</end>
												<masterclipid>PR_eagle6.ogg</masterclipid>
												<logginginfo>
													<scene />
													<shottake />
													<lognote />
													<good>FALSE</good>
												</logginginfo>
												<labels>
													<label2 />
												</labels>
												<comments>
													<mastercomment1 />
													<mastercomment2 />
													<mastercomment3 />
													<mastercomment4 />
												</comments>
												<file id="PR_eagle6" />
												<sourcetrack>
													<mediatype>audio</mediatype>
												</sourcetrack>
											</clipitem>
											<enabled>TRUE</enabled>
											<locked>FALSE</locked>
										</track>
									</audio>
								</media>
							</clip>
						</children>
					</bin>
					<bin>
						<updatebehavior>add</updatebehavior>
						<name>SFX</name>
						<children />
					</bin>
					<bin>
						<updatebehavior>add</updatebehavior>
						<name>Music</name>
						<children />
					</bin>
				</children>
			</bin>
			<sequence id="Sequence 1">
				<updatebehavior>add</updatebehavior>
				<name>Sequence 1</name>
				<duration>10888</duration>
				<rate>
					<ntsc>TRUE</ntsc>
					<timebase>24</timebase>
				</rate>
				<timecode>
					<rate>
						<ntsc>TRUE</ntsc>
						<timebase>24</timebase>
					</rate>
					<frame>86313</frame>
					<source>source</source>
					<displayformat>DF</displayformat>
				</timecode>
				<in>-1</in>
				<out>-1</out>
				<media>
					<video>
						<format>
							<samplecharacteristics>
								<width>1920</width>
								<height>1080</height>
								<pixelaspectratio>Square</pixelaspectratio>
								<anamorphic>FALSE</anamorphic>
								<fielddominance>none</fielddominance>
								<rate>
									<ntsc>TRUE</ntsc>
									<timebase>24</timebase>
								</rate>
								<colordepth>24</colordepth>
								<codec>
									<appspecificdata>
										<data>
											<qtcodec>
												<codectypecode>avc1</codectypecode>
											</qtcodec>
										</data>
										<appname>Final Cut Pro</appname>
										<appmanufacturer>Apple Inc.</appmanufacturer>
										<appversion>7.0</appversion>
									</appspecificdata>
								</codec>
							</samplecharacteristics>
						</format>
						<track>
							<clipitem id="ArmA 3 2020.11.14 - 00.28.44.69.mp4805307592">
								<name>ArmA 3 2020.11.14 - 00.28.44.69.mp4</name>
								<duration>304</duration>
								<rate>
									<ntsc>FALSE</ntsc>
									<timebase>60</timebase>
								</rate>
								<in>0</in>
								<out>304</out>
								<start>0</start>
								<end>304</end>
								<pixelaspectratio>Square</pixelaspectratio>
								<anamorphic>FALSE</anamorphic>
								<alphatype>none</alphatype>
								<masterclipid>ArmA 3 2020.11.14 - 00.28.44.69.mp4</masterclipid>
								<logginginfo>
									<scene />
									<shottake />
									<lognote />
									<good>FALSE</good>
								</logginginfo>
								<labels>
									<label2 />
								</labels>
								<comments>
									<mastercomment1 />
									<mastercomment2 />
									<mastercomment3 />
									<mastercomment4 />
								</comments>
								<file id="ArmA 3 2020.11.14 - 00.28.44.69" />
								<filter>
									<effect>
										<name>Opacity</name>
										<effectid>opacity</effectid>
										<effectcategory>motion</effectcategory>
										<effecttype>motion</effecttype>
										<mediatype>video</mediatype>
										<parameter>
											<name>opacity</name>
											<parameterid>opacity</parameterid>
											<valuemin>0</valuemin>
											<valuemax>100</valuemax>
											<value>100</value>
										</parameter>
									</effect>
								</filter>
								<sourcetrack>
									<mediatype>video</mediatype>
								</sourcetrack>
								<link>
									<linkclipref>ArmA 3 2020.11.14 - 00.28.44.69.mp4805307592</linkclipref>
								</link>
								<link>
									<linkclipref>ArmA 3 2020.11.14 - 00.28.44.69.mp4536872137</linkclipref>
								</link>
								<link>
									<linkclipref>ArmA 3 2020.11.14 - 00.28.44.69.mp45368721371</linkclipref>
								</link>
								<link>
									<linkclipref>ArmA 3 2020.11.14 - 00.28.44.69.mp4536872138</linkclipref>
								</link>
								<link>
									<linkclipref>ArmA 3 2020.11.14 - 00.28.44.69.mp45368721381</linkclipref>
								</link>
								<fielddominance>none</fielddominance>
							</clipitem>
							<clipitem id="ArmA 3 2020.11.14 - 00.29.10.70.mp4805307595">
								<name>ArmA 3 2020.11.14 - 00.29.10.70.mp4</name>
								<duration>1838</duration>
								<rate>
									<ntsc>FALSE</ntsc>
									<timebase>60</timebase>
								</rate>
								<in>0</in>
								<out>1838</out>
								<start>305</start>
								<end>2143</end>
								<pixelaspectratio>Square</pixelaspectratio>
								<anamorphic>FALSE</anamorphic>
								<alphatype>none</alphatype>
								<masterclipid>ArmA 3 2020.11.14 - 00.29.10.70.mp4</masterclipid>
								<logginginfo>
									<scene />
									<shottake />
									<lognote />
									<good>FALSE</good>
								</logginginfo>
								<labels>
									<label2 />
								</labels>
								<comments>
									<mastercomment1 />
									<mastercomment2 />
									<mastercomment3 />
									<mastercomment4 />
								</comments>
								<file id="ArmA 3 2020.11.14 - 00.29.10.70" />
								<filter>
									<effect>
										<name>Opacity</name>
										<effectid>opacity</effectid>
										<effectcategory>motion</effectcategory>
										<effecttype>motion</effecttype>
										<mediatype>video</mediatype>
										<parameter>
											<name>opacity</name>
											<parameterid>opacity</parameterid>
											<valuemin>0</valuemin>
											<valuemax>100</valuemax>
											<value>100</value>
										</parameter>
									</effect>
								</filter>
								<sourcetrack>
									<mediatype>video</mediatype>
								</sourcetrack>
								<link>
									<linkclipref>ArmA 3 2020.11.14 - 00.29.10.70.mp4805307595</linkclipref>
								</link>
								<link>
									<linkclipref>ArmA 3 2020.11.14 - 00.29.10.70.mp4536872140</linkclipref>
								</link>
								<link>
									<linkclipref>ArmA 3 2020.11.14 - 00.29.10.70.mp45368721401</linkclipref>
								</link>
								<link>
									<linkclipref>ArmA 3 2020.11.14 - 00.29.10.70.mp4536872141</linkclipref>
								</link>
								<link>
									<linkclipref>ArmA 3 2020.11.14 - 00.29.10.70.mp45368721411</linkclipref>
								</link>
								<fielddominance>none</fielddominance>
							</clipitem>
							<clipitem id="ArmA 3 2020.11.14 - 00.30.52.71.mp4805307598">
								<name>ArmA 3 2020.11.14 - 00.30.52.71.mp4</name>
								<duration>933</duration>
								<rate>
									<ntsc>FALSE</ntsc>
									<timebase>60</timebase>
								</rate>
								<in>0</in>
								<out>933</out>
								<start>2144</start>
								<end>3077</end>
								<pixelaspectratio>Square</pixelaspectratio>
								<anamorphic>FALSE</anamorphic>
								<alphatype>none</alphatype>
								<masterclipid>ArmA 3 2020.11.14 - 00.30.52.71.mp4</masterclipid>
								<logginginfo>
									<scene />
									<shottake />
									<lognote />
									<good>FALSE</good>
								</logginginfo>
								<labels>
									<label2 />
								</labels>
								<comments>
									<mastercomment1 />
									<mastercomment2 />
									<mastercomment3 />
									<mastercomment4 />
								</comments>
								<file id="ArmA 3 2020.11.14 - 00.30.52.71" />
								<filter>
									<effect>
										<name>Opacity</name>
										<effectid>opacity</effectid>
										<effectcategory>motion</effectcategory>
										<effecttype>motion</effecttype>
										<mediatype>video</mediatype>
										<parameter>
											<name>opacity</name>
											<parameterid>opacity</parameterid>
											<valuemin>0</valuemin>
											<valuemax>100</valuemax>
											<value>100</value>
										</parameter>
									</effect>
								</filter>
								<sourcetrack>
									<mediatype>video</mediatype>
								</sourcetrack>
								<link>
									<linkclipref>ArmA 3 2020.11.14 - 00.30.52.71.mp4805307598</linkclipref>
								</link>
								<link>
									<linkclipref>ArmA 3 2020.11.14 - 00.30.52.71.mp4536872143</linkclipref>
								</link>
								<link>
									<linkclipref>ArmA 3 2020.11.14 - 00.30.52.71.mp45368721431</linkclipref>
								</link>
								<link>
									<linkclipref>ArmA 3 2020.11.14 - 00.30.52.71.mp4536872144</linkclipref>
								</link>
								<link>
									<linkclipref>ArmA 3 2020.11.14 - 00.30.52.71.mp45368721441</linkclipref>
								</link>
								<fielddominance>none</fielddominance>
							</clipitem>
							<clipitem id="ArmA 3 2020.11.14 - 00.32.09.72.mp4805307601">
								<name>ArmA 3 2020.11.14 - 00.32.09.72.mp4</name>
								<duration>1258</duration>
								<rate>
									<ntsc>FALSE</ntsc>
									<timebase>60</timebase>
								</rate>
								<in>0</in>
								<out>1258</out>
								<start>3078</start>
								<end>4336</end>
								<pixelaspectratio>Square</pixelaspectratio>
								<anamorphic>FALSE</anamorphic>
								<alphatype>none</alphatype>
								<masterclipid>ArmA 3 2020.11.14 - 00.32.09.72.mp4</masterclipid>
								<logginginfo>
									<scene />
									<shottake />
									<lognote />
									<good>FALSE</good>
								</logginginfo>
								<labels>
									<label2 />
								</labels>
								<comments>
									<mastercomment1 />
									<mastercomment2 />
									<mastercomment3 />
									<mastercomment4 />
								</comments>
								<file id="ArmA 3 2020.11.14 - 00.32.09.72" />
								<filter>
									<effect>
										<name>Opacity</name>
										<effectid>opacity</effectid>
										<effectcategory>motion</effectcategory>
										<effecttype>motion</effecttype>
										<mediatype>video</mediatype>
										<parameter>
											<name>opacity</name>
											<parameterid>opacity</parameterid>
											<valuemin>0</valuemin>
											<valuemax>100</valuemax>
											<value>100</value>
										</parameter>
									</effect>
								</filter>
								<sourcetrack>
									<mediatype>video</mediatype>
								</sourcetrack>
								<link>
									<linkclipref>ArmA 3 2020.11.14 - 00.32.09.72.mp4805307601</linkclipref>
								</link>
								<link>
									<linkclipref>ArmA 3 2020.11.14 - 00.32.09.72.mp4536872146</linkclipref>
								</link>
								<link>
									<linkclipref>ArmA 3 2020.11.14 - 00.32.09.72.mp45368721461</linkclipref>
								</link>
								<link>
									<linkclipref>ArmA 3 2020.11.14 - 00.32.09.72.mp4536872147</linkclipref>
								</link>
								<link>
									<linkclipref>ArmA 3 2020.11.14 - 00.32.09.72.mp45368721471</linkclipref>
								</link>
								<fielddominance>none</fielddominance>
							</clipitem>
							<clipitem id="ArmA 3 2020.11.14 - 00.34.30.73.mp4805307604">
								<name>ArmA 3 2020.11.14 - 00.34.30.73.mp4</name>
								<duration>2159</duration>
								<rate>
									<ntsc>FALSE</ntsc>
									<timebase>60</timebase>
								</rate>
								<in>0</in>
								<out>2159</out>
								<start>4337</start>
								<end>6496</end>
								<pixelaspectratio>Square</pixelaspectratio>
								<anamorphic>FALSE</anamorphic>
								<alphatype>none</alphatype>
								<masterclipid>ArmA 3 2020.11.14 - 00.34.30.73.mp4</masterclipid>
								<logginginfo>
									<scene />
									<shottake />
									<lognote />
									<good>FALSE</good>
								</logginginfo>
								<labels>
									<label2 />
								</labels>
								<comments>
									<mastercomment1 />
									<mastercomment2 />
									<mastercomment3 />
									<mastercomment4 />
								</comments>
								<file id="ArmA 3 2020.11.14 - 00.34.30.73" />
								<filter>
									<effect>
										<name>Opacity</name>
										<effectid>opacity</effectid>
										<effectcategory>motion</effectcategory>
										<effecttype>motion</effecttype>
										<mediatype>video</mediatype>
										<parameter>
											<name>opacity</name>
											<parameterid>opacity</parameterid>
											<valuemin>0</valuemin>
											<valuemax>100</valuemax>
											<value>100</value>
										</parameter>
									</effect>
								</filter>
								<sourcetrack>
									<mediatype>video</mediatype>
								</sourcetrack>
								<link>
									<linkclipref>ArmA 3 2020.11.14 - 00.34.30.73.mp4805307604</linkclipref>
								</link>
								<link>
									<linkclipref>ArmA 3 2020.11.14 - 00.34.30.73.mp4536872149</linkclipref>
								</link>
								<link>
									<linkclipref>ArmA 3 2020.11.14 - 00.34.30.73.mp45368721491</linkclipref>
								</link>
								<link>
									<linkclipref>ArmA 3 2020.11.14 - 00.34.30.73.mp4536872150</linkclipref>
								</link>
								<link>
									<linkclipref>ArmA 3 2020.11.14 - 00.34.30.73.mp45368721501</linkclipref>
								</link>
								<fielddominance>none</fielddominance>
							</clipitem>
							<clipitem id="ArmA 3 2020.11.14 - 00.39.58.74.mp4805307607">
								<name>ArmA 3 2020.11.14 - 00.39.58.74.mp4</name>
								<duration>1182</duration>
								<rate>
									<ntsc>FALSE</ntsc>
									<timebase>60</timebase>
								</rate>
								<in>0</in>
								<out>1182</out>
								<start>6497</start>
								<end>7679</end>
								<pixelaspectratio>Square</pixelaspectratio>
								<anamorphic>FALSE</anamorphic>
								<alphatype>none</alphatype>
								<masterclipid>ArmA 3 2020.11.14 - 00.39.58.74.mp4</masterclipid>
								<logginginfo>
									<scene />
									<shottake />
									<lognote />
									<good>FALSE</good>
								</logginginfo>
								<labels>
									<label2 />
								</labels>
								<comments>
									<mastercomment1 />
									<mastercomment2 />
									<mastercomment3 />
									<mastercomment4 />
								</comments>
								<file id="ArmA 3 2020.11.14 - 00.39.58.74" />
								<filter>
									<effect>
										<name>Opacity</name>
										<effectid>opacity</effectid>
										<effectcategory>motion</effectcategory>
										<effecttype>motion</effecttype>
										<mediatype>video</mediatype>
										<parameter>
											<name>opacity</name>
											<parameterid>opacity</parameterid>
											<valuemin>0</valuemin>
											<valuemax>100</valuemax>
											<value>100</value>
										</parameter>
									</effect>
								</filter>
								<sourcetrack>
									<mediatype>video</mediatype>
								</sourcetrack>
								<link>
									<linkclipref>ArmA 3 2020.11.14 - 00.39.58.74.mp4805307607</linkclipref>
								</link>
								<link>
									<linkclipref>ArmA 3 2020.11.14 - 00.39.58.74.mp4536872152</linkclipref>
								</link>
								<link>
									<linkclipref>ArmA 3 2020.11.14 - 00.39.58.74.mp45368721521</linkclipref>
								</link>
								<link>
									<linkclipref>ArmA 3 2020.11.14 - 00.39.58.74.mp4536872153</linkclipref>
								</link>
								<link>
									<linkclipref>ArmA 3 2020.11.14 - 00.39.58.74.mp45368721531</linkclipref>
								</link>
								<fielddominance>none</fielddominance>
							</clipitem>
							<clipitem id="ArmA 3 2020.11.14 - 00.42.57.75.mp4805307610">
								<name>ArmA 3 2020.11.14 - 00.42.57.75.mp4</name>
								<duration>1353</duration>
								<rate>
									<ntsc>FALSE</ntsc>
									<timebase>60</timebase>
								</rate>
								<in>0</in>
								<out>1353</out>
								<start>7680</start>
								<end>9033</end>
								<pixelaspectratio>Square</pixelaspectratio>
								<anamorphic>FALSE</anamorphic>
								<alphatype>none</alphatype>
								<masterclipid>ArmA 3 2020.11.14 - 00.42.57.75.mp4</masterclipid>
								<logginginfo>
									<scene />
									<shottake />
									<lognote />
									<good>FALSE</good>
								</logginginfo>
								<labels>
									<label2 />
								</labels>
								<comments>
									<mastercomment1 />
									<mastercomment2 />
									<mastercomment3 />
									<mastercomment4 />
								</comments>
								<file id="ArmA 3 2020.11.14 - 00.42.57.75" />
								<filter>
									<effect>
										<name>Opacity</name>
										<effectid>opacity</effectid>
										<effectcategory>motion</effectcategory>
										<effecttype>motion</effecttype>
										<mediatype>video</mediatype>
										<parameter>
											<name>opacity</name>
											<parameterid>opacity</parameterid>
											<valuemin>0</valuemin>
											<valuemax>100</valuemax>
											<value>100</value>
										</parameter>
									</effect>
								</filter>
								<sourcetrack>
									<mediatype>video</mediatype>
								</sourcetrack>
								<link>
									<linkclipref>ArmA 3 2020.11.14 - 00.42.57.75.mp4805307610</linkclipref>
								</link>
								<link>
									<linkclipref>ArmA 3 2020.11.14 - 00.42.57.75.mp4536872155</linkclipref>
								</link>
								<link>
									<linkclipref>ArmA 3 2020.11.14 - 00.42.57.75.mp45368721551</linkclipref>
								</link>
								<link>
									<linkclipref>ArmA 3 2020.11.14 - 00.42.57.75.mp4536872156</linkclipref>
								</link>
								<link>
									<linkclipref>ArmA 3 2020.11.14 - 00.42.57.75.mp45368721561</linkclipref>
								</link>
								<fielddominance>none</fielddominance>
							</clipitem>
							<clipitem id="ArmA 3 2020.11.14 - 00.44.30.76.mp4805307613">
								<name>ArmA 3 2020.11.14 - 00.44.30.76.mp4</name>
								<duration>338</duration>
								<rate>
									<ntsc>FALSE</ntsc>
									<timebase>60</timebase>
								</rate>
								<in>1120</in>
								<out>1458</out>
								<start>9034</start>
								<end>9372</end>
								<pixelaspectratio>Square</pixelaspectratio>
								<anamorphic>FALSE</anamorphic>
								<alphatype>none</alphatype>
								<masterclipid>ArmA 3 2020.11.14 - 00.44.30.76.mp4</masterclipid>
								<logginginfo>
									<scene />
									<shottake />
									<lognote />
									<good>FALSE</good>
								</logginginfo>
								<labels>
									<label2 />
								</labels>
								<comments>
									<mastercomment1 />
									<mastercomment2 />
									<mastercomment3 />
									<mastercomment4 />
								</comments>
								<file id="ArmA 3 2020.11.14 - 00.44.30.76" />
								<filter>
									<effect>
										<name>Opacity</name>
										<effectid>opacity</effectid>
										<effectcategory>motion</effectcategory>
										<effecttype>motion</effecttype>
										<mediatype>video</mediatype>
										<parameter>
											<name>opacity</name>
											<parameterid>opacity</parameterid>
											<valuemin>0</valuemin>
											<valuemax>100</valuemax>
											<value>100</value>
										</parameter>
									</effect>
								</filter>
								<sourcetrack>
									<mediatype>video</mediatype>
								</sourcetrack>
								<link>
									<linkclipref>ArmA 3 2020.11.14 - 00.44.30.76.mp4805307613</linkclipref>
								</link>
								<link>
									<linkclipref>ArmA 3 2020.11.14 - 00.44.30.76.mp4536872158</linkclipref>
								</link>
								<link>
									<linkclipref>ArmA 3 2020.11.14 - 00.44.30.76.mp45368721581</linkclipref>
								</link>
								<link>
									<linkclipref>ArmA 3 2020.11.14 - 00.44.30.76.mp4536872159</linkclipref>
								</link>
								<link>
									<linkclipref>ArmA 3 2020.11.14 - 00.44.30.76.mp45368721591</linkclipref>
								</link>
								<fielddominance>none</fielddominance>
							</clipitem>
							<clipitem id="ArmA 3 2020.11.14 - 00.46.39.77.mp4805307616">
								<name>ArmA 3 2020.11.14 - 00.46.39.77.mp4</name>
								<duration>1515</duration>
								<rate>
									<ntsc>FALSE</ntsc>
									<timebase>60</timebase>
								</rate>
								<in>0</in>
								<out>1515</out>
								<start>9373</start>
								<end>10888</end>
								<pixelaspectratio>Square</pixelaspectratio>
								<anamorphic>FALSE</anamorphic>
								<alphatype>none</alphatype>
								<masterclipid>ArmA 3 2020.11.14 - 00.46.39.77.mp4</masterclipid>
								<logginginfo>
									<scene />
									<shottake />
									<lognote />
									<good>FALSE</good>
								</logginginfo>
								<labels>
									<label2 />
								</labels>
								<comments>
									<mastercomment1 />
									<mastercomment2 />
									<mastercomment3 />
									<mastercomment4 />
								</comments>
								<file id="ArmA 3 2020.11.14 - 00.46.39.77" />
								<filter>
									<effect>
										<name>Opacity</name>
										<effectid>opacity</effectid>
										<effectcategory>motion</effectcategory>
										<effecttype>motion</effecttype>
										<mediatype>video</mediatype>
										<parameter>
											<name>opacity</name>
											<parameterid>opacity</parameterid>
											<valuemin>0</valuemin>
											<valuemax>100</valuemax>
											<value>100</value>
										</parameter>
									</effect>
								</filter>
								<sourcetrack>
									<mediatype>video</mediatype>
								</sourcetrack>
								<link>
									<linkclipref>ArmA 3 2020.11.14 - 00.46.39.77.mp4805307616</linkclipref>
								</link>
								<link>
									<linkclipref>ArmA 3 2020.11.14 - 00.46.39.77.mp4536872161</linkclipref>
								</link>
								<link>
									<linkclipref>ArmA 3 2020.11.14 - 00.46.39.77.mp45368721611</linkclipref>
								</link>
								<link>
									<linkclipref>ArmA 3 2020.11.14 - 00.46.39.77.mp4536872162</linkclipref>
								</link>
								<link>
									<linkclipref>ArmA 3 2020.11.14 - 00.46.39.77.mp45368721621</linkclipref>
								</link>
								<fielddominance>none</fielddominance>
							</clipitem>
						</track>
					</video>
					<audio>
						<track>
							<clipitem id="ArmA 3 2020.11.14 - 00.28.44.69.mp4536872138">
								<name>ArmA 3 2020.11.14 - 00.28.44.69.mp4</name>
								<duration>304</duration>
								<rate>
									<ntsc>TRUE</ntsc>
									<timebase>24</timebase>
								</rate>
								<in>0</in>
								<out>304</out>
								<start>0</start>
								<end>304</end>
								<enabled>FALSE</enabled>
								<masterclipid>ArmA 3 2020.11.14 - 00.28.44.69.mp4</masterclipid>
								<logginginfo>
									<scene />
									<shottake />
									<lognote />
									<good>FALSE</good>
								</logginginfo>
								<labels>
									<label2 />
								</labels>
								<comments>
									<mastercomment1 />
									<mastercomment2 />
									<mastercomment3 />
									<mastercomment4 />
								</comments>
								<file id="ArmA 3 2020.11.14 - 00.28.44.69" />
								<filter>
									<effect>
										<name>Audio Levels</name>
										<effectid>audiolevels</effectid>
										<effectcategory>audiolevels</effectcategory>
										<effecttype>audiolevels</effecttype>
										<mediatype>audio</mediatype>
										<parameter>
											<name>Level</name>
											<parameterid>level</parameterid>
											<valuemin>0</valuemin>
											<valuemax>3,98109</valuemax>
											<value>1</value>
										</parameter>
									</effect>
								</filter>
								<filter>
									<effect>
										<name>Audio Pan</name>
										<effectid>audiopan</effectid>
										<effectcategory>audiopan</effectcategory>
										<effecttype>audiopan</effecttype>
										<mediatype>audio</mediatype>
										<parameter>
											<name>Pan</name>
											<parameterid>pan</parameterid>
											<valuemin>-1</valuemin>
											<valuemax>1</valuemax>
											<value>-1</value>
										</parameter>
									</effect>
								</filter>
								<sourcetrack>
									<mediatype>audio</mediatype>
									<trackindex>1</trackindex>
								</sourcetrack>
								<link>
									<linkclipref>ArmA 3 2020.11.14 - 00.28.44.69.mp4805307592</linkclipref>
								</link>
								<link>
									<linkclipref>ArmA 3 2020.11.14 - 00.28.44.69.mp4536872137</linkclipref>
								</link>
								<link>
									<linkclipref>ArmA 3 2020.11.14 - 00.28.44.69.mp45368721371</linkclipref>
								</link>
								<link>
									<linkclipref>ArmA 3 2020.11.14 - 00.28.44.69.mp4536872138</linkclipref>
								</link>
								<link>
									<linkclipref>ArmA 3 2020.11.14 - 00.28.44.69.mp45368721381</linkclipref>
								</link>
							</clipitem>
							<clipitem id="ArmA 3 2020.11.14 - 00.29.10.70.mp4536872141">
								<name>ArmA 3 2020.11.14 - 00.29.10.70.mp4</name>
								<duration>1838</duration>
								<rate>
									<ntsc>TRUE</ntsc>
									<timebase>24</timebase>
								</rate>
								<in>0</in>
								<out>1838</out>
								<start>305</start>
								<end>2143</end>
								<enabled>FALSE</enabled>
								<masterclipid>ArmA 3 2020.11.14 - 00.29.10.70.mp4</masterclipid>
								<logginginfo>
									<scene />
									<shottake />
									<lognote />
									<good>FALSE</good>
								</logginginfo>
								<labels>
									<label2 />
								</labels>
								<comments>
									<mastercomment1 />
									<mastercomment2 />
									<mastercomment3 />
									<mastercomment4 />
								</comments>
								<file id="ArmA 3 2020.11.14 - 00.29.10.70" />
								<filter>
									<effect>
										<name>Audio Levels</name>
										<effectid>audiolevels</effectid>
										<effectcategory>audiolevels</effectcategory>
										<effecttype>audiolevels</effecttype>
										<mediatype>audio</mediatype>
										<parameter>
											<name>Level</name>
											<parameterid>level</parameterid>
											<valuemin>0</valuemin>
											<valuemax>3,98109</valuemax>
											<value>1</value>
										</parameter>
									</effect>
								</filter>
								<filter>
									<effect>
										<name>Audio Pan</name>
										<effectid>audiopan</effectid>
										<effectcategory>audiopan</effectcategory>
										<effecttype>audiopan</effecttype>
										<mediatype>audio</mediatype>
										<parameter>
											<name>Pan</name>
											<parameterid>pan</parameterid>
											<valuemin>-1</valuemin>
											<valuemax>1</valuemax>
											<value>-1</value>
										</parameter>
									</effect>
								</filter>
								<sourcetrack>
									<mediatype>audio</mediatype>
									<trackindex>1</trackindex>
								</sourcetrack>
								<link>
									<linkclipref>ArmA 3 2020.11.14 - 00.29.10.70.mp4805307595</linkclipref>
								</link>
								<link>
									<linkclipref>ArmA 3 2020.11.14 - 00.29.10.70.mp4536872140</linkclipref>
								</link>
								<link>
									<linkclipref>ArmA 3 2020.11.14 - 00.29.10.70.mp45368721401</linkclipref>
								</link>
								<link>
									<linkclipref>ArmA 3 2020.11.14 - 00.29.10.70.mp4536872141</linkclipref>
								</link>
								<link>
									<linkclipref>ArmA 3 2020.11.14 - 00.29.10.70.mp45368721411</linkclipref>
								</link>
							</clipitem>
							<clipitem id="ArmA 3 2020.11.14 - 00.30.52.71.mp4536872144">
								<name>ArmA 3 2020.11.14 - 00.30.52.71.mp4</name>
								<duration>933</duration>
								<rate>
									<ntsc>TRUE</ntsc>
									<timebase>24</timebase>
								</rate>
								<in>0</in>
								<out>933</out>
								<start>2144</start>
								<end>3077</end>
								<enabled>FALSE</enabled>
								<masterclipid>ArmA 3 2020.11.14 - 00.30.52.71.mp4</masterclipid>
								<logginginfo>
									<scene />
									<shottake />
									<lognote />
									<good>FALSE</good>
								</logginginfo>
								<labels>
									<label2 />
								</labels>
								<comments>
									<mastercomment1 />
									<mastercomment2 />
									<mastercomment3 />
									<mastercomment4 />
								</comments>
								<file id="ArmA 3 2020.11.14 - 00.30.52.71" />
								<filter>
									<effect>
										<name>Audio Levels</name>
										<effectid>audiolevels</effectid>
										<effectcategory>audiolevels</effectcategory>
										<effecttype>audiolevels</effecttype>
										<mediatype>audio</mediatype>
										<parameter>
											<name>Level</name>
											<parameterid>level</parameterid>
											<valuemin>0</valuemin>
											<valuemax>3,98109</valuemax>
											<value>1</value>
										</parameter>
									</effect>
								</filter>
								<filter>
									<effect>
										<name>Audio Pan</name>
										<effectid>audiopan</effectid>
										<effectcategory>audiopan</effectcategory>
										<effecttype>audiopan</effecttype>
										<mediatype>audio</mediatype>
										<parameter>
											<name>Pan</name>
											<parameterid>pan</parameterid>
											<valuemin>-1</valuemin>
											<valuemax>1</valuemax>
											<value>-1</value>
										</parameter>
									</effect>
								</filter>
								<sourcetrack>
									<mediatype>audio</mediatype>
									<trackindex>1</trackindex>
								</sourcetrack>
								<link>
									<linkclipref>ArmA 3 2020.11.14 - 00.30.52.71.mp4805307598</linkclipref>
								</link>
								<link>
									<linkclipref>ArmA 3 2020.11.14 - 00.30.52.71.mp4536872143</linkclipref>
								</link>
								<link>
									<linkclipref>ArmA 3 2020.11.14 - 00.30.52.71.mp45368721431</linkclipref>
								</link>
								<link>
									<linkclipref>ArmA 3 2020.11.14 - 00.30.52.71.mp4536872144</linkclipref>
								</link>
								<link>
									<linkclipref>ArmA 3 2020.11.14 - 00.30.52.71.mp45368721441</linkclipref>
								</link>
							</clipitem>
							<clipitem id="ArmA 3 2020.11.14 - 00.32.09.72.mp4536872147">
								<name>ArmA 3 2020.11.14 - 00.32.09.72.mp4</name>
								<duration>1258</duration>
								<rate>
									<ntsc>TRUE</ntsc>
									<timebase>24</timebase>
								</rate>
								<in>0</in>
								<out>1258</out>
								<start>3078</start>
								<end>4336</end>
								<enabled>FALSE</enabled>
								<masterclipid>ArmA 3 2020.11.14 - 00.32.09.72.mp4</masterclipid>
								<logginginfo>
									<scene />
									<shottake />
									<lognote />
									<good>FALSE</good>
								</logginginfo>
								<labels>
									<label2 />
								</labels>
								<comments>
									<mastercomment1 />
									<mastercomment2 />
									<mastercomment3 />
									<mastercomment4 />
								</comments>
								<file id="ArmA 3 2020.11.14 - 00.32.09.72" />
								<filter>
									<effect>
										<name>Audio Levels</name>
										<effectid>audiolevels</effectid>
										<effectcategory>audiolevels</effectcategory>
										<effecttype>audiolevels</effecttype>
										<mediatype>audio</mediatype>
										<parameter>
											<name>Level</name>
											<parameterid>level</parameterid>
											<valuemin>0</valuemin>
											<valuemax>3,98109</valuemax>
											<value>1</value>
										</parameter>
									</effect>
								</filter>
								<filter>
									<effect>
										<name>Audio Pan</name>
										<effectid>audiopan</effectid>
										<effectcategory>audiopan</effectcategory>
										<effecttype>audiopan</effecttype>
										<mediatype>audio</mediatype>
										<parameter>
											<name>Pan</name>
											<parameterid>pan</parameterid>
											<valuemin>-1</valuemin>
											<valuemax>1</valuemax>
											<value>-1</value>
										</parameter>
									</effect>
								</filter>
								<sourcetrack>
									<mediatype>audio</mediatype>
									<trackindex>1</trackindex>
								</sourcetrack>
								<link>
									<linkclipref>ArmA 3 2020.11.14 - 00.32.09.72.mp4805307601</linkclipref>
								</link>
								<link>
									<linkclipref>ArmA 3 2020.11.14 - 00.32.09.72.mp4536872146</linkclipref>
								</link>
								<link>
									<linkclipref>ArmA 3 2020.11.14 - 00.32.09.72.mp45368721461</linkclipref>
								</link>
								<link>
									<linkclipref>ArmA 3 2020.11.14 - 00.32.09.72.mp4536872147</linkclipref>
								</link>
								<link>
									<linkclipref>ArmA 3 2020.11.14 - 00.32.09.72.mp45368721471</linkclipref>
								</link>
							</clipitem>
							<clipitem id="ArmA 3 2020.11.14 - 00.34.30.73.mp4536872150">
								<name>ArmA 3 2020.11.14 - 00.34.30.73.mp4</name>
								<duration>2159</duration>
								<rate>
									<ntsc>TRUE</ntsc>
									<timebase>24</timebase>
								</rate>
								<in>0</in>
								<out>2159</out>
								<start>4337</start>
								<end>6496</end>
								<enabled>FALSE</enabled>
								<masterclipid>ArmA 3 2020.11.14 - 00.34.30.73.mp4</masterclipid>
								<logginginfo>
									<scene />
									<shottake />
									<lognote />
									<good>FALSE</good>
								</logginginfo>
								<labels>
									<label2 />
								</labels>
								<comments>
									<mastercomment1 />
									<mastercomment2 />
									<mastercomment3 />
									<mastercomment4 />
								</comments>
								<file id="ArmA 3 2020.11.14 - 00.34.30.73" />
								<filter>
									<effect>
										<name>Audio Levels</name>
										<effectid>audiolevels</effectid>
										<effectcategory>audiolevels</effectcategory>
										<effecttype>audiolevels</effecttype>
										<mediatype>audio</mediatype>
										<parameter>
											<name>Level</name>
											<parameterid>level</parameterid>
											<valuemin>0</valuemin>
											<valuemax>3,98109</valuemax>
											<value>1</value>
										</parameter>
									</effect>
								</filter>
								<filter>
									<effect>
										<name>Audio Pan</name>
										<effectid>audiopan</effectid>
										<effectcategory>audiopan</effectcategory>
										<effecttype>audiopan</effecttype>
										<mediatype>audio</mediatype>
										<parameter>
											<name>Pan</name>
											<parameterid>pan</parameterid>
											<valuemin>-1</valuemin>
											<valuemax>1</valuemax>
											<value>-1</value>
										</parameter>
									</effect>
								</filter>
								<sourcetrack>
									<mediatype>audio</mediatype>
									<trackindex>1</trackindex>
								</sourcetrack>
								<link>
									<linkclipref>ArmA 3 2020.11.14 - 00.34.30.73.mp4805307604</linkclipref>
								</link>
								<link>
									<linkclipref>ArmA 3 2020.11.14 - 00.34.30.73.mp4536872149</linkclipref>
								</link>
								<link>
									<linkclipref>ArmA 3 2020.11.14 - 00.34.30.73.mp45368721491</linkclipref>
								</link>
								<link>
									<linkclipref>ArmA 3 2020.11.14 - 00.34.30.73.mp4536872150</linkclipref>
								</link>
								<link>
									<linkclipref>ArmA 3 2020.11.14 - 00.34.30.73.mp45368721501</linkclipref>
								</link>
							</clipitem>
							<clipitem id="ArmA 3 2020.11.14 - 00.39.58.74.mp4536872153">
								<name>ArmA 3 2020.11.14 - 00.39.58.74.mp4</name>
								<duration>1182</duration>
								<rate>
									<ntsc>TRUE</ntsc>
									<timebase>24</timebase>
								</rate>
								<in>0</in>
								<out>1182</out>
								<start>6497</start>
								<end>7679</end>
								<enabled>FALSE</enabled>
								<masterclipid>ArmA 3 2020.11.14 - 00.39.58.74.mp4</masterclipid>
								<logginginfo>
									<scene />
									<shottake />
									<lognote />
									<good>FALSE</good>
								</logginginfo>
								<labels>
									<label2 />
								</labels>
								<comments>
									<mastercomment1 />
									<mastercomment2 />
									<mastercomment3 />
									<mastercomment4 />
								</comments>
								<file id="ArmA 3 2020.11.14 - 00.39.58.74" />
								<filter>
									<effect>
										<name>Audio Levels</name>
										<effectid>audiolevels</effectid>
										<effectcategory>audiolevels</effectcategory>
										<effecttype>audiolevels</effecttype>
										<mediatype>audio</mediatype>
										<parameter>
											<name>Level</name>
											<parameterid>level</parameterid>
											<valuemin>0</valuemin>
											<valuemax>3,98109</valuemax>
											<value>1</value>
										</parameter>
									</effect>
								</filter>
								<filter>
									<effect>
										<name>Audio Pan</name>
										<effectid>audiopan</effectid>
										<effectcategory>audiopan</effectcategory>
										<effecttype>audiopan</effecttype>
										<mediatype>audio</mediatype>
										<parameter>
											<name>Pan</name>
											<parameterid>pan</parameterid>
											<valuemin>-1</valuemin>
											<valuemax>1</valuemax>
											<value>-1</value>
										</parameter>
									</effect>
								</filter>
								<sourcetrack>
									<mediatype>audio</mediatype>
									<trackindex>1</trackindex>
								</sourcetrack>
								<link>
									<linkclipref>ArmA 3 2020.11.14 - 00.39.58.74.mp4805307607</linkclipref>
								</link>
								<link>
									<linkclipref>ArmA 3 2020.11.14 - 00.39.58.74.mp4536872152</linkclipref>
								</link>
								<link>
									<linkclipref>ArmA 3 2020.11.14 - 00.39.58.74.mp45368721521</linkclipref>
								</link>
								<link>
									<linkclipref>ArmA 3 2020.11.14 - 00.39.58.74.mp4536872153</linkclipref>
								</link>
								<link>
									<linkclipref>ArmA 3 2020.11.14 - 00.39.58.74.mp45368721531</linkclipref>
								</link>
							</clipitem>
							<clipitem id="ArmA 3 2020.11.14 - 00.42.57.75.mp4536872156">
								<name>ArmA 3 2020.11.14 - 00.42.57.75.mp4</name>
								<duration>1353</duration>
								<rate>
									<ntsc>TRUE</ntsc>
									<timebase>24</timebase>
								</rate>
								<in>0</in>
								<out>1353</out>
								<start>7680</start>
								<end>9033</end>
								<enabled>FALSE</enabled>
								<masterclipid>ArmA 3 2020.11.14 - 00.42.57.75.mp4</masterclipid>
								<logginginfo>
									<scene />
									<shottake />
									<lognote />
									<good>FALSE</good>
								</logginginfo>
								<labels>
									<label2 />
								</labels>
								<comments>
									<mastercomment1 />
									<mastercomment2 />
									<mastercomment3 />
									<mastercomment4 />
								</comments>
								<file id="ArmA 3 2020.11.14 - 00.42.57.75" />
								<filter>
									<effect>
										<name>Audio Levels</name>
										<effectid>audiolevels</effectid>
										<effectcategory>audiolevels</effectcategory>
										<effecttype>audiolevels</effecttype>
										<mediatype>audio</mediatype>
										<parameter>
											<name>Level</name>
											<parameterid>level</parameterid>
											<valuemin>0</valuemin>
											<valuemax>3,98109</valuemax>
											<value>1</value>
										</parameter>
									</effect>
								</filter>
								<filter>
									<effect>
										<name>Audio Pan</name>
										<effectid>audiopan</effectid>
										<effectcategory>audiopan</effectcategory>
										<effecttype>audiopan</effecttype>
										<mediatype>audio</mediatype>
										<parameter>
											<name>Pan</name>
											<parameterid>pan</parameterid>
											<valuemin>-1</valuemin>
											<valuemax>1</valuemax>
											<value>-1</value>
										</parameter>
									</effect>
								</filter>
								<sourcetrack>
									<mediatype>audio</mediatype>
									<trackindex>1</trackindex>
								</sourcetrack>
								<link>
									<linkclipref>ArmA 3 2020.11.14 - 00.42.57.75.mp4805307610</linkclipref>
								</link>
								<link>
									<linkclipref>ArmA 3 2020.11.14 - 00.42.57.75.mp4536872155</linkclipref>
								</link>
								<link>
									<linkclipref>ArmA 3 2020.11.14 - 00.42.57.75.mp45368721551</linkclipref>
								</link>
								<link>
									<linkclipref>ArmA 3 2020.11.14 - 00.42.57.75.mp4536872156</linkclipref>
								</link>
								<link>
									<linkclipref>ArmA 3 2020.11.14 - 00.42.57.75.mp45368721561</linkclipref>
								</link>
							</clipitem>
							<clipitem id="ArmA 3 2020.11.14 - 00.44.30.76.mp4536872159">
								<name>ArmA 3 2020.11.14 - 00.44.30.76.mp4</name>
								<duration>338</duration>
								<rate>
									<ntsc>TRUE</ntsc>
									<timebase>24</timebase>
								</rate>
								<in>1120</in>
								<out>1458</out>
								<start>9034</start>
								<end>9372</end>
								<enabled>FALSE</enabled>
								<masterclipid>ArmA 3 2020.11.14 - 00.44.30.76.mp4</masterclipid>
								<logginginfo>
									<scene />
									<shottake />
									<lognote />
									<good>FALSE</good>
								</logginginfo>
								<labels>
									<label2 />
								</labels>
								<comments>
									<mastercomment1 />
									<mastercomment2 />
									<mastercomment3 />
									<mastercomment4 />
								</comments>
								<file id="ArmA 3 2020.11.14 - 00.44.30.76" />
								<filter>
									<effect>
										<name>Audio Levels</name>
										<effectid>audiolevels</effectid>
										<effectcategory>audiolevels</effectcategory>
										<effecttype>audiolevels</effecttype>
										<mediatype>audio</mediatype>
										<parameter>
											<name>Level</name>
											<parameterid>level</parameterid>
											<valuemin>0</valuemin>
											<valuemax>3,98109</valuemax>
											<value>1</value>
										</parameter>
									</effect>
								</filter>
								<filter>
									<effect>
										<name>Audio Pan</name>
										<effectid>audiopan</effectid>
										<effectcategory>audiopan</effectcategory>
										<effecttype>audiopan</effecttype>
										<mediatype>audio</mediatype>
										<parameter>
											<name>Pan</name>
											<parameterid>pan</parameterid>
											<valuemin>-1</valuemin>
											<valuemax>1</valuemax>
											<value>-1</value>
										</parameter>
									</effect>
								</filter>
								<sourcetrack>
									<mediatype>audio</mediatype>
									<trackindex>1</trackindex>
								</sourcetrack>
								<link>
									<linkclipref>ArmA 3 2020.11.14 - 00.44.30.76.mp4805307613</linkclipref>
								</link>
								<link>
									<linkclipref>ArmA 3 2020.11.14 - 00.44.30.76.mp4536872158</linkclipref>
								</link>
								<link>
									<linkclipref>ArmA 3 2020.11.14 - 00.44.30.76.mp45368721581</linkclipref>
								</link>
								<link>
									<linkclipref>ArmA 3 2020.11.14 - 00.44.30.76.mp4536872159</linkclipref>
								</link>
								<link>
									<linkclipref>ArmA 3 2020.11.14 - 00.44.30.76.mp45368721591</linkclipref>
								</link>
							</clipitem>
							<clipitem id="ArmA 3 2020.11.14 - 00.46.39.77.mp4536872162">
								<name>ArmA 3 2020.11.14 - 00.46.39.77.mp4</name>
								<duration>1515</duration>
								<rate>
									<ntsc>TRUE</ntsc>
									<timebase>24</timebase>
								</rate>
								<in>0</in>
								<out>1515</out>
								<start>9373</start>
								<end>10888</end>
								<enabled>FALSE</enabled>
								<masterclipid>ArmA 3 2020.11.14 - 00.46.39.77.mp4</masterclipid>
								<logginginfo>
									<scene />
									<shottake />
									<lognote />
									<good>FALSE</good>
								</logginginfo>
								<labels>
									<label2 />
								</labels>
								<comments>
									<mastercomment1 />
									<mastercomment2 />
									<mastercomment3 />
									<mastercomment4 />
								</comments>
								<file id="ArmA 3 2020.11.14 - 00.46.39.77" />
								<filter>
									<effect>
										<name>Audio Levels</name>
										<effectid>audiolevels</effectid>
										<effectcategory>audiolevels</effectcategory>
										<effecttype>audiolevels</effecttype>
										<mediatype>audio</mediatype>
										<parameter>
											<name>Level</name>
											<parameterid>level</parameterid>
											<valuemin>0</valuemin>
											<valuemax>3,98109</valuemax>
											<value>1</value>
										</parameter>
									</effect>
								</filter>
								<filter>
									<effect>
										<name>Audio Pan</name>
										<effectid>audiopan</effectid>
										<effectcategory>audiopan</effectcategory>
										<effecttype>audiopan</effecttype>
										<mediatype>audio</mediatype>
										<parameter>
											<name>Pan</name>
											<parameterid>pan</parameterid>
											<valuemin>-1</valuemin>
											<valuemax>1</valuemax>
											<value>-1</value>
										</parameter>
									</effect>
								</filter>
								<sourcetrack>
									<mediatype>audio</mediatype>
									<trackindex>1</trackindex>
								</sourcetrack>
								<link>
									<linkclipref>ArmA 3 2020.11.14 - 00.46.39.77.mp4805307616</linkclipref>
								</link>
								<link>
									<linkclipref>ArmA 3 2020.11.14 - 00.46.39.77.mp4536872161</linkclipref>
								</link>
								<link>
									<linkclipref>ArmA 3 2020.11.14 - 00.46.39.77.mp45368721611</linkclipref>
								</link>
								<link>
									<linkclipref>ArmA 3 2020.11.14 - 00.46.39.77.mp4536872162</linkclipref>
								</link>
								<link>
									<linkclipref>ArmA 3 2020.11.14 - 00.46.39.77.mp45368721621</linkclipref>
								</link>
							</clipitem>
						</track>
						<track>
							<clipitem id="ArmA 3 2020.11.14 - 00.28.44.69.mp45368721381">
								<name>ArmA 3 2020.11.14 - 00.28.44.69.mp4</name>
								<duration>304</duration>
								<rate>
									<ntsc>TRUE</ntsc>
									<timebase>24</timebase>
								</rate>
								<in>0</in>
								<out>304</out>
								<start>0</start>
								<end>304</end>
								<enabled>FALSE</enabled>
								<masterclipid>ArmA 3 2020.11.14 - 00.28.44.69.mp4</masterclipid>
								<logginginfo>
									<scene />
									<shottake />
									<lognote />
									<good>FALSE</good>
								</logginginfo>
								<labels>
									<label2 />
								</labels>
								<comments>
									<mastercomment1 />
									<mastercomment2 />
									<mastercomment3 />
									<mastercomment4 />
								</comments>
								<file id="ArmA 3 2020.11.14 - 00.28.44.69" />
								<filter>
									<effect>
										<name>Audio Levels</name>
										<effectid>audiolevels</effectid>
										<effectcategory>audiolevels</effectcategory>
										<effecttype>audiolevels</effecttype>
										<mediatype>audio</mediatype>
										<parameter>
											<name>Level</name>
											<parameterid>level</parameterid>
											<valuemin>0</valuemin>
											<valuemax>3,98109</valuemax>
											<value>1</value>
										</parameter>
									</effect>
								</filter>
								<filter>
									<effect>
										<name>Audio Pan</name>
										<effectid>audiopan</effectid>
										<effectcategory>audiopan</effectcategory>
										<effecttype>audiopan</effecttype>
										<mediatype>audio</mediatype>
										<parameter>
											<name>Pan</name>
											<parameterid>pan</parameterid>
											<valuemin>-1</valuemin>
											<valuemax>1</valuemax>
											<value>1</value>
										</parameter>
									</effect>
								</filter>
								<sourcetrack>
									<mediatype>audio</mediatype>
									<trackindex>2</trackindex>
								</sourcetrack>
								<link>
									<linkclipref>ArmA 3 2020.11.14 - 00.28.44.69.mp4805307592</linkclipref>
								</link>
								<link>
									<linkclipref>ArmA 3 2020.11.14 - 00.28.44.69.mp4536872137</linkclipref>
								</link>
								<link>
									<linkclipref>ArmA 3 2020.11.14 - 00.28.44.69.mp45368721371</linkclipref>
								</link>
								<link>
									<linkclipref>ArmA 3 2020.11.14 - 00.28.44.69.mp4536872138</linkclipref>
								</link>
								<link>
									<linkclipref>ArmA 3 2020.11.14 - 00.28.44.69.mp45368721381</linkclipref>
								</link>
							</clipitem>
							<clipitem id="ArmA 3 2020.11.14 - 00.29.10.70.mp45368721411">
								<name>ArmA 3 2020.11.14 - 00.29.10.70.mp4</name>
								<duration>1838</duration>
								<rate>
									<ntsc>TRUE</ntsc>
									<timebase>24</timebase>
								</rate>
								<in>0</in>
								<out>1838</out>
								<start>305</start>
								<end>2143</end>
								<enabled>FALSE</enabled>
								<masterclipid>ArmA 3 2020.11.14 - 00.29.10.70.mp4</masterclipid>
								<logginginfo>
									<scene />
									<shottake />
									<lognote />
									<good>FALSE</good>
								</logginginfo>
								<labels>
									<label2 />
								</labels>
								<comments>
									<mastercomment1 />
									<mastercomment2 />
									<mastercomment3 />
									<mastercomment4 />
								</comments>
								<file id="ArmA 3 2020.11.14 - 00.29.10.70" />
								<filter>
									<effect>
										<name>Audio Levels</name>
										<effectid>audiolevels</effectid>
										<effectcategory>audiolevels</effectcategory>
										<effecttype>audiolevels</effecttype>
										<mediatype>audio</mediatype>
										<parameter>
											<name>Level</name>
											<parameterid>level</parameterid>
											<valuemin>0</valuemin>
											<valuemax>3,98109</valuemax>
											<value>1</value>
										</parameter>
									</effect>
								</filter>
								<filter>
									<effect>
										<name>Audio Pan</name>
										<effectid>audiopan</effectid>
										<effectcategory>audiopan</effectcategory>
										<effecttype>audiopan</effecttype>
										<mediatype>audio</mediatype>
										<parameter>
											<name>Pan</name>
											<parameterid>pan</parameterid>
											<valuemin>-1</valuemin>
											<valuemax>1</valuemax>
											<value>1</value>
										</parameter>
									</effect>
								</filter>
								<sourcetrack>
									<mediatype>audio</mediatype>
									<trackindex>2</trackindex>
								</sourcetrack>
								<link>
									<linkclipref>ArmA 3 2020.11.14 - 00.29.10.70.mp4805307595</linkclipref>
								</link>
								<link>
									<linkclipref>ArmA 3 2020.11.14 - 00.29.10.70.mp4536872140</linkclipref>
								</link>
								<link>
									<linkclipref>ArmA 3 2020.11.14 - 00.29.10.70.mp45368721401</linkclipref>
								</link>
								<link>
									<linkclipref>ArmA 3 2020.11.14 - 00.29.10.70.mp4536872141</linkclipref>
								</link>
								<link>
									<linkclipref>ArmA 3 2020.11.14 - 00.29.10.70.mp45368721411</linkclipref>
								</link>
							</clipitem>
							<clipitem id="ArmA 3 2020.11.14 - 00.30.52.71.mp45368721441">
								<name>ArmA 3 2020.11.14 - 00.30.52.71.mp4</name>
								<duration>933</duration>
								<rate>
									<ntsc>TRUE</ntsc>
									<timebase>24</timebase>
								</rate>
								<in>0</in>
								<out>933</out>
								<start>2144</start>
								<end>3077</end>
								<enabled>FALSE</enabled>
								<masterclipid>ArmA 3 2020.11.14 - 00.30.52.71.mp4</masterclipid>
								<logginginfo>
									<scene />
									<shottake />
									<lognote />
									<good>FALSE</good>
								</logginginfo>
								<labels>
									<label2 />
								</labels>
								<comments>
									<mastercomment1 />
									<mastercomment2 />
									<mastercomment3 />
									<mastercomment4 />
								</comments>
								<file id="ArmA 3 2020.11.14 - 00.30.52.71" />
								<filter>
									<effect>
										<name>Audio Levels</name>
										<effectid>audiolevels</effectid>
										<effectcategory>audiolevels</effectcategory>
										<effecttype>audiolevels</effecttype>
										<mediatype>audio</mediatype>
										<parameter>
											<name>Level</name>
											<parameterid>level</parameterid>
											<valuemin>0</valuemin>
											<valuemax>3,98109</valuemax>
											<value>1</value>
										</parameter>
									</effect>
								</filter>
								<filter>
									<effect>
										<name>Audio Pan</name>
										<effectid>audiopan</effectid>
										<effectcategory>audiopan</effectcategory>
										<effecttype>audiopan</effecttype>
										<mediatype>audio</mediatype>
										<parameter>
											<name>Pan</name>
											<parameterid>pan</parameterid>
											<valuemin>-1</valuemin>
											<valuemax>1</valuemax>
											<value>1</value>
										</parameter>
									</effect>
								</filter>
								<sourcetrack>
									<mediatype>audio</mediatype>
									<trackindex>2</trackindex>
								</sourcetrack>
								<link>
									<linkclipref>ArmA 3 2020.11.14 - 00.30.52.71.mp4805307598</linkclipref>
								</link>
								<link>
									<linkclipref>ArmA 3 2020.11.14 - 00.30.52.71.mp4536872143</linkclipref>
								</link>
								<link>
									<linkclipref>ArmA 3 2020.11.14 - 00.30.52.71.mp45368721431</linkclipref>
								</link>
								<link>
									<linkclipref>ArmA 3 2020.11.14 - 00.30.52.71.mp4536872144</linkclipref>
								</link>
								<link>
									<linkclipref>ArmA 3 2020.11.14 - 00.30.52.71.mp45368721441</linkclipref>
								</link>
							</clipitem>
							<clipitem id="ArmA 3 2020.11.14 - 00.32.09.72.mp45368721471">
								<name>ArmA 3 2020.11.14 - 00.32.09.72.mp4</name>
								<duration>1258</duration>
								<rate>
									<ntsc>TRUE</ntsc>
									<timebase>24</timebase>
								</rate>
								<in>0</in>
								<out>1258</out>
								<start>3078</start>
								<end>4336</end>
								<enabled>FALSE</enabled>
								<masterclipid>ArmA 3 2020.11.14 - 00.32.09.72.mp4</masterclipid>
								<logginginfo>
									<scene />
									<shottake />
									<lognote />
									<good>FALSE</good>
								</logginginfo>
								<labels>
									<label2 />
								</labels>
								<comments>
									<mastercomment1 />
									<mastercomment2 />
									<mastercomment3 />
									<mastercomment4 />
								</comments>
								<file id="ArmA 3 2020.11.14 - 00.32.09.72" />
								<filter>
									<effect>
										<name>Audio Levels</name>
										<effectid>audiolevels</effectid>
										<effectcategory>audiolevels</effectcategory>
										<effecttype>audiolevels</effecttype>
										<mediatype>audio</mediatype>
										<parameter>
											<name>Level</name>
											<parameterid>level</parameterid>
											<valuemin>0</valuemin>
											<valuemax>3,98109</valuemax>
											<value>1</value>
										</parameter>
									</effect>
								</filter>
								<filter>
									<effect>
										<name>Audio Pan</name>
										<effectid>audiopan</effectid>
										<effectcategory>audiopan</effectcategory>
										<effecttype>audiopan</effecttype>
										<mediatype>audio</mediatype>
										<parameter>
											<name>Pan</name>
											<parameterid>pan</parameterid>
											<valuemin>-1</valuemin>
											<valuemax>1</valuemax>
											<value>1</value>
										</parameter>
									</effect>
								</filter>
								<sourcetrack>
									<mediatype>audio</mediatype>
									<trackindex>2</trackindex>
								</sourcetrack>
								<link>
									<linkclipref>ArmA 3 2020.11.14 - 00.32.09.72.mp4805307601</linkclipref>
								</link>
								<link>
									<linkclipref>ArmA 3 2020.11.14 - 00.32.09.72.mp4536872146</linkclipref>
								</link>
								<link>
									<linkclipref>ArmA 3 2020.11.14 - 00.32.09.72.mp45368721461</linkclipref>
								</link>
								<link>
									<linkclipref>ArmA 3 2020.11.14 - 00.32.09.72.mp4536872147</linkclipref>
								</link>
								<link>
									<linkclipref>ArmA 3 2020.11.14 - 00.32.09.72.mp45368721471</linkclipref>
								</link>
							</clipitem>
							<clipitem id="ArmA 3 2020.11.14 - 00.34.30.73.mp45368721501">
								<name>ArmA 3 2020.11.14 - 00.34.30.73.mp4</name>
								<duration>2159</duration>
								<rate>
									<ntsc>TRUE</ntsc>
									<timebase>24</timebase>
								</rate>
								<in>0</in>
								<out>2159</out>
								<start>4337</start>
								<end>6496</end>
								<enabled>FALSE</enabled>
								<masterclipid>ArmA 3 2020.11.14 - 00.34.30.73.mp4</masterclipid>
								<logginginfo>
									<scene />
									<shottake />
									<lognote />
									<good>FALSE</good>
								</logginginfo>
								<labels>
									<label2 />
								</labels>
								<comments>
									<mastercomment1 />
									<mastercomment2 />
									<mastercomment3 />
									<mastercomment4 />
								</comments>
								<file id="ArmA 3 2020.11.14 - 00.34.30.73" />
								<filter>
									<effect>
										<name>Audio Levels</name>
										<effectid>audiolevels</effectid>
										<effectcategory>audiolevels</effectcategory>
										<effecttype>audiolevels</effecttype>
										<mediatype>audio</mediatype>
										<parameter>
											<name>Level</name>
											<parameterid>level</parameterid>
											<valuemin>0</valuemin>
											<valuemax>3,98109</valuemax>
											<value>1</value>
										</parameter>
									</effect>
								</filter>
								<filter>
									<effect>
										<name>Audio Pan</name>
										<effectid>audiopan</effectid>
										<effectcategory>audiopan</effectcategory>
										<effecttype>audiopan</effecttype>
										<mediatype>audio</mediatype>
										<parameter>
											<name>Pan</name>
											<parameterid>pan</parameterid>
											<valuemin>-1</valuemin>
											<valuemax>1</valuemax>
											<value>1</value>
										</parameter>
									</effect>
								</filter>
								<sourcetrack>
									<mediatype>audio</mediatype>
									<trackindex>2</trackindex>
								</sourcetrack>
								<link>
									<linkclipref>ArmA 3 2020.11.14 - 00.34.30.73.mp4805307604</linkclipref>
								</link>
								<link>
									<linkclipref>ArmA 3 2020.11.14 - 00.34.30.73.mp4536872149</linkclipref>
								</link>
								<link>
									<linkclipref>ArmA 3 2020.11.14 - 00.34.30.73.mp45368721491</linkclipref>
								</link>
								<link>
									<linkclipref>ArmA 3 2020.11.14 - 00.34.30.73.mp4536872150</linkclipref>
								</link>
								<link>
									<linkclipref>ArmA 3 2020.11.14 - 00.34.30.73.mp45368721501</linkclipref>
								</link>
							</clipitem>
							<clipitem id="ArmA 3 2020.11.14 - 00.39.58.74.mp45368721531">
								<name>ArmA 3 2020.11.14 - 00.39.58.74.mp4</name>
								<duration>1182</duration>
								<rate>
									<ntsc>TRUE</ntsc>
									<timebase>24</timebase>
								</rate>
								<in>0</in>
								<out>1182</out>
								<start>6497</start>
								<end>7679</end>
								<enabled>FALSE</enabled>
								<masterclipid>ArmA 3 2020.11.14 - 00.39.58.74.mp4</masterclipid>
								<logginginfo>
									<scene />
									<shottake />
									<lognote />
									<good>FALSE</good>
								</logginginfo>
								<labels>
									<label2 />
								</labels>
								<comments>
									<mastercomment1 />
									<mastercomment2 />
									<mastercomment3 />
									<mastercomment4 />
								</comments>
								<file id="ArmA 3 2020.11.14 - 00.39.58.74" />
								<filter>
									<effect>
										<name>Audio Levels</name>
										<effectid>audiolevels</effectid>
										<effectcategory>audiolevels</effectcategory>
										<effecttype>audiolevels</effecttype>
										<mediatype>audio</mediatype>
										<parameter>
											<name>Level</name>
											<parameterid>level</parameterid>
											<valuemin>0</valuemin>
											<valuemax>3,98109</valuemax>
											<value>1</value>
										</parameter>
									</effect>
								</filter>
								<filter>
									<effect>
										<name>Audio Pan</name>
										<effectid>audiopan</effectid>
										<effectcategory>audiopan</effectcategory>
										<effecttype>audiopan</effecttype>
										<mediatype>audio</mediatype>
										<parameter>
											<name>Pan</name>
											<parameterid>pan</parameterid>
											<valuemin>-1</valuemin>
											<valuemax>1</valuemax>
											<value>1</value>
										</parameter>
									</effect>
								</filter>
								<sourcetrack>
									<mediatype>audio</mediatype>
									<trackindex>2</trackindex>
								</sourcetrack>
								<link>
									<linkclipref>ArmA 3 2020.11.14 - 00.39.58.74.mp4805307607</linkclipref>
								</link>
								<link>
									<linkclipref>ArmA 3 2020.11.14 - 00.39.58.74.mp4536872152</linkclipref>
								</link>
								<link>
									<linkclipref>ArmA 3 2020.11.14 - 00.39.58.74.mp45368721521</linkclipref>
								</link>
								<link>
									<linkclipref>ArmA 3 2020.11.14 - 00.39.58.74.mp4536872153</linkclipref>
								</link>
								<link>
									<linkclipref>ArmA 3 2020.11.14 - 00.39.58.74.mp45368721531</linkclipref>
								</link>
							</clipitem>
							<clipitem id="ArmA 3 2020.11.14 - 00.42.57.75.mp45368721561">
								<name>ArmA 3 2020.11.14 - 00.42.57.75.mp4</name>
								<duration>1353</duration>
								<rate>
									<ntsc>TRUE</ntsc>
									<timebase>24</timebase>
								</rate>
								<in>0</in>
								<out>1353</out>
								<start>7680</start>
								<end>9033</end>
								<enabled>FALSE</enabled>
								<masterclipid>ArmA 3 2020.11.14 - 00.42.57.75.mp4</masterclipid>
								<logginginfo>
									<scene />
									<shottake />
									<lognote />
									<good>FALSE</good>
								</logginginfo>
								<labels>
									<label2 />
								</labels>
								<comments>
									<mastercomment1 />
									<mastercomment2 />
									<mastercomment3 />
									<mastercomment4 />
								</comments>
								<file id="ArmA 3 2020.11.14 - 00.42.57.75" />
								<filter>
									<effect>
										<name>Audio Levels</name>
										<effectid>audiolevels</effectid>
										<effectcategory>audiolevels</effectcategory>
										<effecttype>audiolevels</effecttype>
										<mediatype>audio</mediatype>
										<parameter>
											<name>Level</name>
											<parameterid>level</parameterid>
											<valuemin>0</valuemin>
											<valuemax>3,98109</valuemax>
											<value>1</value>
										</parameter>
									</effect>
								</filter>
								<filter>
									<effect>
										<name>Audio Pan</name>
										<effectid>audiopan</effectid>
										<effectcategory>audiopan</effectcategory>
										<effecttype>audiopan</effecttype>
										<mediatype>audio</mediatype>
										<parameter>
											<name>Pan</name>
											<parameterid>pan</parameterid>
											<valuemin>-1</valuemin>
											<valuemax>1</valuemax>
											<value>1</value>
										</parameter>
									</effect>
								</filter>
								<sourcetrack>
									<mediatype>audio</mediatype>
									<trackindex>2</trackindex>
								</sourcetrack>
								<link>
									<linkclipref>ArmA 3 2020.11.14 - 00.42.57.75.mp4805307610</linkclipref>
								</link>
								<link>
									<linkclipref>ArmA 3 2020.11.14 - 00.42.57.75.mp4536872155</linkclipref>
								</link>
								<link>
									<linkclipref>ArmA 3 2020.11.14 - 00.42.57.75.mp45368721551</linkclipref>
								</link>
								<link>
									<linkclipref>ArmA 3 2020.11.14 - 00.42.57.75.mp4536872156</linkclipref>
								</link>
								<link>
									<linkclipref>ArmA 3 2020.11.14 - 00.42.57.75.mp45368721561</linkclipref>
								</link>
							</clipitem>
							<clipitem id="ArmA 3 2020.11.14 - 00.44.30.76.mp45368721591">
								<name>ArmA 3 2020.11.14 - 00.44.30.76.mp4</name>
								<duration>338</duration>
								<rate>
									<ntsc>TRUE</ntsc>
									<timebase>24</timebase>
								</rate>
								<in>1120</in>
								<out>1458</out>
								<start>9034</start>
								<end>9372</end>
								<enabled>FALSE</enabled>
								<masterclipid>ArmA 3 2020.11.14 - 00.44.30.76.mp4</masterclipid>
								<logginginfo>
									<scene />
									<shottake />
									<lognote />
									<good>FALSE</good>
								</logginginfo>
								<labels>
									<label2 />
								</labels>
								<comments>
									<mastercomment1 />
									<mastercomment2 />
									<mastercomment3 />
									<mastercomment4 />
								</comments>
								<file id="ArmA 3 2020.11.14 - 00.44.30.76" />
								<filter>
									<effect>
										<name>Audio Levels</name>
										<effectid>audiolevels</effectid>
										<effectcategory>audiolevels</effectcategory>
										<effecttype>audiolevels</effecttype>
										<mediatype>audio</mediatype>
										<parameter>
											<name>Level</name>
											<parameterid>level</parameterid>
											<valuemin>0</valuemin>
											<valuemax>3,98109</valuemax>
											<value>1</value>
										</parameter>
									</effect>
								</filter>
								<filter>
									<effect>
										<name>Audio Pan</name>
										<effectid>audiopan</effectid>
										<effectcategory>audiopan</effectcategory>
										<effecttype>audiopan</effecttype>
										<mediatype>audio</mediatype>
										<parameter>
											<name>Pan</name>
											<parameterid>pan</parameterid>
											<valuemin>-1</valuemin>
											<valuemax>1</valuemax>
											<value>1</value>
										</parameter>
									</effect>
								</filter>
								<sourcetrack>
									<mediatype>audio</mediatype>
									<trackindex>2</trackindex>
								</sourcetrack>
								<link>
									<linkclipref>ArmA 3 2020.11.14 - 00.44.30.76.mp4805307613</linkclipref>
								</link>
								<link>
									<linkclipref>ArmA 3 2020.11.14 - 00.44.30.76.mp4536872158</linkclipref>
								</link>
								<link>
									<linkclipref>ArmA 3 2020.11.14 - 00.44.30.76.mp45368721581</linkclipref>
								</link>
								<link>
									<linkclipref>ArmA 3 2020.11.14 - 00.44.30.76.mp4536872159</linkclipref>
								</link>
								<link>
									<linkclipref>ArmA 3 2020.11.14 - 00.44.30.76.mp45368721591</linkclipref>
								</link>
							</clipitem>
							<clipitem id="ArmA 3 2020.11.14 - 00.46.39.77.mp45368721621">
								<name>ArmA 3 2020.11.14 - 00.46.39.77.mp4</name>
								<duration>1515</duration>
								<rate>
									<ntsc>TRUE</ntsc>
									<timebase>24</timebase>
								</rate>
								<in>0</in>
								<out>1515</out>
								<start>9373</start>
								<end>10888</end>
								<enabled>FALSE</enabled>
								<masterclipid>ArmA 3 2020.11.14 - 00.46.39.77.mp4</masterclipid>
								<logginginfo>
									<scene />
									<shottake />
									<lognote />
									<good>FALSE</good>
								</logginginfo>
								<labels>
									<label2 />
								</labels>
								<comments>
									<mastercomment1 />
									<mastercomment2 />
									<mastercomment3 />
									<mastercomment4 />
								</comments>
								<file id="ArmA 3 2020.11.14 - 00.46.39.77" />
								<filter>
									<effect>
										<name>Audio Levels</name>
										<effectid>audiolevels</effectid>
										<effectcategory>audiolevels</effectcategory>
										<effecttype>audiolevels</effecttype>
										<mediatype>audio</mediatype>
										<parameter>
											<name>Level</name>
											<parameterid>level</parameterid>
											<valuemin>0</valuemin>
											<valuemax>3,98109</valuemax>
											<value>1</value>
										</parameter>
									</effect>
								</filter>
								<filter>
									<effect>
										<name>Audio Pan</name>
										<effectid>audiopan</effectid>
										<effectcategory>audiopan</effectcategory>
										<effecttype>audiopan</effecttype>
										<mediatype>audio</mediatype>
										<parameter>
											<name>Pan</name>
											<parameterid>pan</parameterid>
											<valuemin>-1</valuemin>
											<valuemax>1</valuemax>
											<value>1</value>
										</parameter>
									</effect>
								</filter>
								<sourcetrack>
									<mediatype>audio</mediatype>
									<trackindex>2</trackindex>
								</sourcetrack>
								<link>
									<linkclipref>ArmA 3 2020.11.14 - 00.46.39.77.mp4805307616</linkclipref>
								</link>
								<link>
									<linkclipref>ArmA 3 2020.11.14 - 00.46.39.77.mp4536872161</linkclipref>
								</link>
								<link>
									<linkclipref>ArmA 3 2020.11.14 - 00.46.39.77.mp45368721611</linkclipref>
								</link>
								<link>
									<linkclipref>ArmA 3 2020.11.14 - 00.46.39.77.mp4536872162</linkclipref>
								</link>
								<link>
									<linkclipref>ArmA 3 2020.11.14 - 00.46.39.77.mp45368721621</linkclipref>
								</link>
							</clipitem>
						</track>
						<track>
							<clipitem id="ArmA 3 2020.11.14 - 00.28.44.69.mp4536872137">
								<name>ArmA 3 2020.11.14 - 00.28.44.69.mp4</name>
								<duration>304</duration>
								<rate>
									<ntsc>TRUE</ntsc>
									<timebase>24</timebase>
								</rate>
								<in>0</in>
								<out>304</out>
								<start>0</start>
								<end>304</end>
								<enabled>FALSE</enabled>
								<masterclipid>ArmA 3 2020.11.14 - 00.28.44.69.mp4</masterclipid>
								<logginginfo>
									<scene />
									<shottake />
									<lognote />
									<good>FALSE</good>
								</logginginfo>
								<labels>
									<label2 />
								</labels>
								<comments>
									<mastercomment1 />
									<mastercomment2 />
									<mastercomment3 />
									<mastercomment4 />
								</comments>
								<file id="ArmA 3 2020.11.14 - 00.28.44.69" />
								<filter>
									<effect>
										<name>Audio Levels</name>
										<effectid>audiolevels</effectid>
										<effectcategory>audiolevels</effectcategory>
										<effecttype>audiolevels</effecttype>
										<mediatype>audio</mediatype>
										<parameter>
											<name>Level</name>
											<parameterid>level</parameterid>
											<valuemin>0</valuemin>
											<valuemax>3,98109</valuemax>
											<value>1</value>
										</parameter>
									</effect>
								</filter>
								<filter>
									<effect>
										<name>Audio Pan</name>
										<effectid>audiopan</effectid>
										<effectcategory>audiopan</effectcategory>
										<effecttype>audiopan</effecttype>
										<mediatype>audio</mediatype>
										<parameter>
											<name>Pan</name>
											<parameterid>pan</parameterid>
											<valuemin>-1</valuemin>
											<valuemax>1</valuemax>
											<value>-1</value>
										</parameter>
									</effect>
								</filter>
								<sourcetrack>
									<mediatype>audio</mediatype>
									<trackindex>1</trackindex>
								</sourcetrack>
								<link>
									<linkclipref>ArmA 3 2020.11.14 - 00.28.44.69.mp4805307592</linkclipref>
								</link>
								<link>
									<linkclipref>ArmA 3 2020.11.14 - 00.28.44.69.mp4536872137</linkclipref>
								</link>
								<link>
									<linkclipref>ArmA 3 2020.11.14 - 00.28.44.69.mp45368721371</linkclipref>
								</link>
								<link>
									<linkclipref>ArmA 3 2020.11.14 - 00.28.44.69.mp4536872138</linkclipref>
								</link>
								<link>
									<linkclipref>ArmA 3 2020.11.14 - 00.28.44.69.mp45368721381</linkclipref>
								</link>
							</clipitem>
							<clipitem id="ArmA 3 2020.11.14 - 00.29.10.70.mp4536872140">
								<name>ArmA 3 2020.11.14 - 00.29.10.70.mp4</name>
								<duration>1838</duration>
								<rate>
									<ntsc>TRUE</ntsc>
									<timebase>24</timebase>
								</rate>
								<in>0</in>
								<out>1838</out>
								<start>305</start>
								<end>2143</end>
								<enabled>FALSE</enabled>
								<masterclipid>ArmA 3 2020.11.14 - 00.29.10.70.mp4</masterclipid>
								<logginginfo>
									<scene />
									<shottake />
									<lognote />
									<good>FALSE</good>
								</logginginfo>
								<labels>
									<label2 />
								</labels>
								<comments>
									<mastercomment1 />
									<mastercomment2 />
									<mastercomment3 />
									<mastercomment4 />
								</comments>
								<file id="ArmA 3 2020.11.14 - 00.29.10.70" />
								<filter>
									<effect>
										<name>Audio Levels</name>
										<effectid>audiolevels</effectid>
										<effectcategory>audiolevels</effectcategory>
										<effecttype>audiolevels</effecttype>
										<mediatype>audio</mediatype>
										<parameter>
											<name>Level</name>
											<parameterid>level</parameterid>
											<valuemin>0</valuemin>
											<valuemax>3,98109</valuemax>
											<value>1</value>
										</parameter>
									</effect>
								</filter>
								<filter>
									<effect>
										<name>Audio Pan</name>
										<effectid>audiopan</effectid>
										<effectcategory>audiopan</effectcategory>
										<effecttype>audiopan</effecttype>
										<mediatype>audio</mediatype>
										<parameter>
											<name>Pan</name>
											<parameterid>pan</parameterid>
											<valuemin>-1</valuemin>
											<valuemax>1</valuemax>
											<value>-1</value>
										</parameter>
									</effect>
								</filter>
								<sourcetrack>
									<mediatype>audio</mediatype>
									<trackindex>1</trackindex>
								</sourcetrack>
								<link>
									<linkclipref>ArmA 3 2020.11.14 - 00.29.10.70.mp4805307595</linkclipref>
								</link>
								<link>
									<linkclipref>ArmA 3 2020.11.14 - 00.29.10.70.mp4536872140</linkclipref>
								</link>
								<link>
									<linkclipref>ArmA 3 2020.11.14 - 00.29.10.70.mp45368721401</linkclipref>
								</link>
								<link>
									<linkclipref>ArmA 3 2020.11.14 - 00.29.10.70.mp4536872141</linkclipref>
								</link>
								<link>
									<linkclipref>ArmA 3 2020.11.14 - 00.29.10.70.mp45368721411</linkclipref>
								</link>
							</clipitem>
							<clipitem id="ArmA 3 2020.11.14 - 00.30.52.71.mp4536872143">
								<name>ArmA 3 2020.11.14 - 00.30.52.71.mp4</name>
								<duration>933</duration>
								<rate>
									<ntsc>TRUE</ntsc>
									<timebase>24</timebase>
								</rate>
								<in>0</in>
								<out>933</out>
								<start>2144</start>
								<end>3077</end>
								<enabled>FALSE</enabled>
								<masterclipid>ArmA 3 2020.11.14 - 00.30.52.71.mp4</masterclipid>
								<logginginfo>
									<scene />
									<shottake />
									<lognote />
									<good>FALSE</good>
								</logginginfo>
								<labels>
									<label2 />
								</labels>
								<comments>
									<mastercomment1 />
									<mastercomment2 />
									<mastercomment3 />
									<mastercomment4 />
								</comments>
								<file id="ArmA 3 2020.11.14 - 00.30.52.71" />
								<filter>
									<effect>
										<name>Audio Levels</name>
										<effectid>audiolevels</effectid>
										<effectcategory>audiolevels</effectcategory>
										<effecttype>audiolevels</effecttype>
										<mediatype>audio</mediatype>
										<parameter>
											<name>Level</name>
											<parameterid>level</parameterid>
											<valuemin>0</valuemin>
											<valuemax>3,98109</valuemax>
											<value>1</value>
										</parameter>
									</effect>
								</filter>
								<filter>
									<effect>
										<name>Audio Pan</name>
										<effectid>audiopan</effectid>
										<effectcategory>audiopan</effectcategory>
										<effecttype>audiopan</effecttype>
										<mediatype>audio</mediatype>
										<parameter>
											<name>Pan</name>
											<parameterid>pan</parameterid>
											<valuemin>-1</valuemin>
											<valuemax>1</valuemax>
											<value>-1</value>
										</parameter>
									</effect>
								</filter>
								<sourcetrack>
									<mediatype>audio</mediatype>
									<trackindex>1</trackindex>
								</sourcetrack>
								<link>
									<linkclipref>ArmA 3 2020.11.14 - 00.30.52.71.mp4805307598</linkclipref>
								</link>
								<link>
									<linkclipref>ArmA 3 2020.11.14 - 00.30.52.71.mp4536872143</linkclipref>
								</link>
								<link>
									<linkclipref>ArmA 3 2020.11.14 - 00.30.52.71.mp45368721431</linkclipref>
								</link>
								<link>
									<linkclipref>ArmA 3 2020.11.14 - 00.30.52.71.mp4536872144</linkclipref>
								</link>
								<link>
									<linkclipref>ArmA 3 2020.11.14 - 00.30.52.71.mp45368721441</linkclipref>
								</link>
							</clipitem>
							<clipitem id="ArmA 3 2020.11.14 - 00.32.09.72.mp4536872146">
								<name>ArmA 3 2020.11.14 - 00.32.09.72.mp4</name>
								<duration>1258</duration>
								<rate>
									<ntsc>TRUE</ntsc>
									<timebase>24</timebase>
								</rate>
								<in>0</in>
								<out>1258</out>
								<start>3078</start>
								<end>4336</end>
								<enabled>FALSE</enabled>
								<masterclipid>ArmA 3 2020.11.14 - 00.32.09.72.mp4</masterclipid>
								<logginginfo>
									<scene />
									<shottake />
									<lognote />
									<good>FALSE</good>
								</logginginfo>
								<labels>
									<label2 />
								</labels>
								<comments>
									<mastercomment1 />
									<mastercomment2 />
									<mastercomment3 />
									<mastercomment4 />
								</comments>
								<file id="ArmA 3 2020.11.14 - 00.32.09.72" />
								<filter>
									<effect>
										<name>Audio Levels</name>
										<effectid>audiolevels</effectid>
										<effectcategory>audiolevels</effectcategory>
										<effecttype>audiolevels</effecttype>
										<mediatype>audio</mediatype>
										<parameter>
											<name>Level</name>
											<parameterid>level</parameterid>
											<valuemin>0</valuemin>
											<valuemax>3,98109</valuemax>
											<value>1</value>
										</parameter>
									</effect>
								</filter>
								<filter>
									<effect>
										<name>Audio Pan</name>
										<effectid>audiopan</effectid>
										<effectcategory>audiopan</effectcategory>
										<effecttype>audiopan</effecttype>
										<mediatype>audio</mediatype>
										<parameter>
											<name>Pan</name>
											<parameterid>pan</parameterid>
											<valuemin>-1</valuemin>
											<valuemax>1</valuemax>
											<value>-1</value>
										</parameter>
									</effect>
								</filter>
								<sourcetrack>
									<mediatype>audio</mediatype>
									<trackindex>1</trackindex>
								</sourcetrack>
								<link>
									<linkclipref>ArmA 3 2020.11.14 - 00.32.09.72.mp4805307601</linkclipref>
								</link>
								<link>
									<linkclipref>ArmA 3 2020.11.14 - 00.32.09.72.mp4536872146</linkclipref>
								</link>
								<link>
									<linkclipref>ArmA 3 2020.11.14 - 00.32.09.72.mp45368721461</linkclipref>
								</link>
								<link>
									<linkclipref>ArmA 3 2020.11.14 - 00.32.09.72.mp4536872147</linkclipref>
								</link>
								<link>
									<linkclipref>ArmA 3 2020.11.14 - 00.32.09.72.mp45368721471</linkclipref>
								</link>
							</clipitem>
							<clipitem id="ArmA 3 2020.11.14 - 00.34.30.73.mp4536872149">
								<name>ArmA 3 2020.11.14 - 00.34.30.73.mp4</name>
								<duration>2159</duration>
								<rate>
									<ntsc>TRUE</ntsc>
									<timebase>24</timebase>
								</rate>
								<in>0</in>
								<out>2159</out>
								<start>4337</start>
								<end>6496</end>
								<enabled>FALSE</enabled>
								<masterclipid>ArmA 3 2020.11.14 - 00.34.30.73.mp4</masterclipid>
								<logginginfo>
									<scene />
									<shottake />
									<lognote />
									<good>FALSE</good>
								</logginginfo>
								<labels>
									<label2 />
								</labels>
								<comments>
									<mastercomment1 />
									<mastercomment2 />
									<mastercomment3 />
									<mastercomment4 />
								</comments>
								<file id="ArmA 3 2020.11.14 - 00.34.30.73" />
								<filter>
									<effect>
										<name>Audio Levels</name>
										<effectid>audiolevels</effectid>
										<effectcategory>audiolevels</effectcategory>
										<effecttype>audiolevels</effecttype>
										<mediatype>audio</mediatype>
										<parameter>
											<name>Level</name>
											<parameterid>level</parameterid>
											<valuemin>0</valuemin>
											<valuemax>3,98109</valuemax>
											<value>1</value>
										</parameter>
									</effect>
								</filter>
								<filter>
									<effect>
										<name>Audio Pan</name>
										<effectid>audiopan</effectid>
										<effectcategory>audiopan</effectcategory>
										<effecttype>audiopan</effecttype>
										<mediatype>audio</mediatype>
										<parameter>
											<name>Pan</name>
											<parameterid>pan</parameterid>
											<valuemin>-1</valuemin>
											<valuemax>1</valuemax>
											<value>-1</value>
										</parameter>
									</effect>
								</filter>
								<sourcetrack>
									<mediatype>audio</mediatype>
									<trackindex>1</trackindex>
								</sourcetrack>
								<link>
									<linkclipref>ArmA 3 2020.11.14 - 00.34.30.73.mp4805307604</linkclipref>
								</link>
								<link>
									<linkclipref>ArmA 3 2020.11.14 - 00.34.30.73.mp4536872149</linkclipref>
								</link>
								<link>
									<linkclipref>ArmA 3 2020.11.14 - 00.34.30.73.mp45368721491</linkclipref>
								</link>
								<link>
									<linkclipref>ArmA 3 2020.11.14 - 00.34.30.73.mp4536872150</linkclipref>
								</link>
								<link>
									<linkclipref>ArmA 3 2020.11.14 - 00.34.30.73.mp45368721501</linkclipref>
								</link>
							</clipitem>
							<clipitem id="ArmA 3 2020.11.14 - 00.39.58.74.mp4536872152">
								<name>ArmA 3 2020.11.14 - 00.39.58.74.mp4</name>
								<duration>1182</duration>
								<rate>
									<ntsc>TRUE</ntsc>
									<timebase>24</timebase>
								</rate>
								<in>0</in>
								<out>1182</out>
								<start>6497</start>
								<end>7679</end>
								<enabled>FALSE</enabled>
								<masterclipid>ArmA 3 2020.11.14 - 00.39.58.74.mp4</masterclipid>
								<logginginfo>
									<scene />
									<shottake />
									<lognote />
									<good>FALSE</good>
								</logginginfo>
								<labels>
									<label2 />
								</labels>
								<comments>
									<mastercomment1 />
									<mastercomment2 />
									<mastercomment3 />
									<mastercomment4 />
								</comments>
								<file id="ArmA 3 2020.11.14 - 00.39.58.74" />
								<filter>
									<effect>
										<name>Audio Levels</name>
										<effectid>audiolevels</effectid>
										<effectcategory>audiolevels</effectcategory>
										<effecttype>audiolevels</effecttype>
										<mediatype>audio</mediatype>
										<parameter>
											<name>Level</name>
											<parameterid>level</parameterid>
											<valuemin>0</valuemin>
											<valuemax>3,98109</valuemax>
											<value>1</value>
										</parameter>
									</effect>
								</filter>
								<filter>
									<effect>
										<name>Audio Pan</name>
										<effectid>audiopan</effectid>
										<effectcategory>audiopan</effectcategory>
										<effecttype>audiopan</effecttype>
										<mediatype>audio</mediatype>
										<parameter>
											<name>Pan</name>
											<parameterid>pan</parameterid>
											<valuemin>-1</valuemin>
											<valuemax>1</valuemax>
											<value>-1</value>
										</parameter>
									</effect>
								</filter>
								<sourcetrack>
									<mediatype>audio</mediatype>
									<trackindex>1</trackindex>
								</sourcetrack>
								<link>
									<linkclipref>ArmA 3 2020.11.14 - 00.39.58.74.mp4805307607</linkclipref>
								</link>
								<link>
									<linkclipref>ArmA 3 2020.11.14 - 00.39.58.74.mp4536872152</linkclipref>
								</link>
								<link>
									<linkclipref>ArmA 3 2020.11.14 - 00.39.58.74.mp45368721521</linkclipref>
								</link>
								<link>
									<linkclipref>ArmA 3 2020.11.14 - 00.39.58.74.mp4536872153</linkclipref>
								</link>
								<link>
									<linkclipref>ArmA 3 2020.11.14 - 00.39.58.74.mp45368721531</linkclipref>
								</link>
							</clipitem>
							<clipitem id="ArmA 3 2020.11.14 - 00.42.57.75.mp4536872155">
								<name>ArmA 3 2020.11.14 - 00.42.57.75.mp4</name>
								<duration>1353</duration>
								<rate>
									<ntsc>TRUE</ntsc>
									<timebase>24</timebase>
								</rate>
								<in>0</in>
								<out>1353</out>
								<start>7680</start>
								<end>9033</end>
								<enabled>FALSE</enabled>
								<masterclipid>ArmA 3 2020.11.14 - 00.42.57.75.mp4</masterclipid>
								<logginginfo>
									<scene />
									<shottake />
									<lognote />
									<good>FALSE</good>
								</logginginfo>
								<labels>
									<label2 />
								</labels>
								<comments>
									<mastercomment1 />
									<mastercomment2 />
									<mastercomment3 />
									<mastercomment4 />
								</comments>
								<file id="ArmA 3 2020.11.14 - 00.42.57.75" />
								<filter>
									<effect>
										<name>Audio Levels</name>
										<effectid>audiolevels</effectid>
										<effectcategory>audiolevels</effectcategory>
										<effecttype>audiolevels</effecttype>
										<mediatype>audio</mediatype>
										<parameter>
											<name>Level</name>
											<parameterid>level</parameterid>
											<valuemin>0</valuemin>
											<valuemax>3,98109</valuemax>
											<value>1</value>
										</parameter>
									</effect>
								</filter>
								<filter>
									<effect>
										<name>Audio Pan</name>
										<effectid>audiopan</effectid>
										<effectcategory>audiopan</effectcategory>
										<effecttype>audiopan</effecttype>
										<mediatype>audio</mediatype>
										<parameter>
											<name>Pan</name>
											<parameterid>pan</parameterid>
											<valuemin>-1</valuemin>
											<valuemax>1</valuemax>
											<value>-1</value>
										</parameter>
									</effect>
								</filter>
								<sourcetrack>
									<mediatype>audio</mediatype>
									<trackindex>1</trackindex>
								</sourcetrack>
								<link>
									<linkclipref>ArmA 3 2020.11.14 - 00.42.57.75.mp4805307610</linkclipref>
								</link>
								<link>
									<linkclipref>ArmA 3 2020.11.14 - 00.42.57.75.mp4536872155</linkclipref>
								</link>
								<link>
									<linkclipref>ArmA 3 2020.11.14 - 00.42.57.75.mp45368721551</linkclipref>
								</link>
								<link>
									<linkclipref>ArmA 3 2020.11.14 - 00.42.57.75.mp4536872156</linkclipref>
								</link>
								<link>
									<linkclipref>ArmA 3 2020.11.14 - 00.42.57.75.mp45368721561</linkclipref>
								</link>
							</clipitem>
							<clipitem id="ArmA 3 2020.11.14 - 00.44.30.76.mp4536872158">
								<name>ArmA 3 2020.11.14 - 00.44.30.76.mp4</name>
								<duration>338</duration>
								<rate>
									<ntsc>TRUE</ntsc>
									<timebase>24</timebase>
								</rate>
								<in>1120</in>
								<out>1458</out>
								<start>9034</start>
								<end>9372</end>
								<enabled>FALSE</enabled>
								<masterclipid>ArmA 3 2020.11.14 - 00.44.30.76.mp4</masterclipid>
								<logginginfo>
									<scene />
									<shottake />
									<lognote />
									<good>FALSE</good>
								</logginginfo>
								<labels>
									<label2 />
								</labels>
								<comments>
									<mastercomment1 />
									<mastercomment2 />
									<mastercomment3 />
									<mastercomment4 />
								</comments>
								<file id="ArmA 3 2020.11.14 - 00.44.30.76" />
								<filter>
									<effect>
										<name>Audio Levels</name>
										<effectid>audiolevels</effectid>
										<effectcategory>audiolevels</effectcategory>
										<effecttype>audiolevels</effecttype>
										<mediatype>audio</mediatype>
										<parameter>
											<name>Level</name>
											<parameterid>level</parameterid>
											<valuemin>0</valuemin>
											<valuemax>3,98109</valuemax>
											<value>1</value>
										</parameter>
									</effect>
								</filter>
								<filter>
									<effect>
										<name>Audio Pan</name>
										<effectid>audiopan</effectid>
										<effectcategory>audiopan</effectcategory>
										<effecttype>audiopan</effecttype>
										<mediatype>audio</mediatype>
										<parameter>
											<name>Pan</name>
											<parameterid>pan</parameterid>
											<valuemin>-1</valuemin>
											<valuemax>1</valuemax>
											<value>-1</value>
										</parameter>
									</effect>
								</filter>
								<sourcetrack>
									<mediatype>audio</mediatype>
									<trackindex>1</trackindex>
								</sourcetrack>
								<link>
									<linkclipref>ArmA 3 2020.11.14 - 00.44.30.76.mp4805307613</linkclipref>
								</link>
								<link>
									<linkclipref>ArmA 3 2020.11.14 - 00.44.30.76.mp4536872158</linkclipref>
								</link>
								<link>
									<linkclipref>ArmA 3 2020.11.14 - 00.44.30.76.mp45368721581</linkclipref>
								</link>
								<link>
									<linkclipref>ArmA 3 2020.11.14 - 00.44.30.76.mp4536872159</linkclipref>
								</link>
								<link>
									<linkclipref>ArmA 3 2020.11.14 - 00.44.30.76.mp45368721591</linkclipref>
								</link>
							</clipitem>
							<clipitem id="ArmA 3 2020.11.14 - 00.46.39.77.mp4536872161">
								<name>ArmA 3 2020.11.14 - 00.46.39.77.mp4</name>
								<duration>1515</duration>
								<rate>
									<ntsc>TRUE</ntsc>
									<timebase>24</timebase>
								</rate>
								<in>0</in>
								<out>1515</out>
								<start>9373</start>
								<end>10888</end>
								<enabled>FALSE</enabled>
								<masterclipid>ArmA 3 2020.11.14 - 00.46.39.77.mp4</masterclipid>
								<logginginfo>
									<scene />
									<shottake />
									<lognote />
									<good>FALSE</good>
								</logginginfo>
								<labels>
									<label2 />
								</labels>
								<comments>
									<mastercomment1 />
									<mastercomment2 />
									<mastercomment3 />
									<mastercomment4 />
								</comments>
								<file id="ArmA 3 2020.11.14 - 00.46.39.77" />
								<filter>
									<effect>
										<name>Audio Levels</name>
										<effectid>audiolevels</effectid>
										<effectcategory>audiolevels</effectcategory>
										<effecttype>audiolevels</effecttype>
										<mediatype>audio</mediatype>
										<parameter>
											<name>Level</name>
											<parameterid>level</parameterid>
											<valuemin>0</valuemin>
											<valuemax>3,98109</valuemax>
											<value>1</value>
										</parameter>
									</effect>
								</filter>
								<filter>
									<effect>
										<name>Audio Pan</name>
										<effectid>audiopan</effectid>
										<effectcategory>audiopan</effectcategory>
										<effecttype>audiopan</effecttype>
										<mediatype>audio</mediatype>
										<parameter>
											<name>Pan</name>
											<parameterid>pan</parameterid>
											<valuemin>-1</valuemin>
											<valuemax>1</valuemax>
											<value>-1</value>
										</parameter>
									</effect>
								</filter>
								<sourcetrack>
									<mediatype>audio</mediatype>
									<trackindex>1</trackindex>
								</sourcetrack>
								<link>
									<linkclipref>ArmA 3 2020.11.14 - 00.46.39.77.mp4805307616</linkclipref>
								</link>
								<link>
									<linkclipref>ArmA 3 2020.11.14 - 00.46.39.77.mp4536872161</linkclipref>
								</link>
								<link>
									<linkclipref>ArmA 3 2020.11.14 - 00.46.39.77.mp45368721611</linkclipref>
								</link>
								<link>
									<linkclipref>ArmA 3 2020.11.14 - 00.46.39.77.mp4536872162</linkclipref>
								</link>
								<link>
									<linkclipref>ArmA 3 2020.11.14 - 00.46.39.77.mp45368721621</linkclipref>
								</link>
							</clipitem>
						</track>
						<track>
							<clipitem id="ArmA 3 2020.11.14 - 00.28.44.69.mp45368721371">
								<name>ArmA 3 2020.11.14 - 00.28.44.69.mp4</name>
								<duration>304</duration>
								<rate>
									<ntsc>TRUE</ntsc>
									<timebase>24</timebase>
								</rate>
								<in>0</in>
								<out>304</out>
								<start>0</start>
								<end>304</end>
								<enabled>FALSE</enabled>
								<masterclipid>ArmA 3 2020.11.14 - 00.28.44.69.mp4</masterclipid>
								<logginginfo>
									<scene />
									<shottake />
									<lognote />
									<good>FALSE</good>
								</logginginfo>
								<labels>
									<label2 />
								</labels>
								<comments>
									<mastercomment1 />
									<mastercomment2 />
									<mastercomment3 />
									<mastercomment4 />
								</comments>
								<file id="ArmA 3 2020.11.14 - 00.28.44.69" />
								<filter>
									<effect>
										<name>Audio Levels</name>
										<effectid>audiolevels</effectid>
										<effectcategory>audiolevels</effectcategory>
										<effecttype>audiolevels</effecttype>
										<mediatype>audio</mediatype>
										<parameter>
											<name>Level</name>
											<parameterid>level</parameterid>
											<valuemin>0</valuemin>
											<valuemax>3,98109</valuemax>
											<value>1</value>
										</parameter>
									</effect>
								</filter>
								<filter>
									<effect>
										<name>Audio Pan</name>
										<effectid>audiopan</effectid>
										<effectcategory>audiopan</effectcategory>
										<effecttype>audiopan</effecttype>
										<mediatype>audio</mediatype>
										<parameter>
											<name>Pan</name>
											<parameterid>pan</parameterid>
											<valuemin>-1</valuemin>
											<valuemax>1</valuemax>
											<value>1</value>
										</parameter>
									</effect>
								</filter>
								<sourcetrack>
									<mediatype>audio</mediatype>
									<trackindex>2</trackindex>
								</sourcetrack>
								<link>
									<linkclipref>ArmA 3 2020.11.14 - 00.28.44.69.mp4805307592</linkclipref>
								</link>
								<link>
									<linkclipref>ArmA 3 2020.11.14 - 00.28.44.69.mp4536872137</linkclipref>
								</link>
								<link>
									<linkclipref>ArmA 3 2020.11.14 - 00.28.44.69.mp45368721371</linkclipref>
								</link>
								<link>
									<linkclipref>ArmA 3 2020.11.14 - 00.28.44.69.mp4536872138</linkclipref>
								</link>
								<link>
									<linkclipref>ArmA 3 2020.11.14 - 00.28.44.69.mp45368721381</linkclipref>
								</link>
							</clipitem>
							<clipitem id="ArmA 3 2020.11.14 - 00.29.10.70.mp45368721401">
								<name>ArmA 3 2020.11.14 - 00.29.10.70.mp4</name>
								<duration>1838</duration>
								<rate>
									<ntsc>TRUE</ntsc>
									<timebase>24</timebase>
								</rate>
								<in>0</in>
								<out>1838</out>
								<start>305</start>
								<end>2143</end>
								<enabled>FALSE</enabled>
								<masterclipid>ArmA 3 2020.11.14 - 00.29.10.70.mp4</masterclipid>
								<logginginfo>
									<scene />
									<shottake />
									<lognote />
									<good>FALSE</good>
								</logginginfo>
								<labels>
									<label2 />
								</labels>
								<comments>
									<mastercomment1 />
									<mastercomment2 />
									<mastercomment3 />
									<mastercomment4 />
								</comments>
								<file id="ArmA 3 2020.11.14 - 00.29.10.70" />
								<filter>
									<effect>
										<name>Audio Levels</name>
										<effectid>audiolevels</effectid>
										<effectcategory>audiolevels</effectcategory>
										<effecttype>audiolevels</effecttype>
										<mediatype>audio</mediatype>
										<parameter>
											<name>Level</name>
											<parameterid>level</parameterid>
											<valuemin>0</valuemin>
											<valuemax>3,98109</valuemax>
											<value>1</value>
										</parameter>
									</effect>
								</filter>
								<filter>
									<effect>
										<name>Audio Pan</name>
										<effectid>audiopan</effectid>
										<effectcategory>audiopan</effectcategory>
										<effecttype>audiopan</effecttype>
										<mediatype>audio</mediatype>
										<parameter>
											<name>Pan</name>
											<parameterid>pan</parameterid>
											<valuemin>-1</valuemin>
											<valuemax>1</valuemax>
											<value>1</value>
										</parameter>
									</effect>
								</filter>
								<sourcetrack>
									<mediatype>audio</mediatype>
									<trackindex>2</trackindex>
								</sourcetrack>
								<link>
									<linkclipref>ArmA 3 2020.11.14 - 00.29.10.70.mp4805307595</linkclipref>
								</link>
								<link>
									<linkclipref>ArmA 3 2020.11.14 - 00.29.10.70.mp4536872140</linkclipref>
								</link>
								<link>
									<linkclipref>ArmA 3 2020.11.14 - 00.29.10.70.mp45368721401</linkclipref>
								</link>
								<link>
									<linkclipref>ArmA 3 2020.11.14 - 00.29.10.70.mp4536872141</linkclipref>
								</link>
								<link>
									<linkclipref>ArmA 3 2020.11.14 - 00.29.10.70.mp45368721411</linkclipref>
								</link>
							</clipitem>
							<clipitem id="ArmA 3 2020.11.14 - 00.30.52.71.mp45368721431">
								<name>ArmA 3 2020.11.14 - 00.30.52.71.mp4</name>
								<duration>933</duration>
								<rate>
									<ntsc>TRUE</ntsc>
									<timebase>24</timebase>
								</rate>
								<in>0</in>
								<out>933</out>
								<start>2144</start>
								<end>3077</end>
								<enabled>FALSE</enabled>
								<masterclipid>ArmA 3 2020.11.14 - 00.30.52.71.mp4</masterclipid>
								<logginginfo>
									<scene />
									<shottake />
									<lognote />
									<good>FALSE</good>
								</logginginfo>
								<labels>
									<label2 />
								</labels>
								<comments>
									<mastercomment1 />
									<mastercomment2 />
									<mastercomment3 />
									<mastercomment4 />
								</comments>
								<file id="ArmA 3 2020.11.14 - 00.30.52.71" />
								<filter>
									<effect>
										<name>Audio Levels</name>
										<effectid>audiolevels</effectid>
										<effectcategory>audiolevels</effectcategory>
										<effecttype>audiolevels</effecttype>
										<mediatype>audio</mediatype>
										<parameter>
											<name>Level</name>
											<parameterid>level</parameterid>
											<valuemin>0</valuemin>
											<valuemax>3,98109</valuemax>
											<value>1</value>
										</parameter>
									</effect>
								</filter>
								<filter>
									<effect>
										<name>Audio Pan</name>
										<effectid>audiopan</effectid>
										<effectcategory>audiopan</effectcategory>
										<effecttype>audiopan</effecttype>
										<mediatype>audio</mediatype>
										<parameter>
											<name>Pan</name>
											<parameterid>pan</parameterid>
											<valuemin>-1</valuemin>
											<valuemax>1</valuemax>
											<value>1</value>
										</parameter>
									</effect>
								</filter>
								<sourcetrack>
									<mediatype>audio</mediatype>
									<trackindex>2</trackindex>
								</sourcetrack>
								<link>
									<linkclipref>ArmA 3 2020.11.14 - 00.30.52.71.mp4805307598</linkclipref>
								</link>
								<link>
									<linkclipref>ArmA 3 2020.11.14 - 00.30.52.71.mp4536872143</linkclipref>
								</link>
								<link>
									<linkclipref>ArmA 3 2020.11.14 - 00.30.52.71.mp45368721431</linkclipref>
								</link>
								<link>
									<linkclipref>ArmA 3 2020.11.14 - 00.30.52.71.mp4536872144</linkclipref>
								</link>
								<link>
									<linkclipref>ArmA 3 2020.11.14 - 00.30.52.71.mp45368721441</linkclipref>
								</link>
							</clipitem>
							<clipitem id="ArmA 3 2020.11.14 - 00.32.09.72.mp45368721461">
								<name>ArmA 3 2020.11.14 - 00.32.09.72.mp4</name>
								<duration>1258</duration>
								<rate>
									<ntsc>TRUE</ntsc>
									<timebase>24</timebase>
								</rate>
								<in>0</in>
								<out>1258</out>
								<start>3078</start>
								<end>4336</end>
								<enabled>FALSE</enabled>
								<masterclipid>ArmA 3 2020.11.14 - 00.32.09.72.mp4</masterclipid>
								<logginginfo>
									<scene />
									<shottake />
									<lognote />
									<good>FALSE</good>
								</logginginfo>
								<labels>
									<label2 />
								</labels>
								<comments>
									<mastercomment1 />
									<mastercomment2 />
									<mastercomment3 />
									<mastercomment4 />
								</comments>
								<file id="ArmA 3 2020.11.14 - 00.32.09.72" />
								<filter>
									<effect>
										<name>Audio Levels</name>
										<effectid>audiolevels</effectid>
										<effectcategory>audiolevels</effectcategory>
										<effecttype>audiolevels</effecttype>
										<mediatype>audio</mediatype>
										<parameter>
											<name>Level</name>
											<parameterid>level</parameterid>
											<valuemin>0</valuemin>
											<valuemax>3,98109</valuemax>
											<value>1</value>
										</parameter>
									</effect>
								</filter>
								<filter>
									<effect>
										<name>Audio Pan</name>
										<effectid>audiopan</effectid>
										<effectcategory>audiopan</effectcategory>
										<effecttype>audiopan</effecttype>
										<mediatype>audio</mediatype>
										<parameter>
											<name>Pan</name>
											<parameterid>pan</parameterid>
											<valuemin>-1</valuemin>
											<valuemax>1</valuemax>
											<value>1</value>
										</parameter>
									</effect>
								</filter>
								<sourcetrack>
									<mediatype>audio</mediatype>
									<trackindex>2</trackindex>
								</sourcetrack>
								<link>
									<linkclipref>ArmA 3 2020.11.14 - 00.32.09.72.mp4805307601</linkclipref>
								</link>
								<link>
									<linkclipref>ArmA 3 2020.11.14 - 00.32.09.72.mp4536872146</linkclipref>
								</link>
								<link>
									<linkclipref>ArmA 3 2020.11.14 - 00.32.09.72.mp45368721461</linkclipref>
								</link>
								<link>
									<linkclipref>ArmA 3 2020.11.14 - 00.32.09.72.mp4536872147</linkclipref>
								</link>
								<link>
									<linkclipref>ArmA 3 2020.11.14 - 00.32.09.72.mp45368721471</linkclipref>
								</link>
							</clipitem>
							<clipitem id="ArmA 3 2020.11.14 - 00.34.30.73.mp45368721491">
								<name>ArmA 3 2020.11.14 - 00.34.30.73.mp4</name>
								<duration>2159</duration>
								<rate>
									<ntsc>TRUE</ntsc>
									<timebase>24</timebase>
								</rate>
								<in>0</in>
								<out>2159</out>
								<start>4337</start>
								<end>6496</end>
								<enabled>FALSE</enabled>
								<masterclipid>ArmA 3 2020.11.14 - 00.34.30.73.mp4</masterclipid>
								<logginginfo>
									<scene />
									<shottake />
									<lognote />
									<good>FALSE</good>
								</logginginfo>
								<labels>
									<label2 />
								</labels>
								<comments>
									<mastercomment1 />
									<mastercomment2 />
									<mastercomment3 />
									<mastercomment4 />
								</comments>
								<file id="ArmA 3 2020.11.14 - 00.34.30.73" />
								<filter>
									<effect>
										<name>Audio Levels</name>
										<effectid>audiolevels</effectid>
										<effectcategory>audiolevels</effectcategory>
										<effecttype>audiolevels</effecttype>
										<mediatype>audio</mediatype>
										<parameter>
											<name>Level</name>
											<parameterid>level</parameterid>
											<valuemin>0</valuemin>
											<valuemax>3,98109</valuemax>
											<value>1</value>
										</parameter>
									</effect>
								</filter>
								<filter>
									<effect>
										<name>Audio Pan</name>
										<effectid>audiopan</effectid>
										<effectcategory>audiopan</effectcategory>
										<effecttype>audiopan</effecttype>
										<mediatype>audio</mediatype>
										<parameter>
											<name>Pan</name>
											<parameterid>pan</parameterid>
											<valuemin>-1</valuemin>
											<valuemax>1</valuemax>
											<value>1</value>
										</parameter>
									</effect>
								</filter>
								<sourcetrack>
									<mediatype>audio</mediatype>
									<trackindex>2</trackindex>
								</sourcetrack>
								<link>
									<linkclipref>ArmA 3 2020.11.14 - 00.34.30.73.mp4805307604</linkclipref>
								</link>
								<link>
									<linkclipref>ArmA 3 2020.11.14 - 00.34.30.73.mp4536872149</linkclipref>
								</link>
								<link>
									<linkclipref>ArmA 3 2020.11.14 - 00.34.30.73.mp45368721491</linkclipref>
								</link>
								<link>
									<linkclipref>ArmA 3 2020.11.14 - 00.34.30.73.mp4536872150</linkclipref>
								</link>
								<link>
									<linkclipref>ArmA 3 2020.11.14 - 00.34.30.73.mp45368721501</linkclipref>
								</link>
							</clipitem>
							<clipitem id="ArmA 3 2020.11.14 - 00.39.58.74.mp45368721521">
								<name>ArmA 3 2020.11.14 - 00.39.58.74.mp4</name>
								<duration>1182</duration>
								<rate>
									<ntsc>TRUE</ntsc>
									<timebase>24</timebase>
								</rate>
								<in>0</in>
								<out>1182</out>
								<start>6497</start>
								<end>7679</end>
								<enabled>FALSE</enabled>
								<masterclipid>ArmA 3 2020.11.14 - 00.39.58.74.mp4</masterclipid>
								<logginginfo>
									<scene />
									<shottake />
									<lognote />
									<good>FALSE</good>
								</logginginfo>
								<labels>
									<label2 />
								</labels>
								<comments>
									<mastercomment1 />
									<mastercomment2 />
									<mastercomment3 />
									<mastercomment4 />
								</comments>
								<file id="ArmA 3 2020.11.14 - 00.39.58.74" />
								<filter>
									<effect>
										<name>Audio Levels</name>
										<effectid>audiolevels</effectid>
										<effectcategory>audiolevels</effectcategory>
										<effecttype>audiolevels</effecttype>
										<mediatype>audio</mediatype>
										<parameter>
											<name>Level</name>
											<parameterid>level</parameterid>
											<valuemin>0</valuemin>
											<valuemax>3,98109</valuemax>
											<value>1</value>
										</parameter>
									</effect>
								</filter>
								<filter>
									<effect>
										<name>Audio Pan</name>
										<effectid>audiopan</effectid>
										<effectcategory>audiopan</effectcategory>
										<effecttype>audiopan</effecttype>
										<mediatype>audio</mediatype>
										<parameter>
											<name>Pan</name>
											<parameterid>pan</parameterid>
											<valuemin>-1</valuemin>
											<valuemax>1</valuemax>
											<value>1</value>
										</parameter>
									</effect>
								</filter>
								<sourcetrack>
									<mediatype>audio</mediatype>
									<trackindex>2</trackindex>
								</sourcetrack>
								<link>
									<linkclipref>ArmA 3 2020.11.14 - 00.39.58.74.mp4805307607</linkclipref>
								</link>
								<link>
									<linkclipref>ArmA 3 2020.11.14 - 00.39.58.74.mp4536872152</linkclipref>
								</link>
								<link>
									<linkclipref>ArmA 3 2020.11.14 - 00.39.58.74.mp45368721521</linkclipref>
								</link>
								<link>
									<linkclipref>ArmA 3 2020.11.14 - 00.39.58.74.mp4536872153</linkclipref>
								</link>
								<link>
									<linkclipref>ArmA 3 2020.11.14 - 00.39.58.74.mp45368721531</linkclipref>
								</link>
							</clipitem>
							<clipitem id="ArmA 3 2020.11.14 - 00.42.57.75.mp45368721551">
								<name>ArmA 3 2020.11.14 - 00.42.57.75.mp4</name>
								<duration>1353</duration>
								<rate>
									<ntsc>TRUE</ntsc>
									<timebase>24</timebase>
								</rate>
								<in>0</in>
								<out>1353</out>
								<start>7680</start>
								<end>9033</end>
								<enabled>FALSE</enabled>
								<masterclipid>ArmA 3 2020.11.14 - 00.42.57.75.mp4</masterclipid>
								<logginginfo>
									<scene />
									<shottake />
									<lognote />
									<good>FALSE</good>
								</logginginfo>
								<labels>
									<label2 />
								</labels>
								<comments>
									<mastercomment1 />
									<mastercomment2 />
									<mastercomment3 />
									<mastercomment4 />
								</comments>
								<file id="ArmA 3 2020.11.14 - 00.42.57.75" />
								<filter>
									<effect>
										<name>Audio Levels</name>
										<effectid>audiolevels</effectid>
										<effectcategory>audiolevels</effectcategory>
										<effecttype>audiolevels</effecttype>
										<mediatype>audio</mediatype>
										<parameter>
											<name>Level</name>
											<parameterid>level</parameterid>
											<valuemin>0</valuemin>
											<valuemax>3,98109</valuemax>
											<value>1</value>
										</parameter>
									</effect>
								</filter>
								<filter>
									<effect>
										<name>Audio Pan</name>
										<effectid>audiopan</effectid>
										<effectcategory>audiopan</effectcategory>
										<effecttype>audiopan</effecttype>
										<mediatype>audio</mediatype>
										<parameter>
											<name>Pan</name>
											<parameterid>pan</parameterid>
											<valuemin>-1</valuemin>
											<valuemax>1</valuemax>
											<value>1</value>
										</parameter>
									</effect>
								</filter>
								<sourcetrack>
									<mediatype>audio</mediatype>
									<trackindex>2</trackindex>
								</sourcetrack>
								<link>
									<linkclipref>ArmA 3 2020.11.14 - 00.42.57.75.mp4805307610</linkclipref>
								</link>
								<link>
									<linkclipref>ArmA 3 2020.11.14 - 00.42.57.75.mp4536872155</linkclipref>
								</link>
								<link>
									<linkclipref>ArmA 3 2020.11.14 - 00.42.57.75.mp45368721551</linkclipref>
								</link>
								<link>
									<linkclipref>ArmA 3 2020.11.14 - 00.42.57.75.mp4536872156</linkclipref>
								</link>
								<link>
									<linkclipref>ArmA 3 2020.11.14 - 00.42.57.75.mp45368721561</linkclipref>
								</link>
							</clipitem>
							<clipitem id="ArmA 3 2020.11.14 - 00.44.30.76.mp45368721581">
								<name>ArmA 3 2020.11.14 - 00.44.30.76.mp4</name>
								<duration>338</duration>
								<rate>
									<ntsc>TRUE</ntsc>
									<timebase>24</timebase>
								</rate>
								<in>1120</in>
								<out>1458</out>
								<start>9034</start>
								<end>9372</end>
								<enabled>FALSE</enabled>
								<masterclipid>ArmA 3 2020.11.14 - 00.44.30.76.mp4</masterclipid>
								<logginginfo>
									<scene />
									<shottake />
									<lognote />
									<good>FALSE</good>
								</logginginfo>
								<labels>
									<label2 />
								</labels>
								<comments>
									<mastercomment1 />
									<mastercomment2 />
									<mastercomment3 />
									<mastercomment4 />
								</comments>
								<file id="ArmA 3 2020.11.14 - 00.44.30.76" />
								<filter>
									<effect>
										<name>Audio Levels</name>
										<effectid>audiolevels</effectid>
										<effectcategory>audiolevels</effectcategory>
										<effecttype>audiolevels</effecttype>
										<mediatype>audio</mediatype>
										<parameter>
											<name>Level</name>
											<parameterid>level</parameterid>
											<valuemin>0</valuemin>
											<valuemax>3,98109</valuemax>
											<value>1</value>
										</parameter>
									</effect>
								</filter>
								<filter>
									<effect>
										<name>Audio Pan</name>
										<effectid>audiopan</effectid>
										<effectcategory>audiopan</effectcategory>
										<effecttype>audiopan</effecttype>
										<mediatype>audio</mediatype>
										<parameter>
											<name>Pan</name>
											<parameterid>pan</parameterid>
											<valuemin>-1</valuemin>
											<valuemax>1</valuemax>
											<value>1</value>
										</parameter>
									</effect>
								</filter>
								<sourcetrack>
									<mediatype>audio</mediatype>
									<trackindex>2</trackindex>
								</sourcetrack>
								<link>
									<linkclipref>ArmA 3 2020.11.14 - 00.44.30.76.mp4805307613</linkclipref>
								</link>
								<link>
									<linkclipref>ArmA 3 2020.11.14 - 00.44.30.76.mp4536872158</linkclipref>
								</link>
								<link>
									<linkclipref>ArmA 3 2020.11.14 - 00.44.30.76.mp45368721581</linkclipref>
								</link>
								<link>
									<linkclipref>ArmA 3 2020.11.14 - 00.44.30.76.mp4536872159</linkclipref>
								</link>
								<link>
									<linkclipref>ArmA 3 2020.11.14 - 00.44.30.76.mp45368721591</linkclipref>
								</link>
							</clipitem>
							<clipitem id="ArmA 3 2020.11.14 - 00.46.39.77.mp45368721611">
								<name>ArmA 3 2020.11.14 - 00.46.39.77.mp4</name>
								<duration>1515</duration>
								<rate>
									<ntsc>TRUE</ntsc>
									<timebase>24</timebase>
								</rate>
								<in>0</in>
								<out>1515</out>
								<start>9373</start>
								<end>10888</end>
								<enabled>FALSE</enabled>
								<masterclipid>ArmA 3 2020.11.14 - 00.46.39.77.mp4</masterclipid>
								<logginginfo>
									<scene />
									<shottake />
									<lognote />
									<good>FALSE</good>
								</logginginfo>
								<labels>
									<label2 />
								</labels>
								<comments>
									<mastercomment1 />
									<mastercomment2 />
									<mastercomment3 />
									<mastercomment4 />
								</comments>
								<file id="ArmA 3 2020.11.14 - 00.46.39.77" />
								<filter>
									<effect>
										<name>Audio Levels</name>
										<effectid>audiolevels</effectid>
										<effectcategory>audiolevels</effectcategory>
										<effecttype>audiolevels</effecttype>
										<mediatype>audio</mediatype>
										<parameter>
											<name>Level</name>
											<parameterid>level</parameterid>
											<valuemin>0</valuemin>
											<valuemax>3,98109</valuemax>
											<value>1</value>
										</parameter>
									</effect>
								</filter>
								<filter>
									<effect>
										<name>Audio Pan</name>
										<effectid>audiopan</effectid>
										<effectcategory>audiopan</effectcategory>
										<effecttype>audiopan</effecttype>
										<mediatype>audio</mediatype>
										<parameter>
											<name>Pan</name>
											<parameterid>pan</parameterid>
											<valuemin>-1</valuemin>
											<valuemax>1</valuemax>
											<value>1</value>
										</parameter>
									</effect>
								</filter>
								<sourcetrack>
									<mediatype>audio</mediatype>
									<trackindex>2</trackindex>
								</sourcetrack>
								<link>
									<linkclipref>ArmA 3 2020.11.14 - 00.46.39.77.mp4805307616</linkclipref>
								</link>
								<link>
									<linkclipref>ArmA 3 2020.11.14 - 00.46.39.77.mp4536872161</linkclipref>
								</link>
								<link>
									<linkclipref>ArmA 3 2020.11.14 - 00.46.39.77.mp45368721611</linkclipref>
								</link>
								<link>
									<linkclipref>ArmA 3 2020.11.14 - 00.46.39.77.mp4536872162</linkclipref>
								</link>
								<link>
									<linkclipref>ArmA 3 2020.11.14 - 00.46.39.77.mp45368721621</linkclipref>
								</link>
							</clipitem>
						</track>
					</audio>
				</media>
			</sequence>
		</children>
	</project>
</xmeml>