<?xml version="1.0"?>
<xmeml version="5">
	<project>
		<name>Untitled Project 1</name>
		<children>
			<bin>
				<updatebehavior>add</updatebehavior>
				<name>Custom Bins</name>
				<children>
					<bin>
						<updatebehavior>add</updatebehavior>
						<name>PR_SCENE7</name>
						<children>
							<clip id="ArmA 3 2020.11.14 - 20.19.25.25.mp4">
								<updatebehavior>add</updatebehavior>
								<name>ArmA 3 2020.11.14 - 20.19.25.25.mp4</name>
								<duration>93</duration>
								<rate>
									<ntsc>FALSE</ntsc>
									<timebase>60</timebase>
								</rate>
								<in>-1</in>
								<out>-1</out>
								<masterclipid>ArmA 3 2020.11.14 - 20.19.25.25.mp4</masterclipid>
								<ismasterclip>TRUE</ismasterclip>
								<logginginfo>
									<scene />
									<shottake />
									<lognote />
									<good>FALSE</good>
								</logginginfo>
								<labels>
									<label2 />
								</labels>
								<comments>
									<mastercomment1 />
									<mastercomment2 />
									<mastercomment3 />
									<mastercomment4 />
								</comments>
								<media>
									<video>
										<track>
											<clipitem id="ArmA 3 2020.11.14 - 20.19.25.25.mp41">
												<name>ArmA 3 2020.11.14 - 20.19.25.25.mp4</name>
												<duration>93</duration>
												<rate>
													<ntsc>FALSE</ntsc>
													<timebase>60</timebase>
												</rate>
												<in>0</in>
												<out>93</out>
												<start>0</start>
												<end>93</end>
												<pixelaspectratio>Square</pixelaspectratio>
												<anamorphic>FALSE</anamorphic>
												<alphatype>none</alphatype>
												<masterclipid>ArmA 3 2020.11.14 - 20.19.25.25.mp4</masterclipid>
												<logginginfo>
													<scene />
													<shottake />
													<lognote />
													<good>FALSE</good>
												</logginginfo>
												<labels>
													<label2 />
												</labels>
												<comments>
													<mastercomment1 />
													<mastercomment2 />
													<mastercomment3 />
													<mastercomment4 />
												</comments>
												<file id="ArmA 3 2020.11.14 - 20.19.25.25">
													<name>ArmA 3 2020.11.14 - 20.19.25.25.mp4</name>
													<pathurl>file://localhost/F:/AMVS Russia/NaturaDestruction/PRPACK7/ArmA 3 2020.11.14 - 20.19.25.25.mp4</pathurl>
													<rate>
														<timebase>60</timebase>
														<ntsc>FALSE</ntsc>
													</rate>
													<duration>93</duration>
													<timecode>
														<rate>
															<timebase>60</timebase>
															<ntsc>FALSE</ntsc>
														</rate>
														<frame>0</frame>
														<displayformat>NDF</displayformat>
														<source>source</source>
													</timecode>
													<media>
														<video>
															<duration>93</duration>
															<samplecharacteristics>
																<width>1920</width>
																<height>1080</height>
															</samplecharacteristics>
														</video>
														<audio>
															<samplecharacteristics>
																<samplerate>48000</samplerate>
																<depth>32</depth>
															</samplecharacteristics>
															<channelcount>1</channelcount>
														</audio>
														<audio>
															<samplecharacteristics>
																<samplerate>48000</samplerate>
																<depth>32</depth>
															</samplecharacteristics>
															<channelcount>1</channelcount>
														</audio>
													</media>
												</file>
												<sourcetrack>
													<mediatype>video</mediatype>
												</sourcetrack>
												<fielddominance>none</fielddominance>
											</clipitem>
											<enabled>TRUE</enabled>
											<locked>FALSE</locked>
										</track>
									</video>
									<audio>
										<track>
											<clipitem id="ArmA 3 2020.11.14 - 20.19.25.25.mp42">
												<name>ArmA 3 2020.11.14 - 20.19.25.25.mp4</name>
												<duration>93</duration>
												<rate>
													<ntsc>TRUE</ntsc>
													<timebase>24</timebase>
												</rate>
												<in>0</in>
												<out>93</out>
												<start>0</start>
												<end>93</end>
												<masterclipid>ArmA 3 2020.11.14 - 20.19.25.25.mp4</masterclipid>
												<logginginfo>
													<scene />
													<shottake />
													<lognote />
													<good>FALSE</good>
												</logginginfo>
												<labels>
													<label2 />
												</labels>
												<comments>
													<mastercomment1 />
													<mastercomment2 />
													<mastercomment3 />
													<mastercomment4 />
												</comments>
												<file id="ArmA 3 2020.11.14 - 20.19.25.25" />
												<sourcetrack>
													<mediatype>audio</mediatype>
												</sourcetrack>
											</clipitem>
											<enabled>TRUE</enabled>
											<locked>FALSE</locked>
										</track>
										<track>
											<clipitem id="ArmA 3 2020.11.14 - 20.19.25.25.mp43">
												<name>ArmA 3 2020.11.14 - 20.19.25.25.mp4</name>
												<duration>93</duration>
												<rate>
													<ntsc>TRUE</ntsc>
													<timebase>24</timebase>
												</rate>
												<in>0</in>
												<out>93</out>
												<start>0</start>
												<end>93</end>
												<masterclipid>ArmA 3 2020.11.14 - 20.19.25.25.mp4</masterclipid>
												<logginginfo>
													<scene />
													<shottake />
													<lognote />
													<good>FALSE</good>
												</logginginfo>
												<labels>
													<label2 />
												</labels>
												<comments>
													<mastercomment1 />
													<mastercomment2 />
													<mastercomment3 />
													<mastercomment4 />
												</comments>
												<file id="ArmA 3 2020.11.14 - 20.19.25.25" />
												<sourcetrack>
													<mediatype>audio</mediatype>
												</sourcetrack>
											</clipitem>
											<enabled>TRUE</enabled>
											<locked>FALSE</locked>
										</track>
									</audio>
								</media>
							</clip>
							<clip id="ArmA 3 2020.11.14 - 20.19.51.26.mp4">
								<updatebehavior>add</updatebehavior>
								<name>ArmA 3 2020.11.14 - 20.19.51.26.mp4</name>
								<duration>548</duration>
								<rate>
									<ntsc>FALSE</ntsc>
									<timebase>60</timebase>
								</rate>
								<in>-1</in>
								<out>-1</out>
								<masterclipid>ArmA 3 2020.11.14 - 20.19.51.26.mp4</masterclipid>
								<ismasterclip>TRUE</ismasterclip>
								<logginginfo>
									<scene />
									<shottake />
									<lognote />
									<good>FALSE</good>
								</logginginfo>
								<labels>
									<label2 />
								</labels>
								<comments>
									<mastercomment1 />
									<mastercomment2 />
									<mastercomment3 />
									<mastercomment4 />
								</comments>
								<media>
									<video>
										<track>
											<clipitem id="ArmA 3 2020.11.14 - 20.19.51.26.mp41">
												<name>ArmA 3 2020.11.14 - 20.19.51.26.mp4</name>
												<duration>548</duration>
												<rate>
													<ntsc>FALSE</ntsc>
													<timebase>60</timebase>
												</rate>
												<in>0</in>
												<out>548</out>
												<start>0</start>
												<end>548</end>
												<pixelaspectratio>Square</pixelaspectratio>
												<anamorphic>FALSE</anamorphic>
												<alphatype>none</alphatype>
												<masterclipid>ArmA 3 2020.11.14 - 20.19.51.26.mp4</masterclipid>
												<logginginfo>
													<scene />
													<shottake />
													<lognote />
													<good>FALSE</good>
												</logginginfo>
												<labels>
													<label2 />
												</labels>
												<comments>
													<mastercomment1 />
													<mastercomment2 />
													<mastercomment3 />
													<mastercomment4 />
												</comments>
												<file id="ArmA 3 2020.11.14 - 20.19.51.26">
													<name>ArmA 3 2020.11.14 - 20.19.51.26.mp4</name>
													<pathurl>file://localhost/F:/AMVS Russia/NaturaDestruction/PRPACK7/ArmA 3 2020.11.14 - 20.19.51.26.mp4</pathurl>
													<rate>
														<timebase>60</timebase>
														<ntsc>FALSE</ntsc>
													</rate>
													<duration>548</duration>
													<timecode>
														<rate>
															<timebase>60</timebase>
															<ntsc>FALSE</ntsc>
														</rate>
														<frame>0</frame>
														<displayformat>NDF</displayformat>
														<source>source</source>
													</timecode>
													<media>
														<video>
															<duration>548</duration>
															<samplecharacteristics>
																<width>1920</width>
																<height>1080</height>
															</samplecharacteristics>
														</video>
														<audio>
															<samplecharacteristics>
																<samplerate>48000</samplerate>
																<depth>32</depth>
															</samplecharacteristics>
															<channelcount>1</channelcount>
														</audio>
														<audio>
															<samplecharacteristics>
																<samplerate>48000</samplerate>
																<depth>32</depth>
															</samplecharacteristics>
															<channelcount>1</channelcount>
														</audio>
													</media>
												</file>
												<sourcetrack>
													<mediatype>video</mediatype>
												</sourcetrack>
												<fielddominance>none</fielddominance>
											</clipitem>
											<enabled>TRUE</enabled>
											<locked>FALSE</locked>
										</track>
									</video>
									<audio>
										<track>
											<clipitem id="ArmA 3 2020.11.14 - 20.19.51.26.mp42">
												<name>ArmA 3 2020.11.14 - 20.19.51.26.mp4</name>
												<duration>548</duration>
												<rate>
													<ntsc>TRUE</ntsc>
													<timebase>24</timebase>
												</rate>
												<in>0</in>
												<out>548</out>
												<start>0</start>
												<end>548</end>
												<masterclipid>ArmA 3 2020.11.14 - 20.19.51.26.mp4</masterclipid>
												<logginginfo>
													<scene />
													<shottake />
													<lognote />
													<good>FALSE</good>
												</logginginfo>
												<labels>
													<label2 />
												</labels>
												<comments>
													<mastercomment1 />
													<mastercomment2 />
													<mastercomment3 />
													<mastercomment4 />
												</comments>
												<file id="ArmA 3 2020.11.14 - 20.19.51.26" />
												<sourcetrack>
													<mediatype>audio</mediatype>
												</sourcetrack>
											</clipitem>
											<enabled>TRUE</enabled>
											<locked>FALSE</locked>
										</track>
										<track>
											<clipitem id="ArmA 3 2020.11.14 - 20.19.51.26.mp43">
												<name>ArmA 3 2020.11.14 - 20.19.51.26.mp4</name>
												<duration>548</duration>
												<rate>
													<ntsc>TRUE</ntsc>
													<timebase>24</timebase>
												</rate>
												<in>0</in>
												<out>548</out>
												<start>0</start>
												<end>548</end>
												<masterclipid>ArmA 3 2020.11.14 - 20.19.51.26.mp4</masterclipid>
												<logginginfo>
													<scene />
													<shottake />
													<lognote />
													<good>FALSE</good>
												</logginginfo>
												<labels>
													<label2 />
												</labels>
												<comments>
													<mastercomment1 />
													<mastercomment2 />
													<mastercomment3 />
													<mastercomment4 />
												</comments>
												<file id="ArmA 3 2020.11.14 - 20.19.51.26" />
												<sourcetrack>
													<mediatype>audio</mediatype>
												</sourcetrack>
											</clipitem>
											<enabled>TRUE</enabled>
											<locked>FALSE</locked>
										</track>
									</audio>
								</media>
							</clip>
							<clip id="ArmA 3 2020.11.14 - 20.20.25.27.mp4">
								<updatebehavior>add</updatebehavior>
								<name>ArmA 3 2020.11.14 - 20.20.25.27.mp4</name>
								<duration>1868</duration>
								<rate>
									<ntsc>FALSE</ntsc>
									<timebase>60</timebase>
								</rate>
								<in>-1</in>
								<out>-1</out>
								<masterclipid>ArmA 3 2020.11.14 - 20.20.25.27.mp4</masterclipid>
								<ismasterclip>TRUE</ismasterclip>
								<logginginfo>
									<scene />
									<shottake />
									<lognote />
									<good>FALSE</good>
								</logginginfo>
								<labels>
									<label2 />
								</labels>
								<comments>
									<mastercomment1 />
									<mastercomment2 />
									<mastercomment3 />
									<mastercomment4 />
								</comments>
								<media>
									<video>
										<track>
											<clipitem id="ArmA 3 2020.11.14 - 20.20.25.27.mp41">
												<name>ArmA 3 2020.11.14 - 20.20.25.27.mp4</name>
												<duration>1868</duration>
												<rate>
													<ntsc>FALSE</ntsc>
													<timebase>60</timebase>
												</rate>
												<in>0</in>
												<out>1868</out>
												<start>0</start>
												<end>1868</end>
												<pixelaspectratio>Square</pixelaspectratio>
												<anamorphic>FALSE</anamorphic>
												<alphatype>none</alphatype>
												<masterclipid>ArmA 3 2020.11.14 - 20.20.25.27.mp4</masterclipid>
												<logginginfo>
													<scene />
													<shottake />
													<lognote />
													<good>FALSE</good>
												</logginginfo>
												<labels>
													<label2 />
												</labels>
												<comments>
													<mastercomment1 />
													<mastercomment2 />
													<mastercomment3 />
													<mastercomment4 />
												</comments>
												<file id="ArmA 3 2020.11.14 - 20.20.25.27">
													<name>ArmA 3 2020.11.14 - 20.20.25.27.mp4</name>
													<pathurl>file://localhost/F:/AMVS Russia/NaturaDestruction/PRPACK3/ArmA 3 2020.11.14 - 20.20.25.27.mp4</pathurl>
													<rate>
														<timebase>60</timebase>
														<ntsc>FALSE</ntsc>
													</rate>
													<duration>1868</duration>
													<timecode>
														<rate>
															<timebase>60</timebase>
															<ntsc>FALSE</ntsc>
														</rate>
														<frame>0</frame>
														<displayformat>NDF</displayformat>
														<source>source</source>
													</timecode>
													<media>
														<video>
															<duration>1868</duration>
															<samplecharacteristics>
																<width>1920</width>
																<height>1080</height>
															</samplecharacteristics>
														</video>
														<audio>
															<samplecharacteristics>
																<samplerate>48000</samplerate>
																<depth>32</depth>
															</samplecharacteristics>
															<channelcount>1</channelcount>
														</audio>
														<audio>
															<samplecharacteristics>
																<samplerate>48000</samplerate>
																<depth>32</depth>
															</samplecharacteristics>
															<channelcount>1</channelcount>
														</audio>
													</media>
												</file>
												<sourcetrack>
													<mediatype>video</mediatype>
												</sourcetrack>
												<fielddominance>none</fielddominance>
											</clipitem>
											<enabled>TRUE</enabled>
											<locked>FALSE</locked>
										</track>
									</video>
									<audio>
										<track>
											<clipitem id="ArmA 3 2020.11.14 - 20.20.25.27.mp42">
												<name>ArmA 3 2020.11.14 - 20.20.25.27.mp4</name>
												<duration>1868</duration>
												<rate>
													<ntsc>TRUE</ntsc>
													<timebase>24</timebase>
												</rate>
												<in>0</in>
												<out>1868</out>
												<start>0</start>
												<end>1868</end>
												<masterclipid>ArmA 3 2020.11.14 - 20.20.25.27.mp4</masterclipid>
												<logginginfo>
													<scene />
													<shottake />
													<lognote />
													<good>FALSE</good>
												</logginginfo>
												<labels>
													<label2 />
												</labels>
												<comments>
													<mastercomment1 />
													<mastercomment2 />
													<mastercomment3 />
													<mastercomment4 />
												</comments>
												<file id="ArmA 3 2020.11.14 - 20.20.25.27" />
												<sourcetrack>
													<mediatype>audio</mediatype>
												</sourcetrack>
											</clipitem>
											<enabled>TRUE</enabled>
											<locked>FALSE</locked>
										</track>
										<track>
											<clipitem id="ArmA 3 2020.11.14 - 20.20.25.27.mp43">
												<name>ArmA 3 2020.11.14 - 20.20.25.27.mp4</name>
												<duration>1868</duration>
												<rate>
													<ntsc>TRUE</ntsc>
													<timebase>24</timebase>
												</rate>
												<in>0</in>
												<out>1868</out>
												<start>0</start>
												<end>1868</end>
												<masterclipid>ArmA 3 2020.11.14 - 20.20.25.27.mp4</masterclipid>
												<logginginfo>
													<scene />
													<shottake />
													<lognote />
													<good>FALSE</good>
												</logginginfo>
												<labels>
													<label2 />
												</labels>
												<comments>
													<mastercomment1 />
													<mastercomment2 />
													<mastercomment3 />
													<mastercomment4 />
												</comments>
												<file id="ArmA 3 2020.11.14 - 20.20.25.27" />
												<sourcetrack>
													<mediatype>audio</mediatype>
												</sourcetrack>
											</clipitem>
											<enabled>TRUE</enabled>
											<locked>FALSE</locked>
										</track>
									</audio>
								</media>
							</clip>
							<clip id="ArmA 3 2020.11.14 - 20.22.02.28.mp4">
								<updatebehavior>add</updatebehavior>
								<name>ArmA 3 2020.11.14 - 20.22.02.28.mp4</name>
								<duration>570</duration>
								<rate>
									<ntsc>FALSE</ntsc>
									<timebase>60</timebase>
								</rate>
								<in>-1</in>
								<out>-1</out>
								<masterclipid>ArmA 3 2020.11.14 - 20.22.02.28.mp4</masterclipid>
								<ismasterclip>TRUE</ismasterclip>
								<logginginfo>
									<scene />
									<shottake />
									<lognote />
									<good>FALSE</good>
								</logginginfo>
								<labels>
									<label2 />
								</labels>
								<comments>
									<mastercomment1 />
									<mastercomment2 />
									<mastercomment3 />
									<mastercomment4 />
								</comments>
								<media>
									<video>
										<track>
											<clipitem id="ArmA 3 2020.11.14 - 20.22.02.28.mp41">
												<name>ArmA 3 2020.11.14 - 20.22.02.28.mp4</name>
												<duration>570</duration>
												<rate>
													<ntsc>FALSE</ntsc>
													<timebase>60</timebase>
												</rate>
												<in>0</in>
												<out>570</out>
												<start>0</start>
												<end>570</end>
												<pixelaspectratio>Square</pixelaspectratio>
												<anamorphic>FALSE</anamorphic>
												<alphatype>none</alphatype>
												<masterclipid>ArmA 3 2020.11.14 - 20.22.02.28.mp4</masterclipid>
												<logginginfo>
													<scene />
													<shottake />
													<lognote />
													<good>FALSE</good>
												</logginginfo>
												<labels>
													<label2 />
												</labels>
												<comments>
													<mastercomment1 />
													<mastercomment2 />
													<mastercomment3 />
													<mastercomment4 />
												</comments>
												<file id="ArmA 3 2020.11.14 - 20.22.02.28">
													<name>ArmA 3 2020.11.14 - 20.22.02.28.mp4</name>
													<pathurl>file://localhost/F:/AMVS Russia/NaturaDestruction/PRPACK6/ArmA 3 2020.11.14 - 20.22.02.28.mp4</pathurl>
													<rate>
														<timebase>60</timebase>
														<ntsc>FALSE</ntsc>
													</rate>
													<duration>570</duration>
													<timecode>
														<rate>
															<timebase>60</timebase>
															<ntsc>FALSE</ntsc>
														</rate>
														<frame>0</frame>
														<displayformat>NDF</displayformat>
														<source>source</source>
													</timecode>
													<media>
														<video>
															<duration>570</duration>
															<samplecharacteristics>
																<width>1920</width>
																<height>1080</height>
															</samplecharacteristics>
														</video>
														<audio>
															<samplecharacteristics>
																<samplerate>48000</samplerate>
																<depth>32</depth>
															</samplecharacteristics>
															<channelcount>1</channelcount>
														</audio>
														<audio>
															<samplecharacteristics>
																<samplerate>48000</samplerate>
																<depth>32</depth>
															</samplecharacteristics>
															<channelcount>1</channelcount>
														</audio>
													</media>
												</file>
												<sourcetrack>
													<mediatype>video</mediatype>
												</sourcetrack>
												<fielddominance>none</fielddominance>
											</clipitem>
											<enabled>TRUE</enabled>
											<locked>FALSE</locked>
										</track>
									</video>
									<audio>
										<track>
											<clipitem id="ArmA 3 2020.11.14 - 20.22.02.28.mp42">
												<name>ArmA 3 2020.11.14 - 20.22.02.28.mp4</name>
												<duration>570</duration>
												<rate>
													<ntsc>TRUE</ntsc>
													<timebase>24</timebase>
												</rate>
												<in>0</in>
												<out>570</out>
												<start>0</start>
												<end>570</end>
												<masterclipid>ArmA 3 2020.11.14 - 20.22.02.28.mp4</masterclipid>
												<logginginfo>
													<scene />
													<shottake />
													<lognote />
													<good>FALSE</good>
												</logginginfo>
												<labels>
													<label2 />
												</labels>
												<comments>
													<mastercomment1 />
													<mastercomment2 />
													<mastercomment3 />
													<mastercomment4 />
												</comments>
												<file id="ArmA 3 2020.11.14 - 20.22.02.28" />
												<sourcetrack>
													<mediatype>audio</mediatype>
												</sourcetrack>
											</clipitem>
											<enabled>TRUE</enabled>
											<locked>FALSE</locked>
										</track>
										<track>
											<clipitem id="ArmA 3 2020.11.14 - 20.22.02.28.mp43">
												<name>ArmA 3 2020.11.14 - 20.22.02.28.mp4</name>
												<duration>570</duration>
												<rate>
													<ntsc>TRUE</ntsc>
													<timebase>24</timebase>
												</rate>
												<in>0</in>
												<out>570</out>
												<start>0</start>
												<end>570</end>
												<masterclipid>ArmA 3 2020.11.14 - 20.22.02.28.mp4</masterclipid>
												<logginginfo>
													<scene />
													<shottake />
													<lognote />
													<good>FALSE</good>
												</logginginfo>
												<labels>
													<label2 />
												</labels>
												<comments>
													<mastercomment1 />
													<mastercomment2 />
													<mastercomment3 />
													<mastercomment4 />
												</comments>
												<file id="ArmA 3 2020.11.14 - 20.22.02.28" />
												<sourcetrack>
													<mediatype>audio</mediatype>
												</sourcetrack>
											</clipitem>
											<enabled>TRUE</enabled>
											<locked>FALSE</locked>
										</track>
									</audio>
								</media>
							</clip>
							<clip id="ArmA 3 2020.11.14 - 20.22.40.29.mp4">
								<updatebehavior>add</updatebehavior>
								<name>ArmA 3 2020.11.14 - 20.22.40.29.mp4</name>
								<duration>869</duration>
								<rate>
									<ntsc>FALSE</ntsc>
									<timebase>60</timebase>
								</rate>
								<in>-1</in>
								<out>-1</out>
								<masterclipid>ArmA 3 2020.11.14 - 20.22.40.29.mp4</masterclipid>
								<ismasterclip>TRUE</ismasterclip>
								<logginginfo>
									<scene />
									<shottake />
									<lognote />
									<good>FALSE</good>
								</logginginfo>
								<labels>
									<label2 />
								</labels>
								<comments>
									<mastercomment1 />
									<mastercomment2 />
									<mastercomment3 />
									<mastercomment4 />
								</comments>
								<media>
									<video>
										<track>
											<clipitem id="ArmA 3 2020.11.14 - 20.22.40.29.mp41">
												<name>ArmA 3 2020.11.14 - 20.22.40.29.mp4</name>
												<duration>869</duration>
												<rate>
													<ntsc>FALSE</ntsc>
													<timebase>60</timebase>
												</rate>
												<in>0</in>
												<out>869</out>
												<start>0</start>
												<end>869</end>
												<pixelaspectratio>Square</pixelaspectratio>
												<anamorphic>FALSE</anamorphic>
												<alphatype>none</alphatype>
												<masterclipid>ArmA 3 2020.11.14 - 20.22.40.29.mp4</masterclipid>
												<logginginfo>
													<scene />
													<shottake />
													<lognote />
													<good>FALSE</good>
												</logginginfo>
												<labels>
													<label2 />
												</labels>
												<comments>
													<mastercomment1 />
													<mastercomment2 />
													<mastercomment3 />
													<mastercomment4 />
												</comments>
												<file id="ArmA 3 2020.11.14 - 20.22.40.29">
													<name>ArmA 3 2020.11.14 - 20.22.40.29.mp4</name>
													<pathurl>file://localhost/F:/AMVS Russia/NaturaDestruction/PRPACK6/ArmA 3 2020.11.14 - 20.22.40.29.mp4</pathurl>
													<rate>
														<timebase>60</timebase>
														<ntsc>FALSE</ntsc>
													</rate>
													<duration>869</duration>
													<timecode>
														<rate>
															<timebase>60</timebase>
															<ntsc>FALSE</ntsc>
														</rate>
														<frame>0</frame>
														<displayformat>NDF</displayformat>
														<source>source</source>
													</timecode>
													<media>
														<video>
															<duration>869</duration>
															<samplecharacteristics>
																<width>1920</width>
																<height>1080</height>
															</samplecharacteristics>
														</video>
														<audio>
															<samplecharacteristics>
																<samplerate>48000</samplerate>
																<depth>32</depth>
															</samplecharacteristics>
															<channelcount>1</channelcount>
														</audio>
														<audio>
															<samplecharacteristics>
																<samplerate>48000</samplerate>
																<depth>32</depth>
															</samplecharacteristics>
															<channelcount>1</channelcount>
														</audio>
													</media>
												</file>
												<sourcetrack>
													<mediatype>video</mediatype>
												</sourcetrack>
												<fielddominance>none</fielddominance>
											</clipitem>
											<enabled>TRUE</enabled>
											<locked>FALSE</locked>
										</track>
									</video>
									<audio>
										<track>
											<clipitem id="ArmA 3 2020.11.14 - 20.22.40.29.mp42">
												<name>ArmA 3 2020.11.14 - 20.22.40.29.mp4</name>
												<duration>869</duration>
												<rate>
													<ntsc>TRUE</ntsc>
													<timebase>24</timebase>
												</rate>
												<in>0</in>
												<out>869</out>
												<start>0</start>
												<end>869</end>
												<masterclipid>ArmA 3 2020.11.14 - 20.22.40.29.mp4</masterclipid>
												<logginginfo>
													<scene />
													<shottake />
													<lognote />
													<good>FALSE</good>
												</logginginfo>
												<labels>
													<label2 />
												</labels>
												<comments>
													<mastercomment1 />
													<mastercomment2 />
													<mastercomment3 />
													<mastercomment4 />
												</comments>
												<file id="ArmA 3 2020.11.14 - 20.22.40.29" />
												<sourcetrack>
													<mediatype>audio</mediatype>
												</sourcetrack>
											</clipitem>
											<enabled>TRUE</enabled>
											<locked>FALSE</locked>
										</track>
										<track>
											<clipitem id="ArmA 3 2020.11.14 - 20.22.40.29.mp43">
												<name>ArmA 3 2020.11.14 - 20.22.40.29.mp4</name>
												<duration>869</duration>
												<rate>
													<ntsc>TRUE</ntsc>
													<timebase>24</timebase>
												</rate>
												<in>0</in>
												<out>869</out>
												<start>0</start>
												<end>869</end>
												<masterclipid>ArmA 3 2020.11.14 - 20.22.40.29.mp4</masterclipid>
												<logginginfo>
													<scene />
													<shottake />
													<lognote />
													<good>FALSE</good>
												</logginginfo>
												<labels>
													<label2 />
												</labels>
												<comments>
													<mastercomment1 />
													<mastercomment2 />
													<mastercomment3 />
													<mastercomment4 />
												</comments>
												<file id="ArmA 3 2020.11.14 - 20.22.40.29" />
												<sourcetrack>
													<mediatype>audio</mediatype>
												</sourcetrack>
											</clipitem>
											<enabled>TRUE</enabled>
											<locked>FALSE</locked>
										</track>
									</audio>
								</media>
							</clip>
							<clip id="ArmA 3 2020.11.14 - 20.23.50.30.mp4">
								<updatebehavior>add</updatebehavior>
								<name>ArmA 3 2020.11.14 - 20.23.50.30.mp4</name>
								<duration>875</duration>
								<rate>
									<ntsc>FALSE</ntsc>
									<timebase>60</timebase>
								</rate>
								<in>-1</in>
								<out>-1</out>
								<masterclipid>ArmA 3 2020.11.14 - 20.23.50.30.mp4</masterclipid>
								<ismasterclip>TRUE</ismasterclip>
								<logginginfo>
									<scene />
									<shottake />
									<lognote />
									<good>FALSE</good>
								</logginginfo>
								<labels>
									<label2 />
								</labels>
								<comments>
									<mastercomment1 />
									<mastercomment2 />
									<mastercomment3 />
									<mastercomment4 />
								</comments>
								<media>
									<video>
										<track>
											<clipitem id="ArmA 3 2020.11.14 - 20.23.50.30.mp41">
												<name>ArmA 3 2020.11.14 - 20.23.50.30.mp4</name>
												<duration>875</duration>
												<rate>
													<ntsc>FALSE</ntsc>
													<timebase>60</timebase>
												</rate>
												<in>0</in>
												<out>875</out>
												<start>0</start>
												<end>875</end>
												<pixelaspectratio>Square</pixelaspectratio>
												<anamorphic>FALSE</anamorphic>
												<alphatype>none</alphatype>
												<masterclipid>ArmA 3 2020.11.14 - 20.23.50.30.mp4</masterclipid>
												<logginginfo>
													<scene />
													<shottake />
													<lognote />
													<good>FALSE</good>
												</logginginfo>
												<labels>
													<label2 />
												</labels>
												<comments>
													<mastercomment1 />
													<mastercomment2 />
													<mastercomment3 />
													<mastercomment4 />
												</comments>
												<file id="ArmA 3 2020.11.14 - 20.23.50.30">
													<name>ArmA 3 2020.11.14 - 20.23.50.30.mp4</name>
													<pathurl>file://localhost/F:/AMVS Russia/NaturaDestruction/PRPACK4/ArmA 3 2020.11.14 - 20.23.50.30.mp4</pathurl>
													<rate>
														<timebase>60</timebase>
														<ntsc>FALSE</ntsc>
													</rate>
													<duration>875</duration>
													<timecode>
														<rate>
															<timebase>60</timebase>
															<ntsc>FALSE</ntsc>
														</rate>
														<frame>0</frame>
														<displayformat>NDF</displayformat>
														<source>source</source>
													</timecode>
													<media>
														<video>
															<duration>875</duration>
															<samplecharacteristics>
																<width>1920</width>
																<height>1080</height>
															</samplecharacteristics>
														</video>
														<audio>
															<samplecharacteristics>
																<samplerate>48000</samplerate>
																<depth>32</depth>
															</samplecharacteristics>
															<channelcount>1</channelcount>
														</audio>
														<audio>
															<samplecharacteristics>
																<samplerate>48000</samplerate>
																<depth>32</depth>
															</samplecharacteristics>
															<channelcount>1</channelcount>
														</audio>
													</media>
												</file>
												<sourcetrack>
													<mediatype>video</mediatype>
												</sourcetrack>
												<fielddominance>none</fielddominance>
											</clipitem>
											<enabled>TRUE</enabled>
											<locked>FALSE</locked>
										</track>
									</video>
									<audio>
										<track>
											<clipitem id="ArmA 3 2020.11.14 - 20.23.50.30.mp42">
												<name>ArmA 3 2020.11.14 - 20.23.50.30.mp4</name>
												<duration>875</duration>
												<rate>
													<ntsc>TRUE</ntsc>
													<timebase>24</timebase>
												</rate>
												<in>0</in>
												<out>875</out>
												<start>0</start>
												<end>875</end>
												<masterclipid>ArmA 3 2020.11.14 - 20.23.50.30.mp4</masterclipid>
												<logginginfo>
													<scene />
													<shottake />
													<lognote />
													<good>FALSE</good>
												</logginginfo>
												<labels>
													<label2 />
												</labels>
												<comments>
													<mastercomment1 />
													<mastercomment2 />
													<mastercomment3 />
													<mastercomment4 />
												</comments>
												<file id="ArmA 3 2020.11.14 - 20.23.50.30" />
												<sourcetrack>
													<mediatype>audio</mediatype>
												</sourcetrack>
											</clipitem>
											<enabled>TRUE</enabled>
											<locked>FALSE</locked>
										</track>
										<track>
											<clipitem id="ArmA 3 2020.11.14 - 20.23.50.30.mp43">
												<name>ArmA 3 2020.11.14 - 20.23.50.30.mp4</name>
												<duration>875</duration>
												<rate>
													<ntsc>TRUE</ntsc>
													<timebase>24</timebase>
												</rate>
												<in>0</in>
												<out>875</out>
												<start>0</start>
												<end>875</end>
												<masterclipid>ArmA 3 2020.11.14 - 20.23.50.30.mp4</masterclipid>
												<logginginfo>
													<scene />
													<shottake />
													<lognote />
													<good>FALSE</good>
												</logginginfo>
												<labels>
													<label2 />
												</labels>
												<comments>
													<mastercomment1 />
													<mastercomment2 />
													<mastercomment3 />
													<mastercomment4 />
												</comments>
												<file id="ArmA 3 2020.11.14 - 20.23.50.30" />
												<sourcetrack>
													<mediatype>audio</mediatype>
												</sourcetrack>
											</clipitem>
											<enabled>TRUE</enabled>
											<locked>FALSE</locked>
										</track>
									</audio>
								</media>
							</clip>
							<clip id="ArmA 3 2020.11.14 - 20.24.41.31.mp4">
								<updatebehavior>add</updatebehavior>
								<name>ArmA 3 2020.11.14 - 20.24.41.31.mp4</name>
								<duration>613</duration>
								<rate>
									<ntsc>FALSE</ntsc>
									<timebase>60</timebase>
								</rate>
								<in>-1</in>
								<out>-1</out>
								<masterclipid>ArmA 3 2020.11.14 - 20.24.41.31.mp4</masterclipid>
								<ismasterclip>TRUE</ismasterclip>
								<logginginfo>
									<scene />
									<shottake />
									<lognote />
									<good>FALSE</good>
								</logginginfo>
								<labels>
									<label2 />
								</labels>
								<comments>
									<mastercomment1 />
									<mastercomment2 />
									<mastercomment3 />
									<mastercomment4 />
								</comments>
								<media>
									<video>
										<track>
											<clipitem id="ArmA 3 2020.11.14 - 20.24.41.31.mp41">
												<name>ArmA 3 2020.11.14 - 20.24.41.31.mp4</name>
												<duration>613</duration>
												<rate>
													<ntsc>FALSE</ntsc>
													<timebase>60</timebase>
												</rate>
												<in>0</in>
												<out>613</out>
												<start>0</start>
												<end>613</end>
												<pixelaspectratio>Square</pixelaspectratio>
												<anamorphic>FALSE</anamorphic>
												<alphatype>none</alphatype>
												<masterclipid>ArmA 3 2020.11.14 - 20.24.41.31.mp4</masterclipid>
												<logginginfo>
													<scene />
													<shottake />
													<lognote />
													<good>FALSE</good>
												</logginginfo>
												<labels>
													<label2 />
												</labels>
												<comments>
													<mastercomment1 />
													<mastercomment2 />
													<mastercomment3 />
													<mastercomment4 />
												</comments>
												<file id="ArmA 3 2020.11.14 - 20.24.41.31">
													<name>ArmA 3 2020.11.14 - 20.24.41.31.mp4</name>
													<pathurl>file://localhost/F:/AMVS Russia/NaturaDestruction/PRPACK6/ArmA 3 2020.11.14 - 20.24.41.31.mp4</pathurl>
													<rate>
														<timebase>60</timebase>
														<ntsc>FALSE</ntsc>
													</rate>
													<duration>613</duration>
													<timecode>
														<rate>
															<timebase>60</timebase>
															<ntsc>FALSE</ntsc>
														</rate>
														<frame>0</frame>
														<displayformat>NDF</displayformat>
														<source>source</source>
													</timecode>
													<media>
														<video>
															<duration>613</duration>
															<samplecharacteristics>
																<width>1920</width>
																<height>1080</height>
															</samplecharacteristics>
														</video>
														<audio>
															<samplecharacteristics>
																<samplerate>48000</samplerate>
																<depth>32</depth>
															</samplecharacteristics>
															<channelcount>1</channelcount>
														</audio>
														<audio>
															<samplecharacteristics>
																<samplerate>48000</samplerate>
																<depth>32</depth>
															</samplecharacteristics>
															<channelcount>1</channelcount>
														</audio>
													</media>
												</file>
												<sourcetrack>
													<mediatype>video</mediatype>
												</sourcetrack>
												<fielddominance>none</fielddominance>
											</clipitem>
											<enabled>TRUE</enabled>
											<locked>FALSE</locked>
										</track>
									</video>
									<audio>
										<track>
											<clipitem id="ArmA 3 2020.11.14 - 20.24.41.31.mp42">
												<name>ArmA 3 2020.11.14 - 20.24.41.31.mp4</name>
												<duration>613</duration>
												<rate>
													<ntsc>TRUE</ntsc>
													<timebase>24</timebase>
												</rate>
												<in>0</in>
												<out>613</out>
												<start>0</start>
												<end>613</end>
												<masterclipid>ArmA 3 2020.11.14 - 20.24.41.31.mp4</masterclipid>
												<logginginfo>
													<scene />
													<shottake />
													<lognote />
													<good>FALSE</good>
												</logginginfo>
												<labels>
													<label2 />
												</labels>
												<comments>
													<mastercomment1 />
													<mastercomment2 />
													<mastercomment3 />
													<mastercomment4 />
												</comments>
												<file id="ArmA 3 2020.11.14 - 20.24.41.31" />
												<sourcetrack>
													<mediatype>audio</mediatype>
												</sourcetrack>
											</clipitem>
											<enabled>TRUE</enabled>
											<locked>FALSE</locked>
										</track>
										<track>
											<clipitem id="ArmA 3 2020.11.14 - 20.24.41.31.mp43">
												<name>ArmA 3 2020.11.14 - 20.24.41.31.mp4</name>
												<duration>613</duration>
												<rate>
													<ntsc>TRUE</ntsc>
													<timebase>24</timebase>
												</rate>
												<in>0</in>
												<out>613</out>
												<start>0</start>
												<end>613</end>
												<masterclipid>ArmA 3 2020.11.14 - 20.24.41.31.mp4</masterclipid>
												<logginginfo>
													<scene />
													<shottake />
													<lognote />
													<good>FALSE</good>
												</logginginfo>
												<labels>
													<label2 />
												</labels>
												<comments>
													<mastercomment1 />
													<mastercomment2 />
													<mastercomment3 />
													<mastercomment4 />
												</comments>
												<file id="ArmA 3 2020.11.14 - 20.24.41.31" />
												<sourcetrack>
													<mediatype>audio</mediatype>
												</sourcetrack>
											</clipitem>
											<enabled>TRUE</enabled>
											<locked>FALSE</locked>
										</track>
									</audio>
								</media>
							</clip>
							<clip id="ArmA 3 2020.11.14 - 20.28.02.32.mp4">
								<updatebehavior>add</updatebehavior>
								<name>ArmA 3 2020.11.14 - 20.28.02.32.mp4</name>
								<duration>972</duration>
								<rate>
									<ntsc>FALSE</ntsc>
									<timebase>60</timebase>
								</rate>
								<in>-1</in>
								<out>-1</out>
								<masterclipid>ArmA 3 2020.11.14 - 20.28.02.32.mp4</masterclipid>
								<ismasterclip>TRUE</ismasterclip>
								<logginginfo>
									<scene />
									<shottake />
									<lognote />
									<good>FALSE</good>
								</logginginfo>
								<labels>
									<label2 />
								</labels>
								<comments>
									<mastercomment1 />
									<mastercomment2 />
									<mastercomment3 />
									<mastercomment4 />
								</comments>
								<media>
									<video>
										<track>
											<clipitem id="ArmA 3 2020.11.14 - 20.28.02.32.mp41">
												<name>ArmA 3 2020.11.14 - 20.28.02.32.mp4</name>
												<duration>972</duration>
												<rate>
													<ntsc>FALSE</ntsc>
													<timebase>60</timebase>
												</rate>
												<in>0</in>
												<out>972</out>
												<start>0</start>
												<end>972</end>
												<pixelaspectratio>Square</pixelaspectratio>
												<anamorphic>FALSE</anamorphic>
												<alphatype>none</alphatype>
												<masterclipid>ArmA 3 2020.11.14 - 20.28.02.32.mp4</masterclipid>
												<logginginfo>
													<scene />
													<shottake />
													<lognote />
													<good>FALSE</good>
												</logginginfo>
												<labels>
													<label2 />
												</labels>
												<comments>
													<mastercomment1 />
													<mastercomment2 />
													<mastercomment3 />
													<mastercomment4 />
												</comments>
												<file id="ArmA 3 2020.11.14 - 20.28.02.32">
													<name>ArmA 3 2020.11.14 - 20.28.02.32.mp4</name>
													<pathurl>file://localhost/F:/AMVS Russia/NaturaDestruction/PRPACK5/ArmA 3 2020.11.14 - 20.28.02.32.mp4</pathurl>
													<rate>
														<timebase>60</timebase>
														<ntsc>FALSE</ntsc>
													</rate>
													<duration>972</duration>
													<timecode>
														<rate>
															<timebase>60</timebase>
															<ntsc>FALSE</ntsc>
														</rate>
														<frame>0</frame>
														<displayformat>NDF</displayformat>
														<source>source</source>
													</timecode>
													<media>
														<video>
															<duration>972</duration>
															<samplecharacteristics>
																<width>1920</width>
																<height>1080</height>
															</samplecharacteristics>
														</video>
														<audio>
															<samplecharacteristics>
																<samplerate>48000</samplerate>
																<depth>32</depth>
															</samplecharacteristics>
															<channelcount>1</channelcount>
														</audio>
														<audio>
															<samplecharacteristics>
																<samplerate>48000</samplerate>
																<depth>32</depth>
															</samplecharacteristics>
															<channelcount>1</channelcount>
														</audio>
													</media>
												</file>
												<sourcetrack>
													<mediatype>video</mediatype>
												</sourcetrack>
												<fielddominance>none</fielddominance>
											</clipitem>
											<enabled>TRUE</enabled>
											<locked>FALSE</locked>
										</track>
									</video>
									<audio>
										<track>
											<clipitem id="ArmA 3 2020.11.14 - 20.28.02.32.mp42">
												<name>ArmA 3 2020.11.14 - 20.28.02.32.mp4</name>
												<duration>972</duration>
												<rate>
													<ntsc>TRUE</ntsc>
													<timebase>24</timebase>
												</rate>
												<in>0</in>
												<out>972</out>
												<start>0</start>
												<end>972</end>
												<masterclipid>ArmA 3 2020.11.14 - 20.28.02.32.mp4</masterclipid>
												<logginginfo>
													<scene />
													<shottake />
													<lognote />
													<good>FALSE</good>
												</logginginfo>
												<labels>
													<label2 />
												</labels>
												<comments>
													<mastercomment1 />
													<mastercomment2 />
													<mastercomment3 />
													<mastercomment4 />
												</comments>
												<file id="ArmA 3 2020.11.14 - 20.28.02.32" />
												<sourcetrack>
													<mediatype>audio</mediatype>
												</sourcetrack>
											</clipitem>
											<enabled>TRUE</enabled>
											<locked>FALSE</locked>
										</track>
										<track>
											<clipitem id="ArmA 3 2020.11.14 - 20.28.02.32.mp43">
												<name>ArmA 3 2020.11.14 - 20.28.02.32.mp4</name>
												<duration>972</duration>
												<rate>
													<ntsc>TRUE</ntsc>
													<timebase>24</timebase>
												</rate>
												<in>0</in>
												<out>972</out>
												<start>0</start>
												<end>972</end>
												<masterclipid>ArmA 3 2020.11.14 - 20.28.02.32.mp4</masterclipid>
												<logginginfo>
													<scene />
													<shottake />
													<lognote />
													<good>FALSE</good>
												</logginginfo>
												<labels>
													<label2 />
												</labels>
												<comments>
													<mastercomment1 />
													<mastercomment2 />
													<mastercomment3 />
													<mastercomment4 />
												</comments>
												<file id="ArmA 3 2020.11.14 - 20.28.02.32" />
												<sourcetrack>
													<mediatype>audio</mediatype>
												</sourcetrack>
											</clipitem>
											<enabled>TRUE</enabled>
											<locked>FALSE</locked>
										</track>
									</audio>
								</media>
							</clip>
							<clip id="ArmA 3 2020.11.14 - 20.29.28.33.mp4">
								<updatebehavior>add</updatebehavior>
								<name>ArmA 3 2020.11.14 - 20.29.28.33.mp4</name>
								<duration>561</duration>
								<rate>
									<ntsc>FALSE</ntsc>
									<timebase>60</timebase>
								</rate>
								<in>-1</in>
								<out>-1</out>
								<masterclipid>ArmA 3 2020.11.14 - 20.29.28.33.mp4</masterclipid>
								<ismasterclip>TRUE</ismasterclip>
								<logginginfo>
									<scene />
									<shottake />
									<lognote />
									<good>FALSE</good>
								</logginginfo>
								<labels>
									<label2 />
								</labels>
								<comments>
									<mastercomment1 />
									<mastercomment2 />
									<mastercomment3 />
									<mastercomment4 />
								</comments>
								<media>
									<video>
										<track>
											<clipitem id="ArmA 3 2020.11.14 - 20.29.28.33.mp41">
												<name>ArmA 3 2020.11.14 - 20.29.28.33.mp4</name>
												<duration>561</duration>
												<rate>
													<ntsc>FALSE</ntsc>
													<timebase>60</timebase>
												</rate>
												<in>0</in>
												<out>561</out>
												<start>0</start>
												<end>561</end>
												<pixelaspectratio>Square</pixelaspectratio>
												<anamorphic>FALSE</anamorphic>
												<alphatype>none</alphatype>
												<masterclipid>ArmA 3 2020.11.14 - 20.29.28.33.mp4</masterclipid>
												<logginginfo>
													<scene />
													<shottake />
													<lognote />
													<good>FALSE</good>
												</logginginfo>
												<labels>
													<label2 />
												</labels>
												<comments>
													<mastercomment1 />
													<mastercomment2 />
													<mastercomment3 />
													<mastercomment4 />
												</comments>
												<file id="ArmA 3 2020.11.14 - 20.29.28.33">
													<name>ArmA 3 2020.11.14 - 20.29.28.33.mp4</name>
													<pathurl>file://localhost/F:/AMVS Russia/NaturaDestruction/PRPACK6/ArmA 3 2020.11.14 - 20.29.28.33.mp4</pathurl>
													<rate>
														<timebase>60</timebase>
														<ntsc>FALSE</ntsc>
													</rate>
													<duration>561</duration>
													<timecode>
														<rate>
															<timebase>60</timebase>
															<ntsc>FALSE</ntsc>
														</rate>
														<frame>0</frame>
														<displayformat>NDF</displayformat>
														<source>source</source>
													</timecode>
													<media>
														<video>
															<duration>561</duration>
															<samplecharacteristics>
																<width>1920</width>
																<height>1080</height>
															</samplecharacteristics>
														</video>
														<audio>
															<samplecharacteristics>
																<samplerate>48000</samplerate>
																<depth>32</depth>
															</samplecharacteristics>
															<channelcount>1</channelcount>
														</audio>
														<audio>
															<samplecharacteristics>
																<samplerate>48000</samplerate>
																<depth>32</depth>
															</samplecharacteristics>
															<channelcount>1</channelcount>
														</audio>
													</media>
												</file>
												<sourcetrack>
													<mediatype>video</mediatype>
												</sourcetrack>
												<fielddominance>none</fielddominance>
											</clipitem>
											<enabled>TRUE</enabled>
											<locked>FALSE</locked>
										</track>
									</video>
									<audio>
										<track>
											<clipitem id="ArmA 3 2020.11.14 - 20.29.28.33.mp42">
												<name>ArmA 3 2020.11.14 - 20.29.28.33.mp4</name>
												<duration>561</duration>
												<rate>
													<ntsc>TRUE</ntsc>
													<timebase>24</timebase>
												</rate>
												<in>0</in>
												<out>561</out>
												<start>0</start>
												<end>561</end>
												<masterclipid>ArmA 3 2020.11.14 - 20.29.28.33.mp4</masterclipid>
												<logginginfo>
													<scene />
													<shottake />
													<lognote />
													<good>FALSE</good>
												</logginginfo>
												<labels>
													<label2 />
												</labels>
												<comments>
													<mastercomment1 />
													<mastercomment2 />
													<mastercomment3 />
													<mastercomment4 />
												</comments>
												<file id="ArmA 3 2020.11.14 - 20.29.28.33" />
												<sourcetrack>
													<mediatype>audio</mediatype>
												</sourcetrack>
											</clipitem>
											<enabled>TRUE</enabled>
											<locked>FALSE</locked>
										</track>
										<track>
											<clipitem id="ArmA 3 2020.11.14 - 20.29.28.33.mp43">
												<name>ArmA 3 2020.11.14 - 20.29.28.33.mp4</name>
												<duration>561</duration>
												<rate>
													<ntsc>TRUE</ntsc>
													<timebase>24</timebase>
												</rate>
												<in>0</in>
												<out>561</out>
												<start>0</start>
												<end>561</end>
												<masterclipid>ArmA 3 2020.11.14 - 20.29.28.33.mp4</masterclipid>
												<logginginfo>
													<scene />
													<shottake />
													<lognote />
													<good>FALSE</good>
												</logginginfo>
												<labels>
													<label2 />
												</labels>
												<comments>
													<mastercomment1 />
													<mastercomment2 />
													<mastercomment3 />
													<mastercomment4 />
												</comments>
												<file id="ArmA 3 2020.11.14 - 20.29.28.33" />
												<sourcetrack>
													<mediatype>audio</mediatype>
												</sourcetrack>
											</clipitem>
											<enabled>TRUE</enabled>
											<locked>FALSE</locked>
										</track>
									</audio>
								</media>
							</clip>
							<clip id="ArmA 3 2020.11.14 - 20.30.42.34.mp4">
								<updatebehavior>add</updatebehavior>
								<name>ArmA 3 2020.11.14 - 20.30.42.34.mp4</name>
								<duration>456</duration>
								<rate>
									<ntsc>FALSE</ntsc>
									<timebase>60</timebase>
								</rate>
								<in>-1</in>
								<out>-1</out>
								<masterclipid>ArmA 3 2020.11.14 - 20.30.42.34.mp4</masterclipid>
								<ismasterclip>TRUE</ismasterclip>
								<logginginfo>
									<scene />
									<shottake />
									<lognote />
									<good>FALSE</good>
								</logginginfo>
								<labels>
									<label2 />
								</labels>
								<comments>
									<mastercomment1 />
									<mastercomment2 />
									<mastercomment3 />
									<mastercomment4 />
								</comments>
								<media>
									<video>
										<track>
											<clipitem id="ArmA 3 2020.11.14 - 20.30.42.34.mp41">
												<name>ArmA 3 2020.11.14 - 20.30.42.34.mp4</name>
												<duration>456</duration>
												<rate>
													<ntsc>FALSE</ntsc>
													<timebase>60</timebase>
												</rate>
												<in>0</in>
												<out>456</out>
												<start>0</start>
												<end>456</end>
												<pixelaspectratio>Square</pixelaspectratio>
												<anamorphic>FALSE</anamorphic>
												<alphatype>none</alphatype>
												<masterclipid>ArmA 3 2020.11.14 - 20.30.42.34.mp4</masterclipid>
												<logginginfo>
													<scene />
													<shottake />
													<lognote />
													<good>FALSE</good>
												</logginginfo>
												<labels>
													<label2 />
												</labels>
												<comments>
													<mastercomment1 />
													<mastercomment2 />
													<mastercomment3 />
													<mastercomment4 />
												</comments>
												<file id="ArmA 3 2020.11.14 - 20.30.42.34">
													<name>ArmA 3 2020.11.14 - 20.30.42.34.mp4</name>
													<pathurl>file://localhost/F:/AMVS Russia/NaturaDestruction/PRPACK6/ArmA 3 2020.11.14 - 20.30.42.34.mp4</pathurl>
													<rate>
														<timebase>60</timebase>
														<ntsc>FALSE</ntsc>
													</rate>
													<duration>456</duration>
													<timecode>
														<rate>
															<timebase>60</timebase>
															<ntsc>FALSE</ntsc>
														</rate>
														<frame>0</frame>
														<displayformat>NDF</displayformat>
														<source>source</source>
													</timecode>
													<media>
														<video>
															<duration>456</duration>
															<samplecharacteristics>
																<width>1920</width>
																<height>1080</height>
															</samplecharacteristics>
														</video>
														<audio>
															<samplecharacteristics>
																<samplerate>48000</samplerate>
																<depth>32</depth>
															</samplecharacteristics>
															<channelcount>1</channelcount>
														</audio>
														<audio>
															<samplecharacteristics>
																<samplerate>48000</samplerate>
																<depth>32</depth>
															</samplecharacteristics>
															<channelcount>1</channelcount>
														</audio>
													</media>
												</file>
												<sourcetrack>
													<mediatype>video</mediatype>
												</sourcetrack>
												<fielddominance>none</fielddominance>
											</clipitem>
											<enabled>TRUE</enabled>
											<locked>FALSE</locked>
										</track>
									</video>
									<audio>
										<track>
											<clipitem id="ArmA 3 2020.11.14 - 20.30.42.34.mp42">
												<name>ArmA 3 2020.11.14 - 20.30.42.34.mp4</name>
												<duration>456</duration>
												<rate>
													<ntsc>TRUE</ntsc>
													<timebase>24</timebase>
												</rate>
												<in>0</in>
												<out>456</out>
												<start>0</start>
												<end>456</end>
												<masterclipid>ArmA 3 2020.11.14 - 20.30.42.34.mp4</masterclipid>
												<logginginfo>
													<scene />
													<shottake />
													<lognote />
													<good>FALSE</good>
												</logginginfo>
												<labels>
													<label2 />
												</labels>
												<comments>
													<mastercomment1 />
													<mastercomment2 />
													<mastercomment3 />
													<mastercomment4 />
												</comments>
												<file id="ArmA 3 2020.11.14 - 20.30.42.34" />
												<sourcetrack>
													<mediatype>audio</mediatype>
												</sourcetrack>
											</clipitem>
											<enabled>TRUE</enabled>
											<locked>FALSE</locked>
										</track>
										<track>
											<clipitem id="ArmA 3 2020.11.14 - 20.30.42.34.mp43">
												<name>ArmA 3 2020.11.14 - 20.30.42.34.mp4</name>
												<duration>456</duration>
												<rate>
													<ntsc>TRUE</ntsc>
													<timebase>24</timebase>
												</rate>
												<in>0</in>
												<out>456</out>
												<start>0</start>
												<end>456</end>
												<masterclipid>ArmA 3 2020.11.14 - 20.30.42.34.mp4</masterclipid>
												<logginginfo>
													<scene />
													<shottake />
													<lognote />
													<good>FALSE</good>
												</logginginfo>
												<labels>
													<label2 />
												</labels>
												<comments>
													<mastercomment1 />
													<mastercomment2 />
													<mastercomment3 />
													<mastercomment4 />
												</comments>
												<file id="ArmA 3 2020.11.14 - 20.30.42.34" />
												<sourcetrack>
													<mediatype>audio</mediatype>
												</sourcetrack>
											</clipitem>
											<enabled>TRUE</enabled>
											<locked>FALSE</locked>
										</track>
									</audio>
								</media>
							</clip>
							<clip id="ArmA 3 2020.11.14 - 20.32.04.35.mp4">
								<updatebehavior>add</updatebehavior>
								<name>ArmA 3 2020.11.14 - 20.32.04.35.mp4</name>
								<duration>710</duration>
								<rate>
									<ntsc>FALSE</ntsc>
									<timebase>60</timebase>
								</rate>
								<in>-1</in>
								<out>-1</out>
								<masterclipid>ArmA 3 2020.11.14 - 20.32.04.35.mp4</masterclipid>
								<ismasterclip>TRUE</ismasterclip>
								<logginginfo>
									<scene />
									<shottake />
									<lognote />
									<good>FALSE</good>
								</logginginfo>
								<labels>
									<label2 />
								</labels>
								<comments>
									<mastercomment1 />
									<mastercomment2 />
									<mastercomment3 />
									<mastercomment4 />
								</comments>
								<media>
									<video>
										<track>
											<clipitem id="ArmA 3 2020.11.14 - 20.32.04.35.mp41">
												<name>ArmA 3 2020.11.14 - 20.32.04.35.mp4</name>
												<duration>710</duration>
												<rate>
													<ntsc>FALSE</ntsc>
													<timebase>60</timebase>
												</rate>
												<in>0</in>
												<out>710</out>
												<start>0</start>
												<end>710</end>
												<pixelaspectratio>Square</pixelaspectratio>
												<anamorphic>FALSE</anamorphic>
												<alphatype>none</alphatype>
												<masterclipid>ArmA 3 2020.11.14 - 20.32.04.35.mp4</masterclipid>
												<logginginfo>
													<scene />
													<shottake />
													<lognote />
													<good>FALSE</good>
												</logginginfo>
												<labels>
													<label2 />
												</labels>
												<comments>
													<mastercomment1 />
													<mastercomment2 />
													<mastercomment3 />
													<mastercomment4 />
												</comments>
												<file id="ArmA 3 2020.11.14 - 20.32.04.35">
													<name>ArmA 3 2020.11.14 - 20.32.04.35.mp4</name>
													<pathurl>file://localhost/F:/AMVS Russia/NaturaDestruction/PRPACK5/ArmA 3 2020.11.14 - 20.32.04.35.mp4</pathurl>
													<rate>
														<timebase>60</timebase>
														<ntsc>FALSE</ntsc>
													</rate>
													<duration>710</duration>
													<timecode>
														<rate>
															<timebase>60</timebase>
															<ntsc>FALSE</ntsc>
														</rate>
														<frame>0</frame>
														<displayformat>NDF</displayformat>
														<source>source</source>
													</timecode>
													<media>
														<video>
															<duration>710</duration>
															<samplecharacteristics>
																<width>1920</width>
																<height>1080</height>
															</samplecharacteristics>
														</video>
														<audio>
															<samplecharacteristics>
																<samplerate>48000</samplerate>
																<depth>32</depth>
															</samplecharacteristics>
															<channelcount>1</channelcount>
														</audio>
														<audio>
															<samplecharacteristics>
																<samplerate>48000</samplerate>
																<depth>32</depth>
															</samplecharacteristics>
															<channelcount>1</channelcount>
														</audio>
													</media>
												</file>
												<sourcetrack>
													<mediatype>video</mediatype>
												</sourcetrack>
												<fielddominance>none</fielddominance>
											</clipitem>
											<enabled>TRUE</enabled>
											<locked>FALSE</locked>
										</track>
									</video>
									<audio>
										<track>
											<clipitem id="ArmA 3 2020.11.14 - 20.32.04.35.mp42">
												<name>ArmA 3 2020.11.14 - 20.32.04.35.mp4</name>
												<duration>710</duration>
												<rate>
													<ntsc>TRUE</ntsc>
													<timebase>24</timebase>
												</rate>
												<in>0</in>
												<out>710</out>
												<start>0</start>
												<end>710</end>
												<masterclipid>ArmA 3 2020.11.14 - 20.32.04.35.mp4</masterclipid>
												<logginginfo>
													<scene />
													<shottake />
													<lognote />
													<good>FALSE</good>
												</logginginfo>
												<labels>
													<label2 />
												</labels>
												<comments>
													<mastercomment1 />
													<mastercomment2 />
													<mastercomment3 />
													<mastercomment4 />
												</comments>
												<file id="ArmA 3 2020.11.14 - 20.32.04.35" />
												<sourcetrack>
													<mediatype>audio</mediatype>
												</sourcetrack>
											</clipitem>
											<enabled>TRUE</enabled>
											<locked>FALSE</locked>
										</track>
										<track>
											<clipitem id="ArmA 3 2020.11.14 - 20.32.04.35.mp43">
												<name>ArmA 3 2020.11.14 - 20.32.04.35.mp4</name>
												<duration>710</duration>
												<rate>
													<ntsc>TRUE</ntsc>
													<timebase>24</timebase>
												</rate>
												<in>0</in>
												<out>710</out>
												<start>0</start>
												<end>710</end>
												<masterclipid>ArmA 3 2020.11.14 - 20.32.04.35.mp4</masterclipid>
												<logginginfo>
													<scene />
													<shottake />
													<lognote />
													<good>FALSE</good>
												</logginginfo>
												<labels>
													<label2 />
												</labels>
												<comments>
													<mastercomment1 />
													<mastercomment2 />
													<mastercomment3 />
													<mastercomment4 />
												</comments>
												<file id="ArmA 3 2020.11.14 - 20.32.04.35" />
												<sourcetrack>
													<mediatype>audio</mediatype>
												</sourcetrack>
											</clipitem>
											<enabled>TRUE</enabled>
											<locked>FALSE</locked>
										</track>
									</audio>
								</media>
							</clip>
							<clip id="ArmA 3 2020.11.14 - 20.35.01.36.mp4">
								<updatebehavior>add</updatebehavior>
								<name>ArmA 3 2020.11.14 - 20.35.01.36.mp4</name>
								<duration>541</duration>
								<rate>
									<ntsc>FALSE</ntsc>
									<timebase>60</timebase>
								</rate>
								<in>-1</in>
								<out>-1</out>
								<masterclipid>ArmA 3 2020.11.14 - 20.35.01.36.mp4</masterclipid>
								<ismasterclip>TRUE</ismasterclip>
								<logginginfo>
									<scene />
									<shottake />
									<lognote />
									<good>FALSE</good>
								</logginginfo>
								<labels>
									<label2 />
								</labels>
								<comments>
									<mastercomment1 />
									<mastercomment2 />
									<mastercomment3 />
									<mastercomment4 />
								</comments>
								<media>
									<video>
										<track>
											<clipitem id="ArmA 3 2020.11.14 - 20.35.01.36.mp41">
												<name>ArmA 3 2020.11.14 - 20.35.01.36.mp4</name>
												<duration>541</duration>
												<rate>
													<ntsc>FALSE</ntsc>
													<timebase>60</timebase>
												</rate>
												<in>0</in>
												<out>541</out>
												<start>0</start>
												<end>541</end>
												<pixelaspectratio>Square</pixelaspectratio>
												<anamorphic>FALSE</anamorphic>
												<alphatype>none</alphatype>
												<masterclipid>ArmA 3 2020.11.14 - 20.35.01.36.mp4</masterclipid>
												<logginginfo>
													<scene />
													<shottake />
													<lognote />
													<good>FALSE</good>
												</logginginfo>
												<labels>
													<label2 />
												</labels>
												<comments>
													<mastercomment1 />
													<mastercomment2 />
													<mastercomment3 />
													<mastercomment4 />
												</comments>
												<file id="ArmA 3 2020.11.14 - 20.35.01.36">
													<name>ArmA 3 2020.11.14 - 20.35.01.36.mp4</name>
													<pathurl>file://localhost/F:/AMVS Russia/NaturaDestruction/PRPACK6/ArmA 3 2020.11.14 - 20.35.01.36.mp4</pathurl>
													<rate>
														<timebase>60</timebase>
														<ntsc>FALSE</ntsc>
													</rate>
													<duration>541</duration>
													<timecode>
														<rate>
															<timebase>60</timebase>
															<ntsc>FALSE</ntsc>
														</rate>
														<frame>0</frame>
														<displayformat>NDF</displayformat>
														<source>source</source>
													</timecode>
													<media>
														<video>
															<duration>541</duration>
															<samplecharacteristics>
																<width>1920</width>
																<height>1080</height>
															</samplecharacteristics>
														</video>
														<audio>
															<samplecharacteristics>
																<samplerate>48000</samplerate>
																<depth>32</depth>
															</samplecharacteristics>
															<channelcount>1</channelcount>
														</audio>
														<audio>
															<samplecharacteristics>
																<samplerate>48000</samplerate>
																<depth>32</depth>
															</samplecharacteristics>
															<channelcount>1</channelcount>
														</audio>
													</media>
												</file>
												<sourcetrack>
													<mediatype>video</mediatype>
												</sourcetrack>
												<fielddominance>none</fielddominance>
											</clipitem>
											<enabled>TRUE</enabled>
											<locked>FALSE</locked>
										</track>
									</video>
									<audio>
										<track>
											<clipitem id="ArmA 3 2020.11.14 - 20.35.01.36.mp42">
												<name>ArmA 3 2020.11.14 - 20.35.01.36.mp4</name>
												<duration>541</duration>
												<rate>
													<ntsc>TRUE</ntsc>
													<timebase>24</timebase>
												</rate>
												<in>0</in>
												<out>541</out>
												<start>0</start>
												<end>541</end>
												<masterclipid>ArmA 3 2020.11.14 - 20.35.01.36.mp4</masterclipid>
												<logginginfo>
													<scene />
													<shottake />
													<lognote />
													<good>FALSE</good>
												</logginginfo>
												<labels>
													<label2 />
												</labels>
												<comments>
													<mastercomment1 />
													<mastercomment2 />
													<mastercomment3 />
													<mastercomment4 />
												</comments>
												<file id="ArmA 3 2020.11.14 - 20.35.01.36" />
												<sourcetrack>
													<mediatype>audio</mediatype>
												</sourcetrack>
											</clipitem>
											<enabled>TRUE</enabled>
											<locked>FALSE</locked>
										</track>
										<track>
											<clipitem id="ArmA 3 2020.11.14 - 20.35.01.36.mp43">
												<name>ArmA 3 2020.11.14 - 20.35.01.36.mp4</name>
												<duration>541</duration>
												<rate>
													<ntsc>TRUE</ntsc>
													<timebase>24</timebase>
												</rate>
												<in>0</in>
												<out>541</out>
												<start>0</start>
												<end>541</end>
												<masterclipid>ArmA 3 2020.11.14 - 20.35.01.36.mp4</masterclipid>
												<logginginfo>
													<scene />
													<shottake />
													<lognote />
													<good>FALSE</good>
												</logginginfo>
												<labels>
													<label2 />
												</labels>
												<comments>
													<mastercomment1 />
													<mastercomment2 />
													<mastercomment3 />
													<mastercomment4 />
												</comments>
												<file id="ArmA 3 2020.11.14 - 20.35.01.36" />
												<sourcetrack>
													<mediatype>audio</mediatype>
												</sourcetrack>
											</clipitem>
											<enabled>TRUE</enabled>
											<locked>FALSE</locked>
										</track>
									</audio>
								</media>
							</clip>
							<clip id="ArmA 3 2020.11.14 - 20.35.39.37.mp4">
								<updatebehavior>add</updatebehavior>
								<name>ArmA 3 2020.11.14 - 20.35.39.37.mp4</name>
								<duration>609</duration>
								<rate>
									<ntsc>FALSE</ntsc>
									<timebase>60</timebase>
								</rate>
								<in>-1</in>
								<out>-1</out>
								<masterclipid>ArmA 3 2020.11.14 - 20.35.39.37.mp4</masterclipid>
								<ismasterclip>TRUE</ismasterclip>
								<logginginfo>
									<scene />
									<shottake />
									<lognote />
									<good>FALSE</good>
								</logginginfo>
								<labels>
									<label2 />
								</labels>
								<comments>
									<mastercomment1 />
									<mastercomment2 />
									<mastercomment3 />
									<mastercomment4 />
								</comments>
								<media>
									<video>
										<track>
											<clipitem id="ArmA 3 2020.11.14 - 20.35.39.37.mp41">
												<name>ArmA 3 2020.11.14 - 20.35.39.37.mp4</name>
												<duration>609</duration>
												<rate>
													<ntsc>FALSE</ntsc>
													<timebase>60</timebase>
												</rate>
												<in>0</in>
												<out>609</out>
												<start>0</start>
												<end>609</end>
												<pixelaspectratio>Square</pixelaspectratio>
												<anamorphic>FALSE</anamorphic>
												<alphatype>none</alphatype>
												<masterclipid>ArmA 3 2020.11.14 - 20.35.39.37.mp4</masterclipid>
												<logginginfo>
													<scene />
													<shottake />
													<lognote />
													<good>FALSE</good>
												</logginginfo>
												<labels>
													<label2 />
												</labels>
												<comments>
													<mastercomment1 />
													<mastercomment2 />
													<mastercomment3 />
													<mastercomment4 />
												</comments>
												<file id="ArmA 3 2020.11.14 - 20.35.39.37">
													<name>ArmA 3 2020.11.14 - 20.35.39.37.mp4</name>
													<pathurl>file://localhost/F:/AMVS Russia/NaturaDestruction/PRPACK6/ArmA 3 2020.11.14 - 20.35.39.37.mp4</pathurl>
													<rate>
														<timebase>60</timebase>
														<ntsc>FALSE</ntsc>
													</rate>
													<duration>609</duration>
													<timecode>
														<rate>
															<timebase>60</timebase>
															<ntsc>FALSE</ntsc>
														</rate>
														<frame>0</frame>
														<displayformat>NDF</displayformat>
														<source>source</source>
													</timecode>
													<media>
														<video>
															<duration>609</duration>
															<samplecharacteristics>
																<width>1920</width>
																<height>1080</height>
															</samplecharacteristics>
														</video>
														<audio>
															<samplecharacteristics>
																<samplerate>48000</samplerate>
																<depth>32</depth>
															</samplecharacteristics>
															<channelcount>1</channelcount>
														</audio>
														<audio>
															<samplecharacteristics>
																<samplerate>48000</samplerate>
																<depth>32</depth>
															</samplecharacteristics>
															<channelcount>1</channelcount>
														</audio>
													</media>
												</file>
												<sourcetrack>
													<mediatype>video</mediatype>
												</sourcetrack>
												<fielddominance>none</fielddominance>
											</clipitem>
											<enabled>TRUE</enabled>
											<locked>FALSE</locked>
										</track>
									</video>
									<audio>
										<track>
											<clipitem id="ArmA 3 2020.11.14 - 20.35.39.37.mp42">
												<name>ArmA 3 2020.11.14 - 20.35.39.37.mp4</name>
												<duration>609</duration>
												<rate>
													<ntsc>TRUE</ntsc>
													<timebase>24</timebase>
												</rate>
												<in>0</in>
												<out>609</out>
												<start>0</start>
												<end>609</end>
												<masterclipid>ArmA 3 2020.11.14 - 20.35.39.37.mp4</masterclipid>
												<logginginfo>
													<scene />
													<shottake />
													<lognote />
													<good>FALSE</good>
												</logginginfo>
												<labels>
													<label2 />
												</labels>
												<comments>
													<mastercomment1 />
													<mastercomment2 />
													<mastercomment3 />
													<mastercomment4 />
												</comments>
												<file id="ArmA 3 2020.11.14 - 20.35.39.37" />
												<sourcetrack>
													<mediatype>audio</mediatype>
												</sourcetrack>
											</clipitem>
											<enabled>TRUE</enabled>
											<locked>FALSE</locked>
										</track>
										<track>
											<clipitem id="ArmA 3 2020.11.14 - 20.35.39.37.mp43">
												<name>ArmA 3 2020.11.14 - 20.35.39.37.mp4</name>
												<duration>609</duration>
												<rate>
													<ntsc>TRUE</ntsc>
													<timebase>24</timebase>
												</rate>
												<in>0</in>
												<out>609</out>
												<start>0</start>
												<end>609</end>
												<masterclipid>ArmA 3 2020.11.14 - 20.35.39.37.mp4</masterclipid>
												<logginginfo>
													<scene />
													<shottake />
													<lognote />
													<good>FALSE</good>
												</logginginfo>
												<labels>
													<label2 />
												</labels>
												<comments>
													<mastercomment1 />
													<mastercomment2 />
													<mastercomment3 />
													<mastercomment4 />
												</comments>
												<file id="ArmA 3 2020.11.14 - 20.35.39.37" />
												<sourcetrack>
													<mediatype>audio</mediatype>
												</sourcetrack>
											</clipitem>
											<enabled>TRUE</enabled>
											<locked>FALSE</locked>
										</track>
									</audio>
								</media>
							</clip>
							<clip id="ArmA 3 2020.11.14 - 20.41.15.38.mp4">
								<updatebehavior>add</updatebehavior>
								<name>ArmA 3 2020.11.14 - 20.41.15.38.mp4</name>
								<duration>809</duration>
								<rate>
									<ntsc>FALSE</ntsc>
									<timebase>60</timebase>
								</rate>
								<in>-1</in>
								<out>-1</out>
								<masterclipid>ArmA 3 2020.11.14 - 20.41.15.38.mp4</masterclipid>
								<ismasterclip>TRUE</ismasterclip>
								<logginginfo>
									<scene />
									<shottake />
									<lognote />
									<good>FALSE</good>
								</logginginfo>
								<labels>
									<label2 />
								</labels>
								<comments>
									<mastercomment1 />
									<mastercomment2 />
									<mastercomment3 />
									<mastercomment4 />
								</comments>
								<media>
									<video>
										<track>
											<clipitem id="ArmA 3 2020.11.14 - 20.41.15.38.mp41">
												<name>ArmA 3 2020.11.14 - 20.41.15.38.mp4</name>
												<duration>809</duration>
												<rate>
													<ntsc>FALSE</ntsc>
													<timebase>60</timebase>
												</rate>
												<in>0</in>
												<out>809</out>
												<start>0</start>
												<end>809</end>
												<pixelaspectratio>Square</pixelaspectratio>
												<anamorphic>FALSE</anamorphic>
												<alphatype>none</alphatype>
												<masterclipid>ArmA 3 2020.11.14 - 20.41.15.38.mp4</masterclipid>
												<logginginfo>
													<scene />
													<shottake />
													<lognote />
													<good>FALSE</good>
												</logginginfo>
												<labels>
													<label2 />
												</labels>
												<comments>
													<mastercomment1 />
													<mastercomment2 />
													<mastercomment3 />
													<mastercomment4 />
												</comments>
												<file id="ArmA 3 2020.11.14 - 20.41.15.38">
													<name>ArmA 3 2020.11.14 - 20.41.15.38.mp4</name>
													<pathurl>file://localhost/F:/AMVS Russia/NaturaDestruction/PRPACK5/ArmA 3 2020.11.14 - 20.41.15.38.mp4</pathurl>
													<rate>
														<timebase>60</timebase>
														<ntsc>FALSE</ntsc>
													</rate>
													<duration>809</duration>
													<timecode>
														<rate>
															<timebase>60</timebase>
															<ntsc>FALSE</ntsc>
														</rate>
														<frame>0</frame>
														<displayformat>NDF</displayformat>
														<source>source</source>
													</timecode>
													<media>
														<video>
															<duration>809</duration>
															<samplecharacteristics>
																<width>1920</width>
																<height>1080</height>
															</samplecharacteristics>
														</video>
														<audio>
															<samplecharacteristics>
																<samplerate>48000</samplerate>
																<depth>32</depth>
															</samplecharacteristics>
															<channelcount>1</channelcount>
														</audio>
														<audio>
															<samplecharacteristics>
																<samplerate>48000</samplerate>
																<depth>32</depth>
															</samplecharacteristics>
															<channelcount>1</channelcount>
														</audio>
													</media>
												</file>
												<sourcetrack>
													<mediatype>video</mediatype>
												</sourcetrack>
												<fielddominance>none</fielddominance>
											</clipitem>
											<enabled>TRUE</enabled>
											<locked>FALSE</locked>
										</track>
									</video>
									<audio>
										<track>
											<clipitem id="ArmA 3 2020.11.14 - 20.41.15.38.mp42">
												<name>ArmA 3 2020.11.14 - 20.41.15.38.mp4</name>
												<duration>809</duration>
												<rate>
													<ntsc>TRUE</ntsc>
													<timebase>24</timebase>
												</rate>
												<in>0</in>
												<out>809</out>
												<start>0</start>
												<end>809</end>
												<masterclipid>ArmA 3 2020.11.14 - 20.41.15.38.mp4</masterclipid>
												<logginginfo>
													<scene />
													<shottake />
													<lognote />
													<good>FALSE</good>
												</logginginfo>
												<labels>
													<label2 />
												</labels>
												<comments>
													<mastercomment1 />
													<mastercomment2 />
													<mastercomment3 />
													<mastercomment4 />
												</comments>
												<file id="ArmA 3 2020.11.14 - 20.41.15.38" />
												<sourcetrack>
													<mediatype>audio</mediatype>
												</sourcetrack>
											</clipitem>
											<enabled>TRUE</enabled>
											<locked>FALSE</locked>
										</track>
										<track>
											<clipitem id="ArmA 3 2020.11.14 - 20.41.15.38.mp43">
												<name>ArmA 3 2020.11.14 - 20.41.15.38.mp4</name>
												<duration>809</duration>
												<rate>
													<ntsc>TRUE</ntsc>
													<timebase>24</timebase>
												</rate>
												<in>0</in>
												<out>809</out>
												<start>0</start>
												<end>809</end>
												<masterclipid>ArmA 3 2020.11.14 - 20.41.15.38.mp4</masterclipid>
												<logginginfo>
													<scene />
													<shottake />
													<lognote />
													<good>FALSE</good>
												</logginginfo>
												<labels>
													<label2 />
												</labels>
												<comments>
													<mastercomment1 />
													<mastercomment2 />
													<mastercomment3 />
													<mastercomment4 />
												</comments>
												<file id="ArmA 3 2020.11.14 - 20.41.15.38" />
												<sourcetrack>
													<mediatype>audio</mediatype>
												</sourcetrack>
											</clipitem>
											<enabled>TRUE</enabled>
											<locked>FALSE</locked>
										</track>
									</audio>
								</media>
							</clip>
							<clip id="ArmA 3 2020.11.14 - 20.42.08.39.mp4">
								<updatebehavior>add</updatebehavior>
								<name>ArmA 3 2020.11.14 - 20.42.08.39.mp4</name>
								<duration>1394</duration>
								<rate>
									<ntsc>FALSE</ntsc>
									<timebase>60</timebase>
								</rate>
								<in>-1</in>
								<out>-1</out>
								<masterclipid>ArmA 3 2020.11.14 - 20.42.08.39.mp4</masterclipid>
								<ismasterclip>TRUE</ismasterclip>
								<logginginfo>
									<scene />
									<shottake />
									<lognote />
									<good>FALSE</good>
								</logginginfo>
								<labels>
									<label2 />
								</labels>
								<comments>
									<mastercomment1 />
									<mastercomment2 />
									<mastercomment3 />
									<mastercomment4 />
								</comments>
								<media>
									<video>
										<track>
											<clipitem id="ArmA 3 2020.11.14 - 20.42.08.39.mp41">
												<name>ArmA 3 2020.11.14 - 20.42.08.39.mp4</name>
												<duration>1394</duration>
												<rate>
													<ntsc>FALSE</ntsc>
													<timebase>60</timebase>
												</rate>
												<in>0</in>
												<out>1394</out>
												<start>0</start>
												<end>1394</end>
												<pixelaspectratio>Square</pixelaspectratio>
												<anamorphic>FALSE</anamorphic>
												<alphatype>none</alphatype>
												<masterclipid>ArmA 3 2020.11.14 - 20.42.08.39.mp4</masterclipid>
												<logginginfo>
													<scene />
													<shottake />
													<lognote />
													<good>FALSE</good>
												</logginginfo>
												<labels>
													<label2 />
												</labels>
												<comments>
													<mastercomment1 />
													<mastercomment2 />
													<mastercomment3 />
													<mastercomment4 />
												</comments>
												<file id="ArmA 3 2020.11.14 - 20.42.08.39">
													<name>ArmA 3 2020.11.14 - 20.42.08.39.mp4</name>
													<pathurl>file://localhost/F:/AMVS Russia/NaturaDestruction/PRPACK3/ArmA 3 2020.11.14 - 20.42.08.39.mp4</pathurl>
													<rate>
														<timebase>60</timebase>
														<ntsc>FALSE</ntsc>
													</rate>
													<duration>1394</duration>
													<timecode>
														<rate>
															<timebase>60</timebase>
															<ntsc>FALSE</ntsc>
														</rate>
														<frame>0</frame>
														<displayformat>NDF</displayformat>
														<source>source</source>
													</timecode>
													<media>
														<video>
															<duration>1394</duration>
															<samplecharacteristics>
																<width>1920</width>
																<height>1080</height>
															</samplecharacteristics>
														</video>
														<audio>
															<samplecharacteristics>
																<samplerate>48000</samplerate>
																<depth>32</depth>
															</samplecharacteristics>
															<channelcount>1</channelcount>
														</audio>
														<audio>
															<samplecharacteristics>
																<samplerate>48000</samplerate>
																<depth>32</depth>
															</samplecharacteristics>
															<channelcount>1</channelcount>
														</audio>
													</media>
												</file>
												<sourcetrack>
													<mediatype>video</mediatype>
												</sourcetrack>
												<fielddominance>none</fielddominance>
											</clipitem>
											<enabled>TRUE</enabled>
											<locked>FALSE</locked>
										</track>
									</video>
									<audio>
										<track>
											<clipitem id="ArmA 3 2020.11.14 - 20.42.08.39.mp42">
												<name>ArmA 3 2020.11.14 - 20.42.08.39.mp4</name>
												<duration>1394</duration>
												<rate>
													<ntsc>TRUE</ntsc>
													<timebase>24</timebase>
												</rate>
												<in>0</in>
												<out>1394</out>
												<start>0</start>
												<end>1394</end>
												<masterclipid>ArmA 3 2020.11.14 - 20.42.08.39.mp4</masterclipid>
												<logginginfo>
													<scene />
													<shottake />
													<lognote />
													<good>FALSE</good>
												</logginginfo>
												<labels>
													<label2 />
												</labels>
												<comments>
													<mastercomment1 />
													<mastercomment2 />
													<mastercomment3 />
													<mastercomment4 />
												</comments>
												<file id="ArmA 3 2020.11.14 - 20.42.08.39" />
												<sourcetrack>
													<mediatype>audio</mediatype>
												</sourcetrack>
											</clipitem>
											<enabled>TRUE</enabled>
											<locked>FALSE</locked>
										</track>
										<track>
											<clipitem id="ArmA 3 2020.11.14 - 20.42.08.39.mp43">
												<name>ArmA 3 2020.11.14 - 20.42.08.39.mp4</name>
												<duration>1394</duration>
												<rate>
													<ntsc>TRUE</ntsc>
													<timebase>24</timebase>
												</rate>
												<in>0</in>
												<out>1394</out>
												<start>0</start>
												<end>1394</end>
												<masterclipid>ArmA 3 2020.11.14 - 20.42.08.39.mp4</masterclipid>
												<logginginfo>
													<scene />
													<shottake />
													<lognote />
													<good>FALSE</good>
												</logginginfo>
												<labels>
													<label2 />
												</labels>
												<comments>
													<mastercomment1 />
													<mastercomment2 />
													<mastercomment3 />
													<mastercomment4 />
												</comments>
												<file id="ArmA 3 2020.11.14 - 20.42.08.39" />
												<sourcetrack>
													<mediatype>audio</mediatype>
												</sourcetrack>
											</clipitem>
											<enabled>TRUE</enabled>
											<locked>FALSE</locked>
										</track>
									</audio>
								</media>
							</clip>
							<clip id="ArmA 3 2020.11.14 - 20.43.49.40.mp4">
								<updatebehavior>add</updatebehavior>
								<name>ArmA 3 2020.11.14 - 20.43.49.40.mp4</name>
								<duration>386</duration>
								<rate>
									<ntsc>FALSE</ntsc>
									<timebase>60</timebase>
								</rate>
								<in>-1</in>
								<out>-1</out>
								<masterclipid>ArmA 3 2020.11.14 - 20.43.49.40.mp4</masterclipid>
								<ismasterclip>TRUE</ismasterclip>
								<logginginfo>
									<scene />
									<shottake />
									<lognote />
									<good>FALSE</good>
								</logginginfo>
								<labels>
									<label2 />
								</labels>
								<comments>
									<mastercomment1 />
									<mastercomment2 />
									<mastercomment3 />
									<mastercomment4 />
								</comments>
								<media>
									<video>
										<track>
											<clipitem id="ArmA 3 2020.11.14 - 20.43.49.40.mp41">
												<name>ArmA 3 2020.11.14 - 20.43.49.40.mp4</name>
												<duration>386</duration>
												<rate>
													<ntsc>FALSE</ntsc>
													<timebase>60</timebase>
												</rate>
												<in>0</in>
												<out>386</out>
												<start>0</start>
												<end>386</end>
												<pixelaspectratio>Square</pixelaspectratio>
												<anamorphic>FALSE</anamorphic>
												<alphatype>none</alphatype>
												<masterclipid>ArmA 3 2020.11.14 - 20.43.49.40.mp4</masterclipid>
												<logginginfo>
													<scene />
													<shottake />
													<lognote />
													<good>FALSE</good>
												</logginginfo>
												<labels>
													<label2 />
												</labels>
												<comments>
													<mastercomment1 />
													<mastercomment2 />
													<mastercomment3 />
													<mastercomment4 />
												</comments>
												<file id="ArmA 3 2020.11.14 - 20.43.49.40">
													<name>ArmA 3 2020.11.14 - 20.43.49.40.mp4</name>
													<pathurl>file://localhost/F:/AMVS Russia/NaturaDestruction/PRPACK7/ArmA 3 2020.11.14 - 20.43.49.40.mp4</pathurl>
													<rate>
														<timebase>60</timebase>
														<ntsc>FALSE</ntsc>
													</rate>
													<duration>386</duration>
													<timecode>
														<rate>
															<timebase>60</timebase>
															<ntsc>FALSE</ntsc>
														</rate>
														<frame>0</frame>
														<displayformat>NDF</displayformat>
														<source>source</source>
													</timecode>
													<media>
														<video>
															<duration>386</duration>
															<samplecharacteristics>
																<width>1920</width>
																<height>1080</height>
															</samplecharacteristics>
														</video>
														<audio>
															<samplecharacteristics>
																<samplerate>48000</samplerate>
																<depth>32</depth>
															</samplecharacteristics>
															<channelcount>1</channelcount>
														</audio>
														<audio>
															<samplecharacteristics>
																<samplerate>48000</samplerate>
																<depth>32</depth>
															</samplecharacteristics>
															<channelcount>1</channelcount>
														</audio>
													</media>
												</file>
												<sourcetrack>
													<mediatype>video</mediatype>
												</sourcetrack>
												<fielddominance>none</fielddominance>
											</clipitem>
											<enabled>TRUE</enabled>
											<locked>FALSE</locked>
										</track>
									</video>
									<audio>
										<track>
											<clipitem id="ArmA 3 2020.11.14 - 20.43.49.40.mp42">
												<name>ArmA 3 2020.11.14 - 20.43.49.40.mp4</name>
												<duration>386</duration>
												<rate>
													<ntsc>TRUE</ntsc>
													<timebase>24</timebase>
												</rate>
												<in>0</in>
												<out>386</out>
												<start>0</start>
												<end>386</end>
												<masterclipid>ArmA 3 2020.11.14 - 20.43.49.40.mp4</masterclipid>
												<logginginfo>
													<scene />
													<shottake />
													<lognote />
													<good>FALSE</good>
												</logginginfo>
												<labels>
													<label2 />
												</labels>
												<comments>
													<mastercomment1 />
													<mastercomment2 />
													<mastercomment3 />
													<mastercomment4 />
												</comments>
												<file id="ArmA 3 2020.11.14 - 20.43.49.40" />
												<sourcetrack>
													<mediatype>audio</mediatype>
												</sourcetrack>
											</clipitem>
											<enabled>TRUE</enabled>
											<locked>FALSE</locked>
										</track>
										<track>
											<clipitem id="ArmA 3 2020.11.14 - 20.43.49.40.mp43">
												<name>ArmA 3 2020.11.14 - 20.43.49.40.mp4</name>
												<duration>386</duration>
												<rate>
													<ntsc>TRUE</ntsc>
													<timebase>24</timebase>
												</rate>
												<in>0</in>
												<out>386</out>
												<start>0</start>
												<end>386</end>
												<masterclipid>ArmA 3 2020.11.14 - 20.43.49.40.mp4</masterclipid>
												<logginginfo>
													<scene />
													<shottake />
													<lognote />
													<good>FALSE</good>
												</logginginfo>
												<labels>
													<label2 />
												</labels>
												<comments>
													<mastercomment1 />
													<mastercomment2 />
													<mastercomment3 />
													<mastercomment4 />
												</comments>
												<file id="ArmA 3 2020.11.14 - 20.43.49.40" />
												<sourcetrack>
													<mediatype>audio</mediatype>
												</sourcetrack>
											</clipitem>
											<enabled>TRUE</enabled>
											<locked>FALSE</locked>
										</track>
									</audio>
								</media>
							</clip>
							<clip id="ArmA 3 2020.11.14 - 20.50.27.41.mp4">
								<updatebehavior>add</updatebehavior>
								<name>ArmA 3 2020.11.14 - 20.50.27.41.mp4</name>
								<duration>378</duration>
								<rate>
									<ntsc>FALSE</ntsc>
									<timebase>60</timebase>
								</rate>
								<in>-1</in>
								<out>-1</out>
								<masterclipid>ArmA 3 2020.11.14 - 20.50.27.41.mp4</masterclipid>
								<ismasterclip>TRUE</ismasterclip>
								<logginginfo>
									<scene />
									<shottake />
									<lognote />
									<good>FALSE</good>
								</logginginfo>
								<labels>
									<label2 />
								</labels>
								<comments>
									<mastercomment1 />
									<mastercomment2 />
									<mastercomment3 />
									<mastercomment4 />
								</comments>
								<media>
									<video>
										<track>
											<clipitem id="ArmA 3 2020.11.14 - 20.50.27.41.mp41">
												<name>ArmA 3 2020.11.14 - 20.50.27.41.mp4</name>
												<duration>378</duration>
												<rate>
													<ntsc>FALSE</ntsc>
													<timebase>60</timebase>
												</rate>
												<in>0</in>
												<out>378</out>
												<start>0</start>
												<end>378</end>
												<pixelaspectratio>Square</pixelaspectratio>
												<anamorphic>FALSE</anamorphic>
												<alphatype>none</alphatype>
												<masterclipid>ArmA 3 2020.11.14 - 20.50.27.41.mp4</masterclipid>
												<logginginfo>
													<scene />
													<shottake />
													<lognote />
													<good>FALSE</good>
												</logginginfo>
												<labels>
													<label2 />
												</labels>
												<comments>
													<mastercomment1 />
													<mastercomment2 />
													<mastercomment3 />
													<mastercomment4 />
												</comments>
												<file id="ArmA 3 2020.11.14 - 20.50.27.41">
													<name>ArmA 3 2020.11.14 - 20.50.27.41.mp4</name>
													<pathurl>file://localhost/F:/AMVS Russia/NaturaDestruction/PRPACK7/ArmA 3 2020.11.14 - 20.50.27.41.mp4</pathurl>
													<rate>
														<timebase>60</timebase>
														<ntsc>FALSE</ntsc>
													</rate>
													<duration>378</duration>
													<timecode>
														<rate>
															<timebase>60</timebase>
															<ntsc>FALSE</ntsc>
														</rate>
														<frame>0</frame>
														<displayformat>NDF</displayformat>
														<source>source</source>
													</timecode>
													<media>
														<video>
															<duration>378</duration>
															<samplecharacteristics>
																<width>1920</width>
																<height>1080</height>
															</samplecharacteristics>
														</video>
														<audio>
															<samplecharacteristics>
																<samplerate>48000</samplerate>
																<depth>32</depth>
															</samplecharacteristics>
															<channelcount>1</channelcount>
														</audio>
														<audio>
															<samplecharacteristics>
																<samplerate>48000</samplerate>
																<depth>32</depth>
															</samplecharacteristics>
															<channelcount>1</channelcount>
														</audio>
													</media>
												</file>
												<sourcetrack>
													<mediatype>video</mediatype>
												</sourcetrack>
												<fielddominance>none</fielddominance>
											</clipitem>
											<enabled>TRUE</enabled>
											<locked>FALSE</locked>
										</track>
									</video>
									<audio>
										<track>
											<clipitem id="ArmA 3 2020.11.14 - 20.50.27.41.mp42">
												<name>ArmA 3 2020.11.14 - 20.50.27.41.mp4</name>
												<duration>378</duration>
												<rate>
													<ntsc>TRUE</ntsc>
													<timebase>24</timebase>
												</rate>
												<in>0</in>
												<out>378</out>
												<start>0</start>
												<end>378</end>
												<masterclipid>ArmA 3 2020.11.14 - 20.50.27.41.mp4</masterclipid>
												<logginginfo>
													<scene />
													<shottake />
													<lognote />
													<good>FALSE</good>
												</logginginfo>
												<labels>
													<label2 />
												</labels>
												<comments>
													<mastercomment1 />
													<mastercomment2 />
													<mastercomment3 />
													<mastercomment4 />
												</comments>
												<file id="ArmA 3 2020.11.14 - 20.50.27.41" />
												<sourcetrack>
													<mediatype>audio</mediatype>
												</sourcetrack>
											</clipitem>
											<enabled>TRUE</enabled>
											<locked>FALSE</locked>
										</track>
										<track>
											<clipitem id="ArmA 3 2020.11.14 - 20.50.27.41.mp43">
												<name>ArmA 3 2020.11.14 - 20.50.27.41.mp4</name>
												<duration>378</duration>
												<rate>
													<ntsc>TRUE</ntsc>
													<timebase>24</timebase>
												</rate>
												<in>0</in>
												<out>378</out>
												<start>0</start>
												<end>378</end>
												<masterclipid>ArmA 3 2020.11.14 - 20.50.27.41.mp4</masterclipid>
												<logginginfo>
													<scene />
													<shottake />
													<lognote />
													<good>FALSE</good>
												</logginginfo>
												<labels>
													<label2 />
												</labels>
												<comments>
													<mastercomment1 />
													<mastercomment2 />
													<mastercomment3 />
													<mastercomment4 />
												</comments>
												<file id="ArmA 3 2020.11.14 - 20.50.27.41" />
												<sourcetrack>
													<mediatype>audio</mediatype>
												</sourcetrack>
											</clipitem>
											<enabled>TRUE</enabled>
											<locked>FALSE</locked>
										</track>
									</audio>
								</media>
							</clip>
							<clip id="ArmA 3 2020.11.14 - 20.53.10.42.mp4">
								<updatebehavior>add</updatebehavior>
								<name>ArmA 3 2020.11.14 - 20.53.10.42.mp4</name>
								<duration>774</duration>
								<rate>
									<ntsc>FALSE</ntsc>
									<timebase>60</timebase>
								</rate>
								<in>-1</in>
								<out>-1</out>
								<masterclipid>ArmA 3 2020.11.14 - 20.53.10.42.mp4</masterclipid>
								<ismasterclip>TRUE</ismasterclip>
								<logginginfo>
									<scene />
									<shottake />
									<lognote />
									<good>FALSE</good>
								</logginginfo>
								<labels>
									<label2 />
								</labels>
								<comments>
									<mastercomment1 />
									<mastercomment2 />
									<mastercomment3 />
									<mastercomment4 />
								</comments>
								<media>
									<video>
										<track>
											<clipitem id="ArmA 3 2020.11.14 - 20.53.10.42.mp41">
												<name>ArmA 3 2020.11.14 - 20.53.10.42.mp4</name>
												<duration>774</duration>
												<rate>
													<ntsc>FALSE</ntsc>
													<timebase>60</timebase>
												</rate>
												<in>0</in>
												<out>774</out>
												<start>0</start>
												<end>774</end>
												<pixelaspectratio>Square</pixelaspectratio>
												<anamorphic>FALSE</anamorphic>
												<alphatype>none</alphatype>
												<masterclipid>ArmA 3 2020.11.14 - 20.53.10.42.mp4</masterclipid>
												<logginginfo>
													<scene />
													<shottake />
													<lognote />
													<good>FALSE</good>
												</logginginfo>
												<labels>
													<label2 />
												</labels>
												<comments>
													<mastercomment1 />
													<mastercomment2 />
													<mastercomment3 />
													<mastercomment4 />
												</comments>
												<file id="ArmA 3 2020.11.14 - 20.53.10.42">
													<name>ArmA 3 2020.11.14 - 20.53.10.42.mp4</name>
													<pathurl>file://localhost/F:/AMVS Russia/NaturaDestruction/PRPACK5/ArmA 3 2020.11.14 - 20.53.10.42.mp4</pathurl>
													<rate>
														<timebase>60</timebase>
														<ntsc>FALSE</ntsc>
													</rate>
													<duration>774</duration>
													<timecode>
														<rate>
															<timebase>60</timebase>
															<ntsc>FALSE</ntsc>
														</rate>
														<frame>0</frame>
														<displayformat>NDF</displayformat>
														<source>source</source>
													</timecode>
													<media>
														<video>
															<duration>774</duration>
															<samplecharacteristics>
																<width>1920</width>
																<height>1080</height>
															</samplecharacteristics>
														</video>
														<audio>
															<samplecharacteristics>
																<samplerate>48000</samplerate>
																<depth>32</depth>
															</samplecharacteristics>
															<channelcount>1</channelcount>
														</audio>
														<audio>
															<samplecharacteristics>
																<samplerate>48000</samplerate>
																<depth>32</depth>
															</samplecharacteristics>
															<channelcount>1</channelcount>
														</audio>
													</media>
												</file>
												<sourcetrack>
													<mediatype>video</mediatype>
												</sourcetrack>
												<fielddominance>none</fielddominance>
											</clipitem>
											<enabled>TRUE</enabled>
											<locked>FALSE</locked>
										</track>
									</video>
									<audio>
										<track>
											<clipitem id="ArmA 3 2020.11.14 - 20.53.10.42.mp42">
												<name>ArmA 3 2020.11.14 - 20.53.10.42.mp4</name>
												<duration>774</duration>
												<rate>
													<ntsc>TRUE</ntsc>
													<timebase>24</timebase>
												</rate>
												<in>0</in>
												<out>774</out>
												<start>0</start>
												<end>774</end>
												<masterclipid>ArmA 3 2020.11.14 - 20.53.10.42.mp4</masterclipid>
												<logginginfo>
													<scene />
													<shottake />
													<lognote />
													<good>FALSE</good>
												</logginginfo>
												<labels>
													<label2 />
												</labels>
												<comments>
													<mastercomment1 />
													<mastercomment2 />
													<mastercomment3 />
													<mastercomment4 />
												</comments>
												<file id="ArmA 3 2020.11.14 - 20.53.10.42" />
												<sourcetrack>
													<mediatype>audio</mediatype>
												</sourcetrack>
											</clipitem>
											<enabled>TRUE</enabled>
											<locked>FALSE</locked>
										</track>
										<track>
											<clipitem id="ArmA 3 2020.11.14 - 20.53.10.42.mp43">
												<name>ArmA 3 2020.11.14 - 20.53.10.42.mp4</name>
												<duration>774</duration>
												<rate>
													<ntsc>TRUE</ntsc>
													<timebase>24</timebase>
												</rate>
												<in>0</in>
												<out>774</out>
												<start>0</start>
												<end>774</end>
												<masterclipid>ArmA 3 2020.11.14 - 20.53.10.42.mp4</masterclipid>
												<logginginfo>
													<scene />
													<shottake />
													<lognote />
													<good>FALSE</good>
												</logginginfo>
												<labels>
													<label2 />
												</labels>
												<comments>
													<mastercomment1 />
													<mastercomment2 />
													<mastercomment3 />
													<mastercomment4 />
												</comments>
												<file id="ArmA 3 2020.11.14 - 20.53.10.42" />
												<sourcetrack>
													<mediatype>audio</mediatype>
												</sourcetrack>
											</clipitem>
											<enabled>TRUE</enabled>
											<locked>FALSE</locked>
										</track>
									</audio>
								</media>
							</clip>
							<clip id="ArmA 3 2020.11.14 - 20.54.51.43.mp4">
								<updatebehavior>add</updatebehavior>
								<name>ArmA 3 2020.11.14 - 20.54.51.43.mp4</name>
								<duration>441</duration>
								<rate>
									<ntsc>FALSE</ntsc>
									<timebase>60</timebase>
								</rate>
								<in>-1</in>
								<out>-1</out>
								<masterclipid>ArmA 3 2020.11.14 - 20.54.51.43.mp4</masterclipid>
								<ismasterclip>TRUE</ismasterclip>
								<logginginfo>
									<scene />
									<shottake />
									<lognote />
									<good>FALSE</good>
								</logginginfo>
								<labels>
									<label2 />
								</labels>
								<comments>
									<mastercomment1 />
									<mastercomment2 />
									<mastercomment3 />
									<mastercomment4 />
								</comments>
								<media>
									<video>
										<track>
											<clipitem id="ArmA 3 2020.11.14 - 20.54.51.43.mp41">
												<name>ArmA 3 2020.11.14 - 20.54.51.43.mp4</name>
												<duration>441</duration>
												<rate>
													<ntsc>FALSE</ntsc>
													<timebase>60</timebase>
												</rate>
												<in>0</in>
												<out>441</out>
												<start>0</start>
												<end>441</end>
												<pixelaspectratio>Square</pixelaspectratio>
												<anamorphic>FALSE</anamorphic>
												<alphatype>none</alphatype>
												<masterclipid>ArmA 3 2020.11.14 - 20.54.51.43.mp4</masterclipid>
												<logginginfo>
													<scene />
													<shottake />
													<lognote />
													<good>FALSE</good>
												</logginginfo>
												<labels>
													<label2 />
												</labels>
												<comments>
													<mastercomment1 />
													<mastercomment2 />
													<mastercomment3 />
													<mastercomment4 />
												</comments>
												<file id="ArmA 3 2020.11.14 - 20.54.51.43">
													<name>ArmA 3 2020.11.14 - 20.54.51.43.mp4</name>
													<pathurl>file://localhost/F:/AMVS Russia/NaturaDestruction/PRPACK6/ArmA 3 2020.11.14 - 20.54.51.43.mp4</pathurl>
													<rate>
														<timebase>60</timebase>
														<ntsc>FALSE</ntsc>
													</rate>
													<duration>441</duration>
													<timecode>
														<rate>
															<timebase>60</timebase>
															<ntsc>FALSE</ntsc>
														</rate>
														<frame>0</frame>
														<displayformat>NDF</displayformat>
														<source>source</source>
													</timecode>
													<media>
														<video>
															<duration>441</duration>
															<samplecharacteristics>
																<width>1920</width>
																<height>1080</height>
															</samplecharacteristics>
														</video>
														<audio>
															<samplecharacteristics>
																<samplerate>48000</samplerate>
																<depth>32</depth>
															</samplecharacteristics>
															<channelcount>1</channelcount>
														</audio>
														<audio>
															<samplecharacteristics>
																<samplerate>48000</samplerate>
																<depth>32</depth>
															</samplecharacteristics>
															<channelcount>1</channelcount>
														</audio>
													</media>
												</file>
												<sourcetrack>
													<mediatype>video</mediatype>
												</sourcetrack>
												<fielddominance>none</fielddominance>
											</clipitem>
											<enabled>TRUE</enabled>
											<locked>FALSE</locked>
										</track>
									</video>
									<audio>
										<track>
											<clipitem id="ArmA 3 2020.11.14 - 20.54.51.43.mp42">
												<name>ArmA 3 2020.11.14 - 20.54.51.43.mp4</name>
												<duration>441</duration>
												<rate>
													<ntsc>TRUE</ntsc>
													<timebase>24</timebase>
												</rate>
												<in>0</in>
												<out>441</out>
												<start>0</start>
												<end>441</end>
												<masterclipid>ArmA 3 2020.11.14 - 20.54.51.43.mp4</masterclipid>
												<logginginfo>
													<scene />
													<shottake />
													<lognote />
													<good>FALSE</good>
												</logginginfo>
												<labels>
													<label2 />
												</labels>
												<comments>
													<mastercomment1 />
													<mastercomment2 />
													<mastercomment3 />
													<mastercomment4 />
												</comments>
												<file id="ArmA 3 2020.11.14 - 20.54.51.43" />
												<sourcetrack>
													<mediatype>audio</mediatype>
												</sourcetrack>
											</clipitem>
											<enabled>TRUE</enabled>
											<locked>FALSE</locked>
										</track>
										<track>
											<clipitem id="ArmA 3 2020.11.14 - 20.54.51.43.mp43">
												<name>ArmA 3 2020.11.14 - 20.54.51.43.mp4</name>
												<duration>441</duration>
												<rate>
													<ntsc>TRUE</ntsc>
													<timebase>24</timebase>
												</rate>
												<in>0</in>
												<out>441</out>
												<start>0</start>
												<end>441</end>
												<masterclipid>ArmA 3 2020.11.14 - 20.54.51.43.mp4</masterclipid>
												<logginginfo>
													<scene />
													<shottake />
													<lognote />
													<good>FALSE</good>
												</logginginfo>
												<labels>
													<label2 />
												</labels>
												<comments>
													<mastercomment1 />
													<mastercomment2 />
													<mastercomment3 />
													<mastercomment4 />
												</comments>
												<file id="ArmA 3 2020.11.14 - 20.54.51.43" />
												<sourcetrack>
													<mediatype>audio</mediatype>
												</sourcetrack>
											</clipitem>
											<enabled>TRUE</enabled>
											<locked>FALSE</locked>
										</track>
									</audio>
								</media>
							</clip>
							<clip id="ArmA 3 2020.11.14 - 20.55.19.44.mp4">
								<updatebehavior>add</updatebehavior>
								<name>ArmA 3 2020.11.14 - 20.55.19.44.mp4</name>
								<duration>709</duration>
								<rate>
									<ntsc>FALSE</ntsc>
									<timebase>60</timebase>
								</rate>
								<in>-1</in>
								<out>-1</out>
								<masterclipid>ArmA 3 2020.11.14 - 20.55.19.44.mp4</masterclipid>
								<ismasterclip>TRUE</ismasterclip>
								<logginginfo>
									<scene />
									<shottake />
									<lognote />
									<good>FALSE</good>
								</logginginfo>
								<labels>
									<label2 />
								</labels>
								<comments>
									<mastercomment1 />
									<mastercomment2 />
									<mastercomment3 />
									<mastercomment4 />
								</comments>
								<media>
									<video>
										<track>
											<clipitem id="ArmA 3 2020.11.14 - 20.55.19.44.mp41">
												<name>ArmA 3 2020.11.14 - 20.55.19.44.mp4</name>
												<duration>709</duration>
												<rate>
													<ntsc>FALSE</ntsc>
													<timebase>60</timebase>
												</rate>
												<in>0</in>
												<out>709</out>
												<start>0</start>
												<end>709</end>
												<pixelaspectratio>Square</pixelaspectratio>
												<anamorphic>FALSE</anamorphic>
												<alphatype>none</alphatype>
												<masterclipid>ArmA 3 2020.11.14 - 20.55.19.44.mp4</masterclipid>
												<logginginfo>
													<scene />
													<shottake />
													<lognote />
													<good>FALSE</good>
												</logginginfo>
												<labels>
													<label2 />
												</labels>
												<comments>
													<mastercomment1 />
													<mastercomment2 />
													<mastercomment3 />
													<mastercomment4 />
												</comments>
												<file id="ArmA 3 2020.11.14 - 20.55.19.44">
													<name>ArmA 3 2020.11.14 - 20.55.19.44.mp4</name>
													<pathurl>file://localhost/F:/AMVS Russia/NaturaDestruction/PRPACK5/ArmA 3 2020.11.14 - 20.55.19.44.mp4</pathurl>
													<rate>
														<timebase>60</timebase>
														<ntsc>FALSE</ntsc>
													</rate>
													<duration>709</duration>
													<timecode>
														<rate>
															<timebase>60</timebase>
															<ntsc>FALSE</ntsc>
														</rate>
														<frame>0</frame>
														<displayformat>NDF</displayformat>
														<source>source</source>
													</timecode>
													<media>
														<video>
															<duration>709</duration>
															<samplecharacteristics>
																<width>1920</width>
																<height>1080</height>
															</samplecharacteristics>
														</video>
														<audio>
															<samplecharacteristics>
																<samplerate>48000</samplerate>
																<depth>32</depth>
															</samplecharacteristics>
															<channelcount>1</channelcount>
														</audio>
														<audio>
															<samplecharacteristics>
																<samplerate>48000</samplerate>
																<depth>32</depth>
															</samplecharacteristics>
															<channelcount>1</channelcount>
														</audio>
													</media>
												</file>
												<sourcetrack>
													<mediatype>video</mediatype>
												</sourcetrack>
												<fielddominance>none</fielddominance>
											</clipitem>
											<enabled>TRUE</enabled>
											<locked>FALSE</locked>
										</track>
									</video>
									<audio>
										<track>
											<clipitem id="ArmA 3 2020.11.14 - 20.55.19.44.mp42">
												<name>ArmA 3 2020.11.14 - 20.55.19.44.mp4</name>
												<duration>709</duration>
												<rate>
													<ntsc>TRUE</ntsc>
													<timebase>24</timebase>
												</rate>
												<in>0</in>
												<out>709</out>
												<start>0</start>
												<end>709</end>
												<masterclipid>ArmA 3 2020.11.14 - 20.55.19.44.mp4</masterclipid>
												<logginginfo>
													<scene />
													<shottake />
													<lognote />
													<good>FALSE</good>
												</logginginfo>
												<labels>
													<label2 />
												</labels>
												<comments>
													<mastercomment1 />
													<mastercomment2 />
													<mastercomment3 />
													<mastercomment4 />
												</comments>
												<file id="ArmA 3 2020.11.14 - 20.55.19.44" />
												<sourcetrack>
													<mediatype>audio</mediatype>
												</sourcetrack>
											</clipitem>
											<enabled>TRUE</enabled>
											<locked>FALSE</locked>
										</track>
										<track>
											<clipitem id="ArmA 3 2020.11.14 - 20.55.19.44.mp43">
												<name>ArmA 3 2020.11.14 - 20.55.19.44.mp4</name>
												<duration>709</duration>
												<rate>
													<ntsc>TRUE</ntsc>
													<timebase>24</timebase>
												</rate>
												<in>0</in>
												<out>709</out>
												<start>0</start>
												<end>709</end>
												<masterclipid>ArmA 3 2020.11.14 - 20.55.19.44.mp4</masterclipid>
												<logginginfo>
													<scene />
													<shottake />
													<lognote />
													<good>FALSE</good>
												</logginginfo>
												<labels>
													<label2 />
												</labels>
												<comments>
													<mastercomment1 />
													<mastercomment2 />
													<mastercomment3 />
													<mastercomment4 />
												</comments>
												<file id="ArmA 3 2020.11.14 - 20.55.19.44" />
												<sourcetrack>
													<mediatype>audio</mediatype>
												</sourcetrack>
											</clipitem>
											<enabled>TRUE</enabled>
											<locked>FALSE</locked>
										</track>
									</audio>
								</media>
							</clip>
							<clip id="ArmA 3 2020.11.14 - 20.58.46.45.mp4">
								<updatebehavior>add</updatebehavior>
								<name>ArmA 3 2020.11.14 - 20.58.46.45.mp4</name>
								<duration>1428</duration>
								<rate>
									<ntsc>FALSE</ntsc>
									<timebase>60</timebase>
								</rate>
								<in>-1</in>
								<out>-1</out>
								<masterclipid>ArmA 3 2020.11.14 - 20.58.46.45.mp4</masterclipid>
								<ismasterclip>TRUE</ismasterclip>
								<logginginfo>
									<scene />
									<shottake />
									<lognote />
									<good>FALSE</good>
								</logginginfo>
								<labels>
									<label2 />
								</labels>
								<comments>
									<mastercomment1 />
									<mastercomment2 />
									<mastercomment3 />
									<mastercomment4 />
								</comments>
								<media>
									<video>
										<track>
											<clipitem id="ArmA 3 2020.11.14 - 20.58.46.45.mp41">
												<name>ArmA 3 2020.11.14 - 20.58.46.45.mp4</name>
												<duration>1428</duration>
												<rate>
													<ntsc>FALSE</ntsc>
													<timebase>60</timebase>
												</rate>
												<in>0</in>
												<out>1428</out>
												<start>0</start>
												<end>1428</end>
												<pixelaspectratio>Square</pixelaspectratio>
												<anamorphic>FALSE</anamorphic>
												<alphatype>none</alphatype>
												<masterclipid>ArmA 3 2020.11.14 - 20.58.46.45.mp4</masterclipid>
												<logginginfo>
													<scene />
													<shottake />
													<lognote />
													<good>FALSE</good>
												</logginginfo>
												<labels>
													<label2 />
												</labels>
												<comments>
													<mastercomment1 />
													<mastercomment2 />
													<mastercomment3 />
													<mastercomment4 />
												</comments>
												<file id="ArmA 3 2020.11.14 - 20.58.46.45">
													<name>ArmA 3 2020.11.14 - 20.58.46.45.mp4</name>
													<pathurl>file://localhost/F:/AMVS Russia/NaturaDestruction/PRPACK4/ArmA 3 2020.11.14 - 20.58.46.45.mp4</pathurl>
													<rate>
														<timebase>60</timebase>
														<ntsc>FALSE</ntsc>
													</rate>
													<duration>1428</duration>
													<timecode>
														<rate>
															<timebase>60</timebase>
															<ntsc>FALSE</ntsc>
														</rate>
														<frame>0</frame>
														<displayformat>NDF</displayformat>
														<source>source</source>
													</timecode>
													<media>
														<video>
															<duration>1428</duration>
															<samplecharacteristics>
																<width>1920</width>
																<height>1080</height>
															</samplecharacteristics>
														</video>
														<audio>
															<samplecharacteristics>
																<samplerate>48000</samplerate>
																<depth>32</depth>
															</samplecharacteristics>
															<channelcount>1</channelcount>
														</audio>
														<audio>
															<samplecharacteristics>
																<samplerate>48000</samplerate>
																<depth>32</depth>
															</samplecharacteristics>
															<channelcount>1</channelcount>
														</audio>
													</media>
												</file>
												<sourcetrack>
													<mediatype>video</mediatype>
												</sourcetrack>
												<fielddominance>none</fielddominance>
											</clipitem>
											<enabled>TRUE</enabled>
											<locked>FALSE</locked>
										</track>
									</video>
									<audio>
										<track>
											<clipitem id="ArmA 3 2020.11.14 - 20.58.46.45.mp42">
												<name>ArmA 3 2020.11.14 - 20.58.46.45.mp4</name>
												<duration>1428</duration>
												<rate>
													<ntsc>TRUE</ntsc>
													<timebase>24</timebase>
												</rate>
												<in>0</in>
												<out>1428</out>
												<start>0</start>
												<end>1428</end>
												<masterclipid>ArmA 3 2020.11.14 - 20.58.46.45.mp4</masterclipid>
												<logginginfo>
													<scene />
													<shottake />
													<lognote />
													<good>FALSE</good>
												</logginginfo>
												<labels>
													<label2 />
												</labels>
												<comments>
													<mastercomment1 />
													<mastercomment2 />
													<mastercomment3 />
													<mastercomment4 />
												</comments>
												<file id="ArmA 3 2020.11.14 - 20.58.46.45" />
												<sourcetrack>
													<mediatype>audio</mediatype>
												</sourcetrack>
											</clipitem>
											<enabled>TRUE</enabled>
											<locked>FALSE</locked>
										</track>
										<track>
											<clipitem id="ArmA 3 2020.11.14 - 20.58.46.45.mp43">
												<name>ArmA 3 2020.11.14 - 20.58.46.45.mp4</name>
												<duration>1428</duration>
												<rate>
													<ntsc>TRUE</ntsc>
													<timebase>24</timebase>
												</rate>
												<in>0</in>
												<out>1428</out>
												<start>0</start>
												<end>1428</end>
												<masterclipid>ArmA 3 2020.11.14 - 20.58.46.45.mp4</masterclipid>
												<logginginfo>
													<scene />
													<shottake />
													<lognote />
													<good>FALSE</good>
												</logginginfo>
												<labels>
													<label2 />
												</labels>
												<comments>
													<mastercomment1 />
													<mastercomment2 />
													<mastercomment3 />
													<mastercomment4 />
												</comments>
												<file id="ArmA 3 2020.11.14 - 20.58.46.45" />
												<sourcetrack>
													<mediatype>audio</mediatype>
												</sourcetrack>
											</clipitem>
											<enabled>TRUE</enabled>
											<locked>FALSE</locked>
										</track>
									</audio>
								</media>
							</clip>
							<clip id="ArmA 3 2020.11.14 - 21.00.16.46.mp4">
								<updatebehavior>add</updatebehavior>
								<name>ArmA 3 2020.11.14 - 21.00.16.46.mp4</name>
								<duration>562</duration>
								<rate>
									<ntsc>FALSE</ntsc>
									<timebase>60</timebase>
								</rate>
								<in>-1</in>
								<out>-1</out>
								<masterclipid>ArmA 3 2020.11.14 - 21.00.16.46.mp4</masterclipid>
								<ismasterclip>TRUE</ismasterclip>
								<logginginfo>
									<scene />
									<shottake />
									<lognote />
									<good>FALSE</good>
								</logginginfo>
								<labels>
									<label2 />
								</labels>
								<comments>
									<mastercomment1 />
									<mastercomment2 />
									<mastercomment3 />
									<mastercomment4 />
								</comments>
								<media>
									<video>
										<track>
											<clipitem id="ArmA 3 2020.11.14 - 21.00.16.46.mp41">
												<name>ArmA 3 2020.11.14 - 21.00.16.46.mp4</name>
												<duration>562</duration>
												<rate>
													<ntsc>FALSE</ntsc>
													<timebase>60</timebase>
												</rate>
												<in>0</in>
												<out>562</out>
												<start>0</start>
												<end>562</end>
												<pixelaspectratio>Square</pixelaspectratio>
												<anamorphic>FALSE</anamorphic>
												<alphatype>none</alphatype>
												<masterclipid>ArmA 3 2020.11.14 - 21.00.16.46.mp4</masterclipid>
												<logginginfo>
													<scene />
													<shottake />
													<lognote />
													<good>FALSE</good>
												</logginginfo>
												<labels>
													<label2 />
												</labels>
												<comments>
													<mastercomment1 />
													<mastercomment2 />
													<mastercomment3 />
													<mastercomment4 />
												</comments>
												<file id="ArmA 3 2020.11.14 - 21.00.16.46">
													<name>ArmA 3 2020.11.14 - 21.00.16.46.mp4</name>
													<pathurl>file://localhost/F:/AMVS Russia/NaturaDestruction/PRPACK6/ArmA 3 2020.11.14 - 21.00.16.46.mp4</pathurl>
													<rate>
														<timebase>60</timebase>
														<ntsc>FALSE</ntsc>
													</rate>
													<duration>562</duration>
													<timecode>
														<rate>
															<timebase>60</timebase>
															<ntsc>FALSE</ntsc>
														</rate>
														<frame>0</frame>
														<displayformat>NDF</displayformat>
														<source>source</source>
													</timecode>
													<media>
														<video>
															<duration>562</duration>
															<samplecharacteristics>
																<width>1920</width>
																<height>1080</height>
															</samplecharacteristics>
														</video>
														<audio>
															<samplecharacteristics>
																<samplerate>48000</samplerate>
																<depth>32</depth>
															</samplecharacteristics>
															<channelcount>1</channelcount>
														</audio>
														<audio>
															<samplecharacteristics>
																<samplerate>48000</samplerate>
																<depth>32</depth>
															</samplecharacteristics>
															<channelcount>1</channelcount>
														</audio>
													</media>
												</file>
												<sourcetrack>
													<mediatype>video</mediatype>
												</sourcetrack>
												<fielddominance>none</fielddominance>
											</clipitem>
											<enabled>TRUE</enabled>
											<locked>FALSE</locked>
										</track>
									</video>
									<audio>
										<track>
											<clipitem id="ArmA 3 2020.11.14 - 21.00.16.46.mp42">
												<name>ArmA 3 2020.11.14 - 21.00.16.46.mp4</name>
												<duration>558</duration>
												<rate>
													<ntsc>TRUE</ntsc>
													<timebase>24</timebase>
												</rate>
												<in>0</in>
												<out>558</out>
												<start>0</start>
												<end>558</end>
												<masterclipid>ArmA 3 2020.11.14 - 21.00.16.46.mp4</masterclipid>
												<logginginfo>
													<scene />
													<shottake />
													<lognote />
													<good>FALSE</good>
												</logginginfo>
												<labels>
													<label2 />
												</labels>
												<comments>
													<mastercomment1 />
													<mastercomment2 />
													<mastercomment3 />
													<mastercomment4 />
												</comments>
												<file id="ArmA 3 2020.11.14 - 21.00.16.46" />
												<sourcetrack>
													<mediatype>audio</mediatype>
												</sourcetrack>
											</clipitem>
											<enabled>TRUE</enabled>
											<locked>FALSE</locked>
										</track>
										<track>
											<clipitem id="ArmA 3 2020.11.14 - 21.00.16.46.mp43">
												<name>ArmA 3 2020.11.14 - 21.00.16.46.mp4</name>
												<duration>558</duration>
												<rate>
													<ntsc>TRUE</ntsc>
													<timebase>24</timebase>
												</rate>
												<in>0</in>
												<out>558</out>
												<start>0</start>
												<end>558</end>
												<masterclipid>ArmA 3 2020.11.14 - 21.00.16.46.mp4</masterclipid>
												<logginginfo>
													<scene />
													<shottake />
													<lognote />
													<good>FALSE</good>
												</logginginfo>
												<labels>
													<label2 />
												</labels>
												<comments>
													<mastercomment1 />
													<mastercomment2 />
													<mastercomment3 />
													<mastercomment4 />
												</comments>
												<file id="ArmA 3 2020.11.14 - 21.00.16.46" />
												<sourcetrack>
													<mediatype>audio</mediatype>
												</sourcetrack>
											</clipitem>
											<enabled>TRUE</enabled>
											<locked>FALSE</locked>
										</track>
									</audio>
								</media>
							</clip>
							<clip id="ArmA 3 2020.11.14 - 21.00.51.47.mp4">
								<updatebehavior>add</updatebehavior>
								<name>ArmA 3 2020.11.14 - 21.00.51.47.mp4</name>
								<duration>691</duration>
								<rate>
									<ntsc>FALSE</ntsc>
									<timebase>60</timebase>
								</rate>
								<in>-1</in>
								<out>-1</out>
								<masterclipid>ArmA 3 2020.11.14 - 21.00.51.47.mp4</masterclipid>
								<ismasterclip>TRUE</ismasterclip>
								<logginginfo>
									<scene />
									<shottake />
									<lognote />
									<good>FALSE</good>
								</logginginfo>
								<labels>
									<label2 />
								</labels>
								<comments>
									<mastercomment1 />
									<mastercomment2 />
									<mastercomment3 />
									<mastercomment4 />
								</comments>
								<media>
									<video>
										<track>
											<clipitem id="ArmA 3 2020.11.14 - 21.00.51.47.mp41">
												<name>ArmA 3 2020.11.14 - 21.00.51.47.mp4</name>
												<duration>691</duration>
												<rate>
													<ntsc>FALSE</ntsc>
													<timebase>60</timebase>
												</rate>
												<in>0</in>
												<out>691</out>
												<start>0</start>
												<end>691</end>
												<pixelaspectratio>Square</pixelaspectratio>
												<anamorphic>FALSE</anamorphic>
												<alphatype>none</alphatype>
												<masterclipid>ArmA 3 2020.11.14 - 21.00.51.47.mp4</masterclipid>
												<logginginfo>
													<scene />
													<shottake />
													<lognote />
													<good>FALSE</good>
												</logginginfo>
												<labels>
													<label2 />
												</labels>
												<comments>
													<mastercomment1 />
													<mastercomment2 />
													<mastercomment3 />
													<mastercomment4 />
												</comments>
												<file id="ArmA 3 2020.11.14 - 21.00.51.47">
													<name>ArmA 3 2020.11.14 - 21.00.51.47.mp4</name>
													<pathurl>file://localhost/F:/AMVS Russia/NaturaDestruction/PRPACK5/ArmA 3 2020.11.14 - 21.00.51.47.mp4</pathurl>
													<rate>
														<timebase>60</timebase>
														<ntsc>FALSE</ntsc>
													</rate>
													<duration>691</duration>
													<timecode>
														<rate>
															<timebase>60</timebase>
															<ntsc>FALSE</ntsc>
														</rate>
														<frame>0</frame>
														<displayformat>NDF</displayformat>
														<source>source</source>
													</timecode>
													<media>
														<video>
															<duration>691</duration>
															<samplecharacteristics>
																<width>1920</width>
																<height>1080</height>
															</samplecharacteristics>
														</video>
														<audio>
															<samplecharacteristics>
																<samplerate>48000</samplerate>
																<depth>32</depth>
															</samplecharacteristics>
															<channelcount>1</channelcount>
														</audio>
														<audio>
															<samplecharacteristics>
																<samplerate>48000</samplerate>
																<depth>32</depth>
															</samplecharacteristics>
															<channelcount>1</channelcount>
														</audio>
													</media>
												</file>
												<sourcetrack>
													<mediatype>video</mediatype>
												</sourcetrack>
												<fielddominance>none</fielddominance>
											</clipitem>
											<enabled>TRUE</enabled>
											<locked>FALSE</locked>
										</track>
									</video>
									<audio>
										<track>
											<clipitem id="ArmA 3 2020.11.14 - 21.00.51.47.mp42">
												<name>ArmA 3 2020.11.14 - 21.00.51.47.mp4</name>
												<duration>691</duration>
												<rate>
													<ntsc>TRUE</ntsc>
													<timebase>24</timebase>
												</rate>
												<in>0</in>
												<out>691</out>
												<start>0</start>
												<end>691</end>
												<masterclipid>ArmA 3 2020.11.14 - 21.00.51.47.mp4</masterclipid>
												<logginginfo>
													<scene />
													<shottake />
													<lognote />
													<good>FALSE</good>
												</logginginfo>
												<labels>
													<label2 />
												</labels>
												<comments>
													<mastercomment1 />
													<mastercomment2 />
													<mastercomment3 />
													<mastercomment4 />
												</comments>
												<file id="ArmA 3 2020.11.14 - 21.00.51.47" />
												<sourcetrack>
													<mediatype>audio</mediatype>
												</sourcetrack>
											</clipitem>
											<enabled>TRUE</enabled>
											<locked>FALSE</locked>
										</track>
										<track>
											<clipitem id="ArmA 3 2020.11.14 - 21.00.51.47.mp43">
												<name>ArmA 3 2020.11.14 - 21.00.51.47.mp4</name>
												<duration>691</duration>
												<rate>
													<ntsc>TRUE</ntsc>
													<timebase>24</timebase>
												</rate>
												<in>0</in>
												<out>691</out>
												<start>0</start>
												<end>691</end>
												<masterclipid>ArmA 3 2020.11.14 - 21.00.51.47.mp4</masterclipid>
												<logginginfo>
													<scene />
													<shottake />
													<lognote />
													<good>FALSE</good>
												</logginginfo>
												<labels>
													<label2 />
												</labels>
												<comments>
													<mastercomment1 />
													<mastercomment2 />
													<mastercomment3 />
													<mastercomment4 />
												</comments>
												<file id="ArmA 3 2020.11.14 - 21.00.51.47" />
												<sourcetrack>
													<mediatype>audio</mediatype>
												</sourcetrack>
											</clipitem>
											<enabled>TRUE</enabled>
											<locked>FALSE</locked>
										</track>
									</audio>
								</media>
							</clip>
							<clip id="ArmA 3 2020.11.14 - 21.01.54.48.mp4">
								<updatebehavior>add</updatebehavior>
								<name>ArmA 3 2020.11.14 - 21.01.54.48.mp4</name>
								<duration>911</duration>
								<rate>
									<ntsc>FALSE</ntsc>
									<timebase>60</timebase>
								</rate>
								<in>-1</in>
								<out>-1</out>
								<masterclipid>ArmA 3 2020.11.14 - 21.01.54.48.mp4</masterclipid>
								<ismasterclip>TRUE</ismasterclip>
								<logginginfo>
									<scene />
									<shottake />
									<lognote />
									<good>FALSE</good>
								</logginginfo>
								<labels>
									<label2 />
								</labels>
								<comments>
									<mastercomment1 />
									<mastercomment2 />
									<mastercomment3 />
									<mastercomment4 />
								</comments>
								<media>
									<video>
										<track>
											<clipitem id="ArmA 3 2020.11.14 - 21.01.54.48.mp41">
												<name>ArmA 3 2020.11.14 - 21.01.54.48.mp4</name>
												<duration>911</duration>
												<rate>
													<ntsc>FALSE</ntsc>
													<timebase>60</timebase>
												</rate>
												<in>0</in>
												<out>911</out>
												<start>0</start>
												<end>911</end>
												<pixelaspectratio>Square</pixelaspectratio>
												<anamorphic>FALSE</anamorphic>
												<alphatype>none</alphatype>
												<masterclipid>ArmA 3 2020.11.14 - 21.01.54.48.mp4</masterclipid>
												<logginginfo>
													<scene />
													<shottake />
													<lognote />
													<good>FALSE</good>
												</logginginfo>
												<labels>
													<label2 />
												</labels>
												<comments>
													<mastercomment1 />
													<mastercomment2 />
													<mastercomment3 />
													<mastercomment4 />
												</comments>
												<file id="ArmA 3 2020.11.14 - 21.01.54.48">
													<name>ArmA 3 2020.11.14 - 21.01.54.48.mp4</name>
													<pathurl>file://localhost/F:/AMVS Russia/NaturaDestruction/PRPACK5/ArmA 3 2020.11.14 - 21.01.54.48.mp4</pathurl>
													<rate>
														<timebase>60</timebase>
														<ntsc>FALSE</ntsc>
													</rate>
													<duration>911</duration>
													<timecode>
														<rate>
															<timebase>60</timebase>
															<ntsc>FALSE</ntsc>
														</rate>
														<frame>0</frame>
														<displayformat>NDF</displayformat>
														<source>source</source>
													</timecode>
													<media>
														<video>
															<duration>911</duration>
															<samplecharacteristics>
																<width>1920</width>
																<height>1080</height>
															</samplecharacteristics>
														</video>
														<audio>
															<samplecharacteristics>
																<samplerate>48000</samplerate>
																<depth>32</depth>
															</samplecharacteristics>
															<channelcount>1</channelcount>
														</audio>
														<audio>
															<samplecharacteristics>
																<samplerate>48000</samplerate>
																<depth>32</depth>
															</samplecharacteristics>
															<channelcount>1</channelcount>
														</audio>
													</media>
												</file>
												<sourcetrack>
													<mediatype>video</mediatype>
												</sourcetrack>
												<fielddominance>none</fielddominance>
											</clipitem>
											<enabled>TRUE</enabled>
											<locked>FALSE</locked>
										</track>
									</video>
									<audio>
										<track>
											<clipitem id="ArmA 3 2020.11.14 - 21.01.54.48.mp42">
												<name>ArmA 3 2020.11.14 - 21.01.54.48.mp4</name>
												<duration>911</duration>
												<rate>
													<ntsc>TRUE</ntsc>
													<timebase>24</timebase>
												</rate>
												<in>0</in>
												<out>911</out>
												<start>0</start>
												<end>911</end>
												<masterclipid>ArmA 3 2020.11.14 - 21.01.54.48.mp4</masterclipid>
												<logginginfo>
													<scene />
													<shottake />
													<lognote />
													<good>FALSE</good>
												</logginginfo>
												<labels>
													<label2 />
												</labels>
												<comments>
													<mastercomment1 />
													<mastercomment2 />
													<mastercomment3 />
													<mastercomment4 />
												</comments>
												<file id="ArmA 3 2020.11.14 - 21.01.54.48" />
												<sourcetrack>
													<mediatype>audio</mediatype>
												</sourcetrack>
											</clipitem>
											<enabled>TRUE</enabled>
											<locked>FALSE</locked>
										</track>
										<track>
											<clipitem id="ArmA 3 2020.11.14 - 21.01.54.48.mp43">
												<name>ArmA 3 2020.11.14 - 21.01.54.48.mp4</name>
												<duration>911</duration>
												<rate>
													<ntsc>TRUE</ntsc>
													<timebase>24</timebase>
												</rate>
												<in>0</in>
												<out>911</out>
												<start>0</start>
												<end>911</end>
												<masterclipid>ArmA 3 2020.11.14 - 21.01.54.48.mp4</masterclipid>
												<logginginfo>
													<scene />
													<shottake />
													<lognote />
													<good>FALSE</good>
												</logginginfo>
												<labels>
													<label2 />
												</labels>
												<comments>
													<mastercomment1 />
													<mastercomment2 />
													<mastercomment3 />
													<mastercomment4 />
												</comments>
												<file id="ArmA 3 2020.11.14 - 21.01.54.48" />
												<sourcetrack>
													<mediatype>audio</mediatype>
												</sourcetrack>
											</clipitem>
											<enabled>TRUE</enabled>
											<locked>FALSE</locked>
										</track>
									</audio>
								</media>
							</clip>
							<clip id="ArmA 3 2020.11.14 - 21.03.09.49.mp4">
								<updatebehavior>add</updatebehavior>
								<name>ArmA 3 2020.11.14 - 21.03.09.49.mp4</name>
								<duration>577</duration>
								<rate>
									<ntsc>FALSE</ntsc>
									<timebase>60</timebase>
								</rate>
								<in>-1</in>
								<out>-1</out>
								<masterclipid>ArmA 3 2020.11.14 - 21.03.09.49.mp4</masterclipid>
								<ismasterclip>TRUE</ismasterclip>
								<logginginfo>
									<scene />
									<shottake />
									<lognote />
									<good>FALSE</good>
								</logginginfo>
								<labels>
									<label2 />
								</labels>
								<comments>
									<mastercomment1 />
									<mastercomment2 />
									<mastercomment3 />
									<mastercomment4 />
								</comments>
								<media>
									<video>
										<track>
											<clipitem id="ArmA 3 2020.11.14 - 21.03.09.49.mp41">
												<name>ArmA 3 2020.11.14 - 21.03.09.49.mp4</name>
												<duration>577</duration>
												<rate>
													<ntsc>FALSE</ntsc>
													<timebase>60</timebase>
												</rate>
												<in>0</in>
												<out>577</out>
												<start>0</start>
												<end>577</end>
												<pixelaspectratio>Square</pixelaspectratio>
												<anamorphic>FALSE</anamorphic>
												<alphatype>none</alphatype>
												<masterclipid>ArmA 3 2020.11.14 - 21.03.09.49.mp4</masterclipid>
												<logginginfo>
													<scene />
													<shottake />
													<lognote />
													<good>FALSE</good>
												</logginginfo>
												<labels>
													<label2 />
												</labels>
												<comments>
													<mastercomment1 />
													<mastercomment2 />
													<mastercomment3 />
													<mastercomment4 />
												</comments>
												<file id="ArmA 3 2020.11.14 - 21.03.09.49">
													<name>ArmA 3 2020.11.14 - 21.03.09.49.mp4</name>
													<pathurl>file://localhost/F:/AMVS Russia/NaturaDestruction/PRPACK6/ArmA 3 2020.11.14 - 21.03.09.49.mp4</pathurl>
													<rate>
														<timebase>60</timebase>
														<ntsc>FALSE</ntsc>
													</rate>
													<duration>577</duration>
													<timecode>
														<rate>
															<timebase>60</timebase>
															<ntsc>FALSE</ntsc>
														</rate>
														<frame>0</frame>
														<displayformat>NDF</displayformat>
														<source>source</source>
													</timecode>
													<media>
														<video>
															<duration>577</duration>
															<samplecharacteristics>
																<width>1920</width>
																<height>1080</height>
															</samplecharacteristics>
														</video>
														<audio>
															<samplecharacteristics>
																<samplerate>48000</samplerate>
																<depth>32</depth>
															</samplecharacteristics>
															<channelcount>1</channelcount>
														</audio>
														<audio>
															<samplecharacteristics>
																<samplerate>48000</samplerate>
																<depth>32</depth>
															</samplecharacteristics>
															<channelcount>1</channelcount>
														</audio>
													</media>
												</file>
												<sourcetrack>
													<mediatype>video</mediatype>
												</sourcetrack>
												<fielddominance>none</fielddominance>
											</clipitem>
											<enabled>TRUE</enabled>
											<locked>FALSE</locked>
										</track>
									</video>
									<audio>
										<track>
											<clipitem id="ArmA 3 2020.11.14 - 21.03.09.49.mp42">
												<name>ArmA 3 2020.11.14 - 21.03.09.49.mp4</name>
												<duration>577</duration>
												<rate>
													<ntsc>TRUE</ntsc>
													<timebase>24</timebase>
												</rate>
												<in>0</in>
												<out>577</out>
												<start>0</start>
												<end>577</end>
												<masterclipid>ArmA 3 2020.11.14 - 21.03.09.49.mp4</masterclipid>
												<logginginfo>
													<scene />
													<shottake />
													<lognote />
													<good>FALSE</good>
												</logginginfo>
												<labels>
													<label2 />
												</labels>
												<comments>
													<mastercomment1 />
													<mastercomment2 />
													<mastercomment3 />
													<mastercomment4 />
												</comments>
												<file id="ArmA 3 2020.11.14 - 21.03.09.49" />
												<sourcetrack>
													<mediatype>audio</mediatype>
												</sourcetrack>
											</clipitem>
											<enabled>TRUE</enabled>
											<locked>FALSE</locked>
										</track>
										<track>
											<clipitem id="ArmA 3 2020.11.14 - 21.03.09.49.mp43">
												<name>ArmA 3 2020.11.14 - 21.03.09.49.mp4</name>
												<duration>577</duration>
												<rate>
													<ntsc>TRUE</ntsc>
													<timebase>24</timebase>
												</rate>
												<in>0</in>
												<out>577</out>
												<start>0</start>
												<end>577</end>
												<masterclipid>ArmA 3 2020.11.14 - 21.03.09.49.mp4</masterclipid>
												<logginginfo>
													<scene />
													<shottake />
													<lognote />
													<good>FALSE</good>
												</logginginfo>
												<labels>
													<label2 />
												</labels>
												<comments>
													<mastercomment1 />
													<mastercomment2 />
													<mastercomment3 />
													<mastercomment4 />
												</comments>
												<file id="ArmA 3 2020.11.14 - 21.03.09.49" />
												<sourcetrack>
													<mediatype>audio</mediatype>
												</sourcetrack>
											</clipitem>
											<enabled>TRUE</enabled>
											<locked>FALSE</locked>
										</track>
									</audio>
								</media>
							</clip>
							<clip id="ArmA 3 2020.11.14 - 21.04.25.50.mp4">
								<updatebehavior>add</updatebehavior>
								<name>ArmA 3 2020.11.14 - 21.04.25.50.mp4</name>
								<duration>573</duration>
								<rate>
									<ntsc>FALSE</ntsc>
									<timebase>60</timebase>
								</rate>
								<in>-1</in>
								<out>-1</out>
								<masterclipid>ArmA 3 2020.11.14 - 21.04.25.50.mp4</masterclipid>
								<ismasterclip>TRUE</ismasterclip>
								<logginginfo>
									<scene />
									<shottake />
									<lognote />
									<good>FALSE</good>
								</logginginfo>
								<labels>
									<label2 />
								</labels>
								<comments>
									<mastercomment1 />
									<mastercomment2 />
									<mastercomment3 />
									<mastercomment4 />
								</comments>
								<media>
									<video>
										<track>
											<clipitem id="ArmA 3 2020.11.14 - 21.04.25.50.mp41">
												<name>ArmA 3 2020.11.14 - 21.04.25.50.mp4</name>
												<duration>573</duration>
												<rate>
													<ntsc>FALSE</ntsc>
													<timebase>60</timebase>
												</rate>
												<in>0</in>
												<out>573</out>
												<start>0</start>
												<end>573</end>
												<pixelaspectratio>Square</pixelaspectratio>
												<anamorphic>FALSE</anamorphic>
												<alphatype>none</alphatype>
												<masterclipid>ArmA 3 2020.11.14 - 21.04.25.50.mp4</masterclipid>
												<logginginfo>
													<scene />
													<shottake />
													<lognote />
													<good>FALSE</good>
												</logginginfo>
												<labels>
													<label2 />
												</labels>
												<comments>
													<mastercomment1 />
													<mastercomment2 />
													<mastercomment3 />
													<mastercomment4 />
												</comments>
												<file id="ArmA 3 2020.11.14 - 21.04.25.50">
													<name>ArmA 3 2020.11.14 - 21.04.25.50.mp4</name>
													<pathurl>file://localhost/F:/AMVS Russia/NaturaDestruction/PRPACK6/ArmA 3 2020.11.14 - 21.04.25.50.mp4</pathurl>
													<rate>
														<timebase>60</timebase>
														<ntsc>FALSE</ntsc>
													</rate>
													<duration>573</duration>
													<timecode>
														<rate>
															<timebase>60</timebase>
															<ntsc>FALSE</ntsc>
														</rate>
														<frame>0</frame>
														<displayformat>NDF</displayformat>
														<source>source</source>
													</timecode>
													<media>
														<video>
															<duration>573</duration>
															<samplecharacteristics>
																<width>1920</width>
																<height>1080</height>
															</samplecharacteristics>
														</video>
														<audio>
															<samplecharacteristics>
																<samplerate>48000</samplerate>
																<depth>32</depth>
															</samplecharacteristics>
															<channelcount>1</channelcount>
														</audio>
														<audio>
															<samplecharacteristics>
																<samplerate>48000</samplerate>
																<depth>32</depth>
															</samplecharacteristics>
															<channelcount>1</channelcount>
														</audio>
													</media>
												</file>
												<sourcetrack>
													<mediatype>video</mediatype>
												</sourcetrack>
												<fielddominance>none</fielddominance>
											</clipitem>
											<enabled>TRUE</enabled>
											<locked>FALSE</locked>
										</track>
									</video>
									<audio>
										<track>
											<clipitem id="ArmA 3 2020.11.14 - 21.04.25.50.mp42">
												<name>ArmA 3 2020.11.14 - 21.04.25.50.mp4</name>
												<duration>573</duration>
												<rate>
													<ntsc>TRUE</ntsc>
													<timebase>24</timebase>
												</rate>
												<in>0</in>
												<out>573</out>
												<start>0</start>
												<end>573</end>
												<masterclipid>ArmA 3 2020.11.14 - 21.04.25.50.mp4</masterclipid>
												<logginginfo>
													<scene />
													<shottake />
													<lognote />
													<good>FALSE</good>
												</logginginfo>
												<labels>
													<label2 />
												</labels>
												<comments>
													<mastercomment1 />
													<mastercomment2 />
													<mastercomment3 />
													<mastercomment4 />
												</comments>
												<file id="ArmA 3 2020.11.14 - 21.04.25.50" />
												<sourcetrack>
													<mediatype>audio</mediatype>
												</sourcetrack>
											</clipitem>
											<enabled>TRUE</enabled>
											<locked>FALSE</locked>
										</track>
										<track>
											<clipitem id="ArmA 3 2020.11.14 - 21.04.25.50.mp43">
												<name>ArmA 3 2020.11.14 - 21.04.25.50.mp4</name>
												<duration>573</duration>
												<rate>
													<ntsc>TRUE</ntsc>
													<timebase>24</timebase>
												</rate>
												<in>0</in>
												<out>573</out>
												<start>0</start>
												<end>573</end>
												<masterclipid>ArmA 3 2020.11.14 - 21.04.25.50.mp4</masterclipid>
												<logginginfo>
													<scene />
													<shottake />
													<lognote />
													<good>FALSE</good>
												</logginginfo>
												<labels>
													<label2 />
												</labels>
												<comments>
													<mastercomment1 />
													<mastercomment2 />
													<mastercomment3 />
													<mastercomment4 />
												</comments>
												<file id="ArmA 3 2020.11.14 - 21.04.25.50" />
												<sourcetrack>
													<mediatype>audio</mediatype>
												</sourcetrack>
											</clipitem>
											<enabled>TRUE</enabled>
											<locked>FALSE</locked>
										</track>
									</audio>
								</media>
							</clip>
							<clip id="ArmA 3 2020.11.14 - 21.05.14.51.mp4">
								<updatebehavior>add</updatebehavior>
								<name>ArmA 3 2020.11.14 - 21.05.14.51.mp4</name>
								<duration>643</duration>
								<rate>
									<ntsc>FALSE</ntsc>
									<timebase>60</timebase>
								</rate>
								<in>-1</in>
								<out>-1</out>
								<masterclipid>ArmA 3 2020.11.14 - 21.05.14.51.mp4</masterclipid>
								<ismasterclip>TRUE</ismasterclip>
								<logginginfo>
									<scene />
									<shottake />
									<lognote />
									<good>FALSE</good>
								</logginginfo>
								<labels>
									<label2 />
								</labels>
								<comments>
									<mastercomment1 />
									<mastercomment2 />
									<mastercomment3 />
									<mastercomment4 />
								</comments>
								<media>
									<video>
										<track>
											<clipitem id="ArmA 3 2020.11.14 - 21.05.14.51.mp41">
												<name>ArmA 3 2020.11.14 - 21.05.14.51.mp4</name>
												<duration>643</duration>
												<rate>
													<ntsc>FALSE</ntsc>
													<timebase>60</timebase>
												</rate>
												<in>0</in>
												<out>643</out>
												<start>0</start>
												<end>643</end>
												<pixelaspectratio>Square</pixelaspectratio>
												<anamorphic>FALSE</anamorphic>
												<alphatype>none</alphatype>
												<masterclipid>ArmA 3 2020.11.14 - 21.05.14.51.mp4</masterclipid>
												<logginginfo>
													<scene />
													<shottake />
													<lognote />
													<good>FALSE</good>
												</logginginfo>
												<labels>
													<label2 />
												</labels>
												<comments>
													<mastercomment1 />
													<mastercomment2 />
													<mastercomment3 />
													<mastercomment4 />
												</comments>
												<file id="ArmA 3 2020.11.14 - 21.05.14.51">
													<name>ArmA 3 2020.11.14 - 21.05.14.51.mp4</name>
													<pathurl>file://localhost/F:/AMVS Russia/NaturaDestruction/PRPACK5/ArmA 3 2020.11.14 - 21.05.14.51.mp4</pathurl>
													<rate>
														<timebase>60</timebase>
														<ntsc>FALSE</ntsc>
													</rate>
													<duration>643</duration>
													<timecode>
														<rate>
															<timebase>60</timebase>
															<ntsc>FALSE</ntsc>
														</rate>
														<frame>0</frame>
														<displayformat>NDF</displayformat>
														<source>source</source>
													</timecode>
													<media>
														<video>
															<duration>643</duration>
															<samplecharacteristics>
																<width>1920</width>
																<height>1080</height>
															</samplecharacteristics>
														</video>
														<audio>
															<samplecharacteristics>
																<samplerate>48000</samplerate>
																<depth>32</depth>
															</samplecharacteristics>
															<channelcount>1</channelcount>
														</audio>
														<audio>
															<samplecharacteristics>
																<samplerate>48000</samplerate>
																<depth>32</depth>
															</samplecharacteristics>
															<channelcount>1</channelcount>
														</audio>
													</media>
												</file>
												<sourcetrack>
													<mediatype>video</mediatype>
												</sourcetrack>
												<fielddominance>none</fielddominance>
											</clipitem>
											<enabled>TRUE</enabled>
											<locked>FALSE</locked>
										</track>
									</video>
									<audio>
										<track>
											<clipitem id="ArmA 3 2020.11.14 - 21.05.14.51.mp42">
												<name>ArmA 3 2020.11.14 - 21.05.14.51.mp4</name>
												<duration>643</duration>
												<rate>
													<ntsc>TRUE</ntsc>
													<timebase>24</timebase>
												</rate>
												<in>0</in>
												<out>643</out>
												<start>0</start>
												<end>643</end>
												<masterclipid>ArmA 3 2020.11.14 - 21.05.14.51.mp4</masterclipid>
												<logginginfo>
													<scene />
													<shottake />
													<lognote />
													<good>FALSE</good>
												</logginginfo>
												<labels>
													<label2 />
												</labels>
												<comments>
													<mastercomment1 />
													<mastercomment2 />
													<mastercomment3 />
													<mastercomment4 />
												</comments>
												<file id="ArmA 3 2020.11.14 - 21.05.14.51" />
												<sourcetrack>
													<mediatype>audio</mediatype>
												</sourcetrack>
											</clipitem>
											<enabled>TRUE</enabled>
											<locked>FALSE</locked>
										</track>
										<track>
											<clipitem id="ArmA 3 2020.11.14 - 21.05.14.51.mp43">
												<name>ArmA 3 2020.11.14 - 21.05.14.51.mp4</name>
												<duration>643</duration>
												<rate>
													<ntsc>TRUE</ntsc>
													<timebase>24</timebase>
												</rate>
												<in>0</in>
												<out>643</out>
												<start>0</start>
												<end>643</end>
												<masterclipid>ArmA 3 2020.11.14 - 21.05.14.51.mp4</masterclipid>
												<logginginfo>
													<scene />
													<shottake />
													<lognote />
													<good>FALSE</good>
												</logginginfo>
												<labels>
													<label2 />
												</labels>
												<comments>
													<mastercomment1 />
													<mastercomment2 />
													<mastercomment3 />
													<mastercomment4 />
												</comments>
												<file id="ArmA 3 2020.11.14 - 21.05.14.51" />
												<sourcetrack>
													<mediatype>audio</mediatype>
												</sourcetrack>
											</clipitem>
											<enabled>TRUE</enabled>
											<locked>FALSE</locked>
										</track>
									</audio>
								</media>
							</clip>
							<clip id="ArmA 3 2020.11.14 - 21.05.51.52.mp4">
								<updatebehavior>add</updatebehavior>
								<name>ArmA 3 2020.11.14 - 21.05.51.52.mp4</name>
								<duration>832</duration>
								<rate>
									<ntsc>FALSE</ntsc>
									<timebase>60</timebase>
								</rate>
								<in>-1</in>
								<out>-1</out>
								<masterclipid>ArmA 3 2020.11.14 - 21.05.51.52.mp4</masterclipid>
								<ismasterclip>TRUE</ismasterclip>
								<logginginfo>
									<scene />
									<shottake />
									<lognote />
									<good>FALSE</good>
								</logginginfo>
								<labels>
									<label2 />
								</labels>
								<comments>
									<mastercomment1 />
									<mastercomment2 />
									<mastercomment3 />
									<mastercomment4 />
								</comments>
								<media>
									<video>
										<track>
											<clipitem id="ArmA 3 2020.11.14 - 21.05.51.52.mp41">
												<name>ArmA 3 2020.11.14 - 21.05.51.52.mp4</name>
												<duration>832</duration>
												<rate>
													<ntsc>FALSE</ntsc>
													<timebase>60</timebase>
												</rate>
												<in>0</in>
												<out>832</out>
												<start>0</start>
												<end>832</end>
												<pixelaspectratio>Square</pixelaspectratio>
												<anamorphic>FALSE</anamorphic>
												<alphatype>none</alphatype>
												<masterclipid>ArmA 3 2020.11.14 - 21.05.51.52.mp4</masterclipid>
												<logginginfo>
													<scene />
													<shottake />
													<lognote />
													<good>FALSE</good>
												</logginginfo>
												<labels>
													<label2 />
												</labels>
												<comments>
													<mastercomment1 />
													<mastercomment2 />
													<mastercomment3 />
													<mastercomment4 />
												</comments>
												<file id="ArmA 3 2020.11.14 - 21.05.51.52">
													<name>ArmA 3 2020.11.14 - 21.05.51.52.mp4</name>
													<pathurl>file://localhost/F:/AMVS Russia/NaturaDestruction/PRPACK5/ArmA 3 2020.11.14 - 21.05.51.52.mp4</pathurl>
													<rate>
														<timebase>60</timebase>
														<ntsc>FALSE</ntsc>
													</rate>
													<duration>832</duration>
													<timecode>
														<rate>
															<timebase>60</timebase>
															<ntsc>FALSE</ntsc>
														</rate>
														<frame>0</frame>
														<displayformat>NDF</displayformat>
														<source>source</source>
													</timecode>
													<media>
														<video>
															<duration>832</duration>
															<samplecharacteristics>
																<width>1920</width>
																<height>1080</height>
															</samplecharacteristics>
														</video>
														<audio>
															<samplecharacteristics>
																<samplerate>48000</samplerate>
																<depth>32</depth>
															</samplecharacteristics>
															<channelcount>1</channelcount>
														</audio>
														<audio>
															<samplecharacteristics>
																<samplerate>48000</samplerate>
																<depth>32</depth>
															</samplecharacteristics>
															<channelcount>1</channelcount>
														</audio>
													</media>
												</file>
												<sourcetrack>
													<mediatype>video</mediatype>
												</sourcetrack>
												<fielddominance>none</fielddominance>
											</clipitem>
											<enabled>TRUE</enabled>
											<locked>FALSE</locked>
										</track>
									</video>
									<audio>
										<track>
											<clipitem id="ArmA 3 2020.11.14 - 21.05.51.52.mp42">
												<name>ArmA 3 2020.11.14 - 21.05.51.52.mp4</name>
												<duration>832</duration>
												<rate>
													<ntsc>TRUE</ntsc>
													<timebase>24</timebase>
												</rate>
												<in>0</in>
												<out>832</out>
												<start>0</start>
												<end>832</end>
												<masterclipid>ArmA 3 2020.11.14 - 21.05.51.52.mp4</masterclipid>
												<logginginfo>
													<scene />
													<shottake />
													<lognote />
													<good>FALSE</good>
												</logginginfo>
												<labels>
													<label2 />
												</labels>
												<comments>
													<mastercomment1 />
													<mastercomment2 />
													<mastercomment3 />
													<mastercomment4 />
												</comments>
												<file id="ArmA 3 2020.11.14 - 21.05.51.52" />
												<sourcetrack>
													<mediatype>audio</mediatype>
												</sourcetrack>
											</clipitem>
											<enabled>TRUE</enabled>
											<locked>FALSE</locked>
										</track>
										<track>
											<clipitem id="ArmA 3 2020.11.14 - 21.05.51.52.mp43">
												<name>ArmA 3 2020.11.14 - 21.05.51.52.mp4</name>
												<duration>832</duration>
												<rate>
													<ntsc>TRUE</ntsc>
													<timebase>24</timebase>
												</rate>
												<in>0</in>
												<out>832</out>
												<start>0</start>
												<end>832</end>
												<masterclipid>ArmA 3 2020.11.14 - 21.05.51.52.mp4</masterclipid>
												<logginginfo>
													<scene />
													<shottake />
													<lognote />
													<good>FALSE</good>
												</logginginfo>
												<labels>
													<label2 />
												</labels>
												<comments>
													<mastercomment1 />
													<mastercomment2 />
													<mastercomment3 />
													<mastercomment4 />
												</comments>
												<file id="ArmA 3 2020.11.14 - 21.05.51.52" />
												<sourcetrack>
													<mediatype>audio</mediatype>
												</sourcetrack>
											</clipitem>
											<enabled>TRUE</enabled>
											<locked>FALSE</locked>
										</track>
									</audio>
								</media>
							</clip>
							<clip id="ArmA 3 2020.11.14 - 21.06.34.53.mp4">
								<updatebehavior>add</updatebehavior>
								<name>ArmA 3 2020.11.14 - 21.06.34.53.mp4</name>
								<duration>1018</duration>
								<rate>
									<ntsc>FALSE</ntsc>
									<timebase>60</timebase>
								</rate>
								<in>-1</in>
								<out>-1</out>
								<masterclipid>ArmA 3 2020.11.14 - 21.06.34.53.mp4</masterclipid>
								<ismasterclip>TRUE</ismasterclip>
								<logginginfo>
									<scene />
									<shottake />
									<lognote />
									<good>FALSE</good>
								</logginginfo>
								<labels>
									<label2 />
								</labels>
								<comments>
									<mastercomment1 />
									<mastercomment2 />
									<mastercomment3 />
									<mastercomment4 />
								</comments>
								<media>
									<video>
										<track>
											<clipitem id="ArmA 3 2020.11.14 - 21.06.34.53.mp41">
												<name>ArmA 3 2020.11.14 - 21.06.34.53.mp4</name>
												<duration>1018</duration>
												<rate>
													<ntsc>FALSE</ntsc>
													<timebase>60</timebase>
												</rate>
												<in>0</in>
												<out>1018</out>
												<start>0</start>
												<end>1018</end>
												<pixelaspectratio>Square</pixelaspectratio>
												<anamorphic>FALSE</anamorphic>
												<alphatype>none</alphatype>
												<masterclipid>ArmA 3 2020.11.14 - 21.06.34.53.mp4</masterclipid>
												<logginginfo>
													<scene />
													<shottake />
													<lognote />
													<good>FALSE</good>
												</logginginfo>
												<labels>
													<label2 />
												</labels>
												<comments>
													<mastercomment1 />
													<mastercomment2 />
													<mastercomment3 />
													<mastercomment4 />
												</comments>
												<file id="ArmA 3 2020.11.14 - 21.06.34.53">
													<name>ArmA 3 2020.11.14 - 21.06.34.53.mp4</name>
													<pathurl>file://localhost/F:/AMVS Russia/NaturaDestruction/PRPACK4/ArmA 3 2020.11.14 - 21.06.34.53.mp4</pathurl>
													<rate>
														<timebase>60</timebase>
														<ntsc>FALSE</ntsc>
													</rate>
													<duration>1018</duration>
													<timecode>
														<rate>
															<timebase>60</timebase>
															<ntsc>FALSE</ntsc>
														</rate>
														<frame>0</frame>
														<displayformat>NDF</displayformat>
														<source>source</source>
													</timecode>
													<media>
														<video>
															<duration>1018</duration>
															<samplecharacteristics>
																<width>1920</width>
																<height>1080</height>
															</samplecharacteristics>
														</video>
														<audio>
															<samplecharacteristics>
																<samplerate>48000</samplerate>
																<depth>32</depth>
															</samplecharacteristics>
															<channelcount>1</channelcount>
														</audio>
														<audio>
															<samplecharacteristics>
																<samplerate>48000</samplerate>
																<depth>32</depth>
															</samplecharacteristics>
															<channelcount>1</channelcount>
														</audio>
													</media>
												</file>
												<sourcetrack>
													<mediatype>video</mediatype>
												</sourcetrack>
												<fielddominance>none</fielddominance>
											</clipitem>
											<enabled>TRUE</enabled>
											<locked>FALSE</locked>
										</track>
									</video>
									<audio>
										<track>
											<clipitem id="ArmA 3 2020.11.14 - 21.06.34.53.mp42">
												<name>ArmA 3 2020.11.14 - 21.06.34.53.mp4</name>
												<duration>1018</duration>
												<rate>
													<ntsc>TRUE</ntsc>
													<timebase>24</timebase>
												</rate>
												<in>0</in>
												<out>1018</out>
												<start>0</start>
												<end>1018</end>
												<masterclipid>ArmA 3 2020.11.14 - 21.06.34.53.mp4</masterclipid>
												<logginginfo>
													<scene />
													<shottake />
													<lognote />
													<good>FALSE</good>
												</logginginfo>
												<labels>
													<label2 />
												</labels>
												<comments>
													<mastercomment1 />
													<mastercomment2 />
													<mastercomment3 />
													<mastercomment4 />
												</comments>
												<file id="ArmA 3 2020.11.14 - 21.06.34.53" />
												<sourcetrack>
													<mediatype>audio</mediatype>
												</sourcetrack>
											</clipitem>
											<enabled>TRUE</enabled>
											<locked>FALSE</locked>
										</track>
										<track>
											<clipitem id="ArmA 3 2020.11.14 - 21.06.34.53.mp43">
												<name>ArmA 3 2020.11.14 - 21.06.34.53.mp4</name>
												<duration>1018</duration>
												<rate>
													<ntsc>TRUE</ntsc>
													<timebase>24</timebase>
												</rate>
												<in>0</in>
												<out>1018</out>
												<start>0</start>
												<end>1018</end>
												<masterclipid>ArmA 3 2020.11.14 - 21.06.34.53.mp4</masterclipid>
												<logginginfo>
													<scene />
													<shottake />
													<lognote />
													<good>FALSE</good>
												</logginginfo>
												<labels>
													<label2 />
												</labels>
												<comments>
													<mastercomment1 />
													<mastercomment2 />
													<mastercomment3 />
													<mastercomment4 />
												</comments>
												<file id="ArmA 3 2020.11.14 - 21.06.34.53" />
												<sourcetrack>
													<mediatype>audio</mediatype>
												</sourcetrack>
											</clipitem>
											<enabled>TRUE</enabled>
											<locked>FALSE</locked>
										</track>
									</audio>
								</media>
							</clip>
							<clip id="ArmA 3 2020.11.14 - 21.07.39.54.mp4">
								<updatebehavior>add</updatebehavior>
								<name>ArmA 3 2020.11.14 - 21.07.39.54.mp4</name>
								<duration>2137</duration>
								<rate>
									<ntsc>FALSE</ntsc>
									<timebase>60</timebase>
								</rate>
								<in>-1</in>
								<out>-1</out>
								<masterclipid>ArmA 3 2020.11.14 - 21.07.39.54.mp4</masterclipid>
								<ismasterclip>TRUE</ismasterclip>
								<logginginfo>
									<scene />
									<shottake />
									<lognote />
									<good>FALSE</good>
								</logginginfo>
								<labels>
									<label2 />
								</labels>
								<comments>
									<mastercomment1 />
									<mastercomment2 />
									<mastercomment3 />
									<mastercomment4 />
								</comments>
								<media>
									<video>
										<track>
											<clipitem id="ArmA 3 2020.11.14 - 21.07.39.54.mp41">
												<name>ArmA 3 2020.11.14 - 21.07.39.54.mp4</name>
												<duration>2137</duration>
												<rate>
													<ntsc>FALSE</ntsc>
													<timebase>60</timebase>
												</rate>
												<in>0</in>
												<out>2137</out>
												<start>0</start>
												<end>2137</end>
												<pixelaspectratio>Square</pixelaspectratio>
												<anamorphic>FALSE</anamorphic>
												<alphatype>none</alphatype>
												<masterclipid>ArmA 3 2020.11.14 - 21.07.39.54.mp4</masterclipid>
												<logginginfo>
													<scene />
													<shottake />
													<lognote />
													<good>FALSE</good>
												</logginginfo>
												<labels>
													<label2 />
												</labels>
												<comments>
													<mastercomment1 />
													<mastercomment2 />
													<mastercomment3 />
													<mastercomment4 />
												</comments>
												<file id="ArmA 3 2020.11.14 - 21.07.39.54">
													<name>ArmA 3 2020.11.14 - 21.07.39.54.mp4</name>
													<pathurl>file://localhost/F:/AMVS Russia/NaturaDestruction/PRPACK2/ArmA 3 2020.11.14 - 21.07.39.54.mp4</pathurl>
													<rate>
														<timebase>60</timebase>
														<ntsc>FALSE</ntsc>
													</rate>
													<duration>2137</duration>
													<timecode>
														<rate>
															<timebase>60</timebase>
															<ntsc>FALSE</ntsc>
														</rate>
														<frame>0</frame>
														<displayformat>NDF</displayformat>
														<source>source</source>
													</timecode>
													<media>
														<video>
															<duration>2137</duration>
															<samplecharacteristics>
																<width>1920</width>
																<height>1080</height>
															</samplecharacteristics>
														</video>
														<audio>
															<samplecharacteristics>
																<samplerate>48000</samplerate>
																<depth>32</depth>
															</samplecharacteristics>
															<channelcount>1</channelcount>
														</audio>
														<audio>
															<samplecharacteristics>
																<samplerate>48000</samplerate>
																<depth>32</depth>
															</samplecharacteristics>
															<channelcount>1</channelcount>
														</audio>
													</media>
												</file>
												<sourcetrack>
													<mediatype>video</mediatype>
												</sourcetrack>
												<fielddominance>none</fielddominance>
											</clipitem>
											<enabled>TRUE</enabled>
											<locked>FALSE</locked>
										</track>
									</video>
									<audio>
										<track>
											<clipitem id="ArmA 3 2020.11.14 - 21.07.39.54.mp42">
												<name>ArmA 3 2020.11.14 - 21.07.39.54.mp4</name>
												<duration>2137</duration>
												<rate>
													<ntsc>TRUE</ntsc>
													<timebase>24</timebase>
												</rate>
												<in>0</in>
												<out>2137</out>
												<start>0</start>
												<end>2137</end>
												<masterclipid>ArmA 3 2020.11.14 - 21.07.39.54.mp4</masterclipid>
												<logginginfo>
													<scene />
													<shottake />
													<lognote />
													<good>FALSE</good>
												</logginginfo>
												<labels>
													<label2 />
												</labels>
												<comments>
													<mastercomment1 />
													<mastercomment2 />
													<mastercomment3 />
													<mastercomment4 />
												</comments>
												<file id="ArmA 3 2020.11.14 - 21.07.39.54" />
												<sourcetrack>
													<mediatype>audio</mediatype>
												</sourcetrack>
											</clipitem>
											<enabled>TRUE</enabled>
											<locked>FALSE</locked>
										</track>
										<track>
											<clipitem id="ArmA 3 2020.11.14 - 21.07.39.54.mp43">
												<name>ArmA 3 2020.11.14 - 21.07.39.54.mp4</name>
												<duration>2137</duration>
												<rate>
													<ntsc>TRUE</ntsc>
													<timebase>24</timebase>
												</rate>
												<in>0</in>
												<out>2137</out>
												<start>0</start>
												<end>2137</end>
												<masterclipid>ArmA 3 2020.11.14 - 21.07.39.54.mp4</masterclipid>
												<logginginfo>
													<scene />
													<shottake />
													<lognote />
													<good>FALSE</good>
												</logginginfo>
												<labels>
													<label2 />
												</labels>
												<comments>
													<mastercomment1 />
													<mastercomment2 />
													<mastercomment3 />
													<mastercomment4 />
												</comments>
												<file id="ArmA 3 2020.11.14 - 21.07.39.54" />
												<sourcetrack>
													<mediatype>audio</mediatype>
												</sourcetrack>
											</clipitem>
											<enabled>TRUE</enabled>
											<locked>FALSE</locked>
										</track>
									</audio>
								</media>
							</clip>
							<clip id="ArmA 3 2020.11.14 - 21.12.09.55.mp4">
								<updatebehavior>add</updatebehavior>
								<name>ArmA 3 2020.11.14 - 21.12.09.55.mp4</name>
								<duration>4968</duration>
								<rate>
									<ntsc>FALSE</ntsc>
									<timebase>60</timebase>
								</rate>
								<in>-1</in>
								<out>-1</out>
								<masterclipid>ArmA 3 2020.11.14 - 21.12.09.55.mp4</masterclipid>
								<ismasterclip>TRUE</ismasterclip>
								<logginginfo>
									<scene />
									<shottake />
									<lognote />
									<good>FALSE</good>
								</logginginfo>
								<labels>
									<label2 />
								</labels>
								<comments>
									<mastercomment1 />
									<mastercomment2 />
									<mastercomment3 />
									<mastercomment4 />
								</comments>
								<media>
									<video>
										<track>
											<clipitem id="ArmA 3 2020.11.14 - 21.12.09.55.mp41">
												<name>ArmA 3 2020.11.14 - 21.12.09.55.mp4</name>
												<duration>4968</duration>
												<rate>
													<ntsc>FALSE</ntsc>
													<timebase>60</timebase>
												</rate>
												<in>0</in>
												<out>4968</out>
												<start>0</start>
												<end>4968</end>
												<pixelaspectratio>Square</pixelaspectratio>
												<anamorphic>FALSE</anamorphic>
												<alphatype>none</alphatype>
												<masterclipid>ArmA 3 2020.11.14 - 21.12.09.55.mp4</masterclipid>
												<logginginfo>
													<scene />
													<shottake />
													<lognote />
													<good>FALSE</good>
												</logginginfo>
												<labels>
													<label2 />
												</labels>
												<comments>
													<mastercomment1 />
													<mastercomment2 />
													<mastercomment3 />
													<mastercomment4 />
												</comments>
												<file id="ArmA 3 2020.11.14 - 21.12.09.55">
													<name>ArmA 3 2020.11.14 - 21.12.09.55.mp4</name>
													<pathurl>file://localhost/F:/AMVS Russia/NaturaDestruction/PRPACK1/ArmA 3 2020.11.14 - 21.12.09.55.mp4</pathurl>
													<rate>
														<timebase>60</timebase>
														<ntsc>FALSE</ntsc>
													</rate>
													<duration>4968</duration>
													<timecode>
														<rate>
															<timebase>60</timebase>
															<ntsc>FALSE</ntsc>
														</rate>
														<frame>0</frame>
														<displayformat>NDF</displayformat>
														<source>source</source>
													</timecode>
													<media>
														<video>
															<duration>4968</duration>
															<samplecharacteristics>
																<width>1920</width>
																<height>1080</height>
															</samplecharacteristics>
														</video>
														<audio>
															<samplecharacteristics>
																<samplerate>48000</samplerate>
																<depth>32</depth>
															</samplecharacteristics>
															<channelcount>1</channelcount>
														</audio>
														<audio>
															<samplecharacteristics>
																<samplerate>48000</samplerate>
																<depth>32</depth>
															</samplecharacteristics>
															<channelcount>1</channelcount>
														</audio>
													</media>
												</file>
												<sourcetrack>
													<mediatype>video</mediatype>
												</sourcetrack>
												<fielddominance>none</fielddominance>
											</clipitem>
											<enabled>TRUE</enabled>
											<locked>FALSE</locked>
										</track>
									</video>
									<audio>
										<track>
											<clipitem id="ArmA 3 2020.11.14 - 21.12.09.55.mp42">
												<name>ArmA 3 2020.11.14 - 21.12.09.55.mp4</name>
												<duration>4968</duration>
												<rate>
													<ntsc>TRUE</ntsc>
													<timebase>24</timebase>
												</rate>
												<in>0</in>
												<out>4968</out>
												<start>0</start>
												<end>4968</end>
												<masterclipid>ArmA 3 2020.11.14 - 21.12.09.55.mp4</masterclipid>
												<logginginfo>
													<scene />
													<shottake />
													<lognote />
													<good>FALSE</good>
												</logginginfo>
												<labels>
													<label2 />
												</labels>
												<comments>
													<mastercomment1 />
													<mastercomment2 />
													<mastercomment3 />
													<mastercomment4 />
												</comments>
												<file id="ArmA 3 2020.11.14 - 21.12.09.55" />
												<sourcetrack>
													<mediatype>audio</mediatype>
												</sourcetrack>
											</clipitem>
											<enabled>TRUE</enabled>
											<locked>FALSE</locked>
										</track>
										<track>
											<clipitem id="ArmA 3 2020.11.14 - 21.12.09.55.mp43">
												<name>ArmA 3 2020.11.14 - 21.12.09.55.mp4</name>
												<duration>4968</duration>
												<rate>
													<ntsc>TRUE</ntsc>
													<timebase>24</timebase>
												</rate>
												<in>0</in>
												<out>4968</out>
												<start>0</start>
												<end>4968</end>
												<masterclipid>ArmA 3 2020.11.14 - 21.12.09.55.mp4</masterclipid>
												<logginginfo>
													<scene />
													<shottake />
													<lognote />
													<good>FALSE</good>
												</logginginfo>
												<labels>
													<label2 />
												</labels>
												<comments>
													<mastercomment1 />
													<mastercomment2 />
													<mastercomment3 />
													<mastercomment4 />
												</comments>
												<file id="ArmA 3 2020.11.14 - 21.12.09.55" />
												<sourcetrack>
													<mediatype>audio</mediatype>
												</sourcetrack>
											</clipitem>
											<enabled>TRUE</enabled>
											<locked>FALSE</locked>
										</track>
									</audio>
								</media>
							</clip>
							<clip id="ArmA 3 2020.11.14 - 21.17.09.56.mp4">
								<updatebehavior>add</updatebehavior>
								<name>ArmA 3 2020.11.14 - 21.17.09.56.mp4</name>
								<duration>2046</duration>
								<rate>
									<ntsc>FALSE</ntsc>
									<timebase>60</timebase>
								</rate>
								<in>-1</in>
								<out>-1</out>
								<masterclipid>ArmA 3 2020.11.14 - 21.17.09.56.mp4</masterclipid>
								<ismasterclip>TRUE</ismasterclip>
								<logginginfo>
									<scene />
									<shottake />
									<lognote />
									<good>FALSE</good>
								</logginginfo>
								<labels>
									<label2 />
								</labels>
								<comments>
									<mastercomment1 />
									<mastercomment2 />
									<mastercomment3 />
									<mastercomment4 />
								</comments>
								<media>
									<video>
										<track>
											<clipitem id="ArmA 3 2020.11.14 - 21.17.09.56.mp41">
												<name>ArmA 3 2020.11.14 - 21.17.09.56.mp4</name>
												<duration>2046</duration>
												<rate>
													<ntsc>FALSE</ntsc>
													<timebase>60</timebase>
												</rate>
												<in>0</in>
												<out>2046</out>
												<start>0</start>
												<end>2046</end>
												<pixelaspectratio>Square</pixelaspectratio>
												<anamorphic>FALSE</anamorphic>
												<alphatype>none</alphatype>
												<masterclipid>ArmA 3 2020.11.14 - 21.17.09.56.mp4</masterclipid>
												<logginginfo>
													<scene />
													<shottake />
													<lognote />
													<good>FALSE</good>
												</logginginfo>
												<labels>
													<label2 />
												</labels>
												<comments>
													<mastercomment1 />
													<mastercomment2 />
													<mastercomment3 />
													<mastercomment4 />
												</comments>
												<file id="ArmA 3 2020.11.14 - 21.17.09.56">
													<name>ArmA 3 2020.11.14 - 21.17.09.56.mp4</name>
													<pathurl>file://localhost/F:/AMVS Russia/NaturaDestruction/PRPACK3/ArmA 3 2020.11.14 - 21.17.09.56.mp4</pathurl>
													<rate>
														<timebase>60</timebase>
														<ntsc>FALSE</ntsc>
													</rate>
													<duration>2046</duration>
													<timecode>
														<rate>
															<timebase>60</timebase>
															<ntsc>FALSE</ntsc>
														</rate>
														<frame>0</frame>
														<displayformat>NDF</displayformat>
														<source>source</source>
													</timecode>
													<media>
														<video>
															<duration>2046</duration>
															<samplecharacteristics>
																<width>1920</width>
																<height>1080</height>
															</samplecharacteristics>
														</video>
														<audio>
															<samplecharacteristics>
																<samplerate>48000</samplerate>
																<depth>32</depth>
															</samplecharacteristics>
															<channelcount>1</channelcount>
														</audio>
														<audio>
															<samplecharacteristics>
																<samplerate>48000</samplerate>
																<depth>32</depth>
															</samplecharacteristics>
															<channelcount>1</channelcount>
														</audio>
													</media>
												</file>
												<sourcetrack>
													<mediatype>video</mediatype>
												</sourcetrack>
												<fielddominance>none</fielddominance>
											</clipitem>
											<enabled>TRUE</enabled>
											<locked>FALSE</locked>
										</track>
									</video>
									<audio>
										<track>
											<clipitem id="ArmA 3 2020.11.14 - 21.17.09.56.mp42">
												<name>ArmA 3 2020.11.14 - 21.17.09.56.mp4</name>
												<duration>2046</duration>
												<rate>
													<ntsc>TRUE</ntsc>
													<timebase>24</timebase>
												</rate>
												<in>0</in>
												<out>2046</out>
												<start>0</start>
												<end>2046</end>
												<masterclipid>ArmA 3 2020.11.14 - 21.17.09.56.mp4</masterclipid>
												<logginginfo>
													<scene />
													<shottake />
													<lognote />
													<good>FALSE</good>
												</logginginfo>
												<labels>
													<label2 />
												</labels>
												<comments>
													<mastercomment1 />
													<mastercomment2 />
													<mastercomment3 />
													<mastercomment4 />
												</comments>
												<file id="ArmA 3 2020.11.14 - 21.17.09.56" />
												<sourcetrack>
													<mediatype>audio</mediatype>
												</sourcetrack>
											</clipitem>
											<enabled>TRUE</enabled>
											<locked>FALSE</locked>
										</track>
										<track>
											<clipitem id="ArmA 3 2020.11.14 - 21.17.09.56.mp43">
												<name>ArmA 3 2020.11.14 - 21.17.09.56.mp4</name>
												<duration>2046</duration>
												<rate>
													<ntsc>TRUE</ntsc>
													<timebase>24</timebase>
												</rate>
												<in>0</in>
												<out>2046</out>
												<start>0</start>
												<end>2046</end>
												<masterclipid>ArmA 3 2020.11.14 - 21.17.09.56.mp4</masterclipid>
												<logginginfo>
													<scene />
													<shottake />
													<lognote />
													<good>FALSE</good>
												</logginginfo>
												<labels>
													<label2 />
												</labels>
												<comments>
													<mastercomment1 />
													<mastercomment2 />
													<mastercomment3 />
													<mastercomment4 />
												</comments>
												<file id="ArmA 3 2020.11.14 - 21.17.09.56" />
												<sourcetrack>
													<mediatype>audio</mediatype>
												</sourcetrack>
											</clipitem>
											<enabled>TRUE</enabled>
											<locked>FALSE</locked>
										</track>
									</audio>
								</media>
							</clip>
							<clip id="ArmA 3 2020.11.14 - 21.18.42.57.mp4">
								<updatebehavior>add</updatebehavior>
								<name>ArmA 3 2020.11.14 - 21.18.42.57.mp4</name>
								<duration>648</duration>
								<rate>
									<ntsc>FALSE</ntsc>
									<timebase>60</timebase>
								</rate>
								<in>-1</in>
								<out>-1</out>
								<masterclipid>ArmA 3 2020.11.14 - 21.18.42.57.mp4</masterclipid>
								<ismasterclip>TRUE</ismasterclip>
								<logginginfo>
									<scene />
									<shottake />
									<lognote />
									<good>FALSE</good>
								</logginginfo>
								<labels>
									<label2 />
								</labels>
								<comments>
									<mastercomment1 />
									<mastercomment2 />
									<mastercomment3 />
									<mastercomment4 />
								</comments>
								<media>
									<video>
										<track>
											<clipitem id="ArmA 3 2020.11.14 - 21.18.42.57.mp41">
												<name>ArmA 3 2020.11.14 - 21.18.42.57.mp4</name>
												<duration>648</duration>
												<rate>
													<ntsc>FALSE</ntsc>
													<timebase>60</timebase>
												</rate>
												<in>0</in>
												<out>648</out>
												<start>0</start>
												<end>648</end>
												<pixelaspectratio>Square</pixelaspectratio>
												<anamorphic>FALSE</anamorphic>
												<alphatype>none</alphatype>
												<masterclipid>ArmA 3 2020.11.14 - 21.18.42.57.mp4</masterclipid>
												<logginginfo>
													<scene />
													<shottake />
													<lognote />
													<good>FALSE</good>
												</logginginfo>
												<labels>
													<label2 />
												</labels>
												<comments>
													<mastercomment1 />
													<mastercomment2 />
													<mastercomment3 />
													<mastercomment4 />
												</comments>
												<file id="ArmA 3 2020.11.14 - 21.18.42.57">
													<name>ArmA 3 2020.11.14 - 21.18.42.57.mp4</name>
													<pathurl>file://localhost/F:/AMVS Russia/NaturaDestruction/PRPACK5/ArmA 3 2020.11.14 - 21.18.42.57.mp4</pathurl>
													<rate>
														<timebase>60</timebase>
														<ntsc>FALSE</ntsc>
													</rate>
													<duration>648</duration>
													<timecode>
														<rate>
															<timebase>60</timebase>
															<ntsc>FALSE</ntsc>
														</rate>
														<frame>0</frame>
														<displayformat>NDF</displayformat>
														<source>source</source>
													</timecode>
													<media>
														<video>
															<duration>648</duration>
															<samplecharacteristics>
																<width>1920</width>
																<height>1080</height>
															</samplecharacteristics>
														</video>
														<audio>
															<samplecharacteristics>
																<samplerate>48000</samplerate>
																<depth>32</depth>
															</samplecharacteristics>
															<channelcount>1</channelcount>
														</audio>
														<audio>
															<samplecharacteristics>
																<samplerate>48000</samplerate>
																<depth>32</depth>
															</samplecharacteristics>
															<channelcount>1</channelcount>
														</audio>
													</media>
												</file>
												<sourcetrack>
													<mediatype>video</mediatype>
												</sourcetrack>
												<fielddominance>none</fielddominance>
											</clipitem>
											<enabled>TRUE</enabled>
											<locked>FALSE</locked>
										</track>
									</video>
									<audio>
										<track>
											<clipitem id="ArmA 3 2020.11.14 - 21.18.42.57.mp42">
												<name>ArmA 3 2020.11.14 - 21.18.42.57.mp4</name>
												<duration>648</duration>
												<rate>
													<ntsc>TRUE</ntsc>
													<timebase>24</timebase>
												</rate>
												<in>0</in>
												<out>648</out>
												<start>0</start>
												<end>648</end>
												<masterclipid>ArmA 3 2020.11.14 - 21.18.42.57.mp4</masterclipid>
												<logginginfo>
													<scene />
													<shottake />
													<lognote />
													<good>FALSE</good>
												</logginginfo>
												<labels>
													<label2 />
												</labels>
												<comments>
													<mastercomment1 />
													<mastercomment2 />
													<mastercomment3 />
													<mastercomment4 />
												</comments>
												<file id="ArmA 3 2020.11.14 - 21.18.42.57" />
												<sourcetrack>
													<mediatype>audio</mediatype>
												</sourcetrack>
											</clipitem>
											<enabled>TRUE</enabled>
											<locked>FALSE</locked>
										</track>
										<track>
											<clipitem id="ArmA 3 2020.11.14 - 21.18.42.57.mp43">
												<name>ArmA 3 2020.11.14 - 21.18.42.57.mp4</name>
												<duration>648</duration>
												<rate>
													<ntsc>TRUE</ntsc>
													<timebase>24</timebase>
												</rate>
												<in>0</in>
												<out>648</out>
												<start>0</start>
												<end>648</end>
												<masterclipid>ArmA 3 2020.11.14 - 21.18.42.57.mp4</masterclipid>
												<logginginfo>
													<scene />
													<shottake />
													<lognote />
													<good>FALSE</good>
												</logginginfo>
												<labels>
													<label2 />
												</labels>
												<comments>
													<mastercomment1 />
													<mastercomment2 />
													<mastercomment3 />
													<mastercomment4 />
												</comments>
												<file id="ArmA 3 2020.11.14 - 21.18.42.57" />
												<sourcetrack>
													<mediatype>audio</mediatype>
												</sourcetrack>
											</clipitem>
											<enabled>TRUE</enabled>
											<locked>FALSE</locked>
										</track>
									</audio>
								</media>
							</clip>
							<clip id="ArmA 3 2020.11.14 - 21.19.27.58.mp4">
								<updatebehavior>add</updatebehavior>
								<name>ArmA 3 2020.11.14 - 21.19.27.58.mp4</name>
								<duration>601</duration>
								<rate>
									<ntsc>FALSE</ntsc>
									<timebase>60</timebase>
								</rate>
								<in>-1</in>
								<out>-1</out>
								<masterclipid>ArmA 3 2020.11.14 - 21.19.27.58.mp4</masterclipid>
								<ismasterclip>TRUE</ismasterclip>
								<logginginfo>
									<scene />
									<shottake />
									<lognote />
									<good>FALSE</good>
								</logginginfo>
								<labels>
									<label2 />
								</labels>
								<comments>
									<mastercomment1 />
									<mastercomment2 />
									<mastercomment3 />
									<mastercomment4 />
								</comments>
								<media>
									<video>
										<track>
											<clipitem id="ArmA 3 2020.11.14 - 21.19.27.58.mp41">
												<name>ArmA 3 2020.11.14 - 21.19.27.58.mp4</name>
												<duration>601</duration>
												<rate>
													<ntsc>FALSE</ntsc>
													<timebase>60</timebase>
												</rate>
												<in>0</in>
												<out>601</out>
												<start>0</start>
												<end>601</end>
												<pixelaspectratio>Square</pixelaspectratio>
												<anamorphic>FALSE</anamorphic>
												<alphatype>none</alphatype>
												<masterclipid>ArmA 3 2020.11.14 - 21.19.27.58.mp4</masterclipid>
												<logginginfo>
													<scene />
													<shottake />
													<lognote />
													<good>FALSE</good>
												</logginginfo>
												<labels>
													<label2 />
												</labels>
												<comments>
													<mastercomment1 />
													<mastercomment2 />
													<mastercomment3 />
													<mastercomment4 />
												</comments>
												<file id="ArmA 3 2020.11.14 - 21.19.27.58">
													<name>ArmA 3 2020.11.14 - 21.19.27.58.mp4</name>
													<pathurl>file://localhost/F:/AMVS Russia/NaturaDestruction/PRPACK6/ArmA 3 2020.11.14 - 21.19.27.58.mp4</pathurl>
													<rate>
														<timebase>60</timebase>
														<ntsc>FALSE</ntsc>
													</rate>
													<duration>601</duration>
													<timecode>
														<rate>
															<timebase>60</timebase>
															<ntsc>FALSE</ntsc>
														</rate>
														<frame>0</frame>
														<displayformat>NDF</displayformat>
														<source>source</source>
													</timecode>
													<media>
														<video>
															<duration>601</duration>
															<samplecharacteristics>
																<width>1920</width>
																<height>1080</height>
															</samplecharacteristics>
														</video>
														<audio>
															<samplecharacteristics>
																<samplerate>48000</samplerate>
																<depth>32</depth>
															</samplecharacteristics>
															<channelcount>1</channelcount>
														</audio>
														<audio>
															<samplecharacteristics>
																<samplerate>48000</samplerate>
																<depth>32</depth>
															</samplecharacteristics>
															<channelcount>1</channelcount>
														</audio>
													</media>
												</file>
												<sourcetrack>
													<mediatype>video</mediatype>
												</sourcetrack>
												<fielddominance>none</fielddominance>
											</clipitem>
											<enabled>TRUE</enabled>
											<locked>FALSE</locked>
										</track>
									</video>
									<audio>
										<track>
											<clipitem id="ArmA 3 2020.11.14 - 21.19.27.58.mp42">
												<name>ArmA 3 2020.11.14 - 21.19.27.58.mp4</name>
												<duration>601</duration>
												<rate>
													<ntsc>TRUE</ntsc>
													<timebase>24</timebase>
												</rate>
												<in>0</in>
												<out>601</out>
												<start>0</start>
												<end>601</end>
												<masterclipid>ArmA 3 2020.11.14 - 21.19.27.58.mp4</masterclipid>
												<logginginfo>
													<scene />
													<shottake />
													<lognote />
													<good>FALSE</good>
												</logginginfo>
												<labels>
													<label2 />
												</labels>
												<comments>
													<mastercomment1 />
													<mastercomment2 />
													<mastercomment3 />
													<mastercomment4 />
												</comments>
												<file id="ArmA 3 2020.11.14 - 21.19.27.58" />
												<sourcetrack>
													<mediatype>audio</mediatype>
												</sourcetrack>
											</clipitem>
											<enabled>TRUE</enabled>
											<locked>FALSE</locked>
										</track>
										<track>
											<clipitem id="ArmA 3 2020.11.14 - 21.19.27.58.mp43">
												<name>ArmA 3 2020.11.14 - 21.19.27.58.mp4</name>
												<duration>601</duration>
												<rate>
													<ntsc>TRUE</ntsc>
													<timebase>24</timebase>
												</rate>
												<in>0</in>
												<out>601</out>
												<start>0</start>
												<end>601</end>
												<masterclipid>ArmA 3 2020.11.14 - 21.19.27.58.mp4</masterclipid>
												<logginginfo>
													<scene />
													<shottake />
													<lognote />
													<good>FALSE</good>
												</logginginfo>
												<labels>
													<label2 />
												</labels>
												<comments>
													<mastercomment1 />
													<mastercomment2 />
													<mastercomment3 />
													<mastercomment4 />
												</comments>
												<file id="ArmA 3 2020.11.14 - 21.19.27.58" />
												<sourcetrack>
													<mediatype>audio</mediatype>
												</sourcetrack>
											</clipitem>
											<enabled>TRUE</enabled>
											<locked>FALSE</locked>
										</track>
									</audio>
								</media>
							</clip>
							<clip id="ArmA 3 2020.11.14 - 21.21.59.59.mp4">
								<updatebehavior>add</updatebehavior>
								<name>ArmA 3 2020.11.14 - 21.21.59.59.mp4</name>
								<duration>2221</duration>
								<rate>
									<ntsc>FALSE</ntsc>
									<timebase>60</timebase>
								</rate>
								<in>-1</in>
								<out>-1</out>
								<masterclipid>ArmA 3 2020.11.14 - 21.21.59.59.mp4</masterclipid>
								<ismasterclip>TRUE</ismasterclip>
								<logginginfo>
									<scene />
									<shottake />
									<lognote />
									<good>FALSE</good>
								</logginginfo>
								<labels>
									<label2 />
								</labels>
								<comments>
									<mastercomment1 />
									<mastercomment2 />
									<mastercomment3 />
									<mastercomment4 />
								</comments>
								<media>
									<video>
										<track>
											<clipitem id="ArmA 3 2020.11.14 - 21.21.59.59.mp41">
												<name>ArmA 3 2020.11.14 - 21.21.59.59.mp4</name>
												<duration>2221</duration>
												<rate>
													<ntsc>FALSE</ntsc>
													<timebase>60</timebase>
												</rate>
												<in>0</in>
												<out>2221</out>
												<start>0</start>
												<end>2221</end>
												<pixelaspectratio>Square</pixelaspectratio>
												<anamorphic>FALSE</anamorphic>
												<alphatype>none</alphatype>
												<masterclipid>ArmA 3 2020.11.14 - 21.21.59.59.mp4</masterclipid>
												<logginginfo>
													<scene />
													<shottake />
													<lognote />
													<good>FALSE</good>
												</logginginfo>
												<labels>
													<label2 />
												</labels>
												<comments>
													<mastercomment1 />
													<mastercomment2 />
													<mastercomment3 />
													<mastercomment4 />
												</comments>
												<file id="ArmA 3 2020.11.14 - 21.21.59.59">
													<name>ArmA 3 2020.11.14 - 21.21.59.59.mp4</name>
													<pathurl>file://localhost/F:/AMVS Russia/NaturaDestruction/PRPACK3/ArmA 3 2020.11.14 - 21.21.59.59.mp4</pathurl>
													<rate>
														<timebase>60</timebase>
														<ntsc>FALSE</ntsc>
													</rate>
													<duration>2221</duration>
													<timecode>
														<rate>
															<timebase>60</timebase>
															<ntsc>FALSE</ntsc>
														</rate>
														<frame>0</frame>
														<displayformat>NDF</displayformat>
														<source>source</source>
													</timecode>
													<media>
														<video>
															<duration>2221</duration>
															<samplecharacteristics>
																<width>1920</width>
																<height>1080</height>
															</samplecharacteristics>
														</video>
														<audio>
															<samplecharacteristics>
																<samplerate>48000</samplerate>
																<depth>32</depth>
															</samplecharacteristics>
															<channelcount>1</channelcount>
														</audio>
														<audio>
															<samplecharacteristics>
																<samplerate>48000</samplerate>
																<depth>32</depth>
															</samplecharacteristics>
															<channelcount>1</channelcount>
														</audio>
													</media>
												</file>
												<sourcetrack>
													<mediatype>video</mediatype>
												</sourcetrack>
												<fielddominance>none</fielddominance>
											</clipitem>
											<enabled>TRUE</enabled>
											<locked>FALSE</locked>
										</track>
									</video>
									<audio>
										<track>
											<clipitem id="ArmA 3 2020.11.14 - 21.21.59.59.mp42">
												<name>ArmA 3 2020.11.14 - 21.21.59.59.mp4</name>
												<duration>2221</duration>
												<rate>
													<ntsc>TRUE</ntsc>
													<timebase>24</timebase>
												</rate>
												<in>0</in>
												<out>2221</out>
												<start>0</start>
												<end>2221</end>
												<masterclipid>ArmA 3 2020.11.14 - 21.21.59.59.mp4</masterclipid>
												<logginginfo>
													<scene />
													<shottake />
													<lognote />
													<good>FALSE</good>
												</logginginfo>
												<labels>
													<label2 />
												</labels>
												<comments>
													<mastercomment1 />
													<mastercomment2 />
													<mastercomment3 />
													<mastercomment4 />
												</comments>
												<file id="ArmA 3 2020.11.14 - 21.21.59.59" />
												<sourcetrack>
													<mediatype>audio</mediatype>
												</sourcetrack>
											</clipitem>
											<enabled>TRUE</enabled>
											<locked>FALSE</locked>
										</track>
										<track>
											<clipitem id="ArmA 3 2020.11.14 - 21.21.59.59.mp43">
												<name>ArmA 3 2020.11.14 - 21.21.59.59.mp4</name>
												<duration>2221</duration>
												<rate>
													<ntsc>TRUE</ntsc>
													<timebase>24</timebase>
												</rate>
												<in>0</in>
												<out>2221</out>
												<start>0</start>
												<end>2221</end>
												<masterclipid>ArmA 3 2020.11.14 - 21.21.59.59.mp4</masterclipid>
												<logginginfo>
													<scene />
													<shottake />
													<lognote />
													<good>FALSE</good>
												</logginginfo>
												<labels>
													<label2 />
												</labels>
												<comments>
													<mastercomment1 />
													<mastercomment2 />
													<mastercomment3 />
													<mastercomment4 />
												</comments>
												<file id="ArmA 3 2020.11.14 - 21.21.59.59" />
												<sourcetrack>
													<mediatype>audio</mediatype>
												</sourcetrack>
											</clipitem>
											<enabled>TRUE</enabled>
											<locked>FALSE</locked>
										</track>
									</audio>
								</media>
							</clip>
							<clip id="ArmA 3 2020.11.14 - 21.24.02.60.mp4">
								<updatebehavior>add</updatebehavior>
								<name>ArmA 3 2020.11.14 - 21.24.02.60.mp4</name>
								<duration>905</duration>
								<rate>
									<ntsc>FALSE</ntsc>
									<timebase>60</timebase>
								</rate>
								<in>-1</in>
								<out>-1</out>
								<masterclipid>ArmA 3 2020.11.14 - 21.24.02.60.mp4</masterclipid>
								<ismasterclip>TRUE</ismasterclip>
								<logginginfo>
									<scene />
									<shottake />
									<lognote />
									<good>FALSE</good>
								</logginginfo>
								<labels>
									<label2 />
								</labels>
								<comments>
									<mastercomment1 />
									<mastercomment2 />
									<mastercomment3 />
									<mastercomment4 />
								</comments>
								<media>
									<video>
										<track>
											<clipitem id="ArmA 3 2020.11.14 - 21.24.02.60.mp41">
												<name>ArmA 3 2020.11.14 - 21.24.02.60.mp4</name>
												<duration>905</duration>
												<rate>
													<ntsc>FALSE</ntsc>
													<timebase>60</timebase>
												</rate>
												<in>0</in>
												<out>905</out>
												<start>0</start>
												<end>905</end>
												<pixelaspectratio>Square</pixelaspectratio>
												<anamorphic>FALSE</anamorphic>
												<alphatype>none</alphatype>
												<masterclipid>ArmA 3 2020.11.14 - 21.24.02.60.mp4</masterclipid>
												<logginginfo>
													<scene />
													<shottake />
													<lognote />
													<good>FALSE</good>
												</logginginfo>
												<labels>
													<label2 />
												</labels>
												<comments>
													<mastercomment1 />
													<mastercomment2 />
													<mastercomment3 />
													<mastercomment4 />
												</comments>
												<file id="ArmA 3 2020.11.14 - 21.24.02.60">
													<name>ArmA 3 2020.11.14 - 21.24.02.60.mp4</name>
													<pathurl>file://localhost/F:/AMVS Russia/NaturaDestruction/PRPACK4/ArmA 3 2020.11.14 - 21.24.02.60.mp4</pathurl>
													<rate>
														<timebase>60</timebase>
														<ntsc>FALSE</ntsc>
													</rate>
													<duration>905</duration>
													<timecode>
														<rate>
															<timebase>60</timebase>
															<ntsc>FALSE</ntsc>
														</rate>
														<frame>0</frame>
														<displayformat>NDF</displayformat>
														<source>source</source>
													</timecode>
													<media>
														<video>
															<duration>905</duration>
															<samplecharacteristics>
																<width>1920</width>
																<height>1080</height>
															</samplecharacteristics>
														</video>
														<audio>
															<samplecharacteristics>
																<samplerate>48000</samplerate>
																<depth>32</depth>
															</samplecharacteristics>
															<channelcount>1</channelcount>
														</audio>
														<audio>
															<samplecharacteristics>
																<samplerate>48000</samplerate>
																<depth>32</depth>
															</samplecharacteristics>
															<channelcount>1</channelcount>
														</audio>
													</media>
												</file>
												<sourcetrack>
													<mediatype>video</mediatype>
												</sourcetrack>
												<fielddominance>none</fielddominance>
											</clipitem>
											<enabled>TRUE</enabled>
											<locked>FALSE</locked>
										</track>
									</video>
									<audio>
										<track>
											<clipitem id="ArmA 3 2020.11.14 - 21.24.02.60.mp42">
												<name>ArmA 3 2020.11.14 - 21.24.02.60.mp4</name>
												<duration>905</duration>
												<rate>
													<ntsc>TRUE</ntsc>
													<timebase>24</timebase>
												</rate>
												<in>0</in>
												<out>905</out>
												<start>0</start>
												<end>905</end>
												<masterclipid>ArmA 3 2020.11.14 - 21.24.02.60.mp4</masterclipid>
												<logginginfo>
													<scene />
													<shottake />
													<lognote />
													<good>FALSE</good>
												</logginginfo>
												<labels>
													<label2 />
												</labels>
												<comments>
													<mastercomment1 />
													<mastercomment2 />
													<mastercomment3 />
													<mastercomment4 />
												</comments>
												<file id="ArmA 3 2020.11.14 - 21.24.02.60" />
												<sourcetrack>
													<mediatype>audio</mediatype>
												</sourcetrack>
											</clipitem>
											<enabled>TRUE</enabled>
											<locked>FALSE</locked>
										</track>
										<track>
											<clipitem id="ArmA 3 2020.11.14 - 21.24.02.60.mp43">
												<name>ArmA 3 2020.11.14 - 21.24.02.60.mp4</name>
												<duration>905</duration>
												<rate>
													<ntsc>TRUE</ntsc>
													<timebase>24</timebase>
												</rate>
												<in>0</in>
												<out>905</out>
												<start>0</start>
												<end>905</end>
												<masterclipid>ArmA 3 2020.11.14 - 21.24.02.60.mp4</masterclipid>
												<logginginfo>
													<scene />
													<shottake />
													<lognote />
													<good>FALSE</good>
												</logginginfo>
												<labels>
													<label2 />
												</labels>
												<comments>
													<mastercomment1 />
													<mastercomment2 />
													<mastercomment3 />
													<mastercomment4 />
												</comments>
												<file id="ArmA 3 2020.11.14 - 21.24.02.60" />
												<sourcetrack>
													<mediatype>audio</mediatype>
												</sourcetrack>
											</clipitem>
											<enabled>TRUE</enabled>
											<locked>FALSE</locked>
										</track>
									</audio>
								</media>
							</clip>
							<clip id="ArmA 3 2020.11.14 - 21.25.23.61.mp4">
								<updatebehavior>add</updatebehavior>
								<name>ArmA 3 2020.11.14 - 21.25.23.61.mp4</name>
								<duration>1117</duration>
								<rate>
									<ntsc>FALSE</ntsc>
									<timebase>60</timebase>
								</rate>
								<in>-1</in>
								<out>-1</out>
								<masterclipid>ArmA 3 2020.11.14 - 21.25.23.61.mp4</masterclipid>
								<ismasterclip>TRUE</ismasterclip>
								<logginginfo>
									<scene />
									<shottake />
									<lognote />
									<good>FALSE</good>
								</logginginfo>
								<labels>
									<label2 />
								</labels>
								<comments>
									<mastercomment1 />
									<mastercomment2 />
									<mastercomment3 />
									<mastercomment4 />
								</comments>
								<media>
									<video>
										<track>
											<clipitem id="ArmA 3 2020.11.14 - 21.25.23.61.mp41">
												<name>ArmA 3 2020.11.14 - 21.25.23.61.mp4</name>
												<duration>1117</duration>
												<rate>
													<ntsc>FALSE</ntsc>
													<timebase>60</timebase>
												</rate>
												<in>0</in>
												<out>1117</out>
												<start>0</start>
												<end>1117</end>
												<pixelaspectratio>Square</pixelaspectratio>
												<anamorphic>FALSE</anamorphic>
												<alphatype>none</alphatype>
												<masterclipid>ArmA 3 2020.11.14 - 21.25.23.61.mp4</masterclipid>
												<logginginfo>
													<scene />
													<shottake />
													<lognote />
													<good>FALSE</good>
												</logginginfo>
												<labels>
													<label2 />
												</labels>
												<comments>
													<mastercomment1 />
													<mastercomment2 />
													<mastercomment3 />
													<mastercomment4 />
												</comments>
												<file id="ArmA 3 2020.11.14 - 21.25.23.61">
													<name>ArmA 3 2020.11.14 - 21.25.23.61.mp4</name>
													<pathurl>file://localhost/F:/AMVS Russia/NaturaDestruction/PRPACK4/ArmA 3 2020.11.14 - 21.25.23.61.mp4</pathurl>
													<rate>
														<timebase>60</timebase>
														<ntsc>FALSE</ntsc>
													</rate>
													<duration>1117</duration>
													<timecode>
														<rate>
															<timebase>60</timebase>
															<ntsc>FALSE</ntsc>
														</rate>
														<frame>0</frame>
														<displayformat>NDF</displayformat>
														<source>source</source>
													</timecode>
													<media>
														<video>
															<duration>1117</duration>
															<samplecharacteristics>
																<width>1920</width>
																<height>1080</height>
															</samplecharacteristics>
														</video>
														<audio>
															<samplecharacteristics>
																<samplerate>48000</samplerate>
																<depth>32</depth>
															</samplecharacteristics>
															<channelcount>1</channelcount>
														</audio>
														<audio>
															<samplecharacteristics>
																<samplerate>48000</samplerate>
																<depth>32</depth>
															</samplecharacteristics>
															<channelcount>1</channelcount>
														</audio>
													</media>
												</file>
												<sourcetrack>
													<mediatype>video</mediatype>
												</sourcetrack>
												<fielddominance>none</fielddominance>
											</clipitem>
											<enabled>TRUE</enabled>
											<locked>FALSE</locked>
										</track>
									</video>
									<audio>
										<track>
											<clipitem id="ArmA 3 2020.11.14 - 21.25.23.61.mp42">
												<name>ArmA 3 2020.11.14 - 21.25.23.61.mp4</name>
												<duration>1117</duration>
												<rate>
													<ntsc>TRUE</ntsc>
													<timebase>24</timebase>
												</rate>
												<in>0</in>
												<out>1117</out>
												<start>0</start>
												<end>1117</end>
												<masterclipid>ArmA 3 2020.11.14 - 21.25.23.61.mp4</masterclipid>
												<logginginfo>
													<scene />
													<shottake />
													<lognote />
													<good>FALSE</good>
												</logginginfo>
												<labels>
													<label2 />
												</labels>
												<comments>
													<mastercomment1 />
													<mastercomment2 />
													<mastercomment3 />
													<mastercomment4 />
												</comments>
												<file id="ArmA 3 2020.11.14 - 21.25.23.61" />
												<sourcetrack>
													<mediatype>audio</mediatype>
												</sourcetrack>
											</clipitem>
											<enabled>TRUE</enabled>
											<locked>FALSE</locked>
										</track>
										<track>
											<clipitem id="ArmA 3 2020.11.14 - 21.25.23.61.mp43">
												<name>ArmA 3 2020.11.14 - 21.25.23.61.mp4</name>
												<duration>1117</duration>
												<rate>
													<ntsc>TRUE</ntsc>
													<timebase>24</timebase>
												</rate>
												<in>0</in>
												<out>1117</out>
												<start>0</start>
												<end>1117</end>
												<masterclipid>ArmA 3 2020.11.14 - 21.25.23.61.mp4</masterclipid>
												<logginginfo>
													<scene />
													<shottake />
													<lognote />
													<good>FALSE</good>
												</logginginfo>
												<labels>
													<label2 />
												</labels>
												<comments>
													<mastercomment1 />
													<mastercomment2 />
													<mastercomment3 />
													<mastercomment4 />
												</comments>
												<file id="ArmA 3 2020.11.14 - 21.25.23.61" />
												<sourcetrack>
													<mediatype>audio</mediatype>
												</sourcetrack>
											</clipitem>
											<enabled>TRUE</enabled>
											<locked>FALSE</locked>
										</track>
									</audio>
								</media>
							</clip>
							<clip id="ArmA 3 2020.11.14 - 21.26.46.62.mp4">
								<updatebehavior>add</updatebehavior>
								<name>ArmA 3 2020.11.14 - 21.26.46.62.mp4</name>
								<duration>1358</duration>
								<rate>
									<ntsc>FALSE</ntsc>
									<timebase>60</timebase>
								</rate>
								<in>-1</in>
								<out>-1</out>
								<masterclipid>ArmA 3 2020.11.14 - 21.26.46.62.mp4</masterclipid>
								<ismasterclip>TRUE</ismasterclip>
								<logginginfo>
									<scene />
									<shottake />
									<lognote />
									<good>FALSE</good>
								</logginginfo>
								<labels>
									<label2 />
								</labels>
								<comments>
									<mastercomment1 />
									<mastercomment2 />
									<mastercomment3 />
									<mastercomment4 />
								</comments>
								<media>
									<video>
										<track>
											<clipitem id="ArmA 3 2020.11.14 - 21.26.46.62.mp41">
												<name>ArmA 3 2020.11.14 - 21.26.46.62.mp4</name>
												<duration>1358</duration>
												<rate>
													<ntsc>FALSE</ntsc>
													<timebase>60</timebase>
												</rate>
												<in>0</in>
												<out>1358</out>
												<start>0</start>
												<end>1358</end>
												<pixelaspectratio>Square</pixelaspectratio>
												<anamorphic>FALSE</anamorphic>
												<alphatype>none</alphatype>
												<masterclipid>ArmA 3 2020.11.14 - 21.26.46.62.mp4</masterclipid>
												<logginginfo>
													<scene />
													<shottake />
													<lognote />
													<good>FALSE</good>
												</logginginfo>
												<labels>
													<label2 />
												</labels>
												<comments>
													<mastercomment1 />
													<mastercomment2 />
													<mastercomment3 />
													<mastercomment4 />
												</comments>
												<file id="ArmA 3 2020.11.14 - 21.26.46.62">
													<name>ArmA 3 2020.11.14 - 21.26.46.62.mp4</name>
													<pathurl>file://localhost/F:/AMVS Russia/NaturaDestruction/PRPACK3/ArmA 3 2020.11.14 - 21.26.46.62.mp4</pathurl>
													<rate>
														<timebase>60</timebase>
														<ntsc>FALSE</ntsc>
													</rate>
													<duration>1358</duration>
													<timecode>
														<rate>
															<timebase>60</timebase>
															<ntsc>FALSE</ntsc>
														</rate>
														<frame>0</frame>
														<displayformat>NDF</displayformat>
														<source>source</source>
													</timecode>
													<media>
														<video>
															<duration>1358</duration>
															<samplecharacteristics>
																<width>1920</width>
																<height>1080</height>
															</samplecharacteristics>
														</video>
														<audio>
															<samplecharacteristics>
																<samplerate>48000</samplerate>
																<depth>32</depth>
															</samplecharacteristics>
															<channelcount>1</channelcount>
														</audio>
														<audio>
															<samplecharacteristics>
																<samplerate>48000</samplerate>
																<depth>32</depth>
															</samplecharacteristics>
															<channelcount>1</channelcount>
														</audio>
													</media>
												</file>
												<sourcetrack>
													<mediatype>video</mediatype>
												</sourcetrack>
												<fielddominance>none</fielddominance>
											</clipitem>
											<enabled>TRUE</enabled>
											<locked>FALSE</locked>
										</track>
									</video>
									<audio>
										<track>
											<clipitem id="ArmA 3 2020.11.14 - 21.26.46.62.mp42">
												<name>ArmA 3 2020.11.14 - 21.26.46.62.mp4</name>
												<duration>1358</duration>
												<rate>
													<ntsc>TRUE</ntsc>
													<timebase>24</timebase>
												</rate>
												<in>0</in>
												<out>1358</out>
												<start>0</start>
												<end>1358</end>
												<masterclipid>ArmA 3 2020.11.14 - 21.26.46.62.mp4</masterclipid>
												<logginginfo>
													<scene />
													<shottake />
													<lognote />
													<good>FALSE</good>
												</logginginfo>
												<labels>
													<label2 />
												</labels>
												<comments>
													<mastercomment1 />
													<mastercomment2 />
													<mastercomment3 />
													<mastercomment4 />
												</comments>
												<file id="ArmA 3 2020.11.14 - 21.26.46.62" />
												<sourcetrack>
													<mediatype>audio</mediatype>
												</sourcetrack>
											</clipitem>
											<enabled>TRUE</enabled>
											<locked>FALSE</locked>
										</track>
										<track>
											<clipitem id="ArmA 3 2020.11.14 - 21.26.46.62.mp43">
												<name>ArmA 3 2020.11.14 - 21.26.46.62.mp4</name>
												<duration>1358</duration>
												<rate>
													<ntsc>TRUE</ntsc>
													<timebase>24</timebase>
												</rate>
												<in>0</in>
												<out>1358</out>
												<start>0</start>
												<end>1358</end>
												<masterclipid>ArmA 3 2020.11.14 - 21.26.46.62.mp4</masterclipid>
												<logginginfo>
													<scene />
													<shottake />
													<lognote />
													<good>FALSE</good>
												</logginginfo>
												<labels>
													<label2 />
												</labels>
												<comments>
													<mastercomment1 />
													<mastercomment2 />
													<mastercomment3 />
													<mastercomment4 />
												</comments>
												<file id="ArmA 3 2020.11.14 - 21.26.46.62" />
												<sourcetrack>
													<mediatype>audio</mediatype>
												</sourcetrack>
											</clipitem>
											<enabled>TRUE</enabled>
											<locked>FALSE</locked>
										</track>
									</audio>
								</media>
							</clip>
							<clip id="ArmA 3 2020.11.14 - 21.28.34.63.mp4">
								<updatebehavior>add</updatebehavior>
								<name>ArmA 3 2020.11.14 - 21.28.34.63.mp4</name>
								<duration>1117</duration>
								<rate>
									<ntsc>FALSE</ntsc>
									<timebase>60</timebase>
								</rate>
								<in>-1</in>
								<out>-1</out>
								<masterclipid>ArmA 3 2020.11.14 - 21.28.34.63.mp4</masterclipid>
								<ismasterclip>TRUE</ismasterclip>
								<logginginfo>
									<scene />
									<shottake />
									<lognote />
									<good>FALSE</good>
								</logginginfo>
								<labels>
									<label2 />
								</labels>
								<comments>
									<mastercomment1 />
									<mastercomment2 />
									<mastercomment3 />
									<mastercomment4 />
								</comments>
								<media>
									<video>
										<track>
											<clipitem id="ArmA 3 2020.11.14 - 21.28.34.63.mp41">
												<name>ArmA 3 2020.11.14 - 21.28.34.63.mp4</name>
												<duration>1117</duration>
												<rate>
													<ntsc>FALSE</ntsc>
													<timebase>60</timebase>
												</rate>
												<in>0</in>
												<out>1117</out>
												<start>0</start>
												<end>1117</end>
												<pixelaspectratio>Square</pixelaspectratio>
												<anamorphic>FALSE</anamorphic>
												<alphatype>none</alphatype>
												<masterclipid>ArmA 3 2020.11.14 - 21.28.34.63.mp4</masterclipid>
												<logginginfo>
													<scene />
													<shottake />
													<lognote />
													<good>FALSE</good>
												</logginginfo>
												<labels>
													<label2 />
												</labels>
												<comments>
													<mastercomment1 />
													<mastercomment2 />
													<mastercomment3 />
													<mastercomment4 />
												</comments>
												<file id="ArmA 3 2020.11.14 - 21.28.34.63">
													<name>ArmA 3 2020.11.14 - 21.28.34.63.mp4</name>
													<pathurl>file://localhost/F:/AMVS Russia/NaturaDestruction/PRPACK5/ArmA 3 2020.11.14 - 21.28.34.63.mp4</pathurl>
													<rate>
														<timebase>60</timebase>
														<ntsc>FALSE</ntsc>
													</rate>
													<duration>1117</duration>
													<timecode>
														<rate>
															<timebase>60</timebase>
															<ntsc>FALSE</ntsc>
														</rate>
														<frame>0</frame>
														<displayformat>NDF</displayformat>
														<source>source</source>
													</timecode>
													<media>
														<video>
															<duration>1117</duration>
															<samplecharacteristics>
																<width>1920</width>
																<height>1080</height>
															</samplecharacteristics>
														</video>
														<audio>
															<samplecharacteristics>
																<samplerate>48000</samplerate>
																<depth>32</depth>
															</samplecharacteristics>
															<channelcount>1</channelcount>
														</audio>
														<audio>
															<samplecharacteristics>
																<samplerate>48000</samplerate>
																<depth>32</depth>
															</samplecharacteristics>
															<channelcount>1</channelcount>
														</audio>
													</media>
												</file>
												<sourcetrack>
													<mediatype>video</mediatype>
												</sourcetrack>
												<fielddominance>none</fielddominance>
											</clipitem>
											<enabled>TRUE</enabled>
											<locked>FALSE</locked>
										</track>
									</video>
									<audio>
										<track>
											<clipitem id="ArmA 3 2020.11.14 - 21.28.34.63.mp42">
												<name>ArmA 3 2020.11.14 - 21.28.34.63.mp4</name>
												<duration>1117</duration>
												<rate>
													<ntsc>TRUE</ntsc>
													<timebase>24</timebase>
												</rate>
												<in>0</in>
												<out>1117</out>
												<start>0</start>
												<end>1117</end>
												<masterclipid>ArmA 3 2020.11.14 - 21.28.34.63.mp4</masterclipid>
												<logginginfo>
													<scene />
													<shottake />
													<lognote />
													<good>FALSE</good>
												</logginginfo>
												<labels>
													<label2 />
												</labels>
												<comments>
													<mastercomment1 />
													<mastercomment2 />
													<mastercomment3 />
													<mastercomment4 />
												</comments>
												<file id="ArmA 3 2020.11.14 - 21.28.34.63" />
												<sourcetrack>
													<mediatype>audio</mediatype>
												</sourcetrack>
											</clipitem>
											<enabled>TRUE</enabled>
											<locked>FALSE</locked>
										</track>
										<track>
											<clipitem id="ArmA 3 2020.11.14 - 21.28.34.63.mp43">
												<name>ArmA 3 2020.11.14 - 21.28.34.63.mp4</name>
												<duration>1117</duration>
												<rate>
													<ntsc>TRUE</ntsc>
													<timebase>24</timebase>
												</rate>
												<in>0</in>
												<out>1117</out>
												<start>0</start>
												<end>1117</end>
												<masterclipid>ArmA 3 2020.11.14 - 21.28.34.63.mp4</masterclipid>
												<logginginfo>
													<scene />
													<shottake />
													<lognote />
													<good>FALSE</good>
												</logginginfo>
												<labels>
													<label2 />
												</labels>
												<comments>
													<mastercomment1 />
													<mastercomment2 />
													<mastercomment3 />
													<mastercomment4 />
												</comments>
												<file id="ArmA 3 2020.11.14 - 21.28.34.63" />
												<sourcetrack>
													<mediatype>audio</mediatype>
												</sourcetrack>
											</clipitem>
											<enabled>TRUE</enabled>
											<locked>FALSE</locked>
										</track>
									</audio>
								</media>
							</clip>
							<clip id="ArmA 3 2020.11.14 - 21.29.57.64.mp4">
								<updatebehavior>add</updatebehavior>
								<name>ArmA 3 2020.11.14 - 21.29.57.64.mp4</name>
								<duration>3146</duration>
								<rate>
									<ntsc>FALSE</ntsc>
									<timebase>60</timebase>
								</rate>
								<in>-1</in>
								<out>-1</out>
								<masterclipid>ArmA 3 2020.11.14 - 21.29.57.64.mp4</masterclipid>
								<ismasterclip>TRUE</ismasterclip>
								<logginginfo>
									<scene />
									<shottake />
									<lognote />
									<good>FALSE</good>
								</logginginfo>
								<labels>
									<label2 />
								</labels>
								<comments>
									<mastercomment1 />
									<mastercomment2 />
									<mastercomment3 />
									<mastercomment4 />
								</comments>
								<media>
									<video>
										<track>
											<clipitem id="ArmA 3 2020.11.14 - 21.29.57.64.mp41">
												<name>ArmA 3 2020.11.14 - 21.29.57.64.mp4</name>
												<duration>3146</duration>
												<rate>
													<ntsc>FALSE</ntsc>
													<timebase>60</timebase>
												</rate>
												<in>0</in>
												<out>3146</out>
												<start>0</start>
												<end>3146</end>
												<pixelaspectratio>Square</pixelaspectratio>
												<anamorphic>FALSE</anamorphic>
												<alphatype>none</alphatype>
												<masterclipid>ArmA 3 2020.11.14 - 21.29.57.64.mp4</masterclipid>
												<logginginfo>
													<scene />
													<shottake />
													<lognote />
													<good>FALSE</good>
												</logginginfo>
												<labels>
													<label2 />
												</labels>
												<comments>
													<mastercomment1 />
													<mastercomment2 />
													<mastercomment3 />
													<mastercomment4 />
												</comments>
												<file id="ArmA 3 2020.11.14 - 21.29.57.64">
													<name>ArmA 3 2020.11.14 - 21.29.57.64.mp4</name>
													<pathurl>file://localhost/F:/AMVS Russia/NaturaDestruction/PRPACK2/ArmA 3 2020.11.14 - 21.29.57.64.mp4</pathurl>
													<rate>
														<timebase>60</timebase>
														<ntsc>FALSE</ntsc>
													</rate>
													<duration>3146</duration>
													<timecode>
														<rate>
															<timebase>60</timebase>
															<ntsc>FALSE</ntsc>
														</rate>
														<frame>0</frame>
														<displayformat>NDF</displayformat>
														<source>source</source>
													</timecode>
													<media>
														<video>
															<duration>3146</duration>
															<samplecharacteristics>
																<width>1920</width>
																<height>1080</height>
															</samplecharacteristics>
														</video>
														<audio>
															<samplecharacteristics>
																<samplerate>48000</samplerate>
																<depth>32</depth>
															</samplecharacteristics>
															<channelcount>1</channelcount>
														</audio>
														<audio>
															<samplecharacteristics>
																<samplerate>48000</samplerate>
																<depth>32</depth>
															</samplecharacteristics>
															<channelcount>1</channelcount>
														</audio>
													</media>
												</file>
												<sourcetrack>
													<mediatype>video</mediatype>
												</sourcetrack>
												<fielddominance>none</fielddominance>
											</clipitem>
											<enabled>TRUE</enabled>
											<locked>FALSE</locked>
										</track>
									</video>
									<audio>
										<track>
											<clipitem id="ArmA 3 2020.11.14 - 21.29.57.64.mp42">
												<name>ArmA 3 2020.11.14 - 21.29.57.64.mp4</name>
												<duration>3142</duration>
												<rate>
													<ntsc>TRUE</ntsc>
													<timebase>24</timebase>
												</rate>
												<in>0</in>
												<out>3142</out>
												<start>0</start>
												<end>3142</end>
												<masterclipid>ArmA 3 2020.11.14 - 21.29.57.64.mp4</masterclipid>
												<logginginfo>
													<scene />
													<shottake />
													<lognote />
													<good>FALSE</good>
												</logginginfo>
												<labels>
													<label2 />
												</labels>
												<comments>
													<mastercomment1 />
													<mastercomment2 />
													<mastercomment3 />
													<mastercomment4 />
												</comments>
												<file id="ArmA 3 2020.11.14 - 21.29.57.64" />
												<sourcetrack>
													<mediatype>audio</mediatype>
												</sourcetrack>
											</clipitem>
											<enabled>TRUE</enabled>
											<locked>FALSE</locked>
										</track>
										<track>
											<clipitem id="ArmA 3 2020.11.14 - 21.29.57.64.mp43">
												<name>ArmA 3 2020.11.14 - 21.29.57.64.mp4</name>
												<duration>3142</duration>
												<rate>
													<ntsc>TRUE</ntsc>
													<timebase>24</timebase>
												</rate>
												<in>0</in>
												<out>3142</out>
												<start>0</start>
												<end>3142</end>
												<masterclipid>ArmA 3 2020.11.14 - 21.29.57.64.mp4</masterclipid>
												<logginginfo>
													<scene />
													<shottake />
													<lognote />
													<good>FALSE</good>
												</logginginfo>
												<labels>
													<label2 />
												</labels>
												<comments>
													<mastercomment1 />
													<mastercomment2 />
													<mastercomment3 />
													<mastercomment4 />
												</comments>
												<file id="ArmA 3 2020.11.14 - 21.29.57.64" />
												<sourcetrack>
													<mediatype>audio</mediatype>
												</sourcetrack>
											</clipitem>
											<enabled>TRUE</enabled>
											<locked>FALSE</locked>
										</track>
									</audio>
								</media>
							</clip>
							<clip id="ArmA 3 2020.11.14 - 21.32.55.65.mp4">
								<updatebehavior>add</updatebehavior>
								<name>ArmA 3 2020.11.14 - 21.32.55.65.mp4</name>
								<duration>662</duration>
								<rate>
									<ntsc>FALSE</ntsc>
									<timebase>60</timebase>
								</rate>
								<in>-1</in>
								<out>-1</out>
								<masterclipid>ArmA 3 2020.11.14 - 21.32.55.65.mp4</masterclipid>
								<ismasterclip>TRUE</ismasterclip>
								<logginginfo>
									<scene />
									<shottake />
									<lognote />
									<good>FALSE</good>
								</logginginfo>
								<labels>
									<label2 />
								</labels>
								<comments>
									<mastercomment1 />
									<mastercomment2 />
									<mastercomment3 />
									<mastercomment4 />
								</comments>
								<media>
									<video>
										<track>
											<clipitem id="ArmA 3 2020.11.14 - 21.32.55.65.mp41">
												<name>ArmA 3 2020.11.14 - 21.32.55.65.mp4</name>
												<duration>662</duration>
												<rate>
													<ntsc>FALSE</ntsc>
													<timebase>60</timebase>
												</rate>
												<in>0</in>
												<out>662</out>
												<start>0</start>
												<end>662</end>
												<pixelaspectratio>Square</pixelaspectratio>
												<anamorphic>FALSE</anamorphic>
												<alphatype>none</alphatype>
												<masterclipid>ArmA 3 2020.11.14 - 21.32.55.65.mp4</masterclipid>
												<logginginfo>
													<scene />
													<shottake />
													<lognote />
													<good>FALSE</good>
												</logginginfo>
												<labels>
													<label2 />
												</labels>
												<comments>
													<mastercomment1 />
													<mastercomment2 />
													<mastercomment3 />
													<mastercomment4 />
												</comments>
												<file id="ArmA 3 2020.11.14 - 21.32.55.65">
													<name>ArmA 3 2020.11.14 - 21.32.55.65.mp4</name>
													<pathurl>file://localhost/F:/AMVS Russia/NaturaDestruction/PRPACK5/ArmA 3 2020.11.14 - 21.32.55.65.mp4</pathurl>
													<rate>
														<timebase>60</timebase>
														<ntsc>FALSE</ntsc>
													</rate>
													<duration>662</duration>
													<timecode>
														<rate>
															<timebase>60</timebase>
															<ntsc>FALSE</ntsc>
														</rate>
														<frame>0</frame>
														<displayformat>NDF</displayformat>
														<source>source</source>
													</timecode>
													<media>
														<video>
															<duration>662</duration>
															<samplecharacteristics>
																<width>1920</width>
																<height>1080</height>
															</samplecharacteristics>
														</video>
														<audio>
															<samplecharacteristics>
																<samplerate>48000</samplerate>
																<depth>32</depth>
															</samplecharacteristics>
															<channelcount>1</channelcount>
														</audio>
														<audio>
															<samplecharacteristics>
																<samplerate>48000</samplerate>
																<depth>32</depth>
															</samplecharacteristics>
															<channelcount>1</channelcount>
														</audio>
													</media>
												</file>
												<sourcetrack>
													<mediatype>video</mediatype>
												</sourcetrack>
												<fielddominance>none</fielddominance>
											</clipitem>
											<enabled>TRUE</enabled>
											<locked>FALSE</locked>
										</track>
									</video>
									<audio>
										<track>
											<clipitem id="ArmA 3 2020.11.14 - 21.32.55.65.mp42">
												<name>ArmA 3 2020.11.14 - 21.32.55.65.mp4</name>
												<duration>662</duration>
												<rate>
													<ntsc>TRUE</ntsc>
													<timebase>24</timebase>
												</rate>
												<in>0</in>
												<out>662</out>
												<start>0</start>
												<end>662</end>
												<masterclipid>ArmA 3 2020.11.14 - 21.32.55.65.mp4</masterclipid>
												<logginginfo>
													<scene />
													<shottake />
													<lognote />
													<good>FALSE</good>
												</logginginfo>
												<labels>
													<label2 />
												</labels>
												<comments>
													<mastercomment1 />
													<mastercomment2 />
													<mastercomment3 />
													<mastercomment4 />
												</comments>
												<file id="ArmA 3 2020.11.14 - 21.32.55.65" />
												<sourcetrack>
													<mediatype>audio</mediatype>
												</sourcetrack>
											</clipitem>
											<enabled>TRUE</enabled>
											<locked>FALSE</locked>
										</track>
										<track>
											<clipitem id="ArmA 3 2020.11.14 - 21.32.55.65.mp43">
												<name>ArmA 3 2020.11.14 - 21.32.55.65.mp4</name>
												<duration>662</duration>
												<rate>
													<ntsc>TRUE</ntsc>
													<timebase>24</timebase>
												</rate>
												<in>0</in>
												<out>662</out>
												<start>0</start>
												<end>662</end>
												<masterclipid>ArmA 3 2020.11.14 - 21.32.55.65.mp4</masterclipid>
												<logginginfo>
													<scene />
													<shottake />
													<lognote />
													<good>FALSE</good>
												</logginginfo>
												<labels>
													<label2 />
												</labels>
												<comments>
													<mastercomment1 />
													<mastercomment2 />
													<mastercomment3 />
													<mastercomment4 />
												</comments>
												<file id="ArmA 3 2020.11.14 - 21.32.55.65" />
												<sourcetrack>
													<mediatype>audio</mediatype>
												</sourcetrack>
											</clipitem>
											<enabled>TRUE</enabled>
											<locked>FALSE</locked>
										</track>
									</audio>
								</media>
							</clip>
							<clip id="ArmA 3 2020.11.14 - 21.33.51.66.mp4">
								<updatebehavior>add</updatebehavior>
								<name>ArmA 3 2020.11.14 - 21.33.51.66.mp4</name>
								<duration>1169</duration>
								<rate>
									<ntsc>FALSE</ntsc>
									<timebase>60</timebase>
								</rate>
								<in>-1</in>
								<out>-1</out>
								<masterclipid>ArmA 3 2020.11.14 - 21.33.51.66.mp4</masterclipid>
								<ismasterclip>TRUE</ismasterclip>
								<logginginfo>
									<scene />
									<shottake />
									<lognote />
									<good>FALSE</good>
								</logginginfo>
								<labels>
									<label2 />
								</labels>
								<comments>
									<mastercomment1 />
									<mastercomment2 />
									<mastercomment3 />
									<mastercomment4 />
								</comments>
								<media>
									<video>
										<track>
											<clipitem id="ArmA 3 2020.11.14 - 21.33.51.66.mp41">
												<name>ArmA 3 2020.11.14 - 21.33.51.66.mp4</name>
												<duration>1169</duration>
												<rate>
													<ntsc>FALSE</ntsc>
													<timebase>60</timebase>
												</rate>
												<in>0</in>
												<out>1169</out>
												<start>0</start>
												<end>1169</end>
												<pixelaspectratio>Square</pixelaspectratio>
												<anamorphic>FALSE</anamorphic>
												<alphatype>none</alphatype>
												<masterclipid>ArmA 3 2020.11.14 - 21.33.51.66.mp4</masterclipid>
												<logginginfo>
													<scene />
													<shottake />
													<lognote />
													<good>FALSE</good>
												</logginginfo>
												<labels>
													<label2 />
												</labels>
												<comments>
													<mastercomment1 />
													<mastercomment2 />
													<mastercomment3 />
													<mastercomment4 />
												</comments>
												<file id="ArmA 3 2020.11.14 - 21.33.51.66">
													<name>ArmA 3 2020.11.14 - 21.33.51.66.mp4</name>
													<pathurl>file://localhost/F:/AMVS Russia/NaturaDestruction/PRPACK4/ArmA 3 2020.11.14 - 21.33.51.66.mp4</pathurl>
													<rate>
														<timebase>60</timebase>
														<ntsc>FALSE</ntsc>
													</rate>
													<duration>1169</duration>
													<timecode>
														<rate>
															<timebase>60</timebase>
															<ntsc>FALSE</ntsc>
														</rate>
														<frame>0</frame>
														<displayformat>NDF</displayformat>
														<source>source</source>
													</timecode>
													<media>
														<video>
															<duration>1169</duration>
															<samplecharacteristics>
																<width>1920</width>
																<height>1080</height>
															</samplecharacteristics>
														</video>
														<audio>
															<samplecharacteristics>
																<samplerate>48000</samplerate>
																<depth>32</depth>
															</samplecharacteristics>
															<channelcount>1</channelcount>
														</audio>
														<audio>
															<samplecharacteristics>
																<samplerate>48000</samplerate>
																<depth>32</depth>
															</samplecharacteristics>
															<channelcount>1</channelcount>
														</audio>
													</media>
												</file>
												<sourcetrack>
													<mediatype>video</mediatype>
												</sourcetrack>
												<fielddominance>none</fielddominance>
											</clipitem>
											<enabled>TRUE</enabled>
											<locked>FALSE</locked>
										</track>
									</video>
									<audio>
										<track>
											<clipitem id="ArmA 3 2020.11.14 - 21.33.51.66.mp42">
												<name>ArmA 3 2020.11.14 - 21.33.51.66.mp4</name>
												<duration>1165</duration>
												<rate>
													<ntsc>TRUE</ntsc>
													<timebase>24</timebase>
												</rate>
												<in>0</in>
												<out>1165</out>
												<start>0</start>
												<end>1165</end>
												<masterclipid>ArmA 3 2020.11.14 - 21.33.51.66.mp4</masterclipid>
												<logginginfo>
													<scene />
													<shottake />
													<lognote />
													<good>FALSE</good>
												</logginginfo>
												<labels>
													<label2 />
												</labels>
												<comments>
													<mastercomment1 />
													<mastercomment2 />
													<mastercomment3 />
													<mastercomment4 />
												</comments>
												<file id="ArmA 3 2020.11.14 - 21.33.51.66" />
												<sourcetrack>
													<mediatype>audio</mediatype>
												</sourcetrack>
											</clipitem>
											<enabled>TRUE</enabled>
											<locked>FALSE</locked>
										</track>
										<track>
											<clipitem id="ArmA 3 2020.11.14 - 21.33.51.66.mp43">
												<name>ArmA 3 2020.11.14 - 21.33.51.66.mp4</name>
												<duration>1165</duration>
												<rate>
													<ntsc>TRUE</ntsc>
													<timebase>24</timebase>
												</rate>
												<in>0</in>
												<out>1165</out>
												<start>0</start>
												<end>1165</end>
												<masterclipid>ArmA 3 2020.11.14 - 21.33.51.66.mp4</masterclipid>
												<logginginfo>
													<scene />
													<shottake />
													<lognote />
													<good>FALSE</good>
												</logginginfo>
												<labels>
													<label2 />
												</labels>
												<comments>
													<mastercomment1 />
													<mastercomment2 />
													<mastercomment3 />
													<mastercomment4 />
												</comments>
												<file id="ArmA 3 2020.11.14 - 21.33.51.66" />
												<sourcetrack>
													<mediatype>audio</mediatype>
												</sourcetrack>
											</clipitem>
											<enabled>TRUE</enabled>
											<locked>FALSE</locked>
										</track>
									</audio>
								</media>
							</clip>
							<clip id="ArmA 3 2020.11.14 - 21.34.50.67.mp4">
								<updatebehavior>add</updatebehavior>
								<name>ArmA 3 2020.11.14 - 21.34.50.67.mp4</name>
								<duration>711</duration>
								<rate>
									<ntsc>FALSE</ntsc>
									<timebase>60</timebase>
								</rate>
								<in>-1</in>
								<out>-1</out>
								<masterclipid>ArmA 3 2020.11.14 - 21.34.50.67.mp4</masterclipid>
								<ismasterclip>TRUE</ismasterclip>
								<logginginfo>
									<scene />
									<shottake />
									<lognote />
									<good>FALSE</good>
								</logginginfo>
								<labels>
									<label2 />
								</labels>
								<comments>
									<mastercomment1 />
									<mastercomment2 />
									<mastercomment3 />
									<mastercomment4 />
								</comments>
								<media>
									<video>
										<track>
											<clipitem id="ArmA 3 2020.11.14 - 21.34.50.67.mp41">
												<name>ArmA 3 2020.11.14 - 21.34.50.67.mp4</name>
												<duration>711</duration>
												<rate>
													<ntsc>FALSE</ntsc>
													<timebase>60</timebase>
												</rate>
												<in>0</in>
												<out>711</out>
												<start>0</start>
												<end>711</end>
												<pixelaspectratio>Square</pixelaspectratio>
												<anamorphic>FALSE</anamorphic>
												<alphatype>none</alphatype>
												<masterclipid>ArmA 3 2020.11.14 - 21.34.50.67.mp4</masterclipid>
												<logginginfo>
													<scene />
													<shottake />
													<lognote />
													<good>FALSE</good>
												</logginginfo>
												<labels>
													<label2 />
												</labels>
												<comments>
													<mastercomment1 />
													<mastercomment2 />
													<mastercomment3 />
													<mastercomment4 />
												</comments>
												<file id="ArmA 3 2020.11.14 - 21.34.50.67">
													<name>ArmA 3 2020.11.14 - 21.34.50.67.mp4</name>
													<pathurl>file://localhost/F:/AMVS Russia/NaturaDestruction/PRPACK5/ArmA 3 2020.11.14 - 21.34.50.67.mp4</pathurl>
													<rate>
														<timebase>60</timebase>
														<ntsc>FALSE</ntsc>
													</rate>
													<duration>711</duration>
													<timecode>
														<rate>
															<timebase>60</timebase>
															<ntsc>FALSE</ntsc>
														</rate>
														<frame>0</frame>
														<displayformat>NDF</displayformat>
														<source>source</source>
													</timecode>
													<media>
														<video>
															<duration>711</duration>
															<samplecharacteristics>
																<width>1920</width>
																<height>1080</height>
															</samplecharacteristics>
														</video>
														<audio>
															<samplecharacteristics>
																<samplerate>48000</samplerate>
																<depth>32</depth>
															</samplecharacteristics>
															<channelcount>1</channelcount>
														</audio>
														<audio>
															<samplecharacteristics>
																<samplerate>48000</samplerate>
																<depth>32</depth>
															</samplecharacteristics>
															<channelcount>1</channelcount>
														</audio>
													</media>
												</file>
												<sourcetrack>
													<mediatype>video</mediatype>
												</sourcetrack>
												<fielddominance>none</fielddominance>
											</clipitem>
											<enabled>TRUE</enabled>
											<locked>FALSE</locked>
										</track>
									</video>
									<audio>
										<track>
											<clipitem id="ArmA 3 2020.11.14 - 21.34.50.67.mp42">
												<name>ArmA 3 2020.11.14 - 21.34.50.67.mp4</name>
												<duration>711</duration>
												<rate>
													<ntsc>TRUE</ntsc>
													<timebase>24</timebase>
												</rate>
												<in>0</in>
												<out>711</out>
												<start>0</start>
												<end>711</end>
												<masterclipid>ArmA 3 2020.11.14 - 21.34.50.67.mp4</masterclipid>
												<logginginfo>
													<scene />
													<shottake />
													<lognote />
													<good>FALSE</good>
												</logginginfo>
												<labels>
													<label2 />
												</labels>
												<comments>
													<mastercomment1 />
													<mastercomment2 />
													<mastercomment3 />
													<mastercomment4 />
												</comments>
												<file id="ArmA 3 2020.11.14 - 21.34.50.67" />
												<sourcetrack>
													<mediatype>audio</mediatype>
												</sourcetrack>
											</clipitem>
											<enabled>TRUE</enabled>
											<locked>FALSE</locked>
										</track>
										<track>
											<clipitem id="ArmA 3 2020.11.14 - 21.34.50.67.mp43">
												<name>ArmA 3 2020.11.14 - 21.34.50.67.mp4</name>
												<duration>711</duration>
												<rate>
													<ntsc>TRUE</ntsc>
													<timebase>24</timebase>
												</rate>
												<in>0</in>
												<out>711</out>
												<start>0</start>
												<end>711</end>
												<masterclipid>ArmA 3 2020.11.14 - 21.34.50.67.mp4</masterclipid>
												<logginginfo>
													<scene />
													<shottake />
													<lognote />
													<good>FALSE</good>
												</logginginfo>
												<labels>
													<label2 />
												</labels>
												<comments>
													<mastercomment1 />
													<mastercomment2 />
													<mastercomment3 />
													<mastercomment4 />
												</comments>
												<file id="ArmA 3 2020.11.14 - 21.34.50.67" />
												<sourcetrack>
													<mediatype>audio</mediatype>
												</sourcetrack>
											</clipitem>
											<enabled>TRUE</enabled>
											<locked>FALSE</locked>
										</track>
									</audio>
								</media>
							</clip>
							<clip id="ArmA 3 2020.11.14 - 21.36.53.68.mp4">
								<updatebehavior>add</updatebehavior>
								<name>ArmA 3 2020.11.14 - 21.36.53.68.mp4</name>
								<duration>209</duration>
								<rate>
									<ntsc>FALSE</ntsc>
									<timebase>60</timebase>
								</rate>
								<in>-1</in>
								<out>-1</out>
								<masterclipid>ArmA 3 2020.11.14 - 21.36.53.68.mp4</masterclipid>
								<ismasterclip>TRUE</ismasterclip>
								<logginginfo>
									<scene />
									<shottake />
									<lognote />
									<good>FALSE</good>
								</logginginfo>
								<labels>
									<label2 />
								</labels>
								<comments>
									<mastercomment1 />
									<mastercomment2 />
									<mastercomment3 />
									<mastercomment4 />
								</comments>
								<media>
									<video>
										<track>
											<clipitem id="ArmA 3 2020.11.14 - 21.36.53.68.mp41">
												<name>ArmA 3 2020.11.14 - 21.36.53.68.mp4</name>
												<duration>209</duration>
												<rate>
													<ntsc>FALSE</ntsc>
													<timebase>60</timebase>
												</rate>
												<in>0</in>
												<out>209</out>
												<start>0</start>
												<end>209</end>
												<pixelaspectratio>Square</pixelaspectratio>
												<anamorphic>FALSE</anamorphic>
												<alphatype>none</alphatype>
												<masterclipid>ArmA 3 2020.11.14 - 21.36.53.68.mp4</masterclipid>
												<logginginfo>
													<scene />
													<shottake />
													<lognote />
													<good>FALSE</good>
												</logginginfo>
												<labels>
													<label2 />
												</labels>
												<comments>
													<mastercomment1 />
													<mastercomment2 />
													<mastercomment3 />
													<mastercomment4 />
												</comments>
												<file id="ArmA 3 2020.11.14 - 21.36.53.68">
													<name>ArmA 3 2020.11.14 - 21.36.53.68.mp4</name>
													<pathurl>file://localhost/F:/AMVS Russia/NaturaDestruction/PRPACK7/ArmA 3 2020.11.14 - 21.36.53.68.mp4</pathurl>
													<rate>
														<timebase>60</timebase>
														<ntsc>FALSE</ntsc>
													</rate>
													<duration>209</duration>
													<timecode>
														<rate>
															<timebase>60</timebase>
															<ntsc>FALSE</ntsc>
														</rate>
														<frame>0</frame>
														<displayformat>NDF</displayformat>
														<source>source</source>
													</timecode>
													<media>
														<video>
															<duration>209</duration>
															<samplecharacteristics>
																<width>1920</width>
																<height>1080</height>
															</samplecharacteristics>
														</video>
														<audio>
															<samplecharacteristics>
																<samplerate>48000</samplerate>
																<depth>32</depth>
															</samplecharacteristics>
															<channelcount>1</channelcount>
														</audio>
														<audio>
															<samplecharacteristics>
																<samplerate>48000</samplerate>
																<depth>32</depth>
															</samplecharacteristics>
															<channelcount>1</channelcount>
														</audio>
													</media>
												</file>
												<sourcetrack>
													<mediatype>video</mediatype>
												</sourcetrack>
												<fielddominance>none</fielddominance>
											</clipitem>
											<enabled>TRUE</enabled>
											<locked>FALSE</locked>
										</track>
									</video>
									<audio>
										<track>
											<clipitem id="ArmA 3 2020.11.14 - 21.36.53.68.mp42">
												<name>ArmA 3 2020.11.14 - 21.36.53.68.mp4</name>
												<duration>209</duration>
												<rate>
													<ntsc>TRUE</ntsc>
													<timebase>24</timebase>
												</rate>
												<in>0</in>
												<out>209</out>
												<start>0</start>
												<end>209</end>
												<masterclipid>ArmA 3 2020.11.14 - 21.36.53.68.mp4</masterclipid>
												<logginginfo>
													<scene />
													<shottake />
													<lognote />
													<good>FALSE</good>
												</logginginfo>
												<labels>
													<label2 />
												</labels>
												<comments>
													<mastercomment1 />
													<mastercomment2 />
													<mastercomment3 />
													<mastercomment4 />
												</comments>
												<file id="ArmA 3 2020.11.14 - 21.36.53.68" />
												<sourcetrack>
													<mediatype>audio</mediatype>
												</sourcetrack>
											</clipitem>
											<enabled>TRUE</enabled>
											<locked>FALSE</locked>
										</track>
										<track>
											<clipitem id="ArmA 3 2020.11.14 - 21.36.53.68.mp43">
												<name>ArmA 3 2020.11.14 - 21.36.53.68.mp4</name>
												<duration>209</duration>
												<rate>
													<ntsc>TRUE</ntsc>
													<timebase>24</timebase>
												</rate>
												<in>0</in>
												<out>209</out>
												<start>0</start>
												<end>209</end>
												<masterclipid>ArmA 3 2020.11.14 - 21.36.53.68.mp4</masterclipid>
												<logginginfo>
													<scene />
													<shottake />
													<lognote />
													<good>FALSE</good>
												</logginginfo>
												<labels>
													<label2 />
												</labels>
												<comments>
													<mastercomment1 />
													<mastercomment2 />
													<mastercomment3 />
													<mastercomment4 />
												</comments>
												<file id="ArmA 3 2020.11.14 - 21.36.53.68" />
												<sourcetrack>
													<mediatype>audio</mediatype>
												</sourcetrack>
											</clipitem>
											<enabled>TRUE</enabled>
											<locked>FALSE</locked>
										</track>
									</audio>
								</media>
							</clip>
							<clip id="ArmA 3 2020.11.14 - 21.37.06.69.mp4">
								<updatebehavior>add</updatebehavior>
								<name>ArmA 3 2020.11.14 - 21.37.06.69.mp4</name>
								<duration>242</duration>
								<rate>
									<ntsc>FALSE</ntsc>
									<timebase>60</timebase>
								</rate>
								<in>-1</in>
								<out>-1</out>
								<masterclipid>ArmA 3 2020.11.14 - 21.37.06.69.mp4</masterclipid>
								<ismasterclip>TRUE</ismasterclip>
								<logginginfo>
									<scene />
									<shottake />
									<lognote />
									<good>FALSE</good>
								</logginginfo>
								<labels>
									<label2 />
								</labels>
								<comments>
									<mastercomment1 />
									<mastercomment2 />
									<mastercomment3 />
									<mastercomment4 />
								</comments>
								<media>
									<video>
										<track>
											<clipitem id="ArmA 3 2020.11.14 - 21.37.06.69.mp41">
												<name>ArmA 3 2020.11.14 - 21.37.06.69.mp4</name>
												<duration>242</duration>
												<rate>
													<ntsc>FALSE</ntsc>
													<timebase>60</timebase>
												</rate>
												<in>0</in>
												<out>242</out>
												<start>0</start>
												<end>242</end>
												<pixelaspectratio>Square</pixelaspectratio>
												<anamorphic>FALSE</anamorphic>
												<alphatype>none</alphatype>
												<masterclipid>ArmA 3 2020.11.14 - 21.37.06.69.mp4</masterclipid>
												<logginginfo>
													<scene />
													<shottake />
													<lognote />
													<good>FALSE</good>
												</logginginfo>
												<labels>
													<label2 />
												</labels>
												<comments>
													<mastercomment1 />
													<mastercomment2 />
													<mastercomment3 />
													<mastercomment4 />
												</comments>
												<file id="ArmA 3 2020.11.14 - 21.37.06.69">
													<name>ArmA 3 2020.11.14 - 21.37.06.69.mp4</name>
													<pathurl>file://localhost/F:/AMVS Russia/NaturaDestruction/PRPACK7/ArmA 3 2020.11.14 - 21.37.06.69.mp4</pathurl>
													<rate>
														<timebase>60</timebase>
														<ntsc>FALSE</ntsc>
													</rate>
													<duration>242</duration>
													<timecode>
														<rate>
															<timebase>60</timebase>
															<ntsc>FALSE</ntsc>
														</rate>
														<frame>0</frame>
														<displayformat>NDF</displayformat>
														<source>source</source>
													</timecode>
													<media>
														<video>
															<duration>242</duration>
															<samplecharacteristics>
																<width>1920</width>
																<height>1080</height>
															</samplecharacteristics>
														</video>
														<audio>
															<samplecharacteristics>
																<samplerate>48000</samplerate>
																<depth>32</depth>
															</samplecharacteristics>
															<channelcount>1</channelcount>
														</audio>
														<audio>
															<samplecharacteristics>
																<samplerate>48000</samplerate>
																<depth>32</depth>
															</samplecharacteristics>
															<channelcount>1</channelcount>
														</audio>
													</media>
												</file>
												<sourcetrack>
													<mediatype>video</mediatype>
												</sourcetrack>
												<fielddominance>none</fielddominance>
											</clipitem>
											<enabled>TRUE</enabled>
											<locked>FALSE</locked>
										</track>
									</video>
									<audio>
										<track>
											<clipitem id="ArmA 3 2020.11.14 - 21.37.06.69.mp42">
												<name>ArmA 3 2020.11.14 - 21.37.06.69.mp4</name>
												<duration>242</duration>
												<rate>
													<ntsc>TRUE</ntsc>
													<timebase>24</timebase>
												</rate>
												<in>0</in>
												<out>242</out>
												<start>0</start>
												<end>242</end>
												<masterclipid>ArmA 3 2020.11.14 - 21.37.06.69.mp4</masterclipid>
												<logginginfo>
													<scene />
													<shottake />
													<lognote />
													<good>FALSE</good>
												</logginginfo>
												<labels>
													<label2 />
												</labels>
												<comments>
													<mastercomment1 />
													<mastercomment2 />
													<mastercomment3 />
													<mastercomment4 />
												</comments>
												<file id="ArmA 3 2020.11.14 - 21.37.06.69" />
												<sourcetrack>
													<mediatype>audio</mediatype>
												</sourcetrack>
											</clipitem>
											<enabled>TRUE</enabled>
											<locked>FALSE</locked>
										</track>
										<track>
											<clipitem id="ArmA 3 2020.11.14 - 21.37.06.69.mp43">
												<name>ArmA 3 2020.11.14 - 21.37.06.69.mp4</name>
												<duration>242</duration>
												<rate>
													<ntsc>TRUE</ntsc>
													<timebase>24</timebase>
												</rate>
												<in>0</in>
												<out>242</out>
												<start>0</start>
												<end>242</end>
												<masterclipid>ArmA 3 2020.11.14 - 21.37.06.69.mp4</masterclipid>
												<logginginfo>
													<scene />
													<shottake />
													<lognote />
													<good>FALSE</good>
												</logginginfo>
												<labels>
													<label2 />
												</labels>
												<comments>
													<mastercomment1 />
													<mastercomment2 />
													<mastercomment3 />
													<mastercomment4 />
												</comments>
												<file id="ArmA 3 2020.11.14 - 21.37.06.69" />
												<sourcetrack>
													<mediatype>audio</mediatype>
												</sourcetrack>
											</clipitem>
											<enabled>TRUE</enabled>
											<locked>FALSE</locked>
										</track>
									</audio>
								</media>
							</clip>
							<clip id="ArmA 3 2020.11.14 - 21.37.32.70.mp4">
								<updatebehavior>add</updatebehavior>
								<name>ArmA 3 2020.11.14 - 21.37.32.70.mp4</name>
								<duration>816</duration>
								<rate>
									<ntsc>FALSE</ntsc>
									<timebase>60</timebase>
								</rate>
								<in>-1</in>
								<out>-1</out>
								<masterclipid>ArmA 3 2020.11.14 - 21.37.32.70.mp4</masterclipid>
								<ismasterclip>TRUE</ismasterclip>
								<logginginfo>
									<scene />
									<shottake />
									<lognote />
									<good>FALSE</good>
								</logginginfo>
								<labels>
									<label2 />
								</labels>
								<comments>
									<mastercomment1 />
									<mastercomment2 />
									<mastercomment3 />
									<mastercomment4 />
								</comments>
								<media>
									<video>
										<track>
											<clipitem id="ArmA 3 2020.11.14 - 21.37.32.70.mp41">
												<name>ArmA 3 2020.11.14 - 21.37.32.70.mp4</name>
												<duration>816</duration>
												<rate>
													<ntsc>FALSE</ntsc>
													<timebase>60</timebase>
												</rate>
												<in>0</in>
												<out>816</out>
												<start>0</start>
												<end>816</end>
												<pixelaspectratio>Square</pixelaspectratio>
												<anamorphic>FALSE</anamorphic>
												<alphatype>none</alphatype>
												<masterclipid>ArmA 3 2020.11.14 - 21.37.32.70.mp4</masterclipid>
												<logginginfo>
													<scene />
													<shottake />
													<lognote />
													<good>FALSE</good>
												</logginginfo>
												<labels>
													<label2 />
												</labels>
												<comments>
													<mastercomment1 />
													<mastercomment2 />
													<mastercomment3 />
													<mastercomment4 />
												</comments>
												<file id="ArmA 3 2020.11.14 - 21.37.32.70">
													<name>ArmA 3 2020.11.14 - 21.37.32.70.mp4</name>
													<pathurl>file://localhost/F:/AMVS Russia/NaturaDestruction/PRPACK5/ArmA 3 2020.11.14 - 21.37.32.70.mp4</pathurl>
													<rate>
														<timebase>60</timebase>
														<ntsc>FALSE</ntsc>
													</rate>
													<duration>816</duration>
													<timecode>
														<rate>
															<timebase>60</timebase>
															<ntsc>FALSE</ntsc>
														</rate>
														<frame>0</frame>
														<displayformat>NDF</displayformat>
														<source>source</source>
													</timecode>
													<media>
														<video>
															<duration>816</duration>
															<samplecharacteristics>
																<width>1920</width>
																<height>1080</height>
															</samplecharacteristics>
														</video>
														<audio>
															<samplecharacteristics>
																<samplerate>48000</samplerate>
																<depth>32</depth>
															</samplecharacteristics>
															<channelcount>1</channelcount>
														</audio>
														<audio>
															<samplecharacteristics>
																<samplerate>48000</samplerate>
																<depth>32</depth>
															</samplecharacteristics>
															<channelcount>1</channelcount>
														</audio>
													</media>
												</file>
												<sourcetrack>
													<mediatype>video</mediatype>
												</sourcetrack>
												<fielddominance>none</fielddominance>
											</clipitem>
											<enabled>TRUE</enabled>
											<locked>FALSE</locked>
										</track>
									</video>
									<audio>
										<track>
											<clipitem id="ArmA 3 2020.11.14 - 21.37.32.70.mp42">
												<name>ArmA 3 2020.11.14 - 21.37.32.70.mp4</name>
												<duration>816</duration>
												<rate>
													<ntsc>TRUE</ntsc>
													<timebase>24</timebase>
												</rate>
												<in>0</in>
												<out>816</out>
												<start>0</start>
												<end>816</end>
												<masterclipid>ArmA 3 2020.11.14 - 21.37.32.70.mp4</masterclipid>
												<logginginfo>
													<scene />
													<shottake />
													<lognote />
													<good>FALSE</good>
												</logginginfo>
												<labels>
													<label2 />
												</labels>
												<comments>
													<mastercomment1 />
													<mastercomment2 />
													<mastercomment3 />
													<mastercomment4 />
												</comments>
												<file id="ArmA 3 2020.11.14 - 21.37.32.70" />
												<sourcetrack>
													<mediatype>audio</mediatype>
												</sourcetrack>
											</clipitem>
											<enabled>TRUE</enabled>
											<locked>FALSE</locked>
										</track>
										<track>
											<clipitem id="ArmA 3 2020.11.14 - 21.37.32.70.mp43">
												<name>ArmA 3 2020.11.14 - 21.37.32.70.mp4</name>
												<duration>816</duration>
												<rate>
													<ntsc>TRUE</ntsc>
													<timebase>24</timebase>
												</rate>
												<in>0</in>
												<out>816</out>
												<start>0</start>
												<end>816</end>
												<masterclipid>ArmA 3 2020.11.14 - 21.37.32.70.mp4</masterclipid>
												<logginginfo>
													<scene />
													<shottake />
													<lognote />
													<good>FALSE</good>
												</logginginfo>
												<labels>
													<label2 />
												</labels>
												<comments>
													<mastercomment1 />
													<mastercomment2 />
													<mastercomment3 />
													<mastercomment4 />
												</comments>
												<file id="ArmA 3 2020.11.14 - 21.37.32.70" />
												<sourcetrack>
													<mediatype>audio</mediatype>
												</sourcetrack>
											</clipitem>
											<enabled>TRUE</enabled>
											<locked>FALSE</locked>
										</track>
									</audio>
								</media>
							</clip>
							<clip id="ArmA 3 2020.11.14 - 21.38.41.71.mp4">
								<updatebehavior>add</updatebehavior>
								<name>ArmA 3 2020.11.14 - 21.38.41.71.mp4</name>
								<duration>191</duration>
								<rate>
									<ntsc>FALSE</ntsc>
									<timebase>60</timebase>
								</rate>
								<in>-1</in>
								<out>-1</out>
								<masterclipid>ArmA 3 2020.11.14 - 21.38.41.71.mp4</masterclipid>
								<ismasterclip>TRUE</ismasterclip>
								<logginginfo>
									<scene />
									<shottake />
									<lognote />
									<good>FALSE</good>
								</logginginfo>
								<labels>
									<label2 />
								</labels>
								<comments>
									<mastercomment1 />
									<mastercomment2 />
									<mastercomment3 />
									<mastercomment4 />
								</comments>
								<media>
									<video>
										<track>
											<clipitem id="ArmA 3 2020.11.14 - 21.38.41.71.mp41">
												<name>ArmA 3 2020.11.14 - 21.38.41.71.mp4</name>
												<duration>191</duration>
												<rate>
													<ntsc>FALSE</ntsc>
													<timebase>60</timebase>
												</rate>
												<in>0</in>
												<out>191</out>
												<start>0</start>
												<end>191</end>
												<pixelaspectratio>Square</pixelaspectratio>
												<anamorphic>FALSE</anamorphic>
												<alphatype>none</alphatype>
												<masterclipid>ArmA 3 2020.11.14 - 21.38.41.71.mp4</masterclipid>
												<logginginfo>
													<scene />
													<shottake />
													<lognote />
													<good>FALSE</good>
												</logginginfo>
												<labels>
													<label2 />
												</labels>
												<comments>
													<mastercomment1 />
													<mastercomment2 />
													<mastercomment3 />
													<mastercomment4 />
												</comments>
												<file id="ArmA 3 2020.11.14 - 21.38.41.71">
													<name>ArmA 3 2020.11.14 - 21.38.41.71.mp4</name>
													<pathurl>file://localhost/F:/AMVS Russia/NaturaDestruction/PRPACK7/ArmA 3 2020.11.14 - 21.38.41.71.mp4</pathurl>
													<rate>
														<timebase>60</timebase>
														<ntsc>FALSE</ntsc>
													</rate>
													<duration>191</duration>
													<timecode>
														<rate>
															<timebase>60</timebase>
															<ntsc>FALSE</ntsc>
														</rate>
														<frame>0</frame>
														<displayformat>NDF</displayformat>
														<source>source</source>
													</timecode>
													<media>
														<video>
															<duration>191</duration>
															<samplecharacteristics>
																<width>1920</width>
																<height>1080</height>
															</samplecharacteristics>
														</video>
														<audio>
															<samplecharacteristics>
																<samplerate>48000</samplerate>
																<depth>32</depth>
															</samplecharacteristics>
															<channelcount>1</channelcount>
														</audio>
														<audio>
															<samplecharacteristics>
																<samplerate>48000</samplerate>
																<depth>32</depth>
															</samplecharacteristics>
															<channelcount>1</channelcount>
														</audio>
													</media>
												</file>
												<sourcetrack>
													<mediatype>video</mediatype>
												</sourcetrack>
												<fielddominance>none</fielddominance>
											</clipitem>
											<enabled>TRUE</enabled>
											<locked>FALSE</locked>
										</track>
									</video>
									<audio>
										<track>
											<clipitem id="ArmA 3 2020.11.14 - 21.38.41.71.mp42">
												<name>ArmA 3 2020.11.14 - 21.38.41.71.mp4</name>
												<duration>191</duration>
												<rate>
													<ntsc>TRUE</ntsc>
													<timebase>24</timebase>
												</rate>
												<in>0</in>
												<out>191</out>
												<start>0</start>
												<end>191</end>
												<masterclipid>ArmA 3 2020.11.14 - 21.38.41.71.mp4</masterclipid>
												<logginginfo>
													<scene />
													<shottake />
													<lognote />
													<good>FALSE</good>
												</logginginfo>
												<labels>
													<label2 />
												</labels>
												<comments>
													<mastercomment1 />
													<mastercomment2 />
													<mastercomment3 />
													<mastercomment4 />
												</comments>
												<file id="ArmA 3 2020.11.14 - 21.38.41.71" />
												<sourcetrack>
													<mediatype>audio</mediatype>
												</sourcetrack>
											</clipitem>
											<enabled>TRUE</enabled>
											<locked>FALSE</locked>
										</track>
										<track>
											<clipitem id="ArmA 3 2020.11.14 - 21.38.41.71.mp43">
												<name>ArmA 3 2020.11.14 - 21.38.41.71.mp4</name>
												<duration>191</duration>
												<rate>
													<ntsc>TRUE</ntsc>
													<timebase>24</timebase>
												</rate>
												<in>0</in>
												<out>191</out>
												<start>0</start>
												<end>191</end>
												<masterclipid>ArmA 3 2020.11.14 - 21.38.41.71.mp4</masterclipid>
												<logginginfo>
													<scene />
													<shottake />
													<lognote />
													<good>FALSE</good>
												</logginginfo>
												<labels>
													<label2 />
												</labels>
												<comments>
													<mastercomment1 />
													<mastercomment2 />
													<mastercomment3 />
													<mastercomment4 />
												</comments>
												<file id="ArmA 3 2020.11.14 - 21.38.41.71" />
												<sourcetrack>
													<mediatype>audio</mediatype>
												</sourcetrack>
											</clipitem>
											<enabled>TRUE</enabled>
											<locked>FALSE</locked>
										</track>
									</audio>
								</media>
							</clip>
							<clip id="ArmA 3 2020.11.14 - 21.38.56.72.mp4">
								<updatebehavior>add</updatebehavior>
								<name>ArmA 3 2020.11.14 - 21.38.56.72.mp4</name>
								<duration>110</duration>
								<rate>
									<ntsc>FALSE</ntsc>
									<timebase>60</timebase>
								</rate>
								<in>-1</in>
								<out>-1</out>
								<masterclipid>ArmA 3 2020.11.14 - 21.38.56.72.mp4</masterclipid>
								<ismasterclip>TRUE</ismasterclip>
								<logginginfo>
									<scene />
									<shottake />
									<lognote />
									<good>FALSE</good>
								</logginginfo>
								<labels>
									<label2 />
								</labels>
								<comments>
									<mastercomment1 />
									<mastercomment2 />
									<mastercomment3 />
									<mastercomment4 />
								</comments>
								<media>
									<video>
										<track>
											<clipitem id="ArmA 3 2020.11.14 - 21.38.56.72.mp41">
												<name>ArmA 3 2020.11.14 - 21.38.56.72.mp4</name>
												<duration>110</duration>
												<rate>
													<ntsc>FALSE</ntsc>
													<timebase>60</timebase>
												</rate>
												<in>0</in>
												<out>110</out>
												<start>0</start>
												<end>110</end>
												<pixelaspectratio>Square</pixelaspectratio>
												<anamorphic>FALSE</anamorphic>
												<alphatype>none</alphatype>
												<masterclipid>ArmA 3 2020.11.14 - 21.38.56.72.mp4</masterclipid>
												<logginginfo>
													<scene />
													<shottake />
													<lognote />
													<good>FALSE</good>
												</logginginfo>
												<labels>
													<label2 />
												</labels>
												<comments>
													<mastercomment1 />
													<mastercomment2 />
													<mastercomment3 />
													<mastercomment4 />
												</comments>
												<file id="ArmA 3 2020.11.14 - 21.38.56.72">
													<name>ArmA 3 2020.11.14 - 21.38.56.72.mp4</name>
													<pathurl>file://localhost/F:/AMVS Russia/NaturaDestruction/PRPACK7/ArmA 3 2020.11.14 - 21.38.56.72.mp4</pathurl>
													<rate>
														<timebase>60</timebase>
														<ntsc>FALSE</ntsc>
													</rate>
													<duration>110</duration>
													<timecode>
														<rate>
															<timebase>60</timebase>
															<ntsc>FALSE</ntsc>
														</rate>
														<frame>0</frame>
														<displayformat>NDF</displayformat>
														<source>source</source>
													</timecode>
													<media>
														<video>
															<duration>110</duration>
															<samplecharacteristics>
																<width>1920</width>
																<height>1080</height>
															</samplecharacteristics>
														</video>
														<audio>
															<samplecharacteristics>
																<samplerate>48000</samplerate>
																<depth>32</depth>
															</samplecharacteristics>
															<channelcount>1</channelcount>
														</audio>
														<audio>
															<samplecharacteristics>
																<samplerate>48000</samplerate>
																<depth>32</depth>
															</samplecharacteristics>
															<channelcount>1</channelcount>
														</audio>
													</media>
												</file>
												<sourcetrack>
													<mediatype>video</mediatype>
												</sourcetrack>
												<fielddominance>none</fielddominance>
											</clipitem>
											<enabled>TRUE</enabled>
											<locked>FALSE</locked>
										</track>
									</video>
									<audio>
										<track>
											<clipitem id="ArmA 3 2020.11.14 - 21.38.56.72.mp42">
												<name>ArmA 3 2020.11.14 - 21.38.56.72.mp4</name>
												<duration>110</duration>
												<rate>
													<ntsc>TRUE</ntsc>
													<timebase>24</timebase>
												</rate>
												<in>0</in>
												<out>110</out>
												<start>0</start>
												<end>110</end>
												<masterclipid>ArmA 3 2020.11.14 - 21.38.56.72.mp4</masterclipid>
												<logginginfo>
													<scene />
													<shottake />
													<lognote />
													<good>FALSE</good>
												</logginginfo>
												<labels>
													<label2 />
												</labels>
												<comments>
													<mastercomment1 />
													<mastercomment2 />
													<mastercomment3 />
													<mastercomment4 />
												</comments>
												<file id="ArmA 3 2020.11.14 - 21.38.56.72" />
												<sourcetrack>
													<mediatype>audio</mediatype>
												</sourcetrack>
											</clipitem>
											<enabled>TRUE</enabled>
											<locked>FALSE</locked>
										</track>
										<track>
											<clipitem id="ArmA 3 2020.11.14 - 21.38.56.72.mp43">
												<name>ArmA 3 2020.11.14 - 21.38.56.72.mp4</name>
												<duration>110</duration>
												<rate>
													<ntsc>TRUE</ntsc>
													<timebase>24</timebase>
												</rate>
												<in>0</in>
												<out>110</out>
												<start>0</start>
												<end>110</end>
												<masterclipid>ArmA 3 2020.11.14 - 21.38.56.72.mp4</masterclipid>
												<logginginfo>
													<scene />
													<shottake />
													<lognote />
													<good>FALSE</good>
												</logginginfo>
												<labels>
													<label2 />
												</labels>
												<comments>
													<mastercomment1 />
													<mastercomment2 />
													<mastercomment3 />
													<mastercomment4 />
												</comments>
												<file id="ArmA 3 2020.11.14 - 21.38.56.72" />
												<sourcetrack>
													<mediatype>audio</mediatype>
												</sourcetrack>
											</clipitem>
											<enabled>TRUE</enabled>
											<locked>FALSE</locked>
										</track>
									</audio>
								</media>
							</clip>
							<clip id="ArmA 3 2020.11.14 - 21.43.48.73.mp4">
								<updatebehavior>add</updatebehavior>
								<name>ArmA 3 2020.11.14 - 21.43.48.73.mp4</name>
								<duration>955</duration>
								<rate>
									<ntsc>FALSE</ntsc>
									<timebase>60</timebase>
								</rate>
								<in>-1</in>
								<out>-1</out>
								<masterclipid>ArmA 3 2020.11.14 - 21.43.48.73.mp4</masterclipid>
								<ismasterclip>TRUE</ismasterclip>
								<logginginfo>
									<scene />
									<shottake />
									<lognote />
									<good>FALSE</good>
								</logginginfo>
								<labels>
									<label2 />
								</labels>
								<comments>
									<mastercomment1 />
									<mastercomment2 />
									<mastercomment3 />
									<mastercomment4 />
								</comments>
								<media>
									<video>
										<track>
											<clipitem id="ArmA 3 2020.11.14 - 21.43.48.73.mp41">
												<name>ArmA 3 2020.11.14 - 21.43.48.73.mp4</name>
												<duration>955</duration>
												<rate>
													<ntsc>FALSE</ntsc>
													<timebase>60</timebase>
												</rate>
												<in>0</in>
												<out>955</out>
												<start>0</start>
												<end>955</end>
												<pixelaspectratio>Square</pixelaspectratio>
												<anamorphic>FALSE</anamorphic>
												<alphatype>none</alphatype>
												<masterclipid>ArmA 3 2020.11.14 - 21.43.48.73.mp4</masterclipid>
												<logginginfo>
													<scene />
													<shottake />
													<lognote />
													<good>FALSE</good>
												</logginginfo>
												<labels>
													<label2 />
												</labels>
												<comments>
													<mastercomment1 />
													<mastercomment2 />
													<mastercomment3 />
													<mastercomment4 />
												</comments>
												<file id="ArmA 3 2020.11.14 - 21.43.48.73">
													<name>ArmA 3 2020.11.14 - 21.43.48.73.mp4</name>
													<pathurl>file://localhost/F:/AMVS Russia/NaturaDestruction/PRPACK4/ArmA 3 2020.11.14 - 21.43.48.73.mp4</pathurl>
													<rate>
														<timebase>60</timebase>
														<ntsc>FALSE</ntsc>
													</rate>
													<duration>955</duration>
													<timecode>
														<rate>
															<timebase>60</timebase>
															<ntsc>FALSE</ntsc>
														</rate>
														<frame>0</frame>
														<displayformat>NDF</displayformat>
														<source>source</source>
													</timecode>
													<media>
														<video>
															<duration>955</duration>
															<samplecharacteristics>
																<width>1920</width>
																<height>1080</height>
															</samplecharacteristics>
														</video>
														<audio>
															<samplecharacteristics>
																<samplerate>48000</samplerate>
																<depth>32</depth>
															</samplecharacteristics>
															<channelcount>1</channelcount>
														</audio>
														<audio>
															<samplecharacteristics>
																<samplerate>48000</samplerate>
																<depth>32</depth>
															</samplecharacteristics>
															<channelcount>1</channelcount>
														</audio>
													</media>
												</file>
												<sourcetrack>
													<mediatype>video</mediatype>
												</sourcetrack>
												<fielddominance>none</fielddominance>
											</clipitem>
											<enabled>TRUE</enabled>
											<locked>FALSE</locked>
										</track>
									</video>
									<audio>
										<track>
											<clipitem id="ArmA 3 2020.11.14 - 21.43.48.73.mp42">
												<name>ArmA 3 2020.11.14 - 21.43.48.73.mp4</name>
												<duration>955</duration>
												<rate>
													<ntsc>TRUE</ntsc>
													<timebase>24</timebase>
												</rate>
												<in>0</in>
												<out>955</out>
												<start>0</start>
												<end>955</end>
												<masterclipid>ArmA 3 2020.11.14 - 21.43.48.73.mp4</masterclipid>
												<logginginfo>
													<scene />
													<shottake />
													<lognote />
													<good>FALSE</good>
												</logginginfo>
												<labels>
													<label2 />
												</labels>
												<comments>
													<mastercomment1 />
													<mastercomment2 />
													<mastercomment3 />
													<mastercomment4 />
												</comments>
												<file id="ArmA 3 2020.11.14 - 21.43.48.73" />
												<sourcetrack>
													<mediatype>audio</mediatype>
												</sourcetrack>
											</clipitem>
											<enabled>TRUE</enabled>
											<locked>FALSE</locked>
										</track>
										<track>
											<clipitem id="ArmA 3 2020.11.14 - 21.43.48.73.mp43">
												<name>ArmA 3 2020.11.14 - 21.43.48.73.mp4</name>
												<duration>955</duration>
												<rate>
													<ntsc>TRUE</ntsc>
													<timebase>24</timebase>
												</rate>
												<in>0</in>
												<out>955</out>
												<start>0</start>
												<end>955</end>
												<masterclipid>ArmA 3 2020.11.14 - 21.43.48.73.mp4</masterclipid>
												<logginginfo>
													<scene />
													<shottake />
													<lognote />
													<good>FALSE</good>
												</logginginfo>
												<labels>
													<label2 />
												</labels>
												<comments>
													<mastercomment1 />
													<mastercomment2 />
													<mastercomment3 />
													<mastercomment4 />
												</comments>
												<file id="ArmA 3 2020.11.14 - 21.43.48.73" />
												<sourcetrack>
													<mediatype>audio</mediatype>
												</sourcetrack>
											</clipitem>
											<enabled>TRUE</enabled>
											<locked>FALSE</locked>
										</track>
									</audio>
								</media>
							</clip>
							<clip id="ArmA 3 2020.11.14 - 21.48.32.74.mp4">
								<updatebehavior>add</updatebehavior>
								<name>ArmA 3 2020.11.14 - 21.48.32.74.mp4</name>
								<duration>614</duration>
								<rate>
									<ntsc>FALSE</ntsc>
									<timebase>60</timebase>
								</rate>
								<in>-1</in>
								<out>-1</out>
								<masterclipid>ArmA 3 2020.11.14 - 21.48.32.74.mp4</masterclipid>
								<ismasterclip>TRUE</ismasterclip>
								<logginginfo>
									<scene />
									<shottake />
									<lognote />
									<good>FALSE</good>
								</logginginfo>
								<labels>
									<label2 />
								</labels>
								<comments>
									<mastercomment1 />
									<mastercomment2 />
									<mastercomment3 />
									<mastercomment4 />
								</comments>
								<media>
									<video>
										<track>
											<clipitem id="ArmA 3 2020.11.14 - 21.48.32.74.mp41">
												<name>ArmA 3 2020.11.14 - 21.48.32.74.mp4</name>
												<duration>614</duration>
												<rate>
													<ntsc>FALSE</ntsc>
													<timebase>60</timebase>
												</rate>
												<in>0</in>
												<out>614</out>
												<start>0</start>
												<end>614</end>
												<pixelaspectratio>Square</pixelaspectratio>
												<anamorphic>FALSE</anamorphic>
												<alphatype>none</alphatype>
												<masterclipid>ArmA 3 2020.11.14 - 21.48.32.74.mp4</masterclipid>
												<logginginfo>
													<scene />
													<shottake />
													<lognote />
													<good>FALSE</good>
												</logginginfo>
												<labels>
													<label2 />
												</labels>
												<comments>
													<mastercomment1 />
													<mastercomment2 />
													<mastercomment3 />
													<mastercomment4 />
												</comments>
												<file id="ArmA 3 2020.11.14 - 21.48.32.74">
													<name>ArmA 3 2020.11.14 - 21.48.32.74.mp4</name>
													<pathurl>file://localhost/F:/AMVS Russia/NaturaDestruction/PRPACK6/ArmA 3 2020.11.14 - 21.48.32.74.mp4</pathurl>
													<rate>
														<timebase>60</timebase>
														<ntsc>FALSE</ntsc>
													</rate>
													<duration>614</duration>
													<timecode>
														<rate>
															<timebase>60</timebase>
															<ntsc>FALSE</ntsc>
														</rate>
														<frame>0</frame>
														<displayformat>NDF</displayformat>
														<source>source</source>
													</timecode>
													<media>
														<video>
															<duration>614</duration>
															<samplecharacteristics>
																<width>1920</width>
																<height>1080</height>
															</samplecharacteristics>
														</video>
														<audio>
															<samplecharacteristics>
																<samplerate>48000</samplerate>
																<depth>32</depth>
															</samplecharacteristics>
															<channelcount>1</channelcount>
														</audio>
														<audio>
															<samplecharacteristics>
																<samplerate>48000</samplerate>
																<depth>32</depth>
															</samplecharacteristics>
															<channelcount>1</channelcount>
														</audio>
													</media>
												</file>
												<sourcetrack>
													<mediatype>video</mediatype>
												</sourcetrack>
												<fielddominance>none</fielddominance>
											</clipitem>
											<enabled>TRUE</enabled>
											<locked>FALSE</locked>
										</track>
									</video>
									<audio>
										<track>
											<clipitem id="ArmA 3 2020.11.14 - 21.48.32.74.mp42">
												<name>ArmA 3 2020.11.14 - 21.48.32.74.mp4</name>
												<duration>614</duration>
												<rate>
													<ntsc>TRUE</ntsc>
													<timebase>24</timebase>
												</rate>
												<in>0</in>
												<out>614</out>
												<start>0</start>
												<end>614</end>
												<masterclipid>ArmA 3 2020.11.14 - 21.48.32.74.mp4</masterclipid>
												<logginginfo>
													<scene />
													<shottake />
													<lognote />
													<good>FALSE</good>
												</logginginfo>
												<labels>
													<label2 />
												</labels>
												<comments>
													<mastercomment1 />
													<mastercomment2 />
													<mastercomment3 />
													<mastercomment4 />
												</comments>
												<file id="ArmA 3 2020.11.14 - 21.48.32.74" />
												<sourcetrack>
													<mediatype>audio</mediatype>
												</sourcetrack>
											</clipitem>
											<enabled>TRUE</enabled>
											<locked>FALSE</locked>
										</track>
										<track>
											<clipitem id="ArmA 3 2020.11.14 - 21.48.32.74.mp43">
												<name>ArmA 3 2020.11.14 - 21.48.32.74.mp4</name>
												<duration>614</duration>
												<rate>
													<ntsc>TRUE</ntsc>
													<timebase>24</timebase>
												</rate>
												<in>0</in>
												<out>614</out>
												<start>0</start>
												<end>614</end>
												<masterclipid>ArmA 3 2020.11.14 - 21.48.32.74.mp4</masterclipid>
												<logginginfo>
													<scene />
													<shottake />
													<lognote />
													<good>FALSE</good>
												</logginginfo>
												<labels>
													<label2 />
												</labels>
												<comments>
													<mastercomment1 />
													<mastercomment2 />
													<mastercomment3 />
													<mastercomment4 />
												</comments>
												<file id="ArmA 3 2020.11.14 - 21.48.32.74" />
												<sourcetrack>
													<mediatype>audio</mediatype>
												</sourcetrack>
											</clipitem>
											<enabled>TRUE</enabled>
											<locked>FALSE</locked>
										</track>
									</audio>
								</media>
							</clip>
							<clip id="ArmA 3 2020.11.14 - 21.51.33.75.mp4">
								<updatebehavior>add</updatebehavior>
								<name>ArmA 3 2020.11.14 - 21.51.33.75.mp4</name>
								<duration>821</duration>
								<rate>
									<ntsc>FALSE</ntsc>
									<timebase>60</timebase>
								</rate>
								<in>-1</in>
								<out>-1</out>
								<masterclipid>ArmA 3 2020.11.14 - 21.51.33.75.mp4</masterclipid>
								<ismasterclip>TRUE</ismasterclip>
								<logginginfo>
									<scene />
									<shottake />
									<lognote />
									<good>FALSE</good>
								</logginginfo>
								<labels>
									<label2 />
								</labels>
								<comments>
									<mastercomment1 />
									<mastercomment2 />
									<mastercomment3 />
									<mastercomment4 />
								</comments>
								<media>
									<video>
										<track>
											<clipitem id="ArmA 3 2020.11.14 - 21.51.33.75.mp41">
												<name>ArmA 3 2020.11.14 - 21.51.33.75.mp4</name>
												<duration>821</duration>
												<rate>
													<ntsc>FALSE</ntsc>
													<timebase>60</timebase>
												</rate>
												<in>0</in>
												<out>821</out>
												<start>0</start>
												<end>821</end>
												<pixelaspectratio>Square</pixelaspectratio>
												<anamorphic>FALSE</anamorphic>
												<alphatype>none</alphatype>
												<masterclipid>ArmA 3 2020.11.14 - 21.51.33.75.mp4</masterclipid>
												<logginginfo>
													<scene />
													<shottake />
													<lognote />
													<good>FALSE</good>
												</logginginfo>
												<labels>
													<label2 />
												</labels>
												<comments>
													<mastercomment1 />
													<mastercomment2 />
													<mastercomment3 />
													<mastercomment4 />
												</comments>
												<file id="ArmA 3 2020.11.14 - 21.51.33.75">
													<name>ArmA 3 2020.11.14 - 21.51.33.75.mp4</name>
													<pathurl>file://localhost/F:/AMVS Russia/NaturaDestruction/PRPACK5/ArmA 3 2020.11.14 - 21.51.33.75.mp4</pathurl>
													<rate>
														<timebase>60</timebase>
														<ntsc>FALSE</ntsc>
													</rate>
													<duration>821</duration>
													<timecode>
														<rate>
															<timebase>60</timebase>
															<ntsc>FALSE</ntsc>
														</rate>
														<frame>0</frame>
														<displayformat>NDF</displayformat>
														<source>source</source>
													</timecode>
													<media>
														<video>
															<duration>821</duration>
															<samplecharacteristics>
																<width>1920</width>
																<height>1080</height>
															</samplecharacteristics>
														</video>
														<audio>
															<samplecharacteristics>
																<samplerate>48000</samplerate>
																<depth>32</depth>
															</samplecharacteristics>
															<channelcount>1</channelcount>
														</audio>
														<audio>
															<samplecharacteristics>
																<samplerate>48000</samplerate>
																<depth>32</depth>
															</samplecharacteristics>
															<channelcount>1</channelcount>
														</audio>
													</media>
												</file>
												<sourcetrack>
													<mediatype>video</mediatype>
												</sourcetrack>
												<fielddominance>none</fielddominance>
											</clipitem>
											<enabled>TRUE</enabled>
											<locked>FALSE</locked>
										</track>
									</video>
									<audio>
										<track>
											<clipitem id="ArmA 3 2020.11.14 - 21.51.33.75.mp42">
												<name>ArmA 3 2020.11.14 - 21.51.33.75.mp4</name>
												<duration>821</duration>
												<rate>
													<ntsc>TRUE</ntsc>
													<timebase>24</timebase>
												</rate>
												<in>0</in>
												<out>821</out>
												<start>0</start>
												<end>821</end>
												<masterclipid>ArmA 3 2020.11.14 - 21.51.33.75.mp4</masterclipid>
												<logginginfo>
													<scene />
													<shottake />
													<lognote />
													<good>FALSE</good>
												</logginginfo>
												<labels>
													<label2 />
												</labels>
												<comments>
													<mastercomment1 />
													<mastercomment2 />
													<mastercomment3 />
													<mastercomment4 />
												</comments>
												<file id="ArmA 3 2020.11.14 - 21.51.33.75" />
												<sourcetrack>
													<mediatype>audio</mediatype>
												</sourcetrack>
											</clipitem>
											<enabled>TRUE</enabled>
											<locked>FALSE</locked>
										</track>
										<track>
											<clipitem id="ArmA 3 2020.11.14 - 21.51.33.75.mp43">
												<name>ArmA 3 2020.11.14 - 21.51.33.75.mp4</name>
												<duration>821</duration>
												<rate>
													<ntsc>TRUE</ntsc>
													<timebase>24</timebase>
												</rate>
												<in>0</in>
												<out>821</out>
												<start>0</start>
												<end>821</end>
												<masterclipid>ArmA 3 2020.11.14 - 21.51.33.75.mp4</masterclipid>
												<logginginfo>
													<scene />
													<shottake />
													<lognote />
													<good>FALSE</good>
												</logginginfo>
												<labels>
													<label2 />
												</labels>
												<comments>
													<mastercomment1 />
													<mastercomment2 />
													<mastercomment3 />
													<mastercomment4 />
												</comments>
												<file id="ArmA 3 2020.11.14 - 21.51.33.75" />
												<sourcetrack>
													<mediatype>audio</mediatype>
												</sourcetrack>
											</clipitem>
											<enabled>TRUE</enabled>
											<locked>FALSE</locked>
										</track>
									</audio>
								</media>
							</clip>
							<clip id="ArmA 3 2020.11.14 - 21.52.58.76.mp4">
								<updatebehavior>add</updatebehavior>
								<name>ArmA 3 2020.11.14 - 21.52.58.76.mp4</name>
								<duration>836</duration>
								<rate>
									<ntsc>FALSE</ntsc>
									<timebase>60</timebase>
								</rate>
								<in>-1</in>
								<out>-1</out>
								<masterclipid>ArmA 3 2020.11.14 - 21.52.58.76.mp4</masterclipid>
								<ismasterclip>TRUE</ismasterclip>
								<logginginfo>
									<scene />
									<shottake />
									<lognote />
									<good>FALSE</good>
								</logginginfo>
								<labels>
									<label2 />
								</labels>
								<comments>
									<mastercomment1 />
									<mastercomment2 />
									<mastercomment3 />
									<mastercomment4 />
								</comments>
								<media>
									<video>
										<track>
											<clipitem id="ArmA 3 2020.11.14 - 21.52.58.76.mp41">
												<name>ArmA 3 2020.11.14 - 21.52.58.76.mp4</name>
												<duration>836</duration>
												<rate>
													<ntsc>FALSE</ntsc>
													<timebase>60</timebase>
												</rate>
												<in>0</in>
												<out>836</out>
												<start>0</start>
												<end>836</end>
												<pixelaspectratio>Square</pixelaspectratio>
												<anamorphic>FALSE</anamorphic>
												<alphatype>none</alphatype>
												<masterclipid>ArmA 3 2020.11.14 - 21.52.58.76.mp4</masterclipid>
												<logginginfo>
													<scene />
													<shottake />
													<lognote />
													<good>FALSE</good>
												</logginginfo>
												<labels>
													<label2 />
												</labels>
												<comments>
													<mastercomment1 />
													<mastercomment2 />
													<mastercomment3 />
													<mastercomment4 />
												</comments>
												<file id="ArmA 3 2020.11.14 - 21.52.58.76">
													<name>ArmA 3 2020.11.14 - 21.52.58.76.mp4</name>
													<pathurl>file://localhost/F:/AMVS Russia/NaturaDestruction/PRPACK5/ArmA 3 2020.11.14 - 21.52.58.76.mp4</pathurl>
													<rate>
														<timebase>60</timebase>
														<ntsc>FALSE</ntsc>
													</rate>
													<duration>836</duration>
													<timecode>
														<rate>
															<timebase>60</timebase>
															<ntsc>FALSE</ntsc>
														</rate>
														<frame>0</frame>
														<displayformat>NDF</displayformat>
														<source>source</source>
													</timecode>
													<media>
														<video>
															<duration>836</duration>
															<samplecharacteristics>
																<width>1920</width>
																<height>1080</height>
															</samplecharacteristics>
														</video>
														<audio>
															<samplecharacteristics>
																<samplerate>48000</samplerate>
																<depth>32</depth>
															</samplecharacteristics>
															<channelcount>1</channelcount>
														</audio>
														<audio>
															<samplecharacteristics>
																<samplerate>48000</samplerate>
																<depth>32</depth>
															</samplecharacteristics>
															<channelcount>1</channelcount>
														</audio>
													</media>
												</file>
												<sourcetrack>
													<mediatype>video</mediatype>
												</sourcetrack>
												<fielddominance>none</fielddominance>
											</clipitem>
											<enabled>TRUE</enabled>
											<locked>FALSE</locked>
										</track>
									</video>
									<audio>
										<track>
											<clipitem id="ArmA 3 2020.11.14 - 21.52.58.76.mp42">
												<name>ArmA 3 2020.11.14 - 21.52.58.76.mp4</name>
												<duration>836</duration>
												<rate>
													<ntsc>TRUE</ntsc>
													<timebase>24</timebase>
												</rate>
												<in>0</in>
												<out>836</out>
												<start>0</start>
												<end>836</end>
												<masterclipid>ArmA 3 2020.11.14 - 21.52.58.76.mp4</masterclipid>
												<logginginfo>
													<scene />
													<shottake />
													<lognote />
													<good>FALSE</good>
												</logginginfo>
												<labels>
													<label2 />
												</labels>
												<comments>
													<mastercomment1 />
													<mastercomment2 />
													<mastercomment3 />
													<mastercomment4 />
												</comments>
												<file id="ArmA 3 2020.11.14 - 21.52.58.76" />
												<sourcetrack>
													<mediatype>audio</mediatype>
												</sourcetrack>
											</clipitem>
											<enabled>TRUE</enabled>
											<locked>FALSE</locked>
										</track>
										<track>
											<clipitem id="ArmA 3 2020.11.14 - 21.52.58.76.mp43">
												<name>ArmA 3 2020.11.14 - 21.52.58.76.mp4</name>
												<duration>836</duration>
												<rate>
													<ntsc>TRUE</ntsc>
													<timebase>24</timebase>
												</rate>
												<in>0</in>
												<out>836</out>
												<start>0</start>
												<end>836</end>
												<masterclipid>ArmA 3 2020.11.14 - 21.52.58.76.mp4</masterclipid>
												<logginginfo>
													<scene />
													<shottake />
													<lognote />
													<good>FALSE</good>
												</logginginfo>
												<labels>
													<label2 />
												</labels>
												<comments>
													<mastercomment1 />
													<mastercomment2 />
													<mastercomment3 />
													<mastercomment4 />
												</comments>
												<file id="ArmA 3 2020.11.14 - 21.52.58.76" />
												<sourcetrack>
													<mediatype>audio</mediatype>
												</sourcetrack>
											</clipitem>
											<enabled>TRUE</enabled>
											<locked>FALSE</locked>
										</track>
									</audio>
								</media>
							</clip>
							<clip id="ArmA 3 2020.11.14 - 21.54.08.77.mp4">
								<updatebehavior>add</updatebehavior>
								<name>ArmA 3 2020.11.14 - 21.54.08.77.mp4</name>
								<duration>1393</duration>
								<rate>
									<ntsc>FALSE</ntsc>
									<timebase>60</timebase>
								</rate>
								<in>-1</in>
								<out>-1</out>
								<masterclipid>ArmA 3 2020.11.14 - 21.54.08.77.mp4</masterclipid>
								<ismasterclip>TRUE</ismasterclip>
								<logginginfo>
									<scene />
									<shottake />
									<lognote />
									<good>FALSE</good>
								</logginginfo>
								<labels>
									<label2 />
								</labels>
								<comments>
									<mastercomment1 />
									<mastercomment2 />
									<mastercomment3 />
									<mastercomment4 />
								</comments>
								<media>
									<video>
										<track>
											<clipitem id="ArmA 3 2020.11.14 - 21.54.08.77.mp41">
												<name>ArmA 3 2020.11.14 - 21.54.08.77.mp4</name>
												<duration>1393</duration>
												<rate>
													<ntsc>FALSE</ntsc>
													<timebase>60</timebase>
												</rate>
												<in>0</in>
												<out>1393</out>
												<start>0</start>
												<end>1393</end>
												<pixelaspectratio>Square</pixelaspectratio>
												<anamorphic>FALSE</anamorphic>
												<alphatype>none</alphatype>
												<masterclipid>ArmA 3 2020.11.14 - 21.54.08.77.mp4</masterclipid>
												<logginginfo>
													<scene />
													<shottake />
													<lognote />
													<good>FALSE</good>
												</logginginfo>
												<labels>
													<label2 />
												</labels>
												<comments>
													<mastercomment1 />
													<mastercomment2 />
													<mastercomment3 />
													<mastercomment4 />
												</comments>
												<file id="ArmA 3 2020.11.14 - 21.54.08.77">
													<name>ArmA 3 2020.11.14 - 21.54.08.77.mp4</name>
													<pathurl>file://localhost/F:/AMVS Russia/NaturaDestruction/PRPACK3/ArmA 3 2020.11.14 - 21.54.08.77.mp4</pathurl>
													<rate>
														<timebase>60</timebase>
														<ntsc>FALSE</ntsc>
													</rate>
													<duration>1393</duration>
													<timecode>
														<rate>
															<timebase>60</timebase>
															<ntsc>FALSE</ntsc>
														</rate>
														<frame>0</frame>
														<displayformat>NDF</displayformat>
														<source>source</source>
													</timecode>
													<media>
														<video>
															<duration>1393</duration>
															<samplecharacteristics>
																<width>1920</width>
																<height>1080</height>
															</samplecharacteristics>
														</video>
														<audio>
															<samplecharacteristics>
																<samplerate>48000</samplerate>
																<depth>32</depth>
															</samplecharacteristics>
															<channelcount>1</channelcount>
														</audio>
														<audio>
															<samplecharacteristics>
																<samplerate>48000</samplerate>
																<depth>32</depth>
															</samplecharacteristics>
															<channelcount>1</channelcount>
														</audio>
													</media>
												</file>
												<sourcetrack>
													<mediatype>video</mediatype>
												</sourcetrack>
												<fielddominance>none</fielddominance>
											</clipitem>
											<enabled>TRUE</enabled>
											<locked>FALSE</locked>
										</track>
									</video>
									<audio>
										<track>
											<clipitem id="ArmA 3 2020.11.14 - 21.54.08.77.mp42">
												<name>ArmA 3 2020.11.14 - 21.54.08.77.mp4</name>
												<duration>1393</duration>
												<rate>
													<ntsc>TRUE</ntsc>
													<timebase>24</timebase>
												</rate>
												<in>0</in>
												<out>1393</out>
												<start>0</start>
												<end>1393</end>
												<masterclipid>ArmA 3 2020.11.14 - 21.54.08.77.mp4</masterclipid>
												<logginginfo>
													<scene />
													<shottake />
													<lognote />
													<good>FALSE</good>
												</logginginfo>
												<labels>
													<label2 />
												</labels>
												<comments>
													<mastercomment1 />
													<mastercomment2 />
													<mastercomment3 />
													<mastercomment4 />
												</comments>
												<file id="ArmA 3 2020.11.14 - 21.54.08.77" />
												<sourcetrack>
													<mediatype>audio</mediatype>
												</sourcetrack>
											</clipitem>
											<enabled>TRUE</enabled>
											<locked>FALSE</locked>
										</track>
										<track>
											<clipitem id="ArmA 3 2020.11.14 - 21.54.08.77.mp43">
												<name>ArmA 3 2020.11.14 - 21.54.08.77.mp4</name>
												<duration>1393</duration>
												<rate>
													<ntsc>TRUE</ntsc>
													<timebase>24</timebase>
												</rate>
												<in>0</in>
												<out>1393</out>
												<start>0</start>
												<end>1393</end>
												<masterclipid>ArmA 3 2020.11.14 - 21.54.08.77.mp4</masterclipid>
												<logginginfo>
													<scene />
													<shottake />
													<lognote />
													<good>FALSE</good>
												</logginginfo>
												<labels>
													<label2 />
												</labels>
												<comments>
													<mastercomment1 />
													<mastercomment2 />
													<mastercomment3 />
													<mastercomment4 />
												</comments>
												<file id="ArmA 3 2020.11.14 - 21.54.08.77" />
												<sourcetrack>
													<mediatype>audio</mediatype>
												</sourcetrack>
											</clipitem>
											<enabled>TRUE</enabled>
											<locked>FALSE</locked>
										</track>
									</audio>
								</media>
							</clip>
							<clip id="ArmA 3 2020.11.14 - 21.55.34.78.mp4">
								<updatebehavior>add</updatebehavior>
								<name>ArmA 3 2020.11.14 - 21.55.34.78.mp4</name>
								<duration>841</duration>
								<rate>
									<ntsc>FALSE</ntsc>
									<timebase>60</timebase>
								</rate>
								<in>-1</in>
								<out>-1</out>
								<masterclipid>ArmA 3 2020.11.14 - 21.55.34.78.mp4</masterclipid>
								<ismasterclip>TRUE</ismasterclip>
								<logginginfo>
									<scene />
									<shottake />
									<lognote />
									<good>FALSE</good>
								</logginginfo>
								<labels>
									<label2 />
								</labels>
								<comments>
									<mastercomment1 />
									<mastercomment2 />
									<mastercomment3 />
									<mastercomment4 />
								</comments>
								<media>
									<video>
										<track>
											<clipitem id="ArmA 3 2020.11.14 - 21.55.34.78.mp41">
												<name>ArmA 3 2020.11.14 - 21.55.34.78.mp4</name>
												<duration>841</duration>
												<rate>
													<ntsc>FALSE</ntsc>
													<timebase>60</timebase>
												</rate>
												<in>0</in>
												<out>841</out>
												<start>0</start>
												<end>841</end>
												<pixelaspectratio>Square</pixelaspectratio>
												<anamorphic>FALSE</anamorphic>
												<alphatype>none</alphatype>
												<masterclipid>ArmA 3 2020.11.14 - 21.55.34.78.mp4</masterclipid>
												<logginginfo>
													<scene />
													<shottake />
													<lognote />
													<good>FALSE</good>
												</logginginfo>
												<labels>
													<label2 />
												</labels>
												<comments>
													<mastercomment1 />
													<mastercomment2 />
													<mastercomment3 />
													<mastercomment4 />
												</comments>
												<file id="ArmA 3 2020.11.14 - 21.55.34.78">
													<name>ArmA 3 2020.11.14 - 21.55.34.78.mp4</name>
													<pathurl>file://localhost/F:/AMVS Russia/NaturaDestruction/PRPACK5/ArmA 3 2020.11.14 - 21.55.34.78.mp4</pathurl>
													<rate>
														<timebase>60</timebase>
														<ntsc>FALSE</ntsc>
													</rate>
													<duration>841</duration>
													<timecode>
														<rate>
															<timebase>60</timebase>
															<ntsc>FALSE</ntsc>
														</rate>
														<frame>0</frame>
														<displayformat>NDF</displayformat>
														<source>source</source>
													</timecode>
													<media>
														<video>
															<duration>841</duration>
															<samplecharacteristics>
																<width>1920</width>
																<height>1080</height>
															</samplecharacteristics>
														</video>
														<audio>
															<samplecharacteristics>
																<samplerate>48000</samplerate>
																<depth>32</depth>
															</samplecharacteristics>
															<channelcount>1</channelcount>
														</audio>
														<audio>
															<samplecharacteristics>
																<samplerate>48000</samplerate>
																<depth>32</depth>
															</samplecharacteristics>
															<channelcount>1</channelcount>
														</audio>
													</media>
												</file>
												<sourcetrack>
													<mediatype>video</mediatype>
												</sourcetrack>
												<fielddominance>none</fielddominance>
											</clipitem>
											<enabled>TRUE</enabled>
											<locked>FALSE</locked>
										</track>
									</video>
									<audio>
										<track>
											<clipitem id="ArmA 3 2020.11.14 - 21.55.34.78.mp42">
												<name>ArmA 3 2020.11.14 - 21.55.34.78.mp4</name>
												<duration>841</duration>
												<rate>
													<ntsc>TRUE</ntsc>
													<timebase>24</timebase>
												</rate>
												<in>0</in>
												<out>841</out>
												<start>0</start>
												<end>841</end>
												<masterclipid>ArmA 3 2020.11.14 - 21.55.34.78.mp4</masterclipid>
												<logginginfo>
													<scene />
													<shottake />
													<lognote />
													<good>FALSE</good>
												</logginginfo>
												<labels>
													<label2 />
												</labels>
												<comments>
													<mastercomment1 />
													<mastercomment2 />
													<mastercomment3 />
													<mastercomment4 />
												</comments>
												<file id="ArmA 3 2020.11.14 - 21.55.34.78" />
												<sourcetrack>
													<mediatype>audio</mediatype>
												</sourcetrack>
											</clipitem>
											<enabled>TRUE</enabled>
											<locked>FALSE</locked>
										</track>
										<track>
											<clipitem id="ArmA 3 2020.11.14 - 21.55.34.78.mp43">
												<name>ArmA 3 2020.11.14 - 21.55.34.78.mp4</name>
												<duration>841</duration>
												<rate>
													<ntsc>TRUE</ntsc>
													<timebase>24</timebase>
												</rate>
												<in>0</in>
												<out>841</out>
												<start>0</start>
												<end>841</end>
												<masterclipid>ArmA 3 2020.11.14 - 21.55.34.78.mp4</masterclipid>
												<logginginfo>
													<scene />
													<shottake />
													<lognote />
													<good>FALSE</good>
												</logginginfo>
												<labels>
													<label2 />
												</labels>
												<comments>
													<mastercomment1 />
													<mastercomment2 />
													<mastercomment3 />
													<mastercomment4 />
												</comments>
												<file id="ArmA 3 2020.11.14 - 21.55.34.78" />
												<sourcetrack>
													<mediatype>audio</mediatype>
												</sourcetrack>
											</clipitem>
											<enabled>TRUE</enabled>
											<locked>FALSE</locked>
										</track>
									</audio>
								</media>
							</clip>
							<clip id="ArmA 3 2020.11.14 - 21.57.02.79.mp4">
								<updatebehavior>add</updatebehavior>
								<name>ArmA 3 2020.11.14 - 21.57.02.79.mp4</name>
								<duration>1044</duration>
								<rate>
									<ntsc>FALSE</ntsc>
									<timebase>60</timebase>
								</rate>
								<in>-1</in>
								<out>-1</out>
								<masterclipid>ArmA 3 2020.11.14 - 21.57.02.79.mp4</masterclipid>
								<ismasterclip>TRUE</ismasterclip>
								<logginginfo>
									<scene />
									<shottake />
									<lognote />
									<good>FALSE</good>
								</logginginfo>
								<labels>
									<label2 />
								</labels>
								<comments>
									<mastercomment1 />
									<mastercomment2 />
									<mastercomment3 />
									<mastercomment4 />
								</comments>
								<media>
									<video>
										<track>
											<clipitem id="ArmA 3 2020.11.14 - 21.57.02.79.mp41">
												<name>ArmA 3 2020.11.14 - 21.57.02.79.mp4</name>
												<duration>1044</duration>
												<rate>
													<ntsc>FALSE</ntsc>
													<timebase>60</timebase>
												</rate>
												<in>0</in>
												<out>1044</out>
												<start>0</start>
												<end>1044</end>
												<pixelaspectratio>Square</pixelaspectratio>
												<anamorphic>FALSE</anamorphic>
												<alphatype>none</alphatype>
												<masterclipid>ArmA 3 2020.11.14 - 21.57.02.79.mp4</masterclipid>
												<logginginfo>
													<scene />
													<shottake />
													<lognote />
													<good>FALSE</good>
												</logginginfo>
												<labels>
													<label2 />
												</labels>
												<comments>
													<mastercomment1 />
													<mastercomment2 />
													<mastercomment3 />
													<mastercomment4 />
												</comments>
												<file id="ArmA 3 2020.11.14 - 21.57.02.79">
													<name>ArmA 3 2020.11.14 - 21.57.02.79.mp4</name>
													<pathurl>file://localhost/F:/AMVS Russia/NaturaDestruction/PRPACK4/ArmA 3 2020.11.14 - 21.57.02.79.mp4</pathurl>
													<rate>
														<timebase>60</timebase>
														<ntsc>FALSE</ntsc>
													</rate>
													<duration>1044</duration>
													<timecode>
														<rate>
															<timebase>60</timebase>
															<ntsc>FALSE</ntsc>
														</rate>
														<frame>0</frame>
														<displayformat>NDF</displayformat>
														<source>source</source>
													</timecode>
													<media>
														<video>
															<duration>1044</duration>
															<samplecharacteristics>
																<width>1920</width>
																<height>1080</height>
															</samplecharacteristics>
														</video>
														<audio>
															<samplecharacteristics>
																<samplerate>48000</samplerate>
																<depth>32</depth>
															</samplecharacteristics>
															<channelcount>1</channelcount>
														</audio>
														<audio>
															<samplecharacteristics>
																<samplerate>48000</samplerate>
																<depth>32</depth>
															</samplecharacteristics>
															<channelcount>1</channelcount>
														</audio>
													</media>
												</file>
												<sourcetrack>
													<mediatype>video</mediatype>
												</sourcetrack>
												<fielddominance>none</fielddominance>
											</clipitem>
											<enabled>TRUE</enabled>
											<locked>FALSE</locked>
										</track>
									</video>
									<audio>
										<track>
											<clipitem id="ArmA 3 2020.11.14 - 21.57.02.79.mp42">
												<name>ArmA 3 2020.11.14 - 21.57.02.79.mp4</name>
												<duration>1044</duration>
												<rate>
													<ntsc>TRUE</ntsc>
													<timebase>24</timebase>
												</rate>
												<in>0</in>
												<out>1044</out>
												<start>0</start>
												<end>1044</end>
												<masterclipid>ArmA 3 2020.11.14 - 21.57.02.79.mp4</masterclipid>
												<logginginfo>
													<scene />
													<shottake />
													<lognote />
													<good>FALSE</good>
												</logginginfo>
												<labels>
													<label2 />
												</labels>
												<comments>
													<mastercomment1 />
													<mastercomment2 />
													<mastercomment3 />
													<mastercomment4 />
												</comments>
												<file id="ArmA 3 2020.11.14 - 21.57.02.79" />
												<sourcetrack>
													<mediatype>audio</mediatype>
												</sourcetrack>
											</clipitem>
											<enabled>TRUE</enabled>
											<locked>FALSE</locked>
										</track>
										<track>
											<clipitem id="ArmA 3 2020.11.14 - 21.57.02.79.mp43">
												<name>ArmA 3 2020.11.14 - 21.57.02.79.mp4</name>
												<duration>1044</duration>
												<rate>
													<ntsc>TRUE</ntsc>
													<timebase>24</timebase>
												</rate>
												<in>0</in>
												<out>1044</out>
												<start>0</start>
												<end>1044</end>
												<masterclipid>ArmA 3 2020.11.14 - 21.57.02.79.mp4</masterclipid>
												<logginginfo>
													<scene />
													<shottake />
													<lognote />
													<good>FALSE</good>
												</logginginfo>
												<labels>
													<label2 />
												</labels>
												<comments>
													<mastercomment1 />
													<mastercomment2 />
													<mastercomment3 />
													<mastercomment4 />
												</comments>
												<file id="ArmA 3 2020.11.14 - 21.57.02.79" />
												<sourcetrack>
													<mediatype>audio</mediatype>
												</sourcetrack>
											</clipitem>
											<enabled>TRUE</enabled>
											<locked>FALSE</locked>
										</track>
									</audio>
								</media>
							</clip>
							<clip id="ArmA 3 2020.11.14 - 22.07.31.81.mp4">
								<updatebehavior>add</updatebehavior>
								<name>ArmA 3 2020.11.14 - 22.07.31.81.mp4</name>
								<duration>1271</duration>
								<rate>
									<ntsc>FALSE</ntsc>
									<timebase>60</timebase>
								</rate>
								<in>-1</in>
								<out>-1</out>
								<masterclipid>ArmA 3 2020.11.14 - 22.07.31.81.mp4</masterclipid>
								<ismasterclip>TRUE</ismasterclip>
								<logginginfo>
									<scene />
									<shottake />
									<lognote />
									<good>FALSE</good>
								</logginginfo>
								<labels>
									<label2 />
								</labels>
								<comments>
									<mastercomment1 />
									<mastercomment2 />
									<mastercomment3 />
									<mastercomment4 />
								</comments>
								<media>
									<video>
										<track>
											<clipitem id="ArmA 3 2020.11.14 - 22.07.31.81.mp41">
												<name>ArmA 3 2020.11.14 - 22.07.31.81.mp4</name>
												<duration>1271</duration>
												<rate>
													<ntsc>FALSE</ntsc>
													<timebase>60</timebase>
												</rate>
												<in>0</in>
												<out>1271</out>
												<start>0</start>
												<end>1271</end>
												<pixelaspectratio>Square</pixelaspectratio>
												<anamorphic>FALSE</anamorphic>
												<alphatype>none</alphatype>
												<masterclipid>ArmA 3 2020.11.14 - 22.07.31.81.mp4</masterclipid>
												<logginginfo>
													<scene />
													<shottake />
													<lognote />
													<good>FALSE</good>
												</logginginfo>
												<labels>
													<label2 />
												</labels>
												<comments>
													<mastercomment1 />
													<mastercomment2 />
													<mastercomment3 />
													<mastercomment4 />
												</comments>
												<file id="ArmA 3 2020.11.14 - 22.07.31.81">
													<name>ArmA 3 2020.11.14 - 22.07.31.81.mp4</name>
													<pathurl>file://localhost/F:/AMVS Russia/NaturaDestruction/PRPACK4/ArmA 3 2020.11.14 - 22.07.31.81.mp4</pathurl>
													<rate>
														<timebase>60</timebase>
														<ntsc>FALSE</ntsc>
													</rate>
													<duration>1271</duration>
													<timecode>
														<rate>
															<timebase>60</timebase>
															<ntsc>FALSE</ntsc>
														</rate>
														<frame>0</frame>
														<displayformat>NDF</displayformat>
														<source>source</source>
													</timecode>
													<media>
														<video>
															<duration>1271</duration>
															<samplecharacteristics>
																<width>1920</width>
																<height>1080</height>
															</samplecharacteristics>
														</video>
														<audio>
															<samplecharacteristics>
																<samplerate>48000</samplerate>
																<depth>32</depth>
															</samplecharacteristics>
															<channelcount>1</channelcount>
														</audio>
														<audio>
															<samplecharacteristics>
																<samplerate>48000</samplerate>
																<depth>32</depth>
															</samplecharacteristics>
															<channelcount>1</channelcount>
														</audio>
													</media>
												</file>
												<sourcetrack>
													<mediatype>video</mediatype>
												</sourcetrack>
												<fielddominance>none</fielddominance>
											</clipitem>
											<enabled>TRUE</enabled>
											<locked>FALSE</locked>
										</track>
									</video>
									<audio>
										<track>
											<clipitem id="ArmA 3 2020.11.14 - 22.07.31.81.mp42">
												<name>ArmA 3 2020.11.14 - 22.07.31.81.mp4</name>
												<duration>1267</duration>
												<rate>
													<ntsc>TRUE</ntsc>
													<timebase>24</timebase>
												</rate>
												<in>0</in>
												<out>1267</out>
												<start>0</start>
												<end>1267</end>
												<masterclipid>ArmA 3 2020.11.14 - 22.07.31.81.mp4</masterclipid>
												<logginginfo>
													<scene />
													<shottake />
													<lognote />
													<good>FALSE</good>
												</logginginfo>
												<labels>
													<label2 />
												</labels>
												<comments>
													<mastercomment1 />
													<mastercomment2 />
													<mastercomment3 />
													<mastercomment4 />
												</comments>
												<file id="ArmA 3 2020.11.14 - 22.07.31.81" />
												<sourcetrack>
													<mediatype>audio</mediatype>
												</sourcetrack>
											</clipitem>
											<enabled>TRUE</enabled>
											<locked>FALSE</locked>
										</track>
										<track>
											<clipitem id="ArmA 3 2020.11.14 - 22.07.31.81.mp43">
												<name>ArmA 3 2020.11.14 - 22.07.31.81.mp4</name>
												<duration>1267</duration>
												<rate>
													<ntsc>TRUE</ntsc>
													<timebase>24</timebase>
												</rate>
												<in>0</in>
												<out>1267</out>
												<start>0</start>
												<end>1267</end>
												<masterclipid>ArmA 3 2020.11.14 - 22.07.31.81.mp4</masterclipid>
												<logginginfo>
													<scene />
													<shottake />
													<lognote />
													<good>FALSE</good>
												</logginginfo>
												<labels>
													<label2 />
												</labels>
												<comments>
													<mastercomment1 />
													<mastercomment2 />
													<mastercomment3 />
													<mastercomment4 />
												</comments>
												<file id="ArmA 3 2020.11.14 - 22.07.31.81" />
												<sourcetrack>
													<mediatype>audio</mediatype>
												</sourcetrack>
											</clipitem>
											<enabled>TRUE</enabled>
											<locked>FALSE</locked>
										</track>
									</audio>
								</media>
							</clip>
							<clip id="ArmA 3 2020.11.14 - 22.08.38.82.mp4">
								<updatebehavior>add</updatebehavior>
								<name>ArmA 3 2020.11.14 - 22.08.38.82.mp4</name>
								<duration>933</duration>
								<rate>
									<ntsc>FALSE</ntsc>
									<timebase>60</timebase>
								</rate>
								<in>-1</in>
								<out>-1</out>
								<masterclipid>ArmA 3 2020.11.14 - 22.08.38.82.mp4</masterclipid>
								<ismasterclip>TRUE</ismasterclip>
								<logginginfo>
									<scene />
									<shottake />
									<lognote />
									<good>FALSE</good>
								</logginginfo>
								<labels>
									<label2 />
								</labels>
								<comments>
									<mastercomment1 />
									<mastercomment2 />
									<mastercomment3 />
									<mastercomment4 />
								</comments>
								<media>
									<video>
										<track>
											<clipitem id="ArmA 3 2020.11.14 - 22.08.38.82.mp41">
												<name>ArmA 3 2020.11.14 - 22.08.38.82.mp4</name>
												<duration>933</duration>
												<rate>
													<ntsc>FALSE</ntsc>
													<timebase>60</timebase>
												</rate>
												<in>0</in>
												<out>933</out>
												<start>0</start>
												<end>933</end>
												<pixelaspectratio>Square</pixelaspectratio>
												<anamorphic>FALSE</anamorphic>
												<alphatype>none</alphatype>
												<masterclipid>ArmA 3 2020.11.14 - 22.08.38.82.mp4</masterclipid>
												<logginginfo>
													<scene />
													<shottake />
													<lognote />
													<good>FALSE</good>
												</logginginfo>
												<labels>
													<label2 />
												</labels>
												<comments>
													<mastercomment1 />
													<mastercomment2 />
													<mastercomment3 />
													<mastercomment4 />
												</comments>
												<file id="ArmA 3 2020.11.14 - 22.08.38.82">
													<name>ArmA 3 2020.11.14 - 22.08.38.82.mp4</name>
													<pathurl>file://localhost/F:/AMVS Russia/NaturaDestruction/PRPACK4/ArmA 3 2020.11.14 - 22.08.38.82.mp4</pathurl>
													<rate>
														<timebase>60</timebase>
														<ntsc>FALSE</ntsc>
													</rate>
													<duration>933</duration>
													<timecode>
														<rate>
															<timebase>60</timebase>
															<ntsc>FALSE</ntsc>
														</rate>
														<frame>0</frame>
														<displayformat>NDF</displayformat>
														<source>source</source>
													</timecode>
													<media>
														<video>
															<duration>933</duration>
															<samplecharacteristics>
																<width>1920</width>
																<height>1080</height>
															</samplecharacteristics>
														</video>
														<audio>
															<samplecharacteristics>
																<samplerate>48000</samplerate>
																<depth>32</depth>
															</samplecharacteristics>
															<channelcount>1</channelcount>
														</audio>
														<audio>
															<samplecharacteristics>
																<samplerate>48000</samplerate>
																<depth>32</depth>
															</samplecharacteristics>
															<channelcount>1</channelcount>
														</audio>
													</media>
												</file>
												<sourcetrack>
													<mediatype>video</mediatype>
												</sourcetrack>
												<fielddominance>none</fielddominance>
											</clipitem>
											<enabled>TRUE</enabled>
											<locked>FALSE</locked>
										</track>
									</video>
									<audio>
										<track>
											<clipitem id="ArmA 3 2020.11.14 - 22.08.38.82.mp42">
												<name>ArmA 3 2020.11.14 - 22.08.38.82.mp4</name>
												<duration>933</duration>
												<rate>
													<ntsc>TRUE</ntsc>
													<timebase>24</timebase>
												</rate>
												<in>0</in>
												<out>933</out>
												<start>0</start>
												<end>933</end>
												<masterclipid>ArmA 3 2020.11.14 - 22.08.38.82.mp4</masterclipid>
												<logginginfo>
													<scene />
													<shottake />
													<lognote />
													<good>FALSE</good>
												</logginginfo>
												<labels>
													<label2 />
												</labels>
												<comments>
													<mastercomment1 />
													<mastercomment2 />
													<mastercomment3 />
													<mastercomment4 />
												</comments>
												<file id="ArmA 3 2020.11.14 - 22.08.38.82" />
												<sourcetrack>
													<mediatype>audio</mediatype>
												</sourcetrack>
											</clipitem>
											<enabled>TRUE</enabled>
											<locked>FALSE</locked>
										</track>
										<track>
											<clipitem id="ArmA 3 2020.11.14 - 22.08.38.82.mp43">
												<name>ArmA 3 2020.11.14 - 22.08.38.82.mp4</name>
												<duration>933</duration>
												<rate>
													<ntsc>TRUE</ntsc>
													<timebase>24</timebase>
												</rate>
												<in>0</in>
												<out>933</out>
												<start>0</start>
												<end>933</end>
												<masterclipid>ArmA 3 2020.11.14 - 22.08.38.82.mp4</masterclipid>
												<logginginfo>
													<scene />
													<shottake />
													<lognote />
													<good>FALSE</good>
												</logginginfo>
												<labels>
													<label2 />
												</labels>
												<comments>
													<mastercomment1 />
													<mastercomment2 />
													<mastercomment3 />
													<mastercomment4 />
												</comments>
												<file id="ArmA 3 2020.11.14 - 22.08.38.82" />
												<sourcetrack>
													<mediatype>audio</mediatype>
												</sourcetrack>
											</clipitem>
											<enabled>TRUE</enabled>
											<locked>FALSE</locked>
										</track>
									</audio>
								</media>
							</clip>
							<clip id="ArmA 3 2020.11.14 - 22.09.53.83.mp4">
								<updatebehavior>add</updatebehavior>
								<name>ArmA 3 2020.11.14 - 22.09.53.83.mp4</name>
								<duration>925</duration>
								<rate>
									<ntsc>FALSE</ntsc>
									<timebase>60</timebase>
								</rate>
								<in>-1</in>
								<out>-1</out>
								<masterclipid>ArmA 3 2020.11.14 - 22.09.53.83.mp4</masterclipid>
								<ismasterclip>TRUE</ismasterclip>
								<logginginfo>
									<scene />
									<shottake />
									<lognote />
									<good>FALSE</good>
								</logginginfo>
								<labels>
									<label2 />
								</labels>
								<comments>
									<mastercomment1 />
									<mastercomment2 />
									<mastercomment3 />
									<mastercomment4 />
								</comments>
								<media>
									<video>
										<track>
											<clipitem id="ArmA 3 2020.11.14 - 22.09.53.83.mp41">
												<name>ArmA 3 2020.11.14 - 22.09.53.83.mp4</name>
												<duration>925</duration>
												<rate>
													<ntsc>FALSE</ntsc>
													<timebase>60</timebase>
												</rate>
												<in>0</in>
												<out>925</out>
												<start>0</start>
												<end>925</end>
												<pixelaspectratio>Square</pixelaspectratio>
												<anamorphic>FALSE</anamorphic>
												<alphatype>none</alphatype>
												<masterclipid>ArmA 3 2020.11.14 - 22.09.53.83.mp4</masterclipid>
												<logginginfo>
													<scene />
													<shottake />
													<lognote />
													<good>FALSE</good>
												</logginginfo>
												<labels>
													<label2 />
												</labels>
												<comments>
													<mastercomment1 />
													<mastercomment2 />
													<mastercomment3 />
													<mastercomment4 />
												</comments>
												<file id="ArmA 3 2020.11.14 - 22.09.53.83">
													<name>ArmA 3 2020.11.14 - 22.09.53.83.mp4</name>
													<pathurl>file://localhost/F:/AMVS Russia/NaturaDestruction/PRPACK4/ArmA 3 2020.11.14 - 22.09.53.83.mp4</pathurl>
													<rate>
														<timebase>60</timebase>
														<ntsc>FALSE</ntsc>
													</rate>
													<duration>925</duration>
													<timecode>
														<rate>
															<timebase>60</timebase>
															<ntsc>FALSE</ntsc>
														</rate>
														<frame>0</frame>
														<displayformat>NDF</displayformat>
														<source>source</source>
													</timecode>
													<media>
														<video>
															<duration>925</duration>
															<samplecharacteristics>
																<width>1920</width>
																<height>1080</height>
															</samplecharacteristics>
														</video>
														<audio>
															<samplecharacteristics>
																<samplerate>48000</samplerate>
																<depth>32</depth>
															</samplecharacteristics>
															<channelcount>1</channelcount>
														</audio>
														<audio>
															<samplecharacteristics>
																<samplerate>48000</samplerate>
																<depth>32</depth>
															</samplecharacteristics>
															<channelcount>1</channelcount>
														</audio>
													</media>
												</file>
												<sourcetrack>
													<mediatype>video</mediatype>
												</sourcetrack>
												<fielddominance>none</fielddominance>
											</clipitem>
											<enabled>TRUE</enabled>
											<locked>FALSE</locked>
										</track>
									</video>
									<audio>
										<track>
											<clipitem id="ArmA 3 2020.11.14 - 22.09.53.83.mp42">
												<name>ArmA 3 2020.11.14 - 22.09.53.83.mp4</name>
												<duration>925</duration>
												<rate>
													<ntsc>TRUE</ntsc>
													<timebase>24</timebase>
												</rate>
												<in>0</in>
												<out>925</out>
												<start>0</start>
												<end>925</end>
												<masterclipid>ArmA 3 2020.11.14 - 22.09.53.83.mp4</masterclipid>
												<logginginfo>
													<scene />
													<shottake />
													<lognote />
													<good>FALSE</good>
												</logginginfo>
												<labels>
													<label2 />
												</labels>
												<comments>
													<mastercomment1 />
													<mastercomment2 />
													<mastercomment3 />
													<mastercomment4 />
												</comments>
												<file id="ArmA 3 2020.11.14 - 22.09.53.83" />
												<sourcetrack>
													<mediatype>audio</mediatype>
												</sourcetrack>
											</clipitem>
											<enabled>TRUE</enabled>
											<locked>FALSE</locked>
										</track>
										<track>
											<clipitem id="ArmA 3 2020.11.14 - 22.09.53.83.mp43">
												<name>ArmA 3 2020.11.14 - 22.09.53.83.mp4</name>
												<duration>925</duration>
												<rate>
													<ntsc>TRUE</ntsc>
													<timebase>24</timebase>
												</rate>
												<in>0</in>
												<out>925</out>
												<start>0</start>
												<end>925</end>
												<masterclipid>ArmA 3 2020.11.14 - 22.09.53.83.mp4</masterclipid>
												<logginginfo>
													<scene />
													<shottake />
													<lognote />
													<good>FALSE</good>
												</logginginfo>
												<labels>
													<label2 />
												</labels>
												<comments>
													<mastercomment1 />
													<mastercomment2 />
													<mastercomment3 />
													<mastercomment4 />
												</comments>
												<file id="ArmA 3 2020.11.14 - 22.09.53.83" />
												<sourcetrack>
													<mediatype>audio</mediatype>
												</sourcetrack>
											</clipitem>
											<enabled>TRUE</enabled>
											<locked>FALSE</locked>
										</track>
									</audio>
								</media>
							</clip>
						</children>
					</bin>
					<bin>
						<updatebehavior>add</updatebehavior>
						<name>Voiceover</name>
						<children>
							<clip id="PR_Abu_Sc07.ogg">
								<updatebehavior>add</updatebehavior>
								<name>PR_Abu_Sc07.ogg</name>
								<duration>0</duration>
								<rate>
									<ntsc>TRUE</ntsc>
									<timebase>24</timebase>
								</rate>
								<in>-1</in>
								<out>-1</out>
								<masterclipid>PR_Abu_Sc07.ogg</masterclipid>
								<ismasterclip>TRUE</ismasterclip>
								<logginginfo>
									<scene />
									<shottake />
									<lognote />
									<good>FALSE</good>
								</logginginfo>
								<labels>
									<label2 />
								</labels>
								<comments>
									<mastercomment1 />
									<mastercomment2 />
									<mastercomment3 />
									<mastercomment4 />
								</comments>
								<media>
									<video />
									<audio />
								</media>
							</clip>
							<clip id="PR_Sanya_Sc07.ogg">
								<updatebehavior>add</updatebehavior>
								<name>PR_Sanya_Sc07.ogg</name>
								<duration>0</duration>
								<rate>
									<ntsc>TRUE</ntsc>
									<timebase>24</timebase>
								</rate>
								<in>-1</in>
								<out>-1</out>
								<masterclipid>PR_Sanya_Sc07.ogg</masterclipid>
								<ismasterclip>TRUE</ismasterclip>
								<logginginfo>
									<scene />
									<shottake />
									<lognote />
									<good>FALSE</good>
								</logginginfo>
								<labels>
									<label2 />
								</labels>
								<comments>
									<mastercomment1 />
									<mastercomment2 />
									<mastercomment3 />
									<mastercomment4 />
								</comments>
								<media>
									<video />
									<audio />
								</media>
							</clip>
							<clip id="PR_Shingis_CONT_SC07.ogg">
								<updatebehavior>add</updatebehavior>
								<name>PR_Shingis_CONT_SC07.ogg</name>
								<duration>0</duration>
								<rate>
									<ntsc>TRUE</ntsc>
									<timebase>24</timebase>
								</rate>
								<in>-1</in>
								<out>-1</out>
								<masterclipid>PR_Shingis_CONT_SC07.ogg</masterclipid>
								<ismasterclip>TRUE</ismasterclip>
								<logginginfo>
									<scene />
									<shottake />
									<lognote />
									<good>FALSE</good>
								</logginginfo>
								<labels>
									<label2 />
								</labels>
								<comments>
									<mastercomment1 />
									<mastercomment2 />
									<mastercomment3 />
									<mastercomment4 />
								</comments>
								<media>
									<video />
									<audio />
								</media>
							</clip>
							<clip id="PR_Shingis_Sc07.ogg">
								<updatebehavior>add</updatebehavior>
								<name>PR_Shingis_Sc07.ogg</name>
								<duration>0</duration>
								<rate>
									<ntsc>TRUE</ntsc>
									<timebase>24</timebase>
								</rate>
								<in>-1</in>
								<out>-1</out>
								<masterclipid>PR_Shingis_Sc07.ogg</masterclipid>
								<ismasterclip>TRUE</ismasterclip>
								<logginginfo>
									<scene />
									<shottake />
									<lognote />
									<good>FALSE</good>
								</logginginfo>
								<labels>
									<label2 />
								</labels>
								<comments>
									<mastercomment1 />
									<mastercomment2 />
									<mastercomment3 />
									<mastercomment4 />
								</comments>
								<media>
									<video />
									<audio />
								</media>
							</clip>
							<clip id="PR_ABUGUARD.ogg">
								<updatebehavior>add</updatebehavior>
								<name>PR_ABUGUARD.ogg</name>
								<duration>2935</duration>
								<rate>
									<ntsc>TRUE</ntsc>
									<timebase>24</timebase>
								</rate>
								<in>-1</in>
								<out>-1</out>
								<masterclipid>PR_ABUGUARD.ogg</masterclipid>
								<ismasterclip>TRUE</ismasterclip>
								<logginginfo>
									<scene />
									<shottake />
									<lognote />
									<good>FALSE</good>
								</logginginfo>
								<labels>
									<label2 />
								</labels>
								<comments>
									<mastercomment1 />
									<mastercomment2 />
									<mastercomment3 />
									<mastercomment4 />
								</comments>
								<media>
									<video />
									<audio>
										<track>
											<clipitem id="PR_ABUGUARD.ogg1">
												<name>PR_ABUGUARD.ogg</name>
												<duration>2935</duration>
												<rate>
													<ntsc>TRUE</ntsc>
													<timebase>24</timebase>
												</rate>
												<in>0</in>
												<out>2935</out>
												<start>0</start>
												<end>2935</end>
												<masterclipid>PR_ABUGUARD.ogg</masterclipid>
												<logginginfo>
													<scene />
													<shottake />
													<lognote />
													<good>FALSE</good>
												</logginginfo>
												<labels>
													<label2 />
												</labels>
												<comments>
													<mastercomment1 />
													<mastercomment2 />
													<mastercomment3 />
													<mastercomment4 />
												</comments>
												<file id="PR_ABUGUARD">
													<name>PR_ABUGUARD.ogg</name>
													<pathurl>file://localhost/F:/AMVS Russia/NaturaDestruction/PRPACKVOICES/PR_ABUGUARD.ogg</pathurl>
													<rate>
														<timebase>24</timebase>
														<ntsc>TRUE</ntsc>
													</rate>
													<duration>2935</duration>
													<timecode>
														<rate>
															<timebase>24</timebase>
															<ntsc>TRUE</ntsc>
														</rate>
														<frame>0</frame>
														<displayformat>DF</displayformat>
														<source>source</source>
													</timecode>
													<media>
														<audio>
															<samplecharacteristics>
																<samplerate>48000</samplerate>
																<depth>16</depth>
															</samplecharacteristics>
															<channelcount>1</channelcount>
														</audio>
														<audio>
															<samplecharacteristics>
																<samplerate>48000</samplerate>
																<depth>16</depth>
															</samplecharacteristics>
															<channelcount>1</channelcount>
														</audio>
													</media>
												</file>
												<sourcetrack>
													<mediatype>audio</mediatype>
												</sourcetrack>
											</clipitem>
											<enabled>TRUE</enabled>
											<locked>FALSE</locked>
										</track>
										<track>
											<clipitem id="PR_ABUGUARD.ogg2">
												<name>PR_ABUGUARD.ogg</name>
												<duration>2935</duration>
												<rate>
													<ntsc>TRUE</ntsc>
													<timebase>24</timebase>
												</rate>
												<in>0</in>
												<out>2935</out>
												<start>0</start>
												<end>2935</end>
												<masterclipid>PR_ABUGUARD.ogg</masterclipid>
												<logginginfo>
													<scene />
													<shottake />
													<lognote />
													<good>FALSE</good>
												</logginginfo>
												<labels>
													<label2 />
												</labels>
												<comments>
													<mastercomment1 />
													<mastercomment2 />
													<mastercomment3 />
													<mastercomment4 />
												</comments>
												<file id="PR_ABUGUARD" />
												<sourcetrack>
													<mediatype>audio</mediatype>
												</sourcetrack>
											</clipitem>
											<enabled>TRUE</enabled>
											<locked>FALSE</locked>
										</track>
									</audio>
								</media>
							</clip>
						</children>
					</bin>
					<bin>
						<updatebehavior>add</updatebehavior>
						<name>Music</name>
						<children />
					</bin>
				</children>
			</bin>
			<sequence id="Sequence 1">
				<updatebehavior>add</updatebehavior>
				<name>Sequence 1</name>
				<duration>55472</duration>
				<rate>
					<ntsc>TRUE</ntsc>
					<timebase>24</timebase>
				</rate>
				<timecode>
					<rate>
						<ntsc>TRUE</ntsc>
						<timebase>24</timebase>
					</rate>
					<frame>86313</frame>
					<source>source</source>
					<displayformat>DF</displayformat>
				</timecode>
				<in>-1</in>
				<out>-1</out>
				<media>
					<video>
						<format>
							<samplecharacteristics>
								<width>1920</width>
								<height>1080</height>
								<pixelaspectratio>Square</pixelaspectratio>
								<anamorphic>FALSE</anamorphic>
								<fielddominance>none</fielddominance>
								<rate>
									<ntsc>TRUE</ntsc>
									<timebase>24</timebase>
								</rate>
								<colordepth>24</colordepth>
								<codec>
									<appspecificdata>
										<data>
											<qtcodec>
												<codectypecode>avc1</codectypecode>
											</qtcodec>
										</data>
										<appname>Final Cut Pro</appname>
										<appmanufacturer>Apple Inc.</appmanufacturer>
										<appversion>7.0</appversion>
									</appspecificdata>
								</codec>
							</samplecharacteristics>
						</format>
						<track>
							<clipitem id="ArmA 3 2020.11.14 - 20.19.25.25.mp4805307592">
								<name>ArmA 3 2020.11.14 - 20.19.25.25.mp4</name>
								<duration>93</duration>
								<rate>
									<ntsc>FALSE</ntsc>
									<timebase>60</timebase>
								</rate>
								<in>0</in>
								<out>93</out>
								<start>0</start>
								<end>93</end>
								<pixelaspectratio>Square</pixelaspectratio>
								<anamorphic>FALSE</anamorphic>
								<alphatype>none</alphatype>
								<masterclipid>ArmA 3 2020.11.14 - 20.19.25.25.mp4</masterclipid>
								<logginginfo>
									<scene />
									<shottake />
									<lognote />
									<good>FALSE</good>
								</logginginfo>
								<labels>
									<label2 />
								</labels>
								<comments>
									<mastercomment1 />
									<mastercomment2 />
									<mastercomment3 />
									<mastercomment4 />
								</comments>
								<file id="ArmA 3 2020.11.14 - 20.19.25.25" />
								<filter>
									<effect>
										<name>Opacity</name>
										<effectid>opacity</effectid>
										<effectcategory>motion</effectcategory>
										<effecttype>motion</effecttype>
										<mediatype>video</mediatype>
										<parameter>
											<name>opacity</name>
											<parameterid>opacity</parameterid>
											<valuemin>0</valuemin>
											<valuemax>100</valuemax>
											<value>100</value>
										</parameter>
									</effect>
								</filter>
								<sourcetrack>
									<mediatype>video</mediatype>
								</sourcetrack>
								<link>
									<linkclipref>ArmA 3 2020.11.14 - 20.19.25.25.mp4805307592</linkclipref>
								</link>
								<link>
									<linkclipref>ArmA 3 2020.11.14 - 20.19.25.25.mp4536872137</linkclipref>
								</link>
								<link>
									<linkclipref>ArmA 3 2020.11.14 - 20.19.25.25.mp45368721371</linkclipref>
								</link>
								<link>
									<linkclipref>ArmA 3 2020.11.14 - 20.19.25.25.mp4536872138</linkclipref>
								</link>
								<link>
									<linkclipref>ArmA 3 2020.11.14 - 20.19.25.25.mp45368721381</linkclipref>
								</link>
								<fielddominance>none</fielddominance>
							</clipitem>
							<clipitem id="ArmA 3 2020.11.14 - 20.19.51.26.mp4805307595">
								<name>ArmA 3 2020.11.14 - 20.19.51.26.mp4</name>
								<duration>548</duration>
								<rate>
									<ntsc>FALSE</ntsc>
									<timebase>60</timebase>
								</rate>
								<in>0</in>
								<out>548</out>
								<start>94</start>
								<end>642</end>
								<pixelaspectratio>Square</pixelaspectratio>
								<anamorphic>FALSE</anamorphic>
								<alphatype>none</alphatype>
								<masterclipid>ArmA 3 2020.11.14 - 20.19.51.26.mp4</masterclipid>
								<logginginfo>
									<scene />
									<shottake />
									<lognote />
									<good>FALSE</good>
								</logginginfo>
								<labels>
									<label2 />
								</labels>
								<comments>
									<mastercomment1 />
									<mastercomment2 />
									<mastercomment3 />
									<mastercomment4 />
								</comments>
								<file id="ArmA 3 2020.11.14 - 20.19.51.26" />
								<filter>
									<effect>
										<name>Opacity</name>
										<effectid>opacity</effectid>
										<effectcategory>motion</effectcategory>
										<effecttype>motion</effecttype>
										<mediatype>video</mediatype>
										<parameter>
											<name>opacity</name>
											<parameterid>opacity</parameterid>
											<valuemin>0</valuemin>
											<valuemax>100</valuemax>
											<value>100</value>
										</parameter>
									</effect>
								</filter>
								<sourcetrack>
									<mediatype>video</mediatype>
								</sourcetrack>
								<link>
									<linkclipref>ArmA 3 2020.11.14 - 20.19.51.26.mp4805307595</linkclipref>
								</link>
								<link>
									<linkclipref>ArmA 3 2020.11.14 - 20.19.51.26.mp4536872140</linkclipref>
								</link>
								<link>
									<linkclipref>ArmA 3 2020.11.14 - 20.19.51.26.mp45368721401</linkclipref>
								</link>
								<link>
									<linkclipref>ArmA 3 2020.11.14 - 20.19.51.26.mp4536872141</linkclipref>
								</link>
								<link>
									<linkclipref>ArmA 3 2020.11.14 - 20.19.51.26.mp45368721411</linkclipref>
								</link>
								<fielddominance>none</fielddominance>
							</clipitem>
							<clipitem id="ArmA 3 2020.11.14 - 20.20.25.27.mp4805307598">
								<name>ArmA 3 2020.11.14 - 20.20.25.27.mp4</name>
								<duration>1868</duration>
								<rate>
									<ntsc>FALSE</ntsc>
									<timebase>60</timebase>
								</rate>
								<in>0</in>
								<out>1868</out>
								<start>643</start>
								<end>2511</end>
								<pixelaspectratio>Square</pixelaspectratio>
								<anamorphic>FALSE</anamorphic>
								<alphatype>none</alphatype>
								<masterclipid>ArmA 3 2020.11.14 - 20.20.25.27.mp4</masterclipid>
								<logginginfo>
									<scene />
									<shottake />
									<lognote />
									<good>FALSE</good>
								</logginginfo>
								<labels>
									<label2 />
								</labels>
								<comments>
									<mastercomment1 />
									<mastercomment2 />
									<mastercomment3 />
									<mastercomment4 />
								</comments>
								<file id="ArmA 3 2020.11.14 - 20.20.25.27" />
								<filter>
									<effect>
										<name>Opacity</name>
										<effectid>opacity</effectid>
										<effectcategory>motion</effectcategory>
										<effecttype>motion</effecttype>
										<mediatype>video</mediatype>
										<parameter>
											<name>opacity</name>
											<parameterid>opacity</parameterid>
											<valuemin>0</valuemin>
											<valuemax>100</valuemax>
											<value>100</value>
										</parameter>
									</effect>
								</filter>
								<sourcetrack>
									<mediatype>video</mediatype>
								</sourcetrack>
								<link>
									<linkclipref>ArmA 3 2020.11.14 - 20.20.25.27.mp4805307598</linkclipref>
								</link>
								<link>
									<linkclipref>ArmA 3 2020.11.14 - 20.20.25.27.mp4536872143</linkclipref>
								</link>
								<link>
									<linkclipref>ArmA 3 2020.11.14 - 20.20.25.27.mp45368721431</linkclipref>
								</link>
								<link>
									<linkclipref>ArmA 3 2020.11.14 - 20.20.25.27.mp4536872144</linkclipref>
								</link>
								<link>
									<linkclipref>ArmA 3 2020.11.14 - 20.20.25.27.mp45368721441</linkclipref>
								</link>
								<fielddominance>none</fielddominance>
							</clipitem>
							<clipitem id="ArmA 3 2020.11.14 - 20.22.02.28.mp4805307601">
								<name>ArmA 3 2020.11.14 - 20.22.02.28.mp4</name>
								<duration>570</duration>
								<rate>
									<ntsc>FALSE</ntsc>
									<timebase>60</timebase>
								</rate>
								<in>0</in>
								<out>570</out>
								<start>2512</start>
								<end>3082</end>
								<pixelaspectratio>Square</pixelaspectratio>
								<anamorphic>FALSE</anamorphic>
								<alphatype>none</alphatype>
								<masterclipid>ArmA 3 2020.11.14 - 20.22.02.28.mp4</masterclipid>
								<logginginfo>
									<scene />
									<shottake />
									<lognote />
									<good>FALSE</good>
								</logginginfo>
								<labels>
									<label2 />
								</labels>
								<comments>
									<mastercomment1 />
									<mastercomment2 />
									<mastercomment3 />
									<mastercomment4 />
								</comments>
								<file id="ArmA 3 2020.11.14 - 20.22.02.28" />
								<filter>
									<effect>
										<name>Opacity</name>
										<effectid>opacity</effectid>
										<effectcategory>motion</effectcategory>
										<effecttype>motion</effecttype>
										<mediatype>video</mediatype>
										<parameter>
											<name>opacity</name>
											<parameterid>opacity</parameterid>
											<valuemin>0</valuemin>
											<valuemax>100</valuemax>
											<value>100</value>
										</parameter>
									</effect>
								</filter>
								<sourcetrack>
									<mediatype>video</mediatype>
								</sourcetrack>
								<link>
									<linkclipref>ArmA 3 2020.11.14 - 20.22.02.28.mp4805307601</linkclipref>
								</link>
								<link>
									<linkclipref>ArmA 3 2020.11.14 - 20.22.02.28.mp4536872146</linkclipref>
								</link>
								<link>
									<linkclipref>ArmA 3 2020.11.14 - 20.22.02.28.mp45368721461</linkclipref>
								</link>
								<link>
									<linkclipref>ArmA 3 2020.11.14 - 20.22.02.28.mp4536872147</linkclipref>
								</link>
								<link>
									<linkclipref>ArmA 3 2020.11.14 - 20.22.02.28.mp45368721471</linkclipref>
								</link>
								<fielddominance>none</fielddominance>
							</clipitem>
							<clipitem id="ArmA 3 2020.11.14 - 20.22.40.29.mp4805307604">
								<name>ArmA 3 2020.11.14 - 20.22.40.29.mp4</name>
								<duration>869</duration>
								<rate>
									<ntsc>FALSE</ntsc>
									<timebase>60</timebase>
								</rate>
								<in>0</in>
								<out>869</out>
								<start>3083</start>
								<end>3952</end>
								<pixelaspectratio>Square</pixelaspectratio>
								<anamorphic>FALSE</anamorphic>
								<alphatype>none</alphatype>
								<masterclipid>ArmA 3 2020.11.14 - 20.22.40.29.mp4</masterclipid>
								<logginginfo>
									<scene />
									<shottake />
									<lognote />
									<good>FALSE</good>
								</logginginfo>
								<labels>
									<label2 />
								</labels>
								<comments>
									<mastercomment1 />
									<mastercomment2 />
									<mastercomment3 />
									<mastercomment4 />
								</comments>
								<file id="ArmA 3 2020.11.14 - 20.22.40.29" />
								<filter>
									<effect>
										<name>Opacity</name>
										<effectid>opacity</effectid>
										<effectcategory>motion</effectcategory>
										<effecttype>motion</effecttype>
										<mediatype>video</mediatype>
										<parameter>
											<name>opacity</name>
											<parameterid>opacity</parameterid>
											<valuemin>0</valuemin>
											<valuemax>100</valuemax>
											<value>100</value>
										</parameter>
									</effect>
								</filter>
								<sourcetrack>
									<mediatype>video</mediatype>
								</sourcetrack>
								<link>
									<linkclipref>ArmA 3 2020.11.14 - 20.22.40.29.mp4805307604</linkclipref>
								</link>
								<link>
									<linkclipref>ArmA 3 2020.11.14 - 20.22.40.29.mp4536872149</linkclipref>
								</link>
								<link>
									<linkclipref>ArmA 3 2020.11.14 - 20.22.40.29.mp45368721491</linkclipref>
								</link>
								<link>
									<linkclipref>ArmA 3 2020.11.14 - 20.22.40.29.mp4536872150</linkclipref>
								</link>
								<link>
									<linkclipref>ArmA 3 2020.11.14 - 20.22.40.29.mp45368721501</linkclipref>
								</link>
								<fielddominance>none</fielddominance>
							</clipitem>
							<clipitem id="ArmA 3 2020.11.14 - 20.23.50.30.mp4805307607">
								<name>ArmA 3 2020.11.14 - 20.23.50.30.mp4</name>
								<duration>875</duration>
								<rate>
									<ntsc>FALSE</ntsc>
									<timebase>60</timebase>
								</rate>
								<in>0</in>
								<out>875</out>
								<start>3953</start>
								<end>4828</end>
								<pixelaspectratio>Square</pixelaspectratio>
								<anamorphic>FALSE</anamorphic>
								<alphatype>none</alphatype>
								<masterclipid>ArmA 3 2020.11.14 - 20.23.50.30.mp4</masterclipid>
								<logginginfo>
									<scene />
									<shottake />
									<lognote />
									<good>FALSE</good>
								</logginginfo>
								<labels>
									<label2 />
								</labels>
								<comments>
									<mastercomment1 />
									<mastercomment2 />
									<mastercomment3 />
									<mastercomment4 />
								</comments>
								<file id="ArmA 3 2020.11.14 - 20.23.50.30" />
								<filter>
									<effect>
										<name>Opacity</name>
										<effectid>opacity</effectid>
										<effectcategory>motion</effectcategory>
										<effecttype>motion</effecttype>
										<mediatype>video</mediatype>
										<parameter>
											<name>opacity</name>
											<parameterid>opacity</parameterid>
											<valuemin>0</valuemin>
											<valuemax>100</valuemax>
											<value>100</value>
										</parameter>
									</effect>
								</filter>
								<sourcetrack>
									<mediatype>video</mediatype>
								</sourcetrack>
								<link>
									<linkclipref>ArmA 3 2020.11.14 - 20.23.50.30.mp4805307607</linkclipref>
								</link>
								<link>
									<linkclipref>ArmA 3 2020.11.14 - 20.23.50.30.mp4536872152</linkclipref>
								</link>
								<link>
									<linkclipref>ArmA 3 2020.11.14 - 20.23.50.30.mp45368721521</linkclipref>
								</link>
								<link>
									<linkclipref>ArmA 3 2020.11.14 - 20.23.50.30.mp4536872153</linkclipref>
								</link>
								<link>
									<linkclipref>ArmA 3 2020.11.14 - 20.23.50.30.mp45368721531</linkclipref>
								</link>
								<fielddominance>none</fielddominance>
							</clipitem>
							<clipitem id="ArmA 3 2020.11.14 - 20.24.41.31.mp4805307610">
								<name>ArmA 3 2020.11.14 - 20.24.41.31.mp4</name>
								<duration>612</duration>
								<rate>
									<ntsc>FALSE</ntsc>
									<timebase>60</timebase>
								</rate>
								<in>0</in>
								<out>612</out>
								<start>4829</start>
								<end>5441</end>
								<pixelaspectratio>Square</pixelaspectratio>
								<anamorphic>FALSE</anamorphic>
								<alphatype>none</alphatype>
								<masterclipid>ArmA 3 2020.11.14 - 20.24.41.31.mp4</masterclipid>
								<logginginfo>
									<scene />
									<shottake />
									<lognote />
									<good>FALSE</good>
								</logginginfo>
								<labels>
									<label2 />
								</labels>
								<comments>
									<mastercomment1 />
									<mastercomment2 />
									<mastercomment3 />
									<mastercomment4 />
								</comments>
								<file id="ArmA 3 2020.11.14 - 20.24.41.31" />
								<filter>
									<effect>
										<name>Opacity</name>
										<effectid>opacity</effectid>
										<effectcategory>motion</effectcategory>
										<effecttype>motion</effecttype>
										<mediatype>video</mediatype>
										<parameter>
											<name>opacity</name>
											<parameterid>opacity</parameterid>
											<valuemin>0</valuemin>
											<valuemax>100</valuemax>
											<value>100</value>
										</parameter>
									</effect>
								</filter>
								<sourcetrack>
									<mediatype>video</mediatype>
								</sourcetrack>
								<link>
									<linkclipref>ArmA 3 2020.11.14 - 20.24.41.31.mp4805307610</linkclipref>
								</link>
								<link>
									<linkclipref>ArmA 3 2020.11.14 - 20.24.41.31.mp4536872155</linkclipref>
								</link>
								<link>
									<linkclipref>ArmA 3 2020.11.14 - 20.24.41.31.mp45368721551</linkclipref>
								</link>
								<link>
									<linkclipref>ArmA 3 2020.11.14 - 20.24.41.31.mp4536872156</linkclipref>
								</link>
								<link>
									<linkclipref>ArmA 3 2020.11.14 - 20.24.41.31.mp45368721561</linkclipref>
								</link>
								<fielddominance>none</fielddominance>
							</clipitem>
							<clipitem id="ArmA 3 2020.11.14 - 20.28.02.32.mp4805307613">
								<name>ArmA 3 2020.11.14 - 20.28.02.32.mp4</name>
								<duration>972</duration>
								<rate>
									<ntsc>FALSE</ntsc>
									<timebase>60</timebase>
								</rate>
								<in>0</in>
								<out>972</out>
								<start>5442</start>
								<end>6414</end>
								<pixelaspectratio>Square</pixelaspectratio>
								<anamorphic>FALSE</anamorphic>
								<alphatype>none</alphatype>
								<masterclipid>ArmA 3 2020.11.14 - 20.28.02.32.mp4</masterclipid>
								<logginginfo>
									<scene />
									<shottake />
									<lognote />
									<good>FALSE</good>
								</logginginfo>
								<labels>
									<label2 />
								</labels>
								<comments>
									<mastercomment1 />
									<mastercomment2 />
									<mastercomment3 />
									<mastercomment4 />
								</comments>
								<file id="ArmA 3 2020.11.14 - 20.28.02.32" />
								<filter>
									<effect>
										<name>Opacity</name>
										<effectid>opacity</effectid>
										<effectcategory>motion</effectcategory>
										<effecttype>motion</effecttype>
										<mediatype>video</mediatype>
										<parameter>
											<name>opacity</name>
											<parameterid>opacity</parameterid>
											<valuemin>0</valuemin>
											<valuemax>100</valuemax>
											<value>100</value>
										</parameter>
									</effect>
								</filter>
								<sourcetrack>
									<mediatype>video</mediatype>
								</sourcetrack>
								<link>
									<linkclipref>ArmA 3 2020.11.14 - 20.28.02.32.mp4805307613</linkclipref>
								</link>
								<link>
									<linkclipref>ArmA 3 2020.11.14 - 20.28.02.32.mp4536872158</linkclipref>
								</link>
								<link>
									<linkclipref>ArmA 3 2020.11.14 - 20.28.02.32.mp45368721581</linkclipref>
								</link>
								<link>
									<linkclipref>ArmA 3 2020.11.14 - 20.28.02.32.mp4536872159</linkclipref>
								</link>
								<link>
									<linkclipref>ArmA 3 2020.11.14 - 20.28.02.32.mp45368721591</linkclipref>
								</link>
								<fielddominance>none</fielddominance>
							</clipitem>
							<clipitem id="ArmA 3 2020.11.14 - 20.29.28.33.mp4805307616">
								<name>ArmA 3 2020.11.14 - 20.29.28.33.mp4</name>
								<duration>561</duration>
								<rate>
									<ntsc>FALSE</ntsc>
									<timebase>60</timebase>
								</rate>
								<in>0</in>
								<out>561</out>
								<start>6415</start>
								<end>6976</end>
								<pixelaspectratio>Square</pixelaspectratio>
								<anamorphic>FALSE</anamorphic>
								<alphatype>none</alphatype>
								<masterclipid>ArmA 3 2020.11.14 - 20.29.28.33.mp4</masterclipid>
								<logginginfo>
									<scene />
									<shottake />
									<lognote />
									<good>FALSE</good>
								</logginginfo>
								<labels>
									<label2 />
								</labels>
								<comments>
									<mastercomment1 />
									<mastercomment2 />
									<mastercomment3 />
									<mastercomment4 />
								</comments>
								<file id="ArmA 3 2020.11.14 - 20.29.28.33" />
								<filter>
									<effect>
										<name>Opacity</name>
										<effectid>opacity</effectid>
										<effectcategory>motion</effectcategory>
										<effecttype>motion</effecttype>
										<mediatype>video</mediatype>
										<parameter>
											<name>opacity</name>
											<parameterid>opacity</parameterid>
											<valuemin>0</valuemin>
											<valuemax>100</valuemax>
											<value>100</value>
										</parameter>
									</effect>
								</filter>
								<sourcetrack>
									<mediatype>video</mediatype>
								</sourcetrack>
								<link>
									<linkclipref>ArmA 3 2020.11.14 - 20.29.28.33.mp4805307616</linkclipref>
								</link>
								<link>
									<linkclipref>ArmA 3 2020.11.14 - 20.29.28.33.mp4536872161</linkclipref>
								</link>
								<link>
									<linkclipref>ArmA 3 2020.11.14 - 20.29.28.33.mp45368721611</linkclipref>
								</link>
								<link>
									<linkclipref>ArmA 3 2020.11.14 - 20.29.28.33.mp4536872162</linkclipref>
								</link>
								<link>
									<linkclipref>ArmA 3 2020.11.14 - 20.29.28.33.mp45368721621</linkclipref>
								</link>
								<fielddominance>none</fielddominance>
							</clipitem>
							<clipitem id="ArmA 3 2020.11.14 - 20.30.42.34.mp4805307619">
								<name>ArmA 3 2020.11.14 - 20.30.42.34.mp4</name>
								<duration>455</duration>
								<rate>
									<ntsc>FALSE</ntsc>
									<timebase>60</timebase>
								</rate>
								<in>0</in>
								<out>455</out>
								<start>6977</start>
								<end>7432</end>
								<pixelaspectratio>Square</pixelaspectratio>
								<anamorphic>FALSE</anamorphic>
								<alphatype>none</alphatype>
								<masterclipid>ArmA 3 2020.11.14 - 20.30.42.34.mp4</masterclipid>
								<logginginfo>
									<scene />
									<shottake />
									<lognote />
									<good>FALSE</good>
								</logginginfo>
								<labels>
									<label2 />
								</labels>
								<comments>
									<mastercomment1 />
									<mastercomment2 />
									<mastercomment3 />
									<mastercomment4 />
								</comments>
								<file id="ArmA 3 2020.11.14 - 20.30.42.34" />
								<filter>
									<effect>
										<name>Opacity</name>
										<effectid>opacity</effectid>
										<effectcategory>motion</effectcategory>
										<effecttype>motion</effecttype>
										<mediatype>video</mediatype>
										<parameter>
											<name>opacity</name>
											<parameterid>opacity</parameterid>
											<valuemin>0</valuemin>
											<valuemax>100</valuemax>
											<value>100</value>
										</parameter>
									</effect>
								</filter>
								<sourcetrack>
									<mediatype>video</mediatype>
								</sourcetrack>
								<link>
									<linkclipref>ArmA 3 2020.11.14 - 20.30.42.34.mp4805307619</linkclipref>
								</link>
								<link>
									<linkclipref>ArmA 3 2020.11.14 - 20.30.42.34.mp4536872164</linkclipref>
								</link>
								<link>
									<linkclipref>ArmA 3 2020.11.14 - 20.30.42.34.mp45368721641</linkclipref>
								</link>
								<link>
									<linkclipref>ArmA 3 2020.11.14 - 20.30.42.34.mp4536872165</linkclipref>
								</link>
								<link>
									<linkclipref>ArmA 3 2020.11.14 - 20.30.42.34.mp45368721651</linkclipref>
								</link>
								<fielddominance>none</fielddominance>
							</clipitem>
							<clipitem id="ArmA 3 2020.11.14 - 20.32.04.35.mp4805307622">
								<name>ArmA 3 2020.11.14 - 20.32.04.35.mp4</name>
								<duration>710</duration>
								<rate>
									<ntsc>FALSE</ntsc>
									<timebase>60</timebase>
								</rate>
								<in>0</in>
								<out>710</out>
								<start>7433</start>
								<end>8143</end>
								<pixelaspectratio>Square</pixelaspectratio>
								<anamorphic>FALSE</anamorphic>
								<alphatype>none</alphatype>
								<masterclipid>ArmA 3 2020.11.14 - 20.32.04.35.mp4</masterclipid>
								<logginginfo>
									<scene />
									<shottake />
									<lognote />
									<good>FALSE</good>
								</logginginfo>
								<labels>
									<label2 />
								</labels>
								<comments>
									<mastercomment1 />
									<mastercomment2 />
									<mastercomment3 />
									<mastercomment4 />
								</comments>
								<file id="ArmA 3 2020.11.14 - 20.32.04.35" />
								<filter>
									<effect>
										<name>Opacity</name>
										<effectid>opacity</effectid>
										<effectcategory>motion</effectcategory>
										<effecttype>motion</effecttype>
										<mediatype>video</mediatype>
										<parameter>
											<name>opacity</name>
											<parameterid>opacity</parameterid>
											<valuemin>0</valuemin>
											<valuemax>100</valuemax>
											<value>100</value>
										</parameter>
									</effect>
								</filter>
								<sourcetrack>
									<mediatype>video</mediatype>
								</sourcetrack>
								<link>
									<linkclipref>ArmA 3 2020.11.14 - 20.32.04.35.mp4805307622</linkclipref>
								</link>
								<link>
									<linkclipref>ArmA 3 2020.11.14 - 20.32.04.35.mp4536872167</linkclipref>
								</link>
								<link>
									<linkclipref>ArmA 3 2020.11.14 - 20.32.04.35.mp45368721671</linkclipref>
								</link>
								<link>
									<linkclipref>ArmA 3 2020.11.14 - 20.32.04.35.mp4536872168</linkclipref>
								</link>
								<link>
									<linkclipref>ArmA 3 2020.11.14 - 20.32.04.35.mp45368721681</linkclipref>
								</link>
								<fielddominance>none</fielddominance>
							</clipitem>
							<clipitem id="ArmA 3 2020.11.14 - 20.35.01.36.mp4805307625">
								<name>ArmA 3 2020.11.14 - 20.35.01.36.mp4</name>
								<duration>541</duration>
								<rate>
									<ntsc>FALSE</ntsc>
									<timebase>60</timebase>
								</rate>
								<in>0</in>
								<out>541</out>
								<start>8144</start>
								<end>8685</end>
								<pixelaspectratio>Square</pixelaspectratio>
								<anamorphic>FALSE</anamorphic>
								<alphatype>none</alphatype>
								<masterclipid>ArmA 3 2020.11.14 - 20.35.01.36.mp4</masterclipid>
								<logginginfo>
									<scene />
									<shottake />
									<lognote />
									<good>FALSE</good>
								</logginginfo>
								<labels>
									<label2 />
								</labels>
								<comments>
									<mastercomment1 />
									<mastercomment2 />
									<mastercomment3 />
									<mastercomment4 />
								</comments>
								<file id="ArmA 3 2020.11.14 - 20.35.01.36" />
								<filter>
									<effect>
										<name>Opacity</name>
										<effectid>opacity</effectid>
										<effectcategory>motion</effectcategory>
										<effecttype>motion</effecttype>
										<mediatype>video</mediatype>
										<parameter>
											<name>opacity</name>
											<parameterid>opacity</parameterid>
											<valuemin>0</valuemin>
											<valuemax>100</valuemax>
											<value>100</value>
										</parameter>
									</effect>
								</filter>
								<sourcetrack>
									<mediatype>video</mediatype>
								</sourcetrack>
								<link>
									<linkclipref>ArmA 3 2020.11.14 - 20.35.01.36.mp4805307625</linkclipref>
								</link>
								<link>
									<linkclipref>ArmA 3 2020.11.14 - 20.35.01.36.mp4536872170</linkclipref>
								</link>
								<link>
									<linkclipref>ArmA 3 2020.11.14 - 20.35.01.36.mp45368721701</linkclipref>
								</link>
								<link>
									<linkclipref>ArmA 3 2020.11.14 - 20.35.01.36.mp4536872171</linkclipref>
								</link>
								<link>
									<linkclipref>ArmA 3 2020.11.14 - 20.35.01.36.mp45368721711</linkclipref>
								</link>
								<fielddominance>none</fielddominance>
							</clipitem>
							<clipitem id="ArmA 3 2020.11.14 - 20.35.39.37.mp4805307628">
								<name>ArmA 3 2020.11.14 - 20.35.39.37.mp4</name>
								<duration>609</duration>
								<rate>
									<ntsc>FALSE</ntsc>
									<timebase>60</timebase>
								</rate>
								<in>0</in>
								<out>609</out>
								<start>8686</start>
								<end>9295</end>
								<pixelaspectratio>Square</pixelaspectratio>
								<anamorphic>FALSE</anamorphic>
								<alphatype>none</alphatype>
								<masterclipid>ArmA 3 2020.11.14 - 20.35.39.37.mp4</masterclipid>
								<logginginfo>
									<scene />
									<shottake />
									<lognote />
									<good>FALSE</good>
								</logginginfo>
								<labels>
									<label2 />
								</labels>
								<comments>
									<mastercomment1 />
									<mastercomment2 />
									<mastercomment3 />
									<mastercomment4 />
								</comments>
								<file id="ArmA 3 2020.11.14 - 20.35.39.37" />
								<filter>
									<effect>
										<name>Opacity</name>
										<effectid>opacity</effectid>
										<effectcategory>motion</effectcategory>
										<effecttype>motion</effecttype>
										<mediatype>video</mediatype>
										<parameter>
											<name>opacity</name>
											<parameterid>opacity</parameterid>
											<valuemin>0</valuemin>
											<valuemax>100</valuemax>
											<value>100</value>
										</parameter>
									</effect>
								</filter>
								<sourcetrack>
									<mediatype>video</mediatype>
								</sourcetrack>
								<link>
									<linkclipref>ArmA 3 2020.11.14 - 20.35.39.37.mp4805307628</linkclipref>
								</link>
								<link>
									<linkclipref>ArmA 3 2020.11.14 - 20.35.39.37.mp4536872173</linkclipref>
								</link>
								<link>
									<linkclipref>ArmA 3 2020.11.14 - 20.35.39.37.mp45368721731</linkclipref>
								</link>
								<link>
									<linkclipref>ArmA 3 2020.11.14 - 20.35.39.37.mp4536872174</linkclipref>
								</link>
								<link>
									<linkclipref>ArmA 3 2020.11.14 - 20.35.39.37.mp45368721741</linkclipref>
								</link>
								<fielddominance>none</fielddominance>
							</clipitem>
							<clipitem id="ArmA 3 2020.11.14 - 20.41.15.38.mp4805307631">
								<name>ArmA 3 2020.11.14 - 20.41.15.38.mp4</name>
								<duration>809</duration>
								<rate>
									<ntsc>FALSE</ntsc>
									<timebase>60</timebase>
								</rate>
								<in>0</in>
								<out>809</out>
								<start>9296</start>
								<end>10105</end>
								<pixelaspectratio>Square</pixelaspectratio>
								<anamorphic>FALSE</anamorphic>
								<alphatype>none</alphatype>
								<masterclipid>ArmA 3 2020.11.14 - 20.41.15.38.mp4</masterclipid>
								<logginginfo>
									<scene />
									<shottake />
									<lognote />
									<good>FALSE</good>
								</logginginfo>
								<labels>
									<label2 />
								</labels>
								<comments>
									<mastercomment1 />
									<mastercomment2 />
									<mastercomment3 />
									<mastercomment4 />
								</comments>
								<file id="ArmA 3 2020.11.14 - 20.41.15.38" />
								<filter>
									<effect>
										<name>Opacity</name>
										<effectid>opacity</effectid>
										<effectcategory>motion</effectcategory>
										<effecttype>motion</effecttype>
										<mediatype>video</mediatype>
										<parameter>
											<name>opacity</name>
											<parameterid>opacity</parameterid>
											<valuemin>0</valuemin>
											<valuemax>100</valuemax>
											<value>100</value>
										</parameter>
									</effect>
								</filter>
								<sourcetrack>
									<mediatype>video</mediatype>
								</sourcetrack>
								<link>
									<linkclipref>ArmA 3 2020.11.14 - 20.41.15.38.mp4805307631</linkclipref>
								</link>
								<link>
									<linkclipref>ArmA 3 2020.11.14 - 20.41.15.38.mp4536872176</linkclipref>
								</link>
								<link>
									<linkclipref>ArmA 3 2020.11.14 - 20.41.15.38.mp45368721761</linkclipref>
								</link>
								<link>
									<linkclipref>ArmA 3 2020.11.14 - 20.41.15.38.mp4536872177</linkclipref>
								</link>
								<link>
									<linkclipref>ArmA 3 2020.11.14 - 20.41.15.38.mp45368721771</linkclipref>
								</link>
								<fielddominance>none</fielddominance>
							</clipitem>
							<clipitem id="ArmA 3 2020.11.14 - 20.42.08.39.mp4805307634">
								<name>ArmA 3 2020.11.14 - 20.42.08.39.mp4</name>
								<duration>1394</duration>
								<rate>
									<ntsc>FALSE</ntsc>
									<timebase>60</timebase>
								</rate>
								<in>0</in>
								<out>1394</out>
								<start>10106</start>
								<end>11500</end>
								<pixelaspectratio>Square</pixelaspectratio>
								<anamorphic>FALSE</anamorphic>
								<alphatype>none</alphatype>
								<masterclipid>ArmA 3 2020.11.14 - 20.42.08.39.mp4</masterclipid>
								<logginginfo>
									<scene />
									<shottake />
									<lognote />
									<good>FALSE</good>
								</logginginfo>
								<labels>
									<label2 />
								</labels>
								<comments>
									<mastercomment1 />
									<mastercomment2 />
									<mastercomment3 />
									<mastercomment4 />
								</comments>
								<file id="ArmA 3 2020.11.14 - 20.42.08.39" />
								<filter>
									<effect>
										<name>Opacity</name>
										<effectid>opacity</effectid>
										<effectcategory>motion</effectcategory>
										<effecttype>motion</effecttype>
										<mediatype>video</mediatype>
										<parameter>
											<name>opacity</name>
											<parameterid>opacity</parameterid>
											<valuemin>0</valuemin>
											<valuemax>100</valuemax>
											<value>100</value>
										</parameter>
									</effect>
								</filter>
								<sourcetrack>
									<mediatype>video</mediatype>
								</sourcetrack>
								<link>
									<linkclipref>ArmA 3 2020.11.14 - 20.42.08.39.mp4805307634</linkclipref>
								</link>
								<link>
									<linkclipref>ArmA 3 2020.11.14 - 20.42.08.39.mp4536872179</linkclipref>
								</link>
								<link>
									<linkclipref>ArmA 3 2020.11.14 - 20.42.08.39.mp45368721791</linkclipref>
								</link>
								<link>
									<linkclipref>ArmA 3 2020.11.14 - 20.42.08.39.mp4536872180</linkclipref>
								</link>
								<link>
									<linkclipref>ArmA 3 2020.11.14 - 20.42.08.39.mp45368721801</linkclipref>
								</link>
								<fielddominance>none</fielddominance>
							</clipitem>
							<clipitem id="ArmA 3 2020.11.14 - 20.43.49.40.mp4805307637">
								<name>ArmA 3 2020.11.14 - 20.43.49.40.mp4</name>
								<duration>386</duration>
								<rate>
									<ntsc>FALSE</ntsc>
									<timebase>60</timebase>
								</rate>
								<in>0</in>
								<out>386</out>
								<start>11501</start>
								<end>11887</end>
								<pixelaspectratio>Square</pixelaspectratio>
								<anamorphic>FALSE</anamorphic>
								<alphatype>none</alphatype>
								<masterclipid>ArmA 3 2020.11.14 - 20.43.49.40.mp4</masterclipid>
								<logginginfo>
									<scene />
									<shottake />
									<lognote />
									<good>FALSE</good>
								</logginginfo>
								<labels>
									<label2 />
								</labels>
								<comments>
									<mastercomment1 />
									<mastercomment2 />
									<mastercomment3 />
									<mastercomment4 />
								</comments>
								<file id="ArmA 3 2020.11.14 - 20.43.49.40" />
								<filter>
									<effect>
										<name>Opacity</name>
										<effectid>opacity</effectid>
										<effectcategory>motion</effectcategory>
										<effecttype>motion</effecttype>
										<mediatype>video</mediatype>
										<parameter>
											<name>opacity</name>
											<parameterid>opacity</parameterid>
											<valuemin>0</valuemin>
											<valuemax>100</valuemax>
											<value>100</value>
										</parameter>
									</effect>
								</filter>
								<sourcetrack>
									<mediatype>video</mediatype>
								</sourcetrack>
								<link>
									<linkclipref>ArmA 3 2020.11.14 - 20.43.49.40.mp4805307637</linkclipref>
								</link>
								<link>
									<linkclipref>ArmA 3 2020.11.14 - 20.43.49.40.mp4536872182</linkclipref>
								</link>
								<link>
									<linkclipref>ArmA 3 2020.11.14 - 20.43.49.40.mp45368721821</linkclipref>
								</link>
								<link>
									<linkclipref>ArmA 3 2020.11.14 - 20.43.49.40.mp4536872183</linkclipref>
								</link>
								<link>
									<linkclipref>ArmA 3 2020.11.14 - 20.43.49.40.mp45368721831</linkclipref>
								</link>
								<fielddominance>none</fielddominance>
							</clipitem>
							<clipitem id="ArmA 3 2020.11.14 - 20.50.27.41.mp4805307640">
								<name>ArmA 3 2020.11.14 - 20.50.27.41.mp4</name>
								<duration>378</duration>
								<rate>
									<ntsc>FALSE</ntsc>
									<timebase>60</timebase>
								</rate>
								<in>0</in>
								<out>378</out>
								<start>11888</start>
								<end>12266</end>
								<pixelaspectratio>Square</pixelaspectratio>
								<anamorphic>FALSE</anamorphic>
								<alphatype>none</alphatype>
								<masterclipid>ArmA 3 2020.11.14 - 20.50.27.41.mp4</masterclipid>
								<logginginfo>
									<scene />
									<shottake />
									<lognote />
									<good>FALSE</good>
								</logginginfo>
								<labels>
									<label2 />
								</labels>
								<comments>
									<mastercomment1 />
									<mastercomment2 />
									<mastercomment3 />
									<mastercomment4 />
								</comments>
								<file id="ArmA 3 2020.11.14 - 20.50.27.41" />
								<filter>
									<effect>
										<name>Opacity</name>
										<effectid>opacity</effectid>
										<effectcategory>motion</effectcategory>
										<effecttype>motion</effecttype>
										<mediatype>video</mediatype>
										<parameter>
											<name>opacity</name>
											<parameterid>opacity</parameterid>
											<valuemin>0</valuemin>
											<valuemax>100</valuemax>
											<value>100</value>
										</parameter>
									</effect>
								</filter>
								<sourcetrack>
									<mediatype>video</mediatype>
								</sourcetrack>
								<link>
									<linkclipref>ArmA 3 2020.11.14 - 20.50.27.41.mp4805307640</linkclipref>
								</link>
								<link>
									<linkclipref>ArmA 3 2020.11.14 - 20.50.27.41.mp4536872185</linkclipref>
								</link>
								<link>
									<linkclipref>ArmA 3 2020.11.14 - 20.50.27.41.mp45368721851</linkclipref>
								</link>
								<link>
									<linkclipref>ArmA 3 2020.11.14 - 20.50.27.41.mp4536872186</linkclipref>
								</link>
								<link>
									<linkclipref>ArmA 3 2020.11.14 - 20.50.27.41.mp45368721861</linkclipref>
								</link>
								<fielddominance>none</fielddominance>
							</clipitem>
							<clipitem id="ArmA 3 2020.11.14 - 20.53.10.42.mp4805307643">
								<name>ArmA 3 2020.11.14 - 20.53.10.42.mp4</name>
								<duration>774</duration>
								<rate>
									<ntsc>FALSE</ntsc>
									<timebase>60</timebase>
								</rate>
								<in>0</in>
								<out>774</out>
								<start>12267</start>
								<end>13041</end>
								<pixelaspectratio>Square</pixelaspectratio>
								<anamorphic>FALSE</anamorphic>
								<alphatype>none</alphatype>
								<masterclipid>ArmA 3 2020.11.14 - 20.53.10.42.mp4</masterclipid>
								<logginginfo>
									<scene />
									<shottake />
									<lognote />
									<good>FALSE</good>
								</logginginfo>
								<labels>
									<label2 />
								</labels>
								<comments>
									<mastercomment1 />
									<mastercomment2 />
									<mastercomment3 />
									<mastercomment4 />
								</comments>
								<file id="ArmA 3 2020.11.14 - 20.53.10.42" />
								<filter>
									<effect>
										<name>Opacity</name>
										<effectid>opacity</effectid>
										<effectcategory>motion</effectcategory>
										<effecttype>motion</effecttype>
										<mediatype>video</mediatype>
										<parameter>
											<name>opacity</name>
											<parameterid>opacity</parameterid>
											<valuemin>0</valuemin>
											<valuemax>100</valuemax>
											<value>100</value>
										</parameter>
									</effect>
								</filter>
								<sourcetrack>
									<mediatype>video</mediatype>
								</sourcetrack>
								<link>
									<linkclipref>ArmA 3 2020.11.14 - 20.53.10.42.mp4805307643</linkclipref>
								</link>
								<link>
									<linkclipref>ArmA 3 2020.11.14 - 20.53.10.42.mp4536872188</linkclipref>
								</link>
								<link>
									<linkclipref>ArmA 3 2020.11.14 - 20.53.10.42.mp45368721881</linkclipref>
								</link>
								<link>
									<linkclipref>ArmA 3 2020.11.14 - 20.53.10.42.mp4536872189</linkclipref>
								</link>
								<link>
									<linkclipref>ArmA 3 2020.11.14 - 20.53.10.42.mp45368721891</linkclipref>
								</link>
								<fielddominance>none</fielddominance>
							</clipitem>
							<clipitem id="ArmA 3 2020.11.14 - 20.54.51.43.mp4805307646">
								<name>ArmA 3 2020.11.14 - 20.54.51.43.mp4</name>
								<duration>441</duration>
								<rate>
									<ntsc>FALSE</ntsc>
									<timebase>60</timebase>
								</rate>
								<in>0</in>
								<out>441</out>
								<start>13042</start>
								<end>13483</end>
								<pixelaspectratio>Square</pixelaspectratio>
								<anamorphic>FALSE</anamorphic>
								<alphatype>none</alphatype>
								<masterclipid>ArmA 3 2020.11.14 - 20.54.51.43.mp4</masterclipid>
								<logginginfo>
									<scene />
									<shottake />
									<lognote />
									<good>FALSE</good>
								</logginginfo>
								<labels>
									<label2 />
								</labels>
								<comments>
									<mastercomment1 />
									<mastercomment2 />
									<mastercomment3 />
									<mastercomment4 />
								</comments>
								<file id="ArmA 3 2020.11.14 - 20.54.51.43" />
								<filter>
									<effect>
										<name>Opacity</name>
										<effectid>opacity</effectid>
										<effectcategory>motion</effectcategory>
										<effecttype>motion</effecttype>
										<mediatype>video</mediatype>
										<parameter>
											<name>opacity</name>
											<parameterid>opacity</parameterid>
											<valuemin>0</valuemin>
											<valuemax>100</valuemax>
											<value>100</value>
										</parameter>
									</effect>
								</filter>
								<sourcetrack>
									<mediatype>video</mediatype>
								</sourcetrack>
								<link>
									<linkclipref>ArmA 3 2020.11.14 - 20.54.51.43.mp4805307646</linkclipref>
								</link>
								<link>
									<linkclipref>ArmA 3 2020.11.14 - 20.54.51.43.mp4536872191</linkclipref>
								</link>
								<link>
									<linkclipref>ArmA 3 2020.11.14 - 20.54.51.43.mp45368721911</linkclipref>
								</link>
								<link>
									<linkclipref>ArmA 3 2020.11.14 - 20.54.51.43.mp4536872192</linkclipref>
								</link>
								<link>
									<linkclipref>ArmA 3 2020.11.14 - 20.54.51.43.mp45368721921</linkclipref>
								</link>
								<fielddominance>none</fielddominance>
							</clipitem>
							<clipitem id="ArmA 3 2020.11.14 - 20.55.19.44.mp4805307649">
								<name>ArmA 3 2020.11.14 - 20.55.19.44.mp4</name>
								<duration>709</duration>
								<rate>
									<ntsc>FALSE</ntsc>
									<timebase>60</timebase>
								</rate>
								<in>0</in>
								<out>709</out>
								<start>13484</start>
								<end>14193</end>
								<pixelaspectratio>Square</pixelaspectratio>
								<anamorphic>FALSE</anamorphic>
								<alphatype>none</alphatype>
								<masterclipid>ArmA 3 2020.11.14 - 20.55.19.44.mp4</masterclipid>
								<logginginfo>
									<scene />
									<shottake />
									<lognote />
									<good>FALSE</good>
								</logginginfo>
								<labels>
									<label2 />
								</labels>
								<comments>
									<mastercomment1 />
									<mastercomment2 />
									<mastercomment3 />
									<mastercomment4 />
								</comments>
								<file id="ArmA 3 2020.11.14 - 20.55.19.44" />
								<filter>
									<effect>
										<name>Opacity</name>
										<effectid>opacity</effectid>
										<effectcategory>motion</effectcategory>
										<effecttype>motion</effecttype>
										<mediatype>video</mediatype>
										<parameter>
											<name>opacity</name>
											<parameterid>opacity</parameterid>
											<valuemin>0</valuemin>
											<valuemax>100</valuemax>
											<value>100</value>
										</parameter>
									</effect>
								</filter>
								<sourcetrack>
									<mediatype>video</mediatype>
								</sourcetrack>
								<link>
									<linkclipref>ArmA 3 2020.11.14 - 20.55.19.44.mp4805307649</linkclipref>
								</link>
								<link>
									<linkclipref>ArmA 3 2020.11.14 - 20.55.19.44.mp4536872194</linkclipref>
								</link>
								<link>
									<linkclipref>ArmA 3 2020.11.14 - 20.55.19.44.mp45368721941</linkclipref>
								</link>
								<link>
									<linkclipref>ArmA 3 2020.11.14 - 20.55.19.44.mp4536872195</linkclipref>
								</link>
								<link>
									<linkclipref>ArmA 3 2020.11.14 - 20.55.19.44.mp45368721951</linkclipref>
								</link>
								<fielddominance>none</fielddominance>
							</clipitem>
							<clipitem id="ArmA 3 2020.11.14 - 20.58.46.45.mp4805307652">
								<name>ArmA 3 2020.11.14 - 20.58.46.45.mp4</name>
								<duration>1428</duration>
								<rate>
									<ntsc>FALSE</ntsc>
									<timebase>60</timebase>
								</rate>
								<in>0</in>
								<out>1428</out>
								<start>14194</start>
								<end>15622</end>
								<pixelaspectratio>Square</pixelaspectratio>
								<anamorphic>FALSE</anamorphic>
								<alphatype>none</alphatype>
								<masterclipid>ArmA 3 2020.11.14 - 20.58.46.45.mp4</masterclipid>
								<logginginfo>
									<scene />
									<shottake />
									<lognote />
									<good>FALSE</good>
								</logginginfo>
								<labels>
									<label2 />
								</labels>
								<comments>
									<mastercomment1 />
									<mastercomment2 />
									<mastercomment3 />
									<mastercomment4 />
								</comments>
								<file id="ArmA 3 2020.11.14 - 20.58.46.45" />
								<filter>
									<effect>
										<name>Opacity</name>
										<effectid>opacity</effectid>
										<effectcategory>motion</effectcategory>
										<effecttype>motion</effecttype>
										<mediatype>video</mediatype>
										<parameter>
											<name>opacity</name>
											<parameterid>opacity</parameterid>
											<valuemin>0</valuemin>
											<valuemax>100</valuemax>
											<value>100</value>
										</parameter>
									</effect>
								</filter>
								<sourcetrack>
									<mediatype>video</mediatype>
								</sourcetrack>
								<link>
									<linkclipref>ArmA 3 2020.11.14 - 20.58.46.45.mp4805307652</linkclipref>
								</link>
								<link>
									<linkclipref>ArmA 3 2020.11.14 - 20.58.46.45.mp4536872197</linkclipref>
								</link>
								<link>
									<linkclipref>ArmA 3 2020.11.14 - 20.58.46.45.mp45368721971</linkclipref>
								</link>
								<link>
									<linkclipref>ArmA 3 2020.11.14 - 20.58.46.45.mp4536872198</linkclipref>
								</link>
								<link>
									<linkclipref>ArmA 3 2020.11.14 - 20.58.46.45.mp45368721981</linkclipref>
								</link>
								<fielddominance>none</fielddominance>
							</clipitem>
							<clipitem id="ArmA 3 2020.11.14 - 21.00.16.46.mp4805307655">
								<name>ArmA 3 2020.11.14 - 21.00.16.46.mp4</name>
								<duration>562</duration>
								<rate>
									<ntsc>FALSE</ntsc>
									<timebase>60</timebase>
								</rate>
								<in>0</in>
								<out>562</out>
								<start>15623</start>
								<end>16185</end>
								<pixelaspectratio>Square</pixelaspectratio>
								<anamorphic>FALSE</anamorphic>
								<alphatype>none</alphatype>
								<masterclipid>ArmA 3 2020.11.14 - 21.00.16.46.mp4</masterclipid>
								<logginginfo>
									<scene />
									<shottake />
									<lognote />
									<good>FALSE</good>
								</logginginfo>
								<labels>
									<label2 />
								</labels>
								<comments>
									<mastercomment1 />
									<mastercomment2 />
									<mastercomment3 />
									<mastercomment4 />
								</comments>
								<file id="ArmA 3 2020.11.14 - 21.00.16.46" />
								<filter>
									<effect>
										<name>Opacity</name>
										<effectid>opacity</effectid>
										<effectcategory>motion</effectcategory>
										<effecttype>motion</effecttype>
										<mediatype>video</mediatype>
										<parameter>
											<name>opacity</name>
											<parameterid>opacity</parameterid>
											<valuemin>0</valuemin>
											<valuemax>100</valuemax>
											<value>100</value>
										</parameter>
									</effect>
								</filter>
								<sourcetrack>
									<mediatype>video</mediatype>
								</sourcetrack>
								<link>
									<linkclipref>ArmA 3 2020.11.14 - 21.00.16.46.mp4805307655</linkclipref>
								</link>
								<link>
									<linkclipref>ArmA 3 2020.11.14 - 21.00.16.46.mp4536872200</linkclipref>
								</link>
								<link>
									<linkclipref>ArmA 3 2020.11.14 - 21.00.16.46.mp45368722001</linkclipref>
								</link>
								<link>
									<linkclipref>ArmA 3 2020.11.14 - 21.00.16.46.mp4536872201</linkclipref>
								</link>
								<link>
									<linkclipref>ArmA 3 2020.11.14 - 21.00.16.46.mp45368722011</linkclipref>
								</link>
								<fielddominance>none</fielddominance>
							</clipitem>
							<clipitem id="ArmA 3 2020.11.14 - 21.00.51.47.mp4805307658">
								<name>ArmA 3 2020.11.14 - 21.00.51.47.mp4</name>
								<duration>691</duration>
								<rate>
									<ntsc>FALSE</ntsc>
									<timebase>60</timebase>
								</rate>
								<in>0</in>
								<out>691</out>
								<start>16186</start>
								<end>16877</end>
								<pixelaspectratio>Square</pixelaspectratio>
								<anamorphic>FALSE</anamorphic>
								<alphatype>none</alphatype>
								<masterclipid>ArmA 3 2020.11.14 - 21.00.51.47.mp4</masterclipid>
								<logginginfo>
									<scene />
									<shottake />
									<lognote />
									<good>FALSE</good>
								</logginginfo>
								<labels>
									<label2 />
								</labels>
								<comments>
									<mastercomment1 />
									<mastercomment2 />
									<mastercomment3 />
									<mastercomment4 />
								</comments>
								<file id="ArmA 3 2020.11.14 - 21.00.51.47" />
								<filter>
									<effect>
										<name>Opacity</name>
										<effectid>opacity</effectid>
										<effectcategory>motion</effectcategory>
										<effecttype>motion</effecttype>
										<mediatype>video</mediatype>
										<parameter>
											<name>opacity</name>
											<parameterid>opacity</parameterid>
											<valuemin>0</valuemin>
											<valuemax>100</valuemax>
											<value>100</value>
										</parameter>
									</effect>
								</filter>
								<sourcetrack>
									<mediatype>video</mediatype>
								</sourcetrack>
								<link>
									<linkclipref>ArmA 3 2020.11.14 - 21.00.51.47.mp4805307658</linkclipref>
								</link>
								<link>
									<linkclipref>ArmA 3 2020.11.14 - 21.00.51.47.mp4536872203</linkclipref>
								</link>
								<link>
									<linkclipref>ArmA 3 2020.11.14 - 21.00.51.47.mp45368722031</linkclipref>
								</link>
								<link>
									<linkclipref>ArmA 3 2020.11.14 - 21.00.51.47.mp4536872204</linkclipref>
								</link>
								<link>
									<linkclipref>ArmA 3 2020.11.14 - 21.00.51.47.mp45368722041</linkclipref>
								</link>
								<fielddominance>none</fielddominance>
							</clipitem>
							<clipitem id="ArmA 3 2020.11.14 - 21.01.54.48.mp4805307661">
								<name>ArmA 3 2020.11.14 - 21.01.54.48.mp4</name>
								<duration>911</duration>
								<rate>
									<ntsc>FALSE</ntsc>
									<timebase>60</timebase>
								</rate>
								<in>0</in>
								<out>911</out>
								<start>16878</start>
								<end>17789</end>
								<pixelaspectratio>Square</pixelaspectratio>
								<anamorphic>FALSE</anamorphic>
								<alphatype>none</alphatype>
								<masterclipid>ArmA 3 2020.11.14 - 21.01.54.48.mp4</masterclipid>
								<logginginfo>
									<scene />
									<shottake />
									<lognote />
									<good>FALSE</good>
								</logginginfo>
								<labels>
									<label2 />
								</labels>
								<comments>
									<mastercomment1 />
									<mastercomment2 />
									<mastercomment3 />
									<mastercomment4 />
								</comments>
								<file id="ArmA 3 2020.11.14 - 21.01.54.48" />
								<filter>
									<effect>
										<name>Opacity</name>
										<effectid>opacity</effectid>
										<effectcategory>motion</effectcategory>
										<effecttype>motion</effecttype>
										<mediatype>video</mediatype>
										<parameter>
											<name>opacity</name>
											<parameterid>opacity</parameterid>
											<valuemin>0</valuemin>
											<valuemax>100</valuemax>
											<value>100</value>
										</parameter>
									</effect>
								</filter>
								<sourcetrack>
									<mediatype>video</mediatype>
								</sourcetrack>
								<link>
									<linkclipref>ArmA 3 2020.11.14 - 21.01.54.48.mp4805307661</linkclipref>
								</link>
								<link>
									<linkclipref>ArmA 3 2020.11.14 - 21.01.54.48.mp4536872206</linkclipref>
								</link>
								<link>
									<linkclipref>ArmA 3 2020.11.14 - 21.01.54.48.mp45368722061</linkclipref>
								</link>
								<link>
									<linkclipref>ArmA 3 2020.11.14 - 21.01.54.48.mp4536872207</linkclipref>
								</link>
								<link>
									<linkclipref>ArmA 3 2020.11.14 - 21.01.54.48.mp45368722071</linkclipref>
								</link>
								<fielddominance>none</fielddominance>
							</clipitem>
							<clipitem id="ArmA 3 2020.11.14 - 21.03.09.49.mp4805307664">
								<name>ArmA 3 2020.11.14 - 21.03.09.49.mp4</name>
								<duration>577</duration>
								<rate>
									<ntsc>FALSE</ntsc>
									<timebase>60</timebase>
								</rate>
								<in>0</in>
								<out>577</out>
								<start>17790</start>
								<end>18367</end>
								<pixelaspectratio>Square</pixelaspectratio>
								<anamorphic>FALSE</anamorphic>
								<alphatype>none</alphatype>
								<masterclipid>ArmA 3 2020.11.14 - 21.03.09.49.mp4</masterclipid>
								<logginginfo>
									<scene />
									<shottake />
									<lognote />
									<good>FALSE</good>
								</logginginfo>
								<labels>
									<label2 />
								</labels>
								<comments>
									<mastercomment1 />
									<mastercomment2 />
									<mastercomment3 />
									<mastercomment4 />
								</comments>
								<file id="ArmA 3 2020.11.14 - 21.03.09.49" />
								<filter>
									<effect>
										<name>Opacity</name>
										<effectid>opacity</effectid>
										<effectcategory>motion</effectcategory>
										<effecttype>motion</effecttype>
										<mediatype>video</mediatype>
										<parameter>
											<name>opacity</name>
											<parameterid>opacity</parameterid>
											<valuemin>0</valuemin>
											<valuemax>100</valuemax>
											<value>100</value>
										</parameter>
									</effect>
								</filter>
								<sourcetrack>
									<mediatype>video</mediatype>
								</sourcetrack>
								<link>
									<linkclipref>ArmA 3 2020.11.14 - 21.03.09.49.mp4805307664</linkclipref>
								</link>
								<link>
									<linkclipref>ArmA 3 2020.11.14 - 21.03.09.49.mp4536872209</linkclipref>
								</link>
								<link>
									<linkclipref>ArmA 3 2020.11.14 - 21.03.09.49.mp45368722091</linkclipref>
								</link>
								<link>
									<linkclipref>ArmA 3 2020.11.14 - 21.03.09.49.mp4536872210</linkclipref>
								</link>
								<link>
									<linkclipref>ArmA 3 2020.11.14 - 21.03.09.49.mp45368722101</linkclipref>
								</link>
								<fielddominance>none</fielddominance>
							</clipitem>
							<clipitem id="ArmA 3 2020.11.14 - 21.04.25.50.mp4805307667">
								<name>ArmA 3 2020.11.14 - 21.04.25.50.mp4</name>
								<duration>573</duration>
								<rate>
									<ntsc>FALSE</ntsc>
									<timebase>60</timebase>
								</rate>
								<in>0</in>
								<out>573</out>
								<start>18368</start>
								<end>18941</end>
								<pixelaspectratio>Square</pixelaspectratio>
								<anamorphic>FALSE</anamorphic>
								<alphatype>none</alphatype>
								<masterclipid>ArmA 3 2020.11.14 - 21.04.25.50.mp4</masterclipid>
								<logginginfo>
									<scene />
									<shottake />
									<lognote />
									<good>FALSE</good>
								</logginginfo>
								<labels>
									<label2 />
								</labels>
								<comments>
									<mastercomment1 />
									<mastercomment2 />
									<mastercomment3 />
									<mastercomment4 />
								</comments>
								<file id="ArmA 3 2020.11.14 - 21.04.25.50" />
								<filter>
									<effect>
										<name>Opacity</name>
										<effectid>opacity</effectid>
										<effectcategory>motion</effectcategory>
										<effecttype>motion</effecttype>
										<mediatype>video</mediatype>
										<parameter>
											<name>opacity</name>
											<parameterid>opacity</parameterid>
											<valuemin>0</valuemin>
											<valuemax>100</valuemax>
											<value>100</value>
										</parameter>
									</effect>
								</filter>
								<sourcetrack>
									<mediatype>video</mediatype>
								</sourcetrack>
								<link>
									<linkclipref>ArmA 3 2020.11.14 - 21.04.25.50.mp4805307667</linkclipref>
								</link>
								<link>
									<linkclipref>ArmA 3 2020.11.14 - 21.04.25.50.mp4536872212</linkclipref>
								</link>
								<link>
									<linkclipref>ArmA 3 2020.11.14 - 21.04.25.50.mp45368722121</linkclipref>
								</link>
								<link>
									<linkclipref>ArmA 3 2020.11.14 - 21.04.25.50.mp4536872213</linkclipref>
								</link>
								<link>
									<linkclipref>ArmA 3 2020.11.14 - 21.04.25.50.mp45368722131</linkclipref>
								</link>
								<fielddominance>none</fielddominance>
							</clipitem>
							<clipitem id="ArmA 3 2020.11.14 - 21.05.14.51.mp4805307670">
								<name>ArmA 3 2020.11.14 - 21.05.14.51.mp4</name>
								<duration>643</duration>
								<rate>
									<ntsc>FALSE</ntsc>
									<timebase>60</timebase>
								</rate>
								<in>0</in>
								<out>643</out>
								<start>18942</start>
								<end>19585</end>
								<pixelaspectratio>Square</pixelaspectratio>
								<anamorphic>FALSE</anamorphic>
								<alphatype>none</alphatype>
								<masterclipid>ArmA 3 2020.11.14 - 21.05.14.51.mp4</masterclipid>
								<logginginfo>
									<scene />
									<shottake />
									<lognote />
									<good>FALSE</good>
								</logginginfo>
								<labels>
									<label2 />
								</labels>
								<comments>
									<mastercomment1 />
									<mastercomment2 />
									<mastercomment3 />
									<mastercomment4 />
								</comments>
								<file id="ArmA 3 2020.11.14 - 21.05.14.51" />
								<filter>
									<effect>
										<name>Opacity</name>
										<effectid>opacity</effectid>
										<effectcategory>motion</effectcategory>
										<effecttype>motion</effecttype>
										<mediatype>video</mediatype>
										<parameter>
											<name>opacity</name>
											<parameterid>opacity</parameterid>
											<valuemin>0</valuemin>
											<valuemax>100</valuemax>
											<value>100</value>
										</parameter>
									</effect>
								</filter>
								<sourcetrack>
									<mediatype>video</mediatype>
								</sourcetrack>
								<link>
									<linkclipref>ArmA 3 2020.11.14 - 21.05.14.51.mp4805307670</linkclipref>
								</link>
								<link>
									<linkclipref>ArmA 3 2020.11.14 - 21.05.14.51.mp4536872215</linkclipref>
								</link>
								<link>
									<linkclipref>ArmA 3 2020.11.14 - 21.05.14.51.mp45368722151</linkclipref>
								</link>
								<link>
									<linkclipref>ArmA 3 2020.11.14 - 21.05.14.51.mp4536872216</linkclipref>
								</link>
								<link>
									<linkclipref>ArmA 3 2020.11.14 - 21.05.14.51.mp45368722161</linkclipref>
								</link>
								<fielddominance>none</fielddominance>
							</clipitem>
							<clipitem id="ArmA 3 2020.11.14 - 21.05.51.52.mp4805307673">
								<name>ArmA 3 2020.11.14 - 21.05.51.52.mp4</name>
								<duration>832</duration>
								<rate>
									<ntsc>FALSE</ntsc>
									<timebase>60</timebase>
								</rate>
								<in>0</in>
								<out>832</out>
								<start>19586</start>
								<end>20418</end>
								<pixelaspectratio>Square</pixelaspectratio>
								<anamorphic>FALSE</anamorphic>
								<alphatype>none</alphatype>
								<masterclipid>ArmA 3 2020.11.14 - 21.05.51.52.mp4</masterclipid>
								<logginginfo>
									<scene />
									<shottake />
									<lognote />
									<good>FALSE</good>
								</logginginfo>
								<labels>
									<label2 />
								</labels>
								<comments>
									<mastercomment1 />
									<mastercomment2 />
									<mastercomment3 />
									<mastercomment4 />
								</comments>
								<file id="ArmA 3 2020.11.14 - 21.05.51.52" />
								<filter>
									<effect>
										<name>Opacity</name>
										<effectid>opacity</effectid>
										<effectcategory>motion</effectcategory>
										<effecttype>motion</effecttype>
										<mediatype>video</mediatype>
										<parameter>
											<name>opacity</name>
											<parameterid>opacity</parameterid>
											<valuemin>0</valuemin>
											<valuemax>100</valuemax>
											<value>100</value>
										</parameter>
									</effect>
								</filter>
								<sourcetrack>
									<mediatype>video</mediatype>
								</sourcetrack>
								<link>
									<linkclipref>ArmA 3 2020.11.14 - 21.05.51.52.mp4805307673</linkclipref>
								</link>
								<link>
									<linkclipref>ArmA 3 2020.11.14 - 21.05.51.52.mp4536872218</linkclipref>
								</link>
								<link>
									<linkclipref>ArmA 3 2020.11.14 - 21.05.51.52.mp45368722181</linkclipref>
								</link>
								<link>
									<linkclipref>ArmA 3 2020.11.14 - 21.05.51.52.mp4536872219</linkclipref>
								</link>
								<link>
									<linkclipref>ArmA 3 2020.11.14 - 21.05.51.52.mp45368722191</linkclipref>
								</link>
								<fielddominance>none</fielddominance>
							</clipitem>
							<clipitem id="ArmA 3 2020.11.14 - 21.06.34.53.mp4805307676">
								<name>ArmA 3 2020.11.14 - 21.06.34.53.mp4</name>
								<duration>1018</duration>
								<rate>
									<ntsc>FALSE</ntsc>
									<timebase>60</timebase>
								</rate>
								<in>0</in>
								<out>1018</out>
								<start>20419</start>
								<end>21437</end>
								<pixelaspectratio>Square</pixelaspectratio>
								<anamorphic>FALSE</anamorphic>
								<alphatype>none</alphatype>
								<masterclipid>ArmA 3 2020.11.14 - 21.06.34.53.mp4</masterclipid>
								<logginginfo>
									<scene />
									<shottake />
									<lognote />
									<good>FALSE</good>
								</logginginfo>
								<labels>
									<label2 />
								</labels>
								<comments>
									<mastercomment1 />
									<mastercomment2 />
									<mastercomment3 />
									<mastercomment4 />
								</comments>
								<file id="ArmA 3 2020.11.14 - 21.06.34.53" />
								<filter>
									<effect>
										<name>Opacity</name>
										<effectid>opacity</effectid>
										<effectcategory>motion</effectcategory>
										<effecttype>motion</effecttype>
										<mediatype>video</mediatype>
										<parameter>
											<name>opacity</name>
											<parameterid>opacity</parameterid>
											<valuemin>0</valuemin>
											<valuemax>100</valuemax>
											<value>100</value>
										</parameter>
									</effect>
								</filter>
								<sourcetrack>
									<mediatype>video</mediatype>
								</sourcetrack>
								<link>
									<linkclipref>ArmA 3 2020.11.14 - 21.06.34.53.mp4805307676</linkclipref>
								</link>
								<link>
									<linkclipref>ArmA 3 2020.11.14 - 21.06.34.53.mp4536872221</linkclipref>
								</link>
								<link>
									<linkclipref>ArmA 3 2020.11.14 - 21.06.34.53.mp45368722211</linkclipref>
								</link>
								<link>
									<linkclipref>ArmA 3 2020.11.14 - 21.06.34.53.mp4536872222</linkclipref>
								</link>
								<link>
									<linkclipref>ArmA 3 2020.11.14 - 21.06.34.53.mp45368722221</linkclipref>
								</link>
								<fielddominance>none</fielddominance>
							</clipitem>
							<clipitem id="ArmA 3 2020.11.14 - 21.07.39.54.mp4805307679">
								<name>ArmA 3 2020.11.14 - 21.07.39.54.mp4</name>
								<duration>2137</duration>
								<rate>
									<ntsc>FALSE</ntsc>
									<timebase>60</timebase>
								</rate>
								<in>0</in>
								<out>2137</out>
								<start>21438</start>
								<end>23575</end>
								<pixelaspectratio>Square</pixelaspectratio>
								<anamorphic>FALSE</anamorphic>
								<alphatype>none</alphatype>
								<masterclipid>ArmA 3 2020.11.14 - 21.07.39.54.mp4</masterclipid>
								<logginginfo>
									<scene />
									<shottake />
									<lognote />
									<good>FALSE</good>
								</logginginfo>
								<labels>
									<label2 />
								</labels>
								<comments>
									<mastercomment1 />
									<mastercomment2 />
									<mastercomment3 />
									<mastercomment4 />
								</comments>
								<file id="ArmA 3 2020.11.14 - 21.07.39.54" />
								<filter>
									<effect>
										<name>Opacity</name>
										<effectid>opacity</effectid>
										<effectcategory>motion</effectcategory>
										<effecttype>motion</effecttype>
										<mediatype>video</mediatype>
										<parameter>
											<name>opacity</name>
											<parameterid>opacity</parameterid>
											<valuemin>0</valuemin>
											<valuemax>100</valuemax>
											<value>100</value>
										</parameter>
									</effect>
								</filter>
								<sourcetrack>
									<mediatype>video</mediatype>
								</sourcetrack>
								<link>
									<linkclipref>ArmA 3 2020.11.14 - 21.07.39.54.mp4805307679</linkclipref>
								</link>
								<link>
									<linkclipref>ArmA 3 2020.11.14 - 21.07.39.54.mp4536872224</linkclipref>
								</link>
								<link>
									<linkclipref>ArmA 3 2020.11.14 - 21.07.39.54.mp45368722241</linkclipref>
								</link>
								<link>
									<linkclipref>ArmA 3 2020.11.14 - 21.07.39.54.mp4536872225</linkclipref>
								</link>
								<link>
									<linkclipref>ArmA 3 2020.11.14 - 21.07.39.54.mp45368722251</linkclipref>
								</link>
								<fielddominance>none</fielddominance>
							</clipitem>
							<clipitem id="ArmA 3 2020.11.14 - 21.12.09.55.mp4805307682">
								<name>ArmA 3 2020.11.14 - 21.12.09.55.mp4</name>
								<duration>4968</duration>
								<rate>
									<ntsc>FALSE</ntsc>
									<timebase>60</timebase>
								</rate>
								<in>0</in>
								<out>4968</out>
								<start>23576</start>
								<end>28544</end>
								<pixelaspectratio>Square</pixelaspectratio>
								<anamorphic>FALSE</anamorphic>
								<alphatype>none</alphatype>
								<masterclipid>ArmA 3 2020.11.14 - 21.12.09.55.mp4</masterclipid>
								<logginginfo>
									<scene />
									<shottake />
									<lognote />
									<good>FALSE</good>
								</logginginfo>
								<labels>
									<label2 />
								</labels>
								<comments>
									<mastercomment1 />
									<mastercomment2 />
									<mastercomment3 />
									<mastercomment4 />
								</comments>
								<file id="ArmA 3 2020.11.14 - 21.12.09.55" />
								<filter>
									<effect>
										<name>Opacity</name>
										<effectid>opacity</effectid>
										<effectcategory>motion</effectcategory>
										<effecttype>motion</effecttype>
										<mediatype>video</mediatype>
										<parameter>
											<name>opacity</name>
											<parameterid>opacity</parameterid>
											<valuemin>0</valuemin>
											<valuemax>100</valuemax>
											<value>100</value>
										</parameter>
									</effect>
								</filter>
								<sourcetrack>
									<mediatype>video</mediatype>
								</sourcetrack>
								<link>
									<linkclipref>ArmA 3 2020.11.14 - 21.12.09.55.mp4805307682</linkclipref>
								</link>
								<link>
									<linkclipref>ArmA 3 2020.11.14 - 21.12.09.55.mp4536872227</linkclipref>
								</link>
								<link>
									<linkclipref>ArmA 3 2020.11.14 - 21.12.09.55.mp45368722271</linkclipref>
								</link>
								<link>
									<linkclipref>ArmA 3 2020.11.14 - 21.12.09.55.mp4536872228</linkclipref>
								</link>
								<link>
									<linkclipref>ArmA 3 2020.11.14 - 21.12.09.55.mp45368722281</linkclipref>
								</link>
								<fielddominance>none</fielddominance>
							</clipitem>
							<clipitem id="ArmA 3 2020.11.14 - 21.17.09.56.mp4805307685">
								<name>ArmA 3 2020.11.14 - 21.17.09.56.mp4</name>
								<duration>2046</duration>
								<rate>
									<ntsc>FALSE</ntsc>
									<timebase>60</timebase>
								</rate>
								<in>0</in>
								<out>2046</out>
								<start>28545</start>
								<end>30591</end>
								<pixelaspectratio>Square</pixelaspectratio>
								<anamorphic>FALSE</anamorphic>
								<alphatype>none</alphatype>
								<masterclipid>ArmA 3 2020.11.14 - 21.17.09.56.mp4</masterclipid>
								<logginginfo>
									<scene />
									<shottake />
									<lognote />
									<good>FALSE</good>
								</logginginfo>
								<labels>
									<label2 />
								</labels>
								<comments>
									<mastercomment1 />
									<mastercomment2 />
									<mastercomment3 />
									<mastercomment4 />
								</comments>
								<file id="ArmA 3 2020.11.14 - 21.17.09.56" />
								<filter>
									<effect>
										<name>Opacity</name>
										<effectid>opacity</effectid>
										<effectcategory>motion</effectcategory>
										<effecttype>motion</effecttype>
										<mediatype>video</mediatype>
										<parameter>
											<name>opacity</name>
											<parameterid>opacity</parameterid>
											<valuemin>0</valuemin>
											<valuemax>100</valuemax>
											<value>100</value>
										</parameter>
									</effect>
								</filter>
								<sourcetrack>
									<mediatype>video</mediatype>
								</sourcetrack>
								<link>
									<linkclipref>ArmA 3 2020.11.14 - 21.17.09.56.mp4805307685</linkclipref>
								</link>
								<link>
									<linkclipref>ArmA 3 2020.11.14 - 21.17.09.56.mp4536872230</linkclipref>
								</link>
								<link>
									<linkclipref>ArmA 3 2020.11.14 - 21.17.09.56.mp45368722301</linkclipref>
								</link>
								<link>
									<linkclipref>ArmA 3 2020.11.14 - 21.17.09.56.mp4536872231</linkclipref>
								</link>
								<link>
									<linkclipref>ArmA 3 2020.11.14 - 21.17.09.56.mp45368722311</linkclipref>
								</link>
								<fielddominance>none</fielddominance>
							</clipitem>
							<clipitem id="ArmA 3 2020.11.14 - 21.18.42.57.mp4805307688">
								<name>ArmA 3 2020.11.14 - 21.18.42.57.mp4</name>
								<duration>648</duration>
								<rate>
									<ntsc>FALSE</ntsc>
									<timebase>60</timebase>
								</rate>
								<in>0</in>
								<out>648</out>
								<start>30592</start>
								<end>31240</end>
								<pixelaspectratio>Square</pixelaspectratio>
								<anamorphic>FALSE</anamorphic>
								<alphatype>none</alphatype>
								<masterclipid>ArmA 3 2020.11.14 - 21.18.42.57.mp4</masterclipid>
								<logginginfo>
									<scene />
									<shottake />
									<lognote />
									<good>FALSE</good>
								</logginginfo>
								<labels>
									<label2 />
								</labels>
								<comments>
									<mastercomment1 />
									<mastercomment2 />
									<mastercomment3 />
									<mastercomment4 />
								</comments>
								<file id="ArmA 3 2020.11.14 - 21.18.42.57" />
								<filter>
									<effect>
										<name>Opacity</name>
										<effectid>opacity</effectid>
										<effectcategory>motion</effectcategory>
										<effecttype>motion</effecttype>
										<mediatype>video</mediatype>
										<parameter>
											<name>opacity</name>
											<parameterid>opacity</parameterid>
											<valuemin>0</valuemin>
											<valuemax>100</valuemax>
											<value>100</value>
										</parameter>
									</effect>
								</filter>
								<sourcetrack>
									<mediatype>video</mediatype>
								</sourcetrack>
								<link>
									<linkclipref>ArmA 3 2020.11.14 - 21.18.42.57.mp4805307688</linkclipref>
								</link>
								<link>
									<linkclipref>ArmA 3 2020.11.14 - 21.18.42.57.mp4536872233</linkclipref>
								</link>
								<link>
									<linkclipref>ArmA 3 2020.11.14 - 21.18.42.57.mp45368722331</linkclipref>
								</link>
								<link>
									<linkclipref>ArmA 3 2020.11.14 - 21.18.42.57.mp4536872234</linkclipref>
								</link>
								<link>
									<linkclipref>ArmA 3 2020.11.14 - 21.18.42.57.mp45368722341</linkclipref>
								</link>
								<fielddominance>none</fielddominance>
							</clipitem>
							<clipitem id="ArmA 3 2020.11.14 - 21.19.27.58.mp4805307691">
								<name>ArmA 3 2020.11.14 - 21.19.27.58.mp4</name>
								<duration>600</duration>
								<rate>
									<ntsc>FALSE</ntsc>
									<timebase>60</timebase>
								</rate>
								<in>0</in>
								<out>600</out>
								<start>31241</start>
								<end>31841</end>
								<pixelaspectratio>Square</pixelaspectratio>
								<anamorphic>FALSE</anamorphic>
								<alphatype>none</alphatype>
								<masterclipid>ArmA 3 2020.11.14 - 21.19.27.58.mp4</masterclipid>
								<logginginfo>
									<scene />
									<shottake />
									<lognote />
									<good>FALSE</good>
								</logginginfo>
								<labels>
									<label2 />
								</labels>
								<comments>
									<mastercomment1 />
									<mastercomment2 />
									<mastercomment3 />
									<mastercomment4 />
								</comments>
								<file id="ArmA 3 2020.11.14 - 21.19.27.58" />
								<filter>
									<effect>
										<name>Opacity</name>
										<effectid>opacity</effectid>
										<effectcategory>motion</effectcategory>
										<effecttype>motion</effecttype>
										<mediatype>video</mediatype>
										<parameter>
											<name>opacity</name>
											<parameterid>opacity</parameterid>
											<valuemin>0</valuemin>
											<valuemax>100</valuemax>
											<value>100</value>
										</parameter>
									</effect>
								</filter>
								<sourcetrack>
									<mediatype>video</mediatype>
								</sourcetrack>
								<link>
									<linkclipref>ArmA 3 2020.11.14 - 21.19.27.58.mp4805307691</linkclipref>
								</link>
								<link>
									<linkclipref>ArmA 3 2020.11.14 - 21.19.27.58.mp4536872236</linkclipref>
								</link>
								<link>
									<linkclipref>ArmA 3 2020.11.14 - 21.19.27.58.mp45368722361</linkclipref>
								</link>
								<link>
									<linkclipref>ArmA 3 2020.11.14 - 21.19.27.58.mp4536872237</linkclipref>
								</link>
								<link>
									<linkclipref>ArmA 3 2020.11.14 - 21.19.27.58.mp45368722371</linkclipref>
								</link>
								<fielddominance>none</fielddominance>
							</clipitem>
							<clipitem id="ArmA 3 2020.11.14 - 21.21.59.59.mp4805307694">
								<name>ArmA 3 2020.11.14 - 21.21.59.59.mp4</name>
								<duration>2221</duration>
								<rate>
									<ntsc>FALSE</ntsc>
									<timebase>60</timebase>
								</rate>
								<in>0</in>
								<out>2221</out>
								<start>31842</start>
								<end>34063</end>
								<pixelaspectratio>Square</pixelaspectratio>
								<anamorphic>FALSE</anamorphic>
								<alphatype>none</alphatype>
								<masterclipid>ArmA 3 2020.11.14 - 21.21.59.59.mp4</masterclipid>
								<logginginfo>
									<scene />
									<shottake />
									<lognote />
									<good>FALSE</good>
								</logginginfo>
								<labels>
									<label2 />
								</labels>
								<comments>
									<mastercomment1 />
									<mastercomment2 />
									<mastercomment3 />
									<mastercomment4 />
								</comments>
								<file id="ArmA 3 2020.11.14 - 21.21.59.59" />
								<filter>
									<effect>
										<name>Opacity</name>
										<effectid>opacity</effectid>
										<effectcategory>motion</effectcategory>
										<effecttype>motion</effecttype>
										<mediatype>video</mediatype>
										<parameter>
											<name>opacity</name>
											<parameterid>opacity</parameterid>
											<valuemin>0</valuemin>
											<valuemax>100</valuemax>
											<value>100</value>
										</parameter>
									</effect>
								</filter>
								<sourcetrack>
									<mediatype>video</mediatype>
								</sourcetrack>
								<link>
									<linkclipref>ArmA 3 2020.11.14 - 21.21.59.59.mp4805307694</linkclipref>
								</link>
								<link>
									<linkclipref>ArmA 3 2020.11.14 - 21.21.59.59.mp4536872239</linkclipref>
								</link>
								<link>
									<linkclipref>ArmA 3 2020.11.14 - 21.21.59.59.mp45368722391</linkclipref>
								</link>
								<link>
									<linkclipref>ArmA 3 2020.11.14 - 21.21.59.59.mp4536872240</linkclipref>
								</link>
								<link>
									<linkclipref>ArmA 3 2020.11.14 - 21.21.59.59.mp45368722401</linkclipref>
								</link>
								<fielddominance>none</fielddominance>
							</clipitem>
							<clipitem id="ArmA 3 2020.11.14 - 21.24.02.60.mp4805307697">
								<name>ArmA 3 2020.11.14 - 21.24.02.60.mp4</name>
								<duration>905</duration>
								<rate>
									<ntsc>FALSE</ntsc>
									<timebase>60</timebase>
								</rate>
								<in>0</in>
								<out>905</out>
								<start>34064</start>
								<end>34969</end>
								<pixelaspectratio>Square</pixelaspectratio>
								<anamorphic>FALSE</anamorphic>
								<alphatype>none</alphatype>
								<masterclipid>ArmA 3 2020.11.14 - 21.24.02.60.mp4</masterclipid>
								<logginginfo>
									<scene />
									<shottake />
									<lognote />
									<good>FALSE</good>
								</logginginfo>
								<labels>
									<label2 />
								</labels>
								<comments>
									<mastercomment1 />
									<mastercomment2 />
									<mastercomment3 />
									<mastercomment4 />
								</comments>
								<file id="ArmA 3 2020.11.14 - 21.24.02.60" />
								<filter>
									<effect>
										<name>Opacity</name>
										<effectid>opacity</effectid>
										<effectcategory>motion</effectcategory>
										<effecttype>motion</effecttype>
										<mediatype>video</mediatype>
										<parameter>
											<name>opacity</name>
											<parameterid>opacity</parameterid>
											<valuemin>0</valuemin>
											<valuemax>100</valuemax>
											<value>100</value>
										</parameter>
									</effect>
								</filter>
								<sourcetrack>
									<mediatype>video</mediatype>
								</sourcetrack>
								<link>
									<linkclipref>ArmA 3 2020.11.14 - 21.24.02.60.mp4805307697</linkclipref>
								</link>
								<link>
									<linkclipref>ArmA 3 2020.11.14 - 21.24.02.60.mp4536872242</linkclipref>
								</link>
								<link>
									<linkclipref>ArmA 3 2020.11.14 - 21.24.02.60.mp45368722421</linkclipref>
								</link>
								<link>
									<linkclipref>ArmA 3 2020.11.14 - 21.24.02.60.mp4536872243</linkclipref>
								</link>
								<link>
									<linkclipref>ArmA 3 2020.11.14 - 21.24.02.60.mp45368722431</linkclipref>
								</link>
								<fielddominance>none</fielddominance>
							</clipitem>
							<clipitem id="ArmA 3 2020.11.14 - 21.25.23.61.mp4805307700">
								<name>ArmA 3 2020.11.14 - 21.25.23.61.mp4</name>
								<duration>1117</duration>
								<rate>
									<ntsc>FALSE</ntsc>
									<timebase>60</timebase>
								</rate>
								<in>0</in>
								<out>1117</out>
								<start>34970</start>
								<end>36087</end>
								<pixelaspectratio>Square</pixelaspectratio>
								<anamorphic>FALSE</anamorphic>
								<alphatype>none</alphatype>
								<masterclipid>ArmA 3 2020.11.14 - 21.25.23.61.mp4</masterclipid>
								<logginginfo>
									<scene />
									<shottake />
									<lognote />
									<good>FALSE</good>
								</logginginfo>
								<labels>
									<label2 />
								</labels>
								<comments>
									<mastercomment1 />
									<mastercomment2 />
									<mastercomment3 />
									<mastercomment4 />
								</comments>
								<file id="ArmA 3 2020.11.14 - 21.25.23.61" />
								<filter>
									<effect>
										<name>Opacity</name>
										<effectid>opacity</effectid>
										<effectcategory>motion</effectcategory>
										<effecttype>motion</effecttype>
										<mediatype>video</mediatype>
										<parameter>
											<name>opacity</name>
											<parameterid>opacity</parameterid>
											<valuemin>0</valuemin>
											<valuemax>100</valuemax>
											<value>100</value>
										</parameter>
									</effect>
								</filter>
								<sourcetrack>
									<mediatype>video</mediatype>
								</sourcetrack>
								<link>
									<linkclipref>ArmA 3 2020.11.14 - 21.25.23.61.mp4805307700</linkclipref>
								</link>
								<link>
									<linkclipref>ArmA 3 2020.11.14 - 21.25.23.61.mp4536872245</linkclipref>
								</link>
								<link>
									<linkclipref>ArmA 3 2020.11.14 - 21.25.23.61.mp45368722451</linkclipref>
								</link>
								<link>
									<linkclipref>ArmA 3 2020.11.14 - 21.25.23.61.mp4536872246</linkclipref>
								</link>
								<link>
									<linkclipref>ArmA 3 2020.11.14 - 21.25.23.61.mp45368722461</linkclipref>
								</link>
								<fielddominance>none</fielddominance>
							</clipitem>
							<clipitem id="ArmA 3 2020.11.14 - 21.26.46.62.mp4805307703">
								<name>ArmA 3 2020.11.14 - 21.26.46.62.mp4</name>
								<duration>1358</duration>
								<rate>
									<ntsc>FALSE</ntsc>
									<timebase>60</timebase>
								</rate>
								<in>0</in>
								<out>1358</out>
								<start>36088</start>
								<end>37446</end>
								<pixelaspectratio>Square</pixelaspectratio>
								<anamorphic>FALSE</anamorphic>
								<alphatype>none</alphatype>
								<masterclipid>ArmA 3 2020.11.14 - 21.26.46.62.mp4</masterclipid>
								<logginginfo>
									<scene />
									<shottake />
									<lognote />
									<good>FALSE</good>
								</logginginfo>
								<labels>
									<label2 />
								</labels>
								<comments>
									<mastercomment1 />
									<mastercomment2 />
									<mastercomment3 />
									<mastercomment4 />
								</comments>
								<file id="ArmA 3 2020.11.14 - 21.26.46.62" />
								<filter>
									<effect>
										<name>Opacity</name>
										<effectid>opacity</effectid>
										<effectcategory>motion</effectcategory>
										<effecttype>motion</effecttype>
										<mediatype>video</mediatype>
										<parameter>
											<name>opacity</name>
											<parameterid>opacity</parameterid>
											<valuemin>0</valuemin>
											<valuemax>100</valuemax>
											<value>100</value>
										</parameter>
									</effect>
								</filter>
								<sourcetrack>
									<mediatype>video</mediatype>
								</sourcetrack>
								<link>
									<linkclipref>ArmA 3 2020.11.14 - 21.26.46.62.mp4805307703</linkclipref>
								</link>
								<link>
									<linkclipref>ArmA 3 2020.11.14 - 21.26.46.62.mp4536872248</linkclipref>
								</link>
								<link>
									<linkclipref>ArmA 3 2020.11.14 - 21.26.46.62.mp45368722481</linkclipref>
								</link>
								<link>
									<linkclipref>ArmA 3 2020.11.14 - 21.26.46.62.mp4536872249</linkclipref>
								</link>
								<link>
									<linkclipref>ArmA 3 2020.11.14 - 21.26.46.62.mp45368722491</linkclipref>
								</link>
								<fielddominance>none</fielddominance>
							</clipitem>
							<clipitem id="ArmA 3 2020.11.14 - 21.28.34.63.mp4805307706">
								<name>ArmA 3 2020.11.14 - 21.28.34.63.mp4</name>
								<duration>1117</duration>
								<rate>
									<ntsc>FALSE</ntsc>
									<timebase>60</timebase>
								</rate>
								<in>0</in>
								<out>1117</out>
								<start>37447</start>
								<end>38564</end>
								<pixelaspectratio>Square</pixelaspectratio>
								<anamorphic>FALSE</anamorphic>
								<alphatype>none</alphatype>
								<masterclipid>ArmA 3 2020.11.14 - 21.28.34.63.mp4</masterclipid>
								<logginginfo>
									<scene />
									<shottake />
									<lognote />
									<good>FALSE</good>
								</logginginfo>
								<labels>
									<label2 />
								</labels>
								<comments>
									<mastercomment1 />
									<mastercomment2 />
									<mastercomment3 />
									<mastercomment4 />
								</comments>
								<file id="ArmA 3 2020.11.14 - 21.28.34.63" />
								<filter>
									<effect>
										<name>Opacity</name>
										<effectid>opacity</effectid>
										<effectcategory>motion</effectcategory>
										<effecttype>motion</effecttype>
										<mediatype>video</mediatype>
										<parameter>
											<name>opacity</name>
											<parameterid>opacity</parameterid>
											<valuemin>0</valuemin>
											<valuemax>100</valuemax>
											<value>100</value>
										</parameter>
									</effect>
								</filter>
								<sourcetrack>
									<mediatype>video</mediatype>
								</sourcetrack>
								<link>
									<linkclipref>ArmA 3 2020.11.14 - 21.28.34.63.mp4805307706</linkclipref>
								</link>
								<link>
									<linkclipref>ArmA 3 2020.11.14 - 21.28.34.63.mp4536872251</linkclipref>
								</link>
								<link>
									<linkclipref>ArmA 3 2020.11.14 - 21.28.34.63.mp45368722511</linkclipref>
								</link>
								<link>
									<linkclipref>ArmA 3 2020.11.14 - 21.28.34.63.mp4536872252</linkclipref>
								</link>
								<link>
									<linkclipref>ArmA 3 2020.11.14 - 21.28.34.63.mp45368722521</linkclipref>
								</link>
								<fielddominance>none</fielddominance>
							</clipitem>
							<clipitem id="ArmA 3 2020.11.14 - 21.29.57.64.mp4805307709">
								<name>ArmA 3 2020.11.14 - 21.29.57.64.mp4</name>
								<duration>3146</duration>
								<rate>
									<ntsc>FALSE</ntsc>
									<timebase>60</timebase>
								</rate>
								<in>0</in>
								<out>3146</out>
								<start>38565</start>
								<end>41711</end>
								<pixelaspectratio>Square</pixelaspectratio>
								<anamorphic>FALSE</anamorphic>
								<alphatype>none</alphatype>
								<masterclipid>ArmA 3 2020.11.14 - 21.29.57.64.mp4</masterclipid>
								<logginginfo>
									<scene />
									<shottake />
									<lognote />
									<good>FALSE</good>
								</logginginfo>
								<labels>
									<label2 />
								</labels>
								<comments>
									<mastercomment1 />
									<mastercomment2 />
									<mastercomment3 />
									<mastercomment4 />
								</comments>
								<file id="ArmA 3 2020.11.14 - 21.29.57.64" />
								<filter>
									<effect>
										<name>Opacity</name>
										<effectid>opacity</effectid>
										<effectcategory>motion</effectcategory>
										<effecttype>motion</effecttype>
										<mediatype>video</mediatype>
										<parameter>
											<name>opacity</name>
											<parameterid>opacity</parameterid>
											<valuemin>0</valuemin>
											<valuemax>100</valuemax>
											<value>100</value>
										</parameter>
									</effect>
								</filter>
								<sourcetrack>
									<mediatype>video</mediatype>
								</sourcetrack>
								<link>
									<linkclipref>ArmA 3 2020.11.14 - 21.29.57.64.mp4805307709</linkclipref>
								</link>
								<link>
									<linkclipref>ArmA 3 2020.11.14 - 21.29.57.64.mp4536872254</linkclipref>
								</link>
								<link>
									<linkclipref>ArmA 3 2020.11.14 - 21.29.57.64.mp45368722541</linkclipref>
								</link>
								<link>
									<linkclipref>ArmA 3 2020.11.14 - 21.29.57.64.mp4536872255</linkclipref>
								</link>
								<link>
									<linkclipref>ArmA 3 2020.11.14 - 21.29.57.64.mp45368722551</linkclipref>
								</link>
								<fielddominance>none</fielddominance>
							</clipitem>
							<clipitem id="ArmA 3 2020.11.14 - 21.32.55.65.mp4805307712">
								<name>ArmA 3 2020.11.14 - 21.32.55.65.mp4</name>
								<duration>662</duration>
								<rate>
									<ntsc>FALSE</ntsc>
									<timebase>60</timebase>
								</rate>
								<in>0</in>
								<out>662</out>
								<start>41712</start>
								<end>42374</end>
								<pixelaspectratio>Square</pixelaspectratio>
								<anamorphic>FALSE</anamorphic>
								<alphatype>none</alphatype>
								<masterclipid>ArmA 3 2020.11.14 - 21.32.55.65.mp4</masterclipid>
								<logginginfo>
									<scene />
									<shottake />
									<lognote />
									<good>FALSE</good>
								</logginginfo>
								<labels>
									<label2 />
								</labels>
								<comments>
									<mastercomment1 />
									<mastercomment2 />
									<mastercomment3 />
									<mastercomment4 />
								</comments>
								<file id="ArmA 3 2020.11.14 - 21.32.55.65" />
								<filter>
									<effect>
										<name>Opacity</name>
										<effectid>opacity</effectid>
										<effectcategory>motion</effectcategory>
										<effecttype>motion</effecttype>
										<mediatype>video</mediatype>
										<parameter>
											<name>opacity</name>
											<parameterid>opacity</parameterid>
											<valuemin>0</valuemin>
											<valuemax>100</valuemax>
											<value>100</value>
										</parameter>
									</effect>
								</filter>
								<sourcetrack>
									<mediatype>video</mediatype>
								</sourcetrack>
								<link>
									<linkclipref>ArmA 3 2020.11.14 - 21.32.55.65.mp4805307712</linkclipref>
								</link>
								<link>
									<linkclipref>ArmA 3 2020.11.14 - 21.32.55.65.mp4536872257</linkclipref>
								</link>
								<link>
									<linkclipref>ArmA 3 2020.11.14 - 21.32.55.65.mp45368722571</linkclipref>
								</link>
								<link>
									<linkclipref>ArmA 3 2020.11.14 - 21.32.55.65.mp4536872258</linkclipref>
								</link>
								<link>
									<linkclipref>ArmA 3 2020.11.14 - 21.32.55.65.mp45368722581</linkclipref>
								</link>
								<fielddominance>none</fielddominance>
							</clipitem>
							<clipitem id="ArmA 3 2020.11.14 - 21.33.51.66.mp4805307715">
								<name>ArmA 3 2020.11.14 - 21.33.51.66.mp4</name>
								<duration>1169</duration>
								<rate>
									<ntsc>FALSE</ntsc>
									<timebase>60</timebase>
								</rate>
								<in>0</in>
								<out>1169</out>
								<start>42375</start>
								<end>43544</end>
								<pixelaspectratio>Square</pixelaspectratio>
								<anamorphic>FALSE</anamorphic>
								<alphatype>none</alphatype>
								<masterclipid>ArmA 3 2020.11.14 - 21.33.51.66.mp4</masterclipid>
								<logginginfo>
									<scene />
									<shottake />
									<lognote />
									<good>FALSE</good>
								</logginginfo>
								<labels>
									<label2 />
								</labels>
								<comments>
									<mastercomment1 />
									<mastercomment2 />
									<mastercomment3 />
									<mastercomment4 />
								</comments>
								<file id="ArmA 3 2020.11.14 - 21.33.51.66" />
								<filter>
									<effect>
										<name>Opacity</name>
										<effectid>opacity</effectid>
										<effectcategory>motion</effectcategory>
										<effecttype>motion</effecttype>
										<mediatype>video</mediatype>
										<parameter>
											<name>opacity</name>
											<parameterid>opacity</parameterid>
											<valuemin>0</valuemin>
											<valuemax>100</valuemax>
											<value>100</value>
										</parameter>
									</effect>
								</filter>
								<sourcetrack>
									<mediatype>video</mediatype>
								</sourcetrack>
								<link>
									<linkclipref>ArmA 3 2020.11.14 - 21.33.51.66.mp4805307715</linkclipref>
								</link>
								<link>
									<linkclipref>ArmA 3 2020.11.14 - 21.33.51.66.mp4536872260</linkclipref>
								</link>
								<link>
									<linkclipref>ArmA 3 2020.11.14 - 21.33.51.66.mp45368722601</linkclipref>
								</link>
								<link>
									<linkclipref>ArmA 3 2020.11.14 - 21.33.51.66.mp4536872261</linkclipref>
								</link>
								<link>
									<linkclipref>ArmA 3 2020.11.14 - 21.33.51.66.mp45368722611</linkclipref>
								</link>
								<fielddominance>none</fielddominance>
							</clipitem>
							<clipitem id="ArmA 3 2020.11.14 - 21.34.50.67.mp4805307718">
								<name>ArmA 3 2020.11.14 - 21.34.50.67.mp4</name>
								<duration>711</duration>
								<rate>
									<ntsc>FALSE</ntsc>
									<timebase>60</timebase>
								</rate>
								<in>0</in>
								<out>711</out>
								<start>43545</start>
								<end>44256</end>
								<pixelaspectratio>Square</pixelaspectratio>
								<anamorphic>FALSE</anamorphic>
								<alphatype>none</alphatype>
								<masterclipid>ArmA 3 2020.11.14 - 21.34.50.67.mp4</masterclipid>
								<logginginfo>
									<scene />
									<shottake />
									<lognote />
									<good>FALSE</good>
								</logginginfo>
								<labels>
									<label2 />
								</labels>
								<comments>
									<mastercomment1 />
									<mastercomment2 />
									<mastercomment3 />
									<mastercomment4 />
								</comments>
								<file id="ArmA 3 2020.11.14 - 21.34.50.67" />
								<filter>
									<effect>
										<name>Opacity</name>
										<effectid>opacity</effectid>
										<effectcategory>motion</effectcategory>
										<effecttype>motion</effecttype>
										<mediatype>video</mediatype>
										<parameter>
											<name>opacity</name>
											<parameterid>opacity</parameterid>
											<valuemin>0</valuemin>
											<valuemax>100</valuemax>
											<value>100</value>
										</parameter>
									</effect>
								</filter>
								<sourcetrack>
									<mediatype>video</mediatype>
								</sourcetrack>
								<link>
									<linkclipref>ArmA 3 2020.11.14 - 21.34.50.67.mp4805307718</linkclipref>
								</link>
								<link>
									<linkclipref>ArmA 3 2020.11.14 - 21.34.50.67.mp4536872263</linkclipref>
								</link>
								<link>
									<linkclipref>ArmA 3 2020.11.14 - 21.34.50.67.mp45368722631</linkclipref>
								</link>
								<link>
									<linkclipref>ArmA 3 2020.11.14 - 21.34.50.67.mp4536872264</linkclipref>
								</link>
								<link>
									<linkclipref>ArmA 3 2020.11.14 - 21.34.50.67.mp45368722641</linkclipref>
								</link>
								<fielddominance>none</fielddominance>
							</clipitem>
							<clipitem id="ArmA 3 2020.11.14 - 21.36.53.68.mp4805307721">
								<name>ArmA 3 2020.11.14 - 21.36.53.68.mp4</name>
								<duration>209</duration>
								<rate>
									<ntsc>FALSE</ntsc>
									<timebase>60</timebase>
								</rate>
								<in>0</in>
								<out>209</out>
								<start>44257</start>
								<end>44466</end>
								<pixelaspectratio>Square</pixelaspectratio>
								<anamorphic>FALSE</anamorphic>
								<alphatype>none</alphatype>
								<masterclipid>ArmA 3 2020.11.14 - 21.36.53.68.mp4</masterclipid>
								<logginginfo>
									<scene />
									<shottake />
									<lognote />
									<good>FALSE</good>
								</logginginfo>
								<labels>
									<label2 />
								</labels>
								<comments>
									<mastercomment1 />
									<mastercomment2 />
									<mastercomment3 />
									<mastercomment4 />
								</comments>
								<file id="ArmA 3 2020.11.14 - 21.36.53.68" />
								<filter>
									<effect>
										<name>Opacity</name>
										<effectid>opacity</effectid>
										<effectcategory>motion</effectcategory>
										<effecttype>motion</effecttype>
										<mediatype>video</mediatype>
										<parameter>
											<name>opacity</name>
											<parameterid>opacity</parameterid>
											<valuemin>0</valuemin>
											<valuemax>100</valuemax>
											<value>100</value>
										</parameter>
									</effect>
								</filter>
								<sourcetrack>
									<mediatype>video</mediatype>
								</sourcetrack>
								<link>
									<linkclipref>ArmA 3 2020.11.14 - 21.36.53.68.mp4805307721</linkclipref>
								</link>
								<link>
									<linkclipref>ArmA 3 2020.11.14 - 21.36.53.68.mp4536872266</linkclipref>
								</link>
								<link>
									<linkclipref>ArmA 3 2020.11.14 - 21.36.53.68.mp45368722661</linkclipref>
								</link>
								<link>
									<linkclipref>ArmA 3 2020.11.14 - 21.36.53.68.mp4536872267</linkclipref>
								</link>
								<link>
									<linkclipref>ArmA 3 2020.11.14 - 21.36.53.68.mp45368722671</linkclipref>
								</link>
								<fielddominance>none</fielddominance>
							</clipitem>
							<clipitem id="ArmA 3 2020.11.14 - 21.37.06.69.mp4805307724">
								<name>ArmA 3 2020.11.14 - 21.37.06.69.mp4</name>
								<duration>242</duration>
								<rate>
									<ntsc>FALSE</ntsc>
									<timebase>60</timebase>
								</rate>
								<in>0</in>
								<out>242</out>
								<start>44467</start>
								<end>44709</end>
								<pixelaspectratio>Square</pixelaspectratio>
								<anamorphic>FALSE</anamorphic>
								<alphatype>none</alphatype>
								<masterclipid>ArmA 3 2020.11.14 - 21.37.06.69.mp4</masterclipid>
								<logginginfo>
									<scene />
									<shottake />
									<lognote />
									<good>FALSE</good>
								</logginginfo>
								<labels>
									<label2 />
								</labels>
								<comments>
									<mastercomment1 />
									<mastercomment2 />
									<mastercomment3 />
									<mastercomment4 />
								</comments>
								<file id="ArmA 3 2020.11.14 - 21.37.06.69" />
								<filter>
									<effect>
										<name>Opacity</name>
										<effectid>opacity</effectid>
										<effectcategory>motion</effectcategory>
										<effecttype>motion</effecttype>
										<mediatype>video</mediatype>
										<parameter>
											<name>opacity</name>
											<parameterid>opacity</parameterid>
											<valuemin>0</valuemin>
											<valuemax>100</valuemax>
											<value>100</value>
										</parameter>
									</effect>
								</filter>
								<sourcetrack>
									<mediatype>video</mediatype>
								</sourcetrack>
								<link>
									<linkclipref>ArmA 3 2020.11.14 - 21.37.06.69.mp4805307724</linkclipref>
								</link>
								<link>
									<linkclipref>ArmA 3 2020.11.14 - 21.37.06.69.mp4536872269</linkclipref>
								</link>
								<link>
									<linkclipref>ArmA 3 2020.11.14 - 21.37.06.69.mp45368722691</linkclipref>
								</link>
								<link>
									<linkclipref>ArmA 3 2020.11.14 - 21.37.06.69.mp4536872270</linkclipref>
								</link>
								<link>
									<linkclipref>ArmA 3 2020.11.14 - 21.37.06.69.mp45368722701</linkclipref>
								</link>
								<fielddominance>none</fielddominance>
							</clipitem>
							<clipitem id="ArmA 3 2020.11.14 - 21.37.32.70.mp4805307727">
								<name>ArmA 3 2020.11.14 - 21.37.32.70.mp4</name>
								<duration>816</duration>
								<rate>
									<ntsc>FALSE</ntsc>
									<timebase>60</timebase>
								</rate>
								<in>0</in>
								<out>816</out>
								<start>44710</start>
								<end>45526</end>
								<pixelaspectratio>Square</pixelaspectratio>
								<anamorphic>FALSE</anamorphic>
								<alphatype>none</alphatype>
								<masterclipid>ArmA 3 2020.11.14 - 21.37.32.70.mp4</masterclipid>
								<logginginfo>
									<scene />
									<shottake />
									<lognote />
									<good>FALSE</good>
								</logginginfo>
								<labels>
									<label2 />
								</labels>
								<comments>
									<mastercomment1 />
									<mastercomment2 />
									<mastercomment3 />
									<mastercomment4 />
								</comments>
								<file id="ArmA 3 2020.11.14 - 21.37.32.70" />
								<filter>
									<effect>
										<name>Opacity</name>
										<effectid>opacity</effectid>
										<effectcategory>motion</effectcategory>
										<effecttype>motion</effecttype>
										<mediatype>video</mediatype>
										<parameter>
											<name>opacity</name>
											<parameterid>opacity</parameterid>
											<valuemin>0</valuemin>
											<valuemax>100</valuemax>
											<value>100</value>
										</parameter>
									</effect>
								</filter>
								<sourcetrack>
									<mediatype>video</mediatype>
								</sourcetrack>
								<link>
									<linkclipref>ArmA 3 2020.11.14 - 21.37.32.70.mp4805307727</linkclipref>
								</link>
								<link>
									<linkclipref>ArmA 3 2020.11.14 - 21.37.32.70.mp4536872272</linkclipref>
								</link>
								<link>
									<linkclipref>ArmA 3 2020.11.14 - 21.37.32.70.mp45368722721</linkclipref>
								</link>
								<link>
									<linkclipref>ArmA 3 2020.11.14 - 21.37.32.70.mp4536872273</linkclipref>
								</link>
								<link>
									<linkclipref>ArmA 3 2020.11.14 - 21.37.32.70.mp45368722731</linkclipref>
								</link>
								<fielddominance>none</fielddominance>
							</clipitem>
							<clipitem id="ArmA 3 2020.11.14 - 21.38.41.71.mp4805307730">
								<name>ArmA 3 2020.11.14 - 21.38.41.71.mp4</name>
								<duration>191</duration>
								<rate>
									<ntsc>FALSE</ntsc>
									<timebase>60</timebase>
								</rate>
								<in>0</in>
								<out>191</out>
								<start>45527</start>
								<end>45718</end>
								<pixelaspectratio>Square</pixelaspectratio>
								<anamorphic>FALSE</anamorphic>
								<alphatype>none</alphatype>
								<masterclipid>ArmA 3 2020.11.14 - 21.38.41.71.mp4</masterclipid>
								<logginginfo>
									<scene />
									<shottake />
									<lognote />
									<good>FALSE</good>
								</logginginfo>
								<labels>
									<label2 />
								</labels>
								<comments>
									<mastercomment1 />
									<mastercomment2 />
									<mastercomment3 />
									<mastercomment4 />
								</comments>
								<file id="ArmA 3 2020.11.14 - 21.38.41.71" />
								<filter>
									<effect>
										<name>Opacity</name>
										<effectid>opacity</effectid>
										<effectcategory>motion</effectcategory>
										<effecttype>motion</effecttype>
										<mediatype>video</mediatype>
										<parameter>
											<name>opacity</name>
											<parameterid>opacity</parameterid>
											<valuemin>0</valuemin>
											<valuemax>100</valuemax>
											<value>100</value>
										</parameter>
									</effect>
								</filter>
								<sourcetrack>
									<mediatype>video</mediatype>
								</sourcetrack>
								<link>
									<linkclipref>ArmA 3 2020.11.14 - 21.38.41.71.mp4805307730</linkclipref>
								</link>
								<link>
									<linkclipref>ArmA 3 2020.11.14 - 21.38.41.71.mp4536872275</linkclipref>
								</link>
								<link>
									<linkclipref>ArmA 3 2020.11.14 - 21.38.41.71.mp45368722751</linkclipref>
								</link>
								<link>
									<linkclipref>ArmA 3 2020.11.14 - 21.38.41.71.mp4536872276</linkclipref>
								</link>
								<link>
									<linkclipref>ArmA 3 2020.11.14 - 21.38.41.71.mp45368722761</linkclipref>
								</link>
								<fielddominance>none</fielddominance>
							</clipitem>
							<clipitem id="ArmA 3 2020.11.14 - 21.38.56.72.mp4805307733">
								<name>ArmA 3 2020.11.14 - 21.38.56.72.mp4</name>
								<duration>110</duration>
								<rate>
									<ntsc>FALSE</ntsc>
									<timebase>60</timebase>
								</rate>
								<in>0</in>
								<out>110</out>
								<start>45719</start>
								<end>45829</end>
								<pixelaspectratio>Square</pixelaspectratio>
								<anamorphic>FALSE</anamorphic>
								<alphatype>none</alphatype>
								<masterclipid>ArmA 3 2020.11.14 - 21.38.56.72.mp4</masterclipid>
								<logginginfo>
									<scene />
									<shottake />
									<lognote />
									<good>FALSE</good>
								</logginginfo>
								<labels>
									<label2 />
								</labels>
								<comments>
									<mastercomment1 />
									<mastercomment2 />
									<mastercomment3 />
									<mastercomment4 />
								</comments>
								<file id="ArmA 3 2020.11.14 - 21.38.56.72" />
								<filter>
									<effect>
										<name>Opacity</name>
										<effectid>opacity</effectid>
										<effectcategory>motion</effectcategory>
										<effecttype>motion</effecttype>
										<mediatype>video</mediatype>
										<parameter>
											<name>opacity</name>
											<parameterid>opacity</parameterid>
											<valuemin>0</valuemin>
											<valuemax>100</valuemax>
											<value>100</value>
										</parameter>
									</effect>
								</filter>
								<sourcetrack>
									<mediatype>video</mediatype>
								</sourcetrack>
								<link>
									<linkclipref>ArmA 3 2020.11.14 - 21.38.56.72.mp4805307733</linkclipref>
								</link>
								<link>
									<linkclipref>ArmA 3 2020.11.14 - 21.38.56.72.mp4536872278</linkclipref>
								</link>
								<link>
									<linkclipref>ArmA 3 2020.11.14 - 21.38.56.72.mp45368722781</linkclipref>
								</link>
								<link>
									<linkclipref>ArmA 3 2020.11.14 - 21.38.56.72.mp4536872279</linkclipref>
								</link>
								<link>
									<linkclipref>ArmA 3 2020.11.14 - 21.38.56.72.mp45368722791</linkclipref>
								</link>
								<fielddominance>none</fielddominance>
							</clipitem>
							<clipitem id="ArmA 3 2020.11.14 - 21.43.48.73.mp4805307736">
								<name>ArmA 3 2020.11.14 - 21.43.48.73.mp4</name>
								<duration>955</duration>
								<rate>
									<ntsc>FALSE</ntsc>
									<timebase>60</timebase>
								</rate>
								<in>0</in>
								<out>955</out>
								<start>45830</start>
								<end>46785</end>
								<pixelaspectratio>Square</pixelaspectratio>
								<anamorphic>FALSE</anamorphic>
								<alphatype>none</alphatype>
								<masterclipid>ArmA 3 2020.11.14 - 21.43.48.73.mp4</masterclipid>
								<logginginfo>
									<scene />
									<shottake />
									<lognote />
									<good>FALSE</good>
								</logginginfo>
								<labels>
									<label2 />
								</labels>
								<comments>
									<mastercomment1 />
									<mastercomment2 />
									<mastercomment3 />
									<mastercomment4 />
								</comments>
								<file id="ArmA 3 2020.11.14 - 21.43.48.73" />
								<filter>
									<effect>
										<name>Opacity</name>
										<effectid>opacity</effectid>
										<effectcategory>motion</effectcategory>
										<effecttype>motion</effecttype>
										<mediatype>video</mediatype>
										<parameter>
											<name>opacity</name>
											<parameterid>opacity</parameterid>
											<valuemin>0</valuemin>
											<valuemax>100</valuemax>
											<value>100</value>
										</parameter>
									</effect>
								</filter>
								<sourcetrack>
									<mediatype>video</mediatype>
								</sourcetrack>
								<link>
									<linkclipref>ArmA 3 2020.11.14 - 21.43.48.73.mp4805307736</linkclipref>
								</link>
								<link>
									<linkclipref>ArmA 3 2020.11.14 - 21.43.48.73.mp4536872281</linkclipref>
								</link>
								<link>
									<linkclipref>ArmA 3 2020.11.14 - 21.43.48.73.mp45368722811</linkclipref>
								</link>
								<link>
									<linkclipref>ArmA 3 2020.11.14 - 21.43.48.73.mp4536872282</linkclipref>
								</link>
								<link>
									<linkclipref>ArmA 3 2020.11.14 - 21.43.48.73.mp45368722821</linkclipref>
								</link>
								<fielddominance>none</fielddominance>
							</clipitem>
							<clipitem id="ArmA 3 2020.11.14 - 21.48.32.74.mp4805307739">
								<name>ArmA 3 2020.11.14 - 21.48.32.74.mp4</name>
								<duration>614</duration>
								<rate>
									<ntsc>FALSE</ntsc>
									<timebase>60</timebase>
								</rate>
								<in>0</in>
								<out>614</out>
								<start>46786</start>
								<end>47400</end>
								<pixelaspectratio>Square</pixelaspectratio>
								<anamorphic>FALSE</anamorphic>
								<alphatype>none</alphatype>
								<masterclipid>ArmA 3 2020.11.14 - 21.48.32.74.mp4</masterclipid>
								<logginginfo>
									<scene />
									<shottake />
									<lognote />
									<good>FALSE</good>
								</logginginfo>
								<labels>
									<label2 />
								</labels>
								<comments>
									<mastercomment1 />
									<mastercomment2 />
									<mastercomment3 />
									<mastercomment4 />
								</comments>
								<file id="ArmA 3 2020.11.14 - 21.48.32.74" />
								<filter>
									<effect>
										<name>Opacity</name>
										<effectid>opacity</effectid>
										<effectcategory>motion</effectcategory>
										<effecttype>motion</effecttype>
										<mediatype>video</mediatype>
										<parameter>
											<name>opacity</name>
											<parameterid>opacity</parameterid>
											<valuemin>0</valuemin>
											<valuemax>100</valuemax>
											<value>100</value>
										</parameter>
									</effect>
								</filter>
								<sourcetrack>
									<mediatype>video</mediatype>
								</sourcetrack>
								<link>
									<linkclipref>ArmA 3 2020.11.14 - 21.48.32.74.mp4805307739</linkclipref>
								</link>
								<link>
									<linkclipref>ArmA 3 2020.11.14 - 21.48.32.74.mp4536872284</linkclipref>
								</link>
								<link>
									<linkclipref>ArmA 3 2020.11.14 - 21.48.32.74.mp45368722841</linkclipref>
								</link>
								<link>
									<linkclipref>ArmA 3 2020.11.14 - 21.48.32.74.mp4536872285</linkclipref>
								</link>
								<link>
									<linkclipref>ArmA 3 2020.11.14 - 21.48.32.74.mp45368722851</linkclipref>
								</link>
								<fielddominance>none</fielddominance>
							</clipitem>
							<clipitem id="ArmA 3 2020.11.14 - 21.51.33.75.mp4805307742">
								<name>ArmA 3 2020.11.14 - 21.51.33.75.mp4</name>
								<duration>821</duration>
								<rate>
									<ntsc>FALSE</ntsc>
									<timebase>60</timebase>
								</rate>
								<in>0</in>
								<out>821</out>
								<start>47401</start>
								<end>48222</end>
								<pixelaspectratio>Square</pixelaspectratio>
								<anamorphic>FALSE</anamorphic>
								<alphatype>none</alphatype>
								<masterclipid>ArmA 3 2020.11.14 - 21.51.33.75.mp4</masterclipid>
								<logginginfo>
									<scene />
									<shottake />
									<lognote />
									<good>FALSE</good>
								</logginginfo>
								<labels>
									<label2 />
								</labels>
								<comments>
									<mastercomment1 />
									<mastercomment2 />
									<mastercomment3 />
									<mastercomment4 />
								</comments>
								<file id="ArmA 3 2020.11.14 - 21.51.33.75" />
								<filter>
									<effect>
										<name>Opacity</name>
										<effectid>opacity</effectid>
										<effectcategory>motion</effectcategory>
										<effecttype>motion</effecttype>
										<mediatype>video</mediatype>
										<parameter>
											<name>opacity</name>
											<parameterid>opacity</parameterid>
											<valuemin>0</valuemin>
											<valuemax>100</valuemax>
											<value>100</value>
										</parameter>
									</effect>
								</filter>
								<sourcetrack>
									<mediatype>video</mediatype>
								</sourcetrack>
								<link>
									<linkclipref>ArmA 3 2020.11.14 - 21.51.33.75.mp4805307742</linkclipref>
								</link>
								<link>
									<linkclipref>ArmA 3 2020.11.14 - 21.51.33.75.mp4536872287</linkclipref>
								</link>
								<link>
									<linkclipref>ArmA 3 2020.11.14 - 21.51.33.75.mp45368722871</linkclipref>
								</link>
								<link>
									<linkclipref>ArmA 3 2020.11.14 - 21.51.33.75.mp4536872288</linkclipref>
								</link>
								<link>
									<linkclipref>ArmA 3 2020.11.14 - 21.51.33.75.mp45368722881</linkclipref>
								</link>
								<fielddominance>none</fielddominance>
							</clipitem>
							<clipitem id="ArmA 3 2020.11.14 - 21.52.58.76.mp4805307745">
								<name>ArmA 3 2020.11.14 - 21.52.58.76.mp4</name>
								<duration>836</duration>
								<rate>
									<ntsc>FALSE</ntsc>
									<timebase>60</timebase>
								</rate>
								<in>0</in>
								<out>836</out>
								<start>48223</start>
								<end>49059</end>
								<pixelaspectratio>Square</pixelaspectratio>
								<anamorphic>FALSE</anamorphic>
								<alphatype>none</alphatype>
								<masterclipid>ArmA 3 2020.11.14 - 21.52.58.76.mp4</masterclipid>
								<logginginfo>
									<scene />
									<shottake />
									<lognote />
									<good>FALSE</good>
								</logginginfo>
								<labels>
									<label2 />
								</labels>
								<comments>
									<mastercomment1 />
									<mastercomment2 />
									<mastercomment3 />
									<mastercomment4 />
								</comments>
								<file id="ArmA 3 2020.11.14 - 21.52.58.76" />
								<filter>
									<effect>
										<name>Opacity</name>
										<effectid>opacity</effectid>
										<effectcategory>motion</effectcategory>
										<effecttype>motion</effecttype>
										<mediatype>video</mediatype>
										<parameter>
											<name>opacity</name>
											<parameterid>opacity</parameterid>
											<valuemin>0</valuemin>
											<valuemax>100</valuemax>
											<value>100</value>
										</parameter>
									</effect>
								</filter>
								<sourcetrack>
									<mediatype>video</mediatype>
								</sourcetrack>
								<link>
									<linkclipref>ArmA 3 2020.11.14 - 21.52.58.76.mp4805307745</linkclipref>
								</link>
								<link>
									<linkclipref>ArmA 3 2020.11.14 - 21.52.58.76.mp4536872290</linkclipref>
								</link>
								<link>
									<linkclipref>ArmA 3 2020.11.14 - 21.52.58.76.mp45368722901</linkclipref>
								</link>
								<link>
									<linkclipref>ArmA 3 2020.11.14 - 21.52.58.76.mp4536872291</linkclipref>
								</link>
								<link>
									<linkclipref>ArmA 3 2020.11.14 - 21.52.58.76.mp45368722911</linkclipref>
								</link>
								<fielddominance>none</fielddominance>
							</clipitem>
							<clipitem id="ArmA 3 2020.11.14 - 21.54.08.77.mp4805307748">
								<name>ArmA 3 2020.11.14 - 21.54.08.77.mp4</name>
								<duration>1393</duration>
								<rate>
									<ntsc>FALSE</ntsc>
									<timebase>60</timebase>
								</rate>
								<in>0</in>
								<out>1393</out>
								<start>49060</start>
								<end>50453</end>
								<pixelaspectratio>Square</pixelaspectratio>
								<anamorphic>FALSE</anamorphic>
								<alphatype>none</alphatype>
								<masterclipid>ArmA 3 2020.11.14 - 21.54.08.77.mp4</masterclipid>
								<logginginfo>
									<scene />
									<shottake />
									<lognote />
									<good>FALSE</good>
								</logginginfo>
								<labels>
									<label2 />
								</labels>
								<comments>
									<mastercomment1 />
									<mastercomment2 />
									<mastercomment3 />
									<mastercomment4 />
								</comments>
								<file id="ArmA 3 2020.11.14 - 21.54.08.77" />
								<filter>
									<effect>
										<name>Opacity</name>
										<effectid>opacity</effectid>
										<effectcategory>motion</effectcategory>
										<effecttype>motion</effecttype>
										<mediatype>video</mediatype>
										<parameter>
											<name>opacity</name>
											<parameterid>opacity</parameterid>
											<valuemin>0</valuemin>
											<valuemax>100</valuemax>
											<value>100</value>
										</parameter>
									</effect>
								</filter>
								<sourcetrack>
									<mediatype>video</mediatype>
								</sourcetrack>
								<link>
									<linkclipref>ArmA 3 2020.11.14 - 21.54.08.77.mp4805307748</linkclipref>
								</link>
								<link>
									<linkclipref>ArmA 3 2020.11.14 - 21.54.08.77.mp4536872293</linkclipref>
								</link>
								<link>
									<linkclipref>ArmA 3 2020.11.14 - 21.54.08.77.mp45368722931</linkclipref>
								</link>
								<link>
									<linkclipref>ArmA 3 2020.11.14 - 21.54.08.77.mp4536872294</linkclipref>
								</link>
								<link>
									<linkclipref>ArmA 3 2020.11.14 - 21.54.08.77.mp45368722941</linkclipref>
								</link>
								<fielddominance>none</fielddominance>
							</clipitem>
							<clipitem id="ArmA 3 2020.11.14 - 21.55.34.78.mp4805307751">
								<name>ArmA 3 2020.11.14 - 21.55.34.78.mp4</name>
								<duration>841</duration>
								<rate>
									<ntsc>FALSE</ntsc>
									<timebase>60</timebase>
								</rate>
								<in>0</in>
								<out>841</out>
								<start>50454</start>
								<end>51295</end>
								<pixelaspectratio>Square</pixelaspectratio>
								<anamorphic>FALSE</anamorphic>
								<alphatype>none</alphatype>
								<masterclipid>ArmA 3 2020.11.14 - 21.55.34.78.mp4</masterclipid>
								<logginginfo>
									<scene />
									<shottake />
									<lognote />
									<good>FALSE</good>
								</logginginfo>
								<labels>
									<label2 />
								</labels>
								<comments>
									<mastercomment1 />
									<mastercomment2 />
									<mastercomment3 />
									<mastercomment4 />
								</comments>
								<file id="ArmA 3 2020.11.14 - 21.55.34.78" />
								<filter>
									<effect>
										<name>Opacity</name>
										<effectid>opacity</effectid>
										<effectcategory>motion</effectcategory>
										<effecttype>motion</effecttype>
										<mediatype>video</mediatype>
										<parameter>
											<name>opacity</name>
											<parameterid>opacity</parameterid>
											<valuemin>0</valuemin>
											<valuemax>100</valuemax>
											<value>100</value>
										</parameter>
									</effect>
								</filter>
								<sourcetrack>
									<mediatype>video</mediatype>
								</sourcetrack>
								<link>
									<linkclipref>ArmA 3 2020.11.14 - 21.55.34.78.mp4805307751</linkclipref>
								</link>
								<link>
									<linkclipref>ArmA 3 2020.11.14 - 21.55.34.78.mp4536872296</linkclipref>
								</link>
								<link>
									<linkclipref>ArmA 3 2020.11.14 - 21.55.34.78.mp45368722961</linkclipref>
								</link>
								<link>
									<linkclipref>ArmA 3 2020.11.14 - 21.55.34.78.mp4536872297</linkclipref>
								</link>
								<link>
									<linkclipref>ArmA 3 2020.11.14 - 21.55.34.78.mp45368722971</linkclipref>
								</link>
								<fielddominance>none</fielddominance>
							</clipitem>
							<clipitem id="ArmA 3 2020.11.14 - 21.57.02.79.mp4805307754">
								<name>ArmA 3 2020.11.14 - 21.57.02.79.mp4</name>
								<duration>1044</duration>
								<rate>
									<ntsc>FALSE</ntsc>
									<timebase>60</timebase>
								</rate>
								<in>0</in>
								<out>1044</out>
								<start>51296</start>
								<end>52340</end>
								<pixelaspectratio>Square</pixelaspectratio>
								<anamorphic>FALSE</anamorphic>
								<alphatype>none</alphatype>
								<masterclipid>ArmA 3 2020.11.14 - 21.57.02.79.mp4</masterclipid>
								<logginginfo>
									<scene />
									<shottake />
									<lognote />
									<good>FALSE</good>
								</logginginfo>
								<labels>
									<label2 />
								</labels>
								<comments>
									<mastercomment1 />
									<mastercomment2 />
									<mastercomment3 />
									<mastercomment4 />
								</comments>
								<file id="ArmA 3 2020.11.14 - 21.57.02.79" />
								<filter>
									<effect>
										<name>Opacity</name>
										<effectid>opacity</effectid>
										<effectcategory>motion</effectcategory>
										<effecttype>motion</effecttype>
										<mediatype>video</mediatype>
										<parameter>
											<name>opacity</name>
											<parameterid>opacity</parameterid>
											<valuemin>0</valuemin>
											<valuemax>100</valuemax>
											<value>100</value>
										</parameter>
									</effect>
								</filter>
								<sourcetrack>
									<mediatype>video</mediatype>
								</sourcetrack>
								<link>
									<linkclipref>ArmA 3 2020.11.14 - 21.57.02.79.mp4805307754</linkclipref>
								</link>
								<link>
									<linkclipref>ArmA 3 2020.11.14 - 21.57.02.79.mp4536872299</linkclipref>
								</link>
								<link>
									<linkclipref>ArmA 3 2020.11.14 - 21.57.02.79.mp45368722991</linkclipref>
								</link>
								<link>
									<linkclipref>ArmA 3 2020.11.14 - 21.57.02.79.mp4536872300</linkclipref>
								</link>
								<link>
									<linkclipref>ArmA 3 2020.11.14 - 21.57.02.79.mp45368723001</linkclipref>
								</link>
								<fielddominance>none</fielddominance>
							</clipitem>
							<clipitem id="ArmA 3 2020.11.14 - 22.07.31.81.mp4805307757">
								<name>ArmA 3 2020.11.14 - 22.07.31.81.mp4</name>
								<duration>1271</duration>
								<rate>
									<ntsc>FALSE</ntsc>
									<timebase>60</timebase>
								</rate>
								<in>0</in>
								<out>1271</out>
								<start>52341</start>
								<end>53612</end>
								<pixelaspectratio>Square</pixelaspectratio>
								<anamorphic>FALSE</anamorphic>
								<alphatype>none</alphatype>
								<masterclipid>ArmA 3 2020.11.14 - 22.07.31.81.mp4</masterclipid>
								<logginginfo>
									<scene />
									<shottake />
									<lognote />
									<good>FALSE</good>
								</logginginfo>
								<labels>
									<label2 />
								</labels>
								<comments>
									<mastercomment1 />
									<mastercomment2 />
									<mastercomment3 />
									<mastercomment4 />
								</comments>
								<file id="ArmA 3 2020.11.14 - 22.07.31.81" />
								<filter>
									<effect>
										<name>Opacity</name>
										<effectid>opacity</effectid>
										<effectcategory>motion</effectcategory>
										<effecttype>motion</effecttype>
										<mediatype>video</mediatype>
										<parameter>
											<name>opacity</name>
											<parameterid>opacity</parameterid>
											<valuemin>0</valuemin>
											<valuemax>100</valuemax>
											<value>100</value>
										</parameter>
									</effect>
								</filter>
								<sourcetrack>
									<mediatype>video</mediatype>
								</sourcetrack>
								<link>
									<linkclipref>ArmA 3 2020.11.14 - 22.07.31.81.mp4805307757</linkclipref>
								</link>
								<link>
									<linkclipref>ArmA 3 2020.11.14 - 22.07.31.81.mp4536872302</linkclipref>
								</link>
								<link>
									<linkclipref>ArmA 3 2020.11.14 - 22.07.31.81.mp45368723021</linkclipref>
								</link>
								<link>
									<linkclipref>ArmA 3 2020.11.14 - 22.07.31.81.mp4536872303</linkclipref>
								</link>
								<link>
									<linkclipref>ArmA 3 2020.11.14 - 22.07.31.81.mp45368723031</linkclipref>
								</link>
								<fielddominance>none</fielddominance>
							</clipitem>
							<clipitem id="ArmA 3 2020.11.14 - 22.08.38.82.mp4805307760">
								<name>ArmA 3 2020.11.14 - 22.08.38.82.mp4</name>
								<duration>933</duration>
								<rate>
									<ntsc>FALSE</ntsc>
									<timebase>60</timebase>
								</rate>
								<in>0</in>
								<out>933</out>
								<start>53613</start>
								<end>54546</end>
								<pixelaspectratio>Square</pixelaspectratio>
								<anamorphic>FALSE</anamorphic>
								<alphatype>none</alphatype>
								<masterclipid>ArmA 3 2020.11.14 - 22.08.38.82.mp4</masterclipid>
								<logginginfo>
									<scene />
									<shottake />
									<lognote />
									<good>FALSE</good>
								</logginginfo>
								<labels>
									<label2 />
								</labels>
								<comments>
									<mastercomment1 />
									<mastercomment2 />
									<mastercomment3 />
									<mastercomment4 />
								</comments>
								<file id="ArmA 3 2020.11.14 - 22.08.38.82" />
								<filter>
									<effect>
										<name>Opacity</name>
										<effectid>opacity</effectid>
										<effectcategory>motion</effectcategory>
										<effecttype>motion</effecttype>
										<mediatype>video</mediatype>
										<parameter>
											<name>opacity</name>
											<parameterid>opacity</parameterid>
											<valuemin>0</valuemin>
											<valuemax>100</valuemax>
											<value>100</value>
										</parameter>
									</effect>
								</filter>
								<sourcetrack>
									<mediatype>video</mediatype>
								</sourcetrack>
								<link>
									<linkclipref>ArmA 3 2020.11.14 - 22.08.38.82.mp4805307760</linkclipref>
								</link>
								<link>
									<linkclipref>ArmA 3 2020.11.14 - 22.08.38.82.mp4536872305</linkclipref>
								</link>
								<link>
									<linkclipref>ArmA 3 2020.11.14 - 22.08.38.82.mp45368723051</linkclipref>
								</link>
								<link>
									<linkclipref>ArmA 3 2020.11.14 - 22.08.38.82.mp4536872306</linkclipref>
								</link>
								<link>
									<linkclipref>ArmA 3 2020.11.14 - 22.08.38.82.mp45368723061</linkclipref>
								</link>
								<fielddominance>none</fielddominance>
							</clipitem>
							<clipitem id="ArmA 3 2020.11.14 - 22.09.53.83.mp4805307763">
								<name>ArmA 3 2020.11.14 - 22.09.53.83.mp4</name>
								<duration>925</duration>
								<rate>
									<ntsc>FALSE</ntsc>
									<timebase>60</timebase>
								</rate>
								<in>0</in>
								<out>925</out>
								<start>54547</start>
								<end>55472</end>
								<pixelaspectratio>Square</pixelaspectratio>
								<anamorphic>FALSE</anamorphic>
								<alphatype>none</alphatype>
								<masterclipid>ArmA 3 2020.11.14 - 22.09.53.83.mp4</masterclipid>
								<logginginfo>
									<scene />
									<shottake />
									<lognote />
									<good>FALSE</good>
								</logginginfo>
								<labels>
									<label2 />
								</labels>
								<comments>
									<mastercomment1 />
									<mastercomment2 />
									<mastercomment3 />
									<mastercomment4 />
								</comments>
								<file id="ArmA 3 2020.11.14 - 22.09.53.83" />
								<filter>
									<effect>
										<name>Opacity</name>
										<effectid>opacity</effectid>
										<effectcategory>motion</effectcategory>
										<effecttype>motion</effecttype>
										<mediatype>video</mediatype>
										<parameter>
											<name>opacity</name>
											<parameterid>opacity</parameterid>
											<valuemin>0</valuemin>
											<valuemax>100</valuemax>
											<value>100</value>
										</parameter>
									</effect>
								</filter>
								<sourcetrack>
									<mediatype>video</mediatype>
								</sourcetrack>
								<link>
									<linkclipref>ArmA 3 2020.11.14 - 22.09.53.83.mp4805307763</linkclipref>
								</link>
								<link>
									<linkclipref>ArmA 3 2020.11.14 - 22.09.53.83.mp4536872308</linkclipref>
								</link>
								<link>
									<linkclipref>ArmA 3 2020.11.14 - 22.09.53.83.mp45368723081</linkclipref>
								</link>
								<link>
									<linkclipref>ArmA 3 2020.11.14 - 22.09.53.83.mp4536872309</linkclipref>
								</link>
								<link>
									<linkclipref>ArmA 3 2020.11.14 - 22.09.53.83.mp45368723091</linkclipref>
								</link>
								<fielddominance>none</fielddominance>
							</clipitem>
						</track>
					</video>
					<audio>
						<track>
							<clipitem id="ArmA 3 2020.11.14 - 20.19.25.25.mp4536872138">
								<name>ArmA 3 2020.11.14 - 20.19.25.25.mp4</name>
								<duration>93</duration>
								<rate>
									<ntsc>TRUE</ntsc>
									<timebase>24</timebase>
								</rate>
								<in>0</in>
								<out>93</out>
								<start>0</start>
								<end>93</end>
								<enabled>FALSE</enabled>
								<masterclipid>ArmA 3 2020.11.14 - 20.19.25.25.mp4</masterclipid>
								<logginginfo>
									<scene />
									<shottake />
									<lognote />
									<good>FALSE</good>
								</logginginfo>
								<labels>
									<label2 />
								</labels>
								<comments>
									<mastercomment1 />
									<mastercomment2 />
									<mastercomment3 />
									<mastercomment4 />
								</comments>
								<file id="ArmA 3 2020.11.14 - 20.19.25.25" />
								<filter>
									<effect>
										<name>Audio Levels</name>
										<effectid>audiolevels</effectid>
										<effectcategory>audiolevels</effectcategory>
										<effecttype>audiolevels</effecttype>
										<mediatype>audio</mediatype>
										<parameter>
											<name>Level</name>
											<parameterid>level</parameterid>
											<valuemin>0</valuemin>
											<valuemax>3,98109</valuemax>
											<value>1</value>
										</parameter>
									</effect>
								</filter>
								<filter>
									<effect>
										<name>Audio Pan</name>
										<effectid>audiopan</effectid>
										<effectcategory>audiopan</effectcategory>
										<effecttype>audiopan</effecttype>
										<mediatype>audio</mediatype>
										<parameter>
											<name>Pan</name>
											<parameterid>pan</parameterid>
											<valuemin>-1</valuemin>
											<valuemax>1</valuemax>
											<value>-1</value>
										</parameter>
									</effect>
								</filter>
								<sourcetrack>
									<mediatype>audio</mediatype>
									<trackindex>1</trackindex>
								</sourcetrack>
								<link>
									<linkclipref>ArmA 3 2020.11.14 - 20.19.25.25.mp4805307592</linkclipref>
								</link>
								<link>
									<linkclipref>ArmA 3 2020.11.14 - 20.19.25.25.mp4536872137</linkclipref>
								</link>
								<link>
									<linkclipref>ArmA 3 2020.11.14 - 20.19.25.25.mp45368721371</linkclipref>
								</link>
								<link>
									<linkclipref>ArmA 3 2020.11.14 - 20.19.25.25.mp4536872138</linkclipref>
								</link>
								<link>
									<linkclipref>ArmA 3 2020.11.14 - 20.19.25.25.mp45368721381</linkclipref>
								</link>
							</clipitem>
							<clipitem id="ArmA 3 2020.11.14 - 20.19.51.26.mp4536872141">
								<name>ArmA 3 2020.11.14 - 20.19.51.26.mp4</name>
								<duration>548</duration>
								<rate>
									<ntsc>TRUE</ntsc>
									<timebase>24</timebase>
								</rate>
								<in>0</in>
								<out>548</out>
								<start>94</start>
								<end>642</end>
								<enabled>FALSE</enabled>
								<masterclipid>ArmA 3 2020.11.14 - 20.19.51.26.mp4</masterclipid>
								<logginginfo>
									<scene />
									<shottake />
									<lognote />
									<good>FALSE</good>
								</logginginfo>
								<labels>
									<label2 />
								</labels>
								<comments>
									<mastercomment1 />
									<mastercomment2 />
									<mastercomment3 />
									<mastercomment4 />
								</comments>
								<file id="ArmA 3 2020.11.14 - 20.19.51.26" />
								<filter>
									<effect>
										<name>Audio Levels</name>
										<effectid>audiolevels</effectid>
										<effectcategory>audiolevels</effectcategory>
										<effecttype>audiolevels</effecttype>
										<mediatype>audio</mediatype>
										<parameter>
											<name>Level</name>
											<parameterid>level</parameterid>
											<valuemin>0</valuemin>
											<valuemax>3,98109</valuemax>
											<value>1</value>
										</parameter>
									</effect>
								</filter>
								<filter>
									<effect>
										<name>Audio Pan</name>
										<effectid>audiopan</effectid>
										<effectcategory>audiopan</effectcategory>
										<effecttype>audiopan</effecttype>
										<mediatype>audio</mediatype>
										<parameter>
											<name>Pan</name>
											<parameterid>pan</parameterid>
											<valuemin>-1</valuemin>
											<valuemax>1</valuemax>
											<value>-1</value>
										</parameter>
									</effect>
								</filter>
								<sourcetrack>
									<mediatype>audio</mediatype>
									<trackindex>1</trackindex>
								</sourcetrack>
								<link>
									<linkclipref>ArmA 3 2020.11.14 - 20.19.51.26.mp4805307595</linkclipref>
								</link>
								<link>
									<linkclipref>ArmA 3 2020.11.14 - 20.19.51.26.mp4536872140</linkclipref>
								</link>
								<link>
									<linkclipref>ArmA 3 2020.11.14 - 20.19.51.26.mp45368721401</linkclipref>
								</link>
								<link>
									<linkclipref>ArmA 3 2020.11.14 - 20.19.51.26.mp4536872141</linkclipref>
								</link>
								<link>
									<linkclipref>ArmA 3 2020.11.14 - 20.19.51.26.mp45368721411</linkclipref>
								</link>
							</clipitem>
							<clipitem id="ArmA 3 2020.11.14 - 20.20.25.27.mp4536872144">
								<name>ArmA 3 2020.11.14 - 20.20.25.27.mp4</name>
								<duration>1868</duration>
								<rate>
									<ntsc>TRUE</ntsc>
									<timebase>24</timebase>
								</rate>
								<in>0</in>
								<out>1868</out>
								<start>643</start>
								<end>2511</end>
								<enabled>FALSE</enabled>
								<masterclipid>ArmA 3 2020.11.14 - 20.20.25.27.mp4</masterclipid>
								<logginginfo>
									<scene />
									<shottake />
									<lognote />
									<good>FALSE</good>
								</logginginfo>
								<labels>
									<label2 />
								</labels>
								<comments>
									<mastercomment1 />
									<mastercomment2 />
									<mastercomment3 />
									<mastercomment4 />
								</comments>
								<file id="ArmA 3 2020.11.14 - 20.20.25.27" />
								<filter>
									<effect>
										<name>Audio Levels</name>
										<effectid>audiolevels</effectid>
										<effectcategory>audiolevels</effectcategory>
										<effecttype>audiolevels</effecttype>
										<mediatype>audio</mediatype>
										<parameter>
											<name>Level</name>
											<parameterid>level</parameterid>
											<valuemin>0</valuemin>
											<valuemax>3,98109</valuemax>
											<value>1</value>
										</parameter>
									</effect>
								</filter>
								<filter>
									<effect>
										<name>Audio Pan</name>
										<effectid>audiopan</effectid>
										<effectcategory>audiopan</effectcategory>
										<effecttype>audiopan</effecttype>
										<mediatype>audio</mediatype>
										<parameter>
											<name>Pan</name>
											<parameterid>pan</parameterid>
											<valuemin>-1</valuemin>
											<valuemax>1</valuemax>
											<value>-1</value>
										</parameter>
									</effect>
								</filter>
								<sourcetrack>
									<mediatype>audio</mediatype>
									<trackindex>1</trackindex>
								</sourcetrack>
								<link>
									<linkclipref>ArmA 3 2020.11.14 - 20.20.25.27.mp4805307598</linkclipref>
								</link>
								<link>
									<linkclipref>ArmA 3 2020.11.14 - 20.20.25.27.mp4536872143</linkclipref>
								</link>
								<link>
									<linkclipref>ArmA 3 2020.11.14 - 20.20.25.27.mp45368721431</linkclipref>
								</link>
								<link>
									<linkclipref>ArmA 3 2020.11.14 - 20.20.25.27.mp4536872144</linkclipref>
								</link>
								<link>
									<linkclipref>ArmA 3 2020.11.14 - 20.20.25.27.mp45368721441</linkclipref>
								</link>
							</clipitem>
							<clipitem id="ArmA 3 2020.11.14 - 20.22.02.28.mp4536872147">
								<name>ArmA 3 2020.11.14 - 20.22.02.28.mp4</name>
								<duration>570</duration>
								<rate>
									<ntsc>TRUE</ntsc>
									<timebase>24</timebase>
								</rate>
								<in>0</in>
								<out>570</out>
								<start>2512</start>
								<end>3082</end>
								<enabled>FALSE</enabled>
								<masterclipid>ArmA 3 2020.11.14 - 20.22.02.28.mp4</masterclipid>
								<logginginfo>
									<scene />
									<shottake />
									<lognote />
									<good>FALSE</good>
								</logginginfo>
								<labels>
									<label2 />
								</labels>
								<comments>
									<mastercomment1 />
									<mastercomment2 />
									<mastercomment3 />
									<mastercomment4 />
								</comments>
								<file id="ArmA 3 2020.11.14 - 20.22.02.28" />
								<filter>
									<effect>
										<name>Audio Levels</name>
										<effectid>audiolevels</effectid>
										<effectcategory>audiolevels</effectcategory>
										<effecttype>audiolevels</effecttype>
										<mediatype>audio</mediatype>
										<parameter>
											<name>Level</name>
											<parameterid>level</parameterid>
											<valuemin>0</valuemin>
											<valuemax>3,98109</valuemax>
											<value>1</value>
										</parameter>
									</effect>
								</filter>
								<filter>
									<effect>
										<name>Audio Pan</name>
										<effectid>audiopan</effectid>
										<effectcategory>audiopan</effectcategory>
										<effecttype>audiopan</effecttype>
										<mediatype>audio</mediatype>
										<parameter>
											<name>Pan</name>
											<parameterid>pan</parameterid>
											<valuemin>-1</valuemin>
											<valuemax>1</valuemax>
											<value>-1</value>
										</parameter>
									</effect>
								</filter>
								<sourcetrack>
									<mediatype>audio</mediatype>
									<trackindex>1</trackindex>
								</sourcetrack>
								<link>
									<linkclipref>ArmA 3 2020.11.14 - 20.22.02.28.mp4805307601</linkclipref>
								</link>
								<link>
									<linkclipref>ArmA 3 2020.11.14 - 20.22.02.28.mp4536872146</linkclipref>
								</link>
								<link>
									<linkclipref>ArmA 3 2020.11.14 - 20.22.02.28.mp45368721461</linkclipref>
								</link>
								<link>
									<linkclipref>ArmA 3 2020.11.14 - 20.22.02.28.mp4536872147</linkclipref>
								</link>
								<link>
									<linkclipref>ArmA 3 2020.11.14 - 20.22.02.28.mp45368721471</linkclipref>
								</link>
							</clipitem>
							<clipitem id="ArmA 3 2020.11.14 - 20.22.40.29.mp4536872150">
								<name>ArmA 3 2020.11.14 - 20.22.40.29.mp4</name>
								<duration>869</duration>
								<rate>
									<ntsc>TRUE</ntsc>
									<timebase>24</timebase>
								</rate>
								<in>0</in>
								<out>869</out>
								<start>3083</start>
								<end>3952</end>
								<enabled>FALSE</enabled>
								<masterclipid>ArmA 3 2020.11.14 - 20.22.40.29.mp4</masterclipid>
								<logginginfo>
									<scene />
									<shottake />
									<lognote />
									<good>FALSE</good>
								</logginginfo>
								<labels>
									<label2 />
								</labels>
								<comments>
									<mastercomment1 />
									<mastercomment2 />
									<mastercomment3 />
									<mastercomment4 />
								</comments>
								<file id="ArmA 3 2020.11.14 - 20.22.40.29" />
								<filter>
									<effect>
										<name>Audio Levels</name>
										<effectid>audiolevels</effectid>
										<effectcategory>audiolevels</effectcategory>
										<effecttype>audiolevels</effecttype>
										<mediatype>audio</mediatype>
										<parameter>
											<name>Level</name>
											<parameterid>level</parameterid>
											<valuemin>0</valuemin>
											<valuemax>3,98109</valuemax>
											<value>1</value>
										</parameter>
									</effect>
								</filter>
								<filter>
									<effect>
										<name>Audio Pan</name>
										<effectid>audiopan</effectid>
										<effectcategory>audiopan</effectcategory>
										<effecttype>audiopan</effecttype>
										<mediatype>audio</mediatype>
										<parameter>
											<name>Pan</name>
											<parameterid>pan</parameterid>
											<valuemin>-1</valuemin>
											<valuemax>1</valuemax>
											<value>-1</value>
										</parameter>
									</effect>
								</filter>
								<sourcetrack>
									<mediatype>audio</mediatype>
									<trackindex>1</trackindex>
								</sourcetrack>
								<link>
									<linkclipref>ArmA 3 2020.11.14 - 20.22.40.29.mp4805307604</linkclipref>
								</link>
								<link>
									<linkclipref>ArmA 3 2020.11.14 - 20.22.40.29.mp4536872149</linkclipref>
								</link>
								<link>
									<linkclipref>ArmA 3 2020.11.14 - 20.22.40.29.mp45368721491</linkclipref>
								</link>
								<link>
									<linkclipref>ArmA 3 2020.11.14 - 20.22.40.29.mp4536872150</linkclipref>
								</link>
								<link>
									<linkclipref>ArmA 3 2020.11.14 - 20.22.40.29.mp45368721501</linkclipref>
								</link>
							</clipitem>
							<clipitem id="ArmA 3 2020.11.14 - 20.23.50.30.mp4536872153">
								<name>ArmA 3 2020.11.14 - 20.23.50.30.mp4</name>
								<duration>875</duration>
								<rate>
									<ntsc>TRUE</ntsc>
									<timebase>24</timebase>
								</rate>
								<in>0</in>
								<out>875</out>
								<start>3953</start>
								<end>4828</end>
								<enabled>FALSE</enabled>
								<masterclipid>ArmA 3 2020.11.14 - 20.23.50.30.mp4</masterclipid>
								<logginginfo>
									<scene />
									<shottake />
									<lognote />
									<good>FALSE</good>
								</logginginfo>
								<labels>
									<label2 />
								</labels>
								<comments>
									<mastercomment1 />
									<mastercomment2 />
									<mastercomment3 />
									<mastercomment4 />
								</comments>
								<file id="ArmA 3 2020.11.14 - 20.23.50.30" />
								<filter>
									<effect>
										<name>Audio Levels</name>
										<effectid>audiolevels</effectid>
										<effectcategory>audiolevels</effectcategory>
										<effecttype>audiolevels</effecttype>
										<mediatype>audio</mediatype>
										<parameter>
											<name>Level</name>
											<parameterid>level</parameterid>
											<valuemin>0</valuemin>
											<valuemax>3,98109</valuemax>
											<value>1</value>
										</parameter>
									</effect>
								</filter>
								<filter>
									<effect>
										<name>Audio Pan</name>
										<effectid>audiopan</effectid>
										<effectcategory>audiopan</effectcategory>
										<effecttype>audiopan</effecttype>
										<mediatype>audio</mediatype>
										<parameter>
											<name>Pan</name>
											<parameterid>pan</parameterid>
											<valuemin>-1</valuemin>
											<valuemax>1</valuemax>
											<value>-1</value>
										</parameter>
									</effect>
								</filter>
								<sourcetrack>
									<mediatype>audio</mediatype>
									<trackindex>1</trackindex>
								</sourcetrack>
								<link>
									<linkclipref>ArmA 3 2020.11.14 - 20.23.50.30.mp4805307607</linkclipref>
								</link>
								<link>
									<linkclipref>ArmA 3 2020.11.14 - 20.23.50.30.mp4536872152</linkclipref>
								</link>
								<link>
									<linkclipref>ArmA 3 2020.11.14 - 20.23.50.30.mp45368721521</linkclipref>
								</link>
								<link>
									<linkclipref>ArmA 3 2020.11.14 - 20.23.50.30.mp4536872153</linkclipref>
								</link>
								<link>
									<linkclipref>ArmA 3 2020.11.14 - 20.23.50.30.mp45368721531</linkclipref>
								</link>
							</clipitem>
							<clipitem id="ArmA 3 2020.11.14 - 20.24.41.31.mp4536872156">
								<name>ArmA 3 2020.11.14 - 20.24.41.31.mp4</name>
								<duration>612</duration>
								<rate>
									<ntsc>TRUE</ntsc>
									<timebase>24</timebase>
								</rate>
								<in>0</in>
								<out>612</out>
								<start>4829</start>
								<end>5441</end>
								<enabled>FALSE</enabled>
								<masterclipid>ArmA 3 2020.11.14 - 20.24.41.31.mp4</masterclipid>
								<logginginfo>
									<scene />
									<shottake />
									<lognote />
									<good>FALSE</good>
								</logginginfo>
								<labels>
									<label2 />
								</labels>
								<comments>
									<mastercomment1 />
									<mastercomment2 />
									<mastercomment3 />
									<mastercomment4 />
								</comments>
								<file id="ArmA 3 2020.11.14 - 20.24.41.31" />
								<filter>
									<effect>
										<name>Audio Levels</name>
										<effectid>audiolevels</effectid>
										<effectcategory>audiolevels</effectcategory>
										<effecttype>audiolevels</effecttype>
										<mediatype>audio</mediatype>
										<parameter>
											<name>Level</name>
											<parameterid>level</parameterid>
											<valuemin>0</valuemin>
											<valuemax>3,98109</valuemax>
											<value>1</value>
										</parameter>
									</effect>
								</filter>
								<filter>
									<effect>
										<name>Audio Pan</name>
										<effectid>audiopan</effectid>
										<effectcategory>audiopan</effectcategory>
										<effecttype>audiopan</effecttype>
										<mediatype>audio</mediatype>
										<parameter>
											<name>Pan</name>
											<parameterid>pan</parameterid>
											<valuemin>-1</valuemin>
											<valuemax>1</valuemax>
											<value>-1</value>
										</parameter>
									</effect>
								</filter>
								<sourcetrack>
									<mediatype>audio</mediatype>
									<trackindex>1</trackindex>
								</sourcetrack>
								<link>
									<linkclipref>ArmA 3 2020.11.14 - 20.24.41.31.mp4805307610</linkclipref>
								</link>
								<link>
									<linkclipref>ArmA 3 2020.11.14 - 20.24.41.31.mp4536872155</linkclipref>
								</link>
								<link>
									<linkclipref>ArmA 3 2020.11.14 - 20.24.41.31.mp45368721551</linkclipref>
								</link>
								<link>
									<linkclipref>ArmA 3 2020.11.14 - 20.24.41.31.mp4536872156</linkclipref>
								</link>
								<link>
									<linkclipref>ArmA 3 2020.11.14 - 20.24.41.31.mp45368721561</linkclipref>
								</link>
							</clipitem>
							<clipitem id="ArmA 3 2020.11.14 - 20.28.02.32.mp4536872159">
								<name>ArmA 3 2020.11.14 - 20.28.02.32.mp4</name>
								<duration>972</duration>
								<rate>
									<ntsc>TRUE</ntsc>
									<timebase>24</timebase>
								</rate>
								<in>0</in>
								<out>972</out>
								<start>5442</start>
								<end>6414</end>
								<enabled>FALSE</enabled>
								<masterclipid>ArmA 3 2020.11.14 - 20.28.02.32.mp4</masterclipid>
								<logginginfo>
									<scene />
									<shottake />
									<lognote />
									<good>FALSE</good>
								</logginginfo>
								<labels>
									<label2 />
								</labels>
								<comments>
									<mastercomment1 />
									<mastercomment2 />
									<mastercomment3 />
									<mastercomment4 />
								</comments>
								<file id="ArmA 3 2020.11.14 - 20.28.02.32" />
								<filter>
									<effect>
										<name>Audio Levels</name>
										<effectid>audiolevels</effectid>
										<effectcategory>audiolevels</effectcategory>
										<effecttype>audiolevels</effecttype>
										<mediatype>audio</mediatype>
										<parameter>
											<name>Level</name>
											<parameterid>level</parameterid>
											<valuemin>0</valuemin>
											<valuemax>3,98109</valuemax>
											<value>1</value>
										</parameter>
									</effect>
								</filter>
								<filter>
									<effect>
										<name>Audio Pan</name>
										<effectid>audiopan</effectid>
										<effectcategory>audiopan</effectcategory>
										<effecttype>audiopan</effecttype>
										<mediatype>audio</mediatype>
										<parameter>
											<name>Pan</name>
											<parameterid>pan</parameterid>
											<valuemin>-1</valuemin>
											<valuemax>1</valuemax>
											<value>-1</value>
										</parameter>
									</effect>
								</filter>
								<sourcetrack>
									<mediatype>audio</mediatype>
									<trackindex>1</trackindex>
								</sourcetrack>
								<link>
									<linkclipref>ArmA 3 2020.11.14 - 20.28.02.32.mp4805307613</linkclipref>
								</link>
								<link>
									<linkclipref>ArmA 3 2020.11.14 - 20.28.02.32.mp4536872158</linkclipref>
								</link>
								<link>
									<linkclipref>ArmA 3 2020.11.14 - 20.28.02.32.mp45368721581</linkclipref>
								</link>
								<link>
									<linkclipref>ArmA 3 2020.11.14 - 20.28.02.32.mp4536872159</linkclipref>
								</link>
								<link>
									<linkclipref>ArmA 3 2020.11.14 - 20.28.02.32.mp45368721591</linkclipref>
								</link>
							</clipitem>
							<clipitem id="ArmA 3 2020.11.14 - 20.29.28.33.mp4536872162">
								<name>ArmA 3 2020.11.14 - 20.29.28.33.mp4</name>
								<duration>561</duration>
								<rate>
									<ntsc>TRUE</ntsc>
									<timebase>24</timebase>
								</rate>
								<in>0</in>
								<out>561</out>
								<start>6415</start>
								<end>6976</end>
								<enabled>FALSE</enabled>
								<masterclipid>ArmA 3 2020.11.14 - 20.29.28.33.mp4</masterclipid>
								<logginginfo>
									<scene />
									<shottake />
									<lognote />
									<good>FALSE</good>
								</logginginfo>
								<labels>
									<label2 />
								</labels>
								<comments>
									<mastercomment1 />
									<mastercomment2 />
									<mastercomment3 />
									<mastercomment4 />
								</comments>
								<file id="ArmA 3 2020.11.14 - 20.29.28.33" />
								<filter>
									<effect>
										<name>Audio Levels</name>
										<effectid>audiolevels</effectid>
										<effectcategory>audiolevels</effectcategory>
										<effecttype>audiolevels</effecttype>
										<mediatype>audio</mediatype>
										<parameter>
											<name>Level</name>
											<parameterid>level</parameterid>
											<valuemin>0</valuemin>
											<valuemax>3,98109</valuemax>
											<value>1</value>
										</parameter>
									</effect>
								</filter>
								<filter>
									<effect>
										<name>Audio Pan</name>
										<effectid>audiopan</effectid>
										<effectcategory>audiopan</effectcategory>
										<effecttype>audiopan</effecttype>
										<mediatype>audio</mediatype>
										<parameter>
											<name>Pan</name>
											<parameterid>pan</parameterid>
											<valuemin>-1</valuemin>
											<valuemax>1</valuemax>
											<value>-1</value>
										</parameter>
									</effect>
								</filter>
								<sourcetrack>
									<mediatype>audio</mediatype>
									<trackindex>1</trackindex>
								</sourcetrack>
								<link>
									<linkclipref>ArmA 3 2020.11.14 - 20.29.28.33.mp4805307616</linkclipref>
								</link>
								<link>
									<linkclipref>ArmA 3 2020.11.14 - 20.29.28.33.mp4536872161</linkclipref>
								</link>
								<link>
									<linkclipref>ArmA 3 2020.11.14 - 20.29.28.33.mp45368721611</linkclipref>
								</link>
								<link>
									<linkclipref>ArmA 3 2020.11.14 - 20.29.28.33.mp4536872162</linkclipref>
								</link>
								<link>
									<linkclipref>ArmA 3 2020.11.14 - 20.29.28.33.mp45368721621</linkclipref>
								</link>
							</clipitem>
							<clipitem id="ArmA 3 2020.11.14 - 20.30.42.34.mp4536872165">
								<name>ArmA 3 2020.11.14 - 20.30.42.34.mp4</name>
								<duration>455</duration>
								<rate>
									<ntsc>TRUE</ntsc>
									<timebase>24</timebase>
								</rate>
								<in>0</in>
								<out>455</out>
								<start>6977</start>
								<end>7432</end>
								<enabled>FALSE</enabled>
								<masterclipid>ArmA 3 2020.11.14 - 20.30.42.34.mp4</masterclipid>
								<logginginfo>
									<scene />
									<shottake />
									<lognote />
									<good>FALSE</good>
								</logginginfo>
								<labels>
									<label2 />
								</labels>
								<comments>
									<mastercomment1 />
									<mastercomment2 />
									<mastercomment3 />
									<mastercomment4 />
								</comments>
								<file id="ArmA 3 2020.11.14 - 20.30.42.34" />
								<filter>
									<effect>
										<name>Audio Levels</name>
										<effectid>audiolevels</effectid>
										<effectcategory>audiolevels</effectcategory>
										<effecttype>audiolevels</effecttype>
										<mediatype>audio</mediatype>
										<parameter>
											<name>Level</name>
											<parameterid>level</parameterid>
											<valuemin>0</valuemin>
											<valuemax>3,98109</valuemax>
											<value>1</value>
										</parameter>
									</effect>
								</filter>
								<filter>
									<effect>
										<name>Audio Pan</name>
										<effectid>audiopan</effectid>
										<effectcategory>audiopan</effectcategory>
										<effecttype>audiopan</effecttype>
										<mediatype>audio</mediatype>
										<parameter>
											<name>Pan</name>
											<parameterid>pan</parameterid>
											<valuemin>-1</valuemin>
											<valuemax>1</valuemax>
											<value>-1</value>
										</parameter>
									</effect>
								</filter>
								<sourcetrack>
									<mediatype>audio</mediatype>
									<trackindex>1</trackindex>
								</sourcetrack>
								<link>
									<linkclipref>ArmA 3 2020.11.14 - 20.30.42.34.mp4805307619</linkclipref>
								</link>
								<link>
									<linkclipref>ArmA 3 2020.11.14 - 20.30.42.34.mp4536872164</linkclipref>
								</link>
								<link>
									<linkclipref>ArmA 3 2020.11.14 - 20.30.42.34.mp45368721641</linkclipref>
								</link>
								<link>
									<linkclipref>ArmA 3 2020.11.14 - 20.30.42.34.mp4536872165</linkclipref>
								</link>
								<link>
									<linkclipref>ArmA 3 2020.11.14 - 20.30.42.34.mp45368721651</linkclipref>
								</link>
							</clipitem>
							<clipitem id="ArmA 3 2020.11.14 - 20.32.04.35.mp4536872168">
								<name>ArmA 3 2020.11.14 - 20.32.04.35.mp4</name>
								<duration>710</duration>
								<rate>
									<ntsc>TRUE</ntsc>
									<timebase>24</timebase>
								</rate>
								<in>0</in>
								<out>710</out>
								<start>7433</start>
								<end>8143</end>
								<enabled>FALSE</enabled>
								<masterclipid>ArmA 3 2020.11.14 - 20.32.04.35.mp4</masterclipid>
								<logginginfo>
									<scene />
									<shottake />
									<lognote />
									<good>FALSE</good>
								</logginginfo>
								<labels>
									<label2 />
								</labels>
								<comments>
									<mastercomment1 />
									<mastercomment2 />
									<mastercomment3 />
									<mastercomment4 />
								</comments>
								<file id="ArmA 3 2020.11.14 - 20.32.04.35" />
								<filter>
									<effect>
										<name>Audio Levels</name>
										<effectid>audiolevels</effectid>
										<effectcategory>audiolevels</effectcategory>
										<effecttype>audiolevels</effecttype>
										<mediatype>audio</mediatype>
										<parameter>
											<name>Level</name>
											<parameterid>level</parameterid>
											<valuemin>0</valuemin>
											<valuemax>3,98109</valuemax>
											<value>1</value>
										</parameter>
									</effect>
								</filter>
								<filter>
									<effect>
										<name>Audio Pan</name>
										<effectid>audiopan</effectid>
										<effectcategory>audiopan</effectcategory>
										<effecttype>audiopan</effecttype>
										<mediatype>audio</mediatype>
										<parameter>
											<name>Pan</name>
											<parameterid>pan</parameterid>
											<valuemin>-1</valuemin>
											<valuemax>1</valuemax>
											<value>-1</value>
										</parameter>
									</effect>
								</filter>
								<sourcetrack>
									<mediatype>audio</mediatype>
									<trackindex>1</trackindex>
								</sourcetrack>
								<link>
									<linkclipref>ArmA 3 2020.11.14 - 20.32.04.35.mp4805307622</linkclipref>
								</link>
								<link>
									<linkclipref>ArmA 3 2020.11.14 - 20.32.04.35.mp4536872167</linkclipref>
								</link>
								<link>
									<linkclipref>ArmA 3 2020.11.14 - 20.32.04.35.mp45368721671</linkclipref>
								</link>
								<link>
									<linkclipref>ArmA 3 2020.11.14 - 20.32.04.35.mp4536872168</linkclipref>
								</link>
								<link>
									<linkclipref>ArmA 3 2020.11.14 - 20.32.04.35.mp45368721681</linkclipref>
								</link>
							</clipitem>
							<clipitem id="ArmA 3 2020.11.14 - 20.35.01.36.mp4536872171">
								<name>ArmA 3 2020.11.14 - 20.35.01.36.mp4</name>
								<duration>541</duration>
								<rate>
									<ntsc>TRUE</ntsc>
									<timebase>24</timebase>
								</rate>
								<in>0</in>
								<out>541</out>
								<start>8144</start>
								<end>8685</end>
								<enabled>FALSE</enabled>
								<masterclipid>ArmA 3 2020.11.14 - 20.35.01.36.mp4</masterclipid>
								<logginginfo>
									<scene />
									<shottake />
									<lognote />
									<good>FALSE</good>
								</logginginfo>
								<labels>
									<label2 />
								</labels>
								<comments>
									<mastercomment1 />
									<mastercomment2 />
									<mastercomment3 />
									<mastercomment4 />
								</comments>
								<file id="ArmA 3 2020.11.14 - 20.35.01.36" />
								<filter>
									<effect>
										<name>Audio Levels</name>
										<effectid>audiolevels</effectid>
										<effectcategory>audiolevels</effectcategory>
										<effecttype>audiolevels</effecttype>
										<mediatype>audio</mediatype>
										<parameter>
											<name>Level</name>
											<parameterid>level</parameterid>
											<valuemin>0</valuemin>
											<valuemax>3,98109</valuemax>
											<value>1</value>
										</parameter>
									</effect>
								</filter>
								<filter>
									<effect>
										<name>Audio Pan</name>
										<effectid>audiopan</effectid>
										<effectcategory>audiopan</effectcategory>
										<effecttype>audiopan</effecttype>
										<mediatype>audio</mediatype>
										<parameter>
											<name>Pan</name>
											<parameterid>pan</parameterid>
											<valuemin>-1</valuemin>
											<valuemax>1</valuemax>
											<value>-1</value>
										</parameter>
									</effect>
								</filter>
								<sourcetrack>
									<mediatype>audio</mediatype>
									<trackindex>1</trackindex>
								</sourcetrack>
								<link>
									<linkclipref>ArmA 3 2020.11.14 - 20.35.01.36.mp4805307625</linkclipref>
								</link>
								<link>
									<linkclipref>ArmA 3 2020.11.14 - 20.35.01.36.mp4536872170</linkclipref>
								</link>
								<link>
									<linkclipref>ArmA 3 2020.11.14 - 20.35.01.36.mp45368721701</linkclipref>
								</link>
								<link>
									<linkclipref>ArmA 3 2020.11.14 - 20.35.01.36.mp4536872171</linkclipref>
								</link>
								<link>
									<linkclipref>ArmA 3 2020.11.14 - 20.35.01.36.mp45368721711</linkclipref>
								</link>
							</clipitem>
							<clipitem id="ArmA 3 2020.11.14 - 20.35.39.37.mp4536872174">
								<name>ArmA 3 2020.11.14 - 20.35.39.37.mp4</name>
								<duration>609</duration>
								<rate>
									<ntsc>TRUE</ntsc>
									<timebase>24</timebase>
								</rate>
								<in>0</in>
								<out>609</out>
								<start>8686</start>
								<end>9295</end>
								<enabled>FALSE</enabled>
								<masterclipid>ArmA 3 2020.11.14 - 20.35.39.37.mp4</masterclipid>
								<logginginfo>
									<scene />
									<shottake />
									<lognote />
									<good>FALSE</good>
								</logginginfo>
								<labels>
									<label2 />
								</labels>
								<comments>
									<mastercomment1 />
									<mastercomment2 />
									<mastercomment3 />
									<mastercomment4 />
								</comments>
								<file id="ArmA 3 2020.11.14 - 20.35.39.37" />
								<filter>
									<effect>
										<name>Audio Levels</name>
										<effectid>audiolevels</effectid>
										<effectcategory>audiolevels</effectcategory>
										<effecttype>audiolevels</effecttype>
										<mediatype>audio</mediatype>
										<parameter>
											<name>Level</name>
											<parameterid>level</parameterid>
											<valuemin>0</valuemin>
											<valuemax>3,98109</valuemax>
											<value>1</value>
										</parameter>
									</effect>
								</filter>
								<filter>
									<effect>
										<name>Audio Pan</name>
										<effectid>audiopan</effectid>
										<effectcategory>audiopan</effectcategory>
										<effecttype>audiopan</effecttype>
										<mediatype>audio</mediatype>
										<parameter>
											<name>Pan</name>
											<parameterid>pan</parameterid>
											<valuemin>-1</valuemin>
											<valuemax>1</valuemax>
											<value>-1</value>
										</parameter>
									</effect>
								</filter>
								<sourcetrack>
									<mediatype>audio</mediatype>
									<trackindex>1</trackindex>
								</sourcetrack>
								<link>
									<linkclipref>ArmA 3 2020.11.14 - 20.35.39.37.mp4805307628</linkclipref>
								</link>
								<link>
									<linkclipref>ArmA 3 2020.11.14 - 20.35.39.37.mp4536872173</linkclipref>
								</link>
								<link>
									<linkclipref>ArmA 3 2020.11.14 - 20.35.39.37.mp45368721731</linkclipref>
								</link>
								<link>
									<linkclipref>ArmA 3 2020.11.14 - 20.35.39.37.mp4536872174</linkclipref>
								</link>
								<link>
									<linkclipref>ArmA 3 2020.11.14 - 20.35.39.37.mp45368721741</linkclipref>
								</link>
							</clipitem>
							<clipitem id="ArmA 3 2020.11.14 - 20.41.15.38.mp4536872177">
								<name>ArmA 3 2020.11.14 - 20.41.15.38.mp4</name>
								<duration>809</duration>
								<rate>
									<ntsc>TRUE</ntsc>
									<timebase>24</timebase>
								</rate>
								<in>0</in>
								<out>809</out>
								<start>9296</start>
								<end>10105</end>
								<enabled>FALSE</enabled>
								<masterclipid>ArmA 3 2020.11.14 - 20.41.15.38.mp4</masterclipid>
								<logginginfo>
									<scene />
									<shottake />
									<lognote />
									<good>FALSE</good>
								</logginginfo>
								<labels>
									<label2 />
								</labels>
								<comments>
									<mastercomment1 />
									<mastercomment2 />
									<mastercomment3 />
									<mastercomment4 />
								</comments>
								<file id="ArmA 3 2020.11.14 - 20.41.15.38" />
								<filter>
									<effect>
										<name>Audio Levels</name>
										<effectid>audiolevels</effectid>
										<effectcategory>audiolevels</effectcategory>
										<effecttype>audiolevels</effecttype>
										<mediatype>audio</mediatype>
										<parameter>
											<name>Level</name>
											<parameterid>level</parameterid>
											<valuemin>0</valuemin>
											<valuemax>3,98109</valuemax>
											<value>1</value>
										</parameter>
									</effect>
								</filter>
								<filter>
									<effect>
										<name>Audio Pan</name>
										<effectid>audiopan</effectid>
										<effectcategory>audiopan</effectcategory>
										<effecttype>audiopan</effecttype>
										<mediatype>audio</mediatype>
										<parameter>
											<name>Pan</name>
											<parameterid>pan</parameterid>
											<valuemin>-1</valuemin>
											<valuemax>1</valuemax>
											<value>-1</value>
										</parameter>
									</effect>
								</filter>
								<sourcetrack>
									<mediatype>audio</mediatype>
									<trackindex>1</trackindex>
								</sourcetrack>
								<link>
									<linkclipref>ArmA 3 2020.11.14 - 20.41.15.38.mp4805307631</linkclipref>
								</link>
								<link>
									<linkclipref>ArmA 3 2020.11.14 - 20.41.15.38.mp4536872176</linkclipref>
								</link>
								<link>
									<linkclipref>ArmA 3 2020.11.14 - 20.41.15.38.mp45368721761</linkclipref>
								</link>
								<link>
									<linkclipref>ArmA 3 2020.11.14 - 20.41.15.38.mp4536872177</linkclipref>
								</link>
								<link>
									<linkclipref>ArmA 3 2020.11.14 - 20.41.15.38.mp45368721771</linkclipref>
								</link>
							</clipitem>
							<clipitem id="ArmA 3 2020.11.14 - 20.42.08.39.mp4536872180">
								<name>ArmA 3 2020.11.14 - 20.42.08.39.mp4</name>
								<duration>1394</duration>
								<rate>
									<ntsc>TRUE</ntsc>
									<timebase>24</timebase>
								</rate>
								<in>0</in>
								<out>1394</out>
								<start>10106</start>
								<end>11500</end>
								<enabled>FALSE</enabled>
								<masterclipid>ArmA 3 2020.11.14 - 20.42.08.39.mp4</masterclipid>
								<logginginfo>
									<scene />
									<shottake />
									<lognote />
									<good>FALSE</good>
								</logginginfo>
								<labels>
									<label2 />
								</labels>
								<comments>
									<mastercomment1 />
									<mastercomment2 />
									<mastercomment3 />
									<mastercomment4 />
								</comments>
								<file id="ArmA 3 2020.11.14 - 20.42.08.39" />
								<filter>
									<effect>
										<name>Audio Levels</name>
										<effectid>audiolevels</effectid>
										<effectcategory>audiolevels</effectcategory>
										<effecttype>audiolevels</effecttype>
										<mediatype>audio</mediatype>
										<parameter>
											<name>Level</name>
											<parameterid>level</parameterid>
											<valuemin>0</valuemin>
											<valuemax>3,98109</valuemax>
											<value>1</value>
										</parameter>
									</effect>
								</filter>
								<filter>
									<effect>
										<name>Audio Pan</name>
										<effectid>audiopan</effectid>
										<effectcategory>audiopan</effectcategory>
										<effecttype>audiopan</effecttype>
										<mediatype>audio</mediatype>
										<parameter>
											<name>Pan</name>
											<parameterid>pan</parameterid>
											<valuemin>-1</valuemin>
											<valuemax>1</valuemax>
											<value>-1</value>
										</parameter>
									</effect>
								</filter>
								<sourcetrack>
									<mediatype>audio</mediatype>
									<trackindex>1</trackindex>
								</sourcetrack>
								<link>
									<linkclipref>ArmA 3 2020.11.14 - 20.42.08.39.mp4805307634</linkclipref>
								</link>
								<link>
									<linkclipref>ArmA 3 2020.11.14 - 20.42.08.39.mp4536872179</linkclipref>
								</link>
								<link>
									<linkclipref>ArmA 3 2020.11.14 - 20.42.08.39.mp45368721791</linkclipref>
								</link>
								<link>
									<linkclipref>ArmA 3 2020.11.14 - 20.42.08.39.mp4536872180</linkclipref>
								</link>
								<link>
									<linkclipref>ArmA 3 2020.11.14 - 20.42.08.39.mp45368721801</linkclipref>
								</link>
							</clipitem>
							<clipitem id="ArmA 3 2020.11.14 - 20.43.49.40.mp4536872183">
								<name>ArmA 3 2020.11.14 - 20.43.49.40.mp4</name>
								<duration>386</duration>
								<rate>
									<ntsc>TRUE</ntsc>
									<timebase>24</timebase>
								</rate>
								<in>0</in>
								<out>386</out>
								<start>11501</start>
								<end>11887</end>
								<enabled>FALSE</enabled>
								<masterclipid>ArmA 3 2020.11.14 - 20.43.49.40.mp4</masterclipid>
								<logginginfo>
									<scene />
									<shottake />
									<lognote />
									<good>FALSE</good>
								</logginginfo>
								<labels>
									<label2 />
								</labels>
								<comments>
									<mastercomment1 />
									<mastercomment2 />
									<mastercomment3 />
									<mastercomment4 />
								</comments>
								<file id="ArmA 3 2020.11.14 - 20.43.49.40" />
								<filter>
									<effect>
										<name>Audio Levels</name>
										<effectid>audiolevels</effectid>
										<effectcategory>audiolevels</effectcategory>
										<effecttype>audiolevels</effecttype>
										<mediatype>audio</mediatype>
										<parameter>
											<name>Level</name>
											<parameterid>level</parameterid>
											<valuemin>0</valuemin>
											<valuemax>3,98109</valuemax>
											<value>1</value>
										</parameter>
									</effect>
								</filter>
								<filter>
									<effect>
										<name>Audio Pan</name>
										<effectid>audiopan</effectid>
										<effectcategory>audiopan</effectcategory>
										<effecttype>audiopan</effecttype>
										<mediatype>audio</mediatype>
										<parameter>
											<name>Pan</name>
											<parameterid>pan</parameterid>
											<valuemin>-1</valuemin>
											<valuemax>1</valuemax>
											<value>-1</value>
										</parameter>
									</effect>
								</filter>
								<sourcetrack>
									<mediatype>audio</mediatype>
									<trackindex>1</trackindex>
								</sourcetrack>
								<link>
									<linkclipref>ArmA 3 2020.11.14 - 20.43.49.40.mp4805307637</linkclipref>
								</link>
								<link>
									<linkclipref>ArmA 3 2020.11.14 - 20.43.49.40.mp4536872182</linkclipref>
								</link>
								<link>
									<linkclipref>ArmA 3 2020.11.14 - 20.43.49.40.mp45368721821</linkclipref>
								</link>
								<link>
									<linkclipref>ArmA 3 2020.11.14 - 20.43.49.40.mp4536872183</linkclipref>
								</link>
								<link>
									<linkclipref>ArmA 3 2020.11.14 - 20.43.49.40.mp45368721831</linkclipref>
								</link>
							</clipitem>
							<clipitem id="ArmA 3 2020.11.14 - 20.50.27.41.mp4536872186">
								<name>ArmA 3 2020.11.14 - 20.50.27.41.mp4</name>
								<duration>378</duration>
								<rate>
									<ntsc>TRUE</ntsc>
									<timebase>24</timebase>
								</rate>
								<in>0</in>
								<out>378</out>
								<start>11888</start>
								<end>12266</end>
								<enabled>FALSE</enabled>
								<masterclipid>ArmA 3 2020.11.14 - 20.50.27.41.mp4</masterclipid>
								<logginginfo>
									<scene />
									<shottake />
									<lognote />
									<good>FALSE</good>
								</logginginfo>
								<labels>
									<label2 />
								</labels>
								<comments>
									<mastercomment1 />
									<mastercomment2 />
									<mastercomment3 />
									<mastercomment4 />
								</comments>
								<file id="ArmA 3 2020.11.14 - 20.50.27.41" />
								<filter>
									<effect>
										<name>Audio Levels</name>
										<effectid>audiolevels</effectid>
										<effectcategory>audiolevels</effectcategory>
										<effecttype>audiolevels</effecttype>
										<mediatype>audio</mediatype>
										<parameter>
											<name>Level</name>
											<parameterid>level</parameterid>
											<valuemin>0</valuemin>
											<valuemax>3,98109</valuemax>
											<value>1</value>
										</parameter>
									</effect>
								</filter>
								<filter>
									<effect>
										<name>Audio Pan</name>
										<effectid>audiopan</effectid>
										<effectcategory>audiopan</effectcategory>
										<effecttype>audiopan</effecttype>
										<mediatype>audio</mediatype>
										<parameter>
											<name>Pan</name>
											<parameterid>pan</parameterid>
											<valuemin>-1</valuemin>
											<valuemax>1</valuemax>
											<value>-1</value>
										</parameter>
									</effect>
								</filter>
								<sourcetrack>
									<mediatype>audio</mediatype>
									<trackindex>1</trackindex>
								</sourcetrack>
								<link>
									<linkclipref>ArmA 3 2020.11.14 - 20.50.27.41.mp4805307640</linkclipref>
								</link>
								<link>
									<linkclipref>ArmA 3 2020.11.14 - 20.50.27.41.mp4536872185</linkclipref>
								</link>
								<link>
									<linkclipref>ArmA 3 2020.11.14 - 20.50.27.41.mp45368721851</linkclipref>
								</link>
								<link>
									<linkclipref>ArmA 3 2020.11.14 - 20.50.27.41.mp4536872186</linkclipref>
								</link>
								<link>
									<linkclipref>ArmA 3 2020.11.14 - 20.50.27.41.mp45368721861</linkclipref>
								</link>
							</clipitem>
							<clipitem id="ArmA 3 2020.11.14 - 20.53.10.42.mp4536872189">
								<name>ArmA 3 2020.11.14 - 20.53.10.42.mp4</name>
								<duration>774</duration>
								<rate>
									<ntsc>TRUE</ntsc>
									<timebase>24</timebase>
								</rate>
								<in>0</in>
								<out>774</out>
								<start>12267</start>
								<end>13041</end>
								<enabled>FALSE</enabled>
								<masterclipid>ArmA 3 2020.11.14 - 20.53.10.42.mp4</masterclipid>
								<logginginfo>
									<scene />
									<shottake />
									<lognote />
									<good>FALSE</good>
								</logginginfo>
								<labels>
									<label2 />
								</labels>
								<comments>
									<mastercomment1 />
									<mastercomment2 />
									<mastercomment3 />
									<mastercomment4 />
								</comments>
								<file id="ArmA 3 2020.11.14 - 20.53.10.42" />
								<filter>
									<effect>
										<name>Audio Levels</name>
										<effectid>audiolevels</effectid>
										<effectcategory>audiolevels</effectcategory>
										<effecttype>audiolevels</effecttype>
										<mediatype>audio</mediatype>
										<parameter>
											<name>Level</name>
											<parameterid>level</parameterid>
											<valuemin>0</valuemin>
											<valuemax>3,98109</valuemax>
											<value>1</value>
										</parameter>
									</effect>
								</filter>
								<filter>
									<effect>
										<name>Audio Pan</name>
										<effectid>audiopan</effectid>
										<effectcategory>audiopan</effectcategory>
										<effecttype>audiopan</effecttype>
										<mediatype>audio</mediatype>
										<parameter>
											<name>Pan</name>
											<parameterid>pan</parameterid>
											<valuemin>-1</valuemin>
											<valuemax>1</valuemax>
											<value>-1</value>
										</parameter>
									</effect>
								</filter>
								<sourcetrack>
									<mediatype>audio</mediatype>
									<trackindex>1</trackindex>
								</sourcetrack>
								<link>
									<linkclipref>ArmA 3 2020.11.14 - 20.53.10.42.mp4805307643</linkclipref>
								</link>
								<link>
									<linkclipref>ArmA 3 2020.11.14 - 20.53.10.42.mp4536872188</linkclipref>
								</link>
								<link>
									<linkclipref>ArmA 3 2020.11.14 - 20.53.10.42.mp45368721881</linkclipref>
								</link>
								<link>
									<linkclipref>ArmA 3 2020.11.14 - 20.53.10.42.mp4536872189</linkclipref>
								</link>
								<link>
									<linkclipref>ArmA 3 2020.11.14 - 20.53.10.42.mp45368721891</linkclipref>
								</link>
							</clipitem>
							<clipitem id="ArmA 3 2020.11.14 - 20.54.51.43.mp4536872192">
								<name>ArmA 3 2020.11.14 - 20.54.51.43.mp4</name>
								<duration>441</duration>
								<rate>
									<ntsc>TRUE</ntsc>
									<timebase>24</timebase>
								</rate>
								<in>0</in>
								<out>441</out>
								<start>13042</start>
								<end>13483</end>
								<enabled>FALSE</enabled>
								<masterclipid>ArmA 3 2020.11.14 - 20.54.51.43.mp4</masterclipid>
								<logginginfo>
									<scene />
									<shottake />
									<lognote />
									<good>FALSE</good>
								</logginginfo>
								<labels>
									<label2 />
								</labels>
								<comments>
									<mastercomment1 />
									<mastercomment2 />
									<mastercomment3 />
									<mastercomment4 />
								</comments>
								<file id="ArmA 3 2020.11.14 - 20.54.51.43" />
								<filter>
									<effect>
										<name>Audio Levels</name>
										<effectid>audiolevels</effectid>
										<effectcategory>audiolevels</effectcategory>
										<effecttype>audiolevels</effecttype>
										<mediatype>audio</mediatype>
										<parameter>
											<name>Level</name>
											<parameterid>level</parameterid>
											<valuemin>0</valuemin>
											<valuemax>3,98109</valuemax>
											<value>1</value>
										</parameter>
									</effect>
								</filter>
								<filter>
									<effect>
										<name>Audio Pan</name>
										<effectid>audiopan</effectid>
										<effectcategory>audiopan</effectcategory>
										<effecttype>audiopan</effecttype>
										<mediatype>audio</mediatype>
										<parameter>
											<name>Pan</name>
											<parameterid>pan</parameterid>
											<valuemin>-1</valuemin>
											<valuemax>1</valuemax>
											<value>-1</value>
										</parameter>
									</effect>
								</filter>
								<sourcetrack>
									<mediatype>audio</mediatype>
									<trackindex>1</trackindex>
								</sourcetrack>
								<link>
									<linkclipref>ArmA 3 2020.11.14 - 20.54.51.43.mp4805307646</linkclipref>
								</link>
								<link>
									<linkclipref>ArmA 3 2020.11.14 - 20.54.51.43.mp4536872191</linkclipref>
								</link>
								<link>
									<linkclipref>ArmA 3 2020.11.14 - 20.54.51.43.mp45368721911</linkclipref>
								</link>
								<link>
									<linkclipref>ArmA 3 2020.11.14 - 20.54.51.43.mp4536872192</linkclipref>
								</link>
								<link>
									<linkclipref>ArmA 3 2020.11.14 - 20.54.51.43.mp45368721921</linkclipref>
								</link>
							</clipitem>
							<clipitem id="ArmA 3 2020.11.14 - 20.55.19.44.mp4536872195">
								<name>ArmA 3 2020.11.14 - 20.55.19.44.mp4</name>
								<duration>709</duration>
								<rate>
									<ntsc>TRUE</ntsc>
									<timebase>24</timebase>
								</rate>
								<in>0</in>
								<out>709</out>
								<start>13484</start>
								<end>14193</end>
								<enabled>FALSE</enabled>
								<masterclipid>ArmA 3 2020.11.14 - 20.55.19.44.mp4</masterclipid>
								<logginginfo>
									<scene />
									<shottake />
									<lognote />
									<good>FALSE</good>
								</logginginfo>
								<labels>
									<label2 />
								</labels>
								<comments>
									<mastercomment1 />
									<mastercomment2 />
									<mastercomment3 />
									<mastercomment4 />
								</comments>
								<file id="ArmA 3 2020.11.14 - 20.55.19.44" />
								<filter>
									<effect>
										<name>Audio Levels</name>
										<effectid>audiolevels</effectid>
										<effectcategory>audiolevels</effectcategory>
										<effecttype>audiolevels</effecttype>
										<mediatype>audio</mediatype>
										<parameter>
											<name>Level</name>
											<parameterid>level</parameterid>
											<valuemin>0</valuemin>
											<valuemax>3,98109</valuemax>
											<value>1</value>
										</parameter>
									</effect>
								</filter>
								<filter>
									<effect>
										<name>Audio Pan</name>
										<effectid>audiopan</effectid>
										<effectcategory>audiopan</effectcategory>
										<effecttype>audiopan</effecttype>
										<mediatype>audio</mediatype>
										<parameter>
											<name>Pan</name>
											<parameterid>pan</parameterid>
											<valuemin>-1</valuemin>
											<valuemax>1</valuemax>
											<value>-1</value>
										</parameter>
									</effect>
								</filter>
								<sourcetrack>
									<mediatype>audio</mediatype>
									<trackindex>1</trackindex>
								</sourcetrack>
								<link>
									<linkclipref>ArmA 3 2020.11.14 - 20.55.19.44.mp4805307649</linkclipref>
								</link>
								<link>
									<linkclipref>ArmA 3 2020.11.14 - 20.55.19.44.mp4536872194</linkclipref>
								</link>
								<link>
									<linkclipref>ArmA 3 2020.11.14 - 20.55.19.44.mp45368721941</linkclipref>
								</link>
								<link>
									<linkclipref>ArmA 3 2020.11.14 - 20.55.19.44.mp4536872195</linkclipref>
								</link>
								<link>
									<linkclipref>ArmA 3 2020.11.14 - 20.55.19.44.mp45368721951</linkclipref>
								</link>
							</clipitem>
							<clipitem id="ArmA 3 2020.11.14 - 20.58.46.45.mp4536872198">
								<name>ArmA 3 2020.11.14 - 20.58.46.45.mp4</name>
								<duration>1428</duration>
								<rate>
									<ntsc>TRUE</ntsc>
									<timebase>24</timebase>
								</rate>
								<in>0</in>
								<out>1428</out>
								<start>14194</start>
								<end>15622</end>
								<enabled>FALSE</enabled>
								<masterclipid>ArmA 3 2020.11.14 - 20.58.46.45.mp4</masterclipid>
								<logginginfo>
									<scene />
									<shottake />
									<lognote />
									<good>FALSE</good>
								</logginginfo>
								<labels>
									<label2 />
								</labels>
								<comments>
									<mastercomment1 />
									<mastercomment2 />
									<mastercomment3 />
									<mastercomment4 />
								</comments>
								<file id="ArmA 3 2020.11.14 - 20.58.46.45" />
								<filter>
									<effect>
										<name>Audio Levels</name>
										<effectid>audiolevels</effectid>
										<effectcategory>audiolevels</effectcategory>
										<effecttype>audiolevels</effecttype>
										<mediatype>audio</mediatype>
										<parameter>
											<name>Level</name>
											<parameterid>level</parameterid>
											<valuemin>0</valuemin>
											<valuemax>3,98109</valuemax>
											<value>1</value>
										</parameter>
									</effect>
								</filter>
								<filter>
									<effect>
										<name>Audio Pan</name>
										<effectid>audiopan</effectid>
										<effectcategory>audiopan</effectcategory>
										<effecttype>audiopan</effecttype>
										<mediatype>audio</mediatype>
										<parameter>
											<name>Pan</name>
											<parameterid>pan</parameterid>
											<valuemin>-1</valuemin>
											<valuemax>1</valuemax>
											<value>-1</value>
										</parameter>
									</effect>
								</filter>
								<sourcetrack>
									<mediatype>audio</mediatype>
									<trackindex>1</trackindex>
								</sourcetrack>
								<link>
									<linkclipref>ArmA 3 2020.11.14 - 20.58.46.45.mp4805307652</linkclipref>
								</link>
								<link>
									<linkclipref>ArmA 3 2020.11.14 - 20.58.46.45.mp4536872197</linkclipref>
								</link>
								<link>
									<linkclipref>ArmA 3 2020.11.14 - 20.58.46.45.mp45368721971</linkclipref>
								</link>
								<link>
									<linkclipref>ArmA 3 2020.11.14 - 20.58.46.45.mp4536872198</linkclipref>
								</link>
								<link>
									<linkclipref>ArmA 3 2020.11.14 - 20.58.46.45.mp45368721981</linkclipref>
								</link>
							</clipitem>
							<clipitem id="ArmA 3 2020.11.14 - 21.00.16.46.mp4536872201">
								<name>ArmA 3 2020.11.14 - 21.00.16.46.mp4</name>
								<duration>562</duration>
								<rate>
									<ntsc>TRUE</ntsc>
									<timebase>24</timebase>
								</rate>
								<in>0</in>
								<out>562</out>
								<start>15623</start>
								<end>16185</end>
								<enabled>FALSE</enabled>
								<masterclipid>ArmA 3 2020.11.14 - 21.00.16.46.mp4</masterclipid>
								<logginginfo>
									<scene />
									<shottake />
									<lognote />
									<good>FALSE</good>
								</logginginfo>
								<labels>
									<label2 />
								</labels>
								<comments>
									<mastercomment1 />
									<mastercomment2 />
									<mastercomment3 />
									<mastercomment4 />
								</comments>
								<file id="ArmA 3 2020.11.14 - 21.00.16.46" />
								<filter>
									<effect>
										<name>Audio Levels</name>
										<effectid>audiolevels</effectid>
										<effectcategory>audiolevels</effectcategory>
										<effecttype>audiolevels</effecttype>
										<mediatype>audio</mediatype>
										<parameter>
											<name>Level</name>
											<parameterid>level</parameterid>
											<valuemin>0</valuemin>
											<valuemax>3,98109</valuemax>
											<value>1</value>
										</parameter>
									</effect>
								</filter>
								<filter>
									<effect>
										<name>Audio Pan</name>
										<effectid>audiopan</effectid>
										<effectcategory>audiopan</effectcategory>
										<effecttype>audiopan</effecttype>
										<mediatype>audio</mediatype>
										<parameter>
											<name>Pan</name>
											<parameterid>pan</parameterid>
											<valuemin>-1</valuemin>
											<valuemax>1</valuemax>
											<value>-1</value>
										</parameter>
									</effect>
								</filter>
								<sourcetrack>
									<mediatype>audio</mediatype>
									<trackindex>1</trackindex>
								</sourcetrack>
								<link>
									<linkclipref>ArmA 3 2020.11.14 - 21.00.16.46.mp4805307655</linkclipref>
								</link>
								<link>
									<linkclipref>ArmA 3 2020.11.14 - 21.00.16.46.mp4536872200</linkclipref>
								</link>
								<link>
									<linkclipref>ArmA 3 2020.11.14 - 21.00.16.46.mp45368722001</linkclipref>
								</link>
								<link>
									<linkclipref>ArmA 3 2020.11.14 - 21.00.16.46.mp4536872201</linkclipref>
								</link>
								<link>
									<linkclipref>ArmA 3 2020.11.14 - 21.00.16.46.mp45368722011</linkclipref>
								</link>
							</clipitem>
							<clipitem id="ArmA 3 2020.11.14 - 21.00.51.47.mp4536872204">
								<name>ArmA 3 2020.11.14 - 21.00.51.47.mp4</name>
								<duration>691</duration>
								<rate>
									<ntsc>TRUE</ntsc>
									<timebase>24</timebase>
								</rate>
								<in>0</in>
								<out>691</out>
								<start>16186</start>
								<end>16877</end>
								<enabled>FALSE</enabled>
								<masterclipid>ArmA 3 2020.11.14 - 21.00.51.47.mp4</masterclipid>
								<logginginfo>
									<scene />
									<shottake />
									<lognote />
									<good>FALSE</good>
								</logginginfo>
								<labels>
									<label2 />
								</labels>
								<comments>
									<mastercomment1 />
									<mastercomment2 />
									<mastercomment3 />
									<mastercomment4 />
								</comments>
								<file id="ArmA 3 2020.11.14 - 21.00.51.47" />
								<filter>
									<effect>
										<name>Audio Levels</name>
										<effectid>audiolevels</effectid>
										<effectcategory>audiolevels</effectcategory>
										<effecttype>audiolevels</effecttype>
										<mediatype>audio</mediatype>
										<parameter>
											<name>Level</name>
											<parameterid>level</parameterid>
											<valuemin>0</valuemin>
											<valuemax>3,98109</valuemax>
											<value>1</value>
										</parameter>
									</effect>
								</filter>
								<filter>
									<effect>
										<name>Audio Pan</name>
										<effectid>audiopan</effectid>
										<effectcategory>audiopan</effectcategory>
										<effecttype>audiopan</effecttype>
										<mediatype>audio</mediatype>
										<parameter>
											<name>Pan</name>
											<parameterid>pan</parameterid>
											<valuemin>-1</valuemin>
											<valuemax>1</valuemax>
											<value>-1</value>
										</parameter>
									</effect>
								</filter>
								<sourcetrack>
									<mediatype>audio</mediatype>
									<trackindex>1</trackindex>
								</sourcetrack>
								<link>
									<linkclipref>ArmA 3 2020.11.14 - 21.00.51.47.mp4805307658</linkclipref>
								</link>
								<link>
									<linkclipref>ArmA 3 2020.11.14 - 21.00.51.47.mp4536872203</linkclipref>
								</link>
								<link>
									<linkclipref>ArmA 3 2020.11.14 - 21.00.51.47.mp45368722031</linkclipref>
								</link>
								<link>
									<linkclipref>ArmA 3 2020.11.14 - 21.00.51.47.mp4536872204</linkclipref>
								</link>
								<link>
									<linkclipref>ArmA 3 2020.11.14 - 21.00.51.47.mp45368722041</linkclipref>
								</link>
							</clipitem>
							<clipitem id="ArmA 3 2020.11.14 - 21.01.54.48.mp4536872207">
								<name>ArmA 3 2020.11.14 - 21.01.54.48.mp4</name>
								<duration>911</duration>
								<rate>
									<ntsc>TRUE</ntsc>
									<timebase>24</timebase>
								</rate>
								<in>0</in>
								<out>911</out>
								<start>16878</start>
								<end>17789</end>
								<enabled>FALSE</enabled>
								<masterclipid>ArmA 3 2020.11.14 - 21.01.54.48.mp4</masterclipid>
								<logginginfo>
									<scene />
									<shottake />
									<lognote />
									<good>FALSE</good>
								</logginginfo>
								<labels>
									<label2 />
								</labels>
								<comments>
									<mastercomment1 />
									<mastercomment2 />
									<mastercomment3 />
									<mastercomment4 />
								</comments>
								<file id="ArmA 3 2020.11.14 - 21.01.54.48" />
								<filter>
									<effect>
										<name>Audio Levels</name>
										<effectid>audiolevels</effectid>
										<effectcategory>audiolevels</effectcategory>
										<effecttype>audiolevels</effecttype>
										<mediatype>audio</mediatype>
										<parameter>
											<name>Level</name>
											<parameterid>level</parameterid>
											<valuemin>0</valuemin>
											<valuemax>3,98109</valuemax>
											<value>1</value>
										</parameter>
									</effect>
								</filter>
								<filter>
									<effect>
										<name>Audio Pan</name>
										<effectid>audiopan</effectid>
										<effectcategory>audiopan</effectcategory>
										<effecttype>audiopan</effecttype>
										<mediatype>audio</mediatype>
										<parameter>
											<name>Pan</name>
											<parameterid>pan</parameterid>
											<valuemin>-1</valuemin>
											<valuemax>1</valuemax>
											<value>-1</value>
										</parameter>
									</effect>
								</filter>
								<sourcetrack>
									<mediatype>audio</mediatype>
									<trackindex>1</trackindex>
								</sourcetrack>
								<link>
									<linkclipref>ArmA 3 2020.11.14 - 21.01.54.48.mp4805307661</linkclipref>
								</link>
								<link>
									<linkclipref>ArmA 3 2020.11.14 - 21.01.54.48.mp4536872206</linkclipref>
								</link>
								<link>
									<linkclipref>ArmA 3 2020.11.14 - 21.01.54.48.mp45368722061</linkclipref>
								</link>
								<link>
									<linkclipref>ArmA 3 2020.11.14 - 21.01.54.48.mp4536872207</linkclipref>
								</link>
								<link>
									<linkclipref>ArmA 3 2020.11.14 - 21.01.54.48.mp45368722071</linkclipref>
								</link>
							</clipitem>
							<clipitem id="ArmA 3 2020.11.14 - 21.03.09.49.mp4536872210">
								<name>ArmA 3 2020.11.14 - 21.03.09.49.mp4</name>
								<duration>577</duration>
								<rate>
									<ntsc>TRUE</ntsc>
									<timebase>24</timebase>
								</rate>
								<in>0</in>
								<out>577</out>
								<start>17790</start>
								<end>18367</end>
								<enabled>FALSE</enabled>
								<masterclipid>ArmA 3 2020.11.14 - 21.03.09.49.mp4</masterclipid>
								<logginginfo>
									<scene />
									<shottake />
									<lognote />
									<good>FALSE</good>
								</logginginfo>
								<labels>
									<label2 />
								</labels>
								<comments>
									<mastercomment1 />
									<mastercomment2 />
									<mastercomment3 />
									<mastercomment4 />
								</comments>
								<file id="ArmA 3 2020.11.14 - 21.03.09.49" />
								<filter>
									<effect>
										<name>Audio Levels</name>
										<effectid>audiolevels</effectid>
										<effectcategory>audiolevels</effectcategory>
										<effecttype>audiolevels</effecttype>
										<mediatype>audio</mediatype>
										<parameter>
											<name>Level</name>
											<parameterid>level</parameterid>
											<valuemin>0</valuemin>
											<valuemax>3,98109</valuemax>
											<value>1</value>
										</parameter>
									</effect>
								</filter>
								<filter>
									<effect>
										<name>Audio Pan</name>
										<effectid>audiopan</effectid>
										<effectcategory>audiopan</effectcategory>
										<effecttype>audiopan</effecttype>
										<mediatype>audio</mediatype>
										<parameter>
											<name>Pan</name>
											<parameterid>pan</parameterid>
											<valuemin>-1</valuemin>
											<valuemax>1</valuemax>
											<value>-1</value>
										</parameter>
									</effect>
								</filter>
								<sourcetrack>
									<mediatype>audio</mediatype>
									<trackindex>1</trackindex>
								</sourcetrack>
								<link>
									<linkclipref>ArmA 3 2020.11.14 - 21.03.09.49.mp4805307664</linkclipref>
								</link>
								<link>
									<linkclipref>ArmA 3 2020.11.14 - 21.03.09.49.mp4536872209</linkclipref>
								</link>
								<link>
									<linkclipref>ArmA 3 2020.11.14 - 21.03.09.49.mp45368722091</linkclipref>
								</link>
								<link>
									<linkclipref>ArmA 3 2020.11.14 - 21.03.09.49.mp4536872210</linkclipref>
								</link>
								<link>
									<linkclipref>ArmA 3 2020.11.14 - 21.03.09.49.mp45368722101</linkclipref>
								</link>
							</clipitem>
							<clipitem id="ArmA 3 2020.11.14 - 21.04.25.50.mp4536872213">
								<name>ArmA 3 2020.11.14 - 21.04.25.50.mp4</name>
								<duration>573</duration>
								<rate>
									<ntsc>TRUE</ntsc>
									<timebase>24</timebase>
								</rate>
								<in>0</in>
								<out>573</out>
								<start>18368</start>
								<end>18941</end>
								<enabled>FALSE</enabled>
								<masterclipid>ArmA 3 2020.11.14 - 21.04.25.50.mp4</masterclipid>
								<logginginfo>
									<scene />
									<shottake />
									<lognote />
									<good>FALSE</good>
								</logginginfo>
								<labels>
									<label2 />
								</labels>
								<comments>
									<mastercomment1 />
									<mastercomment2 />
									<mastercomment3 />
									<mastercomment4 />
								</comments>
								<file id="ArmA 3 2020.11.14 - 21.04.25.50" />
								<filter>
									<effect>
										<name>Audio Levels</name>
										<effectid>audiolevels</effectid>
										<effectcategory>audiolevels</effectcategory>
										<effecttype>audiolevels</effecttype>
										<mediatype>audio</mediatype>
										<parameter>
											<name>Level</name>
											<parameterid>level</parameterid>
											<valuemin>0</valuemin>
											<valuemax>3,98109</valuemax>
											<value>1</value>
										</parameter>
									</effect>
								</filter>
								<filter>
									<effect>
										<name>Audio Pan</name>
										<effectid>audiopan</effectid>
										<effectcategory>audiopan</effectcategory>
										<effecttype>audiopan</effecttype>
										<mediatype>audio</mediatype>
										<parameter>
											<name>Pan</name>
											<parameterid>pan</parameterid>
											<valuemin>-1</valuemin>
											<valuemax>1</valuemax>
											<value>-1</value>
										</parameter>
									</effect>
								</filter>
								<sourcetrack>
									<mediatype>audio</mediatype>
									<trackindex>1</trackindex>
								</sourcetrack>
								<link>
									<linkclipref>ArmA 3 2020.11.14 - 21.04.25.50.mp4805307667</linkclipref>
								</link>
								<link>
									<linkclipref>ArmA 3 2020.11.14 - 21.04.25.50.mp4536872212</linkclipref>
								</link>
								<link>
									<linkclipref>ArmA 3 2020.11.14 - 21.04.25.50.mp45368722121</linkclipref>
								</link>
								<link>
									<linkclipref>ArmA 3 2020.11.14 - 21.04.25.50.mp4536872213</linkclipref>
								</link>
								<link>
									<linkclipref>ArmA 3 2020.11.14 - 21.04.25.50.mp45368722131</linkclipref>
								</link>
							</clipitem>
							<clipitem id="ArmA 3 2020.11.14 - 21.05.14.51.mp4536872216">
								<name>ArmA 3 2020.11.14 - 21.05.14.51.mp4</name>
								<duration>643</duration>
								<rate>
									<ntsc>TRUE</ntsc>
									<timebase>24</timebase>
								</rate>
								<in>0</in>
								<out>643</out>
								<start>18942</start>
								<end>19585</end>
								<enabled>FALSE</enabled>
								<masterclipid>ArmA 3 2020.11.14 - 21.05.14.51.mp4</masterclipid>
								<logginginfo>
									<scene />
									<shottake />
									<lognote />
									<good>FALSE</good>
								</logginginfo>
								<labels>
									<label2 />
								</labels>
								<comments>
									<mastercomment1 />
									<mastercomment2 />
									<mastercomment3 />
									<mastercomment4 />
								</comments>
								<file id="ArmA 3 2020.11.14 - 21.05.14.51" />
								<filter>
									<effect>
										<name>Audio Levels</name>
										<effectid>audiolevels</effectid>
										<effectcategory>audiolevels</effectcategory>
										<effecttype>audiolevels</effecttype>
										<mediatype>audio</mediatype>
										<parameter>
											<name>Level</name>
											<parameterid>level</parameterid>
											<valuemin>0</valuemin>
											<valuemax>3,98109</valuemax>
											<value>1</value>
										</parameter>
									</effect>
								</filter>
								<filter>
									<effect>
										<name>Audio Pan</name>
										<effectid>audiopan</effectid>
										<effectcategory>audiopan</effectcategory>
										<effecttype>audiopan</effecttype>
										<mediatype>audio</mediatype>
										<parameter>
											<name>Pan</name>
											<parameterid>pan</parameterid>
											<valuemin>-1</valuemin>
											<valuemax>1</valuemax>
											<value>-1</value>
										</parameter>
									</effect>
								</filter>
								<sourcetrack>
									<mediatype>audio</mediatype>
									<trackindex>1</trackindex>
								</sourcetrack>
								<link>
									<linkclipref>ArmA 3 2020.11.14 - 21.05.14.51.mp4805307670</linkclipref>
								</link>
								<link>
									<linkclipref>ArmA 3 2020.11.14 - 21.05.14.51.mp4536872215</linkclipref>
								</link>
								<link>
									<linkclipref>ArmA 3 2020.11.14 - 21.05.14.51.mp45368722151</linkclipref>
								</link>
								<link>
									<linkclipref>ArmA 3 2020.11.14 - 21.05.14.51.mp4536872216</linkclipref>
								</link>
								<link>
									<linkclipref>ArmA 3 2020.11.14 - 21.05.14.51.mp45368722161</linkclipref>
								</link>
							</clipitem>
							<clipitem id="ArmA 3 2020.11.14 - 21.05.51.52.mp4536872219">
								<name>ArmA 3 2020.11.14 - 21.05.51.52.mp4</name>
								<duration>832</duration>
								<rate>
									<ntsc>TRUE</ntsc>
									<timebase>24</timebase>
								</rate>
								<in>0</in>
								<out>832</out>
								<start>19586</start>
								<end>20418</end>
								<enabled>FALSE</enabled>
								<masterclipid>ArmA 3 2020.11.14 - 21.05.51.52.mp4</masterclipid>
								<logginginfo>
									<scene />
									<shottake />
									<lognote />
									<good>FALSE</good>
								</logginginfo>
								<labels>
									<label2 />
								</labels>
								<comments>
									<mastercomment1 />
									<mastercomment2 />
									<mastercomment3 />
									<mastercomment4 />
								</comments>
								<file id="ArmA 3 2020.11.14 - 21.05.51.52" />
								<filter>
									<effect>
										<name>Audio Levels</name>
										<effectid>audiolevels</effectid>
										<effectcategory>audiolevels</effectcategory>
										<effecttype>audiolevels</effecttype>
										<mediatype>audio</mediatype>
										<parameter>
											<name>Level</name>
											<parameterid>level</parameterid>
											<valuemin>0</valuemin>
											<valuemax>3,98109</valuemax>
											<value>1</value>
										</parameter>
									</effect>
								</filter>
								<filter>
									<effect>
										<name>Audio Pan</name>
										<effectid>audiopan</effectid>
										<effectcategory>audiopan</effectcategory>
										<effecttype>audiopan</effecttype>
										<mediatype>audio</mediatype>
										<parameter>
											<name>Pan</name>
											<parameterid>pan</parameterid>
											<valuemin>-1</valuemin>
											<valuemax>1</valuemax>
											<value>-1</value>
										</parameter>
									</effect>
								</filter>
								<sourcetrack>
									<mediatype>audio</mediatype>
									<trackindex>1</trackindex>
								</sourcetrack>
								<link>
									<linkclipref>ArmA 3 2020.11.14 - 21.05.51.52.mp4805307673</linkclipref>
								</link>
								<link>
									<linkclipref>ArmA 3 2020.11.14 - 21.05.51.52.mp4536872218</linkclipref>
								</link>
								<link>
									<linkclipref>ArmA 3 2020.11.14 - 21.05.51.52.mp45368722181</linkclipref>
								</link>
								<link>
									<linkclipref>ArmA 3 2020.11.14 - 21.05.51.52.mp4536872219</linkclipref>
								</link>
								<link>
									<linkclipref>ArmA 3 2020.11.14 - 21.05.51.52.mp45368722191</linkclipref>
								</link>
							</clipitem>
							<clipitem id="ArmA 3 2020.11.14 - 21.06.34.53.mp4536872222">
								<name>ArmA 3 2020.11.14 - 21.06.34.53.mp4</name>
								<duration>1018</duration>
								<rate>
									<ntsc>TRUE</ntsc>
									<timebase>24</timebase>
								</rate>
								<in>0</in>
								<out>1018</out>
								<start>20419</start>
								<end>21437</end>
								<enabled>FALSE</enabled>
								<masterclipid>ArmA 3 2020.11.14 - 21.06.34.53.mp4</masterclipid>
								<logginginfo>
									<scene />
									<shottake />
									<lognote />
									<good>FALSE</good>
								</logginginfo>
								<labels>
									<label2 />
								</labels>
								<comments>
									<mastercomment1 />
									<mastercomment2 />
									<mastercomment3 />
									<mastercomment4 />
								</comments>
								<file id="ArmA 3 2020.11.14 - 21.06.34.53" />
								<filter>
									<effect>
										<name>Audio Levels</name>
										<effectid>audiolevels</effectid>
										<effectcategory>audiolevels</effectcategory>
										<effecttype>audiolevels</effecttype>
										<mediatype>audio</mediatype>
										<parameter>
											<name>Level</name>
											<parameterid>level</parameterid>
											<valuemin>0</valuemin>
											<valuemax>3,98109</valuemax>
											<value>1</value>
										</parameter>
									</effect>
								</filter>
								<filter>
									<effect>
										<name>Audio Pan</name>
										<effectid>audiopan</effectid>
										<effectcategory>audiopan</effectcategory>
										<effecttype>audiopan</effecttype>
										<mediatype>audio</mediatype>
										<parameter>
											<name>Pan</name>
											<parameterid>pan</parameterid>
											<valuemin>-1</valuemin>
											<valuemax>1</valuemax>
											<value>-1</value>
										</parameter>
									</effect>
								</filter>
								<sourcetrack>
									<mediatype>audio</mediatype>
									<trackindex>1</trackindex>
								</sourcetrack>
								<link>
									<linkclipref>ArmA 3 2020.11.14 - 21.06.34.53.mp4805307676</linkclipref>
								</link>
								<link>
									<linkclipref>ArmA 3 2020.11.14 - 21.06.34.53.mp4536872221</linkclipref>
								</link>
								<link>
									<linkclipref>ArmA 3 2020.11.14 - 21.06.34.53.mp45368722211</linkclipref>
								</link>
								<link>
									<linkclipref>ArmA 3 2020.11.14 - 21.06.34.53.mp4536872222</linkclipref>
								</link>
								<link>
									<linkclipref>ArmA 3 2020.11.14 - 21.06.34.53.mp45368722221</linkclipref>
								</link>
							</clipitem>
							<clipitem id="ArmA 3 2020.11.14 - 21.07.39.54.mp4536872225">
								<name>ArmA 3 2020.11.14 - 21.07.39.54.mp4</name>
								<duration>2137</duration>
								<rate>
									<ntsc>TRUE</ntsc>
									<timebase>24</timebase>
								</rate>
								<in>0</in>
								<out>2137</out>
								<start>21438</start>
								<end>23575</end>
								<enabled>FALSE</enabled>
								<masterclipid>ArmA 3 2020.11.14 - 21.07.39.54.mp4</masterclipid>
								<logginginfo>
									<scene />
									<shottake />
									<lognote />
									<good>FALSE</good>
								</logginginfo>
								<labels>
									<label2 />
								</labels>
								<comments>
									<mastercomment1 />
									<mastercomment2 />
									<mastercomment3 />
									<mastercomment4 />
								</comments>
								<file id="ArmA 3 2020.11.14 - 21.07.39.54" />
								<filter>
									<effect>
										<name>Audio Levels</name>
										<effectid>audiolevels</effectid>
										<effectcategory>audiolevels</effectcategory>
										<effecttype>audiolevels</effecttype>
										<mediatype>audio</mediatype>
										<parameter>
											<name>Level</name>
											<parameterid>level</parameterid>
											<valuemin>0</valuemin>
											<valuemax>3,98109</valuemax>
											<value>1</value>
										</parameter>
									</effect>
								</filter>
								<filter>
									<effect>
										<name>Audio Pan</name>
										<effectid>audiopan</effectid>
										<effectcategory>audiopan</effectcategory>
										<effecttype>audiopan</effecttype>
										<mediatype>audio</mediatype>
										<parameter>
											<name>Pan</name>
											<parameterid>pan</parameterid>
											<valuemin>-1</valuemin>
											<valuemax>1</valuemax>
											<value>-1</value>
										</parameter>
									</effect>
								</filter>
								<sourcetrack>
									<mediatype>audio</mediatype>
									<trackindex>1</trackindex>
								</sourcetrack>
								<link>
									<linkclipref>ArmA 3 2020.11.14 - 21.07.39.54.mp4805307679</linkclipref>
								</link>
								<link>
									<linkclipref>ArmA 3 2020.11.14 - 21.07.39.54.mp4536872224</linkclipref>
								</link>
								<link>
									<linkclipref>ArmA 3 2020.11.14 - 21.07.39.54.mp45368722241</linkclipref>
								</link>
								<link>
									<linkclipref>ArmA 3 2020.11.14 - 21.07.39.54.mp4536872225</linkclipref>
								</link>
								<link>
									<linkclipref>ArmA 3 2020.11.14 - 21.07.39.54.mp45368722251</linkclipref>
								</link>
							</clipitem>
							<clipitem id="ArmA 3 2020.11.14 - 21.12.09.55.mp4536872228">
								<name>ArmA 3 2020.11.14 - 21.12.09.55.mp4</name>
								<duration>4968</duration>
								<rate>
									<ntsc>TRUE</ntsc>
									<timebase>24</timebase>
								</rate>
								<in>0</in>
								<out>4968</out>
								<start>23576</start>
								<end>28544</end>
								<enabled>FALSE</enabled>
								<masterclipid>ArmA 3 2020.11.14 - 21.12.09.55.mp4</masterclipid>
								<logginginfo>
									<scene />
									<shottake />
									<lognote />
									<good>FALSE</good>
								</logginginfo>
								<labels>
									<label2 />
								</labels>
								<comments>
									<mastercomment1 />
									<mastercomment2 />
									<mastercomment3 />
									<mastercomment4 />
								</comments>
								<file id="ArmA 3 2020.11.14 - 21.12.09.55" />
								<filter>
									<effect>
										<name>Audio Levels</name>
										<effectid>audiolevels</effectid>
										<effectcategory>audiolevels</effectcategory>
										<effecttype>audiolevels</effecttype>
										<mediatype>audio</mediatype>
										<parameter>
											<name>Level</name>
											<parameterid>level</parameterid>
											<valuemin>0</valuemin>
											<valuemax>3,98109</valuemax>
											<value>1</value>
										</parameter>
									</effect>
								</filter>
								<filter>
									<effect>
										<name>Audio Pan</name>
										<effectid>audiopan</effectid>
										<effectcategory>audiopan</effectcategory>
										<effecttype>audiopan</effecttype>
										<mediatype>audio</mediatype>
										<parameter>
											<name>Pan</name>
											<parameterid>pan</parameterid>
											<valuemin>-1</valuemin>
											<valuemax>1</valuemax>
											<value>-1</value>
										</parameter>
									</effect>
								</filter>
								<sourcetrack>
									<mediatype>audio</mediatype>
									<trackindex>1</trackindex>
								</sourcetrack>
								<link>
									<linkclipref>ArmA 3 2020.11.14 - 21.12.09.55.mp4805307682</linkclipref>
								</link>
								<link>
									<linkclipref>ArmA 3 2020.11.14 - 21.12.09.55.mp4536872227</linkclipref>
								</link>
								<link>
									<linkclipref>ArmA 3 2020.11.14 - 21.12.09.55.mp45368722271</linkclipref>
								</link>
								<link>
									<linkclipref>ArmA 3 2020.11.14 - 21.12.09.55.mp4536872228</linkclipref>
								</link>
								<link>
									<linkclipref>ArmA 3 2020.11.14 - 21.12.09.55.mp45368722281</linkclipref>
								</link>
							</clipitem>
							<clipitem id="ArmA 3 2020.11.14 - 21.17.09.56.mp4536872231">
								<name>ArmA 3 2020.11.14 - 21.17.09.56.mp4</name>
								<duration>2046</duration>
								<rate>
									<ntsc>TRUE</ntsc>
									<timebase>24</timebase>
								</rate>
								<in>0</in>
								<out>2046</out>
								<start>28545</start>
								<end>30591</end>
								<enabled>FALSE</enabled>
								<masterclipid>ArmA 3 2020.11.14 - 21.17.09.56.mp4</masterclipid>
								<logginginfo>
									<scene />
									<shottake />
									<lognote />
									<good>FALSE</good>
								</logginginfo>
								<labels>
									<label2 />
								</labels>
								<comments>
									<mastercomment1 />
									<mastercomment2 />
									<mastercomment3 />
									<mastercomment4 />
								</comments>
								<file id="ArmA 3 2020.11.14 - 21.17.09.56" />
								<filter>
									<effect>
										<name>Audio Levels</name>
										<effectid>audiolevels</effectid>
										<effectcategory>audiolevels</effectcategory>
										<effecttype>audiolevels</effecttype>
										<mediatype>audio</mediatype>
										<parameter>
											<name>Level</name>
											<parameterid>level</parameterid>
											<valuemin>0</valuemin>
											<valuemax>3,98109</valuemax>
											<value>1</value>
										</parameter>
									</effect>
								</filter>
								<filter>
									<effect>
										<name>Audio Pan</name>
										<effectid>audiopan</effectid>
										<effectcategory>audiopan</effectcategory>
										<effecttype>audiopan</effecttype>
										<mediatype>audio</mediatype>
										<parameter>
											<name>Pan</name>
											<parameterid>pan</parameterid>
											<valuemin>-1</valuemin>
											<valuemax>1</valuemax>
											<value>-1</value>
										</parameter>
									</effect>
								</filter>
								<sourcetrack>
									<mediatype>audio</mediatype>
									<trackindex>1</trackindex>
								</sourcetrack>
								<link>
									<linkclipref>ArmA 3 2020.11.14 - 21.17.09.56.mp4805307685</linkclipref>
								</link>
								<link>
									<linkclipref>ArmA 3 2020.11.14 - 21.17.09.56.mp4536872230</linkclipref>
								</link>
								<link>
									<linkclipref>ArmA 3 2020.11.14 - 21.17.09.56.mp45368722301</linkclipref>
								</link>
								<link>
									<linkclipref>ArmA 3 2020.11.14 - 21.17.09.56.mp4536872231</linkclipref>
								</link>
								<link>
									<linkclipref>ArmA 3 2020.11.14 - 21.17.09.56.mp45368722311</linkclipref>
								</link>
							</clipitem>
							<clipitem id="ArmA 3 2020.11.14 - 21.18.42.57.mp4536872234">
								<name>ArmA 3 2020.11.14 - 21.18.42.57.mp4</name>
								<duration>648</duration>
								<rate>
									<ntsc>TRUE</ntsc>
									<timebase>24</timebase>
								</rate>
								<in>0</in>
								<out>648</out>
								<start>30592</start>
								<end>31240</end>
								<enabled>FALSE</enabled>
								<masterclipid>ArmA 3 2020.11.14 - 21.18.42.57.mp4</masterclipid>
								<logginginfo>
									<scene />
									<shottake />
									<lognote />
									<good>FALSE</good>
								</logginginfo>
								<labels>
									<label2 />
								</labels>
								<comments>
									<mastercomment1 />
									<mastercomment2 />
									<mastercomment3 />
									<mastercomment4 />
								</comments>
								<file id="ArmA 3 2020.11.14 - 21.18.42.57" />
								<filter>
									<effect>
										<name>Audio Levels</name>
										<effectid>audiolevels</effectid>
										<effectcategory>audiolevels</effectcategory>
										<effecttype>audiolevels</effecttype>
										<mediatype>audio</mediatype>
										<parameter>
											<name>Level</name>
											<parameterid>level</parameterid>
											<valuemin>0</valuemin>
											<valuemax>3,98109</valuemax>
											<value>1</value>
										</parameter>
									</effect>
								</filter>
								<filter>
									<effect>
										<name>Audio Pan</name>
										<effectid>audiopan</effectid>
										<effectcategory>audiopan</effectcategory>
										<effecttype>audiopan</effecttype>
										<mediatype>audio</mediatype>
										<parameter>
											<name>Pan</name>
											<parameterid>pan</parameterid>
											<valuemin>-1</valuemin>
											<valuemax>1</valuemax>
											<value>-1</value>
										</parameter>
									</effect>
								</filter>
								<sourcetrack>
									<mediatype>audio</mediatype>
									<trackindex>1</trackindex>
								</sourcetrack>
								<link>
									<linkclipref>ArmA 3 2020.11.14 - 21.18.42.57.mp4805307688</linkclipref>
								</link>
								<link>
									<linkclipref>ArmA 3 2020.11.14 - 21.18.42.57.mp4536872233</linkclipref>
								</link>
								<link>
									<linkclipref>ArmA 3 2020.11.14 - 21.18.42.57.mp45368722331</linkclipref>
								</link>
								<link>
									<linkclipref>ArmA 3 2020.11.14 - 21.18.42.57.mp4536872234</linkclipref>
								</link>
								<link>
									<linkclipref>ArmA 3 2020.11.14 - 21.18.42.57.mp45368722341</linkclipref>
								</link>
							</clipitem>
							<clipitem id="ArmA 3 2020.11.14 - 21.19.27.58.mp4536872237">
								<name>ArmA 3 2020.11.14 - 21.19.27.58.mp4</name>
								<duration>600</duration>
								<rate>
									<ntsc>TRUE</ntsc>
									<timebase>24</timebase>
								</rate>
								<in>0</in>
								<out>600</out>
								<start>31241</start>
								<end>31841</end>
								<enabled>FALSE</enabled>
								<masterclipid>ArmA 3 2020.11.14 - 21.19.27.58.mp4</masterclipid>
								<logginginfo>
									<scene />
									<shottake />
									<lognote />
									<good>FALSE</good>
								</logginginfo>
								<labels>
									<label2 />
								</labels>
								<comments>
									<mastercomment1 />
									<mastercomment2 />
									<mastercomment3 />
									<mastercomment4 />
								</comments>
								<file id="ArmA 3 2020.11.14 - 21.19.27.58" />
								<filter>
									<effect>
										<name>Audio Levels</name>
										<effectid>audiolevels</effectid>
										<effectcategory>audiolevels</effectcategory>
										<effecttype>audiolevels</effecttype>
										<mediatype>audio</mediatype>
										<parameter>
											<name>Level</name>
											<parameterid>level</parameterid>
											<valuemin>0</valuemin>
											<valuemax>3,98109</valuemax>
											<value>1</value>
										</parameter>
									</effect>
								</filter>
								<filter>
									<effect>
										<name>Audio Pan</name>
										<effectid>audiopan</effectid>
										<effectcategory>audiopan</effectcategory>
										<effecttype>audiopan</effecttype>
										<mediatype>audio</mediatype>
										<parameter>
											<name>Pan</name>
											<parameterid>pan</parameterid>
											<valuemin>-1</valuemin>
											<valuemax>1</valuemax>
											<value>-1</value>
										</parameter>
									</effect>
								</filter>
								<sourcetrack>
									<mediatype>audio</mediatype>
									<trackindex>1</trackindex>
								</sourcetrack>
								<link>
									<linkclipref>ArmA 3 2020.11.14 - 21.19.27.58.mp4805307691</linkclipref>
								</link>
								<link>
									<linkclipref>ArmA 3 2020.11.14 - 21.19.27.58.mp4536872236</linkclipref>
								</link>
								<link>
									<linkclipref>ArmA 3 2020.11.14 - 21.19.27.58.mp45368722361</linkclipref>
								</link>
								<link>
									<linkclipref>ArmA 3 2020.11.14 - 21.19.27.58.mp4536872237</linkclipref>
								</link>
								<link>
									<linkclipref>ArmA 3 2020.11.14 - 21.19.27.58.mp45368722371</linkclipref>
								</link>
							</clipitem>
							<clipitem id="ArmA 3 2020.11.14 - 21.21.59.59.mp4536872240">
								<name>ArmA 3 2020.11.14 - 21.21.59.59.mp4</name>
								<duration>2221</duration>
								<rate>
									<ntsc>TRUE</ntsc>
									<timebase>24</timebase>
								</rate>
								<in>0</in>
								<out>2221</out>
								<start>31842</start>
								<end>34063</end>
								<enabled>FALSE</enabled>
								<masterclipid>ArmA 3 2020.11.14 - 21.21.59.59.mp4</masterclipid>
								<logginginfo>
									<scene />
									<shottake />
									<lognote />
									<good>FALSE</good>
								</logginginfo>
								<labels>
									<label2 />
								</labels>
								<comments>
									<mastercomment1 />
									<mastercomment2 />
									<mastercomment3 />
									<mastercomment4 />
								</comments>
								<file id="ArmA 3 2020.11.14 - 21.21.59.59" />
								<filter>
									<effect>
										<name>Audio Levels</name>
										<effectid>audiolevels</effectid>
										<effectcategory>audiolevels</effectcategory>
										<effecttype>audiolevels</effecttype>
										<mediatype>audio</mediatype>
										<parameter>
											<name>Level</name>
											<parameterid>level</parameterid>
											<valuemin>0</valuemin>
											<valuemax>3,98109</valuemax>
											<value>1</value>
										</parameter>
									</effect>
								</filter>
								<filter>
									<effect>
										<name>Audio Pan</name>
										<effectid>audiopan</effectid>
										<effectcategory>audiopan</effectcategory>
										<effecttype>audiopan</effecttype>
										<mediatype>audio</mediatype>
										<parameter>
											<name>Pan</name>
											<parameterid>pan</parameterid>
											<valuemin>-1</valuemin>
											<valuemax>1</valuemax>
											<value>-1</value>
										</parameter>
									</effect>
								</filter>
								<sourcetrack>
									<mediatype>audio</mediatype>
									<trackindex>1</trackindex>
								</sourcetrack>
								<link>
									<linkclipref>ArmA 3 2020.11.14 - 21.21.59.59.mp4805307694</linkclipref>
								</link>
								<link>
									<linkclipref>ArmA 3 2020.11.14 - 21.21.59.59.mp4536872239</linkclipref>
								</link>
								<link>
									<linkclipref>ArmA 3 2020.11.14 - 21.21.59.59.mp45368722391</linkclipref>
								</link>
								<link>
									<linkclipref>ArmA 3 2020.11.14 - 21.21.59.59.mp4536872240</linkclipref>
								</link>
								<link>
									<linkclipref>ArmA 3 2020.11.14 - 21.21.59.59.mp45368722401</linkclipref>
								</link>
							</clipitem>
							<clipitem id="ArmA 3 2020.11.14 - 21.24.02.60.mp4536872243">
								<name>ArmA 3 2020.11.14 - 21.24.02.60.mp4</name>
								<duration>905</duration>
								<rate>
									<ntsc>TRUE</ntsc>
									<timebase>24</timebase>
								</rate>
								<in>0</in>
								<out>905</out>
								<start>34064</start>
								<end>34969</end>
								<enabled>FALSE</enabled>
								<masterclipid>ArmA 3 2020.11.14 - 21.24.02.60.mp4</masterclipid>
								<logginginfo>
									<scene />
									<shottake />
									<lognote />
									<good>FALSE</good>
								</logginginfo>
								<labels>
									<label2 />
								</labels>
								<comments>
									<mastercomment1 />
									<mastercomment2 />
									<mastercomment3 />
									<mastercomment4 />
								</comments>
								<file id="ArmA 3 2020.11.14 - 21.24.02.60" />
								<filter>
									<effect>
										<name>Audio Levels</name>
										<effectid>audiolevels</effectid>
										<effectcategory>audiolevels</effectcategory>
										<effecttype>audiolevels</effecttype>
										<mediatype>audio</mediatype>
										<parameter>
											<name>Level</name>
											<parameterid>level</parameterid>
											<valuemin>0</valuemin>
											<valuemax>3,98109</valuemax>
											<value>1</value>
										</parameter>
									</effect>
								</filter>
								<filter>
									<effect>
										<name>Audio Pan</name>
										<effectid>audiopan</effectid>
										<effectcategory>audiopan</effectcategory>
										<effecttype>audiopan</effecttype>
										<mediatype>audio</mediatype>
										<parameter>
											<name>Pan</name>
											<parameterid>pan</parameterid>
											<valuemin>-1</valuemin>
											<valuemax>1</valuemax>
											<value>-1</value>
										</parameter>
									</effect>
								</filter>
								<sourcetrack>
									<mediatype>audio</mediatype>
									<trackindex>1</trackindex>
								</sourcetrack>
								<link>
									<linkclipref>ArmA 3 2020.11.14 - 21.24.02.60.mp4805307697</linkclipref>
								</link>
								<link>
									<linkclipref>ArmA 3 2020.11.14 - 21.24.02.60.mp4536872242</linkclipref>
								</link>
								<link>
									<linkclipref>ArmA 3 2020.11.14 - 21.24.02.60.mp45368722421</linkclipref>
								</link>
								<link>
									<linkclipref>ArmA 3 2020.11.14 - 21.24.02.60.mp4536872243</linkclipref>
								</link>
								<link>
									<linkclipref>ArmA 3 2020.11.14 - 21.24.02.60.mp45368722431</linkclipref>
								</link>
							</clipitem>
							<clipitem id="ArmA 3 2020.11.14 - 21.25.23.61.mp4536872246">
								<name>ArmA 3 2020.11.14 - 21.25.23.61.mp4</name>
								<duration>1117</duration>
								<rate>
									<ntsc>TRUE</ntsc>
									<timebase>24</timebase>
								</rate>
								<in>0</in>
								<out>1117</out>
								<start>34970</start>
								<end>36087</end>
								<enabled>FALSE</enabled>
								<masterclipid>ArmA 3 2020.11.14 - 21.25.23.61.mp4</masterclipid>
								<logginginfo>
									<scene />
									<shottake />
									<lognote />
									<good>FALSE</good>
								</logginginfo>
								<labels>
									<label2 />
								</labels>
								<comments>
									<mastercomment1 />
									<mastercomment2 />
									<mastercomment3 />
									<mastercomment4 />
								</comments>
								<file id="ArmA 3 2020.11.14 - 21.25.23.61" />
								<filter>
									<effect>
										<name>Audio Levels</name>
										<effectid>audiolevels</effectid>
										<effectcategory>audiolevels</effectcategory>
										<effecttype>audiolevels</effecttype>
										<mediatype>audio</mediatype>
										<parameter>
											<name>Level</name>
											<parameterid>level</parameterid>
											<valuemin>0</valuemin>
											<valuemax>3,98109</valuemax>
											<value>1</value>
										</parameter>
									</effect>
								</filter>
								<filter>
									<effect>
										<name>Audio Pan</name>
										<effectid>audiopan</effectid>
										<effectcategory>audiopan</effectcategory>
										<effecttype>audiopan</effecttype>
										<mediatype>audio</mediatype>
										<parameter>
											<name>Pan</name>
											<parameterid>pan</parameterid>
											<valuemin>-1</valuemin>
											<valuemax>1</valuemax>
											<value>-1</value>
										</parameter>
									</effect>
								</filter>
								<sourcetrack>
									<mediatype>audio</mediatype>
									<trackindex>1</trackindex>
								</sourcetrack>
								<link>
									<linkclipref>ArmA 3 2020.11.14 - 21.25.23.61.mp4805307700</linkclipref>
								</link>
								<link>
									<linkclipref>ArmA 3 2020.11.14 - 21.25.23.61.mp4536872245</linkclipref>
								</link>
								<link>
									<linkclipref>ArmA 3 2020.11.14 - 21.25.23.61.mp45368722451</linkclipref>
								</link>
								<link>
									<linkclipref>ArmA 3 2020.11.14 - 21.25.23.61.mp4536872246</linkclipref>
								</link>
								<link>
									<linkclipref>ArmA 3 2020.11.14 - 21.25.23.61.mp45368722461</linkclipref>
								</link>
							</clipitem>
							<clipitem id="ArmA 3 2020.11.14 - 21.26.46.62.mp4536872249">
								<name>ArmA 3 2020.11.14 - 21.26.46.62.mp4</name>
								<duration>1358</duration>
								<rate>
									<ntsc>TRUE</ntsc>
									<timebase>24</timebase>
								</rate>
								<in>0</in>
								<out>1358</out>
								<start>36088</start>
								<end>37446</end>
								<enabled>FALSE</enabled>
								<masterclipid>ArmA 3 2020.11.14 - 21.26.46.62.mp4</masterclipid>
								<logginginfo>
									<scene />
									<shottake />
									<lognote />
									<good>FALSE</good>
								</logginginfo>
								<labels>
									<label2 />
								</labels>
								<comments>
									<mastercomment1 />
									<mastercomment2 />
									<mastercomment3 />
									<mastercomment4 />
								</comments>
								<file id="ArmA 3 2020.11.14 - 21.26.46.62" />
								<filter>
									<effect>
										<name>Audio Levels</name>
										<effectid>audiolevels</effectid>
										<effectcategory>audiolevels</effectcategory>
										<effecttype>audiolevels</effecttype>
										<mediatype>audio</mediatype>
										<parameter>
											<name>Level</name>
											<parameterid>level</parameterid>
											<valuemin>0</valuemin>
											<valuemax>3,98109</valuemax>
											<value>1</value>
										</parameter>
									</effect>
								</filter>
								<filter>
									<effect>
										<name>Audio Pan</name>
										<effectid>audiopan</effectid>
										<effectcategory>audiopan</effectcategory>
										<effecttype>audiopan</effecttype>
										<mediatype>audio</mediatype>
										<parameter>
											<name>Pan</name>
											<parameterid>pan</parameterid>
											<valuemin>-1</valuemin>
											<valuemax>1</valuemax>
											<value>-1</value>
										</parameter>
									</effect>
								</filter>
								<sourcetrack>
									<mediatype>audio</mediatype>
									<trackindex>1</trackindex>
								</sourcetrack>
								<link>
									<linkclipref>ArmA 3 2020.11.14 - 21.26.46.62.mp4805307703</linkclipref>
								</link>
								<link>
									<linkclipref>ArmA 3 2020.11.14 - 21.26.46.62.mp4536872248</linkclipref>
								</link>
								<link>
									<linkclipref>ArmA 3 2020.11.14 - 21.26.46.62.mp45368722481</linkclipref>
								</link>
								<link>
									<linkclipref>ArmA 3 2020.11.14 - 21.26.46.62.mp4536872249</linkclipref>
								</link>
								<link>
									<linkclipref>ArmA 3 2020.11.14 - 21.26.46.62.mp45368722491</linkclipref>
								</link>
							</clipitem>
							<clipitem id="ArmA 3 2020.11.14 - 21.28.34.63.mp4536872252">
								<name>ArmA 3 2020.11.14 - 21.28.34.63.mp4</name>
								<duration>1117</duration>
								<rate>
									<ntsc>TRUE</ntsc>
									<timebase>24</timebase>
								</rate>
								<in>0</in>
								<out>1117</out>
								<start>37447</start>
								<end>38564</end>
								<enabled>FALSE</enabled>
								<masterclipid>ArmA 3 2020.11.14 - 21.28.34.63.mp4</masterclipid>
								<logginginfo>
									<scene />
									<shottake />
									<lognote />
									<good>FALSE</good>
								</logginginfo>
								<labels>
									<label2 />
								</labels>
								<comments>
									<mastercomment1 />
									<mastercomment2 />
									<mastercomment3 />
									<mastercomment4 />
								</comments>
								<file id="ArmA 3 2020.11.14 - 21.28.34.63" />
								<filter>
									<effect>
										<name>Audio Levels</name>
										<effectid>audiolevels</effectid>
										<effectcategory>audiolevels</effectcategory>
										<effecttype>audiolevels</effecttype>
										<mediatype>audio</mediatype>
										<parameter>
											<name>Level</name>
											<parameterid>level</parameterid>
											<valuemin>0</valuemin>
											<valuemax>3,98109</valuemax>
											<value>1</value>
										</parameter>
									</effect>
								</filter>
								<filter>
									<effect>
										<name>Audio Pan</name>
										<effectid>audiopan</effectid>
										<effectcategory>audiopan</effectcategory>
										<effecttype>audiopan</effecttype>
										<mediatype>audio</mediatype>
										<parameter>
											<name>Pan</name>
											<parameterid>pan</parameterid>
											<valuemin>-1</valuemin>
											<valuemax>1</valuemax>
											<value>-1</value>
										</parameter>
									</effect>
								</filter>
								<sourcetrack>
									<mediatype>audio</mediatype>
									<trackindex>1</trackindex>
								</sourcetrack>
								<link>
									<linkclipref>ArmA 3 2020.11.14 - 21.28.34.63.mp4805307706</linkclipref>
								</link>
								<link>
									<linkclipref>ArmA 3 2020.11.14 - 21.28.34.63.mp4536872251</linkclipref>
								</link>
								<link>
									<linkclipref>ArmA 3 2020.11.14 - 21.28.34.63.mp45368722511</linkclipref>
								</link>
								<link>
									<linkclipref>ArmA 3 2020.11.14 - 21.28.34.63.mp4536872252</linkclipref>
								</link>
								<link>
									<linkclipref>ArmA 3 2020.11.14 - 21.28.34.63.mp45368722521</linkclipref>
								</link>
							</clipitem>
							<clipitem id="ArmA 3 2020.11.14 - 21.29.57.64.mp4536872255">
								<name>ArmA 3 2020.11.14 - 21.29.57.64.mp4</name>
								<duration>3146</duration>
								<rate>
									<ntsc>TRUE</ntsc>
									<timebase>24</timebase>
								</rate>
								<in>0</in>
								<out>3146</out>
								<start>38565</start>
								<end>41711</end>
								<enabled>FALSE</enabled>
								<masterclipid>ArmA 3 2020.11.14 - 21.29.57.64.mp4</masterclipid>
								<logginginfo>
									<scene />
									<shottake />
									<lognote />
									<good>FALSE</good>
								</logginginfo>
								<labels>
									<label2 />
								</labels>
								<comments>
									<mastercomment1 />
									<mastercomment2 />
									<mastercomment3 />
									<mastercomment4 />
								</comments>
								<file id="ArmA 3 2020.11.14 - 21.29.57.64" />
								<filter>
									<effect>
										<name>Audio Levels</name>
										<effectid>audiolevels</effectid>
										<effectcategory>audiolevels</effectcategory>
										<effecttype>audiolevels</effecttype>
										<mediatype>audio</mediatype>
										<parameter>
											<name>Level</name>
											<parameterid>level</parameterid>
											<valuemin>0</valuemin>
											<valuemax>3,98109</valuemax>
											<value>1</value>
										</parameter>
									</effect>
								</filter>
								<filter>
									<effect>
										<name>Audio Pan</name>
										<effectid>audiopan</effectid>
										<effectcategory>audiopan</effectcategory>
										<effecttype>audiopan</effecttype>
										<mediatype>audio</mediatype>
										<parameter>
											<name>Pan</name>
											<parameterid>pan</parameterid>
											<valuemin>-1</valuemin>
											<valuemax>1</valuemax>
											<value>-1</value>
										</parameter>
									</effect>
								</filter>
								<sourcetrack>
									<mediatype>audio</mediatype>
									<trackindex>1</trackindex>
								</sourcetrack>
								<link>
									<linkclipref>ArmA 3 2020.11.14 - 21.29.57.64.mp4805307709</linkclipref>
								</link>
								<link>
									<linkclipref>ArmA 3 2020.11.14 - 21.29.57.64.mp4536872254</linkclipref>
								</link>
								<link>
									<linkclipref>ArmA 3 2020.11.14 - 21.29.57.64.mp45368722541</linkclipref>
								</link>
								<link>
									<linkclipref>ArmA 3 2020.11.14 - 21.29.57.64.mp4536872255</linkclipref>
								</link>
								<link>
									<linkclipref>ArmA 3 2020.11.14 - 21.29.57.64.mp45368722551</linkclipref>
								</link>
							</clipitem>
							<clipitem id="ArmA 3 2020.11.14 - 21.32.55.65.mp4536872258">
								<name>ArmA 3 2020.11.14 - 21.32.55.65.mp4</name>
								<duration>662</duration>
								<rate>
									<ntsc>TRUE</ntsc>
									<timebase>24</timebase>
								</rate>
								<in>0</in>
								<out>662</out>
								<start>41712</start>
								<end>42374</end>
								<enabled>FALSE</enabled>
								<masterclipid>ArmA 3 2020.11.14 - 21.32.55.65.mp4</masterclipid>
								<logginginfo>
									<scene />
									<shottake />
									<lognote />
									<good>FALSE</good>
								</logginginfo>
								<labels>
									<label2 />
								</labels>
								<comments>
									<mastercomment1 />
									<mastercomment2 />
									<mastercomment3 />
									<mastercomment4 />
								</comments>
								<file id="ArmA 3 2020.11.14 - 21.32.55.65" />
								<filter>
									<effect>
										<name>Audio Levels</name>
										<effectid>audiolevels</effectid>
										<effectcategory>audiolevels</effectcategory>
										<effecttype>audiolevels</effecttype>
										<mediatype>audio</mediatype>
										<parameter>
											<name>Level</name>
											<parameterid>level</parameterid>
											<valuemin>0</valuemin>
											<valuemax>3,98109</valuemax>
											<value>1</value>
										</parameter>
									</effect>
								</filter>
								<filter>
									<effect>
										<name>Audio Pan</name>
										<effectid>audiopan</effectid>
										<effectcategory>audiopan</effectcategory>
										<effecttype>audiopan</effecttype>
										<mediatype>audio</mediatype>
										<parameter>
											<name>Pan</name>
											<parameterid>pan</parameterid>
											<valuemin>-1</valuemin>
											<valuemax>1</valuemax>
											<value>-1</value>
										</parameter>
									</effect>
								</filter>
								<sourcetrack>
									<mediatype>audio</mediatype>
									<trackindex>1</trackindex>
								</sourcetrack>
								<link>
									<linkclipref>ArmA 3 2020.11.14 - 21.32.55.65.mp4805307712</linkclipref>
								</link>
								<link>
									<linkclipref>ArmA 3 2020.11.14 - 21.32.55.65.mp4536872257</linkclipref>
								</link>
								<link>
									<linkclipref>ArmA 3 2020.11.14 - 21.32.55.65.mp45368722571</linkclipref>
								</link>
								<link>
									<linkclipref>ArmA 3 2020.11.14 - 21.32.55.65.mp4536872258</linkclipref>
								</link>
								<link>
									<linkclipref>ArmA 3 2020.11.14 - 21.32.55.65.mp45368722581</linkclipref>
								</link>
							</clipitem>
							<clipitem id="ArmA 3 2020.11.14 - 21.33.51.66.mp4536872261">
								<name>ArmA 3 2020.11.14 - 21.33.51.66.mp4</name>
								<duration>1169</duration>
								<rate>
									<ntsc>TRUE</ntsc>
									<timebase>24</timebase>
								</rate>
								<in>0</in>
								<out>1169</out>
								<start>42375</start>
								<end>43544</end>
								<enabled>FALSE</enabled>
								<masterclipid>ArmA 3 2020.11.14 - 21.33.51.66.mp4</masterclipid>
								<logginginfo>
									<scene />
									<shottake />
									<lognote />
									<good>FALSE</good>
								</logginginfo>
								<labels>
									<label2 />
								</labels>
								<comments>
									<mastercomment1 />
									<mastercomment2 />
									<mastercomment3 />
									<mastercomment4 />
								</comments>
								<file id="ArmA 3 2020.11.14 - 21.33.51.66" />
								<filter>
									<effect>
										<name>Audio Levels</name>
										<effectid>audiolevels</effectid>
										<effectcategory>audiolevels</effectcategory>
										<effecttype>audiolevels</effecttype>
										<mediatype>audio</mediatype>
										<parameter>
											<name>Level</name>
											<parameterid>level</parameterid>
											<valuemin>0</valuemin>
											<valuemax>3,98109</valuemax>
											<value>1</value>
										</parameter>
									</effect>
								</filter>
								<filter>
									<effect>
										<name>Audio Pan</name>
										<effectid>audiopan</effectid>
										<effectcategory>audiopan</effectcategory>
										<effecttype>audiopan</effecttype>
										<mediatype>audio</mediatype>
										<parameter>
											<name>Pan</name>
											<parameterid>pan</parameterid>
											<valuemin>-1</valuemin>
											<valuemax>1</valuemax>
											<value>-1</value>
										</parameter>
									</effect>
								</filter>
								<sourcetrack>
									<mediatype>audio</mediatype>
									<trackindex>1</trackindex>
								</sourcetrack>
								<link>
									<linkclipref>ArmA 3 2020.11.14 - 21.33.51.66.mp4805307715</linkclipref>
								</link>
								<link>
									<linkclipref>ArmA 3 2020.11.14 - 21.33.51.66.mp4536872260</linkclipref>
								</link>
								<link>
									<linkclipref>ArmA 3 2020.11.14 - 21.33.51.66.mp45368722601</linkclipref>
								</link>
								<link>
									<linkclipref>ArmA 3 2020.11.14 - 21.33.51.66.mp4536872261</linkclipref>
								</link>
								<link>
									<linkclipref>ArmA 3 2020.11.14 - 21.33.51.66.mp45368722611</linkclipref>
								</link>
							</clipitem>
							<clipitem id="ArmA 3 2020.11.14 - 21.34.50.67.mp4536872264">
								<name>ArmA 3 2020.11.14 - 21.34.50.67.mp4</name>
								<duration>711</duration>
								<rate>
									<ntsc>TRUE</ntsc>
									<timebase>24</timebase>
								</rate>
								<in>0</in>
								<out>711</out>
								<start>43545</start>
								<end>44256</end>
								<enabled>FALSE</enabled>
								<masterclipid>ArmA 3 2020.11.14 - 21.34.50.67.mp4</masterclipid>
								<logginginfo>
									<scene />
									<shottake />
									<lognote />
									<good>FALSE</good>
								</logginginfo>
								<labels>
									<label2 />
								</labels>
								<comments>
									<mastercomment1 />
									<mastercomment2 />
									<mastercomment3 />
									<mastercomment4 />
								</comments>
								<file id="ArmA 3 2020.11.14 - 21.34.50.67" />
								<filter>
									<effect>
										<name>Audio Levels</name>
										<effectid>audiolevels</effectid>
										<effectcategory>audiolevels</effectcategory>
										<effecttype>audiolevels</effecttype>
										<mediatype>audio</mediatype>
										<parameter>
											<name>Level</name>
											<parameterid>level</parameterid>
											<valuemin>0</valuemin>
											<valuemax>3,98109</valuemax>
											<value>1</value>
										</parameter>
									</effect>
								</filter>
								<filter>
									<effect>
										<name>Audio Pan</name>
										<effectid>audiopan</effectid>
										<effectcategory>audiopan</effectcategory>
										<effecttype>audiopan</effecttype>
										<mediatype>audio</mediatype>
										<parameter>
											<name>Pan</name>
											<parameterid>pan</parameterid>
											<valuemin>-1</valuemin>
											<valuemax>1</valuemax>
											<value>-1</value>
										</parameter>
									</effect>
								</filter>
								<sourcetrack>
									<mediatype>audio</mediatype>
									<trackindex>1</trackindex>
								</sourcetrack>
								<link>
									<linkclipref>ArmA 3 2020.11.14 - 21.34.50.67.mp4805307718</linkclipref>
								</link>
								<link>
									<linkclipref>ArmA 3 2020.11.14 - 21.34.50.67.mp4536872263</linkclipref>
								</link>
								<link>
									<linkclipref>ArmA 3 2020.11.14 - 21.34.50.67.mp45368722631</linkclipref>
								</link>
								<link>
									<linkclipref>ArmA 3 2020.11.14 - 21.34.50.67.mp4536872264</linkclipref>
								</link>
								<link>
									<linkclipref>ArmA 3 2020.11.14 - 21.34.50.67.mp45368722641</linkclipref>
								</link>
							</clipitem>
							<clipitem id="ArmA 3 2020.11.14 - 21.36.53.68.mp4536872267">
								<name>ArmA 3 2020.11.14 - 21.36.53.68.mp4</name>
								<duration>209</duration>
								<rate>
									<ntsc>TRUE</ntsc>
									<timebase>24</timebase>
								</rate>
								<in>0</in>
								<out>209</out>
								<start>44257</start>
								<end>44466</end>
								<enabled>FALSE</enabled>
								<masterclipid>ArmA 3 2020.11.14 - 21.36.53.68.mp4</masterclipid>
								<logginginfo>
									<scene />
									<shottake />
									<lognote />
									<good>FALSE</good>
								</logginginfo>
								<labels>
									<label2 />
								</labels>
								<comments>
									<mastercomment1 />
									<mastercomment2 />
									<mastercomment3 />
									<mastercomment4 />
								</comments>
								<file id="ArmA 3 2020.11.14 - 21.36.53.68" />
								<filter>
									<effect>
										<name>Audio Levels</name>
										<effectid>audiolevels</effectid>
										<effectcategory>audiolevels</effectcategory>
										<effecttype>audiolevels</effecttype>
										<mediatype>audio</mediatype>
										<parameter>
											<name>Level</name>
											<parameterid>level</parameterid>
											<valuemin>0</valuemin>
											<valuemax>3,98109</valuemax>
											<value>1</value>
										</parameter>
									</effect>
								</filter>
								<filter>
									<effect>
										<name>Audio Pan</name>
										<effectid>audiopan</effectid>
										<effectcategory>audiopan</effectcategory>
										<effecttype>audiopan</effecttype>
										<mediatype>audio</mediatype>
										<parameter>
											<name>Pan</name>
											<parameterid>pan</parameterid>
											<valuemin>-1</valuemin>
											<valuemax>1</valuemax>
											<value>-1</value>
										</parameter>
									</effect>
								</filter>
								<sourcetrack>
									<mediatype>audio</mediatype>
									<trackindex>1</trackindex>
								</sourcetrack>
								<link>
									<linkclipref>ArmA 3 2020.11.14 - 21.36.53.68.mp4805307721</linkclipref>
								</link>
								<link>
									<linkclipref>ArmA 3 2020.11.14 - 21.36.53.68.mp4536872266</linkclipref>
								</link>
								<link>
									<linkclipref>ArmA 3 2020.11.14 - 21.36.53.68.mp45368722661</linkclipref>
								</link>
								<link>
									<linkclipref>ArmA 3 2020.11.14 - 21.36.53.68.mp4536872267</linkclipref>
								</link>
								<link>
									<linkclipref>ArmA 3 2020.11.14 - 21.36.53.68.mp45368722671</linkclipref>
								</link>
							</clipitem>
							<clipitem id="ArmA 3 2020.11.14 - 21.37.06.69.mp4536872270">
								<name>ArmA 3 2020.11.14 - 21.37.06.69.mp4</name>
								<duration>242</duration>
								<rate>
									<ntsc>TRUE</ntsc>
									<timebase>24</timebase>
								</rate>
								<in>0</in>
								<out>242</out>
								<start>44467</start>
								<end>44709</end>
								<enabled>FALSE</enabled>
								<masterclipid>ArmA 3 2020.11.14 - 21.37.06.69.mp4</masterclipid>
								<logginginfo>
									<scene />
									<shottake />
									<lognote />
									<good>FALSE</good>
								</logginginfo>
								<labels>
									<label2 />
								</labels>
								<comments>
									<mastercomment1 />
									<mastercomment2 />
									<mastercomment3 />
									<mastercomment4 />
								</comments>
								<file id="ArmA 3 2020.11.14 - 21.37.06.69" />
								<filter>
									<effect>
										<name>Audio Levels</name>
										<effectid>audiolevels</effectid>
										<effectcategory>audiolevels</effectcategory>
										<effecttype>audiolevels</effecttype>
										<mediatype>audio</mediatype>
										<parameter>
											<name>Level</name>
											<parameterid>level</parameterid>
											<valuemin>0</valuemin>
											<valuemax>3,98109</valuemax>
											<value>1</value>
										</parameter>
									</effect>
								</filter>
								<filter>
									<effect>
										<name>Audio Pan</name>
										<effectid>audiopan</effectid>
										<effectcategory>audiopan</effectcategory>
										<effecttype>audiopan</effecttype>
										<mediatype>audio</mediatype>
										<parameter>
											<name>Pan</name>
											<parameterid>pan</parameterid>
											<valuemin>-1</valuemin>
											<valuemax>1</valuemax>
											<value>-1</value>
										</parameter>
									</effect>
								</filter>
								<sourcetrack>
									<mediatype>audio</mediatype>
									<trackindex>1</trackindex>
								</sourcetrack>
								<link>
									<linkclipref>ArmA 3 2020.11.14 - 21.37.06.69.mp4805307724</linkclipref>
								</link>
								<link>
									<linkclipref>ArmA 3 2020.11.14 - 21.37.06.69.mp4536872269</linkclipref>
								</link>
								<link>
									<linkclipref>ArmA 3 2020.11.14 - 21.37.06.69.mp45368722691</linkclipref>
								</link>
								<link>
									<linkclipref>ArmA 3 2020.11.14 - 21.37.06.69.mp4536872270</linkclipref>
								</link>
								<link>
									<linkclipref>ArmA 3 2020.11.14 - 21.37.06.69.mp45368722701</linkclipref>
								</link>
							</clipitem>
							<clipitem id="ArmA 3 2020.11.14 - 21.37.32.70.mp4536872273">
								<name>ArmA 3 2020.11.14 - 21.37.32.70.mp4</name>
								<duration>816</duration>
								<rate>
									<ntsc>TRUE</ntsc>
									<timebase>24</timebase>
								</rate>
								<in>0</in>
								<out>816</out>
								<start>44710</start>
								<end>45526</end>
								<enabled>FALSE</enabled>
								<masterclipid>ArmA 3 2020.11.14 - 21.37.32.70.mp4</masterclipid>
								<logginginfo>
									<scene />
									<shottake />
									<lognote />
									<good>FALSE</good>
								</logginginfo>
								<labels>
									<label2 />
								</labels>
								<comments>
									<mastercomment1 />
									<mastercomment2 />
									<mastercomment3 />
									<mastercomment4 />
								</comments>
								<file id="ArmA 3 2020.11.14 - 21.37.32.70" />
								<filter>
									<effect>
										<name>Audio Levels</name>
										<effectid>audiolevels</effectid>
										<effectcategory>audiolevels</effectcategory>
										<effecttype>audiolevels</effecttype>
										<mediatype>audio</mediatype>
										<parameter>
											<name>Level</name>
											<parameterid>level</parameterid>
											<valuemin>0</valuemin>
											<valuemax>3,98109</valuemax>
											<value>1</value>
										</parameter>
									</effect>
								</filter>
								<filter>
									<effect>
										<name>Audio Pan</name>
										<effectid>audiopan</effectid>
										<effectcategory>audiopan</effectcategory>
										<effecttype>audiopan</effecttype>
										<mediatype>audio</mediatype>
										<parameter>
											<name>Pan</name>
											<parameterid>pan</parameterid>
											<valuemin>-1</valuemin>
											<valuemax>1</valuemax>
											<value>-1</value>
										</parameter>
									</effect>
								</filter>
								<sourcetrack>
									<mediatype>audio</mediatype>
									<trackindex>1</trackindex>
								</sourcetrack>
								<link>
									<linkclipref>ArmA 3 2020.11.14 - 21.37.32.70.mp4805307727</linkclipref>
								</link>
								<link>
									<linkclipref>ArmA 3 2020.11.14 - 21.37.32.70.mp4536872272</linkclipref>
								</link>
								<link>
									<linkclipref>ArmA 3 2020.11.14 - 21.37.32.70.mp45368722721</linkclipref>
								</link>
								<link>
									<linkclipref>ArmA 3 2020.11.14 - 21.37.32.70.mp4536872273</linkclipref>
								</link>
								<link>
									<linkclipref>ArmA 3 2020.11.14 - 21.37.32.70.mp45368722731</linkclipref>
								</link>
							</clipitem>
							<clipitem id="ArmA 3 2020.11.14 - 21.38.41.71.mp4536872276">
								<name>ArmA 3 2020.11.14 - 21.38.41.71.mp4</name>
								<duration>191</duration>
								<rate>
									<ntsc>TRUE</ntsc>
									<timebase>24</timebase>
								</rate>
								<in>0</in>
								<out>191</out>
								<start>45527</start>
								<end>45718</end>
								<enabled>FALSE</enabled>
								<masterclipid>ArmA 3 2020.11.14 - 21.38.41.71.mp4</masterclipid>
								<logginginfo>
									<scene />
									<shottake />
									<lognote />
									<good>FALSE</good>
								</logginginfo>
								<labels>
									<label2 />
								</labels>
								<comments>
									<mastercomment1 />
									<mastercomment2 />
									<mastercomment3 />
									<mastercomment4 />
								</comments>
								<file id="ArmA 3 2020.11.14 - 21.38.41.71" />
								<filter>
									<effect>
										<name>Audio Levels</name>
										<effectid>audiolevels</effectid>
										<effectcategory>audiolevels</effectcategory>
										<effecttype>audiolevels</effecttype>
										<mediatype>audio</mediatype>
										<parameter>
											<name>Level</name>
											<parameterid>level</parameterid>
											<valuemin>0</valuemin>
											<valuemax>3,98109</valuemax>
											<value>1</value>
										</parameter>
									</effect>
								</filter>
								<filter>
									<effect>
										<name>Audio Pan</name>
										<effectid>audiopan</effectid>
										<effectcategory>audiopan</effectcategory>
										<effecttype>audiopan</effecttype>
										<mediatype>audio</mediatype>
										<parameter>
											<name>Pan</name>
											<parameterid>pan</parameterid>
											<valuemin>-1</valuemin>
											<valuemax>1</valuemax>
											<value>-1</value>
										</parameter>
									</effect>
								</filter>
								<sourcetrack>
									<mediatype>audio</mediatype>
									<trackindex>1</trackindex>
								</sourcetrack>
								<link>
									<linkclipref>ArmA 3 2020.11.14 - 21.38.41.71.mp4805307730</linkclipref>
								</link>
								<link>
									<linkclipref>ArmA 3 2020.11.14 - 21.38.41.71.mp4536872275</linkclipref>
								</link>
								<link>
									<linkclipref>ArmA 3 2020.11.14 - 21.38.41.71.mp45368722751</linkclipref>
								</link>
								<link>
									<linkclipref>ArmA 3 2020.11.14 - 21.38.41.71.mp4536872276</linkclipref>
								</link>
								<link>
									<linkclipref>ArmA 3 2020.11.14 - 21.38.41.71.mp45368722761</linkclipref>
								</link>
							</clipitem>
							<clipitem id="ArmA 3 2020.11.14 - 21.38.56.72.mp4536872279">
								<name>ArmA 3 2020.11.14 - 21.38.56.72.mp4</name>
								<duration>110</duration>
								<rate>
									<ntsc>TRUE</ntsc>
									<timebase>24</timebase>
								</rate>
								<in>0</in>
								<out>110</out>
								<start>45719</start>
								<end>45829</end>
								<enabled>FALSE</enabled>
								<masterclipid>ArmA 3 2020.11.14 - 21.38.56.72.mp4</masterclipid>
								<logginginfo>
									<scene />
									<shottake />
									<lognote />
									<good>FALSE</good>
								</logginginfo>
								<labels>
									<label2 />
								</labels>
								<comments>
									<mastercomment1 />
									<mastercomment2 />
									<mastercomment3 />
									<mastercomment4 />
								</comments>
								<file id="ArmA 3 2020.11.14 - 21.38.56.72" />
								<filter>
									<effect>
										<name>Audio Levels</name>
										<effectid>audiolevels</effectid>
										<effectcategory>audiolevels</effectcategory>
										<effecttype>audiolevels</effecttype>
										<mediatype>audio</mediatype>
										<parameter>
											<name>Level</name>
											<parameterid>level</parameterid>
											<valuemin>0</valuemin>
											<valuemax>3,98109</valuemax>
											<value>1</value>
										</parameter>
									</effect>
								</filter>
								<filter>
									<effect>
										<name>Audio Pan</name>
										<effectid>audiopan</effectid>
										<effectcategory>audiopan</effectcategory>
										<effecttype>audiopan</effecttype>
										<mediatype>audio</mediatype>
										<parameter>
											<name>Pan</name>
											<parameterid>pan</parameterid>
											<valuemin>-1</valuemin>
											<valuemax>1</valuemax>
											<value>-1</value>
										</parameter>
									</effect>
								</filter>
								<sourcetrack>
									<mediatype>audio</mediatype>
									<trackindex>1</trackindex>
								</sourcetrack>
								<link>
									<linkclipref>ArmA 3 2020.11.14 - 21.38.56.72.mp4805307733</linkclipref>
								</link>
								<link>
									<linkclipref>ArmA 3 2020.11.14 - 21.38.56.72.mp4536872278</linkclipref>
								</link>
								<link>
									<linkclipref>ArmA 3 2020.11.14 - 21.38.56.72.mp45368722781</linkclipref>
								</link>
								<link>
									<linkclipref>ArmA 3 2020.11.14 - 21.38.56.72.mp4536872279</linkclipref>
								</link>
								<link>
									<linkclipref>ArmA 3 2020.11.14 - 21.38.56.72.mp45368722791</linkclipref>
								</link>
							</clipitem>
							<clipitem id="ArmA 3 2020.11.14 - 21.43.48.73.mp4536872282">
								<name>ArmA 3 2020.11.14 - 21.43.48.73.mp4</name>
								<duration>955</duration>
								<rate>
									<ntsc>TRUE</ntsc>
									<timebase>24</timebase>
								</rate>
								<in>0</in>
								<out>955</out>
								<start>45830</start>
								<end>46785</end>
								<enabled>FALSE</enabled>
								<masterclipid>ArmA 3 2020.11.14 - 21.43.48.73.mp4</masterclipid>
								<logginginfo>
									<scene />
									<shottake />
									<lognote />
									<good>FALSE</good>
								</logginginfo>
								<labels>
									<label2 />
								</labels>
								<comments>
									<mastercomment1 />
									<mastercomment2 />
									<mastercomment3 />
									<mastercomment4 />
								</comments>
								<file id="ArmA 3 2020.11.14 - 21.43.48.73" />
								<filter>
									<effect>
										<name>Audio Levels</name>
										<effectid>audiolevels</effectid>
										<effectcategory>audiolevels</effectcategory>
										<effecttype>audiolevels</effecttype>
										<mediatype>audio</mediatype>
										<parameter>
											<name>Level</name>
											<parameterid>level</parameterid>
											<valuemin>0</valuemin>
											<valuemax>3,98109</valuemax>
											<value>1</value>
										</parameter>
									</effect>
								</filter>
								<filter>
									<effect>
										<name>Audio Pan</name>
										<effectid>audiopan</effectid>
										<effectcategory>audiopan</effectcategory>
										<effecttype>audiopan</effecttype>
										<mediatype>audio</mediatype>
										<parameter>
											<name>Pan</name>
											<parameterid>pan</parameterid>
											<valuemin>-1</valuemin>
											<valuemax>1</valuemax>
											<value>-1</value>
										</parameter>
									</effect>
								</filter>
								<sourcetrack>
									<mediatype>audio</mediatype>
									<trackindex>1</trackindex>
								</sourcetrack>
								<link>
									<linkclipref>ArmA 3 2020.11.14 - 21.43.48.73.mp4805307736</linkclipref>
								</link>
								<link>
									<linkclipref>ArmA 3 2020.11.14 - 21.43.48.73.mp4536872281</linkclipref>
								</link>
								<link>
									<linkclipref>ArmA 3 2020.11.14 - 21.43.48.73.mp45368722811</linkclipref>
								</link>
								<link>
									<linkclipref>ArmA 3 2020.11.14 - 21.43.48.73.mp4536872282</linkclipref>
								</link>
								<link>
									<linkclipref>ArmA 3 2020.11.14 - 21.43.48.73.mp45368722821</linkclipref>
								</link>
							</clipitem>
							<clipitem id="ArmA 3 2020.11.14 - 21.48.32.74.mp4536872285">
								<name>ArmA 3 2020.11.14 - 21.48.32.74.mp4</name>
								<duration>614</duration>
								<rate>
									<ntsc>TRUE</ntsc>
									<timebase>24</timebase>
								</rate>
								<in>0</in>
								<out>614</out>
								<start>46786</start>
								<end>47400</end>
								<enabled>FALSE</enabled>
								<masterclipid>ArmA 3 2020.11.14 - 21.48.32.74.mp4</masterclipid>
								<logginginfo>
									<scene />
									<shottake />
									<lognote />
									<good>FALSE</good>
								</logginginfo>
								<labels>
									<label2 />
								</labels>
								<comments>
									<mastercomment1 />
									<mastercomment2 />
									<mastercomment3 />
									<mastercomment4 />
								</comments>
								<file id="ArmA 3 2020.11.14 - 21.48.32.74" />
								<filter>
									<effect>
										<name>Audio Levels</name>
										<effectid>audiolevels</effectid>
										<effectcategory>audiolevels</effectcategory>
										<effecttype>audiolevels</effecttype>
										<mediatype>audio</mediatype>
										<parameter>
											<name>Level</name>
											<parameterid>level</parameterid>
											<valuemin>0</valuemin>
											<valuemax>3,98109</valuemax>
											<value>1</value>
										</parameter>
									</effect>
								</filter>
								<filter>
									<effect>
										<name>Audio Pan</name>
										<effectid>audiopan</effectid>
										<effectcategory>audiopan</effectcategory>
										<effecttype>audiopan</effecttype>
										<mediatype>audio</mediatype>
										<parameter>
											<name>Pan</name>
											<parameterid>pan</parameterid>
											<valuemin>-1</valuemin>
											<valuemax>1</valuemax>
											<value>-1</value>
										</parameter>
									</effect>
								</filter>
								<sourcetrack>
									<mediatype>audio</mediatype>
									<trackindex>1</trackindex>
								</sourcetrack>
								<link>
									<linkclipref>ArmA 3 2020.11.14 - 21.48.32.74.mp4805307739</linkclipref>
								</link>
								<link>
									<linkclipref>ArmA 3 2020.11.14 - 21.48.32.74.mp4536872284</linkclipref>
								</link>
								<link>
									<linkclipref>ArmA 3 2020.11.14 - 21.48.32.74.mp45368722841</linkclipref>
								</link>
								<link>
									<linkclipref>ArmA 3 2020.11.14 - 21.48.32.74.mp4536872285</linkclipref>
								</link>
								<link>
									<linkclipref>ArmA 3 2020.11.14 - 21.48.32.74.mp45368722851</linkclipref>
								</link>
							</clipitem>
							<clipitem id="ArmA 3 2020.11.14 - 21.51.33.75.mp4536872288">
								<name>ArmA 3 2020.11.14 - 21.51.33.75.mp4</name>
								<duration>821</duration>
								<rate>
									<ntsc>TRUE</ntsc>
									<timebase>24</timebase>
								</rate>
								<in>0</in>
								<out>821</out>
								<start>47401</start>
								<end>48222</end>
								<enabled>FALSE</enabled>
								<masterclipid>ArmA 3 2020.11.14 - 21.51.33.75.mp4</masterclipid>
								<logginginfo>
									<scene />
									<shottake />
									<lognote />
									<good>FALSE</good>
								</logginginfo>
								<labels>
									<label2 />
								</labels>
								<comments>
									<mastercomment1 />
									<mastercomment2 />
									<mastercomment3 />
									<mastercomment4 />
								</comments>
								<file id="ArmA 3 2020.11.14 - 21.51.33.75" />
								<filter>
									<effect>
										<name>Audio Levels</name>
										<effectid>audiolevels</effectid>
										<effectcategory>audiolevels</effectcategory>
										<effecttype>audiolevels</effecttype>
										<mediatype>audio</mediatype>
										<parameter>
											<name>Level</name>
											<parameterid>level</parameterid>
											<valuemin>0</valuemin>
											<valuemax>3,98109</valuemax>
											<value>1</value>
										</parameter>
									</effect>
								</filter>
								<filter>
									<effect>
										<name>Audio Pan</name>
										<effectid>audiopan</effectid>
										<effectcategory>audiopan</effectcategory>
										<effecttype>audiopan</effecttype>
										<mediatype>audio</mediatype>
										<parameter>
											<name>Pan</name>
											<parameterid>pan</parameterid>
											<valuemin>-1</valuemin>
											<valuemax>1</valuemax>
											<value>-1</value>
										</parameter>
									</effect>
								</filter>
								<sourcetrack>
									<mediatype>audio</mediatype>
									<trackindex>1</trackindex>
								</sourcetrack>
								<link>
									<linkclipref>ArmA 3 2020.11.14 - 21.51.33.75.mp4805307742</linkclipref>
								</link>
								<link>
									<linkclipref>ArmA 3 2020.11.14 - 21.51.33.75.mp4536872287</linkclipref>
								</link>
								<link>
									<linkclipref>ArmA 3 2020.11.14 - 21.51.33.75.mp45368722871</linkclipref>
								</link>
								<link>
									<linkclipref>ArmA 3 2020.11.14 - 21.51.33.75.mp4536872288</linkclipref>
								</link>
								<link>
									<linkclipref>ArmA 3 2020.11.14 - 21.51.33.75.mp45368722881</linkclipref>
								</link>
							</clipitem>
							<clipitem id="ArmA 3 2020.11.14 - 21.52.58.76.mp4536872291">
								<name>ArmA 3 2020.11.14 - 21.52.58.76.mp4</name>
								<duration>836</duration>
								<rate>
									<ntsc>TRUE</ntsc>
									<timebase>24</timebase>
								</rate>
								<in>0</in>
								<out>836</out>
								<start>48223</start>
								<end>49059</end>
								<enabled>FALSE</enabled>
								<masterclipid>ArmA 3 2020.11.14 - 21.52.58.76.mp4</masterclipid>
								<logginginfo>
									<scene />
									<shottake />
									<lognote />
									<good>FALSE</good>
								</logginginfo>
								<labels>
									<label2 />
								</labels>
								<comments>
									<mastercomment1 />
									<mastercomment2 />
									<mastercomment3 />
									<mastercomment4 />
								</comments>
								<file id="ArmA 3 2020.11.14 - 21.52.58.76" />
								<filter>
									<effect>
										<name>Audio Levels</name>
										<effectid>audiolevels</effectid>
										<effectcategory>audiolevels</effectcategory>
										<effecttype>audiolevels</effecttype>
										<mediatype>audio</mediatype>
										<parameter>
											<name>Level</name>
											<parameterid>level</parameterid>
											<valuemin>0</valuemin>
											<valuemax>3,98109</valuemax>
											<value>1</value>
										</parameter>
									</effect>
								</filter>
								<filter>
									<effect>
										<name>Audio Pan</name>
										<effectid>audiopan</effectid>
										<effectcategory>audiopan</effectcategory>
										<effecttype>audiopan</effecttype>
										<mediatype>audio</mediatype>
										<parameter>
											<name>Pan</name>
											<parameterid>pan</parameterid>
											<valuemin>-1</valuemin>
											<valuemax>1</valuemax>
											<value>-1</value>
										</parameter>
									</effect>
								</filter>
								<sourcetrack>
									<mediatype>audio</mediatype>
									<trackindex>1</trackindex>
								</sourcetrack>
								<link>
									<linkclipref>ArmA 3 2020.11.14 - 21.52.58.76.mp4805307745</linkclipref>
								</link>
								<link>
									<linkclipref>ArmA 3 2020.11.14 - 21.52.58.76.mp4536872290</linkclipref>
								</link>
								<link>
									<linkclipref>ArmA 3 2020.11.14 - 21.52.58.76.mp45368722901</linkclipref>
								</link>
								<link>
									<linkclipref>ArmA 3 2020.11.14 - 21.52.58.76.mp4536872291</linkclipref>
								</link>
								<link>
									<linkclipref>ArmA 3 2020.11.14 - 21.52.58.76.mp45368722911</linkclipref>
								</link>
							</clipitem>
							<clipitem id="ArmA 3 2020.11.14 - 21.54.08.77.mp4536872294">
								<name>ArmA 3 2020.11.14 - 21.54.08.77.mp4</name>
								<duration>1393</duration>
								<rate>
									<ntsc>TRUE</ntsc>
									<timebase>24</timebase>
								</rate>
								<in>0</in>
								<out>1393</out>
								<start>49060</start>
								<end>50453</end>
								<enabled>FALSE</enabled>
								<masterclipid>ArmA 3 2020.11.14 - 21.54.08.77.mp4</masterclipid>
								<logginginfo>
									<scene />
									<shottake />
									<lognote />
									<good>FALSE</good>
								</logginginfo>
								<labels>
									<label2 />
								</labels>
								<comments>
									<mastercomment1 />
									<mastercomment2 />
									<mastercomment3 />
									<mastercomment4 />
								</comments>
								<file id="ArmA 3 2020.11.14 - 21.54.08.77" />
								<filter>
									<effect>
										<name>Audio Levels</name>
										<effectid>audiolevels</effectid>
										<effectcategory>audiolevels</effectcategory>
										<effecttype>audiolevels</effecttype>
										<mediatype>audio</mediatype>
										<parameter>
											<name>Level</name>
											<parameterid>level</parameterid>
											<valuemin>0</valuemin>
											<valuemax>3,98109</valuemax>
											<value>1</value>
										</parameter>
									</effect>
								</filter>
								<filter>
									<effect>
										<name>Audio Pan</name>
										<effectid>audiopan</effectid>
										<effectcategory>audiopan</effectcategory>
										<effecttype>audiopan</effecttype>
										<mediatype>audio</mediatype>
										<parameter>
											<name>Pan</name>
											<parameterid>pan</parameterid>
											<valuemin>-1</valuemin>
											<valuemax>1</valuemax>
											<value>-1</value>
										</parameter>
									</effect>
								</filter>
								<sourcetrack>
									<mediatype>audio</mediatype>
									<trackindex>1</trackindex>
								</sourcetrack>
								<link>
									<linkclipref>ArmA 3 2020.11.14 - 21.54.08.77.mp4805307748</linkclipref>
								</link>
								<link>
									<linkclipref>ArmA 3 2020.11.14 - 21.54.08.77.mp4536872293</linkclipref>
								</link>
								<link>
									<linkclipref>ArmA 3 2020.11.14 - 21.54.08.77.mp45368722931</linkclipref>
								</link>
								<link>
									<linkclipref>ArmA 3 2020.11.14 - 21.54.08.77.mp4536872294</linkclipref>
								</link>
								<link>
									<linkclipref>ArmA 3 2020.11.14 - 21.54.08.77.mp45368722941</linkclipref>
								</link>
							</clipitem>
							<clipitem id="ArmA 3 2020.11.14 - 21.55.34.78.mp4536872297">
								<name>ArmA 3 2020.11.14 - 21.55.34.78.mp4</name>
								<duration>841</duration>
								<rate>
									<ntsc>TRUE</ntsc>
									<timebase>24</timebase>
								</rate>
								<in>0</in>
								<out>841</out>
								<start>50454</start>
								<end>51295</end>
								<enabled>FALSE</enabled>
								<masterclipid>ArmA 3 2020.11.14 - 21.55.34.78.mp4</masterclipid>
								<logginginfo>
									<scene />
									<shottake />
									<lognote />
									<good>FALSE</good>
								</logginginfo>
								<labels>
									<label2 />
								</labels>
								<comments>
									<mastercomment1 />
									<mastercomment2 />
									<mastercomment3 />
									<mastercomment4 />
								</comments>
								<file id="ArmA 3 2020.11.14 - 21.55.34.78" />
								<filter>
									<effect>
										<name>Audio Levels</name>
										<effectid>audiolevels</effectid>
										<effectcategory>audiolevels</effectcategory>
										<effecttype>audiolevels</effecttype>
										<mediatype>audio</mediatype>
										<parameter>
											<name>Level</name>
											<parameterid>level</parameterid>
											<valuemin>0</valuemin>
											<valuemax>3,98109</valuemax>
											<value>1</value>
										</parameter>
									</effect>
								</filter>
								<filter>
									<effect>
										<name>Audio Pan</name>
										<effectid>audiopan</effectid>
										<effectcategory>audiopan</effectcategory>
										<effecttype>audiopan</effecttype>
										<mediatype>audio</mediatype>
										<parameter>
											<name>Pan</name>
											<parameterid>pan</parameterid>
											<valuemin>-1</valuemin>
											<valuemax>1</valuemax>
											<value>-1</value>
										</parameter>
									</effect>
								</filter>
								<sourcetrack>
									<mediatype>audio</mediatype>
									<trackindex>1</trackindex>
								</sourcetrack>
								<link>
									<linkclipref>ArmA 3 2020.11.14 - 21.55.34.78.mp4805307751</linkclipref>
								</link>
								<link>
									<linkclipref>ArmA 3 2020.11.14 - 21.55.34.78.mp4536872296</linkclipref>
								</link>
								<link>
									<linkclipref>ArmA 3 2020.11.14 - 21.55.34.78.mp45368722961</linkclipref>
								</link>
								<link>
									<linkclipref>ArmA 3 2020.11.14 - 21.55.34.78.mp4536872297</linkclipref>
								</link>
								<link>
									<linkclipref>ArmA 3 2020.11.14 - 21.55.34.78.mp45368722971</linkclipref>
								</link>
							</clipitem>
							<clipitem id="ArmA 3 2020.11.14 - 21.57.02.79.mp4536872300">
								<name>ArmA 3 2020.11.14 - 21.57.02.79.mp4</name>
								<duration>1044</duration>
								<rate>
									<ntsc>TRUE</ntsc>
									<timebase>24</timebase>
								</rate>
								<in>0</in>
								<out>1044</out>
								<start>51296</start>
								<end>52340</end>
								<enabled>FALSE</enabled>
								<masterclipid>ArmA 3 2020.11.14 - 21.57.02.79.mp4</masterclipid>
								<logginginfo>
									<scene />
									<shottake />
									<lognote />
									<good>FALSE</good>
								</logginginfo>
								<labels>
									<label2 />
								</labels>
								<comments>
									<mastercomment1 />
									<mastercomment2 />
									<mastercomment3 />
									<mastercomment4 />
								</comments>
								<file id="ArmA 3 2020.11.14 - 21.57.02.79" />
								<filter>
									<effect>
										<name>Audio Levels</name>
										<effectid>audiolevels</effectid>
										<effectcategory>audiolevels</effectcategory>
										<effecttype>audiolevels</effecttype>
										<mediatype>audio</mediatype>
										<parameter>
											<name>Level</name>
											<parameterid>level</parameterid>
											<valuemin>0</valuemin>
											<valuemax>3,98109</valuemax>
											<value>1</value>
										</parameter>
									</effect>
								</filter>
								<filter>
									<effect>
										<name>Audio Pan</name>
										<effectid>audiopan</effectid>
										<effectcategory>audiopan</effectcategory>
										<effecttype>audiopan</effecttype>
										<mediatype>audio</mediatype>
										<parameter>
											<name>Pan</name>
											<parameterid>pan</parameterid>
											<valuemin>-1</valuemin>
											<valuemax>1</valuemax>
											<value>-1</value>
										</parameter>
									</effect>
								</filter>
								<sourcetrack>
									<mediatype>audio</mediatype>
									<trackindex>1</trackindex>
								</sourcetrack>
								<link>
									<linkclipref>ArmA 3 2020.11.14 - 21.57.02.79.mp4805307754</linkclipref>
								</link>
								<link>
									<linkclipref>ArmA 3 2020.11.14 - 21.57.02.79.mp4536872299</linkclipref>
								</link>
								<link>
									<linkclipref>ArmA 3 2020.11.14 - 21.57.02.79.mp45368722991</linkclipref>
								</link>
								<link>
									<linkclipref>ArmA 3 2020.11.14 - 21.57.02.79.mp4536872300</linkclipref>
								</link>
								<link>
									<linkclipref>ArmA 3 2020.11.14 - 21.57.02.79.mp45368723001</linkclipref>
								</link>
							</clipitem>
							<clipitem id="ArmA 3 2020.11.14 - 22.07.31.81.mp4536872303">
								<name>ArmA 3 2020.11.14 - 22.07.31.81.mp4</name>
								<duration>1271</duration>
								<rate>
									<ntsc>TRUE</ntsc>
									<timebase>24</timebase>
								</rate>
								<in>0</in>
								<out>1271</out>
								<start>52341</start>
								<end>53612</end>
								<enabled>FALSE</enabled>
								<masterclipid>ArmA 3 2020.11.14 - 22.07.31.81.mp4</masterclipid>
								<logginginfo>
									<scene />
									<shottake />
									<lognote />
									<good>FALSE</good>
								</logginginfo>
								<labels>
									<label2 />
								</labels>
								<comments>
									<mastercomment1 />
									<mastercomment2 />
									<mastercomment3 />
									<mastercomment4 />
								</comments>
								<file id="ArmA 3 2020.11.14 - 22.07.31.81" />
								<filter>
									<effect>
										<name>Audio Levels</name>
										<effectid>audiolevels</effectid>
										<effectcategory>audiolevels</effectcategory>
										<effecttype>audiolevels</effecttype>
										<mediatype>audio</mediatype>
										<parameter>
											<name>Level</name>
											<parameterid>level</parameterid>
											<valuemin>0</valuemin>
											<valuemax>3,98109</valuemax>
											<value>1</value>
										</parameter>
									</effect>
								</filter>
								<filter>
									<effect>
										<name>Audio Pan</name>
										<effectid>audiopan</effectid>
										<effectcategory>audiopan</effectcategory>
										<effecttype>audiopan</effecttype>
										<mediatype>audio</mediatype>
										<parameter>
											<name>Pan</name>
											<parameterid>pan</parameterid>
											<valuemin>-1</valuemin>
											<valuemax>1</valuemax>
											<value>-1</value>
										</parameter>
									</effect>
								</filter>
								<sourcetrack>
									<mediatype>audio</mediatype>
									<trackindex>1</trackindex>
								</sourcetrack>
								<link>
									<linkclipref>ArmA 3 2020.11.14 - 22.07.31.81.mp4805307757</linkclipref>
								</link>
								<link>
									<linkclipref>ArmA 3 2020.11.14 - 22.07.31.81.mp4536872302</linkclipref>
								</link>
								<link>
									<linkclipref>ArmA 3 2020.11.14 - 22.07.31.81.mp45368723021</linkclipref>
								</link>
								<link>
									<linkclipref>ArmA 3 2020.11.14 - 22.07.31.81.mp4536872303</linkclipref>
								</link>
								<link>
									<linkclipref>ArmA 3 2020.11.14 - 22.07.31.81.mp45368723031</linkclipref>
								</link>
							</clipitem>
							<clipitem id="ArmA 3 2020.11.14 - 22.08.38.82.mp4536872306">
								<name>ArmA 3 2020.11.14 - 22.08.38.82.mp4</name>
								<duration>933</duration>
								<rate>
									<ntsc>TRUE</ntsc>
									<timebase>24</timebase>
								</rate>
								<in>0</in>
								<out>933</out>
								<start>53613</start>
								<end>54546</end>
								<enabled>FALSE</enabled>
								<masterclipid>ArmA 3 2020.11.14 - 22.08.38.82.mp4</masterclipid>
								<logginginfo>
									<scene />
									<shottake />
									<lognote />
									<good>FALSE</good>
								</logginginfo>
								<labels>
									<label2 />
								</labels>
								<comments>
									<mastercomment1 />
									<mastercomment2 />
									<mastercomment3 />
									<mastercomment4 />
								</comments>
								<file id="ArmA 3 2020.11.14 - 22.08.38.82" />
								<filter>
									<effect>
										<name>Audio Levels</name>
										<effectid>audiolevels</effectid>
										<effectcategory>audiolevels</effectcategory>
										<effecttype>audiolevels</effecttype>
										<mediatype>audio</mediatype>
										<parameter>
											<name>Level</name>
											<parameterid>level</parameterid>
											<valuemin>0</valuemin>
											<valuemax>3,98109</valuemax>
											<value>1</value>
										</parameter>
									</effect>
								</filter>
								<filter>
									<effect>
										<name>Audio Pan</name>
										<effectid>audiopan</effectid>
										<effectcategory>audiopan</effectcategory>
										<effecttype>audiopan</effecttype>
										<mediatype>audio</mediatype>
										<parameter>
											<name>Pan</name>
											<parameterid>pan</parameterid>
											<valuemin>-1</valuemin>
											<valuemax>1</valuemax>
											<value>-1</value>
										</parameter>
									</effect>
								</filter>
								<sourcetrack>
									<mediatype>audio</mediatype>
									<trackindex>1</trackindex>
								</sourcetrack>
								<link>
									<linkclipref>ArmA 3 2020.11.14 - 22.08.38.82.mp4805307760</linkclipref>
								</link>
								<link>
									<linkclipref>ArmA 3 2020.11.14 - 22.08.38.82.mp4536872305</linkclipref>
								</link>
								<link>
									<linkclipref>ArmA 3 2020.11.14 - 22.08.38.82.mp45368723051</linkclipref>
								</link>
								<link>
									<linkclipref>ArmA 3 2020.11.14 - 22.08.38.82.mp4536872306</linkclipref>
								</link>
								<link>
									<linkclipref>ArmA 3 2020.11.14 - 22.08.38.82.mp45368723061</linkclipref>
								</link>
							</clipitem>
							<clipitem id="ArmA 3 2020.11.14 - 22.09.53.83.mp4536872309">
								<name>ArmA 3 2020.11.14 - 22.09.53.83.mp4</name>
								<duration>925</duration>
								<rate>
									<ntsc>TRUE</ntsc>
									<timebase>24</timebase>
								</rate>
								<in>0</in>
								<out>925</out>
								<start>54547</start>
								<end>55472</end>
								<enabled>FALSE</enabled>
								<masterclipid>ArmA 3 2020.11.14 - 22.09.53.83.mp4</masterclipid>
								<logginginfo>
									<scene />
									<shottake />
									<lognote />
									<good>FALSE</good>
								</logginginfo>
								<labels>
									<label2 />
								</labels>
								<comments>
									<mastercomment1 />
									<mastercomment2 />
									<mastercomment3 />
									<mastercomment4 />
								</comments>
								<file id="ArmA 3 2020.11.14 - 22.09.53.83" />
								<filter>
									<effect>
										<name>Audio Levels</name>
										<effectid>audiolevels</effectid>
										<effectcategory>audiolevels</effectcategory>
										<effecttype>audiolevels</effecttype>
										<mediatype>audio</mediatype>
										<parameter>
											<name>Level</name>
											<parameterid>level</parameterid>
											<valuemin>0</valuemin>
											<valuemax>3,98109</valuemax>
											<value>1</value>
										</parameter>
									</effect>
								</filter>
								<filter>
									<effect>
										<name>Audio Pan</name>
										<effectid>audiopan</effectid>
										<effectcategory>audiopan</effectcategory>
										<effecttype>audiopan</effecttype>
										<mediatype>audio</mediatype>
										<parameter>
											<name>Pan</name>
											<parameterid>pan</parameterid>
											<valuemin>-1</valuemin>
											<valuemax>1</valuemax>
											<value>-1</value>
										</parameter>
									</effect>
								</filter>
								<sourcetrack>
									<mediatype>audio</mediatype>
									<trackindex>1</trackindex>
								</sourcetrack>
								<link>
									<linkclipref>ArmA 3 2020.11.14 - 22.09.53.83.mp4805307763</linkclipref>
								</link>
								<link>
									<linkclipref>ArmA 3 2020.11.14 - 22.09.53.83.mp4536872308</linkclipref>
								</link>
								<link>
									<linkclipref>ArmA 3 2020.11.14 - 22.09.53.83.mp45368723081</linkclipref>
								</link>
								<link>
									<linkclipref>ArmA 3 2020.11.14 - 22.09.53.83.mp4536872309</linkclipref>
								</link>
								<link>
									<linkclipref>ArmA 3 2020.11.14 - 22.09.53.83.mp45368723091</linkclipref>
								</link>
							</clipitem>
						</track>
						<track>
							<clipitem id="ArmA 3 2020.11.14 - 20.19.25.25.mp45368721381">
								<name>ArmA 3 2020.11.14 - 20.19.25.25.mp4</name>
								<duration>93</duration>
								<rate>
									<ntsc>TRUE</ntsc>
									<timebase>24</timebase>
								</rate>
								<in>0</in>
								<out>93</out>
								<start>0</start>
								<end>93</end>
								<enabled>FALSE</enabled>
								<masterclipid>ArmA 3 2020.11.14 - 20.19.25.25.mp4</masterclipid>
								<logginginfo>
									<scene />
									<shottake />
									<lognote />
									<good>FALSE</good>
								</logginginfo>
								<labels>
									<label2 />
								</labels>
								<comments>
									<mastercomment1 />
									<mastercomment2 />
									<mastercomment3 />
									<mastercomment4 />
								</comments>
								<file id="ArmA 3 2020.11.14 - 20.19.25.25" />
								<filter>
									<effect>
										<name>Audio Levels</name>
										<effectid>audiolevels</effectid>
										<effectcategory>audiolevels</effectcategory>
										<effecttype>audiolevels</effecttype>
										<mediatype>audio</mediatype>
										<parameter>
											<name>Level</name>
											<parameterid>level</parameterid>
											<valuemin>0</valuemin>
											<valuemax>3,98109</valuemax>
											<value>1</value>
										</parameter>
									</effect>
								</filter>
								<filter>
									<effect>
										<name>Audio Pan</name>
										<effectid>audiopan</effectid>
										<effectcategory>audiopan</effectcategory>
										<effecttype>audiopan</effecttype>
										<mediatype>audio</mediatype>
										<parameter>
											<name>Pan</name>
											<parameterid>pan</parameterid>
											<valuemin>-1</valuemin>
											<valuemax>1</valuemax>
											<value>1</value>
										</parameter>
									</effect>
								</filter>
								<sourcetrack>
									<mediatype>audio</mediatype>
									<trackindex>2</trackindex>
								</sourcetrack>
								<link>
									<linkclipref>ArmA 3 2020.11.14 - 20.19.25.25.mp4805307592</linkclipref>
								</link>
								<link>
									<linkclipref>ArmA 3 2020.11.14 - 20.19.25.25.mp4536872137</linkclipref>
								</link>
								<link>
									<linkclipref>ArmA 3 2020.11.14 - 20.19.25.25.mp45368721371</linkclipref>
								</link>
								<link>
									<linkclipref>ArmA 3 2020.11.14 - 20.19.25.25.mp4536872138</linkclipref>
								</link>
								<link>
									<linkclipref>ArmA 3 2020.11.14 - 20.19.25.25.mp45368721381</linkclipref>
								</link>
							</clipitem>
							<clipitem id="ArmA 3 2020.11.14 - 20.19.51.26.mp45368721411">
								<name>ArmA 3 2020.11.14 - 20.19.51.26.mp4</name>
								<duration>548</duration>
								<rate>
									<ntsc>TRUE</ntsc>
									<timebase>24</timebase>
								</rate>
								<in>0</in>
								<out>548</out>
								<start>94</start>
								<end>642</end>
								<enabled>FALSE</enabled>
								<masterclipid>ArmA 3 2020.11.14 - 20.19.51.26.mp4</masterclipid>
								<logginginfo>
									<scene />
									<shottake />
									<lognote />
									<good>FALSE</good>
								</logginginfo>
								<labels>
									<label2 />
								</labels>
								<comments>
									<mastercomment1 />
									<mastercomment2 />
									<mastercomment3 />
									<mastercomment4 />
								</comments>
								<file id="ArmA 3 2020.11.14 - 20.19.51.26" />
								<filter>
									<effect>
										<name>Audio Levels</name>
										<effectid>audiolevels</effectid>
										<effectcategory>audiolevels</effectcategory>
										<effecttype>audiolevels</effecttype>
										<mediatype>audio</mediatype>
										<parameter>
											<name>Level</name>
											<parameterid>level</parameterid>
											<valuemin>0</valuemin>
											<valuemax>3,98109</valuemax>
											<value>1</value>
										</parameter>
									</effect>
								</filter>
								<filter>
									<effect>
										<name>Audio Pan</name>
										<effectid>audiopan</effectid>
										<effectcategory>audiopan</effectcategory>
										<effecttype>audiopan</effecttype>
										<mediatype>audio</mediatype>
										<parameter>
											<name>Pan</name>
											<parameterid>pan</parameterid>
											<valuemin>-1</valuemin>
											<valuemax>1</valuemax>
											<value>1</value>
										</parameter>
									</effect>
								</filter>
								<sourcetrack>
									<mediatype>audio</mediatype>
									<trackindex>2</trackindex>
								</sourcetrack>
								<link>
									<linkclipref>ArmA 3 2020.11.14 - 20.19.51.26.mp4805307595</linkclipref>
								</link>
								<link>
									<linkclipref>ArmA 3 2020.11.14 - 20.19.51.26.mp4536872140</linkclipref>
								</link>
								<link>
									<linkclipref>ArmA 3 2020.11.14 - 20.19.51.26.mp45368721401</linkclipref>
								</link>
								<link>
									<linkclipref>ArmA 3 2020.11.14 - 20.19.51.26.mp4536872141</linkclipref>
								</link>
								<link>
									<linkclipref>ArmA 3 2020.11.14 - 20.19.51.26.mp45368721411</linkclipref>
								</link>
							</clipitem>
							<clipitem id="ArmA 3 2020.11.14 - 20.20.25.27.mp45368721441">
								<name>ArmA 3 2020.11.14 - 20.20.25.27.mp4</name>
								<duration>1868</duration>
								<rate>
									<ntsc>TRUE</ntsc>
									<timebase>24</timebase>
								</rate>
								<in>0</in>
								<out>1868</out>
								<start>643</start>
								<end>2511</end>
								<enabled>FALSE</enabled>
								<masterclipid>ArmA 3 2020.11.14 - 20.20.25.27.mp4</masterclipid>
								<logginginfo>
									<scene />
									<shottake />
									<lognote />
									<good>FALSE</good>
								</logginginfo>
								<labels>
									<label2 />
								</labels>
								<comments>
									<mastercomment1 />
									<mastercomment2 />
									<mastercomment3 />
									<mastercomment4 />
								</comments>
								<file id="ArmA 3 2020.11.14 - 20.20.25.27" />
								<filter>
									<effect>
										<name>Audio Levels</name>
										<effectid>audiolevels</effectid>
										<effectcategory>audiolevels</effectcategory>
										<effecttype>audiolevels</effecttype>
										<mediatype>audio</mediatype>
										<parameter>
											<name>Level</name>
											<parameterid>level</parameterid>
											<valuemin>0</valuemin>
											<valuemax>3,98109</valuemax>
											<value>1</value>
										</parameter>
									</effect>
								</filter>
								<filter>
									<effect>
										<name>Audio Pan</name>
										<effectid>audiopan</effectid>
										<effectcategory>audiopan</effectcategory>
										<effecttype>audiopan</effecttype>
										<mediatype>audio</mediatype>
										<parameter>
											<name>Pan</name>
											<parameterid>pan</parameterid>
											<valuemin>-1</valuemin>
											<valuemax>1</valuemax>
											<value>1</value>
										</parameter>
									</effect>
								</filter>
								<sourcetrack>
									<mediatype>audio</mediatype>
									<trackindex>2</trackindex>
								</sourcetrack>
								<link>
									<linkclipref>ArmA 3 2020.11.14 - 20.20.25.27.mp4805307598</linkclipref>
								</link>
								<link>
									<linkclipref>ArmA 3 2020.11.14 - 20.20.25.27.mp4536872143</linkclipref>
								</link>
								<link>
									<linkclipref>ArmA 3 2020.11.14 - 20.20.25.27.mp45368721431</linkclipref>
								</link>
								<link>
									<linkclipref>ArmA 3 2020.11.14 - 20.20.25.27.mp4536872144</linkclipref>
								</link>
								<link>
									<linkclipref>ArmA 3 2020.11.14 - 20.20.25.27.mp45368721441</linkclipref>
								</link>
							</clipitem>
							<clipitem id="ArmA 3 2020.11.14 - 20.22.02.28.mp45368721471">
								<name>ArmA 3 2020.11.14 - 20.22.02.28.mp4</name>
								<duration>570</duration>
								<rate>
									<ntsc>TRUE</ntsc>
									<timebase>24</timebase>
								</rate>
								<in>0</in>
								<out>570</out>
								<start>2512</start>
								<end>3082</end>
								<enabled>FALSE</enabled>
								<masterclipid>ArmA 3 2020.11.14 - 20.22.02.28.mp4</masterclipid>
								<logginginfo>
									<scene />
									<shottake />
									<lognote />
									<good>FALSE</good>
								</logginginfo>
								<labels>
									<label2 />
								</labels>
								<comments>
									<mastercomment1 />
									<mastercomment2 />
									<mastercomment3 />
									<mastercomment4 />
								</comments>
								<file id="ArmA 3 2020.11.14 - 20.22.02.28" />
								<filter>
									<effect>
										<name>Audio Levels</name>
										<effectid>audiolevels</effectid>
										<effectcategory>audiolevels</effectcategory>
										<effecttype>audiolevels</effecttype>
										<mediatype>audio</mediatype>
										<parameter>
											<name>Level</name>
											<parameterid>level</parameterid>
											<valuemin>0</valuemin>
											<valuemax>3,98109</valuemax>
											<value>1</value>
										</parameter>
									</effect>
								</filter>
								<filter>
									<effect>
										<name>Audio Pan</name>
										<effectid>audiopan</effectid>
										<effectcategory>audiopan</effectcategory>
										<effecttype>audiopan</effecttype>
										<mediatype>audio</mediatype>
										<parameter>
											<name>Pan</name>
											<parameterid>pan</parameterid>
											<valuemin>-1</valuemin>
											<valuemax>1</valuemax>
											<value>1</value>
										</parameter>
									</effect>
								</filter>
								<sourcetrack>
									<mediatype>audio</mediatype>
									<trackindex>2</trackindex>
								</sourcetrack>
								<link>
									<linkclipref>ArmA 3 2020.11.14 - 20.22.02.28.mp4805307601</linkclipref>
								</link>
								<link>
									<linkclipref>ArmA 3 2020.11.14 - 20.22.02.28.mp4536872146</linkclipref>
								</link>
								<link>
									<linkclipref>ArmA 3 2020.11.14 - 20.22.02.28.mp45368721461</linkclipref>
								</link>
								<link>
									<linkclipref>ArmA 3 2020.11.14 - 20.22.02.28.mp4536872147</linkclipref>
								</link>
								<link>
									<linkclipref>ArmA 3 2020.11.14 - 20.22.02.28.mp45368721471</linkclipref>
								</link>
							</clipitem>
							<clipitem id="ArmA 3 2020.11.14 - 20.22.40.29.mp45368721501">
								<name>ArmA 3 2020.11.14 - 20.22.40.29.mp4</name>
								<duration>869</duration>
								<rate>
									<ntsc>TRUE</ntsc>
									<timebase>24</timebase>
								</rate>
								<in>0</in>
								<out>869</out>
								<start>3083</start>
								<end>3952</end>
								<enabled>FALSE</enabled>
								<masterclipid>ArmA 3 2020.11.14 - 20.22.40.29.mp4</masterclipid>
								<logginginfo>
									<scene />
									<shottake />
									<lognote />
									<good>FALSE</good>
								</logginginfo>
								<labels>
									<label2 />
								</labels>
								<comments>
									<mastercomment1 />
									<mastercomment2 />
									<mastercomment3 />
									<mastercomment4 />
								</comments>
								<file id="ArmA 3 2020.11.14 - 20.22.40.29" />
								<filter>
									<effect>
										<name>Audio Levels</name>
										<effectid>audiolevels</effectid>
										<effectcategory>audiolevels</effectcategory>
										<effecttype>audiolevels</effecttype>
										<mediatype>audio</mediatype>
										<parameter>
											<name>Level</name>
											<parameterid>level</parameterid>
											<valuemin>0</valuemin>
											<valuemax>3,98109</valuemax>
											<value>1</value>
										</parameter>
									</effect>
								</filter>
								<filter>
									<effect>
										<name>Audio Pan</name>
										<effectid>audiopan</effectid>
										<effectcategory>audiopan</effectcategory>
										<effecttype>audiopan</effecttype>
										<mediatype>audio</mediatype>
										<parameter>
											<name>Pan</name>
											<parameterid>pan</parameterid>
											<valuemin>-1</valuemin>
											<valuemax>1</valuemax>
											<value>1</value>
										</parameter>
									</effect>
								</filter>
								<sourcetrack>
									<mediatype>audio</mediatype>
									<trackindex>2</trackindex>
								</sourcetrack>
								<link>
									<linkclipref>ArmA 3 2020.11.14 - 20.22.40.29.mp4805307604</linkclipref>
								</link>
								<link>
									<linkclipref>ArmA 3 2020.11.14 - 20.22.40.29.mp4536872149</linkclipref>
								</link>
								<link>
									<linkclipref>ArmA 3 2020.11.14 - 20.22.40.29.mp45368721491</linkclipref>
								</link>
								<link>
									<linkclipref>ArmA 3 2020.11.14 - 20.22.40.29.mp4536872150</linkclipref>
								</link>
								<link>
									<linkclipref>ArmA 3 2020.11.14 - 20.22.40.29.mp45368721501</linkclipref>
								</link>
							</clipitem>
							<clipitem id="ArmA 3 2020.11.14 - 20.23.50.30.mp45368721531">
								<name>ArmA 3 2020.11.14 - 20.23.50.30.mp4</name>
								<duration>875</duration>
								<rate>
									<ntsc>TRUE</ntsc>
									<timebase>24</timebase>
								</rate>
								<in>0</in>
								<out>875</out>
								<start>3953</start>
								<end>4828</end>
								<enabled>FALSE</enabled>
								<masterclipid>ArmA 3 2020.11.14 - 20.23.50.30.mp4</masterclipid>
								<logginginfo>
									<scene />
									<shottake />
									<lognote />
									<good>FALSE</good>
								</logginginfo>
								<labels>
									<label2 />
								</labels>
								<comments>
									<mastercomment1 />
									<mastercomment2 />
									<mastercomment3 />
									<mastercomment4 />
								</comments>
								<file id="ArmA 3 2020.11.14 - 20.23.50.30" />
								<filter>
									<effect>
										<name>Audio Levels</name>
										<effectid>audiolevels</effectid>
										<effectcategory>audiolevels</effectcategory>
										<effecttype>audiolevels</effecttype>
										<mediatype>audio</mediatype>
										<parameter>
											<name>Level</name>
											<parameterid>level</parameterid>
											<valuemin>0</valuemin>
											<valuemax>3,98109</valuemax>
											<value>1</value>
										</parameter>
									</effect>
								</filter>
								<filter>
									<effect>
										<name>Audio Pan</name>
										<effectid>audiopan</effectid>
										<effectcategory>audiopan</effectcategory>
										<effecttype>audiopan</effecttype>
										<mediatype>audio</mediatype>
										<parameter>
											<name>Pan</name>
											<parameterid>pan</parameterid>
											<valuemin>-1</valuemin>
											<valuemax>1</valuemax>
											<value>1</value>
										</parameter>
									</effect>
								</filter>
								<sourcetrack>
									<mediatype>audio</mediatype>
									<trackindex>2</trackindex>
								</sourcetrack>
								<link>
									<linkclipref>ArmA 3 2020.11.14 - 20.23.50.30.mp4805307607</linkclipref>
								</link>
								<link>
									<linkclipref>ArmA 3 2020.11.14 - 20.23.50.30.mp4536872152</linkclipref>
								</link>
								<link>
									<linkclipref>ArmA 3 2020.11.14 - 20.23.50.30.mp45368721521</linkclipref>
								</link>
								<link>
									<linkclipref>ArmA 3 2020.11.14 - 20.23.50.30.mp4536872153</linkclipref>
								</link>
								<link>
									<linkclipref>ArmA 3 2020.11.14 - 20.23.50.30.mp45368721531</linkclipref>
								</link>
							</clipitem>
							<clipitem id="ArmA 3 2020.11.14 - 20.24.41.31.mp45368721561">
								<name>ArmA 3 2020.11.14 - 20.24.41.31.mp4</name>
								<duration>612</duration>
								<rate>
									<ntsc>TRUE</ntsc>
									<timebase>24</timebase>
								</rate>
								<in>0</in>
								<out>612</out>
								<start>4829</start>
								<end>5441</end>
								<enabled>FALSE</enabled>
								<masterclipid>ArmA 3 2020.11.14 - 20.24.41.31.mp4</masterclipid>
								<logginginfo>
									<scene />
									<shottake />
									<lognote />
									<good>FALSE</good>
								</logginginfo>
								<labels>
									<label2 />
								</labels>
								<comments>
									<mastercomment1 />
									<mastercomment2 />
									<mastercomment3 />
									<mastercomment4 />
								</comments>
								<file id="ArmA 3 2020.11.14 - 20.24.41.31" />
								<filter>
									<effect>
										<name>Audio Levels</name>
										<effectid>audiolevels</effectid>
										<effectcategory>audiolevels</effectcategory>
										<effecttype>audiolevels</effecttype>
										<mediatype>audio</mediatype>
										<parameter>
											<name>Level</name>
											<parameterid>level</parameterid>
											<valuemin>0</valuemin>
											<valuemax>3,98109</valuemax>
											<value>1</value>
										</parameter>
									</effect>
								</filter>
								<filter>
									<effect>
										<name>Audio Pan</name>
										<effectid>audiopan</effectid>
										<effectcategory>audiopan</effectcategory>
										<effecttype>audiopan</effecttype>
										<mediatype>audio</mediatype>
										<parameter>
											<name>Pan</name>
											<parameterid>pan</parameterid>
											<valuemin>-1</valuemin>
											<valuemax>1</valuemax>
											<value>1</value>
										</parameter>
									</effect>
								</filter>
								<sourcetrack>
									<mediatype>audio</mediatype>
									<trackindex>2</trackindex>
								</sourcetrack>
								<link>
									<linkclipref>ArmA 3 2020.11.14 - 20.24.41.31.mp4805307610</linkclipref>
								</link>
								<link>
									<linkclipref>ArmA 3 2020.11.14 - 20.24.41.31.mp4536872155</linkclipref>
								</link>
								<link>
									<linkclipref>ArmA 3 2020.11.14 - 20.24.41.31.mp45368721551</linkclipref>
								</link>
								<link>
									<linkclipref>ArmA 3 2020.11.14 - 20.24.41.31.mp4536872156</linkclipref>
								</link>
								<link>
									<linkclipref>ArmA 3 2020.11.14 - 20.24.41.31.mp45368721561</linkclipref>
								</link>
							</clipitem>
							<clipitem id="ArmA 3 2020.11.14 - 20.28.02.32.mp45368721591">
								<name>ArmA 3 2020.11.14 - 20.28.02.32.mp4</name>
								<duration>972</duration>
								<rate>
									<ntsc>TRUE</ntsc>
									<timebase>24</timebase>
								</rate>
								<in>0</in>
								<out>972</out>
								<start>5442</start>
								<end>6414</end>
								<enabled>FALSE</enabled>
								<masterclipid>ArmA 3 2020.11.14 - 20.28.02.32.mp4</masterclipid>
								<logginginfo>
									<scene />
									<shottake />
									<lognote />
									<good>FALSE</good>
								</logginginfo>
								<labels>
									<label2 />
								</labels>
								<comments>
									<mastercomment1 />
									<mastercomment2 />
									<mastercomment3 />
									<mastercomment4 />
								</comments>
								<file id="ArmA 3 2020.11.14 - 20.28.02.32" />
								<filter>
									<effect>
										<name>Audio Levels</name>
										<effectid>audiolevels</effectid>
										<effectcategory>audiolevels</effectcategory>
										<effecttype>audiolevels</effecttype>
										<mediatype>audio</mediatype>
										<parameter>
											<name>Level</name>
											<parameterid>level</parameterid>
											<valuemin>0</valuemin>
											<valuemax>3,98109</valuemax>
											<value>1</value>
										</parameter>
									</effect>
								</filter>
								<filter>
									<effect>
										<name>Audio Pan</name>
										<effectid>audiopan</effectid>
										<effectcategory>audiopan</effectcategory>
										<effecttype>audiopan</effecttype>
										<mediatype>audio</mediatype>
										<parameter>
											<name>Pan</name>
											<parameterid>pan</parameterid>
											<valuemin>-1</valuemin>
											<valuemax>1</valuemax>
											<value>1</value>
										</parameter>
									</effect>
								</filter>
								<sourcetrack>
									<mediatype>audio</mediatype>
									<trackindex>2</trackindex>
								</sourcetrack>
								<link>
									<linkclipref>ArmA 3 2020.11.14 - 20.28.02.32.mp4805307613</linkclipref>
								</link>
								<link>
									<linkclipref>ArmA 3 2020.11.14 - 20.28.02.32.mp4536872158</linkclipref>
								</link>
								<link>
									<linkclipref>ArmA 3 2020.11.14 - 20.28.02.32.mp45368721581</linkclipref>
								</link>
								<link>
									<linkclipref>ArmA 3 2020.11.14 - 20.28.02.32.mp4536872159</linkclipref>
								</link>
								<link>
									<linkclipref>ArmA 3 2020.11.14 - 20.28.02.32.mp45368721591</linkclipref>
								</link>
							</clipitem>
							<clipitem id="ArmA 3 2020.11.14 - 20.29.28.33.mp45368721621">
								<name>ArmA 3 2020.11.14 - 20.29.28.33.mp4</name>
								<duration>561</duration>
								<rate>
									<ntsc>TRUE</ntsc>
									<timebase>24</timebase>
								</rate>
								<in>0</in>
								<out>561</out>
								<start>6415</start>
								<end>6976</end>
								<enabled>FALSE</enabled>
								<masterclipid>ArmA 3 2020.11.14 - 20.29.28.33.mp4</masterclipid>
								<logginginfo>
									<scene />
									<shottake />
									<lognote />
									<good>FALSE</good>
								</logginginfo>
								<labels>
									<label2 />
								</labels>
								<comments>
									<mastercomment1 />
									<mastercomment2 />
									<mastercomment3 />
									<mastercomment4 />
								</comments>
								<file id="ArmA 3 2020.11.14 - 20.29.28.33" />
								<filter>
									<effect>
										<name>Audio Levels</name>
										<effectid>audiolevels</effectid>
										<effectcategory>audiolevels</effectcategory>
										<effecttype>audiolevels</effecttype>
										<mediatype>audio</mediatype>
										<parameter>
											<name>Level</name>
											<parameterid>level</parameterid>
											<valuemin>0</valuemin>
											<valuemax>3,98109</valuemax>
											<value>1</value>
										</parameter>
									</effect>
								</filter>
								<filter>
									<effect>
										<name>Audio Pan</name>
										<effectid>audiopan</effectid>
										<effectcategory>audiopan</effectcategory>
										<effecttype>audiopan</effecttype>
										<mediatype>audio</mediatype>
										<parameter>
											<name>Pan</name>
											<parameterid>pan</parameterid>
											<valuemin>-1</valuemin>
											<valuemax>1</valuemax>
											<value>1</value>
										</parameter>
									</effect>
								</filter>
								<sourcetrack>
									<mediatype>audio</mediatype>
									<trackindex>2</trackindex>
								</sourcetrack>
								<link>
									<linkclipref>ArmA 3 2020.11.14 - 20.29.28.33.mp4805307616</linkclipref>
								</link>
								<link>
									<linkclipref>ArmA 3 2020.11.14 - 20.29.28.33.mp4536872161</linkclipref>
								</link>
								<link>
									<linkclipref>ArmA 3 2020.11.14 - 20.29.28.33.mp45368721611</linkclipref>
								</link>
								<link>
									<linkclipref>ArmA 3 2020.11.14 - 20.29.28.33.mp4536872162</linkclipref>
								</link>
								<link>
									<linkclipref>ArmA 3 2020.11.14 - 20.29.28.33.mp45368721621</linkclipref>
								</link>
							</clipitem>
							<clipitem id="ArmA 3 2020.11.14 - 20.30.42.34.mp45368721651">
								<name>ArmA 3 2020.11.14 - 20.30.42.34.mp4</name>
								<duration>455</duration>
								<rate>
									<ntsc>TRUE</ntsc>
									<timebase>24</timebase>
								</rate>
								<in>0</in>
								<out>455</out>
								<start>6977</start>
								<end>7432</end>
								<enabled>FALSE</enabled>
								<masterclipid>ArmA 3 2020.11.14 - 20.30.42.34.mp4</masterclipid>
								<logginginfo>
									<scene />
									<shottake />
									<lognote />
									<good>FALSE</good>
								</logginginfo>
								<labels>
									<label2 />
								</labels>
								<comments>
									<mastercomment1 />
									<mastercomment2 />
									<mastercomment3 />
									<mastercomment4 />
								</comments>
								<file id="ArmA 3 2020.11.14 - 20.30.42.34" />
								<filter>
									<effect>
										<name>Audio Levels</name>
										<effectid>audiolevels</effectid>
										<effectcategory>audiolevels</effectcategory>
										<effecttype>audiolevels</effecttype>
										<mediatype>audio</mediatype>
										<parameter>
											<name>Level</name>
											<parameterid>level</parameterid>
											<valuemin>0</valuemin>
											<valuemax>3,98109</valuemax>
											<value>1</value>
										</parameter>
									</effect>
								</filter>
								<filter>
									<effect>
										<name>Audio Pan</name>
										<effectid>audiopan</effectid>
										<effectcategory>audiopan</effectcategory>
										<effecttype>audiopan</effecttype>
										<mediatype>audio</mediatype>
										<parameter>
											<name>Pan</name>
											<parameterid>pan</parameterid>
											<valuemin>-1</valuemin>
											<valuemax>1</valuemax>
											<value>1</value>
										</parameter>
									</effect>
								</filter>
								<sourcetrack>
									<mediatype>audio</mediatype>
									<trackindex>2</trackindex>
								</sourcetrack>
								<link>
									<linkclipref>ArmA 3 2020.11.14 - 20.30.42.34.mp4805307619</linkclipref>
								</link>
								<link>
									<linkclipref>ArmA 3 2020.11.14 - 20.30.42.34.mp4536872164</linkclipref>
								</link>
								<link>
									<linkclipref>ArmA 3 2020.11.14 - 20.30.42.34.mp45368721641</linkclipref>
								</link>
								<link>
									<linkclipref>ArmA 3 2020.11.14 - 20.30.42.34.mp4536872165</linkclipref>
								</link>
								<link>
									<linkclipref>ArmA 3 2020.11.14 - 20.30.42.34.mp45368721651</linkclipref>
								</link>
							</clipitem>
							<clipitem id="ArmA 3 2020.11.14 - 20.32.04.35.mp45368721681">
								<name>ArmA 3 2020.11.14 - 20.32.04.35.mp4</name>
								<duration>710</duration>
								<rate>
									<ntsc>TRUE</ntsc>
									<timebase>24</timebase>
								</rate>
								<in>0</in>
								<out>710</out>
								<start>7433</start>
								<end>8143</end>
								<enabled>FALSE</enabled>
								<masterclipid>ArmA 3 2020.11.14 - 20.32.04.35.mp4</masterclipid>
								<logginginfo>
									<scene />
									<shottake />
									<lognote />
									<good>FALSE</good>
								</logginginfo>
								<labels>
									<label2 />
								</labels>
								<comments>
									<mastercomment1 />
									<mastercomment2 />
									<mastercomment3 />
									<mastercomment4 />
								</comments>
								<file id="ArmA 3 2020.11.14 - 20.32.04.35" />
								<filter>
									<effect>
										<name>Audio Levels</name>
										<effectid>audiolevels</effectid>
										<effectcategory>audiolevels</effectcategory>
										<effecttype>audiolevels</effecttype>
										<mediatype>audio</mediatype>
										<parameter>
											<name>Level</name>
											<parameterid>level</parameterid>
											<valuemin>0</valuemin>
											<valuemax>3,98109</valuemax>
											<value>1</value>
										</parameter>
									</effect>
								</filter>
								<filter>
									<effect>
										<name>Audio Pan</name>
										<effectid>audiopan</effectid>
										<effectcategory>audiopan</effectcategory>
										<effecttype>audiopan</effecttype>
										<mediatype>audio</mediatype>
										<parameter>
											<name>Pan</name>
											<parameterid>pan</parameterid>
											<valuemin>-1</valuemin>
											<valuemax>1</valuemax>
											<value>1</value>
										</parameter>
									</effect>
								</filter>
								<sourcetrack>
									<mediatype>audio</mediatype>
									<trackindex>2</trackindex>
								</sourcetrack>
								<link>
									<linkclipref>ArmA 3 2020.11.14 - 20.32.04.35.mp4805307622</linkclipref>
								</link>
								<link>
									<linkclipref>ArmA 3 2020.11.14 - 20.32.04.35.mp4536872167</linkclipref>
								</link>
								<link>
									<linkclipref>ArmA 3 2020.11.14 - 20.32.04.35.mp45368721671</linkclipref>
								</link>
								<link>
									<linkclipref>ArmA 3 2020.11.14 - 20.32.04.35.mp4536872168</linkclipref>
								</link>
								<link>
									<linkclipref>ArmA 3 2020.11.14 - 20.32.04.35.mp45368721681</linkclipref>
								</link>
							</clipitem>
							<clipitem id="ArmA 3 2020.11.14 - 20.35.01.36.mp45368721711">
								<name>ArmA 3 2020.11.14 - 20.35.01.36.mp4</name>
								<duration>541</duration>
								<rate>
									<ntsc>TRUE</ntsc>
									<timebase>24</timebase>
								</rate>
								<in>0</in>
								<out>541</out>
								<start>8144</start>
								<end>8685</end>
								<enabled>FALSE</enabled>
								<masterclipid>ArmA 3 2020.11.14 - 20.35.01.36.mp4</masterclipid>
								<logginginfo>
									<scene />
									<shottake />
									<lognote />
									<good>FALSE</good>
								</logginginfo>
								<labels>
									<label2 />
								</labels>
								<comments>
									<mastercomment1 />
									<mastercomment2 />
									<mastercomment3 />
									<mastercomment4 />
								</comments>
								<file id="ArmA 3 2020.11.14 - 20.35.01.36" />
								<filter>
									<effect>
										<name>Audio Levels</name>
										<effectid>audiolevels</effectid>
										<effectcategory>audiolevels</effectcategory>
										<effecttype>audiolevels</effecttype>
										<mediatype>audio</mediatype>
										<parameter>
											<name>Level</name>
											<parameterid>level</parameterid>
											<valuemin>0</valuemin>
											<valuemax>3,98109</valuemax>
											<value>1</value>
										</parameter>
									</effect>
								</filter>
								<filter>
									<effect>
										<name>Audio Pan</name>
										<effectid>audiopan</effectid>
										<effectcategory>audiopan</effectcategory>
										<effecttype>audiopan</effecttype>
										<mediatype>audio</mediatype>
										<parameter>
											<name>Pan</name>
											<parameterid>pan</parameterid>
											<valuemin>-1</valuemin>
											<valuemax>1</valuemax>
											<value>1</value>
										</parameter>
									</effect>
								</filter>
								<sourcetrack>
									<mediatype>audio</mediatype>
									<trackindex>2</trackindex>
								</sourcetrack>
								<link>
									<linkclipref>ArmA 3 2020.11.14 - 20.35.01.36.mp4805307625</linkclipref>
								</link>
								<link>
									<linkclipref>ArmA 3 2020.11.14 - 20.35.01.36.mp4536872170</linkclipref>
								</link>
								<link>
									<linkclipref>ArmA 3 2020.11.14 - 20.35.01.36.mp45368721701</linkclipref>
								</link>
								<link>
									<linkclipref>ArmA 3 2020.11.14 - 20.35.01.36.mp4536872171</linkclipref>
								</link>
								<link>
									<linkclipref>ArmA 3 2020.11.14 - 20.35.01.36.mp45368721711</linkclipref>
								</link>
							</clipitem>
							<clipitem id="ArmA 3 2020.11.14 - 20.35.39.37.mp45368721741">
								<name>ArmA 3 2020.11.14 - 20.35.39.37.mp4</name>
								<duration>609</duration>
								<rate>
									<ntsc>TRUE</ntsc>
									<timebase>24</timebase>
								</rate>
								<in>0</in>
								<out>609</out>
								<start>8686</start>
								<end>9295</end>
								<enabled>FALSE</enabled>
								<masterclipid>ArmA 3 2020.11.14 - 20.35.39.37.mp4</masterclipid>
								<logginginfo>
									<scene />
									<shottake />
									<lognote />
									<good>FALSE</good>
								</logginginfo>
								<labels>
									<label2 />
								</labels>
								<comments>
									<mastercomment1 />
									<mastercomment2 />
									<mastercomment3 />
									<mastercomment4 />
								</comments>
								<file id="ArmA 3 2020.11.14 - 20.35.39.37" />
								<filter>
									<effect>
										<name>Audio Levels</name>
										<effectid>audiolevels</effectid>
										<effectcategory>audiolevels</effectcategory>
										<effecttype>audiolevels</effecttype>
										<mediatype>audio</mediatype>
										<parameter>
											<name>Level</name>
											<parameterid>level</parameterid>
											<valuemin>0</valuemin>
											<valuemax>3,98109</valuemax>
											<value>1</value>
										</parameter>
									</effect>
								</filter>
								<filter>
									<effect>
										<name>Audio Pan</name>
										<effectid>audiopan</effectid>
										<effectcategory>audiopan</effectcategory>
										<effecttype>audiopan</effecttype>
										<mediatype>audio</mediatype>
										<parameter>
											<name>Pan</name>
											<parameterid>pan</parameterid>
											<valuemin>-1</valuemin>
											<valuemax>1</valuemax>
											<value>1</value>
										</parameter>
									</effect>
								</filter>
								<sourcetrack>
									<mediatype>audio</mediatype>
									<trackindex>2</trackindex>
								</sourcetrack>
								<link>
									<linkclipref>ArmA 3 2020.11.14 - 20.35.39.37.mp4805307628</linkclipref>
								</link>
								<link>
									<linkclipref>ArmA 3 2020.11.14 - 20.35.39.37.mp4536872173</linkclipref>
								</link>
								<link>
									<linkclipref>ArmA 3 2020.11.14 - 20.35.39.37.mp45368721731</linkclipref>
								</link>
								<link>
									<linkclipref>ArmA 3 2020.11.14 - 20.35.39.37.mp4536872174</linkclipref>
								</link>
								<link>
									<linkclipref>ArmA 3 2020.11.14 - 20.35.39.37.mp45368721741</linkclipref>
								</link>
							</clipitem>
							<clipitem id="ArmA 3 2020.11.14 - 20.41.15.38.mp45368721771">
								<name>ArmA 3 2020.11.14 - 20.41.15.38.mp4</name>
								<duration>809</duration>
								<rate>
									<ntsc>TRUE</ntsc>
									<timebase>24</timebase>
								</rate>
								<in>0</in>
								<out>809</out>
								<start>9296</start>
								<end>10105</end>
								<enabled>FALSE</enabled>
								<masterclipid>ArmA 3 2020.11.14 - 20.41.15.38.mp4</masterclipid>
								<logginginfo>
									<scene />
									<shottake />
									<lognote />
									<good>FALSE</good>
								</logginginfo>
								<labels>
									<label2 />
								</labels>
								<comments>
									<mastercomment1 />
									<mastercomment2 />
									<mastercomment3 />
									<mastercomment4 />
								</comments>
								<file id="ArmA 3 2020.11.14 - 20.41.15.38" />
								<filter>
									<effect>
										<name>Audio Levels</name>
										<effectid>audiolevels</effectid>
										<effectcategory>audiolevels</effectcategory>
										<effecttype>audiolevels</effecttype>
										<mediatype>audio</mediatype>
										<parameter>
											<name>Level</name>
											<parameterid>level</parameterid>
											<valuemin>0</valuemin>
											<valuemax>3,98109</valuemax>
											<value>1</value>
										</parameter>
									</effect>
								</filter>
								<filter>
									<effect>
										<name>Audio Pan</name>
										<effectid>audiopan</effectid>
										<effectcategory>audiopan</effectcategory>
										<effecttype>audiopan</effecttype>
										<mediatype>audio</mediatype>
										<parameter>
											<name>Pan</name>
											<parameterid>pan</parameterid>
											<valuemin>-1</valuemin>
											<valuemax>1</valuemax>
											<value>1</value>
										</parameter>
									</effect>
								</filter>
								<sourcetrack>
									<mediatype>audio</mediatype>
									<trackindex>2</trackindex>
								</sourcetrack>
								<link>
									<linkclipref>ArmA 3 2020.11.14 - 20.41.15.38.mp4805307631</linkclipref>
								</link>
								<link>
									<linkclipref>ArmA 3 2020.11.14 - 20.41.15.38.mp4536872176</linkclipref>
								</link>
								<link>
									<linkclipref>ArmA 3 2020.11.14 - 20.41.15.38.mp45368721761</linkclipref>
								</link>
								<link>
									<linkclipref>ArmA 3 2020.11.14 - 20.41.15.38.mp4536872177</linkclipref>
								</link>
								<link>
									<linkclipref>ArmA 3 2020.11.14 - 20.41.15.38.mp45368721771</linkclipref>
								</link>
							</clipitem>
							<clipitem id="ArmA 3 2020.11.14 - 20.42.08.39.mp45368721801">
								<name>ArmA 3 2020.11.14 - 20.42.08.39.mp4</name>
								<duration>1394</duration>
								<rate>
									<ntsc>TRUE</ntsc>
									<timebase>24</timebase>
								</rate>
								<in>0</in>
								<out>1394</out>
								<start>10106</start>
								<end>11500</end>
								<enabled>FALSE</enabled>
								<masterclipid>ArmA 3 2020.11.14 - 20.42.08.39.mp4</masterclipid>
								<logginginfo>
									<scene />
									<shottake />
									<lognote />
									<good>FALSE</good>
								</logginginfo>
								<labels>
									<label2 />
								</labels>
								<comments>
									<mastercomment1 />
									<mastercomment2 />
									<mastercomment3 />
									<mastercomment4 />
								</comments>
								<file id="ArmA 3 2020.11.14 - 20.42.08.39" />
								<filter>
									<effect>
										<name>Audio Levels</name>
										<effectid>audiolevels</effectid>
										<effectcategory>audiolevels</effectcategory>
										<effecttype>audiolevels</effecttype>
										<mediatype>audio</mediatype>
										<parameter>
											<name>Level</name>
											<parameterid>level</parameterid>
											<valuemin>0</valuemin>
											<valuemax>3,98109</valuemax>
											<value>1</value>
										</parameter>
									</effect>
								</filter>
								<filter>
									<effect>
										<name>Audio Pan</name>
										<effectid>audiopan</effectid>
										<effectcategory>audiopan</effectcategory>
										<effecttype>audiopan</effecttype>
										<mediatype>audio</mediatype>
										<parameter>
											<name>Pan</name>
											<parameterid>pan</parameterid>
											<valuemin>-1</valuemin>
											<valuemax>1</valuemax>
											<value>1</value>
										</parameter>
									</effect>
								</filter>
								<sourcetrack>
									<mediatype>audio</mediatype>
									<trackindex>2</trackindex>
								</sourcetrack>
								<link>
									<linkclipref>ArmA 3 2020.11.14 - 20.42.08.39.mp4805307634</linkclipref>
								</link>
								<link>
									<linkclipref>ArmA 3 2020.11.14 - 20.42.08.39.mp4536872179</linkclipref>
								</link>
								<link>
									<linkclipref>ArmA 3 2020.11.14 - 20.42.08.39.mp45368721791</linkclipref>
								</link>
								<link>
									<linkclipref>ArmA 3 2020.11.14 - 20.42.08.39.mp4536872180</linkclipref>
								</link>
								<link>
									<linkclipref>ArmA 3 2020.11.14 - 20.42.08.39.mp45368721801</linkclipref>
								</link>
							</clipitem>
							<clipitem id="ArmA 3 2020.11.14 - 20.43.49.40.mp45368721831">
								<name>ArmA 3 2020.11.14 - 20.43.49.40.mp4</name>
								<duration>386</duration>
								<rate>
									<ntsc>TRUE</ntsc>
									<timebase>24</timebase>
								</rate>
								<in>0</in>
								<out>386</out>
								<start>11501</start>
								<end>11887</end>
								<enabled>FALSE</enabled>
								<masterclipid>ArmA 3 2020.11.14 - 20.43.49.40.mp4</masterclipid>
								<logginginfo>
									<scene />
									<shottake />
									<lognote />
									<good>FALSE</good>
								</logginginfo>
								<labels>
									<label2 />
								</labels>
								<comments>
									<mastercomment1 />
									<mastercomment2 />
									<mastercomment3 />
									<mastercomment4 />
								</comments>
								<file id="ArmA 3 2020.11.14 - 20.43.49.40" />
								<filter>
									<effect>
										<name>Audio Levels</name>
										<effectid>audiolevels</effectid>
										<effectcategory>audiolevels</effectcategory>
										<effecttype>audiolevels</effecttype>
										<mediatype>audio</mediatype>
										<parameter>
											<name>Level</name>
											<parameterid>level</parameterid>
											<valuemin>0</valuemin>
											<valuemax>3,98109</valuemax>
											<value>1</value>
										</parameter>
									</effect>
								</filter>
								<filter>
									<effect>
										<name>Audio Pan</name>
										<effectid>audiopan</effectid>
										<effectcategory>audiopan</effectcategory>
										<effecttype>audiopan</effecttype>
										<mediatype>audio</mediatype>
										<parameter>
											<name>Pan</name>
											<parameterid>pan</parameterid>
											<valuemin>-1</valuemin>
											<valuemax>1</valuemax>
											<value>1</value>
										</parameter>
									</effect>
								</filter>
								<sourcetrack>
									<mediatype>audio</mediatype>
									<trackindex>2</trackindex>
								</sourcetrack>
								<link>
									<linkclipref>ArmA 3 2020.11.14 - 20.43.49.40.mp4805307637</linkclipref>
								</link>
								<link>
									<linkclipref>ArmA 3 2020.11.14 - 20.43.49.40.mp4536872182</linkclipref>
								</link>
								<link>
									<linkclipref>ArmA 3 2020.11.14 - 20.43.49.40.mp45368721821</linkclipref>
								</link>
								<link>
									<linkclipref>ArmA 3 2020.11.14 - 20.43.49.40.mp4536872183</linkclipref>
								</link>
								<link>
									<linkclipref>ArmA 3 2020.11.14 - 20.43.49.40.mp45368721831</linkclipref>
								</link>
							</clipitem>
							<clipitem id="ArmA 3 2020.11.14 - 20.50.27.41.mp45368721861">
								<name>ArmA 3 2020.11.14 - 20.50.27.41.mp4</name>
								<duration>378</duration>
								<rate>
									<ntsc>TRUE</ntsc>
									<timebase>24</timebase>
								</rate>
								<in>0</in>
								<out>378</out>
								<start>11888</start>
								<end>12266</end>
								<enabled>FALSE</enabled>
								<masterclipid>ArmA 3 2020.11.14 - 20.50.27.41.mp4</masterclipid>
								<logginginfo>
									<scene />
									<shottake />
									<lognote />
									<good>FALSE</good>
								</logginginfo>
								<labels>
									<label2 />
								</labels>
								<comments>
									<mastercomment1 />
									<mastercomment2 />
									<mastercomment3 />
									<mastercomment4 />
								</comments>
								<file id="ArmA 3 2020.11.14 - 20.50.27.41" />
								<filter>
									<effect>
										<name>Audio Levels</name>
										<effectid>audiolevels</effectid>
										<effectcategory>audiolevels</effectcategory>
										<effecttype>audiolevels</effecttype>
										<mediatype>audio</mediatype>
										<parameter>
											<name>Level</name>
											<parameterid>level</parameterid>
											<valuemin>0</valuemin>
											<valuemax>3,98109</valuemax>
											<value>1</value>
										</parameter>
									</effect>
								</filter>
								<filter>
									<effect>
										<name>Audio Pan</name>
										<effectid>audiopan</effectid>
										<effectcategory>audiopan</effectcategory>
										<effecttype>audiopan</effecttype>
										<mediatype>audio</mediatype>
										<parameter>
											<name>Pan</name>
											<parameterid>pan</parameterid>
											<valuemin>-1</valuemin>
											<valuemax>1</valuemax>
											<value>1</value>
										</parameter>
									</effect>
								</filter>
								<sourcetrack>
									<mediatype>audio</mediatype>
									<trackindex>2</trackindex>
								</sourcetrack>
								<link>
									<linkclipref>ArmA 3 2020.11.14 - 20.50.27.41.mp4805307640</linkclipref>
								</link>
								<link>
									<linkclipref>ArmA 3 2020.11.14 - 20.50.27.41.mp4536872185</linkclipref>
								</link>
								<link>
									<linkclipref>ArmA 3 2020.11.14 - 20.50.27.41.mp45368721851</linkclipref>
								</link>
								<link>
									<linkclipref>ArmA 3 2020.11.14 - 20.50.27.41.mp4536872186</linkclipref>
								</link>
								<link>
									<linkclipref>ArmA 3 2020.11.14 - 20.50.27.41.mp45368721861</linkclipref>
								</link>
							</clipitem>
							<clipitem id="ArmA 3 2020.11.14 - 20.53.10.42.mp45368721891">
								<name>ArmA 3 2020.11.14 - 20.53.10.42.mp4</name>
								<duration>774</duration>
								<rate>
									<ntsc>TRUE</ntsc>
									<timebase>24</timebase>
								</rate>
								<in>0</in>
								<out>774</out>
								<start>12267</start>
								<end>13041</end>
								<enabled>FALSE</enabled>
								<masterclipid>ArmA 3 2020.11.14 - 20.53.10.42.mp4</masterclipid>
								<logginginfo>
									<scene />
									<shottake />
									<lognote />
									<good>FALSE</good>
								</logginginfo>
								<labels>
									<label2 />
								</labels>
								<comments>
									<mastercomment1 />
									<mastercomment2 />
									<mastercomment3 />
									<mastercomment4 />
								</comments>
								<file id="ArmA 3 2020.11.14 - 20.53.10.42" />
								<filter>
									<effect>
										<name>Audio Levels</name>
										<effectid>audiolevels</effectid>
										<effectcategory>audiolevels</effectcategory>
										<effecttype>audiolevels</effecttype>
										<mediatype>audio</mediatype>
										<parameter>
											<name>Level</name>
											<parameterid>level</parameterid>
											<valuemin>0</valuemin>
											<valuemax>3,98109</valuemax>
											<value>1</value>
										</parameter>
									</effect>
								</filter>
								<filter>
									<effect>
										<name>Audio Pan</name>
										<effectid>audiopan</effectid>
										<effectcategory>audiopan</effectcategory>
										<effecttype>audiopan</effecttype>
										<mediatype>audio</mediatype>
										<parameter>
											<name>Pan</name>
											<parameterid>pan</parameterid>
											<valuemin>-1</valuemin>
											<valuemax>1</valuemax>
											<value>1</value>
										</parameter>
									</effect>
								</filter>
								<sourcetrack>
									<mediatype>audio</mediatype>
									<trackindex>2</trackindex>
								</sourcetrack>
								<link>
									<linkclipref>ArmA 3 2020.11.14 - 20.53.10.42.mp4805307643</linkclipref>
								</link>
								<link>
									<linkclipref>ArmA 3 2020.11.14 - 20.53.10.42.mp4536872188</linkclipref>
								</link>
								<link>
									<linkclipref>ArmA 3 2020.11.14 - 20.53.10.42.mp45368721881</linkclipref>
								</link>
								<link>
									<linkclipref>ArmA 3 2020.11.14 - 20.53.10.42.mp4536872189</linkclipref>
								</link>
								<link>
									<linkclipref>ArmA 3 2020.11.14 - 20.53.10.42.mp45368721891</linkclipref>
								</link>
							</clipitem>
							<clipitem id="ArmA 3 2020.11.14 - 20.54.51.43.mp45368721921">
								<name>ArmA 3 2020.11.14 - 20.54.51.43.mp4</name>
								<duration>441</duration>
								<rate>
									<ntsc>TRUE</ntsc>
									<timebase>24</timebase>
								</rate>
								<in>0</in>
								<out>441</out>
								<start>13042</start>
								<end>13483</end>
								<enabled>FALSE</enabled>
								<masterclipid>ArmA 3 2020.11.14 - 20.54.51.43.mp4</masterclipid>
								<logginginfo>
									<scene />
									<shottake />
									<lognote />
									<good>FALSE</good>
								</logginginfo>
								<labels>
									<label2 />
								</labels>
								<comments>
									<mastercomment1 />
									<mastercomment2 />
									<mastercomment3 />
									<mastercomment4 />
								</comments>
								<file id="ArmA 3 2020.11.14 - 20.54.51.43" />
								<filter>
									<effect>
										<name>Audio Levels</name>
										<effectid>audiolevels</effectid>
										<effectcategory>audiolevels</effectcategory>
										<effecttype>audiolevels</effecttype>
										<mediatype>audio</mediatype>
										<parameter>
											<name>Level</name>
											<parameterid>level</parameterid>
											<valuemin>0</valuemin>
											<valuemax>3,98109</valuemax>
											<value>1</value>
										</parameter>
									</effect>
								</filter>
								<filter>
									<effect>
										<name>Audio Pan</name>
										<effectid>audiopan</effectid>
										<effectcategory>audiopan</effectcategory>
										<effecttype>audiopan</effecttype>
										<mediatype>audio</mediatype>
										<parameter>
											<name>Pan</name>
											<parameterid>pan</parameterid>
											<valuemin>-1</valuemin>
											<valuemax>1</valuemax>
											<value>1</value>
										</parameter>
									</effect>
								</filter>
								<sourcetrack>
									<mediatype>audio</mediatype>
									<trackindex>2</trackindex>
								</sourcetrack>
								<link>
									<linkclipref>ArmA 3 2020.11.14 - 20.54.51.43.mp4805307646</linkclipref>
								</link>
								<link>
									<linkclipref>ArmA 3 2020.11.14 - 20.54.51.43.mp4536872191</linkclipref>
								</link>
								<link>
									<linkclipref>ArmA 3 2020.11.14 - 20.54.51.43.mp45368721911</linkclipref>
								</link>
								<link>
									<linkclipref>ArmA 3 2020.11.14 - 20.54.51.43.mp4536872192</linkclipref>
								</link>
								<link>
									<linkclipref>ArmA 3 2020.11.14 - 20.54.51.43.mp45368721921</linkclipref>
								</link>
							</clipitem>
							<clipitem id="ArmA 3 2020.11.14 - 20.55.19.44.mp45368721951">
								<name>ArmA 3 2020.11.14 - 20.55.19.44.mp4</name>
								<duration>709</duration>
								<rate>
									<ntsc>TRUE</ntsc>
									<timebase>24</timebase>
								</rate>
								<in>0</in>
								<out>709</out>
								<start>13484</start>
								<end>14193</end>
								<enabled>FALSE</enabled>
								<masterclipid>ArmA 3 2020.11.14 - 20.55.19.44.mp4</masterclipid>
								<logginginfo>
									<scene />
									<shottake />
									<lognote />
									<good>FALSE</good>
								</logginginfo>
								<labels>
									<label2 />
								</labels>
								<comments>
									<mastercomment1 />
									<mastercomment2 />
									<mastercomment3 />
									<mastercomment4 />
								</comments>
								<file id="ArmA 3 2020.11.14 - 20.55.19.44" />
								<filter>
									<effect>
										<name>Audio Levels</name>
										<effectid>audiolevels</effectid>
										<effectcategory>audiolevels</effectcategory>
										<effecttype>audiolevels</effecttype>
										<mediatype>audio</mediatype>
										<parameter>
											<name>Level</name>
											<parameterid>level</parameterid>
											<valuemin>0</valuemin>
											<valuemax>3,98109</valuemax>
											<value>1</value>
										</parameter>
									</effect>
								</filter>
								<filter>
									<effect>
										<name>Audio Pan</name>
										<effectid>audiopan</effectid>
										<effectcategory>audiopan</effectcategory>
										<effecttype>audiopan</effecttype>
										<mediatype>audio</mediatype>
										<parameter>
											<name>Pan</name>
											<parameterid>pan</parameterid>
											<valuemin>-1</valuemin>
											<valuemax>1</valuemax>
											<value>1</value>
										</parameter>
									</effect>
								</filter>
								<sourcetrack>
									<mediatype>audio</mediatype>
									<trackindex>2</trackindex>
								</sourcetrack>
								<link>
									<linkclipref>ArmA 3 2020.11.14 - 20.55.19.44.mp4805307649</linkclipref>
								</link>
								<link>
									<linkclipref>ArmA 3 2020.11.14 - 20.55.19.44.mp4536872194</linkclipref>
								</link>
								<link>
									<linkclipref>ArmA 3 2020.11.14 - 20.55.19.44.mp45368721941</linkclipref>
								</link>
								<link>
									<linkclipref>ArmA 3 2020.11.14 - 20.55.19.44.mp4536872195</linkclipref>
								</link>
								<link>
									<linkclipref>ArmA 3 2020.11.14 - 20.55.19.44.mp45368721951</linkclipref>
								</link>
							</clipitem>
							<clipitem id="ArmA 3 2020.11.14 - 20.58.46.45.mp45368721981">
								<name>ArmA 3 2020.11.14 - 20.58.46.45.mp4</name>
								<duration>1428</duration>
								<rate>
									<ntsc>TRUE</ntsc>
									<timebase>24</timebase>
								</rate>
								<in>0</in>
								<out>1428</out>
								<start>14194</start>
								<end>15622</end>
								<enabled>FALSE</enabled>
								<masterclipid>ArmA 3 2020.11.14 - 20.58.46.45.mp4</masterclipid>
								<logginginfo>
									<scene />
									<shottake />
									<lognote />
									<good>FALSE</good>
								</logginginfo>
								<labels>
									<label2 />
								</labels>
								<comments>
									<mastercomment1 />
									<mastercomment2 />
									<mastercomment3 />
									<mastercomment4 />
								</comments>
								<file id="ArmA 3 2020.11.14 - 20.58.46.45" />
								<filter>
									<effect>
										<name>Audio Levels</name>
										<effectid>audiolevels</effectid>
										<effectcategory>audiolevels</effectcategory>
										<effecttype>audiolevels</effecttype>
										<mediatype>audio</mediatype>
										<parameter>
											<name>Level</name>
											<parameterid>level</parameterid>
											<valuemin>0</valuemin>
											<valuemax>3,98109</valuemax>
											<value>1</value>
										</parameter>
									</effect>
								</filter>
								<filter>
									<effect>
										<name>Audio Pan</name>
										<effectid>audiopan</effectid>
										<effectcategory>audiopan</effectcategory>
										<effecttype>audiopan</effecttype>
										<mediatype>audio</mediatype>
										<parameter>
											<name>Pan</name>
											<parameterid>pan</parameterid>
											<valuemin>-1</valuemin>
											<valuemax>1</valuemax>
											<value>1</value>
										</parameter>
									</effect>
								</filter>
								<sourcetrack>
									<mediatype>audio</mediatype>
									<trackindex>2</trackindex>
								</sourcetrack>
								<link>
									<linkclipref>ArmA 3 2020.11.14 - 20.58.46.45.mp4805307652</linkclipref>
								</link>
								<link>
									<linkclipref>ArmA 3 2020.11.14 - 20.58.46.45.mp4536872197</linkclipref>
								</link>
								<link>
									<linkclipref>ArmA 3 2020.11.14 - 20.58.46.45.mp45368721971</linkclipref>
								</link>
								<link>
									<linkclipref>ArmA 3 2020.11.14 - 20.58.46.45.mp4536872198</linkclipref>
								</link>
								<link>
									<linkclipref>ArmA 3 2020.11.14 - 20.58.46.45.mp45368721981</linkclipref>
								</link>
							</clipitem>
							<clipitem id="ArmA 3 2020.11.14 - 21.00.16.46.mp45368722011">
								<name>ArmA 3 2020.11.14 - 21.00.16.46.mp4</name>
								<duration>562</duration>
								<rate>
									<ntsc>TRUE</ntsc>
									<timebase>24</timebase>
								</rate>
								<in>0</in>
								<out>562</out>
								<start>15623</start>
								<end>16185</end>
								<enabled>FALSE</enabled>
								<masterclipid>ArmA 3 2020.11.14 - 21.00.16.46.mp4</masterclipid>
								<logginginfo>
									<scene />
									<shottake />
									<lognote />
									<good>FALSE</good>
								</logginginfo>
								<labels>
									<label2 />
								</labels>
								<comments>
									<mastercomment1 />
									<mastercomment2 />
									<mastercomment3 />
									<mastercomment4 />
								</comments>
								<file id="ArmA 3 2020.11.14 - 21.00.16.46" />
								<filter>
									<effect>
										<name>Audio Levels</name>
										<effectid>audiolevels</effectid>
										<effectcategory>audiolevels</effectcategory>
										<effecttype>audiolevels</effecttype>
										<mediatype>audio</mediatype>
										<parameter>
											<name>Level</name>
											<parameterid>level</parameterid>
											<valuemin>0</valuemin>
											<valuemax>3,98109</valuemax>
											<value>1</value>
										</parameter>
									</effect>
								</filter>
								<filter>
									<effect>
										<name>Audio Pan</name>
										<effectid>audiopan</effectid>
										<effectcategory>audiopan</effectcategory>
										<effecttype>audiopan</effecttype>
										<mediatype>audio</mediatype>
										<parameter>
											<name>Pan</name>
											<parameterid>pan</parameterid>
											<valuemin>-1</valuemin>
											<valuemax>1</valuemax>
											<value>1</value>
										</parameter>
									</effect>
								</filter>
								<sourcetrack>
									<mediatype>audio</mediatype>
									<trackindex>2</trackindex>
								</sourcetrack>
								<link>
									<linkclipref>ArmA 3 2020.11.14 - 21.00.16.46.mp4805307655</linkclipref>
								</link>
								<link>
									<linkclipref>ArmA 3 2020.11.14 - 21.00.16.46.mp4536872200</linkclipref>
								</link>
								<link>
									<linkclipref>ArmA 3 2020.11.14 - 21.00.16.46.mp45368722001</linkclipref>
								</link>
								<link>
									<linkclipref>ArmA 3 2020.11.14 - 21.00.16.46.mp4536872201</linkclipref>
								</link>
								<link>
									<linkclipref>ArmA 3 2020.11.14 - 21.00.16.46.mp45368722011</linkclipref>
								</link>
							</clipitem>
							<clipitem id="ArmA 3 2020.11.14 - 21.00.51.47.mp45368722041">
								<name>ArmA 3 2020.11.14 - 21.00.51.47.mp4</name>
								<duration>691</duration>
								<rate>
									<ntsc>TRUE</ntsc>
									<timebase>24</timebase>
								</rate>
								<in>0</in>
								<out>691</out>
								<start>16186</start>
								<end>16877</end>
								<enabled>FALSE</enabled>
								<masterclipid>ArmA 3 2020.11.14 - 21.00.51.47.mp4</masterclipid>
								<logginginfo>
									<scene />
									<shottake />
									<lognote />
									<good>FALSE</good>
								</logginginfo>
								<labels>
									<label2 />
								</labels>
								<comments>
									<mastercomment1 />
									<mastercomment2 />
									<mastercomment3 />
									<mastercomment4 />
								</comments>
								<file id="ArmA 3 2020.11.14 - 21.00.51.47" />
								<filter>
									<effect>
										<name>Audio Levels</name>
										<effectid>audiolevels</effectid>
										<effectcategory>audiolevels</effectcategory>
										<effecttype>audiolevels</effecttype>
										<mediatype>audio</mediatype>
										<parameter>
											<name>Level</name>
											<parameterid>level</parameterid>
											<valuemin>0</valuemin>
											<valuemax>3,98109</valuemax>
											<value>1</value>
										</parameter>
									</effect>
								</filter>
								<filter>
									<effect>
										<name>Audio Pan</name>
										<effectid>audiopan</effectid>
										<effectcategory>audiopan</effectcategory>
										<effecttype>audiopan</effecttype>
										<mediatype>audio</mediatype>
										<parameter>
											<name>Pan</name>
											<parameterid>pan</parameterid>
											<valuemin>-1</valuemin>
											<valuemax>1</valuemax>
											<value>1</value>
										</parameter>
									</effect>
								</filter>
								<sourcetrack>
									<mediatype>audio</mediatype>
									<trackindex>2</trackindex>
								</sourcetrack>
								<link>
									<linkclipref>ArmA 3 2020.11.14 - 21.00.51.47.mp4805307658</linkclipref>
								</link>
								<link>
									<linkclipref>ArmA 3 2020.11.14 - 21.00.51.47.mp4536872203</linkclipref>
								</link>
								<link>
									<linkclipref>ArmA 3 2020.11.14 - 21.00.51.47.mp45368722031</linkclipref>
								</link>
								<link>
									<linkclipref>ArmA 3 2020.11.14 - 21.00.51.47.mp4536872204</linkclipref>
								</link>
								<link>
									<linkclipref>ArmA 3 2020.11.14 - 21.00.51.47.mp45368722041</linkclipref>
								</link>
							</clipitem>
							<clipitem id="ArmA 3 2020.11.14 - 21.01.54.48.mp45368722071">
								<name>ArmA 3 2020.11.14 - 21.01.54.48.mp4</name>
								<duration>911</duration>
								<rate>
									<ntsc>TRUE</ntsc>
									<timebase>24</timebase>
								</rate>
								<in>0</in>
								<out>911</out>
								<start>16878</start>
								<end>17789</end>
								<enabled>FALSE</enabled>
								<masterclipid>ArmA 3 2020.11.14 - 21.01.54.48.mp4</masterclipid>
								<logginginfo>
									<scene />
									<shottake />
									<lognote />
									<good>FALSE</good>
								</logginginfo>
								<labels>
									<label2 />
								</labels>
								<comments>
									<mastercomment1 />
									<mastercomment2 />
									<mastercomment3 />
									<mastercomment4 />
								</comments>
								<file id="ArmA 3 2020.11.14 - 21.01.54.48" />
								<filter>
									<effect>
										<name>Audio Levels</name>
										<effectid>audiolevels</effectid>
										<effectcategory>audiolevels</effectcategory>
										<effecttype>audiolevels</effecttype>
										<mediatype>audio</mediatype>
										<parameter>
											<name>Level</name>
											<parameterid>level</parameterid>
											<valuemin>0</valuemin>
											<valuemax>3,98109</valuemax>
											<value>1</value>
										</parameter>
									</effect>
								</filter>
								<filter>
									<effect>
										<name>Audio Pan</name>
										<effectid>audiopan</effectid>
										<effectcategory>audiopan</effectcategory>
										<effecttype>audiopan</effecttype>
										<mediatype>audio</mediatype>
										<parameter>
											<name>Pan</name>
											<parameterid>pan</parameterid>
											<valuemin>-1</valuemin>
											<valuemax>1</valuemax>
											<value>1</value>
										</parameter>
									</effect>
								</filter>
								<sourcetrack>
									<mediatype>audio</mediatype>
									<trackindex>2</trackindex>
								</sourcetrack>
								<link>
									<linkclipref>ArmA 3 2020.11.14 - 21.01.54.48.mp4805307661</linkclipref>
								</link>
								<link>
									<linkclipref>ArmA 3 2020.11.14 - 21.01.54.48.mp4536872206</linkclipref>
								</link>
								<link>
									<linkclipref>ArmA 3 2020.11.14 - 21.01.54.48.mp45368722061</linkclipref>
								</link>
								<link>
									<linkclipref>ArmA 3 2020.11.14 - 21.01.54.48.mp4536872207</linkclipref>
								</link>
								<link>
									<linkclipref>ArmA 3 2020.11.14 - 21.01.54.48.mp45368722071</linkclipref>
								</link>
							</clipitem>
							<clipitem id="ArmA 3 2020.11.14 - 21.03.09.49.mp45368722101">
								<name>ArmA 3 2020.11.14 - 21.03.09.49.mp4</name>
								<duration>577</duration>
								<rate>
									<ntsc>TRUE</ntsc>
									<timebase>24</timebase>
								</rate>
								<in>0</in>
								<out>577</out>
								<start>17790</start>
								<end>18367</end>
								<enabled>FALSE</enabled>
								<masterclipid>ArmA 3 2020.11.14 - 21.03.09.49.mp4</masterclipid>
								<logginginfo>
									<scene />
									<shottake />
									<lognote />
									<good>FALSE</good>
								</logginginfo>
								<labels>
									<label2 />
								</labels>
								<comments>
									<mastercomment1 />
									<mastercomment2 />
									<mastercomment3 />
									<mastercomment4 />
								</comments>
								<file id="ArmA 3 2020.11.14 - 21.03.09.49" />
								<filter>
									<effect>
										<name>Audio Levels</name>
										<effectid>audiolevels</effectid>
										<effectcategory>audiolevels</effectcategory>
										<effecttype>audiolevels</effecttype>
										<mediatype>audio</mediatype>
										<parameter>
											<name>Level</name>
											<parameterid>level</parameterid>
											<valuemin>0</valuemin>
											<valuemax>3,98109</valuemax>
											<value>1</value>
										</parameter>
									</effect>
								</filter>
								<filter>
									<effect>
										<name>Audio Pan</name>
										<effectid>audiopan</effectid>
										<effectcategory>audiopan</effectcategory>
										<effecttype>audiopan</effecttype>
										<mediatype>audio</mediatype>
										<parameter>
											<name>Pan</name>
											<parameterid>pan</parameterid>
											<valuemin>-1</valuemin>
											<valuemax>1</valuemax>
											<value>1</value>
										</parameter>
									</effect>
								</filter>
								<sourcetrack>
									<mediatype>audio</mediatype>
									<trackindex>2</trackindex>
								</sourcetrack>
								<link>
									<linkclipref>ArmA 3 2020.11.14 - 21.03.09.49.mp4805307664</linkclipref>
								</link>
								<link>
									<linkclipref>ArmA 3 2020.11.14 - 21.03.09.49.mp4536872209</linkclipref>
								</link>
								<link>
									<linkclipref>ArmA 3 2020.11.14 - 21.03.09.49.mp45368722091</linkclipref>
								</link>
								<link>
									<linkclipref>ArmA 3 2020.11.14 - 21.03.09.49.mp4536872210</linkclipref>
								</link>
								<link>
									<linkclipref>ArmA 3 2020.11.14 - 21.03.09.49.mp45368722101</linkclipref>
								</link>
							</clipitem>
							<clipitem id="ArmA 3 2020.11.14 - 21.04.25.50.mp45368722131">
								<name>ArmA 3 2020.11.14 - 21.04.25.50.mp4</name>
								<duration>573</duration>
								<rate>
									<ntsc>TRUE</ntsc>
									<timebase>24</timebase>
								</rate>
								<in>0</in>
								<out>573</out>
								<start>18368</start>
								<end>18941</end>
								<enabled>FALSE</enabled>
								<masterclipid>ArmA 3 2020.11.14 - 21.04.25.50.mp4</masterclipid>
								<logginginfo>
									<scene />
									<shottake />
									<lognote />
									<good>FALSE</good>
								</logginginfo>
								<labels>
									<label2 />
								</labels>
								<comments>
									<mastercomment1 />
									<mastercomment2 />
									<mastercomment3 />
									<mastercomment4 />
								</comments>
								<file id="ArmA 3 2020.11.14 - 21.04.25.50" />
								<filter>
									<effect>
										<name>Audio Levels</name>
										<effectid>audiolevels</effectid>
										<effectcategory>audiolevels</effectcategory>
										<effecttype>audiolevels</effecttype>
										<mediatype>audio</mediatype>
										<parameter>
											<name>Level</name>
											<parameterid>level</parameterid>
											<valuemin>0</valuemin>
											<valuemax>3,98109</valuemax>
											<value>1</value>
										</parameter>
									</effect>
								</filter>
								<filter>
									<effect>
										<name>Audio Pan</name>
										<effectid>audiopan</effectid>
										<effectcategory>audiopan</effectcategory>
										<effecttype>audiopan</effecttype>
										<mediatype>audio</mediatype>
										<parameter>
											<name>Pan</name>
											<parameterid>pan</parameterid>
											<valuemin>-1</valuemin>
											<valuemax>1</valuemax>
											<value>1</value>
										</parameter>
									</effect>
								</filter>
								<sourcetrack>
									<mediatype>audio</mediatype>
									<trackindex>2</trackindex>
								</sourcetrack>
								<link>
									<linkclipref>ArmA 3 2020.11.14 - 21.04.25.50.mp4805307667</linkclipref>
								</link>
								<link>
									<linkclipref>ArmA 3 2020.11.14 - 21.04.25.50.mp4536872212</linkclipref>
								</link>
								<link>
									<linkclipref>ArmA 3 2020.11.14 - 21.04.25.50.mp45368722121</linkclipref>
								</link>
								<link>
									<linkclipref>ArmA 3 2020.11.14 - 21.04.25.50.mp4536872213</linkclipref>
								</link>
								<link>
									<linkclipref>ArmA 3 2020.11.14 - 21.04.25.50.mp45368722131</linkclipref>
								</link>
							</clipitem>
							<clipitem id="ArmA 3 2020.11.14 - 21.05.14.51.mp45368722161">
								<name>ArmA 3 2020.11.14 - 21.05.14.51.mp4</name>
								<duration>643</duration>
								<rate>
									<ntsc>TRUE</ntsc>
									<timebase>24</timebase>
								</rate>
								<in>0</in>
								<out>643</out>
								<start>18942</start>
								<end>19585</end>
								<enabled>FALSE</enabled>
								<masterclipid>ArmA 3 2020.11.14 - 21.05.14.51.mp4</masterclipid>
								<logginginfo>
									<scene />
									<shottake />
									<lognote />
									<good>FALSE</good>
								</logginginfo>
								<labels>
									<label2 />
								</labels>
								<comments>
									<mastercomment1 />
									<mastercomment2 />
									<mastercomment3 />
									<mastercomment4 />
								</comments>
								<file id="ArmA 3 2020.11.14 - 21.05.14.51" />
								<filter>
									<effect>
										<name>Audio Levels</name>
										<effectid>audiolevels</effectid>
										<effectcategory>audiolevels</effectcategory>
										<effecttype>audiolevels</effecttype>
										<mediatype>audio</mediatype>
										<parameter>
											<name>Level</name>
											<parameterid>level</parameterid>
											<valuemin>0</valuemin>
											<valuemax>3,98109</valuemax>
											<value>1</value>
										</parameter>
									</effect>
								</filter>
								<filter>
									<effect>
										<name>Audio Pan</name>
										<effectid>audiopan</effectid>
										<effectcategory>audiopan</effectcategory>
										<effecttype>audiopan</effecttype>
										<mediatype>audio</mediatype>
										<parameter>
											<name>Pan</name>
											<parameterid>pan</parameterid>
											<valuemin>-1</valuemin>
											<valuemax>1</valuemax>
											<value>1</value>
										</parameter>
									</effect>
								</filter>
								<sourcetrack>
									<mediatype>audio</mediatype>
									<trackindex>2</trackindex>
								</sourcetrack>
								<link>
									<linkclipref>ArmA 3 2020.11.14 - 21.05.14.51.mp4805307670</linkclipref>
								</link>
								<link>
									<linkclipref>ArmA 3 2020.11.14 - 21.05.14.51.mp4536872215</linkclipref>
								</link>
								<link>
									<linkclipref>ArmA 3 2020.11.14 - 21.05.14.51.mp45368722151</linkclipref>
								</link>
								<link>
									<linkclipref>ArmA 3 2020.11.14 - 21.05.14.51.mp4536872216</linkclipref>
								</link>
								<link>
									<linkclipref>ArmA 3 2020.11.14 - 21.05.14.51.mp45368722161</linkclipref>
								</link>
							</clipitem>
							<clipitem id="ArmA 3 2020.11.14 - 21.05.51.52.mp45368722191">
								<name>ArmA 3 2020.11.14 - 21.05.51.52.mp4</name>
								<duration>832</duration>
								<rate>
									<ntsc>TRUE</ntsc>
									<timebase>24</timebase>
								</rate>
								<in>0</in>
								<out>832</out>
								<start>19586</start>
								<end>20418</end>
								<enabled>FALSE</enabled>
								<masterclipid>ArmA 3 2020.11.14 - 21.05.51.52.mp4</masterclipid>
								<logginginfo>
									<scene />
									<shottake />
									<lognote />
									<good>FALSE</good>
								</logginginfo>
								<labels>
									<label2 />
								</labels>
								<comments>
									<mastercomment1 />
									<mastercomment2 />
									<mastercomment3 />
									<mastercomment4 />
								</comments>
								<file id="ArmA 3 2020.11.14 - 21.05.51.52" />
								<filter>
									<effect>
										<name>Audio Levels</name>
										<effectid>audiolevels</effectid>
										<effectcategory>audiolevels</effectcategory>
										<effecttype>audiolevels</effecttype>
										<mediatype>audio</mediatype>
										<parameter>
											<name>Level</name>
											<parameterid>level</parameterid>
											<valuemin>0</valuemin>
											<valuemax>3,98109</valuemax>
											<value>1</value>
										</parameter>
									</effect>
								</filter>
								<filter>
									<effect>
										<name>Audio Pan</name>
										<effectid>audiopan</effectid>
										<effectcategory>audiopan</effectcategory>
										<effecttype>audiopan</effecttype>
										<mediatype>audio</mediatype>
										<parameter>
											<name>Pan</name>
											<parameterid>pan</parameterid>
											<valuemin>-1</valuemin>
											<valuemax>1</valuemax>
											<value>1</value>
										</parameter>
									</effect>
								</filter>
								<sourcetrack>
									<mediatype>audio</mediatype>
									<trackindex>2</trackindex>
								</sourcetrack>
								<link>
									<linkclipref>ArmA 3 2020.11.14 - 21.05.51.52.mp4805307673</linkclipref>
								</link>
								<link>
									<linkclipref>ArmA 3 2020.11.14 - 21.05.51.52.mp4536872218</linkclipref>
								</link>
								<link>
									<linkclipref>ArmA 3 2020.11.14 - 21.05.51.52.mp45368722181</linkclipref>
								</link>
								<link>
									<linkclipref>ArmA 3 2020.11.14 - 21.05.51.52.mp4536872219</linkclipref>
								</link>
								<link>
									<linkclipref>ArmA 3 2020.11.14 - 21.05.51.52.mp45368722191</linkclipref>
								</link>
							</clipitem>
							<clipitem id="ArmA 3 2020.11.14 - 21.06.34.53.mp45368722221">
								<name>ArmA 3 2020.11.14 - 21.06.34.53.mp4</name>
								<duration>1018</duration>
								<rate>
									<ntsc>TRUE</ntsc>
									<timebase>24</timebase>
								</rate>
								<in>0</in>
								<out>1018</out>
								<start>20419</start>
								<end>21437</end>
								<enabled>FALSE</enabled>
								<masterclipid>ArmA 3 2020.11.14 - 21.06.34.53.mp4</masterclipid>
								<logginginfo>
									<scene />
									<shottake />
									<lognote />
									<good>FALSE</good>
								</logginginfo>
								<labels>
									<label2 />
								</labels>
								<comments>
									<mastercomment1 />
									<mastercomment2 />
									<mastercomment3 />
									<mastercomment4 />
								</comments>
								<file id="ArmA 3 2020.11.14 - 21.06.34.53" />
								<filter>
									<effect>
										<name>Audio Levels</name>
										<effectid>audiolevels</effectid>
										<effectcategory>audiolevels</effectcategory>
										<effecttype>audiolevels</effecttype>
										<mediatype>audio</mediatype>
										<parameter>
											<name>Level</name>
											<parameterid>level</parameterid>
											<valuemin>0</valuemin>
											<valuemax>3,98109</valuemax>
											<value>1</value>
										</parameter>
									</effect>
								</filter>
								<filter>
									<effect>
										<name>Audio Pan</name>
										<effectid>audiopan</effectid>
										<effectcategory>audiopan</effectcategory>
										<effecttype>audiopan</effecttype>
										<mediatype>audio</mediatype>
										<parameter>
											<name>Pan</name>
											<parameterid>pan</parameterid>
											<valuemin>-1</valuemin>
											<valuemax>1</valuemax>
											<value>1</value>
										</parameter>
									</effect>
								</filter>
								<sourcetrack>
									<mediatype>audio</mediatype>
									<trackindex>2</trackindex>
								</sourcetrack>
								<link>
									<linkclipref>ArmA 3 2020.11.14 - 21.06.34.53.mp4805307676</linkclipref>
								</link>
								<link>
									<linkclipref>ArmA 3 2020.11.14 - 21.06.34.53.mp4536872221</linkclipref>
								</link>
								<link>
									<linkclipref>ArmA 3 2020.11.14 - 21.06.34.53.mp45368722211</linkclipref>
								</link>
								<link>
									<linkclipref>ArmA 3 2020.11.14 - 21.06.34.53.mp4536872222</linkclipref>
								</link>
								<link>
									<linkclipref>ArmA 3 2020.11.14 - 21.06.34.53.mp45368722221</linkclipref>
								</link>
							</clipitem>
							<clipitem id="ArmA 3 2020.11.14 - 21.07.39.54.mp45368722251">
								<name>ArmA 3 2020.11.14 - 21.07.39.54.mp4</name>
								<duration>2137</duration>
								<rate>
									<ntsc>TRUE</ntsc>
									<timebase>24</timebase>
								</rate>
								<in>0</in>
								<out>2137</out>
								<start>21438</start>
								<end>23575</end>
								<enabled>FALSE</enabled>
								<masterclipid>ArmA 3 2020.11.14 - 21.07.39.54.mp4</masterclipid>
								<logginginfo>
									<scene />
									<shottake />
									<lognote />
									<good>FALSE</good>
								</logginginfo>
								<labels>
									<label2 />
								</labels>
								<comments>
									<mastercomment1 />
									<mastercomment2 />
									<mastercomment3 />
									<mastercomment4 />
								</comments>
								<file id="ArmA 3 2020.11.14 - 21.07.39.54" />
								<filter>
									<effect>
										<name>Audio Levels</name>
										<effectid>audiolevels</effectid>
										<effectcategory>audiolevels</effectcategory>
										<effecttype>audiolevels</effecttype>
										<mediatype>audio</mediatype>
										<parameter>
											<name>Level</name>
											<parameterid>level</parameterid>
											<valuemin>0</valuemin>
											<valuemax>3,98109</valuemax>
											<value>1</value>
										</parameter>
									</effect>
								</filter>
								<filter>
									<effect>
										<name>Audio Pan</name>
										<effectid>audiopan</effectid>
										<effectcategory>audiopan</effectcategory>
										<effecttype>audiopan</effecttype>
										<mediatype>audio</mediatype>
										<parameter>
											<name>Pan</name>
											<parameterid>pan</parameterid>
											<valuemin>-1</valuemin>
											<valuemax>1</valuemax>
											<value>1</value>
										</parameter>
									</effect>
								</filter>
								<sourcetrack>
									<mediatype>audio</mediatype>
									<trackindex>2</trackindex>
								</sourcetrack>
								<link>
									<linkclipref>ArmA 3 2020.11.14 - 21.07.39.54.mp4805307679</linkclipref>
								</link>
								<link>
									<linkclipref>ArmA 3 2020.11.14 - 21.07.39.54.mp4536872224</linkclipref>
								</link>
								<link>
									<linkclipref>ArmA 3 2020.11.14 - 21.07.39.54.mp45368722241</linkclipref>
								</link>
								<link>
									<linkclipref>ArmA 3 2020.11.14 - 21.07.39.54.mp4536872225</linkclipref>
								</link>
								<link>
									<linkclipref>ArmA 3 2020.11.14 - 21.07.39.54.mp45368722251</linkclipref>
								</link>
							</clipitem>
							<clipitem id="ArmA 3 2020.11.14 - 21.12.09.55.mp45368722281">
								<name>ArmA 3 2020.11.14 - 21.12.09.55.mp4</name>
								<duration>4968</duration>
								<rate>
									<ntsc>TRUE</ntsc>
									<timebase>24</timebase>
								</rate>
								<in>0</in>
								<out>4968</out>
								<start>23576</start>
								<end>28544</end>
								<enabled>FALSE</enabled>
								<masterclipid>ArmA 3 2020.11.14 - 21.12.09.55.mp4</masterclipid>
								<logginginfo>
									<scene />
									<shottake />
									<lognote />
									<good>FALSE</good>
								</logginginfo>
								<labels>
									<label2 />
								</labels>
								<comments>
									<mastercomment1 />
									<mastercomment2 />
									<mastercomment3 />
									<mastercomment4 />
								</comments>
								<file id="ArmA 3 2020.11.14 - 21.12.09.55" />
								<filter>
									<effect>
										<name>Audio Levels</name>
										<effectid>audiolevels</effectid>
										<effectcategory>audiolevels</effectcategory>
										<effecttype>audiolevels</effecttype>
										<mediatype>audio</mediatype>
										<parameter>
											<name>Level</name>
											<parameterid>level</parameterid>
											<valuemin>0</valuemin>
											<valuemax>3,98109</valuemax>
											<value>1</value>
										</parameter>
									</effect>
								</filter>
								<filter>
									<effect>
										<name>Audio Pan</name>
										<effectid>audiopan</effectid>
										<effectcategory>audiopan</effectcategory>
										<effecttype>audiopan</effecttype>
										<mediatype>audio</mediatype>
										<parameter>
											<name>Pan</name>
											<parameterid>pan</parameterid>
											<valuemin>-1</valuemin>
											<valuemax>1</valuemax>
											<value>1</value>
										</parameter>
									</effect>
								</filter>
								<sourcetrack>
									<mediatype>audio</mediatype>
									<trackindex>2</trackindex>
								</sourcetrack>
								<link>
									<linkclipref>ArmA 3 2020.11.14 - 21.12.09.55.mp4805307682</linkclipref>
								</link>
								<link>
									<linkclipref>ArmA 3 2020.11.14 - 21.12.09.55.mp4536872227</linkclipref>
								</link>
								<link>
									<linkclipref>ArmA 3 2020.11.14 - 21.12.09.55.mp45368722271</linkclipref>
								</link>
								<link>
									<linkclipref>ArmA 3 2020.11.14 - 21.12.09.55.mp4536872228</linkclipref>
								</link>
								<link>
									<linkclipref>ArmA 3 2020.11.14 - 21.12.09.55.mp45368722281</linkclipref>
								</link>
							</clipitem>
							<clipitem id="ArmA 3 2020.11.14 - 21.17.09.56.mp45368722311">
								<name>ArmA 3 2020.11.14 - 21.17.09.56.mp4</name>
								<duration>2046</duration>
								<rate>
									<ntsc>TRUE</ntsc>
									<timebase>24</timebase>
								</rate>
								<in>0</in>
								<out>2046</out>
								<start>28545</start>
								<end>30591</end>
								<enabled>FALSE</enabled>
								<masterclipid>ArmA 3 2020.11.14 - 21.17.09.56.mp4</masterclipid>
								<logginginfo>
									<scene />
									<shottake />
									<lognote />
									<good>FALSE</good>
								</logginginfo>
								<labels>
									<label2 />
								</labels>
								<comments>
									<mastercomment1 />
									<mastercomment2 />
									<mastercomment3 />
									<mastercomment4 />
								</comments>
								<file id="ArmA 3 2020.11.14 - 21.17.09.56" />
								<filter>
									<effect>
										<name>Audio Levels</name>
										<effectid>audiolevels</effectid>
										<effectcategory>audiolevels</effectcategory>
										<effecttype>audiolevels</effecttype>
										<mediatype>audio</mediatype>
										<parameter>
											<name>Level</name>
											<parameterid>level</parameterid>
											<valuemin>0</valuemin>
											<valuemax>3,98109</valuemax>
											<value>1</value>
										</parameter>
									</effect>
								</filter>
								<filter>
									<effect>
										<name>Audio Pan</name>
										<effectid>audiopan</effectid>
										<effectcategory>audiopan</effectcategory>
										<effecttype>audiopan</effecttype>
										<mediatype>audio</mediatype>
										<parameter>
											<name>Pan</name>
											<parameterid>pan</parameterid>
											<valuemin>-1</valuemin>
											<valuemax>1</valuemax>
											<value>1</value>
										</parameter>
									</effect>
								</filter>
								<sourcetrack>
									<mediatype>audio</mediatype>
									<trackindex>2</trackindex>
								</sourcetrack>
								<link>
									<linkclipref>ArmA 3 2020.11.14 - 21.17.09.56.mp4805307685</linkclipref>
								</link>
								<link>
									<linkclipref>ArmA 3 2020.11.14 - 21.17.09.56.mp4536872230</linkclipref>
								</link>
								<link>
									<linkclipref>ArmA 3 2020.11.14 - 21.17.09.56.mp45368722301</linkclipref>
								</link>
								<link>
									<linkclipref>ArmA 3 2020.11.14 - 21.17.09.56.mp4536872231</linkclipref>
								</link>
								<link>
									<linkclipref>ArmA 3 2020.11.14 - 21.17.09.56.mp45368722311</linkclipref>
								</link>
							</clipitem>
							<clipitem id="ArmA 3 2020.11.14 - 21.18.42.57.mp45368722341">
								<name>ArmA 3 2020.11.14 - 21.18.42.57.mp4</name>
								<duration>648</duration>
								<rate>
									<ntsc>TRUE</ntsc>
									<timebase>24</timebase>
								</rate>
								<in>0</in>
								<out>648</out>
								<start>30592</start>
								<end>31240</end>
								<enabled>FALSE</enabled>
								<masterclipid>ArmA 3 2020.11.14 - 21.18.42.57.mp4</masterclipid>
								<logginginfo>
									<scene />
									<shottake />
									<lognote />
									<good>FALSE</good>
								</logginginfo>
								<labels>
									<label2 />
								</labels>
								<comments>
									<mastercomment1 />
									<mastercomment2 />
									<mastercomment3 />
									<mastercomment4 />
								</comments>
								<file id="ArmA 3 2020.11.14 - 21.18.42.57" />
								<filter>
									<effect>
										<name>Audio Levels</name>
										<effectid>audiolevels</effectid>
										<effectcategory>audiolevels</effectcategory>
										<effecttype>audiolevels</effecttype>
										<mediatype>audio</mediatype>
										<parameter>
											<name>Level</name>
											<parameterid>level</parameterid>
											<valuemin>0</valuemin>
											<valuemax>3,98109</valuemax>
											<value>1</value>
										</parameter>
									</effect>
								</filter>
								<filter>
									<effect>
										<name>Audio Pan</name>
										<effectid>audiopan</effectid>
										<effectcategory>audiopan</effectcategory>
										<effecttype>audiopan</effecttype>
										<mediatype>audio</mediatype>
										<parameter>
											<name>Pan</name>
											<parameterid>pan</parameterid>
											<valuemin>-1</valuemin>
											<valuemax>1</valuemax>
											<value>1</value>
										</parameter>
									</effect>
								</filter>
								<sourcetrack>
									<mediatype>audio</mediatype>
									<trackindex>2</trackindex>
								</sourcetrack>
								<link>
									<linkclipref>ArmA 3 2020.11.14 - 21.18.42.57.mp4805307688</linkclipref>
								</link>
								<link>
									<linkclipref>ArmA 3 2020.11.14 - 21.18.42.57.mp4536872233</linkclipref>
								</link>
								<link>
									<linkclipref>ArmA 3 2020.11.14 - 21.18.42.57.mp45368722331</linkclipref>
								</link>
								<link>
									<linkclipref>ArmA 3 2020.11.14 - 21.18.42.57.mp4536872234</linkclipref>
								</link>
								<link>
									<linkclipref>ArmA 3 2020.11.14 - 21.18.42.57.mp45368722341</linkclipref>
								</link>
							</clipitem>
							<clipitem id="ArmA 3 2020.11.14 - 21.19.27.58.mp45368722371">
								<name>ArmA 3 2020.11.14 - 21.19.27.58.mp4</name>
								<duration>600</duration>
								<rate>
									<ntsc>TRUE</ntsc>
									<timebase>24</timebase>
								</rate>
								<in>0</in>
								<out>600</out>
								<start>31241</start>
								<end>31841</end>
								<enabled>FALSE</enabled>
								<masterclipid>ArmA 3 2020.11.14 - 21.19.27.58.mp4</masterclipid>
								<logginginfo>
									<scene />
									<shottake />
									<lognote />
									<good>FALSE</good>
								</logginginfo>
								<labels>
									<label2 />
								</labels>
								<comments>
									<mastercomment1 />
									<mastercomment2 />
									<mastercomment3 />
									<mastercomment4 />
								</comments>
								<file id="ArmA 3 2020.11.14 - 21.19.27.58" />
								<filter>
									<effect>
										<name>Audio Levels</name>
										<effectid>audiolevels</effectid>
										<effectcategory>audiolevels</effectcategory>
										<effecttype>audiolevels</effecttype>
										<mediatype>audio</mediatype>
										<parameter>
											<name>Level</name>
											<parameterid>level</parameterid>
											<valuemin>0</valuemin>
											<valuemax>3,98109</valuemax>
											<value>1</value>
										</parameter>
									</effect>
								</filter>
								<filter>
									<effect>
										<name>Audio Pan</name>
										<effectid>audiopan</effectid>
										<effectcategory>audiopan</effectcategory>
										<effecttype>audiopan</effecttype>
										<mediatype>audio</mediatype>
										<parameter>
											<name>Pan</name>
											<parameterid>pan</parameterid>
											<valuemin>-1</valuemin>
											<valuemax>1</valuemax>
											<value>1</value>
										</parameter>
									</effect>
								</filter>
								<sourcetrack>
									<mediatype>audio</mediatype>
									<trackindex>2</trackindex>
								</sourcetrack>
								<link>
									<linkclipref>ArmA 3 2020.11.14 - 21.19.27.58.mp4805307691</linkclipref>
								</link>
								<link>
									<linkclipref>ArmA 3 2020.11.14 - 21.19.27.58.mp4536872236</linkclipref>
								</link>
								<link>
									<linkclipref>ArmA 3 2020.11.14 - 21.19.27.58.mp45368722361</linkclipref>
								</link>
								<link>
									<linkclipref>ArmA 3 2020.11.14 - 21.19.27.58.mp4536872237</linkclipref>
								</link>
								<link>
									<linkclipref>ArmA 3 2020.11.14 - 21.19.27.58.mp45368722371</linkclipref>
								</link>
							</clipitem>
							<clipitem id="ArmA 3 2020.11.14 - 21.21.59.59.mp45368722401">
								<name>ArmA 3 2020.11.14 - 21.21.59.59.mp4</name>
								<duration>2221</duration>
								<rate>
									<ntsc>TRUE</ntsc>
									<timebase>24</timebase>
								</rate>
								<in>0</in>
								<out>2221</out>
								<start>31842</start>
								<end>34063</end>
								<enabled>FALSE</enabled>
								<masterclipid>ArmA 3 2020.11.14 - 21.21.59.59.mp4</masterclipid>
								<logginginfo>
									<scene />
									<shottake />
									<lognote />
									<good>FALSE</good>
								</logginginfo>
								<labels>
									<label2 />
								</labels>
								<comments>
									<mastercomment1 />
									<mastercomment2 />
									<mastercomment3 />
									<mastercomment4 />
								</comments>
								<file id="ArmA 3 2020.11.14 - 21.21.59.59" />
								<filter>
									<effect>
										<name>Audio Levels</name>
										<effectid>audiolevels</effectid>
										<effectcategory>audiolevels</effectcategory>
										<effecttype>audiolevels</effecttype>
										<mediatype>audio</mediatype>
										<parameter>
											<name>Level</name>
											<parameterid>level</parameterid>
											<valuemin>0</valuemin>
											<valuemax>3,98109</valuemax>
											<value>1</value>
										</parameter>
									</effect>
								</filter>
								<filter>
									<effect>
										<name>Audio Pan</name>
										<effectid>audiopan</effectid>
										<effectcategory>audiopan</effectcategory>
										<effecttype>audiopan</effecttype>
										<mediatype>audio</mediatype>
										<parameter>
											<name>Pan</name>
											<parameterid>pan</parameterid>
											<valuemin>-1</valuemin>
											<valuemax>1</valuemax>
											<value>1</value>
										</parameter>
									</effect>
								</filter>
								<sourcetrack>
									<mediatype>audio</mediatype>
									<trackindex>2</trackindex>
								</sourcetrack>
								<link>
									<linkclipref>ArmA 3 2020.11.14 - 21.21.59.59.mp4805307694</linkclipref>
								</link>
								<link>
									<linkclipref>ArmA 3 2020.11.14 - 21.21.59.59.mp4536872239</linkclipref>
								</link>
								<link>
									<linkclipref>ArmA 3 2020.11.14 - 21.21.59.59.mp45368722391</linkclipref>
								</link>
								<link>
									<linkclipref>ArmA 3 2020.11.14 - 21.21.59.59.mp4536872240</linkclipref>
								</link>
								<link>
									<linkclipref>ArmA 3 2020.11.14 - 21.21.59.59.mp45368722401</linkclipref>
								</link>
							</clipitem>
							<clipitem id="ArmA 3 2020.11.14 - 21.24.02.60.mp45368722431">
								<name>ArmA 3 2020.11.14 - 21.24.02.60.mp4</name>
								<duration>905</duration>
								<rate>
									<ntsc>TRUE</ntsc>
									<timebase>24</timebase>
								</rate>
								<in>0</in>
								<out>905</out>
								<start>34064</start>
								<end>34969</end>
								<enabled>FALSE</enabled>
								<masterclipid>ArmA 3 2020.11.14 - 21.24.02.60.mp4</masterclipid>
								<logginginfo>
									<scene />
									<shottake />
									<lognote />
									<good>FALSE</good>
								</logginginfo>
								<labels>
									<label2 />
								</labels>
								<comments>
									<mastercomment1 />
									<mastercomment2 />
									<mastercomment3 />
									<mastercomment4 />
								</comments>
								<file id="ArmA 3 2020.11.14 - 21.24.02.60" />
								<filter>
									<effect>
										<name>Audio Levels</name>
										<effectid>audiolevels</effectid>
										<effectcategory>audiolevels</effectcategory>
										<effecttype>audiolevels</effecttype>
										<mediatype>audio</mediatype>
										<parameter>
											<name>Level</name>
											<parameterid>level</parameterid>
											<valuemin>0</valuemin>
											<valuemax>3,98109</valuemax>
											<value>1</value>
										</parameter>
									</effect>
								</filter>
								<filter>
									<effect>
										<name>Audio Pan</name>
										<effectid>audiopan</effectid>
										<effectcategory>audiopan</effectcategory>
										<effecttype>audiopan</effecttype>
										<mediatype>audio</mediatype>
										<parameter>
											<name>Pan</name>
											<parameterid>pan</parameterid>
											<valuemin>-1</valuemin>
											<valuemax>1</valuemax>
											<value>1</value>
										</parameter>
									</effect>
								</filter>
								<sourcetrack>
									<mediatype>audio</mediatype>
									<trackindex>2</trackindex>
								</sourcetrack>
								<link>
									<linkclipref>ArmA 3 2020.11.14 - 21.24.02.60.mp4805307697</linkclipref>
								</link>
								<link>
									<linkclipref>ArmA 3 2020.11.14 - 21.24.02.60.mp4536872242</linkclipref>
								</link>
								<link>
									<linkclipref>ArmA 3 2020.11.14 - 21.24.02.60.mp45368722421</linkclipref>
								</link>
								<link>
									<linkclipref>ArmA 3 2020.11.14 - 21.24.02.60.mp4536872243</linkclipref>
								</link>
								<link>
									<linkclipref>ArmA 3 2020.11.14 - 21.24.02.60.mp45368722431</linkclipref>
								</link>
							</clipitem>
							<clipitem id="ArmA 3 2020.11.14 - 21.25.23.61.mp45368722461">
								<name>ArmA 3 2020.11.14 - 21.25.23.61.mp4</name>
								<duration>1117</duration>
								<rate>
									<ntsc>TRUE</ntsc>
									<timebase>24</timebase>
								</rate>
								<in>0</in>
								<out>1117</out>
								<start>34970</start>
								<end>36087</end>
								<enabled>FALSE</enabled>
								<masterclipid>ArmA 3 2020.11.14 - 21.25.23.61.mp4</masterclipid>
								<logginginfo>
									<scene />
									<shottake />
									<lognote />
									<good>FALSE</good>
								</logginginfo>
								<labels>
									<label2 />
								</labels>
								<comments>
									<mastercomment1 />
									<mastercomment2 />
									<mastercomment3 />
									<mastercomment4 />
								</comments>
								<file id="ArmA 3 2020.11.14 - 21.25.23.61" />
								<filter>
									<effect>
										<name>Audio Levels</name>
										<effectid>audiolevels</effectid>
										<effectcategory>audiolevels</effectcategory>
										<effecttype>audiolevels</effecttype>
										<mediatype>audio</mediatype>
										<parameter>
											<name>Level</name>
											<parameterid>level</parameterid>
											<valuemin>0</valuemin>
											<valuemax>3,98109</valuemax>
											<value>1</value>
										</parameter>
									</effect>
								</filter>
								<filter>
									<effect>
										<name>Audio Pan</name>
										<effectid>audiopan</effectid>
										<effectcategory>audiopan</effectcategory>
										<effecttype>audiopan</effecttype>
										<mediatype>audio</mediatype>
										<parameter>
											<name>Pan</name>
											<parameterid>pan</parameterid>
											<valuemin>-1</valuemin>
											<valuemax>1</valuemax>
											<value>1</value>
										</parameter>
									</effect>
								</filter>
								<sourcetrack>
									<mediatype>audio</mediatype>
									<trackindex>2</trackindex>
								</sourcetrack>
								<link>
									<linkclipref>ArmA 3 2020.11.14 - 21.25.23.61.mp4805307700</linkclipref>
								</link>
								<link>
									<linkclipref>ArmA 3 2020.11.14 - 21.25.23.61.mp4536872245</linkclipref>
								</link>
								<link>
									<linkclipref>ArmA 3 2020.11.14 - 21.25.23.61.mp45368722451</linkclipref>
								</link>
								<link>
									<linkclipref>ArmA 3 2020.11.14 - 21.25.23.61.mp4536872246</linkclipref>
								</link>
								<link>
									<linkclipref>ArmA 3 2020.11.14 - 21.25.23.61.mp45368722461</linkclipref>
								</link>
							</clipitem>
							<clipitem id="ArmA 3 2020.11.14 - 21.26.46.62.mp45368722491">
								<name>ArmA 3 2020.11.14 - 21.26.46.62.mp4</name>
								<duration>1358</duration>
								<rate>
									<ntsc>TRUE</ntsc>
									<timebase>24</timebase>
								</rate>
								<in>0</in>
								<out>1358</out>
								<start>36088</start>
								<end>37446</end>
								<enabled>FALSE</enabled>
								<masterclipid>ArmA 3 2020.11.14 - 21.26.46.62.mp4</masterclipid>
								<logginginfo>
									<scene />
									<shottake />
									<lognote />
									<good>FALSE</good>
								</logginginfo>
								<labels>
									<label2 />
								</labels>
								<comments>
									<mastercomment1 />
									<mastercomment2 />
									<mastercomment3 />
									<mastercomment4 />
								</comments>
								<file id="ArmA 3 2020.11.14 - 21.26.46.62" />
								<filter>
									<effect>
										<name>Audio Levels</name>
										<effectid>audiolevels</effectid>
										<effectcategory>audiolevels</effectcategory>
										<effecttype>audiolevels</effecttype>
										<mediatype>audio</mediatype>
										<parameter>
											<name>Level</name>
											<parameterid>level</parameterid>
											<valuemin>0</valuemin>
											<valuemax>3,98109</valuemax>
											<value>1</value>
										</parameter>
									</effect>
								</filter>
								<filter>
									<effect>
										<name>Audio Pan</name>
										<effectid>audiopan</effectid>
										<effectcategory>audiopan</effectcategory>
										<effecttype>audiopan</effecttype>
										<mediatype>audio</mediatype>
										<parameter>
											<name>Pan</name>
											<parameterid>pan</parameterid>
											<valuemin>-1</valuemin>
											<valuemax>1</valuemax>
											<value>1</value>
										</parameter>
									</effect>
								</filter>
								<sourcetrack>
									<mediatype>audio</mediatype>
									<trackindex>2</trackindex>
								</sourcetrack>
								<link>
									<linkclipref>ArmA 3 2020.11.14 - 21.26.46.62.mp4805307703</linkclipref>
								</link>
								<link>
									<linkclipref>ArmA 3 2020.11.14 - 21.26.46.62.mp4536872248</linkclipref>
								</link>
								<link>
									<linkclipref>ArmA 3 2020.11.14 - 21.26.46.62.mp45368722481</linkclipref>
								</link>
								<link>
									<linkclipref>ArmA 3 2020.11.14 - 21.26.46.62.mp4536872249</linkclipref>
								</link>
								<link>
									<linkclipref>ArmA 3 2020.11.14 - 21.26.46.62.mp45368722491</linkclipref>
								</link>
							</clipitem>
							<clipitem id="ArmA 3 2020.11.14 - 21.28.34.63.mp45368722521">
								<name>ArmA 3 2020.11.14 - 21.28.34.63.mp4</name>
								<duration>1117</duration>
								<rate>
									<ntsc>TRUE</ntsc>
									<timebase>24</timebase>
								</rate>
								<in>0</in>
								<out>1117</out>
								<start>37447</start>
								<end>38564</end>
								<enabled>FALSE</enabled>
								<masterclipid>ArmA 3 2020.11.14 - 21.28.34.63.mp4</masterclipid>
								<logginginfo>
									<scene />
									<shottake />
									<lognote />
									<good>FALSE</good>
								</logginginfo>
								<labels>
									<label2 />
								</labels>
								<comments>
									<mastercomment1 />
									<mastercomment2 />
									<mastercomment3 />
									<mastercomment4 />
								</comments>
								<file id="ArmA 3 2020.11.14 - 21.28.34.63" />
								<filter>
									<effect>
										<name>Audio Levels</name>
										<effectid>audiolevels</effectid>
										<effectcategory>audiolevels</effectcategory>
										<effecttype>audiolevels</effecttype>
										<mediatype>audio</mediatype>
										<parameter>
											<name>Level</name>
											<parameterid>level</parameterid>
											<valuemin>0</valuemin>
											<valuemax>3,98109</valuemax>
											<value>1</value>
										</parameter>
									</effect>
								</filter>
								<filter>
									<effect>
										<name>Audio Pan</name>
										<effectid>audiopan</effectid>
										<effectcategory>audiopan</effectcategory>
										<effecttype>audiopan</effecttype>
										<mediatype>audio</mediatype>
										<parameter>
											<name>Pan</name>
											<parameterid>pan</parameterid>
											<valuemin>-1</valuemin>
											<valuemax>1</valuemax>
											<value>1</value>
										</parameter>
									</effect>
								</filter>
								<sourcetrack>
									<mediatype>audio</mediatype>
									<trackindex>2</trackindex>
								</sourcetrack>
								<link>
									<linkclipref>ArmA 3 2020.11.14 - 21.28.34.63.mp4805307706</linkclipref>
								</link>
								<link>
									<linkclipref>ArmA 3 2020.11.14 - 21.28.34.63.mp4536872251</linkclipref>
								</link>
								<link>
									<linkclipref>ArmA 3 2020.11.14 - 21.28.34.63.mp45368722511</linkclipref>
								</link>
								<link>
									<linkclipref>ArmA 3 2020.11.14 - 21.28.34.63.mp4536872252</linkclipref>
								</link>
								<link>
									<linkclipref>ArmA 3 2020.11.14 - 21.28.34.63.mp45368722521</linkclipref>
								</link>
							</clipitem>
							<clipitem id="ArmA 3 2020.11.14 - 21.29.57.64.mp45368722551">
								<name>ArmA 3 2020.11.14 - 21.29.57.64.mp4</name>
								<duration>3146</duration>
								<rate>
									<ntsc>TRUE</ntsc>
									<timebase>24</timebase>
								</rate>
								<in>0</in>
								<out>3146</out>
								<start>38565</start>
								<end>41711</end>
								<enabled>FALSE</enabled>
								<masterclipid>ArmA 3 2020.11.14 - 21.29.57.64.mp4</masterclipid>
								<logginginfo>
									<scene />
									<shottake />
									<lognote />
									<good>FALSE</good>
								</logginginfo>
								<labels>
									<label2 />
								</labels>
								<comments>
									<mastercomment1 />
									<mastercomment2 />
									<mastercomment3 />
									<mastercomment4 />
								</comments>
								<file id="ArmA 3 2020.11.14 - 21.29.57.64" />
								<filter>
									<effect>
										<name>Audio Levels</name>
										<effectid>audiolevels</effectid>
										<effectcategory>audiolevels</effectcategory>
										<effecttype>audiolevels</effecttype>
										<mediatype>audio</mediatype>
										<parameter>
											<name>Level</name>
											<parameterid>level</parameterid>
											<valuemin>0</valuemin>
											<valuemax>3,98109</valuemax>
											<value>1</value>
										</parameter>
									</effect>
								</filter>
								<filter>
									<effect>
										<name>Audio Pan</name>
										<effectid>audiopan</effectid>
										<effectcategory>audiopan</effectcategory>
										<effecttype>audiopan</effecttype>
										<mediatype>audio</mediatype>
										<parameter>
											<name>Pan</name>
											<parameterid>pan</parameterid>
											<valuemin>-1</valuemin>
											<valuemax>1</valuemax>
											<value>1</value>
										</parameter>
									</effect>
								</filter>
								<sourcetrack>
									<mediatype>audio</mediatype>
									<trackindex>2</trackindex>
								</sourcetrack>
								<link>
									<linkclipref>ArmA 3 2020.11.14 - 21.29.57.64.mp4805307709</linkclipref>
								</link>
								<link>
									<linkclipref>ArmA 3 2020.11.14 - 21.29.57.64.mp4536872254</linkclipref>
								</link>
								<link>
									<linkclipref>ArmA 3 2020.11.14 - 21.29.57.64.mp45368722541</linkclipref>
								</link>
								<link>
									<linkclipref>ArmA 3 2020.11.14 - 21.29.57.64.mp4536872255</linkclipref>
								</link>
								<link>
									<linkclipref>ArmA 3 2020.11.14 - 21.29.57.64.mp45368722551</linkclipref>
								</link>
							</clipitem>
							<clipitem id="ArmA 3 2020.11.14 - 21.32.55.65.mp45368722581">
								<name>ArmA 3 2020.11.14 - 21.32.55.65.mp4</name>
								<duration>662</duration>
								<rate>
									<ntsc>TRUE</ntsc>
									<timebase>24</timebase>
								</rate>
								<in>0</in>
								<out>662</out>
								<start>41712</start>
								<end>42374</end>
								<enabled>FALSE</enabled>
								<masterclipid>ArmA 3 2020.11.14 - 21.32.55.65.mp4</masterclipid>
								<logginginfo>
									<scene />
									<shottake />
									<lognote />
									<good>FALSE</good>
								</logginginfo>
								<labels>
									<label2 />
								</labels>
								<comments>
									<mastercomment1 />
									<mastercomment2 />
									<mastercomment3 />
									<mastercomment4 />
								</comments>
								<file id="ArmA 3 2020.11.14 - 21.32.55.65" />
								<filter>
									<effect>
										<name>Audio Levels</name>
										<effectid>audiolevels</effectid>
										<effectcategory>audiolevels</effectcategory>
										<effecttype>audiolevels</effecttype>
										<mediatype>audio</mediatype>
										<parameter>
											<name>Level</name>
											<parameterid>level</parameterid>
											<valuemin>0</valuemin>
											<valuemax>3,98109</valuemax>
											<value>1</value>
										</parameter>
									</effect>
								</filter>
								<filter>
									<effect>
										<name>Audio Pan</name>
										<effectid>audiopan</effectid>
										<effectcategory>audiopan</effectcategory>
										<effecttype>audiopan</effecttype>
										<mediatype>audio</mediatype>
										<parameter>
											<name>Pan</name>
											<parameterid>pan</parameterid>
											<valuemin>-1</valuemin>
											<valuemax>1</valuemax>
											<value>1</value>
										</parameter>
									</effect>
								</filter>
								<sourcetrack>
									<mediatype>audio</mediatype>
									<trackindex>2</trackindex>
								</sourcetrack>
								<link>
									<linkclipref>ArmA 3 2020.11.14 - 21.32.55.65.mp4805307712</linkclipref>
								</link>
								<link>
									<linkclipref>ArmA 3 2020.11.14 - 21.32.55.65.mp4536872257</linkclipref>
								</link>
								<link>
									<linkclipref>ArmA 3 2020.11.14 - 21.32.55.65.mp45368722571</linkclipref>
								</link>
								<link>
									<linkclipref>ArmA 3 2020.11.14 - 21.32.55.65.mp4536872258</linkclipref>
								</link>
								<link>
									<linkclipref>ArmA 3 2020.11.14 - 21.32.55.65.mp45368722581</linkclipref>
								</link>
							</clipitem>
							<clipitem id="ArmA 3 2020.11.14 - 21.33.51.66.mp45368722611">
								<name>ArmA 3 2020.11.14 - 21.33.51.66.mp4</name>
								<duration>1169</duration>
								<rate>
									<ntsc>TRUE</ntsc>
									<timebase>24</timebase>
								</rate>
								<in>0</in>
								<out>1169</out>
								<start>42375</start>
								<end>43544</end>
								<enabled>FALSE</enabled>
								<masterclipid>ArmA 3 2020.11.14 - 21.33.51.66.mp4</masterclipid>
								<logginginfo>
									<scene />
									<shottake />
									<lognote />
									<good>FALSE</good>
								</logginginfo>
								<labels>
									<label2 />
								</labels>
								<comments>
									<mastercomment1 />
									<mastercomment2 />
									<mastercomment3 />
									<mastercomment4 />
								</comments>
								<file id="ArmA 3 2020.11.14 - 21.33.51.66" />
								<filter>
									<effect>
										<name>Audio Levels</name>
										<effectid>audiolevels</effectid>
										<effectcategory>audiolevels</effectcategory>
										<effecttype>audiolevels</effecttype>
										<mediatype>audio</mediatype>
										<parameter>
											<name>Level</name>
											<parameterid>level</parameterid>
											<valuemin>0</valuemin>
											<valuemax>3,98109</valuemax>
											<value>1</value>
										</parameter>
									</effect>
								</filter>
								<filter>
									<effect>
										<name>Audio Pan</name>
										<effectid>audiopan</effectid>
										<effectcategory>audiopan</effectcategory>
										<effecttype>audiopan</effecttype>
										<mediatype>audio</mediatype>
										<parameter>
											<name>Pan</name>
											<parameterid>pan</parameterid>
											<valuemin>-1</valuemin>
											<valuemax>1</valuemax>
											<value>1</value>
										</parameter>
									</effect>
								</filter>
								<sourcetrack>
									<mediatype>audio</mediatype>
									<trackindex>2</trackindex>
								</sourcetrack>
								<link>
									<linkclipref>ArmA 3 2020.11.14 - 21.33.51.66.mp4805307715</linkclipref>
								</link>
								<link>
									<linkclipref>ArmA 3 2020.11.14 - 21.33.51.66.mp4536872260</linkclipref>
								</link>
								<link>
									<linkclipref>ArmA 3 2020.11.14 - 21.33.51.66.mp45368722601</linkclipref>
								</link>
								<link>
									<linkclipref>ArmA 3 2020.11.14 - 21.33.51.66.mp4536872261</linkclipref>
								</link>
								<link>
									<linkclipref>ArmA 3 2020.11.14 - 21.33.51.66.mp45368722611</linkclipref>
								</link>
							</clipitem>
							<clipitem id="ArmA 3 2020.11.14 - 21.34.50.67.mp45368722641">
								<name>ArmA 3 2020.11.14 - 21.34.50.67.mp4</name>
								<duration>711</duration>
								<rate>
									<ntsc>TRUE</ntsc>
									<timebase>24</timebase>
								</rate>
								<in>0</in>
								<out>711</out>
								<start>43545</start>
								<end>44256</end>
								<enabled>FALSE</enabled>
								<masterclipid>ArmA 3 2020.11.14 - 21.34.50.67.mp4</masterclipid>
								<logginginfo>
									<scene />
									<shottake />
									<lognote />
									<good>FALSE</good>
								</logginginfo>
								<labels>
									<label2 />
								</labels>
								<comments>
									<mastercomment1 />
									<mastercomment2 />
									<mastercomment3 />
									<mastercomment4 />
								</comments>
								<file id="ArmA 3 2020.11.14 - 21.34.50.67" />
								<filter>
									<effect>
										<name>Audio Levels</name>
										<effectid>audiolevels</effectid>
										<effectcategory>audiolevels</effectcategory>
										<effecttype>audiolevels</effecttype>
										<mediatype>audio</mediatype>
										<parameter>
											<name>Level</name>
											<parameterid>level</parameterid>
											<valuemin>0</valuemin>
											<valuemax>3,98109</valuemax>
											<value>1</value>
										</parameter>
									</effect>
								</filter>
								<filter>
									<effect>
										<name>Audio Pan</name>
										<effectid>audiopan</effectid>
										<effectcategory>audiopan</effectcategory>
										<effecttype>audiopan</effecttype>
										<mediatype>audio</mediatype>
										<parameter>
											<name>Pan</name>
											<parameterid>pan</parameterid>
											<valuemin>-1</valuemin>
											<valuemax>1</valuemax>
											<value>1</value>
										</parameter>
									</effect>
								</filter>
								<sourcetrack>
									<mediatype>audio</mediatype>
									<trackindex>2</trackindex>
								</sourcetrack>
								<link>
									<linkclipref>ArmA 3 2020.11.14 - 21.34.50.67.mp4805307718</linkclipref>
								</link>
								<link>
									<linkclipref>ArmA 3 2020.11.14 - 21.34.50.67.mp4536872263</linkclipref>
								</link>
								<link>
									<linkclipref>ArmA 3 2020.11.14 - 21.34.50.67.mp45368722631</linkclipref>
								</link>
								<link>
									<linkclipref>ArmA 3 2020.11.14 - 21.34.50.67.mp4536872264</linkclipref>
								</link>
								<link>
									<linkclipref>ArmA 3 2020.11.14 - 21.34.50.67.mp45368722641</linkclipref>
								</link>
							</clipitem>
							<clipitem id="ArmA 3 2020.11.14 - 21.36.53.68.mp45368722671">
								<name>ArmA 3 2020.11.14 - 21.36.53.68.mp4</name>
								<duration>209</duration>
								<rate>
									<ntsc>TRUE</ntsc>
									<timebase>24</timebase>
								</rate>
								<in>0</in>
								<out>209</out>
								<start>44257</start>
								<end>44466</end>
								<enabled>FALSE</enabled>
								<masterclipid>ArmA 3 2020.11.14 - 21.36.53.68.mp4</masterclipid>
								<logginginfo>
									<scene />
									<shottake />
									<lognote />
									<good>FALSE</good>
								</logginginfo>
								<labels>
									<label2 />
								</labels>
								<comments>
									<mastercomment1 />
									<mastercomment2 />
									<mastercomment3 />
									<mastercomment4 />
								</comments>
								<file id="ArmA 3 2020.11.14 - 21.36.53.68" />
								<filter>
									<effect>
										<name>Audio Levels</name>
										<effectid>audiolevels</effectid>
										<effectcategory>audiolevels</effectcategory>
										<effecttype>audiolevels</effecttype>
										<mediatype>audio</mediatype>
										<parameter>
											<name>Level</name>
											<parameterid>level</parameterid>
											<valuemin>0</valuemin>
											<valuemax>3,98109</valuemax>
											<value>1</value>
										</parameter>
									</effect>
								</filter>
								<filter>
									<effect>
										<name>Audio Pan</name>
										<effectid>audiopan</effectid>
										<effectcategory>audiopan</effectcategory>
										<effecttype>audiopan</effecttype>
										<mediatype>audio</mediatype>
										<parameter>
											<name>Pan</name>
											<parameterid>pan</parameterid>
											<valuemin>-1</valuemin>
											<valuemax>1</valuemax>
											<value>1</value>
										</parameter>
									</effect>
								</filter>
								<sourcetrack>
									<mediatype>audio</mediatype>
									<trackindex>2</trackindex>
								</sourcetrack>
								<link>
									<linkclipref>ArmA 3 2020.11.14 - 21.36.53.68.mp4805307721</linkclipref>
								</link>
								<link>
									<linkclipref>ArmA 3 2020.11.14 - 21.36.53.68.mp4536872266</linkclipref>
								</link>
								<link>
									<linkclipref>ArmA 3 2020.11.14 - 21.36.53.68.mp45368722661</linkclipref>
								</link>
								<link>
									<linkclipref>ArmA 3 2020.11.14 - 21.36.53.68.mp4536872267</linkclipref>
								</link>
								<link>
									<linkclipref>ArmA 3 2020.11.14 - 21.36.53.68.mp45368722671</linkclipref>
								</link>
							</clipitem>
							<clipitem id="ArmA 3 2020.11.14 - 21.37.06.69.mp45368722701">
								<name>ArmA 3 2020.11.14 - 21.37.06.69.mp4</name>
								<duration>242</duration>
								<rate>
									<ntsc>TRUE</ntsc>
									<timebase>24</timebase>
								</rate>
								<in>0</in>
								<out>242</out>
								<start>44467</start>
								<end>44709</end>
								<enabled>FALSE</enabled>
								<masterclipid>ArmA 3 2020.11.14 - 21.37.06.69.mp4</masterclipid>
								<logginginfo>
									<scene />
									<shottake />
									<lognote />
									<good>FALSE</good>
								</logginginfo>
								<labels>
									<label2 />
								</labels>
								<comments>
									<mastercomment1 />
									<mastercomment2 />
									<mastercomment3 />
									<mastercomment4 />
								</comments>
								<file id="ArmA 3 2020.11.14 - 21.37.06.69" />
								<filter>
									<effect>
										<name>Audio Levels</name>
										<effectid>audiolevels</effectid>
										<effectcategory>audiolevels</effectcategory>
										<effecttype>audiolevels</effecttype>
										<mediatype>audio</mediatype>
										<parameter>
											<name>Level</name>
											<parameterid>level</parameterid>
											<valuemin>0</valuemin>
											<valuemax>3,98109</valuemax>
											<value>1</value>
										</parameter>
									</effect>
								</filter>
								<filter>
									<effect>
										<name>Audio Pan</name>
										<effectid>audiopan</effectid>
										<effectcategory>audiopan</effectcategory>
										<effecttype>audiopan</effecttype>
										<mediatype>audio</mediatype>
										<parameter>
											<name>Pan</name>
											<parameterid>pan</parameterid>
											<valuemin>-1</valuemin>
											<valuemax>1</valuemax>
											<value>1</value>
										</parameter>
									</effect>
								</filter>
								<sourcetrack>
									<mediatype>audio</mediatype>
									<trackindex>2</trackindex>
								</sourcetrack>
								<link>
									<linkclipref>ArmA 3 2020.11.14 - 21.37.06.69.mp4805307724</linkclipref>
								</link>
								<link>
									<linkclipref>ArmA 3 2020.11.14 - 21.37.06.69.mp4536872269</linkclipref>
								</link>
								<link>
									<linkclipref>ArmA 3 2020.11.14 - 21.37.06.69.mp45368722691</linkclipref>
								</link>
								<link>
									<linkclipref>ArmA 3 2020.11.14 - 21.37.06.69.mp4536872270</linkclipref>
								</link>
								<link>
									<linkclipref>ArmA 3 2020.11.14 - 21.37.06.69.mp45368722701</linkclipref>
								</link>
							</clipitem>
							<clipitem id="ArmA 3 2020.11.14 - 21.37.32.70.mp45368722731">
								<name>ArmA 3 2020.11.14 - 21.37.32.70.mp4</name>
								<duration>816</duration>
								<rate>
									<ntsc>TRUE</ntsc>
									<timebase>24</timebase>
								</rate>
								<in>0</in>
								<out>816</out>
								<start>44710</start>
								<end>45526</end>
								<enabled>FALSE</enabled>
								<masterclipid>ArmA 3 2020.11.14 - 21.37.32.70.mp4</masterclipid>
								<logginginfo>
									<scene />
									<shottake />
									<lognote />
									<good>FALSE</good>
								</logginginfo>
								<labels>
									<label2 />
								</labels>
								<comments>
									<mastercomment1 />
									<mastercomment2 />
									<mastercomment3 />
									<mastercomment4 />
								</comments>
								<file id="ArmA 3 2020.11.14 - 21.37.32.70" />
								<filter>
									<effect>
										<name>Audio Levels</name>
										<effectid>audiolevels</effectid>
										<effectcategory>audiolevels</effectcategory>
										<effecttype>audiolevels</effecttype>
										<mediatype>audio</mediatype>
										<parameter>
											<name>Level</name>
											<parameterid>level</parameterid>
											<valuemin>0</valuemin>
											<valuemax>3,98109</valuemax>
											<value>1</value>
										</parameter>
									</effect>
								</filter>
								<filter>
									<effect>
										<name>Audio Pan</name>
										<effectid>audiopan</effectid>
										<effectcategory>audiopan</effectcategory>
										<effecttype>audiopan</effecttype>
										<mediatype>audio</mediatype>
										<parameter>
											<name>Pan</name>
											<parameterid>pan</parameterid>
											<valuemin>-1</valuemin>
											<valuemax>1</valuemax>
											<value>1</value>
										</parameter>
									</effect>
								</filter>
								<sourcetrack>
									<mediatype>audio</mediatype>
									<trackindex>2</trackindex>
								</sourcetrack>
								<link>
									<linkclipref>ArmA 3 2020.11.14 - 21.37.32.70.mp4805307727</linkclipref>
								</link>
								<link>
									<linkclipref>ArmA 3 2020.11.14 - 21.37.32.70.mp4536872272</linkclipref>
								</link>
								<link>
									<linkclipref>ArmA 3 2020.11.14 - 21.37.32.70.mp45368722721</linkclipref>
								</link>
								<link>
									<linkclipref>ArmA 3 2020.11.14 - 21.37.32.70.mp4536872273</linkclipref>
								</link>
								<link>
									<linkclipref>ArmA 3 2020.11.14 - 21.37.32.70.mp45368722731</linkclipref>
								</link>
							</clipitem>
							<clipitem id="ArmA 3 2020.11.14 - 21.38.41.71.mp45368722761">
								<name>ArmA 3 2020.11.14 - 21.38.41.71.mp4</name>
								<duration>191</duration>
								<rate>
									<ntsc>TRUE</ntsc>
									<timebase>24</timebase>
								</rate>
								<in>0</in>
								<out>191</out>
								<start>45527</start>
								<end>45718</end>
								<enabled>FALSE</enabled>
								<masterclipid>ArmA 3 2020.11.14 - 21.38.41.71.mp4</masterclipid>
								<logginginfo>
									<scene />
									<shottake />
									<lognote />
									<good>FALSE</good>
								</logginginfo>
								<labels>
									<label2 />
								</labels>
								<comments>
									<mastercomment1 />
									<mastercomment2 />
									<mastercomment3 />
									<mastercomment4 />
								</comments>
								<file id="ArmA 3 2020.11.14 - 21.38.41.71" />
								<filter>
									<effect>
										<name>Audio Levels</name>
										<effectid>audiolevels</effectid>
										<effectcategory>audiolevels</effectcategory>
										<effecttype>audiolevels</effecttype>
										<mediatype>audio</mediatype>
										<parameter>
											<name>Level</name>
											<parameterid>level</parameterid>
											<valuemin>0</valuemin>
											<valuemax>3,98109</valuemax>
											<value>1</value>
										</parameter>
									</effect>
								</filter>
								<filter>
									<effect>
										<name>Audio Pan</name>
										<effectid>audiopan</effectid>
										<effectcategory>audiopan</effectcategory>
										<effecttype>audiopan</effecttype>
										<mediatype>audio</mediatype>
										<parameter>
											<name>Pan</name>
											<parameterid>pan</parameterid>
											<valuemin>-1</valuemin>
											<valuemax>1</valuemax>
											<value>1</value>
										</parameter>
									</effect>
								</filter>
								<sourcetrack>
									<mediatype>audio</mediatype>
									<trackindex>2</trackindex>
								</sourcetrack>
								<link>
									<linkclipref>ArmA 3 2020.11.14 - 21.38.41.71.mp4805307730</linkclipref>
								</link>
								<link>
									<linkclipref>ArmA 3 2020.11.14 - 21.38.41.71.mp4536872275</linkclipref>
								</link>
								<link>
									<linkclipref>ArmA 3 2020.11.14 - 21.38.41.71.mp45368722751</linkclipref>
								</link>
								<link>
									<linkclipref>ArmA 3 2020.11.14 - 21.38.41.71.mp4536872276</linkclipref>
								</link>
								<link>
									<linkclipref>ArmA 3 2020.11.14 - 21.38.41.71.mp45368722761</linkclipref>
								</link>
							</clipitem>
							<clipitem id="ArmA 3 2020.11.14 - 21.38.56.72.mp45368722791">
								<name>ArmA 3 2020.11.14 - 21.38.56.72.mp4</name>
								<duration>110</duration>
								<rate>
									<ntsc>TRUE</ntsc>
									<timebase>24</timebase>
								</rate>
								<in>0</in>
								<out>110</out>
								<start>45719</start>
								<end>45829</end>
								<enabled>FALSE</enabled>
								<masterclipid>ArmA 3 2020.11.14 - 21.38.56.72.mp4</masterclipid>
								<logginginfo>
									<scene />
									<shottake />
									<lognote />
									<good>FALSE</good>
								</logginginfo>
								<labels>
									<label2 />
								</labels>
								<comments>
									<mastercomment1 />
									<mastercomment2 />
									<mastercomment3 />
									<mastercomment4 />
								</comments>
								<file id="ArmA 3 2020.11.14 - 21.38.56.72" />
								<filter>
									<effect>
										<name>Audio Levels</name>
										<effectid>audiolevels</effectid>
										<effectcategory>audiolevels</effectcategory>
										<effecttype>audiolevels</effecttype>
										<mediatype>audio</mediatype>
										<parameter>
											<name>Level</name>
											<parameterid>level</parameterid>
											<valuemin>0</valuemin>
											<valuemax>3,98109</valuemax>
											<value>1</value>
										</parameter>
									</effect>
								</filter>
								<filter>
									<effect>
										<name>Audio Pan</name>
										<effectid>audiopan</effectid>
										<effectcategory>audiopan</effectcategory>
										<effecttype>audiopan</effecttype>
										<mediatype>audio</mediatype>
										<parameter>
											<name>Pan</name>
											<parameterid>pan</parameterid>
											<valuemin>-1</valuemin>
											<valuemax>1</valuemax>
											<value>1</value>
										</parameter>
									</effect>
								</filter>
								<sourcetrack>
									<mediatype>audio</mediatype>
									<trackindex>2</trackindex>
								</sourcetrack>
								<link>
									<linkclipref>ArmA 3 2020.11.14 - 21.38.56.72.mp4805307733</linkclipref>
								</link>
								<link>
									<linkclipref>ArmA 3 2020.11.14 - 21.38.56.72.mp4536872278</linkclipref>
								</link>
								<link>
									<linkclipref>ArmA 3 2020.11.14 - 21.38.56.72.mp45368722781</linkclipref>
								</link>
								<link>
									<linkclipref>ArmA 3 2020.11.14 - 21.38.56.72.mp4536872279</linkclipref>
								</link>
								<link>
									<linkclipref>ArmA 3 2020.11.14 - 21.38.56.72.mp45368722791</linkclipref>
								</link>
							</clipitem>
							<clipitem id="ArmA 3 2020.11.14 - 21.43.48.73.mp45368722821">
								<name>ArmA 3 2020.11.14 - 21.43.48.73.mp4</name>
								<duration>955</duration>
								<rate>
									<ntsc>TRUE</ntsc>
									<timebase>24</timebase>
								</rate>
								<in>0</in>
								<out>955</out>
								<start>45830</start>
								<end>46785</end>
								<enabled>FALSE</enabled>
								<masterclipid>ArmA 3 2020.11.14 - 21.43.48.73.mp4</masterclipid>
								<logginginfo>
									<scene />
									<shottake />
									<lognote />
									<good>FALSE</good>
								</logginginfo>
								<labels>
									<label2 />
								</labels>
								<comments>
									<mastercomment1 />
									<mastercomment2 />
									<mastercomment3 />
									<mastercomment4 />
								</comments>
								<file id="ArmA 3 2020.11.14 - 21.43.48.73" />
								<filter>
									<effect>
										<name>Audio Levels</name>
										<effectid>audiolevels</effectid>
										<effectcategory>audiolevels</effectcategory>
										<effecttype>audiolevels</effecttype>
										<mediatype>audio</mediatype>
										<parameter>
											<name>Level</name>
											<parameterid>level</parameterid>
											<valuemin>0</valuemin>
											<valuemax>3,98109</valuemax>
											<value>1</value>
										</parameter>
									</effect>
								</filter>
								<filter>
									<effect>
										<name>Audio Pan</name>
										<effectid>audiopan</effectid>
										<effectcategory>audiopan</effectcategory>
										<effecttype>audiopan</effecttype>
										<mediatype>audio</mediatype>
										<parameter>
											<name>Pan</name>
											<parameterid>pan</parameterid>
											<valuemin>-1</valuemin>
											<valuemax>1</valuemax>
											<value>1</value>
										</parameter>
									</effect>
								</filter>
								<sourcetrack>
									<mediatype>audio</mediatype>
									<trackindex>2</trackindex>
								</sourcetrack>
								<link>
									<linkclipref>ArmA 3 2020.11.14 - 21.43.48.73.mp4805307736</linkclipref>
								</link>
								<link>
									<linkclipref>ArmA 3 2020.11.14 - 21.43.48.73.mp4536872281</linkclipref>
								</link>
								<link>
									<linkclipref>ArmA 3 2020.11.14 - 21.43.48.73.mp45368722811</linkclipref>
								</link>
								<link>
									<linkclipref>ArmA 3 2020.11.14 - 21.43.48.73.mp4536872282</linkclipref>
								</link>
								<link>
									<linkclipref>ArmA 3 2020.11.14 - 21.43.48.73.mp45368722821</linkclipref>
								</link>
							</clipitem>
							<clipitem id="ArmA 3 2020.11.14 - 21.48.32.74.mp45368722851">
								<name>ArmA 3 2020.11.14 - 21.48.32.74.mp4</name>
								<duration>614</duration>
								<rate>
									<ntsc>TRUE</ntsc>
									<timebase>24</timebase>
								</rate>
								<in>0</in>
								<out>614</out>
								<start>46786</start>
								<end>47400</end>
								<enabled>FALSE</enabled>
								<masterclipid>ArmA 3 2020.11.14 - 21.48.32.74.mp4</masterclipid>
								<logginginfo>
									<scene />
									<shottake />
									<lognote />
									<good>FALSE</good>
								</logginginfo>
								<labels>
									<label2 />
								</labels>
								<comments>
									<mastercomment1 />
									<mastercomment2 />
									<mastercomment3 />
									<mastercomment4 />
								</comments>
								<file id="ArmA 3 2020.11.14 - 21.48.32.74" />
								<filter>
									<effect>
										<name>Audio Levels</name>
										<effectid>audiolevels</effectid>
										<effectcategory>audiolevels</effectcategory>
										<effecttype>audiolevels</effecttype>
										<mediatype>audio</mediatype>
										<parameter>
											<name>Level</name>
											<parameterid>level</parameterid>
											<valuemin>0</valuemin>
											<valuemax>3,98109</valuemax>
											<value>1</value>
										</parameter>
									</effect>
								</filter>
								<filter>
									<effect>
										<name>Audio Pan</name>
										<effectid>audiopan</effectid>
										<effectcategory>audiopan</effectcategory>
										<effecttype>audiopan</effecttype>
										<mediatype>audio</mediatype>
										<parameter>
											<name>Pan</name>
											<parameterid>pan</parameterid>
											<valuemin>-1</valuemin>
											<valuemax>1</valuemax>
											<value>1</value>
										</parameter>
									</effect>
								</filter>
								<sourcetrack>
									<mediatype>audio</mediatype>
									<trackindex>2</trackindex>
								</sourcetrack>
								<link>
									<linkclipref>ArmA 3 2020.11.14 - 21.48.32.74.mp4805307739</linkclipref>
								</link>
								<link>
									<linkclipref>ArmA 3 2020.11.14 - 21.48.32.74.mp4536872284</linkclipref>
								</link>
								<link>
									<linkclipref>ArmA 3 2020.11.14 - 21.48.32.74.mp45368722841</linkclipref>
								</link>
								<link>
									<linkclipref>ArmA 3 2020.11.14 - 21.48.32.74.mp4536872285</linkclipref>
								</link>
								<link>
									<linkclipref>ArmA 3 2020.11.14 - 21.48.32.74.mp45368722851</linkclipref>
								</link>
							</clipitem>
							<clipitem id="ArmA 3 2020.11.14 - 21.51.33.75.mp45368722881">
								<name>ArmA 3 2020.11.14 - 21.51.33.75.mp4</name>
								<duration>821</duration>
								<rate>
									<ntsc>TRUE</ntsc>
									<timebase>24</timebase>
								</rate>
								<in>0</in>
								<out>821</out>
								<start>47401</start>
								<end>48222</end>
								<enabled>FALSE</enabled>
								<masterclipid>ArmA 3 2020.11.14 - 21.51.33.75.mp4</masterclipid>
								<logginginfo>
									<scene />
									<shottake />
									<lognote />
									<good>FALSE</good>
								</logginginfo>
								<labels>
									<label2 />
								</labels>
								<comments>
									<mastercomment1 />
									<mastercomment2 />
									<mastercomment3 />
									<mastercomment4 />
								</comments>
								<file id="ArmA 3 2020.11.14 - 21.51.33.75" />
								<filter>
									<effect>
										<name>Audio Levels</name>
										<effectid>audiolevels</effectid>
										<effectcategory>audiolevels</effectcategory>
										<effecttype>audiolevels</effecttype>
										<mediatype>audio</mediatype>
										<parameter>
											<name>Level</name>
											<parameterid>level</parameterid>
											<valuemin>0</valuemin>
											<valuemax>3,98109</valuemax>
											<value>1</value>
										</parameter>
									</effect>
								</filter>
								<filter>
									<effect>
										<name>Audio Pan</name>
										<effectid>audiopan</effectid>
										<effectcategory>audiopan</effectcategory>
										<effecttype>audiopan</effecttype>
										<mediatype>audio</mediatype>
										<parameter>
											<name>Pan</name>
											<parameterid>pan</parameterid>
											<valuemin>-1</valuemin>
											<valuemax>1</valuemax>
											<value>1</value>
										</parameter>
									</effect>
								</filter>
								<sourcetrack>
									<mediatype>audio</mediatype>
									<trackindex>2</trackindex>
								</sourcetrack>
								<link>
									<linkclipref>ArmA 3 2020.11.14 - 21.51.33.75.mp4805307742</linkclipref>
								</link>
								<link>
									<linkclipref>ArmA 3 2020.11.14 - 21.51.33.75.mp4536872287</linkclipref>
								</link>
								<link>
									<linkclipref>ArmA 3 2020.11.14 - 21.51.33.75.mp45368722871</linkclipref>
								</link>
								<link>
									<linkclipref>ArmA 3 2020.11.14 - 21.51.33.75.mp4536872288</linkclipref>
								</link>
								<link>
									<linkclipref>ArmA 3 2020.11.14 - 21.51.33.75.mp45368722881</linkclipref>
								</link>
							</clipitem>
							<clipitem id="ArmA 3 2020.11.14 - 21.52.58.76.mp45368722911">
								<name>ArmA 3 2020.11.14 - 21.52.58.76.mp4</name>
								<duration>836</duration>
								<rate>
									<ntsc>TRUE</ntsc>
									<timebase>24</timebase>
								</rate>
								<in>0</in>
								<out>836</out>
								<start>48223</start>
								<end>49059</end>
								<enabled>FALSE</enabled>
								<masterclipid>ArmA 3 2020.11.14 - 21.52.58.76.mp4</masterclipid>
								<logginginfo>
									<scene />
									<shottake />
									<lognote />
									<good>FALSE</good>
								</logginginfo>
								<labels>
									<label2 />
								</labels>
								<comments>
									<mastercomment1 />
									<mastercomment2 />
									<mastercomment3 />
									<mastercomment4 />
								</comments>
								<file id="ArmA 3 2020.11.14 - 21.52.58.76" />
								<filter>
									<effect>
										<name>Audio Levels</name>
										<effectid>audiolevels</effectid>
										<effectcategory>audiolevels</effectcategory>
										<effecttype>audiolevels</effecttype>
										<mediatype>audio</mediatype>
										<parameter>
											<name>Level</name>
											<parameterid>level</parameterid>
											<valuemin>0</valuemin>
											<valuemax>3,98109</valuemax>
											<value>1</value>
										</parameter>
									</effect>
								</filter>
								<filter>
									<effect>
										<name>Audio Pan</name>
										<effectid>audiopan</effectid>
										<effectcategory>audiopan</effectcategory>
										<effecttype>audiopan</effecttype>
										<mediatype>audio</mediatype>
										<parameter>
											<name>Pan</name>
											<parameterid>pan</parameterid>
											<valuemin>-1</valuemin>
											<valuemax>1</valuemax>
											<value>1</value>
										</parameter>
									</effect>
								</filter>
								<sourcetrack>
									<mediatype>audio</mediatype>
									<trackindex>2</trackindex>
								</sourcetrack>
								<link>
									<linkclipref>ArmA 3 2020.11.14 - 21.52.58.76.mp4805307745</linkclipref>
								</link>
								<link>
									<linkclipref>ArmA 3 2020.11.14 - 21.52.58.76.mp4536872290</linkclipref>
								</link>
								<link>
									<linkclipref>ArmA 3 2020.11.14 - 21.52.58.76.mp45368722901</linkclipref>
								</link>
								<link>
									<linkclipref>ArmA 3 2020.11.14 - 21.52.58.76.mp4536872291</linkclipref>
								</link>
								<link>
									<linkclipref>ArmA 3 2020.11.14 - 21.52.58.76.mp45368722911</linkclipref>
								</link>
							</clipitem>
							<clipitem id="ArmA 3 2020.11.14 - 21.54.08.77.mp45368722941">
								<name>ArmA 3 2020.11.14 - 21.54.08.77.mp4</name>
								<duration>1393</duration>
								<rate>
									<ntsc>TRUE</ntsc>
									<timebase>24</timebase>
								</rate>
								<in>0</in>
								<out>1393</out>
								<start>49060</start>
								<end>50453</end>
								<enabled>FALSE</enabled>
								<masterclipid>ArmA 3 2020.11.14 - 21.54.08.77.mp4</masterclipid>
								<logginginfo>
									<scene />
									<shottake />
									<lognote />
									<good>FALSE</good>
								</logginginfo>
								<labels>
									<label2 />
								</labels>
								<comments>
									<mastercomment1 />
									<mastercomment2 />
									<mastercomment3 />
									<mastercomment4 />
								</comments>
								<file id="ArmA 3 2020.11.14 - 21.54.08.77" />
								<filter>
									<effect>
										<name>Audio Levels</name>
										<effectid>audiolevels</effectid>
										<effectcategory>audiolevels</effectcategory>
										<effecttype>audiolevels</effecttype>
										<mediatype>audio</mediatype>
										<parameter>
											<name>Level</name>
											<parameterid>level</parameterid>
											<valuemin>0</valuemin>
											<valuemax>3,98109</valuemax>
											<value>1</value>
										</parameter>
									</effect>
								</filter>
								<filter>
									<effect>
										<name>Audio Pan</name>
										<effectid>audiopan</effectid>
										<effectcategory>audiopan</effectcategory>
										<effecttype>audiopan</effecttype>
										<mediatype>audio</mediatype>
										<parameter>
											<name>Pan</name>
											<parameterid>pan</parameterid>
											<valuemin>-1</valuemin>
											<valuemax>1</valuemax>
											<value>1</value>
										</parameter>
									</effect>
								</filter>
								<sourcetrack>
									<mediatype>audio</mediatype>
									<trackindex>2</trackindex>
								</sourcetrack>
								<link>
									<linkclipref>ArmA 3 2020.11.14 - 21.54.08.77.mp4805307748</linkclipref>
								</link>
								<link>
									<linkclipref>ArmA 3 2020.11.14 - 21.54.08.77.mp4536872293</linkclipref>
								</link>
								<link>
									<linkclipref>ArmA 3 2020.11.14 - 21.54.08.77.mp45368722931</linkclipref>
								</link>
								<link>
									<linkclipref>ArmA 3 2020.11.14 - 21.54.08.77.mp4536872294</linkclipref>
								</link>
								<link>
									<linkclipref>ArmA 3 2020.11.14 - 21.54.08.77.mp45368722941</linkclipref>
								</link>
							</clipitem>
							<clipitem id="ArmA 3 2020.11.14 - 21.55.34.78.mp45368722971">
								<name>ArmA 3 2020.11.14 - 21.55.34.78.mp4</name>
								<duration>841</duration>
								<rate>
									<ntsc>TRUE</ntsc>
									<timebase>24</timebase>
								</rate>
								<in>0</in>
								<out>841</out>
								<start>50454</start>
								<end>51295</end>
								<enabled>FALSE</enabled>
								<masterclipid>ArmA 3 2020.11.14 - 21.55.34.78.mp4</masterclipid>
								<logginginfo>
									<scene />
									<shottake />
									<lognote />
									<good>FALSE</good>
								</logginginfo>
								<labels>
									<label2 />
								</labels>
								<comments>
									<mastercomment1 />
									<mastercomment2 />
									<mastercomment3 />
									<mastercomment4 />
								</comments>
								<file id="ArmA 3 2020.11.14 - 21.55.34.78" />
								<filter>
									<effect>
										<name>Audio Levels</name>
										<effectid>audiolevels</effectid>
										<effectcategory>audiolevels</effectcategory>
										<effecttype>audiolevels</effecttype>
										<mediatype>audio</mediatype>
										<parameter>
											<name>Level</name>
											<parameterid>level</parameterid>
											<valuemin>0</valuemin>
											<valuemax>3,98109</valuemax>
											<value>1</value>
										</parameter>
									</effect>
								</filter>
								<filter>
									<effect>
										<name>Audio Pan</name>
										<effectid>audiopan</effectid>
										<effectcategory>audiopan</effectcategory>
										<effecttype>audiopan</effecttype>
										<mediatype>audio</mediatype>
										<parameter>
											<name>Pan</name>
											<parameterid>pan</parameterid>
											<valuemin>-1</valuemin>
											<valuemax>1</valuemax>
											<value>1</value>
										</parameter>
									</effect>
								</filter>
								<sourcetrack>
									<mediatype>audio</mediatype>
									<trackindex>2</trackindex>
								</sourcetrack>
								<link>
									<linkclipref>ArmA 3 2020.11.14 - 21.55.34.78.mp4805307751</linkclipref>
								</link>
								<link>
									<linkclipref>ArmA 3 2020.11.14 - 21.55.34.78.mp4536872296</linkclipref>
								</link>
								<link>
									<linkclipref>ArmA 3 2020.11.14 - 21.55.34.78.mp45368722961</linkclipref>
								</link>
								<link>
									<linkclipref>ArmA 3 2020.11.14 - 21.55.34.78.mp4536872297</linkclipref>
								</link>
								<link>
									<linkclipref>ArmA 3 2020.11.14 - 21.55.34.78.mp45368722971</linkclipref>
								</link>
							</clipitem>
							<clipitem id="ArmA 3 2020.11.14 - 21.57.02.79.mp45368723001">
								<name>ArmA 3 2020.11.14 - 21.57.02.79.mp4</name>
								<duration>1044</duration>
								<rate>
									<ntsc>TRUE</ntsc>
									<timebase>24</timebase>
								</rate>
								<in>0</in>
								<out>1044</out>
								<start>51296</start>
								<end>52340</end>
								<enabled>FALSE</enabled>
								<masterclipid>ArmA 3 2020.11.14 - 21.57.02.79.mp4</masterclipid>
								<logginginfo>
									<scene />
									<shottake />
									<lognote />
									<good>FALSE</good>
								</logginginfo>
								<labels>
									<label2 />
								</labels>
								<comments>
									<mastercomment1 />
									<mastercomment2 />
									<mastercomment3 />
									<mastercomment4 />
								</comments>
								<file id="ArmA 3 2020.11.14 - 21.57.02.79" />
								<filter>
									<effect>
										<name>Audio Levels</name>
										<effectid>audiolevels</effectid>
										<effectcategory>audiolevels</effectcategory>
										<effecttype>audiolevels</effecttype>
										<mediatype>audio</mediatype>
										<parameter>
											<name>Level</name>
											<parameterid>level</parameterid>
											<valuemin>0</valuemin>
											<valuemax>3,98109</valuemax>
											<value>1</value>
										</parameter>
									</effect>
								</filter>
								<filter>
									<effect>
										<name>Audio Pan</name>
										<effectid>audiopan</effectid>
										<effectcategory>audiopan</effectcategory>
										<effecttype>audiopan</effecttype>
										<mediatype>audio</mediatype>
										<parameter>
											<name>Pan</name>
											<parameterid>pan</parameterid>
											<valuemin>-1</valuemin>
											<valuemax>1</valuemax>
											<value>1</value>
										</parameter>
									</effect>
								</filter>
								<sourcetrack>
									<mediatype>audio</mediatype>
									<trackindex>2</trackindex>
								</sourcetrack>
								<link>
									<linkclipref>ArmA 3 2020.11.14 - 21.57.02.79.mp4805307754</linkclipref>
								</link>
								<link>
									<linkclipref>ArmA 3 2020.11.14 - 21.57.02.79.mp4536872299</linkclipref>
								</link>
								<link>
									<linkclipref>ArmA 3 2020.11.14 - 21.57.02.79.mp45368722991</linkclipref>
								</link>
								<link>
									<linkclipref>ArmA 3 2020.11.14 - 21.57.02.79.mp4536872300</linkclipref>
								</link>
								<link>
									<linkclipref>ArmA 3 2020.11.14 - 21.57.02.79.mp45368723001</linkclipref>
								</link>
							</clipitem>
							<clipitem id="ArmA 3 2020.11.14 - 22.07.31.81.mp45368723031">
								<name>ArmA 3 2020.11.14 - 22.07.31.81.mp4</name>
								<duration>1271</duration>
								<rate>
									<ntsc>TRUE</ntsc>
									<timebase>24</timebase>
								</rate>
								<in>0</in>
								<out>1271</out>
								<start>52341</start>
								<end>53612</end>
								<enabled>FALSE</enabled>
								<masterclipid>ArmA 3 2020.11.14 - 22.07.31.81.mp4</masterclipid>
								<logginginfo>
									<scene />
									<shottake />
									<lognote />
									<good>FALSE</good>
								</logginginfo>
								<labels>
									<label2 />
								</labels>
								<comments>
									<mastercomment1 />
									<mastercomment2 />
									<mastercomment3 />
									<mastercomment4 />
								</comments>
								<file id="ArmA 3 2020.11.14 - 22.07.31.81" />
								<filter>
									<effect>
										<name>Audio Levels</name>
										<effectid>audiolevels</effectid>
										<effectcategory>audiolevels</effectcategory>
										<effecttype>audiolevels</effecttype>
										<mediatype>audio</mediatype>
										<parameter>
											<name>Level</name>
											<parameterid>level</parameterid>
											<valuemin>0</valuemin>
											<valuemax>3,98109</valuemax>
											<value>1</value>
										</parameter>
									</effect>
								</filter>
								<filter>
									<effect>
										<name>Audio Pan</name>
										<effectid>audiopan</effectid>
										<effectcategory>audiopan</effectcategory>
										<effecttype>audiopan</effecttype>
										<mediatype>audio</mediatype>
										<parameter>
											<name>Pan</name>
											<parameterid>pan</parameterid>
											<valuemin>-1</valuemin>
											<valuemax>1</valuemax>
											<value>1</value>
										</parameter>
									</effect>
								</filter>
								<sourcetrack>
									<mediatype>audio</mediatype>
									<trackindex>2</trackindex>
								</sourcetrack>
								<link>
									<linkclipref>ArmA 3 2020.11.14 - 22.07.31.81.mp4805307757</linkclipref>
								</link>
								<link>
									<linkclipref>ArmA 3 2020.11.14 - 22.07.31.81.mp4536872302</linkclipref>
								</link>
								<link>
									<linkclipref>ArmA 3 2020.11.14 - 22.07.31.81.mp45368723021</linkclipref>
								</link>
								<link>
									<linkclipref>ArmA 3 2020.11.14 - 22.07.31.81.mp4536872303</linkclipref>
								</link>
								<link>
									<linkclipref>ArmA 3 2020.11.14 - 22.07.31.81.mp45368723031</linkclipref>
								</link>
							</clipitem>
							<clipitem id="ArmA 3 2020.11.14 - 22.08.38.82.mp45368723061">
								<name>ArmA 3 2020.11.14 - 22.08.38.82.mp4</name>
								<duration>933</duration>
								<rate>
									<ntsc>TRUE</ntsc>
									<timebase>24</timebase>
								</rate>
								<in>0</in>
								<out>933</out>
								<start>53613</start>
								<end>54546</end>
								<enabled>FALSE</enabled>
								<masterclipid>ArmA 3 2020.11.14 - 22.08.38.82.mp4</masterclipid>
								<logginginfo>
									<scene />
									<shottake />
									<lognote />
									<good>FALSE</good>
								</logginginfo>
								<labels>
									<label2 />
								</labels>
								<comments>
									<mastercomment1 />
									<mastercomment2 />
									<mastercomment3 />
									<mastercomment4 />
								</comments>
								<file id="ArmA 3 2020.11.14 - 22.08.38.82" />
								<filter>
									<effect>
										<name>Audio Levels</name>
										<effectid>audiolevels</effectid>
										<effectcategory>audiolevels</effectcategory>
										<effecttype>audiolevels</effecttype>
										<mediatype>audio</mediatype>
										<parameter>
											<name>Level</name>
											<parameterid>level</parameterid>
											<valuemin>0</valuemin>
											<valuemax>3,98109</valuemax>
											<value>1</value>
										</parameter>
									</effect>
								</filter>
								<filter>
									<effect>
										<name>Audio Pan</name>
										<effectid>audiopan</effectid>
										<effectcategory>audiopan</effectcategory>
										<effecttype>audiopan</effecttype>
										<mediatype>audio</mediatype>
										<parameter>
											<name>Pan</name>
											<parameterid>pan</parameterid>
											<valuemin>-1</valuemin>
											<valuemax>1</valuemax>
											<value>1</value>
										</parameter>
									</effect>
								</filter>
								<sourcetrack>
									<mediatype>audio</mediatype>
									<trackindex>2</trackindex>
								</sourcetrack>
								<link>
									<linkclipref>ArmA 3 2020.11.14 - 22.08.38.82.mp4805307760</linkclipref>
								</link>
								<link>
									<linkclipref>ArmA 3 2020.11.14 - 22.08.38.82.mp4536872305</linkclipref>
								</link>
								<link>
									<linkclipref>ArmA 3 2020.11.14 - 22.08.38.82.mp45368723051</linkclipref>
								</link>
								<link>
									<linkclipref>ArmA 3 2020.11.14 - 22.08.38.82.mp4536872306</linkclipref>
								</link>
								<link>
									<linkclipref>ArmA 3 2020.11.14 - 22.08.38.82.mp45368723061</linkclipref>
								</link>
							</clipitem>
							<clipitem id="ArmA 3 2020.11.14 - 22.09.53.83.mp45368723091">
								<name>ArmA 3 2020.11.14 - 22.09.53.83.mp4</name>
								<duration>925</duration>
								<rate>
									<ntsc>TRUE</ntsc>
									<timebase>24</timebase>
								</rate>
								<in>0</in>
								<out>925</out>
								<start>54547</start>
								<end>55472</end>
								<enabled>FALSE</enabled>
								<masterclipid>ArmA 3 2020.11.14 - 22.09.53.83.mp4</masterclipid>
								<logginginfo>
									<scene />
									<shottake />
									<lognote />
									<good>FALSE</good>
								</logginginfo>
								<labels>
									<label2 />
								</labels>
								<comments>
									<mastercomment1 />
									<mastercomment2 />
									<mastercomment3 />
									<mastercomment4 />
								</comments>
								<file id="ArmA 3 2020.11.14 - 22.09.53.83" />
								<filter>
									<effect>
										<name>Audio Levels</name>
										<effectid>audiolevels</effectid>
										<effectcategory>audiolevels</effectcategory>
										<effecttype>audiolevels</effecttype>
										<mediatype>audio</mediatype>
										<parameter>
											<name>Level</name>
											<parameterid>level</parameterid>
											<valuemin>0</valuemin>
											<valuemax>3,98109</valuemax>
											<value>1</value>
										</parameter>
									</effect>
								</filter>
								<filter>
									<effect>
										<name>Audio Pan</name>
										<effectid>audiopan</effectid>
										<effectcategory>audiopan</effectcategory>
										<effecttype>audiopan</effecttype>
										<mediatype>audio</mediatype>
										<parameter>
											<name>Pan</name>
											<parameterid>pan</parameterid>
											<valuemin>-1</valuemin>
											<valuemax>1</valuemax>
											<value>1</value>
										</parameter>
									</effect>
								</filter>
								<sourcetrack>
									<mediatype>audio</mediatype>
									<trackindex>2</trackindex>
								</sourcetrack>
								<link>
									<linkclipref>ArmA 3 2020.11.14 - 22.09.53.83.mp4805307763</linkclipref>
								</link>
								<link>
									<linkclipref>ArmA 3 2020.11.14 - 22.09.53.83.mp4536872308</linkclipref>
								</link>
								<link>
									<linkclipref>ArmA 3 2020.11.14 - 22.09.53.83.mp45368723081</linkclipref>
								</link>
								<link>
									<linkclipref>ArmA 3 2020.11.14 - 22.09.53.83.mp4536872309</linkclipref>
								</link>
								<link>
									<linkclipref>ArmA 3 2020.11.14 - 22.09.53.83.mp45368723091</linkclipref>
								</link>
							</clipitem>
						</track>
						<track>
							<clipitem id="ArmA 3 2020.11.14 - 20.19.25.25.mp4536872137">
								<name>ArmA 3 2020.11.14 - 20.19.25.25.mp4</name>
								<duration>93</duration>
								<rate>
									<ntsc>TRUE</ntsc>
									<timebase>24</timebase>
								</rate>
								<in>0</in>
								<out>93</out>
								<start>0</start>
								<end>93</end>
								<enabled>FALSE</enabled>
								<masterclipid>ArmA 3 2020.11.14 - 20.19.25.25.mp4</masterclipid>
								<logginginfo>
									<scene />
									<shottake />
									<lognote />
									<good>FALSE</good>
								</logginginfo>
								<labels>
									<label2 />
								</labels>
								<comments>
									<mastercomment1 />
									<mastercomment2 />
									<mastercomment3 />
									<mastercomment4 />
								</comments>
								<file id="ArmA 3 2020.11.14 - 20.19.25.25" />
								<filter>
									<effect>
										<name>Audio Levels</name>
										<effectid>audiolevels</effectid>
										<effectcategory>audiolevels</effectcategory>
										<effecttype>audiolevels</effecttype>
										<mediatype>audio</mediatype>
										<parameter>
											<name>Level</name>
											<parameterid>level</parameterid>
											<valuemin>0</valuemin>
											<valuemax>3,98109</valuemax>
											<value>1</value>
										</parameter>
									</effect>
								</filter>
								<filter>
									<effect>
										<name>Audio Pan</name>
										<effectid>audiopan</effectid>
										<effectcategory>audiopan</effectcategory>
										<effecttype>audiopan</effecttype>
										<mediatype>audio</mediatype>
										<parameter>
											<name>Pan</name>
											<parameterid>pan</parameterid>
											<valuemin>-1</valuemin>
											<valuemax>1</valuemax>
											<value>-1</value>
										</parameter>
									</effect>
								</filter>
								<sourcetrack>
									<mediatype>audio</mediatype>
									<trackindex>1</trackindex>
								</sourcetrack>
								<link>
									<linkclipref>ArmA 3 2020.11.14 - 20.19.25.25.mp4805307592</linkclipref>
								</link>
								<link>
									<linkclipref>ArmA 3 2020.11.14 - 20.19.25.25.mp4536872137</linkclipref>
								</link>
								<link>
									<linkclipref>ArmA 3 2020.11.14 - 20.19.25.25.mp45368721371</linkclipref>
								</link>
								<link>
									<linkclipref>ArmA 3 2020.11.14 - 20.19.25.25.mp4536872138</linkclipref>
								</link>
								<link>
									<linkclipref>ArmA 3 2020.11.14 - 20.19.25.25.mp45368721381</linkclipref>
								</link>
							</clipitem>
							<clipitem id="ArmA 3 2020.11.14 - 20.19.51.26.mp4536872140">
								<name>ArmA 3 2020.11.14 - 20.19.51.26.mp4</name>
								<duration>548</duration>
								<rate>
									<ntsc>TRUE</ntsc>
									<timebase>24</timebase>
								</rate>
								<in>0</in>
								<out>548</out>
								<start>94</start>
								<end>642</end>
								<enabled>FALSE</enabled>
								<masterclipid>ArmA 3 2020.11.14 - 20.19.51.26.mp4</masterclipid>
								<logginginfo>
									<scene />
									<shottake />
									<lognote />
									<good>FALSE</good>
								</logginginfo>
								<labels>
									<label2 />
								</labels>
								<comments>
									<mastercomment1 />
									<mastercomment2 />
									<mastercomment3 />
									<mastercomment4 />
								</comments>
								<file id="ArmA 3 2020.11.14 - 20.19.51.26" />
								<filter>
									<effect>
										<name>Audio Levels</name>
										<effectid>audiolevels</effectid>
										<effectcategory>audiolevels</effectcategory>
										<effecttype>audiolevels</effecttype>
										<mediatype>audio</mediatype>
										<parameter>
											<name>Level</name>
											<parameterid>level</parameterid>
											<valuemin>0</valuemin>
											<valuemax>3,98109</valuemax>
											<value>1</value>
										</parameter>
									</effect>
								</filter>
								<filter>
									<effect>
										<name>Audio Pan</name>
										<effectid>audiopan</effectid>
										<effectcategory>audiopan</effectcategory>
										<effecttype>audiopan</effecttype>
										<mediatype>audio</mediatype>
										<parameter>
											<name>Pan</name>
											<parameterid>pan</parameterid>
											<valuemin>-1</valuemin>
											<valuemax>1</valuemax>
											<value>-1</value>
										</parameter>
									</effect>
								</filter>
								<sourcetrack>
									<mediatype>audio</mediatype>
									<trackindex>1</trackindex>
								</sourcetrack>
								<link>
									<linkclipref>ArmA 3 2020.11.14 - 20.19.51.26.mp4805307595</linkclipref>
								</link>
								<link>
									<linkclipref>ArmA 3 2020.11.14 - 20.19.51.26.mp4536872140</linkclipref>
								</link>
								<link>
									<linkclipref>ArmA 3 2020.11.14 - 20.19.51.26.mp45368721401</linkclipref>
								</link>
								<link>
									<linkclipref>ArmA 3 2020.11.14 - 20.19.51.26.mp4536872141</linkclipref>
								</link>
								<link>
									<linkclipref>ArmA 3 2020.11.14 - 20.19.51.26.mp45368721411</linkclipref>
								</link>
							</clipitem>
							<clipitem id="ArmA 3 2020.11.14 - 20.20.25.27.mp4536872143">
								<name>ArmA 3 2020.11.14 - 20.20.25.27.mp4</name>
								<duration>1868</duration>
								<rate>
									<ntsc>TRUE</ntsc>
									<timebase>24</timebase>
								</rate>
								<in>0</in>
								<out>1868</out>
								<start>643</start>
								<end>2511</end>
								<enabled>FALSE</enabled>
								<masterclipid>ArmA 3 2020.11.14 - 20.20.25.27.mp4</masterclipid>
								<logginginfo>
									<scene />
									<shottake />
									<lognote />
									<good>FALSE</good>
								</logginginfo>
								<labels>
									<label2 />
								</labels>
								<comments>
									<mastercomment1 />
									<mastercomment2 />
									<mastercomment3 />
									<mastercomment4 />
								</comments>
								<file id="ArmA 3 2020.11.14 - 20.20.25.27" />
								<filter>
									<effect>
										<name>Audio Levels</name>
										<effectid>audiolevels</effectid>
										<effectcategory>audiolevels</effectcategory>
										<effecttype>audiolevels</effecttype>
										<mediatype>audio</mediatype>
										<parameter>
											<name>Level</name>
											<parameterid>level</parameterid>
											<valuemin>0</valuemin>
											<valuemax>3,98109</valuemax>
											<value>1</value>
										</parameter>
									</effect>
								</filter>
								<filter>
									<effect>
										<name>Audio Pan</name>
										<effectid>audiopan</effectid>
										<effectcategory>audiopan</effectcategory>
										<effecttype>audiopan</effecttype>
										<mediatype>audio</mediatype>
										<parameter>
											<name>Pan</name>
											<parameterid>pan</parameterid>
											<valuemin>-1</valuemin>
											<valuemax>1</valuemax>
											<value>-1</value>
										</parameter>
									</effect>
								</filter>
								<sourcetrack>
									<mediatype>audio</mediatype>
									<trackindex>1</trackindex>
								</sourcetrack>
								<link>
									<linkclipref>ArmA 3 2020.11.14 - 20.20.25.27.mp4805307598</linkclipref>
								</link>
								<link>
									<linkclipref>ArmA 3 2020.11.14 - 20.20.25.27.mp4536872143</linkclipref>
								</link>
								<link>
									<linkclipref>ArmA 3 2020.11.14 - 20.20.25.27.mp45368721431</linkclipref>
								</link>
								<link>
									<linkclipref>ArmA 3 2020.11.14 - 20.20.25.27.mp4536872144</linkclipref>
								</link>
								<link>
									<linkclipref>ArmA 3 2020.11.14 - 20.20.25.27.mp45368721441</linkclipref>
								</link>
							</clipitem>
							<clipitem id="ArmA 3 2020.11.14 - 20.22.02.28.mp4536872146">
								<name>ArmA 3 2020.11.14 - 20.22.02.28.mp4</name>
								<duration>570</duration>
								<rate>
									<ntsc>TRUE</ntsc>
									<timebase>24</timebase>
								</rate>
								<in>0</in>
								<out>570</out>
								<start>2512</start>
								<end>3082</end>
								<enabled>FALSE</enabled>
								<masterclipid>ArmA 3 2020.11.14 - 20.22.02.28.mp4</masterclipid>
								<logginginfo>
									<scene />
									<shottake />
									<lognote />
									<good>FALSE</good>
								</logginginfo>
								<labels>
									<label2 />
								</labels>
								<comments>
									<mastercomment1 />
									<mastercomment2 />
									<mastercomment3 />
									<mastercomment4 />
								</comments>
								<file id="ArmA 3 2020.11.14 - 20.22.02.28" />
								<filter>
									<effect>
										<name>Audio Levels</name>
										<effectid>audiolevels</effectid>
										<effectcategory>audiolevels</effectcategory>
										<effecttype>audiolevels</effecttype>
										<mediatype>audio</mediatype>
										<parameter>
											<name>Level</name>
											<parameterid>level</parameterid>
											<valuemin>0</valuemin>
											<valuemax>3,98109</valuemax>
											<value>1</value>
										</parameter>
									</effect>
								</filter>
								<filter>
									<effect>
										<name>Audio Pan</name>
										<effectid>audiopan</effectid>
										<effectcategory>audiopan</effectcategory>
										<effecttype>audiopan</effecttype>
										<mediatype>audio</mediatype>
										<parameter>
											<name>Pan</name>
											<parameterid>pan</parameterid>
											<valuemin>-1</valuemin>
											<valuemax>1</valuemax>
											<value>-1</value>
										</parameter>
									</effect>
								</filter>
								<sourcetrack>
									<mediatype>audio</mediatype>
									<trackindex>1</trackindex>
								</sourcetrack>
								<link>
									<linkclipref>ArmA 3 2020.11.14 - 20.22.02.28.mp4805307601</linkclipref>
								</link>
								<link>
									<linkclipref>ArmA 3 2020.11.14 - 20.22.02.28.mp4536872146</linkclipref>
								</link>
								<link>
									<linkclipref>ArmA 3 2020.11.14 - 20.22.02.28.mp45368721461</linkclipref>
								</link>
								<link>
									<linkclipref>ArmA 3 2020.11.14 - 20.22.02.28.mp4536872147</linkclipref>
								</link>
								<link>
									<linkclipref>ArmA 3 2020.11.14 - 20.22.02.28.mp45368721471</linkclipref>
								</link>
							</clipitem>
							<clipitem id="ArmA 3 2020.11.14 - 20.22.40.29.mp4536872149">
								<name>ArmA 3 2020.11.14 - 20.22.40.29.mp4</name>
								<duration>869</duration>
								<rate>
									<ntsc>TRUE</ntsc>
									<timebase>24</timebase>
								</rate>
								<in>0</in>
								<out>869</out>
								<start>3083</start>
								<end>3952</end>
								<enabled>FALSE</enabled>
								<masterclipid>ArmA 3 2020.11.14 - 20.22.40.29.mp4</masterclipid>
								<logginginfo>
									<scene />
									<shottake />
									<lognote />
									<good>FALSE</good>
								</logginginfo>
								<labels>
									<label2 />
								</labels>
								<comments>
									<mastercomment1 />
									<mastercomment2 />
									<mastercomment3 />
									<mastercomment4 />
								</comments>
								<file id="ArmA 3 2020.11.14 - 20.22.40.29" />
								<filter>
									<effect>
										<name>Audio Levels</name>
										<effectid>audiolevels</effectid>
										<effectcategory>audiolevels</effectcategory>
										<effecttype>audiolevels</effecttype>
										<mediatype>audio</mediatype>
										<parameter>
											<name>Level</name>
											<parameterid>level</parameterid>
											<valuemin>0</valuemin>
											<valuemax>3,98109</valuemax>
											<value>1</value>
										</parameter>
									</effect>
								</filter>
								<filter>
									<effect>
										<name>Audio Pan</name>
										<effectid>audiopan</effectid>
										<effectcategory>audiopan</effectcategory>
										<effecttype>audiopan</effecttype>
										<mediatype>audio</mediatype>
										<parameter>
											<name>Pan</name>
											<parameterid>pan</parameterid>
											<valuemin>-1</valuemin>
											<valuemax>1</valuemax>
											<value>-1</value>
										</parameter>
									</effect>
								</filter>
								<sourcetrack>
									<mediatype>audio</mediatype>
									<trackindex>1</trackindex>
								</sourcetrack>
								<link>
									<linkclipref>ArmA 3 2020.11.14 - 20.22.40.29.mp4805307604</linkclipref>
								</link>
								<link>
									<linkclipref>ArmA 3 2020.11.14 - 20.22.40.29.mp4536872149</linkclipref>
								</link>
								<link>
									<linkclipref>ArmA 3 2020.11.14 - 20.22.40.29.mp45368721491</linkclipref>
								</link>
								<link>
									<linkclipref>ArmA 3 2020.11.14 - 20.22.40.29.mp4536872150</linkclipref>
								</link>
								<link>
									<linkclipref>ArmA 3 2020.11.14 - 20.22.40.29.mp45368721501</linkclipref>
								</link>
							</clipitem>
							<clipitem id="ArmA 3 2020.11.14 - 20.23.50.30.mp4536872152">
								<name>ArmA 3 2020.11.14 - 20.23.50.30.mp4</name>
								<duration>875</duration>
								<rate>
									<ntsc>TRUE</ntsc>
									<timebase>24</timebase>
								</rate>
								<in>0</in>
								<out>875</out>
								<start>3953</start>
								<end>4828</end>
								<enabled>FALSE</enabled>
								<masterclipid>ArmA 3 2020.11.14 - 20.23.50.30.mp4</masterclipid>
								<logginginfo>
									<scene />
									<shottake />
									<lognote />
									<good>FALSE</good>
								</logginginfo>
								<labels>
									<label2 />
								</labels>
								<comments>
									<mastercomment1 />
									<mastercomment2 />
									<mastercomment3 />
									<mastercomment4 />
								</comments>
								<file id="ArmA 3 2020.11.14 - 20.23.50.30" />
								<filter>
									<effect>
										<name>Audio Levels</name>
										<effectid>audiolevels</effectid>
										<effectcategory>audiolevels</effectcategory>
										<effecttype>audiolevels</effecttype>
										<mediatype>audio</mediatype>
										<parameter>
											<name>Level</name>
											<parameterid>level</parameterid>
											<valuemin>0</valuemin>
											<valuemax>3,98109</valuemax>
											<value>1</value>
										</parameter>
									</effect>
								</filter>
								<filter>
									<effect>
										<name>Audio Pan</name>
										<effectid>audiopan</effectid>
										<effectcategory>audiopan</effectcategory>
										<effecttype>audiopan</effecttype>
										<mediatype>audio</mediatype>
										<parameter>
											<name>Pan</name>
											<parameterid>pan</parameterid>
											<valuemin>-1</valuemin>
											<valuemax>1</valuemax>
											<value>-1</value>
										</parameter>
									</effect>
								</filter>
								<sourcetrack>
									<mediatype>audio</mediatype>
									<trackindex>1</trackindex>
								</sourcetrack>
								<link>
									<linkclipref>ArmA 3 2020.11.14 - 20.23.50.30.mp4805307607</linkclipref>
								</link>
								<link>
									<linkclipref>ArmA 3 2020.11.14 - 20.23.50.30.mp4536872152</linkclipref>
								</link>
								<link>
									<linkclipref>ArmA 3 2020.11.14 - 20.23.50.30.mp45368721521</linkclipref>
								</link>
								<link>
									<linkclipref>ArmA 3 2020.11.14 - 20.23.50.30.mp4536872153</linkclipref>
								</link>
								<link>
									<linkclipref>ArmA 3 2020.11.14 - 20.23.50.30.mp45368721531</linkclipref>
								</link>
							</clipitem>
							<clipitem id="ArmA 3 2020.11.14 - 20.24.41.31.mp4536872155">
								<name>ArmA 3 2020.11.14 - 20.24.41.31.mp4</name>
								<duration>612</duration>
								<rate>
									<ntsc>TRUE</ntsc>
									<timebase>24</timebase>
								</rate>
								<in>0</in>
								<out>612</out>
								<start>4829</start>
								<end>5441</end>
								<enabled>FALSE</enabled>
								<masterclipid>ArmA 3 2020.11.14 - 20.24.41.31.mp4</masterclipid>
								<logginginfo>
									<scene />
									<shottake />
									<lognote />
									<good>FALSE</good>
								</logginginfo>
								<labels>
									<label2 />
								</labels>
								<comments>
									<mastercomment1 />
									<mastercomment2 />
									<mastercomment3 />
									<mastercomment4 />
								</comments>
								<file id="ArmA 3 2020.11.14 - 20.24.41.31" />
								<filter>
									<effect>
										<name>Audio Levels</name>
										<effectid>audiolevels</effectid>
										<effectcategory>audiolevels</effectcategory>
										<effecttype>audiolevels</effecttype>
										<mediatype>audio</mediatype>
										<parameter>
											<name>Level</name>
											<parameterid>level</parameterid>
											<valuemin>0</valuemin>
											<valuemax>3,98109</valuemax>
											<value>1</value>
										</parameter>
									</effect>
								</filter>
								<filter>
									<effect>
										<name>Audio Pan</name>
										<effectid>audiopan</effectid>
										<effectcategory>audiopan</effectcategory>
										<effecttype>audiopan</effecttype>
										<mediatype>audio</mediatype>
										<parameter>
											<name>Pan</name>
											<parameterid>pan</parameterid>
											<valuemin>-1</valuemin>
											<valuemax>1</valuemax>
											<value>-1</value>
										</parameter>
									</effect>
								</filter>
								<sourcetrack>
									<mediatype>audio</mediatype>
									<trackindex>1</trackindex>
								</sourcetrack>
								<link>
									<linkclipref>ArmA 3 2020.11.14 - 20.24.41.31.mp4805307610</linkclipref>
								</link>
								<link>
									<linkclipref>ArmA 3 2020.11.14 - 20.24.41.31.mp4536872155</linkclipref>
								</link>
								<link>
									<linkclipref>ArmA 3 2020.11.14 - 20.24.41.31.mp45368721551</linkclipref>
								</link>
								<link>
									<linkclipref>ArmA 3 2020.11.14 - 20.24.41.31.mp4536872156</linkclipref>
								</link>
								<link>
									<linkclipref>ArmA 3 2020.11.14 - 20.24.41.31.mp45368721561</linkclipref>
								</link>
							</clipitem>
							<clipitem id="ArmA 3 2020.11.14 - 20.28.02.32.mp4536872158">
								<name>ArmA 3 2020.11.14 - 20.28.02.32.mp4</name>
								<duration>972</duration>
								<rate>
									<ntsc>TRUE</ntsc>
									<timebase>24</timebase>
								</rate>
								<in>0</in>
								<out>972</out>
								<start>5442</start>
								<end>6414</end>
								<enabled>FALSE</enabled>
								<masterclipid>ArmA 3 2020.11.14 - 20.28.02.32.mp4</masterclipid>
								<logginginfo>
									<scene />
									<shottake />
									<lognote />
									<good>FALSE</good>
								</logginginfo>
								<labels>
									<label2 />
								</labels>
								<comments>
									<mastercomment1 />
									<mastercomment2 />
									<mastercomment3 />
									<mastercomment4 />
								</comments>
								<file id="ArmA 3 2020.11.14 - 20.28.02.32" />
								<filter>
									<effect>
										<name>Audio Levels</name>
										<effectid>audiolevels</effectid>
										<effectcategory>audiolevels</effectcategory>
										<effecttype>audiolevels</effecttype>
										<mediatype>audio</mediatype>
										<parameter>
											<name>Level</name>
											<parameterid>level</parameterid>
											<valuemin>0</valuemin>
											<valuemax>3,98109</valuemax>
											<value>1</value>
										</parameter>
									</effect>
								</filter>
								<filter>
									<effect>
										<name>Audio Pan</name>
										<effectid>audiopan</effectid>
										<effectcategory>audiopan</effectcategory>
										<effecttype>audiopan</effecttype>
										<mediatype>audio</mediatype>
										<parameter>
											<name>Pan</name>
											<parameterid>pan</parameterid>
											<valuemin>-1</valuemin>
											<valuemax>1</valuemax>
											<value>-1</value>
										</parameter>
									</effect>
								</filter>
								<sourcetrack>
									<mediatype>audio</mediatype>
									<trackindex>1</trackindex>
								</sourcetrack>
								<link>
									<linkclipref>ArmA 3 2020.11.14 - 20.28.02.32.mp4805307613</linkclipref>
								</link>
								<link>
									<linkclipref>ArmA 3 2020.11.14 - 20.28.02.32.mp4536872158</linkclipref>
								</link>
								<link>
									<linkclipref>ArmA 3 2020.11.14 - 20.28.02.32.mp45368721581</linkclipref>
								</link>
								<link>
									<linkclipref>ArmA 3 2020.11.14 - 20.28.02.32.mp4536872159</linkclipref>
								</link>
								<link>
									<linkclipref>ArmA 3 2020.11.14 - 20.28.02.32.mp45368721591</linkclipref>
								</link>
							</clipitem>
							<clipitem id="ArmA 3 2020.11.14 - 20.29.28.33.mp4536872161">
								<name>ArmA 3 2020.11.14 - 20.29.28.33.mp4</name>
								<duration>561</duration>
								<rate>
									<ntsc>TRUE</ntsc>
									<timebase>24</timebase>
								</rate>
								<in>0</in>
								<out>561</out>
								<start>6415</start>
								<end>6976</end>
								<enabled>FALSE</enabled>
								<masterclipid>ArmA 3 2020.11.14 - 20.29.28.33.mp4</masterclipid>
								<logginginfo>
									<scene />
									<shottake />
									<lognote />
									<good>FALSE</good>
								</logginginfo>
								<labels>
									<label2 />
								</labels>
								<comments>
									<mastercomment1 />
									<mastercomment2 />
									<mastercomment3 />
									<mastercomment4 />
								</comments>
								<file id="ArmA 3 2020.11.14 - 20.29.28.33" />
								<filter>
									<effect>
										<name>Audio Levels</name>
										<effectid>audiolevels</effectid>
										<effectcategory>audiolevels</effectcategory>
										<effecttype>audiolevels</effecttype>
										<mediatype>audio</mediatype>
										<parameter>
											<name>Level</name>
											<parameterid>level</parameterid>
											<valuemin>0</valuemin>
											<valuemax>3,98109</valuemax>
											<value>1</value>
										</parameter>
									</effect>
								</filter>
								<filter>
									<effect>
										<name>Audio Pan</name>
										<effectid>audiopan</effectid>
										<effectcategory>audiopan</effectcategory>
										<effecttype>audiopan</effecttype>
										<mediatype>audio</mediatype>
										<parameter>
											<name>Pan</name>
											<parameterid>pan</parameterid>
											<valuemin>-1</valuemin>
											<valuemax>1</valuemax>
											<value>-1</value>
										</parameter>
									</effect>
								</filter>
								<sourcetrack>
									<mediatype>audio</mediatype>
									<trackindex>1</trackindex>
								</sourcetrack>
								<link>
									<linkclipref>ArmA 3 2020.11.14 - 20.29.28.33.mp4805307616</linkclipref>
								</link>
								<link>
									<linkclipref>ArmA 3 2020.11.14 - 20.29.28.33.mp4536872161</linkclipref>
								</link>
								<link>
									<linkclipref>ArmA 3 2020.11.14 - 20.29.28.33.mp45368721611</linkclipref>
								</link>
								<link>
									<linkclipref>ArmA 3 2020.11.14 - 20.29.28.33.mp4536872162</linkclipref>
								</link>
								<link>
									<linkclipref>ArmA 3 2020.11.14 - 20.29.28.33.mp45368721621</linkclipref>
								</link>
							</clipitem>
							<clipitem id="ArmA 3 2020.11.14 - 20.30.42.34.mp4536872164">
								<name>ArmA 3 2020.11.14 - 20.30.42.34.mp4</name>
								<duration>455</duration>
								<rate>
									<ntsc>TRUE</ntsc>
									<timebase>24</timebase>
								</rate>
								<in>0</in>
								<out>455</out>
								<start>6977</start>
								<end>7432</end>
								<enabled>FALSE</enabled>
								<masterclipid>ArmA 3 2020.11.14 - 20.30.42.34.mp4</masterclipid>
								<logginginfo>
									<scene />
									<shottake />
									<lognote />
									<good>FALSE</good>
								</logginginfo>
								<labels>
									<label2 />
								</labels>
								<comments>
									<mastercomment1 />
									<mastercomment2 />
									<mastercomment3 />
									<mastercomment4 />
								</comments>
								<file id="ArmA 3 2020.11.14 - 20.30.42.34" />
								<filter>
									<effect>
										<name>Audio Levels</name>
										<effectid>audiolevels</effectid>
										<effectcategory>audiolevels</effectcategory>
										<effecttype>audiolevels</effecttype>
										<mediatype>audio</mediatype>
										<parameter>
											<name>Level</name>
											<parameterid>level</parameterid>
											<valuemin>0</valuemin>
											<valuemax>3,98109</valuemax>
											<value>1</value>
										</parameter>
									</effect>
								</filter>
								<filter>
									<effect>
										<name>Audio Pan</name>
										<effectid>audiopan</effectid>
										<effectcategory>audiopan</effectcategory>
										<effecttype>audiopan</effecttype>
										<mediatype>audio</mediatype>
										<parameter>
											<name>Pan</name>
											<parameterid>pan</parameterid>
											<valuemin>-1</valuemin>
											<valuemax>1</valuemax>
											<value>-1</value>
										</parameter>
									</effect>
								</filter>
								<sourcetrack>
									<mediatype>audio</mediatype>
									<trackindex>1</trackindex>
								</sourcetrack>
								<link>
									<linkclipref>ArmA 3 2020.11.14 - 20.30.42.34.mp4805307619</linkclipref>
								</link>
								<link>
									<linkclipref>ArmA 3 2020.11.14 - 20.30.42.34.mp4536872164</linkclipref>
								</link>
								<link>
									<linkclipref>ArmA 3 2020.11.14 - 20.30.42.34.mp45368721641</linkclipref>
								</link>
								<link>
									<linkclipref>ArmA 3 2020.11.14 - 20.30.42.34.mp4536872165</linkclipref>
								</link>
								<link>
									<linkclipref>ArmA 3 2020.11.14 - 20.30.42.34.mp45368721651</linkclipref>
								</link>
							</clipitem>
							<clipitem id="ArmA 3 2020.11.14 - 20.32.04.35.mp4536872167">
								<name>ArmA 3 2020.11.14 - 20.32.04.35.mp4</name>
								<duration>710</duration>
								<rate>
									<ntsc>TRUE</ntsc>
									<timebase>24</timebase>
								</rate>
								<in>0</in>
								<out>710</out>
								<start>7433</start>
								<end>8143</end>
								<enabled>FALSE</enabled>
								<masterclipid>ArmA 3 2020.11.14 - 20.32.04.35.mp4</masterclipid>
								<logginginfo>
									<scene />
									<shottake />
									<lognote />
									<good>FALSE</good>
								</logginginfo>
								<labels>
									<label2 />
								</labels>
								<comments>
									<mastercomment1 />
									<mastercomment2 />
									<mastercomment3 />
									<mastercomment4 />
								</comments>
								<file id="ArmA 3 2020.11.14 - 20.32.04.35" />
								<filter>
									<effect>
										<name>Audio Levels</name>
										<effectid>audiolevels</effectid>
										<effectcategory>audiolevels</effectcategory>
										<effecttype>audiolevels</effecttype>
										<mediatype>audio</mediatype>
										<parameter>
											<name>Level</name>
											<parameterid>level</parameterid>
											<valuemin>0</valuemin>
											<valuemax>3,98109</valuemax>
											<value>1</value>
										</parameter>
									</effect>
								</filter>
								<filter>
									<effect>
										<name>Audio Pan</name>
										<effectid>audiopan</effectid>
										<effectcategory>audiopan</effectcategory>
										<effecttype>audiopan</effecttype>
										<mediatype>audio</mediatype>
										<parameter>
											<name>Pan</name>
											<parameterid>pan</parameterid>
											<valuemin>-1</valuemin>
											<valuemax>1</valuemax>
											<value>-1</value>
										</parameter>
									</effect>
								</filter>
								<sourcetrack>
									<mediatype>audio</mediatype>
									<trackindex>1</trackindex>
								</sourcetrack>
								<link>
									<linkclipref>ArmA 3 2020.11.14 - 20.32.04.35.mp4805307622</linkclipref>
								</link>
								<link>
									<linkclipref>ArmA 3 2020.11.14 - 20.32.04.35.mp4536872167</linkclipref>
								</link>
								<link>
									<linkclipref>ArmA 3 2020.11.14 - 20.32.04.35.mp45368721671</linkclipref>
								</link>
								<link>
									<linkclipref>ArmA 3 2020.11.14 - 20.32.04.35.mp4536872168</linkclipref>
								</link>
								<link>
									<linkclipref>ArmA 3 2020.11.14 - 20.32.04.35.mp45368721681</linkclipref>
								</link>
							</clipitem>
							<clipitem id="ArmA 3 2020.11.14 - 20.35.01.36.mp4536872170">
								<name>ArmA 3 2020.11.14 - 20.35.01.36.mp4</name>
								<duration>541</duration>
								<rate>
									<ntsc>TRUE</ntsc>
									<timebase>24</timebase>
								</rate>
								<in>0</in>
								<out>541</out>
								<start>8144</start>
								<end>8685</end>
								<enabled>FALSE</enabled>
								<masterclipid>ArmA 3 2020.11.14 - 20.35.01.36.mp4</masterclipid>
								<logginginfo>
									<scene />
									<shottake />
									<lognote />
									<good>FALSE</good>
								</logginginfo>
								<labels>
									<label2 />
								</labels>
								<comments>
									<mastercomment1 />
									<mastercomment2 />
									<mastercomment3 />
									<mastercomment4 />
								</comments>
								<file id="ArmA 3 2020.11.14 - 20.35.01.36" />
								<filter>
									<effect>
										<name>Audio Levels</name>
										<effectid>audiolevels</effectid>
										<effectcategory>audiolevels</effectcategory>
										<effecttype>audiolevels</effecttype>
										<mediatype>audio</mediatype>
										<parameter>
											<name>Level</name>
											<parameterid>level</parameterid>
											<valuemin>0</valuemin>
											<valuemax>3,98109</valuemax>
											<value>1</value>
										</parameter>
									</effect>
								</filter>
								<filter>
									<effect>
										<name>Audio Pan</name>
										<effectid>audiopan</effectid>
										<effectcategory>audiopan</effectcategory>
										<effecttype>audiopan</effecttype>
										<mediatype>audio</mediatype>
										<parameter>
											<name>Pan</name>
											<parameterid>pan</parameterid>
											<valuemin>-1</valuemin>
											<valuemax>1</valuemax>
											<value>-1</value>
										</parameter>
									</effect>
								</filter>
								<sourcetrack>
									<mediatype>audio</mediatype>
									<trackindex>1</trackindex>
								</sourcetrack>
								<link>
									<linkclipref>ArmA 3 2020.11.14 - 20.35.01.36.mp4805307625</linkclipref>
								</link>
								<link>
									<linkclipref>ArmA 3 2020.11.14 - 20.35.01.36.mp4536872170</linkclipref>
								</link>
								<link>
									<linkclipref>ArmA 3 2020.11.14 - 20.35.01.36.mp45368721701</linkclipref>
								</link>
								<link>
									<linkclipref>ArmA 3 2020.11.14 - 20.35.01.36.mp4536872171</linkclipref>
								</link>
								<link>
									<linkclipref>ArmA 3 2020.11.14 - 20.35.01.36.mp45368721711</linkclipref>
								</link>
							</clipitem>
							<clipitem id="ArmA 3 2020.11.14 - 20.35.39.37.mp4536872173">
								<name>ArmA 3 2020.11.14 - 20.35.39.37.mp4</name>
								<duration>609</duration>
								<rate>
									<ntsc>TRUE</ntsc>
									<timebase>24</timebase>
								</rate>
								<in>0</in>
								<out>609</out>
								<start>8686</start>
								<end>9295</end>
								<enabled>FALSE</enabled>
								<masterclipid>ArmA 3 2020.11.14 - 20.35.39.37.mp4</masterclipid>
								<logginginfo>
									<scene />
									<shottake />
									<lognote />
									<good>FALSE</good>
								</logginginfo>
								<labels>
									<label2 />
								</labels>
								<comments>
									<mastercomment1 />
									<mastercomment2 />
									<mastercomment3 />
									<mastercomment4 />
								</comments>
								<file id="ArmA 3 2020.11.14 - 20.35.39.37" />
								<filter>
									<effect>
										<name>Audio Levels</name>
										<effectid>audiolevels</effectid>
										<effectcategory>audiolevels</effectcategory>
										<effecttype>audiolevels</effecttype>
										<mediatype>audio</mediatype>
										<parameter>
											<name>Level</name>
											<parameterid>level</parameterid>
											<valuemin>0</valuemin>
											<valuemax>3,98109</valuemax>
											<value>1</value>
										</parameter>
									</effect>
								</filter>
								<filter>
									<effect>
										<name>Audio Pan</name>
										<effectid>audiopan</effectid>
										<effectcategory>audiopan</effectcategory>
										<effecttype>audiopan</effecttype>
										<mediatype>audio</mediatype>
										<parameter>
											<name>Pan</name>
											<parameterid>pan</parameterid>
											<valuemin>-1</valuemin>
											<valuemax>1</valuemax>
											<value>-1</value>
										</parameter>
									</effect>
								</filter>
								<sourcetrack>
									<mediatype>audio</mediatype>
									<trackindex>1</trackindex>
								</sourcetrack>
								<link>
									<linkclipref>ArmA 3 2020.11.14 - 20.35.39.37.mp4805307628</linkclipref>
								</link>
								<link>
									<linkclipref>ArmA 3 2020.11.14 - 20.35.39.37.mp4536872173</linkclipref>
								</link>
								<link>
									<linkclipref>ArmA 3 2020.11.14 - 20.35.39.37.mp45368721731</linkclipref>
								</link>
								<link>
									<linkclipref>ArmA 3 2020.11.14 - 20.35.39.37.mp4536872174</linkclipref>
								</link>
								<link>
									<linkclipref>ArmA 3 2020.11.14 - 20.35.39.37.mp45368721741</linkclipref>
								</link>
							</clipitem>
							<clipitem id="ArmA 3 2020.11.14 - 20.41.15.38.mp4536872176">
								<name>ArmA 3 2020.11.14 - 20.41.15.38.mp4</name>
								<duration>809</duration>
								<rate>
									<ntsc>TRUE</ntsc>
									<timebase>24</timebase>
								</rate>
								<in>0</in>
								<out>809</out>
								<start>9296</start>
								<end>10105</end>
								<enabled>FALSE</enabled>
								<masterclipid>ArmA 3 2020.11.14 - 20.41.15.38.mp4</masterclipid>
								<logginginfo>
									<scene />
									<shottake />
									<lognote />
									<good>FALSE</good>
								</logginginfo>
								<labels>
									<label2 />
								</labels>
								<comments>
									<mastercomment1 />
									<mastercomment2 />
									<mastercomment3 />
									<mastercomment4 />
								</comments>
								<file id="ArmA 3 2020.11.14 - 20.41.15.38" />
								<filter>
									<effect>
										<name>Audio Levels</name>
										<effectid>audiolevels</effectid>
										<effectcategory>audiolevels</effectcategory>
										<effecttype>audiolevels</effecttype>
										<mediatype>audio</mediatype>
										<parameter>
											<name>Level</name>
											<parameterid>level</parameterid>
											<valuemin>0</valuemin>
											<valuemax>3,98109</valuemax>
											<value>1</value>
										</parameter>
									</effect>
								</filter>
								<filter>
									<effect>
										<name>Audio Pan</name>
										<effectid>audiopan</effectid>
										<effectcategory>audiopan</effectcategory>
										<effecttype>audiopan</effecttype>
										<mediatype>audio</mediatype>
										<parameter>
											<name>Pan</name>
											<parameterid>pan</parameterid>
											<valuemin>-1</valuemin>
											<valuemax>1</valuemax>
											<value>-1</value>
										</parameter>
									</effect>
								</filter>
								<sourcetrack>
									<mediatype>audio</mediatype>
									<trackindex>1</trackindex>
								</sourcetrack>
								<link>
									<linkclipref>ArmA 3 2020.11.14 - 20.41.15.38.mp4805307631</linkclipref>
								</link>
								<link>
									<linkclipref>ArmA 3 2020.11.14 - 20.41.15.38.mp4536872176</linkclipref>
								</link>
								<link>
									<linkclipref>ArmA 3 2020.11.14 - 20.41.15.38.mp45368721761</linkclipref>
								</link>
								<link>
									<linkclipref>ArmA 3 2020.11.14 - 20.41.15.38.mp4536872177</linkclipref>
								</link>
								<link>
									<linkclipref>ArmA 3 2020.11.14 - 20.41.15.38.mp45368721771</linkclipref>
								</link>
							</clipitem>
							<clipitem id="ArmA 3 2020.11.14 - 20.42.08.39.mp4536872179">
								<name>ArmA 3 2020.11.14 - 20.42.08.39.mp4</name>
								<duration>1394</duration>
								<rate>
									<ntsc>TRUE</ntsc>
									<timebase>24</timebase>
								</rate>
								<in>0</in>
								<out>1394</out>
								<start>10106</start>
								<end>11500</end>
								<enabled>FALSE</enabled>
								<masterclipid>ArmA 3 2020.11.14 - 20.42.08.39.mp4</masterclipid>
								<logginginfo>
									<scene />
									<shottake />
									<lognote />
									<good>FALSE</good>
								</logginginfo>
								<labels>
									<label2 />
								</labels>
								<comments>
									<mastercomment1 />
									<mastercomment2 />
									<mastercomment3 />
									<mastercomment4 />
								</comments>
								<file id="ArmA 3 2020.11.14 - 20.42.08.39" />
								<filter>
									<effect>
										<name>Audio Levels</name>
										<effectid>audiolevels</effectid>
										<effectcategory>audiolevels</effectcategory>
										<effecttype>audiolevels</effecttype>
										<mediatype>audio</mediatype>
										<parameter>
											<name>Level</name>
											<parameterid>level</parameterid>
											<valuemin>0</valuemin>
											<valuemax>3,98109</valuemax>
											<value>1</value>
										</parameter>
									</effect>
								</filter>
								<filter>
									<effect>
										<name>Audio Pan</name>
										<effectid>audiopan</effectid>
										<effectcategory>audiopan</effectcategory>
										<effecttype>audiopan</effecttype>
										<mediatype>audio</mediatype>
										<parameter>
											<name>Pan</name>
											<parameterid>pan</parameterid>
											<valuemin>-1</valuemin>
											<valuemax>1</valuemax>
											<value>-1</value>
										</parameter>
									</effect>
								</filter>
								<sourcetrack>
									<mediatype>audio</mediatype>
									<trackindex>1</trackindex>
								</sourcetrack>
								<link>
									<linkclipref>ArmA 3 2020.11.14 - 20.42.08.39.mp4805307634</linkclipref>
								</link>
								<link>
									<linkclipref>ArmA 3 2020.11.14 - 20.42.08.39.mp4536872179</linkclipref>
								</link>
								<link>
									<linkclipref>ArmA 3 2020.11.14 - 20.42.08.39.mp45368721791</linkclipref>
								</link>
								<link>
									<linkclipref>ArmA 3 2020.11.14 - 20.42.08.39.mp4536872180</linkclipref>
								</link>
								<link>
									<linkclipref>ArmA 3 2020.11.14 - 20.42.08.39.mp45368721801</linkclipref>
								</link>
							</clipitem>
							<clipitem id="ArmA 3 2020.11.14 - 20.43.49.40.mp4536872182">
								<name>ArmA 3 2020.11.14 - 20.43.49.40.mp4</name>
								<duration>386</duration>
								<rate>
									<ntsc>TRUE</ntsc>
									<timebase>24</timebase>
								</rate>
								<in>0</in>
								<out>386</out>
								<start>11501</start>
								<end>11887</end>
								<enabled>FALSE</enabled>
								<masterclipid>ArmA 3 2020.11.14 - 20.43.49.40.mp4</masterclipid>
								<logginginfo>
									<scene />
									<shottake />
									<lognote />
									<good>FALSE</good>
								</logginginfo>
								<labels>
									<label2 />
								</labels>
								<comments>
									<mastercomment1 />
									<mastercomment2 />
									<mastercomment3 />
									<mastercomment4 />
								</comments>
								<file id="ArmA 3 2020.11.14 - 20.43.49.40" />
								<filter>
									<effect>
										<name>Audio Levels</name>
										<effectid>audiolevels</effectid>
										<effectcategory>audiolevels</effectcategory>
										<effecttype>audiolevels</effecttype>
										<mediatype>audio</mediatype>
										<parameter>
											<name>Level</name>
											<parameterid>level</parameterid>
											<valuemin>0</valuemin>
											<valuemax>3,98109</valuemax>
											<value>1</value>
										</parameter>
									</effect>
								</filter>
								<filter>
									<effect>
										<name>Audio Pan</name>
										<effectid>audiopan</effectid>
										<effectcategory>audiopan</effectcategory>
										<effecttype>audiopan</effecttype>
										<mediatype>audio</mediatype>
										<parameter>
											<name>Pan</name>
											<parameterid>pan</parameterid>
											<valuemin>-1</valuemin>
											<valuemax>1</valuemax>
											<value>-1</value>
										</parameter>
									</effect>
								</filter>
								<sourcetrack>
									<mediatype>audio</mediatype>
									<trackindex>1</trackindex>
								</sourcetrack>
								<link>
									<linkclipref>ArmA 3 2020.11.14 - 20.43.49.40.mp4805307637</linkclipref>
								</link>
								<link>
									<linkclipref>ArmA 3 2020.11.14 - 20.43.49.40.mp4536872182</linkclipref>
								</link>
								<link>
									<linkclipref>ArmA 3 2020.11.14 - 20.43.49.40.mp45368721821</linkclipref>
								</link>
								<link>
									<linkclipref>ArmA 3 2020.11.14 - 20.43.49.40.mp4536872183</linkclipref>
								</link>
								<link>
									<linkclipref>ArmA 3 2020.11.14 - 20.43.49.40.mp45368721831</linkclipref>
								</link>
							</clipitem>
							<clipitem id="ArmA 3 2020.11.14 - 20.50.27.41.mp4536872185">
								<name>ArmA 3 2020.11.14 - 20.50.27.41.mp4</name>
								<duration>378</duration>
								<rate>
									<ntsc>TRUE</ntsc>
									<timebase>24</timebase>
								</rate>
								<in>0</in>
								<out>378</out>
								<start>11888</start>
								<end>12266</end>
								<enabled>FALSE</enabled>
								<masterclipid>ArmA 3 2020.11.14 - 20.50.27.41.mp4</masterclipid>
								<logginginfo>
									<scene />
									<shottake />
									<lognote />
									<good>FALSE</good>
								</logginginfo>
								<labels>
									<label2 />
								</labels>
								<comments>
									<mastercomment1 />
									<mastercomment2 />
									<mastercomment3 />
									<mastercomment4 />
								</comments>
								<file id="ArmA 3 2020.11.14 - 20.50.27.41" />
								<filter>
									<effect>
										<name>Audio Levels</name>
										<effectid>audiolevels</effectid>
										<effectcategory>audiolevels</effectcategory>
										<effecttype>audiolevels</effecttype>
										<mediatype>audio</mediatype>
										<parameter>
											<name>Level</name>
											<parameterid>level</parameterid>
											<valuemin>0</valuemin>
											<valuemax>3,98109</valuemax>
											<value>1</value>
										</parameter>
									</effect>
								</filter>
								<filter>
									<effect>
										<name>Audio Pan</name>
										<effectid>audiopan</effectid>
										<effectcategory>audiopan</effectcategory>
										<effecttype>audiopan</effecttype>
										<mediatype>audio</mediatype>
										<parameter>
											<name>Pan</name>
											<parameterid>pan</parameterid>
											<valuemin>-1</valuemin>
											<valuemax>1</valuemax>
											<value>-1</value>
										</parameter>
									</effect>
								</filter>
								<sourcetrack>
									<mediatype>audio</mediatype>
									<trackindex>1</trackindex>
								</sourcetrack>
								<link>
									<linkclipref>ArmA 3 2020.11.14 - 20.50.27.41.mp4805307640</linkclipref>
								</link>
								<link>
									<linkclipref>ArmA 3 2020.11.14 - 20.50.27.41.mp4536872185</linkclipref>
								</link>
								<link>
									<linkclipref>ArmA 3 2020.11.14 - 20.50.27.41.mp45368721851</linkclipref>
								</link>
								<link>
									<linkclipref>ArmA 3 2020.11.14 - 20.50.27.41.mp4536872186</linkclipref>
								</link>
								<link>
									<linkclipref>ArmA 3 2020.11.14 - 20.50.27.41.mp45368721861</linkclipref>
								</link>
							</clipitem>
							<clipitem id="ArmA 3 2020.11.14 - 20.53.10.42.mp4536872188">
								<name>ArmA 3 2020.11.14 - 20.53.10.42.mp4</name>
								<duration>774</duration>
								<rate>
									<ntsc>TRUE</ntsc>
									<timebase>24</timebase>
								</rate>
								<in>0</in>
								<out>774</out>
								<start>12267</start>
								<end>13041</end>
								<enabled>FALSE</enabled>
								<masterclipid>ArmA 3 2020.11.14 - 20.53.10.42.mp4</masterclipid>
								<logginginfo>
									<scene />
									<shottake />
									<lognote />
									<good>FALSE</good>
								</logginginfo>
								<labels>
									<label2 />
								</labels>
								<comments>
									<mastercomment1 />
									<mastercomment2 />
									<mastercomment3 />
									<mastercomment4 />
								</comments>
								<file id="ArmA 3 2020.11.14 - 20.53.10.42" />
								<filter>
									<effect>
										<name>Audio Levels</name>
										<effectid>audiolevels</effectid>
										<effectcategory>audiolevels</effectcategory>
										<effecttype>audiolevels</effecttype>
										<mediatype>audio</mediatype>
										<parameter>
											<name>Level</name>
											<parameterid>level</parameterid>
											<valuemin>0</valuemin>
											<valuemax>3,98109</valuemax>
											<value>1</value>
										</parameter>
									</effect>
								</filter>
								<filter>
									<effect>
										<name>Audio Pan</name>
										<effectid>audiopan</effectid>
										<effectcategory>audiopan</effectcategory>
										<effecttype>audiopan</effecttype>
										<mediatype>audio</mediatype>
										<parameter>
											<name>Pan</name>
											<parameterid>pan</parameterid>
											<valuemin>-1</valuemin>
											<valuemax>1</valuemax>
											<value>-1</value>
										</parameter>
									</effect>
								</filter>
								<sourcetrack>
									<mediatype>audio</mediatype>
									<trackindex>1</trackindex>
								</sourcetrack>
								<link>
									<linkclipref>ArmA 3 2020.11.14 - 20.53.10.42.mp4805307643</linkclipref>
								</link>
								<link>
									<linkclipref>ArmA 3 2020.11.14 - 20.53.10.42.mp4536872188</linkclipref>
								</link>
								<link>
									<linkclipref>ArmA 3 2020.11.14 - 20.53.10.42.mp45368721881</linkclipref>
								</link>
								<link>
									<linkclipref>ArmA 3 2020.11.14 - 20.53.10.42.mp4536872189</linkclipref>
								</link>
								<link>
									<linkclipref>ArmA 3 2020.11.14 - 20.53.10.42.mp45368721891</linkclipref>
								</link>
							</clipitem>
							<clipitem id="ArmA 3 2020.11.14 - 20.54.51.43.mp4536872191">
								<name>ArmA 3 2020.11.14 - 20.54.51.43.mp4</name>
								<duration>441</duration>
								<rate>
									<ntsc>TRUE</ntsc>
									<timebase>24</timebase>
								</rate>
								<in>0</in>
								<out>441</out>
								<start>13042</start>
								<end>13483</end>
								<enabled>FALSE</enabled>
								<masterclipid>ArmA 3 2020.11.14 - 20.54.51.43.mp4</masterclipid>
								<logginginfo>
									<scene />
									<shottake />
									<lognote />
									<good>FALSE</good>
								</logginginfo>
								<labels>
									<label2 />
								</labels>
								<comments>
									<mastercomment1 />
									<mastercomment2 />
									<mastercomment3 />
									<mastercomment4 />
								</comments>
								<file id="ArmA 3 2020.11.14 - 20.54.51.43" />
								<filter>
									<effect>
										<name>Audio Levels</name>
										<effectid>audiolevels</effectid>
										<effectcategory>audiolevels</effectcategory>
										<effecttype>audiolevels</effecttype>
										<mediatype>audio</mediatype>
										<parameter>
											<name>Level</name>
											<parameterid>level</parameterid>
											<valuemin>0</valuemin>
											<valuemax>3,98109</valuemax>
											<value>1</value>
										</parameter>
									</effect>
								</filter>
								<filter>
									<effect>
										<name>Audio Pan</name>
										<effectid>audiopan</effectid>
										<effectcategory>audiopan</effectcategory>
										<effecttype>audiopan</effecttype>
										<mediatype>audio</mediatype>
										<parameter>
											<name>Pan</name>
											<parameterid>pan</parameterid>
											<valuemin>-1</valuemin>
											<valuemax>1</valuemax>
											<value>-1</value>
										</parameter>
									</effect>
								</filter>
								<sourcetrack>
									<mediatype>audio</mediatype>
									<trackindex>1</trackindex>
								</sourcetrack>
								<link>
									<linkclipref>ArmA 3 2020.11.14 - 20.54.51.43.mp4805307646</linkclipref>
								</link>
								<link>
									<linkclipref>ArmA 3 2020.11.14 - 20.54.51.43.mp4536872191</linkclipref>
								</link>
								<link>
									<linkclipref>ArmA 3 2020.11.14 - 20.54.51.43.mp45368721911</linkclipref>
								</link>
								<link>
									<linkclipref>ArmA 3 2020.11.14 - 20.54.51.43.mp4536872192</linkclipref>
								</link>
								<link>
									<linkclipref>ArmA 3 2020.11.14 - 20.54.51.43.mp45368721921</linkclipref>
								</link>
							</clipitem>
							<clipitem id="ArmA 3 2020.11.14 - 20.55.19.44.mp4536872194">
								<name>ArmA 3 2020.11.14 - 20.55.19.44.mp4</name>
								<duration>709</duration>
								<rate>
									<ntsc>TRUE</ntsc>
									<timebase>24</timebase>
								</rate>
								<in>0</in>
								<out>709</out>
								<start>13484</start>
								<end>14193</end>
								<enabled>FALSE</enabled>
								<masterclipid>ArmA 3 2020.11.14 - 20.55.19.44.mp4</masterclipid>
								<logginginfo>
									<scene />
									<shottake />
									<lognote />
									<good>FALSE</good>
								</logginginfo>
								<labels>
									<label2 />
								</labels>
								<comments>
									<mastercomment1 />
									<mastercomment2 />
									<mastercomment3 />
									<mastercomment4 />
								</comments>
								<file id="ArmA 3 2020.11.14 - 20.55.19.44" />
								<filter>
									<effect>
										<name>Audio Levels</name>
										<effectid>audiolevels</effectid>
										<effectcategory>audiolevels</effectcategory>
										<effecttype>audiolevels</effecttype>
										<mediatype>audio</mediatype>
										<parameter>
											<name>Level</name>
											<parameterid>level</parameterid>
											<valuemin>0</valuemin>
											<valuemax>3,98109</valuemax>
											<value>1</value>
										</parameter>
									</effect>
								</filter>
								<filter>
									<effect>
										<name>Audio Pan</name>
										<effectid>audiopan</effectid>
										<effectcategory>audiopan</effectcategory>
										<effecttype>audiopan</effecttype>
										<mediatype>audio</mediatype>
										<parameter>
											<name>Pan</name>
											<parameterid>pan</parameterid>
											<valuemin>-1</valuemin>
											<valuemax>1</valuemax>
											<value>-1</value>
										</parameter>
									</effect>
								</filter>
								<sourcetrack>
									<mediatype>audio</mediatype>
									<trackindex>1</trackindex>
								</sourcetrack>
								<link>
									<linkclipref>ArmA 3 2020.11.14 - 20.55.19.44.mp4805307649</linkclipref>
								</link>
								<link>
									<linkclipref>ArmA 3 2020.11.14 - 20.55.19.44.mp4536872194</linkclipref>
								</link>
								<link>
									<linkclipref>ArmA 3 2020.11.14 - 20.55.19.44.mp45368721941</linkclipref>
								</link>
								<link>
									<linkclipref>ArmA 3 2020.11.14 - 20.55.19.44.mp4536872195</linkclipref>
								</link>
								<link>
									<linkclipref>ArmA 3 2020.11.14 - 20.55.19.44.mp45368721951</linkclipref>
								</link>
							</clipitem>
							<clipitem id="ArmA 3 2020.11.14 - 20.58.46.45.mp4536872197">
								<name>ArmA 3 2020.11.14 - 20.58.46.45.mp4</name>
								<duration>1428</duration>
								<rate>
									<ntsc>TRUE</ntsc>
									<timebase>24</timebase>
								</rate>
								<in>0</in>
								<out>1428</out>
								<start>14194</start>
								<end>15622</end>
								<enabled>FALSE</enabled>
								<masterclipid>ArmA 3 2020.11.14 - 20.58.46.45.mp4</masterclipid>
								<logginginfo>
									<scene />
									<shottake />
									<lognote />
									<good>FALSE</good>
								</logginginfo>
								<labels>
									<label2 />
								</labels>
								<comments>
									<mastercomment1 />
									<mastercomment2 />
									<mastercomment3 />
									<mastercomment4 />
								</comments>
								<file id="ArmA 3 2020.11.14 - 20.58.46.45" />
								<filter>
									<effect>
										<name>Audio Levels</name>
										<effectid>audiolevels</effectid>
										<effectcategory>audiolevels</effectcategory>
										<effecttype>audiolevels</effecttype>
										<mediatype>audio</mediatype>
										<parameter>
											<name>Level</name>
											<parameterid>level</parameterid>
											<valuemin>0</valuemin>
											<valuemax>3,98109</valuemax>
											<value>1</value>
										</parameter>
									</effect>
								</filter>
								<filter>
									<effect>
										<name>Audio Pan</name>
										<effectid>audiopan</effectid>
										<effectcategory>audiopan</effectcategory>
										<effecttype>audiopan</effecttype>
										<mediatype>audio</mediatype>
										<parameter>
											<name>Pan</name>
											<parameterid>pan</parameterid>
											<valuemin>-1</valuemin>
											<valuemax>1</valuemax>
											<value>-1</value>
										</parameter>
									</effect>
								</filter>
								<sourcetrack>
									<mediatype>audio</mediatype>
									<trackindex>1</trackindex>
								</sourcetrack>
								<link>
									<linkclipref>ArmA 3 2020.11.14 - 20.58.46.45.mp4805307652</linkclipref>
								</link>
								<link>
									<linkclipref>ArmA 3 2020.11.14 - 20.58.46.45.mp4536872197</linkclipref>
								</link>
								<link>
									<linkclipref>ArmA 3 2020.11.14 - 20.58.46.45.mp45368721971</linkclipref>
								</link>
								<link>
									<linkclipref>ArmA 3 2020.11.14 - 20.58.46.45.mp4536872198</linkclipref>
								</link>
								<link>
									<linkclipref>ArmA 3 2020.11.14 - 20.58.46.45.mp45368721981</linkclipref>
								</link>
							</clipitem>
							<clipitem id="ArmA 3 2020.11.14 - 21.00.16.46.mp4536872200">
								<name>ArmA 3 2020.11.14 - 21.00.16.46.mp4</name>
								<duration>562</duration>
								<rate>
									<ntsc>TRUE</ntsc>
									<timebase>24</timebase>
								</rate>
								<in>0</in>
								<out>562</out>
								<start>15623</start>
								<end>16185</end>
								<enabled>FALSE</enabled>
								<masterclipid>ArmA 3 2020.11.14 - 21.00.16.46.mp4</masterclipid>
								<logginginfo>
									<scene />
									<shottake />
									<lognote />
									<good>FALSE</good>
								</logginginfo>
								<labels>
									<label2 />
								</labels>
								<comments>
									<mastercomment1 />
									<mastercomment2 />
									<mastercomment3 />
									<mastercomment4 />
								</comments>
								<file id="ArmA 3 2020.11.14 - 21.00.16.46" />
								<filter>
									<effect>
										<name>Audio Levels</name>
										<effectid>audiolevels</effectid>
										<effectcategory>audiolevels</effectcategory>
										<effecttype>audiolevels</effecttype>
										<mediatype>audio</mediatype>
										<parameter>
											<name>Level</name>
											<parameterid>level</parameterid>
											<valuemin>0</valuemin>
											<valuemax>3,98109</valuemax>
											<value>1</value>
										</parameter>
									</effect>
								</filter>
								<filter>
									<effect>
										<name>Audio Pan</name>
										<effectid>audiopan</effectid>
										<effectcategory>audiopan</effectcategory>
										<effecttype>audiopan</effecttype>
										<mediatype>audio</mediatype>
										<parameter>
											<name>Pan</name>
											<parameterid>pan</parameterid>
											<valuemin>-1</valuemin>
											<valuemax>1</valuemax>
											<value>-1</value>
										</parameter>
									</effect>
								</filter>
								<sourcetrack>
									<mediatype>audio</mediatype>
									<trackindex>1</trackindex>
								</sourcetrack>
								<link>
									<linkclipref>ArmA 3 2020.11.14 - 21.00.16.46.mp4805307655</linkclipref>
								</link>
								<link>
									<linkclipref>ArmA 3 2020.11.14 - 21.00.16.46.mp4536872200</linkclipref>
								</link>
								<link>
									<linkclipref>ArmA 3 2020.11.14 - 21.00.16.46.mp45368722001</linkclipref>
								</link>
								<link>
									<linkclipref>ArmA 3 2020.11.14 - 21.00.16.46.mp4536872201</linkclipref>
								</link>
								<link>
									<linkclipref>ArmA 3 2020.11.14 - 21.00.16.46.mp45368722011</linkclipref>
								</link>
							</clipitem>
							<clipitem id="ArmA 3 2020.11.14 - 21.00.51.47.mp4536872203">
								<name>ArmA 3 2020.11.14 - 21.00.51.47.mp4</name>
								<duration>691</duration>
								<rate>
									<ntsc>TRUE</ntsc>
									<timebase>24</timebase>
								</rate>
								<in>0</in>
								<out>691</out>
								<start>16186</start>
								<end>16877</end>
								<enabled>FALSE</enabled>
								<masterclipid>ArmA 3 2020.11.14 - 21.00.51.47.mp4</masterclipid>
								<logginginfo>
									<scene />
									<shottake />
									<lognote />
									<good>FALSE</good>
								</logginginfo>
								<labels>
									<label2 />
								</labels>
								<comments>
									<mastercomment1 />
									<mastercomment2 />
									<mastercomment3 />
									<mastercomment4 />
								</comments>
								<file id="ArmA 3 2020.11.14 - 21.00.51.47" />
								<filter>
									<effect>
										<name>Audio Levels</name>
										<effectid>audiolevels</effectid>
										<effectcategory>audiolevels</effectcategory>
										<effecttype>audiolevels</effecttype>
										<mediatype>audio</mediatype>
										<parameter>
											<name>Level</name>
											<parameterid>level</parameterid>
											<valuemin>0</valuemin>
											<valuemax>3,98109</valuemax>
											<value>1</value>
										</parameter>
									</effect>
								</filter>
								<filter>
									<effect>
										<name>Audio Pan</name>
										<effectid>audiopan</effectid>
										<effectcategory>audiopan</effectcategory>
										<effecttype>audiopan</effecttype>
										<mediatype>audio</mediatype>
										<parameter>
											<name>Pan</name>
											<parameterid>pan</parameterid>
											<valuemin>-1</valuemin>
											<valuemax>1</valuemax>
											<value>-1</value>
										</parameter>
									</effect>
								</filter>
								<sourcetrack>
									<mediatype>audio</mediatype>
									<trackindex>1</trackindex>
								</sourcetrack>
								<link>
									<linkclipref>ArmA 3 2020.11.14 - 21.00.51.47.mp4805307658</linkclipref>
								</link>
								<link>
									<linkclipref>ArmA 3 2020.11.14 - 21.00.51.47.mp4536872203</linkclipref>
								</link>
								<link>
									<linkclipref>ArmA 3 2020.11.14 - 21.00.51.47.mp45368722031</linkclipref>
								</link>
								<link>
									<linkclipref>ArmA 3 2020.11.14 - 21.00.51.47.mp4536872204</linkclipref>
								</link>
								<link>
									<linkclipref>ArmA 3 2020.11.14 - 21.00.51.47.mp45368722041</linkclipref>
								</link>
							</clipitem>
							<clipitem id="ArmA 3 2020.11.14 - 21.01.54.48.mp4536872206">
								<name>ArmA 3 2020.11.14 - 21.01.54.48.mp4</name>
								<duration>911</duration>
								<rate>
									<ntsc>TRUE</ntsc>
									<timebase>24</timebase>
								</rate>
								<in>0</in>
								<out>911</out>
								<start>16878</start>
								<end>17789</end>
								<enabled>FALSE</enabled>
								<masterclipid>ArmA 3 2020.11.14 - 21.01.54.48.mp4</masterclipid>
								<logginginfo>
									<scene />
									<shottake />
									<lognote />
									<good>FALSE</good>
								</logginginfo>
								<labels>
									<label2 />
								</labels>
								<comments>
									<mastercomment1 />
									<mastercomment2 />
									<mastercomment3 />
									<mastercomment4 />
								</comments>
								<file id="ArmA 3 2020.11.14 - 21.01.54.48" />
								<filter>
									<effect>
										<name>Audio Levels</name>
										<effectid>audiolevels</effectid>
										<effectcategory>audiolevels</effectcategory>
										<effecttype>audiolevels</effecttype>
										<mediatype>audio</mediatype>
										<parameter>
											<name>Level</name>
											<parameterid>level</parameterid>
											<valuemin>0</valuemin>
											<valuemax>3,98109</valuemax>
											<value>1</value>
										</parameter>
									</effect>
								</filter>
								<filter>
									<effect>
										<name>Audio Pan</name>
										<effectid>audiopan</effectid>
										<effectcategory>audiopan</effectcategory>
										<effecttype>audiopan</effecttype>
										<mediatype>audio</mediatype>
										<parameter>
											<name>Pan</name>
											<parameterid>pan</parameterid>
											<valuemin>-1</valuemin>
											<valuemax>1</valuemax>
											<value>-1</value>
										</parameter>
									</effect>
								</filter>
								<sourcetrack>
									<mediatype>audio</mediatype>
									<trackindex>1</trackindex>
								</sourcetrack>
								<link>
									<linkclipref>ArmA 3 2020.11.14 - 21.01.54.48.mp4805307661</linkclipref>
								</link>
								<link>
									<linkclipref>ArmA 3 2020.11.14 - 21.01.54.48.mp4536872206</linkclipref>
								</link>
								<link>
									<linkclipref>ArmA 3 2020.11.14 - 21.01.54.48.mp45368722061</linkclipref>
								</link>
								<link>
									<linkclipref>ArmA 3 2020.11.14 - 21.01.54.48.mp4536872207</linkclipref>
								</link>
								<link>
									<linkclipref>ArmA 3 2020.11.14 - 21.01.54.48.mp45368722071</linkclipref>
								</link>
							</clipitem>
							<clipitem id="ArmA 3 2020.11.14 - 21.03.09.49.mp4536872209">
								<name>ArmA 3 2020.11.14 - 21.03.09.49.mp4</name>
								<duration>577</duration>
								<rate>
									<ntsc>TRUE</ntsc>
									<timebase>24</timebase>
								</rate>
								<in>0</in>
								<out>577</out>
								<start>17790</start>
								<end>18367</end>
								<enabled>FALSE</enabled>
								<masterclipid>ArmA 3 2020.11.14 - 21.03.09.49.mp4</masterclipid>
								<logginginfo>
									<scene />
									<shottake />
									<lognote />
									<good>FALSE</good>
								</logginginfo>
								<labels>
									<label2 />
								</labels>
								<comments>
									<mastercomment1 />
									<mastercomment2 />
									<mastercomment3 />
									<mastercomment4 />
								</comments>
								<file id="ArmA 3 2020.11.14 - 21.03.09.49" />
								<filter>
									<effect>
										<name>Audio Levels</name>
										<effectid>audiolevels</effectid>
										<effectcategory>audiolevels</effectcategory>
										<effecttype>audiolevels</effecttype>
										<mediatype>audio</mediatype>
										<parameter>
											<name>Level</name>
											<parameterid>level</parameterid>
											<valuemin>0</valuemin>
											<valuemax>3,98109</valuemax>
											<value>1</value>
										</parameter>
									</effect>
								</filter>
								<filter>
									<effect>
										<name>Audio Pan</name>
										<effectid>audiopan</effectid>
										<effectcategory>audiopan</effectcategory>
										<effecttype>audiopan</effecttype>
										<mediatype>audio</mediatype>
										<parameter>
											<name>Pan</name>
											<parameterid>pan</parameterid>
											<valuemin>-1</valuemin>
											<valuemax>1</valuemax>
											<value>-1</value>
										</parameter>
									</effect>
								</filter>
								<sourcetrack>
									<mediatype>audio</mediatype>
									<trackindex>1</trackindex>
								</sourcetrack>
								<link>
									<linkclipref>ArmA 3 2020.11.14 - 21.03.09.49.mp4805307664</linkclipref>
								</link>
								<link>
									<linkclipref>ArmA 3 2020.11.14 - 21.03.09.49.mp4536872209</linkclipref>
								</link>
								<link>
									<linkclipref>ArmA 3 2020.11.14 - 21.03.09.49.mp45368722091</linkclipref>
								</link>
								<link>
									<linkclipref>ArmA 3 2020.11.14 - 21.03.09.49.mp4536872210</linkclipref>
								</link>
								<link>
									<linkclipref>ArmA 3 2020.11.14 - 21.03.09.49.mp45368722101</linkclipref>
								</link>
							</clipitem>
							<clipitem id="ArmA 3 2020.11.14 - 21.04.25.50.mp4536872212">
								<name>ArmA 3 2020.11.14 - 21.04.25.50.mp4</name>
								<duration>573</duration>
								<rate>
									<ntsc>TRUE</ntsc>
									<timebase>24</timebase>
								</rate>
								<in>0</in>
								<out>573</out>
								<start>18368</start>
								<end>18941</end>
								<enabled>FALSE</enabled>
								<masterclipid>ArmA 3 2020.11.14 - 21.04.25.50.mp4</masterclipid>
								<logginginfo>
									<scene />
									<shottake />
									<lognote />
									<good>FALSE</good>
								</logginginfo>
								<labels>
									<label2 />
								</labels>
								<comments>
									<mastercomment1 />
									<mastercomment2 />
									<mastercomment3 />
									<mastercomment4 />
								</comments>
								<file id="ArmA 3 2020.11.14 - 21.04.25.50" />
								<filter>
									<effect>
										<name>Audio Levels</name>
										<effectid>audiolevels</effectid>
										<effectcategory>audiolevels</effectcategory>
										<effecttype>audiolevels</effecttype>
										<mediatype>audio</mediatype>
										<parameter>
											<name>Level</name>
											<parameterid>level</parameterid>
											<valuemin>0</valuemin>
											<valuemax>3,98109</valuemax>
											<value>1</value>
										</parameter>
									</effect>
								</filter>
								<filter>
									<effect>
										<name>Audio Pan</name>
										<effectid>audiopan</effectid>
										<effectcategory>audiopan</effectcategory>
										<effecttype>audiopan</effecttype>
										<mediatype>audio</mediatype>
										<parameter>
											<name>Pan</name>
											<parameterid>pan</parameterid>
											<valuemin>-1</valuemin>
											<valuemax>1</valuemax>
											<value>-1</value>
										</parameter>
									</effect>
								</filter>
								<sourcetrack>
									<mediatype>audio</mediatype>
									<trackindex>1</trackindex>
								</sourcetrack>
								<link>
									<linkclipref>ArmA 3 2020.11.14 - 21.04.25.50.mp4805307667</linkclipref>
								</link>
								<link>
									<linkclipref>ArmA 3 2020.11.14 - 21.04.25.50.mp4536872212</linkclipref>
								</link>
								<link>
									<linkclipref>ArmA 3 2020.11.14 - 21.04.25.50.mp45368722121</linkclipref>
								</link>
								<link>
									<linkclipref>ArmA 3 2020.11.14 - 21.04.25.50.mp4536872213</linkclipref>
								</link>
								<link>
									<linkclipref>ArmA 3 2020.11.14 - 21.04.25.50.mp45368722131</linkclipref>
								</link>
							</clipitem>
							<clipitem id="ArmA 3 2020.11.14 - 21.05.14.51.mp4536872215">
								<name>ArmA 3 2020.11.14 - 21.05.14.51.mp4</name>
								<duration>643</duration>
								<rate>
									<ntsc>TRUE</ntsc>
									<timebase>24</timebase>
								</rate>
								<in>0</in>
								<out>643</out>
								<start>18942</start>
								<end>19585</end>
								<enabled>FALSE</enabled>
								<masterclipid>ArmA 3 2020.11.14 - 21.05.14.51.mp4</masterclipid>
								<logginginfo>
									<scene />
									<shottake />
									<lognote />
									<good>FALSE</good>
								</logginginfo>
								<labels>
									<label2 />
								</labels>
								<comments>
									<mastercomment1 />
									<mastercomment2 />
									<mastercomment3 />
									<mastercomment4 />
								</comments>
								<file id="ArmA 3 2020.11.14 - 21.05.14.51" />
								<filter>
									<effect>
										<name>Audio Levels</name>
										<effectid>audiolevels</effectid>
										<effectcategory>audiolevels</effectcategory>
										<effecttype>audiolevels</effecttype>
										<mediatype>audio</mediatype>
										<parameter>
											<name>Level</name>
											<parameterid>level</parameterid>
											<valuemin>0</valuemin>
											<valuemax>3,98109</valuemax>
											<value>1</value>
										</parameter>
									</effect>
								</filter>
								<filter>
									<effect>
										<name>Audio Pan</name>
										<effectid>audiopan</effectid>
										<effectcategory>audiopan</effectcategory>
										<effecttype>audiopan</effecttype>
										<mediatype>audio</mediatype>
										<parameter>
											<name>Pan</name>
											<parameterid>pan</parameterid>
											<valuemin>-1</valuemin>
											<valuemax>1</valuemax>
											<value>-1</value>
										</parameter>
									</effect>
								</filter>
								<sourcetrack>
									<mediatype>audio</mediatype>
									<trackindex>1</trackindex>
								</sourcetrack>
								<link>
									<linkclipref>ArmA 3 2020.11.14 - 21.05.14.51.mp4805307670</linkclipref>
								</link>
								<link>
									<linkclipref>ArmA 3 2020.11.14 - 21.05.14.51.mp4536872215</linkclipref>
								</link>
								<link>
									<linkclipref>ArmA 3 2020.11.14 - 21.05.14.51.mp45368722151</linkclipref>
								</link>
								<link>
									<linkclipref>ArmA 3 2020.11.14 - 21.05.14.51.mp4536872216</linkclipref>
								</link>
								<link>
									<linkclipref>ArmA 3 2020.11.14 - 21.05.14.51.mp45368722161</linkclipref>
								</link>
							</clipitem>
							<clipitem id="ArmA 3 2020.11.14 - 21.05.51.52.mp4536872218">
								<name>ArmA 3 2020.11.14 - 21.05.51.52.mp4</name>
								<duration>832</duration>
								<rate>
									<ntsc>TRUE</ntsc>
									<timebase>24</timebase>
								</rate>
								<in>0</in>
								<out>832</out>
								<start>19586</start>
								<end>20418</end>
								<enabled>FALSE</enabled>
								<masterclipid>ArmA 3 2020.11.14 - 21.05.51.52.mp4</masterclipid>
								<logginginfo>
									<scene />
									<shottake />
									<lognote />
									<good>FALSE</good>
								</logginginfo>
								<labels>
									<label2 />
								</labels>
								<comments>
									<mastercomment1 />
									<mastercomment2 />
									<mastercomment3 />
									<mastercomment4 />
								</comments>
								<file id="ArmA 3 2020.11.14 - 21.05.51.52" />
								<filter>
									<effect>
										<name>Audio Levels</name>
										<effectid>audiolevels</effectid>
										<effectcategory>audiolevels</effectcategory>
										<effecttype>audiolevels</effecttype>
										<mediatype>audio</mediatype>
										<parameter>
											<name>Level</name>
											<parameterid>level</parameterid>
											<valuemin>0</valuemin>
											<valuemax>3,98109</valuemax>
											<value>1</value>
										</parameter>
									</effect>
								</filter>
								<filter>
									<effect>
										<name>Audio Pan</name>
										<effectid>audiopan</effectid>
										<effectcategory>audiopan</effectcategory>
										<effecttype>audiopan</effecttype>
										<mediatype>audio</mediatype>
										<parameter>
											<name>Pan</name>
											<parameterid>pan</parameterid>
											<valuemin>-1</valuemin>
											<valuemax>1</valuemax>
											<value>-1</value>
										</parameter>
									</effect>
								</filter>
								<sourcetrack>
									<mediatype>audio</mediatype>
									<trackindex>1</trackindex>
								</sourcetrack>
								<link>
									<linkclipref>ArmA 3 2020.11.14 - 21.05.51.52.mp4805307673</linkclipref>
								</link>
								<link>
									<linkclipref>ArmA 3 2020.11.14 - 21.05.51.52.mp4536872218</linkclipref>
								</link>
								<link>
									<linkclipref>ArmA 3 2020.11.14 - 21.05.51.52.mp45368722181</linkclipref>
								</link>
								<link>
									<linkclipref>ArmA 3 2020.11.14 - 21.05.51.52.mp4536872219</linkclipref>
								</link>
								<link>
									<linkclipref>ArmA 3 2020.11.14 - 21.05.51.52.mp45368722191</linkclipref>
								</link>
							</clipitem>
							<clipitem id="ArmA 3 2020.11.14 - 21.06.34.53.mp4536872221">
								<name>ArmA 3 2020.11.14 - 21.06.34.53.mp4</name>
								<duration>1018</duration>
								<rate>
									<ntsc>TRUE</ntsc>
									<timebase>24</timebase>
								</rate>
								<in>0</in>
								<out>1018</out>
								<start>20419</start>
								<end>21437</end>
								<enabled>FALSE</enabled>
								<masterclipid>ArmA 3 2020.11.14 - 21.06.34.53.mp4</masterclipid>
								<logginginfo>
									<scene />
									<shottake />
									<lognote />
									<good>FALSE</good>
								</logginginfo>
								<labels>
									<label2 />
								</labels>
								<comments>
									<mastercomment1 />
									<mastercomment2 />
									<mastercomment3 />
									<mastercomment4 />
								</comments>
								<file id="ArmA 3 2020.11.14 - 21.06.34.53" />
								<filter>
									<effect>
										<name>Audio Levels</name>
										<effectid>audiolevels</effectid>
										<effectcategory>audiolevels</effectcategory>
										<effecttype>audiolevels</effecttype>
										<mediatype>audio</mediatype>
										<parameter>
											<name>Level</name>
											<parameterid>level</parameterid>
											<valuemin>0</valuemin>
											<valuemax>3,98109</valuemax>
											<value>1</value>
										</parameter>
									</effect>
								</filter>
								<filter>
									<effect>
										<name>Audio Pan</name>
										<effectid>audiopan</effectid>
										<effectcategory>audiopan</effectcategory>
										<effecttype>audiopan</effecttype>
										<mediatype>audio</mediatype>
										<parameter>
											<name>Pan</name>
											<parameterid>pan</parameterid>
											<valuemin>-1</valuemin>
											<valuemax>1</valuemax>
											<value>-1</value>
										</parameter>
									</effect>
								</filter>
								<sourcetrack>
									<mediatype>audio</mediatype>
									<trackindex>1</trackindex>
								</sourcetrack>
								<link>
									<linkclipref>ArmA 3 2020.11.14 - 21.06.34.53.mp4805307676</linkclipref>
								</link>
								<link>
									<linkclipref>ArmA 3 2020.11.14 - 21.06.34.53.mp4536872221</linkclipref>
								</link>
								<link>
									<linkclipref>ArmA 3 2020.11.14 - 21.06.34.53.mp45368722211</linkclipref>
								</link>
								<link>
									<linkclipref>ArmA 3 2020.11.14 - 21.06.34.53.mp4536872222</linkclipref>
								</link>
								<link>
									<linkclipref>ArmA 3 2020.11.14 - 21.06.34.53.mp45368722221</linkclipref>
								</link>
							</clipitem>
							<clipitem id="ArmA 3 2020.11.14 - 21.07.39.54.mp4536872224">
								<name>ArmA 3 2020.11.14 - 21.07.39.54.mp4</name>
								<duration>2137</duration>
								<rate>
									<ntsc>TRUE</ntsc>
									<timebase>24</timebase>
								</rate>
								<in>0</in>
								<out>2137</out>
								<start>21438</start>
								<end>23575</end>
								<enabled>FALSE</enabled>
								<masterclipid>ArmA 3 2020.11.14 - 21.07.39.54.mp4</masterclipid>
								<logginginfo>
									<scene />
									<shottake />
									<lognote />
									<good>FALSE</good>
								</logginginfo>
								<labels>
									<label2 />
								</labels>
								<comments>
									<mastercomment1 />
									<mastercomment2 />
									<mastercomment3 />
									<mastercomment4 />
								</comments>
								<file id="ArmA 3 2020.11.14 - 21.07.39.54" />
								<filter>
									<effect>
										<name>Audio Levels</name>
										<effectid>audiolevels</effectid>
										<effectcategory>audiolevels</effectcategory>
										<effecttype>audiolevels</effecttype>
										<mediatype>audio</mediatype>
										<parameter>
											<name>Level</name>
											<parameterid>level</parameterid>
											<valuemin>0</valuemin>
											<valuemax>3,98109</valuemax>
											<value>1</value>
										</parameter>
									</effect>
								</filter>
								<filter>
									<effect>
										<name>Audio Pan</name>
										<effectid>audiopan</effectid>
										<effectcategory>audiopan</effectcategory>
										<effecttype>audiopan</effecttype>
										<mediatype>audio</mediatype>
										<parameter>
											<name>Pan</name>
											<parameterid>pan</parameterid>
											<valuemin>-1</valuemin>
											<valuemax>1</valuemax>
											<value>-1</value>
										</parameter>
									</effect>
								</filter>
								<sourcetrack>
									<mediatype>audio</mediatype>
									<trackindex>1</trackindex>
								</sourcetrack>
								<link>
									<linkclipref>ArmA 3 2020.11.14 - 21.07.39.54.mp4805307679</linkclipref>
								</link>
								<link>
									<linkclipref>ArmA 3 2020.11.14 - 21.07.39.54.mp4536872224</linkclipref>
								</link>
								<link>
									<linkclipref>ArmA 3 2020.11.14 - 21.07.39.54.mp45368722241</linkclipref>
								</link>
								<link>
									<linkclipref>ArmA 3 2020.11.14 - 21.07.39.54.mp4536872225</linkclipref>
								</link>
								<link>
									<linkclipref>ArmA 3 2020.11.14 - 21.07.39.54.mp45368722251</linkclipref>
								</link>
							</clipitem>
							<clipitem id="ArmA 3 2020.11.14 - 21.12.09.55.mp4536872227">
								<name>ArmA 3 2020.11.14 - 21.12.09.55.mp4</name>
								<duration>4968</duration>
								<rate>
									<ntsc>TRUE</ntsc>
									<timebase>24</timebase>
								</rate>
								<in>0</in>
								<out>4968</out>
								<start>23576</start>
								<end>28544</end>
								<enabled>FALSE</enabled>
								<masterclipid>ArmA 3 2020.11.14 - 21.12.09.55.mp4</masterclipid>
								<logginginfo>
									<scene />
									<shottake />
									<lognote />
									<good>FALSE</good>
								</logginginfo>
								<labels>
									<label2 />
								</labels>
								<comments>
									<mastercomment1 />
									<mastercomment2 />
									<mastercomment3 />
									<mastercomment4 />
								</comments>
								<file id="ArmA 3 2020.11.14 - 21.12.09.55" />
								<filter>
									<effect>
										<name>Audio Levels</name>
										<effectid>audiolevels</effectid>
										<effectcategory>audiolevels</effectcategory>
										<effecttype>audiolevels</effecttype>
										<mediatype>audio</mediatype>
										<parameter>
											<name>Level</name>
											<parameterid>level</parameterid>
											<valuemin>0</valuemin>
											<valuemax>3,98109</valuemax>
											<value>1</value>
										</parameter>
									</effect>
								</filter>
								<filter>
									<effect>
										<name>Audio Pan</name>
										<effectid>audiopan</effectid>
										<effectcategory>audiopan</effectcategory>
										<effecttype>audiopan</effecttype>
										<mediatype>audio</mediatype>
										<parameter>
											<name>Pan</name>
											<parameterid>pan</parameterid>
											<valuemin>-1</valuemin>
											<valuemax>1</valuemax>
											<value>-1</value>
										</parameter>
									</effect>
								</filter>
								<sourcetrack>
									<mediatype>audio</mediatype>
									<trackindex>1</trackindex>
								</sourcetrack>
								<link>
									<linkclipref>ArmA 3 2020.11.14 - 21.12.09.55.mp4805307682</linkclipref>
								</link>
								<link>
									<linkclipref>ArmA 3 2020.11.14 - 21.12.09.55.mp4536872227</linkclipref>
								</link>
								<link>
									<linkclipref>ArmA 3 2020.11.14 - 21.12.09.55.mp45368722271</linkclipref>
								</link>
								<link>
									<linkclipref>ArmA 3 2020.11.14 - 21.12.09.55.mp4536872228</linkclipref>
								</link>
								<link>
									<linkclipref>ArmA 3 2020.11.14 - 21.12.09.55.mp45368722281</linkclipref>
								</link>
							</clipitem>
							<clipitem id="ArmA 3 2020.11.14 - 21.17.09.56.mp4536872230">
								<name>ArmA 3 2020.11.14 - 21.17.09.56.mp4</name>
								<duration>2046</duration>
								<rate>
									<ntsc>TRUE</ntsc>
									<timebase>24</timebase>
								</rate>
								<in>0</in>
								<out>2046</out>
								<start>28545</start>
								<end>30591</end>
								<enabled>FALSE</enabled>
								<masterclipid>ArmA 3 2020.11.14 - 21.17.09.56.mp4</masterclipid>
								<logginginfo>
									<scene />
									<shottake />
									<lognote />
									<good>FALSE</good>
								</logginginfo>
								<labels>
									<label2 />
								</labels>
								<comments>
									<mastercomment1 />
									<mastercomment2 />
									<mastercomment3 />
									<mastercomment4 />
								</comments>
								<file id="ArmA 3 2020.11.14 - 21.17.09.56" />
								<filter>
									<effect>
										<name>Audio Levels</name>
										<effectid>audiolevels</effectid>
										<effectcategory>audiolevels</effectcategory>
										<effecttype>audiolevels</effecttype>
										<mediatype>audio</mediatype>
										<parameter>
											<name>Level</name>
											<parameterid>level</parameterid>
											<valuemin>0</valuemin>
											<valuemax>3,98109</valuemax>
											<value>1</value>
										</parameter>
									</effect>
								</filter>
								<filter>
									<effect>
										<name>Audio Pan</name>
										<effectid>audiopan</effectid>
										<effectcategory>audiopan</effectcategory>
										<effecttype>audiopan</effecttype>
										<mediatype>audio</mediatype>
										<parameter>
											<name>Pan</name>
											<parameterid>pan</parameterid>
											<valuemin>-1</valuemin>
											<valuemax>1</valuemax>
											<value>-1</value>
										</parameter>
									</effect>
								</filter>
								<sourcetrack>
									<mediatype>audio</mediatype>
									<trackindex>1</trackindex>
								</sourcetrack>
								<link>
									<linkclipref>ArmA 3 2020.11.14 - 21.17.09.56.mp4805307685</linkclipref>
								</link>
								<link>
									<linkclipref>ArmA 3 2020.11.14 - 21.17.09.56.mp4536872230</linkclipref>
								</link>
								<link>
									<linkclipref>ArmA 3 2020.11.14 - 21.17.09.56.mp45368722301</linkclipref>
								</link>
								<link>
									<linkclipref>ArmA 3 2020.11.14 - 21.17.09.56.mp4536872231</linkclipref>
								</link>
								<link>
									<linkclipref>ArmA 3 2020.11.14 - 21.17.09.56.mp45368722311</linkclipref>
								</link>
							</clipitem>
							<clipitem id="ArmA 3 2020.11.14 - 21.18.42.57.mp4536872233">
								<name>ArmA 3 2020.11.14 - 21.18.42.57.mp4</name>
								<duration>648</duration>
								<rate>
									<ntsc>TRUE</ntsc>
									<timebase>24</timebase>
								</rate>
								<in>0</in>
								<out>648</out>
								<start>30592</start>
								<end>31240</end>
								<enabled>FALSE</enabled>
								<masterclipid>ArmA 3 2020.11.14 - 21.18.42.57.mp4</masterclipid>
								<logginginfo>
									<scene />
									<shottake />
									<lognote />
									<good>FALSE</good>
								</logginginfo>
								<labels>
									<label2 />
								</labels>
								<comments>
									<mastercomment1 />
									<mastercomment2 />
									<mastercomment3 />
									<mastercomment4 />
								</comments>
								<file id="ArmA 3 2020.11.14 - 21.18.42.57" />
								<filter>
									<effect>
										<name>Audio Levels</name>
										<effectid>audiolevels</effectid>
										<effectcategory>audiolevels</effectcategory>
										<effecttype>audiolevels</effecttype>
										<mediatype>audio</mediatype>
										<parameter>
											<name>Level</name>
											<parameterid>level</parameterid>
											<valuemin>0</valuemin>
											<valuemax>3,98109</valuemax>
											<value>1</value>
										</parameter>
									</effect>
								</filter>
								<filter>
									<effect>
										<name>Audio Pan</name>
										<effectid>audiopan</effectid>
										<effectcategory>audiopan</effectcategory>
										<effecttype>audiopan</effecttype>
										<mediatype>audio</mediatype>
										<parameter>
											<name>Pan</name>
											<parameterid>pan</parameterid>
											<valuemin>-1</valuemin>
											<valuemax>1</valuemax>
											<value>-1</value>
										</parameter>
									</effect>
								</filter>
								<sourcetrack>
									<mediatype>audio</mediatype>
									<trackindex>1</trackindex>
								</sourcetrack>
								<link>
									<linkclipref>ArmA 3 2020.11.14 - 21.18.42.57.mp4805307688</linkclipref>
								</link>
								<link>
									<linkclipref>ArmA 3 2020.11.14 - 21.18.42.57.mp4536872233</linkclipref>
								</link>
								<link>
									<linkclipref>ArmA 3 2020.11.14 - 21.18.42.57.mp45368722331</linkclipref>
								</link>
								<link>
									<linkclipref>ArmA 3 2020.11.14 - 21.18.42.57.mp4536872234</linkclipref>
								</link>
								<link>
									<linkclipref>ArmA 3 2020.11.14 - 21.18.42.57.mp45368722341</linkclipref>
								</link>
							</clipitem>
							<clipitem id="ArmA 3 2020.11.14 - 21.19.27.58.mp4536872236">
								<name>ArmA 3 2020.11.14 - 21.19.27.58.mp4</name>
								<duration>600</duration>
								<rate>
									<ntsc>TRUE</ntsc>
									<timebase>24</timebase>
								</rate>
								<in>0</in>
								<out>600</out>
								<start>31241</start>
								<end>31841</end>
								<enabled>FALSE</enabled>
								<masterclipid>ArmA 3 2020.11.14 - 21.19.27.58.mp4</masterclipid>
								<logginginfo>
									<scene />
									<shottake />
									<lognote />
									<good>FALSE</good>
								</logginginfo>
								<labels>
									<label2 />
								</labels>
								<comments>
									<mastercomment1 />
									<mastercomment2 />
									<mastercomment3 />
									<mastercomment4 />
								</comments>
								<file id="ArmA 3 2020.11.14 - 21.19.27.58" />
								<filter>
									<effect>
										<name>Audio Levels</name>
										<effectid>audiolevels</effectid>
										<effectcategory>audiolevels</effectcategory>
										<effecttype>audiolevels</effecttype>
										<mediatype>audio</mediatype>
										<parameter>
											<name>Level</name>
											<parameterid>level</parameterid>
											<valuemin>0</valuemin>
											<valuemax>3,98109</valuemax>
											<value>1</value>
										</parameter>
									</effect>
								</filter>
								<filter>
									<effect>
										<name>Audio Pan</name>
										<effectid>audiopan</effectid>
										<effectcategory>audiopan</effectcategory>
										<effecttype>audiopan</effecttype>
										<mediatype>audio</mediatype>
										<parameter>
											<name>Pan</name>
											<parameterid>pan</parameterid>
											<valuemin>-1</valuemin>
											<valuemax>1</valuemax>
											<value>-1</value>
										</parameter>
									</effect>
								</filter>
								<sourcetrack>
									<mediatype>audio</mediatype>
									<trackindex>1</trackindex>
								</sourcetrack>
								<link>
									<linkclipref>ArmA 3 2020.11.14 - 21.19.27.58.mp4805307691</linkclipref>
								</link>
								<link>
									<linkclipref>ArmA 3 2020.11.14 - 21.19.27.58.mp4536872236</linkclipref>
								</link>
								<link>
									<linkclipref>ArmA 3 2020.11.14 - 21.19.27.58.mp45368722361</linkclipref>
								</link>
								<link>
									<linkclipref>ArmA 3 2020.11.14 - 21.19.27.58.mp4536872237</linkclipref>
								</link>
								<link>
									<linkclipref>ArmA 3 2020.11.14 - 21.19.27.58.mp45368722371</linkclipref>
								</link>
							</clipitem>
							<clipitem id="ArmA 3 2020.11.14 - 21.21.59.59.mp4536872239">
								<name>ArmA 3 2020.11.14 - 21.21.59.59.mp4</name>
								<duration>2221</duration>
								<rate>
									<ntsc>TRUE</ntsc>
									<timebase>24</timebase>
								</rate>
								<in>0</in>
								<out>2221</out>
								<start>31842</start>
								<end>34063</end>
								<enabled>FALSE</enabled>
								<masterclipid>ArmA 3 2020.11.14 - 21.21.59.59.mp4</masterclipid>
								<logginginfo>
									<scene />
									<shottake />
									<lognote />
									<good>FALSE</good>
								</logginginfo>
								<labels>
									<label2 />
								</labels>
								<comments>
									<mastercomment1 />
									<mastercomment2 />
									<mastercomment3 />
									<mastercomment4 />
								</comments>
								<file id="ArmA 3 2020.11.14 - 21.21.59.59" />
								<filter>
									<effect>
										<name>Audio Levels</name>
										<effectid>audiolevels</effectid>
										<effectcategory>audiolevels</effectcategory>
										<effecttype>audiolevels</effecttype>
										<mediatype>audio</mediatype>
										<parameter>
											<name>Level</name>
											<parameterid>level</parameterid>
											<valuemin>0</valuemin>
											<valuemax>3,98109</valuemax>
											<value>1</value>
										</parameter>
									</effect>
								</filter>
								<filter>
									<effect>
										<name>Audio Pan</name>
										<effectid>audiopan</effectid>
										<effectcategory>audiopan</effectcategory>
										<effecttype>audiopan</effecttype>
										<mediatype>audio</mediatype>
										<parameter>
											<name>Pan</name>
											<parameterid>pan</parameterid>
											<valuemin>-1</valuemin>
											<valuemax>1</valuemax>
											<value>-1</value>
										</parameter>
									</effect>
								</filter>
								<sourcetrack>
									<mediatype>audio</mediatype>
									<trackindex>1</trackindex>
								</sourcetrack>
								<link>
									<linkclipref>ArmA 3 2020.11.14 - 21.21.59.59.mp4805307694</linkclipref>
								</link>
								<link>
									<linkclipref>ArmA 3 2020.11.14 - 21.21.59.59.mp4536872239</linkclipref>
								</link>
								<link>
									<linkclipref>ArmA 3 2020.11.14 - 21.21.59.59.mp45368722391</linkclipref>
								</link>
								<link>
									<linkclipref>ArmA 3 2020.11.14 - 21.21.59.59.mp4536872240</linkclipref>
								</link>
								<link>
									<linkclipref>ArmA 3 2020.11.14 - 21.21.59.59.mp45368722401</linkclipref>
								</link>
							</clipitem>
							<clipitem id="ArmA 3 2020.11.14 - 21.24.02.60.mp4536872242">
								<name>ArmA 3 2020.11.14 - 21.24.02.60.mp4</name>
								<duration>905</duration>
								<rate>
									<ntsc>TRUE</ntsc>
									<timebase>24</timebase>
								</rate>
								<in>0</in>
								<out>905</out>
								<start>34064</start>
								<end>34969</end>
								<enabled>FALSE</enabled>
								<masterclipid>ArmA 3 2020.11.14 - 21.24.02.60.mp4</masterclipid>
								<logginginfo>
									<scene />
									<shottake />
									<lognote />
									<good>FALSE</good>
								</logginginfo>
								<labels>
									<label2 />
								</labels>
								<comments>
									<mastercomment1 />
									<mastercomment2 />
									<mastercomment3 />
									<mastercomment4 />
								</comments>
								<file id="ArmA 3 2020.11.14 - 21.24.02.60" />
								<filter>
									<effect>
										<name>Audio Levels</name>
										<effectid>audiolevels</effectid>
										<effectcategory>audiolevels</effectcategory>
										<effecttype>audiolevels</effecttype>
										<mediatype>audio</mediatype>
										<parameter>
											<name>Level</name>
											<parameterid>level</parameterid>
											<valuemin>0</valuemin>
											<valuemax>3,98109</valuemax>
											<value>1</value>
										</parameter>
									</effect>
								</filter>
								<filter>
									<effect>
										<name>Audio Pan</name>
										<effectid>audiopan</effectid>
										<effectcategory>audiopan</effectcategory>
										<effecttype>audiopan</effecttype>
										<mediatype>audio</mediatype>
										<parameter>
											<name>Pan</name>
											<parameterid>pan</parameterid>
											<valuemin>-1</valuemin>
											<valuemax>1</valuemax>
											<value>-1</value>
										</parameter>
									</effect>
								</filter>
								<sourcetrack>
									<mediatype>audio</mediatype>
									<trackindex>1</trackindex>
								</sourcetrack>
								<link>
									<linkclipref>ArmA 3 2020.11.14 - 21.24.02.60.mp4805307697</linkclipref>
								</link>
								<link>
									<linkclipref>ArmA 3 2020.11.14 - 21.24.02.60.mp4536872242</linkclipref>
								</link>
								<link>
									<linkclipref>ArmA 3 2020.11.14 - 21.24.02.60.mp45368722421</linkclipref>
								</link>
								<link>
									<linkclipref>ArmA 3 2020.11.14 - 21.24.02.60.mp4536872243</linkclipref>
								</link>
								<link>
									<linkclipref>ArmA 3 2020.11.14 - 21.24.02.60.mp45368722431</linkclipref>
								</link>
							</clipitem>
							<clipitem id="ArmA 3 2020.11.14 - 21.25.23.61.mp4536872245">
								<name>ArmA 3 2020.11.14 - 21.25.23.61.mp4</name>
								<duration>1117</duration>
								<rate>
									<ntsc>TRUE</ntsc>
									<timebase>24</timebase>
								</rate>
								<in>0</in>
								<out>1117</out>
								<start>34970</start>
								<end>36087</end>
								<enabled>FALSE</enabled>
								<masterclipid>ArmA 3 2020.11.14 - 21.25.23.61.mp4</masterclipid>
								<logginginfo>
									<scene />
									<shottake />
									<lognote />
									<good>FALSE</good>
								</logginginfo>
								<labels>
									<label2 />
								</labels>
								<comments>
									<mastercomment1 />
									<mastercomment2 />
									<mastercomment3 />
									<mastercomment4 />
								</comments>
								<file id="ArmA 3 2020.11.14 - 21.25.23.61" />
								<filter>
									<effect>
										<name>Audio Levels</name>
										<effectid>audiolevels</effectid>
										<effectcategory>audiolevels</effectcategory>
										<effecttype>audiolevels</effecttype>
										<mediatype>audio</mediatype>
										<parameter>
											<name>Level</name>
											<parameterid>level</parameterid>
											<valuemin>0</valuemin>
											<valuemax>3,98109</valuemax>
											<value>1</value>
										</parameter>
									</effect>
								</filter>
								<filter>
									<effect>
										<name>Audio Pan</name>
										<effectid>audiopan</effectid>
										<effectcategory>audiopan</effectcategory>
										<effecttype>audiopan</effecttype>
										<mediatype>audio</mediatype>
										<parameter>
											<name>Pan</name>
											<parameterid>pan</parameterid>
											<valuemin>-1</valuemin>
											<valuemax>1</valuemax>
											<value>-1</value>
										</parameter>
									</effect>
								</filter>
								<sourcetrack>
									<mediatype>audio</mediatype>
									<trackindex>1</trackindex>
								</sourcetrack>
								<link>
									<linkclipref>ArmA 3 2020.11.14 - 21.25.23.61.mp4805307700</linkclipref>
								</link>
								<link>
									<linkclipref>ArmA 3 2020.11.14 - 21.25.23.61.mp4536872245</linkclipref>
								</link>
								<link>
									<linkclipref>ArmA 3 2020.11.14 - 21.25.23.61.mp45368722451</linkclipref>
								</link>
								<link>
									<linkclipref>ArmA 3 2020.11.14 - 21.25.23.61.mp4536872246</linkclipref>
								</link>
								<link>
									<linkclipref>ArmA 3 2020.11.14 - 21.25.23.61.mp45368722461</linkclipref>
								</link>
							</clipitem>
							<clipitem id="ArmA 3 2020.11.14 - 21.26.46.62.mp4536872248">
								<name>ArmA 3 2020.11.14 - 21.26.46.62.mp4</name>
								<duration>1358</duration>
								<rate>
									<ntsc>TRUE</ntsc>
									<timebase>24</timebase>
								</rate>
								<in>0</in>
								<out>1358</out>
								<start>36088</start>
								<end>37446</end>
								<enabled>FALSE</enabled>
								<masterclipid>ArmA 3 2020.11.14 - 21.26.46.62.mp4</masterclipid>
								<logginginfo>
									<scene />
									<shottake />
									<lognote />
									<good>FALSE</good>
								</logginginfo>
								<labels>
									<label2 />
								</labels>
								<comments>
									<mastercomment1 />
									<mastercomment2 />
									<mastercomment3 />
									<mastercomment4 />
								</comments>
								<file id="ArmA 3 2020.11.14 - 21.26.46.62" />
								<filter>
									<effect>
										<name>Audio Levels</name>
										<effectid>audiolevels</effectid>
										<effectcategory>audiolevels</effectcategory>
										<effecttype>audiolevels</effecttype>
										<mediatype>audio</mediatype>
										<parameter>
											<name>Level</name>
											<parameterid>level</parameterid>
											<valuemin>0</valuemin>
											<valuemax>3,98109</valuemax>
											<value>1</value>
										</parameter>
									</effect>
								</filter>
								<filter>
									<effect>
										<name>Audio Pan</name>
										<effectid>audiopan</effectid>
										<effectcategory>audiopan</effectcategory>
										<effecttype>audiopan</effecttype>
										<mediatype>audio</mediatype>
										<parameter>
											<name>Pan</name>
											<parameterid>pan</parameterid>
											<valuemin>-1</valuemin>
											<valuemax>1</valuemax>
											<value>-1</value>
										</parameter>
									</effect>
								</filter>
								<sourcetrack>
									<mediatype>audio</mediatype>
									<trackindex>1</trackindex>
								</sourcetrack>
								<link>
									<linkclipref>ArmA 3 2020.11.14 - 21.26.46.62.mp4805307703</linkclipref>
								</link>
								<link>
									<linkclipref>ArmA 3 2020.11.14 - 21.26.46.62.mp4536872248</linkclipref>
								</link>
								<link>
									<linkclipref>ArmA 3 2020.11.14 - 21.26.46.62.mp45368722481</linkclipref>
								</link>
								<link>
									<linkclipref>ArmA 3 2020.11.14 - 21.26.46.62.mp4536872249</linkclipref>
								</link>
								<link>
									<linkclipref>ArmA 3 2020.11.14 - 21.26.46.62.mp45368722491</linkclipref>
								</link>
							</clipitem>
							<clipitem id="ArmA 3 2020.11.14 - 21.28.34.63.mp4536872251">
								<name>ArmA 3 2020.11.14 - 21.28.34.63.mp4</name>
								<duration>1117</duration>
								<rate>
									<ntsc>TRUE</ntsc>
									<timebase>24</timebase>
								</rate>
								<in>0</in>
								<out>1117</out>
								<start>37447</start>
								<end>38564</end>
								<enabled>FALSE</enabled>
								<masterclipid>ArmA 3 2020.11.14 - 21.28.34.63.mp4</masterclipid>
								<logginginfo>
									<scene />
									<shottake />
									<lognote />
									<good>FALSE</good>
								</logginginfo>
								<labels>
									<label2 />
								</labels>
								<comments>
									<mastercomment1 />
									<mastercomment2 />
									<mastercomment3 />
									<mastercomment4 />
								</comments>
								<file id="ArmA 3 2020.11.14 - 21.28.34.63" />
								<filter>
									<effect>
										<name>Audio Levels</name>
										<effectid>audiolevels</effectid>
										<effectcategory>audiolevels</effectcategory>
										<effecttype>audiolevels</effecttype>
										<mediatype>audio</mediatype>
										<parameter>
											<name>Level</name>
											<parameterid>level</parameterid>
											<valuemin>0</valuemin>
											<valuemax>3,98109</valuemax>
											<value>1</value>
										</parameter>
									</effect>
								</filter>
								<filter>
									<effect>
										<name>Audio Pan</name>
										<effectid>audiopan</effectid>
										<effectcategory>audiopan</effectcategory>
										<effecttype>audiopan</effecttype>
										<mediatype>audio</mediatype>
										<parameter>
											<name>Pan</name>
											<parameterid>pan</parameterid>
											<valuemin>-1</valuemin>
											<valuemax>1</valuemax>
											<value>-1</value>
										</parameter>
									</effect>
								</filter>
								<sourcetrack>
									<mediatype>audio</mediatype>
									<trackindex>1</trackindex>
								</sourcetrack>
								<link>
									<linkclipref>ArmA 3 2020.11.14 - 21.28.34.63.mp4805307706</linkclipref>
								</link>
								<link>
									<linkclipref>ArmA 3 2020.11.14 - 21.28.34.63.mp4536872251</linkclipref>
								</link>
								<link>
									<linkclipref>ArmA 3 2020.11.14 - 21.28.34.63.mp45368722511</linkclipref>
								</link>
								<link>
									<linkclipref>ArmA 3 2020.11.14 - 21.28.34.63.mp4536872252</linkclipref>
								</link>
								<link>
									<linkclipref>ArmA 3 2020.11.14 - 21.28.34.63.mp45368722521</linkclipref>
								</link>
							</clipitem>
							<clipitem id="ArmA 3 2020.11.14 - 21.29.57.64.mp4536872254">
								<name>ArmA 3 2020.11.14 - 21.29.57.64.mp4</name>
								<duration>3146</duration>
								<rate>
									<ntsc>TRUE</ntsc>
									<timebase>24</timebase>
								</rate>
								<in>0</in>
								<out>3146</out>
								<start>38565</start>
								<end>41711</end>
								<enabled>FALSE</enabled>
								<masterclipid>ArmA 3 2020.11.14 - 21.29.57.64.mp4</masterclipid>
								<logginginfo>
									<scene />
									<shottake />
									<lognote />
									<good>FALSE</good>
								</logginginfo>
								<labels>
									<label2 />
								</labels>
								<comments>
									<mastercomment1 />
									<mastercomment2 />
									<mastercomment3 />
									<mastercomment4 />
								</comments>
								<file id="ArmA 3 2020.11.14 - 21.29.57.64" />
								<filter>
									<effect>
										<name>Audio Levels</name>
										<effectid>audiolevels</effectid>
										<effectcategory>audiolevels</effectcategory>
										<effecttype>audiolevels</effecttype>
										<mediatype>audio</mediatype>
										<parameter>
											<name>Level</name>
											<parameterid>level</parameterid>
											<valuemin>0</valuemin>
											<valuemax>3,98109</valuemax>
											<value>1</value>
										</parameter>
									</effect>
								</filter>
								<filter>
									<effect>
										<name>Audio Pan</name>
										<effectid>audiopan</effectid>
										<effectcategory>audiopan</effectcategory>
										<effecttype>audiopan</effecttype>
										<mediatype>audio</mediatype>
										<parameter>
											<name>Pan</name>
											<parameterid>pan</parameterid>
											<valuemin>-1</valuemin>
											<valuemax>1</valuemax>
											<value>-1</value>
										</parameter>
									</effect>
								</filter>
								<sourcetrack>
									<mediatype>audio</mediatype>
									<trackindex>1</trackindex>
								</sourcetrack>
								<link>
									<linkclipref>ArmA 3 2020.11.14 - 21.29.57.64.mp4805307709</linkclipref>
								</link>
								<link>
									<linkclipref>ArmA 3 2020.11.14 - 21.29.57.64.mp4536872254</linkclipref>
								</link>
								<link>
									<linkclipref>ArmA 3 2020.11.14 - 21.29.57.64.mp45368722541</linkclipref>
								</link>
								<link>
									<linkclipref>ArmA 3 2020.11.14 - 21.29.57.64.mp4536872255</linkclipref>
								</link>
								<link>
									<linkclipref>ArmA 3 2020.11.14 - 21.29.57.64.mp45368722551</linkclipref>
								</link>
							</clipitem>
							<clipitem id="ArmA 3 2020.11.14 - 21.32.55.65.mp4536872257">
								<name>ArmA 3 2020.11.14 - 21.32.55.65.mp4</name>
								<duration>662</duration>
								<rate>
									<ntsc>TRUE</ntsc>
									<timebase>24</timebase>
								</rate>
								<in>0</in>
								<out>662</out>
								<start>41712</start>
								<end>42374</end>
								<enabled>FALSE</enabled>
								<masterclipid>ArmA 3 2020.11.14 - 21.32.55.65.mp4</masterclipid>
								<logginginfo>
									<scene />
									<shottake />
									<lognote />
									<good>FALSE</good>
								</logginginfo>
								<labels>
									<label2 />
								</labels>
								<comments>
									<mastercomment1 />
									<mastercomment2 />
									<mastercomment3 />
									<mastercomment4 />
								</comments>
								<file id="ArmA 3 2020.11.14 - 21.32.55.65" />
								<filter>
									<effect>
										<name>Audio Levels</name>
										<effectid>audiolevels</effectid>
										<effectcategory>audiolevels</effectcategory>
										<effecttype>audiolevels</effecttype>
										<mediatype>audio</mediatype>
										<parameter>
											<name>Level</name>
											<parameterid>level</parameterid>
											<valuemin>0</valuemin>
											<valuemax>3,98109</valuemax>
											<value>1</value>
										</parameter>
									</effect>
								</filter>
								<filter>
									<effect>
										<name>Audio Pan</name>
										<effectid>audiopan</effectid>
										<effectcategory>audiopan</effectcategory>
										<effecttype>audiopan</effecttype>
										<mediatype>audio</mediatype>
										<parameter>
											<name>Pan</name>
											<parameterid>pan</parameterid>
											<valuemin>-1</valuemin>
											<valuemax>1</valuemax>
											<value>-1</value>
										</parameter>
									</effect>
								</filter>
								<sourcetrack>
									<mediatype>audio</mediatype>
									<trackindex>1</trackindex>
								</sourcetrack>
								<link>
									<linkclipref>ArmA 3 2020.11.14 - 21.32.55.65.mp4805307712</linkclipref>
								</link>
								<link>
									<linkclipref>ArmA 3 2020.11.14 - 21.32.55.65.mp4536872257</linkclipref>
								</link>
								<link>
									<linkclipref>ArmA 3 2020.11.14 - 21.32.55.65.mp45368722571</linkclipref>
								</link>
								<link>
									<linkclipref>ArmA 3 2020.11.14 - 21.32.55.65.mp4536872258</linkclipref>
								</link>
								<link>
									<linkclipref>ArmA 3 2020.11.14 - 21.32.55.65.mp45368722581</linkclipref>
								</link>
							</clipitem>
							<clipitem id="ArmA 3 2020.11.14 - 21.33.51.66.mp4536872260">
								<name>ArmA 3 2020.11.14 - 21.33.51.66.mp4</name>
								<duration>1169</duration>
								<rate>
									<ntsc>TRUE</ntsc>
									<timebase>24</timebase>
								</rate>
								<in>0</in>
								<out>1169</out>
								<start>42375</start>
								<end>43544</end>
								<enabled>FALSE</enabled>
								<masterclipid>ArmA 3 2020.11.14 - 21.33.51.66.mp4</masterclipid>
								<logginginfo>
									<scene />
									<shottake />
									<lognote />
									<good>FALSE</good>
								</logginginfo>
								<labels>
									<label2 />
								</labels>
								<comments>
									<mastercomment1 />
									<mastercomment2 />
									<mastercomment3 />
									<mastercomment4 />
								</comments>
								<file id="ArmA 3 2020.11.14 - 21.33.51.66" />
								<filter>
									<effect>
										<name>Audio Levels</name>
										<effectid>audiolevels</effectid>
										<effectcategory>audiolevels</effectcategory>
										<effecttype>audiolevels</effecttype>
										<mediatype>audio</mediatype>
										<parameter>
											<name>Level</name>
											<parameterid>level</parameterid>
											<valuemin>0</valuemin>
											<valuemax>3,98109</valuemax>
											<value>1</value>
										</parameter>
									</effect>
								</filter>
								<filter>
									<effect>
										<name>Audio Pan</name>
										<effectid>audiopan</effectid>
										<effectcategory>audiopan</effectcategory>
										<effecttype>audiopan</effecttype>
										<mediatype>audio</mediatype>
										<parameter>
											<name>Pan</name>
											<parameterid>pan</parameterid>
											<valuemin>-1</valuemin>
											<valuemax>1</valuemax>
											<value>-1</value>
										</parameter>
									</effect>
								</filter>
								<sourcetrack>
									<mediatype>audio</mediatype>
									<trackindex>1</trackindex>
								</sourcetrack>
								<link>
									<linkclipref>ArmA 3 2020.11.14 - 21.33.51.66.mp4805307715</linkclipref>
								</link>
								<link>
									<linkclipref>ArmA 3 2020.11.14 - 21.33.51.66.mp4536872260</linkclipref>
								</link>
								<link>
									<linkclipref>ArmA 3 2020.11.14 - 21.33.51.66.mp45368722601</linkclipref>
								</link>
								<link>
									<linkclipref>ArmA 3 2020.11.14 - 21.33.51.66.mp4536872261</linkclipref>
								</link>
								<link>
									<linkclipref>ArmA 3 2020.11.14 - 21.33.51.66.mp45368722611</linkclipref>
								</link>
							</clipitem>
							<clipitem id="ArmA 3 2020.11.14 - 21.34.50.67.mp4536872263">
								<name>ArmA 3 2020.11.14 - 21.34.50.67.mp4</name>
								<duration>711</duration>
								<rate>
									<ntsc>TRUE</ntsc>
									<timebase>24</timebase>
								</rate>
								<in>0</in>
								<out>711</out>
								<start>43545</start>
								<end>44256</end>
								<enabled>FALSE</enabled>
								<masterclipid>ArmA 3 2020.11.14 - 21.34.50.67.mp4</masterclipid>
								<logginginfo>
									<scene />
									<shottake />
									<lognote />
									<good>FALSE</good>
								</logginginfo>
								<labels>
									<label2 />
								</labels>
								<comments>
									<mastercomment1 />
									<mastercomment2 />
									<mastercomment3 />
									<mastercomment4 />
								</comments>
								<file id="ArmA 3 2020.11.14 - 21.34.50.67" />
								<filter>
									<effect>
										<name>Audio Levels</name>
										<effectid>audiolevels</effectid>
										<effectcategory>audiolevels</effectcategory>
										<effecttype>audiolevels</effecttype>
										<mediatype>audio</mediatype>
										<parameter>
											<name>Level</name>
											<parameterid>level</parameterid>
											<valuemin>0</valuemin>
											<valuemax>3,98109</valuemax>
											<value>1</value>
										</parameter>
									</effect>
								</filter>
								<filter>
									<effect>
										<name>Audio Pan</name>
										<effectid>audiopan</effectid>
										<effectcategory>audiopan</effectcategory>
										<effecttype>audiopan</effecttype>
										<mediatype>audio</mediatype>
										<parameter>
											<name>Pan</name>
											<parameterid>pan</parameterid>
											<valuemin>-1</valuemin>
											<valuemax>1</valuemax>
											<value>-1</value>
										</parameter>
									</effect>
								</filter>
								<sourcetrack>
									<mediatype>audio</mediatype>
									<trackindex>1</trackindex>
								</sourcetrack>
								<link>
									<linkclipref>ArmA 3 2020.11.14 - 21.34.50.67.mp4805307718</linkclipref>
								</link>
								<link>
									<linkclipref>ArmA 3 2020.11.14 - 21.34.50.67.mp4536872263</linkclipref>
								</link>
								<link>
									<linkclipref>ArmA 3 2020.11.14 - 21.34.50.67.mp45368722631</linkclipref>
								</link>
								<link>
									<linkclipref>ArmA 3 2020.11.14 - 21.34.50.67.mp4536872264</linkclipref>
								</link>
								<link>
									<linkclipref>ArmA 3 2020.11.14 - 21.34.50.67.mp45368722641</linkclipref>
								</link>
							</clipitem>
							<clipitem id="ArmA 3 2020.11.14 - 21.36.53.68.mp4536872266">
								<name>ArmA 3 2020.11.14 - 21.36.53.68.mp4</name>
								<duration>209</duration>
								<rate>
									<ntsc>TRUE</ntsc>
									<timebase>24</timebase>
								</rate>
								<in>0</in>
								<out>209</out>
								<start>44257</start>
								<end>44466</end>
								<enabled>FALSE</enabled>
								<masterclipid>ArmA 3 2020.11.14 - 21.36.53.68.mp4</masterclipid>
								<logginginfo>
									<scene />
									<shottake />
									<lognote />
									<good>FALSE</good>
								</logginginfo>
								<labels>
									<label2 />
								</labels>
								<comments>
									<mastercomment1 />
									<mastercomment2 />
									<mastercomment3 />
									<mastercomment4 />
								</comments>
								<file id="ArmA 3 2020.11.14 - 21.36.53.68" />
								<filter>
									<effect>
										<name>Audio Levels</name>
										<effectid>audiolevels</effectid>
										<effectcategory>audiolevels</effectcategory>
										<effecttype>audiolevels</effecttype>
										<mediatype>audio</mediatype>
										<parameter>
											<name>Level</name>
											<parameterid>level</parameterid>
											<valuemin>0</valuemin>
											<valuemax>3,98109</valuemax>
											<value>1</value>
										</parameter>
									</effect>
								</filter>
								<filter>
									<effect>
										<name>Audio Pan</name>
										<effectid>audiopan</effectid>
										<effectcategory>audiopan</effectcategory>
										<effecttype>audiopan</effecttype>
										<mediatype>audio</mediatype>
										<parameter>
											<name>Pan</name>
											<parameterid>pan</parameterid>
											<valuemin>-1</valuemin>
											<valuemax>1</valuemax>
											<value>-1</value>
										</parameter>
									</effect>
								</filter>
								<sourcetrack>
									<mediatype>audio</mediatype>
									<trackindex>1</trackindex>
								</sourcetrack>
								<link>
									<linkclipref>ArmA 3 2020.11.14 - 21.36.53.68.mp4805307721</linkclipref>
								</link>
								<link>
									<linkclipref>ArmA 3 2020.11.14 - 21.36.53.68.mp4536872266</linkclipref>
								</link>
								<link>
									<linkclipref>ArmA 3 2020.11.14 - 21.36.53.68.mp45368722661</linkclipref>
								</link>
								<link>
									<linkclipref>ArmA 3 2020.11.14 - 21.36.53.68.mp4536872267</linkclipref>
								</link>
								<link>
									<linkclipref>ArmA 3 2020.11.14 - 21.36.53.68.mp45368722671</linkclipref>
								</link>
							</clipitem>
							<clipitem id="ArmA 3 2020.11.14 - 21.37.06.69.mp4536872269">
								<name>ArmA 3 2020.11.14 - 21.37.06.69.mp4</name>
								<duration>242</duration>
								<rate>
									<ntsc>TRUE</ntsc>
									<timebase>24</timebase>
								</rate>
								<in>0</in>
								<out>242</out>
								<start>44467</start>
								<end>44709</end>
								<enabled>FALSE</enabled>
								<masterclipid>ArmA 3 2020.11.14 - 21.37.06.69.mp4</masterclipid>
								<logginginfo>
									<scene />
									<shottake />
									<lognote />
									<good>FALSE</good>
								</logginginfo>
								<labels>
									<label2 />
								</labels>
								<comments>
									<mastercomment1 />
									<mastercomment2 />
									<mastercomment3 />
									<mastercomment4 />
								</comments>
								<file id="ArmA 3 2020.11.14 - 21.37.06.69" />
								<filter>
									<effect>
										<name>Audio Levels</name>
										<effectid>audiolevels</effectid>
										<effectcategory>audiolevels</effectcategory>
										<effecttype>audiolevels</effecttype>
										<mediatype>audio</mediatype>
										<parameter>
											<name>Level</name>
											<parameterid>level</parameterid>
											<valuemin>0</valuemin>
											<valuemax>3,98109</valuemax>
											<value>1</value>
										</parameter>
									</effect>
								</filter>
								<filter>
									<effect>
										<name>Audio Pan</name>
										<effectid>audiopan</effectid>
										<effectcategory>audiopan</effectcategory>
										<effecttype>audiopan</effecttype>
										<mediatype>audio</mediatype>
										<parameter>
											<name>Pan</name>
											<parameterid>pan</parameterid>
											<valuemin>-1</valuemin>
											<valuemax>1</valuemax>
											<value>-1</value>
										</parameter>
									</effect>
								</filter>
								<sourcetrack>
									<mediatype>audio</mediatype>
									<trackindex>1</trackindex>
								</sourcetrack>
								<link>
									<linkclipref>ArmA 3 2020.11.14 - 21.37.06.69.mp4805307724</linkclipref>
								</link>
								<link>
									<linkclipref>ArmA 3 2020.11.14 - 21.37.06.69.mp4536872269</linkclipref>
								</link>
								<link>
									<linkclipref>ArmA 3 2020.11.14 - 21.37.06.69.mp45368722691</linkclipref>
								</link>
								<link>
									<linkclipref>ArmA 3 2020.11.14 - 21.37.06.69.mp4536872270</linkclipref>
								</link>
								<link>
									<linkclipref>ArmA 3 2020.11.14 - 21.37.06.69.mp45368722701</linkclipref>
								</link>
							</clipitem>
							<clipitem id="ArmA 3 2020.11.14 - 21.37.32.70.mp4536872272">
								<name>ArmA 3 2020.11.14 - 21.37.32.70.mp4</name>
								<duration>816</duration>
								<rate>
									<ntsc>TRUE</ntsc>
									<timebase>24</timebase>
								</rate>
								<in>0</in>
								<out>816</out>
								<start>44710</start>
								<end>45526</end>
								<enabled>FALSE</enabled>
								<masterclipid>ArmA 3 2020.11.14 - 21.37.32.70.mp4</masterclipid>
								<logginginfo>
									<scene />
									<shottake />
									<lognote />
									<good>FALSE</good>
								</logginginfo>
								<labels>
									<label2 />
								</labels>
								<comments>
									<mastercomment1 />
									<mastercomment2 />
									<mastercomment3 />
									<mastercomment4 />
								</comments>
								<file id="ArmA 3 2020.11.14 - 21.37.32.70" />
								<filter>
									<effect>
										<name>Audio Levels</name>
										<effectid>audiolevels</effectid>
										<effectcategory>audiolevels</effectcategory>
										<effecttype>audiolevels</effecttype>
										<mediatype>audio</mediatype>
										<parameter>
											<name>Level</name>
											<parameterid>level</parameterid>
											<valuemin>0</valuemin>
											<valuemax>3,98109</valuemax>
											<value>1</value>
										</parameter>
									</effect>
								</filter>
								<filter>
									<effect>
										<name>Audio Pan</name>
										<effectid>audiopan</effectid>
										<effectcategory>audiopan</effectcategory>
										<effecttype>audiopan</effecttype>
										<mediatype>audio</mediatype>
										<parameter>
											<name>Pan</name>
											<parameterid>pan</parameterid>
											<valuemin>-1</valuemin>
											<valuemax>1</valuemax>
											<value>-1</value>
										</parameter>
									</effect>
								</filter>
								<sourcetrack>
									<mediatype>audio</mediatype>
									<trackindex>1</trackindex>
								</sourcetrack>
								<link>
									<linkclipref>ArmA 3 2020.11.14 - 21.37.32.70.mp4805307727</linkclipref>
								</link>
								<link>
									<linkclipref>ArmA 3 2020.11.14 - 21.37.32.70.mp4536872272</linkclipref>
								</link>
								<link>
									<linkclipref>ArmA 3 2020.11.14 - 21.37.32.70.mp45368722721</linkclipref>
								</link>
								<link>
									<linkclipref>ArmA 3 2020.11.14 - 21.37.32.70.mp4536872273</linkclipref>
								</link>
								<link>
									<linkclipref>ArmA 3 2020.11.14 - 21.37.32.70.mp45368722731</linkclipref>
								</link>
							</clipitem>
							<clipitem id="ArmA 3 2020.11.14 - 21.38.41.71.mp4536872275">
								<name>ArmA 3 2020.11.14 - 21.38.41.71.mp4</name>
								<duration>191</duration>
								<rate>
									<ntsc>TRUE</ntsc>
									<timebase>24</timebase>
								</rate>
								<in>0</in>
								<out>191</out>
								<start>45527</start>
								<end>45718</end>
								<enabled>FALSE</enabled>
								<masterclipid>ArmA 3 2020.11.14 - 21.38.41.71.mp4</masterclipid>
								<logginginfo>
									<scene />
									<shottake />
									<lognote />
									<good>FALSE</good>
								</logginginfo>
								<labels>
									<label2 />
								</labels>
								<comments>
									<mastercomment1 />
									<mastercomment2 />
									<mastercomment3 />
									<mastercomment4 />
								</comments>
								<file id="ArmA 3 2020.11.14 - 21.38.41.71" />
								<filter>
									<effect>
										<name>Audio Levels</name>
										<effectid>audiolevels</effectid>
										<effectcategory>audiolevels</effectcategory>
										<effecttype>audiolevels</effecttype>
										<mediatype>audio</mediatype>
										<parameter>
											<name>Level</name>
											<parameterid>level</parameterid>
											<valuemin>0</valuemin>
											<valuemax>3,98109</valuemax>
											<value>1</value>
										</parameter>
									</effect>
								</filter>
								<filter>
									<effect>
										<name>Audio Pan</name>
										<effectid>audiopan</effectid>
										<effectcategory>audiopan</effectcategory>
										<effecttype>audiopan</effecttype>
										<mediatype>audio</mediatype>
										<parameter>
											<name>Pan</name>
											<parameterid>pan</parameterid>
											<valuemin>-1</valuemin>
											<valuemax>1</valuemax>
											<value>-1</value>
										</parameter>
									</effect>
								</filter>
								<sourcetrack>
									<mediatype>audio</mediatype>
									<trackindex>1</trackindex>
								</sourcetrack>
								<link>
									<linkclipref>ArmA 3 2020.11.14 - 21.38.41.71.mp4805307730</linkclipref>
								</link>
								<link>
									<linkclipref>ArmA 3 2020.11.14 - 21.38.41.71.mp4536872275</linkclipref>
								</link>
								<link>
									<linkclipref>ArmA 3 2020.11.14 - 21.38.41.71.mp45368722751</linkclipref>
								</link>
								<link>
									<linkclipref>ArmA 3 2020.11.14 - 21.38.41.71.mp4536872276</linkclipref>
								</link>
								<link>
									<linkclipref>ArmA 3 2020.11.14 - 21.38.41.71.mp45368722761</linkclipref>
								</link>
							</clipitem>
							<clipitem id="ArmA 3 2020.11.14 - 21.38.56.72.mp4536872278">
								<name>ArmA 3 2020.11.14 - 21.38.56.72.mp4</name>
								<duration>110</duration>
								<rate>
									<ntsc>TRUE</ntsc>
									<timebase>24</timebase>
								</rate>
								<in>0</in>
								<out>110</out>
								<start>45719</start>
								<end>45829</end>
								<enabled>FALSE</enabled>
								<masterclipid>ArmA 3 2020.11.14 - 21.38.56.72.mp4</masterclipid>
								<logginginfo>
									<scene />
									<shottake />
									<lognote />
									<good>FALSE</good>
								</logginginfo>
								<labels>
									<label2 />
								</labels>
								<comments>
									<mastercomment1 />
									<mastercomment2 />
									<mastercomment3 />
									<mastercomment4 />
								</comments>
								<file id="ArmA 3 2020.11.14 - 21.38.56.72" />
								<filter>
									<effect>
										<name>Audio Levels</name>
										<effectid>audiolevels</effectid>
										<effectcategory>audiolevels</effectcategory>
										<effecttype>audiolevels</effecttype>
										<mediatype>audio</mediatype>
										<parameter>
											<name>Level</name>
											<parameterid>level</parameterid>
											<valuemin>0</valuemin>
											<valuemax>3,98109</valuemax>
											<value>1</value>
										</parameter>
									</effect>
								</filter>
								<filter>
									<effect>
										<name>Audio Pan</name>
										<effectid>audiopan</effectid>
										<effectcategory>audiopan</effectcategory>
										<effecttype>audiopan</effecttype>
										<mediatype>audio</mediatype>
										<parameter>
											<name>Pan</name>
											<parameterid>pan</parameterid>
											<valuemin>-1</valuemin>
											<valuemax>1</valuemax>
											<value>-1</value>
										</parameter>
									</effect>
								</filter>
								<sourcetrack>
									<mediatype>audio</mediatype>
									<trackindex>1</trackindex>
								</sourcetrack>
								<link>
									<linkclipref>ArmA 3 2020.11.14 - 21.38.56.72.mp4805307733</linkclipref>
								</link>
								<link>
									<linkclipref>ArmA 3 2020.11.14 - 21.38.56.72.mp4536872278</linkclipref>
								</link>
								<link>
									<linkclipref>ArmA 3 2020.11.14 - 21.38.56.72.mp45368722781</linkclipref>
								</link>
								<link>
									<linkclipref>ArmA 3 2020.11.14 - 21.38.56.72.mp4536872279</linkclipref>
								</link>
								<link>
									<linkclipref>ArmA 3 2020.11.14 - 21.38.56.72.mp45368722791</linkclipref>
								</link>
							</clipitem>
							<clipitem id="ArmA 3 2020.11.14 - 21.43.48.73.mp4536872281">
								<name>ArmA 3 2020.11.14 - 21.43.48.73.mp4</name>
								<duration>955</duration>
								<rate>
									<ntsc>TRUE</ntsc>
									<timebase>24</timebase>
								</rate>
								<in>0</in>
								<out>955</out>
								<start>45830</start>
								<end>46785</end>
								<enabled>FALSE</enabled>
								<masterclipid>ArmA 3 2020.11.14 - 21.43.48.73.mp4</masterclipid>
								<logginginfo>
									<scene />
									<shottake />
									<lognote />
									<good>FALSE</good>
								</logginginfo>
								<labels>
									<label2 />
								</labels>
								<comments>
									<mastercomment1 />
									<mastercomment2 />
									<mastercomment3 />
									<mastercomment4 />
								</comments>
								<file id="ArmA 3 2020.11.14 - 21.43.48.73" />
								<filter>
									<effect>
										<name>Audio Levels</name>
										<effectid>audiolevels</effectid>
										<effectcategory>audiolevels</effectcategory>
										<effecttype>audiolevels</effecttype>
										<mediatype>audio</mediatype>
										<parameter>
											<name>Level</name>
											<parameterid>level</parameterid>
											<valuemin>0</valuemin>
											<valuemax>3,98109</valuemax>
											<value>1</value>
										</parameter>
									</effect>
								</filter>
								<filter>
									<effect>
										<name>Audio Pan</name>
										<effectid>audiopan</effectid>
										<effectcategory>audiopan</effectcategory>
										<effecttype>audiopan</effecttype>
										<mediatype>audio</mediatype>
										<parameter>
											<name>Pan</name>
											<parameterid>pan</parameterid>
											<valuemin>-1</valuemin>
											<valuemax>1</valuemax>
											<value>-1</value>
										</parameter>
									</effect>
								</filter>
								<sourcetrack>
									<mediatype>audio</mediatype>
									<trackindex>1</trackindex>
								</sourcetrack>
								<link>
									<linkclipref>ArmA 3 2020.11.14 - 21.43.48.73.mp4805307736</linkclipref>
								</link>
								<link>
									<linkclipref>ArmA 3 2020.11.14 - 21.43.48.73.mp4536872281</linkclipref>
								</link>
								<link>
									<linkclipref>ArmA 3 2020.11.14 - 21.43.48.73.mp45368722811</linkclipref>
								</link>
								<link>
									<linkclipref>ArmA 3 2020.11.14 - 21.43.48.73.mp4536872282</linkclipref>
								</link>
								<link>
									<linkclipref>ArmA 3 2020.11.14 - 21.43.48.73.mp45368722821</linkclipref>
								</link>
							</clipitem>
							<clipitem id="ArmA 3 2020.11.14 - 21.48.32.74.mp4536872284">
								<name>ArmA 3 2020.11.14 - 21.48.32.74.mp4</name>
								<duration>614</duration>
								<rate>
									<ntsc>TRUE</ntsc>
									<timebase>24</timebase>
								</rate>
								<in>0</in>
								<out>614</out>
								<start>46786</start>
								<end>47400</end>
								<enabled>FALSE</enabled>
								<masterclipid>ArmA 3 2020.11.14 - 21.48.32.74.mp4</masterclipid>
								<logginginfo>
									<scene />
									<shottake />
									<lognote />
									<good>FALSE</good>
								</logginginfo>
								<labels>
									<label2 />
								</labels>
								<comments>
									<mastercomment1 />
									<mastercomment2 />
									<mastercomment3 />
									<mastercomment4 />
								</comments>
								<file id="ArmA 3 2020.11.14 - 21.48.32.74" />
								<filter>
									<effect>
										<name>Audio Levels</name>
										<effectid>audiolevels</effectid>
										<effectcategory>audiolevels</effectcategory>
										<effecttype>audiolevels</effecttype>
										<mediatype>audio</mediatype>
										<parameter>
											<name>Level</name>
											<parameterid>level</parameterid>
											<valuemin>0</valuemin>
											<valuemax>3,98109</valuemax>
											<value>1</value>
										</parameter>
									</effect>
								</filter>
								<filter>
									<effect>
										<name>Audio Pan</name>
										<effectid>audiopan</effectid>
										<effectcategory>audiopan</effectcategory>
										<effecttype>audiopan</effecttype>
										<mediatype>audio</mediatype>
										<parameter>
											<name>Pan</name>
											<parameterid>pan</parameterid>
											<valuemin>-1</valuemin>
											<valuemax>1</valuemax>
											<value>-1</value>
										</parameter>
									</effect>
								</filter>
								<sourcetrack>
									<mediatype>audio</mediatype>
									<trackindex>1</trackindex>
								</sourcetrack>
								<link>
									<linkclipref>ArmA 3 2020.11.14 - 21.48.32.74.mp4805307739</linkclipref>
								</link>
								<link>
									<linkclipref>ArmA 3 2020.11.14 - 21.48.32.74.mp4536872284</linkclipref>
								</link>
								<link>
									<linkclipref>ArmA 3 2020.11.14 - 21.48.32.74.mp45368722841</linkclipref>
								</link>
								<link>
									<linkclipref>ArmA 3 2020.11.14 - 21.48.32.74.mp4536872285</linkclipref>
								</link>
								<link>
									<linkclipref>ArmA 3 2020.11.14 - 21.48.32.74.mp45368722851</linkclipref>
								</link>
							</clipitem>
							<clipitem id="ArmA 3 2020.11.14 - 21.51.33.75.mp4536872287">
								<name>ArmA 3 2020.11.14 - 21.51.33.75.mp4</name>
								<duration>821</duration>
								<rate>
									<ntsc>TRUE</ntsc>
									<timebase>24</timebase>
								</rate>
								<in>0</in>
								<out>821</out>
								<start>47401</start>
								<end>48222</end>
								<enabled>FALSE</enabled>
								<masterclipid>ArmA 3 2020.11.14 - 21.51.33.75.mp4</masterclipid>
								<logginginfo>
									<scene />
									<shottake />
									<lognote />
									<good>FALSE</good>
								</logginginfo>
								<labels>
									<label2 />
								</labels>
								<comments>
									<mastercomment1 />
									<mastercomment2 />
									<mastercomment3 />
									<mastercomment4 />
								</comments>
								<file id="ArmA 3 2020.11.14 - 21.51.33.75" />
								<filter>
									<effect>
										<name>Audio Levels</name>
										<effectid>audiolevels</effectid>
										<effectcategory>audiolevels</effectcategory>
										<effecttype>audiolevels</effecttype>
										<mediatype>audio</mediatype>
										<parameter>
											<name>Level</name>
											<parameterid>level</parameterid>
											<valuemin>0</valuemin>
											<valuemax>3,98109</valuemax>
											<value>1</value>
										</parameter>
									</effect>
								</filter>
								<filter>
									<effect>
										<name>Audio Pan</name>
										<effectid>audiopan</effectid>
										<effectcategory>audiopan</effectcategory>
										<effecttype>audiopan</effecttype>
										<mediatype>audio</mediatype>
										<parameter>
											<name>Pan</name>
											<parameterid>pan</parameterid>
											<valuemin>-1</valuemin>
											<valuemax>1</valuemax>
											<value>-1</value>
										</parameter>
									</effect>
								</filter>
								<sourcetrack>
									<mediatype>audio</mediatype>
									<trackindex>1</trackindex>
								</sourcetrack>
								<link>
									<linkclipref>ArmA 3 2020.11.14 - 21.51.33.75.mp4805307742</linkclipref>
								</link>
								<link>
									<linkclipref>ArmA 3 2020.11.14 - 21.51.33.75.mp4536872287</linkclipref>
								</link>
								<link>
									<linkclipref>ArmA 3 2020.11.14 - 21.51.33.75.mp45368722871</linkclipref>
								</link>
								<link>
									<linkclipref>ArmA 3 2020.11.14 - 21.51.33.75.mp4536872288</linkclipref>
								</link>
								<link>
									<linkclipref>ArmA 3 2020.11.14 - 21.51.33.75.mp45368722881</linkclipref>
								</link>
							</clipitem>
							<clipitem id="ArmA 3 2020.11.14 - 21.52.58.76.mp4536872290">
								<name>ArmA 3 2020.11.14 - 21.52.58.76.mp4</name>
								<duration>836</duration>
								<rate>
									<ntsc>TRUE</ntsc>
									<timebase>24</timebase>
								</rate>
								<in>0</in>
								<out>836</out>
								<start>48223</start>
								<end>49059</end>
								<enabled>FALSE</enabled>
								<masterclipid>ArmA 3 2020.11.14 - 21.52.58.76.mp4</masterclipid>
								<logginginfo>
									<scene />
									<shottake />
									<lognote />
									<good>FALSE</good>
								</logginginfo>
								<labels>
									<label2 />
								</labels>
								<comments>
									<mastercomment1 />
									<mastercomment2 />
									<mastercomment3 />
									<mastercomment4 />
								</comments>
								<file id="ArmA 3 2020.11.14 - 21.52.58.76" />
								<filter>
									<effect>
										<name>Audio Levels</name>
										<effectid>audiolevels</effectid>
										<effectcategory>audiolevels</effectcategory>
										<effecttype>audiolevels</effecttype>
										<mediatype>audio</mediatype>
										<parameter>
											<name>Level</name>
											<parameterid>level</parameterid>
											<valuemin>0</valuemin>
											<valuemax>3,98109</valuemax>
											<value>1</value>
										</parameter>
									</effect>
								</filter>
								<filter>
									<effect>
										<name>Audio Pan</name>
										<effectid>audiopan</effectid>
										<effectcategory>audiopan</effectcategory>
										<effecttype>audiopan</effecttype>
										<mediatype>audio</mediatype>
										<parameter>
											<name>Pan</name>
											<parameterid>pan</parameterid>
											<valuemin>-1</valuemin>
											<valuemax>1</valuemax>
											<value>-1</value>
										</parameter>
									</effect>
								</filter>
								<sourcetrack>
									<mediatype>audio</mediatype>
									<trackindex>1</trackindex>
								</sourcetrack>
								<link>
									<linkclipref>ArmA 3 2020.11.14 - 21.52.58.76.mp4805307745</linkclipref>
								</link>
								<link>
									<linkclipref>ArmA 3 2020.11.14 - 21.52.58.76.mp4536872290</linkclipref>
								</link>
								<link>
									<linkclipref>ArmA 3 2020.11.14 - 21.52.58.76.mp45368722901</linkclipref>
								</link>
								<link>
									<linkclipref>ArmA 3 2020.11.14 - 21.52.58.76.mp4536872291</linkclipref>
								</link>
								<link>
									<linkclipref>ArmA 3 2020.11.14 - 21.52.58.76.mp45368722911</linkclipref>
								</link>
							</clipitem>
							<clipitem id="ArmA 3 2020.11.14 - 21.54.08.77.mp4536872293">
								<name>ArmA 3 2020.11.14 - 21.54.08.77.mp4</name>
								<duration>1393</duration>
								<rate>
									<ntsc>TRUE</ntsc>
									<timebase>24</timebase>
								</rate>
								<in>0</in>
								<out>1393</out>
								<start>49060</start>
								<end>50453</end>
								<enabled>FALSE</enabled>
								<masterclipid>ArmA 3 2020.11.14 - 21.54.08.77.mp4</masterclipid>
								<logginginfo>
									<scene />
									<shottake />
									<lognote />
									<good>FALSE</good>
								</logginginfo>
								<labels>
									<label2 />
								</labels>
								<comments>
									<mastercomment1 />
									<mastercomment2 />
									<mastercomment3 />
									<mastercomment4 />
								</comments>
								<file id="ArmA 3 2020.11.14 - 21.54.08.77" />
								<filter>
									<effect>
										<name>Audio Levels</name>
										<effectid>audiolevels</effectid>
										<effectcategory>audiolevels</effectcategory>
										<effecttype>audiolevels</effecttype>
										<mediatype>audio</mediatype>
										<parameter>
											<name>Level</name>
											<parameterid>level</parameterid>
											<valuemin>0</valuemin>
											<valuemax>3,98109</valuemax>
											<value>1</value>
										</parameter>
									</effect>
								</filter>
								<filter>
									<effect>
										<name>Audio Pan</name>
										<effectid>audiopan</effectid>
										<effectcategory>audiopan</effectcategory>
										<effecttype>audiopan</effecttype>
										<mediatype>audio</mediatype>
										<parameter>
											<name>Pan</name>
											<parameterid>pan</parameterid>
											<valuemin>-1</valuemin>
											<valuemax>1</valuemax>
											<value>-1</value>
										</parameter>
									</effect>
								</filter>
								<sourcetrack>
									<mediatype>audio</mediatype>
									<trackindex>1</trackindex>
								</sourcetrack>
								<link>
									<linkclipref>ArmA 3 2020.11.14 - 21.54.08.77.mp4805307748</linkclipref>
								</link>
								<link>
									<linkclipref>ArmA 3 2020.11.14 - 21.54.08.77.mp4536872293</linkclipref>
								</link>
								<link>
									<linkclipref>ArmA 3 2020.11.14 - 21.54.08.77.mp45368722931</linkclipref>
								</link>
								<link>
									<linkclipref>ArmA 3 2020.11.14 - 21.54.08.77.mp4536872294</linkclipref>
								</link>
								<link>
									<linkclipref>ArmA 3 2020.11.14 - 21.54.08.77.mp45368722941</linkclipref>
								</link>
							</clipitem>
							<clipitem id="ArmA 3 2020.11.14 - 21.55.34.78.mp4536872296">
								<name>ArmA 3 2020.11.14 - 21.55.34.78.mp4</name>
								<duration>841</duration>
								<rate>
									<ntsc>TRUE</ntsc>
									<timebase>24</timebase>
								</rate>
								<in>0</in>
								<out>841</out>
								<start>50454</start>
								<end>51295</end>
								<enabled>FALSE</enabled>
								<masterclipid>ArmA 3 2020.11.14 - 21.55.34.78.mp4</masterclipid>
								<logginginfo>
									<scene />
									<shottake />
									<lognote />
									<good>FALSE</good>
								</logginginfo>
								<labels>
									<label2 />
								</labels>
								<comments>
									<mastercomment1 />
									<mastercomment2 />
									<mastercomment3 />
									<mastercomment4 />
								</comments>
								<file id="ArmA 3 2020.11.14 - 21.55.34.78" />
								<filter>
									<effect>
										<name>Audio Levels</name>
										<effectid>audiolevels</effectid>
										<effectcategory>audiolevels</effectcategory>
										<effecttype>audiolevels</effecttype>
										<mediatype>audio</mediatype>
										<parameter>
											<name>Level</name>
											<parameterid>level</parameterid>
											<valuemin>0</valuemin>
											<valuemax>3,98109</valuemax>
											<value>1</value>
										</parameter>
									</effect>
								</filter>
								<filter>
									<effect>
										<name>Audio Pan</name>
										<effectid>audiopan</effectid>
										<effectcategory>audiopan</effectcategory>
										<effecttype>audiopan</effecttype>
										<mediatype>audio</mediatype>
										<parameter>
											<name>Pan</name>
											<parameterid>pan</parameterid>
											<valuemin>-1</valuemin>
											<valuemax>1</valuemax>
											<value>-1</value>
										</parameter>
									</effect>
								</filter>
								<sourcetrack>
									<mediatype>audio</mediatype>
									<trackindex>1</trackindex>
								</sourcetrack>
								<link>
									<linkclipref>ArmA 3 2020.11.14 - 21.55.34.78.mp4805307751</linkclipref>
								</link>
								<link>
									<linkclipref>ArmA 3 2020.11.14 - 21.55.34.78.mp4536872296</linkclipref>
								</link>
								<link>
									<linkclipref>ArmA 3 2020.11.14 - 21.55.34.78.mp45368722961</linkclipref>
								</link>
								<link>
									<linkclipref>ArmA 3 2020.11.14 - 21.55.34.78.mp4536872297</linkclipref>
								</link>
								<link>
									<linkclipref>ArmA 3 2020.11.14 - 21.55.34.78.mp45368722971</linkclipref>
								</link>
							</clipitem>
							<clipitem id="ArmA 3 2020.11.14 - 21.57.02.79.mp4536872299">
								<name>ArmA 3 2020.11.14 - 21.57.02.79.mp4</name>
								<duration>1044</duration>
								<rate>
									<ntsc>TRUE</ntsc>
									<timebase>24</timebase>
								</rate>
								<in>0</in>
								<out>1044</out>
								<start>51296</start>
								<end>52340</end>
								<enabled>FALSE</enabled>
								<masterclipid>ArmA 3 2020.11.14 - 21.57.02.79.mp4</masterclipid>
								<logginginfo>
									<scene />
									<shottake />
									<lognote />
									<good>FALSE</good>
								</logginginfo>
								<labels>
									<label2 />
								</labels>
								<comments>
									<mastercomment1 />
									<mastercomment2 />
									<mastercomment3 />
									<mastercomment4 />
								</comments>
								<file id="ArmA 3 2020.11.14 - 21.57.02.79" />
								<filter>
									<effect>
										<name>Audio Levels</name>
										<effectid>audiolevels</effectid>
										<effectcategory>audiolevels</effectcategory>
										<effecttype>audiolevels</effecttype>
										<mediatype>audio</mediatype>
										<parameter>
											<name>Level</name>
											<parameterid>level</parameterid>
											<valuemin>0</valuemin>
											<valuemax>3,98109</valuemax>
											<value>1</value>
										</parameter>
									</effect>
								</filter>
								<filter>
									<effect>
										<name>Audio Pan</name>
										<effectid>audiopan</effectid>
										<effectcategory>audiopan</effectcategory>
										<effecttype>audiopan</effecttype>
										<mediatype>audio</mediatype>
										<parameter>
											<name>Pan</name>
											<parameterid>pan</parameterid>
											<valuemin>-1</valuemin>
											<valuemax>1</valuemax>
											<value>-1</value>
										</parameter>
									</effect>
								</filter>
								<sourcetrack>
									<mediatype>audio</mediatype>
									<trackindex>1</trackindex>
								</sourcetrack>
								<link>
									<linkclipref>ArmA 3 2020.11.14 - 21.57.02.79.mp4805307754</linkclipref>
								</link>
								<link>
									<linkclipref>ArmA 3 2020.11.14 - 21.57.02.79.mp4536872299</linkclipref>
								</link>
								<link>
									<linkclipref>ArmA 3 2020.11.14 - 21.57.02.79.mp45368722991</linkclipref>
								</link>
								<link>
									<linkclipref>ArmA 3 2020.11.14 - 21.57.02.79.mp4536872300</linkclipref>
								</link>
								<link>
									<linkclipref>ArmA 3 2020.11.14 - 21.57.02.79.mp45368723001</linkclipref>
								</link>
							</clipitem>
							<clipitem id="ArmA 3 2020.11.14 - 22.07.31.81.mp4536872302">
								<name>ArmA 3 2020.11.14 - 22.07.31.81.mp4</name>
								<duration>1271</duration>
								<rate>
									<ntsc>TRUE</ntsc>
									<timebase>24</timebase>
								</rate>
								<in>0</in>
								<out>1271</out>
								<start>52341</start>
								<end>53612</end>
								<enabled>FALSE</enabled>
								<masterclipid>ArmA 3 2020.11.14 - 22.07.31.81.mp4</masterclipid>
								<logginginfo>
									<scene />
									<shottake />
									<lognote />
									<good>FALSE</good>
								</logginginfo>
								<labels>
									<label2 />
								</labels>
								<comments>
									<mastercomment1 />
									<mastercomment2 />
									<mastercomment3 />
									<mastercomment4 />
								</comments>
								<file id="ArmA 3 2020.11.14 - 22.07.31.81" />
								<filter>
									<effect>
										<name>Audio Levels</name>
										<effectid>audiolevels</effectid>
										<effectcategory>audiolevels</effectcategory>
										<effecttype>audiolevels</effecttype>
										<mediatype>audio</mediatype>
										<parameter>
											<name>Level</name>
											<parameterid>level</parameterid>
											<valuemin>0</valuemin>
											<valuemax>3,98109</valuemax>
											<value>1</value>
										</parameter>
									</effect>
								</filter>
								<filter>
									<effect>
										<name>Audio Pan</name>
										<effectid>audiopan</effectid>
										<effectcategory>audiopan</effectcategory>
										<effecttype>audiopan</effecttype>
										<mediatype>audio</mediatype>
										<parameter>
											<name>Pan</name>
											<parameterid>pan</parameterid>
											<valuemin>-1</valuemin>
											<valuemax>1</valuemax>
											<value>-1</value>
										</parameter>
									</effect>
								</filter>
								<sourcetrack>
									<mediatype>audio</mediatype>
									<trackindex>1</trackindex>
								</sourcetrack>
								<link>
									<linkclipref>ArmA 3 2020.11.14 - 22.07.31.81.mp4805307757</linkclipref>
								</link>
								<link>
									<linkclipref>ArmA 3 2020.11.14 - 22.07.31.81.mp4536872302</linkclipref>
								</link>
								<link>
									<linkclipref>ArmA 3 2020.11.14 - 22.07.31.81.mp45368723021</linkclipref>
								</link>
								<link>
									<linkclipref>ArmA 3 2020.11.14 - 22.07.31.81.mp4536872303</linkclipref>
								</link>
								<link>
									<linkclipref>ArmA 3 2020.11.14 - 22.07.31.81.mp45368723031</linkclipref>
								</link>
							</clipitem>
							<clipitem id="ArmA 3 2020.11.14 - 22.08.38.82.mp4536872305">
								<name>ArmA 3 2020.11.14 - 22.08.38.82.mp4</name>
								<duration>933</duration>
								<rate>
									<ntsc>TRUE</ntsc>
									<timebase>24</timebase>
								</rate>
								<in>0</in>
								<out>933</out>
								<start>53613</start>
								<end>54546</end>
								<enabled>FALSE</enabled>
								<masterclipid>ArmA 3 2020.11.14 - 22.08.38.82.mp4</masterclipid>
								<logginginfo>
									<scene />
									<shottake />
									<lognote />
									<good>FALSE</good>
								</logginginfo>
								<labels>
									<label2 />
								</labels>
								<comments>
									<mastercomment1 />
									<mastercomment2 />
									<mastercomment3 />
									<mastercomment4 />
								</comments>
								<file id="ArmA 3 2020.11.14 - 22.08.38.82" />
								<filter>
									<effect>
										<name>Audio Levels</name>
										<effectid>audiolevels</effectid>
										<effectcategory>audiolevels</effectcategory>
										<effecttype>audiolevels</effecttype>
										<mediatype>audio</mediatype>
										<parameter>
											<name>Level</name>
											<parameterid>level</parameterid>
											<valuemin>0</valuemin>
											<valuemax>3,98109</valuemax>
											<value>1</value>
										</parameter>
									</effect>
								</filter>
								<filter>
									<effect>
										<name>Audio Pan</name>
										<effectid>audiopan</effectid>
										<effectcategory>audiopan</effectcategory>
										<effecttype>audiopan</effecttype>
										<mediatype>audio</mediatype>
										<parameter>
											<name>Pan</name>
											<parameterid>pan</parameterid>
											<valuemin>-1</valuemin>
											<valuemax>1</valuemax>
											<value>-1</value>
										</parameter>
									</effect>
								</filter>
								<sourcetrack>
									<mediatype>audio</mediatype>
									<trackindex>1</trackindex>
								</sourcetrack>
								<link>
									<linkclipref>ArmA 3 2020.11.14 - 22.08.38.82.mp4805307760</linkclipref>
								</link>
								<link>
									<linkclipref>ArmA 3 2020.11.14 - 22.08.38.82.mp4536872305</linkclipref>
								</link>
								<link>
									<linkclipref>ArmA 3 2020.11.14 - 22.08.38.82.mp45368723051</linkclipref>
								</link>
								<link>
									<linkclipref>ArmA 3 2020.11.14 - 22.08.38.82.mp4536872306</linkclipref>
								</link>
								<link>
									<linkclipref>ArmA 3 2020.11.14 - 22.08.38.82.mp45368723061</linkclipref>
								</link>
							</clipitem>
							<clipitem id="ArmA 3 2020.11.14 - 22.09.53.83.mp4536872308">
								<name>ArmA 3 2020.11.14 - 22.09.53.83.mp4</name>
								<duration>925</duration>
								<rate>
									<ntsc>TRUE</ntsc>
									<timebase>24</timebase>
								</rate>
								<in>0</in>
								<out>925</out>
								<start>54547</start>
								<end>55472</end>
								<enabled>FALSE</enabled>
								<masterclipid>ArmA 3 2020.11.14 - 22.09.53.83.mp4</masterclipid>
								<logginginfo>
									<scene />
									<shottake />
									<lognote />
									<good>FALSE</good>
								</logginginfo>
								<labels>
									<label2 />
								</labels>
								<comments>
									<mastercomment1 />
									<mastercomment2 />
									<mastercomment3 />
									<mastercomment4 />
								</comments>
								<file id="ArmA 3 2020.11.14 - 22.09.53.83" />
								<filter>
									<effect>
										<name>Audio Levels</name>
										<effectid>audiolevels</effectid>
										<effectcategory>audiolevels</effectcategory>
										<effecttype>audiolevels</effecttype>
										<mediatype>audio</mediatype>
										<parameter>
											<name>Level</name>
											<parameterid>level</parameterid>
											<valuemin>0</valuemin>
											<valuemax>3,98109</valuemax>
											<value>1</value>
										</parameter>
									</effect>
								</filter>
								<filter>
									<effect>
										<name>Audio Pan</name>
										<effectid>audiopan</effectid>
										<effectcategory>audiopan</effectcategory>
										<effecttype>audiopan</effecttype>
										<mediatype>audio</mediatype>
										<parameter>
											<name>Pan</name>
											<parameterid>pan</parameterid>
											<valuemin>-1</valuemin>
											<valuemax>1</valuemax>
											<value>-1</value>
										</parameter>
									</effect>
								</filter>
								<sourcetrack>
									<mediatype>audio</mediatype>
									<trackindex>1</trackindex>
								</sourcetrack>
								<link>
									<linkclipref>ArmA 3 2020.11.14 - 22.09.53.83.mp4805307763</linkclipref>
								</link>
								<link>
									<linkclipref>ArmA 3 2020.11.14 - 22.09.53.83.mp4536872308</linkclipref>
								</link>
								<link>
									<linkclipref>ArmA 3 2020.11.14 - 22.09.53.83.mp45368723081</linkclipref>
								</link>
								<link>
									<linkclipref>ArmA 3 2020.11.14 - 22.09.53.83.mp4536872309</linkclipref>
								</link>
								<link>
									<linkclipref>ArmA 3 2020.11.14 - 22.09.53.83.mp45368723091</linkclipref>
								</link>
							</clipitem>
						</track>
						<track>
							<clipitem id="ArmA 3 2020.11.14 - 20.19.25.25.mp45368721371">
								<name>ArmA 3 2020.11.14 - 20.19.25.25.mp4</name>
								<duration>93</duration>
								<rate>
									<ntsc>TRUE</ntsc>
									<timebase>24</timebase>
								</rate>
								<in>0</in>
								<out>93</out>
								<start>0</start>
								<end>93</end>
								<enabled>FALSE</enabled>
								<masterclipid>ArmA 3 2020.11.14 - 20.19.25.25.mp4</masterclipid>
								<logginginfo>
									<scene />
									<shottake />
									<lognote />
									<good>FALSE</good>
								</logginginfo>
								<labels>
									<label2 />
								</labels>
								<comments>
									<mastercomment1 />
									<mastercomment2 />
									<mastercomment3 />
									<mastercomment4 />
								</comments>
								<file id="ArmA 3 2020.11.14 - 20.19.25.25" />
								<filter>
									<effect>
										<name>Audio Levels</name>
										<effectid>audiolevels</effectid>
										<effectcategory>audiolevels</effectcategory>
										<effecttype>audiolevels</effecttype>
										<mediatype>audio</mediatype>
										<parameter>
											<name>Level</name>
											<parameterid>level</parameterid>
											<valuemin>0</valuemin>
											<valuemax>3,98109</valuemax>
											<value>1</value>
										</parameter>
									</effect>
								</filter>
								<filter>
									<effect>
										<name>Audio Pan</name>
										<effectid>audiopan</effectid>
										<effectcategory>audiopan</effectcategory>
										<effecttype>audiopan</effecttype>
										<mediatype>audio</mediatype>
										<parameter>
											<name>Pan</name>
											<parameterid>pan</parameterid>
											<valuemin>-1</valuemin>
											<valuemax>1</valuemax>
											<value>1</value>
										</parameter>
									</effect>
								</filter>
								<sourcetrack>
									<mediatype>audio</mediatype>
									<trackindex>2</trackindex>
								</sourcetrack>
								<link>
									<linkclipref>ArmA 3 2020.11.14 - 20.19.25.25.mp4805307592</linkclipref>
								</link>
								<link>
									<linkclipref>ArmA 3 2020.11.14 - 20.19.25.25.mp4536872137</linkclipref>
								</link>
								<link>
									<linkclipref>ArmA 3 2020.11.14 - 20.19.25.25.mp45368721371</linkclipref>
								</link>
								<link>
									<linkclipref>ArmA 3 2020.11.14 - 20.19.25.25.mp4536872138</linkclipref>
								</link>
								<link>
									<linkclipref>ArmA 3 2020.11.14 - 20.19.25.25.mp45368721381</linkclipref>
								</link>
							</clipitem>
							<clipitem id="ArmA 3 2020.11.14 - 20.19.51.26.mp45368721401">
								<name>ArmA 3 2020.11.14 - 20.19.51.26.mp4</name>
								<duration>548</duration>
								<rate>
									<ntsc>TRUE</ntsc>
									<timebase>24</timebase>
								</rate>
								<in>0</in>
								<out>548</out>
								<start>94</start>
								<end>642</end>
								<enabled>FALSE</enabled>
								<masterclipid>ArmA 3 2020.11.14 - 20.19.51.26.mp4</masterclipid>
								<logginginfo>
									<scene />
									<shottake />
									<lognote />
									<good>FALSE</good>
								</logginginfo>
								<labels>
									<label2 />
								</labels>
								<comments>
									<mastercomment1 />
									<mastercomment2 />
									<mastercomment3 />
									<mastercomment4 />
								</comments>
								<file id="ArmA 3 2020.11.14 - 20.19.51.26" />
								<filter>
									<effect>
										<name>Audio Levels</name>
										<effectid>audiolevels</effectid>
										<effectcategory>audiolevels</effectcategory>
										<effecttype>audiolevels</effecttype>
										<mediatype>audio</mediatype>
										<parameter>
											<name>Level</name>
											<parameterid>level</parameterid>
											<valuemin>0</valuemin>
											<valuemax>3,98109</valuemax>
											<value>1</value>
										</parameter>
									</effect>
								</filter>
								<filter>
									<effect>
										<name>Audio Pan</name>
										<effectid>audiopan</effectid>
										<effectcategory>audiopan</effectcategory>
										<effecttype>audiopan</effecttype>
										<mediatype>audio</mediatype>
										<parameter>
											<name>Pan</name>
											<parameterid>pan</parameterid>
											<valuemin>-1</valuemin>
											<valuemax>1</valuemax>
											<value>1</value>
										</parameter>
									</effect>
								</filter>
								<sourcetrack>
									<mediatype>audio</mediatype>
									<trackindex>2</trackindex>
								</sourcetrack>
								<link>
									<linkclipref>ArmA 3 2020.11.14 - 20.19.51.26.mp4805307595</linkclipref>
								</link>
								<link>
									<linkclipref>ArmA 3 2020.11.14 - 20.19.51.26.mp4536872140</linkclipref>
								</link>
								<link>
									<linkclipref>ArmA 3 2020.11.14 - 20.19.51.26.mp45368721401</linkclipref>
								</link>
								<link>
									<linkclipref>ArmA 3 2020.11.14 - 20.19.51.26.mp4536872141</linkclipref>
								</link>
								<link>
									<linkclipref>ArmA 3 2020.11.14 - 20.19.51.26.mp45368721411</linkclipref>
								</link>
							</clipitem>
							<clipitem id="ArmA 3 2020.11.14 - 20.20.25.27.mp45368721431">
								<name>ArmA 3 2020.11.14 - 20.20.25.27.mp4</name>
								<duration>1868</duration>
								<rate>
									<ntsc>TRUE</ntsc>
									<timebase>24</timebase>
								</rate>
								<in>0</in>
								<out>1868</out>
								<start>643</start>
								<end>2511</end>
								<enabled>FALSE</enabled>
								<masterclipid>ArmA 3 2020.11.14 - 20.20.25.27.mp4</masterclipid>
								<logginginfo>
									<scene />
									<shottake />
									<lognote />
									<good>FALSE</good>
								</logginginfo>
								<labels>
									<label2 />
								</labels>
								<comments>
									<mastercomment1 />
									<mastercomment2 />
									<mastercomment3 />
									<mastercomment4 />
								</comments>
								<file id="ArmA 3 2020.11.14 - 20.20.25.27" />
								<filter>
									<effect>
										<name>Audio Levels</name>
										<effectid>audiolevels</effectid>
										<effectcategory>audiolevels</effectcategory>
										<effecttype>audiolevels</effecttype>
										<mediatype>audio</mediatype>
										<parameter>
											<name>Level</name>
											<parameterid>level</parameterid>
											<valuemin>0</valuemin>
											<valuemax>3,98109</valuemax>
											<value>1</value>
										</parameter>
									</effect>
								</filter>
								<filter>
									<effect>
										<name>Audio Pan</name>
										<effectid>audiopan</effectid>
										<effectcategory>audiopan</effectcategory>
										<effecttype>audiopan</effecttype>
										<mediatype>audio</mediatype>
										<parameter>
											<name>Pan</name>
											<parameterid>pan</parameterid>
											<valuemin>-1</valuemin>
											<valuemax>1</valuemax>
											<value>1</value>
										</parameter>
									</effect>
								</filter>
								<sourcetrack>
									<mediatype>audio</mediatype>
									<trackindex>2</trackindex>
								</sourcetrack>
								<link>
									<linkclipref>ArmA 3 2020.11.14 - 20.20.25.27.mp4805307598</linkclipref>
								</link>
								<link>
									<linkclipref>ArmA 3 2020.11.14 - 20.20.25.27.mp4536872143</linkclipref>
								</link>
								<link>
									<linkclipref>ArmA 3 2020.11.14 - 20.20.25.27.mp45368721431</linkclipref>
								</link>
								<link>
									<linkclipref>ArmA 3 2020.11.14 - 20.20.25.27.mp4536872144</linkclipref>
								</link>
								<link>
									<linkclipref>ArmA 3 2020.11.14 - 20.20.25.27.mp45368721441</linkclipref>
								</link>
							</clipitem>
							<clipitem id="ArmA 3 2020.11.14 - 20.22.02.28.mp45368721461">
								<name>ArmA 3 2020.11.14 - 20.22.02.28.mp4</name>
								<duration>570</duration>
								<rate>
									<ntsc>TRUE</ntsc>
									<timebase>24</timebase>
								</rate>
								<in>0</in>
								<out>570</out>
								<start>2512</start>
								<end>3082</end>
								<enabled>FALSE</enabled>
								<masterclipid>ArmA 3 2020.11.14 - 20.22.02.28.mp4</masterclipid>
								<logginginfo>
									<scene />
									<shottake />
									<lognote />
									<good>FALSE</good>
								</logginginfo>
								<labels>
									<label2 />
								</labels>
								<comments>
									<mastercomment1 />
									<mastercomment2 />
									<mastercomment3 />
									<mastercomment4 />
								</comments>
								<file id="ArmA 3 2020.11.14 - 20.22.02.28" />
								<filter>
									<effect>
										<name>Audio Levels</name>
										<effectid>audiolevels</effectid>
										<effectcategory>audiolevels</effectcategory>
										<effecttype>audiolevels</effecttype>
										<mediatype>audio</mediatype>
										<parameter>
											<name>Level</name>
											<parameterid>level</parameterid>
											<valuemin>0</valuemin>
											<valuemax>3,98109</valuemax>
											<value>1</value>
										</parameter>
									</effect>
								</filter>
								<filter>
									<effect>
										<name>Audio Pan</name>
										<effectid>audiopan</effectid>
										<effectcategory>audiopan</effectcategory>
										<effecttype>audiopan</effecttype>
										<mediatype>audio</mediatype>
										<parameter>
											<name>Pan</name>
											<parameterid>pan</parameterid>
											<valuemin>-1</valuemin>
											<valuemax>1</valuemax>
											<value>1</value>
										</parameter>
									</effect>
								</filter>
								<sourcetrack>
									<mediatype>audio</mediatype>
									<trackindex>2</trackindex>
								</sourcetrack>
								<link>
									<linkclipref>ArmA 3 2020.11.14 - 20.22.02.28.mp4805307601</linkclipref>
								</link>
								<link>
									<linkclipref>ArmA 3 2020.11.14 - 20.22.02.28.mp4536872146</linkclipref>
								</link>
								<link>
									<linkclipref>ArmA 3 2020.11.14 - 20.22.02.28.mp45368721461</linkclipref>
								</link>
								<link>
									<linkclipref>ArmA 3 2020.11.14 - 20.22.02.28.mp4536872147</linkclipref>
								</link>
								<link>
									<linkclipref>ArmA 3 2020.11.14 - 20.22.02.28.mp45368721471</linkclipref>
								</link>
							</clipitem>
							<clipitem id="ArmA 3 2020.11.14 - 20.22.40.29.mp45368721491">
								<name>ArmA 3 2020.11.14 - 20.22.40.29.mp4</name>
								<duration>869</duration>
								<rate>
									<ntsc>TRUE</ntsc>
									<timebase>24</timebase>
								</rate>
								<in>0</in>
								<out>869</out>
								<start>3083</start>
								<end>3952</end>
								<enabled>FALSE</enabled>
								<masterclipid>ArmA 3 2020.11.14 - 20.22.40.29.mp4</masterclipid>
								<logginginfo>
									<scene />
									<shottake />
									<lognote />
									<good>FALSE</good>
								</logginginfo>
								<labels>
									<label2 />
								</labels>
								<comments>
									<mastercomment1 />
									<mastercomment2 />
									<mastercomment3 />
									<mastercomment4 />
								</comments>
								<file id="ArmA 3 2020.11.14 - 20.22.40.29" />
								<filter>
									<effect>
										<name>Audio Levels</name>
										<effectid>audiolevels</effectid>
										<effectcategory>audiolevels</effectcategory>
										<effecttype>audiolevels</effecttype>
										<mediatype>audio</mediatype>
										<parameter>
											<name>Level</name>
											<parameterid>level</parameterid>
											<valuemin>0</valuemin>
											<valuemax>3,98109</valuemax>
											<value>1</value>
										</parameter>
									</effect>
								</filter>
								<filter>
									<effect>
										<name>Audio Pan</name>
										<effectid>audiopan</effectid>
										<effectcategory>audiopan</effectcategory>
										<effecttype>audiopan</effecttype>
										<mediatype>audio</mediatype>
										<parameter>
											<name>Pan</name>
											<parameterid>pan</parameterid>
											<valuemin>-1</valuemin>
											<valuemax>1</valuemax>
											<value>1</value>
										</parameter>
									</effect>
								</filter>
								<sourcetrack>
									<mediatype>audio</mediatype>
									<trackindex>2</trackindex>
								</sourcetrack>
								<link>
									<linkclipref>ArmA 3 2020.11.14 - 20.22.40.29.mp4805307604</linkclipref>
								</link>
								<link>
									<linkclipref>ArmA 3 2020.11.14 - 20.22.40.29.mp4536872149</linkclipref>
								</link>
								<link>
									<linkclipref>ArmA 3 2020.11.14 - 20.22.40.29.mp45368721491</linkclipref>
								</link>
								<link>
									<linkclipref>ArmA 3 2020.11.14 - 20.22.40.29.mp4536872150</linkclipref>
								</link>
								<link>
									<linkclipref>ArmA 3 2020.11.14 - 20.22.40.29.mp45368721501</linkclipref>
								</link>
							</clipitem>
							<clipitem id="ArmA 3 2020.11.14 - 20.23.50.30.mp45368721521">
								<name>ArmA 3 2020.11.14 - 20.23.50.30.mp4</name>
								<duration>875</duration>
								<rate>
									<ntsc>TRUE</ntsc>
									<timebase>24</timebase>
								</rate>
								<in>0</in>
								<out>875</out>
								<start>3953</start>
								<end>4828</end>
								<enabled>FALSE</enabled>
								<masterclipid>ArmA 3 2020.11.14 - 20.23.50.30.mp4</masterclipid>
								<logginginfo>
									<scene />
									<shottake />
									<lognote />
									<good>FALSE</good>
								</logginginfo>
								<labels>
									<label2 />
								</labels>
								<comments>
									<mastercomment1 />
									<mastercomment2 />
									<mastercomment3 />
									<mastercomment4 />
								</comments>
								<file id="ArmA 3 2020.11.14 - 20.23.50.30" />
								<filter>
									<effect>
										<name>Audio Levels</name>
										<effectid>audiolevels</effectid>
										<effectcategory>audiolevels</effectcategory>
										<effecttype>audiolevels</effecttype>
										<mediatype>audio</mediatype>
										<parameter>
											<name>Level</name>
											<parameterid>level</parameterid>
											<valuemin>0</valuemin>
											<valuemax>3,98109</valuemax>
											<value>1</value>
										</parameter>
									</effect>
								</filter>
								<filter>
									<effect>
										<name>Audio Pan</name>
										<effectid>audiopan</effectid>
										<effectcategory>audiopan</effectcategory>
										<effecttype>audiopan</effecttype>
										<mediatype>audio</mediatype>
										<parameter>
											<name>Pan</name>
											<parameterid>pan</parameterid>
											<valuemin>-1</valuemin>
											<valuemax>1</valuemax>
											<value>1</value>
										</parameter>
									</effect>
								</filter>
								<sourcetrack>
									<mediatype>audio</mediatype>
									<trackindex>2</trackindex>
								</sourcetrack>
								<link>
									<linkclipref>ArmA 3 2020.11.14 - 20.23.50.30.mp4805307607</linkclipref>
								</link>
								<link>
									<linkclipref>ArmA 3 2020.11.14 - 20.23.50.30.mp4536872152</linkclipref>
								</link>
								<link>
									<linkclipref>ArmA 3 2020.11.14 - 20.23.50.30.mp45368721521</linkclipref>
								</link>
								<link>
									<linkclipref>ArmA 3 2020.11.14 - 20.23.50.30.mp4536872153</linkclipref>
								</link>
								<link>
									<linkclipref>ArmA 3 2020.11.14 - 20.23.50.30.mp45368721531</linkclipref>
								</link>
							</clipitem>
							<clipitem id="ArmA 3 2020.11.14 - 20.24.41.31.mp45368721551">
								<name>ArmA 3 2020.11.14 - 20.24.41.31.mp4</name>
								<duration>612</duration>
								<rate>
									<ntsc>TRUE</ntsc>
									<timebase>24</timebase>
								</rate>
								<in>0</in>
								<out>612</out>
								<start>4829</start>
								<end>5441</end>
								<enabled>FALSE</enabled>
								<masterclipid>ArmA 3 2020.11.14 - 20.24.41.31.mp4</masterclipid>
								<logginginfo>
									<scene />
									<shottake />
									<lognote />
									<good>FALSE</good>
								</logginginfo>
								<labels>
									<label2 />
								</labels>
								<comments>
									<mastercomment1 />
									<mastercomment2 />
									<mastercomment3 />
									<mastercomment4 />
								</comments>
								<file id="ArmA 3 2020.11.14 - 20.24.41.31" />
								<filter>
									<effect>
										<name>Audio Levels</name>
										<effectid>audiolevels</effectid>
										<effectcategory>audiolevels</effectcategory>
										<effecttype>audiolevels</effecttype>
										<mediatype>audio</mediatype>
										<parameter>
											<name>Level</name>
											<parameterid>level</parameterid>
											<valuemin>0</valuemin>
											<valuemax>3,98109</valuemax>
											<value>1</value>
										</parameter>
									</effect>
								</filter>
								<filter>
									<effect>
										<name>Audio Pan</name>
										<effectid>audiopan</effectid>
										<effectcategory>audiopan</effectcategory>
										<effecttype>audiopan</effecttype>
										<mediatype>audio</mediatype>
										<parameter>
											<name>Pan</name>
											<parameterid>pan</parameterid>
											<valuemin>-1</valuemin>
											<valuemax>1</valuemax>
											<value>1</value>
										</parameter>
									</effect>
								</filter>
								<sourcetrack>
									<mediatype>audio</mediatype>
									<trackindex>2</trackindex>
								</sourcetrack>
								<link>
									<linkclipref>ArmA 3 2020.11.14 - 20.24.41.31.mp4805307610</linkclipref>
								</link>
								<link>
									<linkclipref>ArmA 3 2020.11.14 - 20.24.41.31.mp4536872155</linkclipref>
								</link>
								<link>
									<linkclipref>ArmA 3 2020.11.14 - 20.24.41.31.mp45368721551</linkclipref>
								</link>
								<link>
									<linkclipref>ArmA 3 2020.11.14 - 20.24.41.31.mp4536872156</linkclipref>
								</link>
								<link>
									<linkclipref>ArmA 3 2020.11.14 - 20.24.41.31.mp45368721561</linkclipref>
								</link>
							</clipitem>
							<clipitem id="ArmA 3 2020.11.14 - 20.28.02.32.mp45368721581">
								<name>ArmA 3 2020.11.14 - 20.28.02.32.mp4</name>
								<duration>972</duration>
								<rate>
									<ntsc>TRUE</ntsc>
									<timebase>24</timebase>
								</rate>
								<in>0</in>
								<out>972</out>
								<start>5442</start>
								<end>6414</end>
								<enabled>FALSE</enabled>
								<masterclipid>ArmA 3 2020.11.14 - 20.28.02.32.mp4</masterclipid>
								<logginginfo>
									<scene />
									<shottake />
									<lognote />
									<good>FALSE</good>
								</logginginfo>
								<labels>
									<label2 />
								</labels>
								<comments>
									<mastercomment1 />
									<mastercomment2 />
									<mastercomment3 />
									<mastercomment4 />
								</comments>
								<file id="ArmA 3 2020.11.14 - 20.28.02.32" />
								<filter>
									<effect>
										<name>Audio Levels</name>
										<effectid>audiolevels</effectid>
										<effectcategory>audiolevels</effectcategory>
										<effecttype>audiolevels</effecttype>
										<mediatype>audio</mediatype>
										<parameter>
											<name>Level</name>
											<parameterid>level</parameterid>
											<valuemin>0</valuemin>
											<valuemax>3,98109</valuemax>
											<value>1</value>
										</parameter>
									</effect>
								</filter>
								<filter>
									<effect>
										<name>Audio Pan</name>
										<effectid>audiopan</effectid>
										<effectcategory>audiopan</effectcategory>
										<effecttype>audiopan</effecttype>
										<mediatype>audio</mediatype>
										<parameter>
											<name>Pan</name>
											<parameterid>pan</parameterid>
											<valuemin>-1</valuemin>
											<valuemax>1</valuemax>
											<value>1</value>
										</parameter>
									</effect>
								</filter>
								<sourcetrack>
									<mediatype>audio</mediatype>
									<trackindex>2</trackindex>
								</sourcetrack>
								<link>
									<linkclipref>ArmA 3 2020.11.14 - 20.28.02.32.mp4805307613</linkclipref>
								</link>
								<link>
									<linkclipref>ArmA 3 2020.11.14 - 20.28.02.32.mp4536872158</linkclipref>
								</link>
								<link>
									<linkclipref>ArmA 3 2020.11.14 - 20.28.02.32.mp45368721581</linkclipref>
								</link>
								<link>
									<linkclipref>ArmA 3 2020.11.14 - 20.28.02.32.mp4536872159</linkclipref>
								</link>
								<link>
									<linkclipref>ArmA 3 2020.11.14 - 20.28.02.32.mp45368721591</linkclipref>
								</link>
							</clipitem>
							<clipitem id="ArmA 3 2020.11.14 - 20.29.28.33.mp45368721611">
								<name>ArmA 3 2020.11.14 - 20.29.28.33.mp4</name>
								<duration>561</duration>
								<rate>
									<ntsc>TRUE</ntsc>
									<timebase>24</timebase>
								</rate>
								<in>0</in>
								<out>561</out>
								<start>6415</start>
								<end>6976</end>
								<enabled>FALSE</enabled>
								<masterclipid>ArmA 3 2020.11.14 - 20.29.28.33.mp4</masterclipid>
								<logginginfo>
									<scene />
									<shottake />
									<lognote />
									<good>FALSE</good>
								</logginginfo>
								<labels>
									<label2 />
								</labels>
								<comments>
									<mastercomment1 />
									<mastercomment2 />
									<mastercomment3 />
									<mastercomment4 />
								</comments>
								<file id="ArmA 3 2020.11.14 - 20.29.28.33" />
								<filter>
									<effect>
										<name>Audio Levels</name>
										<effectid>audiolevels</effectid>
										<effectcategory>audiolevels</effectcategory>
										<effecttype>audiolevels</effecttype>
										<mediatype>audio</mediatype>
										<parameter>
											<name>Level</name>
											<parameterid>level</parameterid>
											<valuemin>0</valuemin>
											<valuemax>3,98109</valuemax>
											<value>1</value>
										</parameter>
									</effect>
								</filter>
								<filter>
									<effect>
										<name>Audio Pan</name>
										<effectid>audiopan</effectid>
										<effectcategory>audiopan</effectcategory>
										<effecttype>audiopan</effecttype>
										<mediatype>audio</mediatype>
										<parameter>
											<name>Pan</name>
											<parameterid>pan</parameterid>
											<valuemin>-1</valuemin>
											<valuemax>1</valuemax>
											<value>1</value>
										</parameter>
									</effect>
								</filter>
								<sourcetrack>
									<mediatype>audio</mediatype>
									<trackindex>2</trackindex>
								</sourcetrack>
								<link>
									<linkclipref>ArmA 3 2020.11.14 - 20.29.28.33.mp4805307616</linkclipref>
								</link>
								<link>
									<linkclipref>ArmA 3 2020.11.14 - 20.29.28.33.mp4536872161</linkclipref>
								</link>
								<link>
									<linkclipref>ArmA 3 2020.11.14 - 20.29.28.33.mp45368721611</linkclipref>
								</link>
								<link>
									<linkclipref>ArmA 3 2020.11.14 - 20.29.28.33.mp4536872162</linkclipref>
								</link>
								<link>
									<linkclipref>ArmA 3 2020.11.14 - 20.29.28.33.mp45368721621</linkclipref>
								</link>
							</clipitem>
							<clipitem id="ArmA 3 2020.11.14 - 20.30.42.34.mp45368721641">
								<name>ArmA 3 2020.11.14 - 20.30.42.34.mp4</name>
								<duration>455</duration>
								<rate>
									<ntsc>TRUE</ntsc>
									<timebase>24</timebase>
								</rate>
								<in>0</in>
								<out>455</out>
								<start>6977</start>
								<end>7432</end>
								<enabled>FALSE</enabled>
								<masterclipid>ArmA 3 2020.11.14 - 20.30.42.34.mp4</masterclipid>
								<logginginfo>
									<scene />
									<shottake />
									<lognote />
									<good>FALSE</good>
								</logginginfo>
								<labels>
									<label2 />
								</labels>
								<comments>
									<mastercomment1 />
									<mastercomment2 />
									<mastercomment3 />
									<mastercomment4 />
								</comments>
								<file id="ArmA 3 2020.11.14 - 20.30.42.34" />
								<filter>
									<effect>
										<name>Audio Levels</name>
										<effectid>audiolevels</effectid>
										<effectcategory>audiolevels</effectcategory>
										<effecttype>audiolevels</effecttype>
										<mediatype>audio</mediatype>
										<parameter>
											<name>Level</name>
											<parameterid>level</parameterid>
											<valuemin>0</valuemin>
											<valuemax>3,98109</valuemax>
											<value>1</value>
										</parameter>
									</effect>
								</filter>
								<filter>
									<effect>
										<name>Audio Pan</name>
										<effectid>audiopan</effectid>
										<effectcategory>audiopan</effectcategory>
										<effecttype>audiopan</effecttype>
										<mediatype>audio</mediatype>
										<parameter>
											<name>Pan</name>
											<parameterid>pan</parameterid>
											<valuemin>-1</valuemin>
											<valuemax>1</valuemax>
											<value>1</value>
										</parameter>
									</effect>
								</filter>
								<sourcetrack>
									<mediatype>audio</mediatype>
									<trackindex>2</trackindex>
								</sourcetrack>
								<link>
									<linkclipref>ArmA 3 2020.11.14 - 20.30.42.34.mp4805307619</linkclipref>
								</link>
								<link>
									<linkclipref>ArmA 3 2020.11.14 - 20.30.42.34.mp4536872164</linkclipref>
								</link>
								<link>
									<linkclipref>ArmA 3 2020.11.14 - 20.30.42.34.mp45368721641</linkclipref>
								</link>
								<link>
									<linkclipref>ArmA 3 2020.11.14 - 20.30.42.34.mp4536872165</linkclipref>
								</link>
								<link>
									<linkclipref>ArmA 3 2020.11.14 - 20.30.42.34.mp45368721651</linkclipref>
								</link>
							</clipitem>
							<clipitem id="ArmA 3 2020.11.14 - 20.32.04.35.mp45368721671">
								<name>ArmA 3 2020.11.14 - 20.32.04.35.mp4</name>
								<duration>710</duration>
								<rate>
									<ntsc>TRUE</ntsc>
									<timebase>24</timebase>
								</rate>
								<in>0</in>
								<out>710</out>
								<start>7433</start>
								<end>8143</end>
								<enabled>FALSE</enabled>
								<masterclipid>ArmA 3 2020.11.14 - 20.32.04.35.mp4</masterclipid>
								<logginginfo>
									<scene />
									<shottake />
									<lognote />
									<good>FALSE</good>
								</logginginfo>
								<labels>
									<label2 />
								</labels>
								<comments>
									<mastercomment1 />
									<mastercomment2 />
									<mastercomment3 />
									<mastercomment4 />
								</comments>
								<file id="ArmA 3 2020.11.14 - 20.32.04.35" />
								<filter>
									<effect>
										<name>Audio Levels</name>
										<effectid>audiolevels</effectid>
										<effectcategory>audiolevels</effectcategory>
										<effecttype>audiolevels</effecttype>
										<mediatype>audio</mediatype>
										<parameter>
											<name>Level</name>
											<parameterid>level</parameterid>
											<valuemin>0</valuemin>
											<valuemax>3,98109</valuemax>
											<value>1</value>
										</parameter>
									</effect>
								</filter>
								<filter>
									<effect>
										<name>Audio Pan</name>
										<effectid>audiopan</effectid>
										<effectcategory>audiopan</effectcategory>
										<effecttype>audiopan</effecttype>
										<mediatype>audio</mediatype>
										<parameter>
											<name>Pan</name>
											<parameterid>pan</parameterid>
											<valuemin>-1</valuemin>
											<valuemax>1</valuemax>
											<value>1</value>
										</parameter>
									</effect>
								</filter>
								<sourcetrack>
									<mediatype>audio</mediatype>
									<trackindex>2</trackindex>
								</sourcetrack>
								<link>
									<linkclipref>ArmA 3 2020.11.14 - 20.32.04.35.mp4805307622</linkclipref>
								</link>
								<link>
									<linkclipref>ArmA 3 2020.11.14 - 20.32.04.35.mp4536872167</linkclipref>
								</link>
								<link>
									<linkclipref>ArmA 3 2020.11.14 - 20.32.04.35.mp45368721671</linkclipref>
								</link>
								<link>
									<linkclipref>ArmA 3 2020.11.14 - 20.32.04.35.mp4536872168</linkclipref>
								</link>
								<link>
									<linkclipref>ArmA 3 2020.11.14 - 20.32.04.35.mp45368721681</linkclipref>
								</link>
							</clipitem>
							<clipitem id="ArmA 3 2020.11.14 - 20.35.01.36.mp45368721701">
								<name>ArmA 3 2020.11.14 - 20.35.01.36.mp4</name>
								<duration>541</duration>
								<rate>
									<ntsc>TRUE</ntsc>
									<timebase>24</timebase>
								</rate>
								<in>0</in>
								<out>541</out>
								<start>8144</start>
								<end>8685</end>
								<enabled>FALSE</enabled>
								<masterclipid>ArmA 3 2020.11.14 - 20.35.01.36.mp4</masterclipid>
								<logginginfo>
									<scene />
									<shottake />
									<lognote />
									<good>FALSE</good>
								</logginginfo>
								<labels>
									<label2 />
								</labels>
								<comments>
									<mastercomment1 />
									<mastercomment2 />
									<mastercomment3 />
									<mastercomment4 />
								</comments>
								<file id="ArmA 3 2020.11.14 - 20.35.01.36" />
								<filter>
									<effect>
										<name>Audio Levels</name>
										<effectid>audiolevels</effectid>
										<effectcategory>audiolevels</effectcategory>
										<effecttype>audiolevels</effecttype>
										<mediatype>audio</mediatype>
										<parameter>
											<name>Level</name>
											<parameterid>level</parameterid>
											<valuemin>0</valuemin>
											<valuemax>3,98109</valuemax>
											<value>1</value>
										</parameter>
									</effect>
								</filter>
								<filter>
									<effect>
										<name>Audio Pan</name>
										<effectid>audiopan</effectid>
										<effectcategory>audiopan</effectcategory>
										<effecttype>audiopan</effecttype>
										<mediatype>audio</mediatype>
										<parameter>
											<name>Pan</name>
											<parameterid>pan</parameterid>
											<valuemin>-1</valuemin>
											<valuemax>1</valuemax>
											<value>1</value>
										</parameter>
									</effect>
								</filter>
								<sourcetrack>
									<mediatype>audio</mediatype>
									<trackindex>2</trackindex>
								</sourcetrack>
								<link>
									<linkclipref>ArmA 3 2020.11.14 - 20.35.01.36.mp4805307625</linkclipref>
								</link>
								<link>
									<linkclipref>ArmA 3 2020.11.14 - 20.35.01.36.mp4536872170</linkclipref>
								</link>
								<link>
									<linkclipref>ArmA 3 2020.11.14 - 20.35.01.36.mp45368721701</linkclipref>
								</link>
								<link>
									<linkclipref>ArmA 3 2020.11.14 - 20.35.01.36.mp4536872171</linkclipref>
								</link>
								<link>
									<linkclipref>ArmA 3 2020.11.14 - 20.35.01.36.mp45368721711</linkclipref>
								</link>
							</clipitem>
							<clipitem id="ArmA 3 2020.11.14 - 20.35.39.37.mp45368721731">
								<name>ArmA 3 2020.11.14 - 20.35.39.37.mp4</name>
								<duration>609</duration>
								<rate>
									<ntsc>TRUE</ntsc>
									<timebase>24</timebase>
								</rate>
								<in>0</in>
								<out>609</out>
								<start>8686</start>
								<end>9295</end>
								<enabled>FALSE</enabled>
								<masterclipid>ArmA 3 2020.11.14 - 20.35.39.37.mp4</masterclipid>
								<logginginfo>
									<scene />
									<shottake />
									<lognote />
									<good>FALSE</good>
								</logginginfo>
								<labels>
									<label2 />
								</labels>
								<comments>
									<mastercomment1 />
									<mastercomment2 />
									<mastercomment3 />
									<mastercomment4 />
								</comments>
								<file id="ArmA 3 2020.11.14 - 20.35.39.37" />
								<filter>
									<effect>
										<name>Audio Levels</name>
										<effectid>audiolevels</effectid>
										<effectcategory>audiolevels</effectcategory>
										<effecttype>audiolevels</effecttype>
										<mediatype>audio</mediatype>
										<parameter>
											<name>Level</name>
											<parameterid>level</parameterid>
											<valuemin>0</valuemin>
											<valuemax>3,98109</valuemax>
											<value>1</value>
										</parameter>
									</effect>
								</filter>
								<filter>
									<effect>
										<name>Audio Pan</name>
										<effectid>audiopan</effectid>
										<effectcategory>audiopan</effectcategory>
										<effecttype>audiopan</effecttype>
										<mediatype>audio</mediatype>
										<parameter>
											<name>Pan</name>
											<parameterid>pan</parameterid>
											<valuemin>-1</valuemin>
											<valuemax>1</valuemax>
											<value>1</value>
										</parameter>
									</effect>
								</filter>
								<sourcetrack>
									<mediatype>audio</mediatype>
									<trackindex>2</trackindex>
								</sourcetrack>
								<link>
									<linkclipref>ArmA 3 2020.11.14 - 20.35.39.37.mp4805307628</linkclipref>
								</link>
								<link>
									<linkclipref>ArmA 3 2020.11.14 - 20.35.39.37.mp4536872173</linkclipref>
								</link>
								<link>
									<linkclipref>ArmA 3 2020.11.14 - 20.35.39.37.mp45368721731</linkclipref>
								</link>
								<link>
									<linkclipref>ArmA 3 2020.11.14 - 20.35.39.37.mp4536872174</linkclipref>
								</link>
								<link>
									<linkclipref>ArmA 3 2020.11.14 - 20.35.39.37.mp45368721741</linkclipref>
								</link>
							</clipitem>
							<clipitem id="ArmA 3 2020.11.14 - 20.41.15.38.mp45368721761">
								<name>ArmA 3 2020.11.14 - 20.41.15.38.mp4</name>
								<duration>809</duration>
								<rate>
									<ntsc>TRUE</ntsc>
									<timebase>24</timebase>
								</rate>
								<in>0</in>
								<out>809</out>
								<start>9296</start>
								<end>10105</end>
								<enabled>FALSE</enabled>
								<masterclipid>ArmA 3 2020.11.14 - 20.41.15.38.mp4</masterclipid>
								<logginginfo>
									<scene />
									<shottake />
									<lognote />
									<good>FALSE</good>
								</logginginfo>
								<labels>
									<label2 />
								</labels>
								<comments>
									<mastercomment1 />
									<mastercomment2 />
									<mastercomment3 />
									<mastercomment4 />
								</comments>
								<file id="ArmA 3 2020.11.14 - 20.41.15.38" />
								<filter>
									<effect>
										<name>Audio Levels</name>
										<effectid>audiolevels</effectid>
										<effectcategory>audiolevels</effectcategory>
										<effecttype>audiolevels</effecttype>
										<mediatype>audio</mediatype>
										<parameter>
											<name>Level</name>
											<parameterid>level</parameterid>
											<valuemin>0</valuemin>
											<valuemax>3,98109</valuemax>
											<value>1</value>
										</parameter>
									</effect>
								</filter>
								<filter>
									<effect>
										<name>Audio Pan</name>
										<effectid>audiopan</effectid>
										<effectcategory>audiopan</effectcategory>
										<effecttype>audiopan</effecttype>
										<mediatype>audio</mediatype>
										<parameter>
											<name>Pan</name>
											<parameterid>pan</parameterid>
											<valuemin>-1</valuemin>
											<valuemax>1</valuemax>
											<value>1</value>
										</parameter>
									</effect>
								</filter>
								<sourcetrack>
									<mediatype>audio</mediatype>
									<trackindex>2</trackindex>
								</sourcetrack>
								<link>
									<linkclipref>ArmA 3 2020.11.14 - 20.41.15.38.mp4805307631</linkclipref>
								</link>
								<link>
									<linkclipref>ArmA 3 2020.11.14 - 20.41.15.38.mp4536872176</linkclipref>
								</link>
								<link>
									<linkclipref>ArmA 3 2020.11.14 - 20.41.15.38.mp45368721761</linkclipref>
								</link>
								<link>
									<linkclipref>ArmA 3 2020.11.14 - 20.41.15.38.mp4536872177</linkclipref>
								</link>
								<link>
									<linkclipref>ArmA 3 2020.11.14 - 20.41.15.38.mp45368721771</linkclipref>
								</link>
							</clipitem>
							<clipitem id="ArmA 3 2020.11.14 - 20.42.08.39.mp45368721791">
								<name>ArmA 3 2020.11.14 - 20.42.08.39.mp4</name>
								<duration>1394</duration>
								<rate>
									<ntsc>TRUE</ntsc>
									<timebase>24</timebase>
								</rate>
								<in>0</in>
								<out>1394</out>
								<start>10106</start>
								<end>11500</end>
								<enabled>FALSE</enabled>
								<masterclipid>ArmA 3 2020.11.14 - 20.42.08.39.mp4</masterclipid>
								<logginginfo>
									<scene />
									<shottake />
									<lognote />
									<good>FALSE</good>
								</logginginfo>
								<labels>
									<label2 />
								</labels>
								<comments>
									<mastercomment1 />
									<mastercomment2 />
									<mastercomment3 />
									<mastercomment4 />
								</comments>
								<file id="ArmA 3 2020.11.14 - 20.42.08.39" />
								<filter>
									<effect>
										<name>Audio Levels</name>
										<effectid>audiolevels</effectid>
										<effectcategory>audiolevels</effectcategory>
										<effecttype>audiolevels</effecttype>
										<mediatype>audio</mediatype>
										<parameter>
											<name>Level</name>
											<parameterid>level</parameterid>
											<valuemin>0</valuemin>
											<valuemax>3,98109</valuemax>
											<value>1</value>
										</parameter>
									</effect>
								</filter>
								<filter>
									<effect>
										<name>Audio Pan</name>
										<effectid>audiopan</effectid>
										<effectcategory>audiopan</effectcategory>
										<effecttype>audiopan</effecttype>
										<mediatype>audio</mediatype>
										<parameter>
											<name>Pan</name>
											<parameterid>pan</parameterid>
											<valuemin>-1</valuemin>
											<valuemax>1</valuemax>
											<value>1</value>
										</parameter>
									</effect>
								</filter>
								<sourcetrack>
									<mediatype>audio</mediatype>
									<trackindex>2</trackindex>
								</sourcetrack>
								<link>
									<linkclipref>ArmA 3 2020.11.14 - 20.42.08.39.mp4805307634</linkclipref>
								</link>
								<link>
									<linkclipref>ArmA 3 2020.11.14 - 20.42.08.39.mp4536872179</linkclipref>
								</link>
								<link>
									<linkclipref>ArmA 3 2020.11.14 - 20.42.08.39.mp45368721791</linkclipref>
								</link>
								<link>
									<linkclipref>ArmA 3 2020.11.14 - 20.42.08.39.mp4536872180</linkclipref>
								</link>
								<link>
									<linkclipref>ArmA 3 2020.11.14 - 20.42.08.39.mp45368721801</linkclipref>
								</link>
							</clipitem>
							<clipitem id="ArmA 3 2020.11.14 - 20.43.49.40.mp45368721821">
								<name>ArmA 3 2020.11.14 - 20.43.49.40.mp4</name>
								<duration>386</duration>
								<rate>
									<ntsc>TRUE</ntsc>
									<timebase>24</timebase>
								</rate>
								<in>0</in>
								<out>386</out>
								<start>11501</start>
								<end>11887</end>
								<enabled>FALSE</enabled>
								<masterclipid>ArmA 3 2020.11.14 - 20.43.49.40.mp4</masterclipid>
								<logginginfo>
									<scene />
									<shottake />
									<lognote />
									<good>FALSE</good>
								</logginginfo>
								<labels>
									<label2 />
								</labels>
								<comments>
									<mastercomment1 />
									<mastercomment2 />
									<mastercomment3 />
									<mastercomment4 />
								</comments>
								<file id="ArmA 3 2020.11.14 - 20.43.49.40" />
								<filter>
									<effect>
										<name>Audio Levels</name>
										<effectid>audiolevels</effectid>
										<effectcategory>audiolevels</effectcategory>
										<effecttype>audiolevels</effecttype>
										<mediatype>audio</mediatype>
										<parameter>
											<name>Level</name>
											<parameterid>level</parameterid>
											<valuemin>0</valuemin>
											<valuemax>3,98109</valuemax>
											<value>1</value>
										</parameter>
									</effect>
								</filter>
								<filter>
									<effect>
										<name>Audio Pan</name>
										<effectid>audiopan</effectid>
										<effectcategory>audiopan</effectcategory>
										<effecttype>audiopan</effecttype>
										<mediatype>audio</mediatype>
										<parameter>
											<name>Pan</name>
											<parameterid>pan</parameterid>
											<valuemin>-1</valuemin>
											<valuemax>1</valuemax>
											<value>1</value>
										</parameter>
									</effect>
								</filter>
								<sourcetrack>
									<mediatype>audio</mediatype>
									<trackindex>2</trackindex>
								</sourcetrack>
								<link>
									<linkclipref>ArmA 3 2020.11.14 - 20.43.49.40.mp4805307637</linkclipref>
								</link>
								<link>
									<linkclipref>ArmA 3 2020.11.14 - 20.43.49.40.mp4536872182</linkclipref>
								</link>
								<link>
									<linkclipref>ArmA 3 2020.11.14 - 20.43.49.40.mp45368721821</linkclipref>
								</link>
								<link>
									<linkclipref>ArmA 3 2020.11.14 - 20.43.49.40.mp4536872183</linkclipref>
								</link>
								<link>
									<linkclipref>ArmA 3 2020.11.14 - 20.43.49.40.mp45368721831</linkclipref>
								</link>
							</clipitem>
							<clipitem id="ArmA 3 2020.11.14 - 20.50.27.41.mp45368721851">
								<name>ArmA 3 2020.11.14 - 20.50.27.41.mp4</name>
								<duration>378</duration>
								<rate>
									<ntsc>TRUE</ntsc>
									<timebase>24</timebase>
								</rate>
								<in>0</in>
								<out>378</out>
								<start>11888</start>
								<end>12266</end>
								<enabled>FALSE</enabled>
								<masterclipid>ArmA 3 2020.11.14 - 20.50.27.41.mp4</masterclipid>
								<logginginfo>
									<scene />
									<shottake />
									<lognote />
									<good>FALSE</good>
								</logginginfo>
								<labels>
									<label2 />
								</labels>
								<comments>
									<mastercomment1 />
									<mastercomment2 />
									<mastercomment3 />
									<mastercomment4 />
								</comments>
								<file id="ArmA 3 2020.11.14 - 20.50.27.41" />
								<filter>
									<effect>
										<name>Audio Levels</name>
										<effectid>audiolevels</effectid>
										<effectcategory>audiolevels</effectcategory>
										<effecttype>audiolevels</effecttype>
										<mediatype>audio</mediatype>
										<parameter>
											<name>Level</name>
											<parameterid>level</parameterid>
											<valuemin>0</valuemin>
											<valuemax>3,98109</valuemax>
											<value>1</value>
										</parameter>
									</effect>
								</filter>
								<filter>
									<effect>
										<name>Audio Pan</name>
										<effectid>audiopan</effectid>
										<effectcategory>audiopan</effectcategory>
										<effecttype>audiopan</effecttype>
										<mediatype>audio</mediatype>
										<parameter>
											<name>Pan</name>
											<parameterid>pan</parameterid>
											<valuemin>-1</valuemin>
											<valuemax>1</valuemax>
											<value>1</value>
										</parameter>
									</effect>
								</filter>
								<sourcetrack>
									<mediatype>audio</mediatype>
									<trackindex>2</trackindex>
								</sourcetrack>
								<link>
									<linkclipref>ArmA 3 2020.11.14 - 20.50.27.41.mp4805307640</linkclipref>
								</link>
								<link>
									<linkclipref>ArmA 3 2020.11.14 - 20.50.27.41.mp4536872185</linkclipref>
								</link>
								<link>
									<linkclipref>ArmA 3 2020.11.14 - 20.50.27.41.mp45368721851</linkclipref>
								</link>
								<link>
									<linkclipref>ArmA 3 2020.11.14 - 20.50.27.41.mp4536872186</linkclipref>
								</link>
								<link>
									<linkclipref>ArmA 3 2020.11.14 - 20.50.27.41.mp45368721861</linkclipref>
								</link>
							</clipitem>
							<clipitem id="ArmA 3 2020.11.14 - 20.53.10.42.mp45368721881">
								<name>ArmA 3 2020.11.14 - 20.53.10.42.mp4</name>
								<duration>774</duration>
								<rate>
									<ntsc>TRUE</ntsc>
									<timebase>24</timebase>
								</rate>
								<in>0</in>
								<out>774</out>
								<start>12267</start>
								<end>13041</end>
								<enabled>FALSE</enabled>
								<masterclipid>ArmA 3 2020.11.14 - 20.53.10.42.mp4</masterclipid>
								<logginginfo>
									<scene />
									<shottake />
									<lognote />
									<good>FALSE</good>
								</logginginfo>
								<labels>
									<label2 />
								</labels>
								<comments>
									<mastercomment1 />
									<mastercomment2 />
									<mastercomment3 />
									<mastercomment4 />
								</comments>
								<file id="ArmA 3 2020.11.14 - 20.53.10.42" />
								<filter>
									<effect>
										<name>Audio Levels</name>
										<effectid>audiolevels</effectid>
										<effectcategory>audiolevels</effectcategory>
										<effecttype>audiolevels</effecttype>
										<mediatype>audio</mediatype>
										<parameter>
											<name>Level</name>
											<parameterid>level</parameterid>
											<valuemin>0</valuemin>
											<valuemax>3,98109</valuemax>
											<value>1</value>
										</parameter>
									</effect>
								</filter>
								<filter>
									<effect>
										<name>Audio Pan</name>
										<effectid>audiopan</effectid>
										<effectcategory>audiopan</effectcategory>
										<effecttype>audiopan</effecttype>
										<mediatype>audio</mediatype>
										<parameter>
											<name>Pan</name>
											<parameterid>pan</parameterid>
											<valuemin>-1</valuemin>
											<valuemax>1</valuemax>
											<value>1</value>
										</parameter>
									</effect>
								</filter>
								<sourcetrack>
									<mediatype>audio</mediatype>
									<trackindex>2</trackindex>
								</sourcetrack>
								<link>
									<linkclipref>ArmA 3 2020.11.14 - 20.53.10.42.mp4805307643</linkclipref>
								</link>
								<link>
									<linkclipref>ArmA 3 2020.11.14 - 20.53.10.42.mp4536872188</linkclipref>
								</link>
								<link>
									<linkclipref>ArmA 3 2020.11.14 - 20.53.10.42.mp45368721881</linkclipref>
								</link>
								<link>
									<linkclipref>ArmA 3 2020.11.14 - 20.53.10.42.mp4536872189</linkclipref>
								</link>
								<link>
									<linkclipref>ArmA 3 2020.11.14 - 20.53.10.42.mp45368721891</linkclipref>
								</link>
							</clipitem>
							<clipitem id="ArmA 3 2020.11.14 - 20.54.51.43.mp45368721911">
								<name>ArmA 3 2020.11.14 - 20.54.51.43.mp4</name>
								<duration>441</duration>
								<rate>
									<ntsc>TRUE</ntsc>
									<timebase>24</timebase>
								</rate>
								<in>0</in>
								<out>441</out>
								<start>13042</start>
								<end>13483</end>
								<enabled>FALSE</enabled>
								<masterclipid>ArmA 3 2020.11.14 - 20.54.51.43.mp4</masterclipid>
								<logginginfo>
									<scene />
									<shottake />
									<lognote />
									<good>FALSE</good>
								</logginginfo>
								<labels>
									<label2 />
								</labels>
								<comments>
									<mastercomment1 />
									<mastercomment2 />
									<mastercomment3 />
									<mastercomment4 />
								</comments>
								<file id="ArmA 3 2020.11.14 - 20.54.51.43" />
								<filter>
									<effect>
										<name>Audio Levels</name>
										<effectid>audiolevels</effectid>
										<effectcategory>audiolevels</effectcategory>
										<effecttype>audiolevels</effecttype>
										<mediatype>audio</mediatype>
										<parameter>
											<name>Level</name>
											<parameterid>level</parameterid>
											<valuemin>0</valuemin>
											<valuemax>3,98109</valuemax>
											<value>1</value>
										</parameter>
									</effect>
								</filter>
								<filter>
									<effect>
										<name>Audio Pan</name>
										<effectid>audiopan</effectid>
										<effectcategory>audiopan</effectcategory>
										<effecttype>audiopan</effecttype>
										<mediatype>audio</mediatype>
										<parameter>
											<name>Pan</name>
											<parameterid>pan</parameterid>
											<valuemin>-1</valuemin>
											<valuemax>1</valuemax>
											<value>1</value>
										</parameter>
									</effect>
								</filter>
								<sourcetrack>
									<mediatype>audio</mediatype>
									<trackindex>2</trackindex>
								</sourcetrack>
								<link>
									<linkclipref>ArmA 3 2020.11.14 - 20.54.51.43.mp4805307646</linkclipref>
								</link>
								<link>
									<linkclipref>ArmA 3 2020.11.14 - 20.54.51.43.mp4536872191</linkclipref>
								</link>
								<link>
									<linkclipref>ArmA 3 2020.11.14 - 20.54.51.43.mp45368721911</linkclipref>
								</link>
								<link>
									<linkclipref>ArmA 3 2020.11.14 - 20.54.51.43.mp4536872192</linkclipref>
								</link>
								<link>
									<linkclipref>ArmA 3 2020.11.14 - 20.54.51.43.mp45368721921</linkclipref>
								</link>
							</clipitem>
							<clipitem id="ArmA 3 2020.11.14 - 20.55.19.44.mp45368721941">
								<name>ArmA 3 2020.11.14 - 20.55.19.44.mp4</name>
								<duration>709</duration>
								<rate>
									<ntsc>TRUE</ntsc>
									<timebase>24</timebase>
								</rate>
								<in>0</in>
								<out>709</out>
								<start>13484</start>
								<end>14193</end>
								<enabled>FALSE</enabled>
								<masterclipid>ArmA 3 2020.11.14 - 20.55.19.44.mp4</masterclipid>
								<logginginfo>
									<scene />
									<shottake />
									<lognote />
									<good>FALSE</good>
								</logginginfo>
								<labels>
									<label2 />
								</labels>
								<comments>
									<mastercomment1 />
									<mastercomment2 />
									<mastercomment3 />
									<mastercomment4 />
								</comments>
								<file id="ArmA 3 2020.11.14 - 20.55.19.44" />
								<filter>
									<effect>
										<name>Audio Levels</name>
										<effectid>audiolevels</effectid>
										<effectcategory>audiolevels</effectcategory>
										<effecttype>audiolevels</effecttype>
										<mediatype>audio</mediatype>
										<parameter>
											<name>Level</name>
											<parameterid>level</parameterid>
											<valuemin>0</valuemin>
											<valuemax>3,98109</valuemax>
											<value>1</value>
										</parameter>
									</effect>
								</filter>
								<filter>
									<effect>
										<name>Audio Pan</name>
										<effectid>audiopan</effectid>
										<effectcategory>audiopan</effectcategory>
										<effecttype>audiopan</effecttype>
										<mediatype>audio</mediatype>
										<parameter>
											<name>Pan</name>
											<parameterid>pan</parameterid>
											<valuemin>-1</valuemin>
											<valuemax>1</valuemax>
											<value>1</value>
										</parameter>
									</effect>
								</filter>
								<sourcetrack>
									<mediatype>audio</mediatype>
									<trackindex>2</trackindex>
								</sourcetrack>
								<link>
									<linkclipref>ArmA 3 2020.11.14 - 20.55.19.44.mp4805307649</linkclipref>
								</link>
								<link>
									<linkclipref>ArmA 3 2020.11.14 - 20.55.19.44.mp4536872194</linkclipref>
								</link>
								<link>
									<linkclipref>ArmA 3 2020.11.14 - 20.55.19.44.mp45368721941</linkclipref>
								</link>
								<link>
									<linkclipref>ArmA 3 2020.11.14 - 20.55.19.44.mp4536872195</linkclipref>
								</link>
								<link>
									<linkclipref>ArmA 3 2020.11.14 - 20.55.19.44.mp45368721951</linkclipref>
								</link>
							</clipitem>
							<clipitem id="ArmA 3 2020.11.14 - 20.58.46.45.mp45368721971">
								<name>ArmA 3 2020.11.14 - 20.58.46.45.mp4</name>
								<duration>1428</duration>
								<rate>
									<ntsc>TRUE</ntsc>
									<timebase>24</timebase>
								</rate>
								<in>0</in>
								<out>1428</out>
								<start>14194</start>
								<end>15622</end>
								<enabled>FALSE</enabled>
								<masterclipid>ArmA 3 2020.11.14 - 20.58.46.45.mp4</masterclipid>
								<logginginfo>
									<scene />
									<shottake />
									<lognote />
									<good>FALSE</good>
								</logginginfo>
								<labels>
									<label2 />
								</labels>
								<comments>
									<mastercomment1 />
									<mastercomment2 />
									<mastercomment3 />
									<mastercomment4 />
								</comments>
								<file id="ArmA 3 2020.11.14 - 20.58.46.45" />
								<filter>
									<effect>
										<name>Audio Levels</name>
										<effectid>audiolevels</effectid>
										<effectcategory>audiolevels</effectcategory>
										<effecttype>audiolevels</effecttype>
										<mediatype>audio</mediatype>
										<parameter>
											<name>Level</name>
											<parameterid>level</parameterid>
											<valuemin>0</valuemin>
											<valuemax>3,98109</valuemax>
											<value>1</value>
										</parameter>
									</effect>
								</filter>
								<filter>
									<effect>
										<name>Audio Pan</name>
										<effectid>audiopan</effectid>
										<effectcategory>audiopan</effectcategory>
										<effecttype>audiopan</effecttype>
										<mediatype>audio</mediatype>
										<parameter>
											<name>Pan</name>
											<parameterid>pan</parameterid>
											<valuemin>-1</valuemin>
											<valuemax>1</valuemax>
											<value>1</value>
										</parameter>
									</effect>
								</filter>
								<sourcetrack>
									<mediatype>audio</mediatype>
									<trackindex>2</trackindex>
								</sourcetrack>
								<link>
									<linkclipref>ArmA 3 2020.11.14 - 20.58.46.45.mp4805307652</linkclipref>
								</link>
								<link>
									<linkclipref>ArmA 3 2020.11.14 - 20.58.46.45.mp4536872197</linkclipref>
								</link>
								<link>
									<linkclipref>ArmA 3 2020.11.14 - 20.58.46.45.mp45368721971</linkclipref>
								</link>
								<link>
									<linkclipref>ArmA 3 2020.11.14 - 20.58.46.45.mp4536872198</linkclipref>
								</link>
								<link>
									<linkclipref>ArmA 3 2020.11.14 - 20.58.46.45.mp45368721981</linkclipref>
								</link>
							</clipitem>
							<clipitem id="ArmA 3 2020.11.14 - 21.00.16.46.mp45368722001">
								<name>ArmA 3 2020.11.14 - 21.00.16.46.mp4</name>
								<duration>562</duration>
								<rate>
									<ntsc>TRUE</ntsc>
									<timebase>24</timebase>
								</rate>
								<in>0</in>
								<out>562</out>
								<start>15623</start>
								<end>16185</end>
								<enabled>FALSE</enabled>
								<masterclipid>ArmA 3 2020.11.14 - 21.00.16.46.mp4</masterclipid>
								<logginginfo>
									<scene />
									<shottake />
									<lognote />
									<good>FALSE</good>
								</logginginfo>
								<labels>
									<label2 />
								</labels>
								<comments>
									<mastercomment1 />
									<mastercomment2 />
									<mastercomment3 />
									<mastercomment4 />
								</comments>
								<file id="ArmA 3 2020.11.14 - 21.00.16.46" />
								<filter>
									<effect>
										<name>Audio Levels</name>
										<effectid>audiolevels</effectid>
										<effectcategory>audiolevels</effectcategory>
										<effecttype>audiolevels</effecttype>
										<mediatype>audio</mediatype>
										<parameter>
											<name>Level</name>
											<parameterid>level</parameterid>
											<valuemin>0</valuemin>
											<valuemax>3,98109</valuemax>
											<value>1</value>
										</parameter>
									</effect>
								</filter>
								<filter>
									<effect>
										<name>Audio Pan</name>
										<effectid>audiopan</effectid>
										<effectcategory>audiopan</effectcategory>
										<effecttype>audiopan</effecttype>
										<mediatype>audio</mediatype>
										<parameter>
											<name>Pan</name>
											<parameterid>pan</parameterid>
											<valuemin>-1</valuemin>
											<valuemax>1</valuemax>
											<value>1</value>
										</parameter>
									</effect>
								</filter>
								<sourcetrack>
									<mediatype>audio</mediatype>
									<trackindex>2</trackindex>
								</sourcetrack>
								<link>
									<linkclipref>ArmA 3 2020.11.14 - 21.00.16.46.mp4805307655</linkclipref>
								</link>
								<link>
									<linkclipref>ArmA 3 2020.11.14 - 21.00.16.46.mp4536872200</linkclipref>
								</link>
								<link>
									<linkclipref>ArmA 3 2020.11.14 - 21.00.16.46.mp45368722001</linkclipref>
								</link>
								<link>
									<linkclipref>ArmA 3 2020.11.14 - 21.00.16.46.mp4536872201</linkclipref>
								</link>
								<link>
									<linkclipref>ArmA 3 2020.11.14 - 21.00.16.46.mp45368722011</linkclipref>
								</link>
							</clipitem>
							<clipitem id="ArmA 3 2020.11.14 - 21.00.51.47.mp45368722031">
								<name>ArmA 3 2020.11.14 - 21.00.51.47.mp4</name>
								<duration>691</duration>
								<rate>
									<ntsc>TRUE</ntsc>
									<timebase>24</timebase>
								</rate>
								<in>0</in>
								<out>691</out>
								<start>16186</start>
								<end>16877</end>
								<enabled>FALSE</enabled>
								<masterclipid>ArmA 3 2020.11.14 - 21.00.51.47.mp4</masterclipid>
								<logginginfo>
									<scene />
									<shottake />
									<lognote />
									<good>FALSE</good>
								</logginginfo>
								<labels>
									<label2 />
								</labels>
								<comments>
									<mastercomment1 />
									<mastercomment2 />
									<mastercomment3 />
									<mastercomment4 />
								</comments>
								<file id="ArmA 3 2020.11.14 - 21.00.51.47" />
								<filter>
									<effect>
										<name>Audio Levels</name>
										<effectid>audiolevels</effectid>
										<effectcategory>audiolevels</effectcategory>
										<effecttype>audiolevels</effecttype>
										<mediatype>audio</mediatype>
										<parameter>
											<name>Level</name>
											<parameterid>level</parameterid>
											<valuemin>0</valuemin>
											<valuemax>3,98109</valuemax>
											<value>1</value>
										</parameter>
									</effect>
								</filter>
								<filter>
									<effect>
										<name>Audio Pan</name>
										<effectid>audiopan</effectid>
										<effectcategory>audiopan</effectcategory>
										<effecttype>audiopan</effecttype>
										<mediatype>audio</mediatype>
										<parameter>
											<name>Pan</name>
											<parameterid>pan</parameterid>
											<valuemin>-1</valuemin>
											<valuemax>1</valuemax>
											<value>1</value>
										</parameter>
									</effect>
								</filter>
								<sourcetrack>
									<mediatype>audio</mediatype>
									<trackindex>2</trackindex>
								</sourcetrack>
								<link>
									<linkclipref>ArmA 3 2020.11.14 - 21.00.51.47.mp4805307658</linkclipref>
								</link>
								<link>
									<linkclipref>ArmA 3 2020.11.14 - 21.00.51.47.mp4536872203</linkclipref>
								</link>
								<link>
									<linkclipref>ArmA 3 2020.11.14 - 21.00.51.47.mp45368722031</linkclipref>
								</link>
								<link>
									<linkclipref>ArmA 3 2020.11.14 - 21.00.51.47.mp4536872204</linkclipref>
								</link>
								<link>
									<linkclipref>ArmA 3 2020.11.14 - 21.00.51.47.mp45368722041</linkclipref>
								</link>
							</clipitem>
							<clipitem id="ArmA 3 2020.11.14 - 21.01.54.48.mp45368722061">
								<name>ArmA 3 2020.11.14 - 21.01.54.48.mp4</name>
								<duration>911</duration>
								<rate>
									<ntsc>TRUE</ntsc>
									<timebase>24</timebase>
								</rate>
								<in>0</in>
								<out>911</out>
								<start>16878</start>
								<end>17789</end>
								<enabled>FALSE</enabled>
								<masterclipid>ArmA 3 2020.11.14 - 21.01.54.48.mp4</masterclipid>
								<logginginfo>
									<scene />
									<shottake />
									<lognote />
									<good>FALSE</good>
								</logginginfo>
								<labels>
									<label2 />
								</labels>
								<comments>
									<mastercomment1 />
									<mastercomment2 />
									<mastercomment3 />
									<mastercomment4 />
								</comments>
								<file id="ArmA 3 2020.11.14 - 21.01.54.48" />
								<filter>
									<effect>
										<name>Audio Levels</name>
										<effectid>audiolevels</effectid>
										<effectcategory>audiolevels</effectcategory>
										<effecttype>audiolevels</effecttype>
										<mediatype>audio</mediatype>
										<parameter>
											<name>Level</name>
											<parameterid>level</parameterid>
											<valuemin>0</valuemin>
											<valuemax>3,98109</valuemax>
											<value>1</value>
										</parameter>
									</effect>
								</filter>
								<filter>
									<effect>
										<name>Audio Pan</name>
										<effectid>audiopan</effectid>
										<effectcategory>audiopan</effectcategory>
										<effecttype>audiopan</effecttype>
										<mediatype>audio</mediatype>
										<parameter>
											<name>Pan</name>
											<parameterid>pan</parameterid>
											<valuemin>-1</valuemin>
											<valuemax>1</valuemax>
											<value>1</value>
										</parameter>
									</effect>
								</filter>
								<sourcetrack>
									<mediatype>audio</mediatype>
									<trackindex>2</trackindex>
								</sourcetrack>
								<link>
									<linkclipref>ArmA 3 2020.11.14 - 21.01.54.48.mp4805307661</linkclipref>
								</link>
								<link>
									<linkclipref>ArmA 3 2020.11.14 - 21.01.54.48.mp4536872206</linkclipref>
								</link>
								<link>
									<linkclipref>ArmA 3 2020.11.14 - 21.01.54.48.mp45368722061</linkclipref>
								</link>
								<link>
									<linkclipref>ArmA 3 2020.11.14 - 21.01.54.48.mp4536872207</linkclipref>
								</link>
								<link>
									<linkclipref>ArmA 3 2020.11.14 - 21.01.54.48.mp45368722071</linkclipref>
								</link>
							</clipitem>
							<clipitem id="ArmA 3 2020.11.14 - 21.03.09.49.mp45368722091">
								<name>ArmA 3 2020.11.14 - 21.03.09.49.mp4</name>
								<duration>577</duration>
								<rate>
									<ntsc>TRUE</ntsc>
									<timebase>24</timebase>
								</rate>
								<in>0</in>
								<out>577</out>
								<start>17790</start>
								<end>18367</end>
								<enabled>FALSE</enabled>
								<masterclipid>ArmA 3 2020.11.14 - 21.03.09.49.mp4</masterclipid>
								<logginginfo>
									<scene />
									<shottake />
									<lognote />
									<good>FALSE</good>
								</logginginfo>
								<labels>
									<label2 />
								</labels>
								<comments>
									<mastercomment1 />
									<mastercomment2 />
									<mastercomment3 />
									<mastercomment4 />
								</comments>
								<file id="ArmA 3 2020.11.14 - 21.03.09.49" />
								<filter>
									<effect>
										<name>Audio Levels</name>
										<effectid>audiolevels</effectid>
										<effectcategory>audiolevels</effectcategory>
										<effecttype>audiolevels</effecttype>
										<mediatype>audio</mediatype>
										<parameter>
											<name>Level</name>
											<parameterid>level</parameterid>
											<valuemin>0</valuemin>
											<valuemax>3,98109</valuemax>
											<value>1</value>
										</parameter>
									</effect>
								</filter>
								<filter>
									<effect>
										<name>Audio Pan</name>
										<effectid>audiopan</effectid>
										<effectcategory>audiopan</effectcategory>
										<effecttype>audiopan</effecttype>
										<mediatype>audio</mediatype>
										<parameter>
											<name>Pan</name>
											<parameterid>pan</parameterid>
											<valuemin>-1</valuemin>
											<valuemax>1</valuemax>
											<value>1</value>
										</parameter>
									</effect>
								</filter>
								<sourcetrack>
									<mediatype>audio</mediatype>
									<trackindex>2</trackindex>
								</sourcetrack>
								<link>
									<linkclipref>ArmA 3 2020.11.14 - 21.03.09.49.mp4805307664</linkclipref>
								</link>
								<link>
									<linkclipref>ArmA 3 2020.11.14 - 21.03.09.49.mp4536872209</linkclipref>
								</link>
								<link>
									<linkclipref>ArmA 3 2020.11.14 - 21.03.09.49.mp45368722091</linkclipref>
								</link>
								<link>
									<linkclipref>ArmA 3 2020.11.14 - 21.03.09.49.mp4536872210</linkclipref>
								</link>
								<link>
									<linkclipref>ArmA 3 2020.11.14 - 21.03.09.49.mp45368722101</linkclipref>
								</link>
							</clipitem>
							<clipitem id="ArmA 3 2020.11.14 - 21.04.25.50.mp45368722121">
								<name>ArmA 3 2020.11.14 - 21.04.25.50.mp4</name>
								<duration>573</duration>
								<rate>
									<ntsc>TRUE</ntsc>
									<timebase>24</timebase>
								</rate>
								<in>0</in>
								<out>573</out>
								<start>18368</start>
								<end>18941</end>
								<enabled>FALSE</enabled>
								<masterclipid>ArmA 3 2020.11.14 - 21.04.25.50.mp4</masterclipid>
								<logginginfo>
									<scene />
									<shottake />
									<lognote />
									<good>FALSE</good>
								</logginginfo>
								<labels>
									<label2 />
								</labels>
								<comments>
									<mastercomment1 />
									<mastercomment2 />
									<mastercomment3 />
									<mastercomment4 />
								</comments>
								<file id="ArmA 3 2020.11.14 - 21.04.25.50" />
								<filter>
									<effect>
										<name>Audio Levels</name>
										<effectid>audiolevels</effectid>
										<effectcategory>audiolevels</effectcategory>
										<effecttype>audiolevels</effecttype>
										<mediatype>audio</mediatype>
										<parameter>
											<name>Level</name>
											<parameterid>level</parameterid>
											<valuemin>0</valuemin>
											<valuemax>3,98109</valuemax>
											<value>1</value>
										</parameter>
									</effect>
								</filter>
								<filter>
									<effect>
										<name>Audio Pan</name>
										<effectid>audiopan</effectid>
										<effectcategory>audiopan</effectcategory>
										<effecttype>audiopan</effecttype>
										<mediatype>audio</mediatype>
										<parameter>
											<name>Pan</name>
											<parameterid>pan</parameterid>
											<valuemin>-1</valuemin>
											<valuemax>1</valuemax>
											<value>1</value>
										</parameter>
									</effect>
								</filter>
								<sourcetrack>
									<mediatype>audio</mediatype>
									<trackindex>2</trackindex>
								</sourcetrack>
								<link>
									<linkclipref>ArmA 3 2020.11.14 - 21.04.25.50.mp4805307667</linkclipref>
								</link>
								<link>
									<linkclipref>ArmA 3 2020.11.14 - 21.04.25.50.mp4536872212</linkclipref>
								</link>
								<link>
									<linkclipref>ArmA 3 2020.11.14 - 21.04.25.50.mp45368722121</linkclipref>
								</link>
								<link>
									<linkclipref>ArmA 3 2020.11.14 - 21.04.25.50.mp4536872213</linkclipref>
								</link>
								<link>
									<linkclipref>ArmA 3 2020.11.14 - 21.04.25.50.mp45368722131</linkclipref>
								</link>
							</clipitem>
							<clipitem id="ArmA 3 2020.11.14 - 21.05.14.51.mp45368722151">
								<name>ArmA 3 2020.11.14 - 21.05.14.51.mp4</name>
								<duration>643</duration>
								<rate>
									<ntsc>TRUE</ntsc>
									<timebase>24</timebase>
								</rate>
								<in>0</in>
								<out>643</out>
								<start>18942</start>
								<end>19585</end>
								<enabled>FALSE</enabled>
								<masterclipid>ArmA 3 2020.11.14 - 21.05.14.51.mp4</masterclipid>
								<logginginfo>
									<scene />
									<shottake />
									<lognote />
									<good>FALSE</good>
								</logginginfo>
								<labels>
									<label2 />
								</labels>
								<comments>
									<mastercomment1 />
									<mastercomment2 />
									<mastercomment3 />
									<mastercomment4 />
								</comments>
								<file id="ArmA 3 2020.11.14 - 21.05.14.51" />
								<filter>
									<effect>
										<name>Audio Levels</name>
										<effectid>audiolevels</effectid>
										<effectcategory>audiolevels</effectcategory>
										<effecttype>audiolevels</effecttype>
										<mediatype>audio</mediatype>
										<parameter>
											<name>Level</name>
											<parameterid>level</parameterid>
											<valuemin>0</valuemin>
											<valuemax>3,98109</valuemax>
											<value>1</value>
										</parameter>
									</effect>
								</filter>
								<filter>
									<effect>
										<name>Audio Pan</name>
										<effectid>audiopan</effectid>
										<effectcategory>audiopan</effectcategory>
										<effecttype>audiopan</effecttype>
										<mediatype>audio</mediatype>
										<parameter>
											<name>Pan</name>
											<parameterid>pan</parameterid>
											<valuemin>-1</valuemin>
											<valuemax>1</valuemax>
											<value>1</value>
										</parameter>
									</effect>
								</filter>
								<sourcetrack>
									<mediatype>audio</mediatype>
									<trackindex>2</trackindex>
								</sourcetrack>
								<link>
									<linkclipref>ArmA 3 2020.11.14 - 21.05.14.51.mp4805307670</linkclipref>
								</link>
								<link>
									<linkclipref>ArmA 3 2020.11.14 - 21.05.14.51.mp4536872215</linkclipref>
								</link>
								<link>
									<linkclipref>ArmA 3 2020.11.14 - 21.05.14.51.mp45368722151</linkclipref>
								</link>
								<link>
									<linkclipref>ArmA 3 2020.11.14 - 21.05.14.51.mp4536872216</linkclipref>
								</link>
								<link>
									<linkclipref>ArmA 3 2020.11.14 - 21.05.14.51.mp45368722161</linkclipref>
								</link>
							</clipitem>
							<clipitem id="ArmA 3 2020.11.14 - 21.05.51.52.mp45368722181">
								<name>ArmA 3 2020.11.14 - 21.05.51.52.mp4</name>
								<duration>832</duration>
								<rate>
									<ntsc>TRUE</ntsc>
									<timebase>24</timebase>
								</rate>
								<in>0</in>
								<out>832</out>
								<start>19586</start>
								<end>20418</end>
								<enabled>FALSE</enabled>
								<masterclipid>ArmA 3 2020.11.14 - 21.05.51.52.mp4</masterclipid>
								<logginginfo>
									<scene />
									<shottake />
									<lognote />
									<good>FALSE</good>
								</logginginfo>
								<labels>
									<label2 />
								</labels>
								<comments>
									<mastercomment1 />
									<mastercomment2 />
									<mastercomment3 />
									<mastercomment4 />
								</comments>
								<file id="ArmA 3 2020.11.14 - 21.05.51.52" />
								<filter>
									<effect>
										<name>Audio Levels</name>
										<effectid>audiolevels</effectid>
										<effectcategory>audiolevels</effectcategory>
										<effecttype>audiolevels</effecttype>
										<mediatype>audio</mediatype>
										<parameter>
											<name>Level</name>
											<parameterid>level</parameterid>
											<valuemin>0</valuemin>
											<valuemax>3,98109</valuemax>
											<value>1</value>
										</parameter>
									</effect>
								</filter>
								<filter>
									<effect>
										<name>Audio Pan</name>
										<effectid>audiopan</effectid>
										<effectcategory>audiopan</effectcategory>
										<effecttype>audiopan</effecttype>
										<mediatype>audio</mediatype>
										<parameter>
											<name>Pan</name>
											<parameterid>pan</parameterid>
											<valuemin>-1</valuemin>
											<valuemax>1</valuemax>
											<value>1</value>
										</parameter>
									</effect>
								</filter>
								<sourcetrack>
									<mediatype>audio</mediatype>
									<trackindex>2</trackindex>
								</sourcetrack>
								<link>
									<linkclipref>ArmA 3 2020.11.14 - 21.05.51.52.mp4805307673</linkclipref>
								</link>
								<link>
									<linkclipref>ArmA 3 2020.11.14 - 21.05.51.52.mp4536872218</linkclipref>
								</link>
								<link>
									<linkclipref>ArmA 3 2020.11.14 - 21.05.51.52.mp45368722181</linkclipref>
								</link>
								<link>
									<linkclipref>ArmA 3 2020.11.14 - 21.05.51.52.mp4536872219</linkclipref>
								</link>
								<link>
									<linkclipref>ArmA 3 2020.11.14 - 21.05.51.52.mp45368722191</linkclipref>
								</link>
							</clipitem>
							<clipitem id="ArmA 3 2020.11.14 - 21.06.34.53.mp45368722211">
								<name>ArmA 3 2020.11.14 - 21.06.34.53.mp4</name>
								<duration>1018</duration>
								<rate>
									<ntsc>TRUE</ntsc>
									<timebase>24</timebase>
								</rate>
								<in>0</in>
								<out>1018</out>
								<start>20419</start>
								<end>21437</end>
								<enabled>FALSE</enabled>
								<masterclipid>ArmA 3 2020.11.14 - 21.06.34.53.mp4</masterclipid>
								<logginginfo>
									<scene />
									<shottake />
									<lognote />
									<good>FALSE</good>
								</logginginfo>
								<labels>
									<label2 />
								</labels>
								<comments>
									<mastercomment1 />
									<mastercomment2 />
									<mastercomment3 />
									<mastercomment4 />
								</comments>
								<file id="ArmA 3 2020.11.14 - 21.06.34.53" />
								<filter>
									<effect>
										<name>Audio Levels</name>
										<effectid>audiolevels</effectid>
										<effectcategory>audiolevels</effectcategory>
										<effecttype>audiolevels</effecttype>
										<mediatype>audio</mediatype>
										<parameter>
											<name>Level</name>
											<parameterid>level</parameterid>
											<valuemin>0</valuemin>
											<valuemax>3,98109</valuemax>
											<value>1</value>
										</parameter>
									</effect>
								</filter>
								<filter>
									<effect>
										<name>Audio Pan</name>
										<effectid>audiopan</effectid>
										<effectcategory>audiopan</effectcategory>
										<effecttype>audiopan</effecttype>
										<mediatype>audio</mediatype>
										<parameter>
											<name>Pan</name>
											<parameterid>pan</parameterid>
											<valuemin>-1</valuemin>
											<valuemax>1</valuemax>
											<value>1</value>
										</parameter>
									</effect>
								</filter>
								<sourcetrack>
									<mediatype>audio</mediatype>
									<trackindex>2</trackindex>
								</sourcetrack>
								<link>
									<linkclipref>ArmA 3 2020.11.14 - 21.06.34.53.mp4805307676</linkclipref>
								</link>
								<link>
									<linkclipref>ArmA 3 2020.11.14 - 21.06.34.53.mp4536872221</linkclipref>
								</link>
								<link>
									<linkclipref>ArmA 3 2020.11.14 - 21.06.34.53.mp45368722211</linkclipref>
								</link>
								<link>
									<linkclipref>ArmA 3 2020.11.14 - 21.06.34.53.mp4536872222</linkclipref>
								</link>
								<link>
									<linkclipref>ArmA 3 2020.11.14 - 21.06.34.53.mp45368722221</linkclipref>
								</link>
							</clipitem>
							<clipitem id="ArmA 3 2020.11.14 - 21.07.39.54.mp45368722241">
								<name>ArmA 3 2020.11.14 - 21.07.39.54.mp4</name>
								<duration>2137</duration>
								<rate>
									<ntsc>TRUE</ntsc>
									<timebase>24</timebase>
								</rate>
								<in>0</in>
								<out>2137</out>
								<start>21438</start>
								<end>23575</end>
								<enabled>FALSE</enabled>
								<masterclipid>ArmA 3 2020.11.14 - 21.07.39.54.mp4</masterclipid>
								<logginginfo>
									<scene />
									<shottake />
									<lognote />
									<good>FALSE</good>
								</logginginfo>
								<labels>
									<label2 />
								</labels>
								<comments>
									<mastercomment1 />
									<mastercomment2 />
									<mastercomment3 />
									<mastercomment4 />
								</comments>
								<file id="ArmA 3 2020.11.14 - 21.07.39.54" />
								<filter>
									<effect>
										<name>Audio Levels</name>
										<effectid>audiolevels</effectid>
										<effectcategory>audiolevels</effectcategory>
										<effecttype>audiolevels</effecttype>
										<mediatype>audio</mediatype>
										<parameter>
											<name>Level</name>
											<parameterid>level</parameterid>
											<valuemin>0</valuemin>
											<valuemax>3,98109</valuemax>
											<value>1</value>
										</parameter>
									</effect>
								</filter>
								<filter>
									<effect>
										<name>Audio Pan</name>
										<effectid>audiopan</effectid>
										<effectcategory>audiopan</effectcategory>
										<effecttype>audiopan</effecttype>
										<mediatype>audio</mediatype>
										<parameter>
											<name>Pan</name>
											<parameterid>pan</parameterid>
											<valuemin>-1</valuemin>
											<valuemax>1</valuemax>
											<value>1</value>
										</parameter>
									</effect>
								</filter>
								<sourcetrack>
									<mediatype>audio</mediatype>
									<trackindex>2</trackindex>
								</sourcetrack>
								<link>
									<linkclipref>ArmA 3 2020.11.14 - 21.07.39.54.mp4805307679</linkclipref>
								</link>
								<link>
									<linkclipref>ArmA 3 2020.11.14 - 21.07.39.54.mp4536872224</linkclipref>
								</link>
								<link>
									<linkclipref>ArmA 3 2020.11.14 - 21.07.39.54.mp45368722241</linkclipref>
								</link>
								<link>
									<linkclipref>ArmA 3 2020.11.14 - 21.07.39.54.mp4536872225</linkclipref>
								</link>
								<link>
									<linkclipref>ArmA 3 2020.11.14 - 21.07.39.54.mp45368722251</linkclipref>
								</link>
							</clipitem>
							<clipitem id="ArmA 3 2020.11.14 - 21.12.09.55.mp45368722271">
								<name>ArmA 3 2020.11.14 - 21.12.09.55.mp4</name>
								<duration>4968</duration>
								<rate>
									<ntsc>TRUE</ntsc>
									<timebase>24</timebase>
								</rate>
								<in>0</in>
								<out>4968</out>
								<start>23576</start>
								<end>28544</end>
								<enabled>FALSE</enabled>
								<masterclipid>ArmA 3 2020.11.14 - 21.12.09.55.mp4</masterclipid>
								<logginginfo>
									<scene />
									<shottake />
									<lognote />
									<good>FALSE</good>
								</logginginfo>
								<labels>
									<label2 />
								</labels>
								<comments>
									<mastercomment1 />
									<mastercomment2 />
									<mastercomment3 />
									<mastercomment4 />
								</comments>
								<file id="ArmA 3 2020.11.14 - 21.12.09.55" />
								<filter>
									<effect>
										<name>Audio Levels</name>
										<effectid>audiolevels</effectid>
										<effectcategory>audiolevels</effectcategory>
										<effecttype>audiolevels</effecttype>
										<mediatype>audio</mediatype>
										<parameter>
											<name>Level</name>
											<parameterid>level</parameterid>
											<valuemin>0</valuemin>
											<valuemax>3,98109</valuemax>
											<value>1</value>
										</parameter>
									</effect>
								</filter>
								<filter>
									<effect>
										<name>Audio Pan</name>
										<effectid>audiopan</effectid>
										<effectcategory>audiopan</effectcategory>
										<effecttype>audiopan</effecttype>
										<mediatype>audio</mediatype>
										<parameter>
											<name>Pan</name>
											<parameterid>pan</parameterid>
											<valuemin>-1</valuemin>
											<valuemax>1</valuemax>
											<value>1</value>
										</parameter>
									</effect>
								</filter>
								<sourcetrack>
									<mediatype>audio</mediatype>
									<trackindex>2</trackindex>
								</sourcetrack>
								<link>
									<linkclipref>ArmA 3 2020.11.14 - 21.12.09.55.mp4805307682</linkclipref>
								</link>
								<link>
									<linkclipref>ArmA 3 2020.11.14 - 21.12.09.55.mp4536872227</linkclipref>
								</link>
								<link>
									<linkclipref>ArmA 3 2020.11.14 - 21.12.09.55.mp45368722271</linkclipref>
								</link>
								<link>
									<linkclipref>ArmA 3 2020.11.14 - 21.12.09.55.mp4536872228</linkclipref>
								</link>
								<link>
									<linkclipref>ArmA 3 2020.11.14 - 21.12.09.55.mp45368722281</linkclipref>
								</link>
							</clipitem>
							<clipitem id="ArmA 3 2020.11.14 - 21.17.09.56.mp45368722301">
								<name>ArmA 3 2020.11.14 - 21.17.09.56.mp4</name>
								<duration>2046</duration>
								<rate>
									<ntsc>TRUE</ntsc>
									<timebase>24</timebase>
								</rate>
								<in>0</in>
								<out>2046</out>
								<start>28545</start>
								<end>30591</end>
								<enabled>FALSE</enabled>
								<masterclipid>ArmA 3 2020.11.14 - 21.17.09.56.mp4</masterclipid>
								<logginginfo>
									<scene />
									<shottake />
									<lognote />
									<good>FALSE</good>
								</logginginfo>
								<labels>
									<label2 />
								</labels>
								<comments>
									<mastercomment1 />
									<mastercomment2 />
									<mastercomment3 />
									<mastercomment4 />
								</comments>
								<file id="ArmA 3 2020.11.14 - 21.17.09.56" />
								<filter>
									<effect>
										<name>Audio Levels</name>
										<effectid>audiolevels</effectid>
										<effectcategory>audiolevels</effectcategory>
										<effecttype>audiolevels</effecttype>
										<mediatype>audio</mediatype>
										<parameter>
											<name>Level</name>
											<parameterid>level</parameterid>
											<valuemin>0</valuemin>
											<valuemax>3,98109</valuemax>
											<value>1</value>
										</parameter>
									</effect>
								</filter>
								<filter>
									<effect>
										<name>Audio Pan</name>
										<effectid>audiopan</effectid>
										<effectcategory>audiopan</effectcategory>
										<effecttype>audiopan</effecttype>
										<mediatype>audio</mediatype>
										<parameter>
											<name>Pan</name>
											<parameterid>pan</parameterid>
											<valuemin>-1</valuemin>
											<valuemax>1</valuemax>
											<value>1</value>
										</parameter>
									</effect>
								</filter>
								<sourcetrack>
									<mediatype>audio</mediatype>
									<trackindex>2</trackindex>
								</sourcetrack>
								<link>
									<linkclipref>ArmA 3 2020.11.14 - 21.17.09.56.mp4805307685</linkclipref>
								</link>
								<link>
									<linkclipref>ArmA 3 2020.11.14 - 21.17.09.56.mp4536872230</linkclipref>
								</link>
								<link>
									<linkclipref>ArmA 3 2020.11.14 - 21.17.09.56.mp45368722301</linkclipref>
								</link>
								<link>
									<linkclipref>ArmA 3 2020.11.14 - 21.17.09.56.mp4536872231</linkclipref>
								</link>
								<link>
									<linkclipref>ArmA 3 2020.11.14 - 21.17.09.56.mp45368722311</linkclipref>
								</link>
							</clipitem>
							<clipitem id="ArmA 3 2020.11.14 - 21.18.42.57.mp45368722331">
								<name>ArmA 3 2020.11.14 - 21.18.42.57.mp4</name>
								<duration>648</duration>
								<rate>
									<ntsc>TRUE</ntsc>
									<timebase>24</timebase>
								</rate>
								<in>0</in>
								<out>648</out>
								<start>30592</start>
								<end>31240</end>
								<enabled>FALSE</enabled>
								<masterclipid>ArmA 3 2020.11.14 - 21.18.42.57.mp4</masterclipid>
								<logginginfo>
									<scene />
									<shottake />
									<lognote />
									<good>FALSE</good>
								</logginginfo>
								<labels>
									<label2 />
								</labels>
								<comments>
									<mastercomment1 />
									<mastercomment2 />
									<mastercomment3 />
									<mastercomment4 />
								</comments>
								<file id="ArmA 3 2020.11.14 - 21.18.42.57" />
								<filter>
									<effect>
										<name>Audio Levels</name>
										<effectid>audiolevels</effectid>
										<effectcategory>audiolevels</effectcategory>
										<effecttype>audiolevels</effecttype>
										<mediatype>audio</mediatype>
										<parameter>
											<name>Level</name>
											<parameterid>level</parameterid>
											<valuemin>0</valuemin>
											<valuemax>3,98109</valuemax>
											<value>1</value>
										</parameter>
									</effect>
								</filter>
								<filter>
									<effect>
										<name>Audio Pan</name>
										<effectid>audiopan</effectid>
										<effectcategory>audiopan</effectcategory>
										<effecttype>audiopan</effecttype>
										<mediatype>audio</mediatype>
										<parameter>
											<name>Pan</name>
											<parameterid>pan</parameterid>
											<valuemin>-1</valuemin>
											<valuemax>1</valuemax>
											<value>1</value>
										</parameter>
									</effect>
								</filter>
								<sourcetrack>
									<mediatype>audio</mediatype>
									<trackindex>2</trackindex>
								</sourcetrack>
								<link>
									<linkclipref>ArmA 3 2020.11.14 - 21.18.42.57.mp4805307688</linkclipref>
								</link>
								<link>
									<linkclipref>ArmA 3 2020.11.14 - 21.18.42.57.mp4536872233</linkclipref>
								</link>
								<link>
									<linkclipref>ArmA 3 2020.11.14 - 21.18.42.57.mp45368722331</linkclipref>
								</link>
								<link>
									<linkclipref>ArmA 3 2020.11.14 - 21.18.42.57.mp4536872234</linkclipref>
								</link>
								<link>
									<linkclipref>ArmA 3 2020.11.14 - 21.18.42.57.mp45368722341</linkclipref>
								</link>
							</clipitem>
							<clipitem id="ArmA 3 2020.11.14 - 21.19.27.58.mp45368722361">
								<name>ArmA 3 2020.11.14 - 21.19.27.58.mp4</name>
								<duration>600</duration>
								<rate>
									<ntsc>TRUE</ntsc>
									<timebase>24</timebase>
								</rate>
								<in>0</in>
								<out>600</out>
								<start>31241</start>
								<end>31841</end>
								<enabled>FALSE</enabled>
								<masterclipid>ArmA 3 2020.11.14 - 21.19.27.58.mp4</masterclipid>
								<logginginfo>
									<scene />
									<shottake />
									<lognote />
									<good>FALSE</good>
								</logginginfo>
								<labels>
									<label2 />
								</labels>
								<comments>
									<mastercomment1 />
									<mastercomment2 />
									<mastercomment3 />
									<mastercomment4 />
								</comments>
								<file id="ArmA 3 2020.11.14 - 21.19.27.58" />
								<filter>
									<effect>
										<name>Audio Levels</name>
										<effectid>audiolevels</effectid>
										<effectcategory>audiolevels</effectcategory>
										<effecttype>audiolevels</effecttype>
										<mediatype>audio</mediatype>
										<parameter>
											<name>Level</name>
											<parameterid>level</parameterid>
											<valuemin>0</valuemin>
											<valuemax>3,98109</valuemax>
											<value>1</value>
										</parameter>
									</effect>
								</filter>
								<filter>
									<effect>
										<name>Audio Pan</name>
										<effectid>audiopan</effectid>
										<effectcategory>audiopan</effectcategory>
										<effecttype>audiopan</effecttype>
										<mediatype>audio</mediatype>
										<parameter>
											<name>Pan</name>
											<parameterid>pan</parameterid>
											<valuemin>-1</valuemin>
											<valuemax>1</valuemax>
											<value>1</value>
										</parameter>
									</effect>
								</filter>
								<sourcetrack>
									<mediatype>audio</mediatype>
									<trackindex>2</trackindex>
								</sourcetrack>
								<link>
									<linkclipref>ArmA 3 2020.11.14 - 21.19.27.58.mp4805307691</linkclipref>
								</link>
								<link>
									<linkclipref>ArmA 3 2020.11.14 - 21.19.27.58.mp4536872236</linkclipref>
								</link>
								<link>
									<linkclipref>ArmA 3 2020.11.14 - 21.19.27.58.mp45368722361</linkclipref>
								</link>
								<link>
									<linkclipref>ArmA 3 2020.11.14 - 21.19.27.58.mp4536872237</linkclipref>
								</link>
								<link>
									<linkclipref>ArmA 3 2020.11.14 - 21.19.27.58.mp45368722371</linkclipref>
								</link>
							</clipitem>
							<clipitem id="ArmA 3 2020.11.14 - 21.21.59.59.mp45368722391">
								<name>ArmA 3 2020.11.14 - 21.21.59.59.mp4</name>
								<duration>2221</duration>
								<rate>
									<ntsc>TRUE</ntsc>
									<timebase>24</timebase>
								</rate>
								<in>0</in>
								<out>2221</out>
								<start>31842</start>
								<end>34063</end>
								<enabled>FALSE</enabled>
								<masterclipid>ArmA 3 2020.11.14 - 21.21.59.59.mp4</masterclipid>
								<logginginfo>
									<scene />
									<shottake />
									<lognote />
									<good>FALSE</good>
								</logginginfo>
								<labels>
									<label2 />
								</labels>
								<comments>
									<mastercomment1 />
									<mastercomment2 />
									<mastercomment3 />
									<mastercomment4 />
								</comments>
								<file id="ArmA 3 2020.11.14 - 21.21.59.59" />
								<filter>
									<effect>
										<name>Audio Levels</name>
										<effectid>audiolevels</effectid>
										<effectcategory>audiolevels</effectcategory>
										<effecttype>audiolevels</effecttype>
										<mediatype>audio</mediatype>
										<parameter>
											<name>Level</name>
											<parameterid>level</parameterid>
											<valuemin>0</valuemin>
											<valuemax>3,98109</valuemax>
											<value>1</value>
										</parameter>
									</effect>
								</filter>
								<filter>
									<effect>
										<name>Audio Pan</name>
										<effectid>audiopan</effectid>
										<effectcategory>audiopan</effectcategory>
										<effecttype>audiopan</effecttype>
										<mediatype>audio</mediatype>
										<parameter>
											<name>Pan</name>
											<parameterid>pan</parameterid>
											<valuemin>-1</valuemin>
											<valuemax>1</valuemax>
											<value>1</value>
										</parameter>
									</effect>
								</filter>
								<sourcetrack>
									<mediatype>audio</mediatype>
									<trackindex>2</trackindex>
								</sourcetrack>
								<link>
									<linkclipref>ArmA 3 2020.11.14 - 21.21.59.59.mp4805307694</linkclipref>
								</link>
								<link>
									<linkclipref>ArmA 3 2020.11.14 - 21.21.59.59.mp4536872239</linkclipref>
								</link>
								<link>
									<linkclipref>ArmA 3 2020.11.14 - 21.21.59.59.mp45368722391</linkclipref>
								</link>
								<link>
									<linkclipref>ArmA 3 2020.11.14 - 21.21.59.59.mp4536872240</linkclipref>
								</link>
								<link>
									<linkclipref>ArmA 3 2020.11.14 - 21.21.59.59.mp45368722401</linkclipref>
								</link>
							</clipitem>
							<clipitem id="ArmA 3 2020.11.14 - 21.24.02.60.mp45368722421">
								<name>ArmA 3 2020.11.14 - 21.24.02.60.mp4</name>
								<duration>905</duration>
								<rate>
									<ntsc>TRUE</ntsc>
									<timebase>24</timebase>
								</rate>
								<in>0</in>
								<out>905</out>
								<start>34064</start>
								<end>34969</end>
								<enabled>FALSE</enabled>
								<masterclipid>ArmA 3 2020.11.14 - 21.24.02.60.mp4</masterclipid>
								<logginginfo>
									<scene />
									<shottake />
									<lognote />
									<good>FALSE</good>
								</logginginfo>
								<labels>
									<label2 />
								</labels>
								<comments>
									<mastercomment1 />
									<mastercomment2 />
									<mastercomment3 />
									<mastercomment4 />
								</comments>
								<file id="ArmA 3 2020.11.14 - 21.24.02.60" />
								<filter>
									<effect>
										<name>Audio Levels</name>
										<effectid>audiolevels</effectid>
										<effectcategory>audiolevels</effectcategory>
										<effecttype>audiolevels</effecttype>
										<mediatype>audio</mediatype>
										<parameter>
											<name>Level</name>
											<parameterid>level</parameterid>
											<valuemin>0</valuemin>
											<valuemax>3,98109</valuemax>
											<value>1</value>
										</parameter>
									</effect>
								</filter>
								<filter>
									<effect>
										<name>Audio Pan</name>
										<effectid>audiopan</effectid>
										<effectcategory>audiopan</effectcategory>
										<effecttype>audiopan</effecttype>
										<mediatype>audio</mediatype>
										<parameter>
											<name>Pan</name>
											<parameterid>pan</parameterid>
											<valuemin>-1</valuemin>
											<valuemax>1</valuemax>
											<value>1</value>
										</parameter>
									</effect>
								</filter>
								<sourcetrack>
									<mediatype>audio</mediatype>
									<trackindex>2</trackindex>
								</sourcetrack>
								<link>
									<linkclipref>ArmA 3 2020.11.14 - 21.24.02.60.mp4805307697</linkclipref>
								</link>
								<link>
									<linkclipref>ArmA 3 2020.11.14 - 21.24.02.60.mp4536872242</linkclipref>
								</link>
								<link>
									<linkclipref>ArmA 3 2020.11.14 - 21.24.02.60.mp45368722421</linkclipref>
								</link>
								<link>
									<linkclipref>ArmA 3 2020.11.14 - 21.24.02.60.mp4536872243</linkclipref>
								</link>
								<link>
									<linkclipref>ArmA 3 2020.11.14 - 21.24.02.60.mp45368722431</linkclipref>
								</link>
							</clipitem>
							<clipitem id="ArmA 3 2020.11.14 - 21.25.23.61.mp45368722451">
								<name>ArmA 3 2020.11.14 - 21.25.23.61.mp4</name>
								<duration>1117</duration>
								<rate>
									<ntsc>TRUE</ntsc>
									<timebase>24</timebase>
								</rate>
								<in>0</in>
								<out>1117</out>
								<start>34970</start>
								<end>36087</end>
								<enabled>FALSE</enabled>
								<masterclipid>ArmA 3 2020.11.14 - 21.25.23.61.mp4</masterclipid>
								<logginginfo>
									<scene />
									<shottake />
									<lognote />
									<good>FALSE</good>
								</logginginfo>
								<labels>
									<label2 />
								</labels>
								<comments>
									<mastercomment1 />
									<mastercomment2 />
									<mastercomment3 />
									<mastercomment4 />
								</comments>
								<file id="ArmA 3 2020.11.14 - 21.25.23.61" />
								<filter>
									<effect>
										<name>Audio Levels</name>
										<effectid>audiolevels</effectid>
										<effectcategory>audiolevels</effectcategory>
										<effecttype>audiolevels</effecttype>
										<mediatype>audio</mediatype>
										<parameter>
											<name>Level</name>
											<parameterid>level</parameterid>
											<valuemin>0</valuemin>
											<valuemax>3,98109</valuemax>
											<value>1</value>
										</parameter>
									</effect>
								</filter>
								<filter>
									<effect>
										<name>Audio Pan</name>
										<effectid>audiopan</effectid>
										<effectcategory>audiopan</effectcategory>
										<effecttype>audiopan</effecttype>
										<mediatype>audio</mediatype>
										<parameter>
											<name>Pan</name>
											<parameterid>pan</parameterid>
											<valuemin>-1</valuemin>
											<valuemax>1</valuemax>
											<value>1</value>
										</parameter>
									</effect>
								</filter>
								<sourcetrack>
									<mediatype>audio</mediatype>
									<trackindex>2</trackindex>
								</sourcetrack>
								<link>
									<linkclipref>ArmA 3 2020.11.14 - 21.25.23.61.mp4805307700</linkclipref>
								</link>
								<link>
									<linkclipref>ArmA 3 2020.11.14 - 21.25.23.61.mp4536872245</linkclipref>
								</link>
								<link>
									<linkclipref>ArmA 3 2020.11.14 - 21.25.23.61.mp45368722451</linkclipref>
								</link>
								<link>
									<linkclipref>ArmA 3 2020.11.14 - 21.25.23.61.mp4536872246</linkclipref>
								</link>
								<link>
									<linkclipref>ArmA 3 2020.11.14 - 21.25.23.61.mp45368722461</linkclipref>
								</link>
							</clipitem>
							<clipitem id="ArmA 3 2020.11.14 - 21.26.46.62.mp45368722481">
								<name>ArmA 3 2020.11.14 - 21.26.46.62.mp4</name>
								<duration>1358</duration>
								<rate>
									<ntsc>TRUE</ntsc>
									<timebase>24</timebase>
								</rate>
								<in>0</in>
								<out>1358</out>
								<start>36088</start>
								<end>37446</end>
								<enabled>FALSE</enabled>
								<masterclipid>ArmA 3 2020.11.14 - 21.26.46.62.mp4</masterclipid>
								<logginginfo>
									<scene />
									<shottake />
									<lognote />
									<good>FALSE</good>
								</logginginfo>
								<labels>
									<label2 />
								</labels>
								<comments>
									<mastercomment1 />
									<mastercomment2 />
									<mastercomment3 />
									<mastercomment4 />
								</comments>
								<file id="ArmA 3 2020.11.14 - 21.26.46.62" />
								<filter>
									<effect>
										<name>Audio Levels</name>
										<effectid>audiolevels</effectid>
										<effectcategory>audiolevels</effectcategory>
										<effecttype>audiolevels</effecttype>
										<mediatype>audio</mediatype>
										<parameter>
											<name>Level</name>
											<parameterid>level</parameterid>
											<valuemin>0</valuemin>
											<valuemax>3,98109</valuemax>
											<value>1</value>
										</parameter>
									</effect>
								</filter>
								<filter>
									<effect>
										<name>Audio Pan</name>
										<effectid>audiopan</effectid>
										<effectcategory>audiopan</effectcategory>
										<effecttype>audiopan</effecttype>
										<mediatype>audio</mediatype>
										<parameter>
											<name>Pan</name>
											<parameterid>pan</parameterid>
											<valuemin>-1</valuemin>
											<valuemax>1</valuemax>
											<value>1</value>
										</parameter>
									</effect>
								</filter>
								<sourcetrack>
									<mediatype>audio</mediatype>
									<trackindex>2</trackindex>
								</sourcetrack>
								<link>
									<linkclipref>ArmA 3 2020.11.14 - 21.26.46.62.mp4805307703</linkclipref>
								</link>
								<link>
									<linkclipref>ArmA 3 2020.11.14 - 21.26.46.62.mp4536872248</linkclipref>
								</link>
								<link>
									<linkclipref>ArmA 3 2020.11.14 - 21.26.46.62.mp45368722481</linkclipref>
								</link>
								<link>
									<linkclipref>ArmA 3 2020.11.14 - 21.26.46.62.mp4536872249</linkclipref>
								</link>
								<link>
									<linkclipref>ArmA 3 2020.11.14 - 21.26.46.62.mp45368722491</linkclipref>
								</link>
							</clipitem>
							<clipitem id="ArmA 3 2020.11.14 - 21.28.34.63.mp45368722511">
								<name>ArmA 3 2020.11.14 - 21.28.34.63.mp4</name>
								<duration>1117</duration>
								<rate>
									<ntsc>TRUE</ntsc>
									<timebase>24</timebase>
								</rate>
								<in>0</in>
								<out>1117</out>
								<start>37447</start>
								<end>38564</end>
								<enabled>FALSE</enabled>
								<masterclipid>ArmA 3 2020.11.14 - 21.28.34.63.mp4</masterclipid>
								<logginginfo>
									<scene />
									<shottake />
									<lognote />
									<good>FALSE</good>
								</logginginfo>
								<labels>
									<label2 />
								</labels>
								<comments>
									<mastercomment1 />
									<mastercomment2 />
									<mastercomment3 />
									<mastercomment4 />
								</comments>
								<file id="ArmA 3 2020.11.14 - 21.28.34.63" />
								<filter>
									<effect>
										<name>Audio Levels</name>
										<effectid>audiolevels</effectid>
										<effectcategory>audiolevels</effectcategory>
										<effecttype>audiolevels</effecttype>
										<mediatype>audio</mediatype>
										<parameter>
											<name>Level</name>
											<parameterid>level</parameterid>
											<valuemin>0</valuemin>
											<valuemax>3,98109</valuemax>
											<value>1</value>
										</parameter>
									</effect>
								</filter>
								<filter>
									<effect>
										<name>Audio Pan</name>
										<effectid>audiopan</effectid>
										<effectcategory>audiopan</effectcategory>
										<effecttype>audiopan</effecttype>
										<mediatype>audio</mediatype>
										<parameter>
											<name>Pan</name>
											<parameterid>pan</parameterid>
											<valuemin>-1</valuemin>
											<valuemax>1</valuemax>
											<value>1</value>
										</parameter>
									</effect>
								</filter>
								<sourcetrack>
									<mediatype>audio</mediatype>
									<trackindex>2</trackindex>
								</sourcetrack>
								<link>
									<linkclipref>ArmA 3 2020.11.14 - 21.28.34.63.mp4805307706</linkclipref>
								</link>
								<link>
									<linkclipref>ArmA 3 2020.11.14 - 21.28.34.63.mp4536872251</linkclipref>
								</link>
								<link>
									<linkclipref>ArmA 3 2020.11.14 - 21.28.34.63.mp45368722511</linkclipref>
								</link>
								<link>
									<linkclipref>ArmA 3 2020.11.14 - 21.28.34.63.mp4536872252</linkclipref>
								</link>
								<link>
									<linkclipref>ArmA 3 2020.11.14 - 21.28.34.63.mp45368722521</linkclipref>
								</link>
							</clipitem>
							<clipitem id="ArmA 3 2020.11.14 - 21.29.57.64.mp45368722541">
								<name>ArmA 3 2020.11.14 - 21.29.57.64.mp4</name>
								<duration>3146</duration>
								<rate>
									<ntsc>TRUE</ntsc>
									<timebase>24</timebase>
								</rate>
								<in>0</in>
								<out>3146</out>
								<start>38565</start>
								<end>41711</end>
								<enabled>FALSE</enabled>
								<masterclipid>ArmA 3 2020.11.14 - 21.29.57.64.mp4</masterclipid>
								<logginginfo>
									<scene />
									<shottake />
									<lognote />
									<good>FALSE</good>
								</logginginfo>
								<labels>
									<label2 />
								</labels>
								<comments>
									<mastercomment1 />
									<mastercomment2 />
									<mastercomment3 />
									<mastercomment4 />
								</comments>
								<file id="ArmA 3 2020.11.14 - 21.29.57.64" />
								<filter>
									<effect>
										<name>Audio Levels</name>
										<effectid>audiolevels</effectid>
										<effectcategory>audiolevels</effectcategory>
										<effecttype>audiolevels</effecttype>
										<mediatype>audio</mediatype>
										<parameter>
											<name>Level</name>
											<parameterid>level</parameterid>
											<valuemin>0</valuemin>
											<valuemax>3,98109</valuemax>
											<value>1</value>
										</parameter>
									</effect>
								</filter>
								<filter>
									<effect>
										<name>Audio Pan</name>
										<effectid>audiopan</effectid>
										<effectcategory>audiopan</effectcategory>
										<effecttype>audiopan</effecttype>
										<mediatype>audio</mediatype>
										<parameter>
											<name>Pan</name>
											<parameterid>pan</parameterid>
											<valuemin>-1</valuemin>
											<valuemax>1</valuemax>
											<value>1</value>
										</parameter>
									</effect>
								</filter>
								<sourcetrack>
									<mediatype>audio</mediatype>
									<trackindex>2</trackindex>
								</sourcetrack>
								<link>
									<linkclipref>ArmA 3 2020.11.14 - 21.29.57.64.mp4805307709</linkclipref>
								</link>
								<link>
									<linkclipref>ArmA 3 2020.11.14 - 21.29.57.64.mp4536872254</linkclipref>
								</link>
								<link>
									<linkclipref>ArmA 3 2020.11.14 - 21.29.57.64.mp45368722541</linkclipref>
								</link>
								<link>
									<linkclipref>ArmA 3 2020.11.14 - 21.29.57.64.mp4536872255</linkclipref>
								</link>
								<link>
									<linkclipref>ArmA 3 2020.11.14 - 21.29.57.64.mp45368722551</linkclipref>
								</link>
							</clipitem>
							<clipitem id="ArmA 3 2020.11.14 - 21.32.55.65.mp45368722571">
								<name>ArmA 3 2020.11.14 - 21.32.55.65.mp4</name>
								<duration>662</duration>
								<rate>
									<ntsc>TRUE</ntsc>
									<timebase>24</timebase>
								</rate>
								<in>0</in>
								<out>662</out>
								<start>41712</start>
								<end>42374</end>
								<enabled>FALSE</enabled>
								<masterclipid>ArmA 3 2020.11.14 - 21.32.55.65.mp4</masterclipid>
								<logginginfo>
									<scene />
									<shottake />
									<lognote />
									<good>FALSE</good>
								</logginginfo>
								<labels>
									<label2 />
								</labels>
								<comments>
									<mastercomment1 />
									<mastercomment2 />
									<mastercomment3 />
									<mastercomment4 />
								</comments>
								<file id="ArmA 3 2020.11.14 - 21.32.55.65" />
								<filter>
									<effect>
										<name>Audio Levels</name>
										<effectid>audiolevels</effectid>
										<effectcategory>audiolevels</effectcategory>
										<effecttype>audiolevels</effecttype>
										<mediatype>audio</mediatype>
										<parameter>
											<name>Level</name>
											<parameterid>level</parameterid>
											<valuemin>0</valuemin>
											<valuemax>3,98109</valuemax>
											<value>1</value>
										</parameter>
									</effect>
								</filter>
								<filter>
									<effect>
										<name>Audio Pan</name>
										<effectid>audiopan</effectid>
										<effectcategory>audiopan</effectcategory>
										<effecttype>audiopan</effecttype>
										<mediatype>audio</mediatype>
										<parameter>
											<name>Pan</name>
											<parameterid>pan</parameterid>
											<valuemin>-1</valuemin>
											<valuemax>1</valuemax>
											<value>1</value>
										</parameter>
									</effect>
								</filter>
								<sourcetrack>
									<mediatype>audio</mediatype>
									<trackindex>2</trackindex>
								</sourcetrack>
								<link>
									<linkclipref>ArmA 3 2020.11.14 - 21.32.55.65.mp4805307712</linkclipref>
								</link>
								<link>
									<linkclipref>ArmA 3 2020.11.14 - 21.32.55.65.mp4536872257</linkclipref>
								</link>
								<link>
									<linkclipref>ArmA 3 2020.11.14 - 21.32.55.65.mp45368722571</linkclipref>
								</link>
								<link>
									<linkclipref>ArmA 3 2020.11.14 - 21.32.55.65.mp4536872258</linkclipref>
								</link>
								<link>
									<linkclipref>ArmA 3 2020.11.14 - 21.32.55.65.mp45368722581</linkclipref>
								</link>
							</clipitem>
							<clipitem id="ArmA 3 2020.11.14 - 21.33.51.66.mp45368722601">
								<name>ArmA 3 2020.11.14 - 21.33.51.66.mp4</name>
								<duration>1169</duration>
								<rate>
									<ntsc>TRUE</ntsc>
									<timebase>24</timebase>
								</rate>
								<in>0</in>
								<out>1169</out>
								<start>42375</start>
								<end>43544</end>
								<enabled>FALSE</enabled>
								<masterclipid>ArmA 3 2020.11.14 - 21.33.51.66.mp4</masterclipid>
								<logginginfo>
									<scene />
									<shottake />
									<lognote />
									<good>FALSE</good>
								</logginginfo>
								<labels>
									<label2 />
								</labels>
								<comments>
									<mastercomment1 />
									<mastercomment2 />
									<mastercomment3 />
									<mastercomment4 />
								</comments>
								<file id="ArmA 3 2020.11.14 - 21.33.51.66" />
								<filter>
									<effect>
										<name>Audio Levels</name>
										<effectid>audiolevels</effectid>
										<effectcategory>audiolevels</effectcategory>
										<effecttype>audiolevels</effecttype>
										<mediatype>audio</mediatype>
										<parameter>
											<name>Level</name>
											<parameterid>level</parameterid>
											<valuemin>0</valuemin>
											<valuemax>3,98109</valuemax>
											<value>1</value>
										</parameter>
									</effect>
								</filter>
								<filter>
									<effect>
										<name>Audio Pan</name>
										<effectid>audiopan</effectid>
										<effectcategory>audiopan</effectcategory>
										<effecttype>audiopan</effecttype>
										<mediatype>audio</mediatype>
										<parameter>
											<name>Pan</name>
											<parameterid>pan</parameterid>
											<valuemin>-1</valuemin>
											<valuemax>1</valuemax>
											<value>1</value>
										</parameter>
									</effect>
								</filter>
								<sourcetrack>
									<mediatype>audio</mediatype>
									<trackindex>2</trackindex>
								</sourcetrack>
								<link>
									<linkclipref>ArmA 3 2020.11.14 - 21.33.51.66.mp4805307715</linkclipref>
								</link>
								<link>
									<linkclipref>ArmA 3 2020.11.14 - 21.33.51.66.mp4536872260</linkclipref>
								</link>
								<link>
									<linkclipref>ArmA 3 2020.11.14 - 21.33.51.66.mp45368722601</linkclipref>
								</link>
								<link>
									<linkclipref>ArmA 3 2020.11.14 - 21.33.51.66.mp4536872261</linkclipref>
								</link>
								<link>
									<linkclipref>ArmA 3 2020.11.14 - 21.33.51.66.mp45368722611</linkclipref>
								</link>
							</clipitem>
							<clipitem id="ArmA 3 2020.11.14 - 21.34.50.67.mp45368722631">
								<name>ArmA 3 2020.11.14 - 21.34.50.67.mp4</name>
								<duration>711</duration>
								<rate>
									<ntsc>TRUE</ntsc>
									<timebase>24</timebase>
								</rate>
								<in>0</in>
								<out>711</out>
								<start>43545</start>
								<end>44256</end>
								<enabled>FALSE</enabled>
								<masterclipid>ArmA 3 2020.11.14 - 21.34.50.67.mp4</masterclipid>
								<logginginfo>
									<scene />
									<shottake />
									<lognote />
									<good>FALSE</good>
								</logginginfo>
								<labels>
									<label2 />
								</labels>
								<comments>
									<mastercomment1 />
									<mastercomment2 />
									<mastercomment3 />
									<mastercomment4 />
								</comments>
								<file id="ArmA 3 2020.11.14 - 21.34.50.67" />
								<filter>
									<effect>
										<name>Audio Levels</name>
										<effectid>audiolevels</effectid>
										<effectcategory>audiolevels</effectcategory>
										<effecttype>audiolevels</effecttype>
										<mediatype>audio</mediatype>
										<parameter>
											<name>Level</name>
											<parameterid>level</parameterid>
											<valuemin>0</valuemin>
											<valuemax>3,98109</valuemax>
											<value>1</value>
										</parameter>
									</effect>
								</filter>
								<filter>
									<effect>
										<name>Audio Pan</name>
										<effectid>audiopan</effectid>
										<effectcategory>audiopan</effectcategory>
										<effecttype>audiopan</effecttype>
										<mediatype>audio</mediatype>
										<parameter>
											<name>Pan</name>
											<parameterid>pan</parameterid>
											<valuemin>-1</valuemin>
											<valuemax>1</valuemax>
											<value>1</value>
										</parameter>
									</effect>
								</filter>
								<sourcetrack>
									<mediatype>audio</mediatype>
									<trackindex>2</trackindex>
								</sourcetrack>
								<link>
									<linkclipref>ArmA 3 2020.11.14 - 21.34.50.67.mp4805307718</linkclipref>
								</link>
								<link>
									<linkclipref>ArmA 3 2020.11.14 - 21.34.50.67.mp4536872263</linkclipref>
								</link>
								<link>
									<linkclipref>ArmA 3 2020.11.14 - 21.34.50.67.mp45368722631</linkclipref>
								</link>
								<link>
									<linkclipref>ArmA 3 2020.11.14 - 21.34.50.67.mp4536872264</linkclipref>
								</link>
								<link>
									<linkclipref>ArmA 3 2020.11.14 - 21.34.50.67.mp45368722641</linkclipref>
								</link>
							</clipitem>
							<clipitem id="ArmA 3 2020.11.14 - 21.36.53.68.mp45368722661">
								<name>ArmA 3 2020.11.14 - 21.36.53.68.mp4</name>
								<duration>209</duration>
								<rate>
									<ntsc>TRUE</ntsc>
									<timebase>24</timebase>
								</rate>
								<in>0</in>
								<out>209</out>
								<start>44257</start>
								<end>44466</end>
								<enabled>FALSE</enabled>
								<masterclipid>ArmA 3 2020.11.14 - 21.36.53.68.mp4</masterclipid>
								<logginginfo>
									<scene />
									<shottake />
									<lognote />
									<good>FALSE</good>
								</logginginfo>
								<labels>
									<label2 />
								</labels>
								<comments>
									<mastercomment1 />
									<mastercomment2 />
									<mastercomment3 />
									<mastercomment4 />
								</comments>
								<file id="ArmA 3 2020.11.14 - 21.36.53.68" />
								<filter>
									<effect>
										<name>Audio Levels</name>
										<effectid>audiolevels</effectid>
										<effectcategory>audiolevels</effectcategory>
										<effecttype>audiolevels</effecttype>
										<mediatype>audio</mediatype>
										<parameter>
											<name>Level</name>
											<parameterid>level</parameterid>
											<valuemin>0</valuemin>
											<valuemax>3,98109</valuemax>
											<value>1</value>
										</parameter>
									</effect>
								</filter>
								<filter>
									<effect>
										<name>Audio Pan</name>
										<effectid>audiopan</effectid>
										<effectcategory>audiopan</effectcategory>
										<effecttype>audiopan</effecttype>
										<mediatype>audio</mediatype>
										<parameter>
											<name>Pan</name>
											<parameterid>pan</parameterid>
											<valuemin>-1</valuemin>
											<valuemax>1</valuemax>
											<value>1</value>
										</parameter>
									</effect>
								</filter>
								<sourcetrack>
									<mediatype>audio</mediatype>
									<trackindex>2</trackindex>
								</sourcetrack>
								<link>
									<linkclipref>ArmA 3 2020.11.14 - 21.36.53.68.mp4805307721</linkclipref>
								</link>
								<link>
									<linkclipref>ArmA 3 2020.11.14 - 21.36.53.68.mp4536872266</linkclipref>
								</link>
								<link>
									<linkclipref>ArmA 3 2020.11.14 - 21.36.53.68.mp45368722661</linkclipref>
								</link>
								<link>
									<linkclipref>ArmA 3 2020.11.14 - 21.36.53.68.mp4536872267</linkclipref>
								</link>
								<link>
									<linkclipref>ArmA 3 2020.11.14 - 21.36.53.68.mp45368722671</linkclipref>
								</link>
							</clipitem>
							<clipitem id="ArmA 3 2020.11.14 - 21.37.06.69.mp45368722691">
								<name>ArmA 3 2020.11.14 - 21.37.06.69.mp4</name>
								<duration>242</duration>
								<rate>
									<ntsc>TRUE</ntsc>
									<timebase>24</timebase>
								</rate>
								<in>0</in>
								<out>242</out>
								<start>44467</start>
								<end>44709</end>
								<enabled>FALSE</enabled>
								<masterclipid>ArmA 3 2020.11.14 - 21.37.06.69.mp4</masterclipid>
								<logginginfo>
									<scene />
									<shottake />
									<lognote />
									<good>FALSE</good>
								</logginginfo>
								<labels>
									<label2 />
								</labels>
								<comments>
									<mastercomment1 />
									<mastercomment2 />
									<mastercomment3 />
									<mastercomment4 />
								</comments>
								<file id="ArmA 3 2020.11.14 - 21.37.06.69" />
								<filter>
									<effect>
										<name>Audio Levels</name>
										<effectid>audiolevels</effectid>
										<effectcategory>audiolevels</effectcategory>
										<effecttype>audiolevels</effecttype>
										<mediatype>audio</mediatype>
										<parameter>
											<name>Level</name>
											<parameterid>level</parameterid>
											<valuemin>0</valuemin>
											<valuemax>3,98109</valuemax>
											<value>1</value>
										</parameter>
									</effect>
								</filter>
								<filter>
									<effect>
										<name>Audio Pan</name>
										<effectid>audiopan</effectid>
										<effectcategory>audiopan</effectcategory>
										<effecttype>audiopan</effecttype>
										<mediatype>audio</mediatype>
										<parameter>
											<name>Pan</name>
											<parameterid>pan</parameterid>
											<valuemin>-1</valuemin>
											<valuemax>1</valuemax>
											<value>1</value>
										</parameter>
									</effect>
								</filter>
								<sourcetrack>
									<mediatype>audio</mediatype>
									<trackindex>2</trackindex>
								</sourcetrack>
								<link>
									<linkclipref>ArmA 3 2020.11.14 - 21.37.06.69.mp4805307724</linkclipref>
								</link>
								<link>
									<linkclipref>ArmA 3 2020.11.14 - 21.37.06.69.mp4536872269</linkclipref>
								</link>
								<link>
									<linkclipref>ArmA 3 2020.11.14 - 21.37.06.69.mp45368722691</linkclipref>
								</link>
								<link>
									<linkclipref>ArmA 3 2020.11.14 - 21.37.06.69.mp4536872270</linkclipref>
								</link>
								<link>
									<linkclipref>ArmA 3 2020.11.14 - 21.37.06.69.mp45368722701</linkclipref>
								</link>
							</clipitem>
							<clipitem id="ArmA 3 2020.11.14 - 21.37.32.70.mp45368722721">
								<name>ArmA 3 2020.11.14 - 21.37.32.70.mp4</name>
								<duration>816</duration>
								<rate>
									<ntsc>TRUE</ntsc>
									<timebase>24</timebase>
								</rate>
								<in>0</in>
								<out>816</out>
								<start>44710</start>
								<end>45526</end>
								<enabled>FALSE</enabled>
								<masterclipid>ArmA 3 2020.11.14 - 21.37.32.70.mp4</masterclipid>
								<logginginfo>
									<scene />
									<shottake />
									<lognote />
									<good>FALSE</good>
								</logginginfo>
								<labels>
									<label2 />
								</labels>
								<comments>
									<mastercomment1 />
									<mastercomment2 />
									<mastercomment3 />
									<mastercomment4 />
								</comments>
								<file id="ArmA 3 2020.11.14 - 21.37.32.70" />
								<filter>
									<effect>
										<name>Audio Levels</name>
										<effectid>audiolevels</effectid>
										<effectcategory>audiolevels</effectcategory>
										<effecttype>audiolevels</effecttype>
										<mediatype>audio</mediatype>
										<parameter>
											<name>Level</name>
											<parameterid>level</parameterid>
											<valuemin>0</valuemin>
											<valuemax>3,98109</valuemax>
											<value>1</value>
										</parameter>
									</effect>
								</filter>
								<filter>
									<effect>
										<name>Audio Pan</name>
										<effectid>audiopan</effectid>
										<effectcategory>audiopan</effectcategory>
										<effecttype>audiopan</effecttype>
										<mediatype>audio</mediatype>
										<parameter>
											<name>Pan</name>
											<parameterid>pan</parameterid>
											<valuemin>-1</valuemin>
											<valuemax>1</valuemax>
											<value>1</value>
										</parameter>
									</effect>
								</filter>
								<sourcetrack>
									<mediatype>audio</mediatype>
									<trackindex>2</trackindex>
								</sourcetrack>
								<link>
									<linkclipref>ArmA 3 2020.11.14 - 21.37.32.70.mp4805307727</linkclipref>
								</link>
								<link>
									<linkclipref>ArmA 3 2020.11.14 - 21.37.32.70.mp4536872272</linkclipref>
								</link>
								<link>
									<linkclipref>ArmA 3 2020.11.14 - 21.37.32.70.mp45368722721</linkclipref>
								</link>
								<link>
									<linkclipref>ArmA 3 2020.11.14 - 21.37.32.70.mp4536872273</linkclipref>
								</link>
								<link>
									<linkclipref>ArmA 3 2020.11.14 - 21.37.32.70.mp45368722731</linkclipref>
								</link>
							</clipitem>
							<clipitem id="ArmA 3 2020.11.14 - 21.38.41.71.mp45368722751">
								<name>ArmA 3 2020.11.14 - 21.38.41.71.mp4</name>
								<duration>191</duration>
								<rate>
									<ntsc>TRUE</ntsc>
									<timebase>24</timebase>
								</rate>
								<in>0</in>
								<out>191</out>
								<start>45527</start>
								<end>45718</end>
								<enabled>FALSE</enabled>
								<masterclipid>ArmA 3 2020.11.14 - 21.38.41.71.mp4</masterclipid>
								<logginginfo>
									<scene />
									<shottake />
									<lognote />
									<good>FALSE</good>
								</logginginfo>
								<labels>
									<label2 />
								</labels>
								<comments>
									<mastercomment1 />
									<mastercomment2 />
									<mastercomment3 />
									<mastercomment4 />
								</comments>
								<file id="ArmA 3 2020.11.14 - 21.38.41.71" />
								<filter>
									<effect>
										<name>Audio Levels</name>
										<effectid>audiolevels</effectid>
										<effectcategory>audiolevels</effectcategory>
										<effecttype>audiolevels</effecttype>
										<mediatype>audio</mediatype>
										<parameter>
											<name>Level</name>
											<parameterid>level</parameterid>
											<valuemin>0</valuemin>
											<valuemax>3,98109</valuemax>
											<value>1</value>
										</parameter>
									</effect>
								</filter>
								<filter>
									<effect>
										<name>Audio Pan</name>
										<effectid>audiopan</effectid>
										<effectcategory>audiopan</effectcategory>
										<effecttype>audiopan</effecttype>
										<mediatype>audio</mediatype>
										<parameter>
											<name>Pan</name>
											<parameterid>pan</parameterid>
											<valuemin>-1</valuemin>
											<valuemax>1</valuemax>
											<value>1</value>
										</parameter>
									</effect>
								</filter>
								<sourcetrack>
									<mediatype>audio</mediatype>
									<trackindex>2</trackindex>
								</sourcetrack>
								<link>
									<linkclipref>ArmA 3 2020.11.14 - 21.38.41.71.mp4805307730</linkclipref>
								</link>
								<link>
									<linkclipref>ArmA 3 2020.11.14 - 21.38.41.71.mp4536872275</linkclipref>
								</link>
								<link>
									<linkclipref>ArmA 3 2020.11.14 - 21.38.41.71.mp45368722751</linkclipref>
								</link>
								<link>
									<linkclipref>ArmA 3 2020.11.14 - 21.38.41.71.mp4536872276</linkclipref>
								</link>
								<link>
									<linkclipref>ArmA 3 2020.11.14 - 21.38.41.71.mp45368722761</linkclipref>
								</link>
							</clipitem>
							<clipitem id="ArmA 3 2020.11.14 - 21.38.56.72.mp45368722781">
								<name>ArmA 3 2020.11.14 - 21.38.56.72.mp4</name>
								<duration>110</duration>
								<rate>
									<ntsc>TRUE</ntsc>
									<timebase>24</timebase>
								</rate>
								<in>0</in>
								<out>110</out>
								<start>45719</start>
								<end>45829</end>
								<enabled>FALSE</enabled>
								<masterclipid>ArmA 3 2020.11.14 - 21.38.56.72.mp4</masterclipid>
								<logginginfo>
									<scene />
									<shottake />
									<lognote />
									<good>FALSE</good>
								</logginginfo>
								<labels>
									<label2 />
								</labels>
								<comments>
									<mastercomment1 />
									<mastercomment2 />
									<mastercomment3 />
									<mastercomment4 />
								</comments>
								<file id="ArmA 3 2020.11.14 - 21.38.56.72" />
								<filter>
									<effect>
										<name>Audio Levels</name>
										<effectid>audiolevels</effectid>
										<effectcategory>audiolevels</effectcategory>
										<effecttype>audiolevels</effecttype>
										<mediatype>audio</mediatype>
										<parameter>
											<name>Level</name>
											<parameterid>level</parameterid>
											<valuemin>0</valuemin>
											<valuemax>3,98109</valuemax>
											<value>1</value>
										</parameter>
									</effect>
								</filter>
								<filter>
									<effect>
										<name>Audio Pan</name>
										<effectid>audiopan</effectid>
										<effectcategory>audiopan</effectcategory>
										<effecttype>audiopan</effecttype>
										<mediatype>audio</mediatype>
										<parameter>
											<name>Pan</name>
											<parameterid>pan</parameterid>
											<valuemin>-1</valuemin>
											<valuemax>1</valuemax>
											<value>1</value>
										</parameter>
									</effect>
								</filter>
								<sourcetrack>
									<mediatype>audio</mediatype>
									<trackindex>2</trackindex>
								</sourcetrack>
								<link>
									<linkclipref>ArmA 3 2020.11.14 - 21.38.56.72.mp4805307733</linkclipref>
								</link>
								<link>
									<linkclipref>ArmA 3 2020.11.14 - 21.38.56.72.mp4536872278</linkclipref>
								</link>
								<link>
									<linkclipref>ArmA 3 2020.11.14 - 21.38.56.72.mp45368722781</linkclipref>
								</link>
								<link>
									<linkclipref>ArmA 3 2020.11.14 - 21.38.56.72.mp4536872279</linkclipref>
								</link>
								<link>
									<linkclipref>ArmA 3 2020.11.14 - 21.38.56.72.mp45368722791</linkclipref>
								</link>
							</clipitem>
							<clipitem id="ArmA 3 2020.11.14 - 21.43.48.73.mp45368722811">
								<name>ArmA 3 2020.11.14 - 21.43.48.73.mp4</name>
								<duration>955</duration>
								<rate>
									<ntsc>TRUE</ntsc>
									<timebase>24</timebase>
								</rate>
								<in>0</in>
								<out>955</out>
								<start>45830</start>
								<end>46785</end>
								<enabled>FALSE</enabled>
								<masterclipid>ArmA 3 2020.11.14 - 21.43.48.73.mp4</masterclipid>
								<logginginfo>
									<scene />
									<shottake />
									<lognote />
									<good>FALSE</good>
								</logginginfo>
								<labels>
									<label2 />
								</labels>
								<comments>
									<mastercomment1 />
									<mastercomment2 />
									<mastercomment3 />
									<mastercomment4 />
								</comments>
								<file id="ArmA 3 2020.11.14 - 21.43.48.73" />
								<filter>
									<effect>
										<name>Audio Levels</name>
										<effectid>audiolevels</effectid>
										<effectcategory>audiolevels</effectcategory>
										<effecttype>audiolevels</effecttype>
										<mediatype>audio</mediatype>
										<parameter>
											<name>Level</name>
											<parameterid>level</parameterid>
											<valuemin>0</valuemin>
											<valuemax>3,98109</valuemax>
											<value>1</value>
										</parameter>
									</effect>
								</filter>
								<filter>
									<effect>
										<name>Audio Pan</name>
										<effectid>audiopan</effectid>
										<effectcategory>audiopan</effectcategory>
										<effecttype>audiopan</effecttype>
										<mediatype>audio</mediatype>
										<parameter>
											<name>Pan</name>
											<parameterid>pan</parameterid>
											<valuemin>-1</valuemin>
											<valuemax>1</valuemax>
											<value>1</value>
										</parameter>
									</effect>
								</filter>
								<sourcetrack>
									<mediatype>audio</mediatype>
									<trackindex>2</trackindex>
								</sourcetrack>
								<link>
									<linkclipref>ArmA 3 2020.11.14 - 21.43.48.73.mp4805307736</linkclipref>
								</link>
								<link>
									<linkclipref>ArmA 3 2020.11.14 - 21.43.48.73.mp4536872281</linkclipref>
								</link>
								<link>
									<linkclipref>ArmA 3 2020.11.14 - 21.43.48.73.mp45368722811</linkclipref>
								</link>
								<link>
									<linkclipref>ArmA 3 2020.11.14 - 21.43.48.73.mp4536872282</linkclipref>
								</link>
								<link>
									<linkclipref>ArmA 3 2020.11.14 - 21.43.48.73.mp45368722821</linkclipref>
								</link>
							</clipitem>
							<clipitem id="ArmA 3 2020.11.14 - 21.48.32.74.mp45368722841">
								<name>ArmA 3 2020.11.14 - 21.48.32.74.mp4</name>
								<duration>614</duration>
								<rate>
									<ntsc>TRUE</ntsc>
									<timebase>24</timebase>
								</rate>
								<in>0</in>
								<out>614</out>
								<start>46786</start>
								<end>47400</end>
								<enabled>FALSE</enabled>
								<masterclipid>ArmA 3 2020.11.14 - 21.48.32.74.mp4</masterclipid>
								<logginginfo>
									<scene />
									<shottake />
									<lognote />
									<good>FALSE</good>
								</logginginfo>
								<labels>
									<label2 />
								</labels>
								<comments>
									<mastercomment1 />
									<mastercomment2 />
									<mastercomment3 />
									<mastercomment4 />
								</comments>
								<file id="ArmA 3 2020.11.14 - 21.48.32.74" />
								<filter>
									<effect>
										<name>Audio Levels</name>
										<effectid>audiolevels</effectid>
										<effectcategory>audiolevels</effectcategory>
										<effecttype>audiolevels</effecttype>
										<mediatype>audio</mediatype>
										<parameter>
											<name>Level</name>
											<parameterid>level</parameterid>
											<valuemin>0</valuemin>
											<valuemax>3,98109</valuemax>
											<value>1</value>
										</parameter>
									</effect>
								</filter>
								<filter>
									<effect>
										<name>Audio Pan</name>
										<effectid>audiopan</effectid>
										<effectcategory>audiopan</effectcategory>
										<effecttype>audiopan</effecttype>
										<mediatype>audio</mediatype>
										<parameter>
											<name>Pan</name>
											<parameterid>pan</parameterid>
											<valuemin>-1</valuemin>
											<valuemax>1</valuemax>
											<value>1</value>
										</parameter>
									</effect>
								</filter>
								<sourcetrack>
									<mediatype>audio</mediatype>
									<trackindex>2</trackindex>
								</sourcetrack>
								<link>
									<linkclipref>ArmA 3 2020.11.14 - 21.48.32.74.mp4805307739</linkclipref>
								</link>
								<link>
									<linkclipref>ArmA 3 2020.11.14 - 21.48.32.74.mp4536872284</linkclipref>
								</link>
								<link>
									<linkclipref>ArmA 3 2020.11.14 - 21.48.32.74.mp45368722841</linkclipref>
								</link>
								<link>
									<linkclipref>ArmA 3 2020.11.14 - 21.48.32.74.mp4536872285</linkclipref>
								</link>
								<link>
									<linkclipref>ArmA 3 2020.11.14 - 21.48.32.74.mp45368722851</linkclipref>
								</link>
							</clipitem>
							<clipitem id="ArmA 3 2020.11.14 - 21.51.33.75.mp45368722871">
								<name>ArmA 3 2020.11.14 - 21.51.33.75.mp4</name>
								<duration>821</duration>
								<rate>
									<ntsc>TRUE</ntsc>
									<timebase>24</timebase>
								</rate>
								<in>0</in>
								<out>821</out>
								<start>47401</start>
								<end>48222</end>
								<enabled>FALSE</enabled>
								<masterclipid>ArmA 3 2020.11.14 - 21.51.33.75.mp4</masterclipid>
								<logginginfo>
									<scene />
									<shottake />
									<lognote />
									<good>FALSE</good>
								</logginginfo>
								<labels>
									<label2 />
								</labels>
								<comments>
									<mastercomment1 />
									<mastercomment2 />
									<mastercomment3 />
									<mastercomment4 />
								</comments>
								<file id="ArmA 3 2020.11.14 - 21.51.33.75" />
								<filter>
									<effect>
										<name>Audio Levels</name>
										<effectid>audiolevels</effectid>
										<effectcategory>audiolevels</effectcategory>
										<effecttype>audiolevels</effecttype>
										<mediatype>audio</mediatype>
										<parameter>
											<name>Level</name>
											<parameterid>level</parameterid>
											<valuemin>0</valuemin>
											<valuemax>3,98109</valuemax>
											<value>1</value>
										</parameter>
									</effect>
								</filter>
								<filter>
									<effect>
										<name>Audio Pan</name>
										<effectid>audiopan</effectid>
										<effectcategory>audiopan</effectcategory>
										<effecttype>audiopan</effecttype>
										<mediatype>audio</mediatype>
										<parameter>
											<name>Pan</name>
											<parameterid>pan</parameterid>
											<valuemin>-1</valuemin>
											<valuemax>1</valuemax>
											<value>1</value>
										</parameter>
									</effect>
								</filter>
								<sourcetrack>
									<mediatype>audio</mediatype>
									<trackindex>2</trackindex>
								</sourcetrack>
								<link>
									<linkclipref>ArmA 3 2020.11.14 - 21.51.33.75.mp4805307742</linkclipref>
								</link>
								<link>
									<linkclipref>ArmA 3 2020.11.14 - 21.51.33.75.mp4536872287</linkclipref>
								</link>
								<link>
									<linkclipref>ArmA 3 2020.11.14 - 21.51.33.75.mp45368722871</linkclipref>
								</link>
								<link>
									<linkclipref>ArmA 3 2020.11.14 - 21.51.33.75.mp4536872288</linkclipref>
								</link>
								<link>
									<linkclipref>ArmA 3 2020.11.14 - 21.51.33.75.mp45368722881</linkclipref>
								</link>
							</clipitem>
							<clipitem id="ArmA 3 2020.11.14 - 21.52.58.76.mp45368722901">
								<name>ArmA 3 2020.11.14 - 21.52.58.76.mp4</name>
								<duration>836</duration>
								<rate>
									<ntsc>TRUE</ntsc>
									<timebase>24</timebase>
								</rate>
								<in>0</in>
								<out>836</out>
								<start>48223</start>
								<end>49059</end>
								<enabled>FALSE</enabled>
								<masterclipid>ArmA 3 2020.11.14 - 21.52.58.76.mp4</masterclipid>
								<logginginfo>
									<scene />
									<shottake />
									<lognote />
									<good>FALSE</good>
								</logginginfo>
								<labels>
									<label2 />
								</labels>
								<comments>
									<mastercomment1 />
									<mastercomment2 />
									<mastercomment3 />
									<mastercomment4 />
								</comments>
								<file id="ArmA 3 2020.11.14 - 21.52.58.76" />
								<filter>
									<effect>
										<name>Audio Levels</name>
										<effectid>audiolevels</effectid>
										<effectcategory>audiolevels</effectcategory>
										<effecttype>audiolevels</effecttype>
										<mediatype>audio</mediatype>
										<parameter>
											<name>Level</name>
											<parameterid>level</parameterid>
											<valuemin>0</valuemin>
											<valuemax>3,98109</valuemax>
											<value>1</value>
										</parameter>
									</effect>
								</filter>
								<filter>
									<effect>
										<name>Audio Pan</name>
										<effectid>audiopan</effectid>
										<effectcategory>audiopan</effectcategory>
										<effecttype>audiopan</effecttype>
										<mediatype>audio</mediatype>
										<parameter>
											<name>Pan</name>
											<parameterid>pan</parameterid>
											<valuemin>-1</valuemin>
											<valuemax>1</valuemax>
											<value>1</value>
										</parameter>
									</effect>
								</filter>
								<sourcetrack>
									<mediatype>audio</mediatype>
									<trackindex>2</trackindex>
								</sourcetrack>
								<link>
									<linkclipref>ArmA 3 2020.11.14 - 21.52.58.76.mp4805307745</linkclipref>
								</link>
								<link>
									<linkclipref>ArmA 3 2020.11.14 - 21.52.58.76.mp4536872290</linkclipref>
								</link>
								<link>
									<linkclipref>ArmA 3 2020.11.14 - 21.52.58.76.mp45368722901</linkclipref>
								</link>
								<link>
									<linkclipref>ArmA 3 2020.11.14 - 21.52.58.76.mp4536872291</linkclipref>
								</link>
								<link>
									<linkclipref>ArmA 3 2020.11.14 - 21.52.58.76.mp45368722911</linkclipref>
								</link>
							</clipitem>
							<clipitem id="ArmA 3 2020.11.14 - 21.54.08.77.mp45368722931">
								<name>ArmA 3 2020.11.14 - 21.54.08.77.mp4</name>
								<duration>1393</duration>
								<rate>
									<ntsc>TRUE</ntsc>
									<timebase>24</timebase>
								</rate>
								<in>0</in>
								<out>1393</out>
								<start>49060</start>
								<end>50453</end>
								<enabled>FALSE</enabled>
								<masterclipid>ArmA 3 2020.11.14 - 21.54.08.77.mp4</masterclipid>
								<logginginfo>
									<scene />
									<shottake />
									<lognote />
									<good>FALSE</good>
								</logginginfo>
								<labels>
									<label2 />
								</labels>
								<comments>
									<mastercomment1 />
									<mastercomment2 />
									<mastercomment3 />
									<mastercomment4 />
								</comments>
								<file id="ArmA 3 2020.11.14 - 21.54.08.77" />
								<filter>
									<effect>
										<name>Audio Levels</name>
										<effectid>audiolevels</effectid>
										<effectcategory>audiolevels</effectcategory>
										<effecttype>audiolevels</effecttype>
										<mediatype>audio</mediatype>
										<parameter>
											<name>Level</name>
											<parameterid>level</parameterid>
											<valuemin>0</valuemin>
											<valuemax>3,98109</valuemax>
											<value>1</value>
										</parameter>
									</effect>
								</filter>
								<filter>
									<effect>
										<name>Audio Pan</name>
										<effectid>audiopan</effectid>
										<effectcategory>audiopan</effectcategory>
										<effecttype>audiopan</effecttype>
										<mediatype>audio</mediatype>
										<parameter>
											<name>Pan</name>
											<parameterid>pan</parameterid>
											<valuemin>-1</valuemin>
											<valuemax>1</valuemax>
											<value>1</value>
										</parameter>
									</effect>
								</filter>
								<sourcetrack>
									<mediatype>audio</mediatype>
									<trackindex>2</trackindex>
								</sourcetrack>
								<link>
									<linkclipref>ArmA 3 2020.11.14 - 21.54.08.77.mp4805307748</linkclipref>
								</link>
								<link>
									<linkclipref>ArmA 3 2020.11.14 - 21.54.08.77.mp4536872293</linkclipref>
								</link>
								<link>
									<linkclipref>ArmA 3 2020.11.14 - 21.54.08.77.mp45368722931</linkclipref>
								</link>
								<link>
									<linkclipref>ArmA 3 2020.11.14 - 21.54.08.77.mp4536872294</linkclipref>
								</link>
								<link>
									<linkclipref>ArmA 3 2020.11.14 - 21.54.08.77.mp45368722941</linkclipref>
								</link>
							</clipitem>
							<clipitem id="ArmA 3 2020.11.14 - 21.55.34.78.mp45368722961">
								<name>ArmA 3 2020.11.14 - 21.55.34.78.mp4</name>
								<duration>841</duration>
								<rate>
									<ntsc>TRUE</ntsc>
									<timebase>24</timebase>
								</rate>
								<in>0</in>
								<out>841</out>
								<start>50454</start>
								<end>51295</end>
								<enabled>FALSE</enabled>
								<masterclipid>ArmA 3 2020.11.14 - 21.55.34.78.mp4</masterclipid>
								<logginginfo>
									<scene />
									<shottake />
									<lognote />
									<good>FALSE</good>
								</logginginfo>
								<labels>
									<label2 />
								</labels>
								<comments>
									<mastercomment1 />
									<mastercomment2 />
									<mastercomment3 />
									<mastercomment4 />
								</comments>
								<file id="ArmA 3 2020.11.14 - 21.55.34.78" />
								<filter>
									<effect>
										<name>Audio Levels</name>
										<effectid>audiolevels</effectid>
										<effectcategory>audiolevels</effectcategory>
										<effecttype>audiolevels</effecttype>
										<mediatype>audio</mediatype>
										<parameter>
											<name>Level</name>
											<parameterid>level</parameterid>
											<valuemin>0</valuemin>
											<valuemax>3,98109</valuemax>
											<value>1</value>
										</parameter>
									</effect>
								</filter>
								<filter>
									<effect>
										<name>Audio Pan</name>
										<effectid>audiopan</effectid>
										<effectcategory>audiopan</effectcategory>
										<effecttype>audiopan</effecttype>
										<mediatype>audio</mediatype>
										<parameter>
											<name>Pan</name>
											<parameterid>pan</parameterid>
											<valuemin>-1</valuemin>
											<valuemax>1</valuemax>
											<value>1</value>
										</parameter>
									</effect>
								</filter>
								<sourcetrack>
									<mediatype>audio</mediatype>
									<trackindex>2</trackindex>
								</sourcetrack>
								<link>
									<linkclipref>ArmA 3 2020.11.14 - 21.55.34.78.mp4805307751</linkclipref>
								</link>
								<link>
									<linkclipref>ArmA 3 2020.11.14 - 21.55.34.78.mp4536872296</linkclipref>
								</link>
								<link>
									<linkclipref>ArmA 3 2020.11.14 - 21.55.34.78.mp45368722961</linkclipref>
								</link>
								<link>
									<linkclipref>ArmA 3 2020.11.14 - 21.55.34.78.mp4536872297</linkclipref>
								</link>
								<link>
									<linkclipref>ArmA 3 2020.11.14 - 21.55.34.78.mp45368722971</linkclipref>
								</link>
							</clipitem>
							<clipitem id="ArmA 3 2020.11.14 - 21.57.02.79.mp45368722991">
								<name>ArmA 3 2020.11.14 - 21.57.02.79.mp4</name>
								<duration>1044</duration>
								<rate>
									<ntsc>TRUE</ntsc>
									<timebase>24</timebase>
								</rate>
								<in>0</in>
								<out>1044</out>
								<start>51296</start>
								<end>52340</end>
								<enabled>FALSE</enabled>
								<masterclipid>ArmA 3 2020.11.14 - 21.57.02.79.mp4</masterclipid>
								<logginginfo>
									<scene />
									<shottake />
									<lognote />
									<good>FALSE</good>
								</logginginfo>
								<labels>
									<label2 />
								</labels>
								<comments>
									<mastercomment1 />
									<mastercomment2 />
									<mastercomment3 />
									<mastercomment4 />
								</comments>
								<file id="ArmA 3 2020.11.14 - 21.57.02.79" />
								<filter>
									<effect>
										<name>Audio Levels</name>
										<effectid>audiolevels</effectid>
										<effectcategory>audiolevels</effectcategory>
										<effecttype>audiolevels</effecttype>
										<mediatype>audio</mediatype>
										<parameter>
											<name>Level</name>
											<parameterid>level</parameterid>
											<valuemin>0</valuemin>
											<valuemax>3,98109</valuemax>
											<value>1</value>
										</parameter>
									</effect>
								</filter>
								<filter>
									<effect>
										<name>Audio Pan</name>
										<effectid>audiopan</effectid>
										<effectcategory>audiopan</effectcategory>
										<effecttype>audiopan</effecttype>
										<mediatype>audio</mediatype>
										<parameter>
											<name>Pan</name>
											<parameterid>pan</parameterid>
											<valuemin>-1</valuemin>
											<valuemax>1</valuemax>
											<value>1</value>
										</parameter>
									</effect>
								</filter>
								<sourcetrack>
									<mediatype>audio</mediatype>
									<trackindex>2</trackindex>
								</sourcetrack>
								<link>
									<linkclipref>ArmA 3 2020.11.14 - 21.57.02.79.mp4805307754</linkclipref>
								</link>
								<link>
									<linkclipref>ArmA 3 2020.11.14 - 21.57.02.79.mp4536872299</linkclipref>
								</link>
								<link>
									<linkclipref>ArmA 3 2020.11.14 - 21.57.02.79.mp45368722991</linkclipref>
								</link>
								<link>
									<linkclipref>ArmA 3 2020.11.14 - 21.57.02.79.mp4536872300</linkclipref>
								</link>
								<link>
									<linkclipref>ArmA 3 2020.11.14 - 21.57.02.79.mp45368723001</linkclipref>
								</link>
							</clipitem>
							<clipitem id="ArmA 3 2020.11.14 - 22.07.31.81.mp45368723021">
								<name>ArmA 3 2020.11.14 - 22.07.31.81.mp4</name>
								<duration>1271</duration>
								<rate>
									<ntsc>TRUE</ntsc>
									<timebase>24</timebase>
								</rate>
								<in>0</in>
								<out>1271</out>
								<start>52341</start>
								<end>53612</end>
								<enabled>FALSE</enabled>
								<masterclipid>ArmA 3 2020.11.14 - 22.07.31.81.mp4</masterclipid>
								<logginginfo>
									<scene />
									<shottake />
									<lognote />
									<good>FALSE</good>
								</logginginfo>
								<labels>
									<label2 />
								</labels>
								<comments>
									<mastercomment1 />
									<mastercomment2 />
									<mastercomment3 />
									<mastercomment4 />
								</comments>
								<file id="ArmA 3 2020.11.14 - 22.07.31.81" />
								<filter>
									<effect>
										<name>Audio Levels</name>
										<effectid>audiolevels</effectid>
										<effectcategory>audiolevels</effectcategory>
										<effecttype>audiolevels</effecttype>
										<mediatype>audio</mediatype>
										<parameter>
											<name>Level</name>
											<parameterid>level</parameterid>
											<valuemin>0</valuemin>
											<valuemax>3,98109</valuemax>
											<value>1</value>
										</parameter>
									</effect>
								</filter>
								<filter>
									<effect>
										<name>Audio Pan</name>
										<effectid>audiopan</effectid>
										<effectcategory>audiopan</effectcategory>
										<effecttype>audiopan</effecttype>
										<mediatype>audio</mediatype>
										<parameter>
											<name>Pan</name>
											<parameterid>pan</parameterid>
											<valuemin>-1</valuemin>
											<valuemax>1</valuemax>
											<value>1</value>
										</parameter>
									</effect>
								</filter>
								<sourcetrack>
									<mediatype>audio</mediatype>
									<trackindex>2</trackindex>
								</sourcetrack>
								<link>
									<linkclipref>ArmA 3 2020.11.14 - 22.07.31.81.mp4805307757</linkclipref>
								</link>
								<link>
									<linkclipref>ArmA 3 2020.11.14 - 22.07.31.81.mp4536872302</linkclipref>
								</link>
								<link>
									<linkclipref>ArmA 3 2020.11.14 - 22.07.31.81.mp45368723021</linkclipref>
								</link>
								<link>
									<linkclipref>ArmA 3 2020.11.14 - 22.07.31.81.mp4536872303</linkclipref>
								</link>
								<link>
									<linkclipref>ArmA 3 2020.11.14 - 22.07.31.81.mp45368723031</linkclipref>
								</link>
							</clipitem>
							<clipitem id="ArmA 3 2020.11.14 - 22.08.38.82.mp45368723051">
								<name>ArmA 3 2020.11.14 - 22.08.38.82.mp4</name>
								<duration>933</duration>
								<rate>
									<ntsc>TRUE</ntsc>
									<timebase>24</timebase>
								</rate>
								<in>0</in>
								<out>933</out>
								<start>53613</start>
								<end>54546</end>
								<enabled>FALSE</enabled>
								<masterclipid>ArmA 3 2020.11.14 - 22.08.38.82.mp4</masterclipid>
								<logginginfo>
									<scene />
									<shottake />
									<lognote />
									<good>FALSE</good>
								</logginginfo>
								<labels>
									<label2 />
								</labels>
								<comments>
									<mastercomment1 />
									<mastercomment2 />
									<mastercomment3 />
									<mastercomment4 />
								</comments>
								<file id="ArmA 3 2020.11.14 - 22.08.38.82" />
								<filter>
									<effect>
										<name>Audio Levels</name>
										<effectid>audiolevels</effectid>
										<effectcategory>audiolevels</effectcategory>
										<effecttype>audiolevels</effecttype>
										<mediatype>audio</mediatype>
										<parameter>
											<name>Level</name>
											<parameterid>level</parameterid>
											<valuemin>0</valuemin>
											<valuemax>3,98109</valuemax>
											<value>1</value>
										</parameter>
									</effect>
								</filter>
								<filter>
									<effect>
										<name>Audio Pan</name>
										<effectid>audiopan</effectid>
										<effectcategory>audiopan</effectcategory>
										<effecttype>audiopan</effecttype>
										<mediatype>audio</mediatype>
										<parameter>
											<name>Pan</name>
											<parameterid>pan</parameterid>
											<valuemin>-1</valuemin>
											<valuemax>1</valuemax>
											<value>1</value>
										</parameter>
									</effect>
								</filter>
								<sourcetrack>
									<mediatype>audio</mediatype>
									<trackindex>2</trackindex>
								</sourcetrack>
								<link>
									<linkclipref>ArmA 3 2020.11.14 - 22.08.38.82.mp4805307760</linkclipref>
								</link>
								<link>
									<linkclipref>ArmA 3 2020.11.14 - 22.08.38.82.mp4536872305</linkclipref>
								</link>
								<link>
									<linkclipref>ArmA 3 2020.11.14 - 22.08.38.82.mp45368723051</linkclipref>
								</link>
								<link>
									<linkclipref>ArmA 3 2020.11.14 - 22.08.38.82.mp4536872306</linkclipref>
								</link>
								<link>
									<linkclipref>ArmA 3 2020.11.14 - 22.08.38.82.mp45368723061</linkclipref>
								</link>
							</clipitem>
							<clipitem id="ArmA 3 2020.11.14 - 22.09.53.83.mp45368723081">
								<name>ArmA 3 2020.11.14 - 22.09.53.83.mp4</name>
								<duration>925</duration>
								<rate>
									<ntsc>TRUE</ntsc>
									<timebase>24</timebase>
								</rate>
								<in>0</in>
								<out>925</out>
								<start>54547</start>
								<end>55472</end>
								<enabled>FALSE</enabled>
								<masterclipid>ArmA 3 2020.11.14 - 22.09.53.83.mp4</masterclipid>
								<logginginfo>
									<scene />
									<shottake />
									<lognote />
									<good>FALSE</good>
								</logginginfo>
								<labels>
									<label2 />
								</labels>
								<comments>
									<mastercomment1 />
									<mastercomment2 />
									<mastercomment3 />
									<mastercomment4 />
								</comments>
								<file id="ArmA 3 2020.11.14 - 22.09.53.83" />
								<filter>
									<effect>
										<name>Audio Levels</name>
										<effectid>audiolevels</effectid>
										<effectcategory>audiolevels</effectcategory>
										<effecttype>audiolevels</effecttype>
										<mediatype>audio</mediatype>
										<parameter>
											<name>Level</name>
											<parameterid>level</parameterid>
											<valuemin>0</valuemin>
											<valuemax>3,98109</valuemax>
											<value>1</value>
										</parameter>
									</effect>
								</filter>
								<filter>
									<effect>
										<name>Audio Pan</name>
										<effectid>audiopan</effectid>
										<effectcategory>audiopan</effectcategory>
										<effecttype>audiopan</effecttype>
										<mediatype>audio</mediatype>
										<parameter>
											<name>Pan</name>
											<parameterid>pan</parameterid>
											<valuemin>-1</valuemin>
											<valuemax>1</valuemax>
											<value>1</value>
										</parameter>
									</effect>
								</filter>
								<sourcetrack>
									<mediatype>audio</mediatype>
									<trackindex>2</trackindex>
								</sourcetrack>
								<link>
									<linkclipref>ArmA 3 2020.11.14 - 22.09.53.83.mp4805307763</linkclipref>
								</link>
								<link>
									<linkclipref>ArmA 3 2020.11.14 - 22.09.53.83.mp4536872308</linkclipref>
								</link>
								<link>
									<linkclipref>ArmA 3 2020.11.14 - 22.09.53.83.mp45368723081</linkclipref>
								</link>
								<link>
									<linkclipref>ArmA 3 2020.11.14 - 22.09.53.83.mp4536872309</linkclipref>
								</link>
								<link>
									<linkclipref>ArmA 3 2020.11.14 - 22.09.53.83.mp45368723091</linkclipref>
								</link>
							</clipitem>
						</track>
					</audio>
				</media>
				<marker>
					<name>SCENE1</name>
					<in>480</in>
					<out>-1</out>
					<color>
						<alpha>0</alpha>
						<red>255</red>
						<green>127</green>
						<blue>0</blue>
					</color>
				</marker>
			</sequence>
		</children>
	</project>
</xmeml>